<svg width="46" height="41" viewBox="0 0 46 41" fill="none" xmlns="http://www.w3.org/2000/svg">
<path d="M29.0085 41H16.2891C0.450548 41 0 22.5968 0 20.4827C0 18.3686 0.450548 0 16.2891 0H29.0085C44.8817 0 45.3322 18.4032 45.3322 20.4827C45.3322 22.5621 44.8817 41 29.0085 41Z" fill="url(#paint0_linear_24_11199)"/>
<g style="mix-blend-mode:multiply" opacity="0.2">
<path d="M42.9054 19.0964C42.7321 22.077 41.4498 30.984 35.0381 34.0339C31.2704 35.647 27.2145 36.4788 23.1159 36.4788C19.0174 36.4788 14.9614 35.647 11.1937 34.0339C4.47009 30.3948 2.94516 22.077 2.73721 19.0964C2.73721 19.8589 1.03899 38.9553 17.3974 38.9553H28.2799C44.6037 38.9553 42.9747 19.8589 42.9054 19.0964Z" fill="#1B8943"/>
</g>
<g style="mix-blend-mode:overlay" opacity="0.6">
<path d="M2.73721 19.2006C2.94516 16.6013 3.32639 8.35274 9.66874 5.6841C13.8147 4.39389 18.1552 3.84253 22.4921 4.05519C26.9534 3.8295 31.4181 4.4287 35.662 5.82273C42.3856 8.8726 42.5935 16.6013 42.8015 19.2006C42.8015 18.5421 44.4997 1.87176 28.1759 1.87176H17.3974C1.03899 1.8371 2.73721 18.5421 2.73721 19.2006Z" fill="white"/>
</g>
<g style="mix-blend-mode:multiply" opacity="0.5">
<path d="M37.4993 14.2443L32.7858 9.53088L21.1409 21.1759L15.1797 15.2147L10.4663 19.9628L16.4274 25.8893L21.1409 30.6374L25.8543 25.8893L37.4993 14.2443Z" fill="#8E0055"/>
</g>
<path d="M37.4993 12.5114L32.7858 7.76331L21.1409 19.4083L15.1797 13.4818L10.4663 18.1953L16.4274 24.1564L21.1409 28.8698L25.8543 24.1564L37.4993 12.5114Z" fill="white"/>
<defs>
<linearGradient id="paint0_linear_24_11199" x1="22.6661" y1="-0.866441" x2="22.6661" y2="39.0938" gradientUnits="userSpaceOnUse">
<stop offset="0.12" stop-color="#A9D21D"/>
<stop offset="0.85" stop-color="#2E8501"/>
<stop offset="1" stop-color="#389701"/>
</linearGradient>
</defs>
</svg>
