<svg width="99" height="95" viewBox="0 0 99 95" fill="none" xmlns="http://www.w3.org/2000/svg">
<path d="M51.9937 70.8582C51.3191 70.8582 50.3273 70.5526 48.7589 69.7626C46.9656 68.8516 46.0776 67.9059 46.1237 66.9487C46.1814 65.6802 47.8132 64.8556 48.7819 64.475C49.0985 64.3881 49.3893 64.2258 49.6296 64.0022C49.5319 63.9331 49.4225 63.8824 49.3067 63.8523C49.2718 63.8436 49.2391 63.8281 49.2102 63.8067C49.1814 63.7853 49.157 63.7585 49.1385 63.7277C49.12 63.6969 49.1078 63.6628 49.1025 63.6273C49.0972 63.5917 49.099 63.5555 49.1077 63.5207C49.1164 63.4859 49.1319 63.4531 49.1533 63.4243C49.1747 63.3954 49.2015 63.371 49.2323 63.3526C49.2631 63.3341 49.2972 63.3219 49.3327 63.3166C49.3683 63.3113 49.4045 63.3131 49.4393 63.3218C49.5546 63.3506 50.1543 63.5178 50.1831 63.9618C50.2119 64.4058 49.8372 64.648 48.9838 64.9824C47.5653 65.5591 46.6773 66.2798 46.6773 66.9718C46.6773 67.6637 47.4499 68.4825 49.0126 69.2783C52.2417 70.9159 52.6049 70.2643 52.9509 69.6358C53.061 69.404 53.2158 69.1963 53.4064 69.0246C54.3809 68.2519 54.8653 67.6061 54.848 67.1159C54.8307 66.6258 54.1503 66.078 53.3603 65.536C52.3397 64.8383 51.1807 64.0541 50.9904 62.6875C50.9806 62.6149 50.9999 62.5413 51.0442 62.4829C51.0886 62.4245 51.1542 62.3861 51.2268 62.3761C51.2621 62.3704 51.2982 62.3719 51.3329 62.3806C51.3676 62.3892 51.4002 62.4047 51.4288 62.4263C51.4573 62.4478 51.4813 62.4749 51.4991 62.5059C51.5169 62.537 51.5282 62.5712 51.5324 62.6068C51.6939 63.76 52.6857 64.4231 53.6659 65.0862C54.5424 65.6629 55.3669 66.2395 55.3958 67.0929C55.3958 67.7906 54.8999 68.5402 53.7466 69.4513C53.6163 69.58 53.509 69.7302 53.4295 69.8952C53.3189 70.1843 53.1215 70.4321 52.8644 70.6045C52.6073 70.7769 52.3032 70.8656 51.9937 70.8582Z" fill="#2E383B"/>
<path d="M93.4298 48.9812L92.8878 48.9409C92.9858 47.5281 93.8681 46.2769 94.6465 45.1755C95.5633 43.8781 96.0477 43.1228 95.4422 42.6096C94.6638 41.9465 93.5279 42.5 92.4323 43.0363C91.6077 43.4399 90.8235 43.8205 90.1258 43.7397L90.195 43.1631C90.7255 43.2323 91.4405 42.8806 92.1959 42.5115C93.3895 41.9349 94.7388 41.266 95.7997 42.1598C96.8607 43.0536 95.9785 44.2068 95.0963 45.4581C94.3755 46.5306 93.5221 47.7184 93.4298 48.9812Z" fill="#2E383B"/>
<path d="M92.1671 50.2726L91.6251 50.1977C91.7231 49.5288 92.0806 48.4678 94.0353 46.8072C94.439 46.467 94.9118 46.1267 95.3616 45.7923C97.005 44.5872 98.706 43.3474 98.0486 41.8482C97.9204 41.5012 97.7013 41.1951 97.4143 40.9617C97.1272 40.7284 96.7827 40.5766 96.4168 40.522C95.9018 40.4866 95.3861 40.5797 94.916 40.7931C94.4459 41.0065 94.0363 41.3334 93.724 41.7444C92.8622 42.7876 91.861 43.7073 90.7486 44.4776L90.4488 44.0163C91.5134 43.2779 92.4718 42.3971 93.2973 41.3985C93.668 40.9145 94.1541 40.5312 94.7111 40.2834C95.2681 40.0356 95.8783 39.9313 96.486 39.98C96.9448 40.0466 97.3776 40.2338 97.7403 40.5226C98.103 40.8113 98.3825 41.1912 98.5503 41.6233C99.3864 43.5262 97.397 44.9677 95.6672 46.2363C95.2001 46.5765 94.7619 46.8994 94.3698 47.2281C92.3631 48.9464 92.2132 49.944 92.1671 50.2726Z" fill="#2E383B"/>
<path d="M6.98313 45.5157L7.53093 45.4753C7.4329 44.0626 6.54489 42.8114 5.76645 41.71C4.84962 40.4126 4.36528 39.6572 4.97073 39.144C5.75493 38.4809 6.88511 39.0345 7.98069 39.5707C8.81103 39.9744 9.58946 40.3607 10.2872 40.2742L10.218 39.7264C9.68747 39.7956 8.97246 39.4439 8.21709 39.0748C7.02349 38.4982 5.67419 37.8293 4.61321 38.7231C3.55223 39.6169 4.43446 40.7701 5.32246 42.0214C6.06053 43.0651 6.89664 44.2529 6.98313 45.5157Z" fill="#2E383B"/>
<path d="M8.24563 46.8072L8.78766 46.7322C8.68963 46.0633 8.3379 45.0024 6.37738 43.3417C5.97375 43.0015 5.50668 42.6613 5.05115 42.3268C3.40778 41.1217 1.70674 39.882 2.36409 38.3828C2.49383 38.0356 2.71412 37.7296 3.00209 37.4964C3.29006 37.2632 3.6352 37.1113 4.00169 37.0565C4.51575 37.0221 5.03033 37.1157 5.49929 37.3291C5.96826 37.5424 6.37696 37.8688 6.68875 38.279C7.55053 39.3221 8.5517 40.2418 9.66411 41.0121L9.96395 40.5509C8.8993 39.8125 7.9409 38.9317 7.11546 37.933C6.74363 37.4503 6.25739 37.0678 5.70065 36.8201C5.14392 36.5725 4.53426 36.4674 3.92675 36.5145C3.46817 36.5817 3.03557 36.7691 2.67297 37.0578C2.31037 37.3465 2.0307 37.726 1.86243 38.1579C1.02633 40.0607 3.01567 41.5023 4.74554 42.7708C5.2126 43.1111 5.65083 43.434 6.04293 43.7626C8.04958 45.4867 8.1995 46.4785 8.24563 46.8072Z" fill="#2E383B"/>
<path d="M52.4092 90.7919C52.4092 87.361 49.9989 83.1862 47.0293 81.4737C45.5589 80.626 44.2269 80.5396 43.2582 81.0816L47.358 78.6944C48.3325 78.1177 49.6645 78.21 51.1637 79.0692C54.1333 80.799 56.5378 84.9565 56.5378 88.3874C56.5378 90.1172 55.9612 91.2993 54.9694 91.8471L50.9849 94.1536C51.8672 93.5769 52.4092 92.4122 52.4092 90.7919Z" fill="#2E373A"/>
<path d="M41.6494 84.576C41.6494 88.0069 44.0597 92.1816 47.0293 93.8942C49.9989 95.6067 52.4092 94.2171 52.4092 90.7919C52.4092 87.3668 49.9989 83.1863 47.0293 81.4737C44.0597 79.7612 41.6494 81.1508 41.6494 84.576Z" fill="#485154"/>
<path d="M42.5432 85.0953C42.6273 86.6516 43.0774 88.1661 43.8569 89.5157C44.6364 90.8653 45.7233 92.0119 47.0294 92.8624C49.5031 94.2924 51.5155 93.1334 51.5155 90.2734C51.4314 88.7171 50.9813 87.2026 50.2018 85.853C49.4223 84.5034 48.3354 83.3568 47.0294 82.5063C44.5499 81.0763 42.5432 82.2353 42.5432 85.0953Z" fill="#3B4447"/>
<path d="M54.5888 82.5116L53.4356 83.192C53.4933 83.2785 53.5567 83.3708 53.6086 83.463L54.7618 82.7826L54.5888 82.5116Z" fill="#151E21"/>
<path d="M50.483 84.9164L50.6617 85.1989L52.0687 84.3744L51.8957 84.0976L50.483 84.9164Z" fill="#151E21"/>
<path d="M55.2923 83.6879L54.1391 84.3625C54.191 84.4548 54.2371 84.5528 54.289 84.6508L55.4422 83.9762L55.2923 83.6879Z" fill="#151E21"/>
<path d="M51.1579 86.0927C51.2098 86.1907 51.2617 86.2887 51.3078 86.3925L52.7321 85.5564C52.6802 85.4584 52.634 85.3604 52.5764 85.2623L51.1579 86.0927Z" fill="#151E21"/>
<path d="M55.8342 84.9051L54.6809 85.574L54.7962 85.8623L55.9495 85.1934C55.9091 85.1011 55.8745 85.0031 55.8342 84.9051Z" fill="#151E21"/>
<path d="M51.7057 87.3093C51.7461 87.4073 51.7807 87.5111 51.8153 87.6149L53.2511 86.773C53.2107 86.675 53.1761 86.5769 53.1358 86.4731L51.7057 87.3093Z" fill="#151E21"/>
<path d="M56.2322 86.127L55.0789 86.7901C55.0789 86.8881 55.1308 86.9803 55.1539 87.0784L56.3071 86.4153L56.2322 86.127Z" fill="#151E21"/>
<path d="M52.0977 88.532C52.1266 88.6358 52.1496 88.7338 52.1727 88.8319L53.62 87.99C53.62 87.892 53.5681 87.7939 53.5451 87.6959L52.0977 88.532Z" fill="#151E21"/>
<path d="M56.4685 87.3092L55.3441 87.9666C55.3441 88.0588 55.3729 88.1568 55.3787 88.2491L56.4974 87.5917C56.4916 87.4995 56.4801 87.4072 56.4685 87.3092Z" fill="#151E21"/>
<path d="M52.3341 89.7138L52.3687 90.0137L53.8276 89.1603L53.793 88.8662L52.3341 89.7138Z" fill="#151E21"/>
<path d="M55.4364 89.1602C55.4364 89.2237 55.4364 89.2813 55.4364 89.3448L56.5378 88.6989C56.5378 88.6124 56.5378 88.5317 56.5378 88.4395L55.4364 89.0853V89.1602Z" fill="#151E21"/>
<path d="M52.3977 91.1207L53.8796 90.2557V89.9905L52.4092 90.8439C52.4092 90.9419 52.4034 91.0399 52.3977 91.1207Z" fill="#151E21"/>
<path d="M55.3672 90.0999C55.3672 90.1749 55.3672 90.2441 55.3268 90.319L56.4051 89.6905C56.4051 89.6156 56.4397 89.5406 56.4513 89.4656L55.3672 90.0999Z" fill="#151E21"/>
<path d="M52.2824 92.1125L53.7873 91.2303C53.7873 91.1553 53.8162 91.0804 53.8277 90.9996L52.3285 91.8703C52.2823 91.9511 52.2824 92.0318 52.2824 92.1125Z" fill="#151E21"/>
<path d="M55.1654 90.9705L55.0962 91.1434L56.1341 90.538C56.1341 90.4803 56.186 90.4227 56.2091 90.3593L55.1654 90.9705Z" fill="#151E21"/>
<path d="M51.9824 92.9658L53.5393 92.0547L53.6085 91.8702L52.0689 92.7697L52.0285 92.8735C52.0111 92.9032 51.9957 92.934 51.9824 92.9658Z" fill="#151E21"/>
<path d="M54.8367 91.657C54.8132 91.7014 54.7862 91.7438 54.756 91.7839L55.7074 91.2073C55.7432 91.1655 55.7759 91.1211 55.8054 91.0746L54.8367 91.6513V91.657Z" fill="#151E21"/>
<path d="M53.2048 92.6945L53.2913 92.5562L51.671 93.496C51.632 93.5542 51.5896 93.61 51.5441 93.6633L53.2048 92.6945Z" fill="#151E21"/>
<path d="M53.8161 81.4103L52.6629 82.0965C52.7321 82.1772 52.8012 82.2637 52.8647 82.3502L54.0179 81.6641L53.8161 81.4103Z" fill="#151E21"/>
<path d="M49.6817 83.8147C49.7558 83.8992 49.8251 83.9877 49.8893 84.08L51.2904 83.2554L51.0829 82.9959L49.6817 83.8147Z" fill="#151E21"/>
<path d="M52.9396 80.4417L51.7518 81.1337C51.8267 81.2086 51.9075 81.2836 51.9767 81.3643L53.1645 80.6724L52.9396 80.4417Z" fill="#151E21"/>
<path d="M48.8226 82.8465L49.059 83.0829L50.4429 82.2699L50.2123 82.0392L48.8226 82.8465Z" fill="#151E21"/>
<path d="M52.0113 79.6402L50.8061 80.3379L51.0656 80.534L52.2592 79.8305L52.0113 79.6402Z" fill="#151E21"/>
<path d="M47.877 82.039L48.1365 82.2465L49.5088 81.4393L49.2551 81.2432L47.877 82.039Z" fill="#151E21"/>
<path d="M51.0424 79.0002L49.82 79.7152L50.0449 79.8364L51.2558 79.1271L51.1635 79.0694L51.0424 79.0002Z" fill="#151E21"/>
<path d="M46.9081 81.4046L47.0292 81.4738L47.1388 81.5372L48.4938 80.7415L48.2632 80.6204L46.9081 81.4046Z" fill="#151E21"/>
<path d="M50.0681 78.5675L48.8226 79.2941L49.0475 79.369L50.2872 78.6482L50.0681 78.5675Z" fill="#151E21"/>
<path d="M45.9395 80.9723C46.02 80.996 46.099 81.0249 46.1759 81.0587L47.5079 80.2803L47.2715 80.1996L45.9395 80.9723Z" fill="#151E21"/>
<path d="M49.1511 78.3544L47.848 79.1097C47.9305 79.1038 48.0134 79.1038 48.0959 79.1097L49.3703 78.3601L49.1511 78.3544Z" fill="#151E21"/>
<path d="M45.0169 80.7642C45.0983 80.77 45.1792 80.7816 45.2591 80.7988L46.5449 80.0435H46.2912L45.0169 80.7642Z" fill="#151E21"/>
<path d="M48.2747 78.3544L46.8043 79.2078C46.8874 79.1825 46.9722 79.1633 47.058 79.1502L48.4477 78.3314L48.2747 78.3544Z" fill="#151E21"/>
<path d="M44.1403 80.7759H44.3479L45.5011 80.0955C45.4093 80.1124 45.3188 80.1356 45.2301 80.1647L44.1403 80.7759Z" fill="#151E21"/>
<path d="M51.7805 90.4918L52.4033 90.8493C52.4033 90.9416 52.4033 91.0339 52.4033 91.1204L51.7805 90.7571C51.7805 90.6706 51.7805 90.5841 51.7805 90.4918Z" fill="#2E373A"/>
<path d="M49.399 84.2649L49.7104 83.8209L49.9179 84.0804L49.6066 84.5244L49.399 84.2649Z" fill="#2E373A"/>
<path d="M47.7674 82.6851L47.8769 82.0392L48.1076 82.2238L48.0038 82.8696L47.7674 82.6851Z" fill="#2E373A"/>
<path d="M48.5975 83.4054L48.8108 82.8288L49.0357 83.0594L48.8224 83.6072L48.5975 83.4054Z" fill="#2E373A"/>
<path d="M51.5096 88.4395L52.0862 88.5317C52.1151 88.6355 52.1381 88.7335 52.1612 88.8373L51.5846 88.7451C51.5615 88.6413 51.5384 88.5432 51.5096 88.4395Z" fill="#2E373A"/>
<path d="M51.7057 89.4941L52.3227 89.7248L52.3573 90.0189L51.7403 89.7882C51.7345 89.6896 51.7229 89.5914 51.7057 89.4941Z" fill="#2E373A"/>
<path d="M47.0292 82.1946L46.9081 82.1254V81.4103L47.0292 81.4738L47.1503 81.543V82.2637L47.0292 82.1946Z" fill="#2E373A"/>
<path d="M50.6793 86.2714L51.1579 86.0869L51.3078 86.3868L50.8292 86.577L50.6793 86.2714Z" fill="#2E373A"/>
<path d="M51.1636 87.3553L51.6999 87.3092C51.7402 87.4072 51.7806 87.511 51.8152 87.6148L51.2732 87.661C51.2386 87.5802 51.1982 87.4591 51.1636 87.3553Z" fill="#2E373A"/>
<path d="M50.0797 85.2336L50.4775 84.9106L50.6563 85.199L50.2584 85.5161L50.0797 85.2336Z" fill="#2E373A"/>
<path d="M46.0548 81.7503L45.9452 80.9776C46.0261 81.0004 46.1052 81.0293 46.1816 81.0641L46.2912 81.831L46.0548 81.7503Z" fill="#2E373A"/>
<path d="M42.4797 83.4804L41.9031 82.9038C41.9031 82.8289 41.9492 82.7539 41.9781 82.6847L42.5547 83.2613L42.4797 83.4804Z" fill="#2E373A"/>
<path d="M42.7851 82.7594L42.2431 82.0847C42.2777 82.0271 42.318 81.9694 42.3584 81.9117L42.8947 82.5806C42.8548 82.6381 42.8182 82.6978 42.7851 82.7594Z" fill="#2E373A"/>
<path d="M42.3067 84.3336L41.6897 83.855L41.7243 83.6013L42.3355 84.0799C42.324 84.1606 42.3125 84.2471 42.3067 84.3336Z" fill="#2E373A"/>
<path d="M43.2292 82.189L42.7506 81.4509L42.9006 81.3183L43.3792 82.0621C43.3266 82.1013 43.2765 82.1436 43.2292 82.189Z" fill="#2E373A"/>
<path d="M43.8002 81.814L43.3966 81.0298L43.5753 80.949L43.979 81.7332L43.8002 81.814Z" fill="#2E373A"/>
<path d="M45.236 81.5606L45.0226 80.7649L45.2475 80.7937L45.4609 81.5952L45.236 81.5606Z" fill="#2E373A"/>
<path d="M44.4747 81.5779L44.1633 80.7764H44.3651L44.6823 81.5779H44.4747Z" fill="#2E373A"/>
<path d="M43.5523 89.4253L43.0737 89.6098L42.918 89.3157L43.3966 89.1254L43.5523 89.4253Z" fill="#2E373A"/>
<path d="M43.0563 88.3989L42.5142 88.445L42.3932 88.1394L42.9352 88.0933C42.964 88.1913 43.0101 88.2951 43.0563 88.3989Z" fill="#2E373A"/>
<path d="M44.1521 90.3938L43.7484 90.711L43.5639 90.4342L43.9675 90.1171L44.1521 90.3938Z" fill="#2E373A"/>
<path d="M44.8324 91.2823L44.521 91.7263L44.3134 91.4726L44.6248 91.0286C44.6882 91.1151 44.7862 91.2016 44.8324 91.2823Z" fill="#2E373A"/>
<path d="M45.5704 92.0658L45.3571 92.6424L45.1322 92.4233L45.3455 91.8467L45.5704 92.0658Z" fill="#2E373A"/>
<path d="M42.664 87.3439L42.0874 87.2516L42.0009 86.946L42.5775 87.0382C42.6006 87.142 42.6294 87.2401 42.664 87.3439Z" fill="#2E373A"/>
<path d="M42.2779 85.0027C42.2779 85.095 42.2779 85.1873 42.2779 85.2795L41.6552 84.922C41.6552 84.824 41.6552 84.7317 41.6552 84.6395L42.2779 85.0027Z" fill="#2E373A"/>
<path d="M51.7058 91.3918L52.3228 91.8705L52.2709 92.1126L51.6597 91.634C51.6712 91.5533 51.7058 91.4726 51.7058 91.3918Z" fill="#2E373A"/>
<path d="M42.4048 86.2944L41.7878 86.0638C41.7878 85.9658 41.7533 85.8677 41.7417 85.7697L42.3529 85.9946L42.4048 86.2944Z" fill="#2E373A"/>
<path d="M46.349 92.7234L46.2394 93.375L46.0088 93.1905L46.1183 92.5447L46.349 92.7234Z" fill="#2E373A"/>
<path d="M50.0911 93.6523L50.489 94.4366L50.3044 94.5L49.9066 93.7158L50.0911 93.6523Z" fill="#2E373A"/>
<path d="M50.6619 93.3466L51.1405 94.0847L50.9848 94.2L50.5062 93.4619L50.6619 93.3466Z" fill="#2E373A"/>
<path d="M51.1289 92.8273L51.6709 93.4962C51.6319 93.5544 51.5895 93.6102 51.544 93.6634L51.0078 92.9888L51.1289 92.8273Z" fill="#2E373A"/>
<path d="M51.4805 92.1929L52.0572 92.7696L51.9707 92.9771L51.3941 92.4005L51.4805 92.1929Z" fill="#2E373A"/>
<path d="M47.9403 93.6L48.0498 94.3727L47.8134 94.2804L47.7096 93.5078L47.9403 93.6Z" fill="#2E373A"/>
<path d="M47.0292 93.1732L47.1503 93.2424V93.9574L47.0292 93.894L46.9081 93.8248V93.104L47.0292 93.1732Z" fill="#2E373A"/>
<path d="M48.713 93.7907L48.9264 94.5922L48.7015 94.5519L48.4881 93.7504L48.713 93.7907Z" fill="#2E373A"/>
<path d="M49.4339 93.8075L49.7453 94.6148H49.5377L49.2264 93.8075H49.4339Z" fill="#2E373A"/>
<path opacity="0.5" d="M43.1774 85.7981C43.2463 87.056 43.6106 88.2801 44.2407 89.371C44.8709 90.462 45.7491 91.3892 46.8044 92.0774C48.8052 93.2307 50.4255 92.2966 50.4255 89.9843C50.3577 88.7268 49.9945 87.5028 49.3654 86.4119C48.7362 85.3209 47.8589 84.3935 46.8044 83.7049C44.7862 82.5517 43.1774 83.4858 43.1774 85.7981Z" fill="url(#paint0_linear_24_38810)"/>
<path opacity="0.5" d="M43.6732 86.0871C43.7325 87.173 44.0468 88.2297 44.5908 89.1715C45.1348 90.1132 45.8932 90.9135 46.8043 91.5073C48.5342 92.5049 49.9353 91.6918 49.9353 89.6967C49.8752 88.6118 49.5605 87.5562 49.0165 86.6155C48.4725 85.6748 47.7147 84.8755 46.8043 84.2822C45.0744 83.2789 43.6732 84.1208 43.6732 86.0871Z" fill="url(#paint1_linear_24_38810)"/>
<path d="M45.0746 84.4664C44.7786 84.8849 44.6305 85.3901 44.6536 85.9022C44.7047 86.8461 44.9778 87.7648 45.4507 88.5834C45.9236 89.4019 46.583 90.0974 47.3753 90.6132C47.6251 90.7846 47.9096 90.8989 48.2086 90.9477C48.5077 90.9966 48.8138 90.9788 49.1051 90.8957C48.6208 91.4723 47.7731 91.5934 46.7987 91.0341C46.0064 90.5183 45.347 89.8229 44.8741 89.0043C44.4011 88.1857 44.1281 87.2671 44.077 86.3231C44.0828 85.3428 44.4691 84.697 45.0746 84.4664Z" fill="url(#paint2_linear_24_38810)"/>
<path d="M47.3753 90.613C46.583 90.0972 45.9237 89.4018 45.4507 88.5832C44.9778 87.7646 44.7047 86.846 44.6537 85.902C44.6305 85.3899 44.7787 84.8847 45.0746 84.4662C45.366 84.3831 45.6721 84.3653 45.9711 84.4141C46.2701 84.463 46.5547 84.5772 46.8045 84.7487C47.5959 85.2667 48.2546 85.9635 48.7273 86.7828C49.2001 87.6021 49.4737 88.521 49.5261 89.4655C49.5506 89.9759 49.4023 90.4797 49.1052 90.8955C48.8138 90.9786 48.5077 90.9964 48.2087 90.9475C47.9097 90.8987 47.6251 90.7845 47.3753 90.613Z" fill="url(#paint3_linear_24_38810)"/>
<path d="M48.5054 83.5094L47.2253 82.7713C46.9455 82.5884 46.7125 82.3423 46.5452 82.0529C46.378 81.7634 46.2811 81.4387 46.2624 81.1049V75.9153C46.2507 75.7967 46.2708 75.6771 46.3204 75.5687C46.37 75.4603 46.4475 75.3671 46.5449 75.2983L45.1033 76.1344C45.0055 76.2027 44.9277 76.296 44.878 76.4044C44.8284 76.5129 44.8086 76.6327 44.8208 76.7514V81.941C44.8395 82.2748 44.9364 82.5995 45.1037 82.889C45.271 83.1784 45.5039 83.4245 45.7838 83.6074L47.0639 84.3455C47.162 84.4166 47.2771 84.4604 47.3976 84.4726C47.5182 84.4847 47.6397 84.4648 47.7501 84.4147C47.9865 84.2706 48.2286 84.1322 48.4708 83.9938L49.1858 83.5786C49.0763 83.6276 48.9558 83.647 48.8364 83.6348C48.717 83.6227 48.6029 83.5794 48.5054 83.5094Z" fill="url(#paint4_linear_24_38810)"/>
<path d="M51.1867 68.1712L43.6617 72.5016L49.255 75.7307L56.7799 71.4003L51.1867 68.1712Z" fill="#87C037"/>
<path d="M56.7798 71.4003L49.2549 75.7308V77.1781L56.7798 72.8477V71.4003Z" fill="#3A7318"/>
<path d="M43.6618 72.5015L43.633 83.959L45.1149 89.2351L47.7212 90.7458L49.2262 87.1881L49.2608 75.7306L43.6618 72.5015ZM48.0384 83.7975C48.0384 84.403 47.6001 84.6509 47.0696 84.3453L45.7895 83.6072C45.5097 83.4243 45.2767 83.1782 45.1095 82.8888C44.9422 82.5993 44.8453 82.2746 44.8266 81.9408V76.7512C44.8266 76.14 45.2648 75.8921 45.7953 76.1746L47.0812 76.9184C47.3612 77.1006 47.594 77.3467 47.7604 77.6364C47.9269 77.9261 48.0221 78.2512 48.0384 78.5849V83.7975Z" fill="#548D32"/>
<path d="M49.255 75.7307L49.2204 87.1882L47.7154 90.7459L49.1512 89.9098L50.6562 86.352L50.6908 74.8946L49.255 75.7307Z" fill="#3A7318"/>
<path d="M47.1502 87.2747C47.1502 87.7821 46.7927 87.9897 46.3487 87.736C46.1162 87.584 45.9226 87.3797 45.7834 87.1394C45.6442 86.899 45.5633 86.6294 45.5472 86.3521C45.5472 85.8389 45.9105 85.6313 46.3487 85.8908C46.5838 86.0399 46.7795 86.2436 46.919 86.4845C47.0585 86.7255 47.1379 86.9965 47.1502 87.2747Z" fill="#3B4447"/>
<path d="M52.9223 65.6688C52.2207 65.3136 51.4454 65.1285 50.6591 65.1285C49.8727 65.1285 49.0974 65.3136 48.3958 65.6688C48.1383 65.7849 47.9161 65.9672 47.752 66.1971C47.5879 66.4271 47.4878 66.6964 47.4617 66.9777V71.1467C47.4878 71.428 47.5879 71.6973 47.752 71.9273C47.9161 72.1572 48.1383 72.3395 48.3958 72.4556C49.0974 72.8108 49.8727 72.9959 50.6591 72.9959C51.4454 72.9959 52.2207 72.8108 52.9223 72.4556C53.1798 72.3395 53.402 72.1572 53.5661 71.9273C53.7302 71.6973 53.8304 71.428 53.8564 71.1467V66.9777C53.8304 66.6964 53.7302 66.4271 53.5661 66.1971C53.402 65.9672 53.1798 65.7849 52.9223 65.6688Z" fill="#C8CFD3"/>
<path d="M52.9223 65.6688C54.1678 66.3896 54.1678 67.5601 52.9223 68.2809C52.2207 68.6361 51.4454 68.8211 50.6591 68.8211C49.8727 68.8211 49.0974 68.6361 48.3958 68.2809C47.1503 67.5601 47.1503 66.3896 48.3958 65.6688C49.0974 65.3136 49.8727 65.1285 50.6591 65.1285C51.4454 65.1285 52.2207 65.3136 52.9223 65.6688Z" fill="#EEF5F9"/>
<path d="M10.7655 66.6951C10.7655 63.2642 8.35526 59.0895 5.38566 57.3769C3.91527 56.5293 2.58327 56.4428 1.61455 56.9848L5.71432 54.5976C6.68881 54.021 8.02081 54.1133 9.52002 54.9724C12.4896 56.7023 14.8941 60.8597 14.8941 64.2906C14.8941 66.0205 14.3175 67.2083 13.3257 67.7503L9.34127 70.0568C10.2177 69.486 10.7655 68.3154 10.7655 66.6951Z" fill="#2E373A"/>
<path d="M0 60.4787C0 63.9039 2.41029 68.0786 5.37988 69.7912C8.34948 71.5037 10.7598 70.1141 10.7598 66.689C10.7598 63.2638 8.34948 59.0833 5.37988 57.3708C2.41029 55.6582 0 57.0536 0 60.4787Z" fill="#485154"/>
<path d="M0.893827 60.9982C0.977886 62.5544 1.42795 64.0689 2.20745 65.4185C2.98695 66.7681 4.0739 67.9148 5.37994 68.7652C7.85364 70.1953 9.86605 69.0363 9.86605 66.1762C9.78063 64.6203 9.32998 63.1063 8.5506 61.7569C7.77122 60.4075 6.68501 59.2606 5.37994 58.4091C2.90047 56.9791 0.893827 58.1381 0.893827 60.9982Z" fill="#3B4447"/>
<path d="M12.9622 58.4144L11.809 59.0948L11.982 59.3658L13.1352 58.6854L12.9622 58.4144Z" fill="#151E21"/>
<path d="M8.834 60.8196C8.89166 60.9119 8.94932 61.0099 9.01275 61.1022L10.4197 60.2776C10.362 60.1854 10.3044 60.0931 10.241 60.0009L8.834 60.8196Z" fill="#151E21"/>
<path d="M13.6486 59.5906L12.4954 60.2653C12.5473 60.3576 12.5934 60.4556 12.6453 60.5536L13.7986 59.8789C13.7351 59.7809 13.689 59.6887 13.6486 59.5906Z" fill="#151E21"/>
<path d="M9.50846 61.9955C9.56035 62.0935 9.61224 62.1973 9.65837 62.2953L11.0769 61.4592C11.0307 61.3612 10.9846 61.2632 10.9269 61.1652L9.50846 61.9955Z" fill="#151E21"/>
<path d="M14.1848 60.8074L13.0315 61.4763L13.1468 61.7646L14.3001 61.0957C14.2597 61.0035 14.2251 60.9055 14.1848 60.8074Z" fill="#151E21"/>
<path d="M10.0563 63.2123C10.0909 63.3103 10.1313 63.4141 10.1659 63.5179L11.5959 62.676C11.5613 62.578 11.5267 62.48 11.4863 62.382L10.0563 63.2123Z" fill="#151E21"/>
<path d="M14.5828 62.0297L13.4295 62.6928C13.4295 62.7909 13.4814 62.8831 13.5045 62.9811L14.6577 62.318L14.5828 62.0297Z" fill="#151E21"/>
<path d="M10.4486 64.4348C10.4774 64.5386 10.5004 64.6366 10.5235 64.7346L11.9708 63.8928C11.9708 63.7948 11.9189 63.6967 11.8901 63.5987L10.4486 64.4348Z" fill="#151E21"/>
<path d="M14.8018 63.2125L13.6774 63.8698C13.6774 63.9621 13.7063 64.0601 13.712 64.1524L14.8307 63.495C14.8422 63.4028 14.8307 63.3105 14.8018 63.2125Z" fill="#151E21"/>
<path d="M10.685 65.6166L10.7196 65.9165L12.1784 65.0631L12.1438 64.769L10.685 65.6166Z" fill="#151E21"/>
<path d="M13.787 65.092C13.787 65.1554 13.787 65.2131 13.787 65.2765L14.8883 64.6307C14.8883 64.55 14.8883 64.4635 14.8883 64.3712L13.787 65.017V65.092Z" fill="#151E21"/>
<path d="M10.7655 67.0239L12.2474 66.159V65.8937L10.7655 66.7471C10.7655 66.8221 10.7655 66.9317 10.7655 67.0239Z" fill="#151E21"/>
<path d="M13.7178 66.0027C13.7178 66.0776 13.7178 66.1468 13.6774 66.2218L14.7557 65.5933C14.7557 65.5183 14.7903 65.4434 14.8018 65.3684L13.7178 66.0027Z" fill="#151E21"/>
<path d="M10.6212 68.0153L12.1262 67.133C12.1262 67.0581 12.155 66.9831 12.1665 66.9024L10.6673 67.7731C10.6558 67.8596 10.6385 67.9346 10.6212 68.0153Z" fill="#151E21"/>
<path d="M13.5102 66.8737L13.441 67.0467L14.4789 66.4412C14.4789 66.3835 14.5308 66.3259 14.5539 66.2625L13.5102 66.8737Z" fill="#151E21"/>
<path d="M10.333 68.8692L11.9187 67.9755L11.9879 67.791L10.4483 68.6847L10.408 68.7885C10.381 68.8135 10.356 68.8405 10.333 68.8692Z" fill="#151E21"/>
<path d="M13.1873 67.5598C13.1638 67.6042 13.1368 67.6466 13.1066 67.6867L14.058 67.11C14.0938 67.0682 14.1265 67.0239 14.156 66.9774L13.1873 67.554V67.5598Z" fill="#151E21"/>
<path d="M11.5554 68.5978L11.6419 68.4594L10.0216 69.3993C9.98255 69.4574 9.94019 69.5133 9.89472 69.5665L11.5554 68.5978Z" fill="#151E21"/>
<path d="M12.1667 57.3132L11.0134 57.9994C11.0826 58.0801 11.1518 58.1666 11.2153 58.2531L12.3685 57.5669L12.1667 57.3132Z" fill="#151E21"/>
<path d="M8.03248 59.7177C8.10744 59.8042 8.17086 59.8907 8.24005 59.983L9.64124 59.1584L9.43366 58.9047L8.03248 59.7177Z" fill="#151E21"/>
<path d="M11.2902 56.3505L10.1023 57.0425L10.3272 57.2674L11.5151 56.5754C11.442 56.487 11.3671 56.412 11.2902 56.3505Z" fill="#151E21"/>
<path d="M7.15591 58.7493L7.39233 58.9799L8.77622 58.1669C8.70126 58.0919 8.6263 58.0112 8.54557 57.942L7.15591 58.7493Z" fill="#151E21"/>
<path d="M10.3619 55.543L9.15673 56.2407C9.24322 56.3041 9.32971 56.3675 9.41044 56.4367L10.6041 55.7332L10.3619 55.543Z" fill="#151E21"/>
<path d="M6.22756 57.948L6.48703 58.1498L7.85939 57.3425L7.59992 57.1465L6.22756 57.948Z" fill="#151E21"/>
<path d="M9.38748 54.9086L8.17082 55.6178L8.39571 55.7389L9.6066 55.0297L9.51434 54.972L9.38748 54.9086Z" fill="#151E21"/>
<path d="M5.25869 57.3078L5.37978 57.377L5.48933 57.4404L6.8444 56.6505L6.61373 56.5236L5.25869 57.3078Z" fill="#151E21"/>
<path d="M8.41868 54.4708L7.17318 55.1973L7.39807 55.2723L8.63203 54.5515L8.41868 54.4708Z" fill="#151E21"/>
<path d="M4.2843 56.875C4.36488 56.8987 4.44385 56.9276 4.52071 56.9615L5.84693 56.1831L5.61052 56.1024L4.2843 56.875Z" fill="#151E21"/>
<path d="M7.50172 54.2631L6.19855 55.0185C6.2811 55.0126 6.36397 55.0126 6.44652 55.0185L7.72084 54.2689L7.50172 54.2631Z" fill="#151E21"/>
<path d="M3.36768 56.6676L3.60985 56.7021L4.89572 55.9468H4.64201L3.36768 56.6676Z" fill="#151E21"/>
<path d="M6.6255 54.2747L5.1551 55.1339C5.23724 55.104 5.32227 55.0827 5.40882 55.0704L6.79848 54.2516L6.6255 54.2747Z" fill="#151E21"/>
<path d="M2.49112 56.6792H2.69871L3.85195 55.9988L3.57517 56.068L2.49112 56.6792Z" fill="#151E21"/>
<path d="M10.1314 66.3951L10.7541 66.7526C10.7541 66.8448 10.7541 66.9371 10.7541 67.0236L10.1314 66.6661C10.1314 66.5738 10.1314 66.4873 10.1314 66.3951Z" fill="#2E373A"/>
<path d="M7.72679 60.1675L8.03815 59.7292L8.24574 59.983L7.93436 60.427L7.72679 60.1675Z" fill="#2E373A"/>
<path d="M6.11799 58.5878L6.22755 57.942L6.45819 58.1265L6.34863 58.7724L6.11799 58.5878Z" fill="#2E373A"/>
<path d="M6.94851 59.3257L7.16186 58.7491L7.38675 58.9797L7.17339 59.5564L6.94851 59.3257Z" fill="#2E373A"/>
<path d="M9.86019 64.3427L10.4368 64.435C10.4656 64.5387 10.4887 64.6426 10.5118 64.7406L9.93515 64.6483C9.91209 64.5445 9.88902 64.4465 9.86019 64.3427Z" fill="#2E373A"/>
<path d="M10.068 65.397L10.685 65.6276L10.7196 65.9217L10.1026 65.6911C10.0968 65.5924 10.0853 65.4942 10.068 65.397Z" fill="#2E373A"/>
<path d="M5.37978 58.0974L5.25869 58.0339V57.3132L5.37978 57.3766L5.50086 57.4516V58.1723L5.37978 58.0974Z" fill="#2E373A"/>
<path d="M9.03565 62.209L9.51423 62.0187C9.56613 62.1167 9.61227 62.2205 9.66416 62.3185L9.18557 62.5088L9.03565 62.209Z" fill="#2E373A"/>
<path d="M9.51421 63.2586L10.0505 63.2125C10.0908 63.3105 10.1312 63.4143 10.1658 63.5181L9.62377 63.5642C9.61224 63.4662 9.54881 63.3624 9.51421 63.2586Z" fill="#2E373A"/>
<path d="M8.45902 61.1361L8.85689 60.819C8.92032 60.9112 8.97798 61.0035 9.03564 61.1015L8.63777 61.4187L8.45902 61.1361Z" fill="#2E373A"/>
<path d="M4.42263 57.6535L4.31307 56.8809C4.39396 56.9036 4.473 56.9325 4.54949 56.9673L4.65904 57.7342L4.42263 57.6535Z" fill="#2E373A"/>
<path d="M0.824536 59.3837L0.247915 58.8071C0.247915 58.7321 0.294048 58.6629 0.322879 58.588L0.8995 59.1646L0.824536 59.3837Z" fill="#2E373A"/>
<path d="M1.13591 58.6626L0.593889 57.9937C0.628947 57.932 0.667456 57.8723 0.70922 57.8149L1.24547 58.4896C1.20557 58.545 1.16899 58.6028 1.13591 58.6626Z" fill="#2E373A"/>
<path d="M0.657503 60.2369L0.040514 59.7583L0.0751098 59.5046L0.686327 59.9832C0.674794 60.0639 0.663269 60.1504 0.657503 60.2369Z" fill="#2E373A"/>
<path d="M1.58006 58.0922L1.10146 57.3542L1.25139 57.2216L1.72997 57.9654C1.67743 58.0046 1.62737 58.0469 1.58006 58.0922Z" fill="#2E373A"/>
<path d="M2.15078 57.694L1.74714 56.9098L1.92591 56.8348L2.32953 57.6133L2.15078 57.694Z" fill="#2E373A"/>
<path d="M3.58655 57.4692L3.3732 56.6677L3.59809 56.6965L3.81144 57.498L3.58655 57.4692Z" fill="#2E373A"/>
<path d="M2.82552 57.4807L2.51414 56.6792H2.71596L3.03309 57.4807H2.82552Z" fill="#2E373A"/>
<path d="M1.90286 65.328L1.42426 65.5126L1.26858 65.2185L1.74717 65.0282L1.90286 65.328Z" fill="#2E373A"/>
<path d="M1.40112 64.3021L0.859093 64.3482L0.737989 64.0426L1.27426 63.9965C1.31462 64.0945 1.36075 64.1983 1.40112 64.3021Z" fill="#2E373A"/>
<path d="M2.50265 66.2971L2.09901 66.62L1.91449 66.3375L2.31813 66.0203C2.37579 66.1126 2.43923 66.2048 2.50265 66.2971Z" fill="#2E373A"/>
<path d="M3.18289 67.1851L2.87151 67.629C2.80803 67.5553 2.74837 67.4783 2.69276 67.3984L3.00414 66.9544C3.05975 67.0343 3.11941 67.1113 3.18289 67.1851Z" fill="#2E373A"/>
<path d="M3.92101 67.9755L3.70766 68.5521L3.48277 68.333L3.69612 67.7564L3.92101 67.9755Z" fill="#2E373A"/>
<path d="M1.01484 63.2471L0.43822 63.1549L0.35173 62.8492L0.928351 62.9415C0.962949 63.0453 0.962945 63.1433 1.01484 63.2471Z" fill="#2E373A"/>
<path d="M0.628515 60.9055C0.628515 60.9978 0.628515 61.09 0.628515 61.1823L0.00575447 60.8248C0.00575447 60.7268 0.00575447 60.6345 0.00575447 60.5422L0.628515 60.9055Z" fill="#2E373A"/>
<path d="M10.0507 67.2947L10.6676 67.7733C10.6676 67.8598 10.6388 67.9405 10.6157 68.0155L10.0045 67.5368C10.0218 67.4561 10.0391 67.3985 10.0507 67.2947Z" fill="#2E373A"/>
<path d="M0.755665 62.2087L0.138676 61.9781C0.138676 61.8801 0.104069 61.782 0.0925369 61.684L0.703754 61.9147L0.755665 62.2087Z" fill="#2E373A"/>
<path d="M4.69954 68.6324L4.58998 69.2782L4.35934 69.0937L4.46888 68.4479L4.69954 68.6324Z" fill="#2E373A"/>
<path d="M8.45916 69.5551L8.85703 70.3393L8.67251 70.4027L8.27464 69.6186L8.45916 69.5551Z" fill="#2E373A"/>
<path d="M9.03572 69.226L9.51431 69.964L9.35862 70.0793L8.88004 69.3413L9.03572 69.226Z" fill="#2E373A"/>
<path d="M9.47969 68.7306L10.0217 69.4052C9.98135 69.4571 9.94099 69.5148 9.89486 69.5667L9.3586 68.892L9.47969 68.7306Z" fill="#2E373A"/>
<path d="M9.83158 68.0847L10.4082 68.6613L10.3217 68.8689L9.74509 68.2922L9.83158 68.0847Z" fill="#2E373A"/>
<path d="M6.29086 69.5033L6.40042 70.2759L6.164 70.1837L6.06021 69.411L6.29086 69.5033Z" fill="#2E373A"/>
<path d="M5.37978 69.0765L5.50086 69.1456V69.8607L5.37978 69.7972L5.25869 69.728V69.0073L5.37978 69.0765Z" fill="#2E373A"/>
<path d="M7.06382 69.7053L7.27718 70.5068L7.05229 70.4664L6.83894 69.6707L7.06382 69.7053Z" fill="#2E373A"/>
<path d="M7.78428 69.7052L8.09566 70.5125H7.88808L7.5767 69.7052H7.78428Z" fill="#2E373A"/>
<path opacity="0.5" d="M1.53951 61.702C1.60756 62.958 1.9703 64.1804 2.59838 65.2703C3.22646 66.3602 4.10226 67.2869 5.15492 67.9756C7.15579 69.1288 8.7761 68.1947 8.7761 65.8825C8.70829 64.6249 8.34509 63.401 7.71594 62.31C7.0868 61.219 6.20941 60.2916 5.15492 59.6031C3.15404 58.4556 1.53951 59.3897 1.53951 61.702Z" fill="url(#paint5_linear_24_38810)"/>
<path opacity="0.5" d="M2.02406 61.9897C2.08327 63.0757 2.39764 64.1324 2.94164 65.0741C3.48565 66.0159 4.24397 66.8161 5.15511 67.4099C6.88497 68.4075 8.2804 67.6002 8.2804 65.6051C8.22183 64.5197 7.90835 63.4633 7.36537 62.5216C6.82239 61.5799 6.06518 60.7794 5.15511 60.1849C3.42524 59.1873 2.02406 59.9946 2.02406 61.9897Z" fill="url(#paint6_linear_24_38810)"/>
<path d="M3.42513 60.3696C3.12917 60.7882 2.98107 61.2933 3.0042 61.8054C3.0548 62.7495 3.32767 63.6683 3.80063 64.487C4.27359 65.3056 4.93325 66.001 5.72586 66.5164C5.97494 66.6894 6.25952 66.8045 6.55881 66.8534C6.85811 66.9023 7.16454 66.8837 7.45572 66.7989C6.97136 67.4044 6.12372 67.4967 5.14924 66.9373C4.35663 66.4219 3.69697 65.7266 3.22401 64.9079C2.75105 64.0893 2.47818 63.1704 2.42758 62.2263C2.43335 61.2461 2.81967 60.6003 3.42513 60.3696Z" fill="url(#paint7_linear_24_38810)"/>
<path d="M5.72591 66.5165C4.9333 66.0011 4.27364 65.3057 3.80068 64.487C3.32773 63.6684 3.05485 62.7496 3.00426 61.8055C2.98113 61.2934 3.12922 60.7882 3.42518 60.3697C3.71668 60.2878 4.02257 60.2706 4.3214 60.3194C4.62023 60.3683 4.90476 60.4818 5.15504 60.6522C5.94649 61.1703 6.60514 61.867 7.07789 62.6863C7.55064 63.5056 7.82427 64.4246 7.87669 65.369C7.90121 65.8795 7.75292 66.3833 7.45577 66.799C7.1646 66.8838 6.85816 66.9024 6.55887 66.8535C6.25958 66.8046 5.97499 66.6895 5.72591 66.5165Z" fill="url(#paint8_linear_24_38810)"/>
<path d="M6.85616 59.4127L5.57606 58.6746C5.29621 58.4917 5.06325 58.2456 4.89599 57.9561C4.72872 57.6667 4.63182 57.342 4.61309 57.0082V51.8186C4.60208 51.7 4.62239 51.5806 4.67197 51.4723C4.72156 51.3641 4.79868 51.2707 4.89565 51.2016L3.4541 52.0377C3.3567 52.1064 3.27923 52.1997 3.2296 52.3081C3.17996 52.4165 3.15993 52.536 3.17154 52.6547V57.8443C3.18917 58.1777 3.285 58.5022 3.45128 58.7917C3.61757 59.0812 3.84964 59.3275 4.12874 59.5107L5.41461 60.2488C5.5127 60.3199 5.62785 60.3637 5.74837 60.3759C5.86889 60.388 5.99048 60.368 6.10079 60.318L6.82156 59.897L7.53657 59.4819C7.42701 59.5308 7.30652 59.5502 7.18712 59.5381C7.06773 59.5259 6.95362 59.4827 6.85616 59.4127Z" fill="url(#paint9_linear_24_38810)"/>
<path d="M9.53723 44.074L2.00657 48.4045L7.60555 51.6335L15.1305 47.3031L9.53723 44.074Z" fill="#87C037"/>
<path d="M15.1306 47.3036L7.60571 51.634V53.0813L15.1306 48.7509V47.3036Z" fill="#3A7318"/>
<path d="M2.01239 48.4044L1.97779 59.8618L3.45394 65.1437L6.06603 66.6487L7.57101 63.0909L7.6056 51.6334L2.01239 48.4044ZM6.38894 59.7004C6.38894 60.3058 5.95071 60.5538 5.42022 60.277L4.13435 59.5389C3.85525 59.3557 3.62318 59.1094 3.4569 58.8199C3.29061 58.5304 3.19478 58.2059 3.17716 57.8725V52.6829C3.17716 52.0717 3.61538 51.8237 4.14588 52.1063L5.43175 52.8501C5.71181 53.0323 5.94462 53.2783 6.11103 53.568C6.27744 53.8578 6.37269 54.1828 6.38894 54.5165V59.7004Z" fill="#548D32"/>
<path d="M7.60576 51.6335L7.57117 63.091L6.0662 66.6487L7.50775 65.8126L9.00697 62.2549L9.04156 50.7974L7.60576 51.6335Z" fill="#3A7318"/>
<path d="M5.50081 63.1774C5.50081 63.6849 5.14332 63.8925 4.69932 63.6388C4.46681 63.4868 4.27318 63.2825 4.13398 63.0421C3.99478 62.8018 3.91389 62.5321 3.89781 62.2548C3.89781 61.7417 4.26109 61.5341 4.69932 61.7936C4.93442 61.9427 5.13005 62.1464 5.26959 62.3873C5.40912 62.6282 5.48844 62.8993 5.50081 63.1774Z" fill="#3B4447"/>
<path d="M11.2729 41.5716C10.5713 41.2164 9.796 41.0314 9.00965 41.0314C8.2233 41.0314 7.44799 41.2164 6.74642 41.5716C6.48887 41.6877 6.26671 41.87 6.10261 42.0999C5.93851 42.3299 5.83834 42.5992 5.8123 42.8805V47.0495C5.83474 47.331 5.93142 47.6015 6.09248 47.8335C6.25353 48.0654 6.47321 48.2506 6.72912 48.37C7.43069 48.7251 8.206 48.9102 8.99235 48.9102C9.7787 48.9102 10.554 48.7251 11.2556 48.37C11.5131 48.2539 11.7353 48.0716 11.8994 47.8416C12.0635 47.6117 12.1637 47.3423 12.1897 47.061V42.8921C12.1673 42.6106 12.0706 42.34 11.9095 42.1081C11.7485 41.8761 11.5288 41.691 11.2729 41.5716Z" fill="#C8CFD3"/>
<path d="M11.2729 41.5716C12.5184 42.2924 12.5184 43.4629 11.2729 44.1837C10.5713 44.5389 9.796 44.7239 9.00965 44.7239C8.2233 44.7239 7.44799 44.5389 6.74642 44.1837C5.50092 43.4629 5.50092 42.2924 6.74642 41.5716C7.44799 41.2164 8.2233 41.0314 9.00965 41.0314C9.796 41.0314 10.5713 41.2164 11.2729 41.5716Z" fill="#EEF5F9"/>
<path d="M95.5749 58.4666L94.2948 57.7228C94.0154 57.5408 93.7827 57.2957 93.6154 57.0072C93.4481 56.7188 93.351 56.395 93.3318 56.0621V50.8725C93.3196 50.7538 93.3394 50.6341 93.3891 50.5256C93.4387 50.4171 93.5165 50.3238 93.6144 50.2556L92.1728 51.0859C92.0762 51.1567 91.9995 51.2512 91.95 51.3603C91.9006 51.4693 91.88 51.5893 91.8903 51.7087V56.8982C91.9094 57.2311 92.0066 57.5549 92.1738 57.8433C92.3411 58.1318 92.5738 58.3769 92.8532 58.5589L94.1333 59.3027C94.232 59.3729 94.3474 59.4157 94.4679 59.4268C94.5884 59.438 94.7097 59.4171 94.8195 59.3662L95.5403 58.951L96.2553 58.5301C96.1465 58.581 96.0261 58.602 95.9065 58.5909C95.7868 58.5797 95.6724 58.5368 95.5749 58.4666Z" fill="url(#paint10_linear_24_38810)"/>
<path d="M90.7313 47.4537L90.6967 58.9111L92.1786 64.193L94.7849 65.698L96.2899 62.1402L96.3245 50.6828L90.7313 47.4537ZM95.1078 58.7497C95.1078 59.3609 94.6696 59.6088 94.1391 59.3263L92.859 58.5825C92.5796 58.4005 92.3469 58.1553 92.1796 57.8669C92.0124 57.5784 91.9152 57.2547 91.8961 56.9218V51.7322C91.8961 51.121 92.3343 50.873 92.8648 51.1556L94.1506 51.8936C94.4326 52.0753 94.6678 52.3208 94.8371 52.6104C95.0064 52.8999 95.1051 53.2253 95.1251 53.5601L95.1078 58.7497Z" fill="#548D32"/>
<path d="M96.3247 50.6824L96.2901 62.1398L94.7851 65.6976L96.2266 64.8672L97.7258 61.3037L97.7604 49.8463L96.3247 50.6824Z" fill="#3A7318"/>
<path d="M94.8657 66.245C94.8657 62.8141 92.4612 58.6452 89.4858 56.9326C88.0154 56.0792 86.6834 55.9927 85.7147 56.5347L89.8145 54.1475C90.789 53.5709 92.121 53.6689 93.6202 54.5281C96.5898 56.2579 99.0001 60.4096 99.0001 63.8405C99.0001 65.5704 98.4234 66.7582 97.4259 67.3002L93.4414 69.6067C94.3236 69.0532 94.8657 67.8884 94.8657 66.245Z" fill="#2E373A"/>
<path d="M84.1116 60.0526C84.1116 63.4835 86.5162 67.6525 89.4858 69.3708C92.4553 71.0891 94.8656 69.6937 94.8656 66.2628C94.8656 62.8319 92.4611 58.6629 89.4858 56.9504C86.5104 55.2378 84.1116 56.6217 84.1116 60.0526Z" fill="#485154"/>
<path d="M85.0055 60.5709C85.0898 62.1265 85.5394 63.6403 86.3177 64.9897C87.0961 66.3391 88.1815 67.4862 89.4858 68.338C91.9653 69.768 93.9719 68.609 93.9719 65.749C93.8879 64.1927 93.4378 62.6782 92.6583 61.3286C91.8788 59.979 90.7919 58.8324 89.4858 57.9819C87.0121 56.5519 85.0055 57.7109 85.0055 60.5709Z" fill="#3B4447"/>
<path d="M97.0741 57.9881L95.9208 58.6685C95.9843 58.755 96.0419 58.8473 96.0996 58.9395L97.2528 58.2591C97.1894 58.1726 97.1317 58.0746 97.0741 57.9881Z" fill="#151E21"/>
<path d="M92.9397 60.3927C93.0031 60.4849 93.0607 60.5772 93.1184 60.6752L94.5311 59.8449L94.3524 59.5681L92.9397 60.3927Z" fill="#151E21"/>
<path d="M97.7488 59.1583L96.5955 59.833C96.6417 59.931 96.6936 60.029 96.7397 60.1213L97.8929 59.4524C97.8353 59.3544 97.8007 59.2564 97.7488 59.1583Z" fill="#151E21"/>
<path d="M93.6201 61.5634C93.6662 61.6672 93.7181 61.7652 93.7642 61.8632L95.1885 61.0329C95.1424 60.9349 95.0905 60.8369 95.0386 60.7388L93.6201 61.5634Z" fill="#151E21"/>
<path d="M98.2966 60.3807L97.1434 61.0438L97.2529 61.3379L98.4062 60.669L98.2966 60.3807Z" fill="#151E21"/>
<path d="M94.1622 62.7858C94.2026 62.8838 94.2372 62.9876 94.2775 63.0856L95.7075 62.2495C95.6729 62.1457 95.6326 62.0477 95.5922 61.9496L94.1622 62.7858Z" fill="#151E21"/>
<path d="M98.6886 61.632L97.5354 62.2951C97.5354 62.3873 97.5873 62.4854 97.6104 62.5776L98.7636 61.9145C98.7441 61.8189 98.7191 61.7246 98.6886 61.632Z" fill="#151E21"/>
<path d="M94.56 64.0078C94.56 64.1058 94.6119 64.2096 94.6349 64.3077L96.0765 63.46C96.0765 63.362 96.0303 63.264 96.0015 63.166L94.56 64.0078Z" fill="#151E21"/>
<path d="M98.9252 62.7857L97.8008 63.4373C97.8008 63.5353 97.8008 63.6276 97.8412 63.7256L98.9598 63.0682L98.9252 62.7857Z" fill="#151E21"/>
<path d="M94.7966 65.1903C94.7966 65.2884 94.7966 65.3864 94.7966 65.4902L96.2612 64.631C96.2612 64.533 96.2612 64.4407 96.2209 64.3427L94.7966 65.1903Z" fill="#151E21"/>
<path d="M97.8931 64.6305V64.8208L98.9945 64.175C98.9945 64.0885 98.9945 64.002 98.9945 63.9155L97.8874 64.5613L97.8931 64.6305Z" fill="#151E21"/>
<path d="M94.8601 66.5969L96.3363 65.7319C96.3363 65.6685 96.3363 65.6051 96.3363 65.5417V65.4609L94.8601 66.3201C94.8659 66.4124 94.8659 66.5046 94.8601 66.5969Z" fill="#151E21"/>
<path d="M97.8354 65.5707C97.8354 65.6456 97.8354 65.7206 97.7951 65.7955L98.8733 65.1613C98.8733 65.0921 98.9022 65.0171 98.9137 64.9421L97.8354 65.5707Z" fill="#151E21"/>
<path d="M94.7273 67.5885L96.2381 66.7063L96.2727 66.4756L94.7792 67.3464L94.7273 67.5885Z" fill="#151E21"/>
<path d="M97.6163 66.4413C97.6163 66.499 97.576 66.5624 97.5471 66.6201L98.585 66.0434C98.6139 65.98 98.6369 65.9223 98.6658 65.8647L97.6163 66.4413Z" fill="#151E21"/>
<path d="M94.4389 68.4423L95.9958 67.5312L96.065 67.3467L94.5312 68.2404C94.5134 68.2739 94.498 68.3086 94.485 68.3442L94.4389 68.4423Z" fill="#151E21"/>
<path d="M97.2932 67.1333L97.2182 67.2544L98.1639 66.6778L98.2676 66.5452L97.2932 67.1218V67.1333Z" fill="#151E21"/>
<path d="M95.6615 68.1657L95.748 68.0331L94.1335 68.973C94.0925 69.0312 94.0482 69.087 94.0008 69.1402L95.6615 68.1657Z" fill="#151E21"/>
<path d="M96.2726 56.8868L95.1193 57.5673L95.3269 57.8267L96.4802 57.1406C96.411 57.0541 96.3418 56.9676 96.2726 56.8868Z" fill="#151E21"/>
<path d="M92.1441 59.2854L92.3517 59.5507L93.7471 58.7319L93.5453 58.4724L92.1441 59.2854Z" fill="#151E21"/>
<path d="M95.3961 55.9182L94.2082 56.6102L94.4389 56.835L95.5921 56.1431L95.3961 55.9182Z" fill="#151E21"/>
<path d="M91.2676 58.3225L91.4982 58.559L92.8879 57.7459L92.6572 57.5153L91.2676 58.3225Z" fill="#151E21"/>
<path d="M94.4679 55.1102L93.2686 55.8079L93.5223 56.004L94.7159 55.3063L94.4679 55.1102Z" fill="#151E21"/>
<path d="M90.3392 57.5152C90.4315 57.5787 90.518 57.6479 90.6045 57.7171L91.9768 56.9156L91.7173 56.7137L90.3392 57.5152Z" fill="#151E21"/>
<path d="M93.4991 54.4767L92.2825 55.186L92.5074 55.3129L93.7182 54.6036L93.6202 54.5459L93.4991 54.4767Z" fill="#151E21"/>
<path d="M89.3703 56.8808L89.4914 56.95L89.5952 57.0134L90.956 56.2177L90.7196 56.0908L89.3703 56.8808Z" fill="#151E21"/>
<path d="M92.5303 54.044L91.2791 54.7648L91.5097 54.8455L92.7437 54.119L92.5303 54.044Z" fill="#151E21"/>
<path d="M88.3959 56.4427L88.6266 56.5234L89.9586 55.745L89.7222 55.67L88.3959 56.4427Z" fill="#151E21"/>
<path d="M91.6078 53.8304L90.3392 54.5858H90.5871L91.8615 53.8419L91.6078 53.8304Z" fill="#151E21"/>
<path d="M87.4561 56.2351L87.704 56.2697L88.9899 55.5201C88.9035 55.5144 88.8168 55.5144 88.7304 55.5201L87.4561 56.2351Z" fill="#151E21"/>
<path d="M90.7311 53.8479L89.2608 54.7128L89.5145 54.6494L90.9041 53.8364L90.7311 53.8479Z" fill="#151E21"/>
<path d="M86.597 56.2524H86.8046L87.9578 55.572C87.866 55.5889 87.7755 55.6121 87.6868 55.6412L86.597 56.2524Z" fill="#151E21"/>
<path d="M94.2428 65.9628L94.8655 66.326C94.8655 66.4183 94.8655 66.5048 94.8655 66.597L94.237 66.2338C94.237 66.1473 94.2428 66.055 94.2428 65.9628Z" fill="#2E373A"/>
<path d="M91.8384 59.7414L92.1498 59.2974L92.3516 59.5568L92.0403 60.0008L91.8384 59.7414Z" fill="#2E373A"/>
<path d="M90.2239 58.1726L90.3334 57.5268L90.5699 57.7055L90.4603 58.3571L90.2239 58.1726Z" fill="#2E373A"/>
<path d="M91.0602 58.8819L91.2735 58.3053L91.4926 58.5302L91.2793 59.1068L91.0602 58.8819Z" fill="#2E373A"/>
<path d="M93.9718 63.9385L94.5484 64.0307C94.5773 64.1288 94.6003 64.2326 94.6292 64.3363L94.0526 64.2383C94.0237 64.1172 93.9949 64.0192 93.9718 63.9385Z" fill="#2E373A"/>
<path d="M94.1797 64.9711L94.7909 65.2018C94.8081 65.2971 94.8197 65.3934 94.8255 65.4901L94.2143 65.2594L94.1797 64.9711Z" fill="#2E373A"/>
<path d="M89.4857 57.6651L89.3703 57.6016V56.8809L89.4857 56.9501L89.6067 57.0192V57.74L89.4857 57.6651Z" fill="#2E373A"/>
<path d="M93.1358 61.7475L93.6144 61.5629C93.6663 61.661 93.7182 61.759 93.7643 61.8628L93.2857 62.0473C93.2223 61.9493 93.1877 61.8455 93.1358 61.7475Z" fill="#2E373A"/>
<path d="M93.6201 62.832L94.1621 62.7802C94.2025 62.8839 94.2371 62.9877 94.2717 63.0858L93.7354 63.1377C93.6951 63.0339 93.6605 62.9301 93.6201 62.832Z" fill="#2E373A"/>
<path d="M92.5361 60.7096L92.9398 60.3867L93.1185 60.6692L92.7149 60.9921C92.6457 60.8941 92.5996 60.8018 92.5361 60.7096Z" fill="#2E373A"/>
<path d="M88.517 57.2212L88.4074 56.4485L88.6438 56.535L88.7476 57.3077L88.517 57.2212Z" fill="#2E373A"/>
<path d="M84.9306 58.9567L84.354 58.38L84.429 58.1667L85.0056 58.7433C84.9768 58.8067 84.9537 58.8817 84.9306 58.9567Z" fill="#2E373A"/>
<path d="M85.2418 58.2358L84.6998 57.5612C84.7401 57.5035 84.7747 57.4401 84.8151 57.3882L85.3571 58.057C85.3154 58.1144 85.2769 58.1741 85.2418 58.2358Z" fill="#2E373A"/>
<path d="M84.7634 59.8103L84.1522 59.326C84.1522 59.2395 84.1521 59.1588 84.181 59.0723L84.798 59.5566L84.7634 59.8103Z" fill="#2E373A"/>
<path d="M85.6915 57.665L85.2129 56.9212L85.3628 56.7943L85.8356 57.5324C85.7849 57.5736 85.7367 57.6179 85.6915 57.665Z" fill="#2E373A"/>
<path d="M86.2624 57.267L85.8588 56.4828L86.0375 56.402L86.4354 57.1863L86.2624 57.267Z" fill="#2E373A"/>
<path d="M87.6982 57.019L87.4848 56.2175L87.704 56.2521L87.9173 57.0536L87.6982 57.019Z" fill="#2E373A"/>
<path d="M86.9371 57.0542L86.6258 56.2469H86.8276L87.139 57.0542H86.9371Z" fill="#2E373A"/>
<path d="M86.0147 64.896L85.5361 65.0862C85.4785 64.9882 85.4266 64.8844 85.3747 64.7864L85.8533 64.6019C85.9052 64.6999 85.9571 64.7979 86.0147 64.896Z" fill="#2E373A"/>
<path d="M85.5128 63.8693L84.9707 63.9212C84.9246 63.8174 84.8842 63.7136 84.8439 63.6156L85.3859 63.5637C85.4263 63.6675 85.4666 63.7713 85.5128 63.8693Z" fill="#2E373A"/>
<path d="M86.6085 65.8706L86.2107 66.1877L86.0261 65.9109L86.424 65.588L86.6085 65.8706Z" fill="#2E373A"/>
<path d="M87.2888 66.7588L86.9774 67.2028L86.7699 66.9491L87.0812 66.5051L87.2888 66.7588Z" fill="#2E373A"/>
<path d="M88.0329 67.5428L87.8195 68.1194L87.6004 67.9003L87.8137 67.3237L88.0329 67.5428Z" fill="#2E373A"/>
<path d="M85.1495 62.8203L84.5729 62.728L84.4864 62.4224L85.063 62.5147L85.1495 62.8203Z" fill="#2E373A"/>
<path d="M84.7344 60.479C84.7344 60.5712 84.7344 60.6635 84.7344 60.7615L84.1116 60.3982C84.1116 60.306 84.1116 60.2137 84.1116 60.1215L84.7344 60.479Z" fill="#2E373A"/>
<path d="M94.1621 66.8683L94.7733 67.347C94.7733 67.4277 94.7445 67.5084 94.7272 67.5891L94.1102 67.1105L94.1621 66.8683Z" fill="#2E373A"/>
<path d="M84.8613 61.7707L84.2501 61.54L84.1982 61.2402L84.8152 61.4708C84.8267 61.5688 84.844 61.6669 84.8613 61.7707Z" fill="#2E373A"/>
<path d="M88.8112 68.1999L88.7016 68.8457L88.4652 68.6669L88.5748 68.0211L88.8112 68.1999Z" fill="#2E373A"/>
<path d="M92.5476 69.1284L92.9512 69.9126L92.7667 69.9818L92.363 69.1975C92.4258 69.178 92.4874 69.1549 92.5476 69.1284Z" fill="#2E373A"/>
<path d="M93.1244 68.7936L93.5972 69.5317L93.4415 69.647L92.9629 68.909L93.1244 68.7936Z" fill="#2E373A"/>
<path d="M93.5914 68.3033L94.1276 68.9722C94.0905 69.0284 94.0501 69.0823 94.0065 69.1337L93.4645 68.4648C93.5106 68.4129 93.551 68.3552 93.5914 68.3033Z" fill="#2E373A"/>
<path d="M93.9432 67.6519L94.5199 68.2285C94.497 68.2982 94.468 68.3658 94.4333 68.4304L93.8567 67.8537C93.8888 67.7879 93.9177 67.7206 93.9432 67.6519Z" fill="#2E373A"/>
<path d="M90.4027 69.0765L90.5065 69.8434C90.4278 69.8197 90.3508 69.7908 90.2759 69.7569L90.1663 68.9843L90.4027 69.0765Z" fill="#2E373A"/>
<path d="M89.4857 68.6495L89.6067 68.713V69.4337L89.4857 69.3703L89.3703 69.2954V68.5515L89.4857 68.6495Z" fill="#2E373A"/>
<path d="M91.1695 69.2663L91.3828 70.0678L91.1579 70.0274L90.9446 69.226L91.1695 69.2663Z" fill="#2E373A"/>
<path d="M91.8959 69.2837L92.2073 70.0852H91.9997L91.6826 69.278L91.8959 69.2837Z" fill="#2E373A"/>
<path opacity="0.5" d="M85.6399 61.2747C85.7077 62.5323 86.0709 63.7562 86.7001 64.8472C87.3292 65.9381 88.2066 66.8655 89.2611 67.5541C91.2619 68.7073 92.888 67.7675 92.888 65.461C92.8195 64.2029 92.4555 62.9787 91.8253 61.8876C91.1951 60.7966 90.3166 59.8695 89.2611 59.1816C87.2602 58.0226 85.6399 58.9625 85.6399 61.2747Z" fill="url(#paint11_linear_24_38810)"/>
<path opacity="0.5" d="M86.1357 61.5576C86.1943 62.6431 86.5077 63.6994 87.0507 64.6412C87.5937 65.5829 88.3509 66.3834 89.261 66.9778C90.9908 67.9754 92.392 67.1681 92.392 65.173C92.3328 64.0871 92.0184 63.0304 91.4744 62.0886C90.9304 61.1469 90.1721 60.3466 89.261 59.7528C87.5311 58.7495 86.1357 59.5625 86.1357 61.5576Z" fill="url(#paint12_linear_24_38810)"/>
<path d="M87.531 59.9429C87.2351 60.359 87.0887 60.863 87.1158 61.3729C87.1669 62.3177 87.44 63.2371 87.9129 64.0566C88.3857 64.8761 89.0451 65.5726 89.8375 66.0897C90.0875 66.2608 90.372 66.3748 90.671 66.4236C90.9699 66.4725 91.276 66.4549 91.5674 66.3722C91.0888 66.9488 90.2354 67.0699 89.2609 66.5106C88.4694 65.9925 87.8108 65.2958 87.338 64.4765C86.8653 63.6572 86.5917 62.7383 86.5392 61.7938C86.5392 60.8193 86.9256 60.1678 87.531 59.9429Z" fill="url(#paint13_linear_24_38810)"/>
<path d="M89.8375 66.0897C89.0451 65.5727 88.3857 64.8762 87.9128 64.0566C87.4399 63.2371 87.1669 62.3177 87.1158 61.3729C87.0887 60.863 87.2351 60.359 87.531 59.9429C87.8222 59.8582 88.1286 59.8396 88.4279 59.8884C88.7272 59.9373 89.0118 60.0525 89.2609 60.2254C90.0535 60.7409 90.7131 61.4362 91.1861 62.2549C91.659 63.0735 91.9319 63.9923 91.9825 64.9364C92.0106 65.4491 91.8621 65.9559 91.5616 66.3722C91.271 66.454 90.9661 66.4712 90.6682 66.4223C90.3703 66.3735 90.0867 66.26 89.8375 66.0897Z" fill="url(#paint14_linear_24_38810)"/>
<path d="M92.1671 46.6116L84.6422 50.942L90.2355 54.1711L97.7604 49.8407L92.1671 46.6116Z" fill="#87C037"/>
<path d="M84.6422 52.3893V50.942L90.2355 54.171V55.6184L84.6422 52.3893Z" fill="#548D32"/>
<path d="M97.7603 49.8403L90.2354 54.1707V55.618L97.7603 51.2876V49.8403Z" fill="#3A7318"/>
<path d="M92.9569 44.7894C92.2565 44.4338 91.4821 44.2485 90.6966 44.2485C89.9111 44.2485 89.1367 44.4338 88.4362 44.7894C88.1774 44.9027 87.9536 45.0833 87.7883 45.3125C87.6229 45.5417 87.5222 45.8111 87.4964 46.0925V50.2673C87.5233 50.5483 87.6246 50.8171 87.7898 51.0462C87.9549 51.2752 88.1781 51.4561 88.4362 51.5704C89.1367 51.926 89.9111 52.1113 90.6966 52.1113C91.4821 52.1113 92.2565 51.926 92.9569 51.5704C93.2144 51.4551 93.4369 51.2739 93.6019 51.0451C93.767 50.8163 93.8687 50.548 93.8968 50.2673V46.0925C93.8699 45.8114 93.7686 45.5426 93.6034 45.3136C93.4382 45.0846 93.2151 44.9037 92.9569 44.7894Z" fill="#C8CFD3"/>
<path d="M92.9571 44.7894C94.2084 45.5101 94.2084 46.6807 92.9571 47.4014C92.2567 47.757 91.4823 47.9423 90.6968 47.9423C89.9113 47.9423 89.1368 47.757 88.4364 47.4014C87.1851 46.6807 87.1851 45.5101 88.4364 44.7894C89.1368 44.4338 89.9113 44.2485 90.6968 44.2485C91.4823 44.2485 92.2567 44.4338 92.9571 44.7894Z" fill="#EEF5F9"/>
<path d="M80.3349 39.0402C77.5671 37.8408 76.829 36.3474 76.2351 35.1538C75.8257 34.3177 75.5028 33.6603 74.586 33.2913C73.1906 32.7147 71.9393 33.6892 71.0282 34.3984C70.4113 34.8712 69.9672 35.2114 69.5751 35.0154L69.8231 34.5253C69.9557 34.5253 70.3997 34.2139 70.6996 33.9486C71.6625 33.2048 73.1156 32.0804 74.8051 32.7954C75.9122 33.2452 76.3158 34.0582 76.7425 34.9231C77.3192 36.0764 77.9823 37.4257 80.5655 38.5501L80.3349 39.0402Z" fill="#2E383B"/>
<path d="M80.8711 39.3803C76.9443 38.2904 75.9121 36.6817 75.151 35.5054C74.9106 35.034 74.5482 34.6358 74.1016 34.3521C73.2136 33.8908 72.1987 34.404 71.2992 34.8596C70.8578 35.1385 70.3591 35.3139 69.8403 35.3727V34.825C70.2657 34.7584 70.6723 34.6032 71.0339 34.3694C72.0026 33.8793 73.202 33.2738 74.338 33.8678C74.8742 34.1971 75.3092 34.6679 75.595 35.2286C76.3042 36.3299 77.2787 37.8349 81.0037 38.8728L80.8711 39.3803Z" fill="#2E383B"/>
<path d="M16.0647 36.9471L15.8456 36.4454C18.4346 35.321 19.092 33.989 19.6744 32.8127C20.1011 31.9535 20.5047 31.1405 21.606 30.6849C23.2955 29.9988 24.7486 31.1232 25.7116 31.867C26.0287 32.1092 26.4554 32.4436 26.588 32.4436L26.8302 32.9338C26.4381 33.1356 25.9941 32.7896 25.3771 32.3168C24.4603 31.6075 23.209 30.6388 21.8136 31.2097C20.9026 31.5845 20.5796 32.2418 20.1645 33.0722C19.5706 34.2542 18.8383 35.7419 16.0647 36.9471Z" fill="#2E383B"/>
<path d="M15.5284 37.2873L15.3843 36.7569C19.1093 35.7247 20.078 34.214 20.7872 33.1126C21.0783 32.5556 21.5121 32.086 22.0442 31.7518C23.1975 31.1752 24.3853 31.7518 25.3483 32.2592C25.7133 32.4862 26.1185 32.6409 26.5419 32.7147V33.2625C26.0226 33.202 25.5239 33.0246 25.083 32.7436C24.1893 32.288 23.1687 31.7749 22.2807 32.2419C21.8368 32.5289 21.4752 32.9263 21.2312 33.3952C20.4931 34.583 19.4552 36.1918 15.5284 37.2873Z" fill="#2E383B"/>
<path d="M45.8762 22.128L48.3326 21.8224V16.1658H44.7229V21.9839L45.8762 22.128Z" fill="#EEF5F9"/>
<path d="M24.7254 28.7705V36.7509L25.9363 29.9929L24.7254 28.7705Z" fill="#3A7318"/>
<path d="M25.9193 33.6491L25.6021 32.7957L7.90564 38.8156V40.9029L25.4637 34.883L25.9193 33.6491Z" fill="#EEF5F9"/>
<path d="M25.9193 37.0794L25.4637 34.8825L7.90564 40.9024V44.3276L25.4637 38.3076L25.9193 37.0794Z" fill="#C8CFD3"/>
<path d="M70.4632 32.6509L71.5127 38.1058L71.6741 31.4343L70.4632 32.6509Z" fill="#3A7318"/>
<path d="M70.8551 35.1997L70.4457 36.3126L70.8032 37.2813L91.6885 44.5467V42.4594L70.8551 35.1997Z" fill="#EEF5F9"/>
<path d="M70.8032 37.2816L70.4457 39.738L70.8032 40.7125L91.6885 47.9721V44.547L70.8032 37.2816Z" fill="#C8CFD3"/>
<path d="M71.6739 44.7713L56.2032 53.709V46.9452L71.6739 38.0076V44.7713Z" fill="#3A7318"/>
<path d="M70.463 32.6516L50.5062 44.1782L56.2032 46.946L71.674 38.0084L70.463 32.6516Z" fill="#87C037"/>
<path d="M70.4631 32.6516L50.5063 44.1783L25.9364 29.9934L45.8933 18.4667L70.4631 32.6516Z" fill="#EEF5F9"/>
<path d="M44.8149 46.9459L50.5061 44.1782L25.9363 29.9933L24.7254 35.5346L44.8149 46.9459Z" fill="#87C037"/>
<path d="M44.8149 46.9458V53.7095L24.7254 42.1137V35.5344L44.8149 46.9458Z" fill="#478025"/>
<path d="M44.815 46.9463V53.7101L50.5063 55.0767V44.1785L44.815 46.9463Z" fill="#3A7318"/>
<path d="M56.2032 46.9463V53.7101L50.5062 55.0767V44.1785L56.2032 46.9463Z" fill="#478025"/>
<path d="M40.2019 19.8391L24.7254 28.771L25.9363 29.9934L45.8932 18.4667L40.2019 19.8391Z" fill="#87C037"/>
<path d="M51.5902 19.8391L45.8932 18.4667L70.463 32.6516L71.6739 31.4349L51.5902 19.8391Z" fill="#87C037"/>
<path d="M52.4898 64.2101H48.8801V67.641H52.4898V64.2101Z" fill="#C8CFD3"/>
<path d="M50.4831 47.8339L48.8859 48.03V64.21H52.4898V48.0819L50.4831 47.8339Z" fill="#EEF5F9"/>
<path d="M34.7703 46.5998L26.4785 41.8138V38.3253L34.7703 43.1112V46.5998Z" fill="#C8CFD3"/>
<path d="M48.8802 58.9455C48.7011 58.6968 48.5087 58.4582 48.3035 58.2305C47.3692 57.2847 46.7422 56.0789 46.5045 54.7708C46.049 52.4643 47.5309 51.4149 48.8398 50.5153C49.3106 50.2255 49.7394 49.8724 50.1141 49.4659C50.4357 49.0922 50.6636 48.6473 50.7789 48.1679C50.8943 47.6886 50.8937 47.1887 50.7773 46.7096C50.7667 46.6756 50.7494 46.6439 50.7266 46.6165C50.7038 46.589 50.6758 46.5664 50.6442 46.5498C50.6126 46.5332 50.578 46.523 50.5425 46.5197C50.507 46.5165 50.4711 46.5203 50.437 46.5309C50.403 46.5415 50.3713 46.5587 50.3439 46.5815C50.3165 46.6044 50.2938 46.6324 50.2772 46.664C50.2606 46.6956 50.2504 46.7301 50.2471 46.7656C50.2439 46.8012 50.2477 46.837 50.2583 46.8711C50.3452 47.2649 50.3383 47.6736 50.2382 48.0643C50.138 48.4549 49.9474 48.8165 49.6817 49.1199C49.3398 49.4837 48.9521 49.8016 48.5284 50.0656C47.2253 50.9593 45.4435 52.1933 45.9682 54.8746C46.2296 56.2686 46.9001 57.5533 47.8941 58.565C48.383 59.0128 48.7298 59.5942 48.8917 60.2372L48.8802 58.9455Z" fill="#2E383B"/>
<path d="M52.5705 48.8195C52.2846 48.69 52.035 48.4919 51.8439 48.2429C51.6066 47.8077 51.4817 47.3201 51.4807 46.8244C51.4796 46.7562 51.4535 46.6908 51.4073 46.6407C51.361 46.5907 51.2979 46.5594 51.23 46.553C51.1622 46.5466 51.0943 46.5654 51.0395 46.6059C50.9846 46.6464 50.9467 46.7057 50.9329 46.7725C50.9218 47.3751 51.0647 47.9705 51.3481 48.5024C51.5795 48.8478 51.9031 49.1214 52.2822 49.2923C53.2855 49.8689 54.6579 50.6877 54.1677 53.6631C54.0344 55.0207 53.5028 56.3087 52.6397 57.365L52.484 57.5726V58.5586C52.655 58.2586 52.8477 57.9714 53.0606 57.6995C53.9721 56.5688 54.5387 55.1995 54.6925 53.7554C55.2633 50.411 53.643 49.4538 52.5705 48.8195Z" fill="#2E383B"/>
<path d="M45.6222 1.34623C45.8475 1.23267 46.0964 1.17352 46.3487 1.17352C46.6011 1.17352 46.8499 1.23267 47.0753 1.34623C47.158 1.3836 47.2294 1.44225 47.282 1.5162C47.3347 1.59015 47.3668 1.67675 47.3751 1.76716V23.6326C47.368 23.7234 47.3364 23.8105 47.2836 23.8847C47.2307 23.9588 47.1587 24.0172 47.0753 24.0536C46.8499 24.1671 46.6011 24.2263 46.3487 24.2263C46.0964 24.2263 45.8475 24.1671 45.6222 24.0536C45.5394 24.0162 45.4681 23.9576 45.4154 23.8836C45.3627 23.8097 45.3306 23.723 45.3223 23.6326V1.76716C45.3317 1.67709 45.3643 1.59098 45.4168 1.51722C45.4694 1.44346 45.5401 1.38455 45.6222 1.34623Z" fill="url(#paint15_linear_24_38810)"/>
<path d="M45.6223 1.34623C45.5341 1.37583 45.4574 1.43238 45.4031 1.50791C45.3488 1.58344 45.3196 1.67412 45.3196 1.76716C45.3196 1.8602 45.3488 1.95089 45.4031 2.02642C45.4574 2.10195 45.5341 2.1585 45.6223 2.1881C45.8477 2.30166 46.0965 2.36081 46.3489 2.36081C46.6012 2.36081 46.85 2.30166 47.0754 2.1881C47.479 1.95169 47.479 1.57688 47.0754 1.34623C46.85 1.23267 46.6012 1.17352 46.3489 1.17352C46.0965 1.17352 45.8477 1.23267 45.6223 1.34623Z" fill="#EEF5F9"/>
<path d="M44.4229 0.458668C45.0202 0.157109 45.6798 0 46.3489 0C47.0179 0 47.6776 0.157109 48.2748 0.458668C48.4949 0.556596 48.6852 0.711223 48.826 0.906751C48.9668 1.10228 49.0532 1.33169 49.0763 1.57154V3.14572C49.0544 3.38593 48.9684 3.61586 48.8275 3.81159C48.6865 4.00731 48.4956 4.16167 48.2748 4.2586C47.6784 4.56284 47.0184 4.72146 46.3489 4.72146C45.6793 4.72146 45.0193 4.56284 44.4229 4.2586C44.2032 4.16087 44.0135 4.00616 43.8736 3.81049C43.7337 3.61482 43.6486 3.38531 43.6272 3.14572V1.57154C43.6504 1.33248 43.7361 1.10374 43.8758 0.908361C44.0155 0.712985 44.2042 0.557879 44.4229 0.458668Z" fill="url(#paint16_linear_24_38810)"/>
<path d="M44.4229 0.458668C43.362 1.07565 43.362 2.07321 44.4229 2.68442C45.0193 2.98867 45.6793 3.14729 46.3489 3.14729C47.0184 3.14729 47.6784 2.98867 48.2748 2.68442C49.3415 2.07321 49.3415 1.07565 48.2748 0.458668C47.6776 0.157109 47.0179 0 46.3489 0C45.6798 0 45.0202 0.157109 44.4229 0.458668Z" fill="#EEF5F9"/>
<path d="M55.8401 39.6111L50.4141 42.7421L44.9881 39.6111L50.4141 36.48L55.8401 39.6111Z" fill="#025491"/>
<path d="M62.0156 36.1053L56.5954 39.2364L51.1694 36.1053L56.5954 32.9742L62.0156 36.1053Z" fill="#025491"/>
<path d="M68.1972 32.5995L62.7712 35.7305L57.3451 32.5995L62.7712 29.4684L68.1972 32.5995Z" fill="#025491"/>
<path d="M37.3305 26.7639C40.2136 25.1032 44.8785 25.1032 47.7558 26.7639C49.1974 27.5942 49.9181 28.684 49.9181 29.7738V31.1693C49.9181 32.2591 49.1974 33.3489 47.7558 34.1792C44.8727 35.8399 40.2079 35.8399 37.3305 34.1792C35.889 33.3489 35.1739 32.2591 35.1739 31.1693V29.7738C35.1739 28.684 35.889 27.6115 37.3305 26.7639Z" fill="url(#paint17_linear_24_38810)"/>
<path d="M37.3303 26.7638C34.4472 28.4302 34.4472 31.123 37.3303 32.7837C40.2134 34.4444 44.8783 34.4501 47.7556 32.7837C50.6329 31.1173 50.6387 28.4302 47.7556 26.7638C44.8725 25.0973 40.2076 25.1031 37.3303 26.7638Z" fill="#EEF5F9"/>
<defs>
<linearGradient id="paint0_linear_24_38810" x1="46.8044" y1="81.3292" x2="46.8044" y2="101.851" gradientUnits="userSpaceOnUse">
<stop stop-color="#3B4447"/>
<stop offset="1" stop-color="#081114"/>
</linearGradient>
<linearGradient id="paint1_linear_24_38810" x1="46.8043" y1="82.2295" x2="46.8043" y2="99.9433" gradientUnits="userSpaceOnUse">
<stop stop-color="#2E373A"/>
<stop offset="1" stop-color="#000407"/>
</linearGradient>
<linearGradient id="paint2_linear_24_38810" x1="50.2814" y1="87.9376" x2="43.8406" y2="87.9376" gradientUnits="userSpaceOnUse">
<stop stop-color="#F3F5F7"/>
<stop offset="1" stop-color="#999D9E"/>
</linearGradient>
<linearGradient id="paint3_linear_24_38810" x1="47.0928" y1="91.3568" x2="47.0928" y2="81.8541" gradientUnits="userSpaceOnUse">
<stop stop-color="#F3F5F7"/>
<stop offset="1" stop-color="#999D9E"/>
</linearGradient>
<linearGradient id="paint4_linear_24_38810" x1="47.6463" y1="82.5234" x2="46.7352" y2="80.7935" gradientUnits="userSpaceOnUse">
<stop stop-color="#87C037"/>
<stop offset="1" stop-color="#3A7318"/>
</linearGradient>
<linearGradient id="paint5_linear_24_38810" x1="5.15492" y1="57.2332" x2="5.15492" y2="77.7551" gradientUnits="userSpaceOnUse">
<stop stop-color="#3B4447"/>
<stop offset="1" stop-color="#081114"/>
</linearGradient>
<linearGradient id="paint6_linear_24_38810" x1="5.15511" y1="58.1321" x2="5.15511" y2="75.8459" gradientUnits="userSpaceOnUse">
<stop stop-color="#2E373A"/>
<stop offset="1" stop-color="#000407"/>
</linearGradient>
<linearGradient id="paint7_linear_24_38810" x1="8.63203" y1="63.8409" x2="2.19117" y2="63.8409" gradientUnits="userSpaceOnUse">
<stop stop-color="#F3F5F7"/>
<stop offset="1" stop-color="#999D9E"/>
</linearGradient>
<linearGradient id="paint8_linear_24_38810" x1="5.44336" y1="67.2603" x2="5.44336" y2="57.7576" gradientUnits="userSpaceOnUse">
<stop stop-color="#F3F5F7"/>
<stop offset="1" stop-color="#999D9E"/>
</linearGradient>
<linearGradient id="paint9_linear_24_38810" x1="5.99699" y1="58.4267" x2="5.08593" y2="56.6968" gradientUnits="userSpaceOnUse">
<stop stop-color="#87C037"/>
<stop offset="1" stop-color="#3A7318"/>
</linearGradient>
<linearGradient id="paint10_linear_24_38810" x1="94.7157" y1="57.4748" x2="93.8047" y2="55.7508" gradientUnits="userSpaceOnUse">
<stop stop-color="#87C037"/>
<stop offset="1" stop-color="#3A7318"/>
</linearGradient>
<linearGradient id="paint11_linear_24_38810" x1="89.2611" y1="56.8059" x2="89.2611" y2="77.3221" gradientUnits="userSpaceOnUse">
<stop stop-color="#3B4447"/>
<stop offset="1" stop-color="#081114"/>
</linearGradient>
<linearGradient id="paint12_linear_24_38810" x1="89.261" y1="57.7" x2="89.261" y2="75.4138" gradientUnits="userSpaceOnUse">
<stop stop-color="#2E373A"/>
<stop offset="1" stop-color="#000407"/>
</linearGradient>
<linearGradient id="paint13_linear_24_38810" x1="92.7437" y1="63.4084" x2="86.3028" y2="63.4084" gradientUnits="userSpaceOnUse">
<stop stop-color="#F3F5F7"/>
<stop offset="1" stop-color="#999D9E"/>
</linearGradient>
<linearGradient id="paint14_linear_24_38810" x1="89.5492" y1="66.8278" x2="89.5492" y2="57.3308" gradientUnits="userSpaceOnUse">
<stop stop-color="#F3F5F7"/>
<stop offset="1" stop-color="#999D9E"/>
</linearGradient>
<linearGradient id="paint15_linear_24_38810" x1="47.3809" y1="12.6999" x2="45.3223" y2="12.6999" gradientUnits="userSpaceOnUse">
<stop stop-color="#D4DBDF"/>
<stop offset="1" stop-color="#BAC1C5"/>
</linearGradient>
<linearGradient id="paint16_linear_24_38810" x1="49.0763" y1="2.36151" x2="43.6272" y2="2.36151" gradientUnits="userSpaceOnUse">
<stop stop-color="#D4DBDF"/>
<stop offset="1" stop-color="#BAC1C5"/>
</linearGradient>
<linearGradient id="paint17_linear_24_38810" x1="49.9181" y1="30.4715" x2="35.1739" y2="30.4715" gradientUnits="userSpaceOnUse">
<stop stop-color="#D4DBDF"/>
<stop offset="1" stop-color="#BAC1C5"/>
</linearGradient>
</defs>
</svg>
