<svg width="91" height="57" viewBox="0 0 91 57" fill="none" xmlns="http://www.w3.org/2000/svg">
<path d="M16.9916 11.3872C17.3317 11.218 17.7064 11.1299 18.0863 11.1299C18.4661 11.1299 18.8408 11.218 19.1809 11.3872C19.3076 11.4405 19.4172 11.5278 19.4974 11.6395C19.5775 11.7513 19.6252 11.883 19.6351 12.0202V14.0381C19.6252 14.1753 19.5775 14.307 19.4974 14.4187C19.4172 14.5304 19.3076 14.6178 19.1809 14.6711C18.8418 14.8437 18.4667 14.9337 18.0863 14.9337C17.7058 14.9337 17.3307 14.8437 16.9916 14.6711C16.8649 14.6178 16.7553 14.5304 16.6752 14.4187C16.595 14.307 16.5473 14.1753 16.5374 14.0381V12.0202C16.5526 11.8846 16.6024 11.7552 16.6819 11.6444C16.7614 11.5336 16.8681 11.445 16.9916 11.3872Z" fill="#D4DBDF"/>
<path d="M29.1215 7.8574C22.9262 4.2757 12.8661 4.2757 6.6633 7.8574C4.85893 8.78796 3.39824 10.2695 2.49336 12.0869C1.16791 9.05626 2.55295 5.71284 6.65589 3.3449C12.8587 -0.236793 22.9187 -0.236793 29.1141 3.3449C33.217 5.71284 34.6095 9.05626 33.2766 12.0869C32.3782 10.27 30.9222 8.78796 29.1215 7.8574Z" fill="#BAC1C5"/>
<g style="mix-blend-mode:multiply">
<path opacity="0.05" d="M29.4571 5.96649C35.645 9.54073 35.645 15.3414 29.4571 18.9157C23.2691 22.4899 13.2166 22.4974 7.0212 18.9157C0.825839 15.334 0.825839 9.54073 7.0212 5.96649C13.2166 2.39224 23.2617 2.40713 29.4571 5.96649Z" fill="#424241"/>
<path style="mix-blend-mode:multiply" opacity="0.05" d="M3.02977 15.0658L18.2353 12.4446L7.02105 5.97375C2.75429 8.4236 1.42881 11.9383 3.02977 15.0658Z" fill="url(#paint0_linear_24_38013)"/>
<path style="mix-blend-mode:multiply" opacity="0.05" d="M18.235 12.4374L7.02084 5.96649C4.65291 7.32917 3.18596 9.01949 2.63493 10.7917L18.235 12.4374Z" fill="url(#paint1_linear_24_38013)"/>
<path style="mix-blend-mode:multiply" opacity="0.03" d="M18.2353 12.4374L7.02109 5.96649C6.09454 6.48748 5.24074 7.12843 4.48186 7.87276L18.2353 12.4374Z" fill="url(#paint2_linear_24_38013)"/>
<path style="mix-blend-mode:multiply" opacity="0.05" d="M33.4408 9.85327L18.2353 12.4669L29.457 18.9453C33.7163 16.4582 35.0492 12.9435 33.4408 9.85327Z" fill="url(#paint3_linear_24_38013)"/>
<path style="mix-blend-mode:multiply" opacity="0.05" d="M18.2353 12.4373L29.457 18.9156C31.8175 17.553 33.2844 15.8626 33.8428 14.0904L18.2353 12.4373Z" fill="url(#paint4_linear_24_38013)"/>
<path style="mix-blend-mode:multiply" opacity="0.05" d="M18.2353 12.4373L29.457 18.9156C30.38 18.3927 31.2311 17.7519 31.9887 17.0094L18.2353 12.4373Z" fill="url(#paint5_linear_24_38013)"/>
<path style="mix-blend-mode:multiply" opacity="0.05" d="M22.7624 21.224L18.2351 12.4373L7.02087 18.9156C11.2802 21.3804 17.3862 22.1474 22.7624 21.224Z" fill="url(#paint6_linear_24_38013)"/>
<path style="mix-blend-mode:multiply" opacity="0.05" d="M18.2351 12.4373L7.02087 18.9156C9.60085 20.328 12.4457 21.1901 15.3757 21.4474L18.2351 12.4373Z" fill="url(#paint7_linear_24_38013)"/>
<path style="mix-blend-mode:multiply" opacity="0.05" d="M18.2351 12.4373L7.02087 18.9156C8.06916 19.5237 9.17701 20.0227 10.3271 20.4049L18.2351 12.4373Z" fill="url(#paint8_linear_24_38013)"/>
<path style="mix-blend-mode:multiply" opacity="0.05" d="M13.7078 3.65798L18.2352 12.4372L29.4568 5.96636C25.1901 3.50161 19.1064 2.73463 13.7078 3.65798Z" fill="url(#paint9_linear_24_38013)"/>
<path style="mix-blend-mode:multiply" opacity="0.05" d="M18.2353 12.4378L29.457 5.96687C26.8743 4.5545 24.027 3.69247 21.0947 3.43512L18.2353 12.4378Z" fill="url(#paint10_linear_24_38013)"/>
<path style="mix-blend-mode:multiply" opacity="0.03" d="M18.2353 12.4374L29.457 5.9665C28.4061 5.35844 27.2958 4.85942 26.1433 4.47723L18.2353 12.4374Z" fill="url(#paint11_linear_24_38013)"/>
</g>
<path d="M16.9916 9.48837C17.3307 9.31575 17.7058 9.22577 18.0863 9.22577C18.4667 9.22577 18.8418 9.31575 19.1809 9.48837C19.3076 9.54165 19.4172 9.62899 19.4974 9.74071C19.5775 9.85242 19.6252 9.98416 19.6351 10.1213V12.1393C19.6252 12.2764 19.5775 12.4082 19.4974 12.5199C19.4172 12.6316 19.3076 12.7189 19.1809 12.7722C18.8418 12.9448 18.4667 13.0348 18.0863 13.0348C17.7058 13.0348 17.3307 12.9448 16.9916 12.7722C16.8672 12.7156 16.7598 12.6274 16.6801 12.5164C16.6004 12.4053 16.5512 12.2753 16.5374 12.1393V10.1213C16.5473 9.98416 16.595 9.85242 16.6752 9.74071C16.7553 9.62899 16.8649 9.54165 16.9916 9.48837Z" fill="#609911"/>
<path d="M16.9916 9.48837C16.8602 9.53411 16.7463 9.61963 16.6657 9.73305C16.585 9.84647 16.5417 9.98216 16.5417 10.1213C16.5417 10.2605 16.585 10.3962 16.6657 10.5096C16.7463 10.623 16.8602 10.7085 16.9916 10.7543C17.3307 10.9269 17.7058 11.0169 18.0863 11.0169C18.4667 11.0169 18.8418 10.9269 19.1808 10.7543C19.3123 10.7085 19.4262 10.623 19.5069 10.5096C19.5875 10.3962 19.6308 10.2605 19.6308 10.1213C19.6308 9.98216 19.5875 9.84647 19.5069 9.73305C19.4262 9.61963 19.3123 9.53411 19.1808 9.48837C18.8418 9.31575 18.4667 9.22577 18.0863 9.22577C17.7058 9.22577 17.3307 9.31575 16.9916 9.48837Z" fill="#EEF5F9"/>
<path d="M5.86676 16.771C12.5089 20.6059 23.2838 20.6059 29.9259 16.771C36.5681 12.9362 36.5681 6.71102 29.9259 2.87615C23.2838 -0.958718 12.5089 -0.958718 5.86676 2.87615C-0.775389 6.71102 -0.782835 12.9362 5.86676 16.771ZM6.66348 3.3676C12.8663 -0.214091 22.9263 -0.214091 29.1217 3.3676C35.3171 6.9493 35.3245 12.7575 29.1217 16.3392C22.9189 19.9209 12.8663 19.9134 6.66348 16.3392C0.460666 12.7649 0.460666 6.91952 6.66348 3.33782V3.3676Z" fill="#EEF5F9"/>
<path d="M5.21162 20.4715C12.2186 24.5149 23.5743 24.5149 30.5739 20.4715C32.2413 19.5842 33.6694 18.3069 34.7364 16.7484C34.1705 18.6918 32.5844 20.5609 29.9781 22.065C23.2764 25.9148 12.4867 25.9148 5.80732 22.065C3.20854 20.5758 1.62246 18.6918 1.04909 16.7484C2.12007 18.3034 3.54725 19.5799 5.21162 20.4715Z" fill="#609911"/>
<path d="M1.00431 8.58026C0.36392 11.4918 1.97979 14.5373 5.85189 16.7712C12.494 20.6061 23.2689 20.6061 29.911 16.7712C33.7161 14.5746 35.3394 11.596 34.7884 8.7292L35.8011 12.7279C35.9947 15.5203 34.2448 18.3424 30.5886 20.4646C23.5891 24.508 12.2334 24.508 5.22637 20.4646C1.63723 18.3946 -0.112659 15.6543 0.0139288 12.9364L1.00431 8.58026Z" fill="#D4DBDF"/>
<path d="M30.5737 19.1239C32.0942 18.2948 33.4196 17.1497 34.4606 15.7656C33.8203 17.307 34.5351 18.9899 36.6126 20.1888C38.7802 21.3185 41.235 21.7773 43.6643 21.5068C43.9547 21.5068 44.2526 21.4695 44.5504 21.4621C42.1715 21.4806 39.8329 22.0787 37.7371 23.2045C35.8457 24.2917 34.8404 25.7065 34.7213 27.1288C34.7357 26.9586 34.7605 26.7895 34.7957 26.6224C35.1978 25.1853 34.4383 23.6439 32.5172 22.5493C30.2493 21.3768 27.675 20.9322 25.1452 21.2759C27.0438 20.8077 28.87 20.0837 30.5737 19.1239Z" fill="#EEF5F9"/>
<path d="M32.5172 22.5493C34.4011 23.6439 35.168 25.1257 34.8181 26.5405C34.629 25.9703 34.3281 25.4434 33.933 24.9908C33.538 24.5382 33.0566 24.1689 32.5172 23.9045C30.2512 22.7263 27.6759 22.2788 25.1452 22.6237V21.2759C27.675 20.9322 30.2493 21.3768 32.5172 22.5493Z" fill="#609911"/>
<path d="M37.7371 24.5522C33.6938 26.8829 33.6938 30.673 37.7371 33.0038C41.7805 35.3345 48.3333 35.3419 52.3767 33.0038C56.42 30.6656 56.42 26.8903 52.3767 24.5522C48.3333 22.214 41.7805 22.2214 37.7371 24.5522Z" fill="#609911"/>
<path d="M37.7371 23.1975C33.6938 25.5357 33.6938 29.3184 37.7371 31.6566C41.7805 33.9948 48.3333 33.9873 52.3767 31.6566C56.42 29.3259 56.42 25.5357 52.3767 23.1975C48.3333 20.8594 41.7805 20.8668 37.7371 23.1975Z" fill="#D4DBDF"/>
<path d="M38.8391 21.3284C35.4064 23.3091 35.4064 26.5409 38.8391 28.5067C42.2719 30.4725 47.8418 30.4874 51.2745 28.5067C54.7073 26.526 54.7073 23.2942 51.2745 21.3284C47.8418 19.3626 42.2719 19.3402 38.8391 21.3284Z" fill="#EEF5F9"/>
<path d="M71.3201 11.3873C71.6588 11.2182 72.0323 11.1302 72.411 11.1302C72.7896 11.1302 73.1631 11.2182 73.5018 11.3873C73.6286 11.4406 73.7382 11.528 73.8184 11.6397C73.8985 11.7514 73.9462 11.8831 73.9561 12.0203V14.0382C73.9462 14.1754 73.8985 14.3071 73.8184 14.4189C73.7382 14.5306 73.6286 14.6179 73.5018 14.6712C73.1641 14.8438 72.7903 14.9337 72.411 14.9337C72.0317 14.9337 71.6578 14.8438 71.3201 14.6712C71.1933 14.6179 71.0837 14.5306 71.0036 14.4189C70.9234 14.3071 70.8757 14.1754 70.8659 14.0382V12.0203C70.8757 11.8831 70.9234 11.7514 71.0036 11.6397C71.0837 11.528 71.1933 11.4406 71.3201 11.3873Z" fill="#D4DBDF"/>
<path d="M83.4501 7.8574C77.2473 4.2757 67.1947 4.2757 60.9919 7.8574C59.1968 8.7905 57.7463 10.2722 56.8518 12.0869C55.5263 9.05626 56.9114 5.71284 61.0143 3.3449C67.2171 -0.236793 77.2697 -0.236793 83.4725 3.3449C87.5754 5.71284 88.9604 9.05626 87.635 12.0869C86.7288 10.2654 85.2619 8.78286 83.4501 7.8574Z" fill="#BAC1C5"/>
<g style="mix-blend-mode:multiply">
<path opacity="0.05" d="M83.7776 5.96649C89.973 9.54073 89.973 15.3414 83.7776 18.9157C77.5822 22.4899 67.5372 22.4974 61.3418 18.9157C55.1464 15.334 55.1464 9.54073 61.3418 5.96649C67.5372 2.39224 77.5822 2.40713 83.7776 5.96649Z" fill="#424241"/>
<path style="mix-blend-mode:multiply" opacity="0.05" d="M57.3507 15.0659L72.5562 12.4448L61.3196 5.96649C57.0826 8.42379 55.7497 11.9385 57.3507 15.0659Z" fill="url(#paint12_linear_24_38013)"/>
<path style="mix-blend-mode:multiply" opacity="0.05" d="M72.5561 12.4374L61.3195 5.96649C58.9516 7.32917 57.4921 9.01949 56.9336 10.7917L72.5561 12.4374Z" fill="url(#paint13_linear_24_38013)"/>
<path style="mix-blend-mode:multiply" opacity="0.03" d="M72.556 12.4374L61.3195 5.96649C60.3941 6.48934 59.5406 7.13012 58.7803 7.87276L72.556 12.4374Z" fill="url(#paint14_linear_24_38013)"/>
<path style="mix-blend-mode:multiply" opacity="0.05" d="M87.7689 9.85327L72.556 12.4669L83.7777 18.9453C88.037 16.4582 89.3699 12.9435 87.7689 9.85327Z" fill="url(#paint15_linear_24_38013)"/>
<path style="mix-blend-mode:multiply" opacity="0.05" d="M72.556 12.4373L83.7777 18.9156C86.1456 17.553 87.6051 15.8626 88.1636 14.0904L72.556 12.4373Z" fill="url(#paint16_linear_24_38013)"/>
<path style="mix-blend-mode:multiply" opacity="0.05" d="M72.556 12.4373L83.7777 18.9156C84.703 18.3928 85.5566 17.752 86.3169 17.0094L72.556 12.4373Z" fill="url(#paint17_linear_24_38013)"/>
<path style="mix-blend-mode:multiply" opacity="0.05" d="M77.0908 21.224L72.556 12.4373L61.3194 18.9156C65.6085 21.3804 71.6922 22.1474 77.0908 21.224Z" fill="url(#paint18_linear_24_38013)"/>
<path style="mix-blend-mode:multiply" opacity="0.05" d="M72.556 12.4373L61.3194 18.9156C63.9017 20.329 66.7491 21.1911 69.6817 21.4474L72.556 12.4373Z" fill="url(#paint19_linear_24_38013)"/>
<path style="mix-blend-mode:multiply" opacity="0.05" d="M72.556 12.4373L61.3194 18.9156C62.3703 19.5237 63.4807 20.0227 64.6331 20.4049L72.556 12.4373Z" fill="url(#paint20_linear_24_38013)"/>
<path style="mix-blend-mode:multiply" opacity="0.05" d="M68.0212 3.65798L72.5486 12.4372L83.7703 5.96636C79.5184 3.50161 73.4273 2.73463 68.0212 3.65798Z" fill="url(#paint21_linear_24_38013)"/>
<path style="mix-blend-mode:multiply" opacity="0.05" d="M72.556 12.4378L83.7777 5.96687C81.1954 4.5535 78.348 3.6914 75.4154 3.43512L72.556 12.4378Z" fill="url(#paint22_linear_24_38013)"/>
<path style="mix-blend-mode:multiply" opacity="0.03" d="M72.556 12.4374L83.7777 5.9665C82.7268 5.35844 81.6165 4.85942 80.4641 4.47723L72.556 12.4374Z" fill="url(#paint23_linear_24_38013)"/>
</g>
<path d="M71.3201 9.48829C71.6578 9.31573 72.0317 9.22577 72.411 9.22577C72.7903 9.22577 73.1641 9.31573 73.5018 9.48829C73.6286 9.54157 73.7382 9.62891 73.8184 9.74063C73.8985 9.85234 73.9462 9.98408 73.9561 10.1212V12.1392C73.9462 12.2764 73.8985 12.4081 73.8184 12.5198C73.7382 12.6315 73.6286 12.7189 73.5018 12.7721C73.1641 12.9447 72.7903 13.0347 72.411 13.0347C72.0317 13.0347 71.6578 12.9447 71.3201 12.7721C71.1933 12.7189 71.0837 12.6315 71.0036 12.5198C70.9234 12.4081 70.8757 12.2764 70.8659 12.1392V10.1212C70.8757 9.98408 70.9234 9.85234 71.0036 9.74063C71.0837 9.62891 71.1933 9.54157 71.3201 9.48829Z" fill="#609911"/>
<path d="M71.3202 9.48829C71.1851 9.53022 71.067 9.61428 70.9831 9.72816C70.8992 9.84205 70.8539 9.97979 70.8539 10.1212C70.8539 10.2627 70.8992 10.4004 70.9831 10.5143C71.067 10.6282 71.1851 10.7123 71.3202 10.7542C71.6579 10.9267 72.0318 11.0167 72.4111 11.0167C72.7903 11.0167 73.1642 10.9267 73.5019 10.7542C73.637 10.7123 73.7552 10.6282 73.8391 10.5143C73.923 10.4004 73.9682 10.2627 73.9682 10.1212C73.9682 9.97979 73.923 9.84205 73.8391 9.72816C73.7552 9.61428 73.637 9.53022 73.5019 9.48829C73.1642 9.31573 72.7903 9.22577 72.4111 9.22577C72.0318 9.22577 71.6579 9.31573 71.3202 9.48829Z" fill="#EEF5F9"/>
<path d="M60.1878 16.771C66.8374 20.6059 77.6048 20.6059 84.247 16.771C90.8891 12.9362 90.8966 6.71102 84.247 2.87615C77.5974 -0.958718 66.8374 -0.958718 60.1878 2.87615C53.5382 6.71102 53.5457 12.9362 60.1878 16.771ZM60.992 3.3676C67.1948 -0.214091 77.2474 -0.214091 83.4502 3.3676C89.653 6.9493 89.653 12.7575 83.4502 16.3392C77.2474 19.9209 67.1948 19.9134 60.992 16.3392C54.7892 12.7649 54.7892 6.91952 60.992 3.33782V3.3676Z" fill="#EEF5F9"/>
<path d="M59.54 20.4715C66.5396 24.5149 77.8953 24.5149 84.9023 20.4715C86.5667 19.5799 87.9938 18.3034 89.0648 16.7484C88.4915 18.6918 86.9054 20.5609 84.3066 22.065C77.6049 25.9148 66.8076 25.9148 60.1357 22.065C57.5295 20.5758 55.9509 18.6918 55.3775 16.7484C56.4446 18.3069 57.8726 19.5842 59.54 20.4715Z" fill="#609911"/>
<path d="M55.3625 8.58026C54.7221 11.4918 56.3305 14.5373 60.2026 16.7712C66.8522 20.6061 77.6196 20.6061 84.2618 16.7712C88.0668 14.5746 89.6901 11.596 89.1391 8.7292L90.1518 12.7279C90.338 15.5203 88.5955 18.3424 84.9393 20.4646C77.9323 24.508 66.5767 24.508 59.5771 20.4646C55.9805 18.3946 54.2306 15.6543 54.3274 12.9364L55.3625 8.58026Z" fill="#D4DBDF"/>
<path d="M52.384 31.6417C54.6924 30.3088 55.6828 28.4993 55.3626 26.7569C55.4699 27.2475 55.4699 27.7555 55.3626 28.2462C54.9605 29.6833 55.72 31.2247 57.6412 32.3119C60.2727 33.6552 63.2893 34.0421 66.1747 33.4065L55.4445 39.6019C56.487 37.9413 55.854 36.0127 53.5531 34.6798C51.3853 33.5509 48.9307 33.0921 46.5014 33.3618C46.2036 33.3618 45.9057 33.3767 45.6079 33.4065C47.9761 33.375 50.3013 32.7694 52.384 31.6417Z" fill="#EEF5F9"/>
<path d="M46.427 33.3393C48.8563 33.0696 51.3108 33.5284 53.4787 34.6573C55.3626 35.7445 56.1296 37.2412 55.7722 38.656C55.5843 38.0862 55.2847 37.5596 54.8909 37.107C54.4971 36.6544 54.017 36.2848 53.4787 36.02C51.3108 34.8911 48.8563 34.4323 46.427 34.702L45.5334 34.7466V33.384C45.8512 33.379 46.149 33.3641 46.427 33.3393Z" fill="#609911"/>
<path d="M59.3243 19.4217C57.8072 18.5906 56.4847 17.4457 55.4447 16.0634C56.0851 17.6048 55.3703 19.2877 53.2927 20.4865C51.1252 21.6163 48.6704 22.0751 46.2411 21.8046C45.9432 21.8046 45.6453 21.7897 45.3475 21.7599C47.7287 21.7796 50.0695 22.3776 52.1684 23.5023C54.0597 24.5895 55.065 26.0043 55.1469 27.434C55.1331 27.2613 55.1082 27.0897 55.0724 26.9202C54.6629 25.4831 55.4298 23.9417 57.351 22.847C59.6189 21.6746 62.1931 21.23 64.7229 21.5737C62.8352 21.1013 61.0194 20.3775 59.3243 19.4217Z" fill="#EEF5F9"/>
<path d="M57.3881 22.8473C55.4967 23.9419 54.7298 25.4312 55.0872 26.846C55.2728 26.273 55.5722 25.7435 55.9676 25.2893C56.3631 24.835 56.8462 24.4653 57.3881 24.2025C59.6541 23.0243 62.2294 22.5769 64.76 22.9218V21.574C62.2302 21.2302 59.656 21.6749 57.3881 22.8473Z" fill="#609911"/>
<path d="M37.7372 31.6417C35.4288 30.3088 34.4385 28.4993 34.7587 26.7569C34.6511 27.2475 34.6511 27.7556 34.7587 28.2462C35.1608 29.6833 34.4012 31.2247 32.4801 32.3193C29.8491 33.656 26.8363 34.0401 23.954 33.4065L34.6842 39.6019C33.6417 37.9413 34.2672 36.0127 36.5756 34.6798C38.7431 33.5501 41.198 33.0912 43.6273 33.3618C43.9177 33.3618 44.2155 33.399 44.5134 33.4065C42.1453 33.3738 39.8204 32.7683 37.7372 31.6417Z" fill="#EEF5F9"/>
<path d="M43.6644 33.3397C41.2351 33.0691 38.7803 33.5279 36.6128 34.6577C34.7214 35.7449 33.9618 37.2416 34.3193 38.6564C34.5068 38.0864 34.8062 37.5597 35.2001 37.107C35.5939 36.6543 36.0742 36.2849 36.6128 36.0204C38.7803 34.8906 41.2351 34.4318 43.6644 34.7024C43.9548 34.7024 44.2527 34.7024 44.5506 34.7471V33.3844C44.2527 33.3769 43.9548 33.362 43.6644 33.3397Z" fill="#609911"/>
<path d="M71.3201 42.6991C71.6578 42.5266 72.0317 42.4366 72.411 42.4366C72.7903 42.4366 73.1641 42.5266 73.5018 42.6991C73.6286 42.7524 73.7382 42.8397 73.8184 42.9515C73.8985 43.0632 73.9462 43.1949 73.9561 43.3321V45.35C73.9462 45.4872 73.8985 45.6189 73.8184 45.7306C73.7382 45.8424 73.6286 45.9297 73.5018 45.983C73.1641 46.1555 72.7903 46.2455 72.411 46.2455C72.0317 46.2455 71.6578 46.1555 71.3201 45.983C71.1933 45.9297 71.0837 45.8424 71.0036 45.7306C70.9234 45.6189 70.8757 45.4872 70.8659 45.35V43.3618C70.8703 43.2195 70.9154 43.0814 70.9959 42.964C71.0764 42.8465 71.1889 42.7546 71.3201 42.6991Z" fill="#D4DBDF"/>
<path d="M83.4501 39.1618C77.2473 35.5801 67.1947 35.5801 60.9919 39.1618C59.2035 40.0901 57.7544 41.5601 56.8518 43.3616C55.5263 40.3309 56.9114 36.9875 61.0143 34.6196C67.2171 31.0379 77.2697 31.0379 83.4725 34.6196C87.5754 36.9875 88.9604 40.3309 87.635 43.3616C86.7207 41.5533 85.2551 40.0825 83.4501 39.1618Z" fill="#BAC1C5"/>
<g style="mix-blend-mode:multiply">
<path opacity="0.05" d="M83.778 37.2785C89.9733 40.8527 89.9733 46.6534 83.778 50.2277C77.5826 53.8019 67.5375 53.8019 61.3422 50.2277C55.1468 46.6534 55.1468 40.8527 61.3422 37.2785C67.5375 33.7042 77.5826 33.6819 83.778 37.2785Z" fill="#424241"/>
<path style="mix-blend-mode:multiply" opacity="0.05" d="M57.3507 46.3405L72.5562 43.7269L61.3196 37.2783C57.0826 39.7356 55.7497 43.2503 57.3507 46.3405Z" fill="url(#paint24_linear_24_38013)"/>
<path style="mix-blend-mode:multiply" opacity="0.05" d="M72.5561 43.7492L61.3195 37.2783C58.9516 38.641 57.4921 40.3313 56.9336 42.1036L72.5561 43.7492Z" fill="url(#paint25_linear_24_38013)"/>
<path style="mix-blend-mode:multiply" opacity="0.03" d="M72.556 43.7492L61.3195 37.2783C60.3925 37.7987 59.5387 38.4397 58.7803 39.1846L72.556 43.7492Z" fill="url(#paint26_linear_24_38013)"/>
<path style="mix-blend-mode:multiply" opacity="0.05" d="M87.7689 41.1283L72.556 43.742L83.7777 50.2203C88.037 47.7704 89.3699 44.2558 87.7689 41.1283Z" fill="url(#paint27_linear_24_38013)"/>
<path style="mix-blend-mode:multiply" opacity="0.05" d="M72.556 43.7497L83.7777 50.228C86.1456 48.8653 87.6051 47.1676 88.1636 45.4028L72.556 43.7497Z" fill="url(#paint28_linear_24_38013)"/>
<path style="mix-blend-mode:multiply" opacity="0.05" d="M72.556 43.7497L83.7777 50.228C84.7049 49.7052 85.5588 49.0616 86.3169 48.3143L72.556 43.7497Z" fill="url(#paint29_linear_24_38013)"/>
<path style="mix-blend-mode:multiply" opacity="0.05" d="M77.0908 52.5289L72.556 43.7497L61.3194 50.228C65.6085 52.6928 71.6922 53.4597 77.0908 52.5289Z" fill="url(#paint30_linear_24_38013)"/>
<path style="mix-blend-mode:multiply" opacity="0.05" d="M72.556 43.7497L61.3194 50.228C63.9017 51.6414 66.7491 52.5035 69.6817 52.7598L72.556 43.7497Z" fill="url(#paint31_linear_24_38013)"/>
<path style="mix-blend-mode:multiply" opacity="0.05" d="M72.556 43.7497L61.3194 50.228C62.3703 50.8361 63.4807 51.3351 64.6331 51.7173L72.556 43.7497Z" fill="url(#paint32_linear_24_38013)"/>
<path style="mix-blend-mode:multiply" opacity="0.05" d="M68.0212 34.9703L72.5486 43.7496L83.7703 37.2787C79.5184 34.8139 73.4273 34.047 68.0212 34.9703Z" fill="url(#paint33_linear_24_38013)"/>
<path style="mix-blend-mode:multiply" opacity="0.05" d="M72.556 43.7495L83.7777 37.2786C81.1946 35.8661 78.3478 35.0016 75.4154 34.7394L72.556 43.7495Z" fill="url(#paint34_linear_24_38013)"/>
<path style="mix-blend-mode:multiply" opacity="0.03" d="M72.556 43.7498L83.7777 37.2789C82.7268 36.6708 81.6165 36.1718 80.4641 35.7896L72.556 43.7498Z" fill="url(#paint35_linear_24_38013)"/>
</g>
<path d="M71.3201 40.8006C71.6578 40.628 72.0317 40.538 72.411 40.538C72.7903 40.538 73.1641 40.628 73.5018 40.8006C73.6286 40.8538 73.7382 40.9412 73.8184 41.0529C73.8985 41.1646 73.9462 41.2964 73.9561 41.4335V43.4515C73.9449 43.5873 73.8966 43.7175 73.8165 43.8278C73.7364 43.9381 73.6276 44.0243 73.5018 44.077C73.1641 44.2495 72.7903 44.3395 72.411 44.3395C72.0317 44.3395 71.6578 44.2495 71.3201 44.077C71.1944 44.0243 71.0855 43.9381 71.0054 43.8278C70.9253 43.7175 70.8771 43.5873 70.8659 43.4515V41.4335C70.8757 41.2964 70.9234 41.1646 71.0036 41.0529C71.0837 40.9412 71.1933 40.8538 71.3201 40.8006Z" fill="#609911"/>
<path d="M71.32 40.8006C70.7094 41.1505 70.7094 41.7165 71.32 42.059C71.6578 42.2316 72.0317 42.3215 72.411 42.3215C72.7902 42.3215 73.1641 42.2316 73.5018 42.059C74.1124 41.7165 74.1124 41.1505 73.5018 40.8006C73.1641 40.628 72.7902 40.538 72.411 40.538C72.0317 40.538 71.6578 40.628 71.32 40.8006Z" fill="#EEF5F9"/>
<path d="M60.1878 48.0825C66.8374 51.9174 77.6048 51.9174 84.247 48.0825C90.8891 44.2476 90.8966 38.0225 84.247 34.1876C77.5974 30.3527 66.8374 30.3527 60.1878 34.1876C53.5382 38.0225 53.5457 44.2402 60.1878 48.0825ZM60.992 34.6791C67.1948 31.0974 77.2474 31.0974 83.4502 34.6791C89.653 38.2608 89.653 44.0689 83.4502 47.6432C77.2474 51.2174 67.1948 51.2249 60.992 47.6432C54.7892 44.0615 54.7892 38.231 60.992 34.6493V34.6791Z" fill="#EEF5F9"/>
<path d="M59.54 51.7839C66.5396 55.8273 77.8953 55.8273 84.9023 51.7839C86.573 50.8816 88.001 49.5889 89.0648 48.0161C88.4915 49.967 86.9054 51.836 84.3066 53.3402C77.6049 57.19 66.8076 57.19 60.1357 53.3402C57.5295 51.8509 55.9509 49.967 55.3775 48.0161C56.4375 49.5923 57.8664 50.8857 59.54 51.7839Z" fill="#609911"/>
<path d="M55.3625 39.8918C54.7221 42.8033 56.3305 45.8489 60.2026 48.0828C66.8522 51.9176 77.6196 51.9176 84.2618 48.0828C88.0668 45.8489 89.6901 42.8703 89.1391 40.0407L90.1518 44.0394C90.338 46.8243 88.5955 49.6465 84.9393 51.7762C77.9323 55.8195 66.5767 55.8195 59.5771 51.7762C55.9805 49.6986 54.2306 46.9658 54.3274 44.2479L55.3625 39.8918Z" fill="#D4DBDF"/>
<path d="M16.9916 42.6841C17.3307 42.5115 17.7058 42.4215 18.0863 42.4215C18.4667 42.4215 18.8418 42.5115 19.1809 42.6841C19.3076 42.7374 19.4172 42.8247 19.4974 42.9364C19.5775 43.0482 19.6252 43.1799 19.6351 43.3171V45.335C19.6252 45.4722 19.5775 45.6039 19.4974 45.7156C19.4172 45.8273 19.3076 45.9147 19.1809 45.968C18.8418 46.1406 18.4667 46.2306 18.0863 46.2306C17.7058 46.2306 17.3307 46.1406 16.9916 45.968C16.8672 45.9114 16.7598 45.8231 16.6801 45.7121C16.6004 45.601 16.5512 45.471 16.5374 45.335V43.3171C16.5473 43.1799 16.595 43.0482 16.6752 42.9364C16.7553 42.8247 16.8649 42.7374 16.9916 42.6841Z" fill="#D4DBDF"/>
<path d="M29.1215 39.1469C22.9262 35.5652 12.8661 35.5652 6.6633 39.1469C4.8649 40.0786 3.40584 41.5534 2.49336 43.3616C1.16791 40.3309 2.55295 36.9875 6.65589 34.6196C12.8587 31.0379 22.9187 31.0379 29.1141 34.6196C33.217 36.9875 34.6095 40.3309 33.2766 43.3616C32.3726 41.5523 30.9178 40.0766 29.1215 39.1469Z" fill="#BAC1C5"/>
<g style="mix-blend-mode:multiply">
<path opacity="0.05" d="M29.4568 37.2562C35.6447 40.8379 35.6447 46.6312 29.4568 50.2129C23.2689 53.7946 13.2163 53.7871 7.02093 50.2129C0.825564 46.6386 0.825564 40.8379 7.02093 37.2562C13.2163 33.6745 23.2614 33.682 29.4568 37.2562Z" fill="#424241"/>
<path style="mix-blend-mode:multiply" opacity="0.05" d="M3.02977 46.3407L18.2353 43.727L7.02105 37.2487C2.75429 39.7208 1.42881 43.2355 3.02977 46.3407Z" fill="url(#paint36_linear_24_38013)"/>
<path style="mix-blend-mode:multiply" opacity="0.05" d="M18.235 43.7345L7.02084 37.2562C4.65291 38.6264 3.18596 40.3167 2.63493 42.0815L18.235 43.7345Z" fill="url(#paint37_linear_24_38013)"/>
<path style="mix-blend-mode:multiply" opacity="0.03" d="M18.2353 43.7345L7.02109 37.2562C6.0942 37.7797 5.2404 38.4231 4.48186 39.1699L18.2353 43.7345Z" fill="url(#paint38_linear_24_38013)"/>
<path style="mix-blend-mode:multiply" opacity="0.05" d="M33.4408 41.1279L18.2353 43.7416L29.457 50.2199C33.7163 47.7477 35.0492 44.2405 33.4408 41.1279Z" fill="url(#paint39_linear_24_38013)"/>
<path style="mix-blend-mode:multiply" opacity="0.05" d="M18.2353 43.7343L29.457 50.2126C31.8175 48.8425 33.2844 47.1522 33.8428 45.3874L18.2353 43.7343Z" fill="url(#paint40_linear_24_38013)"/>
<path style="mix-blend-mode:multiply" opacity="0.05" d="M18.2353 43.7343L29.457 50.2126C30.3804 49.6873 31.2314 49.044 31.9887 48.2989L18.2353 43.7343Z" fill="url(#paint41_linear_24_38013)"/>
<path style="mix-blend-mode:multiply" opacity="0.05" d="M22.7624 52.5136L18.2351 43.7343L7.02087 50.2126C11.2802 52.6699 17.3862 53.4369 22.7624 52.5136Z" fill="url(#paint42_linear_24_38013)"/>
<path style="mix-blend-mode:multiply" opacity="0.05" d="M18.2351 43.7343L7.02087 50.2126C9.60227 51.6217 12.4463 52.4835 15.3757 52.7444L18.2351 43.7343Z" fill="url(#paint43_linear_24_38013)"/>
<path style="mix-blend-mode:multiply" opacity="0.05" d="M18.2351 43.7343L7.02087 50.2126C8.07072 50.8177 9.17826 51.3166 10.3271 51.7019L18.2351 43.7343Z" fill="url(#paint44_linear_24_38013)"/>
<path style="mix-blend-mode:multiply" opacity="0.05" d="M13.7078 34.9551L18.2352 43.7343L29.4568 37.256C25.1901 34.7987 19.1064 34.0317 13.7078 34.9551Z" fill="url(#paint45_linear_24_38013)"/>
<path style="mix-blend-mode:multiply" opacity="0.05" d="M18.2353 43.7344L29.457 37.2561C26.8774 35.849 24.0362 34.9873 21.1096 34.7243L18.2353 43.7344Z" fill="url(#paint46_linear_24_38013)"/>
<path style="mix-blend-mode:multiply" opacity="0.03" d="M18.2353 43.734L29.457 37.2557C28.4045 36.6506 27.2945 36.1518 26.1433 35.7664L18.2353 43.734Z" fill="url(#paint47_linear_24_38013)"/>
</g>
<path d="M16.9916 40.7781C17.3317 40.6089 17.7064 40.5208 18.0863 40.5208C18.4661 40.5208 18.8408 40.6089 19.1809 40.7781C19.3076 40.8313 19.4172 40.9187 19.4974 41.0304C19.5775 41.1421 19.6252 41.2739 19.6351 41.411V43.429C19.6252 43.5661 19.5775 43.6979 19.4974 43.8096C19.4172 43.9213 19.3076 44.0086 19.1809 44.0619C18.8418 44.2345 18.4667 44.3245 18.0863 44.3245C17.7058 44.3245 17.3307 44.2345 16.9916 44.0619C16.8649 44.0086 16.7553 43.9213 16.6752 43.8096C16.595 43.6979 16.5473 43.5661 16.5374 43.429V41.411C16.5526 41.2755 16.6024 41.1461 16.6819 41.0352C16.7614 40.9244 16.8681 40.8359 16.9916 40.7781Z" fill="#609911"/>
<path d="M16.9916 40.7781C16.8602 40.8238 16.7463 40.9093 16.6657 41.0227C16.585 41.1362 16.5417 41.2719 16.5417 41.411C16.5417 41.5502 16.585 41.6859 16.6657 41.7993C16.7463 41.9127 16.8602 41.9982 16.9916 42.044C17.3307 42.2166 17.7058 42.3066 18.0863 42.3066C18.4667 42.3066 18.8418 42.2166 19.1808 42.044C19.3123 41.9982 19.4262 41.9127 19.5069 41.7993C19.5875 41.6859 19.6308 41.5502 19.6308 41.411C19.6308 41.2719 19.5875 41.1362 19.5069 41.0227C19.4262 40.9093 19.3123 40.8238 19.1808 40.7781C18.8408 40.6089 18.4661 40.5208 18.0863 40.5208C17.7064 40.5208 17.3317 40.6089 16.9916 40.7781Z" fill="#EEF5F9"/>
<path d="M5.86676 48.0606C12.5089 51.8955 23.2838 51.903 29.9259 48.0606C36.5681 44.2183 36.5681 38.0081 29.9259 34.1732C23.2838 30.3383 12.5089 30.3309 5.86676 34.1732C-0.775389 38.0155 -0.782835 44.2258 5.86676 48.0606ZM6.66348 34.6572C12.8663 31.0755 22.9263 31.0755 29.1217 34.6572C35.3171 38.2389 35.3245 44.0396 29.1217 47.6213C22.9189 51.203 12.8663 51.203 6.66348 47.6213C0.460666 44.0396 0.468112 38.2166 6.66348 34.6349V34.6572Z" fill="#EEF5F9"/>
<path d="M5.21162 51.7688C12.2186 55.8122 23.5743 55.8122 30.5813 51.7688C32.2514 50.8684 33.6774 49.5753 34.7364 48.001C34.1705 49.9519 32.5844 51.8135 29.9781 53.3177C23.2764 57.1749 12.4867 57.1749 5.80732 53.3177C3.20854 51.8284 1.62246 49.9519 1.04909 48.001C2.11286 49.5739 3.54089 50.8665 5.21162 51.7688Z" fill="#609911"/>
<path d="M1.00424 39.877C0.363851 42.7885 1.97972 45.834 5.85182 48.0679C12.494 51.9028 23.2688 51.9103 29.911 48.0679C33.7161 45.8713 35.3394 42.9002 34.7883 40.0333L35.801 44.0395C35.9946 46.8244 34.2447 49.6466 30.5886 51.7762C23.5816 55.8196 12.2259 55.8196 5.21885 51.7762C1.62971 49.6987 -0.120182 46.9659 0.00640618 44.248L1.00424 39.877Z" fill="#D4DBDF"/>
<defs>
<linearGradient id="paint0_linear_24_38013" x1="4.74973" y1="16.7679" x2="13.6587" y2="7.85885" gradientUnits="userSpaceOnUse">
<stop stop-color="white"/>
<stop offset="1"/>
</linearGradient>
<linearGradient id="paint1_linear_24_38013" x1="6.68193" y1="14.8357" x2="13.6585" y2="7.85904" gradientUnits="userSpaceOnUse">
<stop stop-color="white"/>
<stop offset="1"/>
</linearGradient>
<linearGradient id="paint2_linear_24_38013" x1="9.06211" y1="12.4557" x2="13.6588" y2="7.85904" gradientUnits="userSpaceOnUse">
<stop stop-color="white"/>
<stop offset="1"/>
</linearGradient>
<linearGradient id="paint3_linear_24_38013" x1="31.722" y1="8.10776" x2="22.8077" y2="17.022" gradientUnits="userSpaceOnUse">
<stop stop-color="white"/>
<stop offset="1"/>
</linearGradient>
<linearGradient id="paint4_linear_24_38013" x1="29.7843" y1="10.0456" x2="22.8077" y2="17.0222" gradientUnits="userSpaceOnUse">
<stop stop-color="white"/>
<stop offset="1"/>
</linearGradient>
<linearGradient id="paint5_linear_24_38013" x1="27.4043" y1="12.4255" x2="22.8077" y2="17.0222" gradientUnits="userSpaceOnUse">
<stop stop-color="white"/>
<stop offset="1"/>
</linearGradient>
<linearGradient id="paint6_linear_24_38013" x1="20.4675" y1="23.5157" x2="11.4426" y2="14.4909" gradientUnits="userSpaceOnUse">
<stop stop-color="white"/>
<stop offset="1"/>
</linearGradient>
<linearGradient id="paint7_linear_24_38013" x1="16.887" y1="19.9353" x2="11.4426" y2="14.4909" gradientUnits="userSpaceOnUse">
<stop stop-color="white"/>
<stop offset="1"/>
</linearGradient>
<linearGradient id="paint8_linear_24_38013" x1="13.8279" y1="16.8761" x2="11.4427" y2="14.4909" gradientUnits="userSpaceOnUse">
<stop stop-color="white"/>
<stop offset="1"/>
</linearGradient>
<linearGradient id="paint9_linear_24_38013" x1="16.0018" y1="1.36655" x2="25.0266" y2="10.3914" gradientUnits="userSpaceOnUse">
<stop stop-color="white"/>
<stop offset="1"/>
</linearGradient>
<linearGradient id="paint10_linear_24_38013" x1="19.5824" y1="4.94753" x2="25.0268" y2="10.3919" gradientUnits="userSpaceOnUse">
<stop stop-color="white"/>
<stop offset="1"/>
</linearGradient>
<linearGradient id="paint11_linear_24_38013" x1="22.6416" y1="8.00634" x2="25.0268" y2="10.3915" gradientUnits="userSpaceOnUse">
<stop stop-color="white"/>
<stop offset="1"/>
</linearGradient>
<linearGradient id="paint12_linear_24_38013" x1="59.0776" y1="16.768" x2="67.9866" y2="7.85903" gradientUnits="userSpaceOnUse">
<stop stop-color="white"/>
<stop offset="1"/>
</linearGradient>
<linearGradient id="paint13_linear_24_38013" x1="61.0099" y1="14.8357" x2="67.9865" y2="7.85904" gradientUnits="userSpaceOnUse">
<stop stop-color="white"/>
<stop offset="1"/>
</linearGradient>
<linearGradient id="paint14_linear_24_38013" x1="63.3898" y1="12.4557" x2="67.9864" y2="7.85905" gradientUnits="userSpaceOnUse">
<stop stop-color="white"/>
<stop offset="1"/>
</linearGradient>
<linearGradient id="paint15_linear_24_38013" x1="86.0443" y1="8.11303" x2="77.1353" y2="17.022" gradientUnits="userSpaceOnUse">
<stop stop-color="white"/>
<stop offset="1"/>
</linearGradient>
<linearGradient id="paint16_linear_24_38013" x1="84.1119" y1="10.0456" x2="77.1353" y2="17.0222" gradientUnits="userSpaceOnUse">
<stop stop-color="white"/>
<stop offset="1"/>
</linearGradient>
<linearGradient id="paint17_linear_24_38013" x1="81.732" y1="12.4255" x2="77.1353" y2="17.0222" gradientUnits="userSpaceOnUse">
<stop stop-color="white"/>
<stop offset="1"/>
</linearGradient>
<linearGradient id="paint18_linear_24_38013" x1="74.7953" y1="23.5157" x2="65.7652" y2="14.4856" gradientUnits="userSpaceOnUse">
<stop stop-color="white"/>
<stop offset="1"/>
</linearGradient>
<linearGradient id="paint19_linear_24_38013" x1="71.2149" y1="19.9353" x2="65.7652" y2="14.4856" gradientUnits="userSpaceOnUse">
<stop stop-color="white"/>
<stop offset="1"/>
</linearGradient>
<linearGradient id="paint20_linear_24_38013" x1="68.1557" y1="16.8761" x2="65.7652" y2="14.4856" gradientUnits="userSpaceOnUse">
<stop stop-color="white"/>
<stop offset="1"/>
</linearGradient>
<linearGradient id="paint21_linear_24_38013" x1="70.3244" y1="1.37182" x2="79.3492" y2="10.3967" gradientUnits="userSpaceOnUse">
<stop stop-color="white"/>
<stop offset="1"/>
</linearGradient>
<linearGradient id="paint22_linear_24_38013" x1="73.9048" y1="4.9528" x2="79.3492" y2="10.3972" gradientUnits="userSpaceOnUse">
<stop stop-color="white"/>
<stop offset="1"/>
</linearGradient>
<linearGradient id="paint23_linear_24_38013" x1="76.9587" y1="8.00634" x2="79.3492" y2="10.3968" gradientUnits="userSpaceOnUse">
<stop stop-color="white"/>
<stop offset="1"/>
</linearGradient>
<linearGradient id="paint24_linear_24_38013" x1="59.0723" y1="48.0811" x2="67.9865" y2="39.1668" gradientUnits="userSpaceOnUse">
<stop stop-color="white"/>
<stop offset="1"/>
</linearGradient>
<linearGradient id="paint25_linear_24_38013" x1="61.0099" y1="46.1434" x2="67.9865" y2="39.1668" gradientUnits="userSpaceOnUse">
<stop stop-color="white"/>
<stop offset="1"/>
</linearGradient>
<linearGradient id="paint26_linear_24_38013" x1="63.3898" y1="43.7635" x2="67.9864" y2="39.1668" gradientUnits="userSpaceOnUse">
<stop stop-color="white"/>
<stop offset="1"/>
</linearGradient>
<linearGradient id="paint27_linear_24_38013" x1="86.0443" y1="39.4212" x2="77.1353" y2="48.3302" gradientUnits="userSpaceOnUse">
<stop stop-color="white"/>
<stop offset="1"/>
</linearGradient>
<linearGradient id="paint28_linear_24_38013" x1="84.1119" y1="41.3539" x2="77.1353" y2="48.3305" gradientUnits="userSpaceOnUse">
<stop stop-color="white"/>
<stop offset="1"/>
</linearGradient>
<linearGradient id="paint29_linear_24_38013" x1="81.732" y1="43.7339" x2="77.1353" y2="48.3305" gradientUnits="userSpaceOnUse">
<stop stop-color="white"/>
<stop offset="1"/>
</linearGradient>
<linearGradient id="paint30_linear_24_38013" x1="74.7953" y1="54.824" x2="65.7705" y2="45.7992" gradientUnits="userSpaceOnUse">
<stop stop-color="white"/>
<stop offset="1"/>
</linearGradient>
<linearGradient id="paint31_linear_24_38013" x1="71.2149" y1="51.2436" x2="65.7705" y2="45.7992" gradientUnits="userSpaceOnUse">
<stop stop-color="white"/>
<stop offset="1"/>
</linearGradient>
<linearGradient id="paint32_linear_24_38013" x1="68.1557" y1="48.1844" x2="65.7705" y2="45.7992" gradientUnits="userSpaceOnUse">
<stop stop-color="white"/>
<stop offset="1"/>
</linearGradient>
<linearGradient id="paint33_linear_24_38013" x1="70.3244" y1="32.6801" x2="79.3492" y2="41.7049" gradientUnits="userSpaceOnUse">
<stop stop-color="white"/>
<stop offset="1"/>
</linearGradient>
<linearGradient id="paint34_linear_24_38013" x1="73.9048" y1="36.2605" x2="79.3492" y2="41.7049" gradientUnits="userSpaceOnUse">
<stop stop-color="white"/>
<stop offset="1"/>
</linearGradient>
<linearGradient id="paint35_linear_24_38013" x1="76.9587" y1="39.3147" x2="79.3492" y2="41.7051" gradientUnits="userSpaceOnUse">
<stop stop-color="white"/>
<stop offset="1"/>
</linearGradient>
<linearGradient id="paint36_linear_24_38013" x1="4.74973" y1="48.0654" x2="13.664" y2="39.1511" gradientUnits="userSpaceOnUse">
<stop stop-color="white"/>
<stop offset="1"/>
</linearGradient>
<linearGradient id="paint37_linear_24_38013" x1="6.68719" y1="46.1279" x2="13.6638" y2="39.1513" gradientUnits="userSpaceOnUse">
<stop stop-color="white"/>
<stop offset="1"/>
</linearGradient>
<linearGradient id="paint38_linear_24_38013" x1="9.06737" y1="43.7479" x2="13.664" y2="39.1513" gradientUnits="userSpaceOnUse">
<stop stop-color="white"/>
<stop offset="1"/>
</linearGradient>
<linearGradient id="paint39_linear_24_38013" x1="31.722" y1="39.4051" x2="22.8129" y2="48.3141" gradientUnits="userSpaceOnUse">
<stop stop-color="white"/>
<stop offset="1"/>
</linearGradient>
<linearGradient id="paint40_linear_24_38013" x1="29.7895" y1="41.3376" x2="22.8129" y2="48.3142" gradientUnits="userSpaceOnUse">
<stop stop-color="white"/>
<stop offset="1"/>
</linearGradient>
<linearGradient id="paint41_linear_24_38013" x1="27.4096" y1="43.7176" x2="22.8129" y2="48.3142" gradientUnits="userSpaceOnUse">
<stop stop-color="white"/>
<stop offset="1"/>
</linearGradient>
<linearGradient id="paint42_linear_24_38013" x1="20.4675" y1="54.8025" x2="11.4426" y2="45.7777" gradientUnits="userSpaceOnUse">
<stop stop-color="white"/>
<stop offset="1"/>
</linearGradient>
<linearGradient id="paint43_linear_24_38013" x1="16.8923" y1="51.2273" x2="11.4427" y2="45.7777" gradientUnits="userSpaceOnUse">
<stop stop-color="white"/>
<stop offset="1"/>
</linearGradient>
<linearGradient id="paint44_linear_24_38013" x1="13.8331" y1="48.1681" x2="11.4427" y2="45.7777" gradientUnits="userSpaceOnUse">
<stop stop-color="white"/>
<stop offset="1"/>
</linearGradient>
<linearGradient id="paint45_linear_24_38013" x1="16.0018" y1="32.664" x2="25.0266" y2="41.6888" gradientUnits="userSpaceOnUse">
<stop stop-color="white"/>
<stop offset="1"/>
</linearGradient>
<linearGradient id="paint46_linear_24_38013" x1="19.5824" y1="36.2445" x2="25.0268" y2="41.6889" gradientUnits="userSpaceOnUse">
<stop stop-color="white"/>
<stop offset="1"/>
</linearGradient>
<linearGradient id="paint47_linear_24_38013" x1="22.6363" y1="39.298" x2="25.0268" y2="41.6885" gradientUnits="userSpaceOnUse">
<stop stop-color="white"/>
<stop offset="1"/>
</linearGradient>
</defs>
</svg>
