<svg width="80" height="161" viewBox="0 0 80 161" fill="none" xmlns="http://www.w3.org/2000/svg">
<path fill-rule="evenodd" clip-rule="evenodd" d="M22.7514 82.0323L31.4603 69.0091V66.4611L23.3938 61.9313L22.7514 82.0323ZM20.4314 152.421H34.3514L31.7102 75.8746L22.4658 90.6319L20.4314 152.421Z" fill="url(#paint0_linear_24_38207)"/>
<path fill-rule="evenodd" clip-rule="evenodd" d="M34.3514 152.422H20.4314L20.2708 154.987C20.2801 155.672 20.4455 156.346 20.7545 156.959C21.0636 157.572 21.5082 158.108 22.0554 158.526C23.5132 159.291 25.0861 159.817 26.7132 160.083C28.9341 160.19 31.112 159.45 32.7988 158.013C33.7317 157.233 34.3364 156.134 34.4941 154.934L34.3514 152.422Z" fill="url(#paint1_linear_24_38207)"/>
<path fill-rule="evenodd" clip-rule="evenodd" d="M8.20676 45.0683L13.5606 48.1472V46.8909L9.56307 44.5906L8.15323 43.812L8.20676 45.0683ZM13.5606 49.5451L8.20676 46.4485V50.7837L13.5606 53.951V49.5451Z" fill="#979797"/>
<path fill-rule="evenodd" clip-rule="evenodd" d="M23.608 33.6199C23.7172 33.5613 23.8191 33.49 23.9114 33.4076C24.0096 33.3262 24.0867 33.2227 24.1364 33.1057C24.186 32.9888 24.2068 32.8617 24.1969 32.7352C24.1977 32.6124 24.1728 32.4908 24.1236 32.3781C24.0745 32.2653 24.0022 32.164 23.9114 32.0805C23.8247 31.9876 23.7199 31.913 23.6033 31.8613C23.4868 31.8096 23.3609 31.7818 23.2332 31.7797C23.0972 31.7788 22.9623 31.8049 22.8366 31.8566C22.7109 31.9082 22.597 31.9844 22.5015 32.0805C22.4083 32.1631 22.3333 32.2639 22.2811 32.3765C22.2289 32.4892 22.2006 32.6113 22.1981 32.7352C22.1918 32.863 22.216 32.9905 22.2687 33.1074C22.3214 33.2242 22.4012 33.3271 22.5015 33.4076C22.6924 33.5479 22.9243 33.6225 23.1618 33.6199C23.3069 33.666 23.4629 33.666 23.608 33.6199ZM23.608 32.6644C23.5337 32.6949 23.4503 32.6949 23.376 32.6644C23.3551 32.5951 23.3551 32.5214 23.376 32.4521C23.3526 32.3772 23.3526 32.297 23.376 32.2221C23.4503 32.1916 23.5337 32.1916 23.608 32.2221C23.6418 32.2074 23.6782 32.1999 23.7151 32.1999C23.7519 32.1999 23.7884 32.2074 23.8221 32.2221C23.8529 32.2957 23.8529 32.3784 23.8221 32.4521C23.8499 32.5202 23.8499 32.5963 23.8221 32.6644C23.7711 32.6795 23.7166 32.6792 23.6657 32.6634C23.6149 32.6477 23.5699 32.6172 23.5366 32.5759L23.608 32.6644Z" fill="#467F00"/>
<path fill-rule="evenodd" clip-rule="evenodd" d="M36.7249 49.3858L36.8677 57.4368V59.3125C36.9228 59.2326 36.9824 59.1558 37.0461 59.0824C37.7765 58.0198 38.8976 57.283 40.1692 57.0299L41.0794 9.51986C41.0845 7.11289 40.4241 4.75056 39.1698 2.68975C38.563 1.50421 38.0098 1.48651 37.4923 2.68975C37.4952 2.74869 37.4952 2.80775 37.4923 2.86669C37.4981 2.90778 37.4981 2.94947 37.4923 2.99056C37.4923 2.99056 37.4923 3.14981 37.4923 3.23828C37.3907 3.4779 37.313 3.72681 37.2603 3.98145C36.6144 6.20545 36.2428 8.49889 36.1538 10.8116L36.7249 49.3858ZM2.42458 119.881H2.56735C2.59087 119.813 2.6308 119.752 2.68366 119.702C2.73653 119.653 2.80074 119.617 2.87073 119.598C3.06007 119.499 3.23432 119.374 3.38827 119.226C5.07896 117.621 6.59251 115.841 7.90334 113.918L22.4658 90.6319L31.7101 75.8746L37.76 66.2488L38.3846 65.3286H38.1883H38.0455C37.975 65.3127 37.9018 65.3127 37.8314 65.3286C37.1633 65.0236 36.5946 64.5394 36.1895 63.9308L6.26151 108.645C4.40197 111.462 3.02697 114.565 2.19258 117.829C1.51443 119.686 1.6215 120.323 2.42458 119.881ZM44.3809 63.5238L71.0073 70.9024C73.2425 71.2048 75.5149 70.743 77.4498 69.593C79.0381 68.956 79.4664 68.089 78.7883 67.0096C78.7033 66.9083 78.6478 66.786 78.6277 66.6557C77.7617 65.4575 76.4982 64.5993 75.0584 64.2316L43.435 58.2862H43.1138C43.1138 58.2862 43.1138 58.3924 43.2209 58.4454C43.4872 58.6882 43.6894 58.992 43.8098 59.3302C44.3696 60.231 44.6316 61.2826 44.5593 62.3383C44.5765 62.7411 44.5159 63.1435 44.3809 63.5238ZM22.5729 33.443V42.768C22.5729 42.9041 22.6274 43.0346 22.7245 43.1309C22.8215 43.2271 22.9532 43.2812 23.0904 43.2812C23.2277 43.2812 23.3593 43.2271 23.4564 43.1309C23.5534 43.0346 23.608 42.9041 23.608 42.768V33.6199C23.4852 33.6522 23.356 33.6522 23.2332 33.6199C22.9936 33.6174 22.7615 33.5365 22.5729 33.3899V33.443Z" fill="#F4F4F4"/>
<path fill-rule="evenodd" clip-rule="evenodd" d="M37.4923 2.61896C38.0098 1.48651 38.563 1.5042 39.1698 2.61896C40.4241 4.67977 41.0845 7.0421 41.0793 9.44908L40.1692 57.0299H40.5618C40.7906 57.0452 41.0175 57.0807 41.2399 57.136V54.7826L43.4529 53.4379V53.3494L41.347 52.1462L42.3464 7.46728C42.3988 5.03831 41.5833 2.66919 40.0443 0.778724C39.0627 -0.636845 38.2596 -0.123701 37.5993 2.31815C37.5797 2.42334 37.5435 2.52484 37.4923 2.61896ZM23.608 41.8302V42.7149C23.608 42.851 23.5534 42.9815 23.4564 43.0778C23.3593 43.174 23.2277 43.2281 23.0904 43.2281C22.9532 43.2281 22.8215 43.174 22.7245 43.0778C22.6274 42.9815 22.5729 42.851 22.5729 42.7149V41.4586L20.1279 42.9273L13.7569 46.7493L34.4941 58.7993L36.7963 57.4368L36.6535 49.3858L23.608 41.8302ZM32.6738 67.2397L31.4603 69.0091L22.7513 81.9616L4.47687 109.087C2.68871 111.999 1.44345 115.205 0.800568 118.554C0.0153351 121.137 0.479332 121.686 2.21041 120.164L2.42456 119.934C1.62148 120.43 1.51441 119.74 2.13902 117.882C2.9844 114.596 4.37775 111.475 6.26148 108.645L36.1181 63.7892C36.0286 63.6262 35.9568 63.4541 35.9039 63.2761C35.8333 63.0877 35.7854 62.8917 35.7612 62.6921L34.4941 64.4616L32.6738 67.2397ZM44.3809 63.5238C44.1429 64.0784 43.7612 64.5607 43.2744 64.9217L71.1501 72.9727C73.5434 73.1338 75.9145 72.4297 77.8246 70.9909C79.6984 70 80.1624 68.8499 79.2344 67.5405C79.1035 67.3495 78.9541 67.1717 78.7883 67.0096C79.4664 68.089 79.0381 68.956 77.4498 69.593C75.5149 70.7429 73.2425 71.2048 71.0073 70.9024L44.3809 63.5238Z" fill="white"/>
<path fill-rule="evenodd" clip-rule="evenodd" d="M9.61661 44.5905L13.6142 46.8908V46.6785L13.7569 46.7493L20.128 42.9272L14.8634 39.8484L8.27814 43.812L9.61661 44.5905Z" fill="#E5E5E5"/>
<path fill-rule="evenodd" clip-rule="evenodd" d="M23.3938 61.9313L31.3889 66.5319L32.6738 67.2397L34.4585 64.5147V63.0107L13.5784 50.9783V56.2867L23.3938 61.9313ZM13.6141 48.1295V49.5451L34.4941 61.5774V58.7994L13.7569 46.7493H13.6141V48.218V48.1295Z" fill="#C5C5C5"/>
<path fill-rule="evenodd" clip-rule="evenodd" d="M34.4941 63.046V61.5066L13.6141 49.4742V49.545V51.0137L34.4941 63.046Z" fill="#467F00"/>
<path fill-rule="evenodd" clip-rule="evenodd" d="M13.6141 48.1472L8.20674 45.0683V46.4485L13.6141 49.545V49.4743V48.1472Z" fill="#205900"/>
<path fill-rule="evenodd" clip-rule="evenodd" d="M23.5366 32.5759C23.5704 32.5906 23.6068 32.5981 23.6437 32.5981C23.6805 32.5981 23.717 32.5906 23.7508 32.5759C23.7785 32.5078 23.7785 32.4317 23.7508 32.3636C23.7815 32.29 23.7815 32.2072 23.7508 32.1336C23.717 32.119 23.6805 32.1114 23.6437 32.1114C23.6068 32.1114 23.5704 32.119 23.5366 32.1336C23.4623 32.1031 23.3789 32.1031 23.3046 32.1336C23.2812 32.2085 23.2812 32.2887 23.3046 32.3636C23.2838 32.4329 23.2838 32.5067 23.3046 32.5759C23.3789 32.6064 23.4623 32.6064 23.5366 32.5759Z" fill="#205900"/>
<path fill-rule="evenodd" clip-rule="evenodd" d="M41.24 57.136C41.9044 57.1964 42.5309 57.4697 43.0246 57.9146C43.0758 57.9971 43.1424 58.0692 43.2209 58.1269H43.5421V53.4379L41.3292 54.7826L41.24 57.136ZM38.3846 65.3286L37.8314 66.2487L39.0092 65.541C38.7942 65.4916 38.5849 65.4205 38.3846 65.3286ZM34.5655 64.5501L35.8326 62.7806C35.7705 62.1692 35.8403 61.5517 36.0372 60.969C36.2341 60.3863 36.5537 59.8518 36.9748 59.4009V57.5253L34.6726 58.8878V64.6385L34.5655 64.5501Z" fill="#9C9C9C"/>
<path fill-rule="evenodd" clip-rule="evenodd" d="M37.76 65.1871C37.8305 65.1711 37.9037 65.1711 37.9741 65.1871H38.1169C37.8806 64.9464 37.7302 64.6357 37.6886 64.3023C37.4709 63.5723 37.466 62.7961 37.6745 62.0634C37.8829 61.3307 38.2961 60.6715 38.8664 60.1618C40.0443 58.6931 41.2043 58.0384 42.4357 58.18H42.8818L43.3994 58.3392C43.3994 58.3392 43.3101 58.3392 43.2923 58.18C43.2138 58.1223 43.1472 58.0502 43.096 57.9677C42.6365 57.8075 42.1651 57.6833 41.6861 57.5961H41.4006C41.1584 57.619 40.9192 57.6664 40.6868 57.7376L40.3655 57.8615C39.688 58.2281 39.0833 58.7138 38.5809 59.2947C38.4738 59.2947 38.3846 59.5071 38.2775 59.6133C37.7711 60.0216 37.3592 60.5331 37.0697 61.1132C36.7803 61.6933 36.6201 62.3283 36.6 62.9752C36.6293 63.2769 36.6952 63.5739 36.7963 63.86C36.9769 64.3877 37.3125 64.8498 37.76 65.1871Z" fill="#A1A1A1"/>
<path fill-rule="evenodd" clip-rule="evenodd" d="M38.1169 65.2579H38.3132C38.5135 65.3497 38.7228 65.4209 38.9378 65.4702L39.2412 65.5587C40.2499 65.76 41.2935 65.7052 42.2751 65.3994C42.6336 65.2663 42.9704 65.0815 43.2745 64.8509C43.6954 64.5405 44.0385 64.1378 44.2768 63.6744C44.5152 63.2109 44.6424 62.6992 44.6486 62.179C44.7209 61.1234 44.4589 60.0717 43.8991 59.1709C43.7786 58.8327 43.5764 58.529 43.3102 58.2862L42.7926 58.127H42.3465C41.2043 57.9854 40.0443 58.6401 38.7772 60.1088C38.197 60.6229 37.7777 61.2912 37.5689 62.0345C37.3601 62.7778 37.3707 63.5649 37.5994 64.3024C37.6493 64.6726 37.8332 65.0122 38.1169 65.2579ZM44.1311 62.9753C44.1578 63.1215 44.1578 63.2714 44.1311 63.4176C44.0779 63.5731 44.006 63.7217 43.9169 63.86C43.864 63.9919 43.7844 64.1118 43.6832 64.2122C43.5819 64.3126 43.461 64.3914 43.328 64.4439C43.2161 64.5148 43.086 64.5525 42.9532 64.5525C42.8204 64.5525 42.6904 64.5148 42.5785 64.4439C42.4563 64.3979 42.3497 64.3188 42.2708 64.2155C42.1919 64.1123 42.1439 63.989 42.1323 63.86C42.1301 63.55 42.2102 63.2449 42.3643 62.9753C42.511 62.7334 42.729 62.542 42.9889 62.4267C43.1143 62.357 43.2556 62.3204 43.3994 62.3204C43.5431 62.3204 43.6845 62.357 43.8098 62.4267C43.8992 62.4907 43.974 62.5726 44.0294 62.6671C44.0847 62.7616 44.1194 62.8666 44.1311 62.9753Z" fill="url(#paint2_linear_24_38207)"/>
<path fill-rule="evenodd" clip-rule="evenodd" d="M44.1311 62.9753C44.1182 62.8559 44.0777 62.7411 44.0127 62.6398C43.9477 62.5385 43.8599 62.4534 43.7563 62.3914C43.6309 62.3216 43.4896 62.285 43.3458 62.285C43.2021 62.285 43.0607 62.3216 42.9354 62.3914C42.6755 62.5066 42.4575 62.698 42.3107 62.9399C42.1566 63.2096 42.0766 63.5146 42.0787 63.8246C42.0903 63.9537 42.1383 64.0769 42.2172 64.1801C42.2961 64.2834 42.4027 64.3625 42.5249 64.4085C42.6368 64.4795 42.7669 64.5171 42.8997 64.5171C43.0325 64.5171 43.1625 64.4795 43.2744 64.4085C43.4075 64.356 43.5283 64.2772 43.6296 64.1768C43.7309 64.0764 43.8104 63.9565 43.8634 63.8246C43.9525 63.6863 44.0244 63.5377 44.0775 63.3823C44.1181 63.2505 44.1362 63.1129 44.1311 62.9753Z" fill="url(#paint3_linear_24_38207)"/>
<path fill-rule="evenodd" clip-rule="evenodd" d="M36.1181 63.7892C36.5233 64.3978 37.092 64.882 37.76 65.1871C37.3389 64.84 37.0288 64.3789 36.8677 63.86C36.7666 63.574 36.7007 63.2769 36.6714 62.9752C36.6416 62.3533 36.7419 61.7319 36.9661 61.1503C37.1903 60.5686 37.5335 60.0393 37.9741 59.5956C38.0812 59.4894 38.1705 59.3655 38.2775 59.2771C38.7799 58.6961 39.3846 58.2104 40.0621 57.8438L40.3834 57.7199C40.6158 57.6488 40.855 57.6013 41.0972 57.5784H41.3828C41.8618 57.6656 42.3332 57.7898 42.7926 57.95C42.2989 57.5051 41.6724 57.2317 41.008 57.1714C40.7856 57.1161 40.5586 57.0806 40.3298 57.0652H40.1692C38.9107 57.3269 37.8038 58.0628 37.0818 59.1178C37.0181 59.1911 36.9585 59.2679 36.9034 59.3479C36.4823 59.7987 36.1627 60.3332 35.9658 60.9159C35.7689 61.4986 35.6991 62.1161 35.7612 62.7275C35.7854 62.9271 35.8333 63.1231 35.904 63.3114C35.9591 63.4774 36.0309 63.6374 36.1181 63.7892Z" fill="#205900"/>
<defs>
<linearGradient id="paint0_linear_24_38207" x1="30.87" y1="106.225" x2="17.0205" y2="106.225" gradientUnits="userSpaceOnUse">
<stop stop-color="#EFEAEA"/>
<stop offset="0.28" stop-color="#C5B7AF"/>
<stop offset="0.71" stop-color="#ECE2E2"/>
</linearGradient>
<linearGradient id="paint1_linear_24_38207" x1="33.6739" y1="156.316" x2="19.8245" y2="156.122" gradientUnits="userSpaceOnUse">
<stop stop-color="#EFEAEA"/>
<stop offset="0.28" stop-color="#C5B7AF"/>
<stop offset="0.71" stop-color="#ECE2E2"/>
</linearGradient>
<linearGradient id="paint2_linear_24_38207" x1="42.6946" y1="60.5453" x2="39.9251" y2="64.181" gradientUnits="userSpaceOnUse">
<stop stop-color="#F0F0F0"/>
<stop offset="1" stop-color="#BFBFBF"/>
</linearGradient>
<linearGradient id="paint3_linear_24_38207" x1="43.7019" y1="62.3223" x2="42.4441" y2="64.4906" gradientUnits="userSpaceOnUse">
<stop stop-color="#D7D7D7"/>
<stop offset="1" stop-color="#727272"/>
</linearGradient>
</defs>
</svg>
