<svg width="237" height="243" viewBox="0 0 237 243" fill="none" xmlns="http://www.w3.org/2000/svg">
<g clip-path="url(#clip0_24_42417)">
<g filter="url(#filter0_f_24_42417)">
<path fill-rule="evenodd" clip-rule="evenodd" d="M91.3303 177.028L98.2609 177.515L99.151 178.208L98.5278 182.272L91.3303 177.028ZM66.107 158.688L69.9131 153.802L95.9309 175.559L88.2481 174.788L66.107 158.688Z" fill="black" fill-opacity="0.25"/>
<path fill-rule="evenodd" clip-rule="evenodd" d="M69.9131 153.802L66.107 158.688L65.1668 158.046C64.9301 157.856 64.7398 157.615 64.6102 157.34C64.4807 157.065 64.4151 156.763 64.4185 156.457C64.55 155.737 64.7964 155.042 65.1481 154.398C65.7179 153.589 66.5722 153.027 67.5353 152.826C68.063 152.71 68.612 152.797 69.0744 153.068L69.9131 153.802Z" fill="black" fill-opacity="0.25"/>
<path fill-rule="evenodd" clip-rule="evenodd" d="M100.266 192.192L100.654 189.475L101.093 189.817L100.804 191.846L100.69 192.553L100.266 192.192ZM100.166 189.095L99.7839 191.816L98.2695 190.637L98.6269 187.896L100.166 189.095Z" fill="black" fill-opacity="0.25"/>
<path fill-rule="evenodd" clip-rule="evenodd" d="M108.476 189.901C108.527 189.879 108.58 189.863 108.634 189.853C108.689 189.84 108.746 189.841 108.801 189.856C108.855 189.87 108.905 189.897 108.946 189.935C108.99 189.969 109.025 190.01 109.051 190.058C109.077 190.106 109.093 190.159 109.097 190.214C109.106 190.27 109.103 190.327 109.089 190.382C109.076 190.437 109.051 190.488 109.017 190.534C108.98 190.582 108.934 190.622 108.881 190.652C108.829 190.682 108.771 190.701 108.712 190.709C108.657 190.719 108.602 190.718 108.548 190.705C108.494 190.693 108.444 190.67 108.4 190.637C108.354 190.604 108.316 190.561 108.289 190.511C108.263 190.461 108.249 190.405 108.248 190.348C108.251 190.242 108.289 190.141 108.354 190.058C108.378 189.995 108.421 189.94 108.476 189.901ZM108.81 190.161C108.779 190.179 108.756 190.208 108.747 190.243C108.765 190.269 108.791 190.289 108.821 190.301C108.841 190.329 108.869 190.351 108.901 190.363C108.932 190.345 108.955 190.316 108.965 190.282C108.979 190.274 108.992 190.263 109.002 190.25C109.012 190.237 109.019 190.222 109.023 190.207C109.006 190.176 108.977 190.153 108.943 190.144C108.927 190.116 108.9 190.095 108.869 190.086C108.85 190.1 108.835 190.119 108.826 190.141C108.818 190.164 108.816 190.188 108.822 190.211L108.81 190.161Z" fill="black" fill-opacity="0.25"/>
<path fill-rule="evenodd" clip-rule="evenodd" d="M106.555 181.007L103.782 178.766L103.127 178.256C103.17 178.258 103.213 178.258 103.256 178.256C103.827 178.289 104.391 178.096 104.827 177.718L121.672 190.327C122.515 190.98 123.159 191.855 123.536 192.856C123.784 193.392 123.639 193.591 123.078 193.445C123.058 193.428 123.037 193.412 123.016 193.397C123.003 193.384 122.988 193.372 122.972 193.363C122.972 193.363 122.917 193.32 122.886 193.296C122.774 193.266 122.666 193.226 122.563 193.175C121.609 192.796 120.707 192.303 119.874 191.705L106.555 181.007ZM72.5509 173.863L72.59 173.813C72.6202 173.824 72.6526 173.826 72.6843 173.821C72.7159 173.816 72.746 173.803 72.7718 173.784C72.8582 173.744 72.9495 173.717 73.0431 173.703C74.0663 173.547 75.1018 173.5 76.132 173.563L88.2482 174.788L95.931 175.559L100.948 176.055L101.44 176.086L101.386 176.155L101.347 176.205C101.334 176.234 101.314 176.26 101.289 176.281C101.213 176.598 101.226 176.929 101.328 177.237L77.5251 175.574C76.0327 175.46 74.5727 175.098 73.2045 174.503C72.3701 174.236 72.1768 174.025 72.5509 173.863ZM103.71 174.473L108.413 163.119C108.918 162.252 109.701 161.58 110.632 161.214C111.288 160.83 111.708 160.916 111.9 161.447C111.912 161.505 111.94 161.557 111.98 161.6C112.161 162.23 112.116 162.907 111.851 163.512L105.281 176.23L105.193 176.343C105.193 176.343 105.156 176.314 105.167 176.262C105.155 176.102 105.104 175.949 105.019 175.814C104.857 175.373 104.561 174.995 104.173 174.733C104.037 174.617 103.88 174.529 103.71 174.473ZM108.255 190.313L104.998 187.775C104.95 187.738 104.92 187.684 104.912 187.623C104.905 187.563 104.922 187.502 104.96 187.454C104.998 187.406 105.052 187.374 105.113 187.367C105.173 187.359 105.233 187.375 105.281 187.412L108.476 189.902C108.432 189.936 108.396 189.981 108.374 190.033C108.309 190.118 108.274 190.221 108.274 190.327L108.255 190.313Z" fill="black" fill-opacity="0.25"/>
<path fill-rule="evenodd" clip-rule="evenodd" d="M123.102 193.464C123.639 193.591 123.784 193.392 123.561 192.875C123.184 191.874 122.539 191 121.697 190.346L104.827 177.718L104.934 177.58C104.991 177.496 105.041 177.406 105.083 177.313L105.905 177.954L106.979 177.543L107.01 177.567L106.855 178.634L122.736 190.441C123.599 191.084 124.203 192.014 124.443 193.069C124.669 193.799 124.27 193.941 123.237 193.508C123.194 193.487 123.149 193.472 123.102 193.464ZM105.608 187.667L105.299 187.426C105.252 187.389 105.191 187.373 105.131 187.381C105.071 187.389 105.016 187.42 104.978 187.468C104.941 187.517 104.924 187.578 104.931 187.638C104.938 187.698 104.969 187.753 105.016 187.79L105.455 188.132L104.274 188.59L101.196 189.786L102.657 179.229L103.762 178.791L106.536 181.032L105.608 187.667ZM99.2109 177.571L98.2609 177.515L91.3551 177.047L76.8826 176.08C75.3766 175.915 73.916 175.48 72.5705 174.794C71.4533 174.367 71.3885 174.055 72.3934 173.861L72.5324 173.849C72.1397 173.996 72.3515 174.221 73.1713 174.508C74.55 175.105 76.0216 175.465 77.5251 175.574L101.358 177.301C101.39 177.376 101.431 177.448 101.479 177.515C101.525 177.592 101.58 177.662 101.644 177.724L100.679 177.688L99.2109 177.571ZM103.71 174.473C103.451 174.405 103.178 174.408 102.919 174.481L107.728 162.505C108.327 161.622 109.221 160.981 110.246 160.702C111.104 160.314 111.633 160.464 111.836 161.146C111.867 161.244 111.889 161.345 111.9 161.447C111.708 160.915 111.288 160.83 110.631 161.214C109.701 161.58 108.918 162.252 108.413 163.119L103.71 174.473Z" fill="black" fill-opacity="0.25"/>
<path fill-rule="evenodd" clip-rule="evenodd" d="M100.819 191.827L101.108 189.798L101.182 189.856L101.197 189.786L104.274 188.59L103.91 191.276L100.725 192.509L100.819 191.827Z" fill="black" fill-opacity="0.25"/>
<path fill-rule="evenodd" clip-rule="evenodd" d="M98.5279 182.273L99.1068 178.214L99.2109 177.571L100.651 177.686L101.176 178.095L99.6703 188.698L97.816 187.254L98.5279 182.273ZM100.675 189.461L100.181 189.076L101.687 178.473L102.657 179.229L101.196 189.786L101.157 189.837L100.644 189.437L100.675 189.461Z" fill="black" fill-opacity="0.25"/>
<path fill-rule="evenodd" clip-rule="evenodd" d="M101.173 178.073L101.711 178.492L100.205 189.095L100.181 189.076L99.6677 188.676L101.173 178.073Z" fill="black" fill-opacity="0.25"/>
<path fill-rule="evenodd" clip-rule="evenodd" d="M100.669 189.456L100.266 192.192L99.7839 191.816L100.181 189.076L100.205 189.095L100.669 189.456Z" fill="black" fill-opacity="0.25"/>
<path fill-rule="evenodd" clip-rule="evenodd" d="M108.821 190.211C108.825 190.195 108.832 190.18 108.842 190.167C108.853 190.154 108.865 190.143 108.88 190.135C108.911 190.144 108.938 190.165 108.954 190.193C108.988 190.202 109.017 190.225 109.035 190.256C109.03 190.272 109.023 190.287 109.013 190.3C109.003 190.313 108.99 190.323 108.976 190.331C108.966 190.366 108.943 190.395 108.912 190.413C108.88 190.401 108.852 190.379 108.832 190.35C108.802 190.339 108.776 190.318 108.757 190.292C108.767 190.258 108.79 190.228 108.821 190.211Z" fill="black" fill-opacity="0.25"/>
<path fill-rule="evenodd" clip-rule="evenodd" d="M105.083 177.313C105.243 177.064 105.319 176.769 105.299 176.475C105.284 176.435 105.277 176.392 105.278 176.348L105.366 176.236L107.004 177.512L105.929 177.922L105.083 177.313ZM101.44 176.086L100.967 176.03L101.537 175.809C101.495 175.898 101.463 175.991 101.44 176.086ZM100.668 177.639L101.632 177.675C101.829 177.864 102.064 178.007 102.321 178.097C102.578 178.186 102.852 178.219 103.125 178.194L103.78 178.705L102.675 179.142L100.666 177.577L100.668 177.639Z" fill="black" fill-opacity="0.25"/>
<path fill-rule="evenodd" clip-rule="evenodd" d="M101.318 176.344C101.343 176.324 101.363 176.298 101.377 176.269L101.416 176.219C101.436 176.367 101.503 176.505 101.608 176.61C101.804 176.885 102.073 177.098 102.386 177.224C102.699 177.35 103.042 177.385 103.376 177.323C104.212 177.309 104.757 177.08 105.045 176.61L105.167 176.453L105.253 176.228C105.253 176.228 105.228 176.259 105.279 176.309C105.278 176.352 105.285 176.395 105.299 176.436C105.23 176.641 105.144 176.84 105.044 177.032L104.966 177.132C104.891 177.211 104.809 177.282 104.721 177.344L104.59 177.423C104.277 177.561 103.942 177.641 103.601 177.659C103.572 177.697 103.473 177.67 103.407 177.679C103.126 177.746 102.835 177.751 102.553 177.695C102.271 177.639 102.005 177.522 101.774 177.353C101.677 177.261 101.591 177.157 101.519 177.043C101.384 176.836 101.314 176.593 101.318 176.344Z" fill="black" fill-opacity="0.25"/>
<path fill-rule="evenodd" clip-rule="evenodd" d="M101.391 176.2L101.445 176.131C101.468 176.035 101.5 175.943 101.542 175.854L101.594 175.723C101.799 175.314 102.104 174.963 102.479 174.702C102.623 174.612 102.78 174.544 102.944 174.5C103.167 174.437 103.402 174.426 103.629 174.468C103.856 174.511 104.069 174.605 104.253 174.745C104.641 175.007 104.937 175.385 105.099 175.826C105.184 175.961 105.235 176.114 105.247 176.274L105.161 176.499L105.039 176.656C104.776 177.095 104.23 177.324 103.371 177.369C103.032 177.433 102.684 177.398 102.368 177.269C102.051 177.14 101.779 176.922 101.584 176.641C101.468 176.523 101.4 176.366 101.391 176.2ZM103.833 174.71C103.789 174.661 103.737 174.62 103.679 174.589C103.61 174.566 103.538 174.551 103.466 174.544C103.405 174.527 103.341 174.522 103.279 174.53C103.216 174.539 103.155 174.56 103.101 174.592C103.045 174.612 102.996 174.647 102.96 174.694C102.924 174.741 102.901 174.797 102.896 174.855C102.878 174.91 102.877 174.969 102.891 175.025C102.906 175.081 102.936 175.131 102.978 175.171C103.085 175.256 103.214 175.311 103.35 175.33C103.475 175.344 103.601 175.32 103.712 175.26C103.771 175.235 103.823 175.195 103.862 175.145C103.901 175.094 103.927 175.035 103.937 174.972C103.939 174.923 103.931 174.874 103.913 174.829C103.895 174.784 103.868 174.743 103.833 174.71Z" fill="black" fill-opacity="0.25"/>
<path fill-rule="evenodd" clip-rule="evenodd" d="M103.833 174.71C103.871 174.747 103.9 174.792 103.918 174.843C103.936 174.893 103.941 174.947 103.935 175C103.925 175.063 103.899 175.123 103.86 175.173C103.82 175.224 103.769 175.263 103.71 175.288C103.599 175.348 103.472 175.373 103.348 175.358C103.211 175.339 103.083 175.284 102.975 175.199C102.933 175.16 102.903 175.11 102.889 175.054C102.874 174.998 102.876 174.939 102.893 174.884C102.899 174.825 102.922 174.769 102.958 174.722C102.994 174.676 103.043 174.64 103.098 174.621C103.153 174.588 103.214 174.567 103.276 174.559C103.339 174.551 103.403 174.555 103.463 174.573C103.536 174.579 103.608 174.594 103.676 174.618C103.733 174.64 103.786 174.671 103.833 174.71Z" fill="black" fill-opacity="0.25"/>
<path fill-rule="evenodd" clip-rule="evenodd" d="M101.358 177.301C101.256 176.993 101.242 176.662 101.318 176.344C101.325 176.586 101.401 176.821 101.538 177.018C101.61 177.132 101.696 177.236 101.793 177.328C102.003 177.508 102.247 177.642 102.512 177.721C102.776 177.801 103.055 177.824 103.33 177.79C103.397 177.782 103.464 177.784 103.525 177.771C103.865 177.752 104.2 177.672 104.513 177.534L104.644 177.455C104.733 177.393 104.815 177.322 104.889 177.243L104.967 177.143C105.067 176.951 105.153 176.752 105.223 176.547C105.243 176.841 105.167 177.136 105.007 177.385C104.965 177.478 104.916 177.568 104.858 177.652L104.814 177.709C104.379 178.079 103.819 178.267 103.253 178.234C103.21 178.236 103.167 178.236 103.124 178.234C102.851 178.259 102.577 178.226 102.32 178.136C102.063 178.047 101.828 177.903 101.631 177.715C101.568 177.652 101.513 177.582 101.466 177.506C101.423 177.441 101.387 177.373 101.358 177.301Z" fill="black" fill-opacity="0.25"/>
</g>
<path fill-rule="evenodd" clip-rule="evenodd" d="M60.7514 82.0323L69.4603 69.0091V66.4611L61.3938 61.9313L60.7514 82.0323ZM58.4314 152.421H72.3514L69.7102 75.8746L60.4658 90.6319L58.4314 152.421Z" fill="url(#paint0_linear_24_42417)"/>
<path fill-rule="evenodd" clip-rule="evenodd" d="M72.3514 152.422H58.4314L58.2708 154.987C58.2801 155.672 58.4455 156.346 58.7545 156.959C59.0636 157.572 59.5082 158.108 60.0554 158.526C61.5132 159.291 63.0861 159.817 64.7132 160.083C66.9341 160.19 69.112 159.45 70.7988 158.013C71.7317 157.233 72.3364 156.134 72.4941 154.934L72.3514 152.422Z" fill="url(#paint1_linear_24_42417)"/>
<path fill-rule="evenodd" clip-rule="evenodd" d="M46.2068 45.0683L51.5606 48.1472V46.8909L47.5631 44.5906L46.1532 43.812L46.2068 45.0683ZM51.5606 49.5451L46.2068 46.4485V50.7837L51.5606 53.951V49.5451Z" fill="#979797"/>
<path fill-rule="evenodd" clip-rule="evenodd" d="M61.608 33.6199C61.7173 33.5613 61.8191 33.49 61.9114 33.4076C62.0096 33.3262 62.0867 33.2227 62.1364 33.1057C62.1861 32.9888 62.2068 32.8617 62.1969 32.7352C62.1978 32.6124 62.1728 32.4908 62.1237 32.3781C62.0745 32.2653 62.0022 32.164 61.9114 32.0805C61.8247 31.9876 61.7199 31.913 61.6034 31.8613C61.4868 31.8096 61.3609 31.7818 61.2332 31.7797C61.0972 31.7788 60.9623 31.8049 60.8367 31.8566C60.711 31.9082 60.597 31.9844 60.5015 32.0805C60.4083 32.1631 60.3333 32.2639 60.2811 32.3765C60.2289 32.4892 60.2007 32.6113 60.1982 32.7352C60.1919 32.863 60.216 32.9905 60.2687 33.1074C60.3215 33.2242 60.4012 33.3271 60.5015 33.4076C60.6924 33.5479 60.9243 33.6225 61.1619 33.6199C61.307 33.666 61.4629 33.666 61.608 33.6199ZM61.608 32.6644C61.5337 32.6949 61.4503 32.6949 61.376 32.6644C61.3552 32.5951 61.3552 32.5214 61.376 32.4521C61.3526 32.3772 61.3526 32.297 61.376 32.2221C61.4503 32.1916 61.5337 32.1916 61.608 32.2221C61.6418 32.2074 61.6782 32.1999 61.7151 32.1999C61.7519 32.1999 61.7884 32.2074 61.8222 32.2221C61.8529 32.2957 61.8529 32.3784 61.8222 32.4521C61.8499 32.5202 61.8499 32.5963 61.8222 32.6644C61.7711 32.6795 61.7166 32.6792 61.6658 32.6634C61.6149 32.6477 61.5699 32.6172 61.5366 32.5759L61.608 32.6644Z" fill="#467F00"/>
<path d="M65 64L63 63V159.5C63.4 159.9 64.5 160 65 160V64Z" fill="#467F00"/>
<path fill-rule="evenodd" clip-rule="evenodd" d="M74.7249 49.3858L74.8676 57.4368V59.3125C74.9228 59.2326 74.9823 59.1558 75.0461 59.0824C75.7765 58.0198 76.8976 57.283 78.1692 57.0299L79.0793 9.51986C79.0845 7.11289 78.4241 4.75056 77.1698 2.68975C76.563 1.50421 76.0098 1.48651 75.4922 2.68975C75.4952 2.74869 75.4952 2.80775 75.4922 2.86669C75.4981 2.90778 75.4981 2.94947 75.4922 2.99056C75.4922 2.99056 75.4922 3.14981 75.4922 3.23828C75.3906 3.4779 75.3129 3.72681 75.2602 3.98145C74.6144 6.20545 74.2428 8.49889 74.1538 10.8116L74.7249 49.3858ZM40.4245 119.881H40.5673C40.5908 119.813 40.6308 119.752 40.6836 119.702C40.7365 119.653 40.8007 119.617 40.8707 119.598C41.06 119.499 41.2343 119.374 41.3882 119.226C43.0789 117.621 44.5925 115.841 45.9033 113.918L60.4658 90.6319L69.7101 75.8746L75.7599 66.2488L76.3845 65.3286H76.1882H76.0455C75.975 65.3127 75.9018 65.3127 75.8313 65.3286C75.1633 65.0236 74.5946 64.5394 74.1895 63.9308L44.2615 108.645C42.4019 111.462 41.0269 114.565 40.1926 117.829C39.5144 119.686 39.6215 120.323 40.4245 119.881ZM82.3809 63.5238L109.007 70.9024C111.242 71.2048 113.515 70.743 115.45 69.593C117.038 68.956 117.466 68.089 116.788 67.0096C116.703 66.9083 116.648 66.786 116.628 66.6557C115.762 65.4575 114.498 64.5993 113.058 64.2316L81.435 58.2862H81.1138C81.1138 58.2862 81.1138 58.3924 81.2209 58.4454C81.4871 58.6882 81.6894 58.992 81.8098 59.3302C82.3696 60.231 82.6316 61.2826 82.5593 62.3383C82.5765 62.7411 82.5159 63.1435 82.3809 63.5238ZM60.5729 33.443V42.768C60.5729 42.9041 60.6274 43.0346 60.7244 43.1309C60.8215 43.2271 60.9531 43.2812 61.0904 43.2812C61.2277 43.2812 61.3593 43.2271 61.4564 43.1309C61.5534 43.0346 61.6079 42.9041 61.6079 42.768V33.6199C61.4851 33.6522 61.356 33.6522 61.2332 33.6199C60.9935 33.6174 60.7614 33.5365 60.5729 33.3899V33.443Z" fill="#F4F4F4"/>
<path fill-rule="evenodd" clip-rule="evenodd" d="M75.4923 2.61896C76.0098 1.48651 76.563 1.5042 77.1698 2.61896C78.4241 4.67977 79.0845 7.0421 79.0793 9.44908L78.1692 57.0299H78.5618C78.7906 57.0452 79.0175 57.0807 79.2399 57.136V54.7826L81.4529 53.4379V53.3494L79.347 52.1462L80.3464 7.46728C80.3988 5.03831 79.5833 2.66919 78.0443 0.778724C77.0627 -0.636845 76.2596 -0.123701 75.5993 2.31815C75.5797 2.42334 75.5435 2.52484 75.4923 2.61896ZM61.608 41.8302V42.7149C61.608 42.851 61.5534 42.9815 61.4564 43.0778C61.3593 43.174 61.2277 43.2281 61.0904 43.2281C60.9532 43.2281 60.8215 43.174 60.7245 43.0778C60.6274 42.9815 60.5729 42.851 60.5729 42.7149V41.4586L58.1279 42.9273L51.7569 46.7493L72.4941 58.7993L74.7963 57.4368L74.6535 49.3858L61.608 41.8302ZM70.6738 67.2397L69.4603 69.0091L60.7513 81.9616L42.4769 109.087C40.6887 111.999 39.4435 115.205 38.8006 118.554C38.0153 121.137 38.4793 121.686 40.2104 120.164L40.4246 119.934C39.6215 120.43 39.5144 119.74 40.139 117.882C40.9844 114.596 42.3778 111.475 44.2615 108.645L74.1181 63.7892C74.0286 63.6262 73.9568 63.4541 73.9039 63.2761C73.8333 63.0877 73.7854 62.8917 73.7612 62.6921L72.4941 64.4616L70.6738 67.2397ZM82.3809 63.5238C82.1429 64.0784 81.7612 64.5607 81.2744 64.9217L109.15 72.9727C111.543 73.1338 113.914 72.4297 115.825 70.9909C117.698 70 118.162 68.8499 117.234 67.5405C117.104 67.3495 116.954 67.1717 116.788 67.0096C117.466 68.089 117.038 68.956 115.45 69.593C113.515 70.7429 111.243 71.2048 109.007 70.9024L82.3809 63.5238Z" fill="white"/>
<path fill-rule="evenodd" clip-rule="evenodd" d="M47.6166 44.5905L51.6142 46.8908V46.6785L51.7569 46.7493L58.128 42.9272L52.8634 39.8484L46.2781 43.812L47.6166 44.5905Z" fill="#E5E5E5"/>
<path fill-rule="evenodd" clip-rule="evenodd" d="M61.3938 61.9313L69.3889 66.5319L70.6738 67.2397L72.4585 64.5147V63.0107L51.5784 50.9783V56.2867L61.3938 61.9313ZM51.6141 48.1295V49.5451L72.4941 61.5774V58.7994L51.7569 46.7493H51.6141V48.218V48.1295Z" fill="#C5C5C5"/>
<path fill-rule="evenodd" clip-rule="evenodd" d="M72.4941 63.046V61.5066L51.6141 49.4742V49.545V51.0137L72.4941 63.046Z" fill="#467F00"/>
<path fill-rule="evenodd" clip-rule="evenodd" d="M51.6141 48.1472L46.2067 45.0683V46.4485L51.6141 49.545V49.4743V48.1472Z" fill="#205900"/>
<path fill-rule="evenodd" clip-rule="evenodd" d="M61.5366 32.5759C61.5704 32.5906 61.6068 32.5981 61.6437 32.5981C61.6805 32.5981 61.717 32.5906 61.7508 32.5759C61.7785 32.5078 61.7785 32.4317 61.7508 32.3636C61.7815 32.29 61.7815 32.2072 61.7508 32.1336C61.717 32.119 61.6805 32.1114 61.6437 32.1114C61.6068 32.1114 61.5704 32.119 61.5366 32.1336C61.4623 32.1031 61.3789 32.1031 61.3046 32.1336C61.2812 32.2085 61.2812 32.2887 61.3046 32.3636C61.2838 32.4329 61.2838 32.5067 61.3046 32.5759C61.3789 32.6064 61.4623 32.6064 61.5366 32.5759Z" fill="#205900"/>
<path fill-rule="evenodd" clip-rule="evenodd" d="M79.24 57.136C79.9044 57.1964 80.5308 57.4697 81.0246 57.9146C81.0758 57.9971 81.1424 58.0692 81.2209 58.1269H81.5421V53.4379L79.3292 54.7826L79.24 57.136ZM76.3846 65.3286L75.8314 66.2487L77.0092 65.541C76.7942 65.4916 76.5849 65.4205 76.3846 65.3286ZM72.5655 64.5501L73.8326 62.7806C73.7705 62.1692 73.8402 61.5517 74.0371 60.969C74.234 60.3863 74.5536 59.8518 74.9747 59.4009V57.5253L72.6726 58.8878V64.6385L72.5655 64.5501Z" fill="#9C9C9C"/>
<path fill-rule="evenodd" clip-rule="evenodd" d="M75.76 65.1871C75.8305 65.1711 75.9036 65.1711 75.9741 65.1871H76.1169C75.8806 64.9464 75.7302 64.6357 75.6886 64.3023C75.4709 63.5723 75.466 62.7961 75.6744 62.0634C75.8829 61.3307 76.2961 60.6715 76.8664 60.1618C78.0443 58.6931 79.2043 58.0384 80.4357 58.18H80.8818L81.3994 58.3392C81.3994 58.3392 81.3101 58.3392 81.2923 58.18C81.2138 58.1223 81.1472 58.0502 81.096 57.9677C80.6365 57.8075 80.1651 57.6833 79.6861 57.5961H79.4006C79.1584 57.619 78.9192 57.6664 78.6867 57.7376L78.3655 57.8615C77.688 58.2281 77.0833 58.7138 76.5809 59.2947C76.4738 59.2947 76.3846 59.5071 76.2775 59.6133C75.7711 60.0216 75.3592 60.5331 75.0697 61.1132C74.7803 61.6933 74.6201 62.3283 74.6 62.9752C74.6293 63.2769 74.6952 63.5739 74.7963 63.86C74.9769 64.3877 75.3125 64.8498 75.76 65.1871Z" fill="#A1A1A1"/>
<path fill-rule="evenodd" clip-rule="evenodd" d="M76.1169 65.2579H76.3132C76.5135 65.3497 76.7228 65.4209 76.9378 65.4702L77.2412 65.5587C78.2499 65.76 79.2935 65.7052 80.2751 65.3994C80.6336 65.2663 80.9704 65.0815 81.2745 64.8509C81.6955 64.5405 82.0385 64.1378 82.2768 63.6744C82.5152 63.2109 82.6424 62.6992 82.6486 62.179C82.7209 61.1234 82.4589 60.0717 81.8991 59.1709C81.7787 58.8327 81.5765 58.529 81.3102 58.2862L80.7926 58.127H80.3465C79.2043 57.9854 78.0443 58.6401 76.7772 60.1088C76.197 60.6229 75.7777 61.2912 75.5689 62.0345C75.3601 62.7778 75.3707 63.5649 75.5994 64.3024C75.6493 64.6726 75.8332 65.0122 76.1169 65.2579ZM82.1311 62.9753C82.1579 63.1215 82.1579 63.2714 82.1311 63.4176C82.078 63.5731 82.006 63.7217 81.9169 63.86C81.864 63.9919 81.7844 64.1118 81.6832 64.2122C81.5819 64.3126 81.4611 64.3914 81.328 64.4439C81.2161 64.5148 81.086 64.5525 80.9532 64.5525C80.8204 64.5525 80.6904 64.5148 80.5785 64.4439C80.4563 64.3979 80.3497 64.3188 80.2708 64.2155C80.1919 64.1123 80.1439 63.989 80.1323 63.86C80.1302 63.55 80.2102 63.2449 80.3643 62.9753C80.5111 62.7334 80.7291 62.542 80.9889 62.4267C81.1143 62.357 81.2556 62.3204 81.3994 62.3204C81.5431 62.3204 81.6845 62.357 81.8099 62.4267C81.8992 62.4907 81.974 62.5726 82.0294 62.6671C82.0847 62.7616 82.1194 62.8666 82.1311 62.9753Z" fill="url(#paint2_linear_24_42417)"/>
<path fill-rule="evenodd" clip-rule="evenodd" d="M82.1311 62.9753C82.1182 62.8559 82.0777 62.7411 82.0127 62.6398C81.9477 62.5385 81.8599 62.4534 81.7563 62.3914C81.6309 62.3216 81.4896 62.285 81.3458 62.285C81.2021 62.285 81.0607 62.3216 80.9354 62.3914C80.6755 62.5066 80.4575 62.698 80.3107 62.9399C80.1566 63.2096 80.0766 63.5146 80.0787 63.8246C80.0903 63.9537 80.1383 64.0769 80.2172 64.1801C80.2961 64.2834 80.4027 64.3625 80.5249 64.4085C80.6368 64.4795 80.7669 64.5171 80.8997 64.5171C81.0325 64.5171 81.1625 64.4795 81.2744 64.4085C81.4075 64.356 81.5283 64.2772 81.6296 64.1768C81.7309 64.0764 81.8104 63.9565 81.8634 63.8246C81.9525 63.6863 82.0244 63.5377 82.0775 63.3823C82.1181 63.2505 82.1362 63.1129 82.1311 62.9753Z" fill="url(#paint3_linear_24_42417)"/>
<path fill-rule="evenodd" clip-rule="evenodd" d="M74.1181 63.7892C74.5233 64.3978 75.092 64.882 75.76 65.1871C75.3389 64.84 75.0288 64.3789 74.8677 63.86C74.7666 63.574 74.7007 63.2769 74.6714 62.9752C74.6416 62.3533 74.7419 61.7319 74.9661 61.1503C75.1903 60.5686 75.5335 60.0393 75.9741 59.5956C76.0812 59.4894 76.1705 59.3655 76.2775 59.2771C76.7799 58.6961 77.3846 58.2104 78.0621 57.8438L78.3834 57.7199C78.6158 57.6488 78.855 57.6013 79.0972 57.5784H79.3828C79.8618 57.6656 80.3332 57.7898 80.7926 57.95C80.2989 57.5051 79.6724 57.2317 79.008 57.1714C78.7856 57.1161 78.5586 57.0806 78.3298 57.0652H78.1692C76.9107 57.3269 75.8038 58.0628 75.0818 59.1178C75.0181 59.1911 74.9585 59.2679 74.9034 59.3479C74.4823 59.7987 74.1627 60.3332 73.9658 60.9159C73.7689 61.4986 73.6991 62.1161 73.7612 62.7275C73.7854 62.9271 73.8333 63.1231 73.904 63.3114C73.9591 63.4774 74.0309 63.6374 74.1181 63.7892Z" fill="#205900"/>
</g>
<defs>
<filter id="filter0_f_24_42417" x="50.4184" y="138.776" width="88.0857" height="68.976" filterUnits="userSpaceOnUse" color-interpolation-filters="sRGB">
<feFlood flood-opacity="0" result="BackgroundImageFix"/>
<feBlend mode="normal" in="SourceGraphic" in2="BackgroundImageFix" result="shape"/>
<feGaussianBlur stdDeviation="7" result="effect1_foregroundBlur_24_42417"/>
</filter>
<linearGradient id="paint0_linear_24_42417" x1="68.87" y1="106.225" x2="55.0205" y2="106.225" gradientUnits="userSpaceOnUse">
<stop stop-color="#EFEAEA"/>
<stop offset="0.28" stop-color="#C5B7AF"/>
<stop offset="0.71" stop-color="#ECE2E2"/>
</linearGradient>
<linearGradient id="paint1_linear_24_42417" x1="71.6739" y1="156.316" x2="57.8245" y2="156.122" gradientUnits="userSpaceOnUse">
<stop stop-color="#EFEAEA"/>
<stop offset="0.28" stop-color="#C5B7AF"/>
<stop offset="0.71" stop-color="#ECE2E2"/>
</linearGradient>
<linearGradient id="paint2_linear_24_42417" x1="80.6947" y1="60.5453" x2="77.9251" y2="64.181" gradientUnits="userSpaceOnUse">
<stop stop-color="#F0F0F0"/>
<stop offset="1" stop-color="#BFBFBF"/>
</linearGradient>
<linearGradient id="paint3_linear_24_42417" x1="81.7019" y1="62.3223" x2="80.4441" y2="64.4906" gradientUnits="userSpaceOnUse">
<stop stop-color="#D7D7D7"/>
<stop offset="1" stop-color="#727272"/>
</linearGradient>
<clipPath id="clip0_24_42417">
<rect width="261" height="243" fill="white" transform="matrix(-1 0 0 1 237 0)"/>
</clipPath>
</defs>
</svg>
