<svg width="240" height="243" viewBox="0 0 240 243" fill="none" xmlns="http://www.w3.org/2000/svg">
<g clip-path="url(#clip0_24_42417)">
<g filter="url(#filter0_f_24_42417)">
<path fill-rule="evenodd" clip-rule="evenodd" d="M94.3303 177.028L101.261 177.515L102.151 178.208L101.528 182.272L94.3303 177.028ZM69.107 158.688L72.9131 153.802L98.9309 175.559L91.2481 174.788L69.107 158.688Z" fill="black" fill-opacity="0.25"/>
<path fill-rule="evenodd" clip-rule="evenodd" d="M72.9131 153.802L69.107 158.688L68.1668 158.046C67.9301 157.856 67.7398 157.615 67.6102 157.34C67.4807 157.065 67.4151 156.763 67.4185 156.457C67.55 155.737 67.7964 155.042 68.1481 154.398C68.7179 153.589 69.5722 153.027 70.5353 152.826C71.063 152.71 71.612 152.797 72.0744 153.068L72.9131 153.802Z" fill="black" fill-opacity="0.25"/>
<path fill-rule="evenodd" clip-rule="evenodd" d="M103.266 192.192L103.654 189.475L104.093 189.817L103.804 191.846L103.69 192.553L103.266 192.192ZM103.166 189.095L102.784 191.816L101.269 190.637L101.627 187.896L103.166 189.095Z" fill="black" fill-opacity="0.25"/>
<path fill-rule="evenodd" clip-rule="evenodd" d="M111.476 189.901C111.527 189.879 111.58 189.863 111.634 189.853C111.689 189.84 111.746 189.841 111.801 189.856C111.855 189.87 111.905 189.897 111.946 189.935C111.99 189.969 112.025 190.01 112.051 190.058C112.077 190.106 112.093 190.159 112.097 190.214C112.106 190.27 112.103 190.327 112.089 190.382C112.076 190.437 112.051 190.488 112.017 190.534C111.98 190.582 111.934 190.622 111.881 190.652C111.829 190.682 111.771 190.701 111.712 190.709C111.657 190.719 111.602 190.718 111.548 190.705C111.494 190.693 111.444 190.67 111.4 190.637C111.354 190.604 111.316 190.561 111.289 190.511C111.263 190.461 111.249 190.405 111.248 190.348C111.251 190.242 111.289 190.141 111.354 190.058C111.378 189.995 111.421 189.94 111.476 189.901ZM111.81 190.161C111.779 190.179 111.756 190.208 111.747 190.243C111.765 190.269 111.791 190.289 111.821 190.301C111.841 190.329 111.869 190.351 111.901 190.363C111.932 190.345 111.955 190.316 111.965 190.282C111.979 190.274 111.992 190.263 112.002 190.25C112.012 190.237 112.019 190.222 112.023 190.207C112.006 190.176 111.977 190.153 111.943 190.144C111.927 190.116 111.9 190.095 111.869 190.086C111.85 190.1 111.835 190.119 111.826 190.141C111.818 190.164 111.816 190.188 111.822 190.211L111.81 190.161Z" fill="black" fill-opacity="0.25"/>
<path fill-rule="evenodd" clip-rule="evenodd" d="M109.555 181.007L106.782 178.766L106.127 178.256C106.17 178.258 106.213 178.258 106.256 178.256C106.827 178.289 107.391 178.096 107.827 177.718L124.672 190.327C125.515 190.98 126.159 191.855 126.536 192.856C126.784 193.392 126.639 193.591 126.078 193.445C126.058 193.428 126.037 193.412 126.016 193.397C126.003 193.384 125.988 193.372 125.972 193.363C125.972 193.363 125.917 193.32 125.886 193.296C125.774 193.266 125.666 193.226 125.563 193.175C124.609 192.796 123.707 192.303 122.874 191.705L109.555 181.007ZM75.5509 173.863L75.59 173.813C75.6202 173.824 75.6526 173.826 75.6843 173.821C75.7159 173.816 75.746 173.803 75.7718 173.784C75.8582 173.744 75.9495 173.717 76.0431 173.703C77.0663 173.547 78.1018 173.5 79.132 173.563L91.2482 174.788L98.931 175.559L103.948 176.055L104.44 176.086L104.386 176.155L104.347 176.205C104.334 176.234 104.314 176.26 104.289 176.281C104.213 176.598 104.226 176.929 104.328 177.237L80.5251 175.574C79.0327 175.46 77.5727 175.098 76.2045 174.503C75.3701 174.236 75.1768 174.025 75.5509 173.863ZM106.71 174.473L111.413 163.119C111.918 162.252 112.701 161.58 113.632 161.214C114.288 160.83 114.708 160.916 114.9 161.447C114.912 161.505 114.94 161.557 114.98 161.6C115.161 162.23 115.116 162.907 114.851 163.512L108.281 176.23L108.193 176.343C108.193 176.343 108.156 176.314 108.167 176.262C108.155 176.102 108.104 175.949 108.019 175.814C107.857 175.373 107.561 174.995 107.173 174.733C107.037 174.617 106.88 174.529 106.71 174.473ZM111.255 190.313L107.998 187.775C107.95 187.738 107.92 187.684 107.912 187.623C107.905 187.563 107.922 187.502 107.96 187.454C107.998 187.406 108.052 187.374 108.113 187.367C108.173 187.359 108.233 187.375 108.281 187.412L111.476 189.902C111.432 189.936 111.396 189.981 111.374 190.033C111.309 190.118 111.274 190.221 111.274 190.327L111.255 190.313Z" fill="black" fill-opacity="0.25"/>
<path fill-rule="evenodd" clip-rule="evenodd" d="M126.102 193.464C126.639 193.591 126.784 193.392 126.561 192.875C126.184 191.874 125.539 191 124.697 190.346L107.827 177.718L107.934 177.58C107.991 177.496 108.041 177.406 108.083 177.313L108.905 177.954L109.979 177.543L110.01 177.567L109.855 178.634L125.736 190.441C126.599 191.084 127.203 192.014 127.443 193.069C127.669 193.799 127.27 193.941 126.237 193.508C126.194 193.487 126.149 193.472 126.102 193.464ZM108.608 187.667L108.299 187.426C108.252 187.389 108.191 187.373 108.131 187.381C108.071 187.389 108.016 187.42 107.978 187.468C107.941 187.517 107.924 187.578 107.931 187.638C107.938 187.698 107.969 187.753 108.016 187.79L108.455 188.132L107.274 188.59L104.196 189.786L105.657 179.229L106.762 178.791L109.536 181.032L108.608 187.667ZM102.211 177.571L101.261 177.515L94.3551 177.047L79.8826 176.08C78.3766 175.915 76.916 175.48 75.5705 174.794C74.4533 174.367 74.3885 174.055 75.3934 173.861L75.5324 173.849C75.1397 173.996 75.3515 174.221 76.1713 174.508C77.55 175.105 79.0216 175.465 80.5251 175.574L104.358 177.301C104.39 177.376 104.431 177.448 104.479 177.515C104.525 177.592 104.58 177.662 104.644 177.724L103.679 177.688L102.211 177.571ZM106.71 174.473C106.451 174.405 106.178 174.408 105.919 174.481L110.728 162.505C111.327 161.622 112.221 160.981 113.246 160.702C114.104 160.314 114.633 160.464 114.836 161.146C114.867 161.244 114.889 161.345 114.9 161.447C114.708 160.915 114.288 160.83 113.631 161.214C112.701 161.58 111.918 162.252 111.413 163.119L106.71 174.473Z" fill="black" fill-opacity="0.25"/>
<path fill-rule="evenodd" clip-rule="evenodd" d="M103.819 191.827L104.108 189.798L104.182 189.856L104.197 189.786L107.274 188.59L106.91 191.276L103.725 192.509L103.819 191.827Z" fill="black" fill-opacity="0.25"/>
<path fill-rule="evenodd" clip-rule="evenodd" d="M101.528 182.273L102.107 178.214L102.211 177.571L103.651 177.686L104.176 178.095L102.67 188.698L100.816 187.254L101.528 182.273ZM103.675 189.461L103.181 189.076L104.687 178.473L105.657 179.229L104.196 189.786L104.157 189.837L103.644 189.437L103.675 189.461Z" fill="black" fill-opacity="0.25"/>
<path fill-rule="evenodd" clip-rule="evenodd" d="M104.173 178.073L104.711 178.492L103.205 189.095L103.181 189.076L102.668 188.676L104.173 178.073Z" fill="black" fill-opacity="0.25"/>
<path fill-rule="evenodd" clip-rule="evenodd" d="M103.669 189.456L103.266 192.192L102.784 191.816L103.181 189.076L103.205 189.095L103.669 189.456Z" fill="black" fill-opacity="0.25"/>
<path fill-rule="evenodd" clip-rule="evenodd" d="M111.821 190.211C111.825 190.195 111.832 190.18 111.842 190.167C111.853 190.154 111.865 190.143 111.88 190.135C111.911 190.144 111.938 190.165 111.954 190.193C111.988 190.202 112.017 190.225 112.035 190.256C112.03 190.272 112.023 190.287 112.013 190.3C112.003 190.313 111.99 190.323 111.976 190.331C111.966 190.366 111.943 190.395 111.912 190.413C111.88 190.401 111.852 190.379 111.832 190.35C111.802 190.339 111.776 190.318 111.757 190.292C111.767 190.258 111.79 190.228 111.821 190.211Z" fill="black" fill-opacity="0.25"/>
<path fill-rule="evenodd" clip-rule="evenodd" d="M108.083 177.313C108.243 177.064 108.319 176.769 108.299 176.475C108.284 176.435 108.277 176.392 108.278 176.348L108.366 176.236L110.004 177.512L108.929 177.922L108.083 177.313ZM104.44 176.086L103.967 176.03L104.537 175.809C104.495 175.898 104.463 175.991 104.44 176.086ZM103.668 177.639L104.632 177.675C104.829 177.864 105.064 178.007 105.321 178.097C105.578 178.186 105.852 178.219 106.125 178.194L106.78 178.705L105.675 179.142L103.666 177.577L103.668 177.639Z" fill="black" fill-opacity="0.25"/>
<path fill-rule="evenodd" clip-rule="evenodd" d="M104.318 176.344C104.343 176.324 104.363 176.298 104.377 176.269L104.416 176.219C104.436 176.367 104.503 176.505 104.608 176.61C104.804 176.885 105.073 177.098 105.386 177.224C105.699 177.35 106.042 177.385 106.376 177.323C107.212 177.309 107.757 177.08 108.045 176.61L108.167 176.453L108.253 176.228C108.253 176.228 108.228 176.259 108.279 176.309C108.278 176.352 108.285 176.395 108.299 176.436C108.23 176.641 108.144 176.84 108.044 177.032L107.966 177.132C107.891 177.211 107.809 177.282 107.721 177.344L107.59 177.423C107.277 177.561 106.942 177.641 106.601 177.659C106.572 177.697 106.473 177.67 106.407 177.679C106.126 177.746 105.835 177.751 105.553 177.695C105.271 177.639 105.005 177.522 104.774 177.353C104.677 177.261 104.591 177.157 104.519 177.043C104.384 176.836 104.314 176.593 104.318 176.344Z" fill="black" fill-opacity="0.25"/>
<path fill-rule="evenodd" clip-rule="evenodd" d="M104.391 176.2L104.445 176.131C104.468 176.035 104.5 175.943 104.542 175.854L104.594 175.723C104.799 175.314 105.104 174.963 105.479 174.702C105.623 174.612 105.78 174.544 105.944 174.5C106.167 174.437 106.402 174.426 106.629 174.468C106.856 174.511 107.069 174.605 107.253 174.745C107.641 175.007 107.937 175.385 108.099 175.826C108.184 175.961 108.235 176.114 108.247 176.274L108.161 176.499L108.039 176.656C107.776 177.095 107.23 177.324 106.371 177.369C106.032 177.433 105.684 177.398 105.368 177.269C105.051 177.14 104.779 176.922 104.584 176.641C104.468 176.523 104.4 176.366 104.391 176.2ZM106.833 174.71C106.789 174.661 106.737 174.62 106.679 174.589C106.61 174.566 106.538 174.551 106.466 174.544C106.405 174.527 106.341 174.522 106.279 174.53C106.216 174.539 106.155 174.56 106.101 174.592C106.045 174.612 105.996 174.647 105.96 174.694C105.924 174.741 105.901 174.797 105.896 174.855C105.878 174.91 105.877 174.969 105.891 175.025C105.906 175.081 105.936 175.131 105.978 175.171C106.085 175.256 106.214 175.311 106.35 175.33C106.475 175.344 106.601 175.32 106.712 175.26C106.771 175.235 106.823 175.195 106.862 175.145C106.901 175.094 106.927 175.035 106.937 174.972C106.939 174.923 106.931 174.874 106.913 174.829C106.895 174.784 106.868 174.743 106.833 174.71Z" fill="black" fill-opacity="0.25"/>
<path fill-rule="evenodd" clip-rule="evenodd" d="M106.833 174.71C106.871 174.747 106.9 174.792 106.918 174.843C106.936 174.893 106.941 174.947 106.935 175C106.925 175.063 106.899 175.123 106.86 175.173C106.82 175.224 106.769 175.263 106.71 175.288C106.599 175.348 106.472 175.373 106.348 175.358C106.211 175.339 106.083 175.284 105.975 175.199C105.933 175.16 105.903 175.11 105.889 175.054C105.874 174.998 105.876 174.939 105.893 174.884C105.899 174.825 105.922 174.769 105.958 174.722C105.994 174.676 106.043 174.64 106.098 174.621C106.153 174.588 106.214 174.567 106.276 174.559C106.339 174.551 106.403 174.555 106.463 174.573C106.536 174.579 106.608 174.594 106.676 174.618C106.733 174.64 106.786 174.671 106.833 174.71Z" fill="black" fill-opacity="0.25"/>
<path fill-rule="evenodd" clip-rule="evenodd" d="M104.358 177.301C104.256 176.993 104.242 176.662 104.318 176.344C104.325 176.586 104.401 176.821 104.538 177.018C104.61 177.132 104.696 177.236 104.793 177.328C105.003 177.508 105.247 177.642 105.512 177.721C105.776 177.801 106.055 177.824 106.33 177.79C106.397 177.782 106.464 177.784 106.525 177.771C106.865 177.752 107.2 177.672 107.513 177.534L107.644 177.455C107.733 177.393 107.815 177.322 107.889 177.243L107.967 177.143C108.067 176.951 108.153 176.752 108.223 176.547C108.243 176.841 108.167 177.136 108.007 177.385C107.965 177.478 107.916 177.568 107.858 177.652L107.814 177.709C107.379 178.079 106.819 178.267 106.253 178.234C106.21 178.236 106.167 178.236 106.124 178.234C105.851 178.259 105.577 178.226 105.32 178.136C105.063 178.047 104.828 177.903 104.631 177.715C104.568 177.652 104.513 177.582 104.466 177.506C104.423 177.441 104.387 177.373 104.358 177.301Z" fill="black" fill-opacity="0.25"/>
</g>
<path fill-rule="evenodd" clip-rule="evenodd" d="M63.7514 82.0323L72.4603 69.0091V66.4611L64.3938 61.9313L63.7514 82.0323ZM61.4314 152.421H75.3514L72.7102 75.8746L63.4658 90.6319L61.4314 152.421Z" fill="url(#paint0_linear_24_42417)"/>
<path fill-rule="evenodd" clip-rule="evenodd" d="M75.3514 152.422H61.4314L61.2708 154.987C61.2801 155.672 61.4455 156.346 61.7545 156.959C62.0636 157.572 62.5082 158.108 63.0554 158.526C64.5132 159.291 66.0861 159.817 67.7132 160.083C69.9341 160.19 72.112 159.45 73.7988 158.013C74.7317 157.233 75.3364 156.134 75.4941 154.934L75.3514 152.422Z" fill="url(#paint1_linear_24_42417)"/>
<path fill-rule="evenodd" clip-rule="evenodd" d="M49.2068 45.0683L54.5606 48.1472V46.8909L50.5631 44.5906L49.1532 43.812L49.2068 45.0683ZM54.5606 49.5451L49.2068 46.4485V50.7837L54.5606 53.951V49.5451Z" fill="#979797"/>
<path fill-rule="evenodd" clip-rule="evenodd" d="M64.608 33.6199C64.7173 33.5613 64.8191 33.49 64.9114 33.4076C65.0096 33.3262 65.0867 33.2227 65.1364 33.1057C65.1861 32.9888 65.2068 32.8617 65.1969 32.7352C65.1978 32.6124 65.1728 32.4908 65.1237 32.3781C65.0745 32.2653 65.0022 32.164 64.9114 32.0805C64.8247 31.9876 64.7199 31.913 64.6034 31.8613C64.4868 31.8096 64.3609 31.7818 64.2332 31.7797C64.0972 31.7788 63.9623 31.8049 63.8367 31.8566C63.711 31.9082 63.597 31.9844 63.5015 32.0805C63.4083 32.1631 63.3333 32.2639 63.2811 32.3765C63.2289 32.4892 63.2007 32.6113 63.1982 32.7352C63.1919 32.863 63.216 32.9905 63.2687 33.1074C63.3215 33.2242 63.4012 33.3271 63.5015 33.4076C63.6924 33.5479 63.9243 33.6225 64.1619 33.6199C64.307 33.666 64.4629 33.666 64.608 33.6199ZM64.608 32.6644C64.5337 32.6949 64.4503 32.6949 64.376 32.6644C64.3552 32.5951 64.3552 32.5214 64.376 32.4521C64.3526 32.3772 64.3526 32.297 64.376 32.2221C64.4503 32.1916 64.5337 32.1916 64.608 32.2221C64.6418 32.2074 64.6782 32.1999 64.7151 32.1999C64.7519 32.1999 64.7884 32.2074 64.8222 32.2221C64.8529 32.2957 64.8529 32.3784 64.8222 32.4521C64.8499 32.5202 64.8499 32.5963 64.8222 32.6644C64.7711 32.6795 64.7166 32.6792 64.6658 32.6634C64.6149 32.6477 64.5699 32.6172 64.5366 32.5759L64.608 32.6644Z" fill="#467F00"/>
<path fill-rule="evenodd" clip-rule="evenodd" d="M77.7249 49.3858L77.8676 57.4368V59.3125C77.9228 59.2326 77.9823 59.1558 78.0461 59.0824C78.7765 58.0198 79.8976 57.283 81.1692 57.0299L82.0793 9.51986C82.0845 7.11289 81.4241 4.75056 80.1698 2.68975C79.563 1.50421 79.0098 1.48651 78.4922 2.68975C78.4952 2.74869 78.4952 2.80775 78.4922 2.86669C78.4981 2.90778 78.4981 2.94947 78.4922 2.99056C78.4922 2.99056 78.4922 3.14981 78.4922 3.23828C78.3906 3.4779 78.3129 3.72681 78.2602 3.98145C77.6144 6.20545 77.2428 8.49889 77.1538 10.8116L77.7249 49.3858ZM43.4245 119.881H43.5673C43.5908 119.813 43.6308 119.752 43.6836 119.702C43.7365 119.653 43.8007 119.617 43.8707 119.598C44.06 119.499 44.2343 119.374 44.3882 119.226C46.0789 117.621 47.5925 115.841 48.9033 113.918L63.4658 90.6319L72.7101 75.8746L78.7599 66.2488L79.3845 65.3286H79.1882H79.0455C78.975 65.3127 78.9018 65.3127 78.8313 65.3286C78.1633 65.0236 77.5946 64.5394 77.1895 63.9308L47.2615 108.645C45.4019 111.462 44.0269 114.565 43.1926 117.829C42.5144 119.686 42.6215 120.323 43.4245 119.881ZM85.3809 63.5238L112.007 70.9024C114.242 71.2048 116.515 70.743 118.45 69.593C120.038 68.956 120.466 68.089 119.788 67.0096C119.703 66.9083 119.648 66.786 119.628 66.6557C118.762 65.4575 117.498 64.5993 116.058 64.2316L84.435 58.2862H84.1138C84.1138 58.2862 84.1138 58.3924 84.2209 58.4454C84.4871 58.6882 84.6894 58.992 84.8098 59.3302C85.3696 60.231 85.6316 61.2826 85.5593 62.3383C85.5765 62.7411 85.5159 63.1435 85.3809 63.5238ZM63.5729 33.443V42.768C63.5729 42.9041 63.6274 43.0346 63.7244 43.1309C63.8215 43.2271 63.9531 43.2812 64.0904 43.2812C64.2277 43.2812 64.3593 43.2271 64.4564 43.1309C64.5534 43.0346 64.6079 42.9041 64.6079 42.768V33.6199C64.4851 33.6522 64.356 33.6522 64.2332 33.6199C63.9935 33.6174 63.7614 33.5365 63.5729 33.3899V33.443Z" fill="#F4F4F4"/>
<path fill-rule="evenodd" clip-rule="evenodd" d="M78.4923 2.61896C79.0098 1.48651 79.563 1.5042 80.1698 2.61896C81.4241 4.67977 82.0845 7.0421 82.0793 9.44908L81.1692 57.0299H81.5618C81.7906 57.0452 82.0175 57.0807 82.2399 57.136V54.7826L84.4529 53.4379V53.3494L82.347 52.1462L83.3464 7.46728C83.3988 5.03831 82.5833 2.66919 81.0443 0.778724C80.0627 -0.636845 79.2596 -0.123701 78.5993 2.31815C78.5797 2.42334 78.5435 2.52484 78.4923 2.61896ZM64.608 41.8302V42.7149C64.608 42.851 64.5534 42.9815 64.4564 43.0778C64.3593 43.174 64.2277 43.2281 64.0904 43.2281C63.9532 43.2281 63.8215 43.174 63.7245 43.0778C63.6274 42.9815 63.5729 42.851 63.5729 42.7149V41.4586L61.1279 42.9273L54.7569 46.7493L75.4941 58.7993L77.7963 57.4368L77.6535 49.3858L64.608 41.8302ZM73.6738 67.2397L72.4603 69.0091L63.7513 81.9616L45.4769 109.087C43.6887 111.999 42.4435 115.205 41.8006 118.554C41.0153 121.137 41.4793 121.686 43.2104 120.164L43.4246 119.934C42.6215 120.43 42.5144 119.74 43.139 117.882C43.9844 114.596 45.3778 111.475 47.2615 108.645L77.1181 63.7892C77.0286 63.6262 76.9568 63.4541 76.9039 63.2761C76.8333 63.0877 76.7854 62.8917 76.7612 62.6921L75.4941 64.4616L73.6738 67.2397ZM85.3809 63.5238C85.1429 64.0784 84.7612 64.5607 84.2744 64.9217L112.15 72.9727C114.543 73.1338 116.914 72.4297 118.825 70.9909C120.698 70 121.162 68.8499 120.234 67.5405C120.104 67.3495 119.954 67.1717 119.788 67.0096C120.466 68.089 120.038 68.956 118.45 69.593C116.515 70.7429 114.243 71.2048 112.007 70.9024L85.3809 63.5238Z" fill="white"/>
<path fill-rule="evenodd" clip-rule="evenodd" d="M50.6166 44.5905L54.6142 46.8908V46.6785L54.7569 46.7493L61.128 42.9272L55.8634 39.8484L49.2781 43.812L50.6166 44.5905Z" fill="#E5E5E5"/>
<path fill-rule="evenodd" clip-rule="evenodd" d="M64.3938 61.9313L72.3889 66.5319L73.6738 67.2397L75.4585 64.5147V63.0107L54.5784 50.9783V56.2867L64.3938 61.9313ZM54.6141 48.1295V49.5451L75.4941 61.5774V58.7994L54.7569 46.7493H54.6141V48.218V48.1295Z" fill="#C5C5C5"/>
<path fill-rule="evenodd" clip-rule="evenodd" d="M75.4941 63.046V61.5066L54.6141 49.4742V49.545V51.0137L75.4941 63.046Z" fill="#467F00"/>
<path fill-rule="evenodd" clip-rule="evenodd" d="M54.6141 48.1472L49.2067 45.0683V46.4485L54.6141 49.545V49.4743V48.1472Z" fill="#205900"/>
<path fill-rule="evenodd" clip-rule="evenodd" d="M64.5366 32.5759C64.5704 32.5906 64.6068 32.5981 64.6437 32.5981C64.6805 32.5981 64.717 32.5906 64.7508 32.5759C64.7785 32.5078 64.7785 32.4317 64.7508 32.3636C64.7815 32.29 64.7815 32.2072 64.7508 32.1336C64.717 32.119 64.6805 32.1114 64.6437 32.1114C64.6068 32.1114 64.5704 32.119 64.5366 32.1336C64.4623 32.1031 64.3789 32.1031 64.3046 32.1336C64.2812 32.2085 64.2812 32.2887 64.3046 32.3636C64.2838 32.4329 64.2838 32.5067 64.3046 32.5759C64.3789 32.6064 64.4623 32.6064 64.5366 32.5759Z" fill="#205900"/>
<path fill-rule="evenodd" clip-rule="evenodd" d="M82.24 57.136C82.9044 57.1964 83.5308 57.4697 84.0246 57.9146C84.0758 57.9971 84.1424 58.0692 84.2209 58.1269H84.5421V53.4379L82.3292 54.7826L82.24 57.136ZM79.3846 65.3286L78.8314 66.2487L80.0092 65.541C79.7942 65.4916 79.5849 65.4205 79.3846 65.3286ZM75.5655 64.5501L76.8326 62.7806C76.7705 62.1692 76.8402 61.5517 77.0371 60.969C77.234 60.3863 77.5536 59.8518 77.9747 59.4009V57.5253L75.6726 58.8878V64.6385L75.5655 64.5501Z" fill="#9C9C9C"/>
<path fill-rule="evenodd" clip-rule="evenodd" d="M78.76 65.1871C78.8305 65.1711 78.9036 65.1711 78.9741 65.1871H79.1169C78.8806 64.9464 78.7302 64.6357 78.6886 64.3023C78.4709 63.5723 78.466 62.7961 78.6744 62.0634C78.8829 61.3307 79.2961 60.6715 79.8664 60.1618C81.0443 58.6931 82.2043 58.0384 83.4357 58.18H83.8818L84.3994 58.3392C84.3994 58.3392 84.3101 58.3392 84.2923 58.18C84.2138 58.1223 84.1472 58.0502 84.096 57.9677C83.6365 57.8075 83.1651 57.6833 82.6861 57.5961H82.4006C82.1584 57.619 81.9192 57.6664 81.6867 57.7376L81.3655 57.8615C80.688 58.2281 80.0833 58.7138 79.5809 59.2947C79.4738 59.2947 79.3846 59.5071 79.2775 59.6133C78.7711 60.0216 78.3592 60.5331 78.0697 61.1132C77.7803 61.6933 77.6201 62.3283 77.6 62.9752C77.6293 63.2769 77.6952 63.5739 77.7963 63.86C77.9769 64.3877 78.3125 64.8498 78.76 65.1871Z" fill="#A1A1A1"/>
<path fill-rule="evenodd" clip-rule="evenodd" d="M79.1169 65.2579H79.3132C79.5135 65.3497 79.7228 65.4209 79.9378 65.4702L80.2412 65.5587C81.2499 65.76 82.2935 65.7052 83.2751 65.3994C83.6336 65.2663 83.9704 65.0815 84.2745 64.8509C84.6955 64.5405 85.0385 64.1378 85.2768 63.6744C85.5152 63.2109 85.6424 62.6992 85.6486 62.179C85.7209 61.1234 85.4589 60.0717 84.8991 59.1709C84.7787 58.8327 84.5765 58.529 84.3102 58.2862L83.7926 58.127H83.3465C82.2043 57.9854 81.0443 58.6401 79.7772 60.1088C79.197 60.6229 78.7777 61.2912 78.5689 62.0345C78.3601 62.7778 78.3707 63.5649 78.5994 64.3024C78.6493 64.6726 78.8332 65.0122 79.1169 65.2579ZM85.1311 62.9753C85.1579 63.1215 85.1579 63.2714 85.1311 63.4176C85.078 63.5731 85.006 63.7217 84.9169 63.86C84.864 63.9919 84.7844 64.1118 84.6832 64.2122C84.5819 64.3126 84.4611 64.3914 84.328 64.4439C84.2161 64.5148 84.086 64.5525 83.9532 64.5525C83.8204 64.5525 83.6904 64.5148 83.5785 64.4439C83.4563 64.3979 83.3497 64.3188 83.2708 64.2155C83.1919 64.1123 83.1439 63.989 83.1323 63.86C83.1302 63.55 83.2102 63.2449 83.3643 62.9753C83.5111 62.7334 83.7291 62.542 83.9889 62.4267C84.1143 62.357 84.2556 62.3204 84.3994 62.3204C84.5431 62.3204 84.6845 62.357 84.8099 62.4267C84.8992 62.4907 84.974 62.5726 85.0294 62.6671C85.0847 62.7616 85.1194 62.8666 85.1311 62.9753Z" fill="url(#paint2_linear_24_42417)"/>
<path fill-rule="evenodd" clip-rule="evenodd" d="M85.1311 62.9753C85.1182 62.8559 85.0777 62.7411 85.0127 62.6398C84.9477 62.5385 84.8599 62.4534 84.7563 62.3914C84.6309 62.3216 84.4896 62.285 84.3458 62.285C84.2021 62.285 84.0607 62.3216 83.9354 62.3914C83.6755 62.5066 83.4575 62.698 83.3107 62.9399C83.1566 63.2096 83.0766 63.5146 83.0787 63.8246C83.0903 63.9537 83.1383 64.0769 83.2172 64.1801C83.2961 64.2834 83.4027 64.3625 83.5249 64.4085C83.6368 64.4795 83.7669 64.5171 83.8997 64.5171C84.0325 64.5171 84.1625 64.4795 84.2744 64.4085C84.4075 64.356 84.5283 64.2772 84.6296 64.1768C84.7309 64.0764 84.8104 63.9565 84.8634 63.8246C84.9525 63.6863 85.0244 63.5377 85.0775 63.3823C85.1181 63.2505 85.1362 63.1129 85.1311 62.9753Z" fill="url(#paint3_linear_24_42417)"/>
<path fill-rule="evenodd" clip-rule="evenodd" d="M77.1181 63.7892C77.5233 64.3978 78.092 64.882 78.76 65.1871C78.3389 64.84 78.0288 64.3789 77.8677 63.86C77.7666 63.574 77.7007 63.2769 77.6714 62.9752C77.6416 62.3533 77.7419 61.7319 77.9661 61.1503C78.1903 60.5686 78.5335 60.0393 78.9741 59.5956C79.0812 59.4894 79.1705 59.3655 79.2775 59.2771C79.7799 58.6961 80.3846 58.2104 81.0621 57.8438L81.3834 57.7199C81.6158 57.6488 81.855 57.6013 82.0972 57.5784H82.3828C82.8618 57.6656 83.3332 57.7898 83.7926 57.95C83.2989 57.5051 82.6724 57.2317 82.008 57.1714C81.7856 57.1161 81.5586 57.0806 81.3298 57.0652H81.1692C79.9107 57.3269 78.8038 58.0628 78.0818 59.1178C78.0181 59.1911 77.9585 59.2679 77.9034 59.3479C77.4823 59.7987 77.1627 60.3332 76.9658 60.9159C76.7689 61.4986 76.6991 62.1161 76.7612 62.7275C76.7854 62.9271 76.8333 63.1231 76.904 63.3114C76.9591 63.4774 77.0309 63.6374 77.1181 63.7892Z" fill="#205900"/>
</g>
<defs>
<filter id="filter0_f_24_42417" x="53.4184" y="138.776" width="88.0857" height="68.976" filterUnits="userSpaceOnUse" color-interpolation-filters="sRGB">
<feFlood flood-opacity="0" result="BackgroundImageFix"/>
<feBlend mode="normal" in="SourceGraphic" in2="BackgroundImageFix" result="shape"/>
<feGaussianBlur stdDeviation="7" result="effect1_foregroundBlur_24_42417"/>
</filter>
<linearGradient id="paint0_linear_24_42417" x1="71.87" y1="106.225" x2="58.0205" y2="106.225" gradientUnits="userSpaceOnUse">
<stop stop-color="#EFEAEA"/>
<stop offset="0.28" stop-color="#C5B7AF"/>
<stop offset="0.71" stop-color="#ECE2E2"/>
</linearGradient>
<linearGradient id="paint1_linear_24_42417" x1="74.6739" y1="156.316" x2="60.8245" y2="156.122" gradientUnits="userSpaceOnUse">
<stop stop-color="#EFEAEA"/>
<stop offset="0.28" stop-color="#C5B7AF"/>
<stop offset="0.71" stop-color="#ECE2E2"/>
</linearGradient>
<linearGradient id="paint2_linear_24_42417" x1="83.6947" y1="60.5453" x2="80.9251" y2="64.181" gradientUnits="userSpaceOnUse">
<stop stop-color="#F0F0F0"/>
<stop offset="1" stop-color="#BFBFBF"/>
</linearGradient>
<linearGradient id="paint3_linear_24_42417" x1="84.7019" y1="62.3223" x2="83.4441" y2="64.4906" gradientUnits="userSpaceOnUse">
<stop stop-color="#D7D7D7"/>
<stop offset="1" stop-color="#727272"/>
</linearGradient>
<clipPath id="clip0_24_42417">
<rect width="261" height="243" fill="white" transform="matrix(-1 0 0 1 240 0)"/>
</clipPath>
</defs>
</svg>
