<svg width="114" height="112" viewBox="0 0 114 112" fill="none" xmlns="http://www.w3.org/2000/svg">
<path d="M54.9937 70.8582C54.3191 70.8582 53.3273 70.5526 51.7589 69.7626C49.9656 68.8516 49.0776 67.9059 49.1237 66.9487C49.1814 65.6802 50.8132 64.8556 51.7819 64.475C52.0985 64.3881 52.3893 64.2258 52.6296 64.0022C52.5319 63.9331 52.4225 63.8824 52.3067 63.8523C52.2718 63.8436 52.2391 63.8281 52.2102 63.8067C52.1814 63.7853 52.157 63.7585 52.1385 63.7277C52.12 63.6969 52.1078 63.6628 52.1025 63.6273C52.0972 63.5917 52.099 63.5555 52.1077 63.5207C52.1164 63.4859 52.1319 63.4531 52.1533 63.4243C52.1747 63.3954 52.2015 63.371 52.2323 63.3526C52.2631 63.3341 52.2972 63.3219 52.3327 63.3166C52.3683 63.3113 52.4045 63.3131 52.4393 63.3218C52.5546 63.3506 53.1543 63.5178 53.1831 63.9618C53.2119 64.4058 52.8372 64.648 51.9838 64.9824C50.5653 65.5591 49.6773 66.2798 49.6773 66.9718C49.6773 67.6637 50.4499 68.4825 52.0126 69.2783C55.2417 70.9159 55.6049 70.2643 55.9509 69.6358C56.061 69.404 56.2158 69.1963 56.4064 69.0246C57.3809 68.2519 57.8653 67.6061 57.848 67.1159C57.8307 66.6258 57.1503 66.078 56.3603 65.536C55.3397 64.8383 54.1807 64.0541 53.9904 62.6875C53.9806 62.6149 53.9999 62.5413 54.0442 62.4829C54.0886 62.4245 54.1542 62.3861 54.2268 62.3761C54.2621 62.3704 54.2982 62.3719 54.3329 62.3806C54.3676 62.3892 54.4002 62.4047 54.4288 62.4263C54.4573 62.4478 54.4813 62.4749 54.4991 62.5059C54.5169 62.537 54.5282 62.5712 54.5324 62.6068C54.6939 63.76 55.6857 64.4231 56.6659 65.0862C57.5424 65.6629 58.3669 66.2395 58.3958 67.0929C58.3958 67.7906 57.8999 68.5402 56.7466 69.4513C56.6163 69.58 56.509 69.7302 56.4295 69.8952C56.3189 70.1843 56.1215 70.4321 55.8644 70.6045C55.6073 70.7769 55.3032 70.8656 54.9937 70.8582Z" fill="#2E383B"/>
<path d="M96.4299 48.9812L95.8879 48.9409C95.9859 47.5281 96.8681 46.2769 97.6465 45.1755C98.5634 43.8781 99.0477 43.1228 98.4423 42.6096C97.6638 41.9465 96.5279 42.5 95.4323 43.0363C94.6078 43.4399 93.8236 43.8205 93.1259 43.7397L93.195 43.1631C93.7255 43.2323 94.4405 42.8806 95.1959 42.5115C96.3895 41.9349 97.7388 41.266 98.7998 42.1598C99.8608 43.0536 98.9786 44.2068 98.0963 45.4581C97.3755 46.5306 96.5221 47.7184 96.4299 48.9812Z" fill="#2E383B"/>
<path d="M95.167 50.2726L94.625 50.1977C94.7231 49.5288 95.0806 48.4678 97.0353 46.8072C97.4389 46.467 97.9118 46.1267 98.3616 45.7923C100.005 44.5872 101.706 43.3474 101.049 41.8482C100.92 41.5012 100.701 41.1951 100.414 40.9617C100.127 40.7284 99.7826 40.5766 99.4167 40.522C98.9017 40.4866 98.386 40.5797 97.916 40.7931C97.4459 41.0065 97.0363 41.3334 96.7239 41.7444C95.8622 42.7876 94.861 43.7073 93.7486 44.4776L93.4487 44.0163C94.5134 43.2779 95.4718 42.3971 96.2972 41.3985C96.668 40.9145 97.1541 40.5312 97.7111 40.2834C98.2681 40.0356 98.8783 39.9313 99.4859 39.98C99.9447 40.0466 100.378 40.2338 100.74 40.5226C101.103 40.8113 101.382 41.1912 101.55 41.6233C102.386 43.5262 100.397 44.9677 98.6671 46.2363C98.2001 46.5765 97.7618 46.8994 97.3697 47.2281C95.3631 48.9464 95.2132 49.944 95.167 50.2726Z" fill="#2E383B"/>
<path d="M9.98313 45.5157L10.5309 45.4753C10.4329 44.0626 9.54488 42.8114 8.76645 41.71C7.84962 40.4126 7.36527 39.6572 7.97072 39.144C8.75493 38.4809 9.88511 39.0345 10.9807 39.5707C11.811 39.9744 12.5895 40.3607 13.2872 40.2742L13.218 39.7264C12.6875 39.7956 11.9725 39.4439 11.2171 39.0748C10.0235 38.4982 8.67419 37.8293 7.6132 38.7231C6.55222 39.6169 7.43446 40.7701 8.32245 42.0214C9.06053 43.0651 9.89663 44.2529 9.98313 45.5157Z" fill="#2E383B"/>
<path d="M11.2456 46.8072L11.7876 46.7322C11.6896 46.0633 11.3379 45.0024 9.37737 43.3417C8.97373 43.0015 8.50666 42.6613 8.05113 42.3268C6.40776 41.1217 4.70672 39.882 5.36407 38.3828C5.49381 38.0356 5.7141 37.7296 6.00207 37.4964C6.29004 37.2632 6.63518 37.1113 7.00167 37.0565C7.51573 37.0221 8.03031 37.1157 8.49927 37.3291C8.96824 37.5424 9.37694 37.8688 9.68873 38.279C10.5505 39.3221 11.5517 40.2418 12.6641 41.0121L12.9639 40.5509C11.8993 39.8125 10.9409 38.9317 10.1154 37.933C9.74361 37.4503 9.25737 37.0678 8.70063 36.8201C8.1439 36.5725 7.53424 36.4674 6.92673 36.5145C6.46815 36.5817 6.03555 36.7691 5.67295 37.0578C5.31035 37.3465 5.03068 37.726 4.86241 38.1579C4.02631 40.0607 6.01566 41.5023 7.74552 42.7708C8.21258 43.1111 8.65081 43.434 9.04292 43.7626C11.0496 45.4867 11.1995 46.4785 11.2456 46.8072Z" fill="#2E383B"/>
<path d="M55.4092 90.7919C55.4092 87.361 52.9989 83.1862 50.0293 81.4737C48.559 80.626 47.227 80.5396 46.2582 81.0816L50.358 78.6944C51.3325 78.1177 52.6645 78.21 54.1637 79.0692C57.1333 80.799 59.5378 84.9565 59.5378 88.3874C59.5378 90.1172 58.9612 91.2993 57.9694 91.8471L53.985 94.1536C54.8672 93.5769 55.4092 92.4122 55.4092 90.7919Z" fill="#2E373A"/>
<path d="M44.6494 84.576C44.6494 88.0069 47.0597 92.1816 50.0293 93.8942C52.9989 95.6067 55.4092 94.2171 55.4092 90.7919C55.4092 87.3668 52.9989 83.1863 50.0293 81.4737C47.0597 79.7612 44.6494 81.1508 44.6494 84.576Z" fill="#485154"/>
<path d="M45.5433 85.0953C45.6273 86.6516 46.0774 88.1661 46.8569 89.5157C47.6364 90.8653 48.7234 92.0119 50.0294 92.8624C52.5031 94.2924 54.5155 93.1334 54.5155 90.2734C54.4315 88.7171 53.9814 87.2026 53.2019 85.853C52.4224 84.5034 51.3354 83.3568 50.0294 82.5063C47.5499 81.0763 45.5433 82.2353 45.5433 85.0953Z" fill="#3B4447"/>
<path d="M57.5888 82.5116L56.4356 83.192C56.4933 83.2785 56.5567 83.3708 56.6086 83.463L57.7618 82.7826L57.5888 82.5116Z" fill="#151E21"/>
<path d="M53.483 84.9164L53.6617 85.1989L55.0687 84.3744L54.8957 84.0976L53.483 84.9164Z" fill="#151E21"/>
<path d="M58.2923 83.6879L57.139 84.3625C57.1909 84.4548 57.2371 84.5528 57.289 84.6508L58.4422 83.9762L58.2923 83.6879Z" fill="#151E21"/>
<path d="M54.1579 86.0927C54.2098 86.1907 54.2617 86.2887 54.3078 86.3925L55.7321 85.5564C55.6802 85.4584 55.6341 85.3604 55.5764 85.2623L54.1579 86.0927Z" fill="#151E21"/>
<path d="M58.8342 84.9051L57.6809 85.574L57.7962 85.8623L58.9495 85.1934C58.9091 85.1011 58.8745 85.0031 58.8342 84.9051Z" fill="#151E21"/>
<path d="M54.7057 87.3093C54.7461 87.4073 54.7807 87.5111 54.8153 87.6149L56.2511 86.773C56.2107 86.675 56.1761 86.5769 56.1358 86.4731L54.7057 87.3093Z" fill="#151E21"/>
<path d="M59.2322 86.127L58.0789 86.7901C58.0789 86.8881 58.1308 86.9803 58.1539 87.0784L59.3071 86.4153L59.2322 86.127Z" fill="#151E21"/>
<path d="M55.0977 88.532C55.1265 88.6358 55.1496 88.7338 55.1727 88.8319L56.62 87.99C56.62 87.892 56.5681 87.7939 56.545 87.6959L55.0977 88.532Z" fill="#151E21"/>
<path d="M59.4685 87.3092L58.3441 87.9666C58.3441 88.0588 58.3729 88.1568 58.3787 88.2491L59.4974 87.5917C59.4916 87.4995 59.4801 87.4072 59.4685 87.3092Z" fill="#151E21"/>
<path d="M55.3342 89.7138L55.3688 90.0137L56.8276 89.1603L56.793 88.8662L55.3342 89.7138Z" fill="#151E21"/>
<path d="M58.4364 89.1602C58.4364 89.2237 58.4364 89.2813 58.4364 89.3448L59.5377 88.6989C59.5377 88.6124 59.5377 88.5317 59.5377 88.4395L58.4364 89.0853V89.1602Z" fill="#151E21"/>
<path d="M55.3977 91.1207L56.8796 90.2557V89.9905L55.4092 90.8439C55.4092 90.9419 55.4035 91.0399 55.3977 91.1207Z" fill="#151E21"/>
<path d="M58.3672 90.0999C58.3672 90.1749 58.3672 90.2441 58.3268 90.319L59.4051 89.6905C59.4051 89.6156 59.4397 89.5406 59.4513 89.4656L58.3672 90.0999Z" fill="#151E21"/>
<path d="M55.2823 92.1125L56.7873 91.2303C56.7873 91.1553 56.8162 91.0804 56.8277 90.9996L55.3285 91.8703C55.2823 91.9511 55.2823 92.0318 55.2823 92.1125Z" fill="#151E21"/>
<path d="M58.1654 90.9705L58.0962 91.1434L59.1341 90.538C59.1341 90.4803 59.186 90.4227 59.2091 90.3593L58.1654 90.9705Z" fill="#151E21"/>
<path d="M54.9824 92.9658L56.5393 92.0547L56.6085 91.8702L55.0689 92.7697L55.0285 92.8735C55.0111 92.9032 54.9957 92.934 54.9824 92.9658Z" fill="#151E21"/>
<path d="M57.8367 91.657C57.8132 91.7014 57.7862 91.7438 57.756 91.7839L58.7074 91.2073C58.7432 91.1655 58.7759 91.1211 58.8054 91.0746L57.8367 91.6513V91.657Z" fill="#151E21"/>
<path d="M56.2048 92.6945L56.2913 92.5562L54.671 93.496C54.632 93.5542 54.5896 93.61 54.5441 93.6633L56.2048 92.6945Z" fill="#151E21"/>
<path d="M56.8161 81.4103L55.6628 82.0965C55.732 82.1772 55.8012 82.2637 55.8647 82.3502L57.0179 81.6641L56.8161 81.4103Z" fill="#151E21"/>
<path d="M52.6816 83.8147C52.7558 83.8992 52.8251 83.9877 52.8892 84.08L54.2904 83.2554L54.0828 82.9959L52.6816 83.8147Z" fill="#151E21"/>
<path d="M55.9396 80.4417L54.7518 81.1337C54.8267 81.2086 54.9075 81.2836 54.9767 81.3643L56.1645 80.6724L55.9396 80.4417Z" fill="#151E21"/>
<path d="M51.8226 82.8465L52.059 83.0829L53.4429 82.2699L53.2122 82.0392L51.8226 82.8465Z" fill="#151E21"/>
<path d="M55.0113 79.6402L53.8062 80.3379L54.0656 80.534L55.2592 79.8305L55.0113 79.6402Z" fill="#151E21"/>
<path d="M50.877 82.039L51.1364 82.2465L52.5088 81.4393L52.2551 81.2432L50.877 82.039Z" fill="#151E21"/>
<path d="M54.0424 79.0002L52.82 79.7152L53.0449 79.8364L54.2558 79.1271L54.1635 79.0694L54.0424 79.0002Z" fill="#151E21"/>
<path d="M49.9081 81.4046L50.0292 81.4738L50.1387 81.5372L51.4938 80.7415L51.2631 80.6204L49.9081 81.4046Z" fill="#151E21"/>
<path d="M53.0681 78.5675L51.8226 79.2941L52.0475 79.369L53.2872 78.6482L53.0681 78.5675Z" fill="#151E21"/>
<path d="M48.9395 80.9723C49.02 80.996 49.099 81.0249 49.1759 81.0587L50.5079 80.2803L50.2714 80.1996L48.9395 80.9723Z" fill="#151E21"/>
<path d="M52.1511 78.3544L50.848 79.1097C50.9305 79.1038 51.0134 79.1038 51.0959 79.1097L52.3702 78.3601L52.1511 78.3544Z" fill="#151E21"/>
<path d="M48.0168 80.7642C48.0983 80.77 48.1792 80.7816 48.259 80.7988L49.5449 80.0435H49.2912L48.0168 80.7642Z" fill="#151E21"/>
<path d="M51.2747 78.3544L49.8043 79.2078C49.8874 79.1825 49.9722 79.1633 50.058 79.1502L51.4477 78.3314L51.2747 78.3544Z" fill="#151E21"/>
<path d="M47.1403 80.7759H47.3479L48.5011 80.0955C48.4093 80.1124 48.3188 80.1356 48.2301 80.1647L47.1403 80.7759Z" fill="#151E21"/>
<path d="M54.7805 90.4918L55.4033 90.8493C55.4033 90.9416 55.4033 91.0339 55.4033 91.1204L54.7805 90.7571C54.7805 90.6706 54.7805 90.5841 54.7805 90.4918Z" fill="#2E373A"/>
<path d="M52.399 84.2649L52.7104 83.8209L52.9179 84.0804L52.6066 84.5244L52.399 84.2649Z" fill="#2E373A"/>
<path d="M50.7674 82.6851L50.8769 82.0392L51.1076 82.2238L51.0038 82.8696L50.7674 82.6851Z" fill="#2E373A"/>
<path d="M51.5975 83.4054L51.8108 82.8288L52.0357 83.0594L51.8224 83.6072L51.5975 83.4054Z" fill="#2E373A"/>
<path d="M54.5096 88.4395L55.0862 88.5317C55.115 88.6355 55.1381 88.7335 55.1612 88.8373L54.5845 88.7451C54.5615 88.6413 54.5384 88.5432 54.5096 88.4395Z" fill="#2E373A"/>
<path d="M54.7057 89.4941L55.3227 89.7248L55.3573 90.0189L54.7403 89.7882C54.7345 89.6896 54.723 89.5914 54.7057 89.4941Z" fill="#2E373A"/>
<path d="M50.0292 82.1946L49.9081 82.1254V81.4103L50.0292 81.4738L50.1503 81.543V82.2637L50.0292 82.1946Z" fill="#2E373A"/>
<path d="M53.6793 86.2714L54.1579 86.0869L54.3078 86.3868L53.8292 86.577L53.6793 86.2714Z" fill="#2E373A"/>
<path d="M54.1636 87.3553L54.6999 87.3092C54.7403 87.4072 54.7806 87.511 54.8152 87.6148L54.2732 87.661C54.2386 87.5802 54.1982 87.4591 54.1636 87.3553Z" fill="#2E373A"/>
<path d="M53.0797 85.2336L53.4775 84.9106L53.6563 85.199L53.2584 85.5161L53.0797 85.2336Z" fill="#2E373A"/>
<path d="M49.0548 81.7503L48.9453 80.9776C49.0261 81.0004 49.1052 81.0293 49.1817 81.0641L49.2912 81.831L49.0548 81.7503Z" fill="#2E373A"/>
<path d="M45.4797 83.4804L44.9031 82.9038C44.9031 82.8289 44.9492 82.7539 44.978 82.6847L45.5547 83.2613L45.4797 83.4804Z" fill="#2E373A"/>
<path d="M45.7851 82.7594L45.2431 82.0847C45.2777 82.0271 45.3181 81.9694 45.3584 81.9117L45.8947 82.5806C45.8548 82.6381 45.8182 82.6978 45.7851 82.7594Z" fill="#2E373A"/>
<path d="M45.3067 84.3336L44.6897 83.855L44.7243 83.6013L45.3355 84.0799C45.324 84.1606 45.3125 84.2471 45.3067 84.3336Z" fill="#2E373A"/>
<path d="M46.2293 82.189L45.7507 81.4509L45.9006 81.3183L46.3792 82.0621C46.3266 82.1013 46.2766 82.1436 46.2293 82.189Z" fill="#2E373A"/>
<path d="M46.8002 81.814L46.3965 81.0298L46.5753 80.949L46.9789 81.7332L46.8002 81.814Z" fill="#2E373A"/>
<path d="M48.236 81.5606L48.0226 80.7649L48.2475 80.7937L48.4609 81.5952L48.236 81.5606Z" fill="#2E373A"/>
<path d="M47.4747 81.5779L47.1633 80.7764H47.3651L47.6823 81.5779H47.4747Z" fill="#2E373A"/>
<path d="M46.5522 89.4253L46.0737 89.6098L45.918 89.3157L46.3966 89.1254L46.5522 89.4253Z" fill="#2E373A"/>
<path d="M46.0563 88.3989L45.5143 88.445L45.3932 88.1394L45.9352 88.0933C45.964 88.1913 46.0102 88.2951 46.0563 88.3989Z" fill="#2E373A"/>
<path d="M47.1521 90.3938L46.7484 90.711L46.5639 90.4342L46.9675 90.1171L47.1521 90.3938Z" fill="#2E373A"/>
<path d="M47.8324 91.2823L47.521 91.7263L47.3134 91.4726L47.6248 91.0286C47.6882 91.1151 47.7862 91.2016 47.8324 91.2823Z" fill="#2E373A"/>
<path d="M48.5704 92.0658L48.3571 92.6424L48.1322 92.4233L48.3455 91.8467L48.5704 92.0658Z" fill="#2E373A"/>
<path d="M45.664 87.3439L45.0874 87.2516L45.0009 86.946L45.5775 87.0382C45.6006 87.142 45.6294 87.2401 45.664 87.3439Z" fill="#2E373A"/>
<path d="M45.2779 85.0027C45.2779 85.095 45.2779 85.1873 45.2779 85.2795L44.6552 84.922C44.6552 84.824 44.6552 84.7317 44.6552 84.6395L45.2779 85.0027Z" fill="#2E373A"/>
<path d="M54.7058 91.3918L55.3228 91.8705L55.2709 92.1126L54.6597 91.634C54.6712 91.5533 54.7058 91.4726 54.7058 91.3918Z" fill="#2E373A"/>
<path d="M45.4048 86.2944L44.7878 86.0638C44.7878 85.9658 44.7532 85.8677 44.7417 85.7697L45.3529 85.9946L45.4048 86.2944Z" fill="#2E373A"/>
<path d="M49.3489 92.7234L49.2394 93.375L49.0087 93.1905L49.1183 92.5447L49.3489 92.7234Z" fill="#2E373A"/>
<path d="M53.0911 93.6523L53.4889 94.4366L53.3044 94.5L52.9066 93.7158L53.0911 93.6523Z" fill="#2E373A"/>
<path d="M53.6619 93.3466L54.1405 94.0847L53.9848 94.2L53.5062 93.4619L53.6619 93.3466Z" fill="#2E373A"/>
<path d="M54.1289 92.8273L54.6709 93.4962C54.6319 93.5544 54.5895 93.6102 54.5441 93.6634L54.0078 92.9888L54.1289 92.8273Z" fill="#2E373A"/>
<path d="M54.4805 92.1929L55.0572 92.7696L54.9707 92.9771L54.394 92.4005L54.4805 92.1929Z" fill="#2E373A"/>
<path d="M50.9403 93.6L51.0499 94.3727L50.8134 94.2804L50.7097 93.5078L50.9403 93.6Z" fill="#2E373A"/>
<path d="M50.0292 93.1732L50.1503 93.2424V93.9574L50.0292 93.894L49.9081 93.8248V93.104L50.0292 93.1732Z" fill="#2E373A"/>
<path d="M51.713 93.7907L51.9264 94.5922L51.7015 94.5519L51.4882 93.7504L51.713 93.7907Z" fill="#2E373A"/>
<path d="M52.434 93.8075L52.7453 94.6148H52.5377L52.2264 93.8075H52.434Z" fill="#2E373A"/>
<path opacity="0.5" d="M46.1774 85.7981C46.2463 87.056 46.6106 88.2801 47.2408 89.371C47.8709 90.462 48.7491 91.3892 49.8044 92.0774C51.8053 93.2307 53.4256 92.2966 53.4256 89.9843C53.3577 88.7268 52.9946 87.5028 52.3654 86.4119C51.7363 85.3209 50.8589 84.3935 49.8044 83.7049C47.7862 82.5517 46.1774 83.4858 46.1774 85.7981Z" fill="url(#paint0_linear_24_35448)"/>
<path opacity="0.5" d="M46.6732 86.0871C46.7324 87.173 47.0468 88.2297 47.5908 89.1715C48.1348 90.1132 48.8931 90.9135 49.8043 91.5073C51.5341 92.5049 52.9353 91.6918 52.9353 89.6967C52.8752 88.6118 52.5604 87.5562 52.0165 86.6155C51.4725 85.6748 50.7146 84.8755 49.8043 84.2822C48.0744 83.2789 46.6732 84.1208 46.6732 86.0871Z" fill="url(#paint1_linear_24_35448)"/>
<path d="M48.0746 84.4664C47.7786 84.8849 47.6305 85.3901 47.6536 85.9022C47.7047 86.8461 47.9778 87.7648 48.4507 88.5834C48.9236 89.4019 49.583 90.0974 50.3753 90.6132C50.6251 90.7846 50.9096 90.8989 51.2087 90.9477C51.5077 90.9966 51.8138 90.9788 52.1052 90.8957C51.6208 91.4723 50.7732 91.5934 49.7987 91.0341C49.0064 90.5183 48.347 89.8229 47.8741 89.0043C47.4012 88.1857 47.1281 87.2671 47.077 86.3231C47.0828 85.3428 47.4691 84.697 48.0746 84.4664Z" fill="url(#paint2_linear_24_35448)"/>
<path d="M50.3753 90.613C49.583 90.0972 48.9236 89.4018 48.4507 88.5832C47.9778 87.7646 47.7047 86.846 47.6537 85.902C47.6305 85.3899 47.7786 84.8847 48.0746 84.4662C48.366 84.3831 48.6721 84.3653 48.9711 84.4141C49.2701 84.463 49.5547 84.5772 49.8045 84.7487C50.5959 85.2667 51.2546 85.9635 51.7273 86.7828C52.2001 87.6021 52.4737 88.521 52.5261 89.4655C52.5506 89.9759 52.4023 90.4797 52.1052 90.8955C51.8138 90.9786 51.5077 90.9964 51.2087 90.9475C50.9096 90.8987 50.6251 90.7845 50.3753 90.613Z" fill="url(#paint3_linear_24_35448)"/>
<path d="M51.5054 83.5094L50.2253 82.7713C49.9454 82.5884 49.7125 82.3423 49.5452 82.0529C49.378 81.7634 49.281 81.4387 49.2623 81.1049V75.9153C49.2507 75.7967 49.2708 75.6771 49.3204 75.5687C49.37 75.4603 49.4475 75.3671 49.5449 75.2983L48.1033 76.1344C48.0055 76.2027 47.9277 76.296 47.878 76.4044C47.8283 76.5129 47.8086 76.6327 47.8208 76.7514V81.941C47.8395 82.2748 47.9364 82.5995 48.1037 82.889C48.2709 83.1784 48.5039 83.4245 48.7837 83.6074L50.0638 84.3455C50.1619 84.4166 50.2771 84.4604 50.3976 84.4726C50.5181 84.4847 50.6397 84.4648 50.75 84.4147C50.9864 84.2706 51.2286 84.1322 51.4708 83.9938L52.1858 83.5786C52.0762 83.6276 51.9557 83.647 51.8364 83.6348C51.717 83.6227 51.6029 83.5794 51.5054 83.5094Z" fill="url(#paint4_linear_24_35448)"/>
<path d="M54.1867 68.1712L46.6617 72.5016L52.255 75.7307L59.7799 71.4003L54.1867 68.1712Z" fill="#87C037"/>
<path d="M59.7798 71.4003L52.2549 75.7308V77.1781L59.7798 72.8477V71.4003Z" fill="#3A7318"/>
<path d="M46.6618 72.5015L46.6329 83.959L48.1149 89.2351L50.7212 90.7458L52.2262 87.1881L52.2608 75.7306L46.6618 72.5015ZM51.0383 83.7975C51.0383 84.403 50.6001 84.6509 50.0696 84.3453L48.7895 83.6072C48.5096 83.4243 48.2767 83.1782 48.1094 82.8888C47.9422 82.5993 47.8453 82.2746 47.8265 81.9408V76.7512C47.8265 76.14 48.2648 75.8921 48.7953 76.1746L50.0811 76.9184C50.3612 77.1006 50.594 77.3467 50.7604 77.6364C50.9268 77.9261 51.0221 78.2512 51.0383 78.5849V83.7975Z" fill="#548D32"/>
<path d="M52.255 75.7307L52.2204 87.1882L50.7154 90.7459L52.1512 89.9098L53.6562 86.352L53.6908 74.8946L52.255 75.7307Z" fill="#3A7318"/>
<path d="M50.1502 87.2747C50.1502 87.7821 49.7927 87.9897 49.3487 87.736C49.1162 87.584 48.9226 87.3797 48.7834 87.1394C48.6442 86.899 48.5633 86.6294 48.5472 86.3521C48.5472 85.8389 48.9105 85.6313 49.3487 85.8908C49.5838 86.0399 49.7795 86.2436 49.919 86.4845C50.0586 86.7255 50.1379 86.9965 50.1502 87.2747Z" fill="#3B4447"/>
<path d="M55.9223 65.6688C55.2207 65.3136 54.4454 65.1285 53.6591 65.1285C52.8727 65.1285 52.0974 65.3136 51.3959 65.6688C51.1383 65.7849 50.9161 65.9672 50.752 66.1971C50.5879 66.4271 50.4878 66.6964 50.4617 66.9777V71.1467C50.4878 71.428 50.5879 71.6973 50.752 71.9273C50.9161 72.1572 51.1383 72.3395 51.3959 72.4556C52.0974 72.8108 52.8727 72.9959 53.6591 72.9959C54.4454 72.9959 55.2207 72.8108 55.9223 72.4556C56.1799 72.3395 56.402 72.1572 56.5661 71.9273C56.7302 71.6973 56.8304 71.428 56.8565 71.1467V66.9777C56.8304 66.6964 56.7302 66.4271 56.5661 66.1971C56.402 65.9672 56.1799 65.7849 55.9223 65.6688Z" fill="#C8CFD3"/>
<path d="M55.9223 65.6688C57.1678 66.3896 57.1678 67.5601 55.9223 68.2809C55.2207 68.6361 54.4454 68.8211 53.6591 68.8211C52.8727 68.8211 52.0974 68.6361 51.3959 68.2809C50.1504 67.5601 50.1504 66.3896 51.3959 65.6688C52.0974 65.3136 52.8727 65.1285 53.6591 65.1285C54.4454 65.1285 55.2207 65.3136 55.9223 65.6688Z" fill="#EEF5F9"/>
<path d="M13.7655 66.6951C13.7655 63.2642 11.3553 59.0895 8.38567 57.3769C6.91529 56.5293 5.58329 56.4428 4.61456 56.9848L8.71433 54.5976C9.68882 54.021 11.0208 54.1133 12.52 54.9724C15.4896 56.7023 17.8941 60.8597 17.8941 64.2906C17.8941 66.0205 17.3175 67.2083 16.3257 67.7503L12.3413 70.0568C13.2177 69.486 13.7655 68.3154 13.7655 66.6951Z" fill="#2E373A"/>
<path d="M3 60.4787C3 63.9039 5.41029 68.0786 8.37988 69.7912C11.3495 71.5037 13.7598 70.1141 13.7598 66.689C13.7598 63.2638 11.3495 59.0833 8.37988 57.3708C5.41029 55.6582 3 57.0536 3 60.4787Z" fill="#485154"/>
<path d="M3.8938 60.9982C3.97786 62.5544 4.42792 64.0689 5.20742 65.4185C5.98692 66.7681 7.07387 67.9148 8.37991 68.7652C10.8536 70.1953 12.866 69.0363 12.866 66.1762C12.7806 64.6203 12.3299 63.1063 11.5506 61.7569C10.7712 60.4075 9.68499 59.2606 8.37991 58.4091C5.90044 56.9791 3.8938 58.1381 3.8938 60.9982Z" fill="#3B4447"/>
<path d="M15.9622 58.4144L14.809 59.0948L14.9819 59.3658L16.1352 58.6854L15.9622 58.4144Z" fill="#151E21"/>
<path d="M11.834 60.8196C11.8916 60.9119 11.9493 61.0099 12.0127 61.1022L13.4197 60.2776C13.362 60.1854 13.3044 60.0931 13.2409 60.0009L11.834 60.8196Z" fill="#151E21"/>
<path d="M16.6487 59.5906L15.4954 60.2653C15.5473 60.3576 15.5935 60.4556 15.6453 60.5536L16.7986 59.8789C16.7352 59.7809 16.689 59.6887 16.6487 59.5906Z" fill="#151E21"/>
<path d="M12.5085 61.9955C12.5604 62.0935 12.6123 62.1973 12.6584 62.2953L14.0769 61.4592C14.0308 61.3612 13.9846 61.2632 13.927 61.1652L12.5085 61.9955Z" fill="#151E21"/>
<path d="M17.1847 60.8074L16.0315 61.4763L16.1468 61.7646L17.3001 61.0957C17.2597 61.0035 17.2251 60.9055 17.1847 60.8074Z" fill="#151E21"/>
<path d="M13.0563 63.2123C13.0909 63.3103 13.1313 63.4141 13.1659 63.5179L14.5959 62.676C14.5613 62.578 14.5267 62.48 14.4864 62.382L13.0563 63.2123Z" fill="#151E21"/>
<path d="M17.5827 62.0297L16.4295 62.6928C16.4295 62.7909 16.4814 62.8831 16.5045 62.9811L17.6577 62.318L17.5827 62.0297Z" fill="#151E21"/>
<path d="M13.4485 64.4348C13.4774 64.5386 13.5004 64.6366 13.5235 64.7346L14.9708 63.8928C14.9708 63.7948 14.9189 63.6967 14.8901 63.5987L13.4485 64.4348Z" fill="#151E21"/>
<path d="M17.8018 63.2125L16.6774 63.8698C16.6774 63.9621 16.7063 64.0601 16.712 64.1524L17.8307 63.495C17.8422 63.4028 17.8307 63.3105 17.8018 63.2125Z" fill="#151E21"/>
<path d="M13.6849 65.6166L13.7195 65.9165L15.1784 65.0631L15.1438 64.769L13.6849 65.6166Z" fill="#151E21"/>
<path d="M16.787 65.092C16.787 65.1554 16.787 65.2131 16.787 65.2765L17.8883 64.6307C17.8883 64.55 17.8883 64.4635 17.8883 64.3712L16.787 65.017V65.092Z" fill="#151E21"/>
<path d="M13.7655 67.0239L15.2474 66.159V65.8937L13.7655 66.7471C13.7655 66.8221 13.7655 66.9317 13.7655 67.0239Z" fill="#151E21"/>
<path d="M16.7178 66.0027C16.7178 66.0776 16.7178 66.1468 16.6774 66.2218L17.7557 65.5933C17.7557 65.5183 17.7903 65.4434 17.8018 65.3684L16.7178 66.0027Z" fill="#151E21"/>
<path d="M13.6212 68.0153L15.1262 67.133C15.1262 67.0581 15.155 66.9831 15.1666 66.9024L13.6673 67.7731C13.6558 67.8596 13.6385 67.9346 13.6212 68.0153Z" fill="#151E21"/>
<path d="M16.5102 66.8737L16.441 67.0467L17.479 66.4412C17.479 66.3835 17.5308 66.3259 17.5539 66.2625L16.5102 66.8737Z" fill="#151E21"/>
<path d="M13.333 68.8692L14.9187 67.9755L14.9879 67.791L13.4483 68.6847L13.408 68.7885C13.381 68.8135 13.356 68.8405 13.333 68.8692Z" fill="#151E21"/>
<path d="M16.1873 67.5598C16.1638 67.6042 16.1368 67.6466 16.1066 67.6867L17.058 67.11C17.0938 67.0682 17.1266 67.0239 17.156 66.9774L16.1873 67.554V67.5598Z" fill="#151E21"/>
<path d="M14.5554 68.5978L14.6419 68.4594L13.0216 69.3993C12.9825 69.4574 12.9402 69.5133 12.8947 69.5665L14.5554 68.5978Z" fill="#151E21"/>
<path d="M15.1667 57.3132L14.0134 57.9994C14.0826 58.0801 14.1518 58.1666 14.2152 58.2531L15.3685 57.5669L15.1667 57.3132Z" fill="#151E21"/>
<path d="M11.0325 59.7177C11.1074 59.8042 11.1709 59.8907 11.24 59.983L12.6412 59.1584L12.4337 58.9047L11.0325 59.7177Z" fill="#151E21"/>
<path d="M14.2902 56.3505L13.1024 57.0425L13.3272 57.2674L14.5151 56.5754C14.442 56.487 14.3671 56.412 14.2902 56.3505Z" fill="#151E21"/>
<path d="M10.1559 58.7493L10.3924 58.9799L11.7762 58.1669C11.7013 58.0919 11.6263 58.0112 11.5456 57.942L10.1559 58.7493Z" fill="#151E21"/>
<path d="M13.3619 55.543L12.1567 56.2407C12.2432 56.3041 12.3297 56.3675 12.4105 56.4367L13.6041 55.7332L13.3619 55.543Z" fill="#151E21"/>
<path d="M9.22754 57.948L9.48701 58.1498L10.8594 57.3425L10.5999 57.1465L9.22754 57.948Z" fill="#151E21"/>
<path d="M12.3875 54.9086L11.1708 55.6178L11.3957 55.7389L12.6066 55.0297L12.5144 54.972L12.3875 54.9086Z" fill="#151E21"/>
<path d="M8.25867 57.3078L8.37975 57.377L8.48931 57.4404L9.84437 56.6505L9.61371 56.5236L8.25867 57.3078Z" fill="#151E21"/>
<path d="M11.4187 54.4708L10.1732 55.1973L10.398 55.2723L11.632 54.5515L11.4187 54.4708Z" fill="#151E21"/>
<path d="M7.2843 56.875C7.36488 56.8987 7.44385 56.9276 7.52072 56.9615L8.84694 56.1831L8.61052 56.1024L7.2843 56.875Z" fill="#151E21"/>
<path d="M10.5017 54.2631L9.19855 55.0185C9.28109 55.0126 9.36397 55.0126 9.44651 55.0185L10.7208 54.2689L10.5017 54.2631Z" fill="#151E21"/>
<path d="M6.36768 56.6676L6.60985 56.7021L7.89572 55.9468H7.642L6.36768 56.6676Z" fill="#151E21"/>
<path d="M9.62548 54.2747L8.15509 55.1339C8.23723 55.104 8.32226 55.0827 8.4088 55.0704L9.79846 54.2516L9.62548 54.2747Z" fill="#151E21"/>
<path d="M5.49109 56.6792H5.69868L6.85192 55.9988L6.57514 56.068L5.49109 56.6792Z" fill="#151E21"/>
<path d="M13.1313 66.3951L13.7541 66.7526C13.7541 66.8448 13.7541 66.9371 13.7541 67.0236L13.1313 66.6661C13.1313 66.5738 13.1313 66.4873 13.1313 66.3951Z" fill="#2E373A"/>
<path d="M10.7268 60.1675L11.0382 59.7292L11.2458 59.983L10.9344 60.427L10.7268 60.1675Z" fill="#2E373A"/>
<path d="M9.11798 58.5878L9.22754 57.942L9.45819 58.1265L9.34863 58.7724L9.11798 58.5878Z" fill="#2E373A"/>
<path d="M9.94849 59.3257L10.1618 58.7491L10.3867 58.9797L10.1734 59.5564L9.94849 59.3257Z" fill="#2E373A"/>
<path d="M12.8602 64.3427L13.4368 64.435C13.4656 64.5387 13.4887 64.6426 13.5118 64.7406L12.9351 64.6483C12.9121 64.5445 12.889 64.4465 12.8602 64.3427Z" fill="#2E373A"/>
<path d="M13.0681 65.397L13.685 65.6276L13.7196 65.9217L13.1027 65.6911C13.0968 65.5924 13.0853 65.4942 13.0681 65.397Z" fill="#2E373A"/>
<path d="M8.37975 58.0974L8.25867 58.0339V57.3132L8.37975 57.3766L8.50084 57.4516V58.1723L8.37975 58.0974Z" fill="#2E373A"/>
<path d="M12.0356 62.209L12.5142 62.0187C12.5661 62.1167 12.6123 62.2205 12.6642 62.3185L12.1856 62.5088L12.0356 62.209Z" fill="#2E373A"/>
<path d="M12.5142 63.2586L13.0505 63.2125C13.0909 63.3105 13.1312 63.4143 13.1658 63.5181L12.6238 63.5642C12.6122 63.4662 12.5488 63.3624 12.5142 63.2586Z" fill="#2E373A"/>
<path d="M11.459 61.1361L11.8569 60.819C11.9203 60.9112 11.978 61.0035 12.0357 61.1015L11.6378 61.4187L11.459 61.1361Z" fill="#2E373A"/>
<path d="M7.42261 57.6535L7.31305 56.8809C7.39394 56.9036 7.47298 56.9325 7.54947 56.9673L7.65903 57.7342L7.42261 57.6535Z" fill="#2E373A"/>
<path d="M3.82455 59.3837L3.24792 58.8071C3.24792 58.7321 3.29406 58.6629 3.32289 58.588L3.89951 59.1646L3.82455 59.3837Z" fill="#2E373A"/>
<path d="M4.1359 58.6626L3.59387 57.9937C3.62893 57.932 3.66744 57.8723 3.7092 57.8149L4.24546 58.4896C4.20555 58.545 4.16897 58.6028 4.1359 58.6626Z" fill="#2E373A"/>
<path d="M3.65752 60.2369L3.04053 59.7583L3.07512 59.5046L3.68634 59.9832C3.67481 60.0639 3.66328 60.1504 3.65752 60.2369Z" fill="#2E373A"/>
<path d="M4.58005 58.0922L4.10144 57.3542L4.25137 57.2216L4.72996 57.9654C4.67741 58.0046 4.62735 58.0469 4.58005 58.0922Z" fill="#2E373A"/>
<path d="M5.15077 57.694L4.74713 56.9098L4.9259 56.8348L5.32952 57.6133L5.15077 57.694Z" fill="#2E373A"/>
<path d="M6.58658 57.4692L6.37323 56.6677L6.59812 56.6965L6.81147 57.498L6.58658 57.4692Z" fill="#2E373A"/>
<path d="M5.82554 57.4807L5.51416 56.6792H5.71598L6.03312 57.4807H5.82554Z" fill="#2E373A"/>
<path d="M4.90284 65.328L4.42424 65.5126L4.26855 65.2185L4.74714 65.0282L4.90284 65.328Z" fill="#2E373A"/>
<path d="M4.4011 64.3021L3.85908 64.3482L3.73798 64.0426L4.27425 63.9965C4.31461 64.0945 4.36074 64.1983 4.4011 64.3021Z" fill="#2E373A"/>
<path d="M5.50265 66.2971L5.09901 66.62L4.91449 66.3375L5.31813 66.0203C5.37579 66.1126 5.43923 66.2048 5.50265 66.2971Z" fill="#2E373A"/>
<path d="M6.18288 67.1851L5.8715 67.629C5.80801 67.5553 5.74835 67.4783 5.69275 67.3984L6.00413 66.9544C6.05973 67.0343 6.11939 67.1113 6.18288 67.1851Z" fill="#2E373A"/>
<path d="M6.92103 67.9755L6.70768 68.5521L6.48279 68.333L6.69614 67.7564L6.92103 67.9755Z" fill="#2E373A"/>
<path d="M4.01486 63.2471L3.43824 63.1549L3.35175 62.8492L3.92837 62.9415C3.96296 63.0453 3.96296 63.1433 4.01486 63.2471Z" fill="#2E373A"/>
<path d="M3.6285 60.9055C3.6285 60.9978 3.6285 61.09 3.6285 61.1823L3.00574 60.8248C3.00574 60.7268 3.00574 60.6345 3.00574 60.5422L3.6285 60.9055Z" fill="#2E373A"/>
<path d="M13.0507 67.2947L13.6676 67.7733C13.6676 67.8598 13.6388 67.9405 13.6157 68.0155L13.0045 67.5368C13.0218 67.4561 13.0391 67.3985 13.0507 67.2947Z" fill="#2E373A"/>
<path d="M3.75566 62.2087L3.13867 61.9781C3.13867 61.8801 3.10406 61.782 3.09253 61.684L3.70375 61.9147L3.75566 62.2087Z" fill="#2E373A"/>
<path d="M7.69952 68.6324L7.58996 69.2782L7.35931 69.0937L7.46886 68.4479L7.69952 68.6324Z" fill="#2E373A"/>
<path d="M11.4592 69.5551L11.8571 70.3393L11.6725 70.4027L11.2747 69.6186L11.4592 69.5551Z" fill="#2E373A"/>
<path d="M12.0357 69.226L12.5143 69.964L12.3587 70.0793L11.8801 69.3413L12.0357 69.226Z" fill="#2E373A"/>
<path d="M12.4797 68.7306L13.0217 69.4052C12.9813 69.4571 12.941 69.5148 12.8948 69.5667L12.3586 68.892L12.4797 68.7306Z" fill="#2E373A"/>
<path d="M12.8316 68.0847L13.4082 68.6613L13.3217 68.8689L12.7451 68.2922L12.8316 68.0847Z" fill="#2E373A"/>
<path d="M9.29083 69.5033L9.40038 70.2759L9.16397 70.1837L9.06018 69.411L9.29083 69.5033Z" fill="#2E373A"/>
<path d="M8.37975 69.0765L8.50084 69.1456V69.8607L8.37975 69.7972L8.25867 69.728V69.0073L8.37975 69.0765Z" fill="#2E373A"/>
<path d="M10.0638 69.7053L10.2772 70.5068L10.0523 70.4664L9.83893 69.6707L10.0638 69.7053Z" fill="#2E373A"/>
<path d="M10.7843 69.7052L11.0957 70.5125H10.8881L10.5767 69.7052H10.7843Z" fill="#2E373A"/>
<path opacity="0.5" d="M4.53949 61.702C4.60754 62.958 4.97027 64.1804 5.59836 65.2703C6.22644 66.3602 7.10224 67.2869 8.1549 67.9756C10.1558 69.1288 11.7761 68.1947 11.7761 65.8825C11.7083 64.6249 11.3451 63.401 10.7159 62.31C10.0868 61.219 9.20939 60.2916 8.1549 59.6031C6.15402 58.4556 4.53949 59.3897 4.53949 61.702Z" fill="url(#paint5_linear_24_35448)"/>
<path opacity="0.5" d="M5.02405 61.9897C5.08326 63.0757 5.39762 64.1324 5.94163 65.0741C6.48564 66.0159 7.24395 66.8161 8.1551 67.4099C9.88496 68.4075 11.2804 67.6002 11.2804 65.6051C11.2218 64.5197 10.9083 63.4633 10.3654 62.5216C9.82238 61.5799 9.06517 60.7794 8.1551 60.1849C6.42523 59.1873 5.02405 59.9946 5.02405 61.9897Z" fill="url(#paint6_linear_24_35448)"/>
<path d="M6.42516 60.3696C6.1292 60.7882 5.9811 61.2933 6.00423 61.8054C6.05483 62.7495 6.3277 63.6683 6.80066 64.487C7.27362 65.3056 7.93328 66.001 8.72588 66.5164C8.97497 66.6894 9.25955 66.8045 9.55884 66.8534C9.85813 66.9023 10.1646 66.8837 10.4557 66.7989C9.97139 67.4044 9.12375 67.4967 8.14926 66.9373C7.35666 66.4219 6.697 65.7266 6.22404 64.9079C5.75108 64.0893 5.47821 63.1704 5.42761 62.2263C5.43338 61.2461 5.8197 60.6003 6.42516 60.3696Z" fill="url(#paint7_linear_24_35448)"/>
<path d="M8.72589 66.5165C7.93329 66.0011 7.27363 65.3057 6.80067 64.487C6.32771 63.6684 6.05484 62.7496 6.00424 61.8055C5.98111 61.2934 6.12921 60.7882 6.42517 60.3697C6.71666 60.2878 7.02256 60.2706 7.32138 60.3194C7.62021 60.3683 7.90474 60.4818 8.15503 60.6522C8.94648 61.1703 9.60513 61.867 10.0779 62.6863C10.5506 63.5056 10.8243 64.4246 10.8767 65.369C10.9012 65.8795 10.7529 66.3833 10.4558 66.799C10.1646 66.8838 9.85814 66.9024 9.55885 66.8535C9.25956 66.8046 8.97498 66.6895 8.72589 66.5165Z" fill="url(#paint8_linear_24_35448)"/>
<path d="M9.85616 59.4127L8.57606 58.6746C8.29621 58.4917 8.06325 58.2456 7.89599 57.9561C7.72872 57.6667 7.63182 57.342 7.61309 57.0082V51.8186C7.60208 51.7 7.62239 51.5806 7.67197 51.4723C7.72156 51.3641 7.79868 51.2707 7.89565 51.2016L6.4541 52.0377C6.3567 52.1064 6.27923 52.1997 6.2296 52.3081C6.17996 52.4165 6.15993 52.536 6.17154 52.6547V57.8443C6.18917 58.1777 6.285 58.5022 6.45128 58.7917C6.61757 59.0812 6.84964 59.3275 7.12874 59.5107L8.41461 60.2488C8.5127 60.3199 8.62785 60.3637 8.74837 60.3759C8.86889 60.388 8.99048 60.368 9.10079 60.318L9.82156 59.897L10.5366 59.4819C10.427 59.5308 10.3065 59.5502 10.1871 59.5381C10.0677 59.5259 9.95362 59.4827 9.85616 59.4127Z" fill="url(#paint9_linear_24_35448)"/>
<path d="M12.5373 44.074L5.00659 48.4045L10.6056 51.6335L18.1305 47.3031L12.5373 44.074Z" fill="#87C037"/>
<path d="M18.1306 47.3036L10.6057 51.634V53.0813L18.1306 48.7509V47.3036Z" fill="#3A7318"/>
<path d="M5.01238 48.4044L4.97778 59.8618L6.45393 65.1437L9.06602 66.6487L10.571 63.0909L10.6056 51.6334L5.01238 48.4044ZM9.38893 59.7004C9.38893 60.3058 8.9507 60.5538 8.42021 60.277L7.13434 59.5389C6.85524 59.3557 6.62317 59.1094 6.45689 58.8199C6.2906 58.5304 6.19477 58.2059 6.17715 57.8725V52.6829C6.17715 52.0717 6.61537 51.8237 7.14587 52.1063L8.43174 52.8501C8.7118 53.0323 8.94461 53.2783 9.11102 53.568C9.27743 53.8578 9.37268 54.1828 9.38893 54.5165V59.7004Z" fill="#548D32"/>
<path d="M10.6058 51.6335L10.5712 63.091L9.06622 66.6487L10.5078 65.8126L12.007 62.2549L12.0416 50.7974L10.6058 51.6335Z" fill="#3A7318"/>
<path d="M8.50083 63.1774C8.50083 63.6849 8.14334 63.8925 7.69934 63.6388C7.46683 63.4868 7.2732 63.2825 7.134 63.0421C6.9948 62.8018 6.91391 62.5321 6.89783 62.2548C6.89783 61.7417 7.26111 61.5341 7.69934 61.7936C7.93444 61.9427 8.13007 62.1464 8.26961 62.3873C8.40915 62.6282 8.48846 62.8993 8.50083 63.1774Z" fill="#3B4447"/>
<path d="M14.2729 41.5716C13.5713 41.2164 12.796 41.0314 12.0097 41.0314C11.2233 41.0314 10.448 41.2164 9.74644 41.5716C9.48889 41.6877 9.26674 41.87 9.10263 42.0999C8.93853 42.3299 8.83836 42.5992 8.81232 42.8805V47.0495C8.83477 47.331 8.93144 47.6015 9.0925 47.8335C9.25355 48.0654 9.47323 48.2506 9.72914 48.37C10.4307 48.7251 11.206 48.9102 11.9924 48.9102C12.7787 48.9102 13.554 48.7251 14.2556 48.37C14.5132 48.2539 14.7353 48.0716 14.8994 47.8416C15.0635 47.6117 15.1637 47.3423 15.1897 47.061V42.8921C15.1673 42.6106 15.0706 42.34 14.9096 42.1081C14.7485 41.8761 14.5288 41.691 14.2729 41.5716Z" fill="#C8CFD3"/>
<path d="M14.2729 41.5716C15.5184 42.2924 15.5184 43.4629 14.2729 44.1837C13.5713 44.5389 12.796 44.7239 12.0097 44.7239C11.2233 44.7239 10.448 44.5389 9.74644 44.1837C8.50094 43.4629 8.50094 42.2924 9.74644 41.5716C10.448 41.2164 11.2233 41.0314 12.0097 41.0314C12.796 41.0314 13.5713 41.2164 14.2729 41.5716Z" fill="#EEF5F9"/>
<path d="M98.5749 58.4666L97.2948 57.7228C97.0154 57.5408 96.7827 57.2957 96.6154 57.0072C96.4481 56.7188 96.351 56.395 96.3318 56.0621V50.8725C96.3196 50.7538 96.3394 50.6341 96.3891 50.5256C96.4387 50.4171 96.5165 50.3238 96.6144 50.2556L95.1728 51.0859C95.0762 51.1567 94.9995 51.2512 94.95 51.3603C94.9006 51.4693 94.88 51.5893 94.8903 51.7087V56.8982C94.9094 57.2311 95.0066 57.5549 95.1738 57.8433C95.3411 58.1318 95.5738 58.3769 95.8532 58.5589L97.1334 59.3027C97.232 59.3729 97.3474 59.4157 97.4679 59.4268C97.5884 59.438 97.7097 59.4171 97.8195 59.3662L98.5403 58.951L99.2553 58.5301C99.1465 58.581 99.0261 58.602 98.9065 58.5909C98.7869 58.5797 98.6724 58.5368 98.5749 58.4666Z" fill="url(#paint10_linear_24_35448)"/>
<path d="M93.7313 47.4537L93.6967 58.9111L95.1786 64.193L97.7849 65.698L99.2899 62.1402L99.3245 50.6828L93.7313 47.4537ZM98.1078 58.7497C98.1078 59.3609 97.6696 59.6088 97.1391 59.3263L95.859 58.5825C95.5796 58.4005 95.3469 58.1553 95.1796 57.8669C95.0123 57.5784 94.9152 57.2547 94.896 56.9218V51.7322C94.896 51.121 95.3343 50.873 95.8648 51.1556L97.1506 51.8936C97.4326 52.0753 97.6678 52.3208 97.8371 52.6104C98.0064 52.8999 98.1051 53.2253 98.1251 53.5601L98.1078 58.7497Z" fill="#548D32"/>
<path d="M99.3246 50.6824L99.29 62.1398L97.785 65.6976L99.2266 64.8672L100.726 61.3037L100.76 49.8463L99.3246 50.6824Z" fill="#3A7318"/>
<path d="M97.8657 66.245C97.8657 62.8141 95.4612 58.6452 92.4858 56.9326C91.0155 56.0792 89.6834 55.9927 88.7147 56.5347L92.8145 54.1475C93.789 53.5709 95.121 53.6689 96.6202 54.5281C99.5898 56.2579 102 60.4096 102 63.8405C102 65.5704 101.423 66.7582 100.426 67.3002L96.4415 69.6067C97.3237 69.0532 97.8657 67.8884 97.8657 66.245Z" fill="#2E373A"/>
<path d="M87.1117 60.0526C87.1117 63.4835 89.5162 67.6525 92.4858 69.3708C95.4554 71.0891 97.8657 69.6937 97.8657 66.2628C97.8657 62.8319 95.4612 58.6629 92.4858 56.9504C89.5104 55.2378 87.1117 56.6217 87.1117 60.0526Z" fill="#485154"/>
<path d="M88.0055 60.5709C88.0898 62.1265 88.5394 63.6403 89.3178 64.9897C90.0962 66.3391 91.1815 67.4862 92.4858 68.338C94.9653 69.768 96.9719 68.609 96.9719 65.749C96.8879 64.1927 96.4378 62.6782 95.6583 61.3286C94.8788 59.979 93.7919 58.8324 92.4858 57.9819C90.0121 56.5519 88.0055 57.7109 88.0055 60.5709Z" fill="#3B4447"/>
<path d="M100.074 57.9881L98.9209 58.6685C98.9843 58.755 99.042 58.8473 99.0996 58.9395L100.253 58.2591C100.189 58.1726 100.132 58.0746 100.074 57.9881Z" fill="#151E21"/>
<path d="M95.9397 60.3927C96.0031 60.4849 96.0608 60.5772 96.1184 60.6752L97.5312 59.8449L97.3524 59.5681L95.9397 60.3927Z" fill="#151E21"/>
<path d="M100.749 59.1583L99.5956 59.833C99.6417 59.931 99.6936 60.029 99.7397 60.1213L100.893 59.4524C100.835 59.3544 100.801 59.2564 100.749 59.1583Z" fill="#151E21"/>
<path d="M96.6201 61.5634C96.6662 61.6672 96.7181 61.7652 96.7643 61.8632L98.1885 61.0329C98.1424 60.9349 98.0905 60.8369 98.0386 60.7388L96.6201 61.5634Z" fill="#151E21"/>
<path d="M101.297 60.3807L100.143 61.0438L100.253 61.3379L101.406 60.669L101.297 60.3807Z" fill="#151E21"/>
<path d="M97.1622 62.7858C97.2026 62.8838 97.2372 62.9876 97.2776 63.0856L98.7076 62.2495C98.673 62.1457 98.6326 62.0477 98.5922 61.9496L97.1622 62.7858Z" fill="#151E21"/>
<path d="M101.689 61.632L100.535 62.2951C100.535 62.3873 100.587 62.4854 100.61 62.5776L101.764 61.9145C101.744 61.8189 101.719 61.7246 101.689 61.632Z" fill="#151E21"/>
<path d="M97.5599 64.0078C97.5599 64.1058 97.6118 64.2096 97.6349 64.3077L99.0765 63.46C99.0765 63.362 99.0303 63.264 99.0015 63.166L97.5599 64.0078Z" fill="#151E21"/>
<path d="M101.925 62.7857L100.801 63.4373C100.801 63.5353 100.801 63.6276 100.841 63.7256L101.96 63.0682L101.925 62.7857Z" fill="#151E21"/>
<path d="M97.7966 65.1903C97.7966 65.2884 97.7966 65.3864 97.7966 65.4902L99.2613 64.631C99.2613 64.533 99.2613 64.4407 99.2209 64.3427L97.7966 65.1903Z" fill="#151E21"/>
<path d="M100.893 64.6305V64.8208L101.994 64.175C101.994 64.0885 101.994 64.002 101.994 63.9155L100.887 64.5613L100.893 64.6305Z" fill="#151E21"/>
<path d="M97.8601 66.5969L99.3363 65.7319C99.3363 65.6685 99.3363 65.6051 99.3363 65.5417V65.4609L97.8601 66.3201C97.8659 66.4124 97.8659 66.5046 97.8601 66.5969Z" fill="#151E21"/>
<path d="M100.835 65.5707C100.835 65.6456 100.835 65.7206 100.795 65.7955L101.873 65.1613C101.873 65.0921 101.902 65.0171 101.914 64.9421L100.835 65.5707Z" fill="#151E21"/>
<path d="M97.7273 67.5885L99.238 66.7063L99.2726 66.4756L97.7792 67.3464L97.7273 67.5885Z" fill="#151E21"/>
<path d="M100.616 66.4413C100.616 66.499 100.576 66.5624 100.547 66.6201L101.585 66.0434C101.614 65.98 101.637 65.9223 101.666 65.8647L100.616 66.4413Z" fill="#151E21"/>
<path d="M97.4388 68.4423L98.9957 67.5312L99.0649 67.3467L97.5311 68.2404C97.5134 68.2739 97.4979 68.3086 97.485 68.3442L97.4388 68.4423Z" fill="#151E21"/>
<path d="M100.293 67.1333L100.218 67.2544L101.164 66.6778L101.268 66.5452L100.293 67.1218V67.1333Z" fill="#151E21"/>
<path d="M98.6615 68.1657L98.748 68.0331L97.1335 68.973C97.0925 69.0312 97.0482 69.087 97.0009 69.1402L98.6615 68.1657Z" fill="#151E21"/>
<path d="M99.2726 56.8868L98.1194 57.5673L98.327 57.8267L99.4802 57.1406C99.411 57.0541 99.3418 56.9676 99.2726 56.8868Z" fill="#151E21"/>
<path d="M95.1442 59.2854L95.3517 59.5507L96.7472 58.7319L96.5453 58.4724L95.1442 59.2854Z" fill="#151E21"/>
<path d="M98.3961 55.9182L97.2083 56.6102L97.4389 56.835L98.5921 56.1431L98.3961 55.9182Z" fill="#151E21"/>
<path d="M94.2676 58.3225L94.4982 58.559L95.8879 57.7459L95.6573 57.5153L94.2676 58.3225Z" fill="#151E21"/>
<path d="M97.4679 55.1102L96.2686 55.8079L96.5223 56.004L97.7159 55.3063L97.4679 55.1102Z" fill="#151E21"/>
<path d="M93.3392 57.5152C93.4315 57.5787 93.518 57.6479 93.6045 57.7171L94.9769 56.9156L94.7174 56.7137L93.3392 57.5152Z" fill="#151E21"/>
<path d="M96.4991 54.4767L95.2825 55.186L95.5074 55.3129L96.7183 54.6036L96.6202 54.5459L96.4991 54.4767Z" fill="#151E21"/>
<path d="M92.3704 56.8808L92.4915 56.95L92.5953 57.0134L93.9561 56.2177L93.7196 56.0908L92.3704 56.8808Z" fill="#151E21"/>
<path d="M95.5303 54.044L94.2791 54.7648L94.5097 54.8455L95.7437 54.119L95.5303 54.044Z" fill="#151E21"/>
<path d="M91.396 56.4427L91.6267 56.5234L92.9587 55.745L92.7222 55.67L91.396 56.4427Z" fill="#151E21"/>
<path d="M94.6078 53.8304L93.3392 54.5858H93.5872L94.8615 53.8419L94.6078 53.8304Z" fill="#151E21"/>
<path d="M90.4561 56.2351L90.704 56.2697L91.9899 55.5201C91.9035 55.5144 91.8168 55.5144 91.7304 55.5201L90.4561 56.2351Z" fill="#151E21"/>
<path d="M93.7311 53.8479L92.2607 54.7128L92.5145 54.6494L93.9041 53.8364L93.7311 53.8479Z" fill="#151E21"/>
<path d="M89.597 56.2524H89.8046L90.9579 55.572C90.8661 55.5889 90.7755 55.6121 90.6869 55.6412L89.597 56.2524Z" fill="#151E21"/>
<path d="M97.2428 65.9628L97.8656 66.326C97.8656 66.4183 97.8656 66.5048 97.8656 66.597L97.2371 66.2338C97.2371 66.1473 97.2428 66.055 97.2428 65.9628Z" fill="#2E373A"/>
<path d="M94.8384 59.7414L95.1498 59.2974L95.3516 59.5568L95.0402 60.0008L94.8384 59.7414Z" fill="#2E373A"/>
<path d="M93.2239 58.1726L93.3334 57.5268L93.5699 57.7055L93.4603 58.3571L93.2239 58.1726Z" fill="#2E373A"/>
<path d="M94.0602 58.8819L94.2735 58.3053L94.4926 58.5302L94.2793 59.1068L94.0602 58.8819Z" fill="#2E373A"/>
<path d="M96.9718 63.9385L97.5484 64.0307C97.5773 64.1288 97.6003 64.2326 97.6292 64.3363L97.0525 64.2383C97.0237 64.1172 96.9949 64.0192 96.9718 63.9385Z" fill="#2E373A"/>
<path d="M97.1797 64.9711L97.7909 65.2018C97.8081 65.2971 97.8197 65.3934 97.8255 65.4901L97.2143 65.2594L97.1797 64.9711Z" fill="#2E373A"/>
<path d="M92.4857 57.6651L92.3704 57.6016V56.8809L92.4857 56.9501L92.6068 57.0192V57.74L92.4857 57.6651Z" fill="#2E373A"/>
<path d="M96.1357 61.7475L96.6143 61.5629C96.6662 61.661 96.7181 61.759 96.7643 61.8628L96.2857 62.0473C96.2222 61.9493 96.1876 61.8455 96.1357 61.7475Z" fill="#2E373A"/>
<path d="M96.6201 62.832L97.1621 62.7802C97.2025 62.8839 97.2371 62.9877 97.2717 63.0858L96.7354 63.1377C96.6951 63.0339 96.6605 62.9301 96.6201 62.832Z" fill="#2E373A"/>
<path d="M95.5361 60.7096L95.9398 60.3867L96.1185 60.6692L95.7149 60.9921C95.6457 60.8941 95.5996 60.8018 95.5361 60.7096Z" fill="#2E373A"/>
<path d="M91.517 57.2212L91.4075 56.4485L91.6439 56.535L91.7477 57.3077L91.517 57.2212Z" fill="#2E373A"/>
<path d="M87.9306 58.9567L87.354 58.38L87.429 58.1667L88.0056 58.7433C87.9768 58.8067 87.9537 58.8817 87.9306 58.9567Z" fill="#2E373A"/>
<path d="M88.2419 58.2358L87.6998 57.5612C87.7402 57.5035 87.7748 57.4401 87.8152 57.3882L88.3572 58.057C88.3154 58.1144 88.2769 58.1741 88.2419 58.2358Z" fill="#2E373A"/>
<path d="M87.7633 59.8103L87.1521 59.326C87.1521 59.2395 87.1521 59.1588 87.1809 59.0723L87.7979 59.5566L87.7633 59.8103Z" fill="#2E373A"/>
<path d="M88.6915 57.665L88.2129 56.9212L88.3628 56.7943L88.8357 57.5324C88.7849 57.5736 88.7367 57.6179 88.6915 57.665Z" fill="#2E373A"/>
<path d="M89.2624 57.267L88.8588 56.4828L89.0375 56.402L89.4354 57.1863L89.2624 57.267Z" fill="#2E373A"/>
<path d="M90.6982 57.019L90.4849 56.2175L90.704 56.2521L90.9173 57.0536L90.6982 57.019Z" fill="#2E373A"/>
<path d="M89.9371 57.0542L89.6257 56.2469H89.8275L90.1389 57.0542H89.9371Z" fill="#2E373A"/>
<path d="M89.0147 64.896L88.5361 65.0862C88.4784 64.9882 88.4265 64.8844 88.3746 64.7864L88.8532 64.6019C88.9051 64.6999 88.957 64.7979 89.0147 64.896Z" fill="#2E373A"/>
<path d="M88.5128 63.8693L87.9707 63.9212C87.9246 63.8174 87.8842 63.7136 87.8439 63.6156L88.3859 63.5637C88.4263 63.6675 88.4666 63.7713 88.5128 63.8693Z" fill="#2E373A"/>
<path d="M89.6085 65.8706L89.2106 66.1877L89.0261 65.9109L89.424 65.588L89.6085 65.8706Z" fill="#2E373A"/>
<path d="M90.2889 66.7588L89.9775 67.2028L89.7699 66.9491L90.0813 66.5051L90.2889 66.7588Z" fill="#2E373A"/>
<path d="M91.0328 67.5428L90.8195 68.1194L90.6003 67.9003L90.8137 67.3237L91.0328 67.5428Z" fill="#2E373A"/>
<path d="M88.1495 62.8203L87.5728 62.728L87.4863 62.4224L88.0629 62.5147L88.1495 62.8203Z" fill="#2E373A"/>
<path d="M87.7345 60.479C87.7345 60.5712 87.7345 60.6635 87.7345 60.7615L87.1117 60.3982C87.1117 60.306 87.1117 60.2137 87.1117 60.1215L87.7345 60.479Z" fill="#2E373A"/>
<path d="M97.162 66.8683L97.7732 67.347C97.7732 67.4277 97.7444 67.5084 97.7271 67.5891L97.1101 67.1105L97.162 66.8683Z" fill="#2E373A"/>
<path d="M87.8614 61.7707L87.2502 61.54L87.1982 61.2402L87.8152 61.4708C87.8268 61.5688 87.8441 61.6669 87.8614 61.7707Z" fill="#2E373A"/>
<path d="M91.8112 68.1999L91.7016 68.8457L91.4652 68.6669L91.5748 68.0211L91.8112 68.1999Z" fill="#2E373A"/>
<path d="M95.5476 69.1284L95.9512 69.9126L95.7667 69.9818L95.363 69.1975C95.4258 69.178 95.4874 69.1549 95.5476 69.1284Z" fill="#2E373A"/>
<path d="M96.1244 68.7936L96.5972 69.5317L96.4415 69.647L95.9629 68.909L96.1244 68.7936Z" fill="#2E373A"/>
<path d="M96.5914 68.3033L97.1276 68.9722C97.0905 69.0284 97.0501 69.0823 97.0065 69.1337L96.4645 68.4648C96.5106 68.4129 96.551 68.3552 96.5914 68.3033Z" fill="#2E373A"/>
<path d="M96.9432 67.6519L97.5198 68.2285C97.497 68.2982 97.468 68.3658 97.4333 68.4304L96.8567 67.8537C96.8888 67.7879 96.9177 67.7206 96.9432 67.6519Z" fill="#2E373A"/>
<path d="M93.4027 69.0765L93.5064 69.8434C93.4277 69.8197 93.3507 69.7908 93.2758 69.7569L93.1663 68.9843L93.4027 69.0765Z" fill="#2E373A"/>
<path d="M92.4857 68.6495L92.6068 68.713V69.4337L92.4857 69.3703L92.3704 69.2954V68.5515L92.4857 68.6495Z" fill="#2E373A"/>
<path d="M94.1695 69.2663L94.3828 70.0678L94.1579 70.0274L93.9446 69.226L94.1695 69.2663Z" fill="#2E373A"/>
<path d="M94.896 69.2837L95.2073 70.0852H94.9998L94.6826 69.278L94.896 69.2837Z" fill="#2E373A"/>
<path opacity="0.5" d="M88.6399 61.2747C88.7077 62.5323 89.0709 63.7562 89.7001 64.8472C90.3292 65.9381 91.2066 66.8655 92.2611 67.5541C94.262 68.7073 95.888 67.7675 95.888 65.461C95.8196 64.2029 95.4555 62.9787 94.8253 61.8876C94.1952 60.7966 93.3166 59.8695 92.2611 59.1816C90.2602 58.0226 88.6399 58.9625 88.6399 61.2747Z" fill="url(#paint11_linear_24_35448)"/>
<path opacity="0.5" d="M89.1357 61.5576C89.1943 62.6431 89.5078 63.6994 90.0508 64.6412C90.5937 65.5829 91.3509 66.3834 92.261 66.9778C93.9909 67.9754 95.3921 67.1681 95.3921 65.173C95.3329 64.0871 95.0185 63.0304 94.4745 62.0886C93.9305 61.1469 93.1722 60.3466 92.261 59.7528C90.5312 58.7495 89.1357 59.5625 89.1357 61.5576Z" fill="url(#paint12_linear_24_35448)"/>
<path d="M90.531 59.9429C90.2351 60.359 90.0887 60.863 90.1158 61.3729C90.1669 62.3177 90.4399 63.2371 90.9128 64.0566C91.3857 64.8761 92.0451 65.5726 92.8375 66.0897C93.0874 66.2608 93.372 66.3748 93.6709 66.4236C93.9699 66.4725 94.2759 66.4549 94.5673 66.3722C94.0887 66.9488 93.2353 67.0699 92.2609 66.5106C91.4694 65.9925 90.8107 65.2958 90.338 64.4765C89.8652 63.6572 89.5916 62.7383 89.5392 61.7938C89.5392 60.8193 89.9255 60.1678 90.531 59.9429Z" fill="url(#paint13_linear_24_35448)"/>
<path d="M92.8375 66.0897C92.0451 65.5727 91.3857 64.8762 90.9129 64.0566C90.44 63.2371 90.1669 62.3177 90.1159 61.3729C90.0888 60.863 90.2351 60.359 90.531 59.9429C90.8222 59.8582 91.1286 59.8396 91.4279 59.8884C91.7272 59.9373 92.0118 60.0525 92.2609 60.2254C93.0535 60.7409 93.7132 61.4362 94.1861 62.2549C94.6591 63.0735 94.9319 63.9923 94.9825 64.9364C95.0107 65.4491 94.8621 65.9559 94.5616 66.3722C94.2711 66.454 93.9661 66.4712 93.6682 66.4223C93.3703 66.3735 93.0868 66.26 92.8375 66.0897Z" fill="url(#paint14_linear_24_35448)"/>
<path d="M95.1671 46.6116L87.6422 50.942L93.2354 54.1711L100.76 49.8407L95.1671 46.6116Z" fill="#87C037"/>
<path d="M87.6422 52.3893V50.942L93.2354 54.171V55.6184L87.6422 52.3893Z" fill="#548D32"/>
<path d="M100.76 49.8403L93.2354 54.1707V55.618L100.76 51.2876V49.8403Z" fill="#3A7318"/>
<path d="M95.9569 44.7894C95.2565 44.4338 94.4821 44.2485 93.6966 44.2485C92.9111 44.2485 92.1367 44.4338 91.4362 44.7894C91.1773 44.9027 90.9536 45.0833 90.7882 45.3125C90.6229 45.5417 90.5221 45.8111 90.4963 46.0925V50.2673C90.5233 50.5483 90.6246 50.8171 90.7898 51.0462C90.9549 51.2752 91.178 51.4561 91.4362 51.5704C92.1367 51.926 92.9111 52.1113 93.6966 52.1113C94.4821 52.1113 95.2565 51.926 95.9569 51.5704C96.2144 51.4551 96.4369 51.2739 96.6019 51.0451C96.767 50.8163 96.8687 50.548 96.8968 50.2673V46.0925C96.8698 45.8114 96.7686 45.5426 96.6034 45.3136C96.4382 45.0846 96.2151 44.9037 95.9569 44.7894Z" fill="#C8CFD3"/>
<path d="M95.9571 44.7894C97.2083 45.5101 97.2083 46.6807 95.9571 47.4014C95.2566 47.757 94.4822 47.9423 93.6967 47.9423C92.9112 47.9423 92.1368 47.757 91.4364 47.4014C90.1851 46.6807 90.1851 45.5101 91.4364 44.7894C92.1368 44.4338 92.9112 44.2485 93.6967 44.2485C94.4822 44.2485 95.2566 44.4338 95.9571 44.7894Z" fill="#EEF5F9"/>
<path d="M83.3349 39.0402C80.5671 37.8408 79.829 36.3474 79.2351 35.1538C78.8257 34.3177 78.5028 33.6603 77.586 33.2913C76.1905 32.7147 74.9393 33.6892 74.0282 34.3984C73.4112 34.8712 72.9672 35.2114 72.5751 35.0154L72.8231 34.5253C72.9557 34.5253 73.3997 34.2139 73.6996 33.9486C74.6625 33.2048 76.1156 32.0804 77.8051 32.7954C78.9122 33.2452 79.3158 34.0582 79.7425 34.9231C80.3191 36.0764 80.9823 37.4257 83.5655 38.5501L83.3349 39.0402Z" fill="#2E383B"/>
<path d="M83.8711 39.3803C79.9443 38.2904 78.9121 36.6817 78.151 35.5054C77.9106 35.034 77.5482 34.6358 77.1016 34.3521C76.2136 33.8908 75.1987 34.404 74.2992 34.8596C73.8579 35.1385 73.3591 35.3139 72.8403 35.3727V34.825C73.2657 34.7584 73.6724 34.6032 74.0339 34.3694C75.0026 33.8793 76.202 33.2738 77.338 33.8678C77.8742 34.1971 78.3092 34.6679 78.595 35.2286C79.3042 36.3299 80.2787 37.8349 84.0037 38.8728L83.8711 39.3803Z" fill="#2E383B"/>
<path d="M19.0647 36.9471L18.8456 36.4454C21.4346 35.321 22.092 33.989 22.6744 32.8127C23.1011 31.9535 23.5047 31.1405 24.606 30.6849C26.2955 29.9988 27.7486 31.1232 28.7116 31.867C29.0287 32.1092 29.4554 32.4436 29.588 32.4436L29.8302 32.9338C29.4381 33.1356 28.9941 32.7896 28.3771 32.3168C27.4603 31.6075 26.209 30.6388 24.8136 31.2097C23.9026 31.5845 23.5796 32.2418 23.1645 33.0722C22.5705 34.2542 21.8382 35.7419 19.0647 36.9471Z" fill="#2E383B"/>
<path d="M18.5284 37.2873L18.3843 36.7569C22.1092 35.7247 23.078 34.214 23.7872 33.1126C24.0782 32.5556 24.5121 32.086 25.0442 31.7518C26.1975 31.1752 27.3853 31.7518 28.3483 32.2592C28.7133 32.4862 29.1185 32.6409 29.5419 32.7147V33.2625C29.0226 33.202 28.5239 33.0246 28.083 32.7436C27.1893 32.288 26.1687 31.7749 25.2807 32.2419C24.8368 32.5289 24.4752 32.9263 24.2312 33.3952C23.4931 34.583 22.4552 36.1918 18.5284 37.2873Z" fill="#2E383B"/>
<path d="M48.8761 22.128L51.3325 21.8224V16.1658H47.7229V21.9839L48.8761 22.128Z" fill="#EEF5F9"/>
<path d="M27.7254 28.7705V36.7509L28.9363 29.9929L27.7254 28.7705Z" fill="#3A7318"/>
<path d="M28.9193 33.6491L28.6021 32.7957L10.9056 38.8156V40.9029L28.4637 34.883L28.9193 33.6491Z" fill="#EEF5F9"/>
<path d="M28.9193 37.0794L28.4637 34.8825L10.9056 40.9024V44.3276L28.4637 38.3076L28.9193 37.0794Z" fill="#C8CFD3"/>
<path d="M73.4632 32.6509L74.5127 38.1058L74.6741 31.4343L73.4632 32.6509Z" fill="#3A7318"/>
<path d="M73.8551 35.1997L73.4457 36.3126L73.8032 37.2813L94.6885 44.5467V42.4594L73.8551 35.1997Z" fill="#EEF5F9"/>
<path d="M73.8032 37.2816L73.4457 39.738L73.8032 40.7125L94.6885 47.9721V44.547L73.8032 37.2816Z" fill="#C8CFD3"/>
<path d="M74.6739 44.7713L59.2032 53.709V46.9452L74.6739 38.0076V44.7713Z" fill="#3A7318"/>
<path d="M73.4631 32.6516L53.5062 44.1782L59.2032 46.946L74.674 38.0084L73.4631 32.6516Z" fill="#87C037"/>
<path d="M73.4631 32.6516L53.5062 44.1783L28.9364 29.9934L48.8933 18.4667L73.4631 32.6516Z" fill="#EEF5F9"/>
<path d="M47.8149 46.9459L53.5061 44.1782L28.9363 29.9933L27.7254 35.5346L47.8149 46.9459Z" fill="#87C037"/>
<path d="M47.8149 46.9458V53.7095L27.7254 42.1137V35.5344L47.8149 46.9458Z" fill="#478025"/>
<path d="M47.815 46.9463V53.7101L53.5063 55.0767V44.1785L47.815 46.9463Z" fill="#3A7318"/>
<path d="M59.2032 46.9463V53.7101L53.5062 55.0767V44.1785L59.2032 46.9463Z" fill="#478025"/>
<path d="M43.2019 19.8391L27.7254 28.771L28.9363 29.9934L48.8932 18.4667L43.2019 19.8391Z" fill="#87C037"/>
<path d="M54.5902 19.8391L48.8932 18.4667L73.463 32.6516L74.6739 31.4349L54.5902 19.8391Z" fill="#87C037"/>
<path d="M55.4898 64.2101H51.8801V67.641H55.4898V64.2101Z" fill="#C8CFD3"/>
<path d="M53.4832 47.8339L51.8859 48.03V64.21H55.4898V48.0819L53.4832 47.8339Z" fill="#EEF5F9"/>
<path d="M37.7703 46.5998L29.4785 41.8138V38.3253L37.7703 43.1112V46.5998Z" fill="#C8CFD3"/>
<path d="M51.8802 58.9455C51.7011 58.6968 51.5086 58.4582 51.3035 58.2305C50.3692 57.2847 49.7421 56.0789 49.5045 54.7708C49.0489 52.4643 50.5309 51.4149 51.8398 50.5153C52.3106 50.2255 52.7394 49.8724 53.1141 49.4659C53.4357 49.0922 53.6636 48.6473 53.7789 48.1679C53.8942 47.6886 53.8937 47.1887 53.7772 46.7096C53.7666 46.6756 53.7494 46.6439 53.7266 46.6165C53.7038 46.589 53.6757 46.5664 53.6442 46.5498C53.6126 46.5332 53.578 46.523 53.5425 46.5197C53.5069 46.5165 53.4711 46.5203 53.437 46.5309C53.4029 46.5415 53.3713 46.5587 53.3439 46.5815C53.3165 46.6044 53.2938 46.6324 53.2772 46.664C53.2606 46.6956 53.2504 46.7301 53.2471 46.7656C53.2439 46.8012 53.2477 46.837 53.2583 46.8711C53.3452 47.2649 53.3383 47.6736 53.2382 48.0643C53.138 48.4549 52.9474 48.8165 52.6816 49.1199C52.3398 49.4837 51.9521 49.8016 51.5284 50.0656C50.2252 50.9593 48.4435 52.1933 48.9682 54.8746C49.2296 56.2686 49.9001 57.5533 50.8941 58.565C51.383 59.0128 51.7298 59.5942 51.8917 60.2372L51.8802 58.9455Z" fill="#2E383B"/>
<path d="M55.5705 48.8195C55.2846 48.69 55.035 48.4919 54.844 48.2429C54.6066 47.8077 54.4817 47.3201 54.4807 46.8244C54.4797 46.7562 54.4535 46.6908 54.4073 46.6407C54.361 46.5907 54.2979 46.5594 54.2301 46.553C54.1622 46.5466 54.0943 46.5654 54.0395 46.6059C53.9847 46.6464 53.9467 46.7057 53.9329 46.7725C53.9218 47.3751 54.0647 47.9705 54.3481 48.5024C54.5796 48.8478 54.9032 49.1214 55.2822 49.2923C56.2855 49.8689 57.6579 50.6877 57.1677 53.6631C57.0344 55.0207 56.5028 56.3087 55.6397 57.365L55.484 57.5726V58.5586C55.655 58.2586 55.8477 57.9714 56.0606 57.6995C56.9722 56.5688 57.5387 55.1995 57.6925 53.7554C58.2633 50.411 56.643 49.4538 55.5705 48.8195Z" fill="#2E383B"/>
<path d="M48.6222 1.34623C48.8475 1.23267 49.0964 1.17352 49.3487 1.17352C49.6011 1.17352 49.8499 1.23267 50.0753 1.34623C50.158 1.3836 50.2294 1.44225 50.282 1.5162C50.3347 1.59015 50.3668 1.67675 50.3751 1.76716V23.6326C50.368 23.7234 50.3364 23.8105 50.2836 23.8847C50.2307 23.9588 50.1587 24.0172 50.0753 24.0536C49.8499 24.1671 49.6011 24.2263 49.3487 24.2263C49.0964 24.2263 48.8475 24.1671 48.6222 24.0536C48.5394 24.0162 48.4681 23.9576 48.4154 23.8836C48.3627 23.8097 48.3306 23.723 48.3223 23.6326V1.76716C48.3317 1.67709 48.3643 1.59098 48.4168 1.51722C48.4694 1.44346 48.5401 1.38455 48.6222 1.34623Z" fill="url(#paint15_linear_24_35448)"/>
<path d="M48.6223 1.34623C48.5341 1.37583 48.4575 1.43238 48.4031 1.50791C48.3488 1.58344 48.3196 1.67412 48.3196 1.76716C48.3196 1.8602 48.3488 1.95089 48.4031 2.02642C48.4575 2.10195 48.5341 2.1585 48.6223 2.1881C48.8477 2.30166 49.0965 2.36081 49.3489 2.36081C49.6012 2.36081 49.8501 2.30166 50.0754 2.1881C50.4791 1.95169 50.4791 1.57688 50.0754 1.34623C49.8501 1.23267 49.6012 1.17352 49.3489 1.17352C49.0965 1.17352 48.8477 1.23267 48.6223 1.34623Z" fill="#EEF5F9"/>
<path d="M47.4229 0.458668C48.0201 0.157109 48.6798 0 49.3488 0C50.0179 0 50.6776 0.157109 51.2748 0.458668C51.4949 0.556596 51.6852 0.711223 51.826 0.906751C51.9668 1.10228 52.0532 1.33169 52.0763 1.57154V3.14572C52.0543 3.38593 51.9684 3.61586 51.8274 3.81159C51.6865 4.00731 51.4956 4.16167 51.2748 4.2586C50.6784 4.56284 50.0184 4.72146 49.3488 4.72146C48.6793 4.72146 48.0193 4.56284 47.4229 4.2586C47.2031 4.16087 47.0135 4.00616 46.8736 3.81049C46.7337 3.61482 46.6486 3.38531 46.6272 3.14572V1.57154C46.6503 1.33248 46.7361 1.10374 46.8758 0.908361C47.0155 0.712985 47.2042 0.557879 47.4229 0.458668Z" fill="url(#paint16_linear_24_35448)"/>
<path d="M47.4229 0.458668C46.362 1.07565 46.362 2.07321 47.4229 2.68442C48.0193 2.98867 48.6793 3.14729 49.3488 3.14729C50.0184 3.14729 50.6784 2.98867 51.2748 2.68442C52.3415 2.07321 52.3415 1.07565 51.2748 0.458668C50.6775 0.157109 50.0179 0 49.3488 0C48.6798 0 48.0201 0.157109 47.4229 0.458668Z" fill="#EEF5F9"/>
<path d="M58.8401 39.6111L53.4141 42.7421L47.9881 39.6111L53.4141 36.48L58.8401 39.6111Z" fill="#025491"/>
<path d="M65.0156 36.1053L59.5954 39.2364L54.1694 36.1053L59.5954 32.9742L65.0156 36.1053Z" fill="#025491"/>
<path d="M71.1972 32.5995L65.7712 35.7305L60.3452 32.5995L65.7712 29.4684L71.1972 32.5995Z" fill="#025491"/>
<path d="M40.3305 26.7639C43.2136 25.1032 47.8785 25.1032 50.7558 26.7639C52.1974 27.5942 52.9182 28.684 52.9182 29.7738V31.1693C52.9182 32.2591 52.1974 33.3489 50.7558 34.1792C47.8727 35.8399 43.2079 35.8399 40.3305 34.1792C38.889 33.3489 38.174 32.2591 38.174 31.1693V29.7738C38.174 28.684 38.889 27.6115 40.3305 26.7639Z" fill="url(#paint17_linear_24_35448)"/>
<path d="M40.3303 26.7638C37.4472 28.4302 37.4472 31.123 40.3303 32.7837C43.2134 34.4444 47.8783 34.4501 50.7556 32.7837C53.6329 31.1173 53.6387 28.4302 50.7556 26.7638C47.8725 25.0973 43.2076 25.1031 40.3303 26.7638Z" fill="#EEF5F9"/>
<g filter="url(#filter0_f_24_35448)">
<path d="M24.5 79.5C21.3 75.9 13.5 71.6667 10 70C12.8333 67.8333 18.7 62.8998 19.5 60.4998C20.5 57.4998 38 62.4998 40.5 62.4998C43 62.4998 50.5 64.4998 55 63.9998C59.5 63.4998 41 50.4999 47 45.4999C53 40.4999 77.5 58 80.5 58.5C83.5 59 96 65 100 65.5C104 66 103.5 72.5 101.5 77.5C99.5 82.5 99.5 80.5 97 85C94.5 89.5 93 89.5 87 93C81 96.5 81 93 69 97.5C63.8571 99.4286 62.2959 100.439 61.9155 100.885C61.535 101.331 62.3353 101.213 61.9155 100.885C61.7755 100.776 61.5 100.643 61 100.5C57.5 99.5 57 96 55 94.5C53 93 44.5 91 41.5 89.5C38.5 88 28.5 84 24.5 79.5Z" fill="black" fill-opacity="0.21"/>
</g>
<defs>
<filter id="filter0_f_24_35448" x="0" y="34.6024" width="113.016" height="76.5744" filterUnits="userSpaceOnUse" color-interpolation-filters="sRGB">
<feFlood flood-opacity="0" result="BackgroundImageFix"/>
<feBlend mode="normal" in="SourceGraphic" in2="BackgroundImageFix" result="shape"/>
<feGaussianBlur stdDeviation="5" result="effect1_foregroundBlur_24_35448"/>
</filter>
<linearGradient id="paint0_linear_24_35448" x1="49.8044" y1="81.3292" x2="49.8044" y2="101.851" gradientUnits="userSpaceOnUse">
<stop stop-color="#3B4447"/>
<stop offset="1" stop-color="#081114"/>
</linearGradient>
<linearGradient id="paint1_linear_24_35448" x1="49.8043" y1="82.2295" x2="49.8043" y2="99.9433" gradientUnits="userSpaceOnUse">
<stop stop-color="#2E373A"/>
<stop offset="1" stop-color="#000407"/>
</linearGradient>
<linearGradient id="paint2_linear_24_35448" x1="53.2815" y1="87.9376" x2="46.8406" y2="87.9376" gradientUnits="userSpaceOnUse">
<stop stop-color="#F3F5F7"/>
<stop offset="1" stop-color="#999D9E"/>
</linearGradient>
<linearGradient id="paint3_linear_24_35448" x1="50.0928" y1="91.3568" x2="50.0928" y2="81.8541" gradientUnits="userSpaceOnUse">
<stop stop-color="#F3F5F7"/>
<stop offset="1" stop-color="#999D9E"/>
</linearGradient>
<linearGradient id="paint4_linear_24_35448" x1="50.6462" y1="82.5234" x2="49.7352" y2="80.7935" gradientUnits="userSpaceOnUse">
<stop stop-color="#87C037"/>
<stop offset="1" stop-color="#3A7318"/>
</linearGradient>
<linearGradient id="paint5_linear_24_35448" x1="8.1549" y1="57.2332" x2="8.1549" y2="77.7551" gradientUnits="userSpaceOnUse">
<stop stop-color="#3B4447"/>
<stop offset="1" stop-color="#081114"/>
</linearGradient>
<linearGradient id="paint6_linear_24_35448" x1="8.1551" y1="58.1321" x2="8.1551" y2="75.8459" gradientUnits="userSpaceOnUse">
<stop stop-color="#2E373A"/>
<stop offset="1" stop-color="#000407"/>
</linearGradient>
<linearGradient id="paint7_linear_24_35448" x1="11.6321" y1="63.8409" x2="5.1912" y2="63.8409" gradientUnits="userSpaceOnUse">
<stop stop-color="#F3F5F7"/>
<stop offset="1" stop-color="#999D9E"/>
</linearGradient>
<linearGradient id="paint8_linear_24_35448" x1="8.44334" y1="67.2603" x2="8.44334" y2="57.7576" gradientUnits="userSpaceOnUse">
<stop stop-color="#F3F5F7"/>
<stop offset="1" stop-color="#999D9E"/>
</linearGradient>
<linearGradient id="paint9_linear_24_35448" x1="8.99699" y1="58.4267" x2="8.08593" y2="56.6968" gradientUnits="userSpaceOnUse">
<stop stop-color="#87C037"/>
<stop offset="1" stop-color="#3A7318"/>
</linearGradient>
<linearGradient id="paint10_linear_24_35448" x1="97.7157" y1="57.4748" x2="96.8047" y2="55.7508" gradientUnits="userSpaceOnUse">
<stop stop-color="#87C037"/>
<stop offset="1" stop-color="#3A7318"/>
</linearGradient>
<linearGradient id="paint11_linear_24_35448" x1="92.2611" y1="56.8059" x2="92.2611" y2="77.3221" gradientUnits="userSpaceOnUse">
<stop stop-color="#3B4447"/>
<stop offset="1" stop-color="#081114"/>
</linearGradient>
<linearGradient id="paint12_linear_24_35448" x1="92.261" y1="57.7" x2="92.261" y2="75.4138" gradientUnits="userSpaceOnUse">
<stop stop-color="#2E373A"/>
<stop offset="1" stop-color="#000407"/>
</linearGradient>
<linearGradient id="paint13_linear_24_35448" x1="95.7436" y1="63.4084" x2="89.3028" y2="63.4084" gradientUnits="userSpaceOnUse">
<stop stop-color="#F3F5F7"/>
<stop offset="1" stop-color="#999D9E"/>
</linearGradient>
<linearGradient id="paint14_linear_24_35448" x1="92.5492" y1="66.8278" x2="92.5492" y2="57.3308" gradientUnits="userSpaceOnUse">
<stop stop-color="#F3F5F7"/>
<stop offset="1" stop-color="#999D9E"/>
</linearGradient>
<linearGradient id="paint15_linear_24_35448" x1="50.3809" y1="12.6999" x2="48.3223" y2="12.6999" gradientUnits="userSpaceOnUse">
<stop stop-color="#D4DBDF"/>
<stop offset="1" stop-color="#BAC1C5"/>
</linearGradient>
<linearGradient id="paint16_linear_24_35448" x1="52.0763" y1="2.36151" x2="46.6272" y2="2.36151" gradientUnits="userSpaceOnUse">
<stop stop-color="#D4DBDF"/>
<stop offset="1" stop-color="#BAC1C5"/>
</linearGradient>
<linearGradient id="paint17_linear_24_35448" x1="52.9182" y1="30.4715" x2="38.174" y2="30.4715" gradientUnits="userSpaceOnUse">
<stop stop-color="#D4DBDF"/>
<stop offset="1" stop-color="#BAC1C5"/>
</linearGradient>
</defs>
</svg>
