<svg width="122" height="132" viewBox="0 0 122 132" fill="none" xmlns="http://www.w3.org/2000/svg">
<path d="M67.2891 53.3302L57.6414 47.7204C58.6462 48.306 59.2689 49.5698 59.275 51.3144C59.275 54.8652 56.8092 59.1928 53.7268 60.9744L12.6886 84.6468C11.1351 85.5407 9.72336 85.627 8.70619 85.0352L18.3539 90.6388C19.3711 91.2553 20.7828 91.1505 22.3363 90.2505L63.3437 66.5905C66.4261 64.8089 68.9351 60.4751 68.8919 56.9242C68.9166 55.1796 68.294 53.9467 67.2891 53.3302Z" fill="#151F22"/>
<path d="M66.4816 55.4632C66.4816 51.9062 63.954 50.476 60.8655 52.2576L19.8828 75.9238C16.8004 77.7054 14.2914 82.033 14.3346 85.5838C14.3777 89.1347 16.8559 90.571 19.9506 88.7895L60.9025 65.1233C63.991 63.3417 66.4877 59.0141 66.4816 55.4632Z" fill="#C0C7CB"/>
<path d="M34.53 79.3824C34.53 77.9583 33.5313 77.385 32.2984 78.094C31.6468 78.5173 31.1044 79.0887 30.7155 79.7615C30.3267 80.4342 30.1023 81.1894 30.0606 81.9654C30.0606 83.3894 31.0655 83.9627 32.2984 83.2538C32.9489 82.8297 33.4901 82.2581 33.8779 81.5853C34.2656 80.9126 34.4891 80.1578 34.53 79.3824Z" fill="#A6ADB1"/>
<path d="M40.3924 75.9975C40.3924 74.5735 39.3875 74.0002 38.1546 74.7091C37.5041 75.1331 36.963 75.7048 36.5752 76.3776C36.1874 77.0503 35.9639 77.8051 35.923 78.5805C35.923 80.0046 36.9217 80.584 38.1546 79.8689C38.8062 79.4456 39.3486 78.8742 39.7375 78.2014C40.1264 77.5286 40.3508 76.7735 40.3924 75.9975Z" fill="#A6ADB1"/>
<path d="M46.249 72.6198C46.249 71.1958 45.2503 70.6163 44.0174 71.3252C43.3669 71.7493 42.8258 72.321 42.438 72.9937C42.0502 73.6664 41.8267 74.4212 41.7858 75.1967C41.7858 76.6207 42.7845 77.2002 44.0174 76.4851C44.6671 76.0616 45.2077 75.4909 45.5955 74.8193C45.9832 74.1477 46.2071 73.3942 46.249 72.6198Z" fill="#A6ADB1"/>
<path d="M52.1116 69.2354C52.1116 67.8114 51.113 67.2319 49.8739 67.947C49.2226 68.3717 48.6809 68.9443 48.2931 69.6182C47.9052 70.2921 47.6822 71.0481 47.6422 71.8246C47.6422 73.2486 48.6409 73.8281 49.8739 73.1192C50.5271 72.6946 51.0705 72.1213 51.4595 71.4462C51.8484 70.7711 52.0719 70.0135 52.1116 69.2354Z" fill="#A6ADB1"/>
<path d="M50.0278 62.1088L29.4255 74.0005C28.6493 74.506 28.0036 75.1878 27.5408 75.9901C27.078 76.7925 26.8113 77.6929 26.7623 78.6178C26.7266 78.9469 26.7799 79.2795 26.9165 79.5809C27.0531 79.8823 27.2681 80.1416 27.5391 80.3316L28.2172 80.7262L28.6919 80.9974L28.7597 81.0406L28.8953 81.1145C28.6232 80.9253 28.407 80.6663 28.2693 80.3648C28.1315 80.0633 28.0774 79.7304 28.1124 79.4008C28.1613 78.4766 28.4281 77.5771 28.8909 76.7757C29.3537 75.9744 29.9995 75.2938 30.7755 74.7896L51.3779 62.8918C51.6506 62.695 51.9706 62.5742 52.3053 62.5417C52.64 62.5092 52.9773 62.5662 53.2828 62.7068L51.9265 61.9239C51.6231 61.7793 51.286 61.7201 50.9515 61.7527C50.617 61.7853 50.2976 61.9084 50.0278 62.1088Z" fill="#EEF5F9"/>
<path d="M51.3781 62.8917L30.7757 74.7895C29.9997 75.2937 29.3539 75.9743 28.8911 76.7757C28.4282 77.5771 28.1615 78.4766 28.1126 79.4007C28.1126 81.1022 29.3455 81.7803 30.7942 80.9295L51.3966 69.0379C52.1719 68.533 52.8172 67.8522 53.2799 67.051C53.7426 66.2497 54.0098 65.3506 54.0597 64.4267C54.0535 62.7253 52.8576 62.041 51.3781 62.8917Z" fill="#CDD4D8"/>
<path d="M65.2671 52.6339L64.589 52.2455C63.5718 51.6291 62.1662 51.7339 60.6066 52.6339C57.5242 54.4155 55.0214 58.7431 55.0584 62.3001C55.0584 64.0632 55.6748 65.3023 56.692 65.888L58.0421 66.677C57.0372 66.0914 56.4146 64.8277 56.4146 63.083C56.4146 59.5322 58.8805 55.2046 61.9936 53.4168C63.5471 52.523 64.9527 52.4367 65.9698 53.0285L65.2671 52.6339Z" fill="#EEF5F9"/>
<path d="M61.963 53.4165C58.8806 55.2043 56.3716 59.5319 56.3839 63.0828C56.3963 66.6336 58.9238 68.07 62.0061 66.2761C65.0885 64.4821 67.5543 60.173 67.5543 56.6222C67.5543 53.0713 65.0515 51.635 61.963 53.4165Z" fill="#CDD4D8"/>
<path d="M61.963 55.0936C60.7601 55.8757 59.7594 56.9313 59.0426 58.1742C58.3258 59.417 57.9133 60.8119 57.8388 62.2447C57.8388 64.8708 59.6882 65.9435 61.9938 64.6119C63.1946 63.8276 64.1938 62.7715 64.9103 61.5291C65.6268 60.2867 66.0405 58.893 66.118 57.4609C66.1118 54.8347 64.2501 53.7744 61.963 55.0936Z" fill="#B4BBBF"/>
<path d="M61.9629 55.6357C60.8987 56.3278 60.0129 57.2614 59.3777 58.3604C58.7424 59.4595 58.3757 60.6931 58.3072 61.9607C58.3072 64.2847 59.9655 65.2279 62.006 64.0566C63.073 63.364 63.961 62.4288 64.5974 61.3274C65.2338 60.226 65.6006 58.9896 65.6678 57.7194C65.6432 55.4014 63.9911 54.4644 61.9629 55.6357Z" fill="#CDD4D8"/>
<path d="M24.4508 75.5849L23.7788 75.1903C22.7617 74.5739 21.35 74.6848 19.7965 75.5787C16.7141 77.3665 14.2051 81.6941 14.2174 85.2449C14.2174 87.008 14.8339 88.2533 15.8511 88.8389L17.2011 89.6219C16.1963 89.0362 15.5737 87.7724 15.5675 86.034C15.5675 82.477 18.0334 78.1494 21.1465 76.3678C22.7 75.4678 24.1117 75.3876 25.1289 75.9794L24.4508 75.5849Z" fill="#EEF5F9"/>
<path d="M21.1465 76.3676C18.0642 78.1492 15.5551 82.4768 15.5675 86.0338C15.5798 89.5909 18.0888 91.0149 21.1835 89.2333C24.2782 87.4517 26.7749 83.118 26.7625 79.5671C26.7502 76.0162 24.235 74.5799 21.1465 76.3676Z" fill="#CDD4D8"/>
<path d="M21.1526 78.0388C19.95 78.8217 18.9491 79.8773 18.2314 81.1199C17.5137 82.3625 17.0994 83.757 17.0223 85.1899C17.0223 87.816 18.8717 88.8887 21.1773 87.5571C22.3801 86.776 23.3813 85.7215 24.0991 84.4799C24.8169 83.2382 25.231 81.8444 25.3076 80.4122C25.2953 77.7799 23.4397 76.7196 21.1526 78.0388Z" fill="#B4BBBF"/>
<path d="M21.1528 78.6059C20.0866 79.2988 19.1995 80.2342 18.5642 81.3357C17.9288 82.4371 17.5632 83.6733 17.4971 84.9432C17.4971 87.2734 19.1492 88.2105 21.1959 87.0392C22.2616 86.3472 23.1484 85.4129 23.7838 84.3125C24.4192 83.2121 24.7851 81.977 24.8516 80.7081C24.8269 78.3531 23.1686 77.4099 21.1528 78.6059Z" fill="#CDD4D8"/>
<path d="M58.4181 46.3892C57.1851 45.6802 55.5145 45.7727 53.6528 46.8515L12.6885 70.5116C8.9897 72.6445 5.99983 77.8352 6.01216 82.0765C6.01216 84.191 6.76426 85.6767 7.97253 86.3918L17.6202 91.9831C16.3873 91.2804 15.666 89.7947 15.6599 87.6679C15.6599 83.4204 18.6436 78.2359 22.3362 76.1029L63.3005 52.4614C65.1499 51.3887 66.8514 51.2901 68.0658 51.999L58.4181 46.3892Z" fill="#414E52"/>
<path d="M70.0201 56.2892C70.0201 60.5367 67.0364 65.7212 63.3437 67.8542L22.3548 91.5142C18.656 93.6534 15.6476 91.9334 15.6353 87.6859C15.623 83.4385 18.619 78.254 22.3116 76.121L63.3006 52.461C66.9994 50.328 70.0201 52.0418 70.0201 56.2892ZM68.9166 56.9057C68.9166 53.3548 66.3891 51.9246 63.3006 53.7062L22.324 77.3724C19.2416 79.1602 16.7326 83.4878 16.7758 87.0386C16.8189 90.5895 19.3033 92.0259 22.3918 90.2381L63.3437 66.5904C66.4322 64.8088 68.9351 60.475 68.9228 56.9242L68.9166 56.9057Z" fill="#2E383B"/>
<path d="M65.2302 51.6723C64.8478 51.7642 64.4744 51.89 64.1144 52.0483L54.4296 46.4569C54.7857 46.2978 55.1549 46.1699 55.5331 46.0747L65.2302 51.6723Z" fill="#2E383B"/>
<path d="M61.4389 53.5401L60.5512 54.0518L50.8726 48.4604L51.7542 47.9487L61.4389 53.5401Z" fill="#2E383B"/>
<path d="M57.9186 55.5684L57.037 56.0801L47.3523 50.4888L48.24 49.9771L57.9186 55.5684Z" fill="#2E383B"/>
<path d="M54.405 57.5968L53.5234 58.1084L43.8387 52.5171L44.7264 52.0054L54.405 57.5968Z" fill="#2E383B"/>
<path d="M50.8908 59.6243L50.0031 60.1359L40.3246 54.5507L41.2123 54.0391L50.8908 59.6243Z" fill="#2E383B"/>
<path d="M47.3772 61.653L46.4895 62.1647L36.8109 56.5795L37.6987 56.0678L47.3772 61.653Z" fill="#2E383B"/>
<path d="M43.8633 63.6809L42.9756 64.1926L33.297 58.6074L34.1847 58.0957L43.8633 63.6809Z" fill="#2E383B"/>
<path d="M40.3494 65.7092L39.4617 66.2209L29.7832 60.6357L30.6709 60.1241L40.3494 65.7092Z" fill="#2E383B"/>
<path d="M36.8295 67.7438L35.948 68.2493L26.2694 62.6641L27.151 62.1524L36.8295 67.7438Z" fill="#2E383B"/>
<path d="M33.3157 69.7717L32.4341 70.2834L22.7556 64.692L23.6371 64.1865L33.3157 69.7717Z" fill="#2E383B"/>
<path d="M29.8015 71.8L28.92 72.3116L19.2414 66.7203L20.123 66.2086L29.8015 71.8Z" fill="#2E383B"/>
<path d="M26.2877 73.8279L25.4061 74.3395L15.7276 68.7482L16.6091 68.2365L26.2877 73.8279Z" fill="#2E383B"/>
<path d="M22.774 75.8563L22.324 76.1213C22.1822 76.2015 22.0404 76.2878 21.9048 76.3803L12.2262 70.7889L12.6701 70.5115L13.0954 70.2711L22.774 75.8563Z" fill="#2E383B"/>
<path d="M19.7716 78.1806C19.562 78.3963 19.3586 78.6183 19.1551 78.8525L9.48276 73.3043C9.68003 73.0701 9.8773 72.842 10.0992 72.6262L19.7716 78.1806Z" fill="#2E383B"/>
<path d="M17.6202 81.0163C17.4661 81.269 17.3243 81.5279 17.1887 81.793L7.52867 76.214C7.65812 75.9489 7.80608 75.69 7.95403 75.4372L17.6202 81.0163Z" fill="#2E383B"/>
<path d="M16.2085 84.2406C16.116 84.5365 16.0359 84.8262 15.9681 85.1221L6.30802 79.5431C6.37583 79.2534 6.45597 78.9575 6.54844 78.6677L16.2085 84.2406Z" fill="#2E383B"/>
<path d="M15.7711 89.0857L6.12334 83.5375C6.05821 83.1769 6.01702 82.8124 6.00004 82.4464L15.6539 87.9946C15.6598 88.3611 15.699 88.7263 15.7711 89.0857Z" fill="#2E383B"/>
<path d="M50.7432 88.3457V101.988L19.0321 83.9627V70.3141L50.7432 88.3457Z" fill="#B4BBBF"/>
<path d="M50.7432 94.0543V101.988L19.0321 83.9627V76.0226L50.7432 94.0543Z" fill="url(#paint0_linear_24_34863)"/>
<path d="M95.5111 76.1398L50.7432 101.988V88.3459L95.5111 62.4974V76.1398Z" fill="#CDD4D8"/>
<path d="M95.5111 76.1398L50.7432 101.988V94.042L95.5111 68.1935V76.1398Z" fill="url(#paint1_linear_24_34863)"/>
<path d="M95.5111 62.4971L50.7432 88.3456L19.0321 70.3139L63.8 44.4655L95.5111 62.4971Z" fill="#EEF5F9"/>
<path d="M107.97 76.633L98.3221 71.0294C99.3269 71.6088 99.9496 72.8788 99.9557 74.6172C99.9557 78.1681 97.4899 82.4957 94.4075 84.2834L53.3754 107.943C51.8219 108.843 50.4102 108.924 49.3931 108.332L59.0408 113.942C60.0641 114.558 61.4697 114.447 63.0232 113.553L104.024 89.8871C107.107 88.1055 109.616 83.7779 109.573 80.2271C109.603 78.4578 108.981 77.2187 107.97 76.633Z" fill="#151F22"/>
<path d="M107.162 78.76C107.162 75.2092 104.641 73.7728 101.546 75.5606L60.5634 99.2206C57.4811 101.008 54.9782 105.336 55.0152 108.887C55.0522 112.438 57.5427 113.868 60.6312 112.086L101.583 88.4262C104.672 86.62 107.175 82.3047 107.162 78.76Z" fill="#C0C7CB"/>
<path d="M75.2169 102.685C75.2169 101.261 74.212 100.681 72.9791 101.39C72.3286 101.814 71.7874 102.386 71.3996 103.059C71.0119 103.731 70.7884 104.486 70.7475 105.262C70.7475 106.686 71.7461 107.265 72.9791 106.55C73.6299 106.127 74.1718 105.557 74.5606 104.885C74.9494 104.214 75.1743 103.46 75.2169 102.685Z" fill="#A6ADB1"/>
<path d="M81.0735 99.3003C81.0735 97.8763 80.0748 97.2968 78.8419 98.0119C78.1911 98.4347 77.6492 99.005 77.2604 99.6767C76.8715 100.348 76.6467 101.102 76.6041 101.877C76.6041 103.301 77.6089 103.881 78.8419 103.166C79.4915 102.742 80.0322 102.171 80.42 101.5C80.8077 100.828 81.0316 100.075 81.0735 99.3003Z" fill="#A6ADB1"/>
<path d="M86.9359 95.9164C86.9359 94.4923 85.931 93.9129 84.6981 94.628C84.0484 95.0514 83.5077 95.6221 83.12 96.2937C82.7322 96.9653 82.5083 97.7189 82.4665 98.4932C82.4665 99.9234 83.4651 100.497 84.6981 99.7878C85.3497 99.3644 85.8921 98.7931 86.281 98.1203C86.6698 97.4475 86.8942 96.6924 86.9359 95.9164Z" fill="#A6ADB1"/>
<path d="M92.7925 92.5315C92.7925 91.1075 91.7938 90.528 90.5609 91.2431C89.9104 91.6672 89.3692 92.2388 88.9814 92.9116C88.5936 93.5843 88.3702 94.3391 88.3293 95.1145C88.3293 96.5386 89.3279 97.1119 90.5609 96.4029C91.2114 95.9789 91.7525 95.4072 92.1403 94.7345C92.5281 94.0617 92.7515 93.3069 92.7925 92.5315Z" fill="#A6ADB1"/>
<path d="M90.7148 85.3871L70.1125 97.2849C69.3338 97.7883 68.6858 98.4694 68.2217 99.2721C67.7577 100.075 67.4908 100.976 67.4432 101.902C67.412 102.231 67.4679 102.563 67.6054 102.864C67.7428 103.165 67.9568 103.424 68.2261 103.616L68.898 104.004L69.3727 104.282L69.4405 104.319L69.5762 104.399C69.3082 104.21 69.0944 103.954 68.9559 103.656C68.8175 103.359 68.7593 103.031 68.7871 102.704C68.8372 101.778 69.105 100.878 69.5689 100.075C70.0327 99.273 70.6794 98.5915 71.4564 98.0863L92.0649 86.1947C92.3358 85.9969 92.6546 85.8749 92.9883 85.8413C93.3221 85.8077 93.6587 85.8637 93.9636 86.0036L92.6136 85.2206C92.3108 85.0773 91.9753 85.0172 91.6416 85.0464C91.3079 85.0757 90.988 85.1933 90.7148 85.3871Z" fill="#EEF5F9"/>
<path d="M92.0651 86.1943L71.4628 98.086C70.6847 98.5905 70.0368 99.2717 69.5718 100.074C69.1069 100.876 68.8381 101.777 68.7873 102.703C68.7873 104.399 70.0202 105.083 71.4751 104.232L92.0775 92.3343C92.8528 91.8294 93.4981 91.1486 93.9608 90.3474C94.4236 89.5462 94.6907 88.647 94.7406 87.7231C94.7406 86.0032 93.5385 85.3374 92.0651 86.1943Z" fill="#CDD4D8"/>
<path d="M105.948 75.936L105.276 75.5229C104.259 74.9065 102.847 75.0174 101.294 75.9113C98.2113 77.6991 95.7022 82.0267 95.7146 85.5775C95.7146 87.3406 96.331 88.5859 97.3482 89.1715L98.6983 89.9544C97.6934 89.3688 97.0708 88.105 97.0646 86.3604C97.0646 82.8096 99.5305 78.482 102.613 76.7004C104.166 75.8003 105.578 75.714 106.595 76.3058L105.948 75.936Z" fill="#EEF5F9"/>
<path d="M102.644 76.719C99.5612 78.5006 97.0522 82.8282 97.0954 86.3791C97.1385 89.9299 99.6105 91.3663 102.693 89.5847C105.775 87.8031 108.241 83.4694 108.241 79.9185C108.241 76.3676 105.732 74.9066 102.644 76.719Z" fill="#CDD4D8"/>
<path d="M102.65 78.3901C101.446 79.1722 100.445 80.2277 99.7273 81.4704C99.0095 82.7131 98.5956 84.108 98.5194 85.5411C98.5194 88.1672 100.369 89.2399 102.674 87.9083C103.877 87.128 104.878 86.0736 105.595 84.8316C106.312 83.5897 106.725 82.1955 106.799 80.7635C106.792 78.1311 104.937 77.0708 102.65 78.3901Z" fill="#B4BBBF"/>
<path d="M102.65 78.932C101.581 79.6223 100.692 80.5572 100.057 81.6592C99.4209 82.7611 99.0567 83.9986 98.9941 85.2693C98.9941 87.5995 100.646 88.5366 102.693 87.3653C103.755 86.6705 104.637 85.7351 105.269 84.635C105.901 83.5349 106.265 82.3012 106.33 81.0342C106.324 78.7039 104.678 77.7607 102.65 78.932Z" fill="#CDD4D8"/>
<path d="M65.1376 98.8817L64.4595 98.4871C63.4423 97.9015 62.0306 97.9816 60.4771 98.8817C57.3948 100.663 54.8919 104.991 54.9289 108.548C54.9289 110.311 55.5454 111.55 56.5626 112.136L57.9126 112.919C56.9078 112.339 56.2851 111.069 56.279 109.331C56.279 105.78 58.7449 101.452 61.8272 99.6646C63.3869 98.7645 64.7924 98.6844 65.8096 99.2762L65.1376 98.8817Z" fill="#EEF5F9"/>
<path d="M61.8271 99.6642C58.7448 101.452 56.2419 105.78 56.2789 109.33C56.3159 112.881 58.8064 114.318 61.8949 112.53C64.9834 110.742 67.4863 106.421 67.4431 102.87C67.4 99.319 64.9218 97.8826 61.8271 99.6642Z" fill="#CDD4D8"/>
<path d="M61.8333 101.341C60.627 102.121 59.6227 103.176 58.9026 104.419C58.1825 105.662 57.7672 107.057 57.6906 108.492C57.6906 111.118 59.54 112.191 61.8456 110.853C63.047 110.071 64.0467 109.016 64.7633 107.774C65.48 106.533 65.8933 105.14 65.9698 103.708C65.9821 101.082 64.1204 100.022 61.8333 101.341Z" fill="#B4BBBF"/>
<path d="M61.8334 101.877C60.7714 102.57 59.8872 103.503 59.2522 104.601C58.6171 105.699 58.2491 106.93 58.1778 108.196C58.1778 110.526 59.8299 111.47 61.8766 110.298C62.9435 109.606 63.8315 108.671 64.4679 107.569C65.1044 106.468 65.4712 105.231 65.5384 103.961C65.5137 101.649 63.8554 100.706 61.8334 101.877Z" fill="#CDD4D8"/>
<path d="M99.105 69.6915C97.872 68.9825 96.1952 69.075 94.3397 70.1538L53.3754 93.8139C49.6766 95.9468 46.6867 101.131 46.6991 105.379C46.6991 107.487 47.4511 108.973 48.6533 109.694L58.3071 115.279C57.105 114.583 56.3591 113.097 56.3529 110.964C56.3529 106.723 59.3366 101.532 63.0293 99.3991L103.987 75.7575C105.837 74.6849 107.532 74.5862 108.753 75.2952L99.105 69.6915Z" fill="#414E52"/>
<path d="M110.707 79.586C110.707 83.8335 107.723 89.0241 104.031 91.1571L63.0478 114.817C59.349 116.95 56.3406 115.23 56.3283 110.983C56.316 106.735 59.312 101.551 63.0046 99.4178L103.987 75.7578C107.68 73.6248 110.707 75.3447 110.707 79.586ZM109.603 80.2025C109.603 76.6455 107.082 75.2153 103.987 76.9969L63.0046 100.663C59.9223 102.445 57.4194 106.772 57.4256 110.323C57.4318 113.874 59.9531 115.31 63.0416 113.529L104.024 89.8872C107.119 88.1056 109.616 83.778 109.603 80.2272V80.2025Z" fill="#2E383B"/>
<path d="M105.911 74.9688C105.528 75.061 105.154 75.189 104.795 75.351L95.1103 69.7597C95.4683 69.5985 95.8395 69.4686 96.2199 69.3713L105.911 74.9688Z" fill="#2E383B"/>
<path d="M102.12 76.8367L101.232 77.3484L91.5533 71.757L92.441 71.2515L102.12 76.8367Z" fill="#2E383B"/>
<path d="M98.6055 78.8646L97.7178 79.3763L88.0392 73.7849L88.9208 73.2794L98.6055 78.8646Z" fill="#2E383B"/>
<path d="M95.0918 80.8925L94.2041 81.4042L84.5255 75.819L85.4071 75.3073L95.0918 80.8925Z" fill="#2E383B"/>
<path d="M91.5717 82.9208L90.6901 83.4325L81.0116 77.8473L81.8931 77.3356L91.5717 82.9208Z" fill="#2E383B"/>
<path d="M88.058 84.9549L87.1764 85.4666L77.4979 79.8752L78.3794 79.3635L88.058 84.9549Z" fill="#2E383B"/>
<path d="M84.5441 86.9836L83.6564 87.4953L73.9779 81.904L74.8656 81.3923L84.5441 86.9836Z" fill="#2E383B"/>
<path d="M81.0363 89.0115L80.1485 89.5232L70.47 83.9318L71.3515 83.4202L81.0363 89.0115Z" fill="#2E383B"/>
<path d="M77.5161 91.0395L76.6346 91.5512L66.9499 85.9598L67.8376 85.4543L77.5161 91.0395Z" fill="#2E383B"/>
<path d="M74.0023 93.0682L73.1145 93.5799L63.4422 87.9947L64.3176 87.483L74.0023 93.0682Z" fill="#2E383B"/>
<path d="M70.4886 95.0961L69.6009 95.6078L59.9223 90.0164L60.81 89.5109L70.4886 95.0961Z" fill="#2E383B"/>
<path d="M66.9747 97.1306L66.087 97.6423L56.4085 92.0509L57.2962 91.5393L66.9747 97.1306Z" fill="#2E383B"/>
<path d="M63.4608 99.159L63.0046 99.4179C62.8628 99.498 62.7211 99.5843 62.5854 99.6768L52.9069 94.0916C53.0548 93.993 53.2028 93.9005 53.3569 93.8142L53.7823 93.5676L63.4608 99.159Z" fill="#2E383B"/>
<path d="M60.4523 101.476C60.2427 101.692 60.0454 101.92 59.8358 102.148L50.1696 96.5694C50.3669 96.3351 50.5641 96.107 50.7861 95.8913L60.4523 101.476Z" fill="#2E383B"/>
<path d="M58.3073 104.313C58.1594 104.571 58.0176 104.824 57.8819 105.089L48.2219 99.5411C48.3514 99.276 48.4931 99.0171 48.6411 98.7644L58.3073 104.313Z" fill="#2E383B"/>
<path d="M56.8953 107.536C56.7967 107.832 56.7165 108.153 56.6487 108.418L46.9949 102.87C47.0627 102.574 47.1428 102.284 47.2353 101.988L56.8953 107.536Z" fill="#2E383B"/>
<path d="M56.4579 112.364L46.8163 106.815C46.7451 106.456 46.7039 106.091 46.693 105.724L56.3346 111.279C56.3459 111.643 56.3871 112.006 56.4579 112.364Z" fill="#2E383B"/>
<path d="M56.9941 82.0889C57.1305 82.1355 57.2489 82.2235 57.3327 82.3406C57.4165 82.4578 57.4616 82.5983 57.4616 82.7424C57.4616 82.8865 57.4165 83.0269 57.3327 83.1441C57.2489 83.2613 57.1305 83.3493 56.9941 83.3958L51.8713 86.3549C51.5213 86.5311 51.1349 86.6228 50.7431 86.6228C50.3513 86.6228 49.965 86.5311 49.615 86.3549L44.4922 83.3958C44.3558 83.3493 44.2374 83.2613 44.1536 83.1441C44.0697 83.0269 44.0247 82.8865 44.0247 82.7424C44.0247 82.5983 44.0697 82.4578 44.1536 82.3406C44.2374 82.2235 44.3558 82.1355 44.4922 82.0889L49.615 79.136C49.964 78.9565 50.3507 78.8629 50.7431 78.8629C51.1356 78.8629 51.5223 78.9565 51.8713 79.136L56.9941 82.0889Z" fill="#BBC2C6"/>
<path d="M56.9264 81.8543C57.0599 81.9003 57.1756 81.9868 57.2576 82.1017C57.3396 82.2166 57.3836 82.3543 57.3836 82.4954C57.3836 82.6366 57.3396 82.7742 57.2576 82.8892C57.1756 83.0041 57.0599 83.0906 56.9264 83.1365L51.9022 86.0401C51.558 86.2135 51.1779 86.3039 50.7925 86.3039C50.4071 86.3039 50.0271 86.2135 49.6829 86.0401L44.6587 83.1365C44.5252 83.0906 44.4094 83.0041 44.3275 82.8892C44.2455 82.7742 44.2015 82.6366 44.2015 82.4954C44.2015 82.3543 44.2455 82.2166 44.3275 82.1017C44.4094 81.9868 44.5252 81.9003 44.6587 81.8543L49.6767 78.9569C50.02 78.7806 50.4004 78.6886 50.7864 78.6886C51.1723 78.6886 51.5527 78.7806 51.896 78.9569L56.9264 81.8543Z" fill="#025491"/>
<path d="M90.98 61.9613C91.1164 62.0079 91.2348 62.0959 91.3186 62.2131C91.4024 62.3302 91.4475 62.4707 91.4475 62.6148C91.4475 62.7589 91.4024 62.8993 91.3186 63.0165C91.2348 63.1337 91.1164 63.2217 90.98 63.2682L85.8572 66.2211C85.5074 66.4017 85.1196 66.4959 84.726 66.4959C84.3324 66.4959 83.9445 66.4017 83.5947 66.2211L78.4719 63.2682C78.3355 63.2217 78.2171 63.1337 78.1333 63.0165C78.0495 62.8993 78.0044 62.7589 78.0044 62.6148C78.0044 62.4707 78.0495 62.3302 78.1333 62.2131C78.2171 62.0959 78.3355 62.0079 78.4719 61.9613L83.5824 59.0023C83.9335 58.8261 84.3208 58.7343 84.7136 58.7343C85.1064 58.7343 85.4938 58.8261 85.8448 59.0023L90.98 61.9613Z" fill="#BBC2C6"/>
<path d="M90.8874 61.7267C91.0208 61.7727 91.1366 61.8592 91.2186 61.9741C91.3006 62.089 91.3446 62.2267 91.3446 62.3678C91.3446 62.509 91.3006 62.6466 91.2186 62.7616C91.1366 62.8765 91.0208 62.963 90.8874 63.009L85.8632 65.9063C85.5182 66.0808 85.137 66.1717 84.7505 66.1717C84.3639 66.1717 83.9827 66.0808 83.6377 65.9063L78.6135 63.009C78.4801 62.963 78.3643 62.8765 78.2823 62.7616C78.2004 62.6466 78.1563 62.509 78.1563 62.3678C78.1563 62.2267 78.2004 62.089 78.2823 61.9741C78.3643 61.8592 78.4801 61.7727 78.6135 61.7267L83.6377 58.8231C83.9827 58.6487 84.3639 58.5578 84.7505 58.5578C85.137 58.5578 85.5182 58.6487 85.8632 58.8231L90.8874 61.7267Z" fill="#025491"/>
<path d="M36.0527 69.9746C36.1891 70.0211 36.3075 70.1092 36.3913 70.2263C36.4751 70.3435 36.5202 70.484 36.5202 70.6281C36.5202 70.7722 36.4751 70.9126 36.3913 71.0298C36.3075 71.147 36.1891 71.235 36.0527 71.2815L30.936 74.2406C30.585 74.4168 30.1976 74.5086 29.8048 74.5086C29.412 74.5086 29.0246 74.4168 28.6736 74.2406L23.5507 71.2815C23.4144 71.235 23.296 71.147 23.2122 71.0298C23.1283 70.9126 23.0833 70.7722 23.0833 70.6281C23.0833 70.484 23.1283 70.3435 23.2122 70.2263C23.296 70.1092 23.4144 70.0211 23.5507 69.9746L28.6736 67.0217C29.0233 66.8412 29.4112 66.7469 29.8048 66.7469C30.1984 66.7469 30.5863 66.8412 30.936 67.0217L36.0527 69.9746Z" fill="#BBC2C6"/>
<path d="M35.991 69.7221C36.1244 69.7681 36.2402 69.8546 36.3222 69.9695C36.4041 70.0844 36.4482 70.2221 36.4482 70.3632C36.4482 70.5044 36.4041 70.642 36.3222 70.757C36.2402 70.8719 36.1244 70.9584 35.991 71.0044L30.9667 73.9079C30.6218 74.0824 30.2406 74.1733 29.854 74.1733C29.4674 74.1733 29.0863 74.0824 28.7413 73.9079L23.7171 71.0044C23.5836 70.9584 23.4678 70.8719 23.3859 70.757C23.3039 70.642 23.2599 70.5044 23.2599 70.3632C23.2599 70.2221 23.3039 70.0844 23.3859 69.9695C23.4678 69.8546 23.5836 69.7681 23.7171 69.7221L28.7413 66.8247C29.0863 66.6503 29.4674 66.5594 29.854 66.5594C30.2406 66.5594 30.6218 66.6503 30.9667 66.8247L35.991 69.7221Z" fill="#025491"/>
<path d="M47.7226 9.64761C48.0704 9.45429 48.4656 9.36245 48.863 9.38253C49.4632 9.42627 50.0443 9.61222 50.5583 9.92502C52.2723 11.0367 53.5488 12.7074 54.1708 14.6533C54.8921 16.8664 54.5222 18.7158 53.3756 19.3816L52.0687 20.1461C53.2153 19.4741 53.5852 17.6309 52.8577 15.4116C52.242 13.4657 50.9666 11.7957 49.2514 10.6894C48.7399 10.3712 48.1574 10.1848 47.5561 10.1469C47.1562 10.1215 46.7576 10.2137 46.4095 10.412L47.7226 9.64761Z" fill="url(#paint2_linear_24_34863)"/>
<path d="M49.2511 10.6898C48.7395 10.3716 48.157 10.1852 47.5558 10.1473C45.5584 10.0671 44.6892 12.3049 45.6201 15.1407C46.2378 17.0871 47.5126 18.7585 49.2264 19.869C49.7408 20.1809 50.3217 20.3668 50.9217 20.4115C52.9252 20.4855 53.7883 18.2477 52.8574 15.4119C52.2417 13.4661 50.9662 11.796 49.2511 10.6898Z" fill="#E9A300"/>
<path d="M60.9642 24.4919C61.311 24.2957 61.7069 24.2037 62.1047 24.2269C62.7048 24.2706 63.2859 24.4566 63.8 24.7694C65.5154 25.8795 66.7922 27.5507 67.4125 29.4977C68.1337 31.7108 67.77 33.5602 66.6172 34.226L65.3103 34.9904C66.4569 34.3184 66.8268 32.469 66.0994 30.2559C65.4836 28.31 64.2082 26.64 62.4931 25.5338C61.976 25.2051 61.3845 25.0122 60.7731 24.9728C60.3732 24.9473 59.9746 25.0395 59.6265 25.2379L60.9642 24.4919Z" fill="url(#paint3_linear_24_34863)"/>
<path d="M62.493 25.5337C61.9759 25.205 61.3844 25.0121 60.773 24.9727C58.7757 24.8925 57.9064 27.1303 58.8373 29.9661C59.455 31.9125 60.7298 33.5839 62.4436 34.6944C62.9581 35.0063 63.539 35.1922 64.1389 35.2369C66.1425 35.3108 67.0055 33.0731 66.0746 30.2373C65.4614 28.302 64.1955 26.6395 62.493 25.5337Z" fill="#E9A300"/>
<path d="M42.4888 55.7964C46.5575 53.4477 51.8837 52.2764 57.2162 52.2764C62.5486 52.2764 67.8687 53.4477 71.9374 55.7964C76.0061 58.1451 78.0343 61.1905 78.0343 64.2667V65.8017C78.0343 68.884 76 71.9663 71.9374 74.3027C67.8749 76.6392 62.5425 77.8228 57.2162 77.8228C51.8899 77.8228 46.5575 76.6515 42.4888 74.3027C38.4201 71.954 36.3919 68.8778 36.3919 65.8017V64.2667C36.3919 61.1905 38.4263 58.1143 42.4888 55.7964Z" fill="#B4BBBF"/>
<path d="M57.2162 52.2453C62.5425 52.2453 67.8687 53.4166 71.9374 55.7653C76.0061 58.1141 78.0343 61.1902 78.0343 64.2664C78.0343 67.3426 76 70.4311 71.9374 72.7675C67.8749 75.1039 62.5425 76.2875 57.2162 76.2875C51.8899 76.2875 46.5575 75.1101 42.4888 72.7675C38.4201 70.4249 36.3919 67.3426 36.3919 64.2664C36.3919 61.1902 38.4263 58.1018 42.4888 55.7653C46.5513 53.4289 51.8837 52.2453 57.2162 52.2453Z" fill="#EEF5F9"/>
<path d="M48.1601 55.1798C50.9453 53.6994 54.0624 52.9546 57.216 53.016C60.3677 52.9543 63.4829 53.6991 66.2657 55.1798C68.7316 56.6224 70.0139 58.5149 70.0139 60.4075V63.6255C70.0139 65.518 68.7809 67.4106 66.2657 68.8531C63.4829 70.3338 60.3677 71.0787 57.216 71.0169C54.0624 71.0784 50.9453 70.3336 48.1601 68.8531C45.6634 67.4106 44.412 65.518 44.412 63.6255V60.4075C44.412 58.5088 45.6634 56.6162 48.1601 55.1798Z" fill="url(#paint4_linear_24_34863)"/>
<path d="M47.5189 48.0972C50.5005 46.5095 53.8388 45.7116 57.216 45.7792C60.6013 45.709 63.9482 46.507 66.9377 48.0972C69.6131 49.6445 70.9509 51.6665 70.9509 53.6947V55.4701C70.9509 57.4983 69.6131 59.5265 66.9377 61.0738C63.9545 62.657 60.6173 63.4547 57.2406 63.3917C53.8637 63.4564 50.5262 62.6586 47.5436 61.0738C44.8619 59.5265 43.5242 57.4983 43.5242 55.4701V53.6947C43.5119 51.6665 44.8373 49.6322 47.5189 48.0972Z" fill="#B4BBBF"/>
<path d="M57.216 45.7792C60.6013 45.709 63.9482 46.507 66.9377 48.0972C69.6131 49.6445 70.9509 51.6665 70.9509 53.6947C70.9509 55.7229 69.6131 57.7449 66.9377 59.2922C63.9555 60.8783 60.6176 61.6761 57.2406 61.6101C53.8634 61.6778 50.5251 60.8798 47.5436 59.2922C44.862 57.7449 43.5242 55.7229 43.5242 53.6947C43.5242 51.6665 44.862 49.6445 47.5436 48.0972C50.5178 46.5136 53.8471 45.7158 57.216 45.7792Z" fill="#EEF5F9"/>
<path d="M59.6694 49.9095L60.9825 49.1513L65.4396 34.3314L64.1327 35.0958L59.6694 49.9095Z" fill="#586770"/>
<path d="M64.1327 35.0958L65.4396 34.3314L62.1415 31.3168L60.8346 32.0812L64.1327 35.0958Z" fill="white"/>
<path d="M65.563 34.3435L62.1539 31.2303L60.7052 32.0687L64.1205 35.1818L65.563 34.3435ZM62.1293 31.4091L65.3164 34.3188L64.1389 35.0031L60.958 32.0933L62.1293 31.4091Z" fill="black"/>
<path d="M60.8347 32.0809L56.3714 46.9008L59.6695 49.9091L64.1328 35.0954L60.8347 32.0809Z" fill="#889AA5"/>
<path d="M55.1199 43.2449C55.4667 43.0813 55.851 43.0138 56.2328 43.0496C56.6145 43.0854 56.9796 43.2231 57.2899 43.4484L64.9896 47.8561C65.8813 48.4337 66.6249 49.2127 67.1603 50.1304C67.6957 51.0481 68.0079 52.0787 68.0719 53.1392C68.1128 53.5206 68.0515 53.9059 67.8944 54.2558C67.7374 54.6057 67.4901 54.9075 67.1781 55.1304L59.3181 59.6984C59.6313 59.4763 59.8798 59.1747 60.0379 58.8248C60.1961 58.4749 60.2583 58.0892 60.2181 57.7073C60.1541 56.6467 59.8419 55.6161 59.3065 54.6984C58.7711 53.7807 58.0275 53.0017 57.1358 52.4241L49.4423 48.0102C49.1307 47.7879 48.7658 47.652 48.3847 47.6163C48.0036 47.5806 47.6198 47.6463 47.2723 47.8068L55.1199 43.2449Z" fill="url(#paint5_linear_24_34863)"/>
<path d="M57.1298 52.4243L49.4362 48.0104C47.741 47.0426 46.3539 47.844 46.3539 49.7982C46.4145 50.8595 46.7253 51.8915 47.2611 52.8097C47.7968 53.7279 48.5421 54.5063 49.4362 55.0813L57.1298 59.4952C58.825 60.4631 60.2121 59.6617 60.2121 57.7075C60.1481 56.647 59.8358 55.6163 59.3004 54.6986C58.765 53.781 58.0215 53.0019 57.1298 52.4243Z" fill="#B4BBBF"/>
<path d="M45.4046 17.1129L46.7115 16.3546L46.73 10.868L45.4231 11.6263L45.4046 17.1129Z" fill="white"/>
<path d="M46.7854 16.398V10.8498V10.7204L45.3305 11.5649V17.2241L46.7854 16.398ZM46.6559 10.9978V16.3117L45.497 16.9837V11.6697L46.6559 10.9978Z" fill="black"/>
<path d="M39.7392 7.64418C40.0109 7.51796 40.3115 7.46682 40.6096 7.49609C40.9077 7.52536 41.1926 7.63398 41.4345 7.81063L46.73 10.893L45.4231 11.6512L40.1276 8.56888C39.8845 8.39229 39.5986 8.28377 39.2995 8.25451C39.0004 8.22526 38.6989 8.27631 38.4262 8.40243L39.7392 7.64418Z" fill="#EEF5F9"/>
<path d="M40.1275 8.56893C38.8083 7.81068 37.7356 8.42098 37.7295 9.93749C37.7742 10.7627 38.0129 11.5657 38.4264 12.2813C38.8399 12.9968 39.4164 13.6047 40.109 14.0555L45.4045 17.1378V11.6513L40.1275 8.56893Z" fill="#9BA2A6"/>
<path d="M52.0497 52.5906L53.3628 51.8262L57.8199 37.0063L56.513 37.7707L52.0497 52.5906Z" fill="#586770"/>
<path d="M56.513 37.7703L57.8199 37.0058L54.5218 33.9975L53.2087 34.7557L56.513 37.7703Z" fill="white"/>
<path d="M57.9434 37.0249L54.5343 33.9056L53.0857 34.744L56.5009 37.8633L57.9434 37.0249ZM54.5097 34.0906L57.6907 36.9941L56.5132 37.6784L53.3322 34.7687L54.5097 34.0906Z" fill="black"/>
<path d="M53.209 34.7562L48.7519 49.5761L52.05 52.5906L56.5132 37.7708L53.209 34.7562Z" fill="#889AA5"/>
<path d="M46.3969 10.338C47.149 9.90034 48.1785 10.0113 49.2388 10.6216C49.8661 10.9994 50.4299 11.4737 50.9094 12.0272C51.7121 12.9122 52.3397 13.9414 52.7589 15.0602L46.212 18.8638C45.805 17.7505 45.1923 16.7237 44.4057 15.8369C43.92 15.2809 43.35 14.8045 42.7166 14.4252C41.6501 13.8087 40.6268 13.7039 39.8685 14.1416L46.3969 10.338Z" fill="url(#paint6_linear_24_34863)"/>
<path d="M55.2494 28.9859L61.7963 25.1885L52.7404 15.0599L46.1935 18.8635L55.2494 28.9859Z" fill="#C7D5DC"/>
<path d="M58.8497 38.7999L65.3966 34.9963C65.7296 34.7994 66.0008 34.5133 66.1795 34.1702C67.1227 32.4194 66.272 29.1891 64.2808 26.9575C63.795 26.4033 63.225 25.9289 62.5917 25.552C62.3378 25.4059 62.0717 25.2821 61.7964 25.1821L55.2249 28.9919C55.5016 29.0859 55.7681 29.2077 56.0201 29.3556C56.6521 29.7345 57.2218 30.2086 57.7093 30.7611C59.7004 32.9928 60.5512 36.223 59.608 37.9738C59.436 38.3136 59.1736 38.5995 58.8497 38.7999Z" fill="url(#paint7_linear_24_34863)"/>
<path d="M42.6983 14.4252C41.1942 13.5621 39.7578 13.7039 39.0735 14.9738C38.1303 16.7307 38.981 19.9549 40.9722 22.1865C41.4545 22.7419 42.0227 23.2164 42.6552 23.592C42.9141 23.7409 43.1866 23.8647 43.4689 23.9619L52.5002 34.0658C52.909 35.1851 53.5237 36.218 54.3126 37.1112C54.7995 37.6718 55.3716 38.1523 56.0079 38.5352C57.5059 39.3983 58.9484 39.2565 59.6327 37.9865C60.5759 36.2358 59.7252 33.0055 57.734 30.7739C57.2465 30.2214 56.6768 29.7473 56.0449 29.3683C55.7928 29.2205 55.5263 29.0986 55.2496 29.0046L46.1937 18.8761C45.7868 17.7628 45.174 16.7359 44.3875 15.8492C43.9027 15.2888 43.3326 14.8082 42.6983 14.4252Z" fill="#889AA5"/>
<path d="M48.8815 48.2015C49.1304 48.0595 49.4153 47.993 49.7014 48.0104C50.1381 48.0359 50.5618 48.1694 50.9343 48.3988C52.1678 49.1952 53.0854 50.3962 53.5296 51.7956C54.0536 53.386 53.7885 54.7176 52.9625 55.1923L52.0193 55.7409C52.8454 55.2601 53.1104 53.9347 52.5864 52.3442C52.1466 50.9443 51.2306 49.7426 49.9973 48.9475C49.6244 48.7187 49.201 48.5853 48.7643 48.5591C48.4783 48.5417 48.1933 48.6081 47.9444 48.7502L48.8815 48.2015Z" fill="url(#paint8_linear_24_34863)"/>
<path d="M49.9789 48.9474C49.606 48.7186 49.1826 48.5852 48.7459 48.559C47.3096 48.5035 46.6869 50.1063 47.3589 52.1468C47.8024 53.5448 48.7176 54.7454 49.948 55.5436C50.3226 55.7685 50.7451 55.9016 51.181 55.9319C52.6173 55.9874 53.24 54.3784 52.568 52.3441C52.1282 50.9442 51.2121 49.7425 49.9789 48.9474Z" fill="url(#paint9_linear_24_34863)"/>
<path d="M49.4301 50.2849C49.1975 50.1404 48.9328 50.0557 48.6595 50.0384C47.7595 50.0014 47.3649 51.0185 47.7841 52.3008C48.0653 53.1811 48.6425 53.937 49.4178 54.4399C49.6516 54.5818 49.9156 54.6663 50.1883 54.6865C51.0884 54.7174 51.4829 53.7063 51.0637 52.4241C50.784 51.5431 50.2064 50.7868 49.4301 50.2849Z" fill="#414E52"/>
<path d="M26.2017 1.19L26.1955 3.29832L25.5174 3.6867L25.5236 1.58454L26.2017 1.19Z" fill="#2E383B"/>
<path d="M25.5236 1.58425L25.5174 3.68641L20.1234 2.49662L20.1295 0.39447L25.5236 1.58425Z" fill="#2E383B"/>
<path d="M26.2016 1.18978L25.5235 1.58432L20.1294 0.394539L20.8075 0L26.2016 1.18978Z" fill="#414E52"/>
<path d="M20.0001 4.79605L19.994 6.8982L19.322 7.29275L19.3282 5.18442L20.0001 4.79605Z" fill="#2E383B"/>
<path d="M19.3283 5.18418L19.3221 7.2925L17.2508 4.16701L17.257 2.06485L19.3283 5.18418Z" fill="#2E383B"/>
<path d="M17.9287 1.67667L20 4.79599L19.3281 5.18436L17.2567 2.06503L17.9287 1.67667Z" fill="#414E52"/>
<path d="M40.67 11.337L40.6638 13.4453L36.7123 15.7386L36.7184 13.6303L40.67 11.337Z" fill="#2E383B"/>
<path d="M36.7184 13.6301L36.7123 15.7385L27.9399 10.6649L27.9461 8.56277L36.7184 13.6301Z" fill="#4F5C60"/>
<path d="M40.67 11.3364L36.7185 13.6297L27.9462 8.5623L31.8915 6.26904L40.67 11.3364Z" fill="#758286"/>
<path d="M28.6302 4.74088L28.624 6.00464L27.2431 6.80605L27.2493 5.54229L28.6302 4.74088Z" fill="white"/>
<path d="M28.7164 6.04788V4.63L27.1876 5.51772V6.95409L28.7164 6.04788ZM28.5746 4.87043V5.96158L27.3417 6.67668V5.58553L28.5746 4.87043Z" fill="black"/>
<path d="M27.2493 5.54232L27.2431 6.80608L24.8389 3.81621L24.845 2.55246L27.2493 5.54232Z" fill="#4F5C60"/>
<path d="M26.226 1.75113L28.6302 4.74099L27.2493 5.5424L24.8451 2.55254L26.226 1.75113Z" fill="#758286"/>
<path d="M25.8812 6.22617L25.8751 7.48993L24.4942 8.29134L24.5003 7.02758L25.8812 6.22617Z" fill="white"/>
<path d="M25.9489 7.53305V6.09668L24.42 6.98439V8.42076L25.9489 7.53305ZM25.8071 6.35559V7.44675L24.5741 8.16184V7.09535L25.8071 6.35559Z" fill="black"/>
<path d="M24.5003 7.02792L24.4941 8.29169L19.3281 6.91079L19.3343 5.64703L24.5003 7.02792Z" fill="#4F5C60"/>
<path d="M25.8812 6.22616L24.5003 7.02757L19.3343 5.64668L20.7152 4.84528L25.8812 6.22616Z" fill="#758286"/>
<path d="M31.0532 6.258V7.09639L26.8612 9.53761V8.69304L31.0532 6.258Z" fill="#2E383B"/>
<path d="M26.8613 8.69311V9.53768L22.4228 8.11363V7.26907L26.8613 8.69311Z" fill="#2E383B"/>
<path d="M28.5811 3.68683L31.0532 6.2575L26.8612 8.69254L22.4226 7.2685L28.5811 3.68683Z" fill="#414E52"/>
<path d="M37.7048 8.26074V9.5245L32.7423 12.4096L32.7484 11.1458L37.7048 8.26074Z" fill="#9BA2A6"/>
<path d="M32.7484 11.1456L32.7422 12.4094L26.0474 7.61944V6.35568L32.7484 11.1456Z" fill="#B4BBBF"/>
<path d="M37.7049 8.2607L32.7485 11.1458L26.0475 6.35582L29.4257 4.39545L37.7049 8.2607Z" fill="#EEF5F9"/>
<path d="M39.3446 20.738L40.6516 19.9798L40.67 14.4932L39.357 15.2515L39.3446 20.738Z" fill="#C37D00"/>
<path d="M33.6485 11.2688C33.9213 11.1427 34.2227 11.0916 34.5218 11.1208C34.8209 11.1501 35.1068 11.2586 35.3499 11.4352L40.6392 14.5176L39.3323 15.2758L34.0369 12.1935C33.7949 12.0168 33.5101 11.9082 33.2119 11.8789C32.9138 11.8497 32.6132 11.9008 32.3416 12.027L33.6485 11.2688Z" fill="#EEF5F9"/>
<path d="M34.0617 12.1934C32.7424 11.4351 31.6759 12.0454 31.6698 13.5558C31.712 14.3824 31.9498 15.1872 32.3634 15.9041C32.7771 16.6211 33.3548 17.2296 34.0493 17.6799L39.3448 20.7623V15.2757L34.0617 12.1934Z" fill="#B4BBBF"/>
<path d="M32.9703 14.394C32.9922 14.7932 33.108 15.1816 33.3083 15.5276C33.5086 15.8736 33.7878 16.1675 34.1231 16.3852C34.7396 16.7489 35.2697 16.453 35.2697 15.7256C35.249 15.3268 35.1344 14.9386 34.9351 14.5925C34.7358 14.2465 34.4576 13.9525 34.1231 13.7344C33.4881 13.3707 32.9703 13.6666 32.9703 14.394Z" fill="#414E52"/>
<path d="M39.9056 14.1415C40.2542 13.95 40.6488 13.8583 41.0461 13.8764C41.6462 13.9202 42.2273 14.1061 42.7414 14.4189C44.4552 15.5294 45.73 17.2008 46.3477 19.1472C47.0751 21.3603 46.7052 23.2098 45.5586 23.8817L44.2455 24.6399C45.3983 23.9742 45.7682 22.1248 45.0408 19.9055C44.4225 17.9592 43.1451 16.2893 41.4283 15.1833C40.9158 14.8672 40.3338 14.681 39.733 14.6408C39.3353 14.6177 38.9393 14.7097 38.5925 14.9059L39.9056 14.1415Z" fill="url(#paint10_linear_24_34863)"/>
<path d="M41.4344 15.1834C40.9219 14.8673 40.3399 14.6811 39.7391 14.6409C37.7418 14.5669 36.8787 16.7985 37.8096 19.6343C38.4267 21.5794 39.7018 23.2491 41.4159 24.3564C41.9299 24.6692 42.511 24.8552 43.1112 24.8989C45.1085 24.9729 45.9778 22.7413 45.0469 19.8994C44.4274 17.9553 43.15 16.2878 41.4344 15.1834Z" fill="url(#paint11_linear_24_34863)"/>
<path d="M40.6761 17.0454C40.3522 16.8443 39.9838 16.7258 39.6034 16.7002C38.3705 16.6509 37.7972 18.0626 38.3705 19.8503C38.7605 21.0766 39.5647 22.1292 40.6453 22.8279C40.9673 23.0272 41.3337 23.1437 41.7118 23.1669C42.9447 23.2163 43.518 21.8107 42.9447 20.023C42.5562 18.7976 41.7544 17.7452 40.6761 17.0454Z" fill="#414E52"/>
<path d="M53.3446 29.0847C53.6903 28.8858 54.0871 28.7935 54.485 28.8196C55.0863 28.8575 55.6688 29.0439 56.1803 29.3621C57.8953 30.4699 59.1723 32.1391 59.7928 34.0842C60.5141 36.3035 60.1442 38.1529 58.9976 38.8187L57.6907 39.577C58.8373 38.9112 59.2072 37.0618 58.4798 34.8486C57.862 32.9022 56.5872 31.2308 54.8734 30.1204C54.3594 29.8075 53.7783 29.6216 53.1781 29.5779C52.7785 29.5556 52.3808 29.6475 52.0315 29.8429L53.3446 29.0847Z" fill="url(#paint12_linear_24_34863)"/>
<path d="M54.8735 30.1205C54.3594 29.8077 53.7783 29.6218 53.1782 29.578C51.1808 29.504 50.3116 31.7418 51.2425 34.5776C51.8606 36.5222 53.1354 38.1916 54.8488 39.2997C55.3613 39.6158 55.9433 39.8021 56.5441 39.8422C58.5415 39.9223 59.4107 37.6846 58.4798 34.8488C57.8621 32.9023 56.5873 31.231 54.8735 30.1205Z" fill="url(#paint13_linear_24_34863)"/>
<path d="M54.109 31.9822C53.7843 31.7829 53.4164 31.6645 53.0364 31.637C51.8034 31.5939 51.2363 32.9994 51.8034 34.7872C52.1906 36.0149 52.9954 37.0683 54.0782 37.7647C54.3999 37.9658 54.7662 38.0843 55.1447 38.1099C56.3776 38.1531 56.9509 36.7475 56.3776 34.9598C55.9892 33.7344 55.1873 32.682 54.109 31.9822Z" fill="#414E52"/>
<path d="M49.9848 29.7379L47.0998 26.5138L48.6348 23.6287L51.5137 26.859L49.9848 29.7379Z" fill="#414E52"/>
<g filter="url(#filter0_f_24_34863)">
<path d="M33 103.275C23.4 98.4752 12.3333 93.2752 8 91.2752L10.5 85.2752C21.3333 85.2752 43.2 85.0752 44 84.2752C44.8 83.4752 88 84.6085 109.5 85.2752C112.333 88.2752 116.3 95.5752 109.5 100.775C101 107.275 103 103.275 95 106.775C87 110.275 91 108.775 84.5 112.275C78 115.775 71.5 123.275 68 123.275C64.5 123.275 60.5 121.275 52 116.275C47.5 113.775 45 109.275 33 103.275Z" fill="black" fill-opacity="0.2"/>
</g>
<defs>
<filter id="filter0_f_24_34863" x="0" y="76" width="121.255" height="55.2751" filterUnits="userSpaceOnUse" color-interpolation-filters="sRGB">
<feFlood flood-opacity="0" result="BackgroundImageFix"/>
<feBlend mode="normal" in="SourceGraphic" in2="BackgroundImageFix" result="shape"/>
<feGaussianBlur stdDeviation="4" result="effect1_foregroundBlur_24_34863"/>
</filter>
<linearGradient id="paint0_linear_24_34863" x1="19.0321" y1="89.0054" x2="50.7432" y2="89.0054" gradientUnits="userSpaceOnUse">
<stop stop-color="#478000"/>
<stop offset="1" stop-color="#3A7300"/>
</linearGradient>
<linearGradient id="paint1_linear_24_34863" x1="50.7432" y1="85.0909" x2="95.5111" y2="85.0909" gradientUnits="userSpaceOnUse">
<stop stop-color="#609911"/>
<stop offset="1" stop-color="#538C04"/>
</linearGradient>
<linearGradient id="paint2_linear_24_34863" x1="50.6446" y1="13.2355" x2="53.5235" y2="19.5049" gradientUnits="userSpaceOnUse">
<stop stop-color="#EEF5F9"/>
<stop offset="1" stop-color="#D4DBDF"/>
</linearGradient>
<linearGradient id="paint3_linear_24_34863" x1="63.8863" y1="28.0798" x2="66.7652" y2="34.3493" gradientUnits="userSpaceOnUse">
<stop stop-color="#EEF5F9"/>
<stop offset="1" stop-color="#D4DBDF"/>
</linearGradient>
<linearGradient id="paint4_linear_24_34863" x1="70.0139" y1="62.0103" x2="44.412" y2="62.0103" gradientUnits="userSpaceOnUse">
<stop stop-color="#609911"/>
<stop offset="1" stop-color="#538C04"/>
</linearGradient>
<linearGradient id="paint5_linear_24_34863" x1="58.9667" y1="51.8015" x2="62.9059" y2="58.1511" gradientUnits="userSpaceOnUse">
<stop stop-color="#EEF5F9"/>
<stop offset="1" stop-color="#D4DBDF"/>
</linearGradient>
<linearGradient id="paint6_linear_24_34863" x1="43.5365" y1="9.32086" x2="50.7245" y2="22.8215" gradientUnits="userSpaceOnUse">
<stop stop-color="#C7D5DC"/>
<stop offset="1" stop-color="#586770"/>
</linearGradient>
<linearGradient id="paint7_linear_24_34863" x1="58.1469" y1="27.1671" x2="63.7013" y2="36.223" gradientUnits="userSpaceOnUse">
<stop stop-color="#C7D5DC"/>
<stop offset="1" stop-color="#586770"/>
</linearGradient>
<linearGradient id="paint8_linear_24_34863" x1="50.811" y1="50.4517" x2="53.0919" y2="55.9629" gradientUnits="userSpaceOnUse">
<stop stop-color="#EEF5F9"/>
<stop offset="1" stop-color="#D4DBDF"/>
</linearGradient>
<linearGradient id="paint9_linear_24_34863" x1="47.1" y1="52.2455" x2="52.8393" y2="52.2455" gradientUnits="userSpaceOnUse">
<stop stop-color="#609911"/>
<stop offset="1" stop-color="#538C04"/>
</linearGradient>
<linearGradient id="paint10_linear_24_34863" x1="42.8708" y1="18.352" x2="44.6401" y2="24.2886" gradientUnits="userSpaceOnUse">
<stop stop-color="#EEF5F9"/>
<stop offset="1" stop-color="#D4DBDF"/>
</linearGradient>
<linearGradient id="paint11_linear_24_34863" x1="37.4335" y1="19.7699" x2="45.4168" y2="19.7699" gradientUnits="userSpaceOnUse">
<stop stop-color="#609911"/>
<stop offset="1" stop-color="#538C04"/>
</linearGradient>
<linearGradient id="paint12_linear_24_34863" x1="56.3098" y1="33.289" x2="58.0791" y2="39.2256" gradientUnits="userSpaceOnUse">
<stop stop-color="#EEF5F9"/>
<stop offset="1" stop-color="#D4DBDF"/>
</linearGradient>
<linearGradient id="paint13_linear_24_34863" x1="50.8664" y1="34.7132" x2="58.8559" y2="34.7132" gradientUnits="userSpaceOnUse">
<stop stop-color="#609911"/>
<stop offset="1" stop-color="#538C04"/>
</linearGradient>
</defs>
</svg>
