<svg width="105" height="116" viewBox="0 0 105 116" fill="none" xmlns="http://www.w3.org/2000/svg">
<path d="M61.2891 53.3302L51.6414 47.7204C52.6462 48.306 53.2688 49.5698 53.275 51.3144C53.275 54.8652 50.8091 59.1928 47.7268 60.9744L6.68855 84.6468C5.13505 85.5407 3.72333 85.627 2.70616 85.0352L12.3539 90.6388C13.3711 91.2553 14.7828 91.1505 16.3363 90.2505L57.3437 66.5905C60.426 64.8089 62.9351 60.4751 62.8919 56.9242C62.9166 55.1796 62.2939 53.9467 61.2891 53.3302Z" fill="#151F22"/>
<path d="M60.4816 55.4632C60.4816 51.9062 57.9541 50.476 54.8656 52.2576L13.8828 75.9238C10.8004 77.7054 8.29141 82.033 8.33457 85.5838C8.37772 89.1347 10.8559 90.571 13.9506 88.7895L54.9025 65.1233C57.991 63.3417 60.4877 59.0141 60.4816 55.4632Z" fill="#C0C7CB"/>
<path d="M28.53 79.3824C28.53 77.9583 27.5313 77.385 26.2984 78.094C25.6468 78.5173 25.1044 79.0887 24.7155 79.7615C24.3266 80.4342 24.1022 81.1894 24.0606 81.9654C24.0606 83.3894 25.0655 83.9627 26.2984 83.2538C26.9489 82.8297 27.4901 82.2581 27.8778 81.5853C28.2656 80.9126 28.4891 80.1578 28.53 79.3824Z" fill="#A6ADB1"/>
<path d="M34.3924 75.9975C34.3924 74.5735 33.3876 74.0002 32.1546 74.7091C31.5041 75.1331 30.963 75.7048 30.5752 76.3776C30.1874 77.0503 29.964 77.8051 29.923 78.5805C29.923 80.0046 30.9217 80.584 32.1546 79.8689C32.8063 79.4456 33.3486 78.8742 33.7375 78.2014C34.1264 77.5286 34.3508 76.7735 34.3924 75.9975Z" fill="#A6ADB1"/>
<path d="M40.249 72.6198C40.249 71.1958 39.2504 70.6163 38.0174 71.3252C37.3669 71.7493 36.8258 72.321 36.438 72.9937C36.0502 73.6664 35.8267 74.4212 35.7858 75.1967C35.7858 76.6207 36.7845 77.2002 38.0174 76.4851C38.6671 76.0616 39.2078 75.4909 39.5955 74.8193C39.9832 74.1477 40.2071 73.3942 40.249 72.6198Z" fill="#A6ADB1"/>
<path d="M46.1116 69.2354C46.1116 67.8114 45.113 67.2319 43.8739 67.947C43.2226 68.3717 42.6809 68.9443 42.2931 69.6182C41.9052 70.2921 41.6822 71.0481 41.6422 71.8246C41.6422 73.2486 42.6409 73.8281 43.8739 73.1192C44.5271 72.6946 45.0705 72.1213 45.4595 71.4462C45.8484 70.7711 46.0719 70.0135 46.1116 69.2354Z" fill="#A6ADB1"/>
<path d="M44.0278 62.1088L23.4255 74.0005C22.6493 74.506 22.0036 75.1878 21.5408 75.9901C21.078 76.7925 20.8113 77.6929 20.7624 78.6178C20.7266 78.9469 20.7799 79.2795 20.9165 79.5809C21.0531 79.8823 21.2681 80.1416 21.5391 80.3316L22.2172 80.7262L22.6919 80.9974L22.7597 81.0406L22.8953 81.1145C22.6232 80.9253 22.407 80.6663 22.2693 80.3648C22.1315 80.0633 22.0774 79.7304 22.1124 79.4008C22.1613 78.4766 22.4281 77.5771 22.8909 76.7757C23.3537 75.9744 23.9995 75.2938 24.7756 74.7896L45.3779 62.8918C45.6506 62.695 45.9707 62.5742 46.3053 62.5417C46.64 62.5092 46.9773 62.5662 47.2828 62.7068L45.9266 61.9239C45.6231 61.7793 45.2861 61.7201 44.9515 61.7527C44.617 61.7853 44.2976 61.9084 44.0278 62.1088Z" fill="#EEF5F9"/>
<path d="M45.3781 62.8917L24.7757 74.7895C23.9997 75.2937 23.3539 75.9743 22.8911 76.7757C22.4282 77.5771 22.1615 78.4766 22.1126 79.4007C22.1126 81.1022 23.3455 81.7803 24.7942 80.9295L45.3966 69.0379C46.1719 68.533 46.8172 67.8522 47.2799 67.051C47.7427 66.2497 48.0098 65.3506 48.0597 64.4267C48.0535 62.7253 46.8576 62.041 45.3781 62.8917Z" fill="#CDD4D8"/>
<path d="M59.2671 52.6339L58.589 52.2455C57.5718 51.6291 56.1662 51.7339 54.6066 52.6339C51.5242 54.4155 49.0214 58.7431 49.0584 62.3001C49.0584 64.0632 49.6748 65.3023 50.692 65.888L52.0421 66.677C51.0372 66.0914 50.4146 64.8277 50.4146 63.083C50.4146 59.5322 52.8805 55.2046 55.9936 53.4168C57.5471 52.523 58.9527 52.4367 59.9698 53.0285L59.2671 52.6339Z" fill="#EEF5F9"/>
<path d="M55.9629 53.4165C52.8806 55.2043 50.3716 59.5319 50.3839 63.0828C50.3962 66.6336 52.9237 68.07 56.0061 66.2761C59.0884 64.4821 61.5543 60.173 61.5543 56.6222C61.5543 53.0713 59.0514 51.635 55.9629 53.4165Z" fill="#CDD4D8"/>
<path d="M55.963 55.0936C54.7601 55.8757 53.7594 56.9313 53.0426 58.1742C52.3258 59.417 51.9133 60.8119 51.8388 62.2447C51.8388 64.8708 53.6882 65.9435 55.9938 64.6119C57.1946 63.8276 58.1937 62.7715 58.9102 61.5291C59.6268 60.2867 60.0405 58.893 60.118 57.4609C60.1118 54.8347 58.2501 53.7744 55.963 55.0936Z" fill="#B4BBBF"/>
<path d="M55.9629 55.6357C54.8987 56.3278 54.0129 57.2614 53.3777 58.3604C52.7424 59.4595 52.3757 60.6931 52.3072 61.9607C52.3072 64.2847 53.9655 65.2279 56.006 64.0566C57.073 63.364 57.961 62.4288 58.5974 61.3274C59.2338 60.226 59.6006 58.9896 59.6679 57.7194C59.6432 55.4014 57.9911 54.4644 55.9629 55.6357Z" fill="#CDD4D8"/>
<path d="M18.4508 75.5849L17.7789 75.1903C16.7617 74.5739 15.35 74.6848 13.7965 75.5787C10.7141 77.3665 8.20511 81.6941 8.21744 85.2449C8.21744 87.008 8.83391 88.2533 9.85108 88.8389L11.2011 89.6219C10.1963 89.0362 9.57367 87.7724 9.5675 86.034C9.5675 82.477 12.0334 78.1494 15.1465 76.3678C16.7 75.4678 18.1117 75.3876 19.1289 75.9794L18.4508 75.5849Z" fill="#EEF5F9"/>
<path d="M15.1465 76.3676C12.0642 78.1492 9.55515 82.4768 9.56748 86.0338C9.57981 89.5909 12.0888 91.0149 15.1835 89.2333C18.2782 87.4517 20.7749 83.118 20.7625 79.5671C20.7502 76.0162 18.235 74.5799 15.1465 76.3676Z" fill="#CDD4D8"/>
<path d="M15.1526 78.0388C13.95 78.8217 12.9491 79.8773 12.2314 81.1199C11.5137 82.3625 11.0995 83.757 11.0223 85.1899C11.0223 87.816 12.8717 88.8887 15.1773 87.5571C16.3801 86.776 17.3813 85.7215 18.0991 84.4799C18.8169 83.2382 19.231 81.8444 19.3076 80.4122C19.2953 77.7799 17.4397 76.7196 15.1526 78.0388Z" fill="#B4BBBF"/>
<path d="M15.1527 78.6059C14.0866 79.2988 13.1995 80.2342 12.5642 81.3357C11.9288 82.4371 11.5631 83.6733 11.4971 84.9432C11.4971 87.2734 13.1492 88.2105 15.1959 87.0392C16.2616 86.3472 17.1484 85.4129 17.7838 84.3125C18.4191 83.2121 18.785 81.977 18.8515 80.7081C18.8269 78.3531 17.1686 77.4099 15.1527 78.6059Z" fill="#CDD4D8"/>
<path d="M52.4181 46.3892C51.1851 45.6802 49.5145 45.7727 47.6528 46.8515L6.68851 70.5116C2.98971 72.6445 -0.000164032 77.8352 0.0121689 82.0765C0.0121689 84.191 0.764263 85.6767 1.97254 86.3918L11.6203 91.9831C10.3873 91.2804 9.66606 89.7947 9.65989 87.6679C9.65989 83.4204 12.6436 78.2359 16.3362 76.1029L57.3005 52.4614C59.1499 51.3887 60.8514 51.2901 62.0658 51.999L52.4181 46.3892Z" fill="#414E52"/>
<path d="M64.0201 56.2892C64.0201 60.5367 61.0364 65.7212 57.3437 67.8542L16.3548 91.5142C12.656 93.6534 9.64763 91.9334 9.6353 87.6859C9.62297 83.4385 12.619 78.254 16.3116 76.121L57.3006 52.461C60.9994 50.328 64.0201 52.0418 64.0201 56.2892ZM62.9166 56.9057C62.9166 53.3548 60.3891 51.9246 57.3006 53.7062L16.324 77.3724C13.2416 79.1602 10.7326 83.4878 10.7758 87.0386C10.8189 90.5895 13.3033 92.0259 16.3918 90.2381L57.3437 66.5904C60.4322 64.8088 62.9351 60.475 62.9228 56.9242L62.9166 56.9057Z" fill="#2E383B"/>
<path d="M59.2302 51.6723C58.8478 51.7642 58.4744 51.89 58.1144 52.0483L48.4297 46.4569C48.7857 46.2978 49.1549 46.1699 49.5331 46.0747L59.2302 51.6723Z" fill="#2E383B"/>
<path d="M55.4389 53.5401L54.5512 54.0518L44.8727 48.4604L45.7542 47.9487L55.4389 53.5401Z" fill="#2E383B"/>
<path d="M51.9186 55.5684L51.037 56.0801L41.3523 50.4888L42.24 49.9771L51.9186 55.5684Z" fill="#2E383B"/>
<path d="M48.4049 57.5968L47.5234 58.1084L37.8387 52.5171L38.7264 52.0054L48.4049 57.5968Z" fill="#2E383B"/>
<path d="M44.8908 59.6243L44.0031 60.1359L34.3246 54.5507L35.2123 54.0391L44.8908 59.6243Z" fill="#2E383B"/>
<path d="M41.3772 61.653L40.4895 62.1647L30.8109 56.5795L31.6986 56.0678L41.3772 61.653Z" fill="#2E383B"/>
<path d="M37.8633 63.6809L36.9756 64.1926L27.297 58.6074L28.1847 58.0957L37.8633 63.6809Z" fill="#2E383B"/>
<path d="M34.3494 65.7092L33.4617 66.2209L23.7831 60.6357L24.6709 60.1241L34.3494 65.7092Z" fill="#2E383B"/>
<path d="M30.8295 67.7438L29.948 68.2493L20.2694 62.6641L21.151 62.1524L30.8295 67.7438Z" fill="#2E383B"/>
<path d="M27.3156 69.7717L26.4341 70.2834L16.7555 64.692L17.6371 64.1865L27.3156 69.7717Z" fill="#2E383B"/>
<path d="M23.8015 71.8L22.92 72.3116L13.2414 66.7203L14.123 66.2086L23.8015 71.8Z" fill="#2E383B"/>
<path d="M20.2876 73.8279L19.4061 74.3395L9.72755 68.7482L10.6091 68.2365L20.2876 73.8279Z" fill="#2E383B"/>
<path d="M16.774 75.8563L16.324 76.1213C16.1822 76.2015 16.0404 76.2878 15.9048 76.3803L6.22622 70.7889L6.67008 70.5115L7.09545 70.2711L16.774 75.8563Z" fill="#2E383B"/>
<path d="M13.7716 78.1806C13.562 78.3963 13.3586 78.6183 13.1551 78.8525L3.48277 73.3043C3.68004 73.0701 3.87731 72.842 4.09924 72.6262L13.7716 78.1806Z" fill="#2E383B"/>
<path d="M11.6202 81.0163C11.4661 81.269 11.3243 81.5279 11.1887 81.793L1.52865 76.214C1.65811 75.9489 1.80606 75.69 1.95402 75.4372L11.6202 81.0163Z" fill="#2E383B"/>
<path d="M10.2085 84.2406C10.116 84.5365 10.0359 84.8262 9.96809 85.1221L0.308032 79.5431C0.375843 79.2534 0.455984 78.9575 0.548454 78.6677L10.2085 84.2406Z" fill="#2E383B"/>
<path d="M9.77105 89.0857L0.123334 83.5375C0.0582056 83.1769 0.0170097 82.8124 3.24249e-05 82.4464L9.65392 87.9946C9.65978 88.3611 9.69898 88.7263 9.77105 89.0857Z" fill="#2E383B"/>
<path d="M44.7432 88.3457V101.988L13.0321 83.9627V70.3141L44.7432 88.3457Z" fill="#B4BBBF"/>
<path d="M44.7432 94.0543V101.988L13.0321 83.9627V76.0226L44.7432 94.0543Z" fill="url(#paint0_linear_24_38225)"/>
<path d="M89.511 76.1398L44.7432 101.988V88.3459L89.511 62.4974V76.1398Z" fill="#CDD4D8"/>
<path d="M89.511 76.1398L44.7432 101.988V94.042L89.511 68.1935V76.1398Z" fill="url(#paint1_linear_24_38225)"/>
<path d="M89.511 62.4971L44.7432 88.3456L13.0321 70.3139L57.7999 44.4655L89.511 62.4971Z" fill="#EEF5F9"/>
<path d="M101.97 76.633L92.322 71.0294C93.3269 71.6088 93.9495 72.8788 93.9557 74.6172C93.9557 78.1681 91.4898 82.4957 88.4075 84.2834L47.3754 107.943C45.8219 108.843 44.4102 108.924 43.393 108.332L53.0407 113.942C54.0641 114.558 55.4696 114.447 57.0231 113.553L98.0244 89.8871C101.107 88.1055 103.616 83.7779 103.573 80.2271C103.603 78.4578 102.981 77.2187 101.97 76.633Z" fill="#151F22"/>
<path d="M101.162 78.76C101.162 75.2092 98.6408 73.7728 95.5461 75.5606L54.5634 99.2206C51.481 101.008 48.9782 105.336 49.0152 108.887C49.0521 112.438 51.5427 113.868 54.6312 112.086L95.5831 88.4262C98.6716 86.62 101.174 82.3047 101.162 78.76Z" fill="#C0C7CB"/>
<path d="M69.2169 102.685C69.2169 101.261 68.212 100.681 66.9791 101.39C66.3286 101.814 65.7874 102.386 65.3996 103.059C65.0118 103.731 64.7884 104.486 64.7475 105.262C64.7475 106.686 65.7461 107.265 66.9791 106.55C67.6299 106.127 68.1718 105.557 68.5606 104.885C68.9494 104.214 69.1743 103.46 69.2169 102.685Z" fill="#A6ADB1"/>
<path d="M75.0735 99.3003C75.0735 97.8763 74.0748 97.2968 72.8419 98.0119C72.191 98.4347 71.6492 99.005 71.2603 99.6767C70.8715 100.348 70.6466 101.102 70.6041 101.877C70.6041 103.301 71.6089 103.881 72.8419 103.166C73.4915 102.742 74.0322 102.171 74.4199 101.5C74.8077 100.828 75.0316 100.075 75.0735 99.3003Z" fill="#A6ADB1"/>
<path d="M80.9359 95.9164C80.9359 94.4923 79.931 93.9129 78.6981 94.628C78.0484 95.0514 77.5077 95.6221 77.12 96.2937C76.7323 96.9653 76.5084 97.7189 76.4665 98.4932C76.4665 99.9234 77.4651 100.497 78.6981 99.7878C79.3497 99.3644 79.8921 98.7931 80.281 98.1203C80.6698 97.4475 80.8942 96.6924 80.9359 95.9164Z" fill="#A6ADB1"/>
<path d="M86.7925 92.5315C86.7925 91.1075 85.7938 90.528 84.5609 91.2431C83.9104 91.6672 83.3692 92.2388 82.9814 92.9116C82.5936 93.5843 82.3702 94.3391 82.3293 95.1145C82.3293 96.5386 83.3279 97.1119 84.5609 96.4029C85.2114 95.9789 85.7525 95.4072 86.1403 94.7345C86.5281 94.0617 86.7515 93.3069 86.7925 92.5315Z" fill="#A6ADB1"/>
<path d="M84.7148 85.3871L64.1125 97.2849C63.3338 97.7883 62.6858 98.4694 62.2217 99.2721C61.7577 100.075 61.4908 100.976 61.4432 101.902C61.412 102.231 61.4679 102.563 61.6054 102.864C61.7428 103.165 61.9568 103.424 62.2261 103.616L62.8981 104.004L63.3727 104.282L63.4405 104.319L63.5762 104.399C63.3082 104.21 63.0944 103.954 62.9559 103.656C62.8175 103.359 62.7593 103.031 62.7871 102.704C62.8372 101.778 63.1051 100.878 63.5689 100.075C64.0327 99.273 64.6794 98.5915 65.4564 98.0863L86.0649 86.1947C86.3358 85.9969 86.6546 85.8749 86.9883 85.8413C87.3221 85.8077 87.6587 85.8637 87.9636 86.0036L86.6136 85.2206C86.3108 85.0773 85.9753 85.0172 85.6416 85.0464C85.3079 85.0757 84.988 85.1933 84.7148 85.3871Z" fill="#EEF5F9"/>
<path d="M86.0651 86.1943L65.4627 98.086C64.6846 98.5905 64.0367 99.2717 63.5718 100.074C63.1069 100.876 62.838 101.777 62.7873 102.703C62.7873 104.399 64.0202 105.083 65.4751 104.232L86.0774 92.3343C86.8528 91.8294 87.498 91.1486 87.9608 90.3474C88.4235 89.5462 88.6907 88.647 88.7406 87.7231C88.7406 86.0032 87.5384 85.3374 86.0651 86.1943Z" fill="#CDD4D8"/>
<path d="M99.948 75.936L99.276 75.5229C98.2588 74.9065 96.8471 75.0174 95.2936 75.9113C92.2113 77.6991 89.7023 82.0267 89.7146 85.5775C89.7146 87.3406 90.3311 88.5859 91.3482 89.1715L92.6983 89.9544C91.6935 89.3688 91.0708 88.105 91.0647 86.3604C91.0647 82.8096 93.5305 78.482 96.6129 76.7004C98.1664 75.8003 99.5781 75.714 100.595 76.3058L99.948 75.936Z" fill="#EEF5F9"/>
<path d="M96.6436 76.719C93.5612 78.5006 91.0522 82.8282 91.0954 86.3791C91.1385 89.9299 93.6106 91.3663 96.6929 89.5847C99.7752 87.8031 102.241 83.4694 102.241 79.9185C102.241 76.3676 99.7321 74.9066 96.6436 76.719Z" fill="#CDD4D8"/>
<path d="M96.6497 78.3901C95.4464 79.1722 94.445 80.2277 93.7273 81.4704C93.0095 82.7131 92.5956 84.108 92.5194 85.5411C92.5194 88.1672 94.3688 89.2399 96.6744 87.9083C97.8775 87.128 98.8785 86.0736 99.5954 84.8316C100.312 83.5897 100.725 82.1955 100.799 80.7635C100.792 78.1311 98.9368 77.0708 96.6497 78.3901Z" fill="#B4BBBF"/>
<path d="M96.6498 78.932C95.5812 79.6223 94.6923 80.5572 94.0566 81.6592C93.4209 82.7611 93.0567 83.9986 92.9941 85.2693C92.9941 87.5995 94.6462 88.5366 96.6929 87.3653C97.7545 86.6705 98.6372 85.7351 99.2692 84.635C99.9012 83.5349 100.265 82.3012 100.33 81.0342C100.324 78.7039 98.6779 77.7607 96.6498 78.932Z" fill="#CDD4D8"/>
<path d="M59.1376 98.8817L58.4595 98.4871C57.4423 97.9015 56.0306 97.9816 54.4771 98.8817C51.3948 100.663 48.8919 104.991 48.9289 108.548C48.9289 110.311 49.5453 111.55 50.5625 112.136L51.9126 112.919C50.9077 112.339 50.2851 111.069 50.2789 109.331C50.2789 105.78 52.7448 101.452 55.8272 99.6646C57.3868 98.7645 58.7924 98.6844 59.8095 99.2762L59.1376 98.8817Z" fill="#EEF5F9"/>
<path d="M55.8271 99.6642C52.7447 101.452 50.2419 105.78 50.2789 109.33C50.3159 112.881 52.8064 114.318 55.8949 112.53C58.9834 110.742 61.4862 106.421 61.4431 102.87C61.3999 99.319 58.9217 97.8826 55.8271 99.6642Z" fill="#CDD4D8"/>
<path d="M55.8333 101.341C54.627 102.121 53.6227 103.176 52.9026 104.419C52.1825 105.662 51.7672 107.057 51.6906 108.492C51.6906 111.118 53.54 112.191 55.8456 110.853C57.047 110.071 58.0467 109.016 58.7633 107.774C59.48 106.533 59.8933 105.14 59.9698 103.708C59.9821 101.082 58.1204 100.022 55.8333 101.341Z" fill="#B4BBBF"/>
<path d="M55.8334 101.877C54.7714 102.57 53.8872 103.503 53.2521 104.601C52.6171 105.699 52.2491 106.93 52.1777 108.196C52.1777 110.526 53.8299 111.47 55.8765 110.298C56.9435 109.606 57.8315 108.671 58.4679 107.569C59.1043 106.468 59.4711 105.231 59.5384 103.961C59.5137 101.649 57.8554 100.706 55.8334 101.877Z" fill="#CDD4D8"/>
<path d="M93.1049 69.6915C91.872 68.9825 90.1952 69.075 88.3396 70.1538L47.3753 93.8139C43.6765 95.9468 40.6867 101.131 40.699 105.379C40.699 107.487 41.4511 108.973 42.6532 109.694L52.3071 115.279C51.105 114.583 50.359 113.097 50.3529 110.964C50.3529 106.723 53.3366 101.532 57.0292 99.3991L97.9873 75.7575C99.8367 74.6849 101.532 74.5862 102.753 75.2952L93.1049 69.6915Z" fill="#414E52"/>
<path d="M104.707 79.586C104.707 83.8335 101.723 89.0241 98.0306 91.1571L57.0478 114.817C53.349 116.95 50.3406 115.23 50.3283 110.983C50.316 106.735 53.312 101.551 57.0046 99.4178L97.9874 75.7578C101.68 73.6248 104.707 75.3447 104.707 79.586ZM103.603 80.2025C103.603 76.6455 101.082 75.2153 97.9874 76.9969L57.0046 100.663C53.9223 102.445 51.4194 106.772 51.4256 110.323C51.4318 113.874 53.9531 115.31 57.0416 113.529L98.0244 89.8872C101.119 88.1056 103.616 83.778 103.603 80.2272V80.2025Z" fill="#2E383B"/>
<path d="M99.9108 74.9688C99.5277 75.061 99.1542 75.189 98.795 75.351L89.1103 69.7597C89.4683 69.5985 89.8396 69.4686 90.2199 69.3713L99.9108 74.9688Z" fill="#2E383B"/>
<path d="M96.1195 76.8367L95.2318 77.3484L85.5533 71.757L86.441 71.2515L96.1195 76.8367Z" fill="#2E383B"/>
<path d="M92.6054 78.8646L91.7177 79.3763L82.0392 73.7849L82.9207 73.2794L92.6054 78.8646Z" fill="#2E383B"/>
<path d="M89.0918 80.8925L88.2041 81.4042L78.5255 75.819L79.4071 75.3073L89.0918 80.8925Z" fill="#2E383B"/>
<path d="M85.5717 82.9208L84.6901 83.4325L75.0116 77.8473L75.8931 77.3356L85.5717 82.9208Z" fill="#2E383B"/>
<path d="M82.058 84.9549L81.1765 85.4666L71.4979 79.8752L72.3795 79.3635L82.058 84.9549Z" fill="#2E383B"/>
<path d="M78.5441 86.9836L77.6564 87.4953L67.9779 81.904L68.8656 81.3923L78.5441 86.9836Z" fill="#2E383B"/>
<path d="M75.0362 89.0115L74.1485 89.5232L64.47 83.9318L65.3515 83.4202L75.0362 89.0115Z" fill="#2E383B"/>
<path d="M71.5161 91.0395L70.6346 91.5512L60.9499 85.9598L61.8376 85.4543L71.5161 91.0395Z" fill="#2E383B"/>
<path d="M68.0022 93.0682L67.1145 93.5799L57.4422 87.9947L58.3175 87.483L68.0022 93.0682Z" fill="#2E383B"/>
<path d="M64.4886 95.0961L63.6009 95.6078L53.9223 90.0164L54.81 89.5109L64.4886 95.0961Z" fill="#2E383B"/>
<path d="M60.9747 97.1306L60.087 97.6423L50.4084 92.0509L51.2962 91.5393L60.9747 97.1306Z" fill="#2E383B"/>
<path d="M57.4608 99.159L57.0046 99.4179C56.8628 99.498 56.7211 99.5843 56.5854 99.6768L46.9069 94.0916C47.0548 93.993 47.2028 93.9005 47.3569 93.8142L47.7823 93.5676L57.4608 99.159Z" fill="#2E383B"/>
<path d="M54.4522 101.476C54.2426 101.692 54.0454 101.92 53.8358 102.148L44.1696 96.5694C44.3668 96.3351 44.5641 96.107 44.786 95.8913L54.4522 101.476Z" fill="#2E383B"/>
<path d="M52.3073 104.313C52.1593 104.571 52.0175 104.824 51.8819 105.089L42.2219 99.5411C42.3513 99.276 42.4931 99.0171 42.6411 98.7644L52.3073 104.313Z" fill="#2E383B"/>
<path d="M50.8953 107.536C50.7967 107.832 50.7166 108.153 50.6488 108.418L40.9949 102.87C41.0627 102.574 41.1428 102.284 41.2353 101.988L50.8953 107.536Z" fill="#2E383B"/>
<path d="M50.4579 112.364L40.8163 106.815C40.7451 106.456 40.7039 106.091 40.693 105.724L50.3346 111.279C50.3459 111.643 50.3871 112.006 50.4579 112.364Z" fill="#2E383B"/>
<path d="M50.9941 82.0889C51.1305 82.1355 51.2489 82.2235 51.3327 82.3406C51.4166 82.4578 51.4616 82.5983 51.4616 82.7424C51.4616 82.8865 51.4166 83.0269 51.3327 83.1441C51.2489 83.2613 51.1305 83.3493 50.9941 83.3958L45.8713 86.3549C45.5213 86.5311 45.135 86.6228 44.7432 86.6228C44.3513 86.6228 43.965 86.5311 43.615 86.3549L38.4922 83.3958C38.3558 83.3493 38.2374 83.2613 38.1536 83.1441C38.0698 83.0269 38.0247 82.8865 38.0247 82.7424C38.0247 82.5983 38.0698 82.4578 38.1536 82.3406C38.2374 82.2235 38.3558 82.1355 38.4922 82.0889L43.615 79.136C43.964 78.9565 44.3507 78.8629 44.7432 78.8629C45.1356 78.8629 45.5223 78.9565 45.8713 79.136L50.9941 82.0889Z" fill="#BBC2C6"/>
<path d="M50.9264 81.8543C51.0598 81.9003 51.1756 81.9868 51.2576 82.1017C51.3395 82.2166 51.3836 82.3543 51.3836 82.4954C51.3836 82.6366 51.3395 82.7742 51.2576 82.8892C51.1756 83.0041 51.0598 83.0906 50.9264 83.1365L45.9021 86.0401C45.558 86.2135 45.1779 86.3039 44.7925 86.3039C44.4071 86.3039 44.027 86.2135 43.6829 86.0401L38.6587 83.1365C38.5252 83.0906 38.4094 83.0041 38.3274 82.8892C38.2455 82.7742 38.2014 82.6366 38.2014 82.4954C38.2014 82.3543 38.2455 82.2166 38.3274 82.1017C38.4094 81.9868 38.5252 81.9003 38.6587 81.8543L43.6767 78.9569C44.02 78.7806 44.4004 78.6886 44.7863 78.6886C45.1723 78.6886 45.5527 78.7806 45.896 78.9569L50.9264 81.8543Z" fill="#025491"/>
<path d="M84.98 61.9613C85.1164 62.0079 85.2348 62.0959 85.3186 62.2131C85.4024 62.3302 85.4475 62.4707 85.4475 62.6148C85.4475 62.7589 85.4024 62.8993 85.3186 63.0165C85.2348 63.1337 85.1164 63.2217 84.98 63.2682L79.8572 66.2211C79.5074 66.4017 79.1195 66.4959 78.7259 66.4959C78.3323 66.4959 77.9445 66.4017 77.5947 66.2211L72.4719 63.2682C72.3355 63.2217 72.2171 63.1337 72.1333 63.0165C72.0495 62.8993 72.0044 62.7589 72.0044 62.6148C72.0044 62.4707 72.0495 62.3302 72.1333 62.2131C72.2171 62.0959 72.3355 62.0079 72.4719 61.9613L77.5824 59.0023C77.9334 58.8261 78.3208 58.7343 78.7136 58.7343C79.1064 58.7343 79.4938 58.8261 79.8448 59.0023L84.98 61.9613Z" fill="#BBC2C6"/>
<path d="M84.8874 61.7267C85.0209 61.7727 85.1367 61.8592 85.2186 61.9741C85.3006 62.089 85.3446 62.2267 85.3446 62.3678C85.3446 62.509 85.3006 62.6466 85.2186 62.7616C85.1367 62.8765 85.0209 62.963 84.8874 63.009L79.8632 65.9063C79.5182 66.0808 79.137 66.1717 78.7505 66.1717C78.3639 66.1717 77.9827 66.0808 77.6377 65.9063L72.6135 63.009C72.4801 62.963 72.3643 62.8765 72.2823 62.7616C72.2004 62.6466 72.1563 62.509 72.1563 62.3678C72.1563 62.2267 72.2004 62.089 72.2823 61.9741C72.3643 61.8592 72.4801 61.7727 72.6135 61.7267L77.6377 58.8231C77.9827 58.6487 78.3639 58.5578 78.7505 58.5578C79.137 58.5578 79.5182 58.6487 79.8632 58.8231L84.8874 61.7267Z" fill="#025491"/>
<path d="M30.0527 69.9746C30.1891 70.0211 30.3075 70.1092 30.3913 70.2263C30.4751 70.3435 30.5202 70.484 30.5202 70.6281C30.5202 70.7722 30.4751 70.9126 30.3913 71.0298C30.3075 71.147 30.1891 71.235 30.0527 71.2815L24.936 74.2406C24.585 74.4168 24.1976 74.5086 23.8048 74.5086C23.412 74.5086 23.0247 74.4168 22.6736 74.2406L17.5508 71.2815C17.4144 71.235 17.296 71.147 17.2122 71.0298C17.1283 70.9126 17.0833 70.7722 17.0833 70.6281C17.0833 70.484 17.1283 70.3435 17.2122 70.2263C17.296 70.1092 17.4144 70.0211 17.5508 69.9746L22.6736 67.0217C23.0233 66.8412 23.4112 66.7469 23.8048 66.7469C24.1984 66.7469 24.5863 66.8412 24.936 67.0217L30.0527 69.9746Z" fill="#BBC2C6"/>
<path d="M29.9909 69.7221C30.1244 69.7681 30.2402 69.8546 30.3221 69.9695C30.4041 70.0844 30.4482 70.2221 30.4482 70.3632C30.4482 70.5044 30.4041 70.642 30.3221 70.757C30.2402 70.8719 30.1244 70.9584 29.9909 71.0044L24.9667 73.9079C24.6217 74.0824 24.2406 74.1733 23.854 74.1733C23.4674 74.1733 23.0863 74.0824 22.7413 73.9079L17.7171 71.0044C17.5836 70.9584 17.4678 70.8719 17.3859 70.757C17.3039 70.642 17.2599 70.5044 17.2599 70.3632C17.2599 70.2221 17.3039 70.0844 17.3859 69.9695C17.4678 69.8546 17.5836 69.7681 17.7171 69.7221L22.7413 66.8247C23.0863 66.6503 23.4674 66.5594 23.854 66.5594C24.2406 66.5594 24.6217 66.6503 24.9667 66.8247L29.9909 69.7221Z" fill="#025491"/>
<path d="M41.7225 9.64761C42.0704 9.45429 42.4655 9.36245 42.863 9.38253C43.4632 9.42627 44.0443 9.61222 44.5583 9.92502C46.2723 11.0367 47.5487 12.7074 48.1708 14.6533C48.8921 16.8664 48.5222 18.7158 47.3756 19.3816L46.0686 20.1461C47.2153 19.4741 47.5852 17.6309 46.8577 15.4116C46.242 13.4657 44.9666 11.7957 43.2514 10.6894C42.7398 10.3712 42.1574 10.1848 41.5561 10.1469C41.1562 10.1215 40.7576 10.2137 40.4095 10.412L41.7225 9.64761Z" fill="url(#paint2_linear_24_38225)"/>
<path d="M43.2511 10.6898C42.7395 10.3716 42.1571 10.1852 41.5558 10.1473C39.5585 10.0671 38.6892 12.3049 39.6201 15.1407C40.2378 17.0871 41.5126 18.7585 43.2264 19.869C43.7409 20.1809 44.3218 20.3668 44.9217 20.4115C46.9252 20.4855 47.7883 18.2477 46.8574 15.4119C46.2417 13.4661 44.9663 11.796 43.2511 10.6898Z" fill="#E9A300"/>
<path d="M54.9642 24.4919C55.311 24.2957 55.707 24.2037 56.1047 24.2269C56.7048 24.2706 57.2859 24.4566 57.8 24.7694C59.5154 25.8795 60.7923 27.5507 61.4125 29.4977C62.1337 31.7108 61.77 33.5602 60.6172 34.226L59.3103 34.9904C60.457 34.3184 60.8268 32.469 60.0994 30.2559C59.4837 28.31 58.2082 26.64 56.4931 25.5338C55.976 25.2051 55.3845 25.0122 54.7731 24.9728C54.3732 24.9473 53.9746 25.0395 53.6265 25.2379L54.9642 24.4919Z" fill="url(#paint3_linear_24_38225)"/>
<path d="M56.493 25.5337C55.9759 25.205 55.3844 25.0121 54.773 24.9727C52.7757 24.8925 51.9064 27.1303 52.8373 29.9661C53.455 31.9125 54.7298 33.5839 56.4436 34.6944C56.9581 35.0063 57.539 35.1922 58.1389 35.2369C60.1424 35.3108 61.0055 33.0731 60.0746 30.2373C59.4614 28.302 58.1955 26.6395 56.493 25.5337Z" fill="#E9A300"/>
<path d="M36.4888 55.7964C40.5575 53.4477 45.8837 52.2764 51.2162 52.2764C56.5486 52.2764 61.8687 53.4477 65.9374 55.7964C70.0061 58.1451 72.0343 61.1905 72.0343 64.2667V65.8017C72.0343 68.884 70 71.9663 65.9374 74.3027C61.8749 76.6392 56.5425 77.8228 51.2162 77.8228C45.8899 77.8228 40.5575 76.6515 36.4888 74.3027C32.4201 71.954 30.3919 68.8778 30.3919 65.8017V64.2667C30.3919 61.1905 32.4263 58.1143 36.4888 55.7964Z" fill="#B4BBBF"/>
<path d="M51.2162 52.2453C56.5425 52.2453 61.8687 53.4166 65.9374 55.7653C70.0061 58.1141 72.0343 61.1902 72.0343 64.2664C72.0343 67.3426 70 70.4311 65.9374 72.7675C61.8749 75.1039 56.5425 76.2875 51.2162 76.2875C45.8899 76.2875 40.5575 75.1101 36.4888 72.7675C32.4201 70.4249 30.3919 67.3426 30.3919 64.2664C30.3919 61.1902 32.4263 58.1018 36.4888 55.7653C40.5513 53.4289 45.8837 52.2453 51.2162 52.2453Z" fill="#EEF5F9"/>
<path d="M42.1601 55.1798C44.9453 53.6994 48.0624 52.9546 51.216 53.016C54.3677 52.9543 57.4829 53.6991 60.2658 55.1798C62.7316 56.6224 64.0139 58.5149 64.0139 60.4075V63.6255C64.0139 65.518 62.7809 67.4106 60.2658 68.8531C57.4829 70.3338 54.3677 71.0787 51.216 71.0169C48.0624 71.0784 44.9453 70.3336 42.1601 68.8531C39.6634 67.4106 38.412 65.518 38.412 63.6255V60.4075C38.412 58.5088 39.6634 56.6162 42.1601 55.1798Z" fill="url(#paint4_linear_24_38225)"/>
<path d="M41.5189 48.0972C44.5005 46.5095 47.8388 45.7116 51.216 45.7792C54.6013 45.709 57.9482 46.507 60.9377 48.0972C63.6131 49.6445 64.9509 51.6665 64.9509 53.6947V55.4701C64.9509 57.4983 63.6131 59.5265 60.9377 61.0738C57.9545 62.657 54.6173 63.4547 51.2406 63.3917C47.8638 63.4564 44.5262 62.6586 41.5436 61.0738C38.862 59.5265 37.5242 57.4983 37.5242 55.4701V53.6947C37.5119 51.6665 38.8373 49.6322 41.5189 48.0972Z" fill="#B4BBBF"/>
<path d="M51.216 45.7792C54.6013 45.709 57.9482 46.507 60.9377 48.0972C63.6131 49.6445 64.9509 51.6665 64.9509 53.6947C64.9509 55.7229 63.6131 57.7449 60.9377 59.2922C57.9556 60.8783 54.6177 61.6761 51.2406 61.6101C47.8634 61.6778 44.5251 60.8798 41.5436 59.2922C38.862 57.7449 37.5242 55.7229 37.5242 53.6947C37.5242 51.6665 38.862 49.6445 41.5436 48.0972C44.5178 46.5136 47.8471 45.7158 51.216 45.7792Z" fill="#EEF5F9"/>
<path d="M53.6695 49.9095L54.9825 49.1513L59.4396 34.3314L58.1327 35.0958L53.6695 49.9095Z" fill="#586770"/>
<path d="M58.1327 35.0958L59.4396 34.3314L56.1415 31.3168L54.8346 32.0812L58.1327 35.0958Z" fill="white"/>
<path d="M59.563 34.3435L56.1539 31.2303L54.7052 32.0687L58.1204 35.1818L59.563 34.3435ZM56.1293 31.4091L59.3164 34.3188L58.1389 35.0031L54.958 32.0933L56.1293 31.4091Z" fill="black"/>
<path d="M54.8347 32.0809L50.3714 46.9008L53.6695 49.9091L58.1328 35.0954L54.8347 32.0809Z" fill="#889AA5"/>
<path d="M49.1199 43.2449C49.4667 43.0813 49.851 43.0138 50.2328 43.0496C50.6145 43.0854 50.9796 43.2231 51.2899 43.4484L58.9896 47.8561C59.8813 48.4337 60.6248 49.2127 61.1602 50.1304C61.6956 51.0481 62.0079 52.0787 62.0719 53.1392C62.1127 53.5206 62.0515 53.9059 61.8944 54.2558C61.7374 54.6057 61.4901 54.9075 61.178 55.1304L53.3181 59.6984C53.6313 59.4763 53.8797 59.1747 54.0379 58.8248C54.1961 58.4749 54.2583 58.0892 54.2181 57.7073C54.1541 56.6467 53.8418 55.6161 53.3064 54.6984C52.771 53.7807 52.0275 53.0017 51.1358 52.4241L43.4423 48.0102C43.1306 47.7879 42.7658 47.652 42.3847 47.6163C42.0036 47.5806 41.6198 47.6463 41.2723 47.8068L49.1199 43.2449Z" fill="url(#paint5_linear_24_38225)"/>
<path d="M51.1298 52.4243L43.4363 48.0104C41.741 47.0426 40.3539 47.844 40.3539 49.7982C40.4145 50.8595 40.7254 51.8915 41.2611 52.8097C41.7968 53.7279 42.5421 54.5063 43.4363 55.0813L51.1298 59.4952C52.8251 60.4631 54.2121 59.6617 54.2121 57.7075C54.1481 56.647 53.8358 55.6163 53.3004 54.6986C52.765 53.781 52.0215 53.0019 51.1298 52.4243Z" fill="#B4BBBF"/>
<path d="M39.4045 17.1129L40.7115 16.3546L40.7299 10.868L39.423 11.6263L39.4045 17.1129Z" fill="white"/>
<path d="M40.7854 16.398V10.8498V10.7204L39.3305 11.5649V17.2241L40.7854 16.398ZM40.6559 10.9978V16.3117L39.497 16.9837V11.6697L40.6559 10.9978Z" fill="black"/>
<path d="M33.7392 7.64418C34.0109 7.51796 34.3114 7.46682 34.6096 7.49609C34.9077 7.52536 35.1925 7.63398 35.4345 7.81063L40.7299 10.893L39.423 11.6512L34.1276 8.56888C33.8844 8.39229 33.5986 8.28377 33.2995 8.25451C33.0004 8.22526 32.6989 8.27631 32.4261 8.40243L33.7392 7.64418Z" fill="#EEF5F9"/>
<path d="M34.1275 8.56893C32.8083 7.81068 31.7356 8.42098 31.7295 9.93749C31.7742 10.7627 32.0129 11.5657 32.4264 12.2813C32.8399 12.9968 33.4164 13.6047 34.109 14.0555L39.4045 17.1378V11.6513L34.1275 8.56893Z" fill="#9BA2A6"/>
<path d="M46.0497 52.5906L47.3628 51.8262L51.8199 37.0063L50.513 37.7707L46.0497 52.5906Z" fill="#586770"/>
<path d="M50.513 37.7703L51.8199 37.0058L48.5218 33.9975L47.2087 34.7557L50.513 37.7703Z" fill="white"/>
<path d="M51.9434 37.0249L48.5344 33.9056L47.0857 34.744L50.5009 37.8633L51.9434 37.0249ZM48.5097 34.0906L51.6907 36.9941L50.5132 37.6784L47.3322 34.7687L48.5097 34.0906Z" fill="black"/>
<path d="M47.209 34.7562L42.7519 49.5761L46.05 52.5906L50.5133 37.7708L47.209 34.7562Z" fill="#889AA5"/>
<path d="M40.3969 10.338C41.149 9.90034 42.1785 10.0113 43.2388 10.6216C43.8661 10.9994 44.4299 11.4737 44.9095 12.0272C45.7121 12.9122 46.3397 13.9414 46.7589 15.0602L40.212 18.8638C39.805 17.7505 39.1923 16.7237 38.4057 15.8369C37.92 15.2809 37.35 14.8045 36.7166 14.4252C35.6501 13.8087 34.6268 13.7039 33.8685 14.1416L40.3969 10.338Z" fill="url(#paint6_linear_24_38225)"/>
<path d="M49.2494 28.9859L55.7963 25.1885L46.7404 15.0599L40.1935 18.8635L49.2494 28.9859Z" fill="#C7D5DC"/>
<path d="M52.8497 38.7999L59.3966 34.9963C59.7296 34.7994 60.0008 34.5133 60.1795 34.1702C61.1227 32.4194 60.272 29.1891 58.2808 26.9575C57.795 26.4033 57.225 25.9289 56.5917 25.552C56.3378 25.4059 56.0717 25.2821 55.7965 25.1821L49.2249 28.9919C49.5016 29.0859 49.7681 29.2077 50.0202 29.3556C50.6521 29.7345 51.2218 30.2086 51.7093 30.7611C53.7005 32.9928 54.5512 36.223 53.608 37.9738C53.436 38.3136 53.1736 38.5995 52.8497 38.7999Z" fill="url(#paint7_linear_24_38225)"/>
<path d="M36.6983 14.4252C35.1941 13.5621 33.7578 13.7039 33.0735 14.9738C32.1303 16.7307 32.981 19.9549 34.9722 22.1865C35.4545 22.7419 36.0227 23.2164 36.6552 23.592C36.9141 23.7409 37.1865 23.8647 37.4689 23.9619L46.5002 34.0658C46.909 35.1851 47.5237 36.218 48.3126 37.1112C48.7995 37.6718 49.3716 38.1523 50.0079 38.5352C51.5059 39.3983 52.9484 39.2565 53.6327 37.9865C54.5759 36.2358 53.7252 33.0055 51.734 30.7739C51.2465 30.2214 50.6768 29.7473 50.0448 29.3683C49.7928 29.2205 49.5263 29.0986 49.2496 29.0046L40.1937 18.8761C39.7868 17.7628 39.174 16.7359 38.3874 15.8492C37.9026 15.2888 37.3326 14.8082 36.6983 14.4252Z" fill="#889AA5"/>
<path d="M42.8815 48.2015C43.1304 48.0595 43.4153 47.993 43.7014 48.0104C44.1381 48.0359 44.5618 48.1694 44.9343 48.3988C46.1678 49.1952 47.0854 50.3962 47.5296 51.7956C48.0536 53.386 47.7886 54.7176 46.9625 55.1923L46.0193 55.7409C46.8454 55.2601 47.1104 53.9347 46.5864 52.3442C46.1466 50.9443 45.2306 49.7426 43.9973 48.9475C43.6244 48.7187 43.201 48.5853 42.7643 48.5591C42.4783 48.5417 42.1933 48.6081 41.9444 48.7502L42.8815 48.2015Z" fill="url(#paint8_linear_24_38225)"/>
<path d="M43.9788 48.9474C43.606 48.7186 43.1825 48.5852 42.7459 48.559C41.3095 48.5035 40.6869 50.1063 41.3589 52.1468C41.8024 53.5448 42.7176 54.7454 43.948 55.5436C44.3226 55.7685 44.7451 55.9016 45.181 55.9319C46.6173 55.9874 47.24 54.3784 46.568 52.3441C46.1282 50.9442 45.2121 49.7425 43.9788 48.9474Z" fill="url(#paint9_linear_24_38225)"/>
<path d="M43.4301 50.2849C43.1975 50.1404 42.9328 50.0557 42.6595 50.0384C41.7595 50.0014 41.3649 51.0185 41.7841 52.3008C42.0653 53.1811 42.6425 53.937 43.4178 54.4399C43.6516 54.5818 43.9156 54.6663 44.1884 54.6865C45.0884 54.7174 45.4829 53.7063 45.0637 52.4241C44.784 51.5431 44.2064 50.7868 43.4301 50.2849Z" fill="#414E52"/>
<path d="M20.2017 1.19L20.1955 3.29832L19.5174 3.6867L19.5236 1.58454L20.2017 1.19Z" fill="#2E383B"/>
<path d="M19.5237 1.58425L19.5175 3.68641L14.1234 2.49662L14.1296 0.39447L19.5237 1.58425Z" fill="#2E383B"/>
<path d="M20.2016 1.18978L19.5235 1.58432L14.1294 0.394539L14.8075 0L20.2016 1.18978Z" fill="#414E52"/>
<path d="M14.0001 4.79605L13.9939 6.8982L13.322 7.29275L13.3282 5.18442L14.0001 4.79605Z" fill="#2E383B"/>
<path d="M13.3283 5.18418L13.3221 7.2925L11.2508 4.16701L11.257 2.06485L13.3283 5.18418Z" fill="#2E383B"/>
<path d="M11.9287 1.67667L14 4.79599L13.328 5.18436L11.2567 2.06503L11.9287 1.67667Z" fill="#414E52"/>
<path d="M34.67 11.337L34.6638 13.4453L30.7122 15.7386L30.7184 13.6303L34.67 11.337Z" fill="#2E383B"/>
<path d="M30.7184 13.6301L30.7122 15.7385L21.9399 10.6649L21.9461 8.56277L30.7184 13.6301Z" fill="#4F5C60"/>
<path d="M34.67 11.3364L30.7185 13.6297L21.9461 8.5623L25.8915 6.26904L34.67 11.3364Z" fill="#758286"/>
<path d="M22.6301 4.74088L22.624 6.00464L21.2431 6.80605L21.2493 5.54229L22.6301 4.74088Z" fill="white"/>
<path d="M22.7164 6.04788V4.63L21.1876 5.51772V6.95409L22.7164 6.04788ZM22.5746 4.87043V5.96158L21.3417 6.67668V5.58553L22.5746 4.87043Z" fill="black"/>
<path d="M21.2492 5.54232L21.2431 6.80608L18.8389 3.81621L18.845 2.55246L21.2492 5.54232Z" fill="#4F5C60"/>
<path d="M20.2259 1.75113L22.6301 4.74099L21.2493 5.5424L18.845 2.55254L20.2259 1.75113Z" fill="#758286"/>
<path d="M19.8812 6.22617L19.8751 7.48993L18.4942 8.29134L18.5003 7.02758L19.8812 6.22617Z" fill="white"/>
<path d="M19.9489 7.53305V6.09668L18.42 6.98439V8.42076L19.9489 7.53305ZM19.8071 6.35559V7.44675L18.5741 8.16184V7.09535L19.8071 6.35559Z" fill="black"/>
<path d="M18.5003 7.02792L18.4942 8.29169L13.3282 6.91079L13.3343 5.64703L18.5003 7.02792Z" fill="#4F5C60"/>
<path d="M19.8812 6.22616L18.5003 7.02757L13.3343 5.64668L14.7152 4.84528L19.8812 6.22616Z" fill="#758286"/>
<path d="M25.0532 6.258V7.09639L20.8613 9.53761V8.69304L25.0532 6.258Z" fill="#2E383B"/>
<path d="M20.8613 8.69311V9.53768L16.4227 8.11363V7.26907L20.8613 8.69311Z" fill="#2E383B"/>
<path d="M22.5811 3.68683L25.0532 6.2575L20.8612 8.69254L16.4226 7.2685L22.5811 3.68683Z" fill="#414E52"/>
<path d="M31.7048 8.26074V9.5245L26.7423 12.4096L26.7484 11.1458L31.7048 8.26074Z" fill="#9BA2A6"/>
<path d="M26.7484 11.1456L26.7422 12.4094L20.0474 7.61944V6.35568L26.7484 11.1456Z" fill="#B4BBBF"/>
<path d="M31.7049 8.2607L26.7485 11.1458L20.0475 6.35582L23.4257 4.39545L31.7049 8.2607Z" fill="#EEF5F9"/>
<path d="M33.3446 20.738L34.6515 19.9798L34.67 14.4932L33.3569 15.2515L33.3446 20.738Z" fill="#C37D00"/>
<path d="M27.6484 11.2688C27.9212 11.1427 28.2227 11.0916 28.5218 11.1208C28.8209 11.1501 29.1067 11.2586 29.3499 11.4352L34.6392 14.5176L33.3323 15.2758L28.0368 12.1935C27.7949 12.0168 27.51 11.9082 27.2119 11.8789C26.9138 11.8497 26.6132 11.9008 26.3415 12.027L27.6484 11.2688Z" fill="#EEF5F9"/>
<path d="M28.0616 12.1934C26.7424 11.4351 25.6759 12.0454 25.6697 13.5558C25.712 14.3824 25.9497 15.1872 26.3634 15.9041C26.777 16.6211 27.3548 17.2296 28.0493 17.6799L33.3448 20.7623V15.2757L28.0616 12.1934Z" fill="#B4BBBF"/>
<path d="M26.9703 14.394C26.9921 14.7932 27.1079 15.1816 27.3083 15.5276C27.5086 15.8736 27.7877 16.1675 28.1231 16.3852C28.7395 16.7489 29.2697 16.453 29.2697 15.7256C29.249 15.3268 29.1343 14.9386 28.9351 14.5925C28.7358 14.2465 28.4576 13.9525 28.1231 13.7344C27.4881 13.3707 26.9703 13.6666 26.9703 14.394Z" fill="#414E52"/>
<path d="M33.9056 14.1415C34.2542 13.95 34.6488 13.8583 35.0461 13.8764C35.6462 13.9202 36.2273 14.1061 36.7413 14.4189C38.4552 15.5294 39.73 17.2008 40.3477 19.1472C41.0751 21.3603 40.7052 23.2098 39.5586 23.8817L38.2455 24.6399C39.3983 23.9742 39.7682 22.1248 39.0408 19.9055C38.4225 17.9592 37.145 16.2893 35.4283 15.1833C34.9158 14.8672 34.3338 14.681 33.733 14.6408C33.3352 14.6177 32.9393 14.7097 32.5925 14.9059L33.9056 14.1415Z" fill="url(#paint10_linear_24_38225)"/>
<path d="M35.4344 15.1834C34.9219 14.8673 34.3399 14.6811 33.7391 14.6409C31.7417 14.5669 30.8787 16.7985 31.8095 19.6343C32.4267 21.5794 33.7018 23.2491 35.4159 24.3564C35.9299 24.6692 36.511 24.8552 37.1112 24.8989C39.1085 24.9729 39.9777 22.7413 39.0469 19.8994C38.4274 17.9553 37.15 16.2878 35.4344 15.1834Z" fill="url(#paint11_linear_24_38225)"/>
<path d="M34.6761 17.0454C34.3521 16.8443 33.9838 16.7258 33.6034 16.7002C32.3705 16.6509 31.7972 18.0626 32.3705 19.8503C32.7605 21.0766 33.5646 22.1292 34.6452 22.8279C34.9673 23.0272 35.3337 23.1437 35.7117 23.1669C36.9447 23.2163 37.518 21.8107 36.9447 20.023C36.5562 18.7976 35.7544 17.7452 34.6761 17.0454Z" fill="#414E52"/>
<path d="M47.3446 29.0847C47.6903 28.8858 48.0871 28.7935 48.4851 28.8196C49.0863 28.8575 49.6688 29.0439 50.1803 29.3621C51.8953 30.4699 53.1723 32.1391 53.7928 34.0842C54.5141 36.3035 54.1442 38.1529 52.9976 38.8187L51.6907 39.577C52.8373 38.9112 53.2072 37.0618 52.4798 34.8486C51.862 32.9022 50.5872 31.2308 48.8734 30.1204C48.3594 29.8075 47.7783 29.6216 47.1781 29.5779C46.7785 29.5556 46.3808 29.6475 46.0315 29.8429L47.3446 29.0847Z" fill="url(#paint12_linear_24_38225)"/>
<path d="M48.8735 30.1205C48.3594 29.8077 47.7783 29.6218 47.1782 29.578C45.1808 29.504 44.3116 31.7418 45.2425 34.5776C45.8605 36.5222 47.1354 38.1916 48.8488 39.2997C49.3613 39.6158 49.9433 39.8021 50.5441 39.8422C52.5415 39.9223 53.4107 37.6846 52.4798 34.8488C51.8621 32.9023 50.5873 31.231 48.8735 30.1205Z" fill="url(#paint13_linear_24_38225)"/>
<path d="M48.109 31.9822C47.7842 31.7829 47.4164 31.6645 47.0363 31.637C45.8034 31.5939 45.2363 32.9994 45.8034 34.7872C46.1906 36.0149 46.9954 37.0683 48.0782 37.7647C48.3999 37.9658 48.7662 38.0843 49.1447 38.1099C50.3776 38.1531 50.9509 36.7475 50.3776 34.9598C49.9892 33.7344 49.1873 32.682 48.109 31.9822Z" fill="#414E52"/>
<path d="M43.9848 29.7379L41.0997 26.5138L42.6347 23.6287L45.5136 26.859L43.9848 29.7379Z" fill="#414E52"/>
<defs>
<linearGradient id="paint0_linear_24_38225" x1="13.0321" y1="89.0054" x2="44.7432" y2="89.0054" gradientUnits="userSpaceOnUse">
<stop stop-color="#478000"/>
<stop offset="1" stop-color="#3A7300"/>
</linearGradient>
<linearGradient id="paint1_linear_24_38225" x1="44.7432" y1="85.0909" x2="89.511" y2="85.0909" gradientUnits="userSpaceOnUse">
<stop stop-color="#609911"/>
<stop offset="1" stop-color="#538C04"/>
</linearGradient>
<linearGradient id="paint2_linear_24_38225" x1="44.6446" y1="13.2355" x2="47.5235" y2="19.5049" gradientUnits="userSpaceOnUse">
<stop stop-color="#EEF5F9"/>
<stop offset="1" stop-color="#D4DBDF"/>
</linearGradient>
<linearGradient id="paint3_linear_24_38225" x1="57.8863" y1="28.0798" x2="60.7652" y2="34.3493" gradientUnits="userSpaceOnUse">
<stop stop-color="#EEF5F9"/>
<stop offset="1" stop-color="#D4DBDF"/>
</linearGradient>
<linearGradient id="paint4_linear_24_38225" x1="64.0139" y1="62.0103" x2="38.412" y2="62.0103" gradientUnits="userSpaceOnUse">
<stop stop-color="#609911"/>
<stop offset="1" stop-color="#538C04"/>
</linearGradient>
<linearGradient id="paint5_linear_24_38225" x1="52.9667" y1="51.8015" x2="56.9059" y2="58.1511" gradientUnits="userSpaceOnUse">
<stop stop-color="#EEF5F9"/>
<stop offset="1" stop-color="#D4DBDF"/>
</linearGradient>
<linearGradient id="paint6_linear_24_38225" x1="37.5365" y1="9.32086" x2="44.7245" y2="22.8215" gradientUnits="userSpaceOnUse">
<stop stop-color="#C7D5DC"/>
<stop offset="1" stop-color="#586770"/>
</linearGradient>
<linearGradient id="paint7_linear_24_38225" x1="52.147" y1="27.1671" x2="57.7013" y2="36.223" gradientUnits="userSpaceOnUse">
<stop stop-color="#C7D5DC"/>
<stop offset="1" stop-color="#586770"/>
</linearGradient>
<linearGradient id="paint8_linear_24_38225" x1="44.811" y1="50.4517" x2="47.0919" y2="55.9629" gradientUnits="userSpaceOnUse">
<stop stop-color="#EEF5F9"/>
<stop offset="1" stop-color="#D4DBDF"/>
</linearGradient>
<linearGradient id="paint9_linear_24_38225" x1="41.0999" y1="52.2455" x2="46.8393" y2="52.2455" gradientUnits="userSpaceOnUse">
<stop stop-color="#609911"/>
<stop offset="1" stop-color="#538C04"/>
</linearGradient>
<linearGradient id="paint10_linear_24_38225" x1="36.8708" y1="18.352" x2="38.6401" y2="24.2886" gradientUnits="userSpaceOnUse">
<stop stop-color="#EEF5F9"/>
<stop offset="1" stop-color="#D4DBDF"/>
</linearGradient>
<linearGradient id="paint11_linear_24_38225" x1="31.4335" y1="19.7699" x2="39.4168" y2="19.7699" gradientUnits="userSpaceOnUse">
<stop stop-color="#609911"/>
<stop offset="1" stop-color="#538C04"/>
</linearGradient>
<linearGradient id="paint12_linear_24_38225" x1="50.3098" y1="33.289" x2="52.0791" y2="39.2256" gradientUnits="userSpaceOnUse">
<stop stop-color="#EEF5F9"/>
<stop offset="1" stop-color="#D4DBDF"/>
</linearGradient>
<linearGradient id="paint13_linear_24_38225" x1="44.8664" y1="34.7132" x2="52.8559" y2="34.7132" gradientUnits="userSpaceOnUse">
<stop stop-color="#609911"/>
<stop offset="1" stop-color="#538C04"/>
</linearGradient>
</defs>
</svg>
