<svg width="141" height="44" viewBox="0 0 141 44" fill="none" xmlns="http://www.w3.org/2000/svg">
<path d="M123.705 43.2698H17.2594C0.461669 43.2698 0 23.8657 0 21.6349C0 19.4041 0.461669 0 17.2594 0H123.705C140.503 0 141 19.4396 141 21.6349C141 23.8303 140.503 43.2698 123.705 43.2698Z" fill="url(#paint0_linear_24_9908)"/>
<g style="mix-blend-mode:screen" opacity="0.7">
<path d="M27.2973 4.51404C60.5659 4.51404 119.087 5.11828 119.087 5.11828C133.304 5.11828 137.463 13.2577 137.818 18.5892C137.818 17.7717 137.818 18.9091 137.818 18.5892C137.818 16.3855 135.934 2.27481 122.286 2.27481H18.1627C14.3506 2.17814 10.64 3.51007 7.75952 6.00908C4.87909 8.50809 3.03692 11.9936 2.59473 15.7813C4.69178 9.27685 10.8763 4.58513 27.2973 4.51404Z" fill="#FFFDBD"/>
</g>
<g style="mix-blend-mode:multiply" opacity="0.4">
<path d="M137.889 19.6201C138.131 22.938 137.273 26.2432 135.449 29.025C133.624 31.8067 130.935 33.9102 127.795 35.0103C120.686 38.1026 89.4176 39.0267 70.5796 39.0267H69.6555C50.782 39.0267 19.4422 38.1026 12.4047 35.0103C9.26508 33.9102 6.5752 31.8067 4.75067 29.025C2.92613 26.2432 2.06852 22.938 2.31034 19.6201C2.31034 20.4376 0.497633 40.6617 17.8072 40.6617H122.392C139.88 40.6617 137.96 20.4376 137.889 19.6201Z" fill="#1B8943"/>
</g>
<defs>
<linearGradient id="paint0_linear_24_9908" x1="51.8492" y1="-0.920635" x2="51.8492" y2="41.2869" gradientUnits="userSpaceOnUse">
<stop offset="0.2" stop-color="#C3E0F1"/>
<stop offset="0.81" stop-color="#54819C"/>
<stop offset="1" stop-color="#527387"/>
</linearGradient>
</defs>
</svg>
