<svg width="40" height="40" viewBox="0 0 40 40" fill="none" xmlns="http://www.w3.org/2000/svg">
<g clip-path="url(#clip0_992_143166)">
<path d="M38.3364 35.9519C38.8415 36.0908 39.3662 36.2041 39.8639 36.3641C39.3709 36.5892 38.8308 36.7036 38.3385 36.9214L38.3364 35.9519Z" fill="#F1DCA7"/>
<path d="M5.25526 34.1967C5.22639 34.9041 5.17334 35.6111 5.13959 36.3185C5.12447 36.6358 5.07967 36.9779 5.12354 37.2921L5.13592 37.3312C4.42983 37.1488 3.76116 36.7798 3.09818 36.4783L0.0244141 35.0909C0.433072 34.9829 0.860392 34.9142 1.27604 34.8348C2.11744 34.6757 2.96159 34.5328 3.80851 34.4063C4.28983 34.3368 4.77752 34.2869 5.25526 34.1967Z" fill="#F1DCA7"/>
<path d="M8.38254 0.5896C9.19973 0.641378 10.0162 0.702005 10.8321 0.771479C11.2645 0.807334 11.7023 0.861713 12.1355 0.876455C12.1997 0.878643 12.2516 0.87592 12.3131 0.857291C12.338 0.893361 12.3524 0.905377 12.3379 0.952014C12.2686 1.17561 12.0777 1.38834 11.967 1.59566L11.3111 2.8508C11.2231 3.01638 11.143 3.19692 11.0411 3.35319C11.0107 3.38204 10.981 3.41149 10.9518 3.44155C10.9012 3.44059 10.8868 3.44863 10.8517 3.40822C10.7773 3.32278 10.8025 3.20609 10.6667 3.19076C10.5 3.17195 10.3239 3.1573 10.1563 3.15614C9.98316 3.15494 9.81043 3.18266 9.6373 3.18704C9.34246 3.19448 8.88312 3.17875 8.60664 3.21385C8.56141 3.2196 8.52648 3.23634 8.4898 3.26365C8.46391 3.28295 8.44277 3.3123 8.42176 3.33649C8.34582 3.424 8.29488 3.42508 8.18355 3.43533C8.15273 3.51567 8.10781 3.68492 8.04945 3.74129C8.01449 3.68081 8.03566 3.57604 8.02637 3.50613C8.03129 3.15997 8.10746 2.78649 8.15094 2.44204C8.22883 1.82502 8.29742 1.20558 8.38254 0.5896Z" fill="#D7B08E"/>
<path d="M37.6676 25.1213L38.0801 30.8031C38.1324 31.6201 38.2149 32.4456 38.2235 33.264C37.9799 33.1885 37.368 32.6289 37.1394 32.4546L34.6914 30.5907C34.4938 30.4406 34.2673 30.3156 34.0825 30.1521C34.2071 30.0268 34.3113 29.8731 34.4297 29.7399C35.2596 28.8056 36.0933 27.7454 36.7527 26.6848C37.041 26.2211 37.3287 25.5211 37.6676 25.1213Z" fill="#8C5B2A"/>
<path d="M35.2799 36.2952C35.4326 36.2847 35.5866 36.2541 35.7394 36.2379C36.1636 36.196 36.5875 36.1506 37.011 36.1015C37.4491 36.0513 37.903 36.0246 38.3365 35.9519L38.3385 36.9214C38.0075 37.0262 37.6643 37.0497 37.321 37.0889L36.2171 37.2191L32.3564 37.7185L21.6792 39.1351C19.9911 39.3594 18.3024 39.5668 16.6176 39.8168C16.2853 39.866 15.9496 39.8988 15.6184 39.9539L15.5386 39.9285C15.5149 39.8902 15.5111 39.8851 15.5217 39.8387C15.556 39.6887 15.6555 39.5527 15.6789 39.3988C15.7009 39.2539 15.6205 39.013 15.6276 38.8304C15.6527 38.8306 15.6778 38.8301 15.7029 38.83C16.0229 38.8283 16.3589 38.7528 16.676 38.7045C17.1411 38.6329 17.607 38.567 18.0736 38.5067L23.3774 37.8274L31.4237 36.7961L33.9858 36.4682C34.4108 36.4138 34.8626 36.3853 35.2799 36.2952Z" fill="#8C5B2A"/>
<path d="M10.1721 32.6095C10.4065 32.8246 10.6211 33.2294 10.8026 33.4956C11.1921 34.0656 11.5848 34.6335 11.9808 35.1991L13.5467 37.377C13.8433 37.7865 14.1708 38.1958 14.4301 38.6298C14.5942 38.7661 15.3077 39.7562 15.403 39.9625C14.9275 39.8761 14.4585 39.7332 13.9922 39.6062C13.2923 39.4135 12.5908 39.2264 11.8878 39.0449L5.13592 37.3312L5.12354 37.2921C5.22928 37.2192 5.29881 37.1102 5.37486 37.0087C5.38842 37.013 5.40182 37.0176 5.41518 37.0223C5.52994 36.907 6.5358 35.9449 6.59787 35.9204C6.65627 35.8972 6.66752 35.9094 6.7251 35.867C6.72736 35.8402 6.74459 35.8286 6.76131 35.8082L6.7574 35.7819L6.70041 35.772C6.76689 35.5438 9.17943 33.5163 9.5617 33.1774C9.76228 32.9997 10.0053 32.8194 10.1721 32.6095Z" fill="#7A7D63"/>
<path d="M10.1719 32.6095C10.4062 32.8246 10.6209 33.2294 10.8023 33.4956C11.1919 34.0656 11.5846 34.6335 11.9806 35.1991L13.5465 37.377C13.8431 37.7865 14.1706 38.1958 14.4299 38.6298C14.1394 38.4211 13.6041 37.7808 13.3357 37.4898C12.5766 36.664 11.8239 35.8326 11.0776 34.9954C10.7479 34.6252 10.4291 34.2428 10.0938 33.8781C8.98121 34.5615 7.81973 35.1536 6.72488 35.867C6.72715 35.8402 6.74438 35.8286 6.76109 35.8082L6.75719 35.7819L6.7002 35.772C6.76668 35.5438 9.17922 33.5163 9.56148 33.1774C9.76207 32.9997 10.005 32.8194 10.1719 32.6095Z" fill="#5C420F"/>
<path d="M32.9324 29.1553C33.0205 29.3719 33.8182 30.0297 34.0343 30.1387C34.0536 30.1484 34.063 30.1489 34.0822 30.1521C34.267 30.3156 34.4935 30.4407 34.6911 30.5907L37.1391 32.4546C37.3677 32.6289 37.9796 33.1885 38.2232 33.264L38.3365 35.9519C37.9031 36.0246 37.4492 36.0513 37.011 36.1015C36.5875 36.1506 36.1637 36.196 35.7394 36.2379C35.5867 36.2541 35.4327 36.2847 35.28 36.2952C35.0413 35.9573 34.3204 35.4719 33.9654 35.1852C32.9257 34.3458 31.8993 33.479 30.8148 32.699C30.3306 32.2466 29.7427 31.9704 29.2354 31.5559C30.6219 31.0041 31.9073 30.2595 32.9324 29.1553Z" fill="#9A7C67"/>
<path d="M8.02618 3.50603C8.03548 3.57595 8.01431 3.68072 8.04927 3.74119C8.10763 3.68483 8.15255 3.51557 8.18337 3.43523C8.2947 3.42498 8.34563 3.42391 8.42157 3.3364C8.44259 3.31221 8.46372 3.28286 8.48962 3.26356C8.5263 3.23625 8.56122 3.2195 8.60645 3.21376C8.88294 3.17865 9.34227 3.19438 9.63712 3.18694C9.81024 3.18257 9.98298 3.15485 10.1561 3.15604C10.3237 3.1572 10.4999 3.17186 10.6665 3.19066C10.8024 3.20599 10.7772 3.32268 10.8515 3.40813C10.8866 3.44854 10.9011 3.44049 10.9516 3.44145C10.9808 3.4114 11.0105 3.38195 11.0409 3.35309C10.8543 3.76377 10.6255 4.16336 10.4161 4.56308L9.3497 6.59605C9.15063 6.96945 8.862 7.35156 8.74353 7.75957C8.65392 8.0682 8.6506 8.41109 8.62642 8.73047C8.60129 9.06198 8.57368 9.39328 8.5436 9.72437C8.40365 11.2333 8.27514 12.7431 8.15806 14.254L7.2456 26.9224C7.18823 27.8367 7.12518 28.7506 7.05645 29.6641C6.95054 30.8462 6.83342 32.0271 6.70509 33.2069L6.54856 34.7112C6.51837 35.0075 6.49981 35.3097 6.44856 35.6029C6.26974 35.8316 5.42634 36.8304 5.41489 37.0223C5.40153 37.0176 5.38813 37.013 5.37458 37.0087C5.29852 37.1102 5.22899 37.2192 5.12325 37.2921C5.07938 36.9779 5.12419 36.6357 5.13931 36.3185C5.17306 35.6111 5.2261 34.9041 5.25497 34.1966C5.32325 33.1504 5.34216 32.0971 5.39513 31.0495C5.49828 28.9899 5.62424 26.9317 5.77302 24.8748C6.15552 19.8097 6.65303 14.7558 7.26556 9.7132C7.45126 8.18058 7.6181 6.6464 7.81735 5.1155C7.88696 4.58105 7.9345 4.03664 8.02618 3.50603Z" fill="url(#paint0_linear_992_143166)"/>
<path d="M15.4121 29.5565C15.417 29.5587 15.4218 29.5609 15.4267 29.5632C15.6542 29.6711 15.876 29.8394 16.0836 29.9818C16.7971 30.4713 17.463 31.0262 18.1659 31.5308C20.0134 32.857 21.9582 33.9507 24.2723 34.1285C24.5839 34.1524 24.9007 34.1434 25.2133 34.1429C25.3651 34.1435 25.5169 34.1408 25.6686 34.1349C25.8204 34.1289 25.9719 34.1198 26.1232 34.1073C26.2746 34.0949 26.4256 34.0793 26.5763 34.0604C26.7269 34.0415 26.8771 34.0194 27.0268 33.9941C27.1766 33.9687 27.3257 33.9402 27.4742 33.9085C27.6227 33.8768 27.7705 33.842 27.9175 33.8039C28.0645 33.7659 28.2106 33.7247 28.3558 33.6805C28.5011 33.6362 28.6453 33.5888 28.7885 33.5383C29.0604 33.4442 29.3288 33.3412 29.5939 33.2294C29.8323 33.1275 30.6205 32.7066 30.8147 32.6989C31.8992 33.4789 32.9256 34.3458 33.9652 35.1852C34.3203 35.4718 35.0412 35.9573 35.2798 36.2952C34.8625 36.3852 34.4107 36.4138 33.9858 36.4682L31.4236 36.796L23.3773 37.8274L18.0736 38.5066C17.6069 38.567 17.1411 38.6329 16.676 38.7044C16.3589 38.7527 16.0229 38.8282 15.7029 38.83C15.6777 38.8301 15.6527 38.8305 15.6275 38.8304C15.6382 37.5511 15.604 36.2734 15.5882 34.9944C15.5822 33.4922 15.5384 31.9912 15.4568 30.4913C15.4402 30.1799 15.4351 29.8674 15.4121 29.5565Z" fill="url(#paint1_linear_992_143166)"/>
<path d="M30.2237 0H33.5238L33.5486 0.00515867C34.0767 0.111616 34.9954 0.0958934 35.335 0.588758C35.4221 0.715172 35.4712 0.894856 35.4876 1.04707C35.6035 1.42461 35.9121 2.25324 35.9406 2.59392C35.9513 2.72157 35.9349 2.85837 35.8736 2.97247C35.8406 3.03379 35.7922 3.09002 35.7404 3.13612C35.4075 3.38925 35.0479 3.379 34.6485 3.3865C34.7217 3.70045 34.7776 4.01895 34.855 4.3318C32.6807 4.43513 30.5056 4.519 28.3299 4.5834C27.2066 4.63272 26.0829 4.67001 24.9588 4.69527C23.9408 4.72828 22.9237 4.76805 21.9051 4.76965C21.598 4.55195 19.7571 3.8498 19.6933 3.75992L19.7238 3.73145C19.4617 3.78002 18.8474 3.76568 18.5425 3.77852C17.7862 3.81038 16.9654 3.89726 16.2159 3.86912C15.9869 3.86053 15.7628 3.82655 15.5449 3.75431C14.3314 3.35196 14.2044 2.27561 13.7076 1.27078C13.6983 1.27366 13.689 1.27676 13.6797 1.27941C13.5776 1.30821 13.4172 1.23851 13.3581 1.35145C13.3521 1.36291 13.3484 1.37544 13.3435 1.38743C13.2433 1.24163 13.1454 1.11304 13.0037 1.00481C12.8372 0.877738 12.6815 0.837332 12.4761 0.864426C12.4136 0.863098 12.3637 0.865828 12.3081 0.832551C12.3167 0.822406 12.3252 0.812129 12.334 0.802117C12.5145 0.596059 12.7662 0.444824 13.0429 0.431477C14.2252 0.376914 15.4081 0.33961 16.5915 0.319567L24.0895 0.143998C25.4281 0.114875 26.7719 0.105716 28.1092 0.0466547C28.579 0.0262818 29.0521 0.0323329 29.5225 0.0276803C29.7469 0.0254604 30.0041 0.0455035 30.2237 0Z" fill="url(#paint2_linear_992_143166)"/>
<path d="M12.3081 0.832593C12.3167 0.822448 12.3252 0.812171 12.334 0.802159C12.5145 0.596101 12.7662 0.444866 13.0429 0.431519C13.3833 0.6273 13.5512 0.919104 13.7076 1.27082C13.6983 1.2737 13.689 1.2768 13.6797 1.27945C13.5776 1.30825 13.4172 1.23855 13.3581 1.35149C13.3521 1.36295 13.3484 1.37548 13.3435 1.38748C13.2433 1.24167 13.1454 1.11308 13.0037 1.00485C12.8372 0.87778 12.6815 0.837374 12.4761 0.864468C12.4136 0.86314 12.3637 0.86587 12.3081 0.832593Z" fill="#8C5B2A"/>
<path d="M30.2238 0H33.5239L33.5487 0.00515867C34.0768 0.111616 34.9955 0.0958934 35.3351 0.588758C35.4222 0.715172 35.4713 0.894855 35.4877 1.04707C35.4071 1.17207 35.3814 1.47211 35.3158 1.63154C35.1812 1.95874 34.8396 2.20833 34.5239 2.34495C33.3403 2.85721 31.5978 2.47866 30.3954 2.17101C29.9436 2.05539 29.4834 1.93844 29.0493 1.76568C28.6303 1.59893 28.0822 1.29836 27.9042 0.854719C27.7321 0.425977 27.9795 0.37769 28.0982 0.0762785C28.1021 0.0664703 28.1056 0.0565293 28.1093 0.0466547C28.5791 0.0262818 29.0522 0.0323329 29.5226 0.0276803C29.747 0.0254604 30.0042 0.0455035 30.2238 0Z" fill="#F1DCA7"/>
<path d="M19.7239 3.73144C20.9248 3.71939 22.1324 3.65498 23.333 3.61444L30.0903 3.38716L33.7771 3.26044C34.4281 3.23478 35.0985 3.25355 35.7405 3.13611C35.4076 3.38924 35.048 3.37899 34.6486 3.38649C34.7218 3.70044 34.7777 4.01893 34.8551 4.33178C32.6808 4.43512 30.5057 4.51898 28.33 4.58339C27.2067 4.63271 26.083 4.67 24.9589 4.69526C23.9409 4.72827 22.9238 4.76803 21.9052 4.76964C21.5981 4.55194 19.7571 3.84978 19.6934 3.75991L19.7239 3.73144Z" fill="#9A7C67"/>
<path d="M12.3083 0.83252C12.3639 0.865797 12.4138 0.863066 12.4763 0.864395L12.4262 0.89232C12.5003 1.11159 12.5227 1.34189 12.588 1.56439C12.5613 1.64252 12.5743 1.71541 12.5439 1.79572L12.5341 1.75123C12.4879 2.01182 12.5456 2.50606 12.4191 2.71229C12.3666 2.79584 12.3679 2.97829 12.3592 3.07706L10.5952 24.5237C10.4657 26.2768 10.4004 28.0341 10.2929 29.7886L10.1802 31.567C10.1624 31.8706 10.1127 32.2702 10.158 32.5672C10.1609 32.5866 10.1648 32.5933 10.172 32.6095C10.0051 32.8194 9.76215 32.9997 9.56156 33.1774C9.1793 33.5163 6.76676 35.5438 6.70027 35.772L6.75727 35.7819L6.76117 35.8082C6.74445 35.8286 6.72723 35.8402 6.72496 35.867C6.66738 35.9094 6.65613 35.8972 6.59773 35.9204C6.53566 35.9449 5.5298 36.907 5.41504 37.0224C5.42648 36.8304 6.26988 35.8316 6.44871 35.6029C6.49996 35.3097 6.51852 35.0075 6.54871 34.7112L6.70523 33.207C6.83357 32.0271 6.95069 30.8462 7.0566 29.6642C7.12533 28.7506 7.18837 27.8367 7.24574 26.9224L8.1582 14.254C8.27529 12.7432 8.4038 11.2333 8.54375 9.72438C8.57383 9.39329 8.60143 9.06199 8.62656 8.73048C8.65074 8.4111 8.65406 8.06821 8.74367 7.75958C8.86215 7.35157 9.15078 6.96946 9.34984 6.59606L10.4163 4.56309C10.6256 4.16337 10.8545 3.76379 11.041 3.35311C11.143 3.19684 11.223 3.0163 11.3111 2.85072L11.9669 1.59557C12.0777 1.38825 12.2686 1.17553 12.3379 0.95193C12.3523 0.905293 12.338 0.893277 12.313 0.857207L12.3083 0.83252Z" fill="url(#paint3_linear_992_143166)"/>
<path d="M12.4261 0.892334C12.5002 1.1116 12.5226 1.3419 12.5879 1.5644C12.5612 1.64253 12.5741 1.71543 12.5438 1.79573L12.5339 1.75124C12.4878 2.01184 12.5455 2.50607 12.4189 2.7123C12.4367 2.37944 12.4723 2.05603 12.4652 1.72087C12.4593 1.44272 12.4132 1.17172 12.4261 0.892334Z" fill="#D7B08E"/>
<path d="M12.4764 0.864453C12.6817 0.837359 12.8375 0.877766 13.004 1.00484C13.1457 1.11306 13.2436 1.24166 13.3438 1.38746C13.3487 1.37547 13.3524 1.36294 13.3583 1.35148C13.4175 1.23854 13.5779 1.30824 13.6799 1.27944C13.6893 1.27679 13.6986 1.27368 13.7079 1.2708C14.2047 2.27563 14.3317 3.35199 15.5452 3.75433C15.7631 3.82658 15.9872 3.86055 16.2162 3.86915C16.9656 3.89728 17.7864 3.8104 18.5428 3.77855C18.8477 3.76571 19.4619 3.78005 19.7241 3.73148L19.6935 3.75995C19.7573 3.84982 21.5983 4.55198 21.9053 4.76968C22.924 4.76807 23.9411 4.72831 24.959 4.6953C26.0831 4.67004 27.2068 4.63275 28.3301 4.58343C30.5059 4.51905 32.681 4.43518 34.8553 4.33182C35.1628 6.14039 35.481 7.94706 35.8101 9.75182L36.0546 11.0937C36.1281 11.4832 36.2221 11.8719 36.2361 12.2692C36.0919 12.1166 35.9846 11.6477 35.8775 11.4317C35.2392 10.1436 33.6501 9.36811 32.3414 8.92276C29.4185 7.92815 26.0306 8.16007 23.2196 9.4144C22.8639 9.57315 22.504 9.74882 22.1709 9.95124C21.8635 10.138 21.5758 10.3543 21.252 10.5134C21.0179 10.2857 20.5642 10.071 20.2772 9.90249L18.5685 8.89507C16.7636 7.83332 14.9715 6.75025 13.1923 5.64585C13.1015 5.24288 13.0534 4.82425 12.991 4.41593L12.6994 2.47812C12.6562 2.1756 12.6539 1.86235 12.588 1.56445C12.5228 1.34195 12.5003 1.11165 12.4263 0.892379L12.4764 0.864453Z" fill="url(#paint4_linear_992_143166)"/>
<path d="M13.7079 1.27075C14.2046 2.27558 14.3316 3.35194 15.5451 3.75428C15.763 3.82653 15.9871 3.8605 16.2161 3.8691C16.9656 3.89723 17.7864 3.81035 18.5427 3.77849C18.8476 3.76565 19.4619 3.78 19.724 3.73142L19.6935 3.7599C19.7573 3.84977 21.5982 4.55193 21.9053 4.76962C21.6187 4.82837 21.2928 4.81716 21.0006 4.82599C20.5938 4.83888 20.1871 4.85405 19.7804 4.8715L16.8543 4.98599C16.2993 5.00591 15.7345 5.05029 15.1796 5.02646C15.0181 5.01951 14.8753 4.98146 14.7299 4.91134C13.867 4.49517 13.8354 3.61724 13.6879 2.78582C13.6045 2.3159 13.5008 1.83854 13.3438 1.38741C13.3486 1.37542 13.3523 1.36288 13.3583 1.35142C13.4175 1.23849 13.5778 1.30819 13.6799 1.27938C13.6893 1.27674 13.6985 1.27363 13.7079 1.27075Z" fill="#D08C61"/>
<path d="M12.4188 2.71235C12.5453 2.50612 12.4876 2.01189 12.5338 1.75129L12.5437 1.79578C12.574 1.71548 12.561 1.64258 12.5877 1.56445C12.6536 1.86235 12.6559 2.17561 12.699 2.47812L12.9907 4.41593C13.0531 4.82425 13.1011 5.24288 13.192 5.64585C14.9712 6.75025 16.7632 7.83333 18.5682 8.89507L20.2769 9.90249C20.5639 10.071 21.0176 10.2857 21.2517 10.5134C20.9327 10.7125 20.644 10.9658 20.3603 11.2113C19.7627 11.7285 19.2096 12.2632 18.6866 12.8569C18.514 13.0529 18.3644 13.2705 18.1923 13.4646L18.1694 13.4736C17.9349 13.8132 17.689 14.1498 17.4716 14.5006C17.3713 14.665 17.2739 14.831 17.1794 14.9988C17.0849 15.1665 16.9934 15.3359 16.9048 15.5069C16.8162 15.6778 16.7306 15.8503 16.6481 16.0242C16.5655 16.1982 16.486 16.3735 16.4095 16.5502C16.3331 16.7269 16.2597 16.9049 16.1895 17.0842C16.1192 17.2635 16.0521 17.4439 15.9882 17.6255C15.9242 17.8072 15.8634 17.9898 15.8058 18.1735C15.7483 18.3573 15.6939 18.542 15.6427 18.7276C15.4576 19.4146 15.3131 20.11 15.2092 20.8138C15.1811 21.006 15.0719 22.1225 15.0011 22.2318C14.9866 22.8065 15.0673 23.383 15.1093 23.9557C15.1613 24.7459 15.2074 25.5363 15.2476 26.3272C15.2835 26.9775 15.3266 27.6305 15.3495 28.2812C15.364 28.6936 15.3395 29.15 15.4121 29.5566C15.4351 29.8675 15.4402 30.18 15.4568 30.4914C15.5384 31.9913 15.5822 33.4923 15.5881 34.9944C15.604 36.2735 15.6382 37.5512 15.6275 38.8305C15.6204 39.013 15.7008 39.2539 15.6788 39.3989C15.6554 39.5528 15.5559 39.6887 15.5217 39.8387C15.511 39.8852 15.5148 39.8903 15.5385 39.9285L15.6183 39.9539C15.546 39.9594 15.4752 39.9641 15.4026 39.9625C15.3073 39.7563 14.5938 38.7662 14.4297 38.6299C14.1704 38.1959 13.8429 37.7866 13.5463 37.3771L11.9804 35.1992C11.5845 34.6335 11.1917 34.0657 10.8022 33.4957C10.6207 33.2295 10.4061 32.8246 10.1717 32.6096C10.1646 32.5934 10.1607 32.5867 10.1577 32.5672C10.1124 32.2702 10.1621 31.8706 10.1799 31.5671L10.2926 29.7886C10.4001 28.0342 10.4655 26.2769 10.5949 24.5237L12.3589 3.07712C12.3677 2.97836 12.3663 2.79591 12.4188 2.71235Z" fill="url(#paint5_linear_992_143166)"/>
<path d="M13.9229 10.6943C14.3875 10.985 14.826 11.318 15.2889 11.6129C16.2496 12.2251 17.2417 12.8131 18.1695 13.4735C17.9349 13.8132 17.6891 14.1497 17.4716 14.5005C17.3714 14.6649 17.274 14.8309 17.1795 14.9987C17.085 15.1665 16.9935 15.3358 16.9049 15.5068C16.8163 15.6778 16.7307 15.8502 16.6481 16.0241C16.5656 16.1981 16.4861 16.3734 16.4096 16.5502C16.3332 16.7269 16.2598 16.9049 16.1895 17.0841C16.1193 17.2634 16.0522 17.4439 15.9882 17.6255C15.9243 17.8071 15.8635 17.9898 15.8059 18.1735C15.7483 18.3572 15.694 18.5419 15.6428 18.7275C15.4577 19.4145 15.3132 20.1099 15.2093 20.8138C15.1811 21.0059 15.0719 22.1225 15.0012 22.2317C14.9301 21.8082 14.9383 21.3462 14.9103 20.916C14.8571 20.0618 14.7948 19.2083 14.7233 18.3554C14.5769 16.5097 14.3989 14.667 14.1892 12.8275C14.1087 12.1157 14.0063 11.406 13.9229 10.6943Z" fill="#F1DCA7"/>
<path d="M13.1924 5.64587C14.9716 6.75028 16.7637 7.83335 18.5686 8.89509L20.2773 9.90251C20.5643 10.071 21.018 10.2858 21.2521 10.5135C20.9331 10.7126 20.6444 10.9658 20.3607 11.2113C19.7631 11.7285 19.21 12.2633 18.687 12.8569C18.5144 13.0529 18.3648 13.2705 18.1927 13.4647L18.1698 13.4736C17.242 12.8132 16.25 12.2252 15.2892 11.613C14.8264 11.3181 14.3879 10.9851 13.9232 10.6944C13.7186 9.00568 13.4103 7.33205 13.1924 5.64587Z" fill="#FECB6A"/>
<path d="M21.2517 10.5134C21.5755 10.3542 21.8632 10.138 22.1706 9.9512C22.5037 9.74878 22.8636 9.57311 23.2194 9.41436C26.0304 8.16002 29.4182 7.92811 32.3412 8.92272C33.6498 9.36807 35.2389 10.1435 35.8773 11.4316C35.9843 11.6477 36.0917 12.1165 36.2358 12.2692C36.3364 12.5898 36.378 12.9497 36.4293 13.2815L36.6526 14.7727C36.9674 17.0077 37.2144 19.2503 37.3935 21.5003L37.558 23.774C37.5885 24.2209 37.6015 24.6785 37.6672 25.1214C37.3283 25.5212 37.0407 26.2211 36.7523 26.6848C36.0929 27.7455 35.2592 28.8056 34.4293 29.7399C34.311 29.8731 34.2067 30.0268 34.0821 30.1521C34.0629 30.1489 34.0536 30.1484 34.0342 30.1387C33.8181 30.0297 33.0204 29.3719 32.9323 29.1553C32.94 28.8886 33.3782 28.3915 33.53 28.1598C33.6152 28.0297 33.6897 27.8917 33.7651 27.7556L33.7856 27.7164C33.9579 27.4881 34.0684 27.1983 34.1763 26.9349C34.2633 26.7221 34.3439 26.5069 34.4179 26.2892C34.4919 26.0716 34.5592 25.8518 34.6198 25.6301C34.6805 25.4083 34.7343 25.1849 34.7813 24.9598C34.8284 24.7348 34.8685 24.5085 34.9018 24.281C34.9439 24.0023 34.9654 23.7221 35.0008 23.4428C34.9966 22.9545 34.9917 22.459 34.9389 21.9733C34.7711 20.4314 34.1681 19.0434 33.2782 17.7844C33.1143 17.5525 32.9311 17.3274 32.7447 17.1133C32.6155 16.965 32.4691 16.8212 32.36 16.658C32.3562 16.6524 32.3526 16.6467 32.3489 16.641C32.3567 16.9194 32.4718 17.2073 32.5175 17.4838C32.6343 18.1908 32.796 19.8092 32.5496 20.4551C32.5177 20.5795 32.4942 20.7083 32.459 20.8314C32.452 20.9382 32.4489 21.0403 32.4143 21.1425C32.4125 21.1477 32.4109 21.1529 32.4092 21.1581C32.1984 21.2556 31.9671 21.3296 31.7665 21.4458C31.4815 21.5348 31.1991 21.6085 30.9054 21.6646C30.7625 21.6549 30.6416 21.716 30.5132 21.7706C30.1893 21.718 29.8106 21.8209 29.541 21.7812C29.5373 21.7791 29.5338 21.7765 29.5298 21.7749C29.3623 21.7057 28.9292 21.6932 28.724 21.6597C28.3137 21.5926 27.8946 21.489 27.4979 21.3655C26.9407 21.192 26.3995 20.9528 25.8804 20.6875C25.6667 20.5783 25.4721 20.4322 25.2473 20.3454L25.2211 20.3354C25.1057 20.2621 25.0018 20.171 24.883 20.0979C24.4422 19.8269 23.9872 19.5869 23.5704 19.2765C23.3638 19.021 23.0179 18.8209 22.7528 18.6269C22.1767 18.1855 21.4998 17.3818 20.9933 16.8276C20.7831 16.6223 20.5975 16.3922 20.3886 16.1881C20.0009 15.8237 19.5806 15.5713 19.0696 15.4216C19.475 15.1866 19.9019 15.0092 20.3311 14.8236C19.9666 14.6197 19.6268 14.3856 19.275 14.1619C18.912 13.9312 18.5438 13.7134 18.1924 13.4646C18.3645 13.2705 18.5141 13.0528 18.6867 12.8569C19.2096 12.2632 19.7627 11.7284 20.3603 11.2113C20.6441 10.9658 20.9327 10.7125 21.2517 10.5134Z" fill="#D08C61"/>
<path d="M31.9194 15.5537C33.0061 16.3093 34.1306 17.898 34.6882 19.0931C35.0225 19.8096 35.2777 20.5934 35.4167 21.372C35.4291 21.4457 35.4406 21.5195 35.4512 21.5935C35.4618 21.6674 35.4715 21.7415 35.4803 21.8157C35.489 21.8899 35.4969 21.9642 35.5038 22.0386C35.5108 22.113 35.5169 22.1875 35.522 22.262C35.5271 22.3366 35.5313 22.4111 35.5346 22.4858C35.5379 22.5604 35.5403 22.6351 35.5417 22.7098C35.5432 22.7845 35.5437 22.8592 35.5433 22.9339C35.543 23.0086 35.5417 23.0833 35.5395 23.158C35.5373 23.2327 35.5341 23.3073 35.5301 23.382C35.526 23.4566 35.5211 23.5311 35.5152 23.6056C35.5093 23.6801 35.5025 23.7545 35.4948 23.8288C35.4871 23.9031 35.4785 23.9773 35.469 24.0514C35.4594 24.1255 35.449 24.1995 35.4376 24.2734C35.4263 24.3472 35.414 24.4209 35.4009 24.4945C35.3877 24.568 35.3737 24.6414 35.3587 24.7146C35.3437 24.7878 35.3279 24.8608 35.3112 24.9336C35.2944 25.0064 35.2767 25.079 35.2582 25.1514C35.2396 25.2238 35.2202 25.2959 35.1999 25.3678C35.1796 25.4397 35.1584 25.5114 35.1363 25.5827C35.1143 25.6541 35.0913 25.7252 35.0675 25.7961C35.0437 25.8669 35.019 25.9374 34.9935 26.0076C34.9679 26.0778 34.9415 26.1477 34.9142 26.2172C34.8869 26.2868 34.8588 26.356 34.8299 26.4249C34.8009 26.4938 34.7711 26.5623 34.7404 26.6304C34.7098 26.6985 34.6783 26.7663 34.646 26.8337C34.6137 26.901 34.5805 26.968 34.5466 27.0345C34.5126 27.1011 34.4778 27.1672 34.4422 27.2329C34.4066 27.2986 34.3703 27.3639 34.3331 27.4287C34.2959 27.4935 34.2579 27.5578 34.2191 27.6217C34.1804 27.6855 34.1408 27.7489 34.1005 27.8118C34.0601 27.8747 34.0191 27.9371 33.9772 27.999C33.9353 28.0609 33.8927 28.1223 33.8494 28.1831C33.6876 28.4127 33.1837 29.09 32.9513 29.152C32.9452 29.1537 32.9389 29.1542 32.9327 29.1552C32.9403 28.8886 33.3785 28.3915 33.5303 28.1598C33.6156 28.0296 33.6901 27.8916 33.7654 27.7556L33.786 27.7164C33.9583 27.4881 34.0688 27.1983 34.1766 26.9349C34.2637 26.7221 34.3443 26.5069 34.4183 26.2892C34.4923 26.0715 34.5596 25.8518 34.6202 25.63C34.6808 25.4083 34.7347 25.1849 34.7817 24.9598C34.8288 24.7348 34.8689 24.5085 34.9022 24.281C34.9442 24.0023 34.9658 23.7221 35.0012 23.4427C34.9969 22.9545 34.9921 22.4589 34.9392 21.9733C34.7715 20.4313 34.1685 19.0434 33.2785 17.7843C33.1146 17.5525 32.9315 17.3274 32.7451 17.1133C32.6159 16.965 32.4695 16.8211 32.3604 16.658C32.3566 16.6524 32.353 16.6467 32.3493 16.641C32.2337 16.2622 32.0576 15.9208 31.9194 15.5537Z" fill="#F1DCA7"/>
<path d="M23.7296 13.8024C25.6297 13.4826 29.1925 13.1701 30.8248 14.33C31.3726 14.7191 31.4671 15.0945 31.8873 15.5212L31.9071 15.5417C31.9112 15.5458 31.9152 15.5498 31.9193 15.5538C32.0575 15.9209 32.2336 16.2623 32.3492 16.6411C32.3569 16.9194 32.472 17.2073 32.5177 17.4838C32.6345 18.1908 32.7962 19.8093 32.5498 20.4551C32.5179 20.5795 32.4944 20.7084 32.4592 20.8314C32.4522 20.9382 32.4492 21.0403 32.4145 21.1426C32.4128 21.1477 32.4111 21.153 32.4094 21.1582C32.1987 21.2557 31.9673 21.3297 31.7667 21.4459C31.4817 21.5348 31.1993 21.6086 30.9056 21.6646C30.7628 21.6549 30.6418 21.716 30.5135 21.7706C30.1895 21.7181 29.8108 21.8209 29.5412 21.7812C29.5375 21.7791 29.534 21.7766 29.5301 21.775C29.3626 21.7057 28.9294 21.6932 28.7242 21.6597C28.3139 21.5927 27.8948 21.4891 27.4981 21.3655C26.9409 21.1921 26.3997 20.9529 25.8806 20.6876C25.6669 20.5783 25.4723 20.4323 25.2476 20.3454L25.2213 20.3354C25.1059 20.2621 25.002 20.171 24.8832 20.098C24.4424 19.827 23.9874 19.5869 23.5706 19.2766C23.364 19.0211 23.0181 18.8209 22.753 18.627C22.1769 18.1855 21.5001 17.3818 20.9935 16.8277C20.7833 16.6223 20.5977 16.3922 20.3888 16.1881C20.0011 15.8237 19.5808 15.5714 19.0698 15.4216C19.4753 15.1866 19.9021 15.0093 20.3313 14.8237C20.7547 14.67 21.1688 14.4918 21.5923 14.3384C22.0026 14.1897 22.4171 14.0702 22.8395 13.9613C23.1363 13.8848 23.4212 13.8041 23.7296 13.8024Z" fill="#9B9B7B"/>
<path d="M23.7294 13.8024C25.6295 13.4826 29.1923 13.1701 30.8246 14.33C31.3723 14.7191 31.4669 15.0945 31.8871 15.5212L31.9069 15.5417C31.9109 15.5458 31.915 15.5498 31.9191 15.5538C32.0573 15.9209 32.2334 16.2623 32.3489 16.6411C32.3567 16.9194 32.4718 17.2073 32.5175 17.4838C32.6343 18.1908 32.796 19.8093 32.5496 20.4551C32.5177 20.5795 32.4942 20.7084 32.459 20.8314C32.452 20.9382 32.4489 21.0403 32.4143 21.1426C32.4125 21.1477 32.4109 21.153 32.4092 21.1582C32.2484 20.9704 32.1488 20.6956 32.007 20.4875C31.9835 20.4865 31.9826 20.4878 31.9564 20.479C31.9484 20.4764 31.0598 19.8111 30.987 19.7514C30.9552 19.7253 30.9362 19.6983 30.9153 19.6635C30.5973 19.677 30.2716 19.7937 29.955 19.8366C28.86 19.985 27.7782 20.0361 26.6778 19.916C26.3966 19.8853 26.0892 19.8577 25.8261 19.7496C27.5079 19.9781 28.9305 19.8225 30.5714 19.4363C30.1201 19.0816 28.6867 18.4886 28.1112 18.267C27.7924 18.1441 27.418 18.038 27.1266 17.8616C26.7893 17.9375 26.4603 18.0283 26.1167 18.0758C25.504 18.1606 24.0206 18.1814 23.4578 17.9663L23.4745 17.9619L23.4678 17.9748L23.4676 17.9633C23.7029 17.9642 23.9375 17.9902 24.1727 17.9977C24.5828 18.0084 24.9924 17.9978 25.4015 17.9662C25.8722 17.9278 26.3316 17.8154 26.7975 17.7441C26.6518 17.7287 26.5027 17.6688 26.366 17.6164C25.7094 17.3649 25.1335 16.8736 24.5403 16.5003C24.4177 16.4231 24.2132 16.3471 24.1113 16.2534C24.0775 16.2223 24.0611 16.1836 24.0427 16.1425C24.0343 16.1407 24.0261 16.1384 24.0177 16.1371C23.9046 16.1196 22.5343 16.7371 22.4767 16.7007C22.47 16.6966 22.4625 16.6941 22.4554 16.6907C22.4839 16.6537 22.5046 16.6572 22.5462 16.6443C22.6499 16.6118 22.7536 16.5352 22.8536 16.4878C23.1684 16.3385 23.4823 16.1952 23.7916 16.0343C22.73 15.6861 21.6706 15.5086 20.5547 15.4554C21.4245 15.2925 22.9389 15.4879 23.7973 15.7083C23.4226 15.2664 22.9898 15.018 22.5006 14.7225C23.1728 14.9037 23.8207 15.3125 24.3092 15.8016C24.9438 15.9159 25.5743 16.0275 26.1934 16.2111C26.636 16.3424 27.0607 16.5156 27.4979 16.6607C27.3797 16.4389 27.2099 16.2374 27.0414 16.0525C26.3382 15.2803 25.4608 14.7767 24.5246 14.3384C25.583 14.6276 26.6234 15.0863 27.3669 15.9187C27.6165 16.1982 27.828 16.5125 28.0339 16.8249C29.5727 17.3784 30.4499 17.8067 31.6007 18.9939C31.5691 18.655 31.5464 18.0804 31.4295 17.7701C31.3118 17.7495 31.1462 17.5575 31.0552 17.4737C30.4431 16.9098 29.8238 16.383 29.1194 15.9358C28.0236 15.2401 26.5911 14.6875 25.3529 14.2865C24.997 14.1713 23.9754 13.9632 23.7294 13.8024Z" fill="#7A7D63"/>
<path d="M31.2746 19.5621C31.5691 19.8312 31.8227 20.1308 32.0072 20.4874C31.9837 20.4865 31.9828 20.4878 31.9567 20.479C31.9487 20.4763 31.0601 19.811 30.9872 19.7513C30.9555 19.7253 30.9365 19.6982 30.9155 19.6634L31.2746 19.5621Z" fill="#D7B08E"/>
<path d="M31.8491 18.1594C32.0083 18.1701 32.0908 18.1913 32.1969 18.3167C32.5121 18.6899 32.5375 19.3856 32.5379 19.8493C32.5381 20.0428 32.5176 20.264 32.5495 20.4551C32.5176 20.5795 32.4941 20.7083 32.4589 20.8313C32.3493 20.3202 32.2152 19.8828 31.9151 19.4509C31.9136 19.0137 31.9034 18.5943 31.8491 18.1594Z" fill="#9B9B7B"/>
<path d="M24.043 16.1425C24.3416 16.1992 24.6448 16.2958 24.9368 16.3809C25.6245 16.5793 26.3036 16.8041 26.9739 17.0553C27.2439 17.1546 27.5605 17.243 27.8043 17.3929C27.5564 17.6448 27.1227 17.6618 26.7977 17.744C26.652 17.7287 26.5029 17.6687 26.3663 17.6164C25.7096 17.3648 25.1338 16.8736 24.5405 16.5002C24.4179 16.423 24.2134 16.347 24.1115 16.2533C24.0777 16.2223 24.0613 16.1835 24.043 16.1425Z" fill="#D7B08E"/>
<path d="M28.208 17.5381C29.2887 17.8852 30.31 18.4108 31.0685 19.2779C30.9026 19.3295 30.737 19.3823 30.5718 19.4363C30.1205 19.0816 28.6871 18.4886 28.1116 18.2669C27.7928 18.1441 27.4184 18.038 27.127 17.8616C27.4852 17.7495 27.8456 17.6364 28.208 17.5381Z" fill="#D7B08E"/>
<path d="M23.7295 13.8024C25.6296 13.4826 29.1924 13.1701 30.8247 14.33C31.3724 14.7191 31.467 15.0945 31.8871 15.5212L31.907 15.5417C31.911 15.5458 31.9151 15.5498 31.9191 15.5538C32.0573 15.9209 32.2334 16.2623 32.349 16.6411C32.3568 16.9194 32.4718 17.2073 32.5175 17.4838C32.6344 18.1908 32.7961 19.8093 32.5496 20.4551C32.5177 20.2641 32.5383 20.0429 32.5381 19.8494C32.5376 19.3857 32.5122 18.6899 32.197 18.3168C32.091 18.1913 32.0084 18.1702 31.8493 18.1595C31.5802 16.9453 31.2038 16.1965 30.4283 15.2237C30.2327 14.9783 30.0566 14.7244 29.813 14.5235C29.9669 14.7053 30.0957 14.9199 30.2243 15.1203C30.7627 15.9592 31.1521 16.8146 31.4295 17.7701C31.3119 17.7495 31.1463 17.5575 31.0553 17.4737C30.4432 16.9098 29.8238 16.383 29.1195 15.9358C28.0237 15.2401 26.5911 14.6875 25.3529 14.2865C24.9971 14.1713 23.9754 13.9632 23.7295 13.8024Z" fill="#D7B08E"/>
<path d="M18.1695 13.4735L18.1924 13.4646C18.5438 13.7134 18.9121 13.9312 19.2751 14.1619C19.6268 14.3856 19.9666 14.6197 20.3311 14.8236C19.9019 15.0092 19.4751 15.1866 19.0696 15.4216C19.5806 15.5713 20.0009 15.8237 20.3886 16.1881C20.5975 16.3922 20.7831 16.6223 20.9933 16.8276C21.4999 17.3818 22.1767 18.1855 22.7529 18.6269C23.0179 18.8209 23.3639 19.021 23.5704 19.2765C23.9873 19.5869 24.4423 19.8269 24.883 20.0979C25.0019 20.171 25.1057 20.2621 25.2212 20.3354L25.2474 20.3454C25.4721 20.4322 25.6667 20.5783 25.8805 20.6875C26.3995 20.9528 26.9407 21.192 27.4979 21.3655C27.8946 21.489 28.3137 21.5926 28.7241 21.6597C28.9293 21.6932 29.3624 21.7057 29.5299 21.7749C29.5338 21.7766 29.5373 21.7791 29.541 21.7812C29.8107 21.8209 30.1893 21.718 30.5133 21.7706C30.6416 21.716 30.7626 21.6549 30.9055 21.6646C31.1991 21.6085 31.4816 21.5348 31.7666 21.4458C31.9671 21.3296 32.1985 21.2557 32.4093 21.1581C32.4109 21.1529 32.4126 21.1477 32.4143 21.1425C32.449 21.0403 32.452 20.9382 32.459 20.8314C32.4942 20.7083 32.5177 20.5795 32.5496 20.4551C32.7961 19.8092 32.6343 18.1908 32.5175 17.4838C32.4718 17.2073 32.3568 16.9194 32.349 16.641C32.3527 16.6467 32.3563 16.6524 32.36 16.658C32.4692 16.8212 32.6156 16.965 32.7447 17.1133C32.9312 17.3274 33.1143 17.5525 33.2782 17.7844C34.1682 19.0434 34.7711 20.4314 34.9389 21.9733C34.9917 22.459 34.9966 22.9545 35.0009 23.4428C34.9654 23.7221 34.9439 24.0023 34.9018 24.281C34.8686 24.5085 34.8284 24.7348 34.7814 24.9598C34.7343 25.1849 34.6805 25.4083 34.6199 25.6301C34.5593 25.8518 34.4919 26.0716 34.4179 26.2892C34.3439 26.5069 34.2634 26.7222 34.1763 26.9349C34.0684 27.1983 33.9579 27.4881 33.7857 27.7164L33.7651 27.7556C33.6898 27.8917 33.6152 28.0297 33.53 28.1598C33.3782 28.3915 32.94 28.8886 32.9324 29.1553C31.9073 30.2594 30.6218 31.0041 29.2353 31.5559C29.7427 31.9704 30.3306 32.2466 30.8148 32.699C30.6206 32.7067 29.8324 33.1275 29.5939 33.2295C29.3289 33.3413 29.0604 33.4442 28.7886 33.5383C28.6454 33.5888 28.5012 33.6362 28.3559 33.6805C28.2107 33.7248 28.0645 33.7659 27.9175 33.804C27.7705 33.842 27.6228 33.8769 27.4743 33.9086C27.3258 33.9403 27.1767 33.9688 27.0269 33.9941C26.8772 34.0194 26.727 34.0415 26.5763 34.0604C26.4257 34.0793 26.2747 34.0949 26.1233 34.1074C25.972 34.1198 25.8205 34.129 25.6687 34.1349C25.517 34.1409 25.3652 34.1435 25.2134 34.143C24.9008 34.1434 24.584 34.1525 24.2724 34.1285C21.9582 33.9507 20.0134 32.8571 18.166 31.5308C17.4631 31.0262 16.7971 30.4713 16.0837 29.9819C15.8761 29.8394 15.6543 29.6711 15.4268 29.5632C15.4219 29.561 15.417 29.5588 15.4122 29.5566C15.3396 29.15 15.3641 28.6935 15.3496 28.2812C15.3267 27.6305 15.2836 26.9775 15.2477 26.3271C15.2074 25.5363 15.1613 24.7458 15.1094 23.9557C15.0674 23.383 14.9867 22.8065 15.0012 22.2317C15.072 22.1225 15.1812 21.0059 15.2093 20.8138C15.3132 20.1099 15.4577 19.4145 15.6428 18.7276C15.694 18.5419 15.7484 18.3573 15.8059 18.1735C15.8635 17.9898 15.9243 17.8071 15.9883 17.6255C16.0522 17.4439 16.1193 17.2634 16.1896 17.0842C16.2598 16.9049 16.3332 16.7269 16.4096 16.5502C16.4861 16.3735 16.5656 16.1981 16.6482 16.0242C16.7307 15.8502 16.8163 15.6778 16.9049 15.5068C16.9935 15.3359 17.085 15.1665 17.1795 14.9987C17.274 14.831 17.3714 14.6649 17.4717 14.5005C17.6891 14.1498 17.935 13.8132 18.1695 13.4735Z" fill="url(#paint6_linear_992_143166)"/>
<path d="M22.7527 18.627C23.0178 18.8209 23.3638 19.0211 23.5703 19.2766C23.3619 19.518 23.1946 19.7962 22.9391 19.9924C22.722 19.8354 22.5667 19.6524 22.3163 19.5382C22.1929 19.5491 21.8893 19.6807 21.811 19.6614C21.8071 19.6282 21.8114 19.6118 21.8223 19.5795C21.984 19.0958 22.316 18.8473 22.7527 18.627Z" fill="#7A7D63"/>
<path d="M18.3935 19.1535C18.4942 19.1239 18.5901 19.1022 18.6919 19.138C18.7677 19.2243 18.7452 19.3445 18.7382 19.4526C18.7319 19.5501 18.7134 19.6639 18.7297 19.7603C18.7728 20.015 19.0289 20.2478 19.1433 20.48C18.9668 20.9835 18.548 21.7826 18.7934 22.3074C18.8856 22.5046 19.0513 22.6594 19.1512 22.8523C19.3164 23.1711 19.4177 23.5192 19.5799 23.8398C19.5928 23.645 19.6041 23.4439 19.6759 23.2602L19.7078 23.2343C19.8124 23.2956 19.9363 24.1056 20.3441 24.4452C20.6808 24.7256 21.0891 24.6624 21.468 24.8109C21.568 24.8501 21.6629 24.9181 21.7497 24.9812C21.95 25.1267 22.1273 25.3014 22.3221 25.4536C22.5434 25.6265 22.8253 25.7849 23.014 25.9919C23.0801 26.0645 23.1158 26.1688 23.16 26.2559C23.1567 26.2628 23.1536 26.2696 23.1502 26.2764C23.0068 26.5697 22.7896 26.7445 22.8148 27.1008C23.0072 27.8143 24.1096 27.9423 24.1125 28.5942C24.114 28.9118 23.9384 29.2055 23.8804 29.5122C23.8427 29.7117 23.8645 29.9378 23.8145 30.13C22.6355 29.9054 21.1564 28.7279 20.3292 27.8693C20.1793 27.7147 20.0349 27.555 19.896 27.3904C19.7761 27.2492 19.6589 27.0792 19.5136 26.9649C19.508 26.9606 19.5023 26.9565 19.4968 26.9523C19.4661 26.9514 19.4355 26.9511 19.4049 26.9513C19.0161 26.9526 18.5371 27.0405 18.2541 27.3271C18.1002 27.0703 17.9594 26.8064 17.8317 26.5356C16.9918 24.7914 16.6496 22.6973 17.1343 20.804C17.2573 20.3237 17.4657 19.8951 17.6276 19.431C17.8797 19.3301 18.1412 19.2544 18.3935 19.1535Z" fill="#7A7D63"/>
<path d="M22.8146 27.1009C22.8228 27.099 22.8309 27.0972 22.8391 27.0952C23.0663 27.0402 23.28 26.9261 23.4955 26.8367C24.0408 26.6105 24.6168 26.5051 25.1477 26.8245C25.4827 27.026 25.7036 27.3388 25.9974 27.5864C26.2177 27.772 26.4808 27.8856 26.7473 27.9881L26.758 27.9824C27.9884 28.125 29.1622 28.0168 30.3161 27.5475C30.6995 27.3915 31.045 27.1762 31.4388 27.0358C31.5569 27.4152 31.2575 27.6631 31.2393 28.019C31.2279 28.2394 31.3722 28.4968 31.429 28.7101C31.4758 28.8858 31.4978 29.0713 31.5103 29.2525C31.585 29.3426 31.642 29.4044 31.7638 29.4156C31.9601 29.4338 32.1446 29.3001 32.2835 29.1751C32.6415 28.8525 32.8617 28.4205 33.1985 28.0852C33.3562 27.9281 33.5967 27.9065 33.7653 27.7557C33.69 27.8917 33.6154 28.0297 33.5302 28.1599C33.3784 28.3916 32.9402 28.8887 32.9326 29.1553C31.9075 30.2595 30.622 31.0041 29.2355 31.556C27.683 32.1092 25.937 32.2984 24.3237 31.8931C21.7249 31.2402 19.6237 29.6212 18.2539 27.3272C18.537 27.0406 19.0159 26.9527 19.4047 26.9514C19.4354 26.9512 19.466 26.9515 19.4966 26.9524C19.5022 26.9566 19.5079 26.9606 19.5134 26.965C19.6587 27.0792 19.7759 27.2493 19.8959 27.3904C20.0347 27.5551 20.1791 27.7148 20.3291 27.8694C21.1563 28.728 22.6353 29.9055 23.8144 30.1301C23.8644 29.9378 23.8426 29.7117 23.8803 29.5122C23.9383 29.2055 24.1138 28.9119 24.1124 28.5942C24.1094 27.9423 23.0071 27.8144 22.8146 27.1009Z" fill="#525238"/>
<path d="M22.8145 27.1009C22.8226 27.099 22.8307 27.0972 22.8389 27.0952C23.0661 27.0402 23.2798 26.9261 23.4953 26.8367C24.0406 26.6105 24.6166 26.5051 25.1475 26.8245C25.4825 27.026 25.7034 27.3388 25.9972 27.5864C26.2175 27.772 26.4806 27.8856 26.7471 27.9881C26.672 28.2826 26.6045 28.6381 26.3234 28.8047C26.2079 28.8732 26.0794 28.9187 25.9731 29.0028C25.6328 29.2718 25.6798 29.7092 25.3843 29.9965C25.1233 30.2502 24.3732 30.5583 24.2825 30.8812C24.2581 30.9682 24.287 31.0584 24.332 31.1335C24.4011 31.2491 24.503 31.3401 24.6016 31.4301C24.288 31.2851 24.041 31.1436 23.9142 30.8006C23.8377 30.5937 23.8088 30.3498 23.8142 30.1301C23.8642 29.9378 23.8424 29.7117 23.8801 29.5122C23.9381 29.2055 24.1136 28.9119 24.1122 28.5942C24.1092 27.9423 23.0069 27.8144 22.8145 27.1009Z" fill="#D08C61"/>
<path d="M18.1695 13.4735L18.1924 13.4646C18.5438 13.7134 18.9121 13.9312 19.2751 14.1619C19.6268 14.3856 19.9666 14.6197 20.3311 14.8236C19.9019 15.0092 19.4751 15.1866 19.0696 15.4216C19.5806 15.5713 20.0009 15.8237 20.3886 16.1881C20.5975 16.3922 20.7831 16.6223 20.9933 16.8276C20.523 17.2688 19.9742 17.1834 19.4105 17.3657C19.1595 17.7829 18.396 18.6967 18.3931 19.1535C18.1409 19.2544 17.8793 19.3301 17.6273 19.431C17.4653 19.8951 17.2569 20.3237 17.1339 20.804C16.6493 22.6973 16.9915 24.7914 17.8313 26.5356C17.9591 26.8064 18.0999 27.0702 18.2537 27.3271C19.6235 29.6211 21.7247 31.2401 24.3236 31.893C25.9368 32.2983 27.6828 32.1091 29.2353 31.5559C29.7427 31.9704 30.3306 32.2466 30.8148 32.699C30.6206 32.7067 29.8324 33.1275 29.5939 33.2295C29.3289 33.3413 29.0604 33.4442 28.7886 33.5383C28.6454 33.5888 28.5012 33.6362 28.3559 33.6805C28.2107 33.7248 28.0645 33.7659 27.9175 33.804C27.7705 33.842 27.6228 33.8769 27.4743 33.9086C27.3258 33.9403 27.1767 33.9688 27.0269 33.9941C26.8772 34.0194 26.727 34.0415 26.5763 34.0604C26.4257 34.0793 26.2747 34.0949 26.1233 34.1074C25.972 34.1198 25.8205 34.129 25.6687 34.1349C25.517 34.1409 25.3652 34.1435 25.2134 34.143C24.9008 34.1434 24.584 34.1525 24.2724 34.1285C21.9582 33.9507 20.0134 32.8571 18.166 31.5308C17.4631 31.0262 16.7971 30.4713 16.0837 29.9819C15.8761 29.8394 15.6543 29.6711 15.4268 29.5632C15.4219 29.561 15.417 29.5588 15.4122 29.5566C15.3396 29.15 15.3641 28.6935 15.3496 28.2812C15.3267 27.6305 15.2836 26.9775 15.2477 26.3271C15.2074 25.5363 15.1613 24.7458 15.1094 23.9557C15.0674 23.383 14.9867 22.8065 15.0012 22.2317C15.072 22.1225 15.1812 21.0059 15.2093 20.8138C15.3132 20.1099 15.4577 19.4145 15.6428 18.7276C15.694 18.5419 15.7484 18.3573 15.8059 18.1735C15.8635 17.9898 15.9243 17.8071 15.9883 17.6255C16.0522 17.4439 16.1193 17.2634 16.1896 17.0842C16.2598 16.9049 16.3332 16.7269 16.4096 16.5502C16.4861 16.3735 16.5656 16.1981 16.6482 16.0242C16.7307 15.8502 16.8163 15.6778 16.9049 15.5068C16.9935 15.3359 17.085 15.1665 17.1795 14.9987C17.274 14.831 17.3714 14.6649 17.4717 14.5005C17.6891 14.1498 17.935 13.8132 18.1695 13.4735Z" fill="url(#paint7_linear_992_143166)"/>
<path d="M18.9058 17.4771C19.0692 17.462 19.2493 17.4024 19.4107 17.3657C19.1597 17.783 18.3962 18.6968 18.3933 19.1536C18.1411 19.2545 17.8795 19.3301 17.6274 19.431C17.8858 18.8069 18.4126 17.9417 18.9058 17.4771Z" fill="#D08C61"/>
<path d="M20.3887 16.1881C20.5977 16.3922 20.7833 16.6223 20.9935 16.8277C20.5231 17.2689 19.9744 17.1835 19.4107 17.3657C19.2493 17.4024 19.0692 17.4619 18.9058 17.477C19.3429 16.9818 19.849 16.5657 20.3887 16.1881Z" fill="#7A7D63"/>
<path d="M32.3493 16.6411C32.353 16.6468 32.3566 16.6525 32.3604 16.6581C32.4695 16.8212 32.6159 16.9651 32.7451 17.1134C32.9315 17.3275 33.1146 17.5526 33.2785 17.7844C34.1685 19.0435 34.7715 20.4314 34.9392 21.9734C34.9921 22.459 34.9969 22.9546 35.0012 23.4428C34.9658 23.7222 34.9442 24.0024 34.9022 24.2811C34.8689 24.5086 34.8288 24.7349 34.7817 24.9599C34.7347 25.185 34.6808 25.4084 34.6202 25.6301C34.5596 25.8519 34.4923 26.0716 34.4183 26.2893C34.3443 26.507 34.2637 26.7222 34.1766 26.935C34.0688 27.1984 33.9583 27.4882 33.786 27.7165L33.7655 27.7557C33.5969 27.9065 33.3563 27.9281 33.1986 28.0852C32.8618 28.4205 32.6416 28.8525 32.2836 29.1751C32.1448 29.3001 31.9602 29.4338 31.7639 29.4156C31.6422 29.4044 31.5852 29.3426 31.5105 29.2525C31.4979 29.0713 31.4759 28.8858 31.4291 28.7101C31.3723 28.4968 31.2281 28.2394 31.2394 28.019C31.2577 27.6631 31.557 27.4152 31.439 27.0358C31.0452 27.1762 30.6996 27.3915 30.3162 27.5475C29.1624 28.0168 27.9885 28.125 26.7582 27.9824C26.8142 27.7793 27.0711 27.3317 27.0092 27.1471C26.9139 26.8626 26.06 26.7901 25.778 26.6336C25.7712 26.6298 25.7646 26.6259 25.7579 26.6221C25.6801 26.4537 25.6449 26.2504 25.5402 26.0978C25.3948 25.8859 25.1673 25.7363 24.9368 25.6315C24.6518 25.5019 24.3419 25.4186 24.0278 25.4118C23.6256 25.4031 23.0337 25.5851 22.6718 25.4281C22.1724 25.2115 22.2247 24.7135 21.8869 24.4891C21.7555 24.4017 21.5769 24.4944 21.4387 24.5229C21.3594 24.5392 21.2758 24.5371 21.2068 24.4898C21.0992 24.4162 21.0412 24.2568 21.0179 24.1347C20.9616 23.8404 21.0499 23.4943 21.2212 23.25C21.3475 23.0698 21.525 22.9552 21.7422 22.9177C22.1524 22.8468 22.6081 23.0298 22.9417 23.2555C22.8675 23.1182 22.7969 22.9907 22.7786 22.8326C22.7607 22.6786 22.8064 22.5319 22.9042 22.4121C23.1072 22.1637 23.442 22.0828 23.7446 22.0465C23.6512 21.8657 23.499 21.6077 23.5431 21.3982C23.5743 21.3632 23.5845 21.3447 23.6369 21.3498C23.8069 21.3664 24.0255 21.6227 24.1341 21.7433C24.1667 21.4435 24.21 21.1246 24.3819 20.8679C24.4574 20.7553 24.5617 20.6669 24.6983 20.6433C24.9547 20.5988 25.1998 20.8025 25.3958 20.9416C25.3426 20.7375 25.2866 20.5362 25.2215 20.3354L25.2477 20.3454C25.4725 20.4323 25.6671 20.5783 25.8808 20.6876C26.3998 20.9529 26.941 21.1921 27.4982 21.3656C27.8949 21.4891 28.3141 21.5927 28.7244 21.6597C28.9296 21.6933 29.3627 21.7058 29.5302 21.775C29.5342 21.7766 29.5376 21.7792 29.5414 21.7813C29.811 21.821 30.1896 21.7181 30.5136 21.7706C30.642 21.716 30.7629 21.6549 30.9058 21.6646C31.1995 21.6086 31.4819 21.5348 31.7669 21.4459C31.9675 21.3297 32.1988 21.2557 32.4096 21.1582C32.4113 21.153 32.4129 21.1478 32.4147 21.1426C32.4493 21.0404 32.4523 20.9383 32.4594 20.8314C32.4946 20.7084 32.518 20.5796 32.5499 20.4551C32.7964 19.8093 32.6347 18.1908 32.5178 17.4838C32.4721 17.2074 32.3571 16.9194 32.3493 16.6411Z" fill="#7A7D63"/>
<path d="M31.7669 21.4458L31.8167 21.4753C31.7862 21.6133 31.7658 21.8122 31.6414 21.9003C31.5722 21.9494 31.4827 21.9479 31.404 21.9282C31.2383 21.8867 31.0381 21.7712 30.9058 21.6645C31.1994 21.6085 31.4819 21.5347 31.7669 21.4458Z" fill="#FECB6A"/>
<path d="M29.5414 21.7812C29.811 21.8209 30.1896 21.718 30.5136 21.7706C30.4379 21.8054 30.3605 21.8395 30.2924 21.8879C30.1098 22.0179 29.8788 22.2947 29.6267 22.1957C29.5301 22.1579 29.4551 22.0736 29.3965 21.9909L29.5414 21.7812Z" fill="#FECB6A"/>
<path d="M32.3491 16.6411C32.3528 16.6468 32.3564 16.6525 32.3602 16.6581C32.4693 16.8212 32.6157 16.9651 32.7449 17.1134C32.9313 17.3275 33.1144 17.5526 33.2784 17.7844C34.1683 19.0435 34.7713 20.4314 34.9391 21.9734C34.9919 22.459 34.9968 22.9546 35.001 23.4428C34.9656 23.7222 34.9441 24.0024 34.902 24.2811C34.8687 24.5086 34.8286 24.7349 34.7815 24.9599C34.7345 25.185 34.6807 25.4084 34.62 25.6301C34.5594 25.8519 34.4921 26.0716 34.4181 26.2893C34.3441 26.507 34.2635 26.7222 34.1764 26.935C34.0686 27.1984 33.9581 27.4882 33.7858 27.7165L33.7653 27.7557C33.5967 27.9065 33.3561 27.9281 33.1984 28.0852C32.8616 28.4205 32.6414 28.8525 32.2834 29.1751C32.1446 29.3001 31.96 29.4338 31.7637 29.4156C31.642 29.4044 31.585 29.3426 31.5103 29.2525C31.4977 29.0713 31.4757 28.8858 31.4289 28.7101C31.3721 28.4968 31.2279 28.2394 31.2392 28.019C31.2575 27.6631 31.5568 27.4152 31.4388 27.0358C31.3011 26.8862 31.1191 26.782 30.9767 26.6333C30.9783 26.4724 30.9854 26.3069 30.968 26.1468C30.9555 26.0322 30.9276 25.8506 30.8206 25.7842C30.6326 25.6677 30.1228 26.0217 29.8956 26.0914C29.8367 26.0719 29.7791 26.0492 29.7228 26.0233C29.2586 25.8102 28.6784 25.154 28.5079 24.6738C28.3915 24.3458 28.5189 24.1514 28.6599 23.8643C28.7158 23.7503 28.7596 23.6306 28.8148 23.5163C28.8651 23.4119 28.9233 23.3066 29.0157 23.2336C29.1725 23.1096 29.3744 23.0342 29.5523 22.9436C29.94 22.7461 30.3088 22.5349 30.7212 22.3902C31.0159 22.5583 31.2257 22.8507 31.5217 23.0056C31.8423 22.9743 32.1639 22.8883 32.4864 22.8878C32.7122 22.8874 33.0542 23.0589 33.2568 22.9422C33.2705 22.9188 33.2822 22.9072 33.2824 22.8788C33.2835 22.709 33.1165 22.5246 33.0148 22.4028C33.1093 22.2723 33.2209 22.2 33.3482 22.1044C33.4123 22.0563 33.482 21.9844 33.4838 21.8985C33.4847 21.8544 33.4652 21.8143 33.4334 21.7846C33.3797 21.7343 33.3012 21.7143 33.2296 21.7101C32.7746 21.6837 32.6146 22.2748 32.2075 22.252C32.1494 22.2487 32.0827 22.2301 32.0471 22.1808C31.9757 22.0814 32.0367 21.8716 32.0523 21.7535C32.0621 21.6795 32.0685 21.5758 32.0103 21.5183C31.9578 21.4664 31.8839 21.4695 31.8166 21.4754L31.7667 21.4459C31.9673 21.3297 32.1986 21.2557 32.4094 21.1582C32.4111 21.153 32.4127 21.1478 32.4145 21.1426C32.4491 21.0404 32.4521 20.9383 32.4592 20.8314C32.4944 20.7084 32.5178 20.5796 32.5498 20.4551C32.7962 19.8093 32.6345 18.1908 32.5177 17.4838C32.4719 17.2074 32.3569 16.9194 32.3491 16.6411Z" fill="#D08C61"/>
<path d="M33.9156 22.9545C34.6058 22.999 34.5788 23.4161 35.0008 23.4427C34.9654 23.7221 34.9439 24.0023 34.9018 24.281C34.8685 24.5085 34.8284 24.7348 34.7813 24.9598C34.7343 25.1849 34.6805 25.4083 34.6199 25.6301C34.5592 25.8518 34.4919 26.0716 34.4179 26.2892C34.3439 26.5069 34.2633 26.7221 34.1763 26.9349C34.0684 27.1983 33.9579 27.4881 33.7856 27.7164C33.8083 27.6149 33.8466 27.5099 33.792 27.4131C33.6874 27.333 33.5365 27.3683 33.4205 27.3192C33.3953 27.3086 33.3797 27.2914 33.3751 27.2651C33.3357 27.0373 33.7624 26.6688 33.8902 26.4822L33.9052 26.4601L33.9076 26.0536C34.1095 25.8554 34.4398 25.593 34.5016 25.3086C34.5305 25.1755 34.4824 25.0985 34.4107 24.9911C34.1593 24.6141 34.5319 24.4946 34.6938 24.215C34.8023 24.0276 34.8438 23.8136 34.8851 23.6037C34.5465 23.4103 34.2233 23.1939 33.9156 22.9545Z" fill="#525238"/>
</g>
<defs>
<linearGradient id="paint0_linear_992_143166" x1="9.42542" y1="36.8457" x2="6.59297" y2="3.37238" gradientUnits="userSpaceOnUse">
<stop stop-color="#715F31"/>
<stop offset="1" stop-color="#D1B17F"/>
</linearGradient>
<linearGradient id="paint1_linear_992_143166" x1="25.4301" y1="37.5949" x2="24.1664" y2="28.4099" gradientUnits="userSpaceOnUse">
<stop stop-color="#9D7445"/>
<stop offset="1" stop-color="#C89A6A"/>
</linearGradient>
<linearGradient id="paint2_linear_992_143166" x1="22.1611" y1="6.77627" x2="26.6386" y2="-2.95109" gradientUnits="userSpaceOnUse">
<stop stop-color="#EEBE74"/>
<stop offset="1" stop-color="#E8CAA9"/>
</linearGradient>
<linearGradient id="paint3_linear_992_143166" x1="16.4039" y1="26.1074" x2="1.73133" y2="11.8077" gradientUnits="userSpaceOnUse">
<stop stop-color="#664C1E"/>
<stop offset="1" stop-color="#AE956B"/>
</linearGradient>
<linearGradient id="paint4_linear_992_143166" x1="20.7591" y1="11.2636" x2="29.1262" y2="0.0995437" gradientUnits="userSpaceOnUse">
<stop stop-color="#E8A850"/>
<stop offset="1" stop-color="#EAC8A1"/>
</linearGradient>
<linearGradient id="paint5_linear_992_143166" x1="15.7873" y1="20.9125" x2="10.2616" y2="20.8697" gradientUnits="userSpaceOnUse">
<stop stop-color="#957D54"/>
<stop offset="1" stop-color="#C3A772"/>
</linearGradient>
<linearGradient id="paint6_linear_992_143166" x1="26.6816" y1="27.9566" x2="19.1393" y2="17.597" gradientUnits="userSpaceOnUse">
<stop stop-color="#DE9149"/>
<stop offset="1" stop-color="#F3B051"/>
</linearGradient>
<linearGradient id="paint7_linear_992_143166" x1="31.6883" y1="30.9883" x2="14.0696" y2="19.9613" gradientUnits="userSpaceOnUse">
<stop stop-color="#B38B5F"/>
<stop offset="1" stop-color="#E0C192"/>
</linearGradient>
<clipPath id="clip0_992_143166">
<rect width="40" height="40" fill="white"/>
</clipPath>
</defs>
</svg>
