<svg width="40" height="40" viewBox="0 0 40 40" fill="none" xmlns="http://www.w3.org/2000/svg">
<g clip-path="url(#clip0_992_141841)">
<path d="M0 0H13.2084H13.8789H40V27.901V29.8158V40H21.6519H18.9112H0V29.7765V28.4636V0ZM0 0V28.4636V29.7765V40H18.9112H21.6519H40V29.8158L39.9949 29.8373C39.932 30.1146 39.9195 30.4034 39.8656 30.6832C39.6879 31.6102 39.3656 32.5348 38.8316 33.32C38.7347 33.2442 38.8643 33.0326 38.901 32.9436C39.2004 32.2175 39.6309 30.8441 39.3836 30.0868C38.9227 32.345 37.5855 33.9696 35.6966 35.2169C35.2192 35.5322 34.706 35.7852 34.1918 36.034C33.9227 36.1672 33.6507 36.2943 33.3759 36.4153C33.1011 36.5363 32.8237 36.6511 32.5438 36.7596C32.2638 36.8682 31.9815 36.9704 31.697 37.0662C31.4125 37.1621 31.1259 37.2515 30.8373 37.3345C30.3938 37.46 29.9379 37.5575 29.4893 37.6632C29.2196 37.7267 28.656 37.9 28.3973 37.8856C28.8376 37.6814 29.2879 37.5037 29.7223 37.2855C29.8636 37.2146 30.003 37.14 30.1404 37.0617C30.2778 36.9834 30.413 36.9015 30.5461 36.816C30.6791 36.7306 30.8098 36.6417 30.9382 36.5493C31.0665 36.4569 31.1923 36.3612 31.3156 36.2622C31.4389 36.1632 31.5595 36.0609 31.6774 35.9555C31.7953 35.8501 31.9103 35.7417 32.0224 35.6302C32.1346 35.5187 32.2437 35.4043 32.3498 35.287C32.4559 35.1698 32.5588 35.0498 32.6586 34.9271C32.3784 34.8889 31.811 35.1018 31.5066 35.1587C30.5284 35.3416 29.5478 35.5105 28.5648 35.6653C27.9915 35.7584 27.4161 35.8759 26.8357 35.9127C26.7196 35.9201 26.5756 35.9296 26.4622 35.9006C26.3152 35.8632 26.1661 35.7909 26.0227 35.7391C25.5424 35.5655 25.0576 35.3997 24.587 35.2009C24.205 35.0396 23.8293 34.8549 23.4533 34.6796C23.1915 34.5577 22.8707 34.4472 22.6537 34.2557L22.6307 34.2451C20.9733 33.544 18.6354 32.0209 17.4457 30.6523C17.3173 30.5047 17.1748 30.353 17.0721 30.1863C17.0452 30.1427 17.0224 30.1165 17.0355 30.0647C16.9525 30.0554 16.8479 29.9851 16.7717 29.9453C16.702 29.9096 16.6331 29.8722 16.5652 29.8331C16.4973 29.7941 16.4303 29.7534 16.3643 29.7111C16.2983 29.6688 16.2334 29.625 16.1696 29.5796C16.1058 29.5341 16.043 29.4872 15.9814 29.4387C15.9199 29.3902 15.8595 29.3403 15.8004 29.2889C15.7412 29.2375 15.6833 29.1847 15.6267 29.1305C15.5701 29.0764 15.5149 29.0209 15.4609 28.964C15.407 28.9071 15.3545 28.849 15.3034 28.7896C14.6431 28.0229 14.205 27.0046 14.2861 25.9777C14.3159 25.6007 14.4312 25.2226 14.5726 24.8736C15.1064 23.5554 16.1037 22.5745 17.1611 21.6629L17.1795 21.637C17.0844 21.3517 17.0646 21.0243 17.0262 20.7268C16.9343 20.0155 16.8581 19.303 16.8605 18.5846C16.8619 18.1632 16.9055 17.7462 16.9181 17.3259L16.9324 17.3179C17.1384 15.3691 17.8282 13.3974 19.0795 11.8684C20.2686 10.4154 21.6779 9.60781 23.4714 9.10789C23.7261 9.03687 24.1021 8.88586 24.3434 8.86187L24.6191 8.7698C24.3821 8.40824 24.0843 8.07488 23.7993 7.75125C21.8668 8.25297 19.707 8.26145 17.7267 8.07988C17.0552 8.01828 16.381 7.94191 15.7277 7.76813C15.4368 7.6907 15.1666 7.58418 14.8901 7.46727C14.584 7.32648 14.2105 7.19496 14.0518 6.8732C13.8553 6.47453 14.0296 5.9734 14.1636 5.58367C13.4107 4.85711 12.6892 4.09895 11.9371 3.37218C11.518 2.96712 11.0532 2.60502 10.6527 2.18108C10.5509 2.0733 10.3728 1.89322 10.3435 1.7442C10.2986 1.51536 10.3591 1.29847 10.4873 1.10734C10.8827 0.518121 11.7085 0.258957 12.3694 0.133428C12.6475 0.080609 12.9311 0.0559578 13.2084 0H0ZM13.2084 0C12.9311 0.0559578 12.6475 0.080609 12.3694 0.133428C11.7085 0.258957 10.8827 0.518121 10.4873 1.10734C10.3591 1.29847 10.2986 1.51536 10.3435 1.7442C10.3728 1.89322 10.5509 2.0733 10.6527 2.18108C11.0532 2.60502 11.518 2.96712 11.9371 3.37218C12.6892 4.09895 13.4107 4.85711 14.1636 5.58367C14.8397 6.10559 16.0216 6.29809 16.8614 6.43055C16.9094 6.44469 16.968 6.45598 17.0128 6.47684C17.4617 6.56289 17.9235 6.60371 18.3789 6.63813C20.1179 6.76949 21.8396 6.65137 23.5617 6.39258C24.1198 6.29082 24.7021 6.20969 25.219 5.96543C25.5577 5.85297 25.7981 5.69781 26.05 5.44512C26.0877 5.63887 26.0773 5.8391 26.0734 6.03562C26.0427 6.40816 25.9787 6.69535 25.7192 6.97828C25.9793 7.16543 26.3265 7.24867 26.6322 7.33187C27.5524 7.5823 28.6855 7.79539 29.3325 8.55832C29.5083 8.76562 29.6531 9.01348 29.6941 9.28578C29.7129 9.40992 29.7132 9.53355 29.6886 9.65707C29.6328 9.79453 29.5692 9.90238 29.4411 9.9841C29.2677 10.0948 29.0564 10.0768 28.8842 9.97324C28.5932 9.7984 28.3784 9.44855 28.1329 9.21059C27.462 8.56035 26.1911 7.81156 25.2805 7.60621C26.4787 8.67259 27.6425 9.77516 28.7721 10.9139C29.9018 12.0527 30.9949 13.2254 32.0516 14.4321C32.6749 15.1277 33.2853 15.8345 33.8827 16.5525C35.8983 19.0116 37.9737 22.0145 39.1926 24.9543C39.329 25.2764 39.4501 25.6042 39.5559 25.9377C39.6616 26.2712 39.7514 26.6089 39.8254 26.9508C39.893 27.261 39.9043 27.6001 40 27.901V0H13.8789H13.2084Z" fill="#6B9A4E"/>
<path d="M28.9928 25.2206C29.0469 25.5094 29.037 25.8815 29.007 26.1734C28.9906 25.9913 29.0549 25.7464 28.9698 25.5844C28.9144 25.5521 28.8933 25.5562 28.8306 25.5557C28.8776 25.4355 28.9244 25.3301 28.9928 25.2206Z" fill="#C6D2A1"/>
<path d="M27.6185 14.1494C27.6169 14.2779 27.5063 14.3924 27.418 14.4787C27.2019 14.6898 26.8546 14.9073 26.5428 14.8952C26.3898 14.8892 26.2392 14.8307 26.1355 14.7155C25.9753 14.5376 25.943 14.273 25.961 14.0435C25.9858 13.7263 26.0932 13.4251 26.1528 13.1142C26.1992 12.8728 26.2156 12.6269 26.2684 12.3864C26.2739 12.5802 26.2618 12.7686 26.2367 12.9606C26.1843 13.3614 26.0138 13.9937 26.3608 14.3099C26.4352 14.3777 26.5364 14.4339 26.6353 14.4546C27.0209 14.4505 27.2866 14.3367 27.6185 14.1494Z" fill="#386741"/>
<path d="M25.7192 6.97827C25.9794 7.16542 26.3265 7.24866 26.6322 7.33187C27.5524 7.5823 28.6855 7.79538 29.3326 8.55831C29.5084 8.76562 29.6532 9.01347 29.6942 9.28577C29.7129 9.40991 29.7132 9.53354 29.6886 9.65706C29.5815 9.473 29.4716 9.28159 29.3355 9.11737C28.3995 7.98827 26.806 7.58503 25.4692 7.14288C25.5553 7.09276 25.6368 7.03421 25.7192 6.97827Z" fill="#EDE451"/>
<path d="M25.2189 5.96544C25.5576 5.85298 25.798 5.69782 26.0499 5.44513C26.0875 5.63888 26.0772 5.83911 26.0733 6.03564C24.7683 7.10962 20.7215 7.27454 19.0493 7.11411C18.449 7.05654 17.856 6.93036 17.307 6.67423C17.2129 6.63032 17.0923 6.57974 17.0194 6.50505L17.0127 6.47685C17.4616 6.5629 17.9234 6.60372 18.3787 6.63814C20.1178 6.7695 21.8395 6.65138 23.5616 6.39259C24.1196 6.29083 24.702 6.2097 25.2189 5.96544Z" fill="#EDE451"/>
<path d="M24.293 7.61612C24.46 7.57229 24.6224 7.51221 24.7904 7.46991C25.197 7.96975 25.6639 8.42827 26.0884 8.91421C26.2527 9.10237 26.5564 9.53694 26.7226 9.67366C26.8543 9.92073 27.058 10.1306 27.2158 10.3617C27.4297 10.6751 27.5988 11.0136 27.7811 11.3452C28.0135 11.9467 28.392 12.7504 28.1114 13.3907C28.0609 13.506 28.0007 13.6165 27.9562 13.7346C27.8626 13.887 27.7379 14.017 27.6185 14.1494C27.2866 14.3366 27.0209 14.4504 26.6353 14.4545C26.6922 14.4003 26.7496 14.346 26.8034 14.2886C27.1613 13.9063 27.27 13.3708 27.257 12.8629C27.2177 11.3289 26.1739 9.82214 25.2383 8.67346C24.9416 8.30928 24.6339 7.93968 24.293 7.61612Z" fill="#EDE451"/>
<path d="M24.79 7.46994L24.9968 7.42279C25.0825 7.48529 25.1798 7.57131 25.2804 7.60623C26.4785 8.67261 27.6424 9.77517 28.772 10.9139C29.9016 12.0527 30.9948 13.2254 32.0515 14.4321C32.6748 15.1277 33.2852 15.8345 33.8826 16.5525C35.8982 19.0116 37.9736 22.0145 39.1925 24.9543C39.3289 25.2764 39.45 25.6042 39.5557 25.9377C39.6615 26.2712 39.7513 26.6089 39.8253 26.9508C39.8929 27.261 39.9042 27.6001 39.9999 27.901V29.8158L39.9948 29.8373C39.9319 30.1146 39.9194 30.4034 39.8655 30.6832C39.6878 31.6102 39.3655 32.5349 38.8315 33.32C38.7346 33.2442 38.8642 33.0326 38.9009 32.9436C39.2003 32.2175 39.6307 30.8442 39.3835 30.0868C39.612 28.961 39.5311 27.6765 39.21 26.5781C38.6475 24.6545 37.6491 22.8594 36.5731 21.1794C35.9205 20.1517 35.2281 19.1515 34.496 18.1787C32.7882 15.9255 30.8565 13.823 28.8805 11.8037C28.4223 11.3335 27.9593 10.8681 27.4916 10.4074C27.3066 10.2225 26.9275 9.78572 26.7223 9.67369C26.5561 9.53697 26.2523 9.1024 26.088 8.91424C25.6636 8.4283 25.1966 7.96978 24.79 7.46994Z" fill="#224312"/>
<path d="M28.3296 29.2907C28.6721 29.3036 29.0147 29.3299 29.3574 29.3355C29.9885 29.3471 30.6192 29.3356 31.2494 29.301C31.8796 29.2663 32.5078 29.2086 33.1338 29.1279C33.6082 29.0673 34.1018 29.0042 34.5687 28.899C34.705 30.3465 34.3099 32.009 33.6864 33.3134C33.5791 33.538 33.4428 33.7562 33.3171 33.9712C33.1339 34.2844 32.9299 34.6159 32.6936 34.8923C32.6789 34.9094 32.6736 34.9136 32.6586 34.9271C32.3785 34.8889 31.811 35.1018 31.5067 35.1587C30.5285 35.3416 29.5478 35.5105 28.5648 35.6653C27.9916 35.7583 27.4162 35.8759 26.8358 35.9127C26.7197 35.9201 26.5756 35.9296 26.4622 35.9006C26.3153 35.8632 26.1662 35.7909 26.0227 35.739C25.5425 35.5655 25.0577 35.3997 24.587 35.2009C24.205 35.0396 23.8294 34.8549 23.4533 34.6796C23.1916 34.5577 22.8707 34.4472 22.6538 34.2557C22.8936 34.1808 23.1322 34.1039 23.3661 34.012C23.4343 33.9855 23.5022 33.9581 23.5697 33.9299C23.6373 33.9017 23.7044 33.8727 23.7713 33.8428C23.8381 33.813 23.9046 33.7824 23.9707 33.7509C24.0368 33.7195 24.1025 33.6872 24.1678 33.6542C24.2331 33.6211 24.298 33.5873 24.3625 33.5527C24.427 33.518 24.491 33.4826 24.5547 33.4464C24.6183 33.4103 24.6815 33.3733 24.7442 33.3356C24.8069 33.2979 24.8692 33.2594 24.931 33.2201C24.9928 33.1809 25.0541 33.1409 25.1149 33.1002C25.1757 33.0595 25.236 33.018 25.2958 32.9758C25.3556 32.9336 25.4149 32.8907 25.4737 32.8471C25.5324 32.8034 25.5907 32.7591 25.6483 32.714C25.706 32.669 25.7631 32.6232 25.8197 32.5767C25.8763 32.5303 25.9323 32.4832 25.9877 32.4354C26.0431 32.3876 26.098 32.3391 26.1522 32.2899C26.2065 32.2408 26.2601 32.191 26.3131 32.1406C26.3662 32.0901 26.4186 32.039 26.4704 31.9873C26.5222 31.9356 26.5733 31.8833 26.6238 31.8303C26.6744 31.7773 26.7242 31.7238 26.7735 31.6696C26.8227 31.6154 26.8712 31.5606 26.9191 31.5053C26.967 31.4499 27.0142 31.394 27.0607 31.3374C27.1072 31.2809 27.1531 31.2239 27.1982 31.1662C27.2433 31.1086 27.2877 31.0505 27.3315 30.9917C27.3752 30.933 27.4182 30.8738 27.4605 30.8141C27.5027 30.7543 27.5443 30.6941 27.5851 30.6333C27.6259 30.5726 27.666 30.5113 27.7053 30.4496C27.7446 30.3878 27.7832 30.3256 27.821 30.2629C27.8588 30.2003 27.8958 30.1371 27.9321 30.0736C27.9684 30.01 28.0039 29.946 28.0386 29.8815C28.0733 29.8171 28.1072 29.7522 28.1403 29.687C28.1735 29.6217 28.2058 29.5561 28.2374 29.49C28.2689 29.4239 28.2996 29.3575 28.3296 29.2907Z" fill="#386741"/>
<path d="M27.7808 11.3452C28.3292 11.7578 28.899 12.5495 29.3888 13.0652C29.8485 13.549 30.3176 14.0228 30.7699 14.5138C31.7066 15.5303 32.6103 16.5752 33.4812 17.6485C33.897 18.1567 34.3226 18.661 34.7103 19.1911C35.0929 19.7195 35.4607 20.258 35.8137 20.8067C36.1667 21.3553 36.5043 21.9133 36.8265 22.4806C37.3871 23.4459 38.0208 24.5155 38.1758 25.6408C38.2603 26.2544 38.1753 26.8599 37.7906 27.3603C37.206 28.1208 36.25 28.4692 35.3565 28.7149C35.1006 28.7853 34.8377 28.8621 34.5741 28.8969C34.4933 28.1113 34.4202 27.3367 34.2527 26.5631C33.4908 23.0437 31.5253 19.3994 29.6429 16.3413C29.3195 15.8169 28.9925 15.2949 28.6619 14.775C28.4397 14.4248 28.2246 14.0506 27.9559 13.7346C28.0004 13.6165 28.0606 13.5061 28.1111 13.3907C28.3917 12.7504 28.0132 11.9467 27.7808 11.3452Z" fill="#A7CA58"/>
<path d="M16.9323 17.3178C17.1222 17.2524 17.314 17.1933 17.5078 17.1404C17.7016 17.0875 17.8968 17.041 18.0936 17.0009C18.2904 16.9608 18.4883 16.9271 18.6873 16.8999C18.8863 16.8727 19.086 16.852 19.2864 16.8379C20.8971 16.7392 22.6248 17.1522 24.0639 17.8685C25.5412 18.6037 26.7876 19.7035 27.6511 21.1141C27.8248 21.3978 27.9984 21.693 28.1277 21.9999C28.6268 23.0303 28.9062 24.0798 28.9926 25.2207C28.9243 25.3301 28.8775 25.4355 28.8304 25.5557C28.8932 25.5562 28.9143 25.5521 28.9697 25.5844C29.0547 25.7464 28.9905 25.9913 29.0068 26.1734C28.9975 26.9825 28.8452 27.8271 28.5949 28.5951C28.5186 28.8289 28.3954 29.0565 28.3294 29.2907C28.2995 29.3575 28.2687 29.4239 28.2372 29.49C28.2057 29.5561 28.1733 29.6217 28.1402 29.687C28.107 29.7522 28.0731 29.8171 28.0384 29.8816C28.0037 29.946 27.9682 30.01 27.9319 30.0736C27.8956 30.1372 27.8586 30.2003 27.8208 30.263C27.783 30.3256 27.7444 30.3878 27.7051 30.4496C27.6658 30.5113 27.6257 30.5726 27.5849 30.6333C27.5441 30.6941 27.5025 30.7543 27.4603 30.8141C27.418 30.8738 27.375 30.933 27.3313 30.9917C27.2876 31.0505 27.2431 31.1086 27.198 31.1662C27.1529 31.2239 27.1071 31.2809 27.0605 31.3375C27.014 31.394 26.9668 31.4499 26.9189 31.5053C26.871 31.5606 26.8225 31.6154 26.7733 31.6696C26.7241 31.7238 26.6742 31.7773 26.6237 31.8303C26.5732 31.8833 26.522 31.9356 26.4702 31.9873C26.4184 32.0391 26.366 32.0901 26.313 32.1406C26.2599 32.191 26.2063 32.2408 26.152 32.29C26.0978 32.3391 26.043 32.3876 25.9875 32.4354C25.9321 32.4832 25.8761 32.5303 25.8195 32.5767C25.763 32.6232 25.7059 32.669 25.6482 32.714C25.5905 32.7591 25.5323 32.8034 25.4735 32.8471C25.4147 32.8907 25.3554 32.9336 25.2956 32.9758C25.2358 33.018 25.1755 33.0595 25.1147 33.1002C25.0539 33.1409 24.9926 33.1809 24.9308 33.2201C24.869 33.2594 24.8067 33.2979 24.744 33.3356C24.6813 33.3733 24.6181 33.4103 24.5545 33.4464C24.4909 33.4826 24.4268 33.518 24.3623 33.5527C24.2978 33.5873 24.2329 33.6211 24.1676 33.6542C24.1023 33.6872 24.0366 33.7195 23.9705 33.7509C23.9044 33.7824 23.8379 33.813 23.7711 33.8428C23.7043 33.8727 23.6371 33.9017 23.5695 33.9299C23.502 33.9581 23.4341 33.9855 23.3659 34.012C23.132 34.1039 22.8934 34.1808 22.6536 34.2557L22.6306 34.2451C20.9732 33.544 18.6353 32.0209 17.4456 30.6523C17.3172 30.5047 17.1747 30.353 17.072 30.1863C17.0451 30.1427 17.0223 30.1165 17.0354 30.0647C16.9524 30.0554 16.8478 29.9851 16.7716 29.9453C16.7019 29.9096 16.633 29.8722 16.5651 29.8331C16.4971 29.7941 16.4302 29.7534 16.3642 29.7111C16.2982 29.6688 16.2333 29.625 16.1695 29.5796C16.1056 29.5341 16.0429 29.4872 15.9813 29.4387C15.9198 29.3902 15.8594 29.3403 15.8002 29.2889C15.7411 29.2375 15.6832 29.1847 15.6266 29.1305C15.57 29.0764 15.5148 29.0209 15.4608 28.964C15.4069 28.9071 15.3544 28.849 15.3033 28.7896C14.643 28.0229 14.2049 27.0046 14.286 25.9777C14.3158 25.6007 14.4311 25.2226 14.5725 24.8736C15.1063 23.5553 16.1036 22.5745 17.161 21.6629L17.1794 21.637C17.0843 21.3517 17.0645 21.0243 17.0261 20.7268C16.9342 20.0155 16.858 19.303 16.8604 18.5846C16.8618 18.1632 16.9054 17.7462 16.918 17.3258L16.9323 17.3178Z" fill="url(#paint0_linear_992_141841)"/>
<path d="M28.8307 25.5557C28.809 25.7332 28.7118 25.9754 28.6461 26.1418C28.5843 26.2983 28.4803 26.4682 28.3158 26.5312C28.1636 26.5896 27.9672 26.5451 27.8257 26.4776C27.1534 26.1568 26.7701 25.2694 26.5432 24.6035C26.2529 23.7517 26.052 22.5756 26.4723 21.7338C26.6067 21.4645 26.8059 21.3238 27.0861 21.231C27.367 21.3475 27.5699 21.4792 27.767 21.7113C27.8291 21.7843 27.9426 21.9516 28.0271 21.9917C28.046 22.0007 28.1044 21.998 28.1279 21.9999C28.6271 23.0303 28.9065 24.0798 28.9929 25.2207C28.9246 25.3302 28.8778 25.4355 28.8307 25.5557Z" fill="url(#paint1_linear_992_141841)"/>
<path d="M21.1916 17.1597C21.4048 17.3913 21.7481 18.0104 21.9281 18.3055C23.0839 20.2004 24.6272 23.2374 24.5316 25.4862C24.5052 26.1065 24.3566 26.6816 24.1287 27.2562C23.6798 27.1291 23.1581 27.1198 22.7319 26.9275C23.5159 24.8079 22.2811 21.2344 21.453 19.2402C21.2477 19.6081 21.0743 19.9955 20.8196 20.3335C20.2457 21.0953 19.4291 21.6355 18.6801 22.2102C18.3439 22.4681 18.0198 22.7473 17.6743 22.9919C17.4119 22.6085 17.3559 21.9542 17.1611 21.6629L17.1795 21.637C18.4376 20.6567 20.9098 18.7913 21.1916 17.1597Z" fill="url(#paint2_linear_992_141841)"/>
<path d="M21.4531 19.2402C22.2811 21.2344 23.5159 24.8079 22.7319 26.9275C22.5552 26.8065 22.0608 26.6329 21.8347 26.5287C21.3132 26.2883 20.803 25.9826 20.3402 25.6432C20.8902 25.2303 21.4725 24.8966 22.1465 24.74C21.386 24.7738 20.7293 25.0655 20.0789 25.4398C19.9904 25.3613 19.9048 25.2773 19.8004 25.2201C19.6883 25.1602 19.2419 24.7655 19.1769 24.6643C19.0253 24.5021 18.833 24.3652 18.6723 24.2084C18.2939 23.8391 17.9699 23.4293 17.6743 22.9919C18.0199 22.7473 18.344 22.4681 18.6801 22.2102C19.4292 21.6355 20.2457 21.0953 20.8196 20.3335C21.0744 19.9955 21.2477 19.6081 21.4531 19.2402Z" fill="#6B9A4E"/>
<path d="M19.4639 24.8008C19.9958 23.8937 20.5637 23.0041 20.9054 22.0012C20.9438 21.8883 21.1557 21.0908 21.182 21.0743L21.1487 21.1123L21.1886 21.1135C21.0663 21.9605 20.8278 22.8749 20.459 23.6495C21.0489 23.2905 21.505 23.0254 22.1807 22.8286C21.4239 23.3669 20.8318 23.604 20.2764 24.417C20.0995 24.6759 19.9681 24.9572 19.8003 25.2201C19.6882 25.1602 19.2418 24.7655 19.1768 24.6643C19.2166 23.8788 19.1896 23.0929 19.2254 22.3067C19.2999 22.5679 19.2884 22.8669 19.3113 23.1381C19.3581 23.6918 19.401 24.2489 19.4639 24.8008Z" fill="url(#paint3_linear_992_141841)"/>
<path d="M17.161 21.6629C17.3558 21.9542 17.4118 22.6085 17.6742 22.9919C17.9698 23.4293 18.2938 23.8391 18.6722 24.2084C18.8329 24.3652 19.0251 24.5021 19.1767 24.6643C19.2417 24.7655 19.6882 25.1602 19.8002 25.2201C19.9047 25.2772 19.9903 25.3612 20.0788 25.4398C20.7292 25.0655 21.3859 24.7738 22.1464 24.74C21.4723 24.8966 20.89 25.2303 20.3401 25.6431C20.8029 25.9826 21.3131 26.2883 21.8346 26.5286C22.0606 26.6328 22.555 26.8065 22.7318 26.9275C23.158 27.1198 23.6797 27.1291 24.1286 27.2562C23.9829 27.5482 23.8224 27.8272 23.6473 28.1025C24.4488 28.6486 26.1716 29.0002 27.1294 29.1427C27.5281 29.202 27.9316 29.2304 28.3294 29.2907C28.2995 29.3575 28.2687 29.4239 28.2372 29.49C28.2057 29.556 28.1733 29.6217 28.1402 29.687C28.107 29.7522 28.0731 29.8171 28.0384 29.8815C28.0037 29.946 27.9682 30.01 27.9319 30.0736C27.8956 30.1371 27.8586 30.2003 27.8208 30.2629C27.783 30.3256 27.7444 30.3878 27.7051 30.4495C27.6658 30.5113 27.6257 30.5725 27.5849 30.6333C27.5441 30.694 27.5025 30.7543 27.4603 30.8141C27.418 30.8738 27.375 30.933 27.3313 30.9917C27.2876 31.0505 27.2431 31.1086 27.198 31.1662C27.1529 31.2239 27.1071 31.2809 27.0605 31.3374C27.014 31.3939 26.9668 31.4499 26.9189 31.5052C26.871 31.5606 26.8225 31.6154 26.7733 31.6695C26.7241 31.7237 26.6742 31.7773 26.6237 31.8303C26.5732 31.8833 26.522 31.9356 26.4702 31.9873C26.4184 32.039 26.366 32.0901 26.313 32.1406C26.2599 32.191 26.2063 32.2408 26.152 32.2899C26.0978 32.3391 26.043 32.3876 25.9875 32.4354C25.9321 32.4832 25.8761 32.5303 25.8195 32.5767C25.763 32.6232 25.7059 32.6689 25.6482 32.714C25.5905 32.759 25.5323 32.8034 25.4735 32.847C25.4147 32.8907 25.3554 32.9336 25.2956 32.9758C25.2358 33.018 25.1755 33.0594 25.1147 33.1002C25.0539 33.1409 24.9926 33.1809 24.9308 33.2201C24.869 33.2594 24.8067 33.2979 24.744 33.3356C24.6813 33.3733 24.6181 33.4102 24.5545 33.4464C24.4909 33.4826 24.4268 33.518 24.3623 33.5527C24.2978 33.5873 24.2329 33.6211 24.1676 33.6542C24.1023 33.6872 24.0366 33.7195 23.9705 33.7509C23.9044 33.7824 23.8379 33.813 23.7711 33.8428C23.7043 33.8727 23.6371 33.9017 23.5695 33.9299C23.502 33.9581 23.4341 33.9855 23.3659 34.012C23.132 34.1038 22.8934 34.1808 22.6536 34.2557L22.6306 34.2451C20.9732 33.544 18.6353 32.0209 17.4456 30.6523C17.3172 30.5047 17.1747 30.353 17.072 30.1863C17.0451 30.1427 17.0223 30.1165 17.0354 30.0647C16.9524 30.0554 16.8478 29.9851 16.7716 29.9452C16.7019 29.9095 16.633 29.8722 16.5651 29.8331C16.4971 29.7941 16.4302 29.7534 16.3642 29.7111C16.2982 29.6688 16.2333 29.625 16.1695 29.5795C16.1056 29.5341 16.0429 29.4871 15.9813 29.4387C15.9198 29.3902 15.8594 29.3403 15.8002 29.2889C15.7411 29.2375 15.6832 29.1847 15.6266 29.1305C15.57 29.0764 15.5148 29.0208 15.4608 28.964C15.4069 28.9071 15.3544 28.8489 15.3033 28.7895C14.643 28.0229 14.2049 27.0045 14.286 25.9777C14.3158 25.6007 14.4311 25.2226 14.5725 24.8736C15.1063 23.5553 16.1036 22.5745 17.161 21.6629Z" fill="#386741"/>
<path d="M23.6474 28.1025C24.449 28.6486 26.1717 29.0002 27.1296 29.1428C27.5282 29.202 27.9317 29.2304 28.3295 29.2907C28.2996 29.3575 28.2689 29.4239 28.2373 29.49C28.2058 29.556 28.1735 29.6217 28.1403 29.687C28.1072 29.7522 28.0733 29.8171 28.0385 29.8815C28.0038 29.946 27.9683 30.01 27.9321 30.0736C27.8958 30.1371 27.8587 30.2003 27.8209 30.2629C27.7831 30.3256 27.7446 30.3878 27.7053 30.4495C27.6659 30.5113 27.6259 30.5725 27.5851 30.6333C27.5442 30.6941 27.5027 30.7543 27.4604 30.8141C27.4182 30.8738 27.3752 30.933 27.3314 30.9917C27.2877 31.0505 27.2433 31.1086 27.1982 31.1662C27.153 31.2239 27.1072 31.2809 27.0607 31.3374C27.0141 31.3939 26.9669 31.4499 26.9191 31.5052C26.8712 31.5606 26.8226 31.6154 26.7734 31.6695C26.7242 31.7237 26.6743 31.7773 26.6238 31.8303C26.5733 31.8833 26.5221 31.9356 26.4703 31.9873C26.4185 32.039 26.3661 32.0901 26.3131 32.1406C26.2601 32.191 26.2064 32.2408 26.1522 32.2899C26.0979 32.3391 26.0431 32.3876 25.9877 32.4354C25.9323 32.4832 25.8763 32.5303 25.8197 32.5767C25.7631 32.6232 25.706 32.6689 25.6483 32.714C25.5906 32.7591 25.5324 32.8034 25.4736 32.847C25.4149 32.8907 25.3556 32.9336 25.2958 32.9758C25.236 33.018 25.1756 33.0594 25.1148 33.1002C25.054 33.1409 24.9927 33.1809 24.9309 33.2201C24.8691 33.2594 24.8069 33.2979 24.7441 33.3356C24.6814 33.3733 24.6183 33.4103 24.5546 33.4464C24.491 33.4826 24.4269 33.518 24.3624 33.5527C24.298 33.5873 24.2331 33.6211 24.1678 33.6542C24.1024 33.6872 24.0367 33.7195 23.9707 33.7509C23.9046 33.7824 23.8381 33.813 23.7712 33.8428C23.7044 33.8727 23.6372 33.9017 23.5697 33.9299C23.5021 33.9581 23.4342 33.9855 23.366 34.012C23.1321 34.1038 22.8936 34.1808 22.6538 34.2557L22.6307 34.2451C20.9733 33.544 18.6355 32.0209 17.4457 30.6523C17.3174 30.5047 17.1748 30.353 17.0721 30.1863C17.0453 30.1427 17.0225 30.1165 17.0355 30.0647C17.5334 30.2336 18.0544 30.375 18.581 30.4126C19.0551 31.5562 20.0091 32.4348 21.0026 33.1337C21.1172 32.9316 21.2435 32.744 21.3849 32.5598C20.4568 32.1067 19.8024 31.316 19.3607 30.3968C19.4677 30.3852 19.5745 30.3722 19.6812 30.3579C21.3187 30.1333 22.6412 29.4288 23.6474 28.1025Z" fill="url(#paint4_linear_992_141841)"/>
<path d="M13.2082 0H13.8788C14.0885 0.0553816 14.3076 0.0783508 14.5211 0.116354C14.7567 0.158284 14.9902 0.2181 15.22 0.284339C16.7318 0.720004 18.3491 1.42965 19.9379 1.45288C22.6653 1.49276 25.1949 -0.690141 27.9572 0.238991C28.3927 0.385477 28.8239 0.59232 29.1431 0.931402C29.3914 1.13957 29.538 1.42397 29.5992 1.73866C29.5711 1.82372 29.5469 1.91162 29.4841 1.97876C29.241 2.31786 28.7965 2.6881 28.4927 2.98777C27.8929 3.57951 27.3175 4.19109 26.7283 4.79254C26.511 5.01441 26.2555 5.2157 26.0499 5.44512C25.7979 5.69781 25.5575 5.85297 25.2189 5.96543C24.702 6.20969 24.1196 6.29082 23.5615 6.39258C21.8395 6.65137 20.1177 6.76949 18.3787 6.63813C17.9234 6.60371 17.4616 6.56289 17.0127 6.47684C16.9678 6.45598 16.9093 6.44469 16.8613 6.43055C16.0215 6.29809 14.8396 6.10559 14.1634 5.58367C13.4106 4.85711 12.6891 4.09895 11.937 3.37218C11.5178 2.96712 11.0531 2.60502 10.6526 2.18108C10.5507 2.0733 10.3726 1.89322 10.3434 1.7442C10.2984 1.51536 10.359 1.29847 10.4872 1.10734C10.8825 0.518121 11.7083 0.258957 12.3693 0.133428C12.6474 0.080609 12.931 0.0559578 13.2082 0Z" fill="url(#paint5_linear_992_141841)"/>
<path d="M25.2192 5.96543C25.2236 5.9323 25.2371 5.90504 25.2578 5.8791C25.5047 5.57 25.8381 5.29601 26.1213 5.01769C26.5804 4.56633 29.1265 2.0315 29.4845 1.97876C29.2413 2.31786 28.7968 2.6881 28.4931 2.98777C27.8933 3.57951 27.3179 4.19109 26.7287 4.79254C26.5113 5.01441 26.2559 5.2157 26.0503 5.44512C25.7983 5.69781 25.5579 5.85297 25.2192 5.96543Z" fill="#386741"/>
<path d="M27.1902 0.60199C27.7289 0.695212 28.0228 0.688869 28.5421 0.962771C28.9416 1.17344 29.1886 1.42525 29.3245 1.86073C28.7837 2.04078 28.2441 2.20116 27.6937 2.34947C27.1249 2.50976 26.5527 2.66874 25.9795 2.81262C26.2705 2.39371 26.6791 2.09592 26.9159 1.62683C27.0915 1.27893 27.0148 0.949584 27.1098 0.719677C27.1273 0.67715 27.1616 0.637775 27.1902 0.60199Z" fill="#C6D2A1"/>
<path d="M13.2082 0H13.8788C14.0885 0.0553816 14.3076 0.0783508 14.5211 0.116354C14.7567 0.158284 14.9902 0.2181 15.22 0.284339C16.7318 0.720004 18.3491 1.42965 19.9379 1.45288C22.6653 1.49276 25.1949 -0.690141 27.9572 0.238991C28.3927 0.385477 28.8239 0.59232 29.1431 0.931402C29.0797 0.949914 29.0542 0.948551 28.9938 0.91918C28.8125 0.831031 28.6654 0.687363 28.477 0.598695C27.6999 0.232959 26.6711 0.143566 25.8456 0.386425C25.5037 0.487 25.1407 0.591547 24.8101 0.722863C24.3266 0.914906 23.8582 1.14358 23.3745 1.33445C22.0358 1.86271 20.5811 2.1624 19.1408 1.98062C18.834 1.9405 18.5297 1.88635 18.2278 1.81818C17.926 1.75 17.6279 1.6681 17.3336 1.57246C16.7424 1.37918 15.8258 0.905441 15.2235 0.944523C15.0373 0.956609 14.8412 1.03396 14.6855 1.13514C14.531 1.23554 14.3993 1.37219 14.3134 1.53593C14.1501 1.84739 14.1889 2.17559 14.2881 2.49717C14.717 3.64668 15.4045 4.64117 16.1583 5.60137C16.3702 5.87141 16.6981 6.13992 16.8613 6.43055C16.0215 6.29809 14.8396 6.10559 14.1634 5.58367C13.4106 4.85711 12.6891 4.09895 11.937 3.37218C11.5178 2.96712 11.0531 2.60502 10.6526 2.18108C10.5507 2.0733 10.3726 1.89322 10.3434 1.7442C10.2984 1.51536 10.359 1.29847 10.4872 1.10734C10.8825 0.518121 11.7083 0.258957 12.3693 0.133428C12.6474 0.080609 12.931 0.0559578 13.2082 0Z" fill="#386741"/>
<path d="M14.2881 2.49719C16.4729 3.10772 18.6208 3.80272 20.9227 3.70512C21.8362 3.66638 22.7423 3.5161 23.6391 3.34501C24.4153 3.19694 25.1854 2.99474 25.9578 2.82569C25.777 3.0177 25.6154 3.23069 25.453 3.43824C24.8836 4.16572 24.4141 4.92342 23.9386 5.71318C23.8109 5.92526 23.6255 6.15221 23.5616 6.3926C21.8395 6.65139 20.1178 6.76951 18.3787 6.63815C17.9234 6.60373 17.4616 6.56291 17.0127 6.47686C16.9679 6.456 16.9093 6.44471 16.8613 6.43057C16.6981 6.13994 16.3703 5.87143 16.1583 5.60139C15.4045 4.64119 14.7171 3.6467 14.2881 2.49719Z" fill="url(#paint6_linear_992_141841)"/>
<path d="M0 0H13.2084C12.9311 0.0559578 12.6475 0.080609 12.3694 0.133428C11.7085 0.258957 10.8827 0.518121 10.4873 1.10734C10.3591 1.29847 10.2986 1.51536 10.3435 1.7442C10.3728 1.89322 10.5509 2.0733 10.6527 2.18108C11.0532 2.60502 11.518 2.96712 11.9371 3.37218C12.6892 4.09895 13.4107 4.85711 14.1636 5.58367C14.0296 5.9734 13.8553 6.47453 14.0518 6.8732C14.2105 7.19496 14.584 7.32648 14.8901 7.46727C15.1666 7.58418 15.4368 7.6907 15.7277 7.76813C16.381 7.94191 17.0552 8.01828 17.7267 8.07988C19.707 8.26145 21.8668 8.25297 23.7993 7.75125C24.0843 8.07488 24.3821 8.40824 24.6191 8.7698L24.3434 8.86187C24.1021 8.88586 23.7261 9.03687 23.4714 9.10789C21.6779 9.60781 20.2686 10.4154 19.0795 11.8684C17.8282 13.3974 17.1384 15.3691 16.9324 17.3179L16.9181 17.3259C16.9055 17.7462 16.8619 18.1632 16.8605 18.5846C16.8581 19.303 16.9343 20.0155 17.0262 20.7268C17.0646 21.0243 17.0844 21.3517 17.1795 21.637L17.1611 21.6629C16.1037 22.5745 15.1064 23.5554 14.5726 24.8736C14.4312 25.2226 14.3159 25.6007 14.2861 25.9777C14.205 27.0046 14.6431 28.0229 15.3034 28.7896C15.3545 28.849 15.407 28.9071 15.4609 28.964C15.5149 29.0209 15.5701 29.0764 15.6267 29.1305C15.6833 29.1847 15.7412 29.2375 15.8004 29.2889C15.8595 29.3403 15.9199 29.3902 15.9814 29.4387C16.043 29.4872 16.1058 29.5341 16.1696 29.5796C16.2334 29.625 16.2983 29.6688 16.3643 29.7111C16.4303 29.7534 16.4973 29.7941 16.5652 29.8331C16.6331 29.8722 16.702 29.9096 16.7717 29.9453C16.8479 29.9851 16.9525 30.0554 17.0355 30.0647C17.0224 30.1165 17.0452 30.1427 17.0721 30.1863C17.1748 30.353 17.3173 30.5047 17.4457 30.6523C18.6354 32.0209 20.9733 33.544 22.6307 34.2451L22.6537 34.2557C22.8707 34.4472 23.1915 34.5577 23.4533 34.6796C23.8293 34.8549 24.205 35.0396 24.587 35.2009C25.0576 35.3997 25.5424 35.5655 26.0227 35.7391C26.1661 35.7909 26.3152 35.8632 26.4622 35.9006C26.5756 35.9296 26.7196 35.9201 26.8357 35.9127C27.4161 35.8759 27.9915 35.7584 28.5648 35.6653C29.5478 35.5105 30.5284 35.3416 31.5066 35.1587C31.811 35.1018 32.3784 34.8889 32.6586 34.9271C32.5588 35.0498 32.4559 35.1698 32.3498 35.287C32.2437 35.4043 32.1346 35.5187 32.0224 35.6302C31.9103 35.7417 31.7953 35.8501 31.6774 35.9555C31.5595 36.0609 31.4389 36.1632 31.3156 36.2622C31.1923 36.3612 31.0665 36.4569 30.9382 36.5493C30.8098 36.6417 30.6791 36.7306 30.5461 36.816C30.413 36.9015 30.2778 36.9834 30.1404 37.0617C30.003 37.14 29.8636 37.2146 29.7223 37.2855C29.2879 37.5037 28.8376 37.6814 28.3973 37.8856C28.656 37.9 29.2196 37.7267 29.4893 37.6632C29.9379 37.5575 30.3938 37.46 30.8373 37.3345C31.1259 37.2515 31.4125 37.1621 31.697 37.0662C31.9815 36.9704 32.2638 36.8682 32.5438 36.7596C32.8237 36.6511 33.1011 36.5363 33.3759 36.4153C33.6507 36.2943 33.9227 36.1672 34.1918 36.034C34.706 35.7852 35.2192 35.5322 35.6966 35.2169C37.5855 33.9696 38.9227 32.345 39.3836 30.0868C39.6309 30.8441 39.2004 32.2175 38.901 32.9436C38.8643 33.0326 38.7347 33.2442 38.8316 33.32C39.3656 32.5348 39.6879 31.6102 39.8656 30.6832C39.9195 30.4034 39.932 30.1146 39.9949 29.8373L40 29.8158V40H21.6519H18.9112H0V29.7765V28.4636V0ZM0 0V28.4636C0.102367 28.1066 0.113176 27.6209 0.187751 27.2386C0.368912 26.3098 0.657637 25.3862 1.01109 24.5089C1.54977 23.172 2.25843 21.9637 3.03187 20.7523C5.32645 17.1586 8.18055 13.9677 11.2019 10.9738C12.409 9.77762 13.6263 8.60387 14.8901 7.46727C14.584 7.32648 14.2105 7.19496 14.0518 6.8732C13.8553 6.47453 14.0296 5.9734 14.1636 5.58367C13.4107 4.85711 12.6892 4.09895 11.9371 3.37218C11.518 2.96712 11.0532 2.60502 10.6527 2.18108C10.5509 2.0733 10.3728 1.89322 10.3435 1.7442C10.2986 1.51536 10.3591 1.29847 10.4873 1.10734C10.8827 0.518121 11.7085 0.258957 12.3694 0.133428C12.6475 0.080609 12.9311 0.0559578 13.2084 0H0ZM0 29.7765V40H18.9112C18.6681 39.9215 17.632 39.9516 17.2989 39.9375C16.8242 39.9128 16.3502 39.8783 15.8768 39.834C15.1501 39.777 14.4256 39.6995 13.7032 39.6016C10.3881 39.1289 6.90289 38.1263 4.12078 36.2103C2.39005 35.0184 0.859574 33.3845 0.27644 31.3202C0.131673 30.8077 0.0959555 30.2956 0 29.7765ZM38.8316 33.32C37.0779 36.3105 32.8594 38.1062 29.6453 38.9467C27.7478 39.443 25.7785 39.6969 23.828 39.8766C23.5051 39.9066 23.1782 39.9328 22.8539 39.9406C22.4867 39.9496 22.0045 39.9102 21.6519 40H40V29.8158L39.9949 29.8373C39.932 30.1146 39.9195 30.4034 39.8656 30.6832C39.6879 31.6102 39.3656 32.5348 38.8316 33.32Z" fill="#386741"/>
<path d="M15.6794 8.61322C15.7766 8.63767 15.8743 8.66013 15.9718 8.68342C15.6761 9.12349 15.3272 9.5392 15.0026 9.95908C14.5018 10.6036 14.012 11.2563 13.5333 11.9173C12.9627 12.7031 12.4177 13.5045 11.865 14.3027C11.51 14.8152 11.1391 15.3183 10.7936 15.8372C10.525 16.2405 10.2799 16.66 10.0211 17.0697C9.76492 17.4751 9.49699 17.8745 9.25031 18.2856C8.80904 19.0351 8.39156 19.7975 7.99789 20.573C6.38586 23.6823 4.82817 27.4524 5.52852 31.0149C5.68969 31.8349 5.96238 32.6145 6.31848 33.3693C6.04465 33.34 5.76227 33.1622 5.51945 33.0382C4.48711 32.5106 3.46681 31.894 2.68862 31.0201C1.81842 30.0428 1.53109 28.8229 1.60885 27.538C1.66703 26.5766 1.9537 25.6668 2.30429 24.7757C3.42603 21.9247 5.25883 19.4394 7.16981 17.0729C7.72145 16.3897 8.27063 15.701 8.85602 15.0464C9.69649 14.1065 10.5954 13.2035 11.4989 12.324C12.491 11.3711 13.5067 10.444 14.5459 9.54259C14.9164 9.224 15.3138 8.93732 15.6794 8.61322Z" fill="url(#paint7_linear_992_141841)"/>
<path d="M21.8211 8.92169C22.3721 8.84739 22.9292 8.76755 23.4733 8.65232C23.6487 8.61513 23.9309 8.48751 24.1007 8.51306C24.1718 8.56712 24.21 8.6454 24.2552 8.72087L24.3432 8.86189C24.1019 8.88587 23.7259 9.03689 23.4712 9.1079C21.6777 9.60782 20.2684 10.4154 19.0793 11.8684C17.828 13.3974 17.1382 15.3691 16.9322 17.3179L16.9179 17.3259C16.9053 17.7462 16.8617 18.1633 16.8603 18.5847C16.8579 19.303 16.9341 20.0156 17.026 20.7268C17.0644 21.0243 17.0842 21.3517 17.1793 21.637L17.1609 21.6629C16.1035 22.5745 15.1062 23.5554 14.5724 24.8736C14.431 25.2226 14.3157 25.6007 14.2859 25.9777C14.2048 27.0046 14.6429 28.0229 15.3032 28.7896C15.3543 28.849 15.4068 28.9071 15.4607 28.964C15.5147 29.0209 15.5699 29.0764 15.6265 29.1306C15.6831 29.1848 15.741 29.2376 15.8001 29.289C15.8593 29.3403 15.9197 29.3903 15.9812 29.4387C16.0428 29.4872 16.1056 29.5341 16.1694 29.5796C16.2332 29.625 16.2981 29.6689 16.3641 29.7111C16.4301 29.7534 16.4971 29.7941 16.565 29.8331C16.6329 29.8722 16.7018 29.9096 16.7715 29.9453C16.8477 29.9851 16.9523 30.0554 17.0353 30.0647C17.0222 30.1165 17.045 30.1427 17.0719 30.1863C17.1746 30.353 17.3171 30.5047 17.4455 30.6524C18.6352 32.021 20.9731 33.544 22.6305 34.2451L22.6535 34.2557C22.8705 34.4472 23.1913 34.5577 23.4531 34.6797C23.8291 34.8549 24.2048 35.0396 24.5868 35.2009C25.0574 35.3997 25.5422 35.5655 26.0225 35.7391C26.1659 35.7909 26.315 35.8632 26.4619 35.9006C26.5754 35.9296 26.7194 35.9201 26.8355 35.9127C27.4159 35.8759 27.9913 35.7584 28.5646 35.6653C29.5476 35.5105 30.5282 35.3416 31.5064 35.1587C31.8108 35.1018 32.3782 34.8889 32.6584 34.9271C32.5586 35.0498 32.4557 35.1698 32.3496 35.287C32.2435 35.4043 32.1344 35.5187 32.0222 35.6302C31.9101 35.7417 31.7951 35.8501 31.6772 35.9555C31.5593 36.0609 31.4387 36.1632 31.3154 36.2622C31.1921 36.3612 31.0663 36.4569 30.938 36.5493C30.8096 36.6417 30.6789 36.7306 30.5459 36.816C30.4128 36.9015 30.2776 36.9834 30.1402 37.0617C30.0028 37.14 29.8634 37.2146 29.7221 37.2856C29.2876 37.5037 28.8374 37.6814 28.3971 37.8856C28.3867 37.8911 28.3764 37.8963 28.3662 37.9019C28.3389 37.917 28.3129 37.9338 28.2851 37.9481C27.896 38.1487 26.7663 38.251 26.2975 38.3108C25.7591 38.3824 25.2196 38.4451 24.6791 38.4989C24.1386 38.5527 23.5973 38.5976 23.0553 38.6335C22.5133 38.6694 21.9709 38.6964 21.428 38.7143C20.8851 38.7323 20.3421 38.7414 19.7989 38.7414C19.2557 38.7415 18.7126 38.7325 18.1698 38.7147C17.6269 38.6968 17.0845 38.67 16.5425 38.6342C16.0004 38.5983 15.4592 38.5536 14.9187 38.4999C14.3781 38.4462 13.8387 38.3836 13.3002 38.3121L12.0851 38.137C11.8133 38.0993 11.5219 38.0853 11.2602 37.9997C10.9835 37.9093 10.6032 37.6113 10.3371 37.454C10.0626 37.2917 9.77945 37.1378 9.51421 36.9609C8.47472 36.2673 7.5021 35.3368 6.82234 34.2845C6.63292 33.9913 6.47663 33.6798 6.31816 33.3693C5.96206 32.6145 5.68937 31.8349 5.5282 31.0149C4.82784 27.4524 6.38554 23.6823 7.99757 20.573C8.39124 19.7975 8.80872 19.0351 9.24999 18.2856C9.49667 17.8745 9.7646 17.475 10.0207 17.0697C10.2796 16.66 10.5247 16.2405 10.7933 15.8372C11.1387 15.3183 11.5097 14.8152 11.8646 14.3027C12.4173 13.5045 12.9624 12.7031 13.533 11.9173C14.0117 11.2563 14.5015 10.6036 15.0023 9.95907C15.3268 9.53919 15.6757 9.12349 15.9714 8.68341C16.2114 8.73338 16.4522 8.7784 16.694 8.81845C16.9358 8.8585 17.1783 8.89357 17.4215 8.92364C17.6647 8.95372 17.9085 8.97879 18.1527 8.99884C18.397 9.01886 18.6416 9.03387 18.8864 9.04384C19.1313 9.05381 19.3763 9.05875 19.6214 9.05864C19.8664 9.05854 20.1114 9.0534 20.3563 9.04321C20.6012 9.03301 20.8457 9.01777 21.0899 8.99751C21.3342 8.97725 21.5779 8.95198 21.8211 8.92169Z" fill="url(#paint8_linear_992_141841)"/>
<path d="M21.8213 8.92169C22.3723 8.84739 22.9294 8.76755 23.4735 8.65232C23.6489 8.61513 23.9311 8.48751 24.1009 8.51306C24.172 8.56712 24.2102 8.6454 24.2554 8.72087C24.0698 8.75259 23.9477 8.84247 23.7752 8.89935C23.6873 8.86552 23.6019 8.83021 23.5168 8.78966C23.4722 8.83474 23.5183 8.86298 23.4582 8.90634C23.4205 8.892 23.365 8.85712 23.3284 8.87466C23.2966 8.88993 23.2689 8.90876 23.2398 8.92857C23.2063 8.91415 23.19 8.89817 23.1656 8.87138C23.0407 8.85298 22.726 9.10001 22.5577 9.13814C22.4175 9.16989 22.2823 9.04732 22.145 9.04939C22.0464 9.05087 21.9106 9.10845 21.8355 9.03255C21.83 8.99548 21.8246 8.95903 21.8213 8.92169Z" fill="#6B9A4E"/>
<path d="M16.9182 17.3259C16.9057 17.7462 16.8621 18.1632 16.8607 18.5847C16.8582 19.303 16.9345 20.0156 17.0264 20.7268C17.0648 21.0243 17.0846 21.3517 17.1797 21.637L17.1613 21.6629C16.1038 22.5745 15.1065 23.5554 14.5727 24.8736C14.4314 25.2226 14.3161 25.6007 14.2863 25.9777C14.2052 27.0046 14.6432 28.0229 15.3036 28.7896C15.3547 28.849 15.4072 28.9071 15.4611 28.964C15.515 29.0209 15.5703 29.0764 15.6269 29.1306C15.6835 29.1847 15.7414 29.2375 15.8005 29.289C15.8597 29.3403 15.92 29.3903 15.9816 29.4387C16.0432 29.4872 16.1059 29.5341 16.1698 29.5796C16.2336 29.625 16.2985 29.6688 16.3645 29.7111C16.4305 29.7534 16.4974 29.7941 16.5654 29.8331C16.6333 29.8722 16.7021 29.9096 16.7719 29.9453C16.8481 29.9851 16.9527 30.0554 17.0357 30.0647C17.0226 30.1165 17.0454 30.1427 17.0722 30.1863C17.175 30.353 17.3175 30.5047 17.4458 30.6524C18.6356 32.0209 20.9734 33.544 22.6309 34.2451C22.6228 34.2483 22.6147 34.2518 22.6065 34.2547C22.1271 34.4269 21.593 34.4942 21.0881 34.5404C19.3721 34.6971 17.6874 34.4557 16.1184 33.7294C14.0445 32.7693 12.3792 31.0747 11.5897 28.9187C10.7734 26.6897 10.8076 24.0652 11.8114 21.9039C12.8224 19.7272 14.6762 18.1438 16.9182 17.3259Z" fill="#6B9A4E"/>
</g>
<defs>
<linearGradient id="paint0_linear_992_141841" x1="18.7925" y1="25.0473" x2="27.6177" y2="20.9825" gradientUnits="userSpaceOnUse">
<stop stop-color="#A8B671"/>
<stop offset="1" stop-color="#EEEDA1"/>
</linearGradient>
<linearGradient id="paint1_linear_992_141841" x1="26.4634" y1="24.3348" x2="28.6925" y2="23.4931" gradientUnits="userSpaceOnUse">
<stop stop-color="#F2F1B8"/>
<stop offset="1" stop-color="#FEFDF7"/>
</linearGradient>
<linearGradient id="paint2_linear_992_141841" x1="20.2809" y1="26.3891" x2="22.1964" y2="17.4574" gradientUnits="userSpaceOnUse">
<stop stop-color="#3B685C"/>
<stop offset="1" stop-color="#5E8772"/>
</linearGradient>
<linearGradient id="paint3_linear_992_141841" x1="19.1378" y1="22.8821" x2="21.5663" y2="23.8753" gradientUnits="userSpaceOnUse">
<stop stop-color="#296F2D"/>
<stop offset="1" stop-color="#4F8B3B"/>
</linearGradient>
<linearGradient id="paint4_linear_992_141841" x1="20.0119" y1="32.9957" x2="25.5023" y2="26.8508" gradientUnits="userSpaceOnUse">
<stop stop-color="#859964"/>
<stop offset="1" stop-color="#ACBB86"/>
</linearGradient>
<linearGradient id="paint5_linear_992_141841" x1="18.2905" y1="-2.1032" x2="25.371" y2="5.76162" gradientUnits="userSpaceOnUse">
<stop stop-color="#48792F"/>
<stop offset="1" stop-color="#739F43"/>
</linearGradient>
<linearGradient id="paint6_linear_992_141841" x1="14.6586" y1="1.77955" x2="24.5388" y2="5.97827" gradientUnits="userSpaceOnUse">
<stop stop-color="#366126"/>
<stop offset="1" stop-color="#5D873D"/>
</linearGradient>
<linearGradient id="paint7_linear_992_141841" x1="2.36552" y1="30.8856" x2="18.0311" y2="10.3155" gradientUnits="userSpaceOnUse">
<stop stop-color="#3C6829"/>
<stop offset="1" stop-color="#649237"/>
</linearGradient>
<linearGradient id="paint8_linear_992_141841" x1="17.6526" y1="39.0982" x2="23.0119" y2="8.51901" gradientUnits="userSpaceOnUse">
<stop stop-color="#1D3E14"/>
<stop offset="1" stop-color="#658E3E"/>
</linearGradient>
<clipPath id="clip0_992_141841">
<rect width="40" height="40" fill="white"/>
</clipPath>
</defs>
</svg>
