<svg width="40" height="40" viewBox="0 0 40 40" fill="none" xmlns="http://www.w3.org/2000/svg">
<g clip-path="url(#clip0_992_142537)">
<path d="M0 0H11.6409H11.6977H37.2812H40V30.4319V35.2478V40H5.63367H5.55125H0V39.0559V39.0187V0ZM0 0V39.0187V39.0559V40H5.55125H5.63367C5.92621 39.6859 6.22664 39.3816 6.63293 39.2234C7.04863 39.066 7.50285 39.1012 7.90855 38.8949C8.56836 38.5594 8.81539 37.818 9.33887 37.3362C9.56406 37.1289 9.83801 36.9931 10.1079 36.8547C10.8021 37.7397 11.314 38.7713 12.0167 39.652C12.1069 39.6437 12.1707 39.6645 12.2506 39.7062C12.3436 39.3211 12.4413 38.9371 12.5437 38.5542C12.6823 38.1346 12.6748 37.6246 12.7139 37.1853C12.7967 36.3215 12.8656 35.4567 12.9207 34.5908C13.1638 31.0064 13.3092 27.418 13.3571 23.8256C13.3626 23.0713 13.3373 22.3182 13.3232 21.5643L13.2474 17.997C13.2389 17.7195 13.247 17.4417 13.24 17.1642C13.2025 15.55 13.1388 13.9368 13.0489 12.3246C13.0225 11.7601 12.9899 11.196 12.951 10.6322C12.9372 10.4084 12.9549 10.1547 12.8985 9.93844C12.8677 9.12148 12.8007 8.30633 12.7507 7.49031C12.7186 6.96789 12.7151 6.43277 12.651 5.91406C12.6305 5.73293 12.6236 5.5509 12.6077 5.36941C12.599 5.15914 12.5532 4.93824 12.5184 4.73059C12.4383 4.25449 12.3399 3.78304 12.2477 3.30934C12.0354 2.21819 11.8373 1.10279 11.6977 0H11.6409H0ZM37.2812 0C37.5386 1.79678 37.765 3.59746 37.9605 5.40203C37.7673 5.42633 37.5589 5.39887 37.3641 5.39379C37.0878 5.38863 36.8115 5.38698 36.5352 5.38883L32.0812 5.35059L20.2376 5.38469C18.4035 5.3802 16.5699 5.34918 14.7362 5.37172C14.1728 5.37867 13.6044 5.35 13.042 5.38238C12.9331 5.38863 12.6999 5.42664 12.6077 5.36941C12.6236 5.5509 12.6305 5.73293 12.651 5.91406L12.6613 5.83023C12.8064 5.74008 15.4156 5.83672 15.8301 5.83871C21.0757 5.83064 26.3208 5.87135 31.5656 5.96086C32.8019 5.98711 34.0401 6.06434 35.276 6.11312C35.8545 6.13594 36.4895 6.08352 37.0562 6.20258C37.1993 6.66387 37.2334 7.15473 37.2914 7.63238L37.4781 9.05246C37.9691 12.7698 38.3218 16.5002 38.5364 20.2436C38.6305 21.822 38.6686 23.4036 38.7579 24.9823C38.8799 27.1375 38.9379 29.2877 39.0047 31.4448L39.0645 33.4312C39.0859 34.147 39.1098 34.864 39.0537 35.5789C39.0186 36.027 38.9339 36.4351 38.7204 36.8356C38.3756 37.4824 37.8074 37.9277 37.1094 38.1377C36.279 38.3875 34.9968 38.335 34.1134 38.3384C33.6543 38.3402 33.1936 38.3579 32.7343 38.3671C30.3665 38.4249 27.9983 38.4612 25.6299 38.4762C25.5567 38.7023 25.4799 38.9272 25.3993 39.1508C25.427 38.9434 25.4764 38.7368 25.4988 38.5293C25.4746 38.4945 25.4521 38.4885 25.411 38.4828C25.2039 38.4543 24.971 38.4846 24.7616 38.4902C24.4555 38.4963 24.1493 38.4995 23.8432 38.4998L15.2454 38.5533C14.7248 38.5547 14.2055 38.5688 13.6851 38.58C13.3238 38.5878 12.8982 38.6269 12.5437 38.5542C12.4413 38.9371 12.3436 39.3211 12.2506 39.7062C12.1707 39.6645 12.1069 39.6437 12.0167 39.652C11.314 38.7713 10.8021 37.7397 10.1079 36.8547C9.83801 36.9931 9.56406 37.1289 9.33887 37.3362C8.81539 37.818 8.56836 38.5594 7.90855 38.8949C7.50285 39.1012 7.04863 39.066 6.63293 39.2234C6.22664 39.3816 5.92621 39.6859 5.63367 40H40V35.2478V30.4319V0H37.2812Z" fill="url(#paint0_linear_992_142537)"/>
<path d="M28.7485 30.1306C28.9784 30.2444 29.7812 31.925 30.0044 32.2771C30.2237 32.6232 30.4685 32.9319 30.7263 33.2489C30.7016 33.2408 30.6781 33.2327 30.6556 33.2192C30.4854 33.1167 30.3367 32.941 30.194 32.8019C29.3525 31.9816 29.0385 31.247 28.7485 30.1306Z" fill="#D6D9D0"/>
<path d="M24.8371 8.41486C25.3785 8.36908 25.9334 8.40729 26.4769 8.40818C27.6865 8.41014 28.8994 8.43111 30.1085 8.41557L31.0219 8.41592C30.5352 9.42236 29.9842 10.4053 29.4614 11.3937C28.5861 13.0244 27.7412 14.6708 26.9268 16.3327C27.7759 16.1717 28.6237 16.0001 29.4742 15.8467C29.927 15.7651 30.3849 15.7287 30.8331 15.6199C30.2682 16.6051 29.6699 17.5695 29.0381 18.5131C28.8426 18.8085 28.6446 19.1022 28.4441 19.3942C28.2811 19.6267 28.0994 19.8477 27.9662 20.0995C26.7513 21.9649 25.4413 23.7696 24.1948 25.6138L22.4393 28.2667C22.1437 28.715 21.855 29.1755 21.5407 29.6106C21.8053 28.8536 22.0158 28.078 22.2728 27.3182C23.0312 25.0753 23.8098 22.8437 24.5106 20.5813C23.4129 20.9241 22.3388 21.3506 21.2392 21.6838L21.3229 21.4946C21.7207 20.7364 22.0382 19.9256 22.3921 19.1451C22.8507 18.1338 23.3483 17.1284 23.7585 16.0971C22.7673 16.3306 21.7806 16.5814 20.7983 16.8497C20.9417 16.41 21.2325 15.8895 21.4355 15.4568L22.6641 12.8012L23.9978 9.87752C24.2112 9.40615 24.3951 8.87838 24.6642 8.43776C24.713 8.40151 24.779 8.41358 24.8371 8.41486Z" fill="#F0C686"/>
<path d="M24.8371 8.41488C25.0285 8.42082 25.2192 8.41683 25.4107 8.41242C24.9257 9.81929 24.2616 11.1678 23.6608 12.5275C23.1848 13.6048 22.7615 14.7081 22.2704 15.7783C22.907 15.6077 23.5348 15.4123 24.1671 15.2269C24.556 15.1129 24.9654 15.0226 25.3404 14.8685C24.5653 16.389 23.8131 17.9208 23.0839 19.4639C22.9473 19.7531 22.8293 20.0518 22.6915 20.3398C23.7406 20.0059 24.7764 19.6128 25.8388 19.3246L24.5462 22.9855C24.3121 23.6469 24.0582 24.3018 23.8481 24.9711C24.1246 24.5643 24.3523 24.1319 24.6137 23.7162C25.0738 22.9846 25.5564 22.2646 26.0305 21.5418L27.8287 18.8075C28.2682 18.1395 28.7156 17.4771 29.1194 16.7865C28.3341 16.9701 27.5429 17.1206 26.7522 17.2778C26.3012 17.3674 25.8415 17.4464 25.3985 17.5707C25.958 16.4482 26.5662 15.3461 27.1467 14.2341C27.8157 12.9526 28.4616 11.6569 29.1154 10.3674C29.4079 9.79046 29.9549 9.00976 30.1085 8.41558L31.0219 8.41593C30.5352 9.42238 29.9842 10.4053 29.4614 11.3937C28.5861 13.0244 27.7412 14.6708 26.9268 16.3327C27.7759 16.1718 28.6237 16.0001 29.4742 15.8468C29.927 15.7651 30.3849 15.7287 30.8331 15.6199C30.2682 16.6051 29.6699 17.5695 29.0381 18.5132C28.8426 18.8085 28.6446 19.1022 28.4441 19.3942C28.2811 19.6268 28.0994 19.8477 27.9662 20.0995C26.7513 21.9649 25.4413 23.7696 24.1948 25.6139L22.4393 28.2667C22.1437 28.715 21.855 29.1755 21.5407 29.6106C21.8053 28.8536 22.0158 28.078 22.2728 27.3182C23.0312 25.0753 23.8098 22.8437 24.5106 20.5813C23.4129 20.9241 22.3388 21.3507 21.2392 21.6839L21.3229 21.4946C21.7207 20.7364 22.0382 19.9256 22.3921 19.1451C22.8507 18.1338 23.3483 17.1284 23.7585 16.0971C22.7673 16.3306 21.7806 16.5814 20.7983 16.8497C20.9417 16.41 21.2325 15.8895 21.4355 15.4568L22.6641 12.8012L23.9978 9.87753C24.2112 9.40617 24.3951 8.87839 24.6642 8.43777C24.713 8.40152 24.779 8.41359 24.8371 8.41488Z" fill="#FEB10A"/>
<path d="M17.7074 19.4355C18.2392 19.5848 18.7889 19.6871 19.2708 19.9721C19.9917 20.3985 20.4939 21.2594 21.3229 21.4946L21.2391 21.6838C22.3388 21.3506 23.4129 20.9241 24.5106 20.5813C23.8098 22.8437 23.0312 25.0753 22.2727 27.3182C22.0158 28.078 21.8053 28.8536 21.5407 29.6106C21.855 29.1755 22.1437 28.715 22.4393 28.2667L24.1948 25.6138C25.4413 23.7696 26.7513 21.9649 27.9662 20.0995C28.0639 20.1868 28.0822 20.3876 28.0896 20.5135C28.1236 21.0901 27.7427 21.5811 27.4114 22.0136C28.4458 22.1328 29.5184 22.2786 30.5473 22.04C30.9082 21.9563 31.1848 21.6981 31.5233 21.5662C32.6818 21.1149 33.5894 21.1389 34.7965 21.1763C34.2482 21.3545 33.6884 21.4979 33.1375 21.6685C32.4593 21.8786 31.8004 22.1282 31.1353 22.3752C30.882 22.4692 30.619 22.5461 30.369 22.6464C31.3834 22.7285 32.5484 23.33 33.3043 23.9873C33.7641 24.3872 34.1909 24.8321 34.7239 25.1382C35.4286 25.5428 36.1636 25.6983 36.9482 25.8512C35.2468 25.9303 34.065 25.8746 32.7233 24.6587C32.5115 24.4668 32.3246 24.2347 32.0706 24.0961C31.8159 23.957 31.4804 23.9003 31.198 23.8329C30.5873 23.6808 29.9718 23.5521 29.3513 23.4468C28.9531 23.3812 28.5506 23.3493 28.1539 23.2731C29.1801 23.9024 30.1268 24.659 30.8351 25.642C31.0918 25.9983 31.2634 26.4363 31.5943 26.734C31.9568 27.0599 32.4825 27.0978 32.9123 27.2947C34.048 27.8151 35.0161 29.2128 35.7089 30.2334C34.5144 29.1703 33.7528 28.0917 32.0896 27.7308C32.5205 28.6334 32.8756 29.5685 33.3666 30.4428C33.7137 31.0611 34.1621 31.6192 34.5209 32.233C34.221 31.9771 33.9997 31.629 33.7529 31.3245C33.4725 30.9785 33.1641 30.6547 32.915 30.2839C32.353 29.4474 31.8623 28.561 31.3291 27.7059C31.0637 27.2803 30.799 26.8519 30.482 26.4622C30.2607 26.1903 30.005 25.9482 29.7534 25.7049C30.225 26.764 30.8235 28.1246 30.8422 29.3075C30.5841 28.4628 30.3208 27.9021 29.8481 27.1604C29.8298 27.5822 29.7751 28.002 29.7563 28.4236C29.7421 28.7406 29.7703 29.0561 29.7377 29.3728C29.5554 28.8883 29.4418 28.3852 29.3653 27.8736C29.2703 27.2381 29.2875 25.5613 28.9179 25.1324C28.6968 24.8759 27.9057 24.5029 27.5724 24.3521C27.3041 24.2307 27.0291 24.1287 26.7528 24.0272C26.8713 24.4126 26.9893 24.7989 27.0712 25.194C27.191 25.7716 27.206 26.3611 27.4771 26.8982C27.951 27.8368 28.636 28.5781 29.4358 29.2476C29.8255 29.5738 30.2324 29.8844 30.5926 30.2437C31.099 30.7488 31.5793 31.3698 31.8979 32.0125C32.4839 33.1949 32.6871 34.6701 32.8893 35.9639C32.8857 35.9576 32.8819 35.9514 32.8783 35.9451C32.6823 35.5984 32.5729 35.1515 32.4403 34.7748C32.1109 33.839 31.7274 32.9436 31.1211 32.1508C30.4608 31.2873 29.5932 30.6578 28.7752 29.9576C28.1248 29.4008 27.5027 28.7654 27.0426 28.0423C26.9625 28.655 26.8195 29.2607 26.8213 29.882C26.8216 30.0155 26.8288 30.1486 26.8429 30.2813C26.8569 30.414 26.8778 30.5456 26.9055 30.6762C27.0733 31.4757 27.5845 32.8406 28.0685 33.4709C28.5174 34.0555 29.1193 34.4892 29.6643 34.9767C30.3696 35.6077 30.9596 36.4604 31.3723 37.3095C31.1507 37.113 30.973 36.7847 30.7709 36.5556C30.3891 36.1229 29.9536 35.7397 29.5329 35.346C29.6136 36.1266 29.6008 36.9195 29.6924 37.6981C29.6894 37.691 29.6862 37.684 29.6834 37.6768C29.524 37.2823 29.4897 36.772 29.3933 36.3521C29.2026 35.5216 28.9145 35.017 28.2611 34.471C28.0059 34.2577 27.7468 34.0522 27.515 33.8127C27.4195 34.116 27.3416 34.4243 27.2468 34.7278C27.0407 35.3968 26.7995 36.0529 26.5231 36.6961C26.411 36.959 26.3034 37.2295 26.1664 37.4806L26.1725 37.4543C26.2466 37.1362 26.3746 36.8306 26.4579 36.5144C26.7064 35.572 26.9165 34.3776 26.9104 33.4016C26.9054 32.5963 26.4682 31.9513 26.1808 31.2301C26.1377 31.1236 26.0989 31.0155 26.0643 30.906C26.0297 30.7964 25.9995 30.6856 25.9736 30.5737C25.9476 30.4617 25.9262 30.3489 25.9091 30.2353C25.892 30.1217 25.8795 30.0076 25.8713 29.8929C25.7687 28.4968 26.5221 26.2346 25.794 25.0146C25.7868 25.0026 25.779 24.991 25.7713 24.9792L24.5294 26.9589C24.2954 27.3307 23.8585 27.8709 23.7477 28.2824C23.6831 28.5224 23.7336 28.8022 23.7874 29.0395C23.8197 29.1763 23.8562 29.3121 23.897 29.4467C23.9378 29.5813 23.9828 29.7144 24.032 29.8462C24.0812 29.9779 24.1345 30.108 24.1918 30.2364C24.2492 30.3648 24.3106 30.4913 24.3759 30.6158C24.4883 30.8303 24.6707 31.0243 24.734 31.2603C24.9256 31.9744 24.6897 32.7529 24.7922 33.4833C24.8758 34.0788 25.1157 34.626 25.3281 35.1831C25.7198 36.2108 25.9268 37.3989 25.6301 38.4762C25.5569 38.7023 25.4801 38.9272 25.3995 39.1508C25.4272 38.9433 25.4766 38.7368 25.4989 38.5292C25.707 37.304 25.1228 35.9882 24.6129 34.9031C24.4454 34.5467 24.2449 34.1781 24.1246 33.8025C24.1223 33.7955 24.1202 33.7885 24.118 33.7814C23.6987 34.8141 23.3486 35.878 22.7933 36.851C22.8782 36.4682 23.0187 36.0897 23.1304 35.7135C23.4095 34.7727 23.6918 33.8122 23.8322 32.8394C23.8791 32.5142 23.9094 32.1803 23.8733 31.8524C23.7811 31.0129 23.2893 30.0812 22.7854 29.4056C22.7057 29.5008 22.6305 29.6013 22.5559 29.7005C22.4445 29.8485 22.3357 30.0099 22.269 30.1837C22.1661 30.452 22.1294 30.742 22.0944 31.0255C21.9729 32.0083 22.0298 32.9308 22.1664 33.9098C21.9702 33.4377 21.802 32.9355 21.6892 32.4363C21.617 32.1162 21.5882 31.7919 21.4788 31.4804C20.683 33.0183 20.4257 34.5449 20.5297 36.2701C20.5712 36.9585 20.6638 37.6438 20.712 38.3328C20.5516 37.8953 20.4188 37.4446 20.2916 36.9965C19.8665 35.4982 19.5761 33.9034 20.0252 32.3726C19.8218 32.5047 19.6205 32.6397 19.4212 32.7779C19.2219 32.916 19.0247 33.057 18.8297 33.2011C18.6346 33.3451 18.4418 33.4921 18.2512 33.642C18.0605 33.7918 17.8722 33.9445 17.6862 34.1001C17.5002 34.2556 17.3166 34.4139 17.1353 34.575C16.9541 34.736 16.7753 34.8998 16.599 35.0662C16.4227 35.2327 16.2489 35.4018 16.0777 35.5735C15.9064 35.7451 15.7378 35.9194 15.5719 36.0961C16.3664 34.3959 17.457 33.2416 18.9908 32.1815C19.3313 31.9461 20.2189 31.3831 20.4191 31.0688C20.5449 30.8712 20.9015 28.6148 20.9814 28.1941C21.059 27.788 21.1462 27.3841 21.243 26.9822C21.2866 26.8017 21.335 26.6224 21.388 26.4445C21.4411 26.2665 21.4989 26.0901 21.5613 25.9152C21.6236 25.7403 21.6906 25.5671 21.7622 25.3958C21.8337 25.2244 21.9098 25.0551 21.9903 24.8877C21.6345 25.0695 21.2702 25.249 20.95 25.4901C20.0432 26.1729 19.3773 27.3123 19.1933 28.4277C19.0798 29.1156 19.0188 29.8212 18.6943 30.4515C18.461 30.9047 18.093 31.2818 17.7296 31.6325C18.2361 30.6854 18.4886 29.9238 18.6975 28.8697C18.4346 29.3129 18.1469 29.8022 17.7074 30.0906C17.3371 30.3337 16.9439 30.5238 16.5924 30.7978C16.1096 31.1742 15.7056 31.629 15.2713 32.0574C15.6695 31.3056 16.1509 30.6178 16.801 30.061C17.0805 29.8215 17.4152 29.6431 17.6403 29.345C18.0157 28.8479 18.209 28.2414 18.4455 27.6724C18.5954 27.3105 18.7602 26.9556 18.94 26.6076C18.8772 26.6092 18.8144 26.6117 18.7516 26.6151C18.701 26.6176 18.6505 26.6216 18.6001 26.6271C18.5497 26.6326 18.4995 26.6396 18.4496 26.6481C18.3996 26.6567 18.3499 26.6667 18.3006 26.6783C18.2512 26.6898 18.2023 26.7028 18.1537 26.7173C18.1051 26.7318 18.057 26.7477 18.0094 26.7651C17.9618 26.7825 17.9147 26.8013 17.8682 26.8215C17.8218 26.8417 17.7759 26.8634 17.7307 26.8863C17.6856 26.9093 17.6411 26.9336 17.5974 26.9593C16.8321 27.4065 16.1089 28.399 15.5837 29.1151C15.4065 29.3568 15.2452 29.6285 15.0432 29.8497C15.0385 29.8549 15.0337 29.8599 15.0289 29.865C15.1953 29.4295 15.4161 29.0005 15.6312 28.5876C16.1575 27.5776 16.8224 26.3801 17.9771 26.0174C18.5323 25.8431 19.1585 25.8266 19.6535 25.4905C20.0554 25.2178 20.3561 24.772 20.6983 24.4304C21.333 23.7967 21.9904 23.184 22.6332 22.5583C22.2096 22.7164 21.7641 22.7916 21.3173 22.9729C20.7614 23.1985 20.3055 23.6276 19.6974 23.73C18.969 23.8526 18.2629 23.6174 17.5416 23.5642C16.4995 23.4872 15.4873 23.8586 14.5107 24.1672C15.2345 23.6836 16.02 23.1052 16.8757 22.8988C17.2552 22.8074 17.6111 22.8025 17.9977 22.8438C19.3739 22.9906 19.6427 23.0256 20.8332 22.2229C20.1795 21.8813 19.5773 21.6828 18.8304 21.7207C19.0491 21.6301 19.2969 21.5976 19.5282 21.5513C19.1212 21.3995 18.7139 21.2635 18.2818 21.2021C17.7946 21.1329 17.3054 21.1309 16.8234 21.0157C16.3425 20.9008 15.8839 20.6707 15.4446 20.4483C16.0478 20.5766 16.6964 20.6431 17.3128 20.6657C17.7004 20.6799 18.0889 20.6532 18.4768 20.6712C18.8059 20.6864 19.1297 20.7434 19.4538 20.7991C18.8779 20.2947 18.3623 19.8431 17.7074 19.4355Z" fill="#D6D9D0"/>
<path d="M37.2813 0H40.0001V30.4319V35.2478V40H5.63379C5.92633 39.6859 6.22676 39.3816 6.63305 39.2234C7.04875 39.066 7.50297 39.1012 7.90867 38.8949C8.56848 38.5594 8.81551 37.818 9.33898 37.3362C9.56418 37.1289 9.83813 36.9931 10.108 36.8547C10.8022 37.7397 11.3141 38.7713 12.0168 39.652C12.107 39.6437 12.1708 39.6645 12.2507 39.7062C12.3437 39.3211 12.4414 38.9371 12.5439 38.5542C12.8983 38.6269 13.3239 38.5878 13.6852 38.58C14.2056 38.5688 14.725 38.5547 15.2455 38.5533L23.8433 38.4998C24.1495 38.4995 24.4556 38.4963 24.7617 38.4902C24.9711 38.4846 25.204 38.4543 25.4111 38.4828C25.4522 38.4885 25.4747 38.4945 25.4989 38.5293C25.4766 38.7368 25.4271 38.9434 25.3995 39.1508C25.48 38.9272 25.5568 38.7023 25.63 38.4762C27.9985 38.4612 30.3666 38.4248 32.7345 38.3671C33.1937 38.3579 33.6544 38.3402 34.1136 38.3384C34.997 38.335 36.2791 38.3875 37.1095 38.1377C37.8075 37.9277 38.3757 37.4824 38.7205 36.8356C38.9341 36.4351 39.0187 36.027 39.0538 35.5789C39.1099 34.864 39.0861 34.147 39.0646 33.4312L39.0048 31.4448C38.938 29.2877 38.88 27.1375 38.758 24.9823C38.6687 23.4036 38.6306 21.822 38.5366 20.2436C38.322 16.5002 37.9692 12.7698 37.4782 9.05246L37.2916 7.63238C37.2335 7.15473 37.1995 6.66387 37.0563 6.20258C36.4896 6.08352 35.8546 6.13594 35.2761 6.11312C34.0402 6.06434 32.802 5.98711 31.5657 5.96086C26.3209 5.87135 21.0758 5.83064 15.8302 5.83871C15.4157 5.83672 12.8065 5.74008 12.6614 5.83023L12.6511 5.91406C12.6306 5.73293 12.6237 5.5509 12.6079 5.36941C12.7 5.42664 12.9332 5.38863 13.0421 5.38238C13.6045 5.35 14.1729 5.37867 14.7364 5.37172C16.57 5.34918 18.4036 5.3802 20.2377 5.38469L32.0813 5.35059L36.5354 5.38883C36.8117 5.38698 37.0879 5.38863 37.3642 5.39379C37.559 5.39887 37.7674 5.42633 37.9606 5.40203C37.7651 3.59746 37.5387 1.79678 37.2813 0ZM37.2813 0C37.5387 1.79678 37.7651 3.59746 37.9606 5.40203L38.9121 13.459C39.14 15.3776 39.3327 17.2998 39.49 19.2255C39.6814 21.9452 39.8286 24.6674 39.9318 27.3919C39.9521 27.8764 39.9641 28.3611 39.9677 28.8459C39.9704 29.2144 39.9134 30.142 40.0001 30.4319V0H37.2813ZM40.0001 35.2478C39.915 35.5564 39.9622 36.1341 39.9564 36.4728C39.9321 37.4818 39.9213 38.491 39.9239 39.5004C37.9745 39.5267 36.0253 39.5676 34.0764 39.623L20.9656 39.8699L14.9696 39.9637L13.3824 39.9754C13.0646 39.9785 12.7388 39.9953 12.4215 39.975C12.3386 39.9695 12.2841 39.9582 12.2143 39.9109C12.226 39.8426 12.2512 39.7766 12.2507 39.7062C12.1708 39.6645 12.107 39.6437 12.0168 39.652C11.3141 38.7713 10.8022 37.7397 10.108 36.8547C9.83813 36.9931 9.56418 37.1289 9.33898 37.3362C8.81551 37.818 8.56848 38.5594 7.90867 38.8949C7.50297 39.1012 7.04875 39.066 6.63305 39.2234C6.22676 39.3816 5.92633 39.6859 5.63379 40H40.0001V35.2478Z" fill="url(#paint1_linear_992_142537)"/>
<path d="M12.0166 39.652C12.1068 39.6438 12.1706 39.6645 12.2505 39.7063C12.251 39.7766 12.2258 39.8426 12.2141 39.911C12.1401 39.8278 12.0762 39.7465 12.0166 39.652Z" fill="#F0C686"/>
<path d="M11.6978 0H37.2812C37.5386 1.79678 37.7651 3.59746 37.9605 5.40203C37.7674 5.42633 37.559 5.39887 37.3642 5.39379C37.0879 5.38863 36.8116 5.38698 36.5353 5.38883L32.0812 5.35059L20.2376 5.38469C18.4035 5.3802 16.57 5.34918 14.7363 5.37172C14.1728 5.37867 13.6044 5.35 13.042 5.38238C12.9331 5.38863 12.6999 5.42664 12.6078 5.36941C12.5991 5.15914 12.5533 4.93824 12.5184 4.73059C12.4384 4.25449 12.34 3.78304 12.2478 3.30934C12.0354 2.21819 11.8373 1.10279 11.6978 0Z" fill="url(#paint2_linear_992_142537)"/>
<path d="M2.71295 30.3642C2.95693 30.4984 3.20044 30.641 3.45398 30.7565C3.9217 30.9695 4.479 31.1241 4.88416 31.4456C5.54259 31.9682 5.41205 32.5676 6.33302 33.024C6.57619 33.1445 6.82705 33.2395 7.09498 33.2871C7.384 33.3384 7.67646 33.3308 7.96814 33.3488C8.06692 33.3556 8.1652 33.367 8.26298 33.3827C8.36074 33.3985 8.45759 33.4186 8.55353 33.4431C8.64947 33.4676 8.7441 33.4964 8.83744 33.5295C8.93077 33.5626 9.02242 33.5998 9.1124 33.6412C9.14701 33.7798 9.21615 33.9168 9.27173 34.0487C9.30072 34.1034 9.34459 34.1674 9.36138 34.2266C9.36252 34.4206 9.41431 34.6561 9.38669 34.8435L9.36904 34.8159C9.27677 34.7933 9.19396 34.7359 9.11005 34.6927C8.92029 34.5949 8.72302 34.5383 8.51127 34.5198L8.50693 34.5008C8.41763 34.4229 8.2849 34.3751 8.17431 34.3352C7.41619 34.0617 6.67111 34.3169 5.90463 34.4027C5.48248 34.4499 5.04822 34.4646 4.62435 34.4332C3.88571 34.3784 3.16946 34.1273 2.51763 33.7847C2.17418 33.6275 1.79266 33.5171 1.41557 33.4858C1.10878 33.4604 0.804285 33.4625 0.506348 33.3773C1.11133 33.3314 1.69091 33.2133 2.30124 33.296C2.72392 33.3533 3.09329 33.532 3.49394 33.6632C4.31326 33.9314 5.32787 33.7703 6.1349 33.5056C5.41584 33.1527 5.2306 32.9624 4.86982 32.258C4.74224 32.0089 4.60838 31.7906 4.41033 31.5913C4.25341 31.4905 4.10603 31.375 3.95048 31.2718C3.51876 30.9854 3.09407 30.7203 2.71295 30.3642Z" fill="url(#paint3_linear_992_142537)"/>
<path d="M4.41064 31.5913C4.52475 31.585 4.63799 31.6701 4.71959 31.743C4.87803 31.8844 4.99264 32.0739 5.09986 32.2548C5.5335 32.9864 5.71943 33.1361 6.52725 33.4312L6.13521 33.5056C5.41615 33.1527 5.23092 32.9624 4.87014 32.258C4.74256 32.0089 4.60869 31.7906 4.41064 31.5913Z" fill="#F0C686"/>
<path d="M2.51807 33.7847C2.56734 33.75 2.58231 33.7308 2.64479 33.7351C2.80495 33.7463 3.06917 33.8511 3.23832 33.8917C3.69749 34.002 4.15604 34.0841 4.62804 34.1106C5.84261 34.1791 6.99597 33.7229 8.12987 33.8082C8.2603 33.818 8.39886 33.8288 8.52639 33.8589C8.68343 33.896 9.15089 34.116 9.27218 34.0487C9.30116 34.1034 9.34503 34.1674 9.36182 34.2266C9.36296 34.4206 9.41475 34.6561 9.38714 34.8435L9.36948 34.8159C9.27721 34.7933 9.1944 34.7359 9.1105 34.6927C8.92073 34.5949 8.72346 34.5383 8.51171 34.5198L8.50737 34.5008C8.41807 34.4229 8.28534 34.3751 8.17475 34.3352C7.41663 34.0617 6.67155 34.3169 5.90507 34.4027C5.48292 34.4499 5.04866 34.4646 4.62479 34.4332C3.88615 34.3784 3.1699 34.1273 2.51807 33.7847Z" fill="#F0C686"/>
<path d="M5.55127 40C5.84521 39.5219 6.13404 39.0326 6.63885 38.7526C6.66307 38.7701 6.68311 38.7737 6.68647 38.8062C6.70197 38.9568 6.55311 39.0719 6.63295 39.2234C6.22666 39.3816 5.92623 39.6859 5.63369 40H5.55127Z" fill="#F0C686"/>
<path d="M6.63896 38.7526C6.90681 38.5906 7.23646 38.5647 7.50623 38.4043C7.98537 38.1194 8.30033 37.2573 8.65326 36.8005C8.94849 36.4183 9.25596 36.2104 9.73814 36.1476C9.89787 36.3385 10.0221 36.6218 10.1081 36.8547C9.83814 36.9931 9.5642 37.1289 9.339 37.3362C8.81553 37.818 8.56849 38.5594 7.90869 38.8949C7.50299 39.1012 7.04877 39.066 6.63306 39.2234C6.55322 39.0719 6.70209 38.9568 6.68658 38.8063C6.68322 38.7737 6.66318 38.7702 6.63896 38.7526Z" fill="url(#paint4_linear_992_142537)"/>
<path d="M0 39.0187C0.157267 38.7394 0.383318 38.4379 0.64941 38.2529C1.15443 37.9019 1.80777 37.9139 2.33451 37.6072C3.07693 37.1748 3.38458 36.3807 4.32398 36.0861C5.05195 35.8579 5.86367 36.1663 6.56258 35.8358C7.35102 35.4628 7.44555 34.8262 8.51148 34.5198C8.72324 34.5383 8.92051 34.5949 9.11027 34.6927C9.19418 34.7359 9.27699 34.7933 9.36926 34.8159L9.38691 34.8434C9.42742 35.0937 9.7068 35.8301 9.64285 36.0129C9.4332 35.8381 9.09594 35.4701 8.79855 35.5025C8.13289 35.575 7.57559 36.3621 6.94406 36.6159C6.145 36.937 5.42473 36.5487 4.66891 36.7712C3.93102 36.9884 3.49164 37.702 2.81982 38.0416C2.2215 38.344 1.5349 38.287 0.911129 38.5013C0.659934 38.5876 0.452172 38.7283 0.240708 38.8854C0.16413 38.9423 0.0850582 39.0136 0 39.0559V39.0187Z" fill="url(#paint5_linear_992_142537)"/>
<path d="M11.6411 0H11.6979C11.8374 1.10279 12.0355 2.21819 12.2479 3.30934C12.3401 3.78304 12.4385 4.25449 12.5185 4.73059C12.5534 4.93824 12.5992 5.15914 12.6079 5.36941C12.6238 5.5509 12.6306 5.73293 12.6512 5.91406C12.7153 6.43277 12.7188 6.96789 12.7508 7.49031C12.8009 8.30633 12.8679 9.12148 12.8987 9.93844C12.9551 10.1547 12.9374 10.4084 12.9512 10.6322C12.9901 11.196 13.0227 11.7601 13.0491 12.3246C13.139 13.9368 13.2027 15.55 13.2402 17.1642C13.2472 17.4417 13.2391 17.7195 13.2476 17.997L13.3233 21.5643C13.3375 22.3182 13.3628 23.0713 13.3572 23.8256C13.3094 27.418 13.164 31.0064 12.9209 34.5908C12.8658 35.4567 12.7968 36.3215 12.714 37.1853C12.6749 37.6246 12.6824 38.1346 12.5439 38.5542C12.4415 38.9371 12.3438 39.3211 12.2508 39.7062C12.1709 39.6645 12.1071 39.6437 12.0169 39.652C11.3142 38.7713 10.8023 37.7397 10.1081 36.8547C10.0222 36.6218 9.89791 36.3385 9.73818 36.1476C9.72072 36.092 9.68076 36.0563 9.64303 36.0129C9.70697 35.8301 9.4276 35.0937 9.38709 34.8434C9.41471 34.6561 9.36291 34.4206 9.36178 34.2266C9.34498 34.1674 9.30111 34.1034 9.27213 34.0486C9.21654 33.9168 9.1474 33.7798 9.11279 33.6412C9.14439 33.4467 9.12428 33.2265 9.12439 33.0287C9.12476 32.7128 9.12797 32.397 9.13404 32.0813C9.14857 30.873 9.17167 29.6648 9.20334 28.4569C9.28699 24.717 9.45395 20.9808 9.70424 17.2483C9.80031 15.8923 9.92537 14.5389 10.0794 13.1882C10.2335 11.8375 10.4164 10.4908 10.6282 9.14789C10.7599 8.32391 10.9098 7.49859 11.0684 6.67926C11.1572 6.2198 11.2788 5.75848 11.3346 5.29395C11.4063 4.69613 11.4075 4.08457 11.4448 3.4835C11.5168 2.32222 11.5966 1.16279 11.6411 0Z" fill="#F0C686"/>
<path d="M12.8987 9.93842C12.9551 10.1547 12.9374 10.4084 12.9512 10.6322C12.9901 11.196 13.0228 11.7601 13.0492 12.3246C13.139 13.9368 13.2027 15.5499 13.2403 17.1642C13.2472 17.4417 13.2391 17.7195 13.2476 17.997L13.3234 21.5642C13.3376 22.3181 13.3628 23.0713 13.3573 23.8256C13.3094 27.4179 13.164 31.0063 12.921 34.5908C12.8658 35.4567 12.7969 36.3215 12.7141 37.1853C12.675 37.6246 12.6825 38.1346 12.544 38.5542C12.4415 38.9371 12.3438 39.3211 12.2508 39.7062C12.1709 39.6644 12.1071 39.6437 12.0169 39.6519C11.3142 38.7713 10.8023 37.7397 10.1081 36.8547C10.0222 36.6218 9.89795 36.3385 9.73822 36.1476C9.72076 36.092 9.6808 36.0563 9.64307 36.0129C9.70701 35.8301 9.42764 35.0937 9.38713 34.8434C9.41475 34.6561 9.36295 34.4206 9.36182 34.2265C9.58127 34.4715 9.91697 35.1521 10.1099 35.4785C10.3029 35.8048 10.521 36.1176 10.7098 36.4456C10.739 36.4963 10.7733 36.5511 10.7811 36.6097C11.0337 36.9532 11.2455 37.4631 11.5374 37.7522C11.5036 37.6651 11.4487 37.5822 11.4025 37.5009C11.5272 37.577 11.6189 37.8435 11.693 37.9701C11.7139 38.0058 11.7374 38.0463 11.7786 38.0546C11.7256 37.9667 11.7351 37.6285 11.7027 37.4936C11.6518 37.282 11.4961 37.086 11.464 36.8821L11.4833 36.8741C11.5692 37.1049 11.6779 37.321 11.7604 37.5551C11.7206 37.1378 11.7214 36.7242 11.7097 36.306C11.6889 35.565 11.6754 34.8279 11.6785 34.0865C11.7013 31.8017 11.7954 29.5199 11.9609 27.241C12.0767 25.5595 12.2262 23.8772 12.3044 22.1936C12.3296 21.651 12.3746 21.0986 12.3773 20.5563C12.3779 20.4349 12.3443 20.317 12.344 20.1974C12.3433 19.8737 12.3811 19.5439 12.3923 19.2201C12.4028 18.9147 12.383 18.6023 12.3829 18.2959C12.3827 18.0172 12.4024 17.7374 12.3983 17.4593L12.3147 13.8088C12.305 13.3118 12.2616 12.8197 12.2658 12.3212C11.971 13.5829 11.7028 14.8502 11.4613 16.1231C11.4303 16.2925 11.385 16.4594 11.3545 16.6284C11.331 16.7588 11.3297 16.8933 11.307 17.0238C11.2721 17.2248 11.2283 17.4132 11.2096 17.6192L11.1872 17.6149C11.1931 17.3491 11.2622 17.077 11.309 16.816C11.3826 16.4063 11.454 15.9982 11.5344 15.5893C11.722 14.6472 11.9211 13.7076 12.1317 12.7704C12.3429 11.8162 12.5442 10.8513 12.8987 9.93842Z" fill="url(#paint6_linear_992_142537)"/>
<path d="M10.7808 36.6097C11.0333 36.9532 11.2452 37.4631 11.5371 37.7522C11.5996 37.8815 11.6821 38.0031 11.7582 38.1248L11.7742 38.1176L11.8076 38.157L11.8007 38.084C11.9005 38.2996 11.9594 38.6576 12.0178 38.8992C11.7148 38.6223 11.4053 38.2277 11.2156 37.8616C11.1282 37.6928 11.0629 37.5058 10.9925 37.3287C10.898 37.0908 10.8144 36.8649 10.7808 36.6097Z" fill="#F0C686"/>
</g>
<defs>
<linearGradient id="paint0_linear_992_142537" x1="37.7118" y1="37.8895" x2="11.7161" y2="6.65816" gradientUnits="userSpaceOnUse">
<stop stop-color="#EEC171"/>
<stop offset="1" stop-color="#FEF6D4"/>
</linearGradient>
<linearGradient id="paint1_linear_992_142537" x1="31.3683" y1="42.1887" x2="18.8816" y2="3.41183" gradientUnits="userSpaceOnUse">
<stop stop-color="#E9B46D"/>
<stop offset="1" stop-color="#F5D494"/>
</linearGradient>
<linearGradient id="paint2_linear_992_142537" x1="26.2297" y1="8.14058" x2="23.63" y2="-2.82417" gradientUnits="userSpaceOnUse">
<stop stop-color="#EDCF9F"/>
<stop offset="1" stop-color="#F5F0E6"/>
</linearGradient>
<linearGradient id="paint3_linear_992_142537" x1="5.82589" y1="35.5512" x2="3.50811" y2="30.4337" gradientUnits="userSpaceOnUse">
<stop stop-color="#FFD051"/>
<stop offset="1" stop-color="#FDE9A4"/>
</linearGradient>
<linearGradient id="paint4_linear_992_142537" x1="9.1747" y1="38.2708" x2="7.54623" y2="37.3119" gradientUnits="userSpaceOnUse">
<stop stop-color="#FFBA11"/>
<stop offset="1" stop-color="#FFDD81"/>
</linearGradient>
<linearGradient id="paint5_linear_992_142537" x1="5.46563" y1="38.1791" x2="4.30182" y2="36.0825" gradientUnits="userSpaceOnUse">
<stop stop-color="#FE9807"/>
<stop offset="1" stop-color="#FFDD6E"/>
</linearGradient>
<linearGradient id="paint6_linear_992_142537" x1="17.5823" y1="37.2385" x2="6.73117" y2="12.8392" gradientUnits="userSpaceOnUse">
<stop stop-color="#D7A061"/>
<stop offset="1" stop-color="#F1DEA9"/>
</linearGradient>
<clipPath id="clip0_992_142537">
<rect width="40" height="40" fill="white"/>
</clipPath>
</defs>
</svg>
