<svg width="283" height="19" viewBox="0 0 283 19" fill="none" xmlns="http://www.w3.org/2000/svg">
<path d="M282.284 9.41688V9.31615C282.284 9.26121 282.284 9.20626 282.284 9.15132C282.284 9.09638 282.284 8.84914 282.284 8.69347V8.50117C282.28 8.47078 282.28 8.43999 282.284 8.4096C282.284 8.24478 282.229 8.07995 282.192 7.91512C282.1 7.44487 281.972 6.98254 281.807 6.53241C281.787 6.45784 281.763 6.38447 281.734 6.31264L281.569 5.90973V5.85479L281.377 5.45188C281.285 5.2779 281.194 5.10392 281.093 4.93909C280.704 4.29002 280.22 3.70345 279.655 3.19925L279.5 3.0619L279.134 2.77803H279.069C278.893 2.65147 278.71 2.53528 278.52 2.43006L277.897 2.11873L277.687 1.99053C277.372 1.86216 277.047 1.75808 276.716 1.67919C276.096 1.52865 275.459 1.45484 274.821 1.45942H7.43538C6.79388 1.45427 6.15419 1.52808 5.53072 1.67919C5.28653 1.74634 5.04845 1.8196 4.81647 1.89896C4.57126 2.00663 4.33275 2.12895 4.10222 2.26524C3.57052 2.52565 3.07746 2.85846 2.6371 3.2542L2.38986 3.49228C2.2007 3.68275 2.02333 3.88458 1.85875 4.09664C1.50334 4.53543 1.19633 5.0113 0.943047 5.51598C0.860633 5.68997 0.77822 5.86395 0.704964 6.03793C0.631707 6.21192 0.704964 6.10203 0.704964 6.13866L0.650021 6.27602C0.607523 6.37139 0.570828 6.46924 0.540137 6.56904C0.497571 6.67597 0.463882 6.78623 0.43941 6.89869C0.43941 6.89869 0.43941 6.98111 0.393625 7.02689V7.13678L0.265427 7.48474C0.265427 7.64041 0.201327 7.79608 0.164699 7.95175V8.14405C0.164699 8.33635 0.100599 8.51949 0.0822854 8.71179C0.0639714 8.90408 0.0365008 9.12385 0.0273438 9.32531V9.38025C0.0273438 9.56339 0.0273438 9.74653 0.0273438 9.92051C0.0273228 10.5996 0.0917103 11.2772 0.219641 11.9442C0.219641 12.0907 0.274583 12.2281 0.311211 12.3563V12.4112C0.311211 12.6035 0.402782 12.7867 0.457724 12.979V13.0888C0.503031 13.2507 0.558073 13.4098 0.62255 13.565C1.03306 14.7351 1.71752 15.7901 2.61878 16.6418C2.87905 16.8893 3.16099 17.113 3.46123 17.3102C4.64962 18.0875 6.04296 18.4925 7.46285 18.4732H274.848C275.819 18.5022 276.784 18.3246 277.681 17.952C278.578 17.5794 279.385 17.0204 280.049 16.3121C280.124 16.2403 280.194 16.1638 280.26 16.0832L280.379 15.9275L280.59 15.6528C280.894 15.2269 281.158 14.7731 281.377 14.2976C281.469 14.0961 281.551 13.8947 281.633 13.6841C281.741 13.3839 281.833 13.0783 281.908 12.7683V12.6676C281.904 12.625 281.904 12.5821 281.908 12.5394L281.963 12.3013L282.018 12.0175C282.018 11.8893 282.018 11.7702 282.082 11.642C282.146 11.5138 282.137 11.2208 282.155 11.0194C282.174 10.8179 282.155 10.3692 282.155 10.0487C282.302 9.774 282.293 9.60002 282.284 9.41688Z" fill="url(#paint0_linear_24_23881)"/>
<path d="M77.9174 2.75057H76.6446C69.85 2.75057 39.1007 2.5949 35.7951 2.43007L18.5982 1.51437L14.8712 1.30375H14.8163L10.9062 1.07483L25.2736 1.51437C33.7164 1.77076 43.4778 2.0821 47.4886 2.23777L49.1643 2.32018C50.9957 2.4667 69.7859 2.64068 75.2527 2.73225H75.3351H76.5805C77.0074 2.75833 77.4355 2.75833 77.8624 2.73225L77.9174 2.75057Z" fill="#FFDE55"/>
<path d="M282.302 8.73004V8.40039V7.90591C282.264 7.44068 282.194 6.97866 282.091 6.5232C282.091 6.46825 282.091 6.41331 282.091 6.35837C282.091 6.30343 282.018 6.05619 281.972 5.90968C281.972 5.83642 281.972 5.75401 281.899 5.68075L281.817 5.44267C281.819 5.42749 281.819 5.41206 281.817 5.39688C281.741 5.22414 281.656 5.05597 281.56 4.89325C281.323 4.30296 281.016 3.7434 280.645 3.22667L280.562 3.10762L280.297 2.76881L280.049 2.48495L279.802 2.22855C279.655 2.08164 279.499 1.94402 279.335 1.81648C278.06 0.785861 276.46 0.240783 274.821 0.278103H7.43555C7.07111 0.278401 6.70708 0.302873 6.34587 0.351359C5.71642 0.425162 5.10015 0.585392 4.51446 0.827525L4.33132 0.909938C4.10614 1.00937 3.88881 1.12569 3.68117 1.25791C3.50931 1.3702 3.3442 1.49251 3.1867 1.62419L2.78379 1.99047L2.50908 2.24686C2.21925 2.5301 1.95282 2.83633 1.71241 3.16257L1.48349 3.51053C1.35529 3.71199 1.23625 3.91344 1.12636 4.1149C0.877724 4.5816 0.669407 5.0687 0.503686 5.57087L0.439587 5.65328C0.439587 5.79063 0.348017 5.93715 0.311389 6.08366V6.17523V6.29427L0.228976 6.56898V6.66055C0.228976 6.73381 0.228976 6.79791 0.228976 6.87116C0.228976 6.94442 0.228976 6.87116 0.228976 6.92611V7.08177C0.224692 7.09984 0.224692 7.11865 0.228976 7.13672C0.228976 7.13672 0.228976 7.13672 0.228976 7.19166C0.224527 7.2404 0.224527 7.28944 0.228976 7.33817C0.22454 7.42053 0.22454 7.50306 0.228976 7.58541C0.228976 7.74108 0.228976 7.89675 0.183191 8.05242C0.137406 8.20809 0.183191 8.15315 0.183191 8.19893C0.183191 8.33629 0.183191 8.4828 0.183191 8.62016V8.85824C0.183191 9.01391 0.183191 9.16958 0.183191 9.31609V9.4626C0.227447 10.183 0.340907 10.8975 0.522001 11.5962C0.522001 11.7702 0.613571 11.9442 0.668513 12.109L0.723455 12.2738V12.3745C0.723455 12.3745 0.723455 12.457 0.723455 12.4936V12.5851C0.723455 12.6767 0.796712 12.7774 0.83334 12.869L0.888281 12.9881L1.02564 13.2994L1.08058 13.4001C1.1104 13.4721 1.14402 13.5424 1.18131 13.6107C1.18131 13.6657 1.24541 13.7206 1.27288 13.7847C1.29154 13.8102 1.30692 13.8378 1.31866 13.8671C1.78425 14.6987 2.40611 15.4325 3.15007 16.0282C3.44927 16.2597 3.76789 16.465 4.1024 16.6417C5.1445 17.1645 6.29727 17.4284 7.46303 17.4109H274.848C276.189 17.4344 277.51 17.0789 278.658 16.3853C278.872 16.2493 279.08 16.1026 279.28 15.9458L279.353 15.8817H279.408L279.83 15.4971C280.228 15.0977 280.581 14.6555 280.883 14.1785C281.011 13.977 281.121 13.7756 281.231 13.565C281.357 13.327 281.47 13.0824 281.569 12.8324L281.624 12.695C281.627 12.6523 281.627 12.6095 281.624 12.5668C281.648 12.5299 281.667 12.4898 281.679 12.4478C281.674 12.4236 281.674 12.3987 281.679 12.3745C281.679 12.2189 281.78 12.0724 281.817 11.9258C281.853 11.7793 281.89 11.6969 281.917 11.5779C281.945 11.4588 282.018 11.1567 282.064 10.946C282.153 10.4588 282.211 9.96636 282.238 9.47176V9.42597C282.242 9.38946 282.242 9.3526 282.238 9.31609C282.238 9.16958 282.238 9.02307 282.238 8.87655V8.73004H282.302ZM278.548 11.3856C278.474 11.6053 278.401 11.816 278.31 12.0357C278.09 12.5756 277.781 13.0742 277.394 13.51C277.196 13.737 276.971 13.9399 276.725 14.1144C275.964 14.6277 275.061 14.8903 274.143 14.8652L7.95751 14.8652C7.35012 14.8781 6.74908 14.7396 6.20851 14.4623C5.61102 14.1418 5.11594 13.6594 4.78002 13.0705C4.65699 12.8717 4.54983 12.6634 4.45952 12.4478C4.05283 11.4829 3.82032 10.4536 3.77275 9.40766C3.77275 9.40766 3.77275 9.31609 3.77275 9.27946V8.66594C3.8006 8.17749 3.85871 7.69123 3.94673 7.20997C3.94673 7.07262 4.00167 6.93526 4.0383 6.79791C4.08714 6.59645 4.14208 6.395 4.20312 6.19354C4.42351 5.45847 4.80164 4.78034 5.31113 4.20647C5.51974 3.97774 5.76031 3.78035 6.02537 3.62042C6.50374 3.3243 7.048 3.15126 7.60954 3.11678H7.96666L274.161 3.11678C275.045 3.07277 275.919 3.30837 276.66 3.79007C277.402 4.27177 277.973 4.97503 278.291 5.79979C278.38 6.00272 278.456 6.21064 278.52 6.42247C278.67 6.91779 278.768 7.42715 278.813 7.94254C278.813 8.15315 278.813 8.36376 278.813 8.55606C278.813 8.74835 278.813 8.84908 278.813 8.97728C278.84 9.78859 278.75 10.5995 278.548 11.3856Z" fill="url(#paint1_linear_24_23881)"/>
<g style="mix-blend-mode:overlay" opacity="0.4">
<path d="M1.12638 4.06921C1.12638 4.06921 16.0066 4.61864 21.0063 4.73768C26.006 4.85672 31.7566 5.06733 31.7566 5.06733C31.7566 5.06733 16.849 5.01239 11.6112 4.81093C6.37336 4.60948 4.85329 4.63695 3.08599 4.63695C0.686845 4.63695 0.283936 6.30353 0.283936 6.30353C0.476955 5.52854 0.759679 4.77871 1.12638 4.06921Z" fill="#FFDE55"/>
</g>
<g style="mix-blend-mode:overlay" opacity="0.4">
<path d="M4.10229 2.26528C4.10229 2.26528 14.7702 2.54914 19.2663 2.39348C23.7624 2.23781 30.4288 1.99057 34.6227 1.53271C34.6227 1.53271 52.4239 1.93562 54.5392 2.00888C54.5392 2.00888 39.6407 1.90815 36.4266 2.06382C25.6664 2.80004 14.8708 2.86732 4.10229 2.26528Z" fill="#FFDE55"/>
</g>
<g style="mix-blend-mode:overlay" opacity="0.4">
<path d="M21.5647 6.43158C20.9237 6.43158 10.2924 6.97184 3.93742 7.20993C2.28 7.26487 0.915604 7.31065 0.0914715 7.31981C0.0870225 7.27108 0.0870225 7.22203 0.0914715 7.1733C0.0914715 7.1733 0.0914715 7.1733 0.0914715 7.11836C0.0871874 7.10029 0.0871874 7.08148 0.0914715 7.06341V6.90775C0.0914715 6.90775 0.0914715 6.90775 0.0914715 6.8528L3.95574 6.7887C9.53237 6.69713 18.5154 6.56894 21.5647 6.43158Z" fill="#FFDE55"/>
</g>
<g style="mix-blend-mode:overlay" opacity="0.4">
<path d="M0.741699 9.31608C0.741699 9.31608 20.585 9.2062 23.7167 9.13294C26.8484 9.05969 59.4291 8.77582 59.4291 8.77582C59.4291 8.77582 34.0367 9.3344 27.4253 9.46259C20.8139 9.59079 1.35522 9.54501 0.741699 9.31608Z" fill="#FFDE55"/>
</g>
<g style="mix-blend-mode:overlay" opacity="0.4">
<path d="M1.35545 12.979C1.35545 12.979 14.0288 12.979 15.7503 13.1347C17.4718 13.2903 24.8249 13.3361 24.8249 13.3361L24.2938 13.5467C24.2938 13.5467 3.49819 13.2903 1.12652 13.5925L0.815186 12.979H1.35545Z" fill="#FFDE55"/>
</g>
<g style="mix-blend-mode:overlay" opacity="0.4">
<path d="M15.3381 17.4476C15.3381 17.4476 25.6032 13.7847 26.4731 13.391C26.4731 13.391 39.9339 13.6291 41.3075 13.6657C41.3075 13.6657 30.0535 13.7756 27.224 14.0869C24.3944 14.3983 15.3381 17.4476 15.3381 17.4476Z" fill="#FFDE55"/>
</g>
<g style="mix-blend-mode:overlay" opacity="0.4">
<path d="M65.8022 13.3178C65.8022 13.3178 281.331 11.6604 281.963 11.5688L281.826 12.0724C281.826 12.0724 67.0018 13.3452 65.8022 13.3178Z" fill="#FFDE55"/>
</g>
<g style="mix-blend-mode:overlay" opacity="0.4">
<path d="M263.988 8.72089C263.988 8.72089 281.57 8.49197 282.302 8.51944C282.358 8.82211 282.358 9.13247 282.302 9.43514C281.461 9.09178 280.553 8.94157 279.647 8.9956C277.788 8.97729 263.988 8.72089 263.988 8.72089Z" fill="#FFDE55"/>
</g>
<g style="mix-blend-mode:overlay" opacity="0.4">
<path d="M282.045 6.50488C282.045 6.50488 264.418 5.8181 259.775 5.86389L240.454 6.12028L230.574 6.24848C230.574 6.24848 245.555 6.47741 249.803 6.37668C254.052 6.27595 258.356 6.30342 260.792 6.27595C263.228 6.24848 282.073 6.9902 282.174 7.1184L282.045 6.50488Z" fill="#FFDE55"/>
</g>
<g style="mix-blend-mode:overlay" opacity="0.4">
<path d="M43.6609 13.6474C43.6609 13.6474 55.565 16.6143 56.7371 16.9165C57.9092 17.2186 58.6876 17.4201 58.6876 17.4201L51.0323 17.4934L55.7024 16.9989L43.6609 13.6474Z" fill="#FFDE55"/>
</g>
<g style="mix-blend-mode:multiply" opacity="0.5">
<path d="M280.553 3.1076L279.381 3.02518C265.838 2.08201 37.6994 1.58753 34.6226 1.53259C27.9461 2.18555 21.2403 2.49119 14.5321 2.44829C10.2191 2.44829 6.49222 2.34756 4.05645 2.26515C3.46124 2.26515 2.94845 2.26515 2.51807 2.20105L2.79278 1.94466L3.18653 1.62416L5.53988 1.69742C10.6678 1.85308 19.3945 1.99044 27.9105 1.47765C30.0441 1.34945 32.1594 1.18462 34.1922 0.964853C34.2318 0.941907 34.2753 0.92639 34.3204 0.919068H34.6043C36.2434 0.735928 37.8184 0.525316 39.3202 0.278076H42.5617C41.353 0.552787 40.0619 0.79087 38.7066 1.00148C42.8731 1.09305 49.5394 1.24872 56.5537 1.47765C63.394 1.69742 272.934 1.99044 278.401 2.33841L280.049 2.45745L280.296 2.74132L280.553 3.1076Z" fill="#C97B3A"/>
<path d="M282.046 6.50485H281.716L278.511 6.40412L59.5575 5.88217C43.0291 5.88217 16.0342 6.48654 4.0293 6.79787L0.43975 6.8986H0.165039C0.165039 6.80703 0.165039 6.72462 0.210824 6.63305V6.54148L0.265767 6.27592H0.62289L4.17582 6.18435C12.8109 5.96458 28.8998 5.57083 43.4137 5.37853L5.30213 4.19728L1.85909 4.09655H1.12653C1.23641 3.8951 1.35545 3.69364 1.48365 3.49219H2.39935L6.06217 3.61123L59.5667 5.26865C62.4969 5.26865 65.1067 5.26865 67.2403 5.36022C67.2929 5.3616 269.715 5.37669 269.759 5.404C269.804 5.4313 269.841 5.46987 269.867 5.51589L278.282 5.77229L281.478 5.87301H281.89C281.89 6.01953 281.973 6.16604 282.009 6.32171C282.046 6.47738 282.037 6.44991 282.046 6.50485Z" fill="#C97B3A"/>
<path d="M282.293 8.49205H282.201H278.886L3.76354 9.31618H0C0 9.16967 0 9.014 0 8.85833V8.70266H0.0732561H3.78185L278.813 7.94263H282.073H282.238V8.43711L282.293 8.49205Z" fill="#C97B3A"/>
<path d="M282.11 11.0999C282.11 11.3014 282.064 11.512 282.036 11.7226H281.817L277.385 12.0083L65.4544 13.3635L276.46 13.51L281.176 13.565H281.633C281.551 13.7756 281.469 13.977 281.377 14.1785H280.828L275.791 14.1144L61.178 13.8946H61.0682H60.8759L45.7942 13.6657L50.8031 14.8653L60.0517 17.0813C60.1101 17.0951 60.1631 17.126 60.2039 17.17C60.2446 17.214 60.2714 17.2692 60.2806 17.3285V17.4475L60.4363 18.4731H59.8136L59.6854 17.6765L58.9346 17.4933L48.1384 14.8653L43.8804 13.8946C43.8302 13.8814 43.784 13.8561 43.7457 13.821C43.7074 13.7859 43.6782 13.742 43.6606 13.6932L26.4729 13.4368L26.3722 13.5009L22.4713 14.911L15.338 17.4933L14.816 17.6856L14.175 18.4731H13.4058L14.175 17.4475L14.3765 17.1911C14.4117 17.1451 14.4593 17.1101 14.5138 17.0904L20.6582 14.8653L24.7972 13.3727L4.77991 13.0705L0.814919 12.9789H0.439481C0.384539 12.7866 0.338754 12.6035 0.292969 12.4112V12.3562H0.595151L4.48689 12.4112L61.1689 13.2628L277.659 11.349L281.991 11.0816L282.11 11.0999Z" fill="#C97B3A"/>
<path d="M199.696 11.0999C199.696 11.3014 199.651 11.512 199.623 11.7226H199.403L194.971 12.0083L184.496 13.3635L194.046 13.51L198.762 13.565H199.22C199.138 13.7756 199.055 13.977 198.964 14.1785H198.414L193.378 14.1144L180.219 13.8946H180.109H179.917L164.835 13.6657L169.844 14.8653L179.093 17.0813C179.151 17.0951 179.204 17.126 179.245 17.17C179.286 17.214 179.313 17.2692 179.322 17.3285V17.4475L179.478 18.4731H178.855L178.727 17.6765L177.976 17.4933L167.18 14.8653L162.922 13.8946C162.871 13.8813 162.825 13.8561 162.787 13.821C162.749 13.7859 162.719 13.742 162.702 13.6932L145.514 13.4368L145.413 13.5009L141.513 14.911L134.379 17.4933L133.857 17.6856L133.216 18.4731H132.447L133.216 17.4475L133.418 17.1911C133.453 17.1451 133.501 17.1101 133.555 17.0904L139.699 14.8653L143.838 13.3727L123.821 13.0705L119.856 12.9789H119.481C119.426 12.7866 119.38 12.6035 119.334 12.4112V12.3562H119.636L123.528 12.4112L180.21 13.2628L195.246 11.349L199.577 11.0816L199.696 11.0999Z" fill="#C97B3A"/>
</g>
<path d="M5.12793 0.607729C5.12793 0.607729 5.79639 0.278076 9.06545 0.278076H28.2036C28.2036 0.278076 6.28172 0.6352 5.12793 0.607729Z" fill="#FFDE55"/>
<path d="M280.553 3.10761C280.553 3.10761 261.662 2.13696 259.034 2.13696C259.034 2.13696 271.359 2.80543 273.758 2.97941C276.158 3.15339 281.029 3.89511 281.441 4.69177C281.226 4.12211 280.927 3.58806 280.553 3.10761Z" fill="#FFDE55"/>
<path d="M42.6536 0.278076H72.6611C72.6611 0.278076 67.5057 0.690142 64.1634 0.662671C60.8211 0.6352 42.6536 0.278076 42.6536 0.278076Z" fill="#FFDE55"/>
<g style="mix-blend-mode:multiply" opacity="0.5">
<path d="M7.95747 14.9201C4.38622 14.9201 3.85512 10.8727 3.77271 9.4259C3.77271 9.60904 3.77271 9.75556 3.77271 9.82881C3.77271 10.4332 3.89175 15.7809 8.01241 15.7809H37.0677C38.0614 15.8006 39.0316 15.4772 39.8148 14.8652L7.95747 14.9201Z" fill="#9E4000"/>
</g>
<g style="mix-blend-mode:overlay" opacity="0.6">
<path d="M72.3711 1.88971C121.528 1.88971 124.422 2.80541 124.431 4.06908C124.44 5.33275 121.583 6.39497 72.3986 6.44991C63.2141 6.50485 20.0092 5.53421 20 4.27054C19.9908 3.00687 63.1775 1.93549 72.3711 1.88971Z" fill="white"/>
</g>
<g style="mix-blend-mode:multiply" opacity="0.4">
<path d="M140.621 8.44604C140.682 9.34733 140.439 10.2431 139.931 10.9901C139.423 11.7371 138.679 12.2922 137.819 12.5667C135.868 13.4 23.6253 13.6472 18.3874 13.6472H18.131C12.9024 13.6472 9.38608 13.4 7.43563 12.5667C6.57498 12.2922 5.8312 11.7371 5.32323 10.9901C4.81527 10.2431 4.57244 9.34733 4.63358 8.44604C4.63358 8.65666 4.1391 14.0776 8.93738 14.0776H136.317C141.124 14.0776 140.639 8.65666 140.621 8.44604Z" fill="#D89000"/>
</g>
<defs>
<linearGradient id="paint0_linear_24_23881" x1="39.952" y1="2.44838" x2="39.952" y2="18.2168" gradientUnits="userSpaceOnUse">
<stop stop-color="#6D2C00"/>
<stop offset="0.42" stop-color="#9E4000"/>
<stop offset="1" stop-color="#9E4000"/>
</linearGradient>
<linearGradient id="paint1_linear_24_23881" x1="39.9522" y1="0.140747" x2="39.9522" y2="16.7241" gradientUnits="userSpaceOnUse">
<stop stop-color="#F0CA57"/>
<stop offset="1" stop-color="#D45B1A"/>
</linearGradient>
</defs>
</svg>
