<svg width="283" height="19" viewBox="0 0 283 19" fill="none" xmlns="http://www.w3.org/2000/svg">
<path d="M282.284 9.47559V9.37487C282.284 9.31992 282.284 9.26498 282.284 9.21004C282.284 9.1551 282.284 8.90786 282.284 8.75219V8.55989C282.28 8.5295 282.28 8.49871 282.284 8.46832C282.284 8.30349 282.229 8.13867 282.192 7.97384C282.1 7.50358 281.972 7.04126 281.807 6.59113C281.787 6.51656 281.763 6.44318 281.734 6.37136L281.569 5.96845V5.91351L281.377 5.5106C281.285 5.33662 281.194 5.16263 281.093 4.99781C280.704 4.34874 280.22 3.76217 279.655 3.25797L279.5 3.12061L279.134 2.83675H279.069C278.893 2.71019 278.71 2.594 278.52 2.48878L277.897 2.17744L277.687 2.04924C277.372 1.92088 277.047 1.81679 276.716 1.7379C276.096 1.58736 275.459 1.51356 274.821 1.51813H7.43538C6.79388 1.51299 6.15419 1.5868 5.53072 1.7379C5.28653 1.80506 5.04845 1.87831 4.81647 1.95767C4.57126 2.06535 4.33275 2.18766 4.10222 2.32395C3.57052 2.58436 3.07746 2.91718 2.6371 3.31291L2.38986 3.551C2.2007 3.74147 2.02333 3.94329 1.85875 4.15536C1.50334 4.59415 1.19633 5.07002 0.943047 5.5747C0.860633 5.74868 0.77822 5.92267 0.704964 6.09665C0.631707 6.27063 0.704964 6.16075 0.704964 6.19738L0.650021 6.33473C0.607523 6.4301 0.570828 6.52796 0.540137 6.62776C0.497571 6.73469 0.463882 6.84495 0.43941 6.95741C0.43941 6.95741 0.43941 7.03982 0.393625 7.08561V7.19549L0.265427 7.54346C0.265427 7.69913 0.201327 7.8548 0.164699 8.01047V8.20277C0.164699 8.39506 0.100599 8.5782 0.0822854 8.7705C0.0639714 8.9628 0.0365008 9.18257 0.0273438 9.38402V9.43896C0.0273438 9.6221 0.0273438 9.80525 0.0273438 9.97923C0.0273228 10.6584 0.0917103 11.336 0.219641 12.0029C0.219641 12.1494 0.274583 12.2868 0.311211 12.415V12.4699C0.311211 12.6622 0.402782 12.8454 0.457724 13.0377V13.1476C0.503031 13.3095 0.558073 13.4685 0.62255 13.6237C1.03306 14.7938 1.71752 15.8488 2.61878 16.7005C2.87905 16.948 3.16099 17.1718 3.46123 17.3689C4.64962 18.1463 6.04296 18.5512 7.46285 18.5319H274.848C275.819 18.5609 276.784 18.3833 277.681 18.0107C278.578 17.6381 279.385 17.0791 280.049 16.3708C280.124 16.299 280.194 16.2225 280.26 16.1419L280.379 15.9862L280.59 15.7115C280.894 15.2856 281.158 14.8319 281.377 14.3563C281.469 14.1548 281.551 13.9534 281.633 13.7428C281.741 13.4427 281.833 13.137 281.908 12.8271V12.7263C281.904 12.6837 281.904 12.6408 281.908 12.5981L281.963 12.3601L282.018 12.0762C282.018 11.948 282.018 11.8289 282.082 11.7008C282.146 11.5726 282.137 11.2795 282.155 11.0781C282.174 10.8766 282.155 10.4279 282.155 10.1074C282.302 9.83272 282.293 9.65873 282.284 9.47559Z" fill="url(#paint0_linear_966_134741)"/>
<path d="M77.9174 2.80928H76.6446C69.85 2.80928 39.1007 2.65361 35.7951 2.48879L18.5982 1.57308L14.8712 1.36247H14.8163L10.9062 1.13354L25.2736 1.57308C33.7164 1.82948 43.4778 2.14082 47.4886 2.29649L49.1643 2.3789C50.9957 2.52541 69.7859 2.6994 75.2527 2.79097H75.3351H76.5805C77.0074 2.81705 77.4355 2.81705 77.8624 2.79097L77.9174 2.80928Z" fill="#FFDE55"/>
<path d="M282.302 8.78875V8.4591V7.96462C282.264 7.4994 282.194 7.03738 282.092 6.58191C282.092 6.52697 282.092 6.47203 282.092 6.41708C282.092 6.36214 282.018 6.1149 281.973 5.96839C281.973 5.89513 281.973 5.81272 281.899 5.73947L281.817 5.50138C281.819 5.4862 281.819 5.47078 281.817 5.4556C281.741 5.28285 281.656 5.11469 281.561 4.95196C281.323 4.36168 281.016 3.80212 280.645 3.28538L280.562 3.16634L280.297 2.82753L280.05 2.54366L279.802 2.28727C279.655 2.14036 279.499 2.00273 279.335 1.8752C278.06 0.844577 276.46 0.299499 274.821 0.336819H7.4358C7.07135 0.337116 6.70732 0.361589 6.34611 0.410075C5.71666 0.483878 5.10039 0.644108 4.51471 0.88624L4.33157 0.968654C4.10639 1.06808 3.88905 1.1844 3.68142 1.31662C3.50956 1.42892 3.34445 1.55122 3.18694 1.6829L2.78403 2.04918L2.50932 2.30558C2.21949 2.58882 1.95307 2.89505 1.71266 3.22128L1.48373 3.56925C1.35553 3.7707 1.23649 3.97216 1.12661 4.17361C0.877968 4.64032 0.669651 5.12741 0.50393 5.62958L0.439831 5.71199C0.439831 5.84935 0.348261 5.99586 0.311633 6.14237V6.23394V6.35299L0.22922 6.6277V6.71927C0.22922 6.79252 0.22922 6.85662 0.22922 6.92988C0.22922 7.00314 0.22922 6.92988 0.22922 6.98482V7.14049C0.224936 7.15855 0.224936 7.17737 0.22922 7.19543C0.22922 7.19543 0.22922 7.19543 0.22922 7.25037C0.224771 7.29911 0.224771 7.34815 0.22922 7.39689C0.224784 7.47924 0.224784 7.56177 0.22922 7.64413C0.22922 7.7998 0.22922 7.95547 0.183435 8.11114C0.13765 8.26681 0.183435 8.21186 0.183435 8.25765C0.183435 8.395 0.183435 8.54152 0.183435 8.67887V8.91695C0.183435 9.07262 0.183435 9.22829 0.183435 9.37481V9.52132C0.227692 10.2417 0.341151 10.9562 0.522245 11.6549C0.522245 11.8289 0.613815 12.0029 0.668757 12.1677L0.7237 12.3325V12.4333C0.7237 12.4333 0.7237 12.5157 0.7237 12.5523V12.6439C0.7237 12.7354 0.796956 12.8362 0.833584 12.9277L0.888525 13.0468L1.02588 13.3581L1.08082 13.4588C1.11064 13.5308 1.14427 13.6011 1.18155 13.6695C1.18155 13.7244 1.24565 13.7793 1.27312 13.8434C1.29178 13.8689 1.30717 13.8966 1.31891 13.9258C1.78449 14.7574 2.40636 15.4912 3.15031 16.0869C3.44951 16.3184 3.76814 16.5237 4.10264 16.7004C5.14474 17.2232 6.29752 17.4871 7.46327 17.4696H274.848C276.189 17.4931 277.51 17.1377 278.658 16.444C278.873 16.308 279.08 16.1613 279.28 16.0045L279.354 15.9404H279.409L279.83 15.5558C280.228 15.1564 280.582 14.7142 280.883 14.2372C281.011 14.0357 281.121 13.8343 281.231 13.6237C281.357 13.3857 281.47 13.1412 281.57 12.8911L281.625 12.7537C281.627 12.7111 281.627 12.6682 281.625 12.6256C281.648 12.5886 281.667 12.5485 281.68 12.5065C281.674 12.4824 281.674 12.4574 281.68 12.4333C281.68 12.2776 281.78 12.1311 281.817 11.9846C281.854 11.838 281.89 11.7556 281.918 11.6366C281.945 11.5175 282.018 11.2154 282.064 11.0048C282.153 10.5175 282.211 10.0251 282.238 9.53047V9.48469C282.242 9.44818 282.242 9.41132 282.238 9.37481C282.238 9.22829 282.238 9.08178 282.238 8.93527V8.78875H282.302ZM278.548 11.4443C278.475 11.6641 278.401 11.8747 278.31 12.0944C278.091 12.6343 277.781 13.1329 277.394 13.5687C277.196 13.7957 276.971 13.9986 276.726 14.1731C275.964 14.6865 275.061 14.949 274.143 14.924L7.95775 14.924C7.35036 14.9368 6.74932 14.7983 6.20876 14.5211C5.61127 14.2005 5.11618 13.7182 4.78026 13.1292C4.65724 12.9304 4.55008 12.7222 4.45977 12.5065C4.05308 11.5416 3.82056 10.5124 3.77299 9.46638C3.77299 9.46638 3.77299 9.37481 3.77299 9.33818V8.72466C3.80085 8.23621 3.85895 7.74995 3.94697 7.26869C3.94697 7.13133 4.00191 6.99398 4.03854 6.85662C4.08738 6.65517 4.14232 6.45371 4.20337 6.25226C4.42375 5.51718 4.80188 4.83905 5.31137 4.26518C5.51999 4.03646 5.76055 3.83907 6.02562 3.67913C6.50398 3.38301 7.04824 3.20998 7.60978 3.1755H7.96691L274.162 3.1755C275.045 3.13148 275.919 3.36709 276.661 3.84879C277.402 4.33048 277.973 5.03374 278.292 5.85851C278.38 6.06144 278.456 6.26935 278.52 6.48118C278.67 6.9765 278.768 7.48587 278.813 8.00125C278.813 8.21186 278.813 8.42247 278.813 8.61477C278.813 8.80707 278.813 8.9078 278.813 9.036C278.84 9.84731 278.75 10.6582 278.548 11.4443Z" fill="url(#paint1_linear_966_134741)"/>
<g style="mix-blend-mode:overlay" opacity="0.4">
<path d="M1.12663 4.12793C1.12663 4.12793 16.0068 4.67735 21.0065 4.79639C26.0063 4.91543 31.7569 5.12605 31.7569 5.12605C31.7569 5.12605 16.8492 5.0711 11.6114 4.86965C6.3736 4.66819 4.85354 4.69567 3.08623 4.69567C0.687089 4.69567 0.28418 6.36224 0.28418 6.36224C0.477199 5.58726 0.759924 4.83743 1.12663 4.12793Z" fill="#FFDE55"/>
</g>
<g style="mix-blend-mode:overlay" opacity="0.4">
<path d="M4.10254 2.32399C4.10254 2.32399 14.7705 2.60786 19.2666 2.45219C23.7627 2.29652 30.429 2.04928 34.6229 1.59143C34.6229 1.59143 52.4242 1.99434 54.5394 2.0676C54.5394 2.0676 39.641 1.96687 36.4268 2.12254C25.6666 2.85876 14.8711 2.92604 4.10254 2.32399Z" fill="#FFDE55"/>
</g>
<g style="mix-blend-mode:overlay" opacity="0.4">
<path d="M21.5645 6.4903C20.9235 6.4903 10.2922 7.03056 3.93718 7.26864C2.27976 7.32358 0.91536 7.36937 0.0912274 7.37853C0.0867784 7.32979 0.0867784 7.28075 0.0912274 7.23201C0.0912274 7.23201 0.0912274 7.23201 0.0912274 7.17707C0.0869432 7.15901 0.0869432 7.14019 0.0912274 7.12213V6.96646C0.0912274 6.96646 0.0912274 6.96646 0.0912274 6.91152L3.95549 6.84742C9.53212 6.75585 18.5152 6.62765 21.5645 6.4903Z" fill="#FFDE55"/>
</g>
<g style="mix-blend-mode:overlay" opacity="0.4">
<path d="M0.742188 9.3748C0.742188 9.3748 20.5855 9.26491 23.7172 9.19166C26.8489 9.1184 59.4296 8.83453 59.4296 8.83453C59.4296 8.83453 34.0371 9.39311 27.4258 9.52131C20.8144 9.64951 1.35571 9.60372 0.742188 9.3748Z" fill="#FFDE55"/>
</g>
<g style="mix-blend-mode:overlay" opacity="0.4">
<path d="M1.35569 13.0377C1.35569 13.0377 14.029 13.0377 15.7505 13.1934C17.4721 13.3491 24.8252 13.3948 24.8252 13.3948L24.294 13.6055C24.294 13.6055 3.49844 13.3491 1.12677 13.6512L0.81543 13.0377H1.35569Z" fill="#FFDE55"/>
</g>
<g style="mix-blend-mode:overlay" opacity="0.4">
<path d="M15.3379 17.5063C15.3379 17.5063 25.6029 13.8435 26.4728 13.4497C26.4728 13.4497 39.9337 13.6878 41.3072 13.7244C41.3072 13.7244 30.0532 13.8343 27.2237 14.1456C24.3942 14.457 15.3379 17.5063 15.3379 17.5063Z" fill="#FFDE55"/>
</g>
<g style="mix-blend-mode:overlay" opacity="0.4">
<path d="M65.8027 13.3765C65.8027 13.3765 281.332 11.7191 281.964 11.6275L281.826 12.1311C281.826 12.1311 67.0023 13.404 65.8027 13.3765Z" fill="#FFDE55"/>
</g>
<g style="mix-blend-mode:overlay" opacity="0.4">
<path d="M263.988 8.77961C263.988 8.77961 281.569 8.55068 282.302 8.57816C282.358 8.88082 282.358 9.19119 282.302 9.49386C281.461 9.15049 280.553 9.00029 279.646 9.05432C277.787 9.03601 263.988 8.77961 263.988 8.77961Z" fill="#FFDE55"/>
</g>
<g style="mix-blend-mode:overlay" opacity="0.4">
<path d="M282.045 6.56359C282.045 6.56359 264.418 5.87682 259.775 5.9226L240.454 6.179L230.574 6.3072C230.574 6.3072 245.555 6.53612 249.803 6.4354C254.052 6.33467 258.356 6.36214 260.792 6.33467C263.228 6.3072 282.073 7.04892 282.174 7.17711L282.045 6.56359Z" fill="#FFDE55"/>
</g>
<g style="mix-blend-mode:overlay" opacity="0.4">
<path d="M43.6611 13.7061C43.6611 13.7061 55.5653 16.673 56.7374 16.9752C57.9095 17.2774 58.6878 17.4788 58.6878 17.4788L51.0325 17.5521L55.7026 17.0576L43.6611 13.7061Z" fill="#FFDE55"/>
</g>
<g style="mix-blend-mode:multiply" opacity="0.5">
<path d="M280.553 3.16631L279.381 3.0839C265.838 2.14073 37.6999 1.64625 34.6231 1.5913C27.9466 2.24426 21.2408 2.54991 14.5326 2.50701C10.2196 2.50701 6.4927 2.40628 4.05693 2.32387C3.46173 2.32387 2.94893 2.32387 2.51855 2.25977L2.79326 2.00337L3.18702 1.68288L5.54037 1.75613C10.6683 1.9118 19.395 2.04916 27.911 1.53636C30.0446 1.40816 32.1599 1.24334 34.1927 1.02357C34.2323 1.00062 34.2757 0.985106 34.3209 0.977784H34.6048C36.2439 0.794643 37.8189 0.584032 39.3206 0.336792H42.5622C41.3535 0.611503 40.0624 0.849586 38.7071 1.0602C42.8736 1.15177 49.5399 1.30744 56.5542 1.53636C63.3945 1.75613 272.935 2.04916 278.401 2.39712L280.05 2.51616L280.297 2.80003L280.553 3.16631Z" fill="#C97B3A"/>
<path d="M282.046 6.56357H281.716L278.511 6.46284L59.5575 5.94089C43.0291 5.94089 16.0342 6.54525 4.0293 6.85659L0.43975 6.95732H0.165039C0.165039 6.86575 0.165039 6.78333 0.210824 6.69176V6.60019L0.265767 6.33464H0.62289L4.17582 6.24307C12.8109 6.0233 28.8998 5.62955 43.4137 5.43725L5.30213 4.25599L1.85909 4.15527H1.12653C1.23641 3.95381 1.35545 3.75236 1.48365 3.5509H2.39935L6.06217 3.66994L59.5667 5.32737C62.4969 5.32737 65.1067 5.32737 67.2403 5.41894C67.2929 5.42032 269.715 5.43541 269.759 5.46271C269.804 5.49002 269.841 5.52858 269.867 5.57461L278.282 5.831L281.478 5.93173H281.89C281.89 6.07824 281.973 6.22476 282.009 6.38042C282.046 6.53609 282.037 6.50862 282.046 6.56357Z" fill="#C97B3A"/>
<path d="M282.293 8.55076H282.201H278.886L3.76354 9.3749H0C0 9.22838 0 9.07272 0 8.91705V8.76138H0.0732561H3.78185L278.813 8.00134H282.073H282.238V8.49582L282.293 8.55076Z" fill="#C97B3A"/>
<path d="M282.11 11.1586C282.11 11.3601 282.064 11.5707 282.036 11.7813H281.817L277.385 12.067L65.4544 13.4222L276.46 13.5687L281.176 13.6237H281.633C281.551 13.8343 281.469 14.0357 281.377 14.2372H280.828L275.791 14.1731L61.178 13.9533H61.0682H60.8759L45.7942 13.7244L50.8031 14.924L60.0517 17.14C60.1101 17.1538 60.1631 17.1847 60.2039 17.2287C60.2446 17.2728 60.2714 17.3279 60.2806 17.3872V17.5063L60.4363 18.5319H59.8136L59.6854 17.7352L58.9346 17.552L48.1384 14.924L43.8804 13.9533C43.8302 13.9401 43.784 13.9148 43.7457 13.8797C43.7074 13.8446 43.6782 13.8008 43.6606 13.7519L26.4729 13.4955L26.3722 13.5596L22.4713 14.9698L15.338 17.552L14.816 17.7443L14.175 18.5319H13.4058L14.175 17.5063L14.3765 17.2499C14.4117 17.2038 14.4593 17.1688 14.5138 17.1491L20.6582 14.924L24.7972 13.4314L4.77991 13.1292L0.814919 13.0376H0.439481C0.384539 12.8453 0.338754 12.6622 0.292969 12.4699V12.415H0.595151L4.48689 12.4699L61.1689 13.3215L277.659 11.4077L281.991 11.1403L282.11 11.1586Z" fill="#C97B3A"/>
<path d="M199.696 11.1586C199.696 11.3601 199.65 11.5707 199.623 11.7813H199.403L194.971 12.067L184.495 13.4222L194.046 13.5687L198.762 13.6237H199.22C199.137 13.8343 199.055 14.0357 198.964 14.2372H198.414L193.378 14.1731L180.219 13.9533H180.109H179.917L164.835 13.7244L169.844 14.924L179.093 17.14C179.151 17.1538 179.204 17.1847 179.245 17.2287C179.286 17.2728 179.312 17.3279 179.322 17.3872V17.5063L179.477 18.5318H178.855L178.726 17.7352L177.976 17.552L167.179 14.924L162.921 13.9533C162.871 13.9401 162.825 13.9148 162.787 13.8797C162.748 13.8446 162.719 13.8007 162.702 13.7519L145.514 13.4955L145.413 13.5596L141.512 14.9698L134.379 17.552L133.857 17.7443L133.216 18.5318H132.447L133.216 17.5063L133.417 17.2499C133.453 17.2038 133.5 17.1688 133.555 17.1491L139.699 14.924L143.838 13.4314L123.821 13.1292L119.856 13.0376H119.48C119.426 12.8453 119.38 12.6622 119.334 12.4699V12.4149H119.636L123.528 12.4699L180.21 13.3215L195.246 11.4077L199.577 11.1403L199.696 11.1586Z" fill="#C97B3A"/>
</g>
<path d="M5.12793 0.666445C5.12793 0.666445 5.79639 0.336792 9.06545 0.336792H28.2036C28.2036 0.336792 6.28172 0.693916 5.12793 0.666445Z" fill="#FFDE55"/>
<path d="M280.553 3.16632C280.553 3.16632 261.662 2.19568 259.034 2.19568C259.034 2.19568 271.359 2.86414 273.758 3.03813C276.157 3.21211 281.029 3.95383 281.441 4.75049C281.226 4.18083 280.927 3.64678 280.553 3.16632Z" fill="#FFDE55"/>
<path d="M42.6533 0.336792H72.6609C72.6609 0.336792 67.5055 0.748858 64.1632 0.721387C60.8209 0.693916 42.6533 0.336792 42.6533 0.336792Z" fill="#FFDE55"/>
<g style="mix-blend-mode:multiply" opacity="0.5">
<path d="M7.95722 14.9788C4.38598 14.9788 3.85487 10.9314 3.77246 9.48462C3.77246 9.66776 3.77246 9.81427 3.77246 9.88753C3.77246 10.4919 3.8915 15.8396 8.01216 15.8396H37.0674C38.0612 15.8593 39.0313 15.5359 39.8145 14.9239L7.95722 14.9788Z" fill="#9E4000"/>
</g>
<g style="mix-blend-mode:overlay" opacity="0.6">
<path d="M141.371 1.94843C250.528 1.94843 253.422 2.86413 253.431 4.1278C253.44 5.39147 250.583 6.45368 141.399 6.50863C132.214 6.56357 29.0092 5.59292 29 4.32925C28.9908 3.06558 132.177 1.99421 141.371 1.94843Z" fill="white"/>
</g>
<g style="mix-blend-mode:screen" opacity="0.7">
<path d="M11.8495 4.44822C21.0797 4.44822 272.658 4.62221 272.658 4.62221C276.641 4.62221 277.758 6.80158 277.85 8.23008C277.85 8.01031 277.85 8.30333 277.85 8.23008C277.85 7.63487 277.337 3.84386 273.546 3.84386H9.31296C8.26552 3.80155 7.24049 4.15476 6.44147 4.83334C5.64244 5.51192 5.12788 6.46621 5 7.50667C5.57689 5.71189 7.28926 4.47569 11.8495 4.44822Z" fill="#FFFDBD"/>
</g>
<g style="mix-blend-mode:multiply" opacity="0.4">
<path d="M277.621 8.50476C277.682 9.40605 277.439 10.3018 276.931 11.0488C276.423 11.7958 275.679 12.351 274.819 12.6254C272.868 13.4587 143.625 13.706 138.387 13.706H138.131C132.902 13.706 9.38608 13.4587 7.43563 12.6254C6.57498 12.351 5.8312 11.7958 5.32323 11.0488C4.81527 10.3018 4.57244 9.40605 4.63358 8.50476C4.63358 8.71537 4.1391 14.1363 8.93738 14.1363H273.317C278.124 14.1363 277.639 8.71537 277.621 8.50476Z" fill="#D89000"/>
</g>
<defs>
<linearGradient id="paint0_linear_966_134741" x1="39.952" y1="2.50709" x2="39.952" y2="18.2755" gradientUnits="userSpaceOnUse">
<stop stop-color="#6D2C00"/>
<stop offset="0.42" stop-color="#9E4000"/>
<stop offset="1" stop-color="#9E4000"/>
</linearGradient>
<linearGradient id="paint1_linear_966_134741" x1="39.9524" y1="0.199463" x2="39.9524" y2="16.7828" gradientUnits="userSpaceOnUse">
<stop stop-color="#F0CA57"/>
<stop offset="1" stop-color="#D45B1A"/>
</linearGradient>
</defs>
</svg>
