<svg width="63" height="60" viewBox="0 0 63 60" fill="none" xmlns="http://www.w3.org/2000/svg">
<path d="M55.0934 48.2441C50.0589 54.5377 42.636 58.666 34.4431 59.7289C26.2501 60.7918 17.9516 58.7032 11.3566 53.9184C4.985 48.8593 0.956429 41.5875 0.149557 33.689C-0.657315 25.7905 1.82298 17.9062 7.04945 11.7558C12.084 5.46228 19.5068 1.33402 27.6998 0.271097C35.8927 -0.79183 44.1913 1.29677 50.7863 6.08156C57.1579 11.1407 61.1864 18.4125 61.9933 26.311C62.8002 34.2095 60.3199 42.0938 55.0934 48.2441Z" fill="#2BABEE"/>
<path d="M45.6588 18.9334L40.9057 41.349C40.5468 42.9308 39.612 43.3245 38.2833 42.5798L31.0406 37.2428L27.5463 40.6043C27.1593 40.9913 26.8365 41.3141 26.0906 41.3141L26.6115 33.9386L40.0338 21.81C40.6177 21.2903 39.9067 21.0011 39.1271 21.522L22.5333 31.971L15.3896 29.7345C13.836 29.2496 13.8078 28.1809 15.7136 27.435L43.6552 16.6699C44.949 16.185 46.0807 16.9568 45.6588 18.9334Z" fill="white"/>
</svg>
