<svg width="63" height="60" viewBox="0 0 63 60" fill="none" xmlns="http://www.w3.org/2000/svg">
<path d="M55.0934 48.2441C50.0589 54.5377 42.636 58.666 34.4431 59.7289C26.2501 60.7918 17.9516 58.7032 11.3566 53.9184C4.985 48.8593 0.956429 41.5875 0.149557 33.689C-0.657315 25.7905 1.82298 17.9062 7.04945 11.7558C12.084 5.46228 19.5068 1.33402 27.6998 0.271097C35.8927 -0.79183 44.1913 1.29677 50.7863 6.08156C57.1579 11.1407 61.1864 18.4125 61.9933 26.311C62.8002 34.2095 60.3199 42.0938 55.0934 48.2441Z" fill="black"/>
<path d="M33.9115 27.588L45.3032 14.25H42.6032L32.7145 25.8307L24.8125 14.25H15.7L27.6475 31.764L15.7 45.75H18.4L28.8445 33.519L37.1897 45.75H46.3022L33.9115 27.588ZM30.2147 31.917L29.0042 30.1732L19.372 16.2975H23.5187L31.2902 27.4958L32.5007 29.2395L42.6055 43.797H38.4587L30.2147 31.917Z" fill="white"/>
</svg>
