<svg width="220" height="234" viewBox="0 0 220 234" fill="none" xmlns="http://www.w3.org/2000/svg">
<g clip-path="url(#clip0_24_40275)">
<g style="mix-blend-mode:multiply">
<path d="M49.8032 77.2606C55.3825 101.164 65.7472 123.69 80.2719 143.478L96.3168 163.1L119.737 153.803C142.157 143.883 162.352 129.551 179.116 111.661L187.433 85.7347C183.885 82.9504 181.234 79.1837 179.811 74.9037C178.388 70.6237 178.256 66.0196 179.431 61.6651C163.554 52.5659 146.397 45.9107 128.537 41.9236C110.999 36.3963 92.7149 33.5981 74.3263 33.6269C73.2252 37.9979 70.8566 41.9459 67.5181 44.9746C64.1797 48.0034 60.0205 49.9777 55.5633 50.6495L49.8032 77.2606Z" fill="url(#paint0_linear_24_40275)"/>
</g>
<path d="M199.07 77.6413L197.791 77.2987C196.021 76.6849 194.393 75.7212 193.004 74.4649C191.614 73.2086 190.492 71.6855 189.703 69.9863C188.914 68.287 188.476 66.4465 188.414 64.5742C188.352 62.702 188.667 60.8364 189.341 59.0885C189.341 59.0885 189.59 58.1587 189.683 57.81C189.889 57.4573 189.997 57.056 189.995 56.6477C191.583 50.7198 165.461 38.488 131.637 29.425C97.8133 20.362 69.6556 18.0494 68.0673 23.9772C67.9313 24.7284 67.7334 25.4671 67.4755 26.1857C67.2166 28.0543 66.5815 29.8511 65.6087 31.4674C64.6359 33.0838 63.3456 34.4862 61.8156 35.5899C60.2856 36.6936 58.5478 37.4757 56.7071 37.889C54.8665 38.3023 52.9611 38.3382 51.1061 37.9945L49.7114 37.6208L42.1115 72.9576C48.0057 98.5383 58.9965 122.668 74.4271 143.905L95.2331 168.541L124.291 157.266C148.413 146.654 170.153 131.296 188.215 112.106L199.186 77.6724L199.07 77.6413Z" fill="url(#paint1_linear_24_40275)"/>
<path d="M88.5596 193.909L64.1093 163.813C47.6734 141.458 35.9744 115.983 29.7289 88.9481L29.3201 87.219L38.5061 47.8224L44.5112 43.078L49.121 44.9361C50.9808 45.4344 53.9906 43.5002 55.1741 39.0834C55.3452 38.6745 55.4604 38.2445 55.5167 37.8048L55.9527 36.1776L56.1395 35.4802C59.5526 26.9268 72.9694 27.532 84.6966 27.9336C100.117 29.5923 115.376 32.5141 130.318 36.6697C145.183 40.6982 159.698 45.9207 173.722 52.2862C184.785 57.4928 196.954 64.6154 194.369 74.2626C194.244 75.1805 194.003 76.0787 193.652 76.936C192.656 80.6554 194.411 83.8665 195.922 84.2714L200.844 84.9672L203.556 92.0474L191.813 130.759L190.711 132.083C171.784 152.373 148.915 168.585 123.504 179.727L88.5596 193.909ZM47.0002 87.7208C52.5795 111.625 62.9442 134.15 77.4688 153.938L93.6528 173.971L117.073 164.674C139.493 154.754 159.688 140.422 176.452 122.532L191.462 80.4602C187.96 78.5489 185.224 75.4873 183.717 71.7925C182.211 68.0978 182.025 63.9962 183.193 60.1806C166.554 50.3066 148.521 42.997 129.704 38.4982C112.165 32.9709 93.8816 30.1727 75.4931 30.2015C73.6746 34.3477 70.7234 37.8969 66.9786 40.4413C63.2337 42.9858 58.8471 44.4223 54.3226 44.5858L47.0002 87.7208Z" fill="#F6AE28"/>
<g style="mix-blend-mode:multiply">
<g filter="url(#filter0_d_24_40275)">
<path d="M88.6517 193.561L64.1702 163.581C47.6956 141.21 36.0032 115.686 29.821 88.6003L29.3811 86.9875L38.6916 47.1259L44.6968 42.3816L49.3066 44.2396C50.9338 44.6757 54.091 42.6564 55.1499 38.7045C55.3105 38.3345 55.4154 37.9428 55.4614 37.5421L55.9285 35.7987C59.3416 27.2453 72.7584 27.8505 84.4856 28.2521C99.9062 29.9108 115.165 32.8326 130.107 36.9881C145.048 40.8244 159.655 45.863 173.783 52.0547C184.846 57.2613 197.046 64.2676 194.43 74.0311C194.316 74.9101 194.085 75.77 193.744 76.5882C192.717 80.4238 194.472 83.635 195.983 84.0399L200.905 84.7356L203.617 91.8158L192.106 130.59L191.035 131.797C172.111 152.133 149.23 168.385 123.797 179.558L88.6517 193.561ZM47.0923 87.373C52.6506 111.314 63.005 133.88 77.5298 153.706L93.6515 173.972L117.072 164.675C139.512 154.721 159.717 140.349 176.482 122.416L191.206 80.019C187.719 78.0909 184.997 75.0276 183.493 71.3383C181.988 67.6489 181.792 63.5559 182.936 59.7394C166.297 49.8654 148.265 42.5558 129.447 38.057C111.909 32.5297 93.625 29.7314 75.2365 29.7602C73.4722 33.8988 70.5831 37.4599 66.8972 40.0395C63.2112 42.6191 58.876 44.1139 54.3835 44.3542L47.0923 87.373Z" fill="url(#paint2_linear_24_40275)"/>
</g>
</g>
<path d="M88.6553 193.561L93.2336 176.475L126.31 162.291L140.918 157.983C140.918 157.983 136.371 174.953 128.942 177.572L88.6553 193.561Z" fill="url(#paint3_linear_24_40275)"/>
<g style="mix-blend-mode:multiply" opacity="0.5">
<path d="M44.7861 109.926C56.0151 137.016 71.7172 162.027 91.2364 183.913C91.2364 183.913 148.936 165.24 162.834 145.917C166.809 140.379 120.965 169.206 99.0424 164.079C77.1201 158.953 44.7861 109.926 44.7861 109.926Z" fill="#FF6700"/>
</g>
<path d="M92.3909 179.613L67.9405 149.516C51.5046 127.161 39.8056 101.686 33.5601 74.6518L33.1513 72.9228L41.7561 33.3705L48.3113 28.8981L53.0768 30.175C54.7041 30.611 57.8613 28.5917 58.9202 24.6398C59.0913 24.2309 59.2065 23.8009 59.2628 23.3613L59.6988 21.734L59.8857 21.0366C63.143 13.0644 76.7155 13.0884 88.287 14.0712C103.708 15.7299 118.966 18.6517 133.908 22.8072C148.842 26.6828 163.438 31.7603 177.553 37.99C188.616 43.1966 200.785 50.3192 198.2 59.9664C198.075 60.8843 197.834 61.7825 197.483 62.6398C196.456 66.4754 198.211 69.6866 199.722 70.0915L204.488 71.3684L207.781 78.6043L195.488 117.044L194.386 118.368C175.46 138.658 152.591 154.87 127.179 166.012L92.3909 179.613ZM50.8315 73.4246C56.4107 97.3284 66.7755 119.854 81.3001 139.642L97.3139 159.38L120.765 149.967C143.186 140.047 163.38 125.715 180.144 107.825L188.461 81.8987C184.9 79.1246 182.24 75.3586 180.816 71.0752C179.393 66.7919 179.268 62.1829 180.46 57.8291C164.554 48.7897 147.406 42.1381 129.565 38.0876C112.027 32.5603 93.7431 29.762 75.3545 29.7908C74.2534 34.1619 71.8848 38.1098 68.5464 41.1386C65.208 44.1673 61.0488 46.1417 56.5915 46.8135L50.8315 73.4246Z" fill="url(#paint4_linear_24_40275)"/>
<g style="mix-blend-mode:screen">
<path d="M92.3311 179.845L67.8807 149.749C51.4124 127.413 39.7102 101.931 33.5003 74.8844L33.0916 73.1554L41.6652 33.7192L48.2515 29.1306L53.0171 30.4075C54.6443 30.8435 57.8015 28.8242 58.8604 24.8723C59.0315 24.4635 59.1468 24.0334 59.203 23.5938L59.639 21.9665L59.8259 21.2691C63.0832 13.2969 76.6557 13.3209 88.1961 14.4199C103.648 15.8937 118.943 18.6999 133.911 22.8073C148.843 26.7382 163.413 31.9341 177.462 38.3388C188.556 43.4292 200.725 50.5517 198.14 60.199C198.023 61.1184 197.782 62.0178 197.424 62.8723C196.396 66.708 198.152 69.9191 199.663 70.324L204.428 71.6009L207.722 78.8368L195.429 117.276L194.326 118.6C175.425 138.919 152.55 155.136 127.12 166.245L92.3311 179.845ZM50.7717 73.6571C56.351 97.5609 66.7157 120.086 81.2403 139.874L97.2541 159.613L120.705 150.2C143.126 140.279 163.32 125.947 180.084 108.057L188.37 82.2475C184.818 79.4404 182.169 75.6516 180.752 71.3518C179.335 67.0519 179.213 62.4305 180.4 58.0616C164.494 49.0222 147.346 42.3706 129.505 38.3201C111.967 32.7928 93.6833 29.9946 75.2948 30.0234C74.197 34.4129 71.828 38.3808 68.4847 41.4296C65.1413 44.4785 60.9725 46.4727 56.5006 47.1623L50.7717 73.6571Z" fill="url(#paint5_linear_24_40275)"/>
</g>
<path d="M175.103 107.098L182.681 83.4658C179.43 80.9248 177.001 77.4795 175.701 73.5627C174.401 69.6458 174.288 65.4322 175.375 61.4511C160.855 53.2685 145.225 47.2343 128.974 43.5366C112.949 38.4918 96.2521 35.908 79.4523 35.8733C78.374 39.8676 76.1299 43.4501 73.0065 46.1633C69.8831 48.8766 66.022 50.5977 61.9161 51.1068L56.6627 75.3621C61.6809 97.1878 71.0871 117.764 84.309 135.84L99.0382 153.864L120.372 145.378C141.009 136.436 159.625 123.416 175.103 107.098Z" fill="url(#paint6_linear_24_40275)"/>
<path opacity="0.7" d="M95.1791 168.276C81.9437 155.82 69.9272 142.13 59.293 127.391C61.4302 133.323 64.4241 138.91 68.1794 143.974L92.8683 175.505L130.015 160.543C136.227 158.254 142.05 155.025 147.281 150.967C130.509 158.396 113.062 164.192 95.1791 168.276Z" fill="white"/>
<path opacity="0.7" d="M64.97 20.6547C64.97 20.6547 73.1303 9.26233 131.246 24.8345C189.363 40.4067 194.801 55.4429 194.801 55.4429C174.71 42.5935 152.468 33.4688 129.141 28.5061C82.416 15.9861 64.97 20.6547 64.97 20.6547Z" fill="white"/>
<path opacity="0.3" d="M82.3083 41.4956C97.4699 40.6516 112.659 42.5687 127.135 47.1535C142.088 50.704 156.546 56.0843 170.182 63.1727C169.225 66.9102 169.45 70.8527 170.827 74.4568C172.204 78.0609 174.665 81.1493 177.871 83.2965L86.977 58.9416L66.5201 53.4602C66.5201 53.4602 81.6064 45.0449 82.3083 41.4956Z" fill="url(#paint7_linear_24_40275)"/>
<path d="M133.092 64.4462L119.725 60.8646C119.34 60.6331 118.897 60.5145 118.447 60.522L97.8086 64.0862C97.4157 64.0936 97.0284 64.1811 96.6705 64.3434C96.3126 64.5057 95.9916 64.7393 95.7271 65.03C95.4626 65.3207 95.2603 65.6622 95.1324 66.0338C95.0045 66.4054 94.9538 66.7992 94.9834 67.1911L94.4261 79.4995C94.4032 79.9599 94.491 80.4192 94.682 80.8388C94.873 81.2584 95.1616 81.6262 95.5239 81.9114C95.8301 82.236 96.2205 82.4691 96.6516 82.5846C97.0826 82.7001 97.5372 82.6935 97.9647 82.5655L108.563 80.6713L94.8907 131.697C94.6889 132.448 94.7855 133.248 95.1604 133.929C95.5353 134.61 96.1593 135.119 96.9016 135.351L112.942 139.648C113.712 139.855 114.533 139.747 115.224 139.348C115.915 138.949 116.42 138.292 116.626 137.521L135.313 67.7819C135.417 67.0502 135.248 66.3057 134.839 65.6905C134.429 65.0753 133.807 64.6323 133.092 64.4462Z" fill="url(#paint8_linear_24_40275)"/>
<path d="M134.213 60.2615L120.846 56.6799C120.461 56.4485 120.018 56.3298 119.568 56.3374L98.9296 59.9015C98.5233 59.9032 98.1219 59.9907 97.7517 60.1582C97.3815 60.3256 97.0508 60.5693 96.7812 60.8734C96.5116 61.1774 96.3092 61.5349 96.1872 61.9225C96.0653 62.31 96.0264 62.719 96.0733 63.1226L95.516 75.431C95.5239 75.8731 95.6291 76.3081 95.8243 76.7049C96.0194 77.1017 96.2996 77.4506 96.6449 77.7268C96.9511 78.0514 97.3416 78.2844 97.7726 78.3999C98.2037 78.5154 98.6583 78.5088 99.0858 78.3808L109.684 76.4867L95.9806 127.629C95.7788 128.38 95.8755 129.179 96.2504 129.86C96.6253 130.542 97.2493 131.051 97.9916 131.282L114.032 135.58C114.802 135.787 115.623 135.678 116.314 135.279C117.005 134.881 117.51 134.223 117.716 133.453L136.403 63.7135C136.54 62.9681 136.39 62.1985 135.984 61.5585C135.578 60.9185 134.946 60.4553 134.213 60.2615Z" fill="url(#paint9_linear_24_40275)"/>
<path d="M48.2995 33.1311C48.2995 33.1311 56.5125 35.9546 59.3005 31.594C58.819 32.8665 58.0447 34.0077 57.0402 34.9253C56.0356 35.8428 54.8291 36.5109 53.5183 36.8754C52.2075 37.2399 50.8293 37.2906 49.4953 37.0234C48.1613 36.7562 46.909 36.1785 45.8397 35.3373L48.2995 33.1311Z" fill="white"/>
<path d="M203.355 74.6763C203.355 74.6763 194.947 73.0462 194.596 67.8447C194.377 69.1874 194.477 70.5629 194.888 71.8598C195.299 73.1567 196.01 74.3385 196.963 75.3096C197.916 76.2807 199.084 77.0137 200.373 77.4493C201.662 77.8848 203.035 78.0108 204.382 77.8168L203.355 74.6763Z" fill="white"/>
<g style="mix-blend-mode:overlay">
<path d="M132.633 22.4642C150.533 27.2604 162.88 41.1578 159.879 54.6802C156.879 68.2026 139.856 75.4762 121.769 71.3774C103.683 67.2785 91.4295 53.0325 94.3676 39.7425C97.3058 26.4526 114.453 18.714 132.633 22.4642Z" fill="white"/>
</g>
<g style="mix-blend-mode:overlay">
<path d="M99.5226 147.887C103.99 148.575 108.025 150.947 110.799 154.517C113.572 158.086 114.874 162.582 114.436 167.081C113.046 171.424 110.001 175.043 105.961 177.155C101.92 179.267 97.2098 179.702 92.851 178.365C88.32 177.683 84.2346 175.258 81.466 171.607C78.6974 167.956 77.4647 163.368 78.0307 158.821C79.4916 154.565 82.5514 151.043 86.5626 149.003C90.5738 146.962 95.2217 146.562 99.5226 147.887Z" fill="white"/>
</g>
<g style="mix-blend-mode:overlay">
<path d="M98.289 153.413C103.403 154.783 106.107 162.359 104.182 170.938C102.257 179.516 96.5531 185.462 91.4078 184.208C86.2624 182.954 83.5897 175.261 85.3983 166.652C87.2069 158.042 93.0274 152.127 98.289 153.413Z" fill="white"/>
</g>
<g style="mix-blend-mode:overlay">
<path d="M97.8995 41.4366C108.089 42.6787 118.173 44.6728 128.068 47.4025C138.544 50.1875 148.781 53.8053 158.681 58.2212C158.681 58.2212 127.757 48.5648 97.8995 41.4366Z" fill="white"/>
</g>
</g>
<defs>
<filter id="filter0_d_24_40275" x="25.3811" y="28.0566" width="182.236" height="177.505" filterUnits="userSpaceOnUse" color-interpolation-filters="sRGB">
<feFlood flood-opacity="0" result="BackgroundImageFix"/>
<feColorMatrix in="SourceAlpha" type="matrix" values="0 0 0 0 0 0 0 0 0 0 0 0 0 0 0 0 0 0 127 0" result="hardAlpha"/>
<feOffset dy="8"/>
<feGaussianBlur stdDeviation="2"/>
<feComposite in2="hardAlpha" operator="out"/>
<feColorMatrix type="matrix" values="0 0 0 0 0 0 0 0 0 0 0 0 0 0 0 0 0 0 0.25 0"/>
<feBlend mode="normal" in2="BackgroundImageFix" result="effect1_dropShadow_24_40275"/>
<feBlend mode="normal" in="SourceGraphic" in2="effect1_dropShadow_24_40275" result="shape"/>
</filter>
<linearGradient id="paint0_linear_24_40275" x1="102.523" y1="139.474" x2="123.981" y2="59.3896" gradientUnits="userSpaceOnUse">
<stop stop-color="#FFAC1C"/>
<stop offset="0.95" stop-color="#FF6100"/>
</linearGradient>
<linearGradient id="paint1_linear_24_40275" x1="104.983" y1="130.292" x2="128.186" y2="43.6988" gradientUnits="userSpaceOnUse">
<stop stop-color="#FFAC1C"/>
<stop offset="0.95" stop-color="#FF6100"/>
</linearGradient>
<linearGradient id="paint2_linear_24_40275" x1="26.4207" y1="92.9214" x2="191.703" y2="137.209" gradientUnits="userSpaceOnUse">
<stop stop-color="#FFAC1C"/>
<stop offset="1" stop-color="#F9D445"/>
</linearGradient>
<linearGradient id="paint3_linear_24_40275" x1="131.256" y1="168.475" x2="97.0481" y2="182.231" gradientUnits="userSpaceOnUse">
<stop stop-color="#FF8C00"/>
<stop offset="1" stop-color="#FF6100"/>
</linearGradient>
<linearGradient id="paint4_linear_24_40275" x1="100.094" y1="148.539" x2="127.844" y2="44.9765" gradientUnits="userSpaceOnUse">
<stop stop-color="#FFAC1C"/>
<stop offset="1" stop-color="#F9D445"/>
</linearGradient>
<linearGradient id="paint5_linear_24_40275" x1="100.034" y1="148.772" x2="127.784" y2="45.209" gradientUnits="userSpaceOnUse">
<stop stop-color="#FFAC1C"/>
<stop offset="0.99" stop-color="#F9D477"/>
</linearGradient>
<linearGradient id="paint6_linear_24_40275" x1="53.8559" y1="82.583" x2="174.272" y2="114.849" gradientUnits="userSpaceOnUse">
<stop stop-color="#FFAC1C"/>
<stop offset="1" stop-color="#F9D445"/>
</linearGradient>
<linearGradient id="paint7_linear_24_40275" x1="122.957" y1="66.4647" x2="128.314" y2="46.4728" gradientUnits="userSpaceOnUse">
<stop stop-color="#FFCD25"/>
<stop offset="0.99" stop-color="white"/>
</linearGradient>
<linearGradient id="paint8_linear_24_40275" x1="150.505" y1="35.7252" x2="116.913" y2="85.7739" gradientUnits="userSpaceOnUse">
<stop stop-color="#FFAC1C"/>
<stop offset="0.99" stop-color="#F9D477"/>
</linearGradient>
<linearGradient id="paint9_linear_24_40275" x1="97.298" y1="134.335" x2="115.767" y2="65.4096" gradientUnits="userSpaceOnUse">
<stop stop-color="#FFAC1C"/>
<stop offset="0.95" stop-color="#FF6100"/>
</linearGradient>
<clipPath id="clip0_24_40275">
<rect width="174.723" height="194.096" fill="white" transform="translate(50.5671 0.476196) rotate(15)"/>
</clipPath>
</defs>
</svg>
