<svg width="101" height="105" viewBox="0 0 101 105" fill="none" xmlns="http://www.w3.org/2000/svg">
<g clip-path="url(#clip0_24_40121)">
<path d="M40.0785 86.7799C40.0785 86.7799 16.6829 34.5336 16.8361 33.9616C16.9894 33.3897 16.2455 22.4387 16.2455 22.4387L16.7878 20.4148L31.9399 10.3279L62.751 15.1884L88.3125 25.3857L94.459 42.9244L87.9879 53.8755L40.0785 86.7799Z" fill="url(#paint0_linear_24_40121)"/>
<path style="mix-blend-mode:screen" opacity="0.4" d="M68.5672 53.6704L78.5509 54.6007L87.8998 53.8519L40.0785 86.7799L68.5672 53.6704Z" fill="url(#paint1_linear_24_40121)"/>
<g style="mix-blend-mode:overlay" filter="url(#filter0_d_24_40121)">
<path fill-rule="evenodd" clip-rule="evenodd" d="M39.7319 87.0172L30.7434 44.0071L16.9893 33.3897L39.7319 87.0172ZM68.5672 53.6704L78.5509 54.6007L87.8998 53.8519L40.0785 86.7799L68.5672 53.6704ZM68.3879 53.811L30.9302 44.7174L40.0783 86.7799L68.3879 53.811Z" fill="url(#paint2_linear_24_40121)" style="mix-blend-mode:overlay" shape-rendering="crispEdges"/>
</g>
<path style="mix-blend-mode:overlay" opacity="0.7" d="M31.9869 10.1519L59.2138 23.8134L30.8595 27.9107L16.7877 20.4148L31.9869 10.1519Z" fill="url(#paint3_linear_24_40121)"/>
<path style="mix-blend-mode:overlay" opacity="0.7" d="M16.7878 20.4148L37.6846 12.9989L62.351 15.9772L88.0925 25.3268L62.311 15.0705L31.987 10.1519L16.7878 20.4148Z" fill="url(#paint4_linear_24_40121)"/>
<path d="M30.8595 27.9107L59.2138 23.8134L79.0681 41.5826L30.8595 27.9107Z" fill="url(#paint5_linear_24_40121)"/>
<path d="M88.0934 25.3269L59.2148 23.8135L78.656 41.1891L94.4364 43.0124L88.0934 25.3269Z" fill="url(#paint6_linear_24_40121)"/>
<path style="mix-blend-mode:overlay" opacity="0.7" d="M16.7876 20.4148L31.2114 28.005L30.8612 43.5671L16.9892 33.3897L16.7876 20.4148Z" fill="url(#paint7_linear_24_40121)"/>
<path style="mix-blend-mode:overlay" opacity="0.7" d="M31.2129 28.0054L30.8627 43.5675L67.6099 55.4887L78.7176 41.4887L31.2129 28.0054Z" fill="url(#paint8_linear_24_40121)"/>
<path style="mix-blend-mode:overlay" opacity="0.7" d="M94.2529 43.3408L87.8997 53.8519L67.6084 55.4884L79.0681 41.5827L94.2529 43.3408Z" fill="url(#paint9_linear_24_40121)"/>
<path style="mix-blend-mode:overlay" opacity="0.7" d="M39.7319 87.0172L30.7434 44.0071L16.9893 33.3897L39.7319 87.0172Z" fill="url(#paint10_linear_24_40121)"/>
<path style="mix-blend-mode:overlay" opacity="0.7" d="M39.7318 87.0172L67.6084 55.4883L87.8997 53.8519L39.7318 87.0172Z" fill="url(#paint11_linear_24_40121)"/>
<g style="mix-blend-mode:multiply" opacity="0.4">
<path d="M39.7319 87.0172L33.4624 47.2349L68.3032 53.5996L30.7434 44.0071L39.7319 87.0172Z" fill="#A90009"/>
</g>
<g style="mix-blend-mode:multiply" opacity="0.4">
<path d="M39.7319 87.0172L79.0681 41.5826L45.8186 31.919L69.6831 40.5298L39.7319 87.0172Z" fill="#A90009"/>
</g>
<g style="mix-blend-mode:multiply" opacity="0.4">
<path d="M39.8143 86.7092L87.8997 53.8519L78.5507 54.6007L39.8143 86.7092Z" fill="#A90009"/>
</g>
<g style="mix-blend-mode:multiply" opacity="0.4">
<path d="M78.5507 54.6007L79.068 41.5827L59.2136 23.8134L81.9459 41.9294L78.5507 54.6007Z" fill="#A90009"/>
</g>
<path style="mix-blend-mode:overlay" opacity="0.7" d="M39.5834 85.9871L39.5457 85.5998L33.1749 44.6115L42.9573 46.9969L39.5834 85.9871Z" fill="url(#paint12_linear_24_40121)"/>
<path style="mix-blend-mode:overlay" opacity="0.7" d="M30.7434 44.0071L79.0681 41.5827L68.1154 53.5965L30.7434 44.0071Z" fill="url(#paint13_linear_24_40121)"/>
<path d="M16.9893 33.3897L30.7434 44.0071L36.5842 71.8382L28.8026 45.0904L16.9893 33.3897Z" fill="url(#paint14_linear_24_40121)"/>
<path style="mix-blend-mode:overlay" opacity="0.7" d="M30.7435 44.0071L59.2138 23.8134L31.2115 28.005L16.9893 33.3897L30.7435 44.0071Z" fill="url(#paint15_linear_24_40121)"/>
<g style="mix-blend-mode:overlay" opacity="0.3">
<path d="M88.0934 25.3269L87.9906 42.6057L78.5519 54.6008L78.6937 41.5764L59.2148 23.8135L88.0934 25.3269Z" fill="#A90009"/>
</g>
<path style="mix-blend-mode:overlay" opacity="0.7" d="M59.2136 23.8134L31.9868 10.1519L64.2957 21.214L88.0923 25.3268L59.2136 23.8134Z" fill="url(#paint16_linear_24_40121)"/>
<path d="M31.9868 10.1519L58.3297 24.4725L88.0923 25.3268L58.5011 23.481L31.9868 10.1519Z" fill="white"/>
<path style="mix-blend-mode:overlay" opacity="0.7" d="M31.0937 28.445L47.5453 18.6119L62.751 15.1884L31.987 10.1519L16.7878 20.4148L31.0937 28.445Z" fill="url(#paint17_linear_24_40121)"/>
<g style="mix-blend-mode:multiply" opacity="0.4">
<path d="M30.7435 44.0071L31.0936 28.445L47.5452 18.6119L29.4516 27.5334L30.7435 44.0071Z" fill="#A90009"/>
</g>
<path style="mix-blend-mode:overlay" opacity="0.7" d="M31.6088 28.1117L69.4464 40.891L77.34 42.5817L92.4064 42.8462L78.4448 41.2744L31.6088 28.1117Z" fill="url(#paint18_linear_24_40121)"/>
<path opacity="0.2" d="M39.7318 87.0172L28.668 57.032L17.6932 33.5783L16.7876 20.4148L16.2453 22.4387L16.9892 33.3897L39.7318 87.0172Z" fill="white"/>
<path style="mix-blend-mode:overlay" d="M30.9302 44.7174L68.3879 53.811L40.0783 86.7799L30.9302 44.7174Z" fill="url(#paint19_linear_24_40121)"/>
<path opacity="0.3" d="M32.4354 10.4136L58.3714 23.965L87.3969 25.2819L62.7508 15.1884L32.4354 10.4136Z" fill="white"/>
<path opacity="0.2" d="M16.7878 20.4148L47.1932 18.5176L34.2988 25.1069L58.3299 24.4725L31.2115 28.005L16.7878 20.4148Z" fill="white"/>
<g style="mix-blend-mode:overlay">
<path d="M44.1101 20.5209C45.289 16.1211 52.8671 14.2377 60.5839 16.5883C68.3007 18.939 73.3082 24.7134 71.9973 29.0778C70.6864 33.4422 63.2403 35.361 55.5235 33.0103C47.8066 30.6597 42.752 25.0612 44.1101 20.5209Z" fill="white"/>
</g>
<g style="mix-blend-mode:overlay">
<path d="M48.0493 11.6264C48.792 8.85459 55.8138 8.51971 63.4834 11.0464C71.1531 13.573 76.7437 17.5231 75.9012 20.3154C75.0587 23.1077 68.1368 23.4221 60.4671 20.8955C52.7974 18.3688 47.1597 14.5947 48.0493 11.6264Z" fill="white"/>
</g>
<g style="mix-blend-mode:overlay">
<path d="M17.2621 23.7485C18.441 19.3488 26.0309 17.4213 33.6919 19.8042C41.3529 22.1871 46.4602 27.9411 45.1493 32.3055C43.8384 36.6699 36.3923 38.5887 28.6754 36.238C20.9586 33.8874 15.86 28.2771 17.2621 23.7485Z" fill="white"/>
</g>
</g>
<defs>
<filter id="filter0_d_24_40121" x="14.9893" y="33.3897" width="74.9106" height="59.6275" filterUnits="userSpaceOnUse" color-interpolation-filters="sRGB">
<feFlood flood-opacity="0" result="BackgroundImageFix"/>
<feColorMatrix in="SourceAlpha" type="matrix" values="0 0 0 0 0 0 0 0 0 0 0 0 0 0 0 0 0 0 127 0" result="hardAlpha"/>
<feOffset dy="4"/>
<feGaussianBlur stdDeviation="1"/>
<feComposite in2="hardAlpha" operator="out"/>
<feColorMatrix type="matrix" values="0 0 0 0 0 0 0 0 0 0 0 0 0 0 0 0 0 0 0.25 0"/>
<feBlend mode="normal" in2="BackgroundImageFix" result="effect1_dropShadow_24_40121"/>
<feBlend mode="normal" in="SourceGraphic" in2="effect1_dropShadow_24_40121" result="shape"/>
</filter>
<linearGradient id="paint0_linear_24_40121" x1="46.723" y1="87.8529" x2="58.2365" y2="14.2617" gradientUnits="userSpaceOnUse">
<stop stop-color="#540021"/>
<stop offset="1" stop-color="#FF3515"/>
</linearGradient>
<linearGradient id="paint1_linear_24_40121" x1="67.5123" y1="59.8953" x2="53.4379" y2="101.158" gradientUnits="userSpaceOnUse">
<stop stop-color="#C85500"/>
<stop offset="1" stop-color="#FFCBBF"/>
</linearGradient>
<linearGradient id="paint2_linear_24_40121" x1="51.1704" y1="44.1518" x2="34.9459" y2="99.5988" gradientUnits="userSpaceOnUse">
<stop stop-color="#FF2C67"/>
<stop offset="1" stop-color="#6A0020"/>
</linearGradient>
<linearGradient id="paint3_linear_24_40121" x1="36.0834" y1="29.3576" x2="40.6694" y2="12.2425" gradientUnits="userSpaceOnUse">
<stop stop-color="#A90009"/>
<stop offset="1" stop-color="white"/>
</linearGradient>
<linearGradient id="paint4_linear_24_40121" x1="50.6423" y1="29.5804" x2="55.1104" y2="12.9053" gradientUnits="userSpaceOnUse">
<stop stop-color="#A90009"/>
<stop offset="1" stop-color="white"/>
</linearGradient>
<linearGradient id="paint5_linear_24_40121" x1="53.1744" y1="39.3129" x2="59.4314" y2="23.353" gradientUnits="userSpaceOnUse">
<stop stop-color="#A90009"/>
<stop offset="1" stop-color="white"/>
</linearGradient>
<linearGradient id="paint6_linear_24_40121" x1="73.2763" y1="42.4355" x2="81.3667" y2="21.9211" gradientUnits="userSpaceOnUse">
<stop stop-color="#A90009"/>
<stop offset="1" stop-color="white"/>
</linearGradient>
<linearGradient id="paint7_linear_24_40121" x1="19.8012" y1="42.254" x2="27.05" y2="23.8248" gradientUnits="userSpaceOnUse">
<stop stop-color="#A90009"/>
<stop offset="1" stop-color="white"/>
</linearGradient>
<linearGradient id="paint8_linear_24_40121" x1="53.0271" y1="50.7796" x2="54.9267" y2="35.0668" gradientUnits="userSpaceOnUse">
<stop stop-color="#A90009"/>
<stop offset="1" stop-color="white"/>
</linearGradient>
<linearGradient id="paint9_linear_24_40121" x1="80.2785" y1="55.0165" x2="81.5145" y2="44.596" gradientUnits="userSpaceOnUse">
<stop stop-color="#A90009"/>
<stop offset="1" stop-color="white"/>
</linearGradient>
<linearGradient id="paint10_linear_24_40121" x1="26.1245" y1="78.8441" x2="30.2531" y2="44.253" gradientUnits="userSpaceOnUse">
<stop stop-color="#A90009"/>
<stop offset="1" stop-color="white"/>
</linearGradient>
<linearGradient id="paint11_linear_24_40121" x1="75.4703" y1="41.9862" x2="59.1325" y2="81.8412" gradientUnits="userSpaceOnUse">
<stop stop-color="#A90009"/>
<stop offset="1" stop-color="white"/>
</linearGradient>
<linearGradient id="paint12_linear_24_40121" x1="49.4979" y1="68.6966" x2="29.171" y2="63.25" gradientUnits="userSpaceOnUse">
<stop stop-color="#A90009"/>
<stop offset="1" stop-color="white"/>
</linearGradient>
<linearGradient id="paint13_linear_24_40121" x1="82.5582" y1="50.2043" x2="41.2446" y2="39.1343" gradientUnits="userSpaceOnUse">
<stop stop-color="#A90009"/>
<stop offset="1" stop-color="white"/>
</linearGradient>
<linearGradient id="paint14_linear_24_40121" x1="14.7317" y1="63.8137" x2="41.1212" y2="39.2428" gradientUnits="userSpaceOnUse">
<stop stop-color="#A90009"/>
<stop offset="1" stop-color="white"/>
</linearGradient>
<linearGradient id="paint15_linear_24_40121" x1="30.538" y1="48.9977" x2="38.9861" y2="26.2685" gradientUnits="userSpaceOnUse">
<stop stop-color="#A90009"/>
<stop offset="1" stop-color="white"/>
</linearGradient>
<linearGradient id="paint16_linear_24_40121" x1="44.2569" y1="10.4688" x2="56.9601" y2="16.5605" gradientUnits="userSpaceOnUse">
<stop stop-color="#A90009"/>
<stop offset="1" stop-color="white"/>
</linearGradient>
<linearGradient id="paint17_linear_24_40121" x1="-3.22859" y1="22.7851" x2="52.2092" y2="17.2209" gradientUnits="userSpaceOnUse">
<stop stop-color="#A90009"/>
<stop offset="1" stop-color="white"/>
</linearGradient>
<linearGradient id="paint18_linear_24_40121" x1="31.4673" y1="28.6397" x2="91.8759" y2="44.8261" gradientUnits="userSpaceOnUse">
<stop stop-color="#A90009"/>
<stop offset="1" stop-color="white"/>
</linearGradient>
<linearGradient id="paint19_linear_24_40121" x1="51.1704" y1="44.1518" x2="34.9459" y2="99.5988" gradientUnits="userSpaceOnUse">
<stop stop-color="#FF2C67"/>
<stop offset="1" stop-color="#6A0020"/>
</linearGradient>
<clipPath id="clip0_24_40121">
<rect width="80.9416" height="85.9976" fill="white" transform="translate(22.2578) rotate(15)"/>
</clipPath>
</defs>
</svg>
