<svg width="108" height="111" viewBox="0 0 108 111" fill="none" xmlns="http://www.w3.org/2000/svg">
<g clip-path="url(#clip0_24_39964)">
<g style="mix-blend-mode:overlay">
<path d="M85.0746 73.9785L87.0087 73.1576C86.3019 73.3967 85.0746 73.9785 85.0746 73.9785Z" fill="#262626"/>
</g>
<path d="M97.3163 55.0819C96.5047 48.115 82.8162 42.6259 80.0621 40.7095C78.145 39.6701 76.4684 38.2384 75.1416 36.5076C73.8148 34.7769 72.8676 32.786 72.3617 30.6648C71.7483 22.3583 73.2886 13.6111 65.2725 11.1418C56.5067 8.4716 52.2666 17.2989 47.6295 23.6093C46.2562 25.7243 44.2617 27.3623 41.92 28.2983C39.5783 29.2342 37.0043 29.4222 34.5514 28.8364C29.7392 28.404 18.319 26.8438 15.2019 33.0794C12.0847 39.315 14.4174 42.4041 17.3855 46.5205C20.4296 50.6699 21.7872 55.8192 21.1845 60.9301C20.6221 63.0292 19.5428 65.2576 17.9048 69.3719C15.3204 76.018 11.8126 80.1134 16.7664 84.8155C19.0281 86.1818 21.7054 86.6901 24.3105 86.2477C32.8482 84.5714 37.9341 79.1848 45.2809 81.1533C51.4782 82.8139 54.0981 88.2298 57.532 93.0067C58.5383 94.6473 59.953 95.9988 61.6378 96.9291C63.3227 97.8594 65.2201 98.3367 67.1446 98.3142C74.689 96.7468 74.1211 89.4703 74.9098 82.1287C76.1273 70.1882 81.5046 69.1114 86.7768 66.8279C92.1524 64.358 98.2618 61.549 97.3163 55.0819Z" fill="#FFCB39"/>
<g opacity="0.7">
<path d="M69.4637 87.2583C67.4336 86.8479 65.5061 86.0352 63.7949 84.8683C62.0836 83.7014 60.6232 82.2039 59.4997 80.4638C58.334 78.2429 56.721 76.2875 54.7622 74.7209C52.8034 73.1542 50.5413 72.0103 48.1185 71.3612C41.1055 68.9464 34.5846 73.0915 26.4324 75.7281C18.2801 78.3647 19.2573 69.5202 18.9254 68.36C16.4652 74.343 13.5642 78.1724 18.1852 82.5175C20.3761 83.8757 22.995 84.3673 25.5294 83.8961C33.8404 82.2662 38.8031 76.7395 45.8697 78.9544C51.967 80.5881 54.4638 85.8639 57.8245 90.514C58.8062 92.1022 60.1823 93.4092 61.819 94.3077C63.4556 95.2062 65.297 95.6656 67.164 95.6413C73.6382 94.2692 73.9752 88.4136 74.4925 82.2849C74.442 83.5973 73.8943 84.8414 72.9605 85.765C72.0267 86.6885 70.7766 87.2224 69.4637 87.2583Z" fill="url(#paint0_linear_24_39964)"/>
</g>
<g style="mix-blend-mode:multiply" opacity="0.3" filter="url(#filter0_d_24_39964)">
<path d="M97.4159 55.1087C96.5044 48.1151 82.9158 42.6528 80.1617 40.7363C78.2446 39.6969 76.568 38.2652 75.2412 36.5345C73.9144 34.8037 72.9672 32.8129 72.4613 30.6916C71.8479 22.3851 73.5882 13.6915 65.3721 11.1686C57.156 8.64573 52.3662 17.3257 47.7292 23.6361C46.3558 25.7512 44.3613 27.3892 42.0196 28.3251C39.6779 29.2611 37.1039 29.449 34.651 28.8632C29.8388 28.4308 18.4186 26.8706 15.3015 33.1062C12.1843 39.3418 14.517 42.4309 17.4351 46.5339C20.5002 50.6798 21.876 55.8352 21.2841 60.9569C20.7217 63.056 19.6424 65.2845 18.0044 69.3987C15.42 76.0449 11.9122 80.1402 16.866 84.8423C19.1277 86.2086 21.805 86.7169 24.4101 86.2745C32.9478 84.5982 37.9837 79.1982 45.3805 81.1802C51.6278 82.8541 54.1977 88.2566 57.6316 93.0335C58.6379 94.6741 60.0526 96.0257 61.7374 96.956C63.4223 97.8863 65.3197 98.3635 67.2442 98.3411C74.7886 96.7736 74.2207 89.4971 75.0094 82.1555C76.2269 70.215 81.6042 69.1382 86.8764 66.8548C92.402 64.425 98.2614 61.549 97.4159 55.1087Z" fill="url(#paint1_linear_24_39964)" style="mix-blend-mode:multiply" shape-rendering="crispEdges"/>
</g>
<path style="mix-blend-mode:screen" opacity="0.5" d="M89.7859 55.7962C88.8261 50.1823 77.5525 45.876 75.2946 44.3068C73.708 43.4988 72.3111 42.363 71.1963 40.9747C70.0816 39.5863 69.2744 37.977 68.8283 36.2533C68.2229 29.7166 69.3408 22.9454 62.6875 20.7877C56.0342 18.63 52.0031 25.4777 48.2176 30.4093C46.8256 31.8207 45.14 32.9084 43.2803 33.5951C41.4207 34.2818 39.4326 34.5507 37.4574 34.3826C31.624 34.9622 24.2808 32.7804 21.4521 37.5398C18.6234 42.2992 31.3384 45.2241 26.7016 59.7302C26.2597 61.3795 25.3644 63.1216 24.0673 66.363C21.9847 71.5366 19.1445 74.7395 23.2728 78.524C25.1591 79.6404 27.3757 80.0639 29.5407 79.7214C36.6281 78.46 40.766 74.2121 46.9133 75.8593C51.3625 77.6902 55.0037 81.0617 57.1708 85.3572C58.056 86.6828 59.255 87.7692 60.6613 88.5198C62.0675 89.2704 63.6374 89.662 65.2314 89.6597C71.4388 88.4839 70.936 82.564 71.4693 76.9752C71.3467 74.121 72.2779 71.3214 74.0855 69.1093C75.8932 66.8971 78.4511 65.4268 81.2725 64.9783C85.6843 63.1071 90.6931 60.8067 89.7859 55.7962Z" fill="url(#paint2_linear_24_39964)"/>
<path style="mix-blend-mode:screen" opacity="0.5" d="M19.7751 38.001C19.7751 38.001 19.0063 31.4742 31.0102 32.6551C38.7918 33.401 44.0869 34.2306 48.2676 30.4227C48.2676 30.4227 45.6773 44.8879 38.7836 45.8263C31.8899 46.7646 21.9431 36.7071 19.7751 38.001Z" fill="url(#paint3_linear_24_39964)"/>
<path style="mix-blend-mode:screen" opacity="0.5" d="M90.3943 56.9235C90.3943 56.9235 94.3735 51.6688 83.0375 46.5958C75.5757 43.2573 70.4253 41.288 68.5587 35.8597C68.5587 35.8597 63.5194 49.6688 69.4201 54.0353C75.3209 58.4019 89.0638 54.6921 90.3943 56.9235Z" fill="url(#paint4_linear_24_39964)"/>
<path d="M51.6727 25.7106C51.6727 25.7106 55.4865 13.8765 63.9328 16.1397C72.3791 18.4029 68.5109 31.2401 68.5109 31.2401C68.5109 31.2401 61.844 20.9366 51.6727 25.7106Z" fill="url(#paint5_linear_24_39964)"/>
<path style="mix-blend-mode:multiply" opacity="0.3" d="M20.4936 78.1007C20.4936 78.1007 22.8306 83.173 31.5434 80.0437C40.2561 76.9145 43.4273 75.6751 48.1974 77.8639C52.9676 80.0527 58.5429 91.8314 65.1606 93.1225C70.3057 93.9119 71.8726 88.0644 71.8726 88.0644C71.8726 88.0644 69.5953 94.3643 62.8387 89.3935C58.3765 86.0552 55.9283 76.4 46.1182 74.6285C36.3081 72.8569 26.2052 81.7738 20.4936 78.1007Z" fill="url(#paint6_linear_24_39964)"/>
<path style="mix-blend-mode:multiply" opacity="0.5" d="M29.6029 80.488C29.6029 80.488 39.9279 72.5413 47.6246 74.6036C55.3213 76.6659 57.7185 87.111 57.7185 87.111C56.464 84.5628 54.6777 82.3132 52.4801 80.5139C50.2825 78.7145 47.7247 77.4073 44.9791 76.6802C39.647 76.8832 34.4135 78.1792 29.6029 80.488Z" fill="url(#paint7_linear_24_39964)"/>
<path style="mix-blend-mode:multiply" opacity="0.5" d="M20.7857 65.2158C20.7857 65.2158 17.2551 74.3939 19.7038 78.0498C20.5177 79.1319 21.6245 79.9582 22.8932 80.431C24.1619 80.9039 25.5396 81.0035 26.8631 80.7181C26.8631 80.7181 18.9787 82.3551 17.5172 78.2138C16.0556 74.0725 20.7857 65.2158 20.7857 65.2158Z" fill="url(#paint8_linear_24_39964)"/>
<path style="mix-blend-mode:multiply" opacity="0.5" d="M74.5123 79.6119C74.5123 79.6119 72.9809 89.3256 68.9824 91.254C67.7353 91.7778 66.3651 91.9367 65.0312 91.712C63.6974 91.4874 62.4548 90.8885 61.4481 89.9851C61.4481 89.9851 67.4576 95.345 70.794 92.4893C74.1304 89.6336 74.5123 79.6119 74.5123 79.6119Z" fill="url(#paint9_linear_24_39964)"/>
<path opacity="0.5" d="M27.2731 55.598C27.2731 55.598 19.1832 70.1967 23.6365 72.5685C28.0898 74.9402 38.5079 64.4472 51.1567 69.8184C63.8055 75.1896 64.5714 84.1262 68.8715 83.6714C73.1715 83.2166 72.6309 81.0362 73.1247 77.7938C73.4826 74.8692 74.2489 72.0092 75.4013 69.2975C76.3172 67.0788 27.2731 55.598 27.2731 55.598Z" fill="url(#paint10_linear_24_39964)"/>
<g style="mix-blend-mode:screen" opacity="0.5">
<path d="M22.8807 71.9909C22.8807 71.9909 24.5843 74.4294 29.7868 71.8059C33.0123 70.2392 36.4587 69.1755 40.0061 68.6518C40.0061 68.6518 36.9914 67.3084 30.2421 70.1066C26.3373 71.6851 23.9133 72.5355 22.8807 71.9909Z" fill="#FFE66F"/>
</g>
<path d="M60.4504 76.9154C62.2486 79.6181 64.6572 81.8599 67.4818 83.4597C70.6804 84.3168 72.0648 83.3486 72.4067 81.6725C72.4067 81.6725 70.8751 83.1905 67.4703 81.9032C65.0256 80.3932 62.6808 78.7271 60.4504 76.9154Z" fill="#FFE66F"/>
<path d="M15.3395 34.5628C17.4013 38.6514 20.164 42.3469 23.5022 45.4813C30.3095 52.662 22.5138 60.9651 21.1533 64.2431C22.5467 58.6846 21.699 52.8011 18.7932 47.8621C13.9449 41.367 13.7266 37.1839 15.3395 34.5628Z" fill="url(#paint11_linear_24_39964)"/>
<path d="M96.0155 55.537C92.1238 57.9339 87.8436 59.6331 83.3676 60.558C73.782 63.3462 74.1916 74.812 73.9306 78.3847C75.6671 73.3466 79.2799 69.1725 84.0168 66.7314C91.4765 63.4807 95.9667 62.9161 96.0155 55.537Z" fill="url(#paint12_linear_24_39964)"/>
<path d="M17.0876 38.8344C18.7155 41.5854 20.6055 44.1728 22.7311 46.5603C25.9464 50.1537 23.2263 58.9061 23.2263 58.9061C23.7885 56.9027 23.9203 54.803 23.6132 52.745C23.306 50.687 22.5668 48.7173 21.4441 46.9654C19.3987 44.6173 17.9096 41.8379 17.0876 38.8344Z" fill="url(#paint13_linear_24_39964)"/>
<path d="M90.7557 58.5737C87.9566 60.1459 85.0088 61.4374 81.9554 62.4294C77.3741 63.9337 75.4036 72.887 75.4036 72.887C75.9029 70.8642 76.8326 68.9729 78.1293 67.3421C79.426 65.7113 81.0591 64.3793 82.9174 63.4371C85.8553 62.4105 88.5313 60.7501 90.7557 58.5737Z" fill="url(#paint14_linear_24_39964)"/>
<path opacity="0.4" d="M52.0793 20.195L51.999 20.4949C51.0019 22.6957 49.5746 24.6746 47.801 26.3153C46.0275 27.956 43.9436 29.2252 41.672 30.0482C37.1859 31.0179 32.5461 31.0339 28.0535 30.0952C33.1011 31.4324 38.4074 31.4525 43.465 30.1536C47.2755 27.7793 50.2784 24.3077 52.0793 20.195Z" fill="#FF8B22"/>
<path opacity="0.4" d="M69.6218 24.8955C69.5844 24.9923 69.5574 25.0928 69.5415 25.1954C69.3054 27.5939 69.5477 30.0155 70.2544 32.3197C70.961 34.624 72.118 36.765 73.6583 38.6188C77.0783 41.7037 81.1042 44.0413 85.4787 45.4822C80.4387 44.1164 75.8333 41.4807 72.1027 37.827C69.99 33.8656 69.1251 29.3576 69.6218 24.8955Z" fill="#FF8B22"/>
<path opacity="0.5" d="M53.9179 29.5262C54.0806 31.403 53.8142 33.2923 53.1388 35.051C52.4634 36.8097 51.3967 38.3916 50.0195 39.677C48.6554 40.708 47.0916 41.4436 45.4276 41.837C43.7636 42.2304 42.0359 42.2729 40.3545 41.9619C37.8083 41.8688 34.6893 38.5155 31.9467 38.1556C29.2041 37.7957 42.2824 40.7643 46.6915 38.3032C49.8365 36.0706 52.3306 33.0413 53.9179 29.5262Z" fill="#FFC000"/>
<path opacity="0.5" d="M35.4773 51.3683L68.3631 60.18C67.5578 61.9737 67.1976 63.9354 67.313 65.8981C67.7367 68.315 68.5976 73.0989 65.9746 73.0924C63.3515 73.0859 62.626 72.1952 60.6128 69.513C58.1805 66.0102 54.5931 63.475 50.4792 62.3517C46.4515 61.4905 42.2643 61.7589 38.3796 63.1271C35.7886 64.2006 32.3372 65.6863 30.847 63.2514C29.3567 60.8166 30.5421 58.9916 32.6816 56.4044C33.7283 54.7921 34.6625 53.1094 35.4773 51.3683Z" fill="url(#paint15_linear_24_39964)"/>
<path d="M33.4926 38.784C33.4926 38.784 44.5434 39.9238 48.65 36.7924C51.1322 34.7879 53.0244 32.1478 54.1252 29.1532C53.9523 30.979 53.3348 32.7347 52.3267 34.2668C51.3185 35.7989 49.9504 37.0607 48.342 37.9419C43.5951 39.7362 38.4119 40.0302 33.4926 38.784Z" fill="#FFB700"/>
<path d="M77.7233 50.6357C77.7233 50.6357 67.5832 46.0974 65.5925 41.3322C64.4162 38.362 64.0967 35.1215 64.6704 31.9788C63.9072 33.6465 63.5641 35.4757 63.6711 37.3066C63.7782 39.1375 64.3321 40.9143 65.2845 42.4817C68.4982 46.409 72.84 49.2552 77.7233 50.6357Z" fill="#FFB700"/>
<path d="M33.6802 46.2801C34.4298 47.5903 34.8534 49.0615 34.9154 50.5697C34.9774 52.0779 34.676 53.5789 34.0364 54.9462C31.7022 58.6597 30.773 60.9283 31.1424 61.3487C31.6227 59.7295 32.532 58.2703 33.7738 57.1256C34.5004 56.4189 35.0763 55.5722 35.4666 54.6368C35.857 53.7013 36.0537 52.6964 36.045 51.6828C36.0362 50.6693 35.8221 49.6679 35.4157 48.7394C35.0093 47.8108 34.4189 46.9742 33.6802 46.2801Z" fill="url(#paint16_linear_24_39964)"/>
<path d="M72.8588 57.7957C71.5607 58.549 70.4627 59.6033 69.6572 60.8697C68.8518 62.1362 68.3625 63.5776 68.2306 65.0727C68.3819 69.5057 68.1024 71.9484 67.5222 72.1144C67.9211 70.4725 67.8632 68.7527 67.3549 67.1414C67.079 66.166 67.0036 65.1449 67.1333 64.1396C67.263 63.1342 67.5951 62.1657 68.1094 61.2922C68.6238 60.4188 69.3099 59.6587 70.1261 59.0577C70.9424 58.4568 71.872 58.0274 72.8588 57.7957Z" fill="url(#paint17_linear_24_39964)"/>
<path d="M39.196 63.0781C42.8938 62.1897 46.7649 62.3374 50.3842 63.5048C54.5516 64.6114 58.2931 66.9384 61.1284 70.1869C58.6006 66.3532 54.8695 63.469 50.5227 61.9885C46.7453 60.9048 42.6975 61.2942 39.196 63.0781Z" fill="#FF7A00"/>
<path opacity="0.5" d="M60.7548 26.0014C59.5553 25.68 55.382 26.0617 55.4674 29.9413C55.5527 33.821 54.0361 36.6822 55.4379 40.6468C56.1117 43.4007 57.3642 45.9797 59.1119 48.212C60.8597 50.4444 63.0628 52.2791 65.5746 53.5941C71.1382 55.6205 82.3071 52.7209 75.6815 49.66C69.0559 46.5991 67.0166 46.2133 65.5256 41.5821C64.6097 37.2683 63.9913 32.8966 63.6748 28.498C63.583 27.2414 60.7548 26.0014 60.7548 26.0014Z" fill="#FFC000"/>
<path d="M55.6166 27.7851C56.3714 27.0216 57.2979 26.4499 58.3189 26.1177C59.3398 25.7855 60.4254 25.7025 61.4849 25.8757C64.5836 26.7059 63.9773 29.1683 63.9773 29.1683C63.1441 28.0216 61.9598 27.1777 60.6039 26.7645C58.8745 26.5463 57.1213 26.9051 55.6166 27.7851Z" fill="#FFC000"/>
<path opacity="0.5" d="M53.527 30.3856C52.2541 33.4641 49.9831 36.0251 47.079 37.6571C44.7209 38.5854 42.1979 39.0213 39.665 38.9381C42.5017 38.7663 45.2518 37.8955 47.6704 36.4033C50.089 34.9111 52.101 32.8438 53.527 30.3856Z" fill="white"/>
<path opacity="0.5" d="M64.3723 33.2916C63.9071 36.5845 64.5766 39.9377 66.2707 42.7995C67.8569 44.7744 69.8223 46.412 72.051 47.6159C69.6849 46.051 67.7445 43.9228 66.4043 41.4226C65.064 38.9224 64.3658 36.1284 64.3723 33.2916Z" fill="white"/>
<path d="M56.9508 26.8035C57.5262 26.2283 58.2566 25.833 59.0528 25.6659C59.849 25.4988 60.6766 25.567 61.4348 25.8623C64.5334 26.6926 63.9416 28.3017 63.9416 28.3017C63.9589 27.5847 63.7233 26.8845 63.276 26.3239C62.8288 25.7633 62.1984 25.3781 61.4955 25.2357C60.6676 25.1098 59.8216 25.1867 59.03 25.4597C58.2384 25.7328 57.5249 26.1939 56.9508 26.8035Z" fill="white"/>
<path d="M35.7484 64.3505C38.0556 63.2157 40.5698 62.5626 43.1376 62.431C45.7055 62.2994 48.2732 62.6921 50.6843 63.5852C60.68 66.2635 62.0896 71.9979 62.0896 71.9979C58.8183 68.436 54.6327 65.8397 49.9883 64.4913C45.3438 63.1429 40.4186 63.0943 35.7484 64.3505Z" fill="#FFDB43"/>
<path d="M34.965 50.4812C35.0909 52.1446 34.647 53.8015 33.7062 55.1791C32.0325 58.4268 29.9152 61.9305 31.0432 63.5183C32.1711 65.1062 32.9048 64.7671 32.9048 64.7671C32.9048 64.7671 29.6383 64.9632 29.3939 63.0764C28.7365 58.1328 34.7443 53.9038 34.965 50.4812Z" fill="#FFDB43"/>
<path d="M69.4349 61.3779C69.4349 61.3779 68.3406 62.2631 68.31 65.576C68.2793 68.889 68.3817 72.5054 66.6511 73.1665C64.9205 73.8277 64.4412 73.2172 64.4412 73.2172C64.4412 73.2172 67.1855 74.9703 68.3503 73.6219C71.2209 70.1057 68.0084 64.1025 69.4349 61.3779Z" fill="#FFDB43"/>
</g>
<defs>
<filter id="filter0_d_24_39964" x="11.8206" y="10.7208" width="87.6772" height="93.621" filterUnits="userSpaceOnUse" color-interpolation-filters="sRGB">
<feFlood flood-opacity="0" result="BackgroundImageFix"/>
<feColorMatrix in="SourceAlpha" type="matrix" values="0 0 0 0 0 0 0 0 0 0 0 0 0 0 0 0 0 0 127 0" result="hardAlpha"/>
<feOffset dy="4"/>
<feGaussianBlur stdDeviation="1"/>
<feComposite in2="hardAlpha" operator="out"/>
<feColorMatrix type="matrix" values="0 0 0 0 0 0 0 0 0 0 0 0 0 0 0 0 0 0 0.5 0"/>
<feBlend mode="normal" in2="BackgroundImageFix" result="effect1_dropShadow_24_39964"/>
<feBlend mode="normal" in="SourceGraphic" in2="effect1_dropShadow_24_39964" result="shape"/>
</filter>
<linearGradient id="paint0_linear_24_39964" x1="48.3713" y1="69.0185" x2="40.0952" y2="99.9051" gradientUnits="userSpaceOnUse">
<stop stop-color="#CA4E06"/>
<stop offset="1" stop-color="#EC7D17"/>
</linearGradient>
<linearGradient id="paint1_linear_24_39964" x1="41.8028" y1="99.1305" x2="61.6492" y2="25.0626" gradientUnits="userSpaceOnUse">
<stop stop-color="#FE9000"/>
<stop offset="0.39" stop-color="#FA6D00"/>
<stop offset="1" stop-color="#FFCB39"/>
</linearGradient>
<linearGradient id="paint2_linear_24_39964" x1="59.3726" y1="33.5589" x2="49.9449" y2="68.7437" gradientUnits="userSpaceOnUse">
<stop stop-color="#FEE45B"/>
<stop offset="0.97" stop-color="#FFCB39"/>
</linearGradient>
<linearGradient id="paint3_linear_24_39964" x1="34.0214" y1="34.2119" x2="34.2509" y2="42.9512" gradientUnits="userSpaceOnUse">
<stop stop-color="white"/>
<stop offset="0.97" stop-color="#FFCB39"/>
</linearGradient>
<linearGradient id="paint4_linear_24_39964" x1="79.3613" y1="46.5214" x2="74.8197" y2="53.8752" gradientUnits="userSpaceOnUse">
<stop stop-color="white"/>
<stop offset="0.97" stop-color="#FFCB39"/>
</linearGradient>
<linearGradient id="paint5_linear_24_39964" x1="60.276" y1="19.3916" x2="60.5385" y2="28.4076" gradientUnits="userSpaceOnUse">
<stop stop-color="white"/>
<stop offset="0.97" stop-color="#FFCB39"/>
</linearGradient>
<linearGradient id="paint6_linear_24_39964" x1="43.7445" y1="91.8837" x2="47.7352" y2="76.9901" gradientUnits="userSpaceOnUse">
<stop stop-color="#FFD42C"/>
<stop offset="1" stop-color="#FF6A00"/>
</linearGradient>
<linearGradient id="paint7_linear_24_39964" x1="46.2118" y1="74.2786" x2="43.5469" y2="84.2243" gradientUnits="userSpaceOnUse">
<stop stop-color="#E87400"/>
<stop offset="0.63" stop-color="#FFDC3D"/>
</linearGradient>
<linearGradient id="paint8_linear_24_39964" x1="23.6258" y1="73.2084" x2="15.9183" y2="82.9814" gradientUnits="userSpaceOnUse">
<stop stop-color="#E87400"/>
<stop offset="0.63" stop-color="#FFDC3D"/>
</linearGradient>
<linearGradient id="paint9_linear_24_39964" x1="68.0565" y1="85.1135" x2="69.8449" y2="97.431" gradientUnits="userSpaceOnUse">
<stop stop-color="#E87400"/>
<stop offset="0.63" stop-color="#FFDC3D"/>
</linearGradient>
<linearGradient id="paint10_linear_24_39964" x1="50.97" y1="61.5191" x2="48.9612" y2="69.0158" gradientUnits="userSpaceOnUse">
<stop stop-color="#FFD42C"/>
<stop offset="1" stop-color="#FFDC5C"/>
</linearGradient>
<linearGradient id="paint11_linear_24_39964" x1="21.5784" y1="40.4662" x2="17.1592" y2="56.9591" gradientUnits="userSpaceOnUse">
<stop stop-color="#FE9000"/>
<stop offset="0.97" stop-color="#FFCB39"/>
</linearGradient>
<linearGradient id="paint12_linear_24_39964" x1="87.1342" y1="57.4961" x2="82.6078" y2="74.3888" gradientUnits="userSpaceOnUse">
<stop stop-color="#FE9000"/>
<stop offset="0.97" stop-color="#FFCB39"/>
</linearGradient>
<linearGradient id="paint13_linear_24_39964" x1="22.2478" y1="40.967" x2="18.1902" y2="56.1104" gradientUnits="userSpaceOnUse">
<stop stop-color="#FE9000"/>
<stop offset="0.39" stop-color="#FA6D00"/>
<stop offset="1" stop-color="#FFCB39"/>
</linearGradient>
<linearGradient id="paint14_linear_24_39964" x1="85.1706" y1="57.8271" x2="81.1129" y2="72.9705" gradientUnits="userSpaceOnUse">
<stop stop-color="#FE9000"/>
<stop offset="0.39" stop-color="#FA6D00"/>
<stop offset="1" stop-color="#FFCB39"/>
</linearGradient>
<linearGradient id="paint15_linear_24_39964" x1="48.1983" y1="68.8649" x2="51.6801" y2="55.8706" gradientUnits="userSpaceOnUse">
<stop stop-color="#FF7800"/>
<stop offset="0.05" stop-color="#FF7E03"/>
<stop offset="0.29" stop-color="#FF9B0E"/>
<stop offset="0.53" stop-color="#FFAF16"/>
<stop offset="0.76" stop-color="#FFBB1B"/>
<stop offset="1" stop-color="#FFBF1D"/>
</linearGradient>
<linearGradient id="paint16_linear_24_39964" x1="31.6422" y1="61.4826" x2="35.5794" y2="46.789" gradientUnits="userSpaceOnUse">
<stop stop-color="#FF4D00"/>
<stop offset="0.07" stop-color="#FF5600"/>
<stop offset="0.3" stop-color="#FF7300"/>
<stop offset="0.54" stop-color="#FF8700"/>
<stop offset="0.77" stop-color="#FF9300"/>
<stop offset="1" stop-color="#FF9700"/>
</linearGradient>
<linearGradient id="paint17_linear_24_39964" x1="67.0224" y1="71.9804" x2="70.9596" y2="57.2868" gradientUnits="userSpaceOnUse">
<stop stop-color="#FF4D00"/>
<stop offset="0.07" stop-color="#FF5600"/>
<stop offset="0.3" stop-color="#FF7300"/>
<stop offset="0.54" stop-color="#FF8700"/>
<stop offset="0.77" stop-color="#FF9300"/>
<stop offset="1" stop-color="#FF9700"/>
</linearGradient>
<clipPath id="clip0_24_39964">
<rect width="86.3047" height="91.5305" fill="white" transform="translate(23.6899) rotate(15)"/>
</clipPath>
</defs>
</svg>
