<svg width="50" height="53" viewBox="0 0 50 53" fill="none" xmlns="http://www.w3.org/2000/svg">
<g style="mix-blend-mode:multiply" opacity="0.5">
<path d="M49.0053 27.9885C49.0179 27.8361 49.0179 27.6829 49.0053 27.5305C49.0053 27.098 49.0053 26.6909 48.8781 26.2583C48.6249 23.9696 48.0864 21.7216 47.2751 19.5666C47.097 19.1594 46.9443 18.7269 46.7662 18.3198C45.5352 15.5699 43.7308 13.1149 41.4738 11.1191C40.9412 10.6526 40.3804 10.2192 39.7945 9.82147C36.4776 7.58335 32.5487 6.4278 28.5482 6.51375H20.5334C16.2864 6.42012 12.1263 7.72387 8.69238 10.2246C5.25848 12.7253 2.74091 16.2846 1.52664 20.3553C1.37398 20.7624 1.24676 21.195 1.11954 21.6275L0.788766 22.8997C0.788766 23.3068 0.610658 23.7394 0.534325 24.1719C0.263532 25.4723 0.0849786 26.7902 1.86511e-08 28.1158C1.86511e-08 28.6501 1.86511e-08 29.2099 1.86511e-08 29.7442C-6.66984e-05 31.6144 0.178857 33.4803 0.534325 35.3164C0.534325 35.749 0.712434 36.1561 0.81421 36.5886C0.915987 37.0212 1.14498 37.8354 1.32309 38.4461L1.78109 39.7437C3.06933 43.6738 5.58837 47.0848 8.96555 49.4722C12.3427 51.8596 16.3987 53.0965 20.5334 53.0001H28.5482C31.2056 53.0793 33.8496 52.5942 36.3057 51.5767C38.7618 50.5592 40.9742 49.0324 42.7969 47.097C43.1739 46.6997 43.5306 46.2836 43.8656 45.8503C45.8514 43.2865 47.2891 40.3419 48.0893 37.1993C48.0893 36.7922 48.3183 36.3596 48.3946 35.9271C48.8422 33.8968 49.0641 31.8232 49.0562 29.7442C49.0562 29.2099 49.0307 28.6501 49.0053 27.9885ZM39.362 35.9525C39.2348 36.3596 39.0821 36.7922 38.904 37.2247C38.1648 39.3605 36.7599 41.2027 34.8958 42.4805C33.0317 43.7583 30.8068 44.4044 28.5482 44.3236H20.5334C18.864 44.4097 17.1992 44.0833 15.686 43.3733C14.1727 42.6633 12.8576 41.5915 11.8569 40.2526C11.5364 39.8335 11.2472 39.3912 10.9918 38.9295C10.5683 38.1818 10.2107 37.3985 9.92319 36.5886C9.75671 36.175 9.62064 35.7498 9.51608 35.3164C8.99878 33.4686 8.72506 31.5611 8.70187 29.6424C8.67467 29.0999 8.67467 28.5565 8.70187 28.014C8.80162 26.7944 9.00592 25.5856 9.31253 24.4009C9.31253 23.9938 9.54153 23.5867 9.69419 23.1542C9.86422 22.6077 10.0682 22.0723 10.3048 21.5512C10.5084 21.1186 10.712 20.7115 10.9664 20.279C11.9062 18.5969 13.3041 17.2162 14.9977 16.2974C16.6913 15.3785 18.6109 14.9593 20.5334 15.0884H28.5482C30.1221 15.0094 31.6928 15.2969 33.1367 15.9283C34.5805 16.5596 35.858 17.5177 36.8685 18.7269C37.1961 19.1256 37.5019 19.5418 37.7844 19.9737C38.9455 21.9267 39.7147 24.0873 40.049 26.3347C40.049 26.7927 40.2016 27.2252 40.2271 27.6069C40.2396 27.7763 40.2396 27.9464 40.2271 28.1158C40.2271 28.9045 40.2271 29.4897 40.2271 29.7442C40.2405 31.878 39.9492 34.0028 39.362 36.0543V35.9525Z" fill="#0D0C0E"/>
</g>
<path d="M49.0053 24.8588C49.0188 24.7149 49.0188 24.5701 49.0053 24.4262C49.0053 23.9937 49.0053 23.5611 48.8781 23.154C48.6278 20.8648 48.0892 18.6164 47.2751 16.4622C47.1224 16.0297 46.9443 15.6226 46.7662 15.2155C45.5606 12.4217 43.7536 9.9283 41.4738 7.91301C40.9481 7.43048 40.3867 6.9882 39.7945 6.58992C36.4776 4.35179 32.5487 3.19624 28.5482 3.28219H20.5334C16.2724 3.19054 12.1002 4.50729 8.66371 7.02827C5.22726 9.54926 2.71857 13.1336 1.52664 17.2255C1.52664 17.6581 1.24676 18.0906 1.11954 18.4977C0.992319 18.9049 0.890543 19.3374 0.788766 19.7445C0.68699 20.1516 0.610658 20.5842 0.534325 21.0167C0.267057 22.292 0.0885207 23.5842 0 24.8842C0 25.444 0 25.9783 0 26.5381C-3.73912e-06 28.3999 0.178927 30.2573 0.534325 32.0849C0.534325 32.5174 0.712434 32.95 0.81421 33.3571C0.915987 33.7642 1.11954 34.6293 1.32309 35.2399L1.78109 36.5376C2.63143 38.8273 3.8426 40.9661 5.3687 42.8732C5.67403 43.2548 6.0048 43.611 6.33557 43.9673C8.16225 45.8784 10.3699 47.3846 12.8157 48.3883C15.2615 49.3921 17.8908 49.8709 20.5334 49.794H28.5482C31.2115 49.872 33.861 49.3839 36.3217 48.3619C38.7823 47.3399 40.998 45.8074 42.8224 43.8655C43.1786 43.4838 43.5348 43.0513 43.8656 42.6442C45.8465 40.0773 47.2836 37.1338 48.0893 33.9932C48.2165 33.5606 48.3183 33.1281 48.3946 32.721C48.8422 30.6907 49.0641 28.6171 49.0562 26.5381C49.0562 25.9783 49.0307 25.444 49.0053 24.8588ZM20.5334 41.1939C19.3031 41.2169 18.0764 41.0539 16.8949 40.7104C14.8622 40.1099 13.0775 38.8696 11.806 37.1737C11.4853 36.7458 11.1961 36.2951 10.941 35.8252C10.5177 35.0861 10.1601 34.3113 9.8723 33.5097C9.70531 33.0851 9.56093 32.652 9.43975 32.2121C8.93956 30.3701 8.67453 28.4721 8.65098 26.5635C8.65098 26.3091 8.65098 25.7239 8.65098 24.9097C8.75302 23.6987 8.9573 22.4986 9.26164 21.322C9.36549 20.8997 9.49291 20.4834 9.6433 20.0753C9.82989 19.5325 10.0334 18.9981 10.254 18.4723C10.449 18.0355 10.67 17.6107 10.9155 17.2001C11.8381 15.4815 13.2351 14.0641 14.9402 13.1168C16.6453 12.1695 18.5868 11.7322 20.5334 11.8568H28.5482C30.1242 11.7809 31.6962 12.0723 33.1402 12.7082C34.5842 13.3441 35.8605 14.3069 36.8685 15.5208C37.2021 15.9148 37.5082 16.3314 37.7844 16.7675C38.9448 18.7117 39.714 20.8639 40.049 23.1031C40.1423 23.5303 40.2019 23.9642 40.2271 24.4008C40.2395 24.5617 40.2395 24.7233 40.2271 24.8842C40.2271 25.6984 40.2271 26.2836 40.2271 26.5381C40.1917 28.671 39.8489 30.7877 39.2093 32.8228C39.0834 33.256 38.9304 33.6809 38.7513 34.095C38.0191 36.2352 36.6159 38.082 34.7502 39.361C32.8845 40.64 30.6558 41.2828 28.3956 41.1939H20.5334Z" fill="#9E4000"/>
<path d="M48.3436 16.6404C48.3436 16.2078 48.1146 15.7753 47.9874 15.3682C47.2653 12.7691 46.1129 10.3094 44.5779 8.09118C44.2726 7.63319 43.9163 7.20064 43.5856 6.79354C41.7656 4.58648 39.4636 2.82636 36.8566 1.64859C34.2497 0.47083 31.4073 -0.0931774 28.5481 -3.11835e-05H20.5332C17.8031 -0.0304257 15.0947 0.488756 12.5692 1.52661C11.749 1.86784 10.9503 2.25871 10.1775 2.69704C7.66079 4.37184 5.51516 6.54604 3.87379 9.08469C2.23243 11.6233 1.13035 14.4723 0.635976 17.4546C0.635976 17.8872 0.457868 18.3197 0.381535 18.7522C0.305203 19.1848 0.381535 19.5665 0.203427 19.999C0.0253184 20.4316 0.203427 20.8387 0.203427 21.2712C0.203427 21.7038 0.203427 22.7979 0.203427 23.5612C0.203427 24.3245 0.203427 24.6553 0.203427 25.215C0.338135 27.6949 0.782619 30.1481 1.52652 32.5175L1.98451 33.8151C2.23895 34.4767 2.51884 35.1382 2.82417 35.7743L3.51116 37.0974C5.15651 40.2001 7.6368 42.7807 10.6718 44.5477C13.7068 46.3147 17.1754 47.1977 20.6859 47.0969H28.7008C32.3722 47.164 35.9881 46.1939 39.1329 44.2981C39.7297 43.9202 40.3071 43.5126 40.8631 43.0768C43.6484 40.7801 45.8026 37.8115 47.1223 34.4512C47.3057 34.0273 47.467 33.5942 47.6057 33.1536C48.5023 30.5871 49.0251 27.905 49.1578 25.1896C49.1704 25.0372 49.1704 24.884 49.1578 24.7316C49.1578 24.3245 49.1578 23.9428 49.1578 23.5612C49.1494 21.2309 48.8763 18.909 48.3436 16.6404ZM40.2778 25.215C39.9044 27.6508 38.9726 29.9672 37.5553 31.9832C37.2754 32.4157 36.3595 33.5861 36.0287 33.9932C35.1987 35.1796 34.0692 36.1248 32.7552 36.7326C31.4412 37.3405 29.9896 37.5892 28.5481 37.4536H20.5332C19.361 37.3634 18.2103 37.0886 17.1237 36.6394C16.2778 36.4774 15.4784 36.1298 14.7829 35.6217L13.6633 35.0619C12.671 34.3495 12.2385 34.9092 11.6024 33.9424C11.3008 33.5345 11.0368 33.1002 10.8136 32.6447C9.6577 30.3334 8.96614 27.8179 8.77808 25.2405C8.77808 24.4263 8.77808 23.8411 8.77808 23.5866C8.74234 22.9171 8.74234 22.2461 8.77808 21.5765C8.77808 21.1949 8.77808 20.7623 8.95619 20.3043C9.1343 19.8463 9.1343 19.2611 9.26152 18.7268C9.38874 18.1925 9.46507 17.8617 9.59229 17.4292C10.109 14.9254 11.4862 12.6816 13.4848 11.0873C15.4834 9.49308 17.9772 8.64908 20.5332 8.70184H28.5481C30.7607 8.63687 32.937 9.27393 34.7653 10.5217C36.5935 11.7695 37.9799 13.564 38.7257 15.6481C38.9039 16.0806 39.082 16.5132 39.2092 16.9203C39.8799 19.0202 40.2483 21.2048 40.3033 23.4085V23.5612C40.3033 23.7393 40.3033 24.1464 40.3033 24.7062C40.3061 24.8762 40.2976 25.0462 40.2778 25.215Z" fill="url(#paint0_linear_343_77191)"/>
<g opacity="0.5">
<path d="M28.5484 45.494H20.5336C6.71743 45.494 0.178302 33.7898 0.0256373 22.5944C0.0129386 22.8317 0.0129386 23.0695 0.0256373 23.3068C0.0256373 34.6549 6.43754 46.868 20.559 46.868H28.5739C42.6699 46.868 49.0818 34.6549 49.0818 23.3068C49.0945 23.0695 49.0945 22.8317 49.0818 22.5944C48.7765 33.7898 42.3391 45.494 28.5484 45.494Z" fill="url(#paint1_linear_343_77191)"/>
</g>
<g style="mix-blend-mode:multiply" opacity="0.4">
<path d="M48.3434 16.4368H47.3257L39.3617 16.6913H37.8605C3.28197 17.6327 36.3847 18.167 10.4572 18.3706H9.28677H1.11923H0.381348C0.381348 17.938 0.534012 17.5055 0.635788 17.0984H1.52633H9.61755H11.0424C37.1226 16.9712 2.54409 16.4368 36.8681 15.5209H38.8019L46.7404 15.2664H47.9109C48.0381 15.5717 48.1399 16.0043 48.3434 16.4368Z" fill="#C97B3A"/>
<path d="M49.0562 23.1541C49.0562 23.5358 49.0562 23.9175 49.0562 24.3246H40.2271C6.46279 24.0956 36.1051 22.1364 9.38886 21.2967H8.80365L0.534325 21.0168H0C0 20.6097 0 20.1772 0 19.7701H0.788766L8.98176 20.05H9.77052C36.6395 20.8642 6.4119 22.8997 40.049 23.1287H49.0562V23.1541Z" fill="#C97B3A"/>
<path d="M48.3436 32.7212C48.3436 33.1283 48.14 33.5608 48.0383 33.9934H46.9187H38.853H36.9446C30.9144 33.9934 47.1223 33.9934 46.9187 33.9934C31.6523 33.9934 33.7641 33.5608 11.5515 33.3064H9.92304H1.83183H0.814064L0.53418 32.0342H1.37383H9.51594H10.8136C37.5299 32.3395 3.18036 32.9502 37.8861 32.6703H39.3618H47.453L48.3436 32.7212Z" fill="#C97B3A"/>
</g>
<g style="mix-blend-mode:overlay" opacity="0.5">
<path d="M39.6928 16.8948L48.242 16.6404L48.5219 18.0144L39.5911 17.5309L39.6928 16.8948Z" fill="#FFDE55"/>
</g>
<g style="mix-blend-mode:overlay" opacity="0.5">
<path d="M40.9655 24.7061H48.9804C48.9395 26.7406 48.6664 28.7638 48.1662 30.7364C48.1662 30.7364 48.7005 26.4872 46.9958 25.8765C44.4767 25.4272 41.9212 25.2142 39.3625 25.2404L40.9655 24.7061Z" fill="#FFDE55"/>
</g>
<g style="mix-blend-mode:overlay" opacity="0.5">
<path d="M36.0793 34.5021H48.0889L47.8599 35.3672C45.6197 35.1389 43.369 35.0285 41.1172 35.0365C35.0615 34.8838 30.1763 34.8584 30.1763 34.8584L36.0793 34.5021Z" fill="#FFDE55"/>
</g>
<g style="mix-blend-mode:multiply" opacity="0.7">
<path d="M29.4642 39.9217H20.1262C8.49825 39.9217 8.16748 26.4109 8.16748 24.8588C8.16748 23.3067 8.49825 9.82135 20.1262 9.82135H29.4642C41.1175 9.82135 41.4483 23.3322 41.4483 24.8588C41.4483 26.3854 41.1175 39.9217 29.4642 39.9217Z" fill="#9E4000"/>
</g>
<path d="M29.4642 37.4537H20.1262C8.49825 37.4537 8.16748 23.9429 8.16748 22.3908C8.16748 20.8388 8.49825 7.35339 20.1262 7.35339H29.4642C41.1175 7.35339 41.4483 20.8642 41.4483 22.3908C41.4483 23.9175 41.1175 37.4537 29.4642 37.4537Z" fill="url(#paint2_linear_343_77191)"/>
<g style="mix-blend-mode:multiply" opacity="0.2">
<path d="M39.693 21.3729C39.5403 23.5611 38.5989 30.1002 33.8917 32.3648C31.1152 33.5218 28.1338 34.1069 25.126 34.0851C22.1181 34.0632 19.1456 33.4348 16.3862 32.2375C11.45 29.6677 10.3305 23.5611 10.1778 21.3729C10.1778 21.9327 8.95652 35.9524 20.9407 35.9524H28.9301C40.9143 35.9524 39.7184 21.9327 39.693 21.3729Z" fill="#1B8943"/>
</g>
<g style="mix-blend-mode:overlay" opacity="0.6">
<path d="M10.1778 21.4494C10.3305 19.5411 10.6104 13.4854 15.2666 11.5262C18.3108 10.5805 21.4971 10.1758 24.681 10.3303C27.9645 10.1667 31.2502 10.6065 34.3751 11.628C39.2859 13.867 39.464 19.5411 39.6166 21.4494C39.6166 20.9659 40.8379 8.72733 28.8538 8.72733H20.9407C8.95652 8.70189 10.1778 20.9659 10.1778 21.4494Z" fill="white"/>
</g>
<g style="mix-blend-mode:overlay" opacity="0.6">
<path d="M25.8516 4.50366C33.9174 4.50366 37.0725 7.04807 37.0979 10.254C37.1234 13.46 33.9683 16.2334 25.928 16.2843C17.8876 16.3352 11.3485 13.7399 11.3231 10.483C11.2976 7.22618 17.8113 4.55455 25.8516 4.50366Z" fill="white"/>
</g>
<g style="mix-blend-mode:multiply" opacity="0.6">
<path d="M25.7495 30.0749C33.5609 30.0749 35.9272 31.7796 35.9272 34.0442C35.9272 36.3087 33.51 38.2424 25.7495 38.2933C17.9891 38.3442 11.5518 36.5377 11.5518 34.2477C11.5518 31.9578 17.811 30.1258 25.7495 30.0749Z" fill="#AD0571"/>
</g>
<g style="mix-blend-mode:multiply" opacity="0.5">
<path d="M32.3388 17.989L28.8784 14.5032L24.5021 18.8796L20.1257 14.5032L16.6653 17.989L21.0417 22.3399L16.6653 26.7163L20.1257 30.1767L24.5021 25.8258L28.8784 30.1767L32.3388 26.7163L27.9625 22.3399L32.3388 17.989Z" fill="#8E0055"/>
</g>
<path d="M32.3388 16.5894L28.8784 13.1036L24.5021 17.48L20.1257 13.1036L16.6653 16.5894L21.0417 20.9403L16.6653 25.3167L20.1257 28.7771L24.5021 24.4262L28.8784 28.7771L32.3388 25.3167L27.9625 20.9403L32.3388 16.5894Z" fill="white"/>
<defs>
<linearGradient id="paint0_linear_343_77191" x1="24.528" y1="-0.381692" x2="24.528" y2="45.1123" gradientUnits="userSpaceOnUse">
<stop stop-color="#F0CA57"/>
<stop offset="1" stop-color="#D45B1A"/>
</linearGradient>
<linearGradient id="paint1_linear_343_77191" x1="0.967068" y1="34.8075" x2="45.596" y2="34.8075" gradientUnits="userSpaceOnUse">
<stop stop-color="#F0CA57"/>
<stop offset="0.5" stop-color="#F7C850"/>
<stop offset="1" stop-color="#FEC649"/>
</linearGradient>
<linearGradient id="paint2_linear_343_77191" x1="24.8079" y1="6.71729" x2="24.8079" y2="36.0543" gradientUnits="userSpaceOnUse">
<stop offset="0.12" stop-color="#F16666"/>
<stop offset="0.85" stop-color="#E91B1B"/>
<stop offset="1" stop-color="#ED4242"/>
</linearGradient>
</defs>
</svg>
