<svg width="27" height="38" viewBox="0 0 27 38" fill="none" xmlns="http://www.w3.org/2000/svg">
<path d="M26.5731 10.6621C26.4743 10.4369 26.252 10.2913 26.0063 10.2913H16.5659L19.7409 0.815032C19.8043 0.626081 19.7726 0.418778 19.6566 0.256939C19.5403 0.095518 19.3534 0 19.154 0H7.37861C7.11249 0 6.87641 0.170181 6.79173 0.422115L0.0775241 20.4613C0.0141235 20.6502 0.0458236 20.8576 0.16178 21.0194C0.278154 21.1808 0.465019 21.2767 0.66398 21.2767H6.59527L1.4202 36.7244C1.3276 37.0014 1.44064 37.305 1.69174 37.4535C1.78976 37.5115 1.89862 37.5398 2.00665 37.5398C2.17475 37.5398 2.34118 37.4714 2.46172 37.3409L26.4614 11.3299C26.6282 11.1493 26.672 10.8874 26.5731 10.6621Z" fill="white"/>
</svg>
