<svg width="69" height="73" viewBox="0 0 69 73" fill="none" xmlns="http://www.w3.org/2000/svg">
<g clip-path="url(#clip0_269_67319)">
<g style="mix-blend-mode:multiply" opacity="0.5">
<path d="M68.242 38.5502C68.2594 38.3403 68.2594 38.1293 68.242 37.9194C68.242 37.3236 68.242 36.7629 68.0667 36.1671C67.7181 33.0147 66.9763 29.9184 65.8589 26.9501C65.6136 26.3894 65.4033 25.7936 65.158 25.2329C63.4625 21.4453 60.9772 18.0639 57.8685 15.315C57.1348 14.6724 56.3624 14.0755 55.5555 13.5277C50.9869 10.445 45.5754 8.85335 40.0653 8.97173H29.0259C23.1764 8.84278 17.4464 10.6385 12.7167 14.0829C7.98696 17.5273 4.51936 22.4297 2.84688 28.0365C2.6366 28.5973 2.46138 29.193 2.28615 29.7888L1.83055 31.5411C1.83055 32.1018 1.58524 32.6976 1.4801 33.2934C1.10712 35.0845 0.861187 36.8997 0.744141 38.7255C0.744141 39.4614 0.744141 40.2324 0.744141 40.9684C0.744049 43.5443 0.990491 46.1144 1.4801 48.6434C1.4801 49.2391 1.72542 49.7999 1.8656 50.3956C2.00578 50.9914 2.32119 52.1129 2.56651 52.954L3.19733 54.7413C4.97171 60.1544 8.44133 64.8526 13.0929 68.1409C17.7445 71.4292 23.331 73.1329 29.0259 73.0001H40.0653C43.7254 73.1092 47.3671 72.441 50.7501 71.0395C54.133 69.638 57.1803 67.5351 59.6908 64.8695C60.2101 64.3222 60.7013 63.749 61.1628 63.1522C63.898 59.621 65.8781 55.5652 66.9803 51.2367C66.9803 50.676 67.2958 50.0802 67.4009 49.4845C68.0174 46.688 68.323 43.832 68.3121 40.9684C68.3121 40.2324 68.277 39.4614 68.242 38.5502ZM54.9597 49.5195C54.7845 50.0802 54.5742 50.676 54.3289 51.2718C53.3107 54.2134 51.3757 56.7508 48.8082 58.5108C46.2406 60.2709 43.1762 61.1607 40.0653 61.0495H29.0259C26.7267 61.1681 24.4336 60.7185 22.3493 59.7406C20.2651 58.7626 18.4537 57.2863 17.0754 55.4422C16.6339 54.8649 16.2356 54.2558 15.8838 53.6198C15.3004 52.5899 14.8079 51.5111 14.4119 50.3956C14.1826 49.826 13.9952 49.2403 13.8512 48.6434C13.1387 46.0982 12.7617 43.471 12.7297 40.8282C12.6923 40.081 12.6923 39.3324 12.7297 38.5853C12.8671 36.9054 13.1485 35.2405 13.5708 33.6088C13.5708 33.0481 13.8862 32.4873 14.0965 31.8916C14.3307 31.1388 14.6116 30.4014 14.9376 29.6837C15.218 29.0879 15.4983 28.5272 15.8488 27.9314C17.1432 25.6146 19.0687 23.7129 21.4014 22.4473C23.734 21.1817 26.378 20.6042 29.0259 20.7821H40.0653C42.2331 20.6732 44.3965 21.0692 46.3852 21.9389C48.3739 22.8085 50.1334 24.1281 51.5252 25.7936C51.9766 26.3428 52.3977 26.916 52.7869 27.5109C54.3861 30.2009 55.4455 33.1768 55.9059 36.2723C55.9059 36.9031 56.1162 37.4989 56.1512 38.0245C56.1684 38.2579 56.1684 38.4921 56.1512 38.7255C56.1512 39.8119 56.1512 40.6179 56.1512 40.9684C56.1698 43.9074 55.7685 46.8341 54.9597 49.6597V49.5195Z" fill="#201D24"/>
</g>
<path d="M68.242 34.2394C68.2606 34.0413 68.2606 33.8418 68.242 33.6437C68.242 33.0479 68.242 32.4521 68.0667 31.8914C67.7221 28.7383 66.9803 25.6414 65.8589 22.6744C65.6486 22.0786 65.4033 21.5179 65.158 20.9571C63.4974 17.1091 61.0085 13.6748 57.8685 10.8991C57.1443 10.2344 56.3711 9.62526 55.5555 9.07669C50.9869 5.99398 45.5754 4.40238 40.0653 4.52076H29.0259C23.157 4.39452 17.4104 6.20816 12.6772 9.68046C7.94395 13.1528 4.48858 18.0897 2.84688 23.7258C2.84688 24.3215 2.46138 24.9173 2.28615 25.478C2.11092 26.0388 1.97074 26.6345 1.83055 27.1953C1.69037 27.756 1.58524 28.3518 1.4801 28.9475C1.11197 30.7041 0.866065 32.484 0.744141 34.2745C0.744141 35.0455 0.744141 35.7814 0.744141 36.5524C0.744135 39.1168 0.990588 41.6752 1.4801 44.1924C1.4801 44.7882 1.72542 45.3839 1.8656 45.9447C2.00578 46.5054 2.28615 47.6969 2.56651 48.538L3.19733 50.3254C4.36856 53.4791 6.03678 56.4251 8.13876 59.0517C8.55931 59.5774 9.0149 60.068 9.4705 60.5587C11.9865 63.191 15.0273 65.2656 18.396 66.6481C21.7647 68.0306 25.3861 68.6902 29.0259 68.5841H40.0653C43.7336 68.6916 47.3829 68.0193 50.7721 66.6117C54.1613 65.2041 57.2131 63.0932 59.7259 60.4185C60.2165 59.8928 60.7072 59.297 61.1628 58.7363C63.8912 55.2009 65.8707 51.1466 66.9803 46.8208C67.1556 46.225 67.2958 45.6293 67.4009 45.0685C68.0174 42.2721 68.323 39.416 68.3121 36.5524C68.3121 35.7814 68.277 35.0455 68.242 34.2394ZM29.0259 56.7387C27.3314 56.7705 25.6418 56.546 24.0144 56.0728C21.2147 55.2457 18.7565 53.5373 17.0053 51.2015C16.5635 50.6122 16.1652 49.9914 15.8138 49.3441C15.2307 48.3262 14.7382 47.259 14.3418 46.1549C14.1118 45.5701 13.913 44.9735 13.7461 44.3676C13.0571 41.8305 12.6921 39.2163 12.6596 36.5875C12.6596 36.237 12.6596 35.431 12.6596 34.3095C12.8002 32.6416 13.0816 30.9886 13.5007 29.3681C13.6438 28.7863 13.8193 28.213 14.0264 27.6509C14.2834 26.9032 14.5638 26.1673 14.8675 25.443C15.1362 24.8413 15.4405 24.2562 15.7787 23.6907C17.0494 21.3235 18.9735 19.3713 21.3221 18.0666C23.6707 16.7618 26.3448 16.1594 29.0259 16.3311H40.0653C42.236 16.2265 44.4012 16.6279 46.3901 17.5037C48.3789 18.3796 50.1369 19.7058 51.5252 21.3777C51.9848 21.9204 52.4063 22.4942 52.7869 23.0949C54.3851 25.7728 55.4446 28.7371 55.9059 31.8213C56.0345 32.4097 56.1166 33.0073 56.1512 33.6086C56.1684 33.8302 56.1684 34.0529 56.1512 34.2745C56.1512 35.3959 56.1512 36.202 56.1512 36.5524C56.1025 39.4902 55.6304 42.4057 54.7494 45.2087C54.576 45.8054 54.3653 46.3907 54.1186 46.961C53.1101 49.9089 51.1774 52.4526 48.6076 54.2142C46.0378 55.9758 42.9682 56.8612 39.855 56.7387H29.0259Z" fill="#9E4000"/>
<path d="M67.3306 22.9198C67.3306 22.324 67.0152 21.7282 66.84 21.1675C65.8454 17.5876 64.2581 14.1997 62.1438 11.1445C61.7233 10.5136 61.2327 9.91786 60.7771 9.35713C58.2703 6.31723 55.0996 3.8929 51.5089 2.2707C47.9182 0.648502 44.0032 -0.128338 40.0651 -4.2377e-05H29.0257C25.2653 -0.0419066 21.5349 0.673193 18.0565 2.10269C16.9267 2.57269 15.8265 3.11105 14.7622 3.71479C11.2958 6.0216 8.34047 9.01625 6.07972 12.5129C3.81897 16.0095 2.30102 19.9335 1.62009 24.0412C1.62009 24.637 1.37477 25.2328 1.26963 25.8286C1.1645 26.4243 1.26963 26.95 1.02431 27.5458C0.778995 28.1416 1.02431 28.7023 1.02431 29.2981C1.02431 29.8939 1.02431 31.4008 1.02431 32.4522C1.02431 33.5036 1.02431 33.9591 1.02431 34.7302C1.20986 38.1457 1.82207 41.5247 2.84669 44.7882L3.47751 46.5756C3.82796 47.4868 4.21346 48.3979 4.63401 49.2741L5.58024 51.0964C7.84648 55.3699 11.2627 58.9243 15.443 61.3582C19.6232 63.792 24.4009 65.0082 29.236 64.8694H40.2754C45.3323 64.9618 50.3126 63.6256 54.6441 61.0144C55.4661 60.4939 56.2615 59.9324 57.0272 59.3322C60.8636 56.1688 63.8307 52.08 65.6484 47.4517C65.901 46.8678 66.1232 46.2712 66.3143 45.6644C67.5492 42.1294 68.2692 38.4351 68.4521 34.6951C68.4694 34.4852 68.4694 34.2742 68.4521 34.0643C68.4521 33.5036 68.4521 32.9779 68.4521 32.4522C68.4405 29.2425 68.0643 26.0445 67.3306 22.9198ZM56.2211 34.7302C55.7067 38.0851 54.4233 41.2756 52.4713 44.0523C52.0858 44.6481 50.8241 46.2602 50.3685 46.8209C49.2254 48.4549 47.6697 49.7567 45.8598 50.594C44.0499 51.4312 42.0505 51.7739 40.0651 51.5871H29.0257C27.4111 51.4628 25.8262 51.0843 24.3296 50.4656C23.1645 50.2424 22.0634 49.7636 21.1054 49.0638L19.5634 48.2928C18.1967 47.3115 17.6009 48.0825 16.7247 46.7508C16.3094 46.1891 15.9457 45.5908 15.6383 44.9635C14.0462 41.78 13.0937 38.3152 12.8347 34.7652C12.8347 33.6437 12.8347 32.8377 12.8347 32.4872C12.7855 31.565 12.7855 30.6408 12.8347 29.7186C12.8347 29.1929 12.8347 28.5972 13.08 27.9664C13.3253 27.3355 13.3253 26.5295 13.5005 25.7935C13.6758 25.0576 13.7809 24.602 13.9561 24.0062C14.6678 20.5576 16.5648 17.467 19.3176 15.2712C22.0704 13.0754 25.5052 11.9129 29.0257 11.9856H40.0651C43.1126 11.8961 46.1102 12.7735 48.6284 14.4922C51.1465 16.2108 53.0561 18.6825 54.0834 21.553C54.3287 22.1488 54.574 22.7446 54.7492 23.3053C55.673 26.1976 56.1804 29.2066 56.2562 32.2419V32.4522C56.2562 32.6975 56.2562 33.2582 56.2562 34.0292C56.2601 34.2634 56.2484 34.4976 56.2211 34.7302Z" fill="url(#paint0_linear_269_67319)"/>
<g opacity="0.5">
<path d="M40.0656 62.6616H29.0262C9.99647 62.6616 0.989749 46.5406 0.779475 31.1205C0.761985 31.4474 0.761985 31.7749 0.779475 32.1018C0.779475 47.7321 9.61097 64.554 29.0613 64.554H40.1006C59.5159 64.554 68.3474 47.7321 68.3474 32.1018C68.3649 31.7749 68.3649 31.4474 68.3474 31.1205C67.9269 46.5406 59.0603 62.6616 40.0656 62.6616Z" fill="url(#paint1_linear_269_67319)"/>
</g>
<g style="mix-blend-mode:multiply" opacity="0.4">
<path d="M67.3305 22.6395H65.9287L54.9594 22.9899H52.8917C5.26473 24.2866 50.8591 25.0226 15.1476 25.3029H13.5355H2.28585H1.26953C1.26953 24.7072 1.4798 24.1114 1.61999 23.5507H2.84658H13.9911H15.9536C51.8754 23.3754 4.24841 22.6395 51.5249 21.3778H54.1884L65.1226 21.0274H66.7347C66.91 21.4479 67.0501 22.0437 67.3305 22.6395Z" fill="#C97B3A"/>
<path d="M68.3121 31.8916C68.3121 32.4173 68.3121 32.943 68.3121 33.5037H56.1512C9.64572 33.1883 50.4739 30.4898 13.676 29.3333H12.8699L1.4801 28.9478H0.744141C0.744141 28.387 0.744141 27.7913 0.744141 27.2305H1.83055L13.1152 27.616H14.2017C51.2098 28.7375 9.57563 31.5411 55.9059 31.8566H68.3121V31.8916Z" fill="#C97B3A"/>
<path d="M67.3307 45.0688C67.3307 45.6295 67.0503 46.2253 66.9101 46.821H65.3681H54.2587H51.6302C43.3244 46.821 65.6485 46.821 65.3681 46.821C44.3408 46.821 47.2495 46.2253 16.6547 45.8748H14.4118H3.26731H1.86548L1.47998 44.1225H2.63649H13.8511H15.6384C52.4363 44.5431 5.12472 45.3842 52.9269 44.9987H54.9596H66.1041L67.3307 45.0688Z" fill="#C97B3A"/>
</g>
<g style="mix-blend-mode:overlay" opacity="0.5">
<path d="M55.4156 23.2702L67.1909 22.9197L67.5764 24.8122L55.2754 24.1463L55.4156 23.2702Z" fill="#FFDE55"/>
</g>
<g style="mix-blend-mode:overlay" opacity="0.5">
<path d="M57.1683 34.0291H68.2077C68.1514 36.8314 67.7752 39.6181 67.0862 42.335C67.0862 42.335 67.8222 36.4823 65.4741 35.6412C62.0045 35.0223 58.4847 34.729 54.9604 34.7651L57.1683 34.0291Z" fill="#FFDE55"/>
</g>
<g style="mix-blend-mode:overlay" opacity="0.5">
<path d="M50.4384 47.5218H66.98L66.6646 48.7134C63.579 48.3989 60.479 48.2468 57.3775 48.2578C49.0366 48.0475 42.3079 48.0125 42.3079 48.0125L50.4384 47.5218Z" fill="#FFDE55"/>
</g>
<g style="mix-blend-mode:multiply" opacity="0.7">
<path d="M41.3268 54.9865H28.4651C12.4492 54.9865 11.9937 36.3773 11.9937 34.2395C11.9937 32.1017 12.4492 13.5275 28.4651 13.5275H41.3268C57.3777 13.5275 57.8333 32.1367 57.8333 34.2395C57.8333 36.3422 57.3777 54.9865 41.3268 54.9865Z" fill="#9E4000"/>
</g>
<path d="M41.3268 51.5872H28.4651C12.4492 51.5872 11.9937 32.9779 11.9937 30.8402C11.9937 28.7024 12.4492 10.1282 28.4651 10.1282H41.3268C57.3777 10.1282 57.8333 28.7374 57.8333 30.8402C57.8333 32.9429 57.3777 51.5872 41.3268 51.5872Z" fill="url(#paint2_linear_269_67319)"/>
<g style="mix-blend-mode:multiply" opacity="0.2">
<path d="M55.4155 29.4382C55.2052 32.4521 53.9085 41.4588 47.4251 44.5779C43.6008 46.1716 39.4944 46.9774 35.3515 46.9473C31.2086 46.9172 27.1144 46.0517 23.3137 44.4026C16.5149 40.863 14.9729 32.4521 14.7626 29.4382C14.7626 30.2092 13.0804 49.5193 29.5869 49.5193H40.5912C57.0977 49.5193 55.4505 30.2092 55.4155 29.4382Z" fill="#1B8943"/>
</g>
<g style="mix-blend-mode:overlay" opacity="0.6">
<path d="M14.7626 29.5435C14.9729 26.915 15.3584 18.5742 21.7717 15.8757C25.9645 14.5732 30.3532 14.0157 34.7386 14.2285C39.2612 14.0032 43.7868 14.609 48.091 16.0159C54.8548 19.0999 55.1001 26.915 55.3103 29.5435C55.3103 28.8776 56.9925 12.0207 40.4861 12.0207H29.5869C13.0804 11.9856 14.7626 28.8776 14.7626 29.5435Z" fill="white"/>
</g>
<path fill-rule="evenodd" clip-rule="evenodd" d="M32.6883 19.283L27.8186 24.1527L35.6101 31.9442L27.8186 39.7358L32.6883 44.6055L40.4798 36.8139L45.3495 31.9442L40.4798 27.0745L32.6883 19.283Z" fill="#588963"/>
<path fill-rule="evenodd" clip-rule="evenodd" d="M32.6883 17.9057L27.8186 22.7754L35.6101 30.5669L27.8186 38.3584L32.6883 43.2281L40.4798 35.4366L45.3495 30.5669L40.4798 25.6972L32.6883 17.9057Z" fill="white"/>
</g>
<defs>
<linearGradient id="paint0_linear_269_67319" x1="34.5279" y1="-0.525726" x2="34.5279" y2="62.1358" gradientUnits="userSpaceOnUse">
<stop stop-color="#F0CA57"/>
<stop offset="1" stop-color="#D45B1A"/>
</linearGradient>
<linearGradient id="paint1_linear_269_67319" x1="2.07616" y1="47.9424" x2="63.5462" y2="47.9424" gradientUnits="userSpaceOnUse">
<stop stop-color="#F0CA57"/>
<stop offset="0.5" stop-color="#F7C850"/>
<stop offset="1" stop-color="#FEC649"/>
</linearGradient>
<linearGradient id="paint2_linear_269_67319" x1="34.9135" y1="9.25206" x2="34.9135" y2="49.6596" gradientUnits="userSpaceOnUse">
<stop offset="0.12" stop-color="#A2C522"/>
<stop offset="0.85" stop-color="#83A010"/>
<stop offset="1" stop-color="#677F01"/>
</linearGradient>
<clipPath id="clip0_269_67319">
<rect width="67.5679" height="73" fill="white" transform="translate(0.744141)"/>
</clipPath>
</defs>
</svg>
