<svg width="44" height="45" viewBox="0 0 44 45" fill="none" xmlns="http://www.w3.org/2000/svg">
<path d="M43.5072 22.321C43.5072 22.1856 43.5072 22.0502 43.5072 21.9148C43.5072 21.7794 43.5072 21.1702 43.3942 20.8092C43.1721 18.7791 42.6939 16.7853 41.9711 14.875C41.8355 14.4914 41.6774 14.1304 41.5193 13.7694C40.4412 11.2962 38.838 9.08666 36.8206 7.2936C36.3492 6.87103 35.8512 6.47912 35.3296 6.12029C32.3848 4.13554 28.8966 3.11081 25.3449 3.18702H18.2065C14.4264 3.10693 10.7256 4.27547 7.67841 6.51125C4.63127 8.74703 2.40825 11.925 1.35442 15.5519C1.35442 15.9355 1.10593 16.319 0.992979 16.7026C0.88003 17.0862 0.78967 17.4247 0.69931 17.7857C0.608951 18.1467 0.541181 18.5303 0.473411 18.9139C0.236124 20.0448 0.0776144 21.1907 -0.000976562 22.3435C-0.000976562 22.8399 -0.000976562 23.3138 -0.000976562 23.8102C-0.000979882 25.4612 0.15788 27.1084 0.473411 28.729C0.473411 29.1126 0.631541 29.4962 0.7219 29.8572C0.81226 30.2182 0.992979 30.9628 1.1737 31.5269L1.58032 32.6777C2.33063 34.7034 3.40646 36.5934 4.76549 38.2734C5.03657 38.6119 5.33024 38.9503 5.62391 39.2662C7.24423 40.9552 9.20134 42.2858 11.3687 43.1719C13.5361 44.0581 15.8656 44.4801 18.2065 44.4107H25.3449C27.7047 44.4854 30.0534 44.0571 32.2346 43.1545C34.4159 42.2519 36.3796 40.8957 37.9952 39.176C38.3351 38.8363 38.6521 38.4745 38.944 38.0929C40.7027 35.8167 41.9786 33.2064 42.6939 30.4213C42.8069 30.0377 42.8747 29.6541 42.965 29.2931C43.3612 27.4925 43.5581 25.6538 43.5524 23.8102C43.5524 23.3138 43.5298 22.8399 43.5072 22.321ZM18.2065 36.8068C17.1217 36.826 16.0403 36.6815 14.9987 36.3781C13.1859 35.8501 11.5979 34.7398 10.4807 33.2192C10.1912 32.8511 9.93418 32.4585 9.71268 32.0459C9.33398 31.3887 9.00913 30.7021 8.74132 29.9926C8.60578 29.609 8.49283 29.2254 8.37988 28.8418C7.93579 27.2083 7.70049 25.5253 7.67959 23.8327C7.67959 23.6071 7.67959 23.0881 7.67959 22.3661C7.77018 21.2922 7.95155 20.2279 8.22175 19.1846C8.31395 18.8101 8.42708 18.4409 8.5606 18.079C8.72626 17.5976 8.90698 17.1238 9.10275 16.6575C9.27596 16.2701 9.47208 15.8934 9.69009 15.5293C10.5075 14.0089 11.7443 12.7544 13.2537 11.9146C14.7631 11.0748 16.482 10.6848 18.2065 10.791H25.3449C26.7441 10.7236 28.1397 10.982 29.4217 11.5459C30.7037 12.1098 31.8369 12.9637 32.7318 14.0401C33.028 14.3895 33.2997 14.7589 33.545 15.1457C34.5752 16.8698 35.2582 18.7784 35.5555 20.7641C35.5555 21.1702 35.6911 21.5538 35.7137 21.8923C35.7237 22.0425 35.7237 22.1933 35.7137 22.3435C35.7137 23.0656 35.7137 23.5845 35.7137 23.8102C35.6823 25.7016 35.3779 27.5787 34.8101 29.3834C34.6946 29.7664 34.5589 30.143 34.4034 30.5116C33.7534 32.4095 32.5076 34.0473 30.8511 35.1814C29.1947 36.3156 27.2161 36.8856 25.2094 36.8068H18.2065Z" fill="#9E4000"/>
<path d="M42.9198 15.0329C42.9198 14.6493 42.7391 14.2658 42.6262 13.9047C41.9851 11.5999 40.9619 9.41863 39.5991 7.45155C39.328 7.04541 39.0118 6.66182 38.7181 6.27824C37.0955 4.3247 35.0466 2.76811 32.7286 1.72777C30.4105 0.687418 27.8848 0.190922 25.3449 0.276322H18.2065C15.7901 0.252395 13.3935 0.712744 11.1584 1.63014C10.428 1.92787 9.71855 2.27463 9.03498 2.66806C6.80058 4.15327 4.89564 6.08133 3.43839 8.33259C1.98114 10.5838 1.00269 13.1102 0.563771 15.755C0.563771 16.1385 0.405642 16.5221 0.337872 16.9057C0.270102 17.2893 0.337872 17.6503 0.179743 18.0113C0.0216133 18.3723 0.179743 18.7559 0.179743 19.1395C0.179743 19.5231 -0.000976562 20.5836 -0.000976562 21.1477C-0.000976562 21.7118 -0.000976562 22.1405 -0.000976562 22.6369C0.118621 24.8359 0.513245 27.0114 1.1737 29.1126L1.58032 30.2634C1.80622 30.85 2.0547 31.4367 2.32578 32.0008C2.59686 32.5648 2.7324 32.7905 2.93571 33.1741C4.39478 35.9219 6.5933 38.2081 9.28345 39.7749C11.9736 41.3416 15.0484 42.1267 18.1613 42.0416H25.2997C28.5593 42.101 31.7695 41.2408 34.5616 39.5596C35.0914 39.2245 35.6041 38.863 36.0977 38.4765C38.5706 36.4398 40.4831 33.8073 41.6548 30.8274C41.8129 30.4439 41.9485 30.0603 42.084 29.6767C42.8779 27.4002 43.342 25.022 43.462 22.6143V22.2082C43.462 21.8471 43.462 21.5087 43.462 21.1477C43.5235 19.0952 43.3415 17.0427 42.9198 15.0329ZM35.7588 22.6369C35.4273 24.7969 34.6 26.8511 33.3417 28.6388C33.0932 29.0224 32.28 30.0377 31.9863 30.4213C31.2495 31.4733 30.2467 32.3115 29.0801 32.8505C27.9134 33.3896 26.6246 33.6102 25.3449 33.49H18.2065C17.1734 33.4072 16.1597 33.1636 15.202 32.7679C14.451 32.6242 13.7412 32.316 13.1238 31.8654L12.1298 31.369C11.2488 30.7372 10.8648 31.211 10.3 30.3762C10.0323 30.0145 9.79788 29.6294 9.59973 29.2254C8.57349 27.1758 7.95951 24.945 7.79254 22.6594C7.79254 21.9374 7.79254 21.4184 7.79254 21.1702C7.76144 20.584 7.76144 19.9965 7.79254 19.4103C7.79254 19.0718 7.79254 18.6882 7.95067 18.2821C8.1088 17.8759 8.1088 17.357 8.22175 16.8606C8.3347 16.3642 8.40247 16.116 8.51542 15.7324C8.96941 13.5139 10.1877 11.5246 11.9584 10.1105C13.729 8.69647 15.9399 7.94721 18.2065 7.99308H25.3449C27.3092 7.93546 29.2414 8.5004 30.8646 9.60694C32.4878 10.7135 33.7187 12.3048 34.3809 14.1529C34.539 14.5365 34.6971 14.9201 34.8101 15.2811C35.415 17.1403 35.7349 19.0801 35.7588 21.0348V21.1477C35.7588 21.3282 35.7588 21.6892 35.7588 22.1856C35.7814 22.321 35.7814 22.4564 35.7588 22.6369Z" fill="url(#paint0_linear_24_11697)"/>
<g opacity="0.5">
<path d="M25.3443 40.6201H18.2059C5.96214 40.6201 0.246893 30.2408 0.133944 20.3128C0.12267 20.5233 0.12267 20.7342 0.133944 20.9446C0.133944 31.008 5.8266 41.8385 18.3414 41.8385H25.4798C37.9946 41.8385 43.6873 31.008 43.6873 20.9446C43.6986 20.7342 43.6986 20.5233 43.6873 20.3128C43.3032 30.2408 37.588 40.6201 25.3443 40.6201Z" fill="url(#paint1_linear_24_11697)"/>
</g>
<g style="mix-blend-mode:multiply" opacity="0.4">
<path d="M42.9194 14.8298H42.0384L34.9677 15.0555H33.6349C2.93524 15.8903 32.3247 16.3641 9.30559 16.5447H8.24387H0.992509H0.337402C0.337402 16.1611 0.472942 15.7775 0.563301 15.4165H1.35395H8.53754H9.80257C32.9572 15.3262 2.25754 14.8524 32.7313 14.0401H34.4482L41.4962 13.8145H42.5353C42.6483 14.0852 42.7387 14.4688 42.9194 14.8298Z" fill="#C97B3A"/>
<path d="M43.5519 20.8092C43.5519 21.1476 43.5519 21.4861 43.5519 21.8245H42.3094H35.8261C5.73637 21.644 32.0536 19.9066 8.33421 19.162H7.81464L0.472923 18.9138H-0.00146484C-0.00146484 18.5528 -0.00146484 18.1692 0.111485 17.8082H0.698822L7.97277 18.0338H8.67306C32.528 18.7784 5.69119 20.5835 35.555 20.764H35.8261H43.3712L43.5519 20.8092Z" fill="#C97B3A"/>
<path d="M42.9191 29.2705L42.648 30.4213H41.6541H34.493H32.7988C27.445 30.4213 41.8348 30.4213 41.6541 30.4213C28.1001 30.4213 29.9751 30.0377 10.2541 29.812H8.80833H1.62474H0.721145L0.472656 28.6839H1.21812H8.44689H9.59898C33.3184 28.9546 2.82201 29.4962 33.6346 29.248H34.9448H42.1284L42.9191 29.2705Z" fill="#C97B3A"/>
</g>
<g style="mix-blend-mode:overlay" opacity="0.5">
<path d="M35.2393 15.2586L42.8295 15.0329L43.078 16.2514L35.1489 15.8227L35.2393 15.2586Z" fill="#FFDE55"/>
</g>
<g style="mix-blend-mode:overlay" opacity="0.5">
<path d="M36.3685 22.163H43.4843C43.448 23.9672 43.2055 25.7614 42.7614 27.5106C42.7614 27.5106 43.2358 23.7425 41.7223 23.201C39.4858 22.8024 37.217 22.6136 34.9453 22.6369L36.3685 22.163Z" fill="#FFDE55"/>
</g>
<g style="mix-blend-mode:overlay" opacity="0.5">
<path d="M32.0314 30.8726H42.6938L42.4679 31.6398C40.4867 31.436 38.4959 31.3381 36.5042 31.3464C31.1278 31.2111 26.7905 31.1885 26.7905 31.1885L32.0314 30.8726Z" fill="#FFDE55"/>
</g>
<g style="mix-blend-mode:multiply" opacity="0.7">
<path d="M26.1577 35.6786H17.8673C7.54367 35.6786 7.25 23.6973 7.25 22.321C7.25 20.9446 7.54367 8.98587 17.8673 8.98587H26.1577C36.5039 8.98587 36.7976 20.9671 36.7976 22.321C36.7976 23.6748 36.5039 35.6786 26.1577 35.6786Z" fill="#9E4000"/>
</g>
<path d="M26.1577 33.49H17.8673C7.54367 33.49 7.25 21.5087 7.25 20.1323C7.25 18.7559 7.54367 6.79721 17.8673 6.79721H26.1577C36.5039 6.79721 36.7976 18.7785 36.7976 20.1323C36.7976 21.4861 36.5039 33.49 26.1577 33.49Z" fill="url(#paint2_linear_24_11697)"/>
<g style="mix-blend-mode:multiply" opacity="0.2">
<path d="M35.2164 19.2298C35.1034 21.1703 34.2676 26.9691 30.0885 28.9547C27.6326 30.0049 24.989 30.5464 22.3175 30.5464C19.6461 30.5464 17.0024 30.0049 14.5466 28.9547C10.1642 26.5855 9.17021 21.1703 9.03467 19.2298C9.03467 19.7262 7.92777 32.1587 18.5902 32.1587H25.6834C36.3233 32.1587 35.2615 19.7262 35.2164 19.2298Z" fill="#1B8943"/>
</g>
<g style="mix-blend-mode:overlay" opacity="0.6">
<path d="M9.03467 19.2975C9.17021 17.6052 9.4187 12.235 13.5527 10.4976C16.255 9.65766 19.0841 9.2987 21.9109 9.43715C24.8188 9.29022 27.7289 9.68033 30.4951 10.5879C34.8775 12.5735 35.0131 17.6052 35.1486 19.2975C35.1486 18.8687 36.2555 8.01564 25.6157 8.01564H18.5902C7.92777 7.99308 9.03467 18.8687 9.03467 19.2975Z" fill="white"/>
</g>
<path d="M25.6383 21.3959C23.3793 21.3959 22.6791 21.0123 22.3854 19.8841C23.0952 19.4753 23.6805 18.8815 24.0784 18.1661C24.4763 17.4506 24.6719 16.6406 24.6444 15.8226C24.7012 14.8101 24.3789 13.8126 23.74 13.0243C23.1011 12.2361 22.1915 11.7134 21.1881 11.5581C19.2906 11.5581 22.9501 11.5581 21.0752 11.5581C20.0605 11.7147 19.1443 12.253 18.5142 13.0627C17.8842 13.8724 17.5881 14.8921 17.6867 15.9129C17.6591 16.7308 17.8548 17.5409 18.2527 18.2563C18.6506 18.9717 19.2358 19.5656 19.9457 19.9743C19.652 21.1025 18.9743 21.4861 16.6701 21.4861C14.366 21.4861 13.5527 26.4501 13.5527 26.4501H28.6428C28.6428 26.4501 28.2362 21.3959 25.6383 21.3959Z" fill="white"/>
<defs>
<linearGradient id="paint0_linear_24_11697" x1="21.7757" y1="-0.0621323" x2="21.7757" y2="40.2816" gradientUnits="userSpaceOnUse">
<stop stop-color="#F0CA57"/>
<stop offset="1" stop-color="#D45B1A"/>
</linearGradient>
<linearGradient id="paint1_linear_24_11697" x1="0.856821" y1="31.1434" x2="40.4569" y2="31.1434" gradientUnits="userSpaceOnUse">
<stop stop-color="#F0CA57"/>
<stop offset="0.5" stop-color="#F7C850"/>
<stop offset="1" stop-color="#FEC649"/>
</linearGradient>
<linearGradient id="paint2_linear_24_11697" x1="22.0238" y1="6.23312" x2="22.0238" y2="32.249" gradientUnits="userSpaceOnUse">
<stop offset="0.12" stop-color="#ABD41D"/>
<stop offset="0.85" stop-color="#3A8C04"/>
<stop offset="1" stop-color="#389701"/>
</linearGradient>
</defs>
</svg>
