<svg width="44" height="47" viewBox="0 0 44 47" fill="none" xmlns="http://www.w3.org/2000/svg">
<g clip-path="url(#clip0_24_11553)">
<g style="mix-blend-mode:multiply" opacity="0.5">
<path d="M43.5067 24.82C43.5067 24.6846 43.5067 24.5492 43.5067 24.4138C43.5067 24.2785 43.5067 23.6692 43.3937 23.2857C43.169 21.256 42.6909 19.2625 41.9706 17.3514C41.8124 16.9904 41.6769 16.6068 41.5188 16.2458C40.4182 13.8118 38.8173 11.6362 36.8201 9.86031C36.3428 9.45192 35.8452 9.06785 35.3291 8.70957C32.3869 6.71684 28.8986 5.68416 25.3444 5.75373H18.206C14.4355 5.67331 10.7432 6.83357 7.69793 9.05573C4.65268 11.2779 2.42352 14.4386 1.35393 18.0509C1.21839 18.4119 1.10544 18.7955 0.992491 19.1791C0.879541 19.5627 0.789182 19.9914 0.698822 20.3073C0.608463 20.6232 0.540693 21.0519 0.472923 21.4354C0.238034 22.5516 0.0795381 23.6824 -0.00146484 24.82C-0.00146484 25.3164 -0.00146484 25.8128 -0.00146484 26.2866C-0.000425674 27.9451 0.158418 29.5996 0.472923 31.228C0.472923 31.5891 0.631052 31.9726 0.721412 32.3562C0.811772 32.7398 1.01508 33.4618 1.17321 34.0034L1.57983 35.1541C2.71931 38.6375 4.95157 41.6617 7.94607 43.779C10.9406 45.8963 14.5381 46.994 18.206 46.9098H25.3444C27.7033 46.9772 30.0498 46.5457 32.23 45.6435C34.4101 44.7413 36.3747 43.3889 37.9948 41.675C38.3294 41.3226 38.6461 40.9536 38.9435 40.5694C40.7066 38.2958 41.983 35.6846 42.6935 32.8978L42.9645 31.7696C43.3619 29.9691 43.5589 28.1303 43.5519 26.2866C43.5519 25.903 43.5293 25.4066 43.5067 24.82ZM34.9451 31.8824C34.8322 32.2434 34.6966 32.627 34.5385 33.0106C33.8822 34.9045 32.6349 36.5382 30.9799 37.6713C29.3249 38.8045 27.3496 39.3774 25.3444 39.3058H18.206C16.7277 39.3784 15.2541 39.0871 13.9149 38.4576C12.5756 37.8282 11.4117 36.8797 10.5254 35.6956C10.2408 35.324 9.98411 34.9318 9.75737 34.5223C9.38131 33.8592 9.06385 33.1647 8.8086 32.4465C8.66079 32.0797 8.53999 31.7026 8.44716 31.3183C7.98914 29.6794 7.74615 27.988 7.72428 26.2866C7.70013 25.8056 7.70013 25.3236 7.72428 24.8425C7.81284 23.761 7.99423 22.6891 8.26644 21.6385C8.26644 21.2775 8.46975 20.9165 8.60529 20.5329C8.75624 20.0483 8.93732 19.5735 9.14745 19.1114C9.34499 18.7455 9.56374 18.3914 9.80255 18.0509C10.621 16.5612 11.8439 15.3325 13.3305 14.5062C14.8172 13.6799 16.5071 13.2896 18.206 13.3802H25.3444C26.7417 13.3101 28.1362 13.5651 29.4181 14.125C30.7 14.6849 31.8342 15.5345 32.7313 16.6068C33.0222 16.9604 33.2937 17.3295 33.5445 17.7124C34.5754 19.4444 35.2583 21.3604 35.555 23.3533C35.555 23.7595 35.6906 24.1431 35.7132 24.4815C35.7231 24.6243 35.7231 24.7675 35.7132 24.9102C35.7132 25.6323 35.7132 26.1512 35.7132 26.3769C35.7298 28.2694 35.4711 30.1544 34.9451 31.9726V31.8824Z" fill="#1C1720"/>
</g>
<path d="M43.5072 22.0446C43.5072 21.9092 43.5072 21.7738 43.5072 21.6385C43.5072 21.5031 43.5072 20.8939 43.3942 20.5329C43.1721 18.5028 42.6939 16.5089 41.9711 14.5986C41.8355 14.215 41.6774 13.854 41.5193 13.493C40.4412 11.0199 38.838 8.81031 36.8206 7.01725C36.3492 6.59468 35.8512 6.20277 35.3296 5.84394C32.3848 3.85918 28.8966 2.83445 25.3449 2.91067H18.2065C14.4264 2.83058 10.7256 3.99912 7.67841 6.2349C4.63127 8.47068 2.40825 11.6487 1.35442 15.2755C1.35442 15.6591 1.10593 16.0427 0.992979 16.4263C0.88003 16.8099 0.78967 17.1483 0.69931 17.5093C0.608951 17.8703 0.541181 18.2539 0.473411 18.6375C0.236124 19.7684 0.0776144 20.9144 -0.000976562 22.0672C-0.000976562 22.5636 -0.000976562 23.0374 -0.000976562 23.5338C-0.000979882 25.1848 0.15788 26.832 0.473411 28.4527C0.473411 28.8363 0.631541 29.2198 0.7219 29.5809C0.81226 29.9419 0.992979 30.6865 1.1737 31.2506L1.58032 32.4013C2.33063 34.427 3.40646 36.3171 4.76549 37.9971C5.03657 38.3355 5.33024 38.674 5.62391 38.9899C7.24423 40.6789 9.20134 42.0094 11.3687 42.8956C13.5361 43.7817 15.8656 44.2038 18.2065 44.1344H25.3449C27.7047 44.209 30.0534 43.7808 32.2346 42.8782C34.4159 41.9756 36.3796 40.6193 37.9952 38.8996C38.3351 38.56 38.6521 38.1982 38.944 37.8166C40.7027 35.5403 41.9786 32.93 42.6939 30.1449C42.8069 29.7614 42.8747 29.3778 42.965 29.0168C43.3612 27.2161 43.5581 25.3774 43.5524 23.5338C43.5524 23.0374 43.5298 22.5636 43.5072 22.0446ZM18.2065 36.5304C17.1217 36.5497 16.0403 36.4051 14.9987 36.1017C13.1859 35.5738 11.5979 34.4635 10.4807 32.9428C10.1912 32.5747 9.93418 32.1821 9.71268 31.7695C9.33398 31.1124 9.00913 30.4257 8.74132 29.7162C8.60578 29.3327 8.49283 28.9491 8.37988 28.5655C7.93579 26.932 7.70049 25.2489 7.67959 23.5564C7.67959 23.3307 7.67959 22.8118 7.67959 22.0897C7.77018 21.0159 7.95155 19.9516 8.22175 18.9083C8.31395 18.5337 8.42708 18.1646 8.5606 17.8027C8.72626 17.3213 8.90698 16.8475 9.10275 16.3811C9.27596 15.9938 9.47208 15.6171 9.69009 15.253C10.5075 13.7325 11.7443 12.4781 13.2537 11.6382C14.7631 10.7984 16.482 10.4085 18.2065 10.5146H25.3449C26.7441 10.4472 28.1397 10.7057 29.4217 11.2696C30.7037 11.8335 31.8369 12.6873 32.7318 13.7638C33.028 14.1132 33.2997 14.4826 33.545 14.8694C34.5752 16.5935 35.2582 18.502 35.5555 20.4877C35.5555 20.8939 35.6911 21.2774 35.7137 21.6159C35.7237 21.7662 35.7237 21.9169 35.7137 22.0672C35.7137 22.7892 35.7137 23.3082 35.7137 23.5338C35.6823 25.4253 35.3779 27.3023 34.8101 29.107C34.6946 29.49 34.5589 29.8666 34.4034 30.2352C33.7534 32.1331 32.5076 33.7709 30.8511 34.9051C29.1947 36.0393 27.2161 36.6093 25.2094 36.5304H18.2065Z" fill="#9E4000"/>
<path d="M42.9198 14.7566C42.9198 14.373 42.7391 13.9894 42.6262 13.6284C41.9851 11.3235 40.9619 9.14226 39.5991 7.17518C39.328 6.76904 39.0118 6.38546 38.7181 6.00188C37.0955 4.04833 35.0466 2.49175 32.7286 1.4514C30.4105 0.411051 27.8848 -0.0854453 25.3449 -4.52809e-05H18.2065C15.7901 -0.0239725 13.3935 0.436377 11.1584 1.35377C10.428 1.6515 9.71855 1.99827 9.03498 2.3917C6.80058 3.8769 4.89564 5.80497 3.43839 8.05622C1.98114 10.3075 1.00269 12.8339 0.563771 15.4786C0.563771 15.8622 0.405642 16.2458 0.337872 16.6293C0.270102 17.0129 0.337872 17.3739 0.179743 17.735C0.0216133 18.096 0.179743 18.4795 0.179743 18.8631C0.179743 19.2467 -0.000976562 20.3072 -0.000976562 20.8713C-0.000976562 21.4354 -0.000976562 21.8641 -0.000976562 22.3605C0.118621 24.5596 0.513245 26.7351 1.1737 28.8362L1.58032 29.987C1.80622 30.5736 2.0547 31.1603 2.32578 31.7244C2.59686 32.2885 2.7324 32.5141 2.93571 32.8977C4.39478 35.6456 6.5933 37.9318 9.28345 39.4985C11.9736 41.0653 15.0484 41.8503 18.1613 41.7652H25.2997C28.5593 41.8247 31.7695 40.9644 34.5616 39.2832C35.0914 38.9481 35.6041 38.5866 36.0977 38.2001C38.5706 36.1635 40.4831 33.5309 41.6548 30.5511C41.8129 30.1675 41.9485 29.7839 42.084 29.4003C42.8779 27.1238 43.342 24.7456 43.462 22.3379V21.9318C43.462 21.5708 43.462 21.2323 43.462 20.8713C43.5235 18.8188 43.3415 16.7663 42.9198 14.7566ZM35.7588 22.3605C35.4273 24.5205 34.6 26.5747 33.3417 28.3624C33.0932 28.746 32.28 29.7614 31.9863 30.1449C31.2495 31.1969 30.2467 32.0351 29.0801 32.5742C27.9134 33.1132 26.6246 33.3338 25.3449 33.2136H18.2065C17.1734 33.1308 16.1597 32.8872 15.202 32.4916C14.451 32.3478 13.7412 32.0396 13.1238 31.589L12.1298 31.0926C11.2488 30.4608 10.8648 30.9347 10.3 30.0998C10.0323 29.7381 9.79788 29.353 9.59973 28.9491C8.57349 26.8994 7.95951 24.6687 7.79254 22.3831C7.79254 21.661 7.79254 21.1421 7.79254 20.8939C7.76144 20.3076 7.76144 19.7201 7.79254 19.1339C7.79254 18.7954 7.79254 18.4119 7.95067 18.0057C8.1088 17.5996 8.1088 17.0806 8.22175 16.5842C8.3347 16.0878 8.40247 15.8396 8.51542 15.456C8.96941 13.2375 10.1877 11.2482 11.9584 9.83415C13.729 8.4201 15.9399 7.67084 18.2065 7.71671H25.3449C27.3092 7.6591 29.2414 8.22403 30.8646 9.33057C32.4878 10.4371 33.7187 12.0284 34.3809 13.8766C34.539 14.2602 34.6971 14.6437 34.8101 15.0048C35.415 16.8639 35.7349 18.8038 35.7588 20.7585V20.8713C35.7588 21.0518 35.7588 21.4128 35.7588 21.9092C35.7814 22.0446 35.7814 22.18 35.7588 22.3605Z" fill="url(#paint0_linear_24_11553)"/>
<g opacity="0.5">
<path d="M25.3443 40.3437H18.2059C5.96214 40.3437 0.246893 29.9645 0.133944 20.0365C0.12267 20.2469 0.12267 20.4578 0.133944 20.6682C0.133944 30.7316 5.8266 41.5622 18.3414 41.5622H25.4798C37.9946 41.5622 43.6873 30.7316 43.6873 20.6682C43.6986 20.4578 43.6986 20.2469 43.6873 20.0365C43.3032 29.9645 37.588 40.3437 25.3443 40.3437Z" fill="url(#paint1_linear_24_11553)"/>
</g>
<g style="mix-blend-mode:multiply" opacity="0.4">
<path d="M42.9194 14.5534H42.0384L34.9677 14.7791H33.6349C2.93524 15.6139 32.3247 16.0878 9.30559 16.2683H8.24387H0.992509H0.337402C0.337402 15.8847 0.472942 15.5011 0.563301 15.1401H1.35395H8.53754H9.80257C32.9572 15.0498 2.25754 14.576 32.7313 13.7637H34.4482L41.4962 13.5381H42.5353C42.6483 13.8088 42.7387 14.1924 42.9194 14.5534Z" fill="#C97B3A"/>
<path d="M43.5519 20.5328C43.5519 20.8713 43.5519 21.2097 43.5519 21.5482H42.3094H35.8261C5.73637 21.3677 32.0536 19.6303 8.33421 18.8857H7.81464L0.472923 18.6375H-0.00146484C-0.00146484 18.2765 -0.00146484 17.8929 0.111485 17.5319H0.698822L7.97277 17.7575H8.67306C32.528 18.5021 5.69119 20.3072 35.555 20.4877H35.8261H43.3712L43.5519 20.5328Z" fill="#C97B3A"/>
<path d="M42.9191 28.9942L42.648 30.1449H41.6541H34.493H32.7988C27.445 30.1449 41.8348 30.1449 41.6541 30.1449C28.1001 30.1449 29.9751 29.7613 10.2541 29.5357H8.80833H1.62474H0.721145L0.472656 28.4075H1.21812H8.44689H9.59898C33.3184 28.6783 2.82201 29.2198 33.6346 28.9716H34.9448H42.1284L42.9191 28.9942Z" fill="#C97B3A"/>
</g>
<g style="mix-blend-mode:overlay" opacity="0.5">
<path d="M35.2393 14.9822L42.8295 14.7566L43.078 15.975L35.1489 15.5463L35.2393 14.9822Z" fill="#FFDE55"/>
</g>
<g style="mix-blend-mode:overlay" opacity="0.5">
<path d="M36.3685 21.8867H43.4843C43.448 23.6909 43.2055 25.485 42.7614 27.2342C42.7614 27.2342 43.2358 23.4661 41.7223 22.9246C39.4858 22.5261 37.217 22.3372 34.9453 22.3605L36.3685 21.8867Z" fill="#FFDE55"/>
</g>
<g style="mix-blend-mode:overlay" opacity="0.5">
<path d="M32.0314 30.5963H42.6938L42.4679 31.3634C40.4867 31.1597 38.4959 31.0618 36.5042 31.0701C31.1278 30.9347 26.7905 30.9121 26.7905 30.9121L32.0314 30.5963Z" fill="#FFDE55"/>
</g>
<g style="mix-blend-mode:multiply" opacity="0.7">
<path d="M26.1577 35.4023H17.8673C7.54367 35.4023 7.25 23.421 7.25 22.0446C7.25 20.6682 7.54367 8.7095 17.8673 8.7095H26.1577C36.5039 8.7095 36.7976 20.6908 36.7976 22.0446C36.7976 23.3984 36.5039 35.4023 26.1577 35.4023Z" fill="#9E4000"/>
</g>
<path d="M26.1577 33.2136H17.8673C7.54367 33.2136 7.25 21.2323 7.25 19.8559C7.25 18.4796 7.54367 6.52084 17.8673 6.52084H26.1577C36.5039 6.52084 36.7976 18.5021 36.7976 19.8559C36.7976 21.2098 36.5039 33.2136 26.1577 33.2136Z" fill="url(#paint2_linear_24_11553)"/>
<g style="mix-blend-mode:multiply" opacity="0.2">
<path d="M35.2164 18.9534C35.1034 20.8939 34.2676 26.6927 30.0885 28.6783C27.6326 29.7286 24.989 30.2701 22.3175 30.2701C19.6461 30.2701 17.0024 29.7286 14.5466 28.6783C10.1642 26.3091 9.17021 20.8939 9.03467 18.9534C9.03467 19.4498 7.92777 31.8823 18.5902 31.8823H25.6834C36.3233 31.8823 35.2615 19.4498 35.2164 18.9534Z" fill="#1B8943"/>
</g>
<g style="mix-blend-mode:overlay" opacity="0.6">
<path d="M9.03467 19.0211C9.17021 17.3288 9.4187 11.9587 13.5527 10.2213C16.255 9.38128 19.0841 9.02232 21.9109 9.16077C24.8188 9.01383 27.7289 9.40394 30.4951 10.3115C34.8775 12.2971 35.0131 17.3288 35.1486 19.0211C35.1486 18.5924 36.2555 7.73926 25.6157 7.73926H18.5902C7.92777 7.7167 9.03467 18.5924 9.03467 19.0211Z" fill="white"/>
</g>
<path d="M25.6383 21.1195C23.3793 21.1195 22.6791 20.7359 22.3854 19.6077C23.0952 19.199 23.6805 18.6051 24.0784 17.8897C24.4763 17.1743 24.6719 16.3642 24.6444 15.5463C24.7012 14.5337 24.3789 13.5362 23.74 12.7479C23.1011 11.9597 22.1915 11.437 21.1881 11.2817C19.2906 11.2817 22.9501 11.2817 21.0752 11.2817C20.0605 11.4383 19.1443 11.9766 18.5142 12.7863C17.8842 13.596 17.5881 14.6158 17.6867 15.6365C17.6591 16.4545 17.8548 17.2645 18.2527 17.9799C18.6506 18.6954 19.2358 19.2892 19.9457 19.698C19.652 20.8261 18.9743 21.2097 16.6701 21.2097C14.366 21.2097 13.5527 26.1737 13.5527 26.1737H28.6428C28.6428 26.1737 28.2362 21.1195 25.6383 21.1195Z" fill="white"/>
</g>
<defs>
<linearGradient id="paint0_linear_24_11553" x1="21.7757" y1="-0.338499" x2="21.7757" y2="40.0052" gradientUnits="userSpaceOnUse">
<stop stop-color="#F0CA57"/>
<stop offset="1" stop-color="#D45B1A"/>
</linearGradient>
<linearGradient id="paint1_linear_24_11553" x1="0.856821" y1="30.867" x2="40.4569" y2="30.867" gradientUnits="userSpaceOnUse">
<stop stop-color="#F0CA57"/>
<stop offset="0.5" stop-color="#F7C850"/>
<stop offset="1" stop-color="#FEC649"/>
</linearGradient>
<linearGradient id="paint2_linear_24_11553" x1="22.0238" y1="5.95675" x2="22.0238" y2="31.9726" gradientUnits="userSpaceOnUse">
<stop offset="0.12" stop-color="#ABD41D"/>
<stop offset="0.85" stop-color="#3A8C04"/>
<stop offset="1" stop-color="#389701"/>
</linearGradient>
<clipPath id="clip0_24_11553">
<rect width="43.5533" height="47" fill="white"/>
</clipPath>
</defs>
</svg>
