<svg width="398" height="314" viewBox="0 0 398 314" fill="none" xmlns="http://www.w3.org/2000/svg">
<path d="M394.865 277.015C394.87 280.497 394.181 283.946 392.84 287.159C391.499 290.373 389.532 293.288 387.054 295.734C384.575 298.18 381.635 300.109 378.404 301.408C375.173 302.707 371.716 303.35 368.234 303.299H35.2772C31.7907 303.349 28.329 302.707 25.0927 301.409C21.8564 300.112 18.9098 298.185 16.4239 295.74C13.9379 293.295 11.9619 290.381 10.6104 287.166C9.25902 283.952 8.55902 280.502 8.55103 277.015V34.05C8.55103 26.9618 11.3668 20.1639 16.3789 15.1518C21.3911 10.1397 28.189 7.32391 35.2772 7.32391H368.234C371.739 7.32389 375.21 8.01586 378.447 9.36013C381.684 10.7044 384.624 12.6745 387.099 15.1575C389.573 17.6405 391.532 20.5875 392.865 23.8296C394.198 27.0716 394.878 30.5448 394.865 34.05V277.015Z" fill="url(#paint0_linear_24_40181)"/>
<path d="M10.6336 245.366V247.827L11.4224 248.079V245.271L10.6336 245.366ZM10.6336 67.7491V70.2103L11.4224 70.4627V67.6544L10.6336 67.7491ZM10.6336 245.366V247.827L11.4224 248.079V245.271L10.6336 245.366ZM10.6336 67.7491V70.2103L11.4224 70.4627V67.6544L10.6336 67.7491ZM10.6336 245.366V247.827L11.4224 248.079V245.271L10.6336 245.366ZM10.6336 67.7491V70.2103L11.4224 70.4627V67.6544L10.6336 67.7491ZM10.6336 245.366V247.827L11.4224 248.079V245.271L10.6336 245.366ZM10.6336 67.7491V70.2103L11.4224 70.4627V67.6544L10.6336 67.7491ZM10.6336 245.366V247.827L11.4224 248.079V245.271L10.6336 245.366ZM10.6336 67.7491V70.2103L11.4224 70.4627V67.6544L10.6336 67.7491ZM10.6336 245.366V247.827L11.4224 248.079V245.271L10.6336 245.366ZM10.6336 67.7491V70.2103L11.4224 70.4627V67.6544L10.6336 67.7491ZM10.6336 245.366V247.827L11.4224 248.079V245.271L10.6336 245.366ZM10.6336 67.7491V70.2103L11.4224 70.4627V67.6544L10.6336 67.7491ZM10.6336 245.366V247.827L11.4224 248.079V245.271L10.6336 245.366ZM10.6336 67.7491V70.2103L11.4224 70.4627V67.6544L10.6336 67.7491ZM10.6336 245.366V247.827L11.4224 248.079V245.271L10.6336 245.366ZM10.6336 67.7491V70.2103L11.4224 70.4627V67.6544L10.6336 67.7491ZM10.6336 245.366V247.827L11.4224 248.079V245.271L10.6336 245.366ZM10.6336 67.7491V70.2103L11.4224 70.4627V67.6544L10.6336 67.7491ZM10.6336 245.366V247.827L11.4224 248.079V245.271L10.6336 245.366ZM10.6336 67.7491V70.2103L11.4224 70.4627V67.6544L10.6336 67.7491ZM10.6336 245.366V247.827L11.4224 248.079V245.271L10.6336 245.366ZM10.6336 67.7491V70.2103L11.4224 70.4627V67.6544L10.6336 67.7491ZM10.6336 245.366V247.827L11.4224 248.079V245.271L10.6336 245.366ZM10.6336 67.7491V70.2103L11.4224 70.4627V67.6544L10.6336 67.7491ZM10.6336 245.366V247.827L11.4224 248.079V245.271L10.6336 245.366ZM10.6336 67.7491V70.2103L11.4224 70.4627V67.6544L10.6336 67.7491ZM10.6336 245.366V247.827L11.4224 248.079V245.271L10.6336 245.366ZM10.6336 67.7491V70.2103L11.4224 70.4627V67.6544L10.6336 67.7491ZM10.6336 245.366V247.827L11.4224 248.079V245.271L10.6336 245.366ZM10.6336 67.7491V70.2103L11.4224 70.4627V67.6544L10.6336 67.7491ZM10.6336 245.366V247.827L11.4224 248.079V245.271L10.6336 245.366ZM10.6336 67.7491V70.2103L11.4224 70.4627V67.6544L10.6336 67.7491ZM10.6336 245.366V247.827L11.4224 248.079V245.271L10.6336 245.366ZM10.6336 67.7491V70.2103L11.4224 70.4627V67.6544L10.6336 67.7491ZM10.6336 245.366V247.827L11.4224 248.079V245.271L10.6336 245.366ZM10.6336 67.7491V70.2103L11.4224 70.4627V67.6544L10.6336 67.7491ZM10.6336 245.366V247.827L11.4224 248.079V245.271L10.6336 245.366ZM10.6336 67.7491V70.2103L11.4224 70.4627V67.6544L10.6336 67.7491ZM10.6336 245.366V247.827L11.4224 248.079V245.271L10.6336 245.366ZM10.6336 67.7491V70.2103L11.4224 70.4627V67.6544L10.6336 67.7491ZM10.6336 245.366V247.827L11.4224 248.079V245.271L10.6336 245.366ZM10.6336 67.7491V70.2103L11.4224 70.4627V67.6544L10.6336 67.7491ZM10.6336 245.366V247.827L11.4224 248.079V245.271L10.6336 245.366ZM10.6336 67.7491V70.2103L11.4224 70.4627V67.6544L10.6336 67.7491ZM10.6336 245.366V247.827L11.4224 248.079V245.271L10.6336 245.366ZM10.6336 67.7491V70.2103L11.4224 70.4627V67.6544L10.6336 67.7491ZM10.6336 245.366V247.827L11.4224 248.079V245.271L10.6336 245.366ZM10.6336 67.7491V70.2103L11.4224 70.4627V67.6544L10.6336 67.7491ZM10.6336 245.366V247.827L11.4224 248.079V245.271L10.6336 245.366ZM10.6336 67.7491V70.2103L11.4224 70.4627V67.6544L10.6336 67.7491ZM10.6336 245.366V247.827L11.4224 248.079V245.271L10.6336 245.366ZM10.6336 67.7491V70.2103L11.4224 70.4627V67.6544L10.6336 67.7491ZM10.6336 247.827L11.4224 248.079V245.271H10.6336V247.827ZM10.6336 67.7491V70.2103L11.4224 70.4627V67.6544L10.6336 67.7491ZM396.411 27.7703C394.662 21.6059 390.81 16.2478 385.525 12.6245C383.751 11.3543 381.834 10.2954 379.814 9.46909C376.066 8.08875 372.101 7.39401 368.107 7.41809H35.0563C31.6679 7.41777 28.2942 7.86335 25.0221 8.74335C22.5552 9.37731 20.1642 10.2766 17.891 11.4254C13.6685 13.4965 9.95228 16.4694 7.00488 20.1343C6.40536 20.8916 5.80584 21.6804 5.26942 22.5008C2.67474 26.5983 1.22558 31.3162 1.07275 36.1637C1.07275 36.5423 1.07275 36.921 1.07275 37.3312V280.296C1.07275 281.011 1.07275 281.737 1.07275 282.473C1.13471 283.459 1.2612 284.439 1.4514 285.408C2.05842 288.824 3.22022 292.117 4.89077 295.158C5.3993 296.102 5.95753 297.018 6.56313 297.903C9.67442 302.627 13.8817 306.529 18.8265 309.276C23.7713 312.023 29.3069 313.534 34.9616 313.68H367.981C371.436 313.686 374.861 313.044 378.079 311.787C379.317 311.281 380.518 310.69 381.676 310.02C385.561 307.687 388.916 304.567 391.524 300.861C394.132 297.155 395.937 292.945 396.822 288.5C397.007 287.731 397.144 286.951 397.232 286.165C397.55 284.172 397.708 282.157 397.705 280.138V37.1734C397.711 33.9943 397.276 30.8297 396.411 27.7703ZM11.6433 283.01C11.6102 282.801 11.6102 282.588 11.6433 282.379C11.5953 281.696 11.5953 281.01 11.6433 280.328V37.3627C11.5785 36.5541 11.5785 35.7417 11.6433 34.9331C12.3562 30.2981 14.8603 26.1284 18.6167 23.3212C19.4738 22.678 20.3695 22.0879 21.2988 21.5542C25.4833 19.1429 30.2267 17.87 35.0563 17.8624H367.981C377.258 17.8624 383.758 22.3431 386.219 29.9791C387.006 32.3491 387.39 34.8342 387.355 37.3312V280.296C387.346 282.486 387.081 284.667 386.566 286.796C386.377 287.617 386.125 288.405 385.872 289.163C383.19 297.083 376.911 303.425 367.981 303.425H35.0563C30.3843 303.308 25.8596 301.767 22.0876 299.007C17.1784 295.615 13.6073 290.615 11.9904 284.871C11.8292 284.26 11.7131 283.638 11.6433 283.01ZM10.6336 67.7491V70.2103L11.4224 70.4627V67.6544L10.6336 67.7491ZM10.6336 245.366V247.827L11.4224 248.079V245.271L10.6336 245.366ZM10.6336 67.7491V70.2103L11.4224 70.4627V67.6544L10.6336 67.7491ZM10.6336 245.366V247.827L11.4224 248.079V245.271L10.6336 245.366ZM10.6336 67.7491V70.2103L11.4224 70.4627V67.6544L10.6336 67.7491ZM10.6336 245.366V247.827L11.4224 248.079V245.271L10.6336 245.366ZM10.6336 67.7491V70.2103L11.4224 70.4627V67.6544L10.6336 67.7491ZM10.6336 245.366V247.827L11.4224 248.079V245.271L10.6336 245.366ZM10.6336 67.7491V70.2103L11.4224 70.4627V67.6544L10.6336 67.7491ZM10.6336 245.366V247.827L11.4224 248.079V245.271L10.6336 245.366ZM10.6336 67.7491V70.2103L11.4224 70.4627V67.6544L10.6336 67.7491ZM10.6336 245.366V247.827L11.4224 248.079V245.271L10.6336 245.366ZM10.6336 67.7491V70.2103L11.4224 70.4627V67.6544L10.6336 67.7491ZM10.6336 245.366V247.827L11.4224 248.079V245.271L10.6336 245.366ZM10.6336 67.7491V70.2103L11.4224 70.4627V67.6544L10.6336 67.7491ZM10.6336 245.366V247.827L11.4224 248.079V245.271L10.6336 245.366ZM10.6336 67.7491V70.2103L11.4224 70.4627V67.6544L10.6336 67.7491ZM10.6336 245.366V247.827L11.4224 248.079V245.271L10.6336 245.366ZM10.6336 67.7491V70.2103L11.4224 70.4627V67.6544L10.6336 67.7491ZM10.6336 245.366V247.827L11.4224 248.079V245.271L10.6336 245.366ZM10.6336 67.7491V70.2103L11.4224 70.4627V67.6544L10.6336 67.7491ZM10.6336 245.366V247.827L11.4224 248.079V245.271L10.6336 245.366ZM10.6336 67.7491V70.2103L11.4224 70.4627V67.6544L10.6336 67.7491ZM10.6336 245.366V247.827L11.4224 248.079V245.271L10.6336 245.366ZM10.6336 67.7491V70.2103L11.4224 70.4627V67.6544L10.6336 67.7491ZM10.6336 245.366V247.827L11.4224 248.079V245.271L10.6336 245.366ZM10.6336 67.7491V70.2103L11.4224 70.4627V67.6544L10.6336 67.7491ZM10.6336 245.366V247.827L11.4224 248.079V245.271L10.6336 245.366ZM10.6336 67.7491V70.2103L11.4224 70.4627V67.6544L10.6336 67.7491ZM10.6336 245.366V247.827L11.4224 248.079V245.271L10.6336 245.366ZM10.6336 67.7491V70.2103L11.4224 70.4627V67.6544L10.6336 67.7491ZM10.6336 245.366V247.827L11.4224 248.079V245.271L10.6336 245.366ZM10.6336 67.7491V70.2103L11.4224 70.4627V67.6544L10.6336 67.7491ZM10.6336 245.366V247.827L11.4224 248.079V245.271L10.6336 245.366ZM10.6336 67.7491V70.2103L11.4224 70.4627V67.6544L10.6336 67.7491ZM10.6336 245.366V247.827L11.4224 248.079V245.271L10.6336 245.366ZM10.6336 67.7491V70.2103L11.4224 70.4627V67.6544L10.6336 67.7491ZM10.6336 245.366V247.827L11.4224 248.079V245.271L10.6336 245.366ZM10.6336 67.7491V70.2103L11.4224 70.4627V67.6544L10.6336 67.7491ZM10.6336 245.366V247.827L11.4224 248.079V245.271L10.6336 245.366ZM10.6336 67.7491V70.2103L11.4224 70.4627V67.6544L10.6336 67.7491ZM10.6336 245.366V247.827L11.4224 248.079V245.271L10.6336 245.366ZM10.6336 67.7491V70.2103L11.4224 70.4627V67.6544L10.6336 67.7491ZM10.6336 245.366V247.827L11.4224 248.079V245.271L10.6336 245.366ZM10.6336 67.7491V70.2103L11.4224 70.4627V67.6544L10.6336 67.7491ZM10.6336 245.366V247.827L11.4224 248.079V245.271L10.6336 245.366ZM10.6336 67.7491V70.2103L11.4224 70.4627V67.6544L10.6336 67.7491ZM10.6336 245.366V247.827L11.4224 248.079V245.271L10.6336 245.366ZM10.6336 67.7491V70.2103L11.4224 70.4627V67.6544L10.6336 67.7491ZM10.6336 245.366V247.827L11.4224 248.079V245.271L10.6336 245.366ZM10.6336 67.7491V70.2103L11.4224 70.4627V67.6544L10.6336 67.7491ZM10.6336 245.366V247.827L11.4224 248.079V245.271L10.6336 245.366ZM10.6336 67.7491V70.2103L11.4224 70.4627V67.6544L10.6336 67.7491ZM10.6336 245.366V247.827L11.4224 248.079V245.271L10.6336 245.366Z" fill="#9E4000"/>
<path d="M386.566 268.842V271.555L387.355 270.924V268.873L386.566 268.842ZM252.431 302.415L243.785 301.816L239.999 301.595L236.244 301.374L230.343 301.027L226.714 300.806H225.231L218.195 300.427L214.787 300.238H165.121H165.879L169.255 300.648L171.243 300.901L178.342 301.721L192.479 303.425H266.725C262.055 303.109 257.227 302.731 252.431 302.415ZM386.566 268.842V271.555L387.355 270.924V268.873L386.566 268.842ZM252.431 302.415L243.785 301.816L239.999 301.595L236.244 301.374L230.343 301.027L226.714 300.806H225.231L218.195 300.427L214.787 300.238H165.121H165.879L169.255 300.648L171.243 300.901L178.342 301.721L192.479 303.425H266.725C262.055 303.109 257.227 302.731 252.431 302.415ZM386.566 268.842V271.555L387.355 270.924V268.873L386.566 268.842ZM252.431 302.415L243.785 301.816L239.999 301.595L236.244 301.374L230.343 301.027L226.714 300.806H225.231L218.195 300.427L214.787 300.238H165.121H165.879L169.255 300.648L171.243 300.901L178.342 301.721L192.479 303.425H266.725C262.055 303.109 257.227 302.731 252.431 302.415ZM386.566 268.842V271.555L387.355 270.924V268.873L386.566 268.842ZM252.431 302.415L243.785 301.816L239.999 301.595L236.244 301.374L230.343 301.027L226.714 300.806H225.231L218.195 300.427L214.787 300.238H165.121H165.879L169.255 300.648L171.243 300.901L178.342 301.721L192.479 303.425H266.725C262.055 303.109 257.227 302.731 252.431 302.415ZM386.566 268.842V271.555L387.355 270.924V268.873L386.566 268.842ZM252.431 302.415L243.785 301.816L239.999 301.595L236.244 301.374L230.343 301.027L226.714 300.806H225.231L218.195 300.427L214.787 300.238H165.121H165.879L169.255 300.648L171.243 300.901L178.342 301.721L192.479 303.425H266.725C262.055 303.109 257.227 302.731 252.431 302.415ZM386.566 268.842V271.555L387.355 270.924V268.873L386.566 268.842ZM252.431 302.415L243.785 301.816L239.999 301.595L236.244 301.374L230.343 301.027L226.714 300.806H225.231L218.195 300.427L214.787 300.238H165.121H165.879L169.255 300.648L171.243 300.901L178.342 301.721L192.479 303.425H266.725C262.055 303.109 257.227 302.731 252.431 302.415ZM386.566 268.842V271.555L387.355 270.924V268.873L386.566 268.842ZM252.431 302.415L243.785 301.816L239.999 301.595L236.244 301.374L230.343 301.027L226.714 300.806H225.231L218.195 300.427L214.787 300.238H165.121H165.879L169.255 300.648L171.243 300.901L178.342 301.721L192.479 303.425H266.725C262.055 303.109 257.227 302.731 252.431 302.415ZM386.566 268.842V271.555L387.355 270.924V268.873L386.566 268.842ZM252.431 302.415L243.785 301.816L239.999 301.595L236.244 301.374L230.343 301.027L226.714 300.806H225.231L218.195 300.427L214.787 300.238H165.121H165.879L169.255 300.648L171.243 300.901L178.342 301.721L192.479 303.425H266.725C262.055 303.109 257.227 302.731 252.431 302.415ZM386.566 268.842V271.555L387.355 270.924V268.873L386.566 268.842ZM252.431 302.415L243.785 301.816L239.999 301.595L236.244 301.374L230.343 301.027L226.714 300.806H225.231L218.195 300.427L214.787 300.238H165.121H165.879L169.255 300.648L171.243 300.901L178.342 301.721L192.479 303.425H266.725C262.055 303.109 257.227 302.731 252.431 302.415ZM386.566 268.842V271.555L387.355 270.924V268.873L386.566 268.842ZM252.431 302.415L243.785 301.816L239.999 301.595L236.244 301.374L230.343 301.027L226.714 300.806H225.231L218.195 300.427L214.787 300.238H165.121H165.879L169.255 300.648L171.243 300.901L178.342 301.721L192.479 303.425H266.725C262.055 303.109 257.227 302.731 252.431 302.415ZM386.566 268.842V271.555L387.355 270.924V268.873L386.566 268.842ZM252.431 302.415L243.785 301.816L239.999 301.595L236.244 301.374L230.343 301.027L226.714 300.806H225.231L218.195 300.427L214.787 300.238H165.121H165.879L169.255 300.648L171.243 300.901L178.342 301.721L192.479 303.425H266.725C262.055 303.109 257.227 302.731 252.431 302.415ZM386.566 268.842V271.555L387.355 270.924V268.873L386.566 268.842ZM252.431 302.415L243.785 301.816L239.999 301.595L236.244 301.374L230.343 301.027L226.714 300.806H225.231L218.195 300.427L214.787 300.238H165.121H165.879L169.255 300.648L171.243 300.901L178.342 301.721L192.479 303.425H266.725C262.055 303.109 257.227 302.731 252.431 302.415ZM386.566 268.842V271.555L387.355 270.924V268.873L386.566 268.842ZM252.431 302.415L243.785 301.816L239.999 301.595L236.244 301.374L230.343 301.027L226.714 300.806H225.231L218.195 300.427L214.787 300.238H165.121H165.879L169.255 300.648L171.243 300.901L178.342 301.721L192.479 303.425H266.725C262.055 303.109 257.227 302.731 252.431 302.415ZM386.566 268.842V271.555L387.355 270.924V268.873L386.566 268.842ZM252.431 302.415L243.785 301.816L239.999 301.595L236.244 301.374L230.343 301.027L226.714 300.806H225.231L218.195 300.427L214.787 300.238H165.121H165.879L169.255 300.648L171.243 300.901L178.342 301.721L192.479 303.425H266.725C262.055 303.109 257.227 302.731 252.431 302.415ZM386.566 268.842V271.555L387.355 270.924V268.873L386.566 268.842ZM252.431 302.415L243.785 301.816L239.999 301.595L236.244 301.374L230.343 301.027L226.714 300.806H225.231L218.195 300.427L214.787 300.238H165.121H165.879L169.255 300.648L171.243 300.901L178.342 301.721L192.479 303.425H266.725C262.055 303.109 257.227 302.731 252.431 302.415ZM386.566 268.842V271.555L387.355 270.924V268.873L386.566 268.842ZM252.431 302.415L243.785 301.816L239.999 301.595L236.244 301.374L230.343 301.027L226.714 300.806H225.231L218.195 300.427L214.787 300.238H165.121H165.879L169.255 300.648L171.243 300.901L178.342 301.721L192.479 303.425H266.725C262.055 303.109 257.227 302.731 252.431 302.415ZM386.566 268.842V271.555L387.355 270.924V268.873L386.566 268.842ZM252.431 302.415L243.785 301.816L239.999 301.595L236.244 301.374L230.343 301.027L226.714 300.806H225.231L218.195 300.427L214.787 300.238H165.121H165.879L169.255 300.648L171.243 300.901L178.342 301.721L192.479 303.425H266.725C262.055 303.109 257.227 302.731 252.431 302.415ZM386.566 268.842V271.555L387.355 270.924V268.873L386.566 268.842ZM252.431 302.415L243.785 301.816L239.999 301.595L236.244 301.374L230.343 301.027L226.714 300.806H225.231L218.195 300.427L214.787 300.238H165.121H165.879L169.255 300.648L171.243 300.901L178.342 301.721L192.479 303.425H266.725C262.055 303.109 257.227 302.731 252.431 302.415ZM386.566 268.842V271.555L387.355 270.924V268.873L386.566 268.842ZM252.431 302.415L243.785 301.816L239.999 301.595L236.244 301.374L230.343 301.027L226.714 300.806H225.231L218.195 300.427L214.787 300.238H165.121H165.879L169.255 300.648L171.243 300.901L178.342 301.721L192.479 303.425H266.725C262.055 303.109 257.227 302.731 252.431 302.415ZM386.566 268.842V271.555L387.355 270.924V268.873L386.566 268.842ZM252.431 302.415L243.785 301.816L239.999 301.595L236.244 301.374L230.343 301.027L226.714 300.806H225.231L218.195 300.427L214.787 300.238H165.121H165.879L169.255 300.648L171.243 300.901L178.342 301.721L192.479 303.425H266.725C262.055 303.109 257.227 302.731 252.431 302.415ZM386.566 268.842V271.555L387.355 270.924V268.873L386.566 268.842ZM252.431 302.415L243.785 301.816L239.999 301.595L236.244 301.374L230.343 301.027L226.714 300.806H225.231L218.195 300.427L214.787 300.238H165.121H165.879L169.255 300.648L171.243 300.901L178.342 301.721L192.479 303.425H266.725C262.055 303.109 257.227 302.731 252.431 302.415ZM386.566 268.842V271.555L387.355 270.924V268.873L386.566 268.842ZM252.431 302.415L243.785 301.816L239.999 301.595L236.244 301.374L230.343 301.027L226.714 300.806H225.231L218.195 300.427L214.787 300.238H165.121H165.879L169.255 300.648L171.243 300.901L178.342 301.721L192.479 303.425H266.725C262.055 303.109 257.227 302.731 252.431 302.415ZM386.566 268.842V271.555L387.355 270.924V268.873L386.566 268.842ZM252.431 302.415L243.785 301.816L239.999 301.595L236.244 301.374L230.343 301.027L226.714 300.806H225.231L218.195 300.427L214.787 300.238H165.121H165.879L169.255 300.648L171.243 300.901L178.342 301.721L192.479 303.425H266.725C262.055 303.109 257.227 302.731 252.431 302.415ZM386.566 268.842V271.555L387.355 270.924V268.873L386.566 268.842ZM252.431 302.415L243.785 301.816L239.999 301.595L236.244 301.374L230.343 301.027L226.714 300.806H225.231L218.195 300.427L214.787 300.238H165.121H165.879L169.255 300.648L171.243 300.901L178.342 301.721L192.479 303.425H266.725C262.055 303.109 257.227 302.731 252.431 302.415ZM386.566 268.842V271.555L387.355 270.924V268.873L386.566 268.842ZM252.431 302.415L243.785 301.816L239.999 301.595L236.244 301.374L230.343 301.027L226.714 300.806H225.231L218.195 300.427L214.787 300.238H165.121H165.879L169.255 300.648L171.243 300.901L178.342 301.721L192.479 303.425H266.725C262.055 303.109 257.227 302.731 252.431 302.415ZM386.566 268.842V271.555L387.355 270.924V268.873L386.566 268.842ZM252.431 302.415L243.785 301.816L239.999 301.595L236.244 301.374L230.343 301.027L226.714 300.806H225.231L218.195 300.427L214.787 300.238H165.121H165.879L169.255 300.648L171.243 300.901L178.342 301.721L192.479 303.425H266.725C262.055 303.109 257.227 302.731 252.431 302.415ZM386.566 268.842V271.555L387.355 270.924V268.873L386.566 268.842ZM252.431 302.415L243.785 301.816L239.999 301.595L236.244 301.374L230.343 301.027L226.714 300.806H225.231L218.195 300.427L214.787 300.238H165.121H165.879L169.255 300.648L171.243 300.901L178.342 301.721L192.479 303.425H266.725C262.055 303.109 257.227 302.731 252.431 302.415ZM386.566 268.842V271.555L387.355 270.924V268.873L386.566 268.842ZM252.431 302.415L243.785 301.816L239.999 301.595L236.244 301.374L230.343 301.027L226.714 300.806H225.231L218.195 300.427L214.787 300.238H165.121H165.879L169.255 300.648L171.243 300.901L178.342 301.721L192.479 303.425H266.725C262.055 303.109 257.227 302.731 252.431 302.415ZM246.12 302.415H244.795H244.479H242.87H241.892L225.642 301.216H225.168L221.603 300.901L218.447 300.648H213.872L259.941 303.804H261.487L246.12 302.415ZM246.12 302.415H244.795H244.479H242.87H241.892L225.642 301.216H225.168L221.603 300.901L218.447 300.648H213.872L259.941 303.804H261.487L246.12 302.415ZM246.12 302.415H244.795H244.479H242.87H241.892L225.642 301.216H225.168L221.603 300.901L218.447 300.648H213.872L259.941 303.804H261.487L246.12 302.415ZM246.12 302.415H244.795H244.479H242.87H241.892L225.642 301.216H225.168L221.603 300.901L218.447 300.648H213.872L259.941 303.804H261.487L246.12 302.415ZM246.12 302.415H244.795H244.479H242.87H241.892L225.642 301.216H225.168L221.603 300.901L218.447 300.648H213.872L259.941 303.804H261.487L246.12 302.415ZM246.12 302.415H244.795H244.479H242.87H241.892L225.642 301.216H225.168L221.603 300.901L218.447 300.648H213.872L259.941 303.804H261.487L246.12 302.415ZM246.12 302.415H244.795H244.479H242.87H241.892L225.642 301.216H225.168L221.603 300.901L218.447 300.648H213.872L259.941 303.804H261.487L246.12 302.415ZM246.12 302.415H244.795H244.479H242.87H241.892L225.642 301.216H225.168L221.603 300.901L218.447 300.648H213.872L259.941 303.804H261.487L246.12 302.415ZM396.411 27.8964C395.625 23.5236 393.867 19.383 391.268 15.7797C390.657 14.9004 389.982 14.0672 389.249 13.287C388.283 12.2577 387.227 11.3178 386.093 10.4787C380.646 6.3757 373.979 4.22007 367.161 4.35724H34.2358C27.5034 4.34996 20.8873 6.11279 15.0511 9.46897C13.765 10.2263 12.5316 11.0696 11.3593 11.9933C8.3596 14.2441 5.82074 17.0508 3.881 20.2604C3.41468 21.0406 3.00348 21.8525 2.6504 22.69C1.03965 26.2476 0.2214 30.1128 0.252309 34.0179V276.983C0.252309 277.992 0.252309 278.971 0.410078 279.917C0.474508 280.736 0.601089 281.548 0.788725 282.347C0.788725 282.978 1.04116 283.641 1.19893 284.272C1.35669 284.903 1.38825 284.966 1.51446 285.345C2.58343 288.966 4.25847 292.38 6.46842 295.442C7.19416 296.42 7.95146 297.398 8.7403 298.313C8.87956 298.468 9.02703 298.616 9.18206 298.755L9.9709 299.67L10.4127 300.08C16.6688 306.554 25.2346 310.287 34.2358 310.461H368.896C371.205 310.31 373.485 309.865 375.68 309.136C380.104 307.583 384.112 305.033 387.395 301.685C390.678 298.337 393.147 294.279 394.613 289.825C394.613 289.478 394.834 289.163 394.928 288.847C395.023 288.531 394.928 288.847 394.928 288.689C395.181 287.911 395.402 287.122 395.591 286.323C396.377 283.229 396.77 280.048 396.758 276.857V33.8917C396.816 31.845 396.7 29.7972 396.411 27.7702V27.8964ZM386.566 277.172C386.553 280.571 385.922 283.939 384.705 287.112C384.395 287.937 384.026 288.738 383.6 289.51C383.451 289.835 383.283 290.151 383.096 290.456C381.598 293.363 379.34 295.808 376.561 297.531C373.782 299.254 370.588 300.189 367.319 300.238H34.2358C29.7312 299.996 25.3738 298.551 21.6169 296.054C17.86 293.557 14.841 290.098 12.8739 286.039C12.6964 285.712 12.5383 285.375 12.4006 285.029V284.84C12.1334 284.269 11.9118 283.678 11.7379 283.073C11.6503 282.867 11.5766 282.657 11.517 282.442C11.006 280.699 10.7405 278.893 10.7282 277.077V34.1125C10.6759 29.9472 12.1714 25.9106 14.9249 22.7847C15.5604 22.0545 16.2457 21.3692 16.9759 20.7337C21.8092 16.6679 27.9198 14.4337 34.2358 14.4229H367.192C377.731 14.4229 384.736 20.2288 386.125 29.8528C386.372 31.1845 386.489 32.5373 386.472 33.8917L386.566 277.172ZM246.12 302.289H244.795H244.479H242.87H241.892L225.642 301.09H225.168L221.603 300.774L218.447 300.522H213.872L259.941 303.677H261.487L246.12 302.289ZM246.12 302.289H244.795H244.479H242.87H241.892L225.642 301.09H225.168L221.603 300.774L218.447 300.522H213.872L259.941 303.677H261.487L246.12 302.289ZM246.12 302.289H244.795H244.479H242.87H241.892L225.642 301.09H225.168L221.603 300.774L218.447 300.522H213.872L259.941 303.677H261.487L246.12 302.289ZM246.12 302.289H244.795H244.479H242.87H241.892L225.642 301.09H225.168L221.603 300.774L218.447 300.522H213.872L259.941 303.677H261.487L246.12 302.289ZM246.12 302.289H244.795H244.479H242.87H241.892L225.642 301.09H225.168L221.603 300.774L218.447 300.522H213.872L259.941 303.677H261.487L246.12 302.289ZM246.12 302.289H244.795H244.479H242.87H241.892L225.642 301.09H225.168L221.603 300.774L218.447 300.522H213.872L259.941 303.677H261.487L246.12 302.289ZM246.12 302.289H244.795H244.479H242.87H241.892L225.642 301.09H225.168L221.603 300.774L218.447 300.522H213.872L259.941 303.677H261.487L246.12 302.289ZM246.12 302.289H244.795H244.479H242.87H241.892L225.642 301.09H225.168L221.603 300.774L218.447 300.522H213.872L259.941 303.677H261.487L246.12 302.289ZM252.431 302.289L243.785 301.689L239.999 301.469L236.244 301.248L230.343 301.027L226.714 300.806H225.231L218.195 300.427L214.787 300.238H165.121H165.879L169.255 300.648L171.243 300.901L178.342 301.721L192.479 303.425H266.725C262.055 303.109 257.227 302.731 252.431 302.415V302.289ZM252.431 302.289L243.785 301.689L239.999 301.469L236.244 301.248L230.343 301.027L226.714 300.806H225.231L218.195 300.427L214.787 300.238H165.121H165.879L169.255 300.648L171.243 300.901L178.342 301.721L192.479 303.425H266.725C262.055 303.109 257.227 302.731 252.431 302.415V302.289ZM386.566 268.842V271.555L387.355 270.924V268.873L386.566 268.842ZM252.431 302.415L243.785 301.816L239.999 301.595L236.244 301.374L230.343 301.027L226.714 300.806H225.231L218.195 300.427L214.787 300.238H165.121H165.879L169.255 300.648L171.243 300.901L178.342 301.721L192.479 303.425H266.725C262.055 303.109 257.227 302.731 252.431 302.415ZM386.566 268.842V271.555L387.355 270.924V268.873L386.566 268.842ZM252.431 302.415L243.785 301.816L239.999 301.595L236.244 301.374L230.343 301.027L226.714 300.806H225.231L218.195 300.427L214.787 300.238H165.121H165.879L169.255 300.648L171.243 300.901L178.342 301.721L192.479 303.425H266.725C262.055 303.109 257.227 302.731 252.431 302.415ZM386.566 268.842V271.555L387.355 270.924V268.873L386.566 268.842ZM252.431 302.415L243.785 301.816L239.999 301.595L236.244 301.374L230.343 301.027L226.714 300.806H225.231L218.195 300.427L214.787 300.238H165.121H165.879L169.255 300.648L171.243 300.901L178.342 301.721L192.479 303.425H266.725C262.055 303.109 257.227 302.731 252.431 302.415ZM386.566 268.842V271.555L387.355 270.924V268.873L386.566 268.842ZM252.431 302.415L243.785 301.816L239.999 301.595L236.244 301.374L230.343 301.027L226.714 300.806H225.231L218.195 300.427L214.787 300.238H165.121H165.879L169.255 300.648L171.243 300.901L178.342 301.721L192.479 303.425H266.725C262.055 303.109 257.227 302.731 252.431 302.415ZM386.566 268.842V271.555L387.355 270.924V268.873L386.566 268.842ZM252.431 302.415L243.785 301.816L239.999 301.595L236.244 301.374L230.343 301.027L226.714 300.806H225.231L218.195 300.427L214.787 300.238H165.121H165.879L169.255 300.648L171.243 300.901L178.342 301.721L192.479 303.425H266.725C262.055 303.109 257.227 302.731 252.431 302.415ZM386.566 268.842V271.555L387.355 270.924V268.873L386.566 268.842ZM252.431 302.415L243.785 301.816L239.999 301.595L236.244 301.374L230.343 301.027L226.714 300.806H225.231L218.195 300.427L214.787 300.238H165.121H165.879L169.255 300.648L171.243 300.901L178.342 301.721L192.479 303.425H266.725C262.055 303.109 257.227 302.731 252.431 302.415ZM386.566 268.842V271.555L387.355 270.924V268.873L386.566 268.842ZM252.431 302.415L243.785 301.816L239.999 301.595L236.244 301.374L230.343 301.027L226.714 300.806H225.231L218.195 300.427L214.787 300.238H165.121H165.879L169.255 300.648L171.243 300.901L178.342 301.721L192.479 303.425H266.725C262.055 303.109 257.227 302.731 252.431 302.415ZM386.566 268.842V271.555L387.355 270.924V268.873L386.566 268.842ZM252.431 302.415L243.785 301.816L239.999 301.595L236.244 301.374L230.343 301.027L226.714 300.806H225.231L218.195 300.427L214.787 300.238H165.121H165.879L169.255 300.648L171.243 300.901L178.342 301.721L192.479 303.425H266.725C262.055 303.109 257.227 302.731 252.431 302.415ZM386.566 268.842V271.555L387.355 270.924V268.873L386.566 268.842ZM252.431 302.415L243.785 301.816L239.999 301.595L236.244 301.374L230.343 301.027L226.714 300.806H225.231L218.195 300.427L214.787 300.238H165.121H165.879L169.255 300.648L171.243 300.901L178.342 301.721L192.479 303.425H266.725C262.055 303.109 257.227 302.731 252.431 302.415ZM386.566 268.842V271.555L387.355 270.924V268.873L386.566 268.842ZM252.431 302.415L243.785 301.816L239.999 301.595L236.244 301.374L230.343 301.027L226.714 300.806H225.231L218.195 300.427L214.787 300.238H165.121H165.879L169.255 300.648L171.243 300.901L178.342 301.721L192.479 303.425H266.725C262.055 303.109 257.227 302.731 252.431 302.415ZM386.566 268.842V271.555L387.355 270.924V268.873L386.566 268.842ZM252.431 302.415L243.785 301.816L239.999 301.595L236.244 301.374L230.343 301.027L226.714 300.806H225.231L218.195 300.427L214.787 300.238H165.121H165.879L169.255 300.648L171.243 300.901L178.342 301.721L192.479 303.425H266.725C262.055 303.109 257.227 302.731 252.431 302.415ZM386.566 268.842V271.555L387.355 270.924V268.873L386.566 268.842ZM252.431 302.415L243.785 301.816L239.999 301.595L236.244 301.374L230.343 301.027L226.714 300.806H225.231L218.195 300.427L214.787 300.238H165.121H165.879L169.255 300.648L171.243 300.901L178.342 301.721L192.479 303.425H266.725C262.055 303.109 257.227 302.731 252.431 302.415ZM386.566 268.842V271.555L387.355 270.924V268.873L386.566 268.842ZM252.431 302.415L243.785 301.816L239.999 301.595L236.244 301.374L230.343 301.027L226.714 300.806H225.231L218.195 300.427L214.787 300.238H165.121H165.879L169.255 300.648L171.243 300.901L178.342 301.721L192.479 303.425H266.725C262.055 303.109 257.227 302.731 252.431 302.415ZM386.566 268.842V271.555L387.355 270.924V268.873L386.566 268.842ZM252.431 302.415L243.785 301.816L239.999 301.595L236.244 301.374L230.343 301.027L226.714 300.806H225.231L218.195 300.427L214.787 300.238H165.121H165.879L169.255 300.648L171.243 300.901L178.342 301.721L192.479 303.425H266.725C262.055 303.109 257.227 302.731 252.431 302.415ZM386.566 268.842V271.555L387.355 270.924V268.873L386.566 268.842ZM252.431 302.415L243.785 301.816L239.999 301.595L236.244 301.374L230.343 301.027L226.714 300.806H225.231L218.195 300.427L214.787 300.238H165.121H165.879L169.255 300.648L171.243 300.901L178.342 301.721L192.479 303.425H266.725C262.055 303.109 257.227 302.731 252.431 302.415ZM386.566 268.842V271.555L387.355 270.924V268.873L386.566 268.842ZM252.431 302.415L243.785 301.816L239.999 301.595L236.244 301.374L230.343 301.027L226.714 300.806H225.231L218.195 300.427L214.787 300.238H165.121H165.879L169.255 300.648L171.243 300.901L178.342 301.721L192.479 303.425H266.725C262.055 303.109 257.227 302.731 252.431 302.415ZM386.566 268.842V271.555L387.355 270.924V268.873L386.566 268.842ZM252.431 302.415L243.785 301.816L239.999 301.595L236.244 301.374L230.343 301.027L226.714 300.806H225.231L218.195 300.427L214.787 300.238H165.121H165.879L169.255 300.648L171.243 300.901L178.342 301.721L192.479 303.425H266.725C262.055 303.109 257.227 302.731 252.431 302.415ZM386.566 268.842V271.555L387.355 270.924V268.873L386.566 268.842ZM252.431 302.415L243.785 301.816L239.999 301.595L236.244 301.374L230.343 301.027L226.714 300.806H225.231L218.195 300.427L214.787 300.238H165.121H165.879L169.255 300.648L171.243 300.901L178.342 301.721L192.479 303.425H266.725C262.055 303.109 257.227 302.731 252.431 302.415ZM386.566 268.842V271.555L387.355 270.924V268.873L386.566 268.842ZM252.431 302.415L243.785 301.816L239.999 301.595L236.244 301.374L230.343 301.027L226.714 300.806H225.231L218.195 300.427L214.787 300.238H165.121H165.879L169.255 300.648L171.243 300.901L178.342 301.721L192.479 303.425H266.725C262.055 303.109 257.227 302.731 252.431 302.415ZM386.566 268.842V271.555L387.355 270.924V268.873L386.566 268.842ZM252.431 302.415L243.785 301.816L239.999 301.595L236.244 301.374L230.343 301.027L226.714 300.806H225.231L218.195 300.427L214.787 300.238H165.121H165.879L169.255 300.648L171.243 300.901L178.342 301.721L192.479 303.425H266.725C262.055 303.109 257.227 302.731 252.431 302.415ZM386.566 268.842V271.555L387.355 270.924V268.873L386.566 268.842ZM252.431 302.415L243.785 301.816L239.999 301.595L236.244 301.374L230.343 301.027L226.714 300.806H225.231L218.195 300.427L214.787 300.238H165.121H165.879L169.255 300.648L171.243 300.901L178.342 301.721L192.479 303.425H266.725C262.055 303.109 257.227 302.731 252.431 302.415ZM386.566 268.842V271.555L387.355 270.924V268.873L386.566 268.842ZM252.431 302.415L243.785 301.816L239.999 301.595L236.244 301.374L230.343 301.027L226.714 300.806H225.231L218.195 300.427L214.787 300.238H165.121H165.879L169.255 300.648L171.243 300.901L178.342 301.721L192.479 303.425H266.725C262.055 303.109 257.227 302.731 252.431 302.415ZM386.566 268.842V271.555L387.355 270.924V268.873L386.566 268.842ZM252.431 302.415L243.785 301.816L239.999 301.595L236.244 301.374L230.343 301.027L226.714 300.806H225.231L218.195 300.427L214.787 300.238H165.121H165.879L169.255 300.648L171.243 300.901L178.342 301.721L192.479 303.425H266.725C262.055 303.109 257.227 302.731 252.431 302.415ZM386.566 268.842V271.555L387.355 270.924V268.873L386.566 268.842ZM252.431 302.415L243.785 301.816L239.999 301.595L236.244 301.374L230.343 301.027L226.714 300.806H225.231L218.195 300.427L214.787 300.238H165.121H165.879L169.255 300.648L171.243 300.901L178.342 301.721L192.479 303.425H266.725C262.055 303.109 257.227 302.731 252.431 302.415ZM386.566 268.842V271.555L387.355 270.924V268.873L386.566 268.842ZM252.431 302.415L243.785 301.816L239.999 301.595L236.244 301.374L230.343 301.027L226.714 300.806H225.231L218.195 300.427L214.787 300.238H165.121H165.879L169.255 300.648L171.243 300.901L178.342 301.721L192.479 303.425H266.725C262.055 303.109 257.227 302.731 252.431 302.415ZM386.566 268.842V271.555L387.355 270.924V268.873L386.566 268.842ZM252.431 302.415L243.785 301.816L239.999 301.595L236.244 301.374L230.343 301.027L226.714 300.806H225.231L218.195 300.427L214.787 300.238H165.121H165.879L169.255 300.648L171.243 300.901L178.342 301.721L192.479 303.425H266.725C262.055 303.109 257.227 302.731 252.431 302.415ZM386.566 268.842V271.555L387.355 270.924V268.873L386.566 268.842Z" fill="url(#paint1_linear_24_40181)"/>
<g opacity="0.5">
<path d="M365.488 4.64154H34.1728C17.6701 4.64154 0.820312 15.3699 0.820312 33.9551V36.7318C0.820312 18.1466 17.6701 6.69254 34.299 6.69254H365.615C369.593 6.55062 373.559 7.23126 377.262 8.6919C380.966 10.1525 384.328 12.3617 387.139 15.1813C389.949 18.0009 392.148 21.3701 393.597 25.0782C395.046 28.7864 395.714 32.7537 395.559 36.7318V33.9551C395.433 16.4742 382.906 4.64154 365.488 4.64154Z" fill="#FFFDF5"/>
</g>
<g style="mix-blend-mode:multiply" opacity="0.6">
<path d="M21.2987 21.5544C20.3695 22.0881 19.4738 22.6782 18.6167 23.3214C17.3545 23.1005 16.1239 22.9427 14.9248 22.785C11.7176 22.4541 8.49047 22.3591 5.26936 22.501L2.65039 22.6903C3.00346 21.8527 3.41467 21.0409 3.88099 20.2606H7.03638C10.3711 20.1716 13.7073 20.3722 17.0074 20.8602C18.4486 21.0196 19.8808 21.2512 21.2987 21.5544Z" fill="#C97B3A"/>
<path d="M11.58 34.9017C11.5152 35.7103 11.5152 36.5228 11.58 37.3314L10.7912 37.5207C8.15591 38.1565 5.45582 38.4847 2.74495 38.4989H0.252197V36.1323H1.0726C4.26046 36.2627 7.45012 35.9224 10.5388 35.1226L11.58 34.9017Z" fill="#C97B3A"/>
<path d="M11.4223 43.9579V46.2929L10.6334 46.2613L1.04104 46.1035H0.252197V43.7686H1.04104L10.6334 43.9579H11.4223Z" fill="#C97B3A"/>
<path d="M11.4223 58.6933V61.0598L10.6334 60.902L1.04104 58.851L0.252197 58.6933V56.3267L1.04104 56.4845L10.6334 58.5039L11.4223 58.6933Z" fill="#C97B3A"/>
<path d="M10.6334 67.7488L5.80568 68.3483C7.19405 68.9163 8.96107 69.6105 10.6334 70.21L11.4223 70.4624V72.9236L10.6334 72.5765C7.47303 71.5367 4.37556 70.3146 1.35658 68.9163H1.04104H0.252197V66.5813H1.04104L10.5072 65.3823H11.2961V67.7488H10.6334Z" fill="#C97B3A"/>
<path d="M11.4223 88.3858V90.7208L10.6334 90.6577L1.04104 90.1844L0.252197 90.1213V87.8179L1.04104 87.8494L10.6334 88.3543L11.4223 88.3858Z" fill="#C97B3A"/>
<path d="M11.4223 173.234V175.538L10.6334 175.38L1.04104 173.361L0.252197 173.203V170.868L1.04104 171.026L10.6334 173.045L11.4223 173.234Z" fill="#C97B3A"/>
<path d="M10.6334 204.346L5.80568 205.103C7.19405 205.671 8.96107 206.334 10.6334 206.965L11.4223 207.217V209.647L10.6334 209.394C7.4706 208.276 4.3734 206.981 1.35658 205.513H1.04104H0.252197V203.147H1.04104L10.5072 201.948H11.2961V204.283L10.6334 204.346Z" fill="#C97B3A"/>
<path d="M11.4223 234.449V236.784L10.6334 236.72L1.04104 236.216L0.252197 236.184V233.849L1.04104 233.912L10.6334 234.417L11.4223 234.449Z" fill="#C97B3A"/>
<path d="M11.4225 166.86V169.195H10.6337C8.23558 169.448 4.76465 169.763 1.16751 169.984H0.378662V167.649H1.16751C4.92242 167.428 8.36179 167.113 10.6337 166.86H11.4225Z" fill="#C97B3A"/>
<path d="M11.4225 126.85V129.153H10.6337C7.88849 129.153 4.48067 128.901 1.16751 128.617H0.378662V126.219H1.16751C4.60688 126.534 8.0147 126.692 10.6337 126.787L11.4225 126.85Z" fill="#C97B3A"/>
<path d="M11.6433 260.922C11.833 261.592 12.0756 262.247 12.3691 262.878C12.2433 262.864 12.1162 262.864 11.9904 262.878L1.1359 260.417H0.788803C0.601167 259.618 0.474586 258.806 0.410156 257.988H1.04123C3.69176 258.556 7.35201 259.313 11.4225 260.259C11.457 260.492 11.5318 260.716 11.6433 260.922Z" fill="#C97B3A"/>
<path d="M116.749 313.869H110.438L101.572 310.714C95.7027 308.537 88.9502 306.012 82.0399 303.614L72.5737 300.459H79.7996L89.0449 303.614C96.176 306.202 103.023 308.757 108.261 310.714L116.749 313.869Z" fill="#C97B3A"/>
<path d="M92.7681 313.87H85.4791C82.0082 312.734 78.1586 311.566 74.1828 310.714C68.6483 309.216 63.0034 308.161 57.3015 307.559C40.9591 305.399 24.7476 302.344 8.74008 298.408L6.62597 297.935C6.02037 297.05 5.46214 296.134 4.95361 295.19C5.46422 295.279 5.96978 295.395 6.4682 295.537C10.5071 296.452 15.9344 297.714 21.9927 299.008C29.471 300.585 37.7696 302.163 45.2164 303.457C49.7286 304.214 53.9568 304.782 57.4908 305.129C66.0651 306.092 74.5216 307.91 82.7339 310.556C86.4257 311.692 89.8335 312.828 92.7681 313.87Z" fill="#C97B3A"/>
<path d="M161.587 313.87H159.252L158.874 311.756L155.434 310.557L135.145 303.457L125.742 300.175H132.747L142.119 303.457L160.893 310.052L160.988 310.557L161.587 313.87Z" fill="#C97B3A"/>
<path d="M381.802 310.21C380.645 310.88 379.443 311.471 378.205 311.977C375.302 311.472 372.115 310.967 369.023 310.525C365.867 310.052 362.712 309.642 360.314 309.452C357.158 309.168 350.848 308.853 341.949 308.411C330.054 307.811 313.93 307.023 296.417 305.824C291.716 307.054 282.092 308.758 270.606 310.557C263.664 311.629 256.028 312.797 248.518 313.712H231.511L245.142 311.819L232.836 310.399C215.608 308.411 191.28 305.476 173.105 303.299L148.303 300.491V300.175H165.216H165.973L169.35 300.586L171.338 300.838L178.437 301.658L192.573 303.362C216.586 306.234 243.06 309.358 251.579 310.241V310.462V310.967L255.018 310.462C267.64 308.6 279.946 306.676 288.182 305.129C283.038 304.751 277.8 304.309 272.405 303.867L266.725 303.362C262.055 303.015 257.259 302.637 252.399 302.321L243.754 301.722L239.967 301.501L236.212 301.28L230.343 301.027L225.232 300.743L218.195 300.365L214.787 300.175H253.977C260.288 300.617 266.599 301.09 272.626 301.627C280.514 302.321 288.402 302.921 296.038 303.457H296.259C313.835 304.656 329.99 305.476 341.918 306.076C350.69 306.518 357.064 306.833 360.345 307.117C364.542 307.496 370.379 308.348 375.68 309.168L381.802 310.21Z" fill="#C97B3A"/>
<path d="M397.232 286.407C397.144 287.193 397.007 287.973 396.821 288.742H395.118C392.215 288.742 389.091 288.994 385.872 289.183L383.6 289.341C384.026 288.57 384.395 287.768 384.705 286.943H386.566C389.722 286.754 392.877 286.596 395.78 286.501L397.232 286.407Z" fill="#C97B3A"/>
<path d="M397.579 252.737V255.072H396.821H393.477C392.246 255.924 389.659 257.943 387.166 259.963L386.377 260.594V257.628L387.166 256.997L389.753 254.946H386.377V252.642H387.166C390.321 252.642 393.855 252.642 396.632 252.895L397.579 252.737Z" fill="#C97B3A"/>
<path d="M397.579 169.678V171.982H396.822C394.708 171.982 390.984 171.761 387.355 171.729H386.567V169.394H387.355C391.11 169.394 394.802 169.584 396.822 169.647L397.579 169.678Z" fill="#C97B3A"/>
<path d="M397.579 214.189V216.556H396.822C393.693 215.928 390.533 215.464 387.355 215.167H386.567V212.864H387.355C390.534 213.139 393.694 213.592 396.822 214.221L397.579 214.189Z" fill="#C97B3A"/>
<path d="M396.947 105.677C397.199 105.647 397.453 105.647 397.705 105.677V107.981H396.947C394.518 107.981 390.826 107.981 387.481 108.17H386.692V105.835H387.481C390.826 105.709 394.423 105.677 396.947 105.677Z" fill="#C97B3A"/>
<path d="M397.579 94.1915V96.8736L396.822 97.3154C393.288 99.3033 389.943 101.26 387.355 102.932L386.567 103.437V100.66L387.355 100.187C389.785 98.7037 392.941 96.8736 396.822 94.6333C397.087 94.5099 397.341 94.362 397.579 94.1915Z" fill="#C97B3A"/>
<path d="M389.186 13.0979C387.987 12.9086 386.756 12.7193 385.525 12.593C369.08 10.9106 352.537 10.3729 336.017 10.9838V10.7945C331.726 12.2459 328.192 13.6343 325.857 14.5494L322.702 15.8115L322.134 14.5494L321.85 13.6659C322.481 13.3819 329.107 10.5105 338.447 7.35509C342.013 6.21916 345.988 5.05166 350.153 4.19971H361.986C356.879 5.01943 351.823 6.12556 346.84 7.51286L343.464 8.45948C355.548 8.18543 367.638 8.52243 379.688 9.4692C381.865 9.69008 383.979 9.91096 385.999 10.1949C387.148 11.0625 388.215 12.0343 389.186 13.0979Z" fill="#C97B3A"/>
<path d="M397.579 44.4625V46.9237L396.822 47.2077C393.737 48.2258 390.57 48.9753 387.355 49.448H386.567V47.3339H387.355C390.567 46.8345 393.733 46.0747 396.822 45.062L397.579 44.4625Z" fill="#C97B3A"/>
<path d="M397.579 40.6447V43.0112L396.822 42.8219L387.355 40.55C387.089 40.5018 386.826 40.4386 386.567 40.3607V37.8679L387.355 38.0572L396.822 40.3291L397.579 40.6447Z" fill="#C97B3A"/>
<path d="M397.579 57.0212V59.3562H396.822L387.355 58.5042H386.567V56.1693H387.355C390.511 56.4217 393.666 56.7057 396.822 57.0212H397.579Z" fill="#C97B3A"/>
<path d="M397.579 70.8421V73.2086L396.822 73.3664C393.666 74.1237 390.511 75.0388 387.355 75.9223L386.567 76.1116V73.7135L387.355 73.4926C390.511 72.6722 393.887 71.7256 396.822 70.9999L397.579 70.8421Z" fill="#C97B3A"/>
<path d="M121.514 6.94543V9.24887C109.397 9.24887 31.8061 10.7635 17.8908 11.4892L11.3276 11.8363C12.5046 10.9668 13.7379 10.1762 15.0194 9.46974L24.9905 8.96488C33.5416 8.55468 44.7432 8.01827 54.8089 7.63962C63.1076 7.16631 116.749 6.94543 121.514 6.94543Z" fill="#C97B3A"/>
</g>
<g style="mix-blend-mode:overlay" opacity="0.5">
<path d="M12.8109 25.6561C13.385 24.6094 14.0959 23.6437 14.925 22.7847C11.7266 22.3374 8.48873 22.2422 5.26953 22.5008C11.4541 22.5639 12.8109 25.6561 12.8109 25.6561Z" fill="#FFDE55"/>
<path d="M69.0712 9.21667L15.9976 11.9303C15.9976 11.9303 31.5221 11.9303 43.7019 11.5517C52.1953 11.2478 60.665 10.4683 69.0712 9.21667Z" fill="#FFDE55"/>
<path d="M8.17222 38.183C5.55238 38.5868 2.89423 38.6821 0.252197 38.467V43.768L1.23037 39.5398C3.58474 39.3269 5.91094 38.8722 8.17222 38.183Z" fill="#FFDE55"/>
<path d="M10.6337 47.7118V46.5443C6.97341 46.5443 1.45148 46.1341 0.252431 46.071H0L0.157769 47.0176L10.6337 47.7118Z" fill="#FFDE55"/>
<path d="M10.6334 60.9644C5.61636 60.1125 0.252197 58.6926 0.252197 58.6926V60.3018L10.6334 62.0373V60.9644Z" fill="#FFDE55"/>
<path d="M10.6334 72.5767C6.87851 71.283 1.98766 69.0742 1.98766 69.0742H0.252197V70.3364C1.22396 70.2705 2.20018 70.3341 3.15515 70.5257C4.54352 70.8728 8.046 72.2927 10.6334 73.334V72.5767Z" fill="#FFDE55"/>
<path d="M10.6334 90.7829L0.252197 90.3412V91.3194C3.69405 91.7705 7.16214 91.9919 10.6334 91.982V90.7829Z" fill="#FFDE55"/>
<path d="M10.6334 129.374C7.25716 129.121 2.42941 128.648 0.252197 128.427V129.374C2.39786 129.626 7.1625 129.973 10.6334 130.194V129.374Z" fill="#FFDE55"/>
<path d="M10.6334 175.316L0.252197 173.486V174.275L10.6334 176.358V175.316Z" fill="#FFDE55"/>
<path d="M0.252197 207.059C0.940849 207.044 1.629 207.107 2.3032 207.248C3.28137 207.469 7.32027 208.731 10.6334 209.804V209.047C7.463 208.085 4.36325 206.904 1.35658 205.513L0.252197 205.828V207.059Z" fill="#FFDE55"/>
<path d="M5.5848 237.256L10.6334 237.666V236.846C7.47803 236.846 2.11388 236.278 0.252197 236.089V237.161C1.70368 237.13 3.69157 237.13 5.5848 237.256Z" fill="#FFDE55"/>
<path d="M12.4006 262.878V262.689C8.23553 261.9 2.39807 260.638 0.788818 260.354C0.788818 260.985 1.04125 261.648 1.19902 262.279C2.50012 262.151 3.8106 262.151 5.1117 262.279C7.75398 262.504 10.3599 263.044 12.874 263.888C12.6965 263.561 12.5384 263.224 12.4006 262.878Z" fill="#FFDE55"/>
<path d="M39.0636 305.034C30.2917 303.583 9.05591 298.724 9.05591 298.724L10.4127 300.049C10.4127 300.049 18.4905 302.005 22.3716 303.204C26.2528 304.403 46.1002 307.18 52.3794 307.843C58.6586 308.505 67.3359 310.556 67.3359 310.556L73.6467 310.367C73.6467 310.367 60.4256 307.559 58.9741 307.559C57.5227 307.559 47.8356 306.454 39.0636 305.034Z" fill="#FFDE55"/>
<path d="M71.9742 300.175H68.0615C77.5277 303.078 96.6178 309.894 98.4479 310.556H98.6057H101.351C101.351 310.556 87.1201 305.508 82.4185 303.772C78.8845 302.415 73.899 300.806 71.9742 300.175Z" fill="#FFDE55"/>
<path d="M127.383 300.175H125.427C131.738 302.825 150.133 309.641 153.1 310.556H153.51H155.434C155.434 310.556 145.716 306.77 140.099 305.192C135.75 303.815 131.501 302.139 127.383 300.175Z" fill="#FFDE55"/>
<path d="M219.71 308.978C214.819 308.505 177.522 304.34 168.561 302.983C162.566 302.068 152.784 300.869 146.883 300.175H141.992C150.133 302.415 180.551 305.571 190.743 306.486C199.768 307.338 217.501 309.641 223.275 310.461L225.168 310.714L231.953 310.525H231.605C230.028 310.335 224.033 309.389 219.71 308.978Z" fill="#FFDE55"/>
<path d="M225.169 300.743H225.642L244.574 302.131L218.511 300.143L225.169 300.743Z" fill="#FFDE55"/>
<path d="M263.065 303.457C257.764 303.046 252.747 302.668 249.56 302.51L244.448 302.163L283.796 305.16L213.872 300.175C222.139 301.153 237.38 302.92 244.953 303.33C246.373 303.33 247.509 303.52 248.298 303.52C254.324 303.52 281.366 305.003 286.383 305.255H287.14H285.689C282.06 304.971 272.089 304.151 263.065 303.457Z" fill="#FFDE55"/>
<path d="M383.032 290.351L394.739 289.846C394.739 289.499 394.96 289.184 395.054 288.868L383.537 289.405C383.388 289.73 383.219 290.046 383.032 290.351Z" fill="#FFDE55"/>
<path d="M386.567 260.625V262.708C389.123 260.215 393.919 256.24 393.919 256.24L397.074 256.492V255.23L393.919 254.946L386.567 260.625Z" fill="#FFDE55"/>
<path d="M386.567 216.744C390.066 216.612 393.565 217.005 396.948 217.912V216.366C393.509 215.819 390.044 215.451 386.567 215.261V216.744Z" fill="#FFDE55"/>
<path d="M396.159 171.918H385.904L384.168 173.937C386.168 173.105 388.313 172.676 390.479 172.675C393.635 172.864 396.79 173.369 396.79 173.369C396.79 173.369 398.084 171.918 396.159 171.918Z" fill="#FFDE55"/>
<path d="M386.567 110.82C388.61 109.84 390.811 109.231 393.067 109.022C394.455 109.022 395.78 108.832 396.948 108.832V107.98C393.792 107.98 388.491 108.296 386.567 108.422V110.82Z" fill="#FFDE55"/>
<path d="M396.948 97.3777L386.567 103.404V104.793C389.091 103.215 394.171 100.659 396.948 99.334V97.3777Z" fill="#FFDE55"/>
<path d="M396.948 73.4923L386.567 76.2375V77.5628C389.406 76.837 394.424 75.7326 396.948 75.1962V73.4923Z" fill="#FFDE55"/>
<path d="M396.948 59.2925L385.715 58.2512C389.022 58.8087 392.282 59.621 395.465 60.6809C396.538 61.4382 397.011 68.664 397.011 68.664L396.948 59.2925Z" fill="#FFDE55"/>
<path d="M396.948 47.3336C395.875 47.6176 394.234 48.0278 391.899 48.722C390.169 49.2492 388.375 49.5358 386.567 49.5739V51.1516C390.097 50.3436 393.565 49.2892 396.948 47.9962V47.3336Z" fill="#FFDE55"/>
<path d="M386.567 41.7172C389.993 42.4847 393.458 43.064 396.948 43.4527V42.8532L386.567 40.3289V41.7172Z" fill="#FFDE55"/>
<path d="M389.28 13.1922C384.705 12.5611 373.503 11.1096 364.605 10.8572C353.309 10.5732 335.954 10.8572 335.954 10.8572L325.32 14.4228H329.075C332.311 12.8565 335.81 11.9043 339.393 11.6145C344.789 11.3305 371.421 11.9931 375.775 12.2771C381.045 12.9154 386.236 14.089 391.268 15.7796C390.671 14.8687 390.006 14.0038 389.28 13.1922Z" fill="#FFDE55"/>
</g>
<path d="M307.777 24.7409C307.792 24.594 307.792 24.4459 307.777 24.2991V23.0685C307.792 22.869 307.792 22.6685 307.777 22.469C307.777 22.469 307.777 22.469 307.777 22.2165C307.777 21.9641 307.777 21.2699 307.524 20.8282C307.184 19.2715 306.698 17.7502 306.073 16.2844L305.568 15.0538C305.378 14.6752 305.221 14.2965 305.031 13.9494L304.243 12.6242C303.187 10.8562 301.868 9.26009 300.33 7.89108C299.885 7.47828 299.41 7.09862 298.91 6.75514C298.053 6.16082 297.145 5.64342 296.196 5.209L295.534 4.92502C294.673 4.57505 293.787 4.29026 292.883 4.07306C291.15 3.54814 289.359 3.24076 287.551 3.158H116.245C111.563 3.0329 107.004 4.66514 103.465 7.73331C101.461 9.50266 99.8207 11.6463 98.6375 14.0441C98.4166 14.4858 98.1957 14.9591 98.0064 15.4325L97.8171 15.7796C97.7512 15.8998 97.6983 16.0267 97.6593 16.1582L97.3753 16.9155C97.2176 17.3257 97.0913 17.7674 96.9651 18.1776C96.9504 18.2717 96.9504 18.3675 96.9651 18.4616C96.8768 18.7309 96.8031 19.0048 96.7443 19.282L96.4603 20.5442V21.049C96.2776 22.0933 96.1512 23.1466 96.0816 24.2044C96.0816 24.6777 96.0816 25.1826 96.0816 25.6875C96.0725 27.5207 96.2523 29.3499 96.618 31.1463C96.618 31.588 96.7758 31.9982 96.8705 32.4084C97.0158 33.0382 97.1949 33.6596 97.4069 34.2701C97.4069 34.7119 97.6909 35.1221 97.8486 35.5323C99.1299 39.4087 101.62 42.7722 104.954 45.1291C108.288 47.4859 112.289 48.7119 116.371 48.6271H287.551C290.18 48.7041 292.797 48.2238 295.228 47.2177C297.658 46.2116 299.849 44.7026 301.655 42.7897L302.223 42.127L302.57 41.7168L303.138 40.9595C304.784 38.6307 305.992 36.0218 306.704 33.2604C306.719 33.1663 306.719 33.0705 306.704 32.9764V32.6293C306.704 32.44 306.704 32.2191 306.704 31.9982C306.704 31.7774 306.704 31.4618 306.862 31.2094C307.176 29.4598 307.334 27.6859 307.335 25.9083C307.808 25.7506 307.808 25.2457 307.777 24.7409ZM298.5 31.5565C298.5 31.8405 298.5 32.1245 298.247 32.44L298.058 32.9449V33.2288C298.058 33.2288 298.058 33.4497 298.058 33.5759C297.45 35.3513 296.371 36.9285 294.938 38.1398C293.504 39.351 291.769 40.151 289.917 40.4547C289.228 40.5567 288.532 40.6094 287.835 40.6125H116.245C115.279 40.6135 114.316 40.5077 113.373 40.2969C111.514 39.891 109.821 38.9343 108.514 37.5517C108.245 37.2828 107.992 36.9983 107.757 36.6998L107.283 36.1634L106.81 35.4061L106.431 34.7119C106.21 34.2701 106.021 33.7968 105.832 33.3235V33.1026V32.7555L105.642 32.2191V31.8405L105.358 30.7992C105.035 29.3051 104.856 27.7836 104.822 26.2554C104.822 26.003 104.822 25.4035 104.822 24.6146C104.932 23.4127 105.132 22.2208 105.422 21.049C105.519 20.6305 105.645 20.2193 105.8 19.8184V19.5345L105.926 18.9349V18.7141L106.116 18.2408C106.274 17.9252 106.4 17.6412 106.589 17.3257C106.64 17.2037 106.703 17.0874 106.778 16.9786L106.936 16.6946C107.128 16.3775 107.339 16.0719 107.567 15.7796L107.725 15.5587C108.136 15.0475 108.59 14.5725 109.082 14.1387C109.334 13.9494 109.587 13.7285 109.839 13.5708C111.694 12.3038 113.905 11.6626 116.15 11.7407H287.551C289.226 11.6726 290.896 11.9743 292.441 12.6242C293.202 12.9828 293.913 13.4389 294.556 13.981C294.997 14.359 295.408 14.7704 295.786 15.2116L296.67 16.4422C297.423 17.6726 298.007 18.9994 298.405 20.3864C298.405 20.8597 298.658 21.333 298.752 21.8063C298.748 21.8799 298.748 21.9536 298.752 22.0272C298.752 22.2165 298.752 22.4374 298.752 22.5952C298.752 22.5952 298.752 23.4787 298.91 23.8573C299.068 24.236 298.91 24.2044 298.91 24.3622C298.91 25.1511 298.91 25.7506 298.91 26.003C299.016 27.8641 298.878 29.7312 298.5 31.5565Z" fill="#9E4000"/>
<path d="M307.808 22.9111V22.0907V20.6708C307.687 19.2558 307.455 17.8526 307.114 16.4741C307.114 16.0639 306.925 15.6537 306.798 15.2119L306.609 14.5809C306.609 14.36 306.609 14.1707 306.388 13.9498C306.216 13.4909 306.005 13.0476 305.757 12.6245C305.131 11.0287 304.315 9.51377 303.327 8.11232L302.381 6.85017C301.939 6.34531 301.497 5.84045 301.024 5.39869C300.634 4.98748 300.212 4.60766 299.762 4.26275C296.328 1.43409 291.998 -0.0764318 287.55 0.00297893H116.244C115.263 0.000830792 114.283 0.0640787 113.31 0.192302C111.629 0.41981 109.985 0.865312 108.419 1.51757L107.914 1.73844C107.309 2.02255 106.719 2.33854 106.147 2.68506C101.965 5.37876 98.8784 9.47244 97.4384 14.2338C97.4384 14.2338 97.4384 14.2338 97.4384 14.4862C97.4384 14.7386 97.1859 15.2435 97.0913 15.6537C97.0734 15.7369 97.0734 15.8229 97.0913 15.9061V16.2217L96.902 17.0105C96.902 17.0105 96.902 17.1683 96.902 17.2629C96.902 17.3576 96.7442 18.0202 96.6811 18.4304V18.7144C96.6811 19.0615 96.6811 19.4086 96.6811 19.7557C96.6811 20.1028 96.6811 20.6077 96.6811 21.0494C96.6642 21.1856 96.6642 21.3234 96.6811 21.4596C96.6811 21.996 96.6811 22.5009 96.6811 23.0373C96.6811 23.5737 96.6811 24.0155 96.6811 24.5203V24.9305C96.7982 26.8804 97.1047 28.8143 97.5961 30.7049C97.5961 31.1782 97.8486 31.6515 98.0063 32.0933C98.0063 32.0933 98.0063 32.3773 98.1641 32.535L98.3534 33.103V33.3554L98.669 34.1443C98.8267 34.5229 99.0161 34.9331 99.2054 35.3118V35.5958L99.4894 36.1322C99.4894 36.1322 99.6472 36.4477 99.7418 36.637V36.8264C101.38 39.8412 103.822 42.3426 106.797 44.0527C109.771 45.7629 113.162 46.6146 116.592 46.5134H287.55C291.183 46.5767 294.759 45.6143 297.869 43.7367C298.468 43.358 299.005 42.9478 299.541 42.5376H299.73C300.14 42.2221 300.519 41.8434 300.898 41.4963C302.93 39.4241 304.528 36.9676 305.599 34.2705V33.8918C305.599 33.8918 305.599 33.671 305.599 33.5448C305.612 33.4294 305.612 33.313 305.599 33.1977V33.0083L305.978 31.7777C306.609 29.6089 306.99 27.3751 307.114 25.1199C307.114 25.1199 307.114 24.9305 307.114 24.8359V22.9111H307.808Z" fill="url(#paint2_linear_24_40181)"/>
<g style="mix-blend-mode:multiply" opacity="0.4">
<path d="M302.318 6.72391H299.983H298.816H295.408H295.155C280.546 6.31371 244.448 5.74574 224.885 5.24087C200.399 4.6098 174.683 3.91561 153.668 3.15832L136.345 2.68501H136.187C129.056 2.43258 123.06 2.2117 118.391 1.99082L108.388 1.51752C109.954 0.865263 111.598 0.419761 113.279 0.192253C135.998 0.665561 202.166 1.29664 217.123 1.99082H217.312C217.785 1.99082 239.4 1.01265 258.963 0.00292969H283.512C272.941 0.41313 244.07 0.854884 237.222 1.3913C234.603 1.61218 227.22 2.30636 224.822 2.46413L241.703 3.15832C255.082 3.7894 284.585 4.42047 295.976 4.89378L300.456 5.0831H300.961C301.435 5.52486 301.876 6.02972 302.318 6.53458V6.72391Z" fill="#C97B3A"/>
<path d="M305.757 12.6246C305.946 13.0663 306.136 13.5396 306.294 14.0129H305H294.555C264.737 14.4863 202.071 14.8649 164.964 15.0858H150.291H149.755L107.946 15.3382H96.9651C96.9651 14.928 97.186 14.5494 97.3122 14.1707C97.1229 14.5494 97.0282 14.7702 96.9966 14.8018L97.2806 13.9183H109.176C135.208 13.9498 242.965 13.5081 292.441 12.6246H304.243H305.757Z" fill="#C97B3A"/>
<path d="M307.808 22.0901H307.524H298.752C248.455 21.4275 131.99 19.692 106.274 18.9347H105.706L97.0284 18.6508H96.3657C96.3657 18.2406 96.3657 17.8619 96.5866 17.4833C96.8075 17.1046 96.5866 17.4833 96.5866 17.2308H97.4385L105.863 17.4833H106.747C132.495 18.2721 248.203 20.0076 298.374 20.6387H307.24H307.682L307.808 22.0901Z" fill="#C97B3A"/>
<path d="M307.335 31.557C307.335 31.8095 307.335 32.0935 307.177 32.3459C307.02 32.5983 307.177 32.7876 307.177 32.977H298.058C247.288 32.977 130.16 32.4721 108.735 32.2512H105.453H97.9751H96.8392L96.5552 30.8313H97.5018H105.075H107.946C134.01 31.1153 249.276 31.557 298.5 31.557H307.335Z" fill="#C97B3A"/>
<path d="M303.264 41.4014L302.696 42.1587L302.349 42.5689L299.762 42.3165L294.429 41.7485C290.296 41.3068 257.29 41.0228 246.815 40.7388C242.776 40.7388 239.462 40.5495 237.79 40.4548L232.584 40.7388C212.105 41.7485 137.922 45.251 132.495 46.5763H132.274C131.488 47.3442 130.808 48.2145 130.255 49.1637H128.582C129.12 48.2672 129.71 47.4032 130.349 46.5763C130.752 45.9938 131.309 45.5349 131.958 45.251C135.65 44.2097 178.216 41.433 191.911 40.7388L195.066 40.581C205.069 40.234 230.564 39.8553 232.552 39.4767C217.722 38.6563 135.429 37.8674 123.754 37.1417L114.793 36.6053L109.082 36.2897H107.283L99.6788 35.848H98.7322H97.9433C97.754 35.3747 97.5962 34.9013 97.4385 34.428H98.0696H98.9215L106.431 34.8698H108.135L111.48 35.0907C120.946 35.6586 201.913 36.4159 216.081 37.2048C228.703 37.9305 270.038 39.4451 289.602 40.6442L301.024 41.3383L303.264 41.4014Z" fill="#C97B3A"/>
</g>
<path d="M302.381 6.72393H298.91C280.482 6.59772 201.945 6.31373 193.078 5.80887L146.442 3.15834L136.344 2.68503H136.187L125.584 2.08551L164.554 3.15834C187.43 3.85253 213.935 4.70448 224.79 5.14624L229.365 5.36711C234.351 5.77731 280.325 6.25062 295.123 6.50305H298.815C299.982 6.57585 301.151 6.57585 302.318 6.50305L302.381 6.72393Z" fill="#FFDE55"/>
<path d="M300.961 5.24138H300.488L295.344 4.76807C290.296 4.26321 286.446 4.10544 286.446 4.10544L246.341 3.44281C246.341 3.44281 278.116 3.44281 292.662 3.85301L299.762 4.07389C300.212 4.41879 300.634 4.79862 301.024 5.20983L300.961 5.24138Z" fill="#FFDE55"/>
<g style="mix-blend-mode:overlay" opacity="0.5">
<path d="M306.514 14.549H218.164L306.167 13.7917C306.167 13.7917 306.451 14.3281 306.514 14.549Z" fill="#FFDE55"/>
</g>
<g style="mix-blend-mode:overlay" opacity="0.5">
<path d="M96.0501 18.7145L159.158 20.1029C159.158 20.1029 102.55 19.3772 98.7637 19.5349C97.0283 19.5349 95.9554 21.4597 96.1448 23.9209C96.0186 23.9209 95.987 19.5034 96.0501 18.7145Z" fill="#FFDE55"/>
</g>
<g style="mix-blend-mode:overlay" opacity="0.5">
<path d="M164.964 15.1803L107.157 16.6634H106.747L97.817 16.2847H96.8704V15.9692H97.817H107.567L149.628 15.4959H150.07L168.024 15.275C168.371 15.0857 167.236 15.1488 164.964 15.1803Z" fill="#FFDE55"/>
</g>
<g style="mix-blend-mode:overlay" opacity="0.5">
<path d="M307.808 22.2801H307.556L298.784 22.1539L215.734 21.3335L298.91 22.7219L307.65 22.9112H307.808V22.2801Z" fill="#FFDE55"/>
</g>
<g style="mix-blend-mode:overlay" opacity="0.5">
<path d="M244.069 40.739C249.875 40.9598 276.033 41.37 284.174 41.7802C270.133 41.7802 211.916 42.79 195.035 43.1055C195.035 43.1055 229.744 41.3069 236.465 40.739H237.412C237.916 40.739 240.567 40.739 244.069 40.739Z" fill="#FFDE55"/>
</g>
<g style="mix-blend-mode:overlay" opacity="0.5">
<path d="M96.8386 32.5666L112.395 32.8821H173.294C173.294 32.8821 113.341 34.1127 106.81 33.5448C103.551 33.1847 100.266 33.1213 96.9964 33.3554L96.8386 32.5666Z" fill="#FFDE55"/>
</g>
<g style="mix-blend-mode:multiply" opacity="0.8">
<path d="M288.592 39.5714H113.846C102.802 39.5714 102.487 25.246 102.487 23.6052C102.487 21.9644 102.802 7.63892 113.846 7.63892H288.592C299.635 7.63892 301.466 18.3357 301.466 23.6052C301.466 28.4014 299.762 39.5714 288.592 39.5714Z" fill="#9E4000"/>
</g>
<defs>
<linearGradient id="paint0_linear_24_40181" x1="201.724" y1="229.558" x2="201.724" y2="15.1177" gradientUnits="userSpaceOnUse">
<stop stop-color="#667E00"/>
<stop offset="0.68" stop-color="#A2C521"/>
</linearGradient>
<linearGradient id="paint1_linear_24_40181" x1="198.6" y1="5.65095" x2="198.6" y2="212.518" gradientUnits="userSpaceOnUse">
<stop stop-color="#F0CA57"/>
<stop offset="1" stop-color="#D45B1A"/>
</linearGradient>
<linearGradient id="paint2_linear_24_40181" x1="201.882" y1="-0.375668" x2="201.882" y2="44.5886" gradientUnits="userSpaceOnUse">
<stop stop-color="#F0CA57"/>
<stop offset="1" stop-color="#D45B1A"/>
</linearGradient>
</defs>
</svg>
