<svg width="395" height="312" viewBox="0 0 395 312" fill="none" xmlns="http://www.w3.org/2000/svg">
<g style="mix-blend-mode:multiply" opacity="0.5">
<path d="M394.989 43.5006V40.7135C395.1 36.6948 394.365 32.6977 392.833 28.9809C391.301 25.2641 389.006 21.9103 386.095 19.1367C383.274 16.2765 379.894 14.0275 376.166 12.5297C372.437 11.032 368.441 10.3176 364.425 10.4309H33.9779C17.4117 10.4622 0.250528 21.5481 0.250528 40.0558V42.0601C0.0870247 43.2641 0.00333261 44.4776 0 45.6927L0 191.03C0 208.442 16.0964 224.319 33.7274 224.319H364.174C367.2 224.33 370.207 223.833 373.068 222.848C385.594 219.058 394.739 206.313 394.739 190.749V43.5632C394.744 40.3832 394.29 37.219 393.392 34.1684C393.392 33.6674 393.173 33.1663 393.048 32.6653C394.312 36.1388 394.969 39.8041 394.989 43.5006Z" fill="#58129B"/>
</g>
<path d="M391.889 274.927C391.893 278.383 391.21 281.805 389.879 284.995C388.548 288.184 386.596 291.077 384.136 293.505C381.676 295.932 378.758 297.847 375.552 299.136C372.345 300.425 368.914 301.063 365.458 301.013H35.0113C31.5511 301.063 28.1155 300.425 24.9036 299.137C21.6917 297.849 18.7673 295.937 16.3001 293.51C13.8328 291.084 11.8717 288.192 10.5305 285.002C9.18923 281.812 8.4945 278.387 8.48657 274.927V33.7932C8.48657 26.7584 11.2811 20.0117 16.2555 15.0374C21.2298 10.0631 27.9765 7.26849 35.0113 7.26849H365.458C368.937 7.26847 372.382 7.95522 375.594 9.28936C378.807 10.6235 381.725 12.5788 384.181 15.0431C386.636 17.5073 388.581 20.4321 389.904 23.6497C391.227 26.8673 391.901 30.3143 391.889 33.7932V274.927Z" fill="url(#paint0_linear_24_9768)"/>
<g style="mix-blend-mode:multiply" opacity="0.6">
<path d="M364.174 311.785H33.7274C16.0964 311.785 0 295.94 0 278.496V39.3986C0 20.8595 17.1612 9.77359 33.7274 9.77359H364.174C368.112 9.57985 372.046 10.2142 375.723 11.6358C379.4 13.0573 382.737 15.2343 385.52 18.0262C388.303 20.8182 390.47 24.1629 391.88 27.8442C393.29 31.5256 393.911 35.4618 393.705 39.3986V278.496C393.705 297.161 380.74 311.785 364.174 311.785ZM33.7274 20.0766C22.4849 20.0766 10.303 27.4672 10.303 39.3986V280.532C10.303 292.119 21.9212 303.518 33.7274 303.518H364.174C376.2 303.518 383.402 291.837 383.402 280.532V39.3986C383.402 27.4672 376.043 20.0766 364.174 20.0766H33.7274Z" fill="#FF5499"/>
</g>
<path d="M10.5535 243.517V245.959L11.3364 246.21V243.423L10.5535 243.517ZM10.5535 67.2386V69.6813L11.3364 69.9318V67.1447L10.5535 67.2386ZM10.5535 243.517V245.959L11.3364 246.21V243.423L10.5535 243.517ZM10.5535 67.2386V69.6813L11.3364 69.9318V67.1447L10.5535 67.2386ZM10.5535 243.517V245.959L11.3364 246.21V243.423L10.5535 243.517ZM10.5535 67.2386V69.6813L11.3364 69.9318V67.1447L10.5535 67.2386ZM10.5535 243.517V245.959L11.3364 246.21V243.423L10.5535 243.517ZM10.5535 67.2386V69.6813L11.3364 69.9318V67.1447L10.5535 67.2386ZM10.5535 243.517V245.959L11.3364 246.21V243.423L10.5535 243.517ZM10.5535 67.2386V69.6813L11.3364 69.9318V67.1447L10.5535 67.2386ZM10.5535 243.517V245.959L11.3364 246.21V243.423L10.5535 243.517ZM10.5535 67.2386V69.6813L11.3364 69.9318V67.1447L10.5535 67.2386ZM10.5535 243.517V245.959L11.3364 246.21V243.423L10.5535 243.517ZM10.5535 67.2386V69.6813L11.3364 69.9318V67.1447L10.5535 67.2386ZM10.5535 243.517V245.959L11.3364 246.21V243.423L10.5535 243.517ZM10.5535 67.2386V69.6813L11.3364 69.9318V67.1447L10.5535 67.2386ZM10.5535 243.517V245.959L11.3364 246.21V243.423L10.5535 243.517ZM10.5535 67.2386V69.6813L11.3364 69.9318V67.1447L10.5535 67.2386ZM10.5535 243.517V245.959L11.3364 246.21V243.423L10.5535 243.517ZM10.5535 67.2386V69.6813L11.3364 69.9318V67.1447L10.5535 67.2386ZM10.5535 243.517V245.959L11.3364 246.21V243.423L10.5535 243.517ZM10.5535 67.2386V69.6813L11.3364 69.9318V67.1447L10.5535 67.2386ZM10.5535 243.517V245.959L11.3364 246.21V243.423L10.5535 243.517ZM10.5535 67.2386V69.6813L11.3364 69.9318V67.1447L10.5535 67.2386ZM10.5535 243.517V245.959L11.3364 246.21V243.423L10.5535 243.517ZM10.5535 67.2386V69.6813L11.3364 69.9318V67.1447L10.5535 67.2386ZM10.5535 243.517V245.959L11.3364 246.21V243.423L10.5535 243.517ZM10.5535 67.2386V69.6813L11.3364 69.9318V67.1447L10.5535 67.2386ZM10.5535 243.517V245.959L11.3364 246.21V243.423L10.5535 243.517ZM10.5535 67.2386V69.6813L11.3364 69.9318V67.1447L10.5535 67.2386ZM10.5535 243.517V245.959L11.3364 246.21V243.423L10.5535 243.517ZM10.5535 67.2386V69.6813L11.3364 69.9318V67.1447L10.5535 67.2386ZM10.5535 243.517V245.959L11.3364 246.21V243.423L10.5535 243.517ZM10.5535 67.2386V69.6813L11.3364 69.9318V67.1447L10.5535 67.2386ZM10.5535 243.517V245.959L11.3364 246.21V243.423L10.5535 243.517ZM10.5535 67.2386V69.6813L11.3364 69.9318V67.1447L10.5535 67.2386ZM10.5535 243.517V245.959L11.3364 246.21V243.423L10.5535 243.517ZM10.5535 67.2386V69.6813L11.3364 69.9318V67.1447L10.5535 67.2386ZM10.5535 243.517V245.959L11.3364 246.21V243.423L10.5535 243.517ZM10.5535 67.2386V69.6813L11.3364 69.9318V67.1447L10.5535 67.2386ZM10.5535 243.517V245.959L11.3364 246.21V243.423L10.5535 243.517ZM10.5535 67.2386V69.6813L11.3364 69.9318V67.1447L10.5535 67.2386ZM10.5535 243.517V245.959L11.3364 246.21V243.423L10.5535 243.517ZM10.5535 67.2386V69.6813L11.3364 69.9318V67.1447L10.5535 67.2386ZM10.5535 243.517V245.959L11.3364 246.21V243.423L10.5535 243.517ZM10.5535 67.2386V69.6813L11.3364 69.9318V67.1447L10.5535 67.2386ZM10.5535 243.517V245.959L11.3364 246.21V243.423L10.5535 243.517ZM10.5535 67.2386V69.6813L11.3364 69.9318V67.1447L10.5535 67.2386ZM10.5535 243.517V245.959L11.3364 246.21V243.423L10.5535 243.517ZM10.5535 67.2386V69.6813L11.3364 69.9318V67.1447L10.5535 67.2386ZM10.5535 243.517V245.959L11.3364 246.21V243.423L10.5535 243.517ZM10.5535 67.2386V69.6813L11.3364 69.9318V67.1447L10.5535 67.2386ZM10.5535 243.517V245.959L11.3364 246.21V243.423L10.5535 243.517ZM10.5535 67.2386V69.6813L11.3364 69.9318V67.1447L10.5535 67.2386ZM10.5535 245.959L11.3364 246.21V243.423H10.5535V245.959ZM10.5535 67.2386V69.6813L11.3364 69.9318V67.1447L10.5535 67.2386ZM393.423 27.5612C391.687 21.4432 387.865 16.1255 382.619 12.5295C380.858 11.2689 378.956 10.218 376.951 9.3979C373.232 8.02797 369.296 7.33846 365.333 7.36236H34.7921C31.4292 7.36204 28.081 7.80427 24.8336 8.67763C22.3853 9.30681 20.0123 10.1993 17.7561 11.3395C13.5655 13.3949 9.87729 16.3455 6.95211 19.9827C6.35711 20.7343 5.7621 21.5172 5.22973 22.3314C2.65461 26.398 1.21637 31.0803 1.0647 35.8913C1.0647 36.2671 1.0647 36.6428 1.0647 37.05V278.183C1.0647 278.893 1.0647 279.614 1.0647 280.344C1.12619 281.322 1.25172 282.295 1.44049 283.257C2.04293 286.647 3.19598 289.915 4.85394 292.933C5.35863 293.87 5.91266 294.78 6.51369 295.658C9.60152 300.346 13.7771 304.219 18.6846 306.945C23.5921 309.671 29.086 311.171 34.6981 311.316H365.208C368.636 311.322 372.035 310.685 375.229 309.437C376.457 308.935 377.65 308.349 378.799 307.683C382.655 305.368 385.984 302.272 388.573 298.594C391.162 294.916 392.952 290.737 393.83 286.326C394.014 285.562 394.15 284.788 394.238 284.008C394.553 282.03 394.71 280.03 394.707 278.027V36.8934C394.713 33.7382 394.281 30.5975 393.423 27.5612ZM11.5556 280.877C11.5227 280.669 11.5227 280.458 11.5556 280.25C11.5079 279.573 11.5079 278.892 11.5556 278.215V37.0813C11.4913 36.2788 11.4913 35.4724 11.5556 34.6699C12.263 30.0699 14.7483 25.9316 18.4764 23.1456C19.3271 22.5073 20.216 21.9216 21.1383 21.3919C25.2913 18.9988 29.9989 17.7355 34.7921 17.728H365.208C374.415 17.728 380.866 22.1748 383.308 29.7533C384.089 32.1054 384.47 34.5718 384.436 37.05V278.183C384.426 280.357 384.164 282.522 383.653 284.635C383.465 285.449 383.214 286.232 382.964 286.983C380.302 294.844 374.07 301.138 365.208 301.138H34.7921C30.1553 301.022 25.6647 299.492 21.9212 296.754C17.049 293.387 13.5048 288.425 11.9 282.724C11.74 282.118 11.6249 281.5 11.5556 280.877ZM10.5535 67.2386V69.6813L11.3364 69.9318V67.1447L10.5535 67.2386ZM10.5535 243.517V245.959L11.3364 246.21V243.423L10.5535 243.517ZM10.5535 67.2386V69.6813L11.3364 69.9318V67.1447L10.5535 67.2386ZM10.5535 243.517V245.959L11.3364 246.21V243.423L10.5535 243.517ZM10.5535 67.2386V69.6813L11.3364 69.9318V67.1447L10.5535 67.2386ZM10.5535 243.517V245.959L11.3364 246.21V243.423L10.5535 243.517ZM10.5535 67.2386V69.6813L11.3364 69.9318V67.1447L10.5535 67.2386ZM10.5535 243.517V245.959L11.3364 246.21V243.423L10.5535 243.517ZM10.5535 67.2386V69.6813L11.3364 69.9318V67.1447L10.5535 67.2386ZM10.5535 243.517V245.959L11.3364 246.21V243.423L10.5535 243.517ZM10.5535 67.2386V69.6813L11.3364 69.9318V67.1447L10.5535 67.2386ZM10.5535 243.517V245.959L11.3364 246.21V243.423L10.5535 243.517ZM10.5535 67.2386V69.6813L11.3364 69.9318V67.1447L10.5535 67.2386ZM10.5535 243.517V245.959L11.3364 246.21V243.423L10.5535 243.517ZM10.5535 67.2386V69.6813L11.3364 69.9318V67.1447L10.5535 67.2386ZM10.5535 243.517V245.959L11.3364 246.21V243.423L10.5535 243.517ZM10.5535 67.2386V69.6813L11.3364 69.9318V67.1447L10.5535 67.2386ZM10.5535 243.517V245.959L11.3364 246.21V243.423L10.5535 243.517ZM10.5535 67.2386V69.6813L11.3364 69.9318V67.1447L10.5535 67.2386ZM10.5535 243.517V245.959L11.3364 246.21V243.423L10.5535 243.517ZM10.5535 67.2386V69.6813L11.3364 69.9318V67.1447L10.5535 67.2386ZM10.5535 243.517V245.959L11.3364 246.21V243.423L10.5535 243.517ZM10.5535 67.2386V69.6813L11.3364 69.9318V67.1447L10.5535 67.2386ZM10.5535 243.517V245.959L11.3364 246.21V243.423L10.5535 243.517ZM10.5535 67.2386V69.6813L11.3364 69.9318V67.1447L10.5535 67.2386ZM10.5535 243.517V245.959L11.3364 246.21V243.423L10.5535 243.517ZM10.5535 67.2386V69.6813L11.3364 69.9318V67.1447L10.5535 67.2386ZM10.5535 243.517V245.959L11.3364 246.21V243.423L10.5535 243.517ZM10.5535 67.2386V69.6813L11.3364 69.9318V67.1447L10.5535 67.2386ZM10.5535 243.517V245.959L11.3364 246.21V243.423L10.5535 243.517ZM10.5535 67.2386V69.6813L11.3364 69.9318V67.1447L10.5535 67.2386ZM10.5535 243.517V245.959L11.3364 246.21V243.423L10.5535 243.517ZM10.5535 67.2386V69.6813L11.3364 69.9318V67.1447L10.5535 67.2386ZM10.5535 243.517V245.959L11.3364 246.21V243.423L10.5535 243.517ZM10.5535 67.2386V69.6813L11.3364 69.9318V67.1447L10.5535 67.2386ZM10.5535 243.517V245.959L11.3364 246.21V243.423L10.5535 243.517ZM10.5535 67.2386V69.6813L11.3364 69.9318V67.1447L10.5535 67.2386ZM10.5535 243.517V245.959L11.3364 246.21V243.423L10.5535 243.517ZM10.5535 67.2386V69.6813L11.3364 69.9318V67.1447L10.5535 67.2386ZM10.5535 243.517V245.959L11.3364 246.21V243.423L10.5535 243.517ZM10.5535 67.2386V69.6813L11.3364 69.9318V67.1447L10.5535 67.2386ZM10.5535 243.517V245.959L11.3364 246.21V243.423L10.5535 243.517ZM10.5535 67.2386V69.6813L11.3364 69.9318V67.1447L10.5535 67.2386ZM10.5535 243.517V245.959L11.3364 246.21V243.423L10.5535 243.517ZM10.5535 67.2386V69.6813L11.3364 69.9318V67.1447L10.5535 67.2386ZM10.5535 243.517V245.959L11.3364 246.21V243.423L10.5535 243.517ZM10.5535 67.2386V69.6813L11.3364 69.9318V67.1447L10.5535 67.2386ZM10.5535 243.517V245.959L11.3364 246.21V243.423L10.5535 243.517ZM10.5535 67.2386V69.6813L11.3364 69.9318V67.1447L10.5535 67.2386ZM10.5535 243.517V245.959L11.3364 246.21V243.423L10.5535 243.517ZM10.5535 67.2386V69.6813L11.3364 69.9318V67.1447L10.5535 67.2386ZM10.5535 243.517V245.959L11.3364 246.21V243.423L10.5535 243.517ZM10.5535 67.2386V69.6813L11.3364 69.9318V67.1447L10.5535 67.2386ZM10.5535 243.517V245.959L11.3364 246.21V243.423L10.5535 243.517Z" fill="#9E4000"/>
<path d="M383.653 266.815V269.508L384.436 268.882V266.847L383.653 266.815ZM250.528 300.135L241.948 299.54L238.19 299.321L234.463 299.102L228.607 298.758L225.006 298.538H223.534L216.55 298.163L213.168 297.975H163.877H164.628L167.979 298.382L169.952 298.632L176.998 299.447L191.028 301.138H264.714C260.08 300.824 255.288 300.449 250.528 300.135ZM383.653 266.815V269.508L384.436 268.882V266.847L383.653 266.815ZM250.528 300.135L241.948 299.54L238.19 299.321L234.463 299.102L228.607 298.758L225.006 298.538H223.534L216.55 298.163L213.168 297.975H163.877H164.628L167.979 298.382L169.952 298.632L176.998 299.447L191.028 301.138H264.714C260.08 300.824 255.288 300.449 250.528 300.135ZM383.653 266.815V269.508L384.436 268.882V266.847L383.653 266.815ZM250.528 300.135L241.948 299.54L238.19 299.321L234.463 299.102L228.607 298.758L225.006 298.538H223.534L216.55 298.163L213.168 297.975H163.877H164.628L167.979 298.382L169.952 298.632L176.998 299.447L191.028 301.138H264.714C260.08 300.824 255.288 300.449 250.528 300.135ZM383.653 266.815V269.508L384.436 268.882V266.847L383.653 266.815ZM250.528 300.135L241.948 299.54L238.19 299.321L234.463 299.102L228.607 298.758L225.006 298.538H223.534L216.55 298.163L213.168 297.975H163.877H164.628L167.979 298.382L169.952 298.632L176.998 299.447L191.028 301.138H264.714C260.08 300.824 255.288 300.449 250.528 300.135ZM383.653 266.815V269.508L384.436 268.882V266.847L383.653 266.815ZM250.528 300.135L241.948 299.54L238.19 299.321L234.463 299.102L228.607 298.758L225.006 298.538H223.534L216.55 298.163L213.168 297.975H163.877H164.628L167.979 298.382L169.952 298.632L176.998 299.447L191.028 301.138H264.714C260.08 300.824 255.288 300.449 250.528 300.135ZM383.653 266.815V269.508L384.436 268.882V266.847L383.653 266.815ZM250.528 300.135L241.948 299.54L238.19 299.321L234.463 299.102L228.607 298.758L225.006 298.538H223.534L216.55 298.163L213.168 297.975H163.877H164.628L167.979 298.382L169.952 298.632L176.998 299.447L191.028 301.138H264.714C260.08 300.824 255.288 300.449 250.528 300.135ZM383.653 266.815V269.508L384.436 268.882V266.847L383.653 266.815ZM250.528 300.135L241.948 299.54L238.19 299.321L234.463 299.102L228.607 298.758L225.006 298.538H223.534L216.55 298.163L213.168 297.975H163.877H164.628L167.979 298.382L169.952 298.632L176.998 299.447L191.028 301.138H264.714C260.08 300.824 255.288 300.449 250.528 300.135ZM383.653 266.815V269.508L384.436 268.882V266.847L383.653 266.815ZM250.528 300.135L241.948 299.54L238.19 299.321L234.463 299.102L228.607 298.758L225.006 298.538H223.534L216.55 298.163L213.168 297.975H163.877H164.628L167.979 298.382L169.952 298.632L176.998 299.447L191.028 301.138H264.714C260.08 300.824 255.288 300.449 250.528 300.135ZM383.653 266.815V269.508L384.436 268.882V266.847L383.653 266.815ZM250.528 300.135L241.948 299.54L238.19 299.321L234.463 299.102L228.607 298.758L225.006 298.538H223.534L216.55 298.163L213.168 297.975H163.877H164.628L167.979 298.382L169.952 298.632L176.998 299.447L191.028 301.138H264.714C260.08 300.824 255.288 300.449 250.528 300.135ZM383.653 266.815V269.508L384.436 268.882V266.847L383.653 266.815ZM250.528 300.135L241.948 299.54L238.19 299.321L234.463 299.102L228.607 298.758L225.006 298.538H223.534L216.55 298.163L213.168 297.975H163.877H164.628L167.979 298.382L169.952 298.632L176.998 299.447L191.028 301.138H264.714C260.08 300.824 255.288 300.449 250.528 300.135ZM383.653 266.815V269.508L384.436 268.882V266.847L383.653 266.815ZM250.528 300.135L241.948 299.54L238.19 299.321L234.463 299.102L228.607 298.758L225.006 298.538H223.534L216.55 298.163L213.168 297.975H163.877H164.628L167.979 298.382L169.952 298.632L176.998 299.447L191.028 301.138H264.714C260.08 300.824 255.288 300.449 250.528 300.135ZM383.653 266.815V269.508L384.436 268.882V266.847L383.653 266.815ZM250.528 300.135L241.948 299.54L238.19 299.321L234.463 299.102L228.607 298.758L225.006 298.538H223.534L216.55 298.163L213.168 297.975H163.877H164.628L167.979 298.382L169.952 298.632L176.998 299.447L191.028 301.138H264.714C260.08 300.824 255.288 300.449 250.528 300.135ZM383.653 266.815V269.508L384.436 268.882V266.847L383.653 266.815ZM250.528 300.135L241.948 299.54L238.19 299.321L234.463 299.102L228.607 298.758L225.006 298.538H223.534L216.55 298.163L213.168 297.975H163.877H164.628L167.979 298.382L169.952 298.632L176.998 299.447L191.028 301.138H264.714C260.08 300.824 255.288 300.449 250.528 300.135ZM383.653 266.815V269.508L384.436 268.882V266.847L383.653 266.815ZM250.528 300.135L241.948 299.54L238.19 299.321L234.463 299.102L228.607 298.758L225.006 298.538H223.534L216.55 298.163L213.168 297.975H163.877H164.628L167.979 298.382L169.952 298.632L176.998 299.447L191.028 301.138H264.714C260.08 300.824 255.288 300.449 250.528 300.135ZM383.653 266.815V269.508L384.436 268.882V266.847L383.653 266.815ZM250.528 300.135L241.948 299.54L238.19 299.321L234.463 299.102L228.607 298.758L225.006 298.538H223.534L216.55 298.163L213.168 297.975H163.877H164.628L167.979 298.382L169.952 298.632L176.998 299.447L191.028 301.138H264.714C260.08 300.824 255.288 300.449 250.528 300.135ZM383.653 266.815V269.508L384.436 268.882V266.847L383.653 266.815ZM250.528 300.135L241.948 299.54L238.19 299.321L234.463 299.102L228.607 298.758L225.006 298.538H223.534L216.55 298.163L213.168 297.975H163.877H164.628L167.979 298.382L169.952 298.632L176.998 299.447L191.028 301.138H264.714C260.08 300.824 255.288 300.449 250.528 300.135ZM383.653 266.815V269.508L384.436 268.882V266.847L383.653 266.815ZM250.528 300.135L241.948 299.54L238.19 299.321L234.463 299.102L228.607 298.758L225.006 298.538H223.534L216.55 298.163L213.168 297.975H163.877H164.628L167.979 298.382L169.952 298.632L176.998 299.447L191.028 301.138H264.714C260.08 300.824 255.288 300.449 250.528 300.135ZM383.653 266.815V269.508L384.436 268.882V266.847L383.653 266.815ZM250.528 300.135L241.948 299.54L238.19 299.321L234.463 299.102L228.607 298.758L225.006 298.538H223.534L216.55 298.163L213.168 297.975H163.877H164.628L167.979 298.382L169.952 298.632L176.998 299.447L191.028 301.138H264.714C260.08 300.824 255.288 300.449 250.528 300.135ZM383.653 266.815V269.508L384.436 268.882V266.847L383.653 266.815ZM250.528 300.135L241.948 299.54L238.19 299.321L234.463 299.102L228.607 298.758L225.006 298.538H223.534L216.55 298.163L213.168 297.975H163.877H164.628L167.979 298.382L169.952 298.632L176.998 299.447L191.028 301.138H264.714C260.08 300.824 255.288 300.449 250.528 300.135ZM383.653 266.815V269.508L384.436 268.882V266.847L383.653 266.815ZM250.528 300.135L241.948 299.54L238.19 299.321L234.463 299.102L228.607 298.758L225.006 298.538H223.534L216.55 298.163L213.168 297.975H163.877H164.628L167.979 298.382L169.952 298.632L176.998 299.447L191.028 301.138H264.714C260.08 300.824 255.288 300.449 250.528 300.135ZM383.653 266.815V269.508L384.436 268.882V266.847L383.653 266.815ZM250.528 300.135L241.948 299.54L238.19 299.321L234.463 299.102L228.607 298.758L225.006 298.538H223.534L216.55 298.163L213.168 297.975H163.877H164.628L167.979 298.382L169.952 298.632L176.998 299.447L191.028 301.138H264.714C260.08 300.824 255.288 300.449 250.528 300.135ZM383.653 266.815V269.508L384.436 268.882V266.847L383.653 266.815ZM250.528 300.135L241.948 299.54L238.19 299.321L234.463 299.102L228.607 298.758L225.006 298.538H223.534L216.55 298.163L213.168 297.975H163.877H164.628L167.979 298.382L169.952 298.632L176.998 299.447L191.028 301.138H264.714C260.08 300.824 255.288 300.449 250.528 300.135ZM383.653 266.815V269.508L384.436 268.882V266.847L383.653 266.815ZM250.528 300.135L241.948 299.54L238.19 299.321L234.463 299.102L228.607 298.758L225.006 298.538H223.534L216.55 298.163L213.168 297.975H163.877H164.628L167.979 298.382L169.952 298.632L176.998 299.447L191.028 301.138H264.714C260.08 300.824 255.288 300.449 250.528 300.135ZM383.653 266.815V269.508L384.436 268.882V266.847L383.653 266.815ZM250.528 300.135L241.948 299.54L238.19 299.321L234.463 299.102L228.607 298.758L225.006 298.538H223.534L216.55 298.163L213.168 297.975H163.877H164.628L167.979 298.382L169.952 298.632L176.998 299.447L191.028 301.138H264.714C260.08 300.824 255.288 300.449 250.528 300.135ZM383.653 266.815V269.508L384.436 268.882V266.847L383.653 266.815ZM250.528 300.135L241.948 299.54L238.19 299.321L234.463 299.102L228.607 298.758L225.006 298.538H223.534L216.55 298.163L213.168 297.975H163.877H164.628L167.979 298.382L169.952 298.632L176.998 299.447L191.028 301.138H264.714C260.08 300.824 255.288 300.449 250.528 300.135ZM383.653 266.815V269.508L384.436 268.882V266.847L383.653 266.815ZM250.528 300.135L241.948 299.54L238.19 299.321L234.463 299.102L228.607 298.758L225.006 298.538H223.534L216.55 298.163L213.168 297.975H163.877H164.628L167.979 298.382L169.952 298.632L176.998 299.447L191.028 301.138H264.714C260.08 300.824 255.288 300.449 250.528 300.135ZM383.653 266.815V269.508L384.436 268.882V266.847L383.653 266.815ZM250.528 300.135L241.948 299.54L238.19 299.321L234.463 299.102L228.607 298.758L225.006 298.538H223.534L216.55 298.163L213.168 297.975H163.877H164.628L167.979 298.382L169.952 298.632L176.998 299.447L191.028 301.138H264.714C260.08 300.824 255.288 300.449 250.528 300.135ZM383.653 266.815V269.508L384.436 268.882V266.847L383.653 266.815ZM250.528 300.135L241.948 299.54L238.19 299.321L234.463 299.102L228.607 298.758L225.006 298.538H223.534L216.55 298.163L213.168 297.975H163.877H164.628L167.979 298.382L169.952 298.632L176.998 299.447L191.028 301.138H264.714C260.08 300.824 255.288 300.449 250.528 300.135ZM244.265 300.135H242.95H242.637H241.039H240.069L223.941 298.945H223.471L219.932 298.632L216.801 298.382H212.26L257.981 301.513H259.516L244.265 300.135ZM244.265 300.135H242.95H242.637H241.039H240.069L223.941 298.945H223.471L219.932 298.632L216.801 298.382H212.26L257.981 301.513H259.516L244.265 300.135ZM244.265 300.135H242.95H242.637H241.039H240.069L223.941 298.945H223.471L219.932 298.632L216.801 298.382H212.26L257.981 301.513H259.516L244.265 300.135ZM244.265 300.135H242.95H242.637H241.039H240.069L223.941 298.945H223.471L219.932 298.632L216.801 298.382H212.26L257.981 301.513H259.516L244.265 300.135ZM244.265 300.135H242.95H242.637H241.039H240.069L223.941 298.945H223.471L219.932 298.632L216.801 298.382H212.26L257.981 301.513H259.516L244.265 300.135ZM244.265 300.135H242.95H242.637H241.039H240.069L223.941 298.945H223.471L219.932 298.632L216.801 298.382H212.26L257.981 301.513H259.516L244.265 300.135ZM244.265 300.135H242.95H242.637H241.039H240.069L223.941 298.945H223.471L219.932 298.632L216.801 298.382H212.26L257.981 301.513H259.516L244.265 300.135ZM244.265 300.135H242.95H242.637H241.039H240.069L223.941 298.945H223.471L219.932 298.632L216.801 298.382H212.26L257.981 301.513H259.516L244.265 300.135ZM393.423 27.686C392.643 23.3461 390.899 19.2367 388.319 15.6606C387.712 14.7879 387.042 13.961 386.315 13.1866C385.357 12.1651 384.309 11.2323 383.183 10.3995C377.777 6.32745 371.16 4.18807 364.393 4.3242H33.9778C27.2961 4.31698 20.73 6.06652 14.9377 9.3974C13.6613 10.149 12.4372 10.986 11.2737 11.9027C8.29665 14.1365 5.77693 16.9221 3.85182 20.1075C3.38901 20.8818 2.9809 21.6876 2.63049 22.5188C1.03188 26.0496 0.219796 29.8856 0.250472 33.7613V274.895C0.250472 275.897 0.250472 276.868 0.407052 277.807C0.470996 278.619 0.596622 279.425 0.782844 280.218C0.782844 280.845 1.03337 281.502 1.18995 282.129C1.34653 282.755 1.37785 282.818 1.50311 283.194C2.56402 286.788 4.22644 290.176 6.41973 293.215C7.14 294.185 7.89158 295.156 8.67449 296.064C8.8127 296.218 8.95905 296.365 9.11291 296.503L9.89581 297.411L10.3342 297.818C16.5432 304.243 25.0444 307.948 33.9778 308.121H366.116C368.407 307.971 370.669 307.529 372.849 306.806C377.239 305.264 381.217 302.734 384.475 299.411C387.733 296.088 390.184 292.061 391.638 287.64C391.638 287.296 391.858 286.983 391.951 286.67C392.045 286.356 391.951 286.67 391.951 286.513C392.202 285.741 392.421 284.958 392.609 284.164C393.39 281.094 393.779 277.937 393.768 274.769V33.636C393.825 31.6048 393.709 29.5724 393.423 27.5607V27.686ZM383.653 275.083C383.639 278.456 383.013 281.798 381.805 284.947C381.498 285.766 381.131 286.561 380.709 287.327C380.561 287.65 380.394 287.964 380.208 288.267C378.722 291.151 376.48 293.578 373.723 295.288C370.965 296.998 367.794 297.926 364.55 297.975H33.9778C29.5072 297.734 25.1826 296.3 21.454 293.822C17.7255 291.344 14.7292 287.911 12.7769 283.882C12.6007 283.558 12.4439 283.223 12.3071 282.88V282.692C12.042 282.126 11.8221 281.54 11.6495 280.939C11.5626 280.735 11.4894 280.526 11.4303 280.312C10.9231 278.583 10.6596 276.791 10.6474 274.989V33.8552C10.5955 29.7212 12.0797 25.7151 14.8124 22.6128C15.4432 21.8881 16.1233 21.208 16.848 20.5772C21.6449 16.5421 27.7094 14.3247 33.9778 14.314H364.425C374.884 14.314 381.836 20.0762 383.214 29.6276C383.46 30.9492 383.575 32.2918 383.559 33.636L383.653 275.083ZM244.265 300.01H242.95H242.637H241.039H240.069L223.941 298.82H223.471L219.932 298.507L216.801 298.257H212.26L257.981 301.388H259.516L244.265 300.01ZM244.265 300.01H242.95H242.637H241.039H240.069L223.941 298.82H223.471L219.932 298.507L216.801 298.257H212.26L257.981 301.388H259.516L244.265 300.01ZM244.265 300.01H242.95H242.637H241.039H240.069L223.941 298.82H223.471L219.932 298.507L216.801 298.257H212.26L257.981 301.388H259.516L244.265 300.01ZM244.265 300.01H242.95H242.637H241.039H240.069L223.941 298.82H223.471L219.932 298.507L216.801 298.257H212.26L257.981 301.388H259.516L244.265 300.01ZM244.265 300.01H242.95H242.637H241.039H240.069L223.941 298.82H223.471L219.932 298.507L216.801 298.257H212.26L257.981 301.388H259.516L244.265 300.01ZM244.265 300.01H242.95H242.637H241.039H240.069L223.941 298.82H223.471L219.932 298.507L216.801 298.257H212.26L257.981 301.388H259.516L244.265 300.01ZM244.265 300.01H242.95H242.637H241.039H240.069L223.941 298.82H223.471L219.932 298.507L216.801 298.257H212.26L257.981 301.388H259.516L244.265 300.01ZM244.265 300.01H242.95H242.637H241.039H240.069L223.941 298.82H223.471L219.932 298.507L216.801 298.257H212.26L257.981 301.388H259.516L244.265 300.01ZM250.528 300.01L241.948 299.415L238.19 299.196L234.463 298.977L228.607 298.758L225.006 298.538H223.534L216.55 298.163L213.168 297.975H163.877H164.628L167.979 298.382L169.952 298.632L176.998 299.447L191.028 301.138H264.714C260.08 300.824 255.288 300.449 250.528 300.135V300.01ZM250.528 300.01L241.948 299.415L238.19 299.196L234.463 298.977L228.607 298.758L225.006 298.538H223.534L216.55 298.163L213.168 297.975H163.877H164.628L167.979 298.382L169.952 298.632L176.998 299.447L191.028 301.138H264.714C260.08 300.824 255.288 300.449 250.528 300.135V300.01ZM383.653 266.815V269.508L384.436 268.882V266.847L383.653 266.815ZM250.528 300.135L241.948 299.54L238.19 299.321L234.463 299.102L228.607 298.758L225.006 298.538H223.534L216.55 298.163L213.168 297.975H163.877H164.628L167.979 298.382L169.952 298.632L176.998 299.447L191.028 301.138H264.714C260.08 300.824 255.288 300.449 250.528 300.135ZM383.653 266.815V269.508L384.436 268.882V266.847L383.653 266.815ZM250.528 300.135L241.948 299.54L238.19 299.321L234.463 299.102L228.607 298.758L225.006 298.538H223.534L216.55 298.163L213.168 297.975H163.877H164.628L167.979 298.382L169.952 298.632L176.998 299.447L191.028 301.138H264.714C260.08 300.824 255.288 300.449 250.528 300.135ZM383.653 266.815V269.508L384.436 268.882V266.847L383.653 266.815ZM250.528 300.135L241.948 299.54L238.19 299.321L234.463 299.102L228.607 298.758L225.006 298.538H223.534L216.55 298.163L213.168 297.975H163.877H164.628L167.979 298.382L169.952 298.632L176.998 299.447L191.028 301.138H264.714C260.08 300.824 255.288 300.449 250.528 300.135ZM383.653 266.815V269.508L384.436 268.882V266.847L383.653 266.815ZM250.528 300.135L241.948 299.54L238.19 299.321L234.463 299.102L228.607 298.758L225.006 298.538H223.534L216.55 298.163L213.168 297.975H163.877H164.628L167.979 298.382L169.952 298.632L176.998 299.447L191.028 301.138H264.714C260.08 300.824 255.288 300.449 250.528 300.135ZM383.653 266.815V269.508L384.436 268.882V266.847L383.653 266.815ZM250.528 300.135L241.948 299.54L238.19 299.321L234.463 299.102L228.607 298.758L225.006 298.538H223.534L216.55 298.163L213.168 297.975H163.877H164.628L167.979 298.382L169.952 298.632L176.998 299.447L191.028 301.138H264.714C260.08 300.824 255.288 300.449 250.528 300.135ZM383.653 266.815V269.508L384.436 268.882V266.847L383.653 266.815ZM250.528 300.135L241.948 299.54L238.19 299.321L234.463 299.102L228.607 298.758L225.006 298.538H223.534L216.55 298.163L213.168 297.975H163.877H164.628L167.979 298.382L169.952 298.632L176.998 299.447L191.028 301.138H264.714C260.08 300.824 255.288 300.449 250.528 300.135ZM383.653 266.815V269.508L384.436 268.882V266.847L383.653 266.815ZM250.528 300.135L241.948 299.54L238.19 299.321L234.463 299.102L228.607 298.758L225.006 298.538H223.534L216.55 298.163L213.168 297.975H163.877H164.628L167.979 298.382L169.952 298.632L176.998 299.447L191.028 301.138H264.714C260.08 300.824 255.288 300.449 250.528 300.135ZM383.653 266.815V269.508L384.436 268.882V266.847L383.653 266.815ZM250.528 300.135L241.948 299.54L238.19 299.321L234.463 299.102L228.607 298.758L225.006 298.538H223.534L216.55 298.163L213.168 297.975H163.877H164.628L167.979 298.382L169.952 298.632L176.998 299.447L191.028 301.138H264.714C260.08 300.824 255.288 300.449 250.528 300.135ZM383.653 266.815V269.508L384.436 268.882V266.847L383.653 266.815ZM250.528 300.135L241.948 299.54L238.19 299.321L234.463 299.102L228.607 298.758L225.006 298.538H223.534L216.55 298.163L213.168 297.975H163.877H164.628L167.979 298.382L169.952 298.632L176.998 299.447L191.028 301.138H264.714C260.08 300.824 255.288 300.449 250.528 300.135ZM383.653 266.815V269.508L384.436 268.882V266.847L383.653 266.815ZM250.528 300.135L241.948 299.54L238.19 299.321L234.463 299.102L228.607 298.758L225.006 298.538H223.534L216.55 298.163L213.168 297.975H163.877H164.628L167.979 298.382L169.952 298.632L176.998 299.447L191.028 301.138H264.714C260.08 300.824 255.288 300.449 250.528 300.135ZM383.653 266.815V269.508L384.436 268.882V266.847L383.653 266.815ZM250.528 300.135L241.948 299.54L238.19 299.321L234.463 299.102L228.607 298.758L225.006 298.538H223.534L216.55 298.163L213.168 297.975H163.877H164.628L167.979 298.382L169.952 298.632L176.998 299.447L191.028 301.138H264.714C260.08 300.824 255.288 300.449 250.528 300.135ZM383.653 266.815V269.508L384.436 268.882V266.847L383.653 266.815ZM250.528 300.135L241.948 299.54L238.19 299.321L234.463 299.102L228.607 298.758L225.006 298.538H223.534L216.55 298.163L213.168 297.975H163.877H164.628L167.979 298.382L169.952 298.632L176.998 299.447L191.028 301.138H264.714C260.08 300.824 255.288 300.449 250.528 300.135ZM383.653 266.815V269.508L384.436 268.882V266.847L383.653 266.815ZM250.528 300.135L241.948 299.54L238.19 299.321L234.463 299.102L228.607 298.758L225.006 298.538H223.534L216.55 298.163L213.168 297.975H163.877H164.628L167.979 298.382L169.952 298.632L176.998 299.447L191.028 301.138H264.714C260.08 300.824 255.288 300.449 250.528 300.135ZM383.653 266.815V269.508L384.436 268.882V266.847L383.653 266.815ZM250.528 300.135L241.948 299.54L238.19 299.321L234.463 299.102L228.607 298.758L225.006 298.538H223.534L216.55 298.163L213.168 297.975H163.877H164.628L167.979 298.382L169.952 298.632L176.998 299.447L191.028 301.138H264.714C260.08 300.824 255.288 300.449 250.528 300.135ZM383.653 266.815V269.508L384.436 268.882V266.847L383.653 266.815ZM250.528 300.135L241.948 299.54L238.19 299.321L234.463 299.102L228.607 298.758L225.006 298.538H223.534L216.55 298.163L213.168 297.975H163.877H164.628L167.979 298.382L169.952 298.632L176.998 299.447L191.028 301.138H264.714C260.08 300.824 255.288 300.449 250.528 300.135ZM383.653 266.815V269.508L384.436 268.882V266.847L383.653 266.815ZM250.528 300.135L241.948 299.54L238.19 299.321L234.463 299.102L228.607 298.758L225.006 298.538H223.534L216.55 298.163L213.168 297.975H163.877H164.628L167.979 298.382L169.952 298.632L176.998 299.447L191.028 301.138H264.714C260.08 300.824 255.288 300.449 250.528 300.135ZM383.653 266.815V269.508L384.436 268.882V266.847L383.653 266.815ZM250.528 300.135L241.948 299.54L238.19 299.321L234.463 299.102L228.607 298.758L225.006 298.538H223.534L216.55 298.163L213.168 297.975H163.877H164.628L167.979 298.382L169.952 298.632L176.998 299.447L191.028 301.138H264.714C260.08 300.824 255.288 300.449 250.528 300.135ZM383.653 266.815V269.508L384.436 268.882V266.847L383.653 266.815ZM250.528 300.135L241.948 299.54L238.19 299.321L234.463 299.102L228.607 298.758L225.006 298.538H223.534L216.55 298.163L213.168 297.975H163.877H164.628L167.979 298.382L169.952 298.632L176.998 299.447L191.028 301.138H264.714C260.08 300.824 255.288 300.449 250.528 300.135ZM383.653 266.815V269.508L384.436 268.882V266.847L383.653 266.815ZM250.528 300.135L241.948 299.54L238.19 299.321L234.463 299.102L228.607 298.758L225.006 298.538H223.534L216.55 298.163L213.168 297.975H163.877H164.628L167.979 298.382L169.952 298.632L176.998 299.447L191.028 301.138H264.714C260.08 300.824 255.288 300.449 250.528 300.135ZM383.653 266.815V269.508L384.436 268.882V266.847L383.653 266.815ZM250.528 300.135L241.948 299.54L238.19 299.321L234.463 299.102L228.607 298.758L225.006 298.538H223.534L216.55 298.163L213.168 297.975H163.877H164.628L167.979 298.382L169.952 298.632L176.998 299.447L191.028 301.138H264.714C260.08 300.824 255.288 300.449 250.528 300.135ZM383.653 266.815V269.508L384.436 268.882V266.847L383.653 266.815ZM250.528 300.135L241.948 299.54L238.19 299.321L234.463 299.102L228.607 298.758L225.006 298.538H223.534L216.55 298.163L213.168 297.975H163.877H164.628L167.979 298.382L169.952 298.632L176.998 299.447L191.028 301.138H264.714C260.08 300.824 255.288 300.449 250.528 300.135ZM383.653 266.815V269.508L384.436 268.882V266.847L383.653 266.815ZM250.528 300.135L241.948 299.54L238.19 299.321L234.463 299.102L228.607 298.758L225.006 298.538H223.534L216.55 298.163L213.168 297.975H163.877H164.628L167.979 298.382L169.952 298.632L176.998 299.447L191.028 301.138H264.714C260.08 300.824 255.288 300.449 250.528 300.135ZM383.653 266.815V269.508L384.436 268.882V266.847L383.653 266.815ZM250.528 300.135L241.948 299.54L238.19 299.321L234.463 299.102L228.607 298.758L225.006 298.538H223.534L216.55 298.163L213.168 297.975H163.877H164.628L167.979 298.382L169.952 298.632L176.998 299.447L191.028 301.138H264.714C260.08 300.824 255.288 300.449 250.528 300.135ZM383.653 266.815V269.508L384.436 268.882V266.847L383.653 266.815ZM250.528 300.135L241.948 299.54L238.19 299.321L234.463 299.102L228.607 298.758L225.006 298.538H223.534L216.55 298.163L213.168 297.975H163.877H164.628L167.979 298.382L169.952 298.632L176.998 299.447L191.028 301.138H264.714C260.08 300.824 255.288 300.449 250.528 300.135ZM383.653 266.815V269.508L384.436 268.882V266.847L383.653 266.815ZM250.528 300.135L241.948 299.54L238.19 299.321L234.463 299.102L228.607 298.758L225.006 298.538H223.534L216.55 298.163L213.168 297.975H163.877H164.628L167.979 298.382L169.952 298.632L176.998 299.447L191.028 301.138H264.714C260.08 300.824 255.288 300.449 250.528 300.135ZM383.653 266.815V269.508L384.436 268.882V266.847L383.653 266.815ZM250.528 300.135L241.948 299.54L238.19 299.321L234.463 299.102L228.607 298.758L225.006 298.538H223.534L216.55 298.163L213.168 297.975H163.877H164.628L167.979 298.382L169.952 298.632L176.998 299.447L191.028 301.138H264.714C260.08 300.824 255.288 300.449 250.528 300.135ZM383.653 266.815V269.508L384.436 268.882V266.847L383.653 266.815Z" fill="url(#paint1_linear_24_9768)"/>
<g opacity="0.5">
<path d="M362.734 4.60632H33.9153C17.537 4.60632 0.814209 15.2538 0.814209 33.6989V36.4547C0.814209 18.0096 17.537 6.64187 34.0405 6.64187H362.859C366.808 6.50101 370.743 7.17652 374.418 8.62615C378.094 10.0758 381.431 12.2683 384.22 15.0666C387.01 17.8649 389.192 21.2088 390.63 24.889C392.068 28.5692 392.731 32.5065 392.578 36.4547V33.6989C392.453 16.3498 380.02 4.60632 362.734 4.60632Z" fill="#FFFDF5"/>
</g>
<g style="mix-blend-mode:multiply" opacity="0.6">
<path d="M21.1383 21.3921C20.216 21.9218 19.3271 22.5075 18.4764 23.1458C17.2238 22.9266 16.0024 22.77 14.8124 22.6134C11.6294 22.285 8.42655 22.1908 5.22972 22.3316L2.63049 22.5195C2.98091 21.6882 3.38901 20.8825 3.85182 20.1081H6.98342C10.293 20.0198 13.6041 20.2189 16.8793 20.7032C18.3096 20.8613 19.731 21.0913 21.1383 21.3921Z" fill="#C97B3A"/>
<path d="M11.4928 34.6387C11.4285 35.4412 11.4285 36.2475 11.4928 37.05L10.7099 37.2379C8.0945 37.8689 5.41476 38.1947 2.72433 38.2087H0.250366V35.86H1.06458C4.22841 35.9894 7.39403 35.6517 10.4594 34.8579L11.4928 34.6387Z" fill="#C97B3A"/>
<path d="M11.3362 43.6266V45.944L10.5533 45.9127L1.03327 45.7561H0.250366V43.4387H1.03327L10.5533 43.6266H11.3362Z" fill="#C97B3A"/>
<path d="M11.3362 58.2511V60.5998L10.5533 60.4432L1.03327 58.4077L0.250366 58.2511V55.9024L1.03327 56.059L10.5533 58.0632L11.3362 58.2511Z" fill="#C97B3A"/>
<path d="M10.5533 67.2384L5.76199 67.8334C7.13989 68.3971 8.89359 69.0861 10.5533 69.6811L11.3362 69.9316V72.3742L10.5533 72.0298C7.41677 70.9978 4.34264 69.7848 1.34643 68.3971H1.03327H0.250366V66.0797H1.03327L10.4281 64.8897H11.211V67.2384H10.5533Z" fill="#C97B3A"/>
<path d="M11.3362 87.7195V90.0368L10.5533 89.9742L1.03327 89.5045L0.250366 89.4418V87.1558L1.03327 87.1871L10.5533 87.6881L11.3362 87.7195Z" fill="#C97B3A"/>
<path d="M11.3362 171.928V174.215L10.5533 174.058L1.03327 172.054L0.250366 171.897V169.58L1.03327 169.736L10.5533 171.741L11.3362 171.928Z" fill="#C97B3A"/>
<path d="M10.5533 202.806L5.76199 203.557C7.13989 204.121 8.89359 204.779 10.5533 205.405L11.3362 205.655V208.067L10.5533 207.816C7.41436 206.706 4.3405 205.42 1.34643 203.964H1.03327H0.250366V201.616H1.03327L10.4281 200.426H11.211V202.743L10.5533 202.806Z" fill="#C97B3A"/>
<path d="M11.3362 232.681V234.999L10.5533 234.936L1.03327 234.435L0.250366 234.404V232.086L1.03327 232.149L10.5533 232.65L11.3362 232.681Z" fill="#C97B3A"/>
<path d="M11.3363 165.603V167.92H10.5534C8.17343 168.171 4.72866 168.484 1.15863 168.703H0.375732V166.386H1.15863C4.88524 166.166 8.29869 165.853 10.5534 165.603H11.3363Z" fill="#C97B3A"/>
<path d="M11.3363 125.893V128.18H10.5534C7.82895 128.18 4.44682 127.929 1.15863 127.647H0.375732V125.267H1.15863C4.57208 125.58 7.95421 125.737 10.5534 125.831L11.3363 125.893Z" fill="#C97B3A"/>
<path d="M11.5556 258.955C11.7438 259.621 11.9847 260.27 12.2759 260.897C12.151 260.883 12.025 260.883 11.9001 260.897L1.12737 258.454H0.782897C0.596675 257.661 0.471048 256.855 0.407104 256.043H1.03343C3.66397 256.607 7.29663 257.358 11.3364 258.298C11.3707 258.528 11.4449 258.75 11.5556 258.955Z" fill="#C97B3A"/>
<path d="M115.869 311.504H109.606L100.806 308.372C94.9815 306.211 88.2799 303.706 81.4217 301.326L72.0269 298.194H79.1982L88.3738 301.326C95.4512 303.894 102.247 306.43 107.445 308.372L115.869 311.504Z" fill="#C97B3A"/>
<path d="M92.069 311.504H84.835C81.3903 310.376 77.5697 309.218 73.6239 308.372C68.1311 306.886 62.5287 305.838 56.8698 305.241C40.6506 303.097 24.5613 300.066 8.67443 296.159L6.57625 295.689C5.97522 294.811 5.4212 293.902 4.9165 292.965C5.42326 293.053 5.92501 293.168 6.41967 293.309C10.4281 294.217 15.8145 295.47 21.8272 296.754C29.2491 298.32 37.4852 299.886 44.8758 301.169C49.354 301.921 53.5503 302.485 57.0577 302.829C65.5674 303.785 73.9601 305.589 82.1105 308.216C85.7745 309.343 89.1566 310.47 92.069 311.504Z" fill="#C97B3A"/>
<path d="M160.369 311.504H158.052L157.676 309.406L154.263 308.216L134.127 301.17L124.794 297.913H131.746L141.047 301.17L159.68 307.715L159.774 308.216L160.369 311.504Z" fill="#C97B3A"/>
<path d="M378.924 307.871C377.775 308.537 376.583 309.123 375.354 309.625C372.473 309.124 369.31 308.623 366.241 308.185C363.109 307.715 359.978 307.308 357.598 307.12C354.466 306.838 348.203 306.525 339.372 306.086C327.566 305.491 311.563 304.708 294.183 303.518C289.517 304.74 279.965 306.431 268.566 308.216C261.677 309.281 254.098 310.439 246.645 311.347H229.766L243.294 309.468L231.081 308.059C213.982 306.086 189.838 303.174 171.8 301.013L147.185 298.226V297.913H163.971H164.722L168.073 298.32L170.046 298.57L177.092 299.385L191.122 301.076C214.953 303.926 241.227 307.026 249.683 307.903V308.122V308.623L253.096 308.122C265.623 306.274 277.836 304.364 286.009 302.829C280.905 302.454 275.706 302.015 270.351 301.577L264.714 301.076C260.08 300.731 255.32 300.355 250.497 300.042L241.916 299.447L238.158 299.228L234.432 299.009L228.607 298.758L223.534 298.477L216.55 298.101L213.168 297.913H252.063C258.326 298.351 264.589 298.821 270.57 299.353C278.399 300.042 286.229 300.637 293.807 301.17H294.026C311.469 302.36 327.503 303.174 339.34 303.769C348.046 304.207 354.372 304.521 357.629 304.802C361.794 305.178 367.588 306.024 372.849 306.838L378.924 307.871Z" fill="#C97B3A"/>
<path d="M394.237 284.248C394.15 285.028 394.014 285.802 393.83 286.565H392.139C389.258 286.565 386.158 286.816 382.964 287.004L380.709 287.16C381.131 286.394 381.498 285.599 381.805 284.78H383.653C386.784 284.592 389.916 284.436 392.797 284.342L394.237 284.248Z" fill="#C97B3A"/>
<path d="M394.582 250.832V253.149H393.83H390.511C389.29 253.995 386.722 255.999 384.248 258.003L383.465 258.63V255.686L384.248 255.06L386.816 253.024H383.465V250.738H384.248C387.379 250.738 390.887 250.738 393.642 250.989L394.582 250.832Z" fill="#C97B3A"/>
<path d="M394.582 168.399V170.685H393.831C391.732 170.685 388.037 170.466 384.436 170.435H383.653V168.117H384.436C388.162 168.117 391.826 168.305 393.831 168.368L394.582 168.399Z" fill="#C97B3A"/>
<path d="M394.582 212.575V214.924H393.831C390.725 214.3 387.589 213.84 384.436 213.546H383.653V211.26H384.436C387.59 211.533 390.727 211.982 393.831 212.606L394.582 212.575Z" fill="#C97B3A"/>
<path d="M393.956 104.881C394.205 104.851 394.458 104.851 394.707 104.881V107.167H393.956C391.544 107.167 387.88 107.167 384.561 107.355H383.778V105.037H384.561C387.88 104.912 391.45 104.881 393.956 104.881Z" fill="#C97B3A"/>
<path d="M394.582 93.4817V96.1436L393.831 96.582C390.323 98.5549 387.004 100.496 384.436 102.156L383.653 102.657V99.9015L384.436 99.4317C386.847 97.9599 389.979 96.1436 393.831 93.9201C394.094 93.7977 394.346 93.6509 394.582 93.4817Z" fill="#C97B3A"/>
<path d="M386.252 12.9994C385.062 12.8115 383.841 12.6236 382.619 12.4983C366.298 10.8286 349.88 10.2949 333.484 10.9012V10.7133C329.225 12.1539 325.718 13.5318 323.401 14.4399L320.269 15.6926L319.705 14.4399L319.424 13.5631C320.05 13.2812 326.626 10.4315 335.896 7.29988C339.435 6.1725 343.38 5.01381 347.514 4.16827H359.258C354.189 4.98182 349.171 6.07961 344.226 7.45646L340.875 8.39594C352.868 8.12395 364.867 8.45842 376.826 9.39805C378.987 9.61726 381.085 9.83648 383.089 10.1183C384.23 10.9794 385.289 11.9438 386.252 12.9994Z" fill="#C97B3A"/>
<path d="M394.582 44.1276V46.5702L393.831 46.8521C390.769 47.8625 387.626 48.6064 384.436 49.0755H383.653V46.9773H384.436C387.623 46.4817 390.765 45.7276 393.831 44.7226L394.582 44.1276Z" fill="#C97B3A"/>
<path d="M394.582 40.3381V42.6868L393.831 42.4989L384.436 40.2441C384.171 40.1963 383.91 40.1336 383.653 40.0562V37.5822L384.436 37.7701L393.831 40.0249L394.582 40.3381Z" fill="#C97B3A"/>
<path d="M394.582 56.5912V58.9086H393.831L384.436 58.0631H383.653V55.7457H384.436C387.567 55.9962 390.699 56.2781 393.831 56.5912H394.582Z" fill="#C97B3A"/>
<path d="M394.582 70.3081V72.6568L393.831 72.8134C390.699 73.565 387.567 74.4731 384.436 75.35L383.653 75.5379V73.1579L384.436 72.9387C387.567 72.1244 390.918 71.185 393.831 70.4647L394.582 70.3081Z" fill="#C97B3A"/>
<path d="M120.598 6.89313V9.1792C108.573 9.1792 31.5664 10.6824 17.756 11.4026L11.2423 11.7471C12.4104 10.8842 13.6344 10.0995 14.9063 9.39841L24.8022 8.89735C33.2888 8.49024 44.406 7.95787 54.3958 7.58208C62.6319 7.11234 115.869 6.89313 120.598 6.89313Z" fill="#C97B3A"/>
</g>
<g style="mix-blend-mode:overlay" opacity="0.5">
<path d="M12.7144 25.4626C13.2841 24.4237 13.9897 23.4654 14.8126 22.6129C11.6382 22.1689 8.42479 22.0744 5.22986 22.331C11.3678 22.3937 12.7144 25.4626 12.7144 25.4626Z" fill="#FFDE55"/>
<path d="M68.5506 9.14703L15.8771 11.8402C15.8771 11.8402 31.2846 11.8402 43.3726 11.4644C51.802 11.1629 60.2078 10.3892 68.5506 9.14703Z" fill="#FFDE55"/>
<path d="M8.11069 37.8949C5.5106 38.2957 2.87249 38.3903 0.250366 38.1768V43.4379L1.22116 39.2415C3.55778 39.0302 5.86645 38.5789 8.11069 37.8949Z" fill="#FFDE55"/>
<path d="M10.5535 47.3524V46.1937C6.92084 46.1937 1.44054 45.7866 0.250528 45.7239H0L0.15658 46.6634L10.5535 47.3524Z" fill="#FFDE55"/>
<path d="M10.5533 60.5051C5.57409 59.6596 0.250366 58.2504 0.250366 58.2504V59.8475L10.5533 61.5699V60.5051Z" fill="#FFDE55"/>
<path d="M10.5533 72.0295C6.82673 70.7456 1.97275 68.5535 1.97275 68.5535H0.250366V69.8061C1.21481 69.7407 2.18367 69.8039 3.13144 69.994C4.50935 70.3385 7.98543 71.7477 10.5533 72.7811V72.0295Z" fill="#FFDE55"/>
<path d="M10.5533 90.0988L0.250366 89.6604V90.6312C3.66628 91.079 7.10822 91.2987 10.5533 91.2888V90.0988Z" fill="#FFDE55"/>
<path d="M10.5533 128.399C7.20253 128.148 2.41117 127.678 0.250366 127.459V128.399C2.37986 128.649 7.10858 128.994 10.5533 129.213V128.399Z" fill="#FFDE55"/>
<path d="M10.5533 173.995L0.250366 172.178V172.961L10.5533 175.028V173.995Z" fill="#FFDE55"/>
<path d="M0.250366 205.498C0.933828 205.483 1.61679 205.546 2.28591 205.686C3.25671 205.906 7.26516 207.158 10.5533 208.223V207.471C7.40682 206.517 4.33043 205.345 1.34643 203.964L0.250366 204.277V205.498Z" fill="#FFDE55"/>
<path d="M5.54278 235.468L10.5533 235.875V235.061C7.42174 235.061 2.09801 234.497 0.250366 234.309V235.374C1.6909 235.342 3.66381 235.342 5.54278 235.468Z" fill="#FFDE55"/>
<path d="M12.3073 260.897V260.709C8.17354 259.926 2.38008 258.673 0.782959 258.392C0.782959 259.018 1.03349 259.676 1.19007 260.302C2.48136 260.175 3.78196 260.175 5.07326 260.302C7.69562 260.526 10.2819 261.062 12.777 261.899C12.6009 261.574 12.444 261.24 12.3073 260.897Z" fill="#FFDE55"/>
<path d="M38.7692 302.735C30.0634 301.294 8.98767 296.472 8.98767 296.472L10.3343 297.787C10.3343 297.787 18.3512 299.729 22.203 300.919C26.0549 302.109 45.7527 304.864 51.9846 305.522C58.2165 306.18 66.8284 308.215 66.8284 308.215L73.0916 308.027C73.0916 308.027 59.9702 305.24 58.5296 305.24C57.0891 305.24 47.4751 304.144 38.7692 302.735Z" fill="#FFDE55"/>
<path d="M71.4318 297.912H67.5486C76.9434 300.793 95.8896 307.557 97.7059 308.215H97.8625H100.587C100.587 308.215 86.4635 303.205 81.7974 301.482C78.29 300.136 73.342 298.538 71.4318 297.912Z" fill="#FFDE55"/>
<path d="M126.423 297.912H124.481C130.744 300.543 149.002 307.307 151.945 308.215H152.352H154.263C154.263 308.215 144.617 304.457 139.043 302.891C134.727 301.525 130.51 299.861 126.423 297.912Z" fill="#FFDE55"/>
<path d="M218.054 306.649C213.2 306.18 176.184 302.046 167.29 300.699C161.34 299.791 151.632 298.601 145.776 297.912H140.922C149.002 300.136 179.19 303.267 189.305 304.175C198.262 305.021 215.861 307.307 221.592 308.121L223.471 308.372L230.204 308.184H229.86C228.294 307.996 222.344 307.056 218.054 306.649Z" fill="#FFDE55"/>
<path d="M223.471 298.476H223.941L242.731 299.854L216.864 297.881L223.471 298.476Z" fill="#FFDE55"/>
<path d="M261.082 301.169C255.821 300.762 250.841 300.386 247.679 300.23L242.605 299.885L281.656 302.86L212.26 297.912C220.465 298.883 235.591 300.637 243.106 301.044C244.516 301.044 245.643 301.232 246.426 301.232C252.407 301.232 279.245 302.703 284.224 302.954H284.976H283.535C279.934 302.672 270.038 301.858 261.082 301.169Z" fill="#FFDE55"/>
<path d="M380.145 288.163L391.764 287.661C391.764 287.317 391.983 287.004 392.077 286.691L380.646 287.223C380.498 287.546 380.331 287.86 380.145 288.163Z" fill="#FFDE55"/>
<path d="M383.653 258.661V260.728C386.189 258.254 390.949 254.308 390.949 254.308L394.081 254.559V253.306L390.949 253.024L383.653 258.661Z" fill="#FFDE55"/>
<path d="M383.653 215.111C387.126 214.979 390.599 215.37 393.956 216.269V214.735C390.543 214.193 387.104 213.827 383.653 213.639V215.111Z" fill="#FFDE55"/>
<path d="M393.173 170.622H382.995L381.273 172.626C383.258 171.8 385.386 171.374 387.536 171.374C390.668 171.562 393.799 172.063 393.799 172.063C393.799 172.063 395.083 170.622 393.173 170.622Z" fill="#FFDE55"/>
<path d="M383.653 109.985C385.68 109.012 387.865 108.408 390.104 108.2C391.482 108.2 392.797 108.012 393.956 108.012V107.166C390.824 107.166 385.563 107.48 383.653 107.605V109.985Z" fill="#FFDE55"/>
<path d="M393.956 96.6439L383.653 102.625V104.003C386.158 102.437 391.2 99.9007 393.956 98.5855V96.6439Z" fill="#FFDE55"/>
<path d="M393.956 72.9382L383.653 75.6627V76.9779C386.471 76.2577 391.451 75.1616 393.956 74.6292V72.9382Z" fill="#FFDE55"/>
<path d="M393.956 58.8457L382.807 57.8123C386.09 58.3655 389.325 59.1717 392.484 60.2236C393.549 60.9752 394.018 68.1466 394.018 68.1466L393.956 58.8457Z" fill="#FFDE55"/>
<path d="M393.956 46.9771C392.891 47.2589 391.263 47.666 388.945 48.355C387.228 48.8781 385.447 49.1627 383.653 49.2005V50.7663C387.156 49.9643 390.599 48.9179 393.956 47.6347V46.9771Z" fill="#FFDE55"/>
<path d="M383.653 41.4029C387.053 42.1645 390.493 42.7395 393.956 43.1253V42.5302L383.653 40.025V41.4029Z" fill="#FFDE55"/>
<path d="M386.346 13.0928C381.805 12.4665 370.688 11.0259 361.857 10.7754C350.646 10.4936 333.422 10.7754 333.422 10.7754L322.868 14.3141H326.595C329.807 12.7597 333.279 11.8146 336.835 11.527C342.19 11.2452 368.621 11.9028 372.943 12.1846C378.173 12.8182 383.325 13.9829 388.319 15.6607C387.726 14.7567 387.067 13.8983 386.346 13.0928Z" fill="#FFDE55"/>
</g>
<g style="mix-blend-mode:multiply" opacity="0.5">
<path d="M306.897 28.7826C306.914 28.637 306.914 28.4899 306.897 28.3442V27.0603C306.623 24.8 306.076 22.5813 305.269 20.4526C305.269 20.0455 304.956 19.6384 304.768 19.2313C303.528 16.4523 301.688 13.982 299.381 11.9973C298.856 11.5248 298.302 11.0855 297.722 10.682C294.433 8.46393 290.539 7.31556 286.573 7.39379H115.556C111.337 7.3107 107.209 8.62226 103.812 11.125C100.414 13.6277 97.9379 17.1816 96.7666 21.2355L96.3908 22.4881C96.3908 22.8952 96.1403 23.3023 96.0464 23.7094C95.9524 24.1166 95.8585 24.555 95.7958 24.9621C95.554 26.2247 95.3867 27.5004 95.2948 28.7826C95.2948 29.3463 95.2948 29.8787 95.2948 30.4424C95.2856 32.2825 95.464 34.1188 95.8271 35.9227C95.891 36.3567 95.9852 36.7858 96.109 37.2067C96.109 37.8017 96.4221 38.428 96.61 39.0543C96.7979 39.6806 96.8919 39.8998 97.0485 40.3383C98.3249 44.2293 100.82 47.6061 104.164 49.9692C107.509 52.3323 111.525 53.5561 115.619 53.4597H286.573C289.196 53.5192 291.802 53.0289 294.224 52.0203C296.645 51.0117 298.829 49.5072 300.634 47.6036L301.699 46.3823C303.652 43.8324 305.069 40.9136 305.864 37.8017C305.864 37.3946 306.083 36.9561 306.177 36.549C306.635 34.5451 306.876 32.4978 306.897 30.4424C306.897 29.8787 306.897 29.3463 306.897 28.7826ZM297.502 36.6743C297.502 37.0814 297.221 37.4885 297.064 37.9269C296.328 40.0416 294.933 41.8643 293.084 43.1271C291.235 44.3898 289.03 45.0259 286.792 44.9417H115.556C113.907 45.0245 112.264 44.7025 110.768 44.0038C109.272 43.3051 107.97 42.2509 106.976 40.9333C106.662 40.4948 106.349 40.0564 106.099 39.618C105.674 38.8796 105.318 38.1039 105.034 37.3006C105.034 36.8622 104.752 36.4551 104.627 36.048C104.122 34.2218 103.858 32.3371 103.844 30.4424C103.844 30.1919 103.844 29.5969 103.844 28.814C103.962 27.6098 104.172 26.4164 104.47 25.2439C104.571 24.8194 104.697 24.4011 104.846 23.9913C104.846 23.4902 105.222 22.9579 105.441 22.4255C105.636 21.9852 105.855 21.5565 106.099 21.1415C107.02 19.4797 108.389 18.109 110.049 17.1847C111.71 16.2605 113.596 15.8195 115.494 15.9118H286.573C288.13 15.839 289.683 16.126 291.112 16.7506C292.54 17.3751 293.805 18.3204 294.809 19.5131C295.14 19.9099 295.443 20.3284 295.717 20.7657C296.881 22.6813 297.648 24.8112 297.972 27.0289C297.972 27.4987 297.972 27.9058 298.16 28.3129C298.145 28.4691 298.145 28.6264 298.16 28.7826C298.16 29.5969 298.16 30.1919 298.16 30.4424C298.172 32.5512 297.876 34.6505 297.283 36.6743H297.502Z" fill="#18131D"/>
</g>
<path d="M305.457 24.5545C305.472 24.4088 305.472 24.2618 305.457 24.1161V22.8947C305.472 22.6967 305.472 22.4978 305.457 22.2997C305.457 22.2997 305.457 22.2997 305.457 22.0492C305.457 21.7987 305.457 21.1097 305.206 20.6713C304.868 19.1264 304.386 17.6166 303.766 16.1618L303.265 14.9405C303.077 14.5647 302.92 14.1889 302.732 13.8444L301.949 12.5291C300.902 10.7745 299.592 9.19042 298.066 7.83173C297.625 7.42205 297.154 7.04525 296.657 6.70436C295.806 6.11451 294.905 5.60102 293.964 5.16987L293.306 4.88803C292.452 4.5407 291.572 4.25806 290.676 4.04249C288.956 3.52153 287.178 3.21647 285.383 3.13433H115.368C110.722 3.01017 106.197 4.6301 102.685 7.67515C100.696 9.43116 99.0684 11.5587 97.8941 13.9384C97.6749 14.3768 97.4557 14.8465 97.2678 15.3163L97.0799 15.6607C97.0145 15.7801 96.962 15.9061 96.9233 16.0365L96.6415 16.7881C96.4849 17.1952 96.3596 17.6337 96.2343 18.0408C96.2197 18.1341 96.2197 18.2292 96.2343 18.3226C96.1467 18.5899 96.0735 18.8617 96.0151 19.1368L95.7333 20.3895V20.8905C95.552 21.9269 95.4266 22.9723 95.3575 24.0221C95.3575 24.4919 95.3575 24.9929 95.3575 25.494C95.3485 27.3134 95.5269 29.1288 95.8899 30.9116C95.8899 31.3501 96.0465 31.7572 96.1404 32.1643C96.2847 32.7893 96.4624 33.406 96.6728 34.0119C96.6728 34.4504 96.9546 34.8575 97.1112 35.2646C98.3828 39.1118 100.854 42.4499 104.163 44.789C107.471 47.1281 111.443 48.3449 115.494 48.2607H285.383C287.993 48.3371 290.59 47.8604 293.002 46.8619C295.415 45.8634 297.589 44.3657 299.381 42.4673L299.945 41.8096L300.29 41.4025L300.853 40.6509C302.487 38.3396 303.686 35.7504 304.392 33.0098C304.407 32.9164 304.407 32.8214 304.392 32.728V32.3835C304.392 32.1956 304.392 31.9764 304.392 31.7572C304.392 31.538 304.392 31.2248 304.549 30.9743C304.86 29.2379 305.017 27.4773 305.018 25.7132C305.488 25.5566 305.488 25.0556 305.457 24.5545ZM296.25 31.3188C296.25 31.6006 296.25 31.8824 295.999 32.1956L295.811 32.6967V32.9785C295.811 32.9785 295.811 33.1977 295.811 33.323C295.208 35.085 294.137 36.6503 292.715 37.8524C291.292 39.0546 289.57 39.8485 287.732 40.1499C287.048 40.2511 286.357 40.3034 285.665 40.3065H115.368C114.41 40.3075 113.454 40.2025 112.519 39.9933C110.674 39.5904 108.993 38.641 107.696 37.2688C107.429 37.0019 107.178 36.7196 106.944 36.4233L106.475 35.8909L106.005 35.1393L105.629 34.4504C105.41 34.0119 105.222 33.5422 105.034 33.0725V32.8532V32.5088L104.846 31.9764V31.6006L104.564 30.5672C104.244 29.0844 104.066 27.5744 104.032 26.0577C104.032 25.8071 104.032 25.2121 104.032 24.4292C104.141 23.2363 104.34 22.0534 104.627 20.8905C104.724 20.4751 104.849 20.067 105.003 19.6692V19.3874L105.128 18.7923V18.5731L105.316 18.1034C105.473 17.7902 105.598 17.5084 105.786 17.1952C105.836 17.0742 105.899 16.9587 105.974 16.8508L106.13 16.5689C106.321 16.2542 106.53 15.9509 106.757 15.6607L106.913 15.4415C107.321 14.9342 107.771 14.4627 108.26 14.0323C108.51 13.8444 108.761 13.6252 109.011 13.4686C110.852 12.2112 113.047 11.5748 115.275 11.6523H285.383C287.046 11.5848 288.703 11.8841 290.237 12.5291C290.992 12.885 291.697 13.3377 292.335 13.8757C292.773 14.2509 293.181 14.6592 293.557 15.0971L294.434 16.3184C295.182 17.5396 295.761 18.8563 296.156 20.2329C296.156 20.7026 296.406 21.1724 296.5 21.6421C296.496 21.7151 296.496 21.7883 296.5 21.8613C296.5 22.0492 296.5 22.2684 296.5 22.425C296.5 22.425 296.5 23.3019 296.657 23.6776C296.814 24.0534 296.657 24.0221 296.657 24.1787C296.657 24.9616 296.657 25.5566 296.657 25.8071C296.762 27.6542 296.625 29.5072 296.25 31.3188Z" fill="#9E4000"/>
<path d="M305.488 22.7383V21.9241V20.5149C305.368 19.1106 305.138 17.718 304.799 16.3498C304.799 15.9427 304.611 15.5356 304.486 15.0972L304.298 14.4709C304.298 14.2517 304.298 14.0638 304.079 13.8446C303.908 13.3892 303.698 12.9492 303.452 12.5293C302.831 10.9454 302.021 9.44196 301.041 8.05109L300.102 6.79844C299.663 6.29739 299.225 5.79633 298.755 5.35791C298.368 4.9498 297.949 4.57284 297.502 4.23053C294.095 1.42319 289.797 -0.0759472 285.383 0.00286493H115.368C114.394 0.000732977 113.421 0.0635041 112.456 0.190761C110.788 0.416554 109.156 0.858698 107.602 1.50603L107.101 1.72525C106.5 2.00722 105.915 2.32082 105.347 2.66473C101.197 5.33812 98.1331 9.40095 96.7039 14.1264C96.7039 14.1264 96.7039 14.1264 96.7039 14.3769C96.7039 14.6275 96.4534 15.1285 96.3595 15.5356C96.3417 15.6182 96.3417 15.7036 96.3595 15.7861V16.0993L96.1716 16.8822C96.1716 16.8822 96.1716 17.0388 96.1716 17.1327C96.1716 17.2267 96.015 17.8843 95.9523 18.2914V18.5733C95.9523 18.9177 95.9523 19.2622 95.9523 19.6067C95.9523 19.9512 95.9523 20.4522 95.9523 20.8907C95.9356 21.0258 95.9356 21.1626 95.9523 21.2978C95.9523 21.8301 95.9523 22.3312 95.9523 22.8636C95.9523 23.3959 95.9523 23.8344 95.9523 24.3354V24.7425C96.0686 26.6777 96.3728 28.597 96.8605 30.4734C96.8605 30.9431 97.111 31.4128 97.2676 31.8513C97.2676 31.8513 97.2676 32.1331 97.4242 32.2897L97.6121 32.8534V33.1039L97.9253 33.8868C98.0818 34.2626 98.2697 34.6697 98.4576 35.0455V35.3274L98.7395 35.8597C98.7395 35.8597 98.8961 36.1729 98.99 36.3608V36.5487C100.616 39.5408 103.04 42.0234 105.992 43.7206C108.944 45.4178 112.309 46.2632 115.713 46.1627H285.383C288.988 46.2255 292.537 45.2704 295.623 43.4069C296.218 43.0311 296.751 42.624 297.283 42.2169H297.471C297.878 41.9037 298.254 41.5279 298.63 41.1834C300.646 39.1268 302.232 36.6889 303.296 34.0121V33.6363C303.296 33.6363 303.296 33.4171 303.296 33.2918C303.309 33.1773 303.309 33.0618 303.296 32.9473V32.7594L303.672 31.5381C304.298 29.3856 304.676 27.1687 304.799 24.9304C304.799 24.9304 304.799 24.7425 304.799 24.6486V22.7383H305.488Z" fill="url(#paint2_linear_24_9768)"/>
<g style="mix-blend-mode:multiply" opacity="0.4">
<path d="M300.039 6.67331H297.722H296.563H293.181H292.931C278.431 6.2662 242.606 5.70251 223.19 5.20145C198.888 4.57513 173.366 3.88618 152.509 3.13459L135.317 2.66485H135.16C128.083 2.41433 122.133 2.19511 117.498 1.9759L107.571 1.50616C109.125 0.858824 110.757 0.41668 112.425 0.190887C134.972 0.660628 200.642 1.28695 215.486 1.9759H215.674C216.144 1.9759 237.595 1.0051 257.011 0.00299072H281.375C270.884 0.410099 242.23 0.848524 235.434 1.3809C232.835 1.60011 225.507 2.28906 223.127 2.44564L239.881 3.13459C253.159 3.76092 282.44 4.38724 293.745 4.85698L298.192 5.04487H298.693C299.162 5.4833 299.601 5.98435 300.039 6.48541V6.67331Z" fill="#C97B3A"/>
<path d="M303.452 12.5294C303.64 12.9678 303.828 13.4376 303.985 13.9073H302.701H292.335C262.741 14.377 200.548 14.7528 163.72 14.972H149.158H148.626L107.132 15.2226H96.2341C96.2341 14.8155 96.4533 14.4397 96.5786 14.0639C96.3907 14.4397 96.2968 14.6589 96.2654 14.6902L96.5473 13.8133H108.353C134.189 13.8447 241.133 13.4062 290.237 12.5294H301.949H303.452Z" fill="#C97B3A"/>
<path d="M305.488 21.9241H305.206H296.5C246.583 21.2664 130.995 19.5441 105.473 18.7925H104.909L96.2969 18.5106H95.6393C95.6393 18.1035 95.6393 17.7277 95.8585 17.3519C96.0777 16.9761 95.8585 17.3519 95.8585 17.1014H96.704L105.065 17.3519H105.942C131.496 18.1348 246.332 19.8572 296.125 20.4835H304.924H305.363L305.488 21.9241Z" fill="#C97B3A"/>
<path d="M305.019 31.3191C305.019 31.5696 305.019 31.8515 304.862 32.102C304.705 32.3525 304.862 32.5404 304.862 32.7283H295.812C245.424 32.7283 129.179 32.2272 107.915 32.008H104.659H97.2366H96.1092L95.8274 30.5988H96.7669H104.283H107.132C133 30.8807 247.397 31.3191 296.25 31.3191H305.019Z" fill="#C97B3A"/>
<path d="M300.978 41.0894L300.415 41.8409L300.07 42.2481L297.502 41.9975L292.21 41.4338C288.108 40.9954 255.351 40.7136 244.954 40.4317C240.946 40.4317 237.657 40.2438 235.998 40.1499L230.831 40.4317C210.506 41.4338 136.882 44.9099 131.496 46.2252H131.277C130.497 46.9873 129.822 47.8511 129.273 48.7931H127.613C128.146 47.9034 128.732 47.0459 129.367 46.2252C129.767 45.6471 130.32 45.1917 130.964 44.9099C134.628 43.8765 176.873 41.1207 190.464 40.4317L193.596 40.2751C203.523 39.9307 228.826 39.5549 230.799 39.1791C216.081 38.3649 134.408 37.582 122.822 36.8617L113.928 36.3293L108.26 36.0162H106.475L98.9274 35.5777H97.9879H97.205C97.0171 35.108 96.8606 34.6383 96.704 34.1685H97.3303H98.1758L105.629 34.6069H107.32L110.64 34.8262C120.034 35.3898 200.391 36.1414 214.452 36.9243C226.979 37.6446 268.003 39.1478 287.419 40.3378L298.755 41.0267L300.978 41.0894Z" fill="#C97B3A"/>
</g>
<path d="M300.102 6.67301H296.657C278.368 6.54774 200.423 6.2659 191.623 5.76484L145.338 3.13429L135.317 2.66455H135.16L124.638 2.06955L163.313 3.13429C186.017 3.82325 212.323 4.66878 223.096 5.10721L227.636 5.32642C232.584 5.73353 278.212 6.20327 292.899 6.45379H296.563C297.721 6.52604 298.881 6.52604 300.039 6.45379L300.102 6.67301Z" fill="#FFDE55"/>
<path d="M298.692 5.2017H298.222L293.118 4.73196C288.107 4.2309 284.287 4.07432 284.287 4.07432L244.484 3.41669C244.484 3.41669 276.019 3.41669 290.456 3.8238L297.502 4.04301C297.949 4.38531 298.368 4.76227 298.755 5.17038L298.692 5.2017Z" fill="#FFDE55"/>
<g style="mix-blend-mode:overlay" opacity="0.5">
<path d="M304.204 14.4393H216.519L303.86 13.6877C303.86 13.6877 304.141 14.2201 304.204 14.4393Z" fill="#FFDE55"/>
</g>
<g style="mix-blend-mode:overlay" opacity="0.5">
<path d="M95.3262 18.5732L157.958 19.9511C157.958 19.9511 101.777 19.2308 98.0194 19.3874C96.297 19.3874 95.2323 21.2976 95.4202 23.7403C95.2949 23.7403 95.2636 19.3561 95.3262 18.5732Z" fill="#FFDE55"/>
</g>
<g style="mix-blend-mode:overlay" opacity="0.5">
<path d="M163.72 15.0659L106.349 16.5377H105.942L97.0796 16.1619H96.1401V15.8488H97.0796H106.756L148.501 15.379H148.939L166.758 15.1598C167.102 14.9719 165.975 15.0346 163.72 15.0659Z" fill="#FFDE55"/>
</g>
<g style="mix-blend-mode:overlay" opacity="0.5">
<path d="M305.488 22.1121H305.237L296.531 21.9869L214.108 21.1726L296.657 22.5505L305.331 22.7384H305.488V22.1121Z" fill="#FFDE55"/>
</g>
<g style="mix-blend-mode:overlay" opacity="0.5">
<path d="M242.23 40.4317C247.992 40.6509 273.953 41.058 282.032 41.4651C268.097 41.4651 210.319 42.4672 193.565 42.7804C193.565 42.7804 228.012 40.9954 234.683 40.4317H235.622C236.123 40.4317 238.754 40.4317 242.23 40.4317Z" fill="#FFDE55"/>
</g>
<g style="mix-blend-mode:overlay" opacity="0.5">
<path d="M96.1088 32.3213L111.548 32.6345H171.988C171.988 32.6345 112.487 33.8558 106.005 33.2921C102.771 32.9348 99.5108 32.8719 96.2653 33.1042L96.1088 32.3213Z" fill="#FFDE55"/>
</g>
<g style="mix-blend-mode:multiply" opacity="0.8">
<path d="M286.416 39.273H112.988C102.028 39.273 101.714 25.0556 101.714 23.4271C101.714 21.7987 102.028 7.58121 112.988 7.58121H286.416C297.377 7.58121 299.193 18.1973 299.193 23.4271C299.193 28.1872 297.502 39.273 286.416 39.273Z" fill="#9E4000"/>
</g>
<defs>
<linearGradient id="paint0_linear_24_9768" x1="200.203" y1="227.827" x2="200.203" y2="15.0035" gradientUnits="userSpaceOnUse">
<stop stop-color="#70B8E5"/>
<stop offset="0.68" stop-color="#D1E5ED"/>
</linearGradient>
<linearGradient id="paint1_linear_24_9768" x1="197.103" y1="5.60816" x2="197.103" y2="210.916" gradientUnits="userSpaceOnUse">
<stop stop-color="#F0CA57"/>
<stop offset="1" stop-color="#D45B1A"/>
</linearGradient>
<linearGradient id="paint2_linear_24_9768" x1="200.36" y1="-0.372927" x2="200.36" y2="44.2524" gradientUnits="userSpaceOnUse">
<stop stop-color="#F0CA57"/>
<stop offset="1" stop-color="#D45B1A"/>
</linearGradient>
</defs>
</svg>
