<svg width="258" height="74" viewBox="0 0 258 74" fill="none" xmlns="http://www.w3.org/2000/svg">
<g style="mix-blend-mode:multiply" opacity="0.5">
<path d="M257.498 38.5639C257.515 38.354 257.515 38.143 257.498 37.9331C257.498 37.3373 257.498 36.7766 257.323 36.1808C256.974 33.0284 256.232 29.9321 255.115 26.9638C254.869 26.4031 254.659 25.8073 254.414 25.2466C252.718 21.459 250.233 18.0776 247.124 15.3287C246.391 14.6861 245.618 14.0892 244.811 13.5414C240.243 10.4587 234.831 8.86705 229.321 8.98543H28.2818C22.4322 8.85648 16.7022 10.6522 11.9725 14.0966C7.24282 17.541 3.77522 22.4434 2.10274 28.0502C1.89246 28.611 1.71723 29.2067 1.54201 29.8025L1.08641 31.5548C1.08641 32.1155 0.841095 32.7113 0.735958 33.3071C0.362978 35.0982 0.117046 36.9134 2.56893e-08 38.7392C2.56893e-08 39.4751 2.56893e-08 40.2461 2.56893e-08 40.9821C-9.18676e-05 43.558 0.246351 46.1281 0.735958 48.6571C0.735958 49.2528 0.981277 49.8136 1.12146 50.4093C1.26164 51.0051 1.57705 52.1266 1.82237 52.9677L2.45319 54.755C4.22757 60.1681 7.69719 64.8663 12.3488 68.1546C17.0004 71.4429 22.5868 73.1466 28.2818 73.0138H229.321C232.981 73.1229 236.623 72.4548 240.006 71.0532C243.389 69.6517 246.436 67.5488 248.947 64.8832C249.466 64.3359 249.957 63.7627 250.419 63.1659C253.154 59.6347 255.134 55.5789 256.236 51.2504C256.236 50.6897 256.552 50.0939 256.657 49.4982C257.273 46.7017 257.579 43.8457 257.568 40.9821C257.568 40.2461 257.533 39.4751 257.498 38.5639ZM244.216 49.5332C244.04 50.0939 243.83 50.6897 243.585 51.2855C242.567 54.2271 240.632 56.7645 238.064 58.5245C235.497 60.2846 232.432 61.1744 229.321 61.0632H28.2818C25.9825 61.1818 23.6895 60.7322 21.6052 59.7543C19.5209 58.7763 17.7096 57.3 16.3313 55.4559C15.8897 54.8786 15.4915 54.2695 15.1397 53.6335C14.5563 52.6036 14.0638 51.5248 13.6678 50.4093C13.4385 49.8397 13.2511 49.254 13.1071 48.6571C12.3945 46.1119 12.0175 43.4847 11.9856 40.8419C11.9481 40.0947 11.9481 39.3461 11.9856 38.599C12.123 36.9191 12.4044 35.2542 12.8267 33.6225C12.8267 33.0618 13.1421 32.501 13.3524 31.9053C13.5866 31.1525 13.8675 30.4151 14.1935 29.6974C14.4738 29.1016 14.7542 28.5409 15.1047 27.9451C16.3991 25.6283 18.3246 23.7266 20.6572 22.461C22.9899 21.1954 25.6339 20.6179 28.2818 20.7958H229.321C231.489 20.6869 233.652 21.0829 235.641 21.9526C237.63 22.8222 239.389 24.1418 240.781 25.8073C241.232 26.3565 241.654 26.9297 242.043 27.5246C243.642 30.2146 244.701 33.1905 245.162 36.286C245.162 36.9168 245.372 37.5126 245.407 38.0382C245.424 38.2716 245.424 38.5058 245.407 38.7392C245.407 39.8256 245.407 40.6316 245.407 40.9821C245.426 43.9211 245.024 46.8478 244.216 49.6734V49.5332Z" fill="#201D24"/>
</g>
<path d="M257.498 34.2532C257.516 34.055 257.516 33.8555 257.498 33.6574C257.498 33.0616 257.498 32.4658 257.323 31.9051C256.978 28.752 256.236 25.6551 255.115 22.6881C254.904 22.0923 254.659 21.5316 254.414 20.9709C252.753 17.1229 250.264 13.6886 247.124 10.9128C246.4 10.2482 245.627 9.63899 244.811 9.09042C240.243 6.00771 234.831 4.41611 229.321 4.53449H28.2818C22.4129 4.40825 16.6663 6.22189 11.933 9.69419C7.19981 13.1665 3.74444 18.1034 2.10274 23.7395C2.10274 24.3353 1.71723 24.931 1.54201 25.4918C1.36678 26.0525 1.2266 26.6483 1.08641 27.209C0.946231 27.7697 0.841095 28.3655 0.735958 28.9613C0.367834 30.7178 0.121925 32.4977 0 34.2882C0 35.0592 0 35.7952 0 36.5662C-5.15012e-06 39.1305 0.246447 41.6889 0.735958 44.2061C0.735958 44.8019 0.981277 45.3977 1.12146 45.9584C1.26164 46.5191 1.54201 47.7107 1.82237 48.5518L2.45319 50.3391C3.62442 53.4928 5.29264 56.4388 7.39462 59.0655C7.81517 59.5911 8.27076 60.0818 8.72636 60.5724C11.2423 63.2048 14.2831 65.2793 17.6518 66.6618C21.0205 68.0443 24.642 68.7039 28.2818 68.5979H229.321C232.989 68.7053 236.639 68.0331 240.028 66.6254C243.417 65.2178 246.469 63.1069 248.982 60.4322C249.472 59.9065 249.963 59.3108 250.419 58.75C253.147 55.2146 255.127 51.1603 256.236 46.8345C256.411 46.2388 256.552 45.643 256.657 45.0823C257.273 42.2858 257.579 39.4298 257.568 36.5662C257.568 35.7952 257.533 35.0592 257.498 34.2532ZM28.2818 56.7524C26.5873 56.7842 24.8977 56.5597 23.2703 56.0866C20.4705 55.2595 18.0124 53.5511 16.2612 51.2152C15.8193 50.6259 15.4211 50.0051 15.0696 49.3578C14.4866 48.3399 13.9941 47.2727 13.5977 46.1687C13.3677 45.5838 13.1688 44.9872 13.0019 44.3813C12.313 41.8442 11.9479 39.23 11.9155 36.6012C11.9155 36.2508 11.9155 35.4447 11.9155 34.3233C12.056 32.6553 12.3374 31.0023 12.7566 29.3818C12.8996 28.8001 13.0751 28.2267 13.2823 27.6646C13.5393 26.917 13.8197 26.181 14.1234 25.4567C14.3921 24.8551 14.6964 24.2699 15.0346 23.7044C16.3052 21.3372 18.2294 19.3851 20.578 18.0803C22.9266 16.7755 25.6006 16.1731 28.2818 16.3449H229.321C231.492 16.2402 233.657 16.6416 235.646 17.5175C237.635 18.3933 239.393 19.7195 240.781 21.3914C241.241 21.9341 241.662 22.5079 242.043 23.1087C243.641 25.7865 244.7 28.7508 245.162 31.835C245.29 32.4234 245.372 33.021 245.407 33.6223C245.424 33.844 245.424 34.0666 245.407 34.2882C245.407 35.4097 245.407 36.2157 245.407 36.5662C245.358 39.504 244.886 42.4194 244.005 45.2224C243.832 45.8191 243.621 46.4044 243.374 46.9747C242.366 49.9226 240.433 52.4664 237.863 54.228C235.294 55.9895 232.224 56.8749 229.111 56.7524H28.2818Z" fill="#9E4000"/>
<path d="M256.586 22.9335C256.586 22.3377 256.271 21.7419 256.096 21.1812C255.101 17.6013 253.514 14.2134 251.4 11.1582C250.979 10.5273 250.489 9.93157 250.033 9.37084C247.526 6.33093 244.355 3.90661 240.765 2.28441C237.174 0.662204 233.259 -0.114636 229.321 0.01366H28.2816C24.5212 -0.0282042 20.7907 0.686895 17.3123 2.1164C16.1825 2.58639 15.0824 3.12475 14.0181 3.72849C10.5516 6.0353 7.59633 9.02995 5.33558 12.5266C3.07483 16.0232 1.55688 19.9472 0.875949 24.0549C0.875949 24.6507 0.630629 25.2465 0.525493 25.8423C0.420356 26.438 0.525493 26.9637 0.280173 27.5595C0.0348541 28.1553 0.280173 28.716 0.280173 29.3118C0.280173 29.9076 0.280173 31.4145 0.280173 32.4659C0.280173 33.5173 0.280173 33.9728 0.280173 34.7439C0.465715 38.1594 1.07793 41.5384 2.10255 44.8019L2.73337 46.5893C3.08382 47.5005 3.46932 48.4116 3.88987 49.2878L4.8361 51.1101C7.10234 55.3836 10.5186 58.938 14.6988 61.3719C18.8791 63.8057 23.6567 65.0219 28.4919 64.8831H229.531C234.588 64.9755 239.568 63.6393 243.9 61.0281C244.722 60.5076 245.517 59.9461 246.283 59.3459C250.119 56.1825 253.087 52.0937 254.904 47.4654C255.157 46.8815 255.379 46.2849 255.57 45.6781C256.805 42.1431 257.525 38.4488 257.708 34.7088C257.725 34.4989 257.725 34.2879 257.708 34.078C257.708 33.5173 257.708 32.9916 257.708 32.4659C257.696 29.2562 257.32 26.0582 256.586 22.9335ZM245.477 34.7439C244.963 38.0988 243.679 41.2893 241.727 44.066C241.342 44.6618 240.08 46.2739 239.624 46.8346C238.481 48.4686 236.926 49.7704 235.116 50.6077C233.306 51.4449 231.306 51.7876 229.321 51.6008H28.2816C26.667 51.4764 25.0821 51.098 23.5855 50.4793C22.4204 50.2561 21.3192 49.7773 20.3613 49.0775L18.8193 48.3065C17.4525 47.3252 16.8567 48.0962 15.9806 46.7645C15.5652 46.2028 15.2016 45.6045 14.8942 44.9772C13.3021 41.7937 12.3496 38.3289 12.0905 34.7789C12.0905 33.6574 12.0905 32.8514 12.0905 32.5009C12.0413 31.5787 12.0413 30.6545 12.0905 29.7323C12.0905 29.2066 12.0905 28.6109 12.3359 27.98C12.5812 27.3492 12.5812 26.5432 12.7564 25.8072C12.9316 25.0713 13.0368 24.6157 13.212 24.0199C13.9237 20.5713 15.8206 17.4807 18.5734 15.2849C21.3262 13.0891 24.7611 11.9266 28.2816 11.9993H229.321C232.368 11.9098 235.366 12.7872 237.884 14.5059C240.402 16.2245 242.312 18.6962 243.339 21.5667C243.585 22.1625 243.83 22.7583 244.005 23.319C244.929 26.2113 245.436 29.2203 245.512 32.2556V32.4659C245.512 32.7112 245.512 33.2719 245.512 34.0429C245.516 34.2771 245.504 34.5113 245.477 34.7439Z" fill="url(#paint0_linear_347_144401)"/>
<g opacity="0.5">
<path d="M229.321 62.6753H28.2821C9.25233 62.6753 0.245608 46.5543 0.0353348 31.1342C0.0178441 31.4611 0.0178441 31.7886 0.0353348 32.1155C0.0353348 47.7458 8.86683 64.5677 28.3171 64.5677H229.357C248.772 64.5677 257.603 47.7458 257.603 32.1155C257.621 31.7886 257.621 31.4611 257.603 31.1342C257.183 46.5543 248.316 62.6753 229.321 62.6753Z" fill="url(#paint1_linear_347_144401)"/>
</g>
<g style="mix-blend-mode:multiply" opacity="0.4">
<path d="M255.586 19.6258H254.185L243.215 19.9762H241.148C193.521 21.2729 239.115 22.0089 203.403 22.2892H201.791H190.542H189.525C189.525 21.6935 189.736 21.0977 189.876 20.537H191.102H202.247H204.209C240.131 20.3617 192.504 19.6258 239.781 18.3641H242.444L253.378 18.0137H254.991C255.166 18.4342 255.306 19.03 255.586 19.6258Z" fill="#C97B3A"/>
<path d="M256.568 28.8779C256.568 29.4035 256.568 29.9292 256.568 30.49H244.407C197.902 30.1746 238.73 27.476 201.932 26.3195H201.126L189.736 25.934H189C189 25.3733 189 24.7775 189 24.2168H190.086L201.371 24.6023H202.458C239.466 25.7238 197.831 28.5274 244.162 28.8428H256.568V28.8779Z" fill="#C97B3A"/>
<path d="M255.587 42.0551C255.587 42.6158 255.306 43.2116 255.166 43.8073H253.624H242.515H239.886C231.58 43.8073 253.904 43.8073 253.624 43.8073C232.597 43.8073 235.505 43.2116 204.911 42.8611H202.668H191.523H190.121L189.736 41.1088H190.892H202.107H203.894C240.692 41.5294 193.381 42.3705 241.183 41.985H243.215H254.36L255.587 42.0551Z" fill="#C97B3A"/>
<path d="M66.5864 22.6532H65.1845L54.2153 23.0036H52.1476C4.52059 24.3003 50.1149 25.0363 14.4035 25.3166H12.7914H1.54171H0.525391C0.525391 24.7209 0.735664 24.1251 0.875847 23.5644H2.10244H13.2469H15.2095C51.1312 23.3891 3.50427 22.6532 50.7808 21.3915H53.4443L64.3785 21.0411H65.9906C66.1658 21.4616 66.306 22.0574 66.5864 22.6532Z" fill="#C97B3A"/>
<path d="M67.5679 31.9053C67.5679 32.431 67.5679 32.9566 67.5679 33.5174H55.4071C8.90158 33.202 49.7297 30.5034 12.9318 29.3469H12.1258L0.735958 28.9614H0C0 28.4007 0 27.8049 0 27.2442H1.08641L12.3711 27.6297H13.4575C50.4657 28.7512 8.83149 31.5548 55.1618 31.8702H67.5679V31.9053Z" fill="#C97B3A"/>
<path d="M66.5865 45.0825C66.5865 45.6432 66.3062 46.239 66.166 46.8347H64.624H53.5145H50.8861C42.5803 46.8347 64.9044 46.8347 64.624 46.8347C43.5966 46.8347 46.5054 46.239 15.9106 45.8885H13.6677H2.52317H1.12134L0.73584 44.1362H1.89235H13.1069H14.8943C51.6922 44.5568 4.38058 45.3979 52.1828 45.0124H54.2154H65.3599L66.5865 45.0825Z" fill="#C97B3A"/>
</g>
<g style="mix-blend-mode:overlay" opacity="0.5">
<path d="M54.6714 23.2839L66.4468 22.9335L66.8323 24.8259L54.5312 24.1601L54.6714 23.2839Z" fill="#FFDE55"/>
</g>
<g style="mix-blend-mode:overlay" opacity="0.5">
<path d="M56.4242 34.0428H67.4635C67.4073 36.8451 67.031 39.6318 66.3421 42.3487C66.3421 42.3487 67.078 36.496 64.73 35.6549C61.2604 35.036 57.7405 34.7427 54.2163 34.7788L56.4242 34.0428Z" fill="#FFDE55"/>
</g>
<g style="mix-blend-mode:overlay" opacity="0.5">
<path d="M49.6943 47.5355H66.2358L65.9204 48.7271C62.8348 48.4126 59.7349 48.2605 56.6333 48.2715C48.2925 48.0612 41.5637 48.0262 41.5637 48.0262L49.6943 47.5355Z" fill="#FFDE55"/>
</g>
<g style="mix-blend-mode:multiply" opacity="0.7">
<path d="M230.583 55.0002H27.7209C11.7051 55.0002 11.2495 36.391 11.2495 34.2532C11.2495 32.1154 11.7051 13.5413 27.7209 13.5413H230.583C246.634 13.5413 247.089 32.1505 247.089 34.2532C247.089 36.356 246.634 55.0002 230.583 55.0002Z" fill="#9E4000"/>
</g>
<path d="M230.583 51.6009H27.7209C11.7051 51.6009 11.2495 32.9916 11.2495 30.8539C11.2495 28.7161 11.7051 10.1419 27.7209 10.1419H230.583C246.634 10.1419 247.089 28.7511 247.089 30.8539C247.089 32.9566 246.634 51.6009 230.583 51.6009Z" fill="url(#paint2_linear_347_144401)"/>
<g style="mix-blend-mode:multiply" opacity="0.2">
<path d="M244.671 29.4518C244.461 32.4658 243.164 41.4725 236.681 44.5915C232.857 46.1852 228.75 46.9911 114.607 46.961C110.464 46.9309 26.3702 46.0654 22.5696 44.4163C15.7707 40.8767 14.2287 32.4658 14.0184 29.4518C14.0184 30.2228 12.3362 49.533 28.8427 49.533H229.847C246.354 49.533 244.706 30.2228 244.671 29.4518Z" fill="#1B8943"/>
</g>
<g style="mix-blend-mode:overlay" opacity="0.6">
<path d="M14.0184 29.5572C14.2287 26.9287 14.6142 18.5879 21.0276 15.8894C25.2204 14.5869 119.609 14.0294 123.994 14.2422C228.517 14.0169 233.043 14.6227 237.347 16.0296C244.111 19.1136 244.356 26.9287 244.566 29.5572C244.566 28.8913 246.248 12.0344 229.742 12.0344H28.8427C12.3362 11.9993 14.0184 28.8913 14.0184 29.5572Z" fill="white"/>
</g>
<path d="M121 0.0136719H179.5C167.514 0.0136719 32.258 3.9169 18.4926 4.65883L12 5.01367C13.1643 4.12476 14.3843 3.31654 15.6521 2.59432L25.5158 2.07819C33.9748 1.65883 45.0558 1.11045 55.0132 0.723349C63.2225 0.239478 116.287 0.0136719 121 0.0136719Z" fill="#D27D2C"/>
<defs>
<linearGradient id="paint0_linear_347_144401" x1="33.7838" y1="-0.512024" x2="33.7838" y2="62.1495" gradientUnits="userSpaceOnUse">
<stop stop-color="#F0CA57"/>
<stop offset="1" stop-color="#D45B1A"/>
</linearGradient>
<linearGradient id="paint1_linear_347_144401" x1="1.33202" y1="47.9561" x2="62.802" y2="47.9561" gradientUnits="userSpaceOnUse">
<stop stop-color="#F0CA57"/>
<stop offset="0.5" stop-color="#F7C850"/>
<stop offset="1" stop-color="#FEC649"/>
</linearGradient>
<linearGradient id="paint2_linear_347_144401" x1="34.1693" y1="9.26577" x2="34.1693" y2="49.6734" gradientUnits="userSpaceOnUse">
<stop offset="0.12" stop-color="#A2C522"/>
<stop offset="0.85" stop-color="#83A010"/>
<stop offset="1" stop-color="#677F01"/>
</linearGradient>
</defs>
</svg>
