<svg width="22" height="22" viewBox="0 0 22 22" fill="none" xmlns="http://www.w3.org/2000/svg">
<path d="M12 15C12.0012 15.657 11.8729 16.3079 11.6224 16.9153C11.3718 17.5227 11.0041 18.0748 10.54 18.54L9.12004 20C8.17703 20.9108 6.91402 21.4148 5.60304 21.4034C4.29205 21.392 3.03799 20.8661 2.11095 19.9391C1.18391 19.012 0.658065 17.758 0.646673 16.447C0.635281 15.136 1.13925 13.873 2.05004 12.93L3.46004 11.51C3.9211 11.0369 4.47133 10.6599 5.07894 10.4007C5.68655 10.1416 6.33949 10.0054 7.00004 9.99999C7.26526 9.99999 7.51961 10.1053 7.70715 10.2929C7.89469 10.4804 8.00004 10.7348 8.00004 11C8.00004 11.2652 7.89469 11.5196 7.70715 11.7071C7.51961 11.8946 7.26526 12 7.00004 12C6.20466 12.0007 5.44211 12.3172 4.88004 12.88L3.46004 14.29C2.89646 14.8536 2.57984 15.618 2.57984 16.415C2.57984 17.212 2.89646 17.9764 3.46004 18.54C4.02363 19.1036 4.78801 19.4202 5.58504 19.4202C6.38207 19.4202 7.14646 19.1036 7.71004 18.54L9.12004 17.12C9.68281 16.5579 9.99934 15.7954 10 15C10 14.7348 10.1054 14.4804 10.2929 14.2929C10.4805 14.1053 10.7348 14 11 14C11.2653 14 11.5196 14.1053 11.7072 14.2929C11.8947 14.4804 12 14.7348 12 15ZM21.41 5.58999C21.4098 4.60184 21.1168 3.63591 20.568 2.81417C20.0192 1.99242 19.2393 1.35171 18.3266 0.972949C17.4139 0.594183 16.4095 0.494343 15.4401 0.686036C14.4707 0.877729 13.5799 1.35236 12.88 2.04999L11.46 3.45999C10.996 3.92518 10.6282 4.47727 10.3777 5.08469C10.1272 5.6921 9.99887 6.34294 10 6.99999C10 7.26521 10.1054 7.51956 10.2929 7.7071C10.4805 7.89464 10.7348 7.99999 11 7.99999C11.2653 7.99999 11.5196 7.89464 11.7072 7.7071C11.8947 7.51956 12 7.26521 12 6.99999C12.0007 6.20461 12.3173 5.44206 12.88 4.87999L14.29 3.45999C14.5691 3.18093 14.9004 2.95957 15.265 2.80855C15.6296 2.65752 16.0204 2.57979 16.415 2.57979C16.8097 2.57979 17.2005 2.65752 17.5651 2.80855C17.9297 2.95957 18.261 3.18093 18.54 3.45999C18.8191 3.73905 19.0405 4.07034 19.1915 4.43495C19.3425 4.79956 19.4202 5.19034 19.4202 5.58499C19.4202 5.97964 19.3425 6.37043 19.1915 6.73503C19.0405 7.09964 18.8191 7.43093 18.54 7.70999L17.12 9.11999C16.558 9.68276 15.7954 9.99929 15 9.99999C14.7348 9.99999 14.4805 10.1053 14.2929 10.2929C14.1054 10.4804 14 10.7348 14 11C14 11.2652 14.1054 11.5196 14.2929 11.7071C14.4805 11.8946 14.7348 12 15 12C15.6571 12.0012 16.3079 11.8728 16.9153 11.6223C17.5228 11.3718 18.0749 11.004 18.54 10.54L20 9.11999C20.9164 8.17483 21.4231 6.9064 21.41 5.58999ZM7.29004 14.71C7.38301 14.8037 7.49361 14.8781 7.61547 14.9289C7.73733 14.9797 7.86803 15.0058 8.00004 15.0058C8.13206 15.0058 8.26276 14.9797 8.38462 14.9289C8.50648 14.8781 8.61708 14.8037 8.71004 14.71L14.71 8.70999C14.8983 8.52169 15.0041 8.26629 15.0041 7.99999C15.0041 7.73369 14.8983 7.4783 14.71 7.28999C14.5217 7.10169 14.2663 6.9959 14 6.9959C13.7337 6.9959 13.4783 7.10169 13.29 7.28999L7.29004 13.29C7.19631 13.383 7.12192 13.4936 7.07115 13.6154C7.02038 13.7373 6.99425 13.868 6.99425 14C6.99425 14.132 7.02038 14.2627 7.07115 14.3846C7.12192 14.5064 7.19631 14.617 7.29004 14.71Z" fill="white"/>
</svg>
