<svg width="102" height="79" viewBox="0 0 102 79" fill="none" xmlns="http://www.w3.org/2000/svg">
<g clip-path="url(#clip0_24_40386)">
<path d="M17.1088 10.8263C17.1088 10.8263 18.0837 6.34253 21.4358 5.1493C24.7878 3.95607 25.5838 5.79366 26.1157 6.98905C26.6476 8.18445 26.0264 11.4205 17.9951 13.0173C13.7509 13.2486 17.1088 10.8263 17.1088 10.8263Z" fill="#CE0D5B"/>
<path d="M17.1088 10.8263C17.1088 10.8263 18.0837 6.34253 21.4358 5.1493C24.7878 3.95607 25.5838 5.79366 26.1157 6.98905C26.6476 8.18445 26.0264 11.4205 17.9951 13.0173C13.7509 13.2486 17.1088 10.8263 17.1088 10.8263Z" fill="url(#paint0_linear_24_40386)"/>
<path d="M16.949 13.267C16.949 13.267 17.924 8.78322 21.2603 7.5956C24.5966 6.40797 25.424 8.23436 25.9402 9.43535C26.4564 10.6364 25.8888 13.9234 17.8834 15.4935C13.6171 15.6625 16.949 13.267 16.949 13.267Z" fill="url(#paint1_linear_24_40386)"/>
<path d="M16.9432 13.5495C16.9432 13.5495 17.9182 9.06572 21.2545 7.8781C24.5908 6.69047 25.4238 8.53241 25.9344 9.71785C26.445 10.9033 25.8442 14.097 17.861 15.7293C13.5854 15.9717 16.9432 13.5495 16.9432 13.5495Z" fill="url(#paint2_linear_24_40386)"/>
<path d="M17.214 11.1218C17.214 11.1218 18.189 6.63808 21.541 5.44485C24.8931 4.25163 25.6724 6.04254 26.1822 7.17571L26.1157 6.98903C25.606 5.85586 24.7721 3.96165 21.4358 5.14927C18.0995 6.3369 17.1088 10.8263 17.1088 10.8263C17.1088 10.8263 15.4299 12.0374 15.9836 12.6466C15.9889 12.0137 17.214 11.1218 17.214 11.1218Z" fill="url(#paint3_linear_24_40386)"/>
<path d="M17.2033 10.7926C17.2033 10.7926 13.5515 7.95587 10.1994 9.1491C6.8474 10.3423 7.25576 12.0374 7.73465 13.5322C8.21353 15.0269 10.5253 16.9384 17.7906 13.0901C21.2577 10.5764 17.2033 10.7926 17.2033 10.7926Z" fill="#CE0D5B"/>
<path d="M17.2033 10.7926C17.2033 10.7926 13.5515 7.95587 10.1994 9.1491C6.8474 10.3423 7.25576 12.0374 7.73465 13.5322C8.21353 15.0269 10.5253 16.9384 17.7906 13.0901C21.2577 10.5764 17.2033 10.7926 17.2033 10.7926Z" fill="url(#paint4_linear_24_40386)"/>
<path opacity="0.4" d="M10.2794 9.52376C13.6157 8.33614 17.2045 11.1953 17.2045 11.1953C17.2045 11.1953 18.8019 11.1 19.1382 11.6463C19.3232 10.7216 17.0827 10.8531 17.0827 10.8531C17.0827 10.8531 13.5513 7.95592 10.1992 9.14914C7.39799 10.1463 7.23105 11.5204 7.52136 12.7842C7.34384 11.638 7.72994 10.4313 10.2794 9.52376Z" fill="#FF6768"/>
<path d="M18.4482 12.3477C17.4741 11.7501 16.3844 11.3593 15.2475 11.2C14.1106 11.0406 12.9511 11.1161 11.8416 11.4216C8.52105 12.6036 8.79185 13.9621 9.14336 15.099C9.49488 16.2359 11.7145 17.6894 18.9481 14.1504C22.4668 11.8812 18.4482 12.3477 18.4482 12.3477Z" fill="url(#paint5_linear_24_40386)"/>
<path d="M18.1975 12.1915C17.221 11.5927 16.1284 11.2017 14.9887 11.0433C13.8489 10.8849 12.6867 10.9624 11.5752 11.2711C8.25465 12.4531 8.68836 13.7711 9.04541 14.9236C9.40246 16.076 11.4749 17.5644 18.6974 13.9943C22.2161 11.7251 18.1975 12.1915 18.1975 12.1915Z" fill="url(#paint6_linear_24_40386)"/>
<path d="M27.7255 8.27398L7.51886 15.467C7.13643 15.6031 6.93551 16.0199 7.07008 16.398L12.6855 32.1728C12.82 32.5508 13.2392 32.747 13.6216 32.6108L33.8282 25.4179C34.2106 25.2817 34.4116 24.8649 34.277 24.4869L28.6616 8.712C28.527 8.33396 28.1079 8.13785 27.7255 8.27398Z" fill="url(#paint7_linear_24_40386)"/>
<path style="mix-blend-mode:multiply" d="M29.716 14.3138C29.716 14.3138 26.1685 15.8045 22.3729 17.2959C21.7263 15.442 21.2217 13.5416 20.8633 11.6107L25.9839 13.2936L25.9576 11.7254L27.0123 11.0519C27.0123 11.0519 23.7694 10.2606 22.7888 9.99625L15.3765 12.6348L10.2926 16.285L10.2367 17.6721L12.0412 16.7143L13.4938 18.0552C13.4938 18.0552 15.1014 13.8545 16.5883 13.15C16.9995 12.9436 17.4605 12.8563 17.9178 12.8982C18.3751 12.9402 18.8102 13.1096 19.1728 13.3868L19.9684 13.6295L21.4082 17.6743C19.8345 18.2345 18.1366 18.9441 16.7203 19.4483C14.4804 20.3257 12.1598 20.9815 9.79268 21.406C9.59019 21.4635 9.41808 21.5975 9.3135 21.779C9.20893 21.9606 9.18028 22.175 9.23374 22.3762L10.1475 24.9431C10.2331 25.1328 10.3909 25.2809 10.5866 25.3555C10.7824 25.4301 11.0004 25.4252 11.1938 25.3419C11.1938 25.3419 16.6913 22.7539 19.7128 21.6783C20.421 21.4262 21.3967 21.0789 22.5103 20.7702L25.2404 28.4398L26.6725 27.93C26.6725 27.93 24.92 23.8037 23.5813 20.4415C27.0572 19.397 31.1171 18.2498 31.1171 18.2498C31.3196 18.1922 31.4917 18.0582 31.5963 17.8767C31.7009 17.6952 31.7295 17.4807 31.676 17.2795L30.7623 14.7126C30.6766 14.523 30.5189 14.3748 30.3232 14.3002C30.1274 14.2256 29.9093 14.2305 29.716 14.3138Z" fill="url(#paint8_linear_24_40386)"/>
<path style="mix-blend-mode:multiply" d="M33.3964 24.2044L13.1898 31.3974C13.0988 31.4297 13.0025 31.4441 12.9062 31.4396C12.81 31.4351 12.7157 31.4119 12.6288 31.3712C12.4532 31.289 12.3183 31.1409 12.2537 30.9594L12.6801 32.1572C12.7447 32.3388 12.8796 32.4869 13.0552 32.5691C13.1421 32.6097 13.2364 32.633 13.3326 32.6375C13.4289 32.642 13.5252 32.6276 13.6162 32.5953L33.8228 25.4023C33.9151 25.3718 34.0003 25.3232 34.0733 25.2593C34.1463 25.1954 34.2056 25.1176 34.2476 25.0305C34.2895 24.9435 34.3133 24.8491 34.3174 24.7529C34.3215 24.6568 34.3059 24.561 34.2716 24.4713L33.8452 23.2734C33.9098 23.4549 33.8988 23.655 33.8147 23.8296C33.7305 24.0042 33.58 24.139 33.3964 24.2044Z" fill="url(#paint9_linear_24_40386)"/>
<path d="M16.0447 12.5197C16.0447 12.5197 14.4044 11.0001 11.6915 13.4908C10.7673 14.4377 9.94958 15.4811 9.25294 16.6025C9.18621 16.7139 9.40246 17.0226 9.40246 17.0226L11.3314 16.5638L12.6281 18.3633C12.6281 18.3633 15.0069 12.9417 16.0447 12.5197Z" fill="#CE0D5B"/>
<path d="M29.7574 13.633C29.9567 13.5661 30.1736 13.576 30.3647 13.6606C30.5559 13.7453 30.7073 13.8985 30.7888 14.0897L31.6914 16.6255C31.7382 16.832 31.703 17.049 31.5931 17.2317C31.4832 17.4143 31.3071 17.5486 31.101 17.6069C31.101 17.6069 22.5295 20.0272 19.4292 21.1308C16.329 22.2343 10.7528 24.8503 10.7528 24.8503C10.5551 24.9405 10.3304 24.951 10.1263 24.8797C9.9221 24.8084 9.7546 24.6608 9.65929 24.4683L8.75662 21.9325C8.70988 21.726 8.74508 21.5091 8.85495 21.3264C8.96483 21.1438 9.14098 21.0094 9.34703 20.9511C11.802 20.4865 14.2065 19.7832 16.5256 18.8515C21.4513 17.0981 29.7574 13.633 29.7574 13.633Z" fill="#EF1468"/>
<path d="M29.763 13.6486C29.9596 13.5823 30.1736 13.5907 30.3633 13.6722C30.5529 13.7538 30.7046 13.9026 30.7888 14.0897L31.6971 16.6411C31.7438 16.8476 31.7086 17.0646 31.5987 17.2472C31.4888 17.4299 31.3127 17.5642 31.1066 17.6225C31.1066 17.6225 22.5406 20.0583 19.4404 21.1619C16.3401 22.2655 10.7584 24.8659 10.7584 24.8659C10.5607 24.956 10.336 24.9666 10.1319 24.8952C9.92772 24.8239 9.76022 24.6764 9.6649 24.4839L8.75669 21.9325C8.70995 21.726 8.74516 21.5091 8.85503 21.3264C8.96491 21.1438 9.14106 21.0094 9.3471 20.9511C11.8034 20.4919 14.2098 19.7938 16.5312 18.8671C21.4569 17.1136 29.763 13.6486 29.763 13.6486Z" fill="url(#paint10_linear_24_40386)"/>
<path d="M29.7417 13.6386C29.9421 13.5625 30.164 13.5672 30.3598 13.6515C30.5556 13.7358 30.7096 13.8932 30.7888 14.0897L31.686 16.61C31.7327 16.8165 31.6975 17.0334 31.5876 17.2161C31.4778 17.3987 31.3016 17.5331 31.0956 17.5914C31.0956 17.5914 22.5295 20.0271 19.4135 21.1363C16.2976 22.2455 10.7316 24.8404 10.7316 24.8404C10.535 24.9254 10.3136 24.9326 10.113 24.8604C9.91246 24.7883 9.74807 24.6424 9.65381 24.4528L8.75668 21.9325C8.71038 21.7272 8.74671 21.5116 8.85796 21.3313C8.96922 21.151 9.14665 21.0202 9.35262 20.9667C11.803 20.4833 14.203 19.7698 16.5201 18.8359C21.4301 17.0881 29.7417 13.6386 29.7417 13.6386Z" fill="url(#paint11_linear_24_40386)"/>
<g style="mix-blend-mode:multiply" opacity="0.4">
<path d="M30.9655 17.0768C30.9655 17.0768 22.3995 19.5125 19.2835 20.6217C16.1675 21.7309 10.5543 24.3426 10.5543 24.3426C10.3583 24.4319 10.1353 24.4413 9.9335 24.3687C9.73175 24.2962 9.56757 24.1475 9.47656 23.955L9.67593 24.515C9.77018 24.7046 9.93457 24.8505 10.1351 24.9227C10.3357 24.9948 10.5571 24.9876 10.7537 24.9026C10.7537 24.9026 16.3826 22.2854 19.4829 21.1818C22.5831 20.0782 31.1649 17.6368 31.1649 17.6368C31.3587 17.5694 31.5212 17.4338 31.6214 17.2559C31.7216 17.0779 31.7524 16.8702 31.7081 16.6722L31.5087 16.1121C31.557 16.3103 31.5278 16.5198 31.4271 16.6986C31.3264 16.8775 31.1615 17.0125 30.9655 17.0768Z" fill="#7F1244"/>
</g>
<path d="M21.4171 16.9525C21.4171 16.9525 22.3329 18.3793 22.7951 18.8809C23.4838 19.6699 23.9002 19.6443 23.9002 19.6443C23.3021 19.9192 22.6806 20.1404 22.0432 20.3054C21.0177 20.5127 21.4171 16.9525 21.4171 16.9525Z" fill="url(#paint12_linear_24_40386)"/>
<path d="M15.8952 12.0996C15.136 11.9301 14.3429 11.9702 13.6019 12.2154C12.8609 12.4606 12.2003 12.9017 11.6916 13.4908C10.7069 14.3841 9.88218 15.4365 9.25303 16.6025L11.1765 16.1281L12.4315 17.9601C12.4315 17.9601 14.8575 12.5216 15.8952 12.0996Z" fill="url(#paint13_linear_24_40386)"/>
<path d="M18.909 11.5001C19.2419 10.7849 19.8025 10.1967 20.5041 9.82656C21.2058 9.45639 22.0093 9.32489 22.7903 9.45241C24.1519 9.56627 25.4892 9.86906 26.7632 10.3519C26.8908 10.4117 26.9182 10.7875 26.9182 10.7875L25.1332 11.6508L25.3755 13.8257C25.3755 13.8257 20.0587 11.1434 18.909 11.5001Z" fill="#CE0D5B"/>
<path d="M18.7484 11.0489C19.2447 10.4503 19.8951 9.99585 20.6299 9.7343C21.3646 9.47275 22.1559 9.414 22.9188 9.56436C24.248 9.62441 25.5539 9.91934 26.7751 10.4353L24.9845 11.283L25.2204 13.3901C25.2204 13.3901 19.8981 10.6922 18.7484 11.0489Z" fill="url(#paint14_linear_24_40386)"/>
<path d="M25.7906 27.8934C25.8528 28.067 25.846 28.2581 25.7714 28.4278C25.6969 28.5976 25.5602 28.7333 25.389 28.8076L22.7294 29.7543C22.5471 29.8147 22.3487 29.802 22.1767 29.7191C22.0046 29.6362 21.8727 29.4896 21.8091 29.3107C21.8091 29.3107 19.9177 22.254 19.0372 19.7804C18.1566 17.3068 15.8836 12.6647 15.8836 12.6647C15.8198 12.4858 15.8295 12.2888 15.9104 12.1159C15.9913 11.9429 16.1371 11.8077 16.3166 11.7393L18.9762 10.7925C19.1598 10.7272 19.3616 10.7366 19.5372 10.8187C19.7127 10.9009 19.8477 11.049 19.9123 11.2306C20.2039 13.2438 20.7329 15.2146 21.4883 17.1025C22.8643 21.1174 25.7906 27.8934 25.7906 27.8934Z" fill="#EF1468"/>
<path d="M25.7748 27.899C25.8365 28.07 25.8311 28.2582 25.7597 28.4264C25.6883 28.5946 25.556 28.7306 25.389 28.8076L22.7137 29.7599C22.53 29.8253 22.3282 29.8159 22.1527 29.7337C21.9771 29.6516 21.8422 29.5034 21.7776 29.3219C21.7776 29.3219 19.8862 22.2652 19.0057 19.7916C18.1251 17.318 15.8521 12.6758 15.8521 12.6758C15.7874 12.4943 15.7984 12.2942 15.8826 12.1196C15.9667 11.945 16.1172 11.8102 16.3008 11.7448L18.9762 10.7925C19.1598 10.7271 19.3616 10.7366 19.5372 10.8187C19.7127 10.9008 19.8477 11.049 19.9123 11.2305C20.2039 13.2438 20.7329 15.2145 21.4883 17.1024C22.8486 21.123 25.7748 27.899 25.7748 27.899Z" fill="url(#paint15_linear_24_40386)"/>
<g style="mix-blend-mode:multiply" opacity="0.4">
<path d="M24.8742 27.3608L22.2146 28.3075C21.8369 28.442 21.5215 28.2036 21.3886 27.8303L21.8092 29.3107C21.8728 29.4896 22.0048 29.6362 22.1768 29.7191C22.3488 29.802 22.5472 29.8147 22.7296 29.7543L25.3892 28.8076C25.5728 28.7422 25.7233 28.6074 25.8074 28.4328C25.8916 28.2582 25.9026 28.0581 25.8379 27.8766L25.2285 26.4634C25.2697 26.5441 25.2932 26.6327 25.2975 26.7233C25.3017 26.8138 25.2867 26.9045 25.2532 26.9892C25.2198 27.0739 25.1687 27.1507 25.1034 27.2148C25.0381 27.2788 24.96 27.3286 24.8742 27.3608Z" fill="#7F1244"/>
</g>
<path opacity="0.4" d="M9.42436 16.4363C10.0871 15.3047 10.9166 14.2768 11.8851 13.3868C12.3039 12.904 12.8349 12.5294 13.4317 12.2956C14.0284 12.0617 14.6728 11.9759 15.3085 12.0455C13.976 12.1979 12.7374 12.8126 11.8126 13.7808C10.2351 15.3765 9.42436 16.4363 9.42436 16.4363Z" fill="#FF6768"/>
<path d="M16.2575 11.6727C16.2575 11.6727 16.1791 10.4561 16.4291 10.2619C16.7563 10.0906 17.106 9.96606 17.4678 9.89216C17.6941 9.98259 17.8998 10.1167 18.0729 10.2867C18.246 10.4567 18.3832 10.6593 18.4765 10.8828L16.2575 11.6727Z" fill="#CE0D5B"/>
<path d="M16.2575 11.6727C16.2575 11.6727 16.1791 10.4561 16.4291 10.2619C16.7563 10.0906 17.106 9.96606 17.4678 9.89216C17.6941 9.98259 17.8998 10.1167 18.0729 10.2867C18.246 10.4567 18.3832 10.6593 18.4765 10.8828L16.2575 11.6727Z" fill="url(#paint16_linear_24_40386)"/>
<path opacity="0.4" d="M16.6261 10.367C16.9479 10.1976 17.2925 10.0749 17.649 10.0029L17.8137 10.067C17.7073 9.98581 17.5887 9.92158 17.4622 9.8766C17.1004 9.9505 16.7506 10.075 16.4235 10.2463C16.1735 10.4405 16.2519 11.6571 16.2519 11.6571L16.425 11.5955C16.43 11.2607 16.4334 10.5233 16.6261 10.367Z" fill="#FF6768"/>
<g style="mix-blend-mode:overlay">
<path d="M14.8954 8.49409C18.4179 7.08243 21.7919 7.19603 22.4197 8.76044C23.0475 10.3249 20.7132 12.7333 17.2323 14.1127C13.7515 15.492 10.284 15.4642 9.6562 13.8998C9.02839 12.3354 11.3729 9.90576 14.8954 8.49409Z" fill="white"/>
</g>
</g>
<g clip-path="url(#clip1_24_40386)">
<path d="M76.5372 7.43566C76.5372 7.43566 78.9484 6.0978 80.8164 7.13813C82.6845 8.17846 82.1704 9.26657 81.8416 9.98079C81.5128 10.695 79.8053 11.6978 75.8994 8.70474C74.1119 6.88011 76.5372 7.43566 76.5372 7.43566Z" fill="#CE0D5B"/>
<path d="M76.5372 7.43566C76.5372 7.43566 78.9484 6.0978 80.8164 7.13813C82.6845 8.17846 82.1704 9.26657 81.8416 9.98079C81.5128 10.695 79.8053 11.6978 75.8994 8.70474C74.1119 6.88011 76.5372 7.43566 76.5372 7.43566Z" fill="url(#paint17_linear_24_40386)"/>
<path d="M75.3718 8.33146C75.3718 8.33146 77.7829 6.9936 79.6422 8.02905C81.5015 9.06449 81.005 10.1624 80.6674 10.8717C80.3298 11.581 78.6206 12.6283 74.737 9.63632C72.9689 7.77701 75.3718 8.33146 75.3718 8.33146Z" fill="url(#paint18_linear_24_40386)"/>
<path d="M75.2419 8.4409C75.2419 8.4409 77.653 7.10304 79.5123 8.13849C81.3716 9.17393 80.8703 10.2805 80.5375 10.9811C80.2048 11.6818 78.5245 12.677 74.6216 9.71975C72.8166 7.88535 75.2419 8.4409 75.2419 8.4409Z" fill="url(#paint19_linear_24_40386)"/>
<path d="M76.4453 7.60042C76.4453 7.60042 78.8565 6.26256 80.7245 7.30289C82.5926 8.34322 82.093 9.40532 81.7835 10.0849L81.8414 9.98082C82.1509 9.30129 82.6755 8.17361 80.8163 7.13816C78.957 6.10272 76.5371 7.43569 76.5371 7.43569C76.5371 7.43569 75.3244 7.15792 75.269 7.64953C75.5568 7.40091 76.4453 7.60042 76.4453 7.60042Z" fill="url(#paint20_linear_24_40386)"/>
<path d="M76.5898 7.46499C76.5898 7.46499 76.4225 4.69119 74.5544 3.65086C72.6864 2.61053 72.0829 3.46713 71.598 4.2761C71.113 5.08508 71.1666 6.88691 75.7853 8.64128C78.2953 9.20989 76.5898 7.46499 76.5898 7.46499Z" fill="#CE0D5B"/>
<path d="M76.5898 7.46499C76.5898 7.46499 76.4225 4.69119 74.5544 3.65086C72.6864 2.61053 72.0829 3.46713 71.598 4.2761C71.113 5.08508 71.1666 6.88691 75.7853 8.64128C78.2953 9.20989 76.5898 7.46499 76.5898 7.46499Z" fill="url(#paint21_linear_24_40386)"/>
<path opacity="0.4" d="M74.417 3.83563C76.2763 4.87108 76.4085 7.62535 76.4085 7.62535C76.4085 7.62535 77.085 8.30877 76.9717 8.6773C77.4626 8.39412 76.5147 7.43461 76.5147 7.43461C76.5147 7.43461 76.4224 4.69121 74.5544 3.65088C72.9933 2.7815 72.3067 3.25101 71.8511 3.8833C72.2983 3.34858 72.9962 3.04439 74.417 3.83563Z" fill="#FF6768"/>
<path d="M76.3814 8.64385C76.265 7.96703 76.0093 7.32006 75.6304 6.74354C75.2515 6.16702 74.7576 5.67338 74.1797 5.2936C72.3292 4.26304 71.8232 4.92402 71.4492 5.5336C71.0753 6.14317 71.2992 7.72178 75.7657 9.58446C78.1856 10.2734 76.3814 8.64385 76.3814 8.64385Z" fill="url(#paint22_linear_24_40386)"/>
<path d="M76.3526 8.4687C76.2357 7.7903 75.979 7.14195 75.5985 6.5645C75.2181 5.98705 74.7222 5.49303 74.1421 5.11357C72.2916 4.08301 71.8685 4.8015 71.4897 5.41974C71.1109 6.03798 71.2607 7.56396 75.7369 9.40931C78.1568 10.0982 76.3526 8.4687 76.3526 8.4687Z" fill="url(#paint23_linear_24_40386)"/>
<path d="M81.8997 11.2173L70.6388 4.94598C70.4257 4.82729 70.1578 4.90187 70.0405 5.11255L65.1446 13.9037C65.0273 14.1144 65.105 14.3814 65.3181 14.5001L76.579 20.7713C76.7921 20.89 77.06 20.8155 77.1773 20.6048L82.0732 11.8136C82.1905 11.603 82.1129 11.3359 81.8997 11.2173Z" fill="url(#paint24_linear_24_40386)"/>
<path style="mix-blend-mode:multiply" d="M79.9621 14.5112C79.9621 14.5112 77.8822 13.5005 75.7036 12.3781C76.2843 11.351 76.9422 10.3696 77.672 9.44201L78.9427 12.4214L79.6404 11.7877L80.3627 11.9968C80.3627 11.9968 79.434 10.2188 79.1645 9.67118L75.0337 7.37073L71.3695 6.52276L70.721 7.04759L71.8691 7.48252L71.8397 8.67014C71.8397 8.67014 74.3739 7.73023 75.2817 8.12218C75.5379 8.22602 75.7601 8.39952 75.9225 8.62264C76.085 8.84575 76.181 9.10938 76.1996 9.38305L76.4056 9.83851L75.1502 12.0927C74.2732 11.6042 73.2795 11.119 72.4902 10.6794C71.2057 10.016 69.9894 9.22832 68.859 8.3278C68.7527 8.2592 68.624 8.23462 68.5006 8.25939C68.3771 8.28416 68.2689 8.35628 68.1993 8.46018L67.4026 9.89069C67.351 10.0046 67.3466 10.1346 67.3906 10.2525C67.4345 10.3705 67.5232 10.467 67.6375 10.5213C67.6375 10.5213 70.9861 11.9772 72.67 12.915C73.0646 13.1348 73.6084 13.4376 74.1894 13.8179L71.8091 18.0921L72.6071 18.5366C72.6071 18.5366 73.7753 16.1089 74.7625 14.1712C76.6125 15.3264 78.7405 16.7046 78.7405 16.7046C78.8468 16.7732 78.9756 16.7978 79.099 16.773C79.2224 16.7483 79.3306 16.6761 79.4003 16.5722L80.1969 15.1417C80.2486 15.0278 80.2529 14.8979 80.209 14.7799C80.1651 14.6619 80.0764 14.5654 79.9621 14.5112Z" fill="url(#paint25_linear_24_40386)"/>
<path style="mix-blend-mode:multiply" d="M76.9556 20.0951L65.6947 13.8239C65.644 13.7956 65.5993 13.7578 65.5632 13.7126C65.527 13.6673 65.5002 13.6155 65.484 13.5602C65.4515 13.4483 65.4649 13.3287 65.5212 13.2275L65.1495 13.8951C65.0931 13.9962 65.0797 14.1159 65.1123 14.2277C65.1284 14.2831 65.1553 14.3349 65.1914 14.3801C65.2276 14.4254 65.2722 14.4632 65.3229 14.4914L76.5838 20.7627C76.6342 20.7923 76.6899 20.8115 76.7477 20.8191C76.8055 20.8267 76.8642 20.8226 76.9201 20.8071C76.9761 20.7915 77.0281 20.7648 77.0732 20.7285C77.1182 20.6923 77.1553 20.6472 77.1822 20.5961L77.5539 19.9286C77.4976 20.0297 77.4029 20.1041 77.2907 20.1354C77.1785 20.1666 77.058 20.1521 76.9556 20.0951Z" fill="url(#paint26_linear_24_40386)"/>
<path d="M75.3507 7.62681C75.3507 7.62681 75.3863 6.28362 73.1859 6.04641C72.3919 6.00458 71.5965 6.04915 70.8139 6.1793C70.7371 6.19335 70.6835 6.41339 70.6835 6.41339L71.6556 7.10242L71.3573 8.40154C71.3573 8.40154 74.7486 7.32558 75.3507 7.62681Z" fill="#CE0D5B"/>
<path d="M80.2858 14.2599C80.395 14.3233 80.4766 14.4252 80.5142 14.5451C80.5518 14.665 80.5426 14.7941 80.4886 14.9067L79.7016 16.3199C79.6269 16.4229 79.515 16.493 79.3889 16.5158C79.2629 16.5387 79.1324 16.5124 79.0243 16.4425C79.0243 16.4425 74.5324 13.532 72.8047 12.5698C71.0769 11.6076 67.6845 10.1272 67.6845 10.1272C67.5654 10.0737 67.4715 9.97645 67.4228 9.85599C67.374 9.73553 67.3742 9.60139 67.4233 9.48203L68.2103 8.06886C68.285 7.96586 68.397 7.89571 68.523 7.87289C68.649 7.85007 68.7796 7.87633 68.8876 7.94625C70.0709 8.87048 71.342 9.67727 72.6823 10.3549C75.4274 11.8836 80.2858 14.2599 80.2858 14.2599Z" fill="#EF1468"/>
<path d="M80.2809 14.2686C80.3888 14.331 80.4699 14.431 80.5083 14.549C80.5467 14.667 80.5396 14.7945 80.4885 14.9067L79.6967 16.3285C79.622 16.4315 79.5101 16.5017 79.384 16.5245C79.258 16.5473 79.1275 16.5211 79.0194 16.4511C79.0194 16.4511 74.5227 13.5493 72.795 12.5871C71.0672 11.625 67.6796 10.1359 67.6796 10.1359C67.5605 10.0824 67.4666 9.98512 67.4179 9.86466C67.3691 9.7442 67.3693 9.61006 67.4184 9.4907L68.2103 8.06885C68.285 7.96586 68.3969 7.89571 68.5229 7.87289C68.649 7.85007 68.7795 7.87633 68.8875 7.94624C70.069 8.87322 71.3384 9.68291 72.6774 10.3636C75.4225 11.8923 80.2809 14.2686 80.2809 14.2686Z" fill="url(#paint27_linear_24_40386)"/>
<path d="M80.277 14.255C80.3908 14.3153 80.4767 14.4173 80.5163 14.5392C80.5558 14.661 80.5459 14.793 80.4885 14.9067L79.7064 16.3112C79.6317 16.4142 79.5197 16.4843 79.3937 16.5071C79.2676 16.53 79.1371 16.5037 79.0291 16.4338C79.0291 16.4338 74.5323 13.532 72.7959 12.5649C71.0594 11.5978 67.6805 10.1137 67.6805 10.1137C67.5642 10.0586 67.4731 9.9615 67.4261 9.84234C67.3792 9.72317 67.3799 9.59107 67.4281 9.47333L68.2103 8.06883C68.2846 7.96652 68.3964 7.8974 68.5219 7.87613C68.6475 7.85486 68.7769 7.88311 68.8827 7.95489C70.0727 8.86961 71.3466 9.67033 72.6871 10.3462C75.4234 11.8701 80.277 14.255 80.277 14.255Z" fill="url(#paint28_linear_24_40386)"/>
<g style="mix-blend-mode:multiply" opacity="0.4">
<path d="M79.2101 16.171C79.2101 16.171 74.7133 13.2692 72.9768 12.3021C71.2403 11.3351 67.8351 9.83625 67.8351 9.83625C67.7171 9.78318 67.6244 9.68619 67.5771 9.56632C67.5299 9.44645 67.5319 9.31337 67.5828 9.19592L67.4089 9.50803C67.3607 9.62577 67.36 9.75787 67.407 9.87704C67.454 9.99621 67.545 10.0933 67.6613 10.1484C67.6613 10.1484 71.0753 11.6521 72.803 12.6142C74.5307 13.5764 79.0363 16.4831 79.0363 16.4831C79.1436 16.5439 79.2692 16.5635 79.3893 16.5382C79.5094 16.5129 79.6154 16.4444 79.6872 16.3459L79.861 16.0338C79.7907 16.1341 79.6846 16.204 79.5639 16.2295C79.4432 16.2549 79.3168 16.2341 79.2101 16.171Z" fill="#7F1244"/>
</g>
<path d="M75.4796 11.8105C75.4796 11.8105 75.1985 12.7898 75.1554 13.1974C75.0722 13.8212 75.2489 13.9991 75.2489 13.9991C74.8876 13.8381 74.5412 13.6452 74.214 13.4228C73.7137 13.042 75.4796 11.8105 75.4796 11.8105Z" fill="url(#paint29_linear_24_40386)"/>
<path d="M75.481 7.3927C75.2565 6.98266 74.9239 6.64044 74.5193 6.40312C74.1147 6.1658 73.6536 6.04243 73.1859 6.04638C72.3921 5.956 71.5898 6.00095 70.8139 6.17927L71.7908 6.85964L71.4613 8.15277C71.4613 8.15277 74.8789 7.09147 75.481 7.3927Z" fill="url(#paint30_linear_24_40386)"/>
<path d="M76.9469 8.51569C77.4018 8.38237 77.8897 8.40225 78.3351 8.57226C78.7805 8.74227 79.1585 9.05292 79.4106 9.45613C79.8992 10.1161 80.2928 10.84 80.58 11.6067C80.6036 11.688 80.4448 11.8494 80.4448 11.8494L79.3471 11.3858L78.4612 12.3577C78.4612 12.3577 77.5639 8.89336 76.9469 8.51569Z" fill="#CE0D5B"/>
<path d="M77.0868 8.26433C77.5538 8.25103 78.017 8.36449 78.4265 8.59253C78.8359 8.82056 79.1762 9.15455 79.4109 9.55863C79.9109 10.1826 80.2956 10.8892 80.5469 11.6452L79.4541 11.1729L78.5962 12.115C78.5962 12.115 77.7037 8.642 77.0868 8.26433Z" fill="url(#paint31_linear_24_40386)"/>
<path d="M72.2738 18.1239C72.2201 18.2208 72.1311 18.2935 72.0249 18.3271C71.9187 18.3608 71.8032 18.3529 71.7018 18.3051L70.2196 17.4797C70.12 17.4212 70.0471 17.3266 70.0163 17.2161C69.9855 17.1055 69.9994 16.9878 70.0549 16.8882C70.0549 16.8882 72.4911 13.2357 73.2588 11.8572C74.0265 10.4788 75.2212 7.61151 75.2212 7.61151C75.2766 7.51181 75.3694 7.43804 75.4796 7.406C75.5898 7.37395 75.7086 7.38618 75.8107 7.44006L77.2929 8.26549C77.3952 8.32248 77.471 8.41733 77.5035 8.52918C77.536 8.64102 77.5227 8.76069 77.4663 8.86186C76.6729 9.79192 75.9929 10.8123 75.44 11.902C74.1728 14.1155 72.2738 18.1239 72.2738 18.1239Z" fill="#EF1468"/>
<path d="M72.265 18.119C72.2122 18.2146 72.1251 18.2868 72.0208 18.3213C71.9166 18.3557 71.8027 18.3499 71.7017 18.3051L70.2108 17.4748C70.1084 17.4178 70.0327 17.3229 70.0002 17.2111C69.9676 17.0992 69.981 16.9796 70.0373 16.8784C70.0373 16.8784 72.4736 13.226 73.2413 11.8475C74.0089 10.469 75.2036 7.60175 75.2036 7.60175C75.2599 7.50057 75.3546 7.42619 75.4668 7.39495C75.579 7.36371 75.6996 7.37818 75.8019 7.43518L77.2928 8.26549C77.3952 8.32248 77.4709 8.41734 77.5035 8.52918C77.536 8.64102 77.5226 8.76069 77.4663 8.86186C76.6729 9.79192 75.9928 10.8123 75.44 11.902C74.164 14.1106 72.265 18.119 72.265 18.119Z" fill="url(#paint32_linear_24_40386)"/>
<g style="mix-blend-mode:multiply" opacity="0.4">
<path d="M72.151 17.4988L70.6688 16.6734C70.4583 16.5562 70.4409 16.3193 70.5568 16.1112L70.0551 16.8882C69.9996 16.9879 69.9857 17.1056 70.0165 17.2161C70.0473 17.3267 70.1202 17.4213 70.2198 17.4797L71.702 18.3051C71.8043 18.3621 71.9248 18.3766 72.037 18.3453C72.1493 18.3141 72.2439 18.2397 72.3003 18.1385L72.6967 17.303C72.6766 17.3536 72.6459 17.3993 72.6067 17.4372C72.5675 17.475 72.5206 17.5041 72.4691 17.5226C72.4176 17.5411 72.3626 17.5485 72.3078 17.5444C72.253 17.5403 72.1996 17.5248 72.151 17.4988Z" fill="#7F1244"/>
</g>
<path opacity="0.4" d="M70.9568 6.19077C71.7306 6.04127 72.5237 6.00816 73.3096 6.09256C73.6937 6.09021 74.0734 6.18138 74.4156 6.3581C74.7579 6.53483 75.0522 6.79174 75.2728 7.10639C74.6756 6.56512 73.9069 6.24968 73.103 6.21601C71.7569 6.13654 70.9568 6.19077 70.9568 6.19077Z" fill="#FF6768"/>
<path d="M75.8173 7.38697C75.8173 7.38697 76.3355 6.8691 76.5224 6.905C76.7295 6.98475 76.9244 7.09329 77.1012 7.22735C77.1501 7.36539 77.1711 7.51143 77.163 7.65703C77.1549 7.80263 77.1178 7.9449 77.0539 8.07564L75.8173 7.38697Z" fill="#CE0D5B"/>
<path d="M75.8173 7.38697C75.8173 7.38697 76.3355 6.8691 76.5224 6.905C76.7295 6.98475 76.9244 7.09329 77.1012 7.22735C77.1501 7.36539 77.1711 7.51143 77.163 7.65703C77.1549 7.80263 77.1178 7.9449 77.0539 8.07564L75.8173 7.38697Z" fill="url(#paint33_linear_24_40386)"/>
<path opacity="0.4" d="M76.5531 7.03566C76.7572 7.11377 76.9492 7.2207 77.1231 7.35313L77.1595 7.45289C77.154 7.37266 77.136 7.29365 77.1061 7.21869C76.9292 7.08463 76.7343 6.97609 76.5272 6.89633C76.3404 6.86043 75.8222 7.3783 75.8222 7.3783L75.9187 7.43203C76.0718 7.30149 76.4061 7.01063 76.5531 7.03566Z" fill="#FF6768"/>
<g style="mix-blend-mode:overlay">
<path d="M76.7126 5.51149C78.7468 6.54217 80.0335 8.11062 79.5761 9.01448C79.1187 9.91833 77.1055 9.81946 75.1024 8.79476C73.0992 7.77007 71.7367 6.19343 72.1941 5.28957C72.6515 4.38572 74.6783 4.48081 76.7126 5.51149Z" fill="white"/>
</g>
</g>
<path d="M49.7567 6.30534C49.7567 6.30534 53.6756 0 59.4324 0C65.1892 0 65.4054 3.23282 65.5675 5.34351C65.7297 7.4542 63.027 12.0496 49.9189 10.126C43.3243 8.17557 49.7567 6.30534 49.7567 6.30534Z" fill="#CE0D5B"/>
<path d="M49.7567 6.30534C49.7567 6.30534 53.6756 0 59.4324 0C65.1892 0 65.4054 3.23282 65.5675 5.34351C65.7297 7.4542 63.027 12.0496 49.9189 10.126C43.3243 8.17557 49.7567 6.30534 49.7567 6.30534Z" fill="url(#paint34_linear_24_40386)"/>
<path d="M48.1891 9.93895C48.1891 9.93895 52.108 3.63361 57.8377 3.63361C63.5675 3.63361 63.8377 6.86643 63.9729 8.97712C64.108 11.0878 61.4593 15.7901 48.4053 13.8397C41.8107 11.7825 48.1891 9.93895 48.1891 9.93895Z" fill="url(#paint35_linear_24_40386)"/>
<path d="M48.0271 10.3664C48.0271 10.3664 51.946 4.0611 57.6757 4.0611C63.4054 4.0611 63.6757 7.32064 63.8108 9.40461C63.946 11.4886 61.2973 16.0306 48.2433 14.187C41.5946 12.2367 48.0271 10.3664 48.0271 10.3664Z" fill="url(#paint36_linear_24_40386)"/>
<path d="M49.7568 6.81298C49.7568 6.81298 53.6757 0.507634 59.4325 0.507634C65.1892 0.507634 65.4054 3.6603 65.5676 5.66412V5.34351C65.4054 3.33969 65.1622 0 59.4325 0C53.7027 0 49.7568 6.30534 49.7568 6.30534C49.7568 6.30534 46.5406 7.24046 47.0541 8.46947C47.4054 7.50763 49.7568 6.81298 49.7568 6.81298Z" fill="url(#paint37_linear_24_40386)"/>
<path d="M49.9189 6.30534C49.9189 6.30534 45.8918 0 40.1351 0C34.3783 0 34.081 2.80534 33.9999 5.34351C33.9189 7.88168 36.4053 12.0496 49.5675 10.126C56.2162 8.17557 49.9189 6.30534 49.9189 6.30534Z" fill="#CE0D5B"/>
<path d="M49.9189 6.30534C49.9189 6.30534 45.8918 0 40.1351 0C34.3783 0 34.081 2.80534 33.9999 5.34351C33.9189 7.88168 36.4053 12.0496 49.5675 10.126C56.2162 8.17557 49.9189 6.30534 49.9189 6.30534Z" fill="url(#paint38_linear_24_40386)"/>
<path opacity="0.4" d="M40.054 0.614504C45.7838 0.614504 49.7027 6.91985 49.7027 6.91985C49.7027 6.91985 52.1892 7.64122 52.4054 8.65649C53.1892 7.34733 49.7027 6.33206 49.7027 6.33206C49.7027 6.33206 45.8919 0 40.1351 0C35.3243 0 34.3243 2.00382 34.0811 4.08779C34.4324 2.24427 35.6756 0.614504 40.054 0.614504Z" fill="#FF6768"/>
<path d="M50.9729 9.35116C49.8124 7.91171 48.3635 6.72487 46.7171 5.86511C45.0706 5.00535 43.2622 4.49122 41.4053 4.35498C35.7026 4.35498 35.3783 6.57254 35.2972 8.4962C35.2161 10.4199 37.8107 13.8397 50.7567 12.3702C57.3513 10.8206 50.9729 9.35116 50.9729 9.35116Z" fill="url(#paint39_linear_24_40386)"/>
<path d="M50.6756 8.97708C49.5121 7.53445 48.0589 6.34574 46.4075 5.48585C44.7562 4.62596 42.9426 4.11354 41.081 3.9809C35.3783 3.9809 35.3243 6.22517 35.2432 8.17555C35.1621 10.1259 37.5135 13.5191 50.4594 11.9962C57.054 10.4465 50.6756 8.97708 50.6756 8.97708Z" fill="url(#paint40_linear_24_40386)"/>
<path d="M67.3243 8.1756H32.6216C31.9648 8.1756 31.4324 8.70192 31.4324 9.35117V36.4428C31.4324 37.092 31.9648 37.6183 32.6216 37.6183H67.3243C67.981 37.6183 68.5135 37.092 68.5135 36.4428V9.35117C68.5135 8.70192 67.981 8.1756 67.3243 8.1756Z" fill="url(#paint41_linear_24_40386)"/>
<path style="mix-blend-mode:multiply" d="M67.0812 18.4618C67.0812 18.4618 60.8649 18.8092 54.2704 19.0229C54.2907 15.8464 54.5527 12.6758 55.0541 9.53816L61.946 14.8817L62.7568 12.4771L64.7298 12.0229C64.7298 12.0229 60.2163 9.05725 58.8649 8.12213H46.1352L36.4055 10.9275L35.5677 13.0114L38.8379 12.5305L40.3244 15.3626C40.3244 15.3626 45.0541 9.83205 47.7028 9.56488C48.4416 9.47345 49.1915 9.59052 49.8658 9.90255C50.5401 10.2146 51.1114 10.7088 51.5136 11.3282L52.5947 12.1298V19.0763C49.892 19.0763 46.919 19.2366 44.4866 19.2366C40.5963 19.3588 36.7034 19.0993 32.865 18.4618C32.5251 18.4397 32.19 18.5505 31.9322 18.7705C31.6743 18.9904 31.5142 19.3018 31.4866 19.6374V24.0458C31.5142 24.3814 31.6743 24.6928 31.9322 24.9127C32.19 25.1327 32.5251 25.2435 32.865 25.2214C32.865 25.2214 42.6487 24.2595 47.8379 24.2595C49.0541 24.2595 50.7298 24.2595 52.5947 24.3931V37.5649H55.0541C55.0541 37.5649 54.6217 30.3244 54.4055 24.4733C60.2704 24.7672 67.0812 25.2214 67.0812 25.2214C67.421 25.2435 67.7561 25.1327 68.014 24.9127C68.2719 24.6928 68.4319 24.3814 68.4595 24.0458V19.6374C68.4319 19.3018 68.2719 18.9904 68.014 18.7705C67.7561 18.5505 67.421 18.4397 67.0812 18.4618Z" fill="url(#paint42_linear_24_40386)"/>
<path style="mix-blend-mode:multiply" d="M67.3243 35.5343H32.6216C32.4654 35.5343 32.3108 35.5039 32.1665 35.4449C32.0222 35.3858 31.8911 35.2992 31.7807 35.19C31.5577 34.9696 31.4324 34.6705 31.4324 34.3588V36.416C31.4324 36.7278 31.5577 37.0268 31.7807 37.2473C31.8911 37.3564 32.0222 37.443 32.1665 37.5021C32.3108 37.5612 32.4654 37.5916 32.6216 37.5916H67.3243C67.4814 37.5952 67.6377 37.5673 67.7837 37.5096C67.9296 37.4518 68.0622 37.3653 68.1734 37.2554C68.2846 37.1455 68.372 37.0145 68.4305 36.8702C68.4889 36.7259 68.5172 36.5714 68.5135 36.416V34.3588C68.5135 34.6705 68.3882 34.9696 68.1651 35.19C67.9421 35.4105 67.6397 35.5343 67.3243 35.5343Z" fill="url(#paint43_linear_24_40386)"/>
<path d="M47.2163 8.30914C47.2163 8.30914 45.5406 5.10304 40.0541 7.42746C38.1316 8.36923 36.3191 9.516 34.6487 10.8473C34.4866 10.9809 34.6487 11.5687 34.6487 11.5687L37.8379 11.916L38.8379 15.3626C38.8379 15.3626 45.4055 8.38929 47.2163 8.30914Z" fill="#CE0D5B"/>
<path d="M67.5135 17.4466C67.8536 17.4527 68.1789 17.5854 68.4243 17.8182C68.6698 18.0509 68.8175 18.3667 68.8378 18.7023V23.0573C68.797 23.3974 68.6256 23.709 68.3591 23.9278C68.0925 24.1466 67.7511 24.2558 67.4054 24.2329C67.4054 24.2329 53.027 23.271 47.7027 23.271C42.3784 23.271 32.4595 24.2329 32.4595 24.2329C32.1093 24.263 31.7611 24.1571 31.4886 23.9376C31.2161 23.7182 31.0409 23.4024 31 23.0573V18.7023C31.0408 18.3622 31.2122 18.0506 31.4788 17.8318C31.7453 17.613 32.0867 17.5038 32.4324 17.5267C36.4265 18.1506 40.4732 18.3833 44.5135 18.2214C52.973 18.2214 67.5135 17.4466 67.5135 17.4466Z" fill="#EF1468"/>
<path d="M67.5135 17.4733C67.8493 17.4788 68.1709 17.6078 68.4157 17.835C68.6605 18.0622 68.811 18.3714 68.8378 18.7023V23.084C68.797 23.4241 68.6256 23.7357 68.3591 23.9545C68.0925 24.1733 67.7511 24.2825 67.4054 24.2595C67.4054 24.2595 53.027 23.3244 47.7027 23.3244C42.3784 23.3244 32.4595 24.2595 32.4595 24.2595C32.1093 24.2897 31.7611 24.1838 31.4886 23.9643C31.2161 23.7448 31.0409 23.429 31 23.084V18.7023C31.0408 18.3622 31.2122 18.0505 31.4788 17.8317C31.7453 17.613 32.0867 17.5038 32.4324 17.5267C36.4256 18.1595 40.4723 18.4011 44.5135 18.2481C52.973 18.2481 67.5135 17.4733 67.5135 17.4733Z" fill="url(#paint44_linear_24_40386)"/>
<path d="M67.4865 17.4466C67.8332 17.4393 68.169 17.5668 68.4216 17.8016C68.6743 18.0364 68.8238 18.3598 68.8378 18.7023V23.0306C68.797 23.3707 68.6256 23.6823 68.3591 23.9011C68.0925 24.1199 67.7511 24.2291 67.4054 24.2061C67.4054 24.2061 53.027 23.271 47.6757 23.271C42.3243 23.271 32.4324 24.2061 32.4324 24.2061C32.0867 24.2291 31.7453 24.1199 31.4788 23.9011C31.2122 23.6823 31.0408 23.3707 31 23.0306V18.7023C31.0408 18.3643 31.2132 18.0553 31.4806 17.8408C31.748 17.6263 32.0894 17.5233 32.4324 17.5535C36.4297 18.1462 40.475 18.361 44.5135 18.1947C52.9459 18.1947 67.4865 17.4466 67.4865 17.4466Z" fill="url(#paint45_linear_24_40386)"/>
<g style="mix-blend-mode:multiply" opacity="0.4">
<path d="M67.4865 23.3512C67.4865 23.3512 53.1081 22.4161 47.7568 22.4161C42.4054 22.4161 32.4324 23.3512 32.4324 23.3512C32.0852 23.381 31.7401 23.2743 31.472 23.0542C31.2038 22.8341 31.0343 22.5184 31 22.1756V23.1374C31.0408 23.4775 31.2122 23.7892 31.4788 24.008C31.7453 24.2267 32.0867 24.3359 32.4324 24.313C32.4324 24.313 42.4324 23.3779 47.7568 23.3779C53.0811 23.3779 67.4865 24.313 67.4865 24.313C67.8185 24.3154 68.1397 24.1968 68.389 23.98C68.6382 23.7632 68.798 23.4633 68.8378 23.1374V22.1756C68.8039 22.5038 68.6458 22.8073 68.3953 23.0252C68.1447 23.2432 67.8201 23.3596 67.4865 23.3512Z" fill="#7F1244"/>
</g>
<path d="M52.9999 17.9809C52.9999 17.9809 53.6215 20.6527 54.054 21.6679C54.6756 23.2443 55.3242 23.4313 55.3242 23.4313C54.2633 23.5257 53.196 23.5257 52.1351 23.4313C50.4594 23.1908 52.9999 17.9809 52.9999 17.9809Z" fill="url(#paint46_linear_24_40386)"/>
<path d="M47.2162 7.5878C46.1509 6.91749 44.9203 6.5482 43.6578 6.51994C42.3953 6.49168 41.149 6.80554 40.0541 7.42749C38.0684 8.25481 36.2403 9.4114 34.6487 10.8473L37.8379 11.1679L38.7568 14.6412C38.7568 14.6412 45.4054 7.66795 47.2162 7.5878Z" fill="url(#paint47_linear_24_40386)"/>
<path d="M52.1353 8.30918C53.0306 7.39968 54.2043 6.80732 55.4746 6.62379C56.745 6.44025 58.041 6.67578 59.1623 7.29391C61.1759 8.20624 63.05 9.39339 64.7298 10.8206C64.892 10.9809 64.7298 11.5687 64.7298 11.5687L61.5407 11.9161L60.7298 15.3626C60.7298 15.3626 54.0812 8.38933 52.1353 8.30918Z" fill="#CE0D5B"/>
<path d="M52.1353 7.53437C53.2165 6.89126 54.4545 6.55145 55.7163 6.55145C56.9782 6.55145 58.2162 6.89126 59.2974 7.53437C61.2908 8.34708 63.1214 9.50522 64.7028 10.9542L61.5136 11.2748L60.7298 14.6145C60.7298 14.6145 54.0812 7.61453 52.1353 7.53437Z" fill="url(#paint48_linear_24_40386)"/>
<path d="M53.7297 37.0305C53.7304 37.3289 53.6163 37.6164 53.4105 37.8347C53.2047 38.053 52.9227 38.1857 52.6216 38.2061H48.054C47.7433 38.1991 47.4477 38.0722 47.2305 37.8525C47.0133 37.6327 46.8918 37.3377 46.8918 37.0305C46.8918 37.0305 47.8378 25.2481 47.8378 21C47.8378 16.7519 46.8918 8.44272 46.8918 8.44272C46.8918 8.13552 47.0133 7.84048 47.2305 7.62077C47.4477 7.40106 47.7433 7.27413 48.054 7.26715H52.6216C52.937 7.26715 53.2394 7.39101 53.4625 7.61147C53.6855 7.83193 53.8108 8.13094 53.8108 8.44272C53.1629 11.6697 52.8999 14.9606 53.027 18.2481C52.9459 25.1145 53.7297 37.0305 53.7297 37.0305Z" fill="#EF1468"/>
<path d="M53.7028 37.0305C53.704 37.3246 53.5936 37.6085 53.3935 37.8262C53.1934 38.0438 52.918 38.1793 52.6217 38.2061H48.0271C47.7117 38.2061 47.4092 38.0822 47.1862 37.8618C46.9632 37.6413 46.8379 37.3423 46.8379 37.0305C46.8379 37.0305 47.7838 25.2481 47.7838 21C47.7838 16.7519 46.8379 8.44272 46.8379 8.44272C46.8379 8.13094 46.9632 7.83193 47.1862 7.61147C47.4092 7.39101 47.7117 7.26715 48.0271 7.26715H52.6217C52.9371 7.26715 53.2395 7.39101 53.4626 7.61147C53.6856 7.83193 53.8109 8.13094 53.8109 8.44272C53.163 11.6697 52.9 14.9606 53.0271 18.2481C52.919 25.1145 53.7028 37.0305 53.7028 37.0305Z" fill="url(#paint49_linear_24_40386)"/>
<g style="mix-blend-mode:multiply" opacity="0.4">
<path d="M52.6216 35.7213H48.054C47.4054 35.7213 47.054 35.187 47.054 34.5458L46.8918 37.0305C46.8918 37.3377 47.0133 37.6327 47.2305 37.8525C47.4477 38.0722 47.7433 38.1991 48.054 38.2061H52.6216C52.937 38.2061 53.2394 38.0822 53.4625 37.8618C53.6855 37.6413 53.8108 37.3423 53.8108 37.0305L53.6486 34.5458C53.6676 34.6912 53.6554 34.8389 53.6128 34.9793C53.5701 35.1197 53.4979 35.2496 53.401 35.3606C53.3041 35.4715 53.1845 35.561 53.0502 35.6232C52.9159 35.6854 52.7699 35.7188 52.6216 35.7213Z" fill="#7F1244"/>
</g>
<path opacity="0.4" d="M35 10.687C36.6241 9.32179 38.4462 8.20505 40.4054 7.37405C41.3057 6.86539 42.3184 6.58241 43.3549 6.54981C44.3913 6.51721 45.4201 6.73598 46.3514 7.18702C44.2375 6.69621 42.0161 6.96124 40.0811 7.93511C36.8108 9.51145 35 10.687 35 10.687Z" fill="#FF6768"/>
<path d="M48 7.13362C48 7.13362 48.5405 5.23667 49.027 5.07636C49.6186 4.99269 50.2192 4.99269 50.8108 5.07636C51.1067 5.33699 51.3474 5.65297 51.519 6.00608C51.6907 6.35918 51.7898 6.74241 51.8108 7.13362H48Z" fill="#CE0D5B"/>
<path d="M48 7.13362C48 7.13362 48.5405 5.23667 49.027 5.07636C49.6186 4.99269 50.2192 4.99269 50.8108 5.07636C51.1067 5.33699 51.3474 5.65297 51.519 6.00608C51.6907 6.35918 51.7898 6.74241 51.8108 7.13362H48Z" fill="url(#paint50_linear_24_40386)"/>
<path opacity="0.4" d="M49.2703 5.34352C49.8528 5.25984 50.4445 5.25984 51.027 5.34352L51.2432 5.53055C51.1252 5.34908 50.9793 5.18684 50.8108 5.04963C50.2192 4.96596 49.6186 4.96596 49.027 5.04963C48.5405 5.20994 48 7.10688 48 7.10688H48.2973C48.4865 6.59925 48.8919 5.47711 49.2703 5.34352Z" fill="#FF6768"/>
<g style="mix-blend-mode:overlay">
<path d="M47.6487 1.54959C53.7838 1.30913 58.8649 3.31295 58.973 6.03814C59.0811 8.76333 54.2163 11.1679 48.1622 11.3817C42.1082 11.5954 36.8379 9.67173 36.7298 6.94654C36.6217 4.22135 41.5136 1.79005 47.6487 1.54959Z" fill="white"/>
</g>
<g clip-path="url(#clip2_24_40386)">
<path d="M16.893 30.5819C16.893 30.5819 18.2399 24.3879 22.8705 22.7395C27.5011 21.0912 28.6007 23.6297 29.3355 25.281C30.0703 26.9324 29.2121 31.4027 18.1175 33.6087C12.2545 33.9281 16.893 30.5819 16.893 30.5819Z" fill="#CE0D5B"/>
<path d="M16.893 30.5819C16.893 30.5819 18.2399 24.3879 22.8705 22.7395C27.5011 21.0912 28.6007 23.6297 29.3355 25.281C30.0703 26.9324 29.2121 31.4027 18.1175 33.6087C12.2545 33.9281 16.893 30.5819 16.893 30.5819Z" fill="url(#paint51_linear_24_40386)"/>
<path d="M16.6725 33.9535C16.6725 33.9535 18.0193 27.7595 22.6282 26.1189C27.2371 24.4783 28.3801 27.0013 29.0932 28.6604C29.8063 30.3195 29.0222 34.8603 17.9633 37.0293C12.0697 37.2627 16.6725 33.9535 16.6725 33.9535Z" fill="url(#paint52_linear_24_40386)"/>
<path d="M16.6645 34.3438C16.6645 34.3438 18.0113 28.1498 22.6202 26.5092C27.229 24.8686 28.3798 27.4131 29.0852 29.0507C29.7906 30.6883 28.9606 35.1002 17.9324 37.3551C12.0259 37.69 16.6645 34.3438 16.6645 34.3438Z" fill="url(#paint53_linear_24_40386)"/>
<path d="M17.0384 30.9902C17.0384 30.9902 18.3852 24.7962 23.0158 23.1479C27.6464 21.4995 28.7231 23.9735 29.4273 25.5389L29.3355 25.281C28.6313 23.7156 27.4793 21.0989 22.8705 22.7395C18.2616 24.3802 16.893 30.5819 16.893 30.5819C16.893 30.5819 14.5737 32.255 15.3387 33.0965C15.3459 32.2223 17.0384 30.9902 17.0384 30.9902Z" fill="url(#paint54_linear_24_40386)"/>
<path d="M17.0234 30.5355C17.0234 30.5355 11.9787 26.6167 7.3481 28.265C2.7175 29.9134 3.28163 32.2551 3.94317 34.3199C4.60472 36.3848 7.79822 39.0254 17.8348 33.7093C22.6243 30.2367 17.0234 30.5355 17.0234 30.5355Z" fill="#CE0D5B"/>
<path d="M17.0234 30.5355C17.0234 30.5355 11.9787 26.6167 7.3481 28.265C2.7175 29.9134 3.28163 32.2551 3.94317 34.3199C4.60472 36.3848 7.79822 39.0254 17.8348 33.7093C22.6243 30.2367 17.0234 30.5355 17.0234 30.5355Z" fill="url(#paint55_linear_24_40386)"/>
<path opacity="0.4" d="M7.45875 28.7826C12.0676 27.1419 17.0253 31.0917 17.0253 31.0917C17.0253 31.0917 19.232 30.96 19.6966 31.7147C19.9522 30.4372 16.857 30.6189 16.857 30.6189C16.857 30.6189 11.9786 26.6167 7.34802 28.265C3.47831 29.6426 3.24769 31.5407 3.64875 33.2867C3.4035 31.7032 3.93688 30.0362 7.45875 28.7826Z" fill="#FF6768"/>
<path d="M18.7433 32.6836C17.3977 31.858 15.8924 31.3183 14.3219 31.0981C12.7513 30.878 11.1495 30.9822 9.61683 31.4043C5.02971 33.0372 5.40379 34.9138 5.88939 36.4844C6.37498 38.055 9.44123 40.0629 19.4339 35.174C24.2947 32.0393 18.7433 32.6836 18.7433 32.6836Z" fill="url(#paint56_linear_24_40386)"/>
<path d="M18.3972 32.4679C17.0482 31.6406 15.5389 31.1006 13.9644 30.8817C12.3899 30.6629 10.7843 30.77 9.24894 31.1963C4.66181 32.8292 5.26095 34.6499 5.75419 36.242C6.24743 37.834 9.11038 39.8901 19.0877 34.9583C23.9486 31.8235 18.3972 32.4679 18.3972 32.4679Z" fill="url(#paint57_linear_24_40386)"/>
<path d="M31.5593 27.0561L3.64528 36.9927C3.11699 37.1807 2.83943 37.7566 3.02533 38.2788L10.7826 60.0707C10.9685 60.5929 11.5475 60.8638 12.0758 60.6758L39.9898 50.7392C40.5181 50.5511 40.7957 49.9753 40.6098 49.4531L32.8525 27.6612C32.6666 27.1389 32.0876 26.868 31.5593 27.0561Z" fill="url(#paint58_linear_24_40386)"/>
<path style="mix-blend-mode:multiply" d="M34.3091 35.3998C34.3091 35.3998 29.4084 37.4591 24.1651 39.5193C23.2719 36.9583 22.5748 34.333 22.0797 31.6655L29.1534 33.9903L29.1171 31.824L30.5741 30.8937C30.5741 30.8937 26.0943 29.8006 24.7396 29.4353L14.5001 33.0803L7.47698 38.1228L7.39975 40.039L9.89258 38.7158L11.8992 40.5682C11.8992 40.5682 14.1201 34.7653 16.1741 33.792C16.7422 33.5069 17.3789 33.3863 18.0107 33.4442C18.6424 33.5021 19.2435 33.7361 19.7443 34.1192L20.8434 34.4544L22.8325 40.042C20.6585 40.8159 18.313 41.7961 16.3564 42.4926C13.2622 43.7048 10.0565 44.6107 6.78639 45.1971C6.50667 45.2766 6.26891 45.4617 6.12445 45.7124C5.97999 45.9632 5.94041 46.2595 6.01426 46.5373L7.27654 50.0834C7.39487 50.3454 7.61277 50.55 7.88319 50.6531C8.1536 50.7562 8.45485 50.7494 8.72189 50.6343C8.72189 50.6343 16.3163 47.0592 20.4904 45.5733C21.4687 45.2251 22.8166 44.7453 24.3549 44.3187L28.1264 54.9138L30.1047 54.2096C30.1047 54.2096 27.6837 48.5093 25.8344 43.8647C30.6361 42.4218 36.2446 40.837 36.2446 40.837C36.5244 40.7575 36.7621 40.5724 36.9066 40.3216C37.051 40.0709 37.0906 39.7746 37.0168 39.4967L35.7545 35.9507C35.6361 35.6887 35.4183 35.484 35.1478 35.3809C34.8774 35.2779 34.5762 35.2846 34.3091 35.3998Z" fill="url(#paint59_linear_24_40386)"/>
<path style="mix-blend-mode:multiply" d="M39.3933 49.0629L11.4792 58.9994C11.3536 59.0442 11.2205 59.064 11.0875 59.0578C10.9545 59.0516 10.8243 59.0194 10.7042 58.9633C10.4617 58.8498 10.2753 58.6451 10.186 58.3943L10.7751 60.0492C10.8644 60.2999 11.0508 60.5046 11.2933 60.6181C11.4134 60.6743 11.5436 60.7064 11.6766 60.7126C11.8096 60.7188 11.9426 60.699 12.0683 60.6543L39.9823 50.7177C40.1098 50.6756 40.2275 50.6084 40.3284 50.5201C40.4292 50.4319 40.5111 50.3243 40.5691 50.2041C40.627 50.0839 40.6599 49.9534 40.6656 49.8206C40.6713 49.6878 40.6497 49.5555 40.6023 49.4315L40.0132 47.7767C40.1025 48.0275 40.0873 48.3039 39.9711 48.5451C39.8548 48.7863 39.647 48.9725 39.3933 49.0629Z" fill="url(#paint60_linear_24_40386)"/>
<path d="M15.4233 32.9212C15.4233 32.9212 13.1574 30.822 9.40974 34.2627C8.13297 35.5707 7.00334 37.0122 6.04097 38.5613C5.94878 38.7152 6.24753 39.1416 6.24753 39.1416L8.91229 38.5078L10.7035 40.9938C10.7035 40.9938 13.9896 33.5041 15.4233 32.9212Z" fill="#CE0D5B"/>
<path d="M34.3662 34.4593C34.6416 34.3668 34.9412 34.3804 35.2053 34.4974C35.4694 34.6143 35.6786 34.826 35.7911 35.0902L37.038 38.5932C37.1026 38.8784 37.054 39.1782 36.9022 39.4305C36.7504 39.6828 36.5071 39.8684 36.2224 39.9489C36.2224 39.9489 24.3814 43.2923 20.0986 44.8168C15.8159 46.3414 8.1127 49.9552 8.1127 49.9552C7.83969 50.0797 7.52924 50.0942 7.24722 49.9957C6.9652 49.8972 6.73381 49.6934 6.60214 49.4275L5.35516 45.9244C5.29059 45.6392 5.33922 45.3394 5.49101 45.0871C5.64279 44.8348 5.88614 44.6492 6.17077 44.5687C9.56217 43.9269 12.8838 42.9553 16.0874 41.6682C22.892 39.246 34.3662 34.4593 34.3662 34.4593Z" fill="#EF1468"/>
<path d="M34.3738 34.4808C34.6455 34.3891 34.9411 34.4007 35.2031 34.5134C35.4651 34.6261 35.6747 34.8317 35.791 35.0901L37.0456 38.6147C37.1102 38.8999 37.0615 39.1997 36.9098 39.452C36.758 39.7043 36.5146 39.8899 36.23 39.9704C36.23 39.9704 24.3966 43.3353 20.1138 44.8598C15.8311 46.3844 8.12027 49.9767 8.12027 49.9767C7.84725 50.1012 7.5368 50.1157 7.25479 50.0172C6.97277 49.9187 6.74138 49.7149 6.60971 49.449L5.35508 45.9244C5.29051 45.6392 5.33914 45.3394 5.49093 45.0871C5.64271 44.8348 5.88606 44.6492 6.17069 44.5687C9.56393 43.9343 12.8881 42.97 16.095 41.6897C22.8996 39.2675 34.3738 34.4808 34.3738 34.4808Z" fill="url(#paint61_linear_24_40386)"/>
<path d="M34.3443 34.467C34.6212 34.3619 34.9277 34.3683 35.1982 34.4848C35.4687 34.6013 35.6815 34.8186 35.7909 35.0901L37.0302 38.5717C37.0948 38.857 37.0462 39.1567 36.8944 39.409C36.7426 39.6613 36.4993 39.8469 36.2146 39.9274C36.2146 39.9274 24.3812 43.2923 20.0767 44.8246C15.7722 46.3568 8.08316 49.9414 8.08316 49.9414C7.81165 50.0589 7.50578 50.0688 7.2287 49.9691C6.95163 49.8695 6.72454 49.6679 6.59433 49.406L5.355 45.9244C5.29104 45.6409 5.34123 45.3429 5.49492 45.0939C5.64861 44.8448 5.89372 44.6641 6.17826 44.5902C9.56331 43.9224 12.8788 42.9368 16.0796 41.6467C22.8625 39.2322 34.3443 34.467 34.3443 34.467Z" fill="url(#paint62_linear_24_40386)"/>
<g style="mix-blend-mode:multiply" opacity="0.4">
<path d="M36.0351 39.2165C36.0351 39.2165 24.2017 42.5814 19.8972 44.1136C15.5927 45.6459 7.83843 49.2537 7.83843 49.2537C7.56768 49.3771 7.25954 49.3901 6.98084 49.2898C6.70214 49.1896 6.47533 48.9842 6.34961 48.7183L6.62502 49.4919C6.75522 49.7538 6.98232 49.9554 7.25939 50.0551C7.53646 50.1547 7.84234 50.1448 8.11384 50.0274C8.11384 50.0274 15.8899 46.4119 20.1726 44.8873C24.4554 43.3628 36.3105 39.9902 36.3105 39.9902C36.5783 39.897 36.8027 39.7097 36.9411 39.4639C37.0795 39.2182 37.1222 38.9311 37.0609 38.6576L36.7855 37.884C36.8522 38.1577 36.8119 38.4471 36.6728 38.6941C36.5337 38.9412 36.3059 39.1278 36.0351 39.2165Z" fill="#7F1244"/>
</g>
<path d="M22.8448 39.0448C22.8448 39.0448 24.1099 41.0159 24.7484 41.7087C25.6998 42.7987 26.2751 42.7634 26.2751 42.7634C25.4488 43.1432 24.5902 43.4488 23.7098 43.6766C22.2931 43.963 22.8448 39.0448 22.8448 39.0448Z" fill="url(#paint63_linear_24_40386)"/>
<path d="M15.2166 32.3409C14.1677 32.1068 13.0721 32.1621 12.0485 32.5009C11.0249 32.8397 10.1123 33.449 9.40962 34.2628C8.04929 35.4968 6.90998 36.9506 6.04086 38.5614L8.69797 37.9061L10.4316 40.4368C10.4316 40.4368 13.783 32.9239 15.2166 32.3409Z" fill="url(#paint64_linear_24_40386)"/>
<path d="M19.3798 31.5127C19.8396 30.5248 20.6141 29.7122 21.5834 29.2008C22.5526 28.6895 23.6626 28.5078 24.7415 28.684C26.6224 28.8413 28.4699 29.2595 30.2298 29.9266C30.4061 30.0091 30.444 30.5283 30.444 30.5283L27.9781 31.7209L28.3128 34.7254C28.3128 34.7254 20.9681 31.02 19.3798 31.5127Z" fill="#CE0D5B"/>
<path d="M19.1579 30.8895C19.8435 30.0626 20.742 29.4347 21.757 29.0734C22.772 28.7121 23.8651 28.631 24.919 28.8387C26.7551 28.9216 28.5592 29.329 30.2462 30.0418L27.7727 31.2128L28.0985 34.1236C28.0985 34.1236 20.7461 30.3967 19.1579 30.8895Z" fill="url(#paint65_linear_24_40386)"/>
<path d="M28.8865 54.159C28.9725 54.3988 28.963 54.6627 28.86 54.8972C28.757 55.1317 28.5682 55.3193 28.3318 55.4219L24.6577 56.7297C24.4058 56.8131 24.1317 56.7956 23.8941 56.6811C23.6565 56.5665 23.4742 56.364 23.3863 56.1169C23.3863 56.1169 20.7735 46.3685 19.5571 42.9514C18.3407 39.5344 15.2006 33.1215 15.2006 33.1215C15.1126 32.8744 15.1259 32.6023 15.2377 32.3634C15.3495 32.1244 15.5509 31.9377 15.7988 31.8431L19.4729 30.5353C19.7266 30.445 20.0053 30.458 20.2479 30.5715C20.4904 30.6849 20.6768 30.8896 20.766 31.1404C21.1689 33.9216 21.8996 36.644 22.9432 39.252C24.8441 44.7984 28.8865 54.159 28.8865 54.159Z" fill="#EF1468"/>
<path d="M28.8648 54.1667C28.95 54.4029 28.9425 54.6628 28.8439 54.8952C28.7452 55.1276 28.5625 55.3155 28.3318 55.4218L24.636 56.7374C24.3823 56.8277 24.1035 56.8147 23.861 56.7012C23.6185 56.5877 23.4321 56.3831 23.3428 56.1323C23.3428 56.1323 20.73 46.3839 19.5136 42.9669C18.2973 39.5498 15.1572 33.1369 15.1572 33.1369C15.0679 32.8862 15.0831 32.6098 15.1993 32.3686C15.3156 32.1274 15.5234 31.9411 15.7771 31.8508L19.4729 30.5352C19.7266 30.4449 20.0054 30.458 20.2479 30.5714C20.4904 30.6849 20.6768 30.8896 20.7661 31.1403C21.1689 33.9215 21.8996 36.644 22.9432 39.252C24.8224 44.8061 28.8648 54.1667 28.8648 54.1667Z" fill="url(#paint66_linear_24_40386)"/>
<g style="mix-blend-mode:multiply" opacity="0.4">
<path d="M27.6203 53.4231L23.9462 54.731C23.4245 54.9167 22.9888 54.5875 22.8052 54.0717L23.3863 56.1168C23.4742 56.364 23.6564 56.5665 23.8941 56.681C24.1317 56.7955 24.4058 56.813 24.6577 56.7297L28.3317 55.4218C28.5854 55.3315 28.7933 55.1453 28.9095 54.9041C29.0258 54.6629 29.041 54.3865 28.9517 54.1357L28.1098 52.1835C28.1667 52.295 28.1992 52.4173 28.2051 52.5424C28.211 52.6676 28.1901 52.7928 28.1439 52.9098C28.0977 53.0268 28.0272 53.133 27.937 53.2214C27.8467 53.3099 27.7388 53.3786 27.6203 53.4231Z" fill="#7F1244"/>
</g>
<path opacity="0.4" d="M6.27758 38.3318C7.19309 36.7686 8.33895 35.3486 9.67694 34.1191C10.2555 33.4522 10.989 32.9346 11.8134 32.6116C12.6378 32.2886 13.528 32.17 14.4062 32.2662C12.5653 32.4766 10.8544 33.3259 9.57672 34.6633C7.39755 36.8677 6.27758 38.3318 6.27758 38.3318Z" fill="#FF6768"/>
<path d="M15.7169 31.7511C15.7169 31.7511 15.6085 30.0705 15.9539 29.8022C16.4058 29.5655 16.889 29.3936 17.3888 29.2915C17.7014 29.4164 17.9855 29.6017 18.2247 29.8365C18.4638 30.0714 18.6533 30.3513 18.7822 30.66L15.7169 31.7511Z" fill="#CE0D5B"/>
<path d="M15.7169 31.7511C15.7169 31.7511 15.6085 30.0705 15.9539 29.8022C16.4058 29.5655 16.889 29.3936 17.3888 29.2915C17.7014 29.4164 17.9855 29.6017 18.2247 29.8365C18.4638 30.0714 18.6533 30.3513 18.7822 30.66L15.7169 31.7511Z" fill="url(#paint67_linear_24_40386)"/>
<path opacity="0.4" d="M16.2262 29.9475C16.6708 29.7134 17.1468 29.544 17.6393 29.4445L17.8668 29.533C17.7198 29.4209 17.556 29.3321 17.3812 29.27C16.8814 29.3721 16.3983 29.5441 15.9464 29.7808C15.601 30.049 15.7093 31.7296 15.7093 31.7296L15.9485 31.6445C15.9553 31.182 15.9601 30.1633 16.2262 29.9475Z" fill="#FF6768"/>
<g style="mix-blend-mode:overlay">
<path d="M13.8356 27.3601C18.7017 25.41 23.3626 25.567 24.2299 27.7281C25.0971 29.8892 21.8725 33.2164 17.0639 35.1218C12.2554 37.0272 7.46528 36.9889 6.598 34.8278C5.73073 32.6667 8.96949 29.3103 13.8356 27.3601Z" fill="white"/>
</g>
</g>
<g clip-path="url(#clip3_24_40386)">
<path d="M84.277 24.9974C84.277 24.9974 89.398 21.2618 93.9544 23.1054C98.5108 24.949 97.6466 27.577 97.0991 29.2995C96.5515 31.022 92.9406 33.7937 83.1818 28.0733C78.5868 24.4177 84.277 24.9974 84.277 24.9974Z" fill="#CE0D5B"/>
<path d="M84.277 24.9974C84.277 24.9974 89.398 21.2618 93.9544 23.1054C98.5108 24.949 97.6466 27.577 97.0991 29.2995C96.5515 31.022 92.9406 33.7937 83.1818 28.0733C78.5868 24.4177 84.277 24.9974 84.277 24.9974Z" fill="url(#paint68_linear_24_40386)"/>
<path d="M81.8726 27.3713C81.8726 27.3713 86.9937 23.6357 91.5287 25.4707C96.0637 27.3056 95.2423 29.9509 94.6733 31.6647C94.1043 33.3786 90.502 36.2522 80.7945 30.528C76.2338 26.7878 81.8726 27.3713 81.8726 27.3713Z" fill="url(#paint69_linear_24_40386)"/>
<path d="M81.6072 27.6578C81.6072 27.6578 86.7282 23.9222 91.2632 25.7571C95.7983 27.592 94.9683 30.2585 94.4079 31.9512C93.8475 33.6439 90.2965 36.3906 80.5548 30.751C75.9171 27.078 81.6072 27.6578 81.6072 27.6578Z" fill="url(#paint70_linear_24_40386)"/>
<path d="M84.1143 25.3992C84.1143 25.3992 89.2354 21.6636 93.7918 23.5072C98.3482 25.3508 97.5097 27.9153 96.9963 29.5532L97.099 29.2995C97.6123 27.6616 98.4893 24.9403 93.9543 23.1054C89.4193 21.2705 84.2769 24.9974 84.2769 24.9974C84.2769 24.9974 81.4318 24.7075 81.4447 25.8447C82.0308 25.196 84.1143 25.3992 84.1143 25.3992Z" fill="url(#paint71_linear_24_40386)"/>
<path d="M84.4053 25.0493C84.4053 25.0493 83.2373 18.7691 78.6809 16.9255C74.1245 15.0819 72.9908 17.2071 72.1137 19.1901C71.2367 21.173 71.87 25.2682 82.9037 27.9608C88.7906 28.5463 84.4053 25.0493 84.4053 25.0493Z" fill="#CE0D5B"/>
<path d="M84.4053 25.0493C84.4053 25.0493 83.2373 18.7691 78.6809 16.9255C74.1245 15.0819 72.9908 17.2071 72.1137 19.1901C71.2367 21.173 71.87 25.2682 82.9037 27.9608C88.7906 28.5463 84.4053 25.0493 84.4053 25.0493Z" fill="url(#paint72_linear_24_40386)"/>
<path opacity="0.4" d="M78.4199 17.3859C82.9549 19.2208 84.0374 25.4664 84.0374 25.4664C84.0374 25.4664 85.7744 26.8337 85.6204 27.7065C86.66 26.9213 84.2257 25.0012 84.2257 25.0012C84.2257 25.0012 83.2373 18.7691 78.6809 16.9255C74.8732 15.3848 73.44 16.6506 72.5801 18.2221C73.4485 16.8755 74.9545 15.9837 78.4199 17.3859Z" fill="#FF6768"/>
<path d="M84.2641 27.7976C83.8065 26.2866 83.0398 24.8833 82.012 23.6755C80.9843 22.4678 79.7176 21.4817 78.2915 20.7792C73.7779 18.9529 72.811 20.6042 72.1308 22.1008C71.4506 23.5974 72.409 27.1351 83.1261 30.1179C88.8419 31.0033 84.2641 27.7976 84.2641 27.7976Z" fill="url(#paint73_linear_24_40386)"/>
<path d="M84.1486 27.4063C83.6897 25.8919 82.9201 24.4856 81.8885 23.2762C80.8569 22.0668 79.5856 21.0804 78.1546 20.3793C73.641 18.553 72.8795 20.312 72.1907 21.8298C71.5019 23.3475 72.2764 26.7861 83.0106 29.7267C88.7264 30.6121 84.1486 27.4063 84.1486 27.4063Z" fill="url(#paint74_linear_24_40386)"/>
<path d="M97.5825 32.1036L70.1158 20.9902C69.596 20.7799 69.006 21.026 68.7981 21.5398L60.1221 42.9825C59.9142 43.4964 60.167 44.0835 60.6868 44.2938L88.1536 55.4072C88.6734 55.6175 89.2634 55.3715 89.4713 54.8576L98.1473 33.4149C98.3552 32.9011 98.1024 32.314 97.5825 32.1036Z" fill="url(#paint75_linear_24_40386)"/>
<path style="mix-blend-mode:multiply" d="M94.0958 40.1671C94.0958 40.1671 89.0645 38.4513 83.7765 36.5086C84.8099 34.0009 86.0326 31.5754 87.4343 29.2526L91.1779 35.689L92.5897 34.0455L94.2968 34.3178C94.2968 34.3178 91.6741 30.5251 90.904 29.3522L80.8286 25.2755L72.2292 24.38L70.8987 25.7611L73.6411 26.4278L73.9107 29.1454C73.9107 29.1454 79.4253 26.2827 81.6073 26.9195C82.2213 27.0837 82.7773 27.4165 83.2111 27.8794C83.6449 28.3423 83.9388 28.9165 84.0588 29.5355L84.6577 30.5161L82.4331 36.0143C80.294 35.1487 77.8896 34.3235 75.9643 33.5446C72.8461 32.3954 69.848 30.9433 67.0141 29.2095C66.7522 29.0831 66.4515 29.0636 66.1769 29.1551C65.9024 29.2466 65.676 29.4418 65.5466 29.6985L64.1349 33.1877C64.0493 33.4622 64.0762 33.7599 64.2099 34.0166C64.3436 34.2733 64.5733 34.4683 64.8494 34.5596C64.8494 34.5596 72.9011 36.9316 77.0083 38.5934C77.9709 38.9829 79.2972 39.5195 80.7304 40.2224L76.5122 50.6477L78.4589 51.4354C78.4589 51.4354 80.4353 45.5661 82.138 40.8658C86.6859 42.9766 91.9311 45.5172 91.9311 45.5172C92.193 45.6436 92.4937 45.6632 92.7682 45.5717C93.0428 45.4802 93.2692 45.285 93.3985 45.0282L94.8103 41.539C94.8959 41.2645 94.8689 40.9668 94.7352 40.7102C94.6016 40.4535 94.3719 40.2585 94.0958 40.1671Z" fill="url(#paint76_linear_24_40386)"/>
<path style="mix-blend-mode:multiply" d="M88.8208 53.7577L61.3541 42.6443C61.2305 42.5943 61.1178 42.5207 61.0225 42.4277C60.9273 42.3348 60.8512 42.2242 60.7988 42.1025C60.6929 41.8566 60.6895 41.5798 60.7893 41.333L60.1305 42.9613C60.0306 43.2081 60.034 43.4849 60.14 43.7308C60.1924 43.8525 60.2684 43.9631 60.3637 44.056C60.459 44.149 60.5716 44.2226 60.6952 44.2726L88.162 55.386C88.2852 55.4392 88.4179 55.4672 88.5519 55.4682C88.6859 55.4692 88.8185 55.4432 88.9417 55.3919C89.0649 55.3405 89.1761 55.2648 89.2686 55.1693C89.361 55.0738 89.4329 54.9606 89.4797 54.8364L90.1385 53.2081C90.0387 53.4549 89.8437 53.6514 89.5966 53.7545C89.3495 53.8576 89.0704 53.8587 88.8208 53.7577Z" fill="url(#paint77_linear_24_40386)"/>
<path d="M81.6244 25.7698C81.6244 25.7698 81.3248 22.6956 76.238 22.7783C74.4147 22.908 72.6128 23.2352 70.8645 23.754C70.6933 23.8078 70.6334 24.3249 70.6334 24.3249L73.0464 25.6212L72.7342 28.6693C72.7342 28.6693 80.1655 25.2533 81.6244 25.7698Z" fill="#CE0D5B"/>
<path d="M94.7633 39.5021C95.0305 39.6158 95.2454 39.825 95.3652 40.0878C95.4849 40.3507 95.5007 40.6479 95.4093 40.9201L94.0147 44.367C93.8734 44.6231 93.638 44.8149 93.3569 44.9026C93.0759 44.9904 92.7707 44.9675 92.5044 44.8387C92.5044 44.8387 81.4321 39.4728 77.218 37.7677C73.0039 36.0626 64.8451 33.6473 64.8451 33.6473C64.5584 33.5591 64.3166 33.3637 64.1713 33.1028C64.0259 32.8418 63.9883 32.5357 64.0665 32.2495L65.4611 28.8026C65.6024 28.5465 65.8378 28.3547 66.1189 28.2669C66.3999 28.1791 66.7051 28.202 66.9714 28.3309C69.9329 30.1038 73.0612 31.5839 76.3109 32.7496C83.0065 35.4587 94.7633 39.5021 94.7633 39.5021Z" fill="#EF1468"/>
<path d="M94.7547 39.5232C95.0187 39.6352 95.2319 39.8402 95.353 40.0985C95.474 40.3567 95.4941 40.6496 95.4093 40.9201L94.0061 44.3881C93.8649 44.6443 93.6294 44.836 93.3484 44.9238C93.0673 45.0116 92.7621 44.9887 92.4959 44.8599C92.4959 44.8599 81.415 39.5151 77.2009 37.81C72.9868 36.1049 64.8366 33.6685 64.8366 33.6685C64.5498 33.5803 64.3081 33.3849 64.1627 33.1239C64.0173 32.863 63.9797 32.5569 64.0579 32.2707L65.4612 28.8026C65.6024 28.5465 65.8378 28.3547 66.1189 28.2669C66.3999 28.1792 66.7051 28.2021 66.9714 28.3309C69.9293 30.1106 73.0548 31.5978 76.3024 32.7708C82.9979 35.4799 94.7547 39.5232 94.7547 39.5232Z" fill="url(#paint78_linear_24_40386)"/>
<path d="M94.7418 39.4934C95.0185 39.5987 95.2435 39.8071 95.3683 40.0739C95.4931 40.3407 95.5078 40.6445 95.4092 40.9201L94.0231 44.3459C93.8819 44.602 93.6464 44.7938 93.3654 44.8815C93.0843 44.9693 92.7792 44.9464 92.5129 44.8176C92.5129 44.8176 81.432 39.4728 77.1965 37.7591C72.961 36.0453 64.8322 33.6176 64.8322 33.6176C64.5513 33.525 64.316 33.3293 64.1751 33.0707C64.0342 32.8122 63.9983 32.5107 64.0749 32.2284L65.461 28.8027C65.6016 28.5482 65.837 28.3588 66.1173 28.2747C66.3977 28.1906 66.7009 28.2183 66.9627 28.3521C69.9367 30.1014 73.0697 31.5668 76.3194 32.7285C82.9936 35.429 94.7418 39.4934 94.7418 39.4934Z" fill="url(#paint79_linear_24_40386)"/>
<g style="mix-blend-mode:multiply" opacity="0.4">
<path d="M92.851 44.1668C92.851 44.1668 81.7702 38.8221 77.5346 37.1083C73.2991 35.3946 65.1062 32.9409 65.1062 32.9409C64.8218 32.8533 64.5828 32.6583 64.4411 32.3982C64.2993 32.1382 64.2662 31.834 64.3489 31.5517L64.0409 32.313C63.9642 32.5952 64.0001 32.8968 64.141 33.1553C64.2819 33.4138 64.5172 33.6096 64.7981 33.7022C64.7981 33.7022 73.0125 36.1645 77.2266 37.8696C81.4407 39.5747 92.543 44.9281 92.543 44.9281C92.805 45.0363 93.0972 45.0454 93.3639 44.9536C93.6306 44.8618 93.8532 44.6756 93.989 44.4304L94.2971 43.6691C94.1651 43.9181 93.9428 44.1076 93.6747 44.1999C93.4065 44.2922 93.1124 44.2804 92.851 44.1668Z" fill="#7F1244"/>
</g>
<path d="M83.1049 35.2771C83.1049 35.2771 82.7413 37.5908 82.7584 38.5329C82.7456 39.9796 83.1991 40.3354 83.1991 40.3354C82.3292 40.0704 81.4844 39.7285 80.6749 39.3141C79.4256 38.5871 83.1049 35.2771 83.1049 35.2771Z" fill="url(#paint80_linear_24_40386)"/>
<path d="M81.8555 25.1988C81.227 24.3271 80.3712 23.6407 79.381 23.214C78.3908 22.7874 77.3039 22.6367 76.2381 22.7783C74.4015 22.7972 72.5842 23.1272 70.8646 23.754L73.2861 25.0291L72.9011 28.0724C72.9011 28.0724 80.3966 24.6824 81.8555 25.1988Z" fill="url(#paint81_linear_24_40386)"/>
<path d="M85.5177 27.3451C86.5177 26.912 87.6363 26.819 88.7006 27.0805C89.7648 27.3421 90.7152 27.9436 91.4047 28.7919C92.7062 30.1588 93.8094 31.6986 94.6819 33.3662C94.7589 33.545 94.4423 33.9583 94.4423 33.9583L91.8069 33.2119L90.0614 35.6802C90.0614 35.6802 87.0323 28.0317 85.5177 27.3451Z" fill="#CE0D5B"/>
<path d="M85.7658 26.7318C86.8275 26.5691 87.9162 26.6966 88.9149 27.1007C89.9137 27.5048 90.7847 28.1702 91.4346 29.0255C92.752 30.3071 93.83 31.81 94.6177 33.4633L91.9908 32.6957L90.3009 35.0881C90.3009 35.0881 87.2803 27.4184 85.7658 26.7318Z" fill="url(#paint82_linear_24_40386)"/>
<path d="M77.5819 50.5883C77.4869 50.8247 77.3045 51.0157 77.0717 51.1226C76.8389 51.2295 76.5732 51.2442 76.3283 51.1639L72.7132 49.7011C72.4695 49.5961 72.2762 49.401 72.1746 49.1575C72.0731 48.9141 72.0713 48.6416 72.1698 48.3985C72.1698 48.3985 76.6918 39.3758 78.0522 36.0135C79.4127 32.6512 81.3249 25.7716 81.3249 25.7716C81.4233 25.5285 81.614 25.3339 81.8562 25.2295C82.0985 25.1252 82.3731 25.1194 82.6213 25.2134L86.2364 26.6761C86.4861 26.7771 86.6858 26.972 86.7917 27.2179C86.8976 27.4638 86.901 27.7406 86.8012 27.9874C85.255 30.334 83.9929 32.8545 83.0407 35.4972C80.7776 40.9059 77.5819 50.5883 77.5819 50.5883Z" fill="#EF1468"/>
<path d="M77.5605 50.5797C77.4673 50.8129 77.2891 51.0022 77.061 51.1104C76.8328 51.2186 76.5715 51.2377 76.3284 51.1639L72.6918 49.6925C72.4422 49.5915 72.2425 49.3966 72.1365 49.1507C72.0306 48.9048 72.0272 48.628 72.1271 48.3812C72.1271 48.3812 76.6491 39.3585 78.0095 35.9962C79.3699 32.6339 81.2822 25.7544 81.2822 25.7544C81.3821 25.5076 81.577 25.3111 81.8241 25.208C82.0712 25.1049 82.3503 25.1037 82.5999 25.2047L86.2365 26.6762C86.4861 26.7772 86.6859 26.9721 86.7918 27.218C86.8977 27.4639 86.9011 27.7407 86.8012 27.9874C85.255 30.3341 83.9929 32.8545 83.0408 35.4972C80.7562 40.8973 77.5605 50.5797 77.5605 50.5797Z" fill="url(#paint83_linear_24_40386)"/>
<g style="mix-blend-mode:multiply" opacity="0.4">
<path d="M77.1241 49.1973L73.5089 47.7345C72.9955 47.5268 72.8886 46.9913 73.0939 46.4838L72.1698 48.3985C72.0714 48.6416 72.0731 48.9141 72.1747 49.1575C72.2762 49.401 72.4695 49.5961 72.7132 49.7011L76.3284 51.1639C76.578 51.2649 76.8571 51.2637 77.1042 51.1607C77.3513 51.0576 77.5462 50.8611 77.6461 50.6143L78.3135 48.5957C78.282 48.7169 78.225 48.8299 78.1463 48.9274C78.0675 49.0248 77.9688 49.1046 77.8566 49.1613C77.7443 49.2181 77.621 49.2507 77.4948 49.2568C77.3686 49.263 77.2423 49.2427 77.1241 49.1973Z" fill="#7F1244"/>
</g>
<path opacity="0.4" d="M71.1938 23.7397C72.9165 23.1792 74.7163 22.8788 76.5331 22.8485C77.4086 22.7343 78.3007 22.8346 79.1315 23.1407C79.9623 23.4468 80.7065 23.9495 81.2991 24.6047C79.7832 23.5393 77.9402 23.0376 76.0967 23.1888C73.0035 23.3891 71.1938 23.7397 71.1938 23.7397Z" fill="#FF6768"/>
<path d="M82.6211 25.0904C82.6211 25.0904 83.6564 23.7621 84.0928 23.791C84.5879 23.9142 85.0632 24.1066 85.5047 24.3622C85.6554 24.6633 85.7447 24.9905 85.7675 25.3249C85.7903 25.6593 85.746 25.9944 85.6373 26.3108L82.6211 25.0904Z" fill="#CE0D5B"/>
<path d="M82.6211 25.0904C82.6211 25.0904 83.6564 23.7621 84.0928 23.791C84.5879 23.9142 85.0632 24.1066 85.5047 24.3622C85.6554 24.6633 85.7447 24.9905 85.7675 25.3249C85.7903 25.6593 85.746 25.9944 85.6373 26.3108L82.6211 25.0904Z" fill="url(#paint84_linear_24_40386)"/>
<path opacity="0.4" d="M84.1998 24.0803C84.6876 24.2006 85.156 24.3901 85.5902 24.6429L85.7015 24.8602C85.6661 24.6787 85.6026 24.5036 85.5132 24.3411C85.0718 24.0854 84.5964 23.893 84.1014 23.7698C83.665 23.7409 82.6297 25.0692 82.6297 25.0692L82.865 25.1644C83.1773 24.8232 83.8575 24.0649 84.1998 24.0803Z" fill="#FF6768"/>
<g style="mix-blend-mode:overlay">
<path d="M84.1315 20.5582C89.0643 22.3326 92.4442 25.5458 91.6571 27.7374C90.8699 29.929 86.2494 30.2742 81.3892 28.5046C76.529 26.735 72.9737 23.5246 73.7609 21.3331C74.5481 19.1415 79.1986 18.7838 84.1315 20.5582Z" fill="white"/>
</g>
</g>
<g clip-path="url(#clip4_24_40386)">
<path d="M50.9692 38.7754C50.9692 38.7754 53.3329 31.6357 59.0027 30.2699C64.6724 28.9041 65.6523 32.0368 66.3128 34.0771C66.9732 36.1174 65.4016 41.2846 52.0353 42.4998C45.0777 42.1435 50.9692 38.7754 50.9692 38.7754Z" fill="#CE0D5B"/>
<path d="M50.9692 38.7754C50.9692 38.7754 53.3329 31.6357 59.0027 30.2699C64.6724 28.9041 65.6523 32.0368 66.3128 34.0771C66.9732 36.1174 65.4016 41.2846 52.0353 42.4998C45.0777 42.1435 50.9692 38.7754 50.9692 38.7754Z" fill="url(#paint85_linear_24_40386)"/>
<path d="M50.2874 42.726C50.2874 42.726 52.6511 35.5862 58.2942 34.2269C63.9374 32.8675 64.9705 35.9873 65.6044 38.0341C66.2382 40.0808 64.7452 45.3404 51.4258 46.5165C44.4428 46.0549 50.2874 42.726 50.2874 42.726Z" fill="url(#paint86_linear_24_40386)"/>
<path d="M50.229 43.1854C50.229 43.1854 52.5928 36.0457 58.2359 34.6863C63.879 33.327 64.9185 36.4731 65.546 38.4935C66.1735 40.5139 64.6425 45.6156 51.3484 46.897C44.3375 46.5535 50.229 43.1854 50.229 43.1854Z" fill="url(#paint87_linear_24_40386)"/>
<path d="M51.0895 39.2754C51.0895 39.2754 53.4532 32.1356 59.123 30.7698C64.7927 29.4041 65.7536 32.4578 66.3887 34.3928L66.3127 34.0771C65.6775 32.142 64.6457 28.9105 59.0025 30.2699C53.3594 31.6292 50.9691 38.7754 50.9691 38.7754C50.9691 38.7754 48.0233 40.4594 48.8206 41.548C48.9385 40.5174 51.0895 39.2754 51.0895 39.2754Z" fill="url(#paint88_linear_24_40386)"/>
<path d="M51.1289 38.7369C51.1289 38.7369 45.6669 33.4823 39.9971 34.8481C34.3274 36.2139 34.7002 39.0473 35.2225 41.5664C35.7448 44.0854 39.1825 47.6004 51.6893 42.5831C57.7747 39.0849 51.1289 38.7369 51.1289 38.7369Z" fill="#CE0D5B"/>
<path d="M51.1289 38.7369C51.1289 38.7369 45.6669 33.4823 39.9971 34.8481C34.3274 36.2139 34.7002 39.0473 35.2225 41.5664C35.7448 44.0854 39.1825 47.6004 51.6893 42.5831C57.7747 39.0849 51.1289 38.7369 51.1289 38.7369Z" fill="url(#paint89_linear_24_40386)"/>
<path opacity="0.4" d="M40.0629 35.4726C45.706 34.1132 51.0616 39.3935 51.0616 39.3935C51.0616 39.3935 53.6816 39.514 54.1355 40.4627C54.5968 38.9873 50.9221 38.8146 50.9221 38.8146C50.9221 38.8146 45.6667 33.4823 39.997 34.8481C35.2589 35.9895 34.7494 38.2002 35.0042 40.3104C34.9129 38.4114 35.7507 36.5113 40.0629 35.4726Z" fill="#FF6768"/>
<path d="M52.8895 41.4866C51.405 40.3443 49.6964 39.5191 47.8709 39.063C46.0454 38.6068 44.1424 38.5295 42.2812 38.8358C36.6647 40.1888 36.8714 42.4498 37.248 44.3636C37.6245 46.2774 40.9912 49.03 53.3928 44.5114C59.5201 41.4206 52.8895 41.4866 52.8895 41.4866Z" fill="url(#paint90_linear_24_40386)"/>
<path d="M52.508 41.1888C51.0198 40.044 49.3065 39.218 47.4762 38.7629C45.6458 38.3078 43.738 38.2334 41.8731 38.5444C36.2566 39.8973 36.7358 42.1205 37.1187 44.0606C37.5016 46.0008 40.6224 48.7848 53.0113 44.2135C59.1386 41.1228 52.508 41.1888 52.508 41.1888Z" fill="url(#paint91_linear_24_40386)"/>
<path d="M68.7148 36.4496L34.5367 44.6827C33.8898 44.8385 33.4903 45.4831 33.6444 46.1226L40.0718 72.8046C40.2258 73.4441 40.875 73.8361 41.5219 73.6803L75.7 65.4472C76.3468 65.2914 76.7463 64.6467 76.5923 64.0073L70.1649 37.3252C70.0109 36.6858 69.3616 36.2937 68.7148 36.4496Z" fill="url(#paint92_linear_24_40386)"/>
<path style="mix-blend-mode:multiply" d="M70.9156 46.638C70.9156 46.638 64.8757 48.4548 58.4315 50.2299C57.6979 47.0966 57.2038 43.9118 56.9532 40.7026L65.0087 44.3302L65.2367 41.7697L67.0721 40.8542C67.0721 40.8542 61.9233 39.0042 60.3705 38.4039L47.8332 41.4239L38.9161 46.4952L38.5854 48.7465L41.6921 47.497L43.828 49.9335C43.828 49.9335 47.1741 43.3645 49.7194 42.473C50.4253 42.2077 51.1916 42.1451 51.9298 42.2924C52.6679 42.4397 53.3478 42.791 53.8909 43.3056L55.1458 43.8385L56.7939 50.6801C54.132 51.3213 51.242 52.1845 48.8464 52.7616C45.0439 53.8049 41.1482 54.4728 37.2166 54.7557C36.8766 54.8145 36.5729 55.0031 36.3711 55.281C36.1693 55.5588 36.0856 55.9034 36.138 56.2405L37.1838 60.5822C37.2907 60.9062 37.5222 61.1749 37.8284 61.3303C38.1345 61.4858 38.4908 61.5155 38.8203 61.413C38.8203 61.413 48.228 58.1446 53.3387 56.9134C54.5365 56.6249 56.1869 56.2273 58.0552 55.9165L61.1802 68.8891L63.6025 68.3056C63.6025 68.3056 61.4588 61.2772 59.8577 55.5658C65.7036 54.4638 72.5192 53.2953 72.5192 53.2953C72.8592 53.2365 73.1629 53.0478 73.3647 52.77C73.5665 52.4922 73.6503 52.1476 73.5979 51.8105L72.552 47.4688C72.4451 47.1448 72.2137 46.8761 71.9075 46.7207C71.6013 46.5652 71.245 46.5355 70.9156 46.638Z" fill="url(#paint93_linear_24_40386)"/>
<path style="mix-blend-mode:multiply" d="M75.2056 63.3947L41.0275 71.6278C40.8737 71.6649 40.7142 71.6716 40.5581 71.6476C40.402 71.6237 40.2523 71.5695 40.1176 71.4882C39.8457 71.324 39.6514 71.0592 39.5774 70.7521L40.0655 72.7783C40.1394 73.0854 40.3338 73.3501 40.6057 73.5143C40.7404 73.5957 40.89 73.6498 41.0461 73.6738C41.2023 73.6977 41.3618 73.691 41.5156 73.654L75.6937 65.4209C75.8493 65.3872 75.9966 65.3226 76.1267 65.2311C76.2567 65.1395 76.3668 65.0229 76.4502 64.8883C76.5336 64.7537 76.5887 64.6039 76.612 64.4479C76.6353 64.2919 76.6265 64.1331 76.586 63.9809L76.0979 61.9548C76.1719 62.2618 76.1194 62.5861 75.9521 62.8561C75.7847 63.1261 75.5162 63.3199 75.2056 63.3947Z" fill="url(#paint94_linear_24_40386)"/>
<path d="M48.9423 41.3517C48.9423 41.3517 46.5313 38.5916 41.6792 42.1826C40.0092 43.5662 38.4961 45.1257 37.1669 46.8331C37.0389 47.0032 37.338 47.5436 37.338 47.5436L40.5614 47.129L42.364 50.2863C42.364 50.2863 47.1779 41.8603 48.9423 41.3517Z" fill="#CE0D5B"/>
<path d="M71.1007 45.5355C71.4371 45.4608 71.7889 45.5143 72.0859 45.6853C72.3829 45.8563 72.6032 46.1323 72.7029 46.458L73.7361 50.7471C73.7766 51.0918 73.6817 51.4394 73.4711 51.7181C73.2605 51.9968 72.9501 52.1854 72.6042 52.2448C72.6042 52.2448 58.215 54.7087 52.9712 55.9719C47.7274 57.2351 38.1866 60.5356 38.1866 60.5356C37.8489 60.6484 37.4808 60.6267 37.1603 60.4752C36.8399 60.3237 36.5924 60.0542 36.4703 59.724L35.4371 55.4349C35.3966 55.0903 35.4914 54.7427 35.7021 54.464C35.9127 54.1853 36.223 53.9967 36.569 53.9373C40.6507 53.6041 44.6914 52.8732 48.6322 51.7552C56.9638 49.7483 71.1007 45.5355 71.1007 45.5355Z" fill="#EF1468"/>
<path d="M71.107 45.5618C71.439 45.4876 71.7864 45.5383 72.0814 45.704C72.3764 45.8697 72.598 46.1385 72.7029 46.458L73.7424 50.7735C73.783 51.1181 73.6881 51.4657 73.4774 51.7444C73.2668 52.0231 72.9565 52.2117 72.6106 52.2711C72.6106 52.2711 58.2277 54.7613 52.9839 56.0245C47.74 57.2877 38.1929 60.5619 38.1929 60.5619C37.8552 60.6747 37.4871 60.653 37.1667 60.5015C36.8463 60.35 36.5987 60.0805 36.4766 59.7504L35.4371 55.4349C35.3966 55.0903 35.4914 54.7427 35.7021 54.464C35.9127 54.1852 36.2231 53.9967 36.569 53.9373C40.6519 53.6131 44.6947 52.8911 48.6386 51.7815C56.9701 49.7746 71.107 45.5618 71.107 45.5618Z" fill="url(#paint95_linear_24_40386)"/>
<path d="M71.0741 45.5419C71.4139 45.4524 71.7748 45.4983 72.0794 45.6696C72.3839 45.8409 72.6078 46.124 72.703 46.458L73.7298 50.7208C73.7703 51.0655 73.6755 51.4131 73.4648 51.6918C73.2542 51.9705 72.9439 52.159 72.598 52.2185C72.598 52.2185 58.2151 54.7087 52.9446 55.9783C47.6742 57.2479 38.1537 60.5157 38.1537 60.5157C37.8187 60.6203 37.4565 60.5937 37.1421 60.4415C36.8276 60.2893 36.5849 60.023 36.464 59.6977L35.4371 55.4349C35.3971 55.0923 35.4936 54.7471 35.7061 54.4724C35.9186 54.1977 36.2304 54.0152 36.5754 53.9636C40.6528 53.5991 44.6879 52.8508 48.6259 51.7289C56.9309 49.7283 71.0741 45.5419 71.0741 45.5419Z" fill="url(#paint96_linear_24_40386)"/>
<g style="mix-blend-mode:multiply" opacity="0.4">
<path d="M72.4748 51.3572C72.4748 51.3572 58.0919 53.8475 52.8215 55.1171C47.551 56.3866 37.9507 59.6737 37.9507 59.6737C37.6158 59.7854 37.2506 59.7622 36.9343 59.609C36.618 59.4559 36.3761 59.1853 36.261 58.8557L36.4892 59.803C36.6101 60.1283 36.8528 60.3946 37.1672 60.5468C37.4817 60.699 37.8438 60.7256 38.1789 60.621C38.1789 60.621 47.8058 57.3275 53.0497 56.0643C58.2935 54.8012 72.703 52.3045 72.703 52.3045C73.0305 52.2281 73.3188 52.0351 73.5128 51.7624C73.7069 51.4898 73.7931 51.1565 73.755 50.8261L73.5268 49.8788C73.5712 50.2101 73.4876 50.5465 73.2925 50.8206C73.0974 51.0947 72.8054 51.2864 72.4748 51.3572Z" fill="#7F1244"/>
</g>
<path d="M56.9333 49.505C56.9333 49.505 58.1794 51.9889 58.8461 52.8863C59.8323 54.2913 60.5155 54.3216 60.5155 54.3216C59.4931 54.6663 58.4419 54.9195 57.3746 55.0782C55.6672 55.2389 56.9333 49.505 56.9333 49.505Z" fill="url(#paint97_linear_24_40386)"/>
<path d="M48.7712 40.6412C47.563 40.2338 46.2633 40.162 45.0132 40.4337C43.7631 40.7054 42.6101 41.3102 41.6793 42.1825C39.9199 43.4684 38.3939 45.0413 37.167 46.8331L40.384 46.3922L42.1131 49.595C42.1131 49.595 47.0068 41.1498 48.7712 40.6412Z" fill="url(#paint98_linear_24_40386)"/>
<path d="M53.7871 40.1847C54.4531 39.0765 55.4685 38.2147 56.6761 37.7325C57.8837 37.2504 59.216 37.1749 60.467 37.5176C62.6666 37.9385 64.794 38.663 66.7871 39.6702C66.9848 39.7896 66.9646 40.4069 66.9646 40.4069L63.906 41.5056L63.9251 45.0925C63.9251 45.0925 55.7226 39.802 53.7871 40.1847Z" fill="#CE0D5B"/>
<path d="M53.6031 39.4216C54.5154 38.5317 55.654 37.9033 56.8968 37.604C58.1396 37.3046 59.4395 37.3455 60.657 37.7224C62.813 38.0499 64.8907 38.7562 66.792 39.8081L63.7271 40.8805L63.7475 44.3557C63.7475 44.3557 55.5386 39.0389 53.6031 39.4216Z" fill="url(#paint99_linear_24_40386)"/>
<path d="M62.1715 68.0936C62.2429 68.3873 62.1988 68.6975 62.0479 68.9613C61.897 69.2251 61.6508 69.4228 61.359 69.5143L56.8605 70.5979C56.5528 70.6647 56.2316 70.6098 55.9656 70.445C55.6995 70.2801 55.5098 70.0184 55.437 69.7158C55.437 69.7158 53.5733 57.8871 52.5654 53.7032C51.5576 49.5193 48.6546 41.5602 48.6546 41.5602C48.5817 41.2577 48.6314 40.9382 48.7932 40.6703C48.955 40.4024 49.216 40.2073 49.5203 40.1267L54.0188 39.043C54.3295 38.9682 54.6568 39.0184 54.9287 39.1827C55.2006 39.3469 55.395 39.6116 55.469 39.9187C55.5965 43.2506 56.1181 46.5541 57.0233 49.7618C58.5725 56.5436 62.1715 68.0936 62.1715 68.0936Z" fill="#EF1468"/>
<path d="M62.1448 68.1C62.2158 68.3893 62.1745 68.6951 62.029 68.9569C61.8836 69.2188 61.6445 69.4176 61.359 69.5142L56.8339 70.6043C56.5233 70.6791 56.196 70.6289 55.924 70.4647C55.6521 70.3005 55.4577 70.0357 55.3838 69.7286C55.3838 69.7286 53.5201 57.8999 52.5122 53.716C51.5044 49.5321 48.6014 41.573 48.6014 41.573C48.5274 41.266 48.5799 40.9417 48.7472 40.6717C48.9146 40.4017 49.1831 40.2079 49.4937 40.1331L54.0189 39.043C54.3295 38.9682 54.6568 39.0184 54.9287 39.1827C55.2007 39.3469 55.395 39.6116 55.469 39.9187C55.5965 43.2506 56.1182 46.5541 57.0233 49.7618C58.5459 56.55 62.1448 68.1 62.1448 68.1Z" fill="url(#paint100_linear_24_40386)"/>
<g style="mix-blend-mode:multiply" opacity="0.4">
<path d="M60.7694 67.0671L56.2709 68.1507C55.6321 68.3046 55.1593 67.8617 55.0071 67.2301L55.4369 69.7158C55.5097 70.0184 55.6994 70.2801 55.9655 70.445C56.2315 70.6098 56.5528 70.6647 56.8604 70.5979L61.3589 69.5142C61.6695 69.4394 61.9381 69.2457 62.1054 68.9756C62.2727 68.7056 62.3252 68.3814 62.2512 68.0743L61.502 65.6656C61.5553 65.8043 61.5783 65.9527 61.5696 66.1011C61.5609 66.2495 61.5206 66.3946 61.4515 66.5268C61.3823 66.6591 61.2858 66.7756 61.1683 66.8687C61.0508 66.9618 60.9149 67.0294 60.7694 67.0671Z" fill="#7F1244"/>
</g>
<path opacity="0.4" d="M37.475 46.5918C38.7507 44.8619 40.2802 43.3298 42.0127 42.0465C42.7787 41.332 43.7089 40.813 44.722 40.535C45.7351 40.257 46.8002 40.2284 47.8244 40.4517C45.626 40.4698 43.5011 41.2578 41.8264 42.6761C38.9795 45.0044 37.475 46.5918 37.475 46.5918Z" fill="#FF6768"/>
<path d="M49.4353 40.0079C49.4353 40.0079 49.5177 38.0114 49.9588 37.7381C50.5216 37.5154 51.1131 37.3729 51.7156 37.3149C52.0688 37.5014 52.3809 37.7555 52.6337 38.0626C52.8865 38.3696 53.0751 38.7235 53.1885 39.1038L49.4353 40.0079Z" fill="#CE0D5B"/>
<path d="M49.4353 40.0079C49.4353 40.0079 49.5177 38.0114 49.9588 37.7381C50.5216 37.5154 51.1131 37.3729 51.7156 37.3149C52.0688 37.5014 52.3809 37.7555 52.6337 38.0626C52.8865 38.3696 53.0751 38.7235 53.1885 39.1038L49.4353 40.0079Z" fill="url(#paint101_linear_24_40386)"/>
<path opacity="0.4" d="M50.2617 37.9436C50.8156 37.7229 51.3983 37.5826 51.9919 37.5268L52.2492 37.6597C52.0899 37.509 51.9077 37.3838 51.7092 37.2886C51.1067 37.3466 50.5152 37.4891 49.9524 37.7118C49.5113 37.9851 49.429 39.9816 49.429 39.9816L49.7218 39.9111C49.7877 39.3663 49.9207 38.1649 50.2617 37.9436Z" fill="#FF6768"/>
<g style="mix-blend-mode:overlay">
<path d="M47.7646 34.5918C53.75 32.8994 59.2296 33.6675 59.9826 36.3258C60.7357 38.9841 56.5148 42.5065 50.603 44.1534C44.6912 45.8002 39.0442 45.1559 38.2912 42.4976C37.5382 39.8393 41.7793 36.2841 47.7646 34.5918Z" fill="white"/>
</g>
</g>
<defs>
<linearGradient id="paint0_linear_24_40386" x1="15.2774" y1="10.8121" x2="26.1046" y2="6.95794" gradientUnits="userSpaceOnUse">
<stop stop-color="#FF7368"/>
<stop offset="1" stop-color="#EF1468"/>
</linearGradient>
<linearGradient id="paint1_linear_24_40386" x1="19.1532" y1="7.50429" x2="21.3905" y2="13.7893" gradientUnits="userSpaceOnUse">
<stop stop-color="#7A0D36"/>
<stop offset="1" stop-color="#EF1468"/>
</linearGradient>
<linearGradient id="paint2_linear_24_40386" x1="19.1974" y1="11.7129" x2="26.3784" y2="11.1981" gradientUnits="userSpaceOnUse">
<stop stop-color="#7A0D36"/>
<stop offset="1" stop-color="#EF1468"/>
</linearGradient>
<linearGradient id="paint3_linear_24_40386" x1="15.0614" y1="10.2054" x2="25.8887" y2="6.35119" gradientUnits="userSpaceOnUse">
<stop stop-color="#FF7368"/>
<stop offset="1" stop-color="#EF1468"/>
</linearGradient>
<linearGradient id="paint4_linear_24_40386" x1="7.27448" y1="13.7836" x2="14.4569" y2="11.0475" gradientUnits="userSpaceOnUse">
<stop stop-color="#FF7368"/>
<stop offset="1" stop-color="#EF1468"/>
</linearGradient>
<linearGradient id="paint5_linear_24_40386" x1="10.9767" y1="12.0801" x2="16.1409" y2="14.882" gradientUnits="userSpaceOnUse">
<stop stop-color="#7A0D36"/>
<stop offset="1" stop-color="#EF1468"/>
</linearGradient>
<linearGradient id="paint6_linear_24_40386" x1="13.1873" y1="9.2248" x2="14.8218" y2="14.4977" gradientUnits="userSpaceOnUse">
<stop stop-color="#7A0D36"/>
<stop offset="1" stop-color="#EF1468"/>
</linearGradient>
<linearGradient id="paint7_linear_24_40386" x1="18.0707" y1="13.1306" x2="23.3871" y2="28.0654" gradientUnits="userSpaceOnUse">
<stop stop-color="#00C5D4"/>
<stop offset="1" stop-color="#3E8DF0"/>
</linearGradient>
<linearGradient id="paint8_linear_24_40386" x1="9.90382" y1="24.2586" x2="31.4324" y2="16.595" gradientUnits="userSpaceOnUse">
<stop stop-color="#00C5D4"/>
<stop offset="1" stop-color="#3E8DF0"/>
</linearGradient>
<linearGradient id="paint9_linear_24_40386" x1="23.0993" y1="27.2564" x2="23.6863" y2="28.9054" gradientUnits="userSpaceOnUse">
<stop stop-color="#00C5D4"/>
<stop offset="1" stop-color="#3E8DF0"/>
</linearGradient>
<linearGradient id="paint10_linear_24_40386" x1="32.3253" y1="53.1744" x2="30.2653" y2="47.3872" gradientUnits="userSpaceOnUse">
<stop stop-color="#FF7368"/>
<stop offset="1" stop-color="#EF1468"/>
</linearGradient>
<linearGradient id="paint11_linear_24_40386" x1="9.19417" y1="23.1615" x2="31.2735" y2="15.3019" gradientUnits="userSpaceOnUse">
<stop stop-color="#FF7368"/>
<stop offset="1" stop-color="#EF1468"/>
</linearGradient>
<linearGradient id="paint12_linear_24_40386" x1="22.019" y1="18.5436" x2="24.1548" y2="18.0702" gradientUnits="userSpaceOnUse">
<stop stop-color="#7A0D36"/>
<stop offset="1" stop-color="#EF1468"/>
</linearGradient>
<linearGradient id="paint13_linear_24_40386" x1="11.4816" y1="16.3876" x2="14.6056" y2="11.9645" gradientUnits="userSpaceOnUse">
<stop stop-color="#FF7368"/>
<stop offset="1" stop-color="#EF1468"/>
</linearGradient>
<linearGradient id="paint14_linear_24_40386" x1="24.2772" y1="11.5874" x2="20.4821" y2="9.32862" gradientUnits="userSpaceOnUse">
<stop stop-color="#FF7368"/>
<stop offset="1" stop-color="#EF1468"/>
</linearGradient>
<linearGradient id="paint15_linear_24_40386" x1="16.8683" y1="12.542" x2="26.9699" y2="32.4954" gradientUnits="userSpaceOnUse">
<stop stop-color="#FF7368"/>
<stop offset="1" stop-color="#EF1468"/>
</linearGradient>
<linearGradient id="paint16_linear_24_40386" x1="16.036" y1="11.0504" x2="18.255" y2="10.2605" gradientUnits="userSpaceOnUse">
<stop stop-color="#FF7368"/>
<stop offset="1" stop-color="#EF1468"/>
</linearGradient>
<linearGradient id="paint17_linear_24_40386" x1="75.8174" y1="6.60314" x2="81.8513" y2="9.96345" gradientUnits="userSpaceOnUse">
<stop stop-color="#FF7368"/>
<stop offset="1" stop-color="#EF1468"/>
</linearGradient>
<linearGradient id="paint18_linear_24_40386" x1="78.8479" y1="7.04145" x2="76.8973" y2="10.544" gradientUnits="userSpaceOnUse">
<stop stop-color="#7A0D36"/>
<stop offset="1" stop-color="#EF1468"/>
</linearGradient>
<linearGradient id="paint19_linear_24_40386" x1="76.9651" y1="8.73039" x2="80.0452" y2="11.7686" gradientUnits="userSpaceOnUse">
<stop stop-color="#7A0D36"/>
<stop offset="1" stop-color="#EF1468"/>
</linearGradient>
<linearGradient id="paint20_linear_24_40386" x1="76.0055" y1="6.26505" x2="82.0394" y2="9.62536" gradientUnits="userSpaceOnUse">
<stop stop-color="#FF7368"/>
<stop offset="1" stop-color="#EF1468"/>
</linearGradient>
<linearGradient id="paint21_linear_24_40386" x1="71.3019" y1="4.16804" x2="75.3856" y2="6.32602" gradientUnits="userSpaceOnUse">
<stop stop-color="#FF7368"/>
<stop offset="1" stop-color="#EF1468"/>
</linearGradient>
<linearGradient id="paint22_linear_24_40386" x1="73.5394" y1="5.16418" x2="74.3222" y2="8.60707" gradientUnits="userSpaceOnUse">
<stop stop-color="#7A0D36"/>
<stop offset="1" stop-color="#EF1468"/>
</linearGradient>
<linearGradient id="paint23_linear_24_40386" x1="75.7053" y1="5.03002" x2="73.9726" y2="7.85901" gradientUnits="userSpaceOnUse">
<stop stop-color="#7A0D36"/>
<stop offset="1" stop-color="#EF1468"/>
</linearGradient>
<linearGradient id="paint24_linear_24_40386" x1="75.8782" y1="8.78387" x2="71.2431" y2="17.1069" gradientUnits="userSpaceOnUse">
<stop stop-color="#00C5D4"/>
<stop offset="1" stop-color="#3E8DF0"/>
</linearGradient>
<linearGradient id="paint25_linear_24_40386" x1="67.6151" y1="9.50922" x2="79.6127" y2="16.1908" gradientUnits="userSpaceOnUse">
<stop stop-color="#00C5D4"/>
<stop offset="1" stop-color="#3E8DF0"/>
</linearGradient>
<linearGradient id="paint26_linear_24_40386" x1="71.4941" y1="16.656" x2="70.9823" y2="17.575" gradientUnits="userSpaceOnUse">
<stop stop-color="#00C5D4"/>
<stop offset="1" stop-color="#3E8DF0"/>
</linearGradient>
<linearGradient id="paint27_linear_24_40386" x1="63.4503" y1="31.0999" x2="65.2464" y2="27.8747" gradientUnits="userSpaceOnUse">
<stop stop-color="#FF7368"/>
<stop offset="1" stop-color="#EF1468"/>
</linearGradient>
<linearGradient id="paint28_linear_24_40386" x1="67.8288" y1="8.75374" x2="80.1334" y2="15.6062" gradientUnits="userSpaceOnUse">
<stop stop-color="#FF7368"/>
<stop offset="1" stop-color="#EF1468"/>
</linearGradient>
<linearGradient id="paint29_linear_24_40386" x1="74.9999" y1="12.7132" x2="76.0606" y2="13.4898" gradientUnits="userSpaceOnUse">
<stop stop-color="#7A0D36"/>
<stop offset="1" stop-color="#EF1468"/>
</linearGradient>
<linearGradient id="paint30_linear_24_40386" x1="71.7946" y1="7.10032" x2="75.0306" y2="6.75685" gradientUnits="userSpaceOnUse">
<stop stop-color="#FF7368"/>
<stop offset="1" stop-color="#EF1468"/>
</linearGradient>
<linearGradient id="paint31_linear_24_40386" x1="79.0362" y1="10.9742" x2="78.551" y2="8.36491" gradientUnits="userSpaceOnUse">
<stop stop-color="#FF7368"/>
<stop offset="1" stop-color="#EF1468"/>
</linearGradient>
<linearGradient id="paint32_linear_24_40386" x1="75.667" y1="8.0075" x2="70.6635" y2="20.4814" gradientUnits="userSpaceOnUse">
<stop stop-color="#FF7368"/>
<stop offset="1" stop-color="#EF1468"/>
</linearGradient>
<linearGradient id="paint33_linear_24_40386" x1="76.0105" y1="7.04018" x2="77.2471" y2="7.72885" gradientUnits="userSpaceOnUse">
<stop stop-color="#FF7368"/>
<stop offset="1" stop-color="#EF1468"/>
</linearGradient>
<linearGradient id="paint34_linear_24_40386" x1="46.9729" y1="5.29008" x2="65.5675" y2="5.29008" gradientUnits="userSpaceOnUse">
<stop stop-color="#FF7368"/>
<stop offset="1" stop-color="#EF1468"/>
</linearGradient>
<linearGradient id="paint35_linear_24_40386" x1="54.6756" y1="2.35116" x2="54.6756" y2="13.1451" gradientUnits="userSpaceOnUse">
<stop stop-color="#7A0D36"/>
<stop offset="1" stop-color="#EF1468"/>
</linearGradient>
<linearGradient id="paint36_linear_24_40386" x1="52.4595" y1="8.7901" x2="63.6845" y2="11.9018" gradientUnits="userSpaceOnUse">
<stop stop-color="#7A0D36"/>
<stop offset="1" stop-color="#EF1468"/>
</linearGradient>
<linearGradient id="paint37_linear_24_40386" x1="46.973" y1="4.24809" x2="65.5676" y2="4.24809" gradientUnits="userSpaceOnUse">
<stop stop-color="#FF7368"/>
<stop offset="1" stop-color="#EF1468"/>
</linearGradient>
<linearGradient id="paint38_linear_24_40386" x1="33.1621" y1="5.4771" x2="45.5944" y2="5.2037" gradientUnits="userSpaceOnUse">
<stop stop-color="#FF7368"/>
<stop offset="1" stop-color="#EF1468"/>
</linearGradient>
<linearGradient id="paint39_linear_24_40386" x1="39.7297" y1="4.88933" x2="46.081" y2="11.9621" gradientUnits="userSpaceOnUse">
<stop stop-color="#7A0D36"/>
<stop offset="1" stop-color="#EF1468"/>
</linearGradient>
<linearGradient id="paint40_linear_24_40386" x1="44.6486" y1="1.73662" x2="44.2788" y2="10.6606" gradientUnits="userSpaceOnUse">
<stop stop-color="#7A0D36"/>
<stop offset="1" stop-color="#EF1468"/>
</linearGradient>
<linearGradient id="paint41_linear_24_40386" x1="49.9729" y1="10.3397" x2="49.9729" y2="35.9886" gradientUnits="userSpaceOnUse">
<stop stop-color="#00C5D4"/>
<stop offset="1" stop-color="#3E8DF0"/>
</linearGradient>
<linearGradient id="paint42_linear_24_40386" x1="31.4866" y1="22.8702" x2="68.4595" y2="22.8702" gradientUnits="userSpaceOnUse">
<stop stop-color="#00C5D4"/>
<stop offset="1" stop-color="#3E8DF0"/>
</linearGradient>
<linearGradient id="paint43_linear_24_40386" x1="49.9729" y1="34.5992" x2="49.9729" y2="37.4313" gradientUnits="userSpaceOnUse">
<stop stop-color="#00C5D4"/>
<stop offset="1" stop-color="#3E8DF0"/>
</linearGradient>
<linearGradient id="paint44_linear_24_40386" x1="49.973" y1="79.1107" x2="49.973" y2="69.1717" gradientUnits="userSpaceOnUse">
<stop stop-color="#FF7368"/>
<stop offset="1" stop-color="#EF1468"/>
</linearGradient>
<linearGradient id="paint45_linear_24_40386" x1="31" y1="20.813" x2="68.9189" y2="20.813" gradientUnits="userSpaceOnUse">
<stop stop-color="#FF7368"/>
<stop offset="1" stop-color="#EF1468"/>
</linearGradient>
<linearGradient id="paint46_linear_24_40386" x1="53.054" y1="20.7328" x2="56.5663" y2="21.1701" gradientUnits="userSpaceOnUse">
<stop stop-color="#7A0D36"/>
<stop offset="1" stop-color="#EF1468"/>
</linearGradient>
<linearGradient id="paint47_linear_24_40386" x1="38.1622" y1="11.729" x2="45.3239" y2="6.68218" gradientUnits="userSpaceOnUse">
<stop stop-color="#FF7368"/>
<stop offset="1" stop-color="#EF1468"/>
</linearGradient>
<linearGradient id="paint48_linear_24_40386" x1="60.2704" y1="11.355" x2="55.7112" y2="5.8529" gradientUnits="userSpaceOnUse">
<stop stop-color="#FF7368"/>
<stop offset="1" stop-color="#EF1468"/>
</linearGradient>
<linearGradient id="paint49_linear_24_40386" x1="48.4595" y1="8.79005" x2="53.0304" y2="44.6851" gradientUnits="userSpaceOnUse">
<stop stop-color="#FF7368"/>
<stop offset="1" stop-color="#EF1468"/>
</linearGradient>
<linearGradient id="paint50_linear_24_40386" x1="48" y1="6.06491" x2="51.8108" y2="6.06491" gradientUnits="userSpaceOnUse">
<stop stop-color="#FF7368"/>
<stop offset="1" stop-color="#EF1468"/>
</linearGradient>
<linearGradient id="paint51_linear_24_40386" x1="14.3631" y1="30.5623" x2="29.3202" y2="25.238" gradientUnits="userSpaceOnUse">
<stop stop-color="#FF7368"/>
<stop offset="1" stop-color="#EF1468"/>
</linearGradient>
<linearGradient id="paint52_linear_24_40386" x1="19.7174" y1="25.9927" x2="22.8081" y2="34.6751" gradientUnits="userSpaceOnUse">
<stop stop-color="#7A0D36"/>
<stop offset="1" stop-color="#EF1468"/>
</linearGradient>
<linearGradient id="paint53_linear_24_40386" x1="19.7785" y1="31.8067" x2="29.6986" y2="31.0956" gradientUnits="userSpaceOnUse">
<stop stop-color="#7A0D36"/>
<stop offset="1" stop-color="#EF1468"/>
</linearGradient>
<linearGradient id="paint54_linear_24_40386" x1="14.0647" y1="29.7242" x2="29.0218" y2="24.3999" gradientUnits="userSpaceOnUse">
<stop stop-color="#FF7368"/>
<stop offset="1" stop-color="#EF1468"/>
</linearGradient>
<linearGradient id="paint55_linear_24_40386" x1="3.30749" y1="34.6673" x2="13.2295" y2="30.8876" gradientUnits="userSpaceOnUse">
<stop stop-color="#FF7368"/>
<stop offset="1" stop-color="#EF1468"/>
</linearGradient>
<linearGradient id="paint56_linear_24_40386" x1="8.42196" y1="32.3139" x2="15.556" y2="36.1845" gradientUnits="userSpaceOnUse">
<stop stop-color="#7A0D36"/>
<stop offset="1" stop-color="#EF1468"/>
</linearGradient>
<linearGradient id="paint57_linear_24_40386" x1="11.476" y1="28.3696" x2="13.7338" y2="35.6537" gradientUnits="userSpaceOnUse">
<stop stop-color="#7A0D36"/>
<stop offset="1" stop-color="#EF1468"/>
</linearGradient>
<linearGradient id="paint58_linear_24_40386" x1="18.222" y1="33.7652" x2="25.5661" y2="54.3965" gradientUnits="userSpaceOnUse">
<stop stop-color="#00C5D4"/>
<stop offset="1" stop-color="#3E8DF0"/>
</linearGradient>
<linearGradient id="paint59_linear_24_40386" x1="6.93993" y1="49.1377" x2="36.6801" y2="38.5511" gradientUnits="userSpaceOnUse">
<stop stop-color="#00C5D4"/>
<stop offset="1" stop-color="#3E8DF0"/>
</linearGradient>
<linearGradient id="paint60_linear_24_40386" x1="25.1685" y1="53.279" x2="25.9794" y2="55.557" gradientUnits="userSpaceOnUse">
<stop stop-color="#00C5D4"/>
<stop offset="1" stop-color="#3E8DF0"/>
</linearGradient>
<linearGradient id="paint61_linear_24_40386" x1="37.9135" y1="89.083" x2="35.0677" y2="81.0883" gradientUnits="userSpaceOnUse">
<stop stop-color="#FF7368"/>
<stop offset="1" stop-color="#EF1468"/>
</linearGradient>
<linearGradient id="paint62_linear_24_40386" x1="5.95937" y1="47.6222" x2="36.4605" y2="36.7647" gradientUnits="userSpaceOnUse">
<stop stop-color="#FF7368"/>
<stop offset="1" stop-color="#EF1468"/>
</linearGradient>
<linearGradient id="paint63_linear_24_40386" x1="23.6763" y1="41.2429" x2="26.6267" y2="40.589" gradientUnits="userSpaceOnUse">
<stop stop-color="#7A0D36"/>
<stop offset="1" stop-color="#EF1468"/>
</linearGradient>
<linearGradient id="paint64_linear_24_40386" x1="9.1195" y1="38.2645" x2="13.4351" y2="32.1543" gradientUnits="userSpaceOnUse">
<stop stop-color="#FF7368"/>
<stop offset="1" stop-color="#EF1468"/>
</linearGradient>
<linearGradient id="paint65_linear_24_40386" x1="26.7956" y1="31.6333" x2="21.5528" y2="28.513" gradientUnits="userSpaceOnUse">
<stop stop-color="#FF7368"/>
<stop offset="1" stop-color="#EF1468"/>
</linearGradient>
<linearGradient id="paint66_linear_24_40386" x1="16.561" y1="32.952" x2="30.5157" y2="60.5163" gradientUnits="userSpaceOnUse">
<stop stop-color="#FF7368"/>
<stop offset="1" stop-color="#EF1468"/>
</linearGradient>
<linearGradient id="paint67_linear_24_40386" x1="15.4109" y1="30.8915" x2="18.4762" y2="29.8003" gradientUnits="userSpaceOnUse">
<stop stop-color="#FF7368"/>
<stop offset="1" stop-color="#EF1468"/>
</linearGradient>
<linearGradient id="paint68_linear_24_40386" x1="82.3988" y1="23.3023" x2="97.1162" y2="29.2572" gradientUnits="userSpaceOnUse">
<stop stop-color="#FF7368"/>
<stop offset="1" stop-color="#EF1468"/>
</linearGradient>
<linearGradient id="paint69_linear_24_40386" x1="89.4365" y1="23.443" x2="85.9798" y2="31.9862" gradientUnits="userSpaceOnUse">
<stop stop-color="#7A0D36"/>
<stop offset="1" stop-color="#EF1468"/>
</linearGradient>
<linearGradient id="paint70_linear_24_40386" x1="85.6202" y1="27.8296" x2="93.5081" y2="33.8872" gradientUnits="userSpaceOnUse">
<stop stop-color="#7A0D36"/>
<stop offset="1" stop-color="#EF1468"/>
</linearGradient>
<linearGradient id="paint71_linear_24_40386" x1="82.7324" y1="22.4776" x2="97.4498" y2="28.4325" gradientUnits="userSpaceOnUse">
<stop stop-color="#FF7368"/>
<stop offset="1" stop-color="#EF1468"/>
</linearGradient>
<linearGradient id="paint72_linear_24_40386" x1="71.4078" y1="19.0275" x2="81.3354" y2="22.7925" gradientUnits="userSpaceOnUse">
<stop stop-color="#FF7368"/>
<stop offset="1" stop-color="#EF1468"/>
</linearGradient>
<linearGradient id="paint73_linear_24_40386" x1="76.7941" y1="20.6655" x2="79.5561" y2="28.2975" gradientUnits="userSpaceOnUse">
<stop stop-color="#7A0D36"/>
<stop offset="1" stop-color="#EF1468"/>
</linearGradient>
<linearGradient id="paint74_linear_24_40386" x1="81.697" y1="19.7455" x2="78.5465" y2="26.6903" gradientUnits="userSpaceOnUse">
<stop stop-color="#7A0D36"/>
<stop offset="1" stop-color="#EF1468"/>
</linearGradient>
<linearGradient id="paint75_linear_24_40386" x1="83.1561" y1="28.2598" x2="74.9421" y2="48.5605" gradientUnits="userSpaceOnUse">
<stop stop-color="#00C5D4"/>
<stop offset="1" stop-color="#3E8DF0"/>
</linearGradient>
<linearGradient id="paint76_linear_24_40386" x1="64.5113" y1="32.2573" x2="93.775" y2="44.0978" gradientUnits="userSpaceOnUse">
<stop stop-color="#00C5D4"/>
<stop offset="1" stop-color="#3E8DF0"/>
</linearGradient>
<linearGradient id="paint77_linear_24_40386" x1="75.3869" y1="47.4609" x2="74.4799" y2="49.7024" gradientUnits="userSpaceOnUse">
<stop stop-color="#00C5D4"/>
<stop offset="1" stop-color="#3E8DF0"/>
</linearGradient>
<linearGradient id="paint78_linear_24_40386" x1="61.1324" y1="82.6912" x2="64.3153" y2="74.8246" gradientUnits="userSpaceOnUse">
<stop stop-color="#FF7368"/>
<stop offset="1" stop-color="#EF1468"/>
</linearGradient>
<linearGradient id="paint79_linear_24_40386" x1="64.7851" y1="30.4732" x2="94.7975" y2="42.6167" gradientUnits="userSpaceOnUse">
<stop stop-color="#FF7368"/>
<stop offset="1" stop-color="#EF1468"/>
</linearGradient>
<linearGradient id="paint80_linear_24_40386" x1="82.2664" y1="37.4725" x2="84.9063" y2="38.9434" gradientUnits="userSpaceOnUse">
<stop stop-color="#7A0D36"/>
<stop offset="1" stop-color="#EF1468"/>
</linearGradient>
<linearGradient id="paint81_linear_24_40386" x1="73.3631" y1="25.577" x2="80.6478" y2="23.876" gradientUnits="userSpaceOnUse">
<stop stop-color="#FF7368"/>
<stop offset="1" stop-color="#EF1468"/>
</linearGradient>
<linearGradient id="paint82_linear_24_40386" x1="90.9811" y1="32.361" x2="89.1346" y2="26.5461" gradientUnits="userSpaceOnUse">
<stop stop-color="#FF7368"/>
<stop offset="1" stop-color="#EF1468"/>
</linearGradient>
<linearGradient id="paint83_linear_24_40386" x1="82.4545" y1="26.5486" x2="74.577" y2="56.4229" gradientUnits="userSpaceOnUse">
<stop stop-color="#FF7368"/>
<stop offset="1" stop-color="#EF1468"/>
</linearGradient>
<linearGradient id="paint84_linear_24_40386" x1="82.9634" y1="24.2445" x2="85.9796" y2="25.4649" gradientUnits="userSpaceOnUse">
<stop stop-color="#FF7368"/>
<stop offset="1" stop-color="#EF1468"/>
</linearGradient>
<linearGradient id="paint85_linear_24_40386" x1="47.9866" y1="38.436" x2="66.3001" y2="34.0245" gradientUnits="userSpaceOnUse">
<stop stop-color="#FF7368"/>
<stop offset="1" stop-color="#EF1468"/>
</linearGradient>
<linearGradient id="paint86_linear_24_40386" x1="54.8756" y1="33.714" x2="57.4364" y2="44.3447" gradientUnits="userSpaceOnUse">
<stop stop-color="#7A0D36"/>
<stop offset="1" stop-color="#EF1468"/>
</linearGradient>
<linearGradient id="paint87_linear_24_40386" x1="54.2204" y1="40.5814" x2="66.014" y2="40.9829" gradientUnits="userSpaceOnUse">
<stop stop-color="#7A0D36"/>
<stop offset="1" stop-color="#EF1468"/>
</linearGradient>
<linearGradient id="paint88_linear_24_40386" x1="47.7393" y1="37.4097" x2="66.0528" y2="32.9982" gradientUnits="userSpaceOnUse">
<stop stop-color="#FF7368"/>
<stop offset="1" stop-color="#EF1468"/>
</linearGradient>
<linearGradient id="paint89_linear_24_40386" x1="34.429" y1="41.8967" x2="46.6085" y2="38.6779" gradientUnits="userSpaceOnUse">
<stop stop-color="#FF7368"/>
<stop offset="1" stop-color="#EF1468"/>
</linearGradient>
<linearGradient id="paint90_linear_24_40386" x1="40.7577" y1="39.7597" x2="48.691" y2="45.2187" gradientUnits="userSpaceOnUse">
<stop stop-color="#7A0D36"/>
<stop offset="1" stop-color="#EF1468"/>
</linearGradient>
<linearGradient id="paint91_linear_24_40386" x1="44.8543" y1="35.4877" x2="46.6073" y2="44.3645" gradientUnits="userSpaceOnUse">
<stop stop-color="#7A0D36"/>
<stop offset="1" stop-color="#EF1468"/>
</linearGradient>
<linearGradient id="paint92_linear_24_40386" x1="52.1392" y1="42.6975" x2="58.2243" y2="67.9586" gradientUnits="userSpaceOnUse">
<stop stop-color="#00C5D4"/>
<stop offset="1" stop-color="#3E8DF0"/>
</linearGradient>
<linearGradient id="paint93_linear_24_40386" x1="36.9049" y1="59.4244" x2="73.319" y2="50.6527" gradientUnits="userSpaceOnUse">
<stop stop-color="#00C5D4"/>
<stop offset="1" stop-color="#3E8DF0"/>
</linearGradient>
<linearGradient id="paint94_linear_24_40386" x1="57.8947" y1="66.5903" x2="58.5666" y2="69.3795" gradientUnits="userSpaceOnUse">
<stop stop-color="#00C5D4"/>
<stop offset="1" stop-color="#3E8DF0"/>
</linearGradient>
<linearGradient id="paint95_linear_24_40386" x1="68.4549" y1="110.429" x2="66.0969" y2="100.64" gradientUnits="userSpaceOnUse">
<stop stop-color="#FF7368"/>
<stop offset="1" stop-color="#EF1468"/>
</linearGradient>
<linearGradient id="paint96_linear_24_40386" x1="35.9379" y1="57.5137" x2="73.2836" y2="48.5176" gradientUnits="userSpaceOnUse">
<stop stop-color="#FF7368"/>
<stop offset="1" stop-color="#EF1468"/>
</linearGradient>
<linearGradient id="paint97_linear_24_40386" x1="57.6394" y1="52.2025" x2="61.2023" y2="51.7999" gradientUnits="userSpaceOnUse">
<stop stop-color="#7A0D36"/>
<stop offset="1" stop-color="#EF1468"/>
</linearGradient>
<linearGradient id="paint98_linear_24_40386" x1="40.8365" y1="46.8679" x2="46.6926" y2="40.1983" gradientUnits="userSpaceOnUse">
<stop stop-color="#FF7368"/>
<stop offset="1" stop-color="#EF1468"/>
</linearGradient>
<linearGradient id="paint99_linear_24_40386" x1="62.5216" y1="41.2544" x2="56.726" y2="36.9172" gradientUnits="userSpaceOnUse">
<stop stop-color="#FF7368"/>
<stop offset="1" stop-color="#EF1468"/>
</linearGradient>
<linearGradient id="paint100_linear_24_40386" x1="50.2809" y1="41.5304" x2="63.2987" y2="75.7983" gradientUnits="userSpaceOnUse">
<stop stop-color="#FF7368"/>
<stop offset="1" stop-color="#EF1468"/>
</linearGradient>
<linearGradient id="paint101_linear_24_40386" x1="49.1818" y1="38.9554" x2="52.935" y2="38.0513" gradientUnits="userSpaceOnUse">
<stop stop-color="#FF7368"/>
<stop offset="1" stop-color="#EF1468"/>
</linearGradient>
<clipPath id="clip0_24_40386">
<rect width="23.4867" height="25.9589" fill="white" transform="translate(4.88013 11.0426) rotate(-19.5943)"/>
</clipPath>
<clipPath id="clip1_24_40386">
<rect width="14.1141" height="15.5998" fill="white" transform="translate(71.5901 2) rotate(29.1137)"/>
</clipPath>
<clipPath id="clip2_24_40386">
<rect width="32.4452" height="35.8605" fill="white" transform="translate(0 30.8807) rotate(-19.5943)"/>
</clipPath>
<clipPath id="clip3_24_40386">
<rect width="32.4452" height="35.8605" fill="white" transform="translate(71.4504 14) rotate(22.0289)"/>
</clipPath>
<clipPath id="clip4_24_40386">
<rect width="38.4961" height="42.5483" fill="white" transform="translate(31 37.0154) rotate(-13.5438)"/>
</clipPath>
</defs>
</svg>
