<svg width="38" height="42" viewBox="0 0 38 42" fill="none" xmlns="http://www.w3.org/2000/svg">
<path d="M18.7567 6.30534C18.7567 6.30534 22.6756 0 28.4324 0C34.1892 0 34.4054 3.23282 34.5675 5.34351C34.7297 7.4542 32.027 12.0496 18.9189 10.126C12.3243 8.17557 18.7567 6.30534 18.7567 6.30534Z" fill="#CE0D5B"/>
<path d="M18.7567 6.30534C18.7567 6.30534 22.6756 0 28.4324 0C34.1892 0 34.4054 3.23282 34.5675 5.34351C34.7297 7.4542 32.027 12.0496 18.9189 10.126C12.3243 8.17557 18.7567 6.30534 18.7567 6.30534Z" fill="url(#paint0_linear_24_40728)"/>
<path d="M17.1891 9.93895C17.1891 9.93895 21.108 3.63361 26.8377 3.63361C32.5675 3.63361 32.8377 6.86643 32.9729 8.97712C33.108 11.0878 30.4593 15.7901 17.4053 13.8397C10.8107 11.7825 17.1891 9.93895 17.1891 9.93895Z" fill="url(#paint1_linear_24_40728)"/>
<path d="M17.0271 10.3664C17.0271 10.3664 20.946 4.0611 26.6757 4.0611C32.4054 4.0611 32.6757 7.32064 32.8108 9.40461C32.946 11.4886 30.2973 16.0306 17.2433 14.187C10.5946 12.2367 17.0271 10.3664 17.0271 10.3664Z" fill="url(#paint2_linear_24_40728)"/>
<path d="M18.7568 6.81298C18.7568 6.81298 22.6757 0.507634 28.4325 0.507634C34.1892 0.507634 34.4054 3.6603 34.5676 5.66412V5.34351C34.4054 3.33969 34.1622 0 28.4325 0C22.7027 0 18.7568 6.30534 18.7568 6.30534C18.7568 6.30534 15.5406 7.24046 16.0541 8.46947C16.4054 7.50763 18.7568 6.81298 18.7568 6.81298Z" fill="url(#paint3_linear_24_40728)"/>
<path d="M18.9189 6.30534C18.9189 6.30534 14.8918 0 9.13507 0C3.37831 0 3.08102 2.80534 2.99994 5.34351C2.91886 7.88168 5.40534 12.0496 18.5675 10.126C25.2162 8.17557 18.9189 6.30534 18.9189 6.30534Z" fill="#CE0D5B"/>
<path d="M18.9189 6.30534C18.9189 6.30534 14.8918 0 9.13507 0C3.37831 0 3.08102 2.80534 2.99994 5.34351C2.91886 7.88168 5.40534 12.0496 18.5675 10.126C25.2162 8.17557 18.9189 6.30534 18.9189 6.30534Z" fill="url(#paint4_linear_24_40728)"/>
<path opacity="0.4" d="M9.05403 0.614504C14.7838 0.614504 18.7027 6.91985 18.7027 6.91985C18.7027 6.91985 21.1892 7.64122 21.4054 8.65649C22.1892 7.34733 18.7027 6.33206 18.7027 6.33206C18.7027 6.33206 14.8919 0 9.13511 0C4.3243 0 3.3243 2.00382 3.08105 4.08779C3.43241 2.24427 4.67565 0.614504 9.05403 0.614504Z" fill="#FF6768"/>
<path d="M19.9729 9.35116C18.8124 7.91171 17.3635 6.72487 15.7171 5.86511C14.0706 5.00535 12.2622 4.49122 10.4053 4.35498C4.70263 4.35498 4.37831 6.57254 4.29723 8.4962C4.21615 10.4199 6.81074 13.8397 19.7567 12.3702C26.3513 10.8206 19.9729 9.35116 19.9729 9.35116Z" fill="url(#paint5_linear_24_40728)"/>
<path d="M19.6756 8.97708C18.5121 7.53445 17.0589 6.34574 15.4075 5.48585C13.7562 4.62596 11.9426 4.11354 10.081 3.9809C4.37834 3.9809 4.32428 6.22517 4.2432 8.17555C4.16212 10.1259 6.51347 13.5191 19.4594 11.9962C26.054 10.4465 19.6756 8.97708 19.6756 8.97708Z" fill="url(#paint6_linear_24_40728)"/>
<path d="M36.3243 8.1756H1.62156C0.964791 8.1756 0.432373 8.70192 0.432373 9.35117V36.4428C0.432373 37.092 0.964791 37.6183 1.62156 37.6183H36.3243C36.981 37.6183 37.5135 37.092 37.5135 36.4428V9.35117C37.5135 8.70192 36.981 8.1756 36.3243 8.1756Z" fill="url(#paint7_linear_24_40728)"/>
<path style="mix-blend-mode:multiply" d="M36.0812 18.4618C36.0812 18.4618 29.8649 18.8092 23.2704 19.0229C23.2907 15.8464 23.5527 12.6758 24.0541 9.53816L30.946 14.8817L31.7568 12.4771L33.7298 12.0229C33.7298 12.0229 29.2163 9.05725 27.8649 8.12213H15.1352L5.40549 10.9275L4.56765 13.0114L7.83792 12.5305L9.32441 15.3626C9.32441 15.3626 14.0541 9.83205 16.7028 9.56488C17.4416 9.47345 18.1915 9.59052 18.8658 9.90255C19.5401 10.2146 20.1114 10.7088 20.5136 11.3282L21.5947 12.1298V19.0763C18.892 19.0763 15.919 19.2366 13.4866 19.2366C9.59631 19.3588 5.70339 19.0993 1.86495 18.4618C1.52509 18.4397 1.19004 18.5505 0.932151 18.7705C0.674262 18.9904 0.514218 19.3018 0.486572 19.6374V24.0458C0.514218 24.3814 0.674262 24.6928 0.932151 24.9127C1.19004 25.1327 1.52509 25.2435 1.86495 25.2214C1.86495 25.2214 11.6487 24.2595 16.8379 24.2595C18.0541 24.2595 19.7298 24.2595 21.5947 24.3931V37.5649H24.0541C24.0541 37.5649 23.6217 30.3244 23.4055 24.4733C29.2704 24.7672 36.0812 25.2214 36.0812 25.2214C36.421 25.2435 36.7561 25.1327 37.014 24.9127C37.2719 24.6928 37.4319 24.3814 37.4595 24.0458V19.6374C37.4319 19.3018 37.2719 18.9904 37.014 18.7705C36.7561 18.5505 36.421 18.4397 36.0812 18.4618Z" fill="url(#paint8_linear_24_40728)"/>
<path style="mix-blend-mode:multiply" d="M36.3243 35.5343H1.62156C1.4654 35.5343 1.31076 35.5039 1.16648 35.4449C1.0222 35.3858 0.891105 35.2992 0.780678 35.19C0.557662 34.9696 0.432373 34.6705 0.432373 34.3588V36.416C0.432373 36.7278 0.557662 37.0268 0.780678 37.2473C0.891105 37.3564 1.0222 37.443 1.16648 37.5021C1.31076 37.5612 1.4654 37.5916 1.62156 37.5916H36.3243C36.4814 37.5952 36.6377 37.5673 36.7837 37.5096C36.9296 37.4518 37.0622 37.3653 37.1734 37.2554C37.2846 37.1455 37.372 37.0145 37.4305 36.8702C37.4889 36.7259 37.5172 36.5714 37.5135 36.416V34.3588C37.5135 34.6705 37.3882 34.9696 37.1651 35.19C36.9421 35.4105 36.6397 35.5343 36.3243 35.5343Z" fill="url(#paint9_linear_24_40728)"/>
<path d="M16.2163 8.30914C16.2163 8.30914 14.5406 5.10304 9.05414 7.42746C7.13163 8.36923 5.31905 9.516 3.64873 10.8473C3.48657 10.9809 3.64873 11.5687 3.64873 11.5687L6.83792 11.916L7.83792 15.3626C7.83792 15.3626 14.4055 8.38929 16.2163 8.30914Z" fill="#CE0D5B"/>
<path d="M36.5135 17.4466C36.8536 17.4527 37.1789 17.5854 37.4243 17.8182C37.6698 18.0509 37.8175 18.3667 37.8378 18.7023V23.0573C37.797 23.3974 37.6256 23.709 37.3591 23.9278C37.0925 24.1466 36.7511 24.2558 36.4054 24.2329C36.4054 24.2329 22.027 23.271 16.7027 23.271C11.3784 23.271 1.45946 24.2329 1.45946 24.2329C1.10931 24.263 0.761056 24.1571 0.488581 23.9376C0.216105 23.7182 0.0408511 23.4024 0 23.0573L0 18.7023C0.0407988 18.3622 0.212189 18.0506 0.478767 17.8318C0.745344 17.613 1.08674 17.5038 1.43243 17.5267C5.42654 18.1506 9.47318 18.3833 13.5135 18.2214C21.973 18.2214 36.5135 17.4466 36.5135 17.4466Z" fill="#EF1468"/>
<path d="M36.5135 17.4733C36.8493 17.4788 37.1709 17.6078 37.4157 17.835C37.6605 18.0622 37.811 18.3714 37.8378 18.7023V23.084C37.797 23.4241 37.6256 23.7357 37.3591 23.9545C37.0925 24.1733 36.7511 24.2825 36.4054 24.2595C36.4054 24.2595 22.027 23.3244 16.7027 23.3244C11.3784 23.3244 1.45946 24.2595 1.45946 24.2595C1.10931 24.2897 0.761056 24.1838 0.488581 23.9643C0.216105 23.7448 0.0408511 23.429 0 23.084L0 18.7023C0.0407988 18.3622 0.212189 18.0505 0.478767 17.8317C0.745344 17.613 1.08674 17.5038 1.43243 17.5267C5.42564 18.1595 9.47229 18.4011 13.5135 18.2481C21.973 18.2481 36.5135 17.4733 36.5135 17.4733Z" fill="url(#paint10_linear_24_40728)"/>
<path d="M36.4865 17.4466C36.8332 17.4393 37.169 17.5668 37.4217 17.8016C37.6743 18.0364 37.8238 18.3598 37.8378 18.7023V23.0306C37.797 23.3707 37.6256 23.6823 37.3591 23.9011C37.0925 24.1199 36.7511 24.2291 36.4054 24.2061C36.4054 24.2061 22.027 23.271 16.6757 23.271C11.3243 23.271 1.43243 24.2061 1.43243 24.2061C1.08674 24.2291 0.745344 24.1199 0.478767 23.9011C0.212189 23.6823 0.0407988 23.3707 0 23.0306L0 18.7023C0.0408093 18.3643 0.2132 18.0553 0.480613 17.8408C0.748027 17.6263 1.08943 17.5233 1.43243 17.5535C5.4297 18.1462 9.47502 18.361 13.5135 18.1947C21.9459 18.1947 36.4865 17.4466 36.4865 17.4466Z" fill="url(#paint11_linear_24_40728)"/>
<g style="mix-blend-mode:multiply" opacity="0.4">
<path d="M36.4865 23.3512C36.4865 23.3512 22.1081 22.4161 16.7568 22.4161C11.4054 22.4161 1.43243 23.3512 1.43243 23.3512C1.08523 23.381 0.740139 23.2743 0.471992 23.0542C0.203845 22.8341 0.0342567 22.5184 0 22.1756L0 23.1374C0.0407988 23.4775 0.212189 23.7892 0.478767 24.008C0.745344 24.2267 1.08674 24.3359 1.43243 24.313C1.43243 24.313 11.4324 23.3779 16.7568 23.3779C22.0811 23.3779 36.4865 24.313 36.4865 24.313C36.8185 24.3154 37.1397 24.1968 37.389 23.98C37.6382 23.7632 37.798 23.4633 37.8378 23.1374V22.1756C37.8039 22.5038 37.6458 22.8073 37.3953 23.0252C37.1447 23.2432 36.8201 23.3596 36.4865 23.3512Z" fill="#7F1244"/>
</g>
<path d="M21.9999 17.9809C21.9999 17.9809 22.6215 20.6527 23.054 21.6679C23.6756 23.2443 24.3242 23.4313 24.3242 23.4313C23.2633 23.5257 22.196 23.5257 21.1351 23.4313C19.4594 23.1908 21.9999 17.9809 21.9999 17.9809Z" fill="url(#paint12_linear_24_40728)"/>
<path d="M16.2162 7.5878C15.1509 6.91749 13.9203 6.5482 12.6578 6.51994C11.3953 6.49168 10.149 6.80554 9.05409 7.42749C7.06842 8.25481 5.24032 9.4114 3.64868 10.8473L6.83787 11.1679L7.75679 14.6412C7.75679 14.6412 14.4054 7.66795 16.2162 7.5878Z" fill="url(#paint13_linear_24_40728)"/>
<path d="M21.1353 8.30918C22.0306 7.39968 23.2043 6.80732 24.4746 6.62379C25.745 6.44025 27.041 6.67578 28.1623 7.29391C30.1759 8.20624 32.05 9.39339 33.7298 10.8206C33.892 10.9809 33.7298 11.5687 33.7298 11.5687L30.5407 11.9161L29.7298 15.3626C29.7298 15.3626 23.0812 8.38933 21.1353 8.30918Z" fill="#CE0D5B"/>
<path d="M21.1353 7.53437C22.2165 6.89126 23.4545 6.55145 24.7163 6.55145C25.9782 6.55145 27.2162 6.89126 28.2974 7.53437C30.2908 8.34708 32.1214 9.50522 33.7028 10.9542L30.5136 11.2748L29.7298 14.6145C29.7298 14.6145 23.0812 7.61453 21.1353 7.53437Z" fill="url(#paint14_linear_24_40728)"/>
<path d="M22.7297 37.0305C22.7304 37.3289 22.6163 37.6164 22.4105 37.8347C22.2047 38.053 21.9227 38.1857 21.6216 38.2061H17.054C16.7433 38.1991 16.4477 38.0722 16.2305 37.8525C16.0133 37.6328 15.8918 37.3377 15.8918 37.0305C15.8918 37.0305 16.8378 25.2481 16.8378 21C16.8378 16.7519 15.8918 8.44272 15.8918 8.44272C15.8918 8.13552 16.0133 7.84048 16.2305 7.62077C16.4477 7.40106 16.7433 7.27413 17.054 7.26715H21.6216C21.937 7.26715 22.2394 7.39101 22.4625 7.61147C22.6855 7.83193 22.8108 8.13094 22.8108 8.44272C22.1629 11.6697 21.8999 14.9606 22.027 18.2481C21.9459 25.1145 22.7297 37.0305 22.7297 37.0305Z" fill="#EF1468"/>
<path d="M22.8649 36.7634C22.8661 37.0575 22.7558 37.3414 22.5556 37.559C22.3555 37.7766 22.0801 37.9122 21.7838 37.9389H17.1892C16.8738 37.9389 16.5713 37.8151 16.3483 37.5946C16.1253 37.3742 16 37.0751 16 36.7634C16 36.7634 16.9459 24.9809 16.9459 20.7328C16.9459 16.4847 16 8.17557 16 8.17557C16 7.86379 16.1253 7.56478 16.3483 7.34432C16.5713 7.12385 16.8738 7 17.1892 7H21.7838C22.0992 7 22.4017 7.12385 22.6247 7.34432C22.8477 7.56478 22.973 7.86379 22.973 8.17557C22.3251 11.4025 22.0621 14.6934 22.1892 17.9809C22.0811 24.8473 22.8649 36.7634 22.8649 36.7634Z" fill="url(#paint15_linear_24_40728)"/>
<g style="mix-blend-mode:multiply" opacity="0.4">
<path d="M21.6216 35.7213H17.054C16.4054 35.7213 16.054 35.187 16.054 34.5458L15.8918 37.0305C15.8918 37.3377 16.0133 37.6327 16.2305 37.8525C16.4477 38.0722 16.7433 38.1991 17.054 38.2061H21.6216C21.937 38.2061 22.2394 38.0822 22.4625 37.8618C22.6855 37.6413 22.8108 37.3423 22.8108 37.0305L22.6486 34.5458C22.6676 34.6912 22.6554 34.8389 22.6128 34.9793C22.5701 35.1197 22.4979 35.2496 22.401 35.3606C22.3041 35.4715 22.1845 35.561 22.0502 35.6232C21.9159 35.6854 21.7699 35.7188 21.6216 35.7213Z" fill="#7F1244"/>
</g>
<path opacity="0.4" d="M4 10.687C5.62414 9.32179 7.44621 8.20505 9.40541 7.37405C10.3057 6.86539 11.3184 6.58241 12.3549 6.54981C13.3913 6.51721 14.4201 6.73598 15.3514 7.18702C13.2375 6.69621 11.0161 6.96124 9.08108 7.93511C5.81081 9.51145 4 10.687 4 10.687Z" fill="#FF6768"/>
<path d="M17 7.13362C17 7.13362 17.5405 5.23667 18.027 5.07636C18.6186 4.99269 19.2192 4.99269 19.8108 5.07636C20.1067 5.33699 20.3474 5.65297 20.519 6.00608C20.6907 6.35918 20.7898 6.74241 20.8108 7.13362H17Z" fill="#CE0D5B"/>
<path d="M17 7.13362C17 7.13362 17.5405 5.23667 18.027 5.07636C18.6186 4.99269 19.2192 4.99269 19.8108 5.07636C20.1067 5.33699 20.3474 5.65297 20.519 6.00608C20.6907 6.35918 20.7898 6.74241 20.8108 7.13362H17Z" fill="url(#paint16_linear_24_40728)"/>
<path opacity="0.4" d="M18.2703 5.34352C18.8528 5.25984 19.4445 5.25984 20.027 5.34352L20.2432 5.53055C20.1252 5.34908 19.9793 5.18684 19.8108 5.04963C19.2192 4.96596 18.6186 4.96596 18.027 5.04963C17.5405 5.20994 17 7.10688 17 7.10688H17.2973C17.4865 6.59925 17.8919 5.47711 18.2703 5.34352Z" fill="#FF6768"/>
<g style="mix-blend-mode:overlay">
<path d="M16.6487 1.54959C22.7838 1.30913 27.8649 3.31295 27.973 6.03814C28.0811 8.76333 23.2163 11.1679 17.1622 11.3817C11.1082 11.5954 5.83789 9.67173 5.72979 6.94654C5.62168 4.22135 10.5136 1.79005 16.6487 1.54959Z" fill="white"/>
</g>
<defs>
<linearGradient id="paint0_linear_24_40728" x1="15.9729" y1="5.29008" x2="34.5675" y2="5.29008" gradientUnits="userSpaceOnUse">
<stop stop-color="#FF7368"/>
<stop offset="1" stop-color="#EF1468"/>
</linearGradient>
<linearGradient id="paint1_linear_24_40728" x1="23.6756" y1="2.35116" x2="23.6756" y2="13.1451" gradientUnits="userSpaceOnUse">
<stop stop-color="#7A0D36"/>
<stop offset="1" stop-color="#EF1468"/>
</linearGradient>
<linearGradient id="paint2_linear_24_40728" x1="21.4595" y1="8.7901" x2="32.6845" y2="11.9018" gradientUnits="userSpaceOnUse">
<stop stop-color="#7A0D36"/>
<stop offset="1" stop-color="#EF1468"/>
</linearGradient>
<linearGradient id="paint3_linear_24_40728" x1="15.973" y1="4.24809" x2="34.5676" y2="4.24809" gradientUnits="userSpaceOnUse">
<stop stop-color="#FF7368"/>
<stop offset="1" stop-color="#EF1468"/>
</linearGradient>
<linearGradient id="paint4_linear_24_40728" x1="2.1621" y1="5.4771" x2="14.5944" y2="5.2037" gradientUnits="userSpaceOnUse">
<stop stop-color="#FF7368"/>
<stop offset="1" stop-color="#EF1468"/>
</linearGradient>
<linearGradient id="paint5_linear_24_40728" x1="8.72966" y1="4.88933" x2="15.081" y2="11.9621" gradientUnits="userSpaceOnUse">
<stop stop-color="#7A0D36"/>
<stop offset="1" stop-color="#EF1468"/>
</linearGradient>
<linearGradient id="paint6_linear_24_40728" x1="13.6486" y1="1.73662" x2="13.2788" y2="10.6606" gradientUnits="userSpaceOnUse">
<stop stop-color="#7A0D36"/>
<stop offset="1" stop-color="#EF1468"/>
</linearGradient>
<linearGradient id="paint7_linear_24_40728" x1="18.9729" y1="10.3397" x2="18.9729" y2="35.9886" gradientUnits="userSpaceOnUse">
<stop stop-color="#00C5D4"/>
<stop offset="1" stop-color="#3E8DF0"/>
</linearGradient>
<linearGradient id="paint8_linear_24_40728" x1="0.486572" y1="22.8702" x2="37.4595" y2="22.8702" gradientUnits="userSpaceOnUse">
<stop stop-color="#00C5D4"/>
<stop offset="1" stop-color="#3E8DF0"/>
</linearGradient>
<linearGradient id="paint9_linear_24_40728" x1="18.9729" y1="34.5992" x2="18.9729" y2="37.4313" gradientUnits="userSpaceOnUse">
<stop stop-color="#00C5D4"/>
<stop offset="1" stop-color="#3E8DF0"/>
</linearGradient>
<linearGradient id="paint10_linear_24_40728" x1="18.973" y1="79.1107" x2="18.973" y2="69.1717" gradientUnits="userSpaceOnUse">
<stop stop-color="#FF7368"/>
<stop offset="1" stop-color="#EF1468"/>
</linearGradient>
<linearGradient id="paint11_linear_24_40728" x1="0" y1="20.813" x2="37.9189" y2="20.813" gradientUnits="userSpaceOnUse">
<stop stop-color="#FF7368"/>
<stop offset="1" stop-color="#EF1468"/>
</linearGradient>
<linearGradient id="paint12_linear_24_40728" x1="22.054" y1="20.7328" x2="25.5663" y2="21.1701" gradientUnits="userSpaceOnUse">
<stop stop-color="#7A0D36"/>
<stop offset="1" stop-color="#EF1468"/>
</linearGradient>
<linearGradient id="paint13_linear_24_40728" x1="7.1622" y1="11.729" x2="14.3239" y2="6.68218" gradientUnits="userSpaceOnUse">
<stop stop-color="#FF7368"/>
<stop offset="1" stop-color="#EF1468"/>
</linearGradient>
<linearGradient id="paint14_linear_24_40728" x1="29.2704" y1="11.355" x2="24.7112" y2="5.8529" gradientUnits="userSpaceOnUse">
<stop stop-color="#FF7368"/>
<stop offset="1" stop-color="#EF1468"/>
</linearGradient>
<linearGradient id="paint15_linear_24_40728" x1="17.6216" y1="8.5229" x2="22.1925" y2="44.4179" gradientUnits="userSpaceOnUse">
<stop stop-color="#FF7368"/>
<stop offset="1" stop-color="#EF1468"/>
</linearGradient>
<linearGradient id="paint16_linear_24_40728" x1="17" y1="6.06491" x2="20.8108" y2="6.06491" gradientUnits="userSpaceOnUse">
<stop stop-color="#FF7368"/>
<stop offset="1" stop-color="#EF1468"/>
</linearGradient>
</defs>
</svg>
