<svg width="22" height="18" viewBox="0 0 22 18" fill="none" xmlns="http://www.w3.org/2000/svg">
<path d="M4.12005 10.89C4.04034 10.8996 3.95976 10.8996 3.88005 10.89H3.75005L3.60005 10.81L3.49005 10.75L1.05005 8.75001C0.857766 8.59751 0.73394 8.37487 0.705809 8.13107C0.677679 7.88728 0.747549 7.64229 0.900048 7.45001C1.05255 7.25773 1.27518 7.1339 1.51898 7.10577C1.76278 7.07764 2.00777 7.14751 2.20005 7.30001L2.97005 7.93001C3.177 6.35475 3.84264 4.87513 4.88414 3.67531C5.92564 2.4755 7.29699 1.60847 8.82752 1.18213C10.358 0.755804 11.9802 0.788999 13.492 1.27759C15.0038 1.76618 16.3385 2.68859 17.33 3.93001C17.4131 4.0323 17.4751 4.14999 17.5126 4.27633C17.55 4.40267 17.5621 4.53516 17.5482 4.66619C17.5342 4.79722 17.4945 4.9242 17.4314 5.03984C17.3682 5.15547 17.2828 5.25748 17.18 5.34001C17.0771 5.42252 16.9589 5.48385 16.8322 5.52048C16.7055 5.55711 16.5728 5.56832 16.4417 5.55344C16.3107 5.53857 16.1839 5.49792 16.0686 5.43383C15.9533 5.36974 15.8518 5.28348 15.77 5.18001C15.0246 4.26112 14.028 3.57887 12.9017 3.21636C11.7753 2.85386 10.5679 2.82675 9.42643 3.13835C8.28497 3.44995 7.25877 4.0868 6.47284 4.97131C5.68692 5.85582 5.17521 6.94981 5.00005 8.12001L6.00005 7.31001C6.18624 7.20956 6.40188 7.17791 6.60908 7.22063C6.81629 7.26334 7.00183 7.37769 7.13311 7.54359C7.2644 7.70949 7.33305 7.91634 7.327 8.12781C7.32096 8.33929 7.2406 8.54188 7.10005 8.70001L4.66005 10.7C4.60551 10.7339 4.54871 10.7639 4.49005 10.79C4.39349 10.8305 4.29293 10.8606 4.19005 10.88L4.12005 10.89ZM21 9.30001L18.56 7.30001C18.5021 7.26604 18.442 7.23597 18.38 7.21001L18.08 7.12001H18C17.9203 7.11037 17.8398 7.11037 17.76 7.12001H17.62L17.48 7.20001L17.37 7.26001L14.93 9.26001C14.7457 9.41251 14.6295 9.63198 14.607 9.87015C14.5845 10.1083 14.6575 10.3457 14.81 10.53C14.9625 10.7143 15.182 10.8305 15.4202 10.853C15.6584 10.8755 15.8957 10.8025 16.08 10.65L17.08 9.84001C16.9213 11.0295 16.4157 12.1459 15.6264 13.05C14.8372 13.954 13.7992 14.6055 12.642 14.9234C11.4848 15.2412 10.2596 15.2112 9.1193 14.8372C7.97902 14.4631 6.97414 13.7615 6.23005 12.82C6.14825 12.7165 6.04678 12.6303 5.9315 12.5662C5.81622 12.5021 5.6894 12.4614 5.55835 12.4466C5.42729 12.4317 5.29458 12.4429 5.16787 12.4795C5.04116 12.5162 4.92295 12.5775 4.82005 12.66C4.71732 12.7425 4.63192 12.8445 4.56874 12.9602C4.50557 13.0758 4.46587 13.2028 4.45193 13.3338C4.43799 13.4649 4.45009 13.5973 4.48752 13.7237C4.52495 13.85 4.58698 13.9677 4.67005 14.07C5.66159 15.3114 6.99632 16.2338 8.50813 16.7224C10.0199 17.211 11.642 17.2442 13.1726 16.8179C14.7031 16.3915 16.0745 15.5245 17.116 14.3247C18.1575 13.1249 18.8231 11.6453 19.03 10.07L19.81 10.71C19.997 10.8678 20.239 10.9449 20.4828 10.9242C20.7266 10.9036 20.9522 10.787 21.11 10.6C21.2679 10.413 21.3449 10.171 21.3243 9.92723C21.3037 9.68343 21.187 9.45781 21 9.30001Z" fill="white"/>
</svg>
