<svg width="23" height="23" viewBox="0 0 23 23" fill="none" xmlns="http://www.w3.org/2000/svg">
<path d="M14.5494 22.9459H8.18971C0.27044 22.9459 0.045166 13.7443 0.045166 12.6873C0.045166 11.6302 0.27044 2.44592 8.18971 2.44592H14.5494C22.486 2.44592 22.7113 11.6475 22.7113 12.6873C22.7113 13.727 22.486 22.9459 14.5494 22.9459Z" fill="black" fill-opacity="0.5"/>
<path d="M14.5495 21.4459H8.18984C0.270562 21.4459 0.0452881 12.2443 0.0452881 11.1873C0.0452881 10.1302 0.270562 0.945923 8.18984 0.945923H14.5495C22.4861 0.945923 22.7114 10.1475 22.7114 11.1873C22.7114 12.227 22.4861 21.4459 14.5495 21.4459Z" fill="url(#paint0_linear_717_105993)"/>
<g style="mix-blend-mode:multiply" opacity="0.2">
<path d="M21.4979 10.4941C21.4112 11.9844 20.7701 16.4379 17.5642 17.9629C15.6804 18.7694 13.6524 19.1853 11.6031 19.1853C9.55384 19.1853 7.52588 18.7694 5.642 17.9629C2.28021 16.1433 1.51774 11.9844 1.41377 10.4941C1.41377 10.8754 0.564659 20.4236 8.74386 20.4236H14.1851C22.347 20.4236 21.5325 10.8754 21.4979 10.4941Z" fill="#1B8943"/>
</g>
<g style="mix-blend-mode:overlay" opacity="0.6">
<path d="M1.41377 10.5462C1.51774 9.24649 1.70836 5.12223 4.87954 3.78791C6.95252 3.14281 9.12277 2.86713 11.2912 2.97346C13.5219 2.86061 15.7542 3.16021 17.8762 3.85723C21.2379 5.38216 21.3419 9.24649 21.4459 10.5462C21.4459 10.2169 22.295 1.88174 14.1331 1.88174H8.74386C0.564659 1.86441 1.41377 10.2169 1.41377 10.5462Z" fill="white"/>
</g>
<path fill-rule="evenodd" clip-rule="evenodd" d="M13.0452 5.44592H10.0452V9.94592H5.54517V12.9459H10.0452V17.4459H13.0452V12.9459H17.5452V9.94592H13.0452V5.44592Z" fill="black" fill-opacity="0.5"/>
<path fill-rule="evenodd" clip-rule="evenodd" d="M13.0452 4.94592H10.0452V9.44592H5.54517V12.4459H10.0452V16.9459H13.0452V12.4459H17.5452V9.44592H13.0452V4.94592Z" fill="white"/>
<defs>
<linearGradient id="paint0_linear_717_105993" x1="11.3783" y1="0.512702" x2="11.3783" y2="20.4928" gradientUnits="userSpaceOnUse">
<stop offset="0.12" stop-color="#A9D21D"/>
<stop offset="0.85" stop-color="#2E8501"/>
<stop offset="1" stop-color="#389701"/>
</linearGradient>
</defs>
</svg>
