<svg width="56" height="59" viewBox="0 0 56 59" fill="none" xmlns="http://www.w3.org/2000/svg">
<g style="mix-blend-mode:multiply">
<path d="M12.5254 19.649C13.9516 25.7658 16.602 31.5298 20.3165 36.593L24.4199 41.6138L30.4107 39.234C36.1459 36.6946 41.3117 33.0263 45.6003 28.4477L47.7286 21.8129C46.8211 21.1005 46.1432 20.1367 45.7794 19.0415C45.4156 17.9463 45.382 16.7681 45.6827 15.6537C41.6219 13.3258 37.2335 11.6233 32.6654 10.6036C28.1795 9.18973 23.503 8.47426 18.7995 8.48226C18.5177 9.60084 17.9117 10.6112 17.0577 11.3864C16.2036 12.1616 15.1397 12.6669 13.9996 12.839L12.5254 19.649Z" fill="url(#paint0_linear_24_41325)"/>
</g>
<path d="M50.7055 19.7412L50.3785 19.6536C49.9258 19.4966 49.5094 19.2501 49.154 18.9286C48.7986 18.6072 48.5115 18.2174 48.3099 17.7826C48.1083 17.3478 47.9962 16.8768 47.9803 16.3977C47.9645 15.9186 48.0452 15.4412 48.2177 14.9939C48.2177 14.9939 48.2814 14.7559 48.3053 14.6667C48.358 14.5764 48.3855 14.4737 48.385 14.3693C48.7915 12.8523 42.1101 9.723 33.4589 7.40491C24.8077 5.08682 17.6054 4.49598 17.199 6.01297C17.1642 6.20521 17.1135 6.39424 17.0475 6.57813C16.9812 7.05633 16.8187 7.51615 16.5698 7.92981C16.321 8.34347 15.9909 8.70239 15.5995 8.98488C15.2081 9.26737 14.7636 9.46758 14.2928 9.5734C13.8219 9.67923 13.3346 9.68848 12.8601 9.60059L12.5034 9.505L10.5582 18.548C12.065 25.0939 14.8755 31.2684 18.8216 36.7025L24.1427 43.006L31.5755 40.1199C37.746 37.4035 43.3073 33.4726 47.928 28.5612L50.7353 19.7492L50.7055 19.7412Z" fill="url(#paint1_linear_24_41325)"/>
<path d="M22.4347 49.4984L16.1818 41.7975C11.9785 36.0774 8.98691 29.5587 7.39032 22.6407L7.28582 22.1983L9.63677 12.1163L11.173 10.902L12.352 11.3773C12.8277 11.5048 13.5976 11.0097 13.9005 9.87942C13.9443 9.77478 13.9738 9.66473 13.9882 9.55222L14.0997 9.13579L14.1476 8.95732C15.0209 6.76839 18.4526 6.9228 21.4523 7.02517C25.3966 7.44911 29.2993 8.1963 33.1212 9.2592C36.9233 10.2896 40.6359 11.6256 44.2228 13.254C47.0522 14.586 50.1646 16.4083 49.5031 18.8771C49.4711 19.112 49.4095 19.3419 49.3197 19.5613C49.0647 20.5131 49.5137 21.3348 49.9002 21.4383L51.1589 21.6162L51.8524 23.428L48.8474 33.3347L48.5654 33.6736C43.7237 38.8664 37.8736 43.016 31.3734 45.8681L22.4347 49.4984ZM11.8081 22.3261C13.2344 28.4429 15.8848 34.2069 19.5993 39.2701L23.7382 44.3961L29.729 42.0162C35.4642 39.4769 40.63 35.8085 44.9186 31.2299L48.7594 20.4632C47.8636 19.9742 47.164 19.1908 46.7787 18.2454C46.3935 17.2999 46.3462 16.2504 46.6449 15.2739C42.3892 12.7477 37.7771 10.8778 32.964 9.72716C28.4782 8.31331 23.8016 7.59784 19.0981 7.60584C18.6328 8.66692 17.8778 9.57526 16.9199 10.2265C15.9619 10.8778 14.8398 11.2455 13.6825 11.2875L11.8081 22.3261Z" fill="#F6AE28"/>
<g style="mix-blend-mode:multiply">
<path d="M22.2861 52.7443L16.0251 45.0731C11.8119 39.3489 8.82205 32.8178 7.24165 25.8866L7.12918 25.4739L9.51202 15.273L11.0482 14.0587L12.2273 14.534C12.6435 14.6456 13.4511 14.1287 13.7221 13.1174C13.7632 13.0227 13.79 12.9225 13.8018 12.8199L13.9213 12.3738C14.7946 10.1848 18.2264 10.3392 21.226 10.4416C25.1703 10.8655 29.0731 11.6127 32.895 12.6756C36.7166 13.6568 40.4525 14.9457 44.0661 16.5297C46.8956 17.8617 50.0159 19.6542 49.3464 22.1528C49.3173 22.3777 49.2583 22.5978 49.1711 22.8072C48.9081 23.7888 49.357 24.6105 49.7435 24.714L51.0023 24.8919L51.6958 26.7036L48.7502 36.6263L48.4762 36.9354C43.635 42.1399 37.7819 46.2998 31.2763 49.1597L22.2861 52.7443ZM11.6594 25.572C13.0803 31.6983 15.7281 37.4726 19.4426 42.5458L23.5656 47.7312L29.5564 45.3514C35.2966 42.8034 40.4652 39.1249 44.754 34.5353L48.5216 23.6852C47.6298 23.1919 46.9337 22.4081 46.549 21.4641C46.1644 20.52 46.1142 19.4726 46.407 18.4959C42.1514 15.9697 37.5393 14.0998 32.7261 12.9492C28.2403 11.5353 23.5637 10.8199 18.8602 10.8279C18.4088 11.887 17.6697 12.7984 16.7268 13.4586C15.7839 14.1189 14.675 14.5015 13.5259 14.5632L11.6594 25.572Z" fill="black" fill-opacity="0.5"/>
<path d="M22.4587 49.4092L16.1977 41.738C11.9845 36.0137 8.99465 29.4827 7.41426 22.5515L7.30179 22.1388L9.68462 11.9379L11.2208 10.7236L12.3999 11.1989C12.8161 11.3104 13.6237 10.7936 13.8947 9.78223C13.9358 9.68755 13.9626 9.58732 13.9744 9.48478L14.0939 9.03861C14.9672 6.84968 18.399 7.00408 21.3987 7.10646C25.3429 7.5304 29.2457 8.27758 33.0676 9.34049C36.8892 10.3217 40.6251 11.6106 44.2387 13.1946C47.0682 14.5266 50.1885 16.3191 49.519 18.8177C49.4899 19.0426 49.4309 19.2627 49.3437 19.472C49.0807 20.4536 49.5296 21.2753 49.9161 21.3789L51.1749 21.5567L51.8684 23.3685L48.9228 33.2911L48.6488 33.6003C43.8076 38.8047 37.9545 42.9646 31.4489 45.8245L22.4587 49.4092ZM11.832 22.2368C13.2529 28.3632 15.9007 34.1374 19.6152 39.2106L23.7382 44.3961L29.729 42.0162C35.4692 39.4683 40.6379 35.7898 44.9266 31.2001L48.6942 20.3501C47.8024 19.8568 47.1063 19.073 46.7217 18.1289C46.337 17.1849 46.2869 16.1375 46.5796 15.1608C42.324 12.6346 37.7119 10.7646 32.8987 9.61404C28.4129 8.20019 23.7363 7.48473 19.0328 7.49272C18.5814 8.55184 17.8423 9.46323 16.8994 10.1235C15.9565 10.7837 14.8476 11.1664 13.6985 11.228L11.832 22.2368Z" fill="url(#paint2_linear_24_41325)"/>
<path d="M22.4587 49.4092L16.1977 41.738C11.9845 36.0137 8.99465 29.4827 7.41426 22.5515L7.30179 22.1388L9.68462 11.9379L11.2208 10.7236L12.3999 11.1989C12.8161 11.3104 13.6237 10.7936 13.8947 9.78223C13.9358 9.68755 13.9626 9.58732 13.9744 9.48478L14.0939 9.03861C14.9672 6.84968 18.399 7.00408 21.3987 7.10646C25.3429 7.5304 29.2457 8.27758 33.0676 9.34049C36.8892 10.3217 40.6251 11.6106 44.2387 13.1946C47.0682 14.5266 50.1885 16.3191 49.519 18.8177C49.4899 19.0426 49.4309 19.2627 49.3437 19.472C49.0807 20.4536 49.5296 21.2753 49.9161 21.3789L51.1749 21.5567L51.8684 23.3685L48.9228 33.2911L48.6488 33.6003C43.8076 38.8047 37.9545 42.9646 31.4489 45.8245L22.4587 49.4092ZM11.832 22.2368C13.2529 28.3632 15.9007 34.1374 19.6152 39.2106L23.7382 44.3961L29.729 42.0162C35.4692 39.4683 40.6379 35.7898 44.9266 31.2001L48.6942 20.3501C47.8024 19.8568 47.1063 19.073 46.7217 18.1289C46.337 17.1849 46.2869 16.1375 46.5796 15.1608C42.324 12.6346 37.7119 10.7646 32.8987 9.61404C28.4129 8.20019 23.7363 7.48473 19.0328 7.49272C18.5814 8.55184 17.8423 9.46323 16.8994 10.1235C15.9565 10.7837 14.8476 11.1664 13.6985 11.228L11.832 22.2368Z" fill="url(#paint3_linear_24_41325)"/>
</g>
<path d="M22.4587 49.4091L23.6303 45.0366L32.0912 41.4058L35.828 40.3029C35.828 40.3029 34.6644 44.6457 32.7641 45.3161L22.4587 49.4091Z" fill="url(#paint4_linear_24_41325)"/>
<g style="mix-blend-mode:multiply" opacity="0.5">
<path d="M11.2415 28.0084C14.1127 34.9405 18.1282 41.3403 23.1202 46.9403C23.1202 46.9403 37.8795 42.1598 41.4351 37.2145C42.4521 35.7974 30.7247 43.1757 25.1175 41.8645C19.5103 40.5533 11.2415 28.0084 11.2415 28.0084Z" fill="#FF6700"/>
</g>
<path d="M23.4151 45.84L17.1621 38.139C12.9588 32.419 9.96724 25.9003 8.37065 18.9823L8.26616 18.5398L10.4685 8.41804L12.1453 7.27333L13.3642 7.59993C13.7804 7.71146 14.5881 7.1946 14.8591 6.18327C14.9028 6.07864 14.9323 5.96858 14.9467 5.85608L15.0583 5.43965L15.1061 5.26118C15.9396 3.22097 19.4112 3.22665 22.371 3.47775C26.3153 3.90169 30.218 4.64888 34.0399 5.71178C37.8597 6.70303 41.5929 8.00187 45.2031 9.5956C48.0326 10.9276 51.1449 12.7499 50.4834 15.2187C50.4515 15.4536 50.3899 15.6835 50.3001 15.9028C50.0371 16.8844 50.486 17.7061 50.8725 17.8097L52.0914 18.1363L52.9336 19.9878L49.7879 29.825L49.5059 30.1638C44.6642 35.3567 38.8141 39.5063 32.3139 42.3584L23.4151 45.84ZM12.7884 18.6676C14.2147 24.7845 16.8651 30.5484 20.5796 35.6116L24.675 40.6622L30.6738 38.2526C36.4089 35.7132 41.5748 32.0449 45.8634 27.4663L47.9917 20.8315C47.081 20.1218 46.4007 19.1581 46.0366 18.062C45.6726 16.966 45.641 15.7865 45.9458 14.6723C41.8777 12.3597 37.4917 10.6581 32.9284 9.6222C28.4426 8.20835 23.766 7.49288 19.0625 7.50087C18.7807 8.61946 18.1747 9.62984 17.3207 10.405C16.4667 11.1802 15.4028 11.6856 14.2627 11.8576L12.7884 18.6676Z" fill="url(#paint5_linear_24_41325)"/>
<g style="mix-blend-mode:screen">
<path d="M23.3992 45.8995L17.1462 38.1986C12.9346 32.4834 9.94222 25.963 8.35473 19.0419L8.25024 18.5994L10.4446 8.50737L12.1294 7.33291L13.3483 7.65951C13.7645 7.77104 14.5722 7.25419 14.8431 6.24285C14.8869 6.13822 14.9164 6.02817 14.9308 5.91566L15.0424 5.49923L15.0902 5.32076C15.9237 3.28055 19.3953 3.28624 22.3471 3.56708C26.2993 3.94369 30.2115 4.66129 34.04 5.71187C37.8592 6.71728 41.5857 8.04644 45.1792 9.68493C48.0167 10.9872 51.129 12.8094 50.4675 15.2783C50.4376 15.5136 50.376 15.7437 50.2842 15.9624C50.0211 16.944 50.4701 17.7657 50.8566 17.8692L52.0755 18.1958L52.9177 20.0474L49.772 29.8845L49.49 30.2234C44.6546 35.4235 38.8029 39.5742 32.298 42.4179L23.3992 45.8995ZM12.7725 18.7272C14.1988 24.844 16.8492 30.608 20.5637 35.6712L24.6591 40.7218L30.6579 38.3122C36.393 35.7728 41.5588 32.1045 45.8475 27.5259L47.9678 20.9209C47.0593 20.2026 46.3818 19.2332 46.0195 18.1329C45.6572 17.0326 45.6261 15.85 45.9299 14.7319C41.8618 12.4193 37.4758 10.7177 32.9125 9.68178C28.4267 8.26793 23.7501 7.55246 19.0466 7.56046C18.7657 8.68379 18.1596 9.69925 17.3043 10.4796C16.449 11.2599 15.3826 11.7703 14.2388 11.947L12.7725 18.7272Z" fill="url(#paint6_linear_24_41325)"/>
</g>
<path d="M44.575 27.2802L46.5142 21.2324C45.6825 20.5823 45.0614 19.7007 44.729 18.6984C44.3967 17.6961 44.3678 16.6179 44.646 15.5991C40.9323 13.5056 36.9347 11.962 32.778 11.0163C28.6793 9.72586 24.4085 9.06521 20.1114 9.05689C19.8354 10.0791 19.2613 10.9959 18.4623 11.6904C17.6633 12.3848 16.6756 12.8253 15.6254 12.9558L14.2808 19.1629C15.5637 24.748 17.9689 30.0132 21.3503 34.6383L25.1171 39.2502L30.5743 37.078C35.8531 34.789 40.6154 31.4564 44.575 27.2802Z" fill="url(#paint7_linear_24_41325)"/>
<path opacity="0.7" d="M24.1289 42.9386C20.7439 39.7516 17.6707 36.2487 14.9512 32.4774C15.4977 33.9952 16.2632 35.4248 17.2236 36.7206L23.5376 44.7886L33.0396 40.9585C34.6286 40.3727 36.1182 39.546 37.4563 38.5076C33.1662 40.4092 28.7031 41.893 24.1289 42.9386Z" fill="white"/>
<path opacity="0.7" d="M16.4069 5.16317C16.4069 5.16317 18.4945 2.24756 33.3592 6.23054C48.2239 10.2135 49.6145 14.0611 49.6145 14.0611C44.4759 10.7736 38.7871 8.43934 32.8206 7.17017C20.8695 3.96786 16.4069 5.16317 16.4069 5.16317Z" fill="white"/>
<path opacity="0.3" d="M20.841 10.4958C24.7191 10.2793 28.6041 10.7693 32.3068 11.9421C36.1313 12.8502 39.8293 14.2265 43.317 16.04C43.072 16.9965 43.1295 18.0053 43.4816 18.9276C43.8337 19.8498 44.463 20.6401 45.2829 21.1894L22.0346 14.9601L16.8022 13.5581C16.8022 13.5581 20.6613 11.404 20.841 10.4958Z" fill="url(#paint8_linear_24_41325)"/>
<path d="M33.8295 16.3671L30.4107 15.451C30.312 15.3918 30.1987 15.3614 30.0836 15.3634L24.8046 16.2761C24.7041 16.2781 24.605 16.3005 24.5135 16.342C24.4219 16.3836 24.3398 16.4434 24.2721 16.5177C24.2045 16.5921 24.1527 16.6796 24.12 16.7746C24.0873 16.8697 24.0743 16.9705 24.0818 17.0708L23.9389 20.2205C23.933 20.3384 23.9554 20.4559 24.0043 20.5633C24.0531 20.6706 24.1269 20.7648 24.2196 20.8377C24.2979 20.9208 24.3978 20.9804 24.508 21.01C24.6183 21.0395 24.7346 21.0378 24.8439 21.005L27.5548 20.5199L24.0559 33.578C24.0043 33.7702 24.029 33.9748 24.1249 34.1491C24.2207 34.3234 24.3803 34.4537 24.5702 34.5128L28.6728 35.6121C28.87 35.6649 29.08 35.6373 29.2567 35.5352C29.4335 35.433 29.5625 35.2649 29.6153 35.0677L34.3974 17.2206C34.4241 17.0334 34.381 16.8429 34.2762 16.6854C34.1715 16.528 34.0125 16.4147 33.8295 16.3671Z" fill="url(#paint9_linear_24_41325)"/>
<path d="M34.1164 15.2962L30.6976 14.3801C30.5989 14.3209 30.4856 14.2906 30.3705 14.2925L25.0915 15.2053C24.9876 15.2058 24.8849 15.2281 24.7902 15.271C24.6955 15.3139 24.6109 15.3763 24.5419 15.4541C24.4729 15.5319 24.4212 15.6234 24.39 15.7225C24.3587 15.8217 24.3488 15.9264 24.3608 16.0297L24.2178 19.1794C24.2198 19.2926 24.2467 19.4039 24.2966 19.5054C24.3465 19.6069 24.4182 19.6962 24.5065 19.7669C24.5848 19.8499 24.6847 19.9096 24.7949 19.9391C24.9052 19.9686 25.0215 19.9669 25.1308 19.9342L27.8417 19.4491L24.3349 32.5369C24.2832 32.729 24.3079 32.9337 24.4038 33.108C24.4997 33.2822 24.6593 33.4126 24.8491 33.4717L28.9518 34.571C29.1489 34.6238 29.3589 34.5961 29.5357 34.494C29.7124 34.3919 29.8414 34.2238 29.8943 34.0265L34.6764 16.1795C34.7114 15.9888 34.6732 15.7918 34.5694 15.6281C34.4656 15.4643 34.3038 15.3458 34.1164 15.2962Z" fill="url(#paint10_linear_24_41325)"/>
<path d="M12.1419 8.35614C12.1419 8.35614 14.2426 9.07842 14.9558 7.96243C14.8327 8.28808 14.6346 8.58015 14.3776 8.81499C14.1206 9.04982 13.812 9.22083 13.4767 9.31415C13.1414 9.40748 12.7889 9.42049 12.4477 9.35216C12.1064 9.28382 11.7861 9.13604 11.5127 8.92079L12.1419 8.35614Z" fill="white"/>
<path d="M51.8009 18.9827C51.8009 18.9827 49.6502 18.5659 49.5608 17.2348C49.5046 17.5784 49.5302 17.9304 49.6353 18.2623C49.7404 18.5941 49.9222 18.8965 50.1659 19.145C50.4096 19.3935 50.7084 19.581 51.0381 19.6924C51.3677 19.8039 51.719 19.836 52.0635 19.7864L51.8009 18.9827Z" fill="white"/>
<g style="mix-blend-mode:overlay">
<path d="M33.713 5.62398C38.2913 6.85074 41.4489 10.4067 40.681 13.8672C39.9131 17.3277 35.5587 19.1896 30.9325 18.1413C26.3064 17.093 23.1727 13.4478 23.9247 10.0468C24.6767 6.64581 29.063 4.66493 33.713 5.62398Z" fill="white"/>
</g>
<g style="mix-blend-mode:overlay">
<path d="M25.2401 37.721C26.3828 37.8969 27.4148 38.5038 28.1241 39.4172C28.8334 40.3305 29.1662 41.481 29.0542 42.6324C28.6985 43.7436 27.9194 44.6699 26.8858 45.2106C25.8522 45.7512 24.6474 45.8626 23.5326 45.5205C22.3736 45.3462 21.3287 44.7258 20.6207 43.7917C19.9127 42.8575 19.5975 41.6834 19.7424 40.5199C20.1163 39.4305 20.899 38.5293 21.9251 38.0069C22.9512 37.4845 24.14 37.382 25.2401 37.721Z" fill="white"/>
</g>
<g style="mix-blend-mode:overlay">
<path d="M24.925 39.1349C26.2331 39.4854 26.9244 41.4241 26.4318 43.6194C25.9392 45.8147 24.4799 47.3365 23.1638 47.0157C21.8478 46.695 21.1644 44.7265 21.6273 42.5233C22.0902 40.32 23.5792 38.8062 24.925 39.1349Z" fill="white"/>
</g>
<g style="mix-blend-mode:overlay">
<path d="M24.8282 10.4802C27.4345 10.7977 30.0137 11.3077 32.5447 12.0059C35.2242 12.7182 37.8425 13.6436 40.3745 14.7733C40.3745 14.7733 32.465 12.3033 24.8282 10.4802Z" fill="white"/>
</g>
<defs>
<linearGradient id="paint0_linear_24_41325" x1="26.0081" y1="35.5676" x2="31.4996" y2="15.0733" gradientUnits="userSpaceOnUse">
<stop stop-color="#FFAC1C"/>
<stop offset="0.95" stop-color="#FF6100"/>
</linearGradient>
<linearGradient id="paint1_linear_24_41325" x1="26.638" y1="33.2178" x2="32.5757" y2="11.0577" gradientUnits="userSpaceOnUse">
<stop stop-color="#FFAC1C"/>
<stop offset="0.95" stop-color="#FF6100"/>
</linearGradient>
<linearGradient id="paint2_linear_24_41325" x1="6.54438" y1="23.6574" x2="48.8195" y2="34.985" gradientUnits="userSpaceOnUse">
<stop stop-color="#FFAC1C"/>
<stop offset="1" stop-color="#F9D445"/>
</linearGradient>
<linearGradient id="paint3_linear_24_41325" x1="6.54438" y1="23.6574" x2="48.8195" y2="34.985" gradientUnits="userSpaceOnUse">
<stop stop-color="#FFAC1C"/>
<stop offset="1" stop-color="#F9D445"/>
</linearGradient>
<linearGradient id="paint4_linear_24_41325" x1="33.356" y1="42.988" x2="24.6041" y2="46.505" gradientUnits="userSpaceOnUse">
<stop stop-color="#FF8C00"/>
<stop offset="1" stop-color="#FF6100"/>
</linearGradient>
<linearGradient id="paint5_linear_24_41325" x1="25.3865" y1="37.8879" x2="32.4879" y2="11.3851" gradientUnits="userSpaceOnUse">
<stop stop-color="#FFAC1C"/>
<stop offset="1" stop-color="#F9D445"/>
</linearGradient>
<linearGradient id="paint6_linear_24_41325" x1="25.3706" y1="37.9475" x2="32.472" y2="11.4447" gradientUnits="userSpaceOnUse">
<stop stop-color="#FFAC1C"/>
<stop offset="0.99" stop-color="#F9D477"/>
</linearGradient>
<linearGradient id="paint7_linear_24_41325" x1="13.5626" y1="21.0108" x2="44.3622" y2="29.2636" gradientUnits="userSpaceOnUse">
<stop stop-color="#FFAC1C"/>
<stop offset="1" stop-color="#F9D445"/>
</linearGradient>
<linearGradient id="paint8_linear_24_41325" x1="31.2375" y1="16.884" x2="32.6084" y2="11.7679" gradientUnits="userSpaceOnUse">
<stop stop-color="#FFCD25"/>
<stop offset="0.99" stop-color="white"/>
</linearGradient>
<linearGradient id="paint9_linear_24_41325" x1="38.2844" y1="9.01676" x2="29.6863" y2="21.8226" gradientUnits="userSpaceOnUse">
<stop stop-color="#FFAC1C"/>
<stop offset="0.99" stop-color="#F9D477"/>
</linearGradient>
<linearGradient id="paint10_linear_24_41325" x1="24.6716" y1="34.2531" x2="29.3979" y2="16.6142" gradientUnits="userSpaceOnUse">
<stop stop-color="#FFAC1C"/>
<stop offset="0.95" stop-color="#FF6100"/>
</linearGradient>
</defs>
</svg>
