<svg width="55" height="56" viewBox="0 0 55 56" fill="none" xmlns="http://www.w3.org/2000/svg">
<g style="mix-blend-mode:multiply">
<path d="M11.5254 19.649C12.9516 25.7658 15.602 31.5298 19.3165 36.593L23.4199 41.6138L29.4107 39.234C35.1459 36.6946 40.3117 33.0263 44.6003 28.4477L46.7286 21.8129C45.8211 21.1005 45.1432 20.1367 44.7794 19.0415C44.4156 17.9463 44.382 16.7681 44.6827 15.6537C40.6219 13.3258 36.2335 11.6233 31.6654 10.6036C27.1795 9.18973 22.503 8.47426 17.7995 8.48226C17.5177 9.60084 16.9117 10.6112 16.0577 11.3864C15.2036 12.1616 14.1397 12.6669 12.9996 12.839L11.5254 19.649Z" fill="url(#paint0_linear_24_41327)"/>
</g>
<path d="M49.7055 19.7412L49.3785 19.6536C48.9258 19.4966 48.5094 19.2501 48.154 18.9286C47.7986 18.6072 47.5115 18.2174 47.3099 17.7826C47.1083 17.3478 46.9962 16.8768 46.9803 16.3977C46.9645 15.9186 47.0452 15.4412 47.2177 14.9939C47.2177 14.9939 47.2814 14.7559 47.3053 14.6667C47.358 14.5764 47.3855 14.4737 47.385 14.3693C47.7915 12.8523 41.1101 9.723 32.4589 7.40491C23.8077 5.08682 16.6054 4.49598 16.199 6.01297C16.1642 6.20521 16.1135 6.39424 16.0475 6.57813C15.9812 7.05633 15.8187 7.51615 15.5698 7.92981C15.321 8.34347 14.9909 8.70239 14.5995 8.98488C14.2081 9.26737 13.7636 9.46758 13.2928 9.5734C12.8219 9.67923 12.3346 9.68848 11.8601 9.60059L11.5034 9.505L9.55824 18.548C11.065 25.0939 13.8755 31.2684 17.8216 36.7025L23.1427 43.006L30.5755 40.1199C36.746 37.4035 42.3073 33.4726 46.928 28.5612L49.7353 19.7492L49.7055 19.7412Z" fill="url(#paint1_linear_24_41327)"/>
<path d="M21.4347 49.4984L15.1818 41.7975C10.9785 36.0774 7.98691 29.5587 6.39032 22.6407L6.28582 22.1983L8.63677 12.1163L10.173 10.902L11.352 11.3773C11.8277 11.5048 12.5976 11.0097 12.9005 9.87942C12.9443 9.77478 12.9738 9.66473 12.9882 9.55222L13.0997 9.13579L13.1476 8.95732C14.0209 6.76839 17.4526 6.9228 20.4523 7.02517C24.3966 7.44911 28.2993 8.1963 32.1212 9.2592C35.9233 10.2896 39.6359 11.6256 43.2228 13.254C46.0522 14.586 49.1646 16.4083 48.5031 18.8771C48.4711 19.112 48.4095 19.3419 48.3197 19.5613C48.0647 20.5131 48.5137 21.3348 48.9002 21.4383L50.1589 21.6162L50.8524 23.428L47.8474 33.3347L47.5654 33.6736C42.7237 38.8664 36.8736 43.016 30.3734 45.8681L21.4347 49.4984ZM10.8081 22.3261C12.2344 28.4429 14.8848 34.2069 18.5993 39.2701L22.7382 44.3961L28.729 42.0162C34.4642 39.4769 39.63 35.8085 43.9186 31.2299L47.7594 20.4632C46.8636 19.9742 46.164 19.1908 45.7787 18.2454C45.3935 17.2999 45.3462 16.2504 45.6449 15.2739C41.3892 12.7477 36.7771 10.8778 31.964 9.72716C27.4782 8.31331 22.8016 7.59784 18.0981 7.60584C17.6328 8.66692 16.8778 9.57526 15.9199 10.2265C14.9619 10.8778 13.8398 11.2455 12.6825 11.2875L10.8081 22.3261Z" fill="#F6AE28"/>
<g style="mix-blend-mode:multiply">
<path d="M21.4587 49.4092L15.1977 41.738C10.9845 36.0137 7.99465 29.4827 6.41426 22.5515L6.30179 22.1388L8.68462 11.9379L10.2208 10.7236L11.3999 11.1989C11.8161 11.3104 12.6237 10.7936 12.8947 9.78223C12.9358 9.68755 12.9626 9.58732 12.9744 9.48478L13.0939 9.03861C13.9672 6.84968 17.399 7.00408 20.3987 7.10646C24.3429 7.5304 28.2457 8.27758 32.0676 9.34049C35.8892 10.3217 39.6251 11.6106 43.2387 13.1946C46.0682 14.5266 49.1885 16.3191 48.519 18.8177C48.4899 19.0426 48.4309 19.2627 48.3437 19.472C48.0807 20.4536 48.5296 21.2753 48.9161 21.3789L50.1749 21.5567L50.8684 23.3685L47.9228 33.2911L47.6488 33.6003C42.8076 38.8047 36.9545 42.9646 30.4489 45.8245L21.4587 49.4092ZM10.832 22.2368C12.2529 28.3632 14.9007 34.1374 18.6152 39.2106L22.7382 44.3961L28.729 42.0162C34.4692 39.4683 39.6379 35.7898 43.9266 31.2001L47.6942 20.3501C46.8024 19.8568 46.1063 19.073 45.7217 18.1289C45.337 17.1849 45.2869 16.1375 45.5796 15.1608C41.324 12.6346 36.7119 10.7646 31.8987 9.61404C27.4129 8.20019 22.7363 7.48473 18.0328 7.49272C17.5814 8.55184 16.8423 9.46323 15.8994 10.1235C14.9565 10.7837 13.8476 11.1664 12.6985 11.228L10.832 22.2368Z" fill="url(#paint2_linear_24_41327)"/>
</g>
<path d="M21.4587 49.4091L22.6303 45.0366L31.0912 41.4058L34.828 40.3029C34.828 40.3029 33.6644 44.6457 31.7641 45.3161L21.4587 49.4091Z" fill="url(#paint3_linear_24_41327)"/>
<g style="mix-blend-mode:multiply" opacity="0.5">
<path d="M10.2415 28.0084C13.1127 34.9405 17.1282 41.3403 22.1202 46.9403C22.1202 46.9403 36.8795 42.1598 40.4351 37.2145C41.4521 35.7974 29.7247 43.1757 24.1175 41.8645C18.5103 40.5533 10.2415 28.0084 10.2415 28.0084Z" fill="#FF6700"/>
</g>
<path d="M22.4151 45.84L16.1621 38.139C11.9588 32.419 8.96724 25.9003 7.37065 18.9823L7.26616 18.5398L9.46846 8.41804L11.1453 7.27333L12.3642 7.59993C12.7804 7.71146 13.5881 7.1946 13.8591 6.18327C13.9028 6.07864 13.9323 5.96858 13.9467 5.85608L14.0583 5.43965L14.1061 5.26118C14.9396 3.22097 18.4112 3.22665 21.371 3.47775C25.3153 3.90169 29.218 4.64888 33.0399 5.71178C36.8597 6.70303 40.5929 8.00187 44.2031 9.5956C47.0326 10.9276 50.1449 12.7499 49.4834 15.2187C49.4515 15.4536 49.3899 15.6835 49.3001 15.9028C49.0371 16.8844 49.486 17.7061 49.8725 17.8097L51.0914 18.1363L51.9336 19.9878L48.7879 29.825L48.5059 30.1638C43.6642 35.3567 37.8141 39.5063 31.3139 42.3584L22.4151 45.84ZM11.7884 18.6676C13.2147 24.7845 15.8651 30.5484 19.5796 35.6116L23.675 40.6622L29.6738 38.2526C35.4089 35.7132 40.5748 32.0449 44.8634 27.4663L46.9917 20.8315C46.081 20.1218 45.4007 19.1581 45.0366 18.062C44.6726 16.966 44.641 15.7865 44.9458 14.6723C40.8777 12.3597 36.4917 10.6581 31.9284 9.6222C27.4426 8.20835 22.766 7.49288 18.0625 7.50087C17.7807 8.61946 17.1747 9.62984 16.3207 10.405C15.4667 11.1802 14.4028 11.6856 13.2627 11.8576L11.7884 18.6676Z" fill="url(#paint4_linear_24_41327)"/>
<g style="mix-blend-mode:screen">
<path d="M22.3992 45.8995L16.1462 38.1986C11.9346 32.4834 8.94222 25.963 7.35473 19.0419L7.25024 18.5994L9.44458 8.50737L11.1294 7.33291L12.3483 7.65951C12.7645 7.77104 13.5722 7.25419 13.8431 6.24285C13.8869 6.13822 13.9164 6.02817 13.9308 5.91566L14.0424 5.49923L14.0902 5.32076C14.9237 3.28055 18.3953 3.28624 21.3471 3.56708C25.2993 3.94369 29.2115 4.66129 33.04 5.71187C36.8592 6.71728 40.5857 8.04644 44.1792 9.68493C47.0167 10.9872 50.129 12.8094 49.4675 15.2783C49.4376 15.5136 49.376 15.7437 49.2842 15.9624C49.0211 16.944 49.4701 17.7657 49.8566 17.8692L51.0755 18.1958L51.9177 20.0474L48.772 29.8845L48.49 30.2234C43.6546 35.4235 37.8029 39.5742 31.298 42.4179L22.3992 45.8995ZM11.7725 18.7272C13.1988 24.844 15.8492 30.608 19.5637 35.6712L23.6591 40.7218L29.6579 38.3122C35.393 35.7728 40.5588 32.1045 44.8475 27.5259L46.9678 20.9209C46.0593 20.2026 45.3818 19.2332 45.0195 18.1329C44.6572 17.0326 44.6261 15.85 44.9299 14.7319C40.8618 12.4193 36.4758 10.7177 31.9125 9.68178C27.4267 8.26793 22.7501 7.55246 18.0466 7.56046C17.7657 8.68379 17.1596 9.69925 16.3043 10.4796C15.449 11.2599 14.3826 11.7703 13.2388 11.947L11.7725 18.7272Z" fill="url(#paint5_linear_24_41327)"/>
</g>
<path d="M43.575 27.2802L45.5142 21.2324C44.6825 20.5823 44.0614 19.7007 43.729 18.6984C43.3967 17.6961 43.3678 16.6179 43.646 15.5991C39.9323 13.5056 35.9347 11.962 31.778 11.0163C27.6793 9.72586 23.4085 9.06521 19.1114 9.05689C18.8354 10.0791 18.2613 10.9959 17.4623 11.6904C16.6633 12.3848 15.6756 12.8253 14.6254 12.9558L13.2808 19.1629C14.5637 24.748 16.9689 30.0132 20.3503 34.6383L24.1171 39.2502L29.5743 37.078C34.8531 34.789 39.6154 31.4564 43.575 27.2802Z" fill="url(#paint6_linear_24_41327)"/>
<path opacity="0.7" d="M23.1289 42.9386C19.7439 39.7516 16.6707 36.2487 13.9512 32.4774C14.4977 33.9952 15.2632 35.4248 16.2236 36.7206L22.5376 44.7886L32.0396 40.9585C33.6286 40.3727 35.1182 39.546 36.4563 38.5076C32.1662 40.4092 27.7031 41.893 23.1289 42.9386Z" fill="white"/>
<path opacity="0.7" d="M15.4069 5.16317C15.4069 5.16317 17.4945 2.24756 32.3592 6.23054C47.2239 10.2135 48.6145 14.0611 48.6145 14.0611C43.4759 10.7736 37.7871 8.43934 31.8206 7.17017C19.8695 3.96786 15.4069 5.16317 15.4069 5.16317Z" fill="white"/>
<path opacity="0.3" d="M19.841 10.4958C23.7191 10.2793 27.6041 10.7693 31.3068 11.9421C35.1313 12.8502 38.8293 14.2265 42.317 16.04C42.072 16.9965 42.1295 18.0053 42.4816 18.9276C42.8337 19.8498 43.463 20.6401 44.2829 21.1894L21.0346 14.9601L15.8022 13.5581C15.8022 13.5581 19.6613 11.404 19.841 10.4958Z" fill="url(#paint7_linear_24_41327)"/>
<path d="M32.8295 16.3671L29.4107 15.451C29.312 15.3918 29.1987 15.3614 29.0836 15.3634L23.8046 16.2761C23.7041 16.2781 23.605 16.3005 23.5135 16.342C23.4219 16.3836 23.3398 16.4434 23.2721 16.5177C23.2045 16.5921 23.1527 16.6796 23.12 16.7746C23.0873 16.8697 23.0743 16.9705 23.0818 17.0708L22.9389 20.2205C22.933 20.3384 22.9554 20.4559 23.0043 20.5633C23.0531 20.6706 23.1269 20.7648 23.2196 20.8377C23.2979 20.9208 23.3978 20.9804 23.508 21.01C23.6183 21.0395 23.7346 21.0378 23.8439 21.005L26.5548 20.5199L23.0559 33.578C23.0043 33.7702 23.029 33.9748 23.1249 34.1491C23.2207 34.3234 23.3803 34.4537 23.5702 34.5128L27.6728 35.6121C27.87 35.6649 28.08 35.6373 28.2567 35.5352C28.4335 35.433 28.5625 35.2649 28.6153 35.0677L33.3974 17.2206C33.4241 17.0334 33.381 16.8429 33.2762 16.6854C33.1715 16.528 33.0125 16.4147 32.8295 16.3671Z" fill="url(#paint8_linear_24_41327)"/>
<path d="M33.1164 15.2962L29.6976 14.3801C29.5989 14.3209 29.4856 14.2906 29.3705 14.2925L24.0915 15.2053C23.9876 15.2058 23.8849 15.2281 23.7902 15.271C23.6955 15.3139 23.6109 15.3763 23.5419 15.4541C23.4729 15.5319 23.4212 15.6234 23.39 15.7225C23.3587 15.8217 23.3488 15.9264 23.3608 16.0297L23.2178 19.1794C23.2198 19.2926 23.2467 19.4039 23.2966 19.5054C23.3465 19.6069 23.4182 19.6962 23.5065 19.7669C23.5848 19.8499 23.6847 19.9096 23.7949 19.9391C23.9052 19.9686 24.0215 19.9669 24.1308 19.9342L26.8417 19.4491L23.3349 32.5369C23.2832 32.729 23.3079 32.9337 23.4038 33.108C23.4997 33.2822 23.6593 33.4126 23.8491 33.4717L27.9518 34.571C28.1489 34.6238 28.3589 34.5961 28.5357 34.494C28.7124 34.3919 28.8414 34.2238 28.8943 34.0265L33.6764 16.1795C33.7114 15.9888 33.6732 15.7918 33.5694 15.6281C33.4656 15.4643 33.3038 15.3458 33.1164 15.2962Z" fill="url(#paint9_linear_24_41327)"/>
<path d="M11.1419 8.35614C11.1419 8.35614 13.2426 9.07842 13.9558 7.96243C13.8327 8.28808 13.6346 8.58015 13.3776 8.81499C13.1206 9.04982 12.812 9.22083 12.4767 9.31415C12.1414 9.40748 11.7889 9.42049 11.4477 9.35216C11.1064 9.28382 10.7861 9.13604 10.5127 8.92079L11.1419 8.35614Z" fill="white"/>
<path d="M50.8009 18.9827C50.8009 18.9827 48.6502 18.5659 48.5608 17.2348C48.5046 17.5784 48.5302 17.9304 48.6353 18.2623C48.7404 18.5941 48.9222 18.8965 49.1659 19.145C49.4096 19.3935 49.7084 19.581 50.0381 19.6924C50.3677 19.8039 50.719 19.836 51.0635 19.7864L50.8009 18.9827Z" fill="white"/>
<g style="mix-blend-mode:overlay">
<path d="M32.713 5.62398C37.2913 6.85074 40.4489 10.4067 39.681 13.8672C38.9131 17.3277 34.5587 19.1896 29.9325 18.1413C25.3064 17.093 22.1727 13.4478 22.9247 10.0468C23.6767 6.64581 28.063 4.66493 32.713 5.62398Z" fill="white"/>
</g>
<g style="mix-blend-mode:overlay">
<path d="M24.2401 37.721C25.3828 37.8969 26.4148 38.5038 27.1241 39.4172C27.8334 40.3305 28.1662 41.481 28.0542 42.6324C27.6985 43.7436 26.9194 44.6699 25.8858 45.2106C24.8522 45.7512 23.6474 45.8626 22.5326 45.5205C21.3736 45.3462 20.3287 44.7258 19.6207 43.7917C18.9127 42.8575 18.5975 41.6834 18.7424 40.5199C19.1163 39.4305 19.899 38.5293 20.9251 38.0069C21.9512 37.4845 23.14 37.382 24.2401 37.721Z" fill="white"/>
</g>
<g style="mix-blend-mode:overlay">
<path d="M23.925 39.1349C25.2331 39.4854 25.9244 41.4241 25.4318 43.6194C24.9392 45.8147 23.4799 47.3365 22.1638 47.0157C20.8478 46.695 20.1644 44.7265 20.6273 42.5233C21.0902 40.32 22.5792 38.8062 23.925 39.1349Z" fill="white"/>
</g>
<g style="mix-blend-mode:overlay">
<path d="M23.8282 10.4802C26.4345 10.7977 29.0137 11.3077 31.5447 12.0059C34.2242 12.7182 36.8425 13.6436 39.3745 14.7733C39.3745 14.7733 31.465 12.3033 23.8282 10.4802Z" fill="white"/>
</g>
<defs>
<linearGradient id="paint0_linear_24_41327" x1="25.0081" y1="35.5676" x2="30.4996" y2="15.0733" gradientUnits="userSpaceOnUse">
<stop stop-color="#FFAC1C"/>
<stop offset="0.95" stop-color="#FF6100"/>
</linearGradient>
<linearGradient id="paint1_linear_24_41327" x1="25.638" y1="33.2178" x2="31.5757" y2="11.0577" gradientUnits="userSpaceOnUse">
<stop stop-color="#FFAC1C"/>
<stop offset="0.95" stop-color="#FF6100"/>
</linearGradient>
<linearGradient id="paint2_linear_24_41327" x1="5.54438" y1="23.6574" x2="47.8195" y2="34.985" gradientUnits="userSpaceOnUse">
<stop stop-color="#FFAC1C"/>
<stop offset="1" stop-color="#F9D445"/>
</linearGradient>
<linearGradient id="paint3_linear_24_41327" x1="32.356" y1="42.988" x2="23.6041" y2="46.505" gradientUnits="userSpaceOnUse">
<stop stop-color="#FF8C00"/>
<stop offset="1" stop-color="#FF6100"/>
</linearGradient>
<linearGradient id="paint4_linear_24_41327" x1="24.3865" y1="37.8879" x2="31.4879" y2="11.3851" gradientUnits="userSpaceOnUse">
<stop stop-color="#FFAC1C"/>
<stop offset="1" stop-color="#F9D445"/>
</linearGradient>
<linearGradient id="paint5_linear_24_41327" x1="24.3706" y1="37.9475" x2="31.472" y2="11.4447" gradientUnits="userSpaceOnUse">
<stop stop-color="#FFAC1C"/>
<stop offset="0.99" stop-color="#F9D477"/>
</linearGradient>
<linearGradient id="paint6_linear_24_41327" x1="12.5626" y1="21.0108" x2="43.3622" y2="29.2636" gradientUnits="userSpaceOnUse">
<stop stop-color="#FFAC1C"/>
<stop offset="1" stop-color="#F9D445"/>
</linearGradient>
<linearGradient id="paint7_linear_24_41327" x1="30.2375" y1="16.884" x2="31.6084" y2="11.7679" gradientUnits="userSpaceOnUse">
<stop stop-color="#FFCD25"/>
<stop offset="0.99" stop-color="white"/>
</linearGradient>
<linearGradient id="paint8_linear_24_41327" x1="37.2844" y1="9.01676" x2="28.6863" y2="21.8226" gradientUnits="userSpaceOnUse">
<stop stop-color="#FFAC1C"/>
<stop offset="0.99" stop-color="#F9D477"/>
</linearGradient>
<linearGradient id="paint9_linear_24_41327" x1="23.6716" y1="34.2531" x2="28.3979" y2="16.6142" gradientUnits="userSpaceOnUse">
<stop stop-color="#FFAC1C"/>
<stop offset="0.95" stop-color="#FF6100"/>
</linearGradient>
</defs>
</svg>
