<svg width="38" height="36" viewBox="0 0 38 36" fill="none" xmlns="http://www.w3.org/2000/svg">
<path d="M29.0951 21.854L36.5563 15.4375C37.8116 14.3595 37.1438 12.3022 35.4939 12.1671L25.6866 11.3632C25.3461 11.3356 25.0198 11.2147 24.7434 11.0138C24.467 10.8129 24.2513 10.5398 24.1199 10.2245L20.3237 1.14562C19.6853 -0.381875 17.5233 -0.381875 16.8849 1.14562L13.0886 10.2245C12.9572 10.5398 12.7415 10.8129 12.4652 11.0138C12.1888 11.2147 11.8625 11.3356 11.522 11.3632L1.71367 12.1671C0.0647527 12.3022 -0.603039 14.3595 0.651273 15.4375L5.18286 19.3346C5.60068 19.6946 6.08818 19.9646 6.61498 20.1279C7.14177 20.2911 7.69655 20.3441 8.24471 20.2834L18.3908 19.1721C19.2251 19.081 19.5707 20.21 18.8285 20.6017L9.7213 25.4094C9.21297 25.677 8.76801 26.0507 8.41648 26.5051C8.06496 26.9595 7.81505 27.4841 7.68365 28.0433L6.44598 33.2721C6.06509 34.8818 7.81486 36.1538 9.22779 35.2941L17.6359 30.1799C18.2303 29.8176 18.9774 29.8176 19.5727 30.1799L27.9798 35.2941C29.3937 36.1538 31.1425 34.8828 30.7626 33.2721L28.4968 23.6958C28.4178 23.3635 28.4319 23.0158 28.5374 22.6909C28.6429 22.3661 28.8359 22.0765 29.0951 21.854Z" fill="white" fill-opacity="0.2"/>
</svg>
