<svg width="383" height="44" viewBox="0 0 383 44" fill="none" xmlns="http://www.w3.org/2000/svg">
<g style="mix-blend-mode:multiply" opacity="0.5">
<path d="M382.597 23.2519C382.607 23.128 382.607 23.0034 382.597 22.8795C382.597 22.5485 382.597 22.1968 382.597 21.8659C382.383 20.04 381.943 18.2474 381.288 16.5287C381.163 16.177 381.018 15.8461 380.872 15.5151C379.923 13.2967 378.506 11.3073 376.717 9.68144C376.237 9.28221 375.73 8.91591 375.2 8.58505C372.536 6.79135 369.378 5.86608 366.163 5.93716H17.3944C13.9689 5.86564 10.6155 6.92169 7.85439 8.94147C5.09326 10.9613 3.07878 13.8319 2.12348 17.1079C2.0196 17.4389 1.89494 17.7699 1.81183 18.1216C1.72873 18.4732 1.62484 18.7835 1.54174 19.1145C1.45863 19.4455 1.3963 19.7972 1.33397 20.1282C1.13096 21.1453 0.999056 22.1752 0.939209 23.2105C0.939209 23.6656 0.939209 24.1 0.939209 24.5344C0.939196 26.0276 1.08532 27.5171 1.37552 28.9821C1.37552 29.313 1.50018 29.6647 1.58329 29.9957C1.6664 30.3267 1.85339 31.0093 2.0196 31.5058C2.18581 32.0023 2.24815 32.1885 2.37281 32.5402C3.41043 35.6808 5.43494 38.4059 8.14735 40.3131C10.8598 42.2203 14.1163 43.2085 17.436 43.1317H366.163C368.3 43.1937 370.426 42.8056 372.403 41.9928C374.379 41.18 376.161 39.9609 377.631 38.4151C377.922 38.0842 378.213 37.7532 378.462 37.4222C380.058 35.3656 381.217 33.008 381.87 30.4922L382.119 29.4785C382.467 27.8534 382.642 26.1961 382.639 24.5344C382.639 24.1414 382.639 23.6863 382.597 23.2519ZM374.785 29.6233L374.411 30.637C373.815 32.3427 372.687 33.8143 371.192 34.8375C369.697 35.8608 367.913 36.3822 366.1 36.3258H17.3944C16.0556 36.38 14.7234 36.1111 13.5115 35.542C12.2995 34.9729 11.2438 34.1204 10.4342 33.0573C10.168 32.727 9.93163 32.374 9.72779 32.0023C9.3823 31.4086 9.09028 30.7855 8.85516 30.1405C8.7305 29.7888 8.62662 29.4372 8.54351 29.1062C8.12169 27.632 7.89813 26.1086 7.87865 24.5758C7.87865 24.3689 7.87865 23.9138 7.87865 23.2725C7.97096 22.3028 8.13766 21.3415 8.37729 20.3971C8.4621 20.0537 8.56615 19.7153 8.68895 19.3835C8.82069 18.9463 8.9803 18.5179 9.16681 18.1009L9.70701 17.0872C10.4713 15.7647 11.588 14.6783 12.9337 13.9481C14.2793 13.218 15.8015 12.8725 17.3321 12.9499H366.163C367.427 12.8968 368.687 13.1319 369.847 13.6374C371.006 14.1429 372.034 14.9054 372.853 15.8667C373.113 16.184 373.356 16.5155 373.58 16.8597C374.524 18.4177 375.145 20.1479 375.408 21.9486C375.474 22.2838 375.523 22.6221 375.554 22.9622C375.554 23.1071 375.554 23.2312 375.554 23.3553C375.554 24.0173 375.554 24.4724 375.554 24.6792C375.533 26.3551 375.274 28.0196 374.785 29.6233Z" fill="#1A171D"/>
</g>
<path d="M381.496 19.8385C381.506 19.7977 381.506 19.7552 381.496 19.7144C381.507 19.5974 381.507 19.4797 381.496 19.3627C381.496 19.0317 381.496 18.7007 381.496 18.3697V17.8733C381.496 17.8733 381.496 17.7492 381.496 17.6871C381.359 17.2921 381.2 16.9053 381.018 16.5286C380.79 15.3429 380.457 14.1798 380.021 13.0533C379.875 12.7223 379.751 12.3706 379.605 12.0603C379.46 11.75 379.335 11.4604 379.19 11.1708L378.566 10.0537C377.721 8.63994 376.663 7.36329 375.429 6.26808C375.055 5.93709 374.681 5.64748 374.286 5.35786C373.631 4.88557 372.936 4.47031 372.209 4.11667L371.668 3.88911C370.991 3.61699 370.297 3.38895 369.591 3.20646C368.23 2.88178 366.835 2.72202 365.435 2.73066H17.2698C13.4837 2.56862 9.77496 3.83149 6.88141 6.26808C5.25607 7.70345 3.93513 9.44769 2.99616 11.3984C2.80881 11.7681 2.64234 12.1479 2.49751 12.5361C2.48589 12.6046 2.48589 12.6745 2.49751 12.743L2.37285 13.0326C2.37285 13.2395 2.20664 13.4463 2.14431 13.6532C2.01965 14.0049 1.91576 14.3359 1.81188 14.6668C1.708 14.9978 1.81188 14.6668 1.81188 14.791V14.9978C1.81188 15.2254 1.68722 15.4323 1.64566 15.6598C1.60411 15.8874 1.47945 16.3218 1.41712 16.6734V17.0665C1.25189 17.9339 1.14775 18.8118 1.10547 19.6937V19.8385C1.10547 20.2315 1.10547 20.6246 1.10547 21.0176C1.10671 22.497 1.25283 23.9727 1.54178 25.4239C1.54178 25.7549 1.66644 26.0859 1.74955 26.4168C1.83266 26.7478 2.01965 27.4098 2.16508 27.9063C2.31052 28.4028 2.39363 28.5889 2.51829 28.9406C3.23537 30.996 4.36885 32.8829 5.84847 34.4842C7.32809 36.0855 9.12231 37.3671 11.1199 38.2496C13.0994 39.0472 15.2175 39.4479 17.3529 39.4287H365.311C367.429 39.4931 369.538 39.1097 371.496 38.3039C373.455 37.498 375.221 36.288 376.676 34.7536C376.821 34.5881 376.987 34.4226 377.133 34.2364C377.229 34.1312 377.319 34.0207 377.403 33.9054L377.86 33.3055C379.188 31.4254 380.166 29.3235 380.748 27.0995V26.872V26.6237L380.873 26.0859L380.997 25.4653C381.318 23.9966 381.492 22.4998 381.517 20.997C381.517 20.6453 381.517 20.2315 381.496 19.8385ZM374.016 25.3205C374.016 25.548 373.892 25.7962 373.808 26.0238C373.725 26.2514 373.808 26.2927 373.663 26.4375C373.518 26.5823 373.663 26.603 373.663 26.6858V26.934C373.178 28.363 372.31 29.6329 371.153 30.6064C369.996 31.5799 368.594 32.2199 367.098 32.4573C366.541 32.5429 365.978 32.5844 365.415 32.5815H17.2698C16.4931 32.5823 15.719 32.492 14.9636 32.3125C13.4739 32.0112 12.1074 31.2769 11.0368 30.2025C10.829 29.9956 10.642 29.7681 10.455 29.5405V29.4371L10.1434 29.0027L9.76939 28.3821L9.45773 27.8235C9.29152 27.4512 9.12531 27.0995 8.97987 26.7271V26.541C8.97987 26.541 8.97987 26.3341 8.87598 26.2514C8.83692 26.1036 8.78834 25.9585 8.73055 25.8169C8.73974 25.7206 8.73974 25.6236 8.73055 25.5273C8.73055 25.2377 8.58511 24.9481 8.52278 24.6792C8.16067 23.4792 7.92394 22.2453 7.81637 20.997C7.79426 20.5628 7.79426 20.1278 7.81637 19.6937C7.9287 18.7359 8.11626 17.7883 8.37734 16.8596C8.37734 16.5286 8.56433 16.1977 8.66822 15.8667C8.65651 15.7913 8.65651 15.7145 8.66822 15.6391C8.75592 15.4751 8.85304 15.3162 8.95909 15.1633V14.9978C9.00577 14.87 9.06131 14.7456 9.12531 14.6255C9.23048 14.3783 9.34837 14.1366 9.47851 13.9014C9.47851 13.798 9.5824 13.6946 9.64473 13.6118C9.6807 13.5287 9.7298 13.4519 9.79016 13.3843C9.9579 13.1539 10.1382 12.9329 10.3304 12.7223L10.455 12.5568C10.7841 12.1429 11.1529 11.7618 11.5562 11.419L12.1587 10.9433C13.6569 9.9076 15.4464 9.37164 17.2698 9.41244H365.228C366.588 9.38141 367.937 9.65723 369.175 10.2192C369.795 10.4986 370.369 10.8681 370.879 11.3156C371.225 11.6187 371.551 11.9434 371.855 12.2879C372.118 12.6038 372.361 12.9354 372.583 13.2808C373.193 14.2661 373.661 15.3314 373.975 16.4459C373.975 16.8389 374.182 17.2113 374.266 17.5837V17.7698C374.266 17.9146 374.266 18.0801 374.369 18.2249V18.3284C374.369 18.68 374.369 19.011 374.515 19.342C374.66 19.673 374.515 19.5903 374.515 19.7144C374.515 20.3764 374.515 20.8315 374.515 21.0383C374.522 22.4805 374.355 23.9182 374.016 25.3205Z" fill="#9E4000"/>
<path d="M381.517 18.3699V17.6666V16.5288C381.413 15.4063 381.225 14.2931 380.956 13.1983C380.956 12.8466 380.789 12.5156 380.686 12.1846C380.65 12.009 380.601 11.8362 380.54 11.6674C380.472 11.4992 380.417 11.3264 380.374 11.1503C380.374 11.1503 380.125 10.4676 379.979 10.1366C379.43 8.85385 378.733 7.63898 377.902 6.51648C377.676 6.16852 377.426 5.83672 377.154 5.52352C376.815 5.11807 376.454 4.73134 376.073 4.36507C375.762 4.05477 375.408 3.76516 375.055 3.45486C372.282 1.26863 368.826 0.11942 365.29 0.207059H17.2699C16.4844 0.208467 15.6999 0.263762 14.9221 0.372552C13.5724 0.539972 12.2516 0.887885 10.9953 1.40688L10.5797 1.59306C10.0901 1.80435 9.61771 2.05335 9.16693 2.33778C5.79069 4.47993 3.30444 7.76341 2.16515 11.5847C2.16861 11.6536 2.16861 11.7227 2.16515 11.7916C2.16515 12.1019 1.97816 12.4122 1.89505 12.7225C1.88539 12.7911 1.88539 12.8607 1.89505 12.9293C1.88603 13.0187 1.88603 13.1088 1.89505 13.1983C1.89505 13.4051 1.89505 13.612 1.74961 13.8189C1.76124 13.8873 1.76124 13.9573 1.74961 14.0257C1.74961 14.336 1.62495 14.6463 1.5834 14.9566C1.5834 14.9566 1.5834 14.9566 1.5834 15.0807L1.45874 15.9289C1.45874 16.2599 1.45874 16.6115 1.45874 16.9425V17.2735C1.45874 17.7079 1.45874 18.1217 1.45874 18.5354C1.45874 18.9491 1.45874 19.3422 1.45874 19.7352V19.8593C1.54533 21.4174 1.78895 22.9629 2.18593 24.4725C2.18593 24.8655 2.39369 25.2379 2.51835 25.6102L2.64302 25.9619C2.68909 26.1236 2.74459 26.2824 2.80923 26.4377V26.6239L3.05855 27.2652C3.20399 27.5755 3.32865 27.8858 3.47409 28.1754L3.59875 28.4236C3.66673 28.5725 3.74303 28.7176 3.82729 28.858L4.03506 29.2511L4.13895 29.4166C5.40254 31.7968 7.29131 33.7909 9.60383 35.1863C11.9164 36.5816 14.5659 37.3258 17.2699 37.3395H365.228C368.155 37.3956 371.037 36.6207 373.538 35.1054C374.012 34.812 374.469 34.4944 374.91 34.1538C374.972 34.1315 375.023 34.0874 375.055 34.0297H375.18C375.491 33.7608 375.803 33.4918 376.115 33.1815C377.753 31.5311 379.039 29.568 379.896 27.41L380.021 27.0997C380.033 27.0035 380.033 26.9062 380.021 26.8101C380.029 26.7275 380.029 26.6444 380.021 26.5618V26.3756C380.146 26.0588 380.251 25.734 380.332 25.4034C380.853 23.6677 381.16 21.8756 381.247 20.0662C381.247 20.0662 381.247 20.0662 381.247 19.9421V19.7145C381.247 19.3836 381.247 19.0733 381.247 18.763V18.4733L381.517 18.3699Z" fill="url(#paint0_linear_348_144552)"/>
<g style="mix-blend-mode:multiply" opacity="0.4">
<path d="M377.091 5.37852H375.221H374.266H371.523H371.336C359.514 5.08891 120.427 4.71655 104.699 4.30282C85.0645 3.78565 64.3501 3.22711 47.417 2.70995L33.455 2.25484H33.3511C27.596 2.04798 22.7134 1.8618 19.0151 1.6963L11.0369 1.19982C12.2931 0.680827 13.614 0.332913 14.9637 0.165493C33.2472 0.537852 86.5397 1.05502 98.5902 1.59287H98.7356C99.1304 1.48944 116.396 0.806778 132.269 0H362.049C353.51 0.330986 120.26 0.682659 114.651 1.11708C112.573 1.30326 106.589 1.84111 104.678 1.98592L118.266 2.60651C129.049 3.12368 362.797 3.62016 371.897 3.99252L375.491 4.15801H375.886C376.267 4.52428 376.628 4.91101 376.967 5.31646L377.091 5.37852Z" fill="#C97B3A"/>
<path d="M379.855 10.033C380.021 10.4054 380.166 10.7777 380.291 11.1501H379.252L370.837 11.2949C346.82 11.6672 86.3527 11.9569 56.4757 12.1637H44.6537H44.2382L10.559 12.3706H9.29165H2.66386H1.81201C1.81201 12.0603 1.999 11.75 2.08211 11.4397C1.98869 11.604 1.91212 11.7773 1.85356 11.9569C1.85356 11.7086 1.999 11.4811 2.06133 11.2328H3.1625H9.6033H11.681C32.624 11.088 329.284 10.7157 369.196 10.1157L378.691 9.95026L379.855 10.033Z" fill="#C97B3A"/>
<path d="M381.496 17.6664H381.267H374.224C333.709 17.1285 29.923 15.7218 9.27084 15.1012H8.75142L1.77042 14.7909H1.23022C1.23022 14.4806 1.33411 14.1703 1.39644 13.86C1.40806 13.7916 1.40806 13.7216 1.39644 13.6532H2.08207L8.85531 13.86H9.47861C30.2554 14.4806 333.398 15.9287 373.809 16.4045H380.956H381.309L381.496 17.6664Z" fill="#C97B3A"/>
<path d="M381.122 25.2997L380.997 25.9203L380.873 26.4582H373.663C332.774 26.4582 28.4685 26.0651 11.2446 25.8583H8.5436H2.53911H1.62493L1.37561 24.7205H2.14435H8.25272H10.5382C31.5435 24.9687 334.353 25.4032 374.016 25.3411H381.122V25.2997Z" fill="#C97B3A"/>
<path d="M377.839 33.202L377.382 33.8019C377.298 33.9172 377.208 34.0277 377.112 34.1329L375.034 33.9261L370.837 33.4089C367.305 33.0365 130.836 32.809 122.38 32.6021C119.138 32.6021 116.479 32.4573 115.128 32.3746L110.973 32.6021C94.4764 33.4089 34.7847 36.2016 30.3592 37.2773H30.2553C29.6216 37.8889 29.0762 38.5851 28.6348 39.346H27.2635C27.6947 38.6255 28.1736 37.9344 28.6971 37.2773C29.021 36.8094 29.4661 36.4377 29.9852 36.2016C32.9356 35.4776 67.1341 33.2227 78.1874 32.6642L80.7014 32.5401C88.742 32.2504 109.269 31.9401 110.869 31.6505C98.9226 30.9886 32.6862 30.3266 23.2743 29.7887L16.0856 29.2716L11.4731 29.0026H10.0188L3.91039 28.6303H3.14165H2.49757C2.35213 28.2579 2.20669 27.8649 2.08203 27.4718H2.60145H3.28709L9.33313 27.8442H10.7044L13.4054 28.0097C21.1136 28.4648 86.228 29.0647 97.6344 29.7267C107.69 30.2852 351.099 31.5057 366.848 32.4573L376.052 33.0158L377.839 33.202Z" fill="#C97B3A"/>
</g>
<path d="M24.6249 2.21365C19.8226 1.85771 14.9985 1.91307 10.2058 2.37914C6.52829 3.08249 3.16245 9.30916 2.08206 11.4399C2.0933 11.5084 2.0933 11.5782 2.08206 11.6467C1.98864 11.8111 1.91207 11.9843 1.85352 12.1639C1.85352 11.9157 1.99895 11.6881 2.06128 11.4399C3.20057 7.61859 5.68682 4.33511 9.06306 2.19296C9.51384 1.90853 9.98621 1.65953 10.4759 1.44824L24.6249 2.21365Z" fill="#FFDE55"/>
<path d="M167.133 5.37875H164.328C149.493 5.37875 86.2487 5.04777 79.1431 4.69609L41.5787 2.62743L33.4342 2.17233H33.3303L24.791 1.69653L56.164 2.62743C74.593 3.18597 95.9307 3.86863 104.678 4.2203L108.418 4.44785C112.427 4.75815 149.452 5.1512 161.378 5.33738H161.565H164.266C165.206 5.39626 166.15 5.39626 167.091 5.33738L167.133 5.37875Z" fill="#FFDE55"/>
<path d="M376.011 4.19959H375.595C374.141 4.0341 372.749 3.90998 371.44 3.80655C367.285 3.45488 364.293 3.31007 364.293 3.31007L122.006 2.77222C122.006 2.77222 357.603 2.77222 369.404 3.08252L375.034 3.24801C375.388 3.55831 375.741 3.84792 376.052 4.15822L376.011 4.19959Z" fill="#FFDE55"/>
<g style="mix-blend-mode:overlay" opacity="0.5">
<path d="M380.457 11.6675H99.3589L380.249 11.0469C380.3 11.2593 380.37 11.467 380.457 11.6675Z" fill="#FFDE55"/>
</g>
<g style="mix-blend-mode:overlay" opacity="0.5">
<path d="M0.980872 14.9978L51.697 16.0942C51.697 16.0942 6.11274 15.5357 3.05855 15.6805C1.66651 15.6805 0.814658 17.2113 0.980872 19.1765C0.939319 19.1765 0.939319 15.6391 0.980872 14.9978Z" fill="#FFDE55"/>
</g>
<g style="mix-blend-mode:overlay" opacity="0.5">
<path d="M56.4756 12.1846L9.93557 13.3844H9.60314L2.45593 13.0534H1.68719C1.67816 12.964 1.67816 12.8739 1.68719 12.7845H2.49748H10.3511L44.2796 12.2673H44.6328L59.1765 12.1018L56.4756 12.1846Z" fill="#FFDE55"/>
</g>
<g style="mix-blend-mode:overlay" opacity="0.5">
<path d="M381.496 17.8526H381.309L374.245 17.7699L97.3435 17.1079L374.349 18.225L381.371 18.3698H381.517L381.496 17.8526Z" fill="#FFDE55"/>
</g>
<g style="mix-blend-mode:overlay" opacity="0.5">
<path d="M152.485 33.4089H155.892C159.071 33.4089 162.437 33.7192 165.014 33.9054L167.091 34.0709L152.485 33.4089Z" fill="#FFDE55"/>
</g>
<g style="mix-blend-mode:overlay" opacity="0.5">
<path d="M167.008 34.2571L164.93 34.1537L152.464 33.4917L167.008 34.2571Z" fill="#FFDE55"/>
</g>
<g style="mix-blend-mode:overlay" opacity="0.5">
<path d="M310.177 32.6643C314.852 32.8298 335.941 33.1608 342.485 33.4918C331.162 33.4918 94.3102 34.2985 80.7014 34.5468C80.7014 34.5468 298.771 33.1194 303.944 32.6643H304.713C305.129 32.6643 307.144 32.6643 310.073 32.6643H310.177Z" fill="#FFDE55"/>
</g>
<g style="mix-blend-mode:overlay" opacity="0.5">
<path d="M2.49756 28.9614L16.5219 29.9751L65.7629 30.8232C65.7629 30.8232 16.4596 30.9267 11.0368 30.2233C8.28592 29.8087 5.50831 29.5943 2.7261 29.582L2.49756 28.9614Z" fill="#FFDE55"/>
</g>
<g style="mix-blend-mode:overlay" opacity="0.5">
<path d="M170.81 26.7065H170.083L163.58 26.6859L95.7644 26.3962L170.81 26.7065Z" fill="#FFDE55"/>
</g>
<g style="mix-blend-mode:overlay" opacity="0.5">
<path d="M95.3489 26.3962H95.7644C99.6497 26.3962 143.696 26.7272 163.476 26.9341H169.979H170.727L95.3489 26.3962Z" fill="#FFDE55"/>
</g>
<g style="mix-blend-mode:overlay" opacity="0.5">
<path d="M1.625 26.1067L14.0911 26.3549L63.1451 26.2515C63.1451 26.2515 14.9637 27.2445 9.60328 26.7893C6.97463 26.5002 4.32488 26.4518 1.68733 26.6445L1.625 26.1067Z" fill="#FFDE55"/>
</g>
<g style="mix-blend-mode:multiply">
<path d="M341.501 31.7333H26.2251C17.3327 31.7333 17.0002 20.2316 17.0002 18.9283C17.0002 17.6251 17.2703 6.12329 26.1628 6.12329H341.501C350.394 6.12329 351.889 14.6876 351.889 18.9283C351.869 22.7553 350.394 31.7333 341.501 31.7333Z" fill="#9E4000"/>
</g>
<g style="mix-blend-mode:multiply">
<path d="M375.741 20.7695V15.7013H369.362V9.32983H364.272V15.7013H357.873V20.7695H364.272V27.1203H369.362V20.7695H375.741Z" fill="#9E4000"/>
</g>
<path d="M364.168 20.7695H357.769V21.99H364.168V20.7695Z" fill="#FFDE55"/>
<path d="M375.637 16.9219V20.7696H369.258V27.1204H364.168V28.3409H369.258V21.9694H375.637V16.9219Z" fill="#FFDE55"/>
<defs>
<linearGradient id="paint0_linear_348_144552" x1="86.2072" y1="-0.28942" x2="86.2072" y2="35.7467" gradientUnits="userSpaceOnUse">
<stop stop-color="#F0CA57"/>
<stop offset="1" stop-color="#D45B1A"/>
</linearGradient>
</defs>
</svg>
