<!-- <svg width="363" height="44" viewBox="0 0 363 44" fill="none" xmlns="http://www.w3.org/2000/svg">
<g style="mix-blend-mode:multiply" opacity="0.5">
<path d="M362.96 23.2519C362.97 23.128 362.97 23.0034 362.96 22.8795C362.96 22.5485 362.96 22.1968 362.96 21.8659C362.757 20.04 362.339 18.2474 361.716 16.5287C361.597 16.177 361.459 15.8461 361.32 15.5151C360.417 13.2967 359.07 11.3073 357.369 9.68144C356.912 9.28221 356.43 8.91591 355.926 8.58505C353.392 6.79135 350.389 5.86608 347.331 5.93716H15.6491C12.3914 5.86564 9.20227 6.92169 6.57641 8.94147C3.95054 10.9613 2.03475 13.8319 1.12626 17.1079C1.02746 17.4389 0.908911 17.7699 0.829875 18.1216C0.75084 18.4732 0.652045 18.7835 0.573009 19.1145C0.493973 19.4455 0.434696 19.7972 0.375419 20.1282C0.182356 21.1453 0.0569155 22.1752 7.69494e-10 23.2105C7.69497e-10 23.6656 7.69494e-10 24.1 7.69494e-10 24.5344C-1.19405e-05 26.0276 0.138957 27.5171 0.414938 28.9821C0.414938 29.313 0.53349 29.6647 0.612526 29.9957C0.691562 30.3267 0.869392 31.0093 1.02746 31.5058C1.18553 32.0023 1.24481 32.1885 1.36337 32.5402C2.35016 35.6808 4.27548 38.4059 6.85501 40.3131C9.43454 42.2203 12.5315 43.2085 15.6886 43.1317H347.331C349.364 43.1937 351.386 42.8056 353.266 41.9928C355.145 41.18 356.84 39.9609 358.238 38.4151C358.515 38.0842 358.791 37.7532 359.028 37.4222C360.545 35.3656 361.648 33.008 362.269 30.4922L362.506 29.4785C362.837 27.8534 363.003 26.1961 363 24.5344C363 24.1414 363 23.6863 362.96 23.2519ZM355.531 29.6233L355.175 30.637C354.608 32.3427 353.536 33.8143 352.114 34.8375C350.693 35.8608 348.996 36.3822 347.272 36.3258H15.6491C14.3758 36.38 13.1089 36.1111 11.9563 35.542C10.8038 34.9729 9.79974 34.1204 9.02983 33.0573C8.77669 32.727 8.55189 32.374 8.35803 32.0023C8.02947 31.4086 7.75176 30.7855 7.52815 30.1405C7.4096 29.7888 7.3108 29.4372 7.23177 29.1062C6.83062 27.632 6.618 26.1086 6.59948 24.5758C6.59948 24.3689 6.59948 23.9138 6.59948 23.2725C6.68726 22.3028 6.8458 21.3415 7.0737 20.3971C7.15434 20.0537 7.2533 19.7153 7.37008 19.3835C7.49537 18.9463 7.64716 18.5179 7.82454 18.1009L8.33827 17.0872C9.06511 15.7647 10.1271 14.6783 11.4068 13.9481C12.6866 13.218 14.1342 12.8725 15.5898 12.9499H347.331C348.534 12.8968 349.732 13.1319 350.835 13.6374C351.937 14.1429 352.915 14.9054 353.694 15.8667C353.941 16.184 354.172 16.5155 354.385 16.8597C355.283 18.4177 355.874 20.1479 356.124 21.9486C356.187 22.2838 356.233 22.6221 356.262 22.9622C356.262 23.1071 356.262 23.2312 356.262 23.3553C356.262 24.0173 356.262 24.4724 356.262 24.6792C356.242 26.3551 355.996 28.0196 355.531 29.6233Z" fill="#58129B"/>
</g>
<path d="M361.913 19.8385C361.922 19.7977 361.922 19.7552 361.913 19.7144C361.924 19.5974 361.924 19.4797 361.913 19.3627C361.913 19.0317 361.913 18.7007 361.913 18.3697V17.8733C361.913 17.8733 361.913 17.7492 361.913 17.6871C361.783 17.2921 361.631 16.9053 361.459 16.5286C361.242 15.3429 360.925 14.1798 360.51 13.0533C360.372 12.7223 360.253 12.3706 360.115 12.0603C359.977 11.75 359.858 11.4604 359.72 11.1708L359.127 10.0537C358.323 8.63994 357.317 7.36329 356.144 6.26808C355.788 5.93709 355.432 5.64748 355.057 5.35786C354.433 4.88557 353.772 4.47031 353.081 4.11667L352.567 3.88911C351.923 3.61699 351.263 3.38895 350.591 3.20646C349.297 2.88178 347.97 2.72202 346.64 2.73066H15.5305C11.9299 2.56862 8.40286 3.83149 5.65106 6.26808C4.10535 7.70345 2.84912 9.44769 1.95614 11.3984C1.77798 11.7681 1.61966 12.1479 1.48193 12.5361C1.47088 12.6046 1.47088 12.6745 1.48193 12.743L1.36338 13.0326C1.36338 13.2395 1.2053 13.4463 1.14603 13.6532C1.02747 14.0049 0.92868 14.3359 0.829885 14.6668C0.73109 14.9978 0.829885 14.6668 0.829885 14.791V14.9978C0.829885 15.2254 0.71133 15.4322 0.671812 15.6598C0.632294 15.8874 0.513741 16.3218 0.454464 16.6734V17.0665C0.29733 17.9339 0.198295 18.8118 0.158081 19.6937V19.8385C0.158081 20.2315 0.158081 20.6246 0.158081 21.0176C0.159257 22.497 0.298227 23.9728 0.573019 25.4239C0.573019 25.7549 0.691571 26.0859 0.770607 26.4168C0.849643 26.7478 1.02747 27.4098 1.16579 27.9063C1.3041 28.4028 1.38313 28.5889 1.50169 28.9406C2.18363 30.996 3.26159 32.8829 4.66873 34.4842C6.07586 36.0855 7.78218 37.3671 9.68189 38.2496C11.5644 39.0472 13.5788 39.4479 15.6096 39.4287H346.521C348.536 39.4931 350.541 39.1097 352.404 38.3039C354.267 37.498 355.945 36.288 357.329 34.7536C357.468 34.5881 357.626 34.4226 357.764 34.2364C357.855 34.1312 357.941 34.0207 358.021 33.9054L358.455 33.3055C359.718 31.4254 360.648 29.3235 361.202 27.0995V26.872V26.6237L361.32 26.0859L361.439 25.4653C361.744 23.9966 361.91 22.4998 361.933 20.997C361.933 20.6453 361.933 20.2315 361.913 19.8385ZM354.8 25.3205C354.8 25.548 354.681 25.7962 354.602 26.0238C354.523 26.2514 354.602 26.2927 354.464 26.4375C354.326 26.5823 354.464 26.603 354.464 26.6858V26.934C354.003 28.363 353.178 29.6329 352.077 30.6064C350.977 31.5799 349.643 32.2199 348.22 32.4573C347.691 32.5429 347.156 32.5844 346.62 32.5815H15.5305C14.7919 32.5823 14.0557 32.492 13.3373 32.3125C11.9206 32.0112 10.621 31.2769 9.60285 30.2025C9.40526 29.9956 9.22743 29.7681 9.0496 29.5405V29.4371L8.75322 29.0027L8.39755 28.3821L8.10117 27.8235C7.9431 27.4512 7.78503 27.0995 7.64672 26.7271V26.541C7.64672 26.541 7.64671 26.3341 7.54792 26.2514C7.51077 26.1036 7.46457 25.9585 7.40961 25.8169C7.41835 25.7206 7.41835 25.6236 7.40961 25.5273C7.40961 25.2377 7.2713 24.9481 7.21202 24.6792C6.86765 23.4792 6.64252 22.2453 6.54022 20.997C6.51919 20.5628 6.51919 20.1278 6.54022 19.6937C6.64704 18.7359 6.82541 17.7883 7.07371 16.8596C7.07371 16.5286 7.25154 16.1977 7.35033 15.8667C7.3392 15.7913 7.3392 15.7145 7.35033 15.6391C7.43374 15.4751 7.5261 15.3162 7.62696 15.1633V14.9978C7.67135 14.87 7.72417 14.7456 7.78503 14.6255C7.88505 14.3782 7.99717 14.1366 8.12093 13.9014C8.12093 13.798 8.21973 13.6946 8.279 13.6118C8.31322 13.5287 8.35991 13.4519 8.41731 13.3843C8.57683 13.1539 8.74834 12.9329 8.93105 12.7223L9.0496 12.5568C9.36256 12.1429 9.71329 11.7618 10.0968 11.419L10.6698 10.9433C12.0946 9.9076 13.7964 9.37164 15.5305 9.41244H346.442C347.736 9.38141 349.019 9.65723 350.196 10.2192C350.785 10.4986 351.331 10.8681 351.816 11.3156C352.145 11.6187 352.456 11.9434 352.745 12.2879C352.995 12.6038 353.226 12.9354 353.437 13.2808C354.017 14.2661 354.462 15.3314 354.761 16.4459C354.761 16.8389 354.958 17.2113 355.037 17.5837V17.7698C355.037 17.9146 355.037 18.0801 355.136 18.2249V18.3284C355.136 18.68 355.136 19.011 355.274 19.342C355.413 19.673 355.274 19.5903 355.274 19.7144C355.274 20.3764 355.274 20.8315 355.274 21.0383C355.281 22.4805 355.122 23.9182 354.8 25.3205Z" fill="#9E4000"/>
<path d="M361.933 18.3699V17.6666V16.5288C361.834 15.4063 361.656 14.2931 361.4 13.1983C361.4 12.8466 361.242 12.5156 361.143 12.1846C361.109 12.009 361.062 11.8362 361.005 11.6674C360.94 11.4992 360.887 11.3264 360.846 11.1503C360.846 11.1503 360.609 10.4676 360.471 10.1366C359.949 8.85385 359.285 7.63898 358.495 6.51648C358.28 6.16852 358.043 5.83672 357.784 5.52352C357.462 5.11807 357.119 4.73134 356.756 4.36507C356.46 4.05477 356.124 3.76516 355.788 3.45486C353.151 1.26863 349.865 0.11942 346.501 0.207059H15.5307C14.7837 0.208467 14.0377 0.263762 13.2979 0.372552C12.0144 0.539972 10.7582 0.887885 9.56349 1.40688L9.16831 1.59306C8.70263 1.80435 8.2534 2.05335 7.8247 2.33778C4.61387 4.47993 2.24942 7.76341 1.16594 11.5847C1.16924 11.6536 1.16924 11.7227 1.16594 11.7916C1.16594 12.1019 0.988114 12.4122 0.909078 12.7225C0.899886 12.7911 0.899886 12.8607 0.909078 12.9293C0.900495 13.0187 0.900495 13.1088 0.909078 13.1983C0.909078 13.4051 0.909077 13.612 0.770764 13.8189C0.781819 13.8873 0.781819 13.9573 0.770764 14.0257C0.770764 14.336 0.652211 14.6463 0.612693 14.9566C0.612693 14.9566 0.612693 14.9566 0.612693 15.0807L0.494141 15.9289C0.494141 16.2599 0.494141 16.6115 0.494141 16.9425V17.2735C0.494141 17.7079 0.494141 18.1217 0.494141 18.5354C0.494141 18.9491 0.494141 19.3422 0.494141 19.7352V19.8593C0.576488 21.4174 0.808171 22.9629 1.1857 24.4725C1.1857 24.8655 1.38329 25.2379 1.50184 25.6102L1.6204 25.9619C1.66421 26.1236 1.71699 26.2824 1.77847 26.4377V26.6239L2.01558 27.2652C2.15389 27.5755 2.27244 27.8858 2.41076 28.1754L2.52931 28.4236C2.59396 28.5725 2.66653 28.7176 2.74666 28.858L2.94425 29.2511L3.04304 29.4166C4.24473 31.7968 6.04098 33.7909 8.24021 35.1863C10.4394 36.5816 12.9592 37.3258 15.5307 37.3395H346.442C349.226 37.3956 351.967 36.6207 354.346 35.1054C354.796 34.812 355.231 34.4944 355.65 34.1538C355.709 34.1315 355.758 34.0874 355.788 34.0297H355.907C356.203 33.7608 356.499 33.4918 356.796 33.1815C358.354 31.5311 359.577 29.568 360.392 27.41L360.511 27.0997C360.522 27.0035 360.522 26.9062 360.511 26.8101C360.518 26.7275 360.518 26.6444 360.511 26.5618V26.3756C360.63 26.0588 360.729 25.734 360.807 25.4034C361.302 23.6677 361.594 21.8756 361.676 20.0662C361.676 20.0662 361.676 20.0662 361.676 19.9421V19.7145C361.676 19.3836 361.676 19.0733 361.676 18.763V18.4733L361.933 18.3699Z" fill="url(#paint0_linear_414_83328)"/>
<g style="mix-blend-mode:multiply" opacity="0.4">
<path d="M357.724 5.37852H355.946H355.037H352.429H352.251C341.008 5.08891 113.634 4.71655 98.6762 4.30282C80.004 3.78565 60.3043 3.22711 44.2008 2.70995L30.9228 2.25484H30.824C25.3508 2.04798 20.7074 1.8618 17.1903 1.6963L9.60291 1.19982C10.7976 0.680827 12.0538 0.332913 13.3373 0.165493C30.7252 0.537852 81.4069 1.05502 92.867 1.59287H93.0054C93.3808 1.48944 109.8 0.806778 124.896 0H343.419C335.298 0.330986 113.476 0.682659 108.141 1.11708C106.165 1.30326 100.474 1.84111 98.6564 1.98592L111.579 2.60651C121.834 3.12368 344.13 3.62016 352.785 3.99252L356.203 4.15801H356.578C356.941 4.52428 357.284 4.91101 357.606 5.31646L357.724 5.37852Z" fill="#C97B3A"/>
<path d="M360.352 10.033C360.511 10.4054 360.649 10.7777 360.767 11.1501H359.779L351.777 11.2949C328.936 11.6672 81.2292 11.9569 52.8158 12.1637H41.573H41.1778L9.14859 12.3706H7.94329H1.64019H0.830078C0.830078 12.0603 1.00791 11.75 1.08694 11.4397C0.998101 11.604 0.925285 11.7773 0.869595 11.9569C0.869595 11.7086 1.00791 11.4811 1.06719 11.2328H2.11441H8.23968H10.2156C30.1326 11.088 312.259 10.7157 350.216 10.1157L359.246 9.95026L360.352 10.033Z" fill="#C97B3A"/>
<path d="M361.913 17.6664H361.696H354.998C316.468 17.1285 27.5638 15.7218 7.92344 15.1012H7.42947L0.790466 14.7909H0.276733C0.276733 14.4806 0.375528 14.1703 0.434805 13.86C0.445859 13.7916 0.445859 13.7216 0.434805 13.6532H1.08685L7.52826 13.86H8.12103C27.88 14.4806 316.171 15.9287 354.603 16.4045H361.4H361.736L361.913 17.6664Z" fill="#C97B3A"/>
<path d="M361.558 25.2997L361.439 25.9203L361.321 26.4582H354.464C315.579 26.4582 26.1807 26.0651 9.80053 25.8583H7.23187H1.52154H0.652146L0.415039 24.7205H1.14612H6.95525H9.12873C29.105 24.9687 317.08 25.4032 354.8 25.3411H361.558V25.2997Z" fill="#C97B3A"/>
<path d="M358.436 33.202L358.001 33.8019C357.922 33.9172 357.836 34.0277 357.744 34.1329L355.768 33.9261L351.777 33.4089C348.418 33.0365 123.533 32.809 115.491 32.6021C112.409 32.6021 109.88 32.4573 108.595 32.3746L104.643 32.6021C88.9549 33.4089 32.1875 36.2016 27.9788 37.2773H27.88C27.2773 37.8889 26.7587 38.5851 26.3388 39.346H25.0347C25.4448 38.6255 25.9003 37.9344 26.3981 37.2773C26.7061 36.8094 27.1295 36.4377 27.6232 36.2016C30.4289 35.4776 62.9521 33.2227 73.4639 32.6642L75.8547 32.5401C83.5014 32.2504 103.023 31.9401 104.545 31.6505C93.1833 30.9886 30.1918 30.3266 21.241 29.7887L14.4044 29.2716L10.018 29.0026H8.63483L2.8257 28.6303H2.09462H1.48209C1.34378 28.2579 1.20547 27.8649 1.08691 27.4718H1.58089H2.23293L7.98278 27.8442H9.28687L11.8555 28.0097C19.1861 28.4648 81.1106 29.0647 91.9582 29.7267C101.522 30.2852 333.006 31.5057 347.983 32.4573L356.737 33.0158L358.436 33.202Z" fill="#C97B3A"/>
</g>
<path d="M22.5253 2.21365C17.9583 1.85771 13.3705 1.91307 8.8126 2.37914C5.31527 3.08249 2.11432 9.30916 1.08685 11.4399C1.09755 11.5084 1.09755 11.5782 1.08685 11.6467C0.998012 11.8111 0.925197 11.9843 0.869507 12.1639C0.869507 11.9157 1.00782 11.6881 1.0671 11.4399C2.15057 7.61859 4.51502 4.33511 7.72586 2.19296C8.15455 1.90853 8.60378 1.65953 9.06946 1.44824L22.5253 2.21365Z" fill="#FFDE55"/>
<path d="M158.052 5.37875H155.384C141.276 5.37875 81.1303 5.04777 74.3727 4.69609L38.6486 2.62743L30.9031 2.17233H30.8043L22.6833 1.69653L52.5193 2.62743C70.0455 3.18597 90.3379 3.86863 98.6564 4.2203L102.213 4.44785C106.027 4.75815 141.237 5.1512 152.579 5.33738H152.756H155.325C156.22 5.39626 157.117 5.39626 158.012 5.33738L158.052 5.37875Z" fill="#FFDE55"/>
<path d="M356.697 4.19959H356.302C354.919 4.0341 353.595 3.90998 352.35 3.80655C348.398 3.45488 345.553 3.31007 345.553 3.31007L115.135 2.77222C115.135 2.77222 339.191 2.77222 350.414 3.08252L355.768 3.24801C356.104 3.55831 356.44 3.84792 356.736 4.15822L356.697 4.19959Z" fill="#FFDE55"/>
<g style="mix-blend-mode:overlay" opacity="0.5">
<path d="M360.925 11.6675H93.5981L360.728 11.0469C360.776 11.2593 360.843 11.467 360.925 11.6675Z" fill="#FFDE55"/>
</g>
<g style="mix-blend-mode:overlay" opacity="0.5">
<path d="M0.0396482 14.9978L48.2712 16.0942C48.2712 16.0942 4.9201 15.5357 2.01554 15.6805C0.691693 15.6805 -0.118423 17.2113 0.0396482 19.1765C0.000130299 19.1765 0.000130299 15.6391 0.0396482 14.9978Z" fill="#FFDE55"/>
</g>
<g style="mix-blend-mode:overlay" opacity="0.5">
<path d="M52.8157 12.1846L8.55569 13.3844H8.23955L1.44247 13.0534H0.711394C0.70281 12.964 0.70281 12.8739 0.711394 12.7845H1.48199H8.95087L41.2172 12.2673H41.5531L55.3844 12.1018L52.8157 12.1846Z" fill="#FFDE55"/>
</g>
<g style="mix-blend-mode:overlay" opacity="0.5">
<path d="M361.913 17.8526H361.735L355.017 17.7699L91.6815 17.1079L355.116 18.225L361.795 18.3698H361.933L361.913 17.8526Z" fill="#FFDE55"/>
</g>
<g style="mix-blend-mode:overlay" opacity="0.5">
<path d="M144.122 33.4089H147.362C150.385 33.4089 153.586 33.7192 156.036 33.9054L158.012 34.0709L144.122 33.4089Z" fill="#FFDE55"/>
</g>
<g style="mix-blend-mode:overlay" opacity="0.5">
<path d="M157.933 34.2571L155.957 34.1537L144.102 33.4917L157.933 34.2571Z" fill="#FFDE55"/>
</g>
<g style="mix-blend-mode:overlay" opacity="0.5">
<path d="M294.089 32.6643C298.534 32.8298 318.59 33.1608 324.814 33.4918C314.045 33.4918 88.7967 34.2985 75.8546 34.5468C75.8546 34.5468 283.241 33.1194 288.161 32.6643H288.892C289.287 32.6643 291.204 32.6643 293.99 32.6643H294.089Z" fill="#FFDE55"/>
</g>
<g style="mix-blend-mode:overlay" opacity="0.5">
<path d="M1.48193 28.9614L14.8192 29.9751L61.6479 30.8232C61.6479 30.8232 14.7599 30.9267 9.60285 30.2233C6.98673 29.8087 4.34519 29.5943 1.69928 29.582L1.48193 28.9614Z" fill="#FFDE55"/>
</g>
<g style="mix-blend-mode:overlay" opacity="0.5">
<path d="M161.549 26.7065H160.857L154.673 26.6859L90.1797 26.3962L161.549 26.7065Z" fill="#FFDE55"/>
</g>
<g style="mix-blend-mode:overlay" opacity="0.5">
<path d="M89.7845 26.3962H90.1797C93.8746 26.3962 135.764 26.7272 154.574 26.9341H160.759H161.47L89.7845 26.3962Z" fill="#FFDE55"/>
</g>
<g style="mix-blend-mode:overlay" opacity="0.5">
<path d="M0.652222 26.1067L12.5076 26.3549L59.1584 26.2515C59.1584 26.2515 13.3375 27.2445 8.23965 26.7893C5.73977 26.5002 3.21983 26.4518 0.711498 26.6445L0.652222 26.1067Z" fill="#FFDE55"/>
</g>
<g style="mix-blend-mode:multiply">
<path d="M337.192 31.7333H24.0471C15.5903 31.7333 15.2742 20.2316 15.2742 18.9283C15.2742 17.6251 15.531 6.12329 23.9879 6.12329H337.192C345.649 6.12329 347.071 14.6876 347.071 18.9283C347.052 22.7553 345.649 31.7333 337.192 31.7333Z" fill="#9E4000"/>
</g>
<defs>
<linearGradient id="paint0_linear_414_83328" x1="81.0908" y1="-0.28942" x2="81.0908" y2="35.7467" gradientUnits="userSpaceOnUse">
<stop stop-color="#F0CA57"/>
<stop offset="1" stop-color="#D45B1A"/>
</linearGradient>
</defs>
</svg>
 -->
 <svg width="320" height="38" viewBox="0 0 320 38" fill="none" xmlns="http://www.w3.org/2000/svg">
<path d="M319.982 19.1163C319.991 19.0769 319.991 19.036 319.982 18.9967C319.992 18.884 319.992 18.7705 319.982 18.6578C319.982 18.3389 319.982 18.0199 319.982 17.701V17.2226C319.982 17.2226 319.982 17.103 319.982 17.0432C319.867 16.6626 319.733 16.2899 319.581 15.9269C319.389 14.7843 319.109 13.6635 318.742 12.5781C318.62 12.2591 318.515 11.9203 318.393 11.6213C318.27 11.3223 318.166 11.0432 318.043 10.7641L317.519 9.68772C316.808 8.3254 315.918 7.09523 314.881 6.03988C314.567 5.72095 314.252 5.44188 313.92 5.16281C313.369 4.70771 312.785 4.30756 312.173 3.9668L311.719 3.74753C311.15 3.48531 310.566 3.26558 309.972 3.08972C308.828 2.77687 307.655 2.62293 306.478 2.63125H13.7228C10.5392 2.47511 7.42073 3.692 4.98769 6.03988C3.62102 7.423 2.51031 9.10374 1.72077 10.9834C1.56324 11.3397 1.42326 11.7057 1.30148 12.0797C1.29171 12.1457 1.29171 12.2131 1.30148 12.2791L1.19666 12.5581C1.19666 12.7575 1.0569 12.9568 1.00449 13.1561C0.899669 13.495 0.812318 13.814 0.724967 14.1329C0.637617 14.4518 0.724967 14.1329 0.724967 14.2525V14.4518C0.724967 14.6711 0.620145 14.8704 0.585205 15.0897C0.550264 15.309 0.445444 15.7276 0.393033 16.0664V16.4452C0.2541 17.281 0.166537 18.1269 0.130981 18.9767V19.1163C0.130981 19.495 0.130981 19.8737 0.130981 20.2525C0.132021 21.678 0.254894 23.1 0.497855 24.4983C0.497855 24.8173 0.602675 25.1362 0.672556 25.4551C0.742436 25.7741 0.899668 26.4119 1.02196 26.8903C1.14425 27.3687 1.21413 27.5481 1.31895 27.887C1.92191 29.8676 2.875 31.6858 4.11914 33.2288C5.36328 34.7718 6.87195 36.0067 8.5516 36.8571C10.2161 37.6256 11.9971 38.0117 13.7927 37.9933H306.373C308.155 38.0553 309.927 37.6859 311.574 36.9094C313.222 36.1329 314.706 34.9669 315.929 33.4883C316.052 33.3289 316.191 33.1694 316.314 32.99C316.395 32.8886 316.47 32.7822 316.541 32.6711L316.925 32.093C318.042 30.2814 318.864 28.2559 319.354 26.1129V25.8937V25.6545L319.458 25.1362L319.563 24.5382C319.833 23.123 319.979 21.6807 320 20.2325C320 19.8937 320 19.495 319.982 19.1163ZM313.693 24.3986C313.693 24.6179 313.588 24.8571 313.518 25.0764C313.449 25.2957 313.519 25.3355 313.396 25.4751C313.274 25.6146 313.396 25.6345 313.396 25.7143V25.9535C312.989 27.3304 312.259 28.5541 311.286 29.4921C310.313 30.4302 309.134 31.0469 307.876 31.2757C307.407 31.3582 306.934 31.3982 306.461 31.3953H13.7228C13.0697 31.3961 12.4188 31.3091 11.7836 31.1362C10.531 30.8458 9.38195 30.1383 8.48172 29.103C8.30702 28.9036 8.14979 28.6844 7.99256 28.4651V28.3654L7.7305 27.9468L7.41604 27.3488L7.15399 26.8106C7.01423 26.4518 6.87447 26.1129 6.75218 25.7541V25.5747C6.75218 25.5747 6.75217 25.3754 6.66482 25.2957C6.63198 25.1533 6.59113 25.0134 6.54253 24.8771C6.55026 24.7842 6.55026 24.6908 6.54253 24.598C6.54253 24.3189 6.42024 24.0398 6.36783 23.7807C6.06335 22.6245 5.8643 21.4354 5.77385 20.2325C5.75526 19.8142 5.75526 19.3951 5.77385 18.9767C5.8683 18.0538 6.02601 17.1407 6.24554 16.2458C6.24554 15.9269 6.40277 15.608 6.49012 15.289C6.48028 15.2164 6.48028 15.1424 6.49012 15.0698C6.56387 14.9117 6.64553 14.7586 6.7347 14.6113V14.4518C6.77396 14.3287 6.82066 14.2088 6.87447 14.093C6.9629 13.8548 7.06203 13.6219 7.17146 13.3953C7.17146 13.2957 7.25881 13.196 7.31122 13.1163C7.34147 13.0362 7.38276 12.9622 7.43351 12.897C7.57455 12.675 7.72619 12.4621 7.88774 12.2591L7.99256 12.0997C8.26927 11.7008 8.57937 11.3336 8.91848 11.0033L9.42511 10.5449C10.6849 9.54691 12.1895 9.03046 13.7228 9.06978H306.303C307.447 9.03988 308.582 9.30565 309.623 9.84718C310.143 10.1163 310.626 10.4724 311.055 10.9037C311.346 11.1957 311.62 11.5086 311.876 11.8405C312.097 12.1449 312.301 12.4645 312.488 12.7973C313.001 13.7467 313.395 14.7733 313.658 15.8472C313.658 16.2259 313.833 16.5847 313.903 16.9435V17.1229C313.903 17.2625 313.903 17.4219 313.99 17.5615V17.6611C313.99 18 313.99 18.3189 314.112 18.6379C314.235 18.9568 314.112 18.8771 314.112 18.9967C314.112 19.6345 314.112 20.0731 314.112 20.2724C314.118 21.662 313.978 23.0474 313.693 24.3986Z" fill="#9E4000"/>
<path d="M320 17.7011V17.0234V15.9271C319.913 14.8454 319.755 13.7727 319.528 12.7178C319.528 12.3789 319.389 12.06 319.301 11.741C319.271 11.5718 319.23 11.4053 319.179 11.2427C319.122 11.0806 319.075 10.9141 319.039 10.7443C319.039 10.7443 318.83 10.0865 318.707 9.7676C318.245 8.53152 317.659 7.36087 316.96 6.27924C316.77 5.94395 316.56 5.62423 316.331 5.32243C316.047 4.93174 315.743 4.5591 315.423 4.20616C315.161 3.90715 314.864 3.62808 314.567 3.32908C312.235 1.22245 309.329 0.115071 306.356 0.199519H13.7229C13.0624 0.200876 12.4028 0.254158 11.7488 0.358987C10.6139 0.520312 9.50325 0.85556 8.44691 1.35566L8.09751 1.53506C7.68577 1.73866 7.28857 1.97859 6.90953 2.25267C4.07063 4.31683 1.98006 7.48077 1.02208 11.163C1.025 11.2294 1.025 11.2959 1.02208 11.3623C1.02208 11.6613 0.864855 11.9603 0.794974 12.2593C0.786847 12.3254 0.786847 12.3925 0.794974 12.4586C0.787385 12.5448 0.787385 12.6316 0.794974 12.7178C0.794974 12.9171 0.794973 13.1164 0.672682 13.3158C0.682456 13.3817 0.682456 13.4491 0.672682 13.5151C0.672682 13.8141 0.567861 14.1131 0.532921 14.4121C0.532921 14.4121 0.532921 14.4121 0.532921 14.5317L0.428101 15.349C0.428101 15.6679 0.428101 16.0068 0.428101 16.3257V16.6447C0.428101 17.0633 0.428101 17.4619 0.428101 17.8606C0.428101 18.2593 0.428101 18.638 0.428101 19.0168V19.1364C0.500909 20.6377 0.705756 22.1269 1.03956 23.5815C1.03956 23.9603 1.21426 24.3191 1.31908 24.6779L1.4239 25.0167C1.46264 25.1725 1.5093 25.3256 1.56366 25.4752V25.6546L1.7733 26.2726C1.89559 26.5716 2.00041 26.8706 2.12271 27.1496L2.22753 27.3888C2.28469 27.5323 2.34885 27.6721 2.4197 27.8074L2.5944 28.1862L2.68175 28.3456C3.74425 30.6392 5.33242 32.5608 7.27691 33.9053C9.22139 35.2498 11.4493 35.9669 13.7229 35.9802H306.303C308.765 36.0342 311.189 35.2875 313.292 33.8274C313.69 33.5447 314.074 33.2386 314.445 32.9104C314.497 32.8889 314.54 32.8464 314.567 32.7908H314.672C314.934 32.5317 315.196 32.2725 315.458 31.9735C316.835 30.3832 317.917 28.4915 318.637 26.4121L318.742 26.1131C318.752 26.0204 318.752 25.9267 318.742 25.834C318.749 25.7545 318.749 25.6744 318.742 25.5948V25.4154C318.848 25.1102 318.935 24.7972 319.004 24.4785C319.442 22.8061 319.7 21.0792 319.773 19.3357C319.773 19.3357 319.773 19.3357 319.773 19.2161V18.9968C319.773 18.6779 319.773 18.3789 319.773 18.0799V17.8008L320 17.7011Z" fill="url(#paint0_linear_414_83328)"/>
<g style="mix-blend-mode:multiply" opacity="0.4">
<path d="M316.279 5.18271H314.707H313.903H311.597H311.44C301.499 4.90364 100.462 4.54484 87.2375 4.14617C70.7282 3.64783 53.3104 3.10963 39.0722 2.61129L27.3322 2.17275H27.2449C22.4057 1.97342 18.3002 1.79402 15.1905 1.63455L8.48193 1.15614C9.53827 0.656041 10.6489 0.320793 11.7838 0.159468C27.1575 0.518271 71.9685 1.01661 82.1012 1.53488H82.2235C82.5555 1.43521 97.0732 0.777407 110.42 0H303.631C296.45 0.318936 100.323 0.657806 95.6057 1.07641C93.8587 1.25581 88.8272 1.77408 87.22 1.91362L98.6455 2.51162C107.712 3.00996 304.26 3.48836 311.911 3.84717L314.934 4.00664H315.266C315.586 4.35958 315.889 4.73222 316.174 5.12291L316.279 5.18271Z" fill="#C97B3A"/>
<path d="M318.602 9.66775C318.742 10.0265 318.865 10.3854 318.969 10.7442H318.096L311.02 10.8837C290.825 11.2425 71.8112 11.5216 46.6891 11.7209H36.7486H36.3992L8.08004 11.9202H7.01436H1.44137H0.725098C0.725098 11.6212 0.882328 11.3222 0.952208 11.0232C0.873657 11.1816 0.809276 11.3485 0.760037 11.5216C0.760037 11.2824 0.882329 11.0631 0.934739 10.8239H1.86066H7.27641H9.02343C26.6334 10.6844 276.08 10.3256 309.64 9.74748L317.624 9.58801L318.602 9.66775Z" fill="#C97B3A"/>
<path d="M319.983 17.0232H319.79H313.868C279.801 16.5049 24.3621 15.1495 6.9968 14.5515H6.56004L0.690065 14.2525H0.23584C0.23584 13.9535 0.323191 13.6545 0.375601 13.3554C0.385375 13.2895 0.385375 13.2221 0.375601 13.1561H0.952117L6.64739 13.3554H7.1715C24.6417 13.9535 279.539 15.3488 313.519 15.8073H319.528H319.825L319.983 17.0232Z" fill="#C97B3A"/>
<path d="M319.668 24.3787L319.563 24.9767L319.458 25.495H313.396C279.015 25.495 23.1391 25.1162 8.65636 24.9169H6.38524H1.33636H0.567674L0.358032 23.8205H1.00443H6.14066H8.06238C25.7247 24.0597 280.343 24.4783 313.693 24.4185H319.668V24.3787Z" fill="#C97B3A"/>
<path d="M316.908 31.9933L316.523 32.5714C316.453 32.6824 316.377 32.7889 316.296 32.8903L314.549 32.691L311.02 32.1926C308.05 31.8338 109.215 31.6145 102.104 31.4152C99.379 31.4152 97.1428 31.2757 96.0072 31.1959L92.5132 31.4152C78.6419 32.1926 28.4501 34.8836 24.7289 35.9202H24.6416C24.1087 36.5095 23.6501 37.1803 23.2789 37.9135H22.1259C22.4884 37.2193 22.8912 36.5534 23.3313 35.9202C23.6036 35.4693 23.978 35.1111 24.4145 34.8836C26.8952 34.186 55.6511 32.0132 64.9453 31.475L67.0591 31.3554C73.8201 31.0763 91.0806 30.7773 92.4258 30.4983C82.3805 29.8604 26.6856 29.2225 18.7716 28.7042L12.7269 28.2059L8.84854 27.9468H7.62563L2.4894 27.588H1.84301H1.30143C1.17914 27.2292 1.05685 26.8504 0.952026 26.4717H1.38878H1.9653L7.04912 26.8305H8.20215L10.4733 26.99C16.9547 27.4285 71.7062 28.0066 81.2973 28.6444C89.7529 29.1827 294.424 30.3587 307.666 31.2757L315.405 31.8139L316.908 31.9933Z" fill="#C97B3A"/>
</g>
<path d="M19.9072 2.13306C15.8692 1.79008 11.8129 1.84343 7.7829 2.29253C4.69068 2.97027 1.86051 8.97026 0.952059 11.0234C0.961513 11.0894 0.961513 11.1567 0.952059 11.2227C0.873508 11.3811 0.809127 11.548 0.759888 11.7211C0.759888 11.4819 0.88218 11.2626 0.93459 11.0234C1.89256 7.34123 3.98313 4.17729 6.82204 2.11313C7.20107 1.83905 7.59827 1.59912 8.01001 1.39552L19.9072 2.13306Z" fill="#FFDE55"/>
<path d="M139.735 5.18295H137.377C124.903 5.18295 71.7238 4.86401 65.749 4.52514L34.1629 2.53179L27.3146 2.09325H27.2272L20.047 1.63478L46.427 2.53179C61.923 3.06999 79.8649 3.7278 87.2198 4.06667L90.3644 4.28594C93.7362 4.58494 124.868 4.96368 134.896 5.14308H135.053H137.324C138.115 5.19982 138.909 5.19982 139.7 5.14308L139.735 5.18295Z" fill="#FFDE55"/>
<path d="M315.37 4.04671H315.021C313.798 3.88724 312.628 3.76764 311.527 3.66797C308.033 3.3291 305.517 3.18957 305.517 3.18957L101.79 2.6713C101.79 2.6713 299.892 2.67129 309.815 2.9703L314.549 3.12977C314.846 3.42877 315.143 3.70784 315.405 4.00684L315.37 4.04671Z" fill="#FFDE55"/>
<g style="mix-blend-mode:overlay" opacity="0.5">
<path d="M319.109 11.2427H82.7474L318.934 10.6447C318.977 10.8494 319.036 11.0495 319.109 11.2427Z" fill="#FFDE55"/>
</g>
<g style="mix-blend-mode:overlay" opacity="0.5">
<path d="M0.0262053 14.4518L42.6709 15.5083C42.6709 15.5083 4.34134 14.9701 1.77322 15.1096C0.602721 15.1096 -0.113556 16.5847 0.0262053 18.4784C-0.00873509 18.4784 -0.00873509 15.0697 0.0262053 14.4518Z" fill="#FFDE55"/>
</g>
<g style="mix-blend-mode:overlay" opacity="0.5">
<path d="M46.689 11.741L7.55585 12.8971H7.27633L1.26659 12.5782H0.620194C0.612605 12.492 0.612605 12.4052 0.620194 12.319H1.30153H7.90526L36.434 11.8207H36.731L48.9602 11.6612L46.689 11.741Z" fill="#FFDE55"/>
</g>
<g style="mix-blend-mode:overlay" opacity="0.5">
<path d="M319.982 17.2027H319.825L313.885 17.123L81.0527 16.4851L313.973 17.5615L319.878 17.701H320L319.982 17.2027Z" fill="#FFDE55"/>
</g>
<g style="mix-blend-mode:overlay" opacity="0.5">
<path d="M127.419 32.1927H130.284C132.957 32.1927 135.787 32.4917 137.953 32.6711L139.7 32.8305L127.419 32.1927Z" fill="#FFDE55"/>
</g>
<g style="mix-blend-mode:overlay" opacity="0.5">
<path d="M139.63 33.01L137.883 32.9103L127.401 32.2724L139.63 33.01Z" fill="#FFDE55"/>
</g>
<g style="mix-blend-mode:overlay" opacity="0.5">
<path d="M260.014 31.4751C263.945 31.6346 281.677 31.9536 287.18 32.2725C277.659 32.2725 78.5022 33.0499 67.0592 33.2891C67.0592 33.2891 250.423 31.9137 254.773 31.4751H255.42C255.769 31.4751 257.464 31.4751 259.927 31.4751H260.014Z" fill="#FFDE55"/>
</g>
<g style="mix-blend-mode:overlay" opacity="0.5">
<path d="M1.30164 27.9071L13.094 28.8838L54.4983 29.7011C54.4983 29.7011 13.0416 29.8008 8.48187 29.123C6.16878 28.7235 3.83323 28.5169 1.49381 28.5051L1.30164 27.9071Z" fill="#FFDE55"/>
</g>
<g style="mix-blend-mode:overlay" opacity="0.5">
<path d="M142.827 25.7343H142.216L136.748 25.7143L79.725 25.4353L142.827 25.7343Z" fill="#FFDE55"/>
</g>
<g style="mix-blend-mode:overlay" opacity="0.5">
<path d="M79.3757 25.4353H79.7251C82.9921 25.4353 120.029 25.7542 136.66 25.9535H142.129H142.758L79.3757 25.4353Z" fill="#FFDE55"/>
</g>
<g style="mix-blend-mode:overlay" opacity="0.5">
<path d="M0.567871 25.1563L11.05 25.3955L52.297 25.2958C52.297 25.2958 11.7837 26.2526 7.27642 25.8141C5.06611 25.5355 2.83807 25.4888 0.620281 25.6745L0.567871 25.1563Z" fill="#FFDE55"/>
</g>
<g style="mix-blend-mode:multiply">
<path d="M298.125 30.5781H21.2529C13.7756 30.5781 13.4961 19.495 13.4961 18.2392C13.4961 16.9834 13.7232 5.90036 21.2004 5.90036H298.125C305.602 5.90036 306.86 14.1528 306.86 18.2392C306.842 21.9269 305.602 30.5781 298.125 30.5781Z" fill="#9E4000"/>
</g>
<defs>
<linearGradient id="paint0_linear_414_83328" x1="71.6889" y1="-0.278885" x2="71.6889" y2="34.4453" gradientUnits="userSpaceOnUse">
<stop stop-color="#F0CA57"/>
<stop offset="1" stop-color="#D45B1A"/>
</linearGradient>
</defs>
</svg>

