<svg width="26" height="180" viewBox="0 0 26 180" fill="none" xmlns="http://www.w3.org/2000/svg">
<path d="M13.5934 179.199C13.6217 179.206 13.6512 179.206 13.6795 179.199C13.7606 179.207 13.8423 179.207 13.9234 179.199C14.153 179.199 14.3826 179.199 14.6122 179.199L14.9566 179.199C14.9566 179.199 15.0427 179.199 15.0857 179.199C15.3597 179.104 15.628 178.993 15.8893 178.868C16.7118 178.71 17.5185 178.478 18.2999 178.176C18.5295 178.075 18.7734 177.988 18.9887 177.888C19.2039 177.787 19.4048 177.7 19.6057 177.599L20.3805 177.167C21.3612 176.58 22.2467 175.846 23.0064 174.991C23.236 174.731 23.4369 174.472 23.6378 174.198C23.9654 173.743 24.2534 173.261 24.4987 172.757L24.6565 172.382C24.8453 171.913 25.0035 171.431 25.1301 170.941C25.3553 169.997 25.4661 169.029 25.4601 168.059L25.4601 13.4536C25.5725 10.8273 24.6965 8.25485 23.0064 6.24776C22.0108 5.12036 20.8009 4.2041 19.4478 3.55279C19.1914 3.42284 18.9279 3.30737 18.6586 3.20691C18.6111 3.19885 18.5626 3.19885 18.5152 3.20691L18.3143 3.12044C18.1708 3.12044 18.0273 3.00515 17.8838 2.96191C17.6399 2.87544 17.4103 2.80339 17.1807 2.73133C16.9511 2.65927 17.1807 2.73133 17.0946 2.73133L16.9511 2.73133C16.7933 2.73133 16.6498 2.64486 16.4919 2.61603C16.3341 2.58721 16.0328 2.50074 15.7888 2.45751L15.5162 2.45751C14.9145 2.3429 14.3056 2.27066 13.6939 2.24133L13.5934 2.24133C13.3208 2.24133 13.0482 2.24133 12.7755 2.24133C11.7494 2.24219 10.7257 2.34355 9.71916 2.54398C9.48958 2.54398 9.25999 2.63045 9.03041 2.68809C8.80082 2.74574 8.34165 2.87544 7.99727 2.97632C7.65289 3.0772 7.52375 3.13485 7.27982 3.22132C5.8541 3.71871 4.5453 4.50495 3.43457 5.53127C2.32384 6.5576 1.43486 7.80214 0.822733 9.18773C0.269502 10.5608 -0.00843854 12.03 0.00483845 13.5112L0.0048317 167.972C-0.0398175 169.442 0.226101 170.904 0.785067 172.263C1.34403 173.622 2.18335 174.846 3.24772 175.856C3.36251 175.956 3.47731 176.072 3.60645 176.173C3.67941 176.239 3.75606 176.302 3.83603 176.36L4.25216 176.677C5.55626 177.598 7.01425 178.276 8.55688 178.68L8.71472 178.68L8.88691 178.68L9.25999 178.767L9.69046 178.853C10.7092 179.076 11.7474 179.196 12.7899 179.213C13.0338 179.213 13.3208 179.213 13.5934 179.199ZM9.7909 174.011C9.63306 174.011 9.46087 173.924 9.30303 173.867C9.14519 173.809 9.1165 173.867 9.01605 173.766C8.91561 173.665 8.90126 173.766 8.84386 173.766L8.67167 173.766C7.68046 173.43 6.79961 172.828 6.12436 172.025C5.44912 171.222 5.00515 170.249 4.84047 169.212C4.7811 168.826 4.75231 168.435 4.75437 168.044L4.75438 13.4536C4.7538 12.9148 4.81642 12.3779 4.94092 11.8539C5.14993 10.8206 5.65925 9.87271 6.40453 9.13009C6.54802 8.98597 6.70586 8.85626 6.8637 8.72656L6.93544 8.72656L7.23677 8.51039L7.66725 8.25098L8.05467 8.0348C8.31295 7.91951 8.55689 7.80422 8.81517 7.70334L8.94431 7.70334C8.94431 7.70334 9.08781 7.70333 9.1452 7.63128C9.2477 7.60418 9.34835 7.57049 9.44653 7.5304C9.51334 7.53677 9.58061 7.53677 9.64742 7.5304C9.84831 7.5304 10.0492 7.42952 10.2357 7.38628C11.0681 7.13511 11.924 6.97091 12.7899 6.89629C13.091 6.88095 13.3927 6.88095 13.6939 6.89629C14.3583 6.9742 15.0155 7.1043 15.6597 7.2854C15.8893 7.2854 16.1189 7.4151 16.3484 7.48716C16.4007 7.47904 16.454 7.47904 16.5063 7.48716C16.6201 7.548 16.7302 7.61536 16.8363 7.68892L16.9511 7.68892C17.0397 7.72131 17.1261 7.75983 17.2094 7.80422C17.3809 7.87717 17.5485 7.95894 17.7116 8.04921C17.7833 8.04921 17.8551 8.12127 17.9125 8.16451C17.9701 8.18946 18.0234 8.22352 18.0703 8.26539C18.2301 8.38174 18.3834 8.50683 18.5295 8.64009L18.6443 8.72656C18.9314 8.95483 19.1957 9.21064 19.4335 9.49038L19.7635 9.90831C20.4819 10.9475 20.8537 12.1888 20.8254 13.4536L20.8253 167.915C20.8469 168.858 20.6556 169.794 20.2657 170.653C20.072 171.083 19.8157 171.481 19.5052 171.835C19.295 172.075 19.0697 172.301 18.8308 172.512C18.6117 172.694 18.3817 172.863 18.1421 173.016C17.4587 173.44 16.7197 173.765 15.9467 173.982C15.674 173.982 15.4157 174.126 15.1575 174.184L15.0283 174.184C14.9279 174.184 14.8131 174.184 14.7126 174.256L14.6409 174.256C14.397 174.256 14.1674 174.256 13.9378 174.357C13.7082 174.458 13.7656 174.357 13.6795 174.357C13.2203 174.357 12.9047 174.357 12.7612 174.357C11.7608 174.362 10.7636 174.245 9.7909 174.011Z" fill="#9E4000"/>
<path d="M13.2048 176.739L13.6926 176.739L14.4818 176.739C15.2604 176.667 16.0326 176.537 16.7921 176.35C17.036 176.35 17.2656 176.235 17.4952 176.163C17.617 176.138 17.7369 176.104 17.8539 176.062C17.9706 176.015 18.0904 175.976 18.2126 175.946C18.2126 175.946 18.6861 175.773 18.9157 175.673C19.8055 175.292 20.6482 174.808 21.4268 174.231C21.6682 174.075 21.8983 173.901 22.1156 173.713C22.3968 173.478 22.665 173.228 22.9191 172.963C23.1343 172.747 23.3352 172.502 23.5505 172.257C25.0669 170.333 25.8641 167.937 25.8033 165.484L25.8033 10.9792C25.8023 10.4344 25.764 9.89024 25.6885 9.35069C25.5724 8.41449 25.331 7.4983 24.971 6.6269L24.8419 6.33866C24.6953 5.99901 24.5226 5.67135 24.3253 5.35867C22.8394 3.01678 20.5619 1.29221 17.9113 0.501956C17.8635 0.50436 17.8156 0.50436 17.7678 0.501956C17.5526 0.501956 17.3373 0.372253 17.1221 0.314606C17.0745 0.307902 17.0262 0.307902 16.9786 0.314606C16.9166 0.308346 16.8541 0.308346 16.7921 0.314606C16.6486 0.314606 16.5051 0.314605 16.3616 0.213724C16.3141 0.221787 16.2656 0.221787 16.2181 0.213724C16.0029 0.213724 15.7876 0.127254 15.5724 0.0984312C15.5724 0.0984312 15.5724 0.0984312 15.4863 0.0984312L14.898 0.0119624C14.6684 0.0119624 14.4245 0.0119624 14.1949 0.0119624L13.9653 0.0119624C13.664 0.0119624 13.377 0.0119623 13.09 0.0119623C12.803 0.0119623 12.5304 0.0119623 12.2577 0.0119623L12.1717 0.0119623C11.0909 0.0720238 10.0189 0.241008 8.97181 0.516368C8.69918 0.516368 8.4409 0.660484 8.18261 0.746953L7.93868 0.833425C7.82653 0.865381 7.71633 0.903877 7.60865 0.948717L7.47951 0.948717L7.03469 1.12166C6.81945 1.22254 6.60421 1.30901 6.40333 1.40989L6.23114 1.49636C6.12783 1.54351 6.02723 1.59644 5.92981 1.65489L5.65717 1.799L5.54238 1.87106C3.89135 2.74754 2.50814 4.05767 1.54028 5.66173C0.572422 7.26578 0.0562054 9.10361 0.0466838 10.9792L0.046677 165.44C0.00777276 167.471 0.545296 169.47 1.59638 171.205C1.79985 171.533 2.02017 171.851 2.25643 172.156C2.2719 172.199 2.30252 172.235 2.34253 172.257L2.34253 172.344C2.52907 172.56 2.7156 172.776 2.93084 172.992C4.07561 174.128 5.43736 175.021 6.93423 175.615L7.14947 175.701C7.21619 175.71 7.28364 175.71 7.35036 175.701C7.40761 175.707 7.46529 175.707 7.52255 175.701L7.65169 175.701C7.87142 175.789 8.09673 175.861 8.32609 175.918C9.52999 176.279 10.7731 176.492 12.0282 176.552C12.0282 176.552 12.0282 176.552 12.1143 176.552L12.2721 176.552C12.5017 176.552 12.7169 176.552 12.9321 176.552L13.133 176.552L13.2048 176.739Z" fill="url(#paint0_linear_674_106015)"/>
<path d="M23.034 172.92L23.034 172.632C23.1488 171.623 23.2349 170.657 23.3066 169.749C23.5506 166.867 23.651 164.792 23.651 164.792L23.651 4.96552C23.651 4.96552 24.0241 160.151 23.8088 168.337L23.694 172.243C23.4788 172.488 23.2779 172.733 23.0627 172.949L23.034 172.92Z" fill="#FFDE55"/>
<g style="mix-blend-mode:overlay" opacity="0.5">
<path d="M17.8539 176.004L17.8539 0L18.2844 175.86C18.1371 175.895 17.993 175.944 17.8539 176.004Z" fill="#FFDE55"/>
</g>
<g style="mix-blend-mode:overlay" opacity="0.5">
<path d="M13.5637 176.725L13.5637 176.595L13.6211 171.695L14.2759 0L13.3054 171.767L13.2049 176.638L13.2049 176.739L13.5637 176.725Z" fill="#FFDE55"/>
</g>
<g style="mix-blend-mode:overlay" opacity="0.5">
<path d="M4.08291 173.513L4.08291 173.384L4.14031 168.484L4.96558 2.48279L3.82463 168.556L3.72418 173.427L3.72418 173.528L4.08291 173.513Z" fill="#FFDE55"/>
</g>
<g style="mix-blend-mode:overlay" opacity="0.5">
<path d="M2.77307 17.8735L2.77307 20.237C2.77307 22.442 2.55784 24.7766 2.42869 26.5637L2.3139 28.0048L2.77307 17.8735Z" fill="#FFDE55"/>
</g>
<g style="mix-blend-mode:overlay" opacity="0.5">
<path d="M2.18478 27.9472L2.25653 26.506L2.7157 17.8591L2.18478 27.9472Z" fill="#FFDE55"/>
</g>
<g style="mix-blend-mode:overlay" opacity="0.5">
<path d="M3.28967 127.255C3.17487 130.498 2.94529 145.126 2.7157 149.665C2.7157 141.811 2.65493 13.7845 2.48275 4.34485C2.48275 4.34485 2.97399 119.343 3.28967 122.932L3.28967 123.465C3.28967 123.753 3.28967 125.151 3.28967 127.183L3.28967 127.255Z" fill="#FFDE55"/>
</g>
<g style="mix-blend-mode:multiply">
<path d="M3.93541 158.983L3.93542 17.191C3.93542 11.0228 11.9135 10.7922 12.8175 10.7922C13.7215 10.7922 21.6996 10.9796 21.6996 17.1478L21.6996 158.983C21.6996 165.151 15.7591 166.188 12.8175 166.188C10.1629 166.174 3.93541 165.151 3.93541 158.983Z" fill="#718182"/>
</g>
<defs>
<linearGradient id="paint0_linear_674_106015" x1="26.1477" y1="-28.0996" x2="1.15156" y2="-28.0996" gradientUnits="userSpaceOnUse">
<stop stop-color="#F0CA57"/>
<stop offset="1" stop-color="#D45B1A"/>
</linearGradient>
</defs>
</svg>
