<svg width="704" height="483" viewBox="0 0 704 483" fill="none" xmlns="http://www.w3.org/2000/svg">
<path d="M132.536 433.062C135.656 433.067 138.473 433.005 140.905 432.915C157.232 447.508 177.384 455.236 197.443 458.934C220.506 463.185 244.778 462.38 266.286 459.741C287.918 457.087 307.608 452.467 321.825 448.545C328.216 446.782 333.554 445.145 337.53 443.864C384.789 464.214 432.166 464.261 467.609 459.324C486.367 456.711 502.112 452.66 513.23 449.241C517.919 447.798 521.807 446.462 524.775 445.381C580.924 458.437 649.093 430.692 677.441 351.1C693.938 304.78 673.118 266.272 651.95 241.9C641.239 229.569 629.758 219.959 621.06 213.469C618.175 211.317 615.563 209.483 613.341 207.982C612.177 203.632 610.403 198.037 607.753 191.809C601.85 177.936 591.21 160.036 572.427 146.262C553.617 132.468 532.106 127.266 516.331 125.294C513.304 124.916 510.43 124.649 507.756 124.466C506.323 116.601 503.786 106.981 499.291 96.7318C487.848 70.6427 464.153 41.6792 417.498 27.2795C369.975 12.6119 332.041 25.9833 306.653 42.8592C295.372 50.3586 286.529 58.5447 280.209 65.2697C274.596 62.7272 267.702 60.337 259.525 58.7544C234.86 53.9805 200.85 56.9784 157.868 80.9173C111.705 106.629 95.0063 145.857 90.1963 177.923C87.9103 193.163 88.2686 206.83 89.2348 216.886C81.5173 220.543 75.0378 225.293 69.7761 230.983C60.8997 240.581 56.6621 251.58 54.8236 261.297C53.7875 266.774 53.4807 271.991 53.5523 276.611C50.1395 278.275 46.5802 280.471 43.0863 283.367C26.7956 296.872 17.3255 320.718 20.6798 358.174C22.6951 380.679 33.1047 397.406 47.4526 408.975C61.2177 420.074 77.8906 425.906 92.6595 429.071C107.602 432.273 122.035 433.045 132.536 433.062Z" fill="url(#paint0_linear_414_83247)" stroke="white" stroke-width="40" stroke-miterlimit="10"/>
<path d="M161.6 373.39C161.6 373.39 56.6001 393.39 68.6001 355.39C80.6001 317.39 114.6 312.39 114.6 312.39C114.6 312.39 86.6001 261.39 155.6 262.39C155.6 262.39 121.6 190.39 173.6 151.39C225.6 112.39 294.6 136.39 294.6 136.39C294.6 136.39 328.6 64.39 394.6 78.39C460.6 92.39 460.6 186.39 460.6 186.39C460.6 186.39 511.6 173.39 539.6 193.39C567.6 213.39 564.6 224.39 570.6 254.39C570.6 254.39 625.6 271.39 632.6 311.39C639.6 351.39 616.6 396.39 588.6 394.39C560.6 392.39 552.6 376.39 552.6 376.39C552.6 376.39 532.1 394.89 511.1 379.89C511.1 379.89 504.1 399.89 484.1 396.89C464.1 393.89 465.1 375.89 465.1 375.89L453.1 373.89C453.1 373.89 439.1 388.89 426.1 383.89C413.1 378.89 404.1 367.89 404.1 367.89C404.1 367.89 374.1 389.89 355.1 388.89C336.1 387.89 330.1 374.89 322.1 368.89C314.1 362.89 302.1 363.89 297.1 368.89C292.1 373.89 286.1 366.89 280.1 369.89C274.1 372.89 274.1 382.89 268.1 388.89C262.1 394.89 252.1 399.89 244.1 393.89C244.1 393.89 228.1 414.89 200.1 403.89C172.1 392.89 161.6 373.39 161.6 373.39Z" fill="url(#paint1_linear_414_83247)"/>
<path d="M162.6 362.39C162.6 362.39 170 294 209.6 270.39C261.6 239.39 298.6 259.39 298.6 259.39C298.6 259.39 370.26 173.05 443.6 217.39C529.6 269.39 513.6 346.39 513.6 346.39C513.6 346.39 458.6 257.39 409.6 256.39C325.75 254.68 301.6 300.39 301.6 300.39C301.6 300.39 202.6 274.39 162.6 362.39Z" fill="white"/>
<path d="M73.6001 372.39C73.6001 372.39 83.6001 331.39 122.6 325.39C122.6 325.39 113.6 300.39 139.6 280.39C165.6 260.39 179.6 265.39 179.6 265.39C179.6 265.39 143.6 215.39 184.6 173.39C225.6 131.39 271.6 162.39 271.6 162.39C271.6 162.39 285.6 130.39 315.6 137.39C345.6 144.39 345.6 154.39 345.6 154.39C345.6 154.39 391.6 119.39 419.6 140.39C447.6 161.39 437.6 202.39 437.6 202.39C437.6 202.39 513.6 188.39 539.6 210.39C565.6 232.39 556.6 265.39 552.6 269.39C552.6 269.39 575.6 266.39 586.6 281.39C597.6 296.39 587.6 327.39 573.6 337.39C573.6 337.39 617.6 346.39 625.6 364.39C625.6 364.39 650.6 323.39 625.6 286.39C600.6 249.39 576.6 250.39 576.6 250.39C576.6 250.39 569.6 194.39 530.6 183.39C491.6 172.39 459.6 180.39 459.6 180.39C459.6 180.39 462.6 81.39 395.6 72.39C328.6 63.39 293.6 126.39 293.6 126.39C293.6 126.39 227.6 104.39 184.6 131.39C141.6 158.39 125.6 222.39 148.6 255.39C148.6 255.39 123.6 250.39 109.6 265.39C95.6001 280.39 105.6 311.39 105.6 311.39C105.6 311.39 43.6001 343.39 73.6001 372.39Z" fill="#D1E5ED"/>
<defs>
<linearGradient id="paint0_linear_414_83247" x1="351.68" y1="41" x2="351.68" y2="442.04" gradientUnits="userSpaceOnUse">
<stop stop-color="white"/>
<stop offset="1" stop-color="#60B0E2"/>
</linearGradient>
<linearGradient id="paint1_linear_414_83247" x1="350.76" y1="76.59" x2="350.76" y2="407.08" gradientUnits="userSpaceOnUse">
<stop stop-color="#D4E9FA"/>
<stop offset="1" stop-color="#A6D2EB"/>
</linearGradient>
</defs>
</svg>
