<svg width="51" height="34" viewBox="0 0 51 34" fill="none" xmlns="http://www.w3.org/2000/svg">
<path fill-rule="evenodd" clip-rule="evenodd" d="M31.7408 2.6324C29.1493 4.72632 27.2386 7.55954 26.2805 10.7731C26.284 10.842 26.284 10.9111 26.2805 10.98C26.2805 11.1795 26.2032 11.3789 26.126 11.5784C26.083 11.6892 26.0401 11.8001 26.0104 11.9109C26.0007 11.9795 26.0007 12.0491 26.0104 12.1177C26.0014 12.2072 26.0014 12.2973 26.0104 12.3867C26.0104 12.5935 26.0104 12.8004 25.865 13.0073C25.8766 13.0757 25.8766 13.1457 25.865 13.2141C25.865 13.4003 25.8201 13.5865 25.7752 13.7727C25.7453 13.8968 25.7154 14.0209 25.6988 14.145V14.2692L25.5741 15.1173V16.131V16.4619V17.7238V18.9236V19.0478C25.6607 20.6058 25.9043 22.1513 26.3013 23.6609C26.3013 23.9447 26.4096 24.2178 26.5168 24.4878C26.558 24.5917 26.5991 24.6952 26.6337 24.7986L26.7584 25.1503C26.8044 25.312 26.8599 25.4709 26.9246 25.6261V25.8123L27.1739 26.4536C27.2335 26.5808 27.2897 26.708 27.3452 26.8338C27.425 27.0148 27.5036 27.1929 27.5894 27.3638L27.7141 27.612C27.7821 27.761 27.8584 27.906 27.9426 28.0464L28.1504 28.4395L28.2543 28.605C29.4063 30.7751 31.078 32.6242 33.1167 33.9912C36.9533 33.8748 39.8123 32.6362 39.8123 32.6362C43.4314 33.7183 48.2056 32.0951 50.2076 26.4522C51.2684 23.4624 49.8432 20.95 48.2686 19.2485C47.9594 18.7529 47.6142 18.3003 47.2624 17.8953C46.5269 17.0484 45.7368 16.3759 45.1157 15.9057C44.851 15.094 44.3192 13.9092 43.2942 12.9187C42.8536 12.1774 42.2288 11.3969 41.3483 10.7511C40.0528 9.80115 38.5511 9.43094 37.4163 9.28909C37.2628 9.2699 37.1148 9.25474 36.9735 9.24288C36.7221 8.21757 36.1887 6.89585 35.0599 5.71485C34.3767 4.59715 33.3297 3.47942 31.7408 2.6324ZM37.4515 10.9768C37.3697 10.9643 37.2889 10.9532 37.2095 10.9433L37.1952 10.9415C37.195 10.9749 37.1942 10.9924 37.1942 10.9924C37.1942 10.9924 37.2867 10.9833 37.4515 10.9768Z" fill="#8B2400"/>
<path d="M6.25891 16.1288C6.25891 16.1288 4.5161 9.4607 10.5023 6.12664C16.4884 2.79257 19.3678 5.59622 19.3678 5.59622C19.3678 5.59622 22.8535 0.292024 28.9912 2.18638C35.1289 4.08073 34.9016 9.61225 34.9016 9.61225C34.9016 9.61225 38.0083 9.30915 40.2815 10.9762C42.5547 12.6432 42.9336 15.3711 42.9336 15.3711C42.9336 15.3711 49.6775 19.2356 47.7074 24.7671C45.7373 30.2986 41.0393 31.8899 37.4779 30.829C37.4779 30.829 30.2793 33.9358 23.4597 30.6775C23.4597 30.6775 13.1544 34.4662 9.06255 29.9197C9.06255 29.9197 1.33358 30.7533 0.878937 25.6764C0.424292 20.5995 3.53103 20.7511 3.53103 20.7511C3.53103 20.7511 2.39442 16.9623 6.25891 16.1288Z" fill="url(#paint0_linear_391_82854)"/>
<path fill-rule="evenodd" clip-rule="evenodd" d="M19.1941 4.46124C19.2544 4.39065 19.3197 4.316 19.3902 4.23803C19.847 3.73256 20.5261 3.07865 21.4166 2.48665C23.2121 1.29317 25.8756 0.352301 29.2372 1.38982C32.5626 2.41616 34.215 4.45865 35.0115 6.27479C35.4045 7.17065 35.5848 7.99933 35.6673 8.60585C35.6744 8.65851 35.6809 8.70957 35.6867 8.75893C36.0073 8.76496 36.4023 8.78684 36.8427 8.84189C37.9775 8.98374 39.4792 9.35394 40.7746 10.3039C42.0689 11.2531 42.8107 12.4935 43.2272 13.4723C43.4365 13.9642 43.5678 14.3993 43.6473 14.7149C43.6597 14.7639 43.6708 14.8102 43.6808 14.8534C43.8744 14.9785 44.1423 15.1597 44.4552 15.3932C45.0884 15.8655 45.9185 16.5612 46.6888 17.4481C48.2189 19.2097 49.6236 21.8716 48.4928 25.0466C46.4262 30.8489 41.4745 32.7281 37.5258 31.7072C37.5012 31.7166 37.475 31.7264 37.4474 31.7368C37.2232 31.8206 36.8997 31.9346 36.4918 32.0601C35.6768 32.3108 34.5198 32.6085 33.1413 32.8005C30.4718 33.1724 26.9203 33.1542 23.4145 31.5751C23.3698 31.5901 23.3209 31.6063 23.268 31.6235C22.9676 31.7218 22.5365 31.8558 22.0074 32.0018C20.9514 32.2931 19.4935 32.6349 17.8972 32.8307C16.3061 33.026 14.5423 33.0808 12.8874 32.7758C11.3628 32.4947 9.88356 31.8986 8.73457 30.7802C8.51119 30.793 8.20708 30.8046 7.84665 30.8041C7.07973 30.8028 6.03709 30.7461 4.96679 30.5168C3.90375 30.289 2.75495 29.8786 1.82645 29.13C0.873652 28.3617 0.184085 27.2597 0.0489454 25.7506C-0.193143 23.0473 0.499894 21.4994 1.50275 20.6681C1.86688 20.3662 2.24217 20.1856 2.56799 20.0777C2.52927 19.6727 2.52205 19.1522 2.627 18.5975C2.74838 17.9559 3.02408 17.2492 3.59061 16.6366C4.01735 16.1752 4.58121 15.7974 5.30201 15.5364C5.28415 15.4102 5.26676 15.271 5.25121 15.1202C5.17615 14.3925 5.1425 13.3821 5.31168 12.2542C5.65279 9.98016 6.82611 7.22003 10.0969 5.39833C13.2351 3.65049 15.6498 3.46588 17.3385 3.79271C18.1438 3.94858 18.7618 4.21675 19.1941 4.46124ZM8.97383 29.0909L8.9741 29.0908L9.39716 29.0452L9.6823 29.362C10.5441 30.3196 11.7634 30.8735 13.1896 31.1363C14.6178 31.3996 16.1975 31.3597 17.6942 31.1761C19.1857 30.9931 20.56 30.6718 21.5641 30.3948C22.065 30.2566 22.471 30.1302 22.7501 30.039C22.8896 29.9934 22.9972 29.9567 23.0689 29.9317C23.1048 29.9192 23.1317 29.9096 23.1491 29.9034C23.1578 29.9003 23.1641 29.898 23.168 29.8966L23.172 29.8951L23.1722 29.895L23.1725 29.8949L23.5021 29.7738L23.8192 29.9253C27.032 31.4603 30.3565 31.5053 32.9114 31.1495C34.185 30.9721 35.2539 30.6968 36.0017 30.4667C36.3752 30.3519 36.6674 30.2487 36.8635 30.1753C36.9616 30.1387 37.0355 30.1095 37.0835 30.0901C37.1075 30.0804 37.125 30.0732 37.1358 30.0687C37.1412 30.0664 37.145 30.0648 37.147 30.064L37.1478 30.0636L37.1483 30.0634L37.1486 30.0633L37.1487 30.0633L37.4258 29.9436L37.716 30.0301C40.8465 30.9626 45.0989 29.6073 46.9224 24.4873C47.7617 22.1308 46.7796 20.0947 45.4302 18.5412C44.7608 17.7705 44.0281 17.1544 43.4584 16.7293C43.1748 16.5177 42.9348 16.3559 42.7679 16.2483C42.6846 16.1945 42.6197 16.1544 42.577 16.1285C42.5556 16.1155 42.5398 16.1062 42.5301 16.1004C42.5252 16.0975 42.5218 16.0956 42.52 16.0945L42.5194 16.0942L42.519 16.0939L42.5187 16.0937L42.5185 16.0937L42.1645 15.8908L42.1086 15.4884L42.1085 15.4875L42.1085 15.4874C42.1082 15.4855 42.1075 15.4811 42.1064 15.4743C42.1042 15.4607 42.1003 15.4377 42.0943 15.4062C42.0823 15.343 42.062 15.2461 42.0309 15.1225C41.9684 14.8745 41.8628 14.5235 41.6933 14.125C41.3521 13.3232 40.7678 12.3661 39.7888 11.6482C38.811 10.9312 37.6228 10.6194 36.6359 10.496C36.1487 10.4351 35.7267 10.4222 35.4288 10.4243C35.2802 10.4254 35.1636 10.4302 35.0865 10.4346C35.048 10.4367 35.0195 10.4388 35.0018 10.4401C34.993 10.4408 34.9869 10.4413 34.9837 10.4416L34.9827 10.4417L34.9813 10.4418L34.981 10.4419L34.0296 10.5347L34.0688 9.58129L34.0688 9.58116C34.0688 9.58105 34.0688 9.58082 34.0688 9.58057C34.0688 9.58051 34.0688 9.58049 34.0688 9.58041C34.0689 9.5797 34.0689 9.57855 34.0689 9.57698C34.069 9.57366 34.0691 9.56845 34.0692 9.56142C34.0692 9.55703 34.0693 9.55194 34.0693 9.54616C34.0694 9.51602 34.069 9.46716 34.0666 9.40178C34.0617 9.27084 34.0487 9.07472 34.0155 8.83062C33.9488 8.34079 33.8023 7.66818 33.4849 6.94437C32.8607 5.52116 31.5579 3.85071 28.7456 2.98271C25.9694 2.12586 23.8213 2.88991 22.3395 3.87494C21.5915 4.3722 21.0155 4.92594 20.627 5.35581C20.4334 5.56997 20.2884 5.75117 20.1937 5.87588C20.1464 5.93817 20.1118 5.98615 20.0902 6.01686C20.0794 6.0322 20.0719 6.04321 20.0676 6.04951C20.0656 6.05249 20.0643 6.05441 20.0637 6.05523C20.0637 6.05528 20.0637 6.05532 20.0636 6.05536L20.0635 6.05554L19.5101 6.89774L18.7921 6.19868C18.7907 6.19742 18.7885 6.19547 18.7856 6.19287C18.7747 6.1834 18.7535 6.16533 18.7217 6.14072C18.6582 6.09145 18.5532 6.01627 18.4065 5.9312C18.1137 5.76142 17.6538 5.55171 17.0217 5.42937C15.774 5.18789 13.756 5.26848 10.908 6.85471C8.19266 8.36707 7.24429 10.608 6.96027 12.5015C6.81688 13.4575 6.8448 14.3225 6.90945 14.9492C6.94165 15.2614 6.98263 15.5113 7.01471 15.6798C7.03074 15.7639 7.04449 15.8274 7.05372 15.868C7.05834 15.8883 7.06182 15.9028 7.06388 15.9112C7.06491 15.9154 7.06559 15.9181 7.06588 15.9193L7.06601 15.9198L7.28562 16.76L6.43484 16.9435C5.60994 17.1214 5.11799 17.4403 4.81449 17.7685C4.50725 18.1007 4.34251 18.4975 4.26498 18.9073C4.18656 19.3219 4.20183 19.7294 4.24106 20.0422C4.26038 20.1963 4.28472 20.3212 4.30337 20.4046C4.31266 20.4462 4.32044 20.477 4.32531 20.4954C4.32774 20.5046 4.32943 20.5107 4.33021 20.5134C4.33032 20.5138 4.33026 20.5136 4.33033 20.5139C4.33051 20.5145 4.33073 20.5152 4.33066 20.515L4.66845 21.6409L3.50122 21.584C3.5012 21.584 3.50125 21.584 3.50122 21.584C3.49471 21.584 3.47902 21.5843 3.45573 21.5859C3.40858 21.5891 3.33276 21.5976 3.2391 21.619C3.05126 21.6621 2.80452 21.7543 2.56664 21.9515C2.12979 22.3136 1.49678 23.2284 1.70933 25.6019C1.80152 26.6313 2.24856 27.3289 2.87282 27.8322C3.52136 28.3552 4.39006 28.6883 5.31608 28.8868C6.23486 29.0836 7.15287 29.1359 7.84935 29.137C8.19541 29.1376 8.48162 29.1255 8.67929 29.1135C8.77801 29.1075 8.85432 29.1016 8.90461 29.0973C8.92974 29.0951 8.94835 29.0934 8.95997 29.0922C8.96578 29.0917 8.96984 29.0913 8.97209 29.091L8.97338 29.0909L8.97383 29.0909Z" fill="url(#paint1_linear_391_82854)"/>
<path d="M10.0476 26.9646C10.0476 26.9646 2.09133 28.4801 3.00062 25.6006C3.90991 22.7212 6.48623 22.3423 6.48623 22.3423C6.48623 22.3423 4.36456 18.4779 9.59298 18.5536C9.59298 18.5536 7.01665 13.0979 10.9569 10.1427C14.8972 7.18751 20.1256 9.00609 20.1256 9.00609C20.1256 9.00609 22.7019 3.55034 27.703 4.61118C32.7041 5.67202 32.7041 12.7948 32.7041 12.7948C32.7041 12.7948 36.5686 11.8097 38.6903 13.3252C40.812 14.8407 40.5846 15.6742 41.0393 17.9474C41.0393 17.9474 45.2069 19.2356 45.7373 22.2666C46.2677 25.2975 44.5249 28.7074 42.4032 28.5558C40.2815 28.4043 39.6753 27.1919 39.6753 27.1919C39.6753 27.1919 38.122 28.5937 36.5307 27.4571C36.5307 27.4571 36.0003 28.9726 34.4848 28.7453C32.9693 28.5179 33.0451 27.154 33.0451 27.154L32.1358 27.0025C32.1358 27.0025 31.075 28.1391 30.0899 27.7602C29.1048 27.3813 28.4229 26.5478 28.4229 26.5478C28.4229 26.5478 26.1496 28.2148 24.7099 28.1391C23.2702 28.0633 22.8156 27.0782 22.2094 26.6236C21.6032 26.1689 20.6939 26.2447 20.315 26.6236C19.9362 27.0025 19.4815 26.472 19.0269 26.6994C18.5722 26.9267 18.5722 27.6844 18.1176 28.1391C17.6629 28.5937 16.9052 28.9726 16.299 28.5179C16.299 28.5179 15.0866 30.1092 12.9649 29.2757C10.8433 28.4422 10.0476 26.9646 10.0476 26.9646Z" fill="url(#paint2_linear_391_82854)"/>
<path d="M10.1234 26.131C10.1234 26.131 10.6841 20.9488 13.6848 19.1598C17.6251 16.8108 20.4287 18.3263 20.4287 18.3263C20.4287 18.3263 25.8587 11.7839 31.416 15.1438C37.9326 19.084 36.7202 24.9187 36.7202 24.9187C36.7202 24.9187 32.5526 18.1747 28.8396 18.099C22.486 17.9694 20.656 21.433 20.656 21.433C20.656 21.433 13.1544 19.4629 10.1234 26.131Z" fill="white"/>
<path d="M3.37942 26.8888C3.37942 26.8888 4.13716 23.782 7.09236 23.3274C7.09236 23.3274 6.41039 21.433 8.38052 19.9176C10.3506 18.4021 11.4115 18.7809 11.4115 18.7809C11.4115 18.7809 8.68362 14.9922 11.7904 11.8097C14.8971 8.6272 18.3827 10.9762 18.3827 10.9762C18.3827 10.9762 19.4436 8.55143 21.7168 9.08185C23.99 9.61227 23.99 10.37 23.99 10.37C23.99 10.37 27.4756 7.71791 29.5973 9.30917C31.719 10.9004 30.9612 14.0072 30.9612 14.0072C30.9612 14.0072 36.7201 12.9463 38.6902 14.6134C40.6603 16.2804 39.9784 18.7809 39.6753 19.084C39.6753 19.084 41.4181 18.8567 42.2516 19.9933C43.0851 21.1299 42.3274 23.4789 41.2665 24.2367C41.2665 24.2367 44.6006 24.9187 45.2068 26.2826C45.2068 26.2826 47.1011 23.1758 45.2068 20.3722C43.3124 17.5686 41.4939 17.6443 41.4939 17.6443C41.4939 17.6443 40.9634 13.401 38.0082 12.5675C35.053 11.7339 32.6283 12.3401 32.6283 12.3401C32.6283 12.3401 32.8556 4.83849 27.7787 4.15653C22.7018 3.47456 20.0497 8.24833 20.0497 8.24833C20.0497 8.24833 15.0487 6.5813 11.7904 8.6272C8.53207 10.6731 7.31968 15.5227 9.06249 18.0232C9.06249 18.0232 7.16813 17.6443 6.10729 18.7809C5.04645 19.9176 5.8042 22.2666 5.8042 22.2666C5.8042 22.2666 1.1062 24.6913 3.37942 26.8888Z" fill="#D1E5ED"/>
<defs>
<linearGradient id="paint0_linear_391_82854" x1="24.4508" y1="1.77796" x2="24.4508" y2="32.1664" gradientUnits="userSpaceOnUse">
<stop stop-color="white"/>
<stop offset="1" stop-color="#60B0E2"/>
</linearGradient>
<linearGradient id="paint1_linear_391_82854" x1="22.0383" y1="0.944337" x2="22.0383" y2="32.9999" gradientUnits="userSpaceOnUse">
<stop stop-color="#4F88AA"/>
<stop offset="1" stop-color="#2D6283"/>
</linearGradient>
<linearGradient id="paint2_linear_391_82854" x1="24.3811" y1="4.47479" x2="24.3811" y2="29.5174" gradientUnits="userSpaceOnUse">
<stop stop-color="#D4E9FA"/>
<stop offset="1" stop-color="#A6D2EB"/>
</linearGradient>
</defs>
</svg>
