<svg width="232" height="92" viewBox="0 0 232 92" fill="none" xmlns="http://www.w3.org/2000/svg">
<path d="M11.3849 41.1963C11.3849 41.1963 8.69139 30.883 17.9429 25.7264C27.1944 20.5698 31.6445 24.9061 31.6445 24.9061C31.6445 24.9061 37.0314 16.7024 46.5171 19.6323C56.0028 22.5621 55.6515 31.1174 55.6515 31.1174C55.6515 31.1174 60.4529 30.6486 63.9661 33.227C67.4793 35.8053 68.0649 40.0243 68.0649 40.0243C68.0649 40.0243 78.4874 46.0013 75.4426 54.5566C72.3978 63.1119 65.1372 65.573 59.6331 63.9322C59.6331 63.9322 48.5079 68.7372 37.9683 63.6978C37.9683 63.6978 22.0416 69.5576 15.7178 62.5259C15.7178 62.5259 3.77287 63.815 3.07023 55.9629C2.36758 48.1108 7.16899 48.3452 7.16899 48.3452C7.16899 48.3452 5.41238 42.4854 11.3849 41.1963Z" fill="url(#paint0_linear_426_83231)"/>
<path fill-rule="evenodd" clip-rule="evenodd" d="M11.8401 40.9331C12.0578 40.8654 12.2882 40.8049 12.532 40.7523C12.532 40.7523 12.4917 40.5982 12.4385 40.3187C12.0654 38.3613 11.0573 30.257 18.8213 25.9349C25.0258 22.4809 28.9785 23.4734 30.7946 24.3826C31.5756 24.7735 31.9615 25.1491 31.9615 25.1491C31.9615 25.1491 32.9746 23.6081 34.8937 22.1347C37.308 20.2809 41.1563 18.5341 46.2247 20.0977C52.5269 22.0418 54.3014 26.572 54.7969 29.172C55.0166 30.3251 54.9848 31.0985 54.9848 31.0985C54.9848 31.0985 56.2785 30.9724 57.9963 31.2216C59.5192 31.4425 61.3754 31.9585 62.9588 33.1191C66.328 35.5887 66.8896 39.6298 66.8896 39.6298C66.8896 39.6298 76.8851 45.3547 73.9651 53.5492C71.045 61.7437 64.0819 64.1011 58.8033 62.5295C58.8033 62.5295 48.134 67.1319 38.0262 62.305C38.0262 62.305 22.7521 67.9177 16.6875 61.1825C16.6875 61.1825 5.23193 62.4173 4.55808 54.8963C4.18096 50.6873 5.45705 48.9041 6.65406 48.1498C7.59596 47.5563 8.48889 47.5998 8.48889 47.5998C8.48889 47.5998 7.85723 45.4953 8.68258 43.5801C9.14772 42.5008 10.0756 41.4816 11.8401 40.9331ZM3.82533 44.6441C3.85401 44.3718 3.89421 44.0912 3.94849 43.8044C4.21403 42.4015 4.83946 40.7495 6.18573 39.2945C6.63868 38.805 7.14362 38.3698 7.6962 37.9896C7.67098 36.9732 7.71674 35.7965 7.90686 34.5297C8.52398 30.4176 10.7025 25.3149 16.6354 22.0121C21.8536 19.1072 26.2079 18.6306 29.5722 19.2815C30.0499 19.3739 30.4971 19.4871 30.9139 19.6144C31.5554 19.0302 32.3161 18.4155 33.1948 17.8316C36.4685 15.6565 41.4236 13.9174 47.5496 15.8072C53.4806 17.6369 56.6129 21.3892 58.1302 24.847C58.4295 25.5291 58.6622 26.1892 58.843 26.8083C60.7672 27.1086 63.3135 27.811 65.6154 29.4982C68.1498 31.3558 69.5568 33.7467 70.3213 35.5424C70.5199 36.0088 70.681 36.4484 70.8112 36.8469C70.9023 36.9129 70.996 36.9818 71.0921 37.0534C72.1545 37.8457 73.5752 39.0315 74.914 40.5722C77.5349 43.5882 80.4426 48.7539 78.197 55.0558C74.7382 64.7622 66.3646 68.5733 59.0872 67.2113C58.8496 67.2913 58.5863 67.3766 58.299 67.465C56.9598 67.8766 55.0729 68.3616 52.8249 68.6746C48.7856 69.2369 43.3404 69.2749 37.8003 67.0996C37.4822 67.1953 37.127 67.2984 36.7395 67.4052C35.0728 67.8648 32.7489 68.4109 30.1782 68.7262C27.6354 69.038 24.6614 69.1485 21.7658 68.615C19.5037 68.1983 17.108 67.3515 15.0328 65.7479C14.9824 65.7481 14.9314 65.7481 14.8797 65.748C13.6054 65.746 11.8166 65.6534 9.93418 65.2502C8.09089 64.8554 5.84096 64.0967 3.91779 62.5469C1.86371 60.8915 0.367845 58.469 0.0836223 55.2968C-0.332886 50.6481 0.811574 47.1186 3.40381 44.9708C3.54382 44.8548 3.68452 44.746 3.82533 44.6441Z" fill="white"/>
<path d="M18.4538 57.1266C18.4538 57.1266 6.77114 59.4262 8.10631 55.057C9.44147 50.6878 13.2244 50.1129 13.2244 50.1129C13.2244 50.1129 10.109 44.2489 17.7862 44.3639C17.7862 44.3639 14.0033 36.0853 19.789 31.6011C25.5747 27.1169 33.2519 29.8764 33.2519 29.8764C33.2519 29.8764 37.0348 21.5979 44.3782 23.2076C51.7216 24.8173 51.7216 35.6254 51.7216 35.6254C51.7216 35.6254 57.396 34.1307 60.5114 36.4303C63.6268 38.7299 63.293 39.9946 63.9606 43.444C63.9606 43.444 70.0801 45.3987 70.8589 49.9979C71.6378 54.5971 69.0787 59.7711 65.9633 59.5412C62.848 59.3112 61.9578 57.4715 61.9578 57.4715C61.9578 57.4715 59.6769 59.5987 57.3404 57.874C57.3404 57.874 56.5616 60.1736 54.3363 59.8286C52.111 59.4837 52.2223 57.4141 52.2223 57.4141L50.8871 57.1841C50.8871 57.1841 49.3294 58.9088 47.883 58.3339C46.4366 57.759 45.4352 56.4942 45.4352 56.4942C45.4352 56.4942 42.0973 59.0238 39.9833 58.9088C37.8693 58.7938 37.2017 57.2991 36.3116 56.6092C35.4215 55.9193 34.0863 56.0343 33.53 56.6092C32.9737 57.1841 32.3061 56.3792 31.6385 56.7242C30.971 57.0691 30.971 58.2189 30.3034 58.9088C29.6358 59.5987 28.5232 60.1736 27.6331 59.4837C27.6331 59.4837 25.8528 61.8983 22.7375 60.6335C19.6221 59.3687 18.4538 57.1266 18.4538 57.1266Z" fill="url(#paint1_linear_426_83231)"/>
<path d="M19 55C19 55 19.8405 47.6259 24.3382 45.0801C30.2444 41.7376 34.4468 43.8941 34.4468 43.8941C34.4468 43.8941 42.5859 34.5845 50.9158 39.3654C60.6836 44.9723 58.8664 53.2748 58.8664 53.2748C58.8664 53.2748 52.6195 43.6784 47.0541 43.5706C37.5305 43.3862 34.7875 48.3149 34.7875 48.3149C34.7875 48.3149 23.5432 45.5114 19 55Z" fill="white"/>
<path d="M8.90391 57C8.90391 57 10.0066 52.3669 14.3073 51.6889C14.3073 51.6889 13.3148 48.8639 16.1819 46.6038C19.049 44.3438 20.5929 44.9088 20.5929 44.9088C20.5929 44.9088 16.623 39.2587 21.1442 34.5126C25.6654 29.7666 30.738 33.2696 30.738 33.2696C30.738 33.2696 32.2818 29.6535 35.59 30.4446C38.8982 31.2356 38.8982 32.3656 38.8982 32.3656C38.8982 32.3656 43.9708 28.4105 47.0585 30.7836C50.1461 33.1566 49.0434 37.7897 49.0434 37.7897C49.0434 37.7897 57.4241 36.2077 60.2912 38.6937C63.1584 41.1797 62.1659 44.9088 61.7248 45.3608C61.7248 45.3608 64.2611 45.0218 65.4741 46.7168C66.6871 48.4119 65.5844 51.9149 64.0405 53.0449C64.0405 53.0449 68.8926 54.062 69.7747 56.096C69.7747 56.096 72.5316 51.4629 69.7747 47.2818C67.0179 43.1008 64.3714 43.2138 64.3714 43.2138C64.3714 43.2138 63.5994 36.8857 59.2988 35.6426C54.9981 34.3996 51.4694 35.3036 51.4694 35.3036C51.4694 35.3036 51.8002 24.1165 44.4119 23.0994C37.0236 22.0824 33.164 29.2015 33.164 29.2015C33.164 29.2015 25.886 26.7155 21.1442 29.7666C16.4025 32.8176 14.6381 40.0497 17.1744 43.7788C17.1744 43.7788 14.4176 43.2138 12.8737 44.9088C11.3299 46.6038 12.4327 50.1069 12.4327 50.1069C12.4327 50.1069 5.59571 53.7229 8.90391 57Z" fill="#D1E5ED"/>
<path d="M69.1279 44.3086C69.1279 44.3086 64.5896 26.9736 80.1777 18.3061C95.7659 9.63863 103.264 16.9272 103.264 16.9272C103.264 16.9272 112.341 3.13801 128.323 8.06272C144.306 12.9874 143.714 27.3676 143.714 27.3676C143.714 27.3676 151.804 26.5796 157.724 30.9134C163.643 35.2471 164.63 42.3387 164.63 42.3387C164.63 42.3387 182.191 52.3851 177.061 66.7653C171.931 81.1455 159.697 85.2822 150.423 82.5244C150.423 82.5244 131.678 90.6009 113.919 82.1304C113.919 82.1304 87.0839 91.9798 76.4287 80.1605C76.4287 80.1605 56.3022 82.3274 55.1183 69.1292C53.9344 55.9309 62.0245 56.3249 62.0245 56.3249C62.0245 56.3249 59.0647 46.4755 69.1279 44.3086Z" fill="url(#paint2_linear_426_83231)"/>
<path fill-rule="evenodd" clip-rule="evenodd" d="M69.2331 44.1822C69.6051 44.067 69.9988 43.9639 70.4155 43.8743C70.4155 43.8743 70.3466 43.6117 70.2556 43.1356C69.6181 39.8008 67.8954 25.9934 81.163 18.6298C91.7656 12.7453 98.5202 14.4361 101.624 15.9851C102.958 16.6512 103.618 17.291 103.618 17.291C103.618 17.291 105.349 14.6656 108.628 12.1553C112.754 8.99709 119.33 6.02106 127.992 8.68492C138.761 11.9972 141.794 19.7152 142.64 24.1449C143.016 26.1094 142.961 27.4271 142.961 27.4271C142.961 27.4271 145.172 27.2122 148.108 27.6368C150.71 28.0132 153.882 28.8923 156.588 30.8696C162.345 35.077 163.305 41.9619 163.305 41.9619C163.305 41.9619 180.386 51.7155 175.396 65.6765C170.406 79.6375 158.507 83.6537 149.487 80.9762C149.487 80.9762 131.254 88.8173 113.981 80.5937C113.981 80.5937 87.8802 90.1561 77.5165 78.6813C77.5165 78.6813 57.9406 80.785 56.7891 67.9714C56.1447 60.8005 58.3253 57.7625 60.3709 56.4774C61.9804 55.4662 63.5063 55.5404 63.5063 55.5404C63.5063 55.5404 62.4269 51.9549 63.8373 48.692C64.6322 46.8531 66.2178 45.1167 69.2331 44.1822ZM55.537 50.5047C55.586 50.0409 55.6547 49.5627 55.7474 49.0742C56.2012 46.6841 57.27 43.8695 59.5706 41.3906C60.3446 40.5566 61.2075 39.8153 62.1517 39.1675C62.1086 37.4358 62.1868 35.4311 62.5117 33.2728C63.5663 26.267 67.2891 17.5735 77.4276 11.9466C86.3447 6.9975 93.7857 6.18549 99.5348 7.29432C100.351 7.45176 101.115 7.6447 101.828 7.86158C102.924 6.86633 104.224 5.81898 105.725 4.82429C111.32 1.11854 119.787 -1.8444 130.256 1.37528C140.391 4.49247 145.744 10.8853 148.336 16.7763C148.848 17.9384 149.245 19.063 149.555 20.1179C152.843 20.6294 157.194 21.8262 161.128 24.7007C165.458 27.8655 167.863 31.9388 169.169 34.9981C169.509 35.7927 169.784 36.5417 170.006 37.2206C170.162 37.3331 170.322 37.4505 170.486 37.5725C172.302 38.9222 174.73 40.9426 177.018 43.5674C181.496 48.7059 186.465 57.5066 182.628 68.2432C176.717 84.7801 162.408 91.2731 149.972 88.9525C149.566 89.0889 149.116 89.2343 148.625 89.3847C146.336 90.0861 143.112 90.9124 139.27 91.4456C132.368 92.4036 123.063 92.4683 113.595 88.7624C113.052 88.9253 112.445 89.1009 111.783 89.283C108.935 90.0659 104.963 90.9964 100.57 91.5335C96.225 92.0648 91.143 92.2531 86.1947 91.3442C82.3291 90.6341 78.2352 89.1914 74.6889 86.4593C74.6029 86.4597 74.5157 86.4598 74.4274 86.4596C72.2498 86.4561 69.1929 86.2984 65.9761 85.6115C62.8262 84.9389 58.9814 83.6463 55.695 81.0057C52.1848 78.1854 49.6286 74.0583 49.1429 68.6538C48.4311 60.7337 50.3869 54.7205 54.8166 51.0614C55.0559 50.8637 55.2963 50.6784 55.537 50.5047Z" fill="white"/>
<path d="M80.0868 71.4764C80.0868 71.4764 59.8739 75.3494 62.1839 67.9907C64.494 60.632 71.0391 59.6638 71.0391 59.6638C71.0391 59.6638 65.649 49.7876 78.9317 49.9813C78.9317 49.9813 72.3866 36.0385 82.3968 28.4861C92.407 20.9338 105.69 25.5814 105.69 25.5814C105.69 25.5814 112.235 11.6386 124.94 14.3497C137.645 17.0608 137.645 35.2639 137.645 35.2639C137.645 35.2639 147.463 32.7464 152.853 36.6194C158.243 40.4924 157.666 42.6226 158.821 48.4321C158.821 48.4321 169.408 51.7241 170.756 59.4701C172.103 67.2161 167.676 75.9303 162.286 75.543C156.896 75.1557 155.356 72.0573 155.356 72.0573C155.356 72.0573 151.409 75.6399 147.367 72.7351C147.367 72.7351 146.019 76.6081 142.169 76.0272C138.319 75.4462 138.512 71.9605 138.512 71.9605L136.202 71.5732C136.202 71.5732 133.506 74.478 131.004 73.5097C128.501 72.5415 126.769 70.4113 126.769 70.4113C126.769 70.4113 120.994 74.6716 117.336 74.478C113.679 74.2843 112.524 71.7669 110.984 70.605C109.444 69.4431 107.134 69.6367 106.171 70.605C105.208 71.5732 104.053 70.2177 102.898 70.7986C101.743 71.3796 101.743 73.3161 100.588 74.478C99.4334 75.6399 97.5083 76.6081 95.9683 75.4462C95.9683 75.4462 92.8882 79.5129 87.4981 77.3827C82.108 75.2526 80.0868 71.4764 80.0868 71.4764Z" fill="url(#paint3_linear_426_83231)"/>
<path d="M82 69C82 69 83.4288 55.9868 91.075 51.4944C101.115 45.5957 108.26 49.4013 108.26 49.4013C108.26 49.4013 122.096 32.9726 136.257 41.4096C152.862 51.3041 149.773 65.9555 149.773 65.9555C149.773 65.9555 139.153 49.0207 129.692 48.8304C113.502 48.5051 108.839 57.2027 108.839 57.2027C108.839 57.2027 89.7234 52.2555 82 69Z" fill="white"/>
<path d="M63.5639 71C63.5639 71 65.4718 63.2328 72.9126 62.0961C72.9126 62.0961 71.1955 57.36 76.1561 53.5711C81.1166 49.7822 83.7877 50.7295 83.7877 50.7295C83.7877 50.7295 76.9192 41.2572 84.7416 33.3006C92.564 25.3439 101.34 31.2167 101.34 31.2167C101.34 31.2167 104.011 25.1545 109.735 26.4806C115.459 27.8067 115.459 29.7011 115.459 29.7011C115.459 29.7011 124.235 23.0706 129.577 27.0489C134.919 31.0273 133.012 38.7945 133.012 38.7945C133.012 38.7945 147.512 36.1423 152.472 40.31C157.433 44.4778 155.716 50.7295 154.952 51.4872C154.952 51.4872 159.341 50.9189 161.439 53.7606C163.538 56.6022 161.63 62.475 158.959 64.3694C158.959 64.3694 167.354 66.0744 168.88 69.4844C168.88 69.4844 173.65 61.7172 168.88 54.7078C164.11 47.6984 159.531 47.8878 159.531 47.8878C159.531 47.8878 158.196 37.2789 150.755 35.195C143.314 33.1111 137.209 34.6267 137.209 34.6267C137.209 34.6267 137.781 15.8717 124.998 14.1667C112.215 12.4617 105.538 24.3967 105.538 24.3967C105.538 24.3967 92.9456 20.2289 84.7416 25.3439C76.5376 30.4589 73.485 42.5834 77.8732 48.835C77.8732 48.835 73.1034 47.8878 70.4324 50.7295C67.7613 53.5711 69.6692 59.4439 69.6692 59.4439C69.6692 59.4439 57.8402 65.5061 63.5639 71Z" fill="#D1E5ED"/>
<path d="M164.385 33.1963C164.385 33.1963 161.691 22.883 170.943 17.7264C180.194 12.5698 184.644 16.9061 184.644 16.9061C184.644 16.9061 190.031 8.70236 199.517 11.6323C209.003 14.5621 208.651 23.1174 208.651 23.1174C208.651 23.1174 213.453 22.6486 216.966 25.227C220.479 27.8053 221.065 32.0243 221.065 32.0243C221.065 32.0243 231.487 38.0013 228.443 46.5566C225.398 55.1119 218.137 57.573 212.633 55.9322C212.633 55.9322 201.508 60.7372 190.968 55.6978C190.968 55.6978 175.042 61.5576 168.718 54.5259C168.718 54.5259 156.773 55.815 156.07 47.9629C155.368 40.1108 160.169 40.3452 160.169 40.3452C160.169 40.3452 158.412 34.4854 164.385 33.1963Z" fill="url(#paint4_linear_426_83231)"/>
<path fill-rule="evenodd" clip-rule="evenodd" d="M164.84 32.9331C165.058 32.8654 165.288 32.8049 165.532 32.7523C165.532 32.7523 165.492 32.5982 165.438 32.3187C165.065 30.3613 164.057 22.257 171.821 17.9349C178.026 14.4809 181.978 15.4734 183.795 16.3826C184.576 16.7735 184.961 17.1491 184.961 17.1491C184.961 17.1491 185.975 15.6081 187.894 14.1347C190.308 12.2809 194.156 10.5341 199.225 12.0977C205.527 14.0418 207.301 18.572 207.797 21.172C208.017 22.3251 207.985 23.0985 207.985 23.0985C207.985 23.0985 209.279 22.9724 210.996 23.2216C212.519 23.4425 214.375 23.9585 215.959 25.1191C219.328 27.5887 219.89 31.6298 219.89 31.6298C219.89 31.6298 229.885 37.3547 226.965 45.5492C224.045 53.7437 217.082 56.1011 211.803 54.5295C211.803 54.5295 201.134 59.1319 191.026 54.305C191.026 54.305 175.752 59.9177 169.687 53.1825C169.687 53.1825 158.232 54.4173 157.558 46.8963C157.181 42.6873 158.457 40.9041 159.654 40.1498C160.596 39.5563 161.489 39.5998 161.489 39.5998C161.489 39.5998 160.857 37.4953 161.683 35.5801C162.148 34.5008 163.076 33.4816 164.84 32.9331ZM156.825 36.6441C156.854 36.3718 156.894 36.0912 156.948 35.8044C157.214 34.4015 157.839 32.7495 159.186 31.2945C159.639 30.805 160.144 30.3698 160.696 29.9896C160.671 28.9732 160.717 27.7965 160.907 26.5297C161.524 22.4176 163.703 17.3149 169.635 14.0121C174.854 11.1072 179.208 10.6306 182.572 11.2815C183.05 11.3739 183.497 11.4871 183.914 11.6144C184.555 11.0302 185.316 10.4155 186.195 9.83165C189.469 7.65653 194.424 5.91742 200.55 7.80723C206.481 9.63689 209.613 13.3892 211.13 16.847C211.43 17.5291 211.662 18.1892 211.843 18.8083C213.767 19.1086 216.314 19.811 218.615 21.4982C221.15 23.3558 222.557 25.7467 223.321 27.5424C223.52 28.0088 223.681 28.4484 223.811 28.8469C223.902 28.9129 223.996 28.9818 224.092 29.0534C225.154 29.8457 226.575 31.0315 227.914 32.5722C230.535 35.5882 233.443 40.7539 231.197 47.0558C227.738 56.7622 219.365 60.5733 212.087 59.2113C211.85 59.2913 211.586 59.3766 211.299 59.465C209.96 59.8766 208.073 60.3616 205.825 60.6746C201.786 61.2369 196.34 61.2749 190.8 59.0996C190.482 59.1953 190.127 59.2984 189.739 59.4052C188.073 59.8648 185.749 60.4109 183.178 60.7262C180.635 61.038 177.661 61.1485 174.766 60.615C172.504 60.1983 170.108 59.3515 168.033 57.7479C167.982 57.7481 167.931 57.7481 167.88 57.748C166.605 57.746 164.817 57.6534 162.934 57.2502C161.091 56.8554 158.841 56.0967 156.918 54.5469C154.864 52.8915 153.368 50.469 153.084 47.2968C152.667 42.6481 153.812 39.1186 156.404 36.9708C156.544 36.8548 156.685 36.746 156.825 36.6441Z" fill="white"/>
<path d="M171.454 49.1266C171.454 49.1266 159.771 51.4262 161.106 47.057C162.441 42.6878 166.224 42.1129 166.224 42.1129C166.224 42.1129 163.109 36.2489 170.786 36.3639C170.786 36.3639 167.003 28.0853 172.789 23.6011C178.575 19.1169 186.252 21.8764 186.252 21.8764C186.252 21.8764 190.035 13.5979 197.378 15.2076C204.722 16.8173 204.722 27.6254 204.722 27.6254C204.722 27.6254 210.396 26.1307 213.511 28.4303C216.627 30.7299 216.293 31.9946 216.961 35.444C216.961 35.444 223.08 37.3987 223.859 41.9979C224.638 46.5971 222.079 51.7711 218.963 51.5412C215.848 51.3112 214.958 49.4715 214.958 49.4715C214.958 49.4715 212.677 51.5987 210.34 49.874C210.34 49.874 209.562 52.1736 207.336 51.8286C205.111 51.4837 205.222 49.4141 205.222 49.4141L203.887 49.1841C203.887 49.1841 202.329 50.9088 200.883 50.3339C199.437 49.759 198.435 48.4942 198.435 48.4942C198.435 48.4942 195.097 51.0238 192.983 50.9088C190.869 50.7938 190.202 49.2991 189.312 48.6092C188.422 47.9193 187.086 48.0343 186.53 48.6092C185.974 49.1841 185.306 48.3792 184.639 48.7242C183.971 49.0691 183.971 50.2189 183.303 50.9088C182.636 51.5987 181.523 52.1736 180.633 51.4837C180.633 51.4837 178.853 53.8983 175.737 52.6335C172.622 51.3687 171.454 49.1266 171.454 49.1266Z" fill="url(#paint5_linear_426_83231)"/>
<path d="M172 47C172 47 172.84 39.6259 177.338 37.0801C183.244 33.7376 187.447 35.8941 187.447 35.8941C187.447 35.8941 195.586 26.5845 203.916 31.3654C213.684 36.9723 211.866 45.2748 211.866 45.2748C211.866 45.2748 205.619 35.6784 200.054 35.5706C190.53 35.3862 187.788 40.3149 187.788 40.3149C187.788 40.3149 176.543 37.5114 172 47Z" fill="white"/>
<path d="M161.904 49C161.904 49 163.007 44.3669 167.307 43.6889C167.307 43.6889 166.315 40.8639 169.182 38.6038C172.049 36.3438 173.593 36.9088 173.593 36.9088C173.593 36.9088 169.623 31.2587 174.144 26.5126C178.665 21.7666 183.738 25.2696 183.738 25.2696C183.738 25.2696 185.282 21.6535 188.59 22.4446C191.898 23.2356 191.898 24.3656 191.898 24.3656C191.898 24.3656 196.971 20.4105 200.058 22.7836C203.146 25.1566 202.043 29.7897 202.043 29.7897C202.043 29.7897 210.424 28.2077 213.291 30.6937C216.158 33.1797 215.166 36.9088 214.725 37.3608C214.725 37.3608 217.261 37.0218 218.474 38.7168C219.687 40.4119 218.584 43.9149 217.041 45.0449C217.041 45.0449 221.893 46.062 222.775 48.096C222.775 48.096 225.532 43.4629 222.775 39.2818C220.018 35.1008 217.371 35.2138 217.371 35.2138C217.371 35.2138 216.599 28.8857 212.299 27.6426C207.998 26.3996 204.469 27.3036 204.469 27.3036C204.469 27.3036 204.8 16.1165 197.412 15.0994C190.024 14.0824 186.164 21.2015 186.164 21.2015C186.164 21.2015 178.886 18.7155 174.144 21.7666C169.402 24.8176 167.638 32.0497 170.174 35.7788C170.174 35.7788 167.418 35.2138 165.874 36.9088C164.33 38.6038 165.433 42.1069 165.433 42.1069C165.433 42.1069 158.596 45.7229 161.904 49Z" fill="#D1E5ED"/>
<defs>
<linearGradient id="paint0_linear_426_83231" x1="39.5" y1="19.0006" x2="39.5" y2="66.0007" gradientUnits="userSpaceOnUse">
<stop stop-color="white"/>
<stop offset="1" stop-color="#60B0E2"/>
</linearGradient>
<linearGradient id="paint1_linear_426_83231" x1="39.5004" y1="23.0007" x2="39.5004" y2="61.0003" gradientUnits="userSpaceOnUse">
<stop stop-color="#D4E9FA"/>
<stop offset="1" stop-color="#A6D2EB"/>
</linearGradient>
<linearGradient id="paint2_linear_426_83231" x1="116.5" y1="7.00096" x2="116.5" y2="86.0012" gradientUnits="userSpaceOnUse">
<stop stop-color="white"/>
<stop offset="1" stop-color="#60B0E2"/>
</linearGradient>
<linearGradient id="paint3_linear_426_83231" x1="116.501" y1="14.0011" x2="116.501" y2="78.0005" gradientUnits="userSpaceOnUse">
<stop stop-color="#D4E9FA"/>
<stop offset="1" stop-color="#A6D2EB"/>
</linearGradient>
<linearGradient id="paint4_linear_426_83231" x1="192.5" y1="11.0006" x2="192.5" y2="58.0007" gradientUnits="userSpaceOnUse">
<stop stop-color="white"/>
<stop offset="1" stop-color="#60B0E2"/>
</linearGradient>
<linearGradient id="paint5_linear_426_83231" x1="192.5" y1="15.0007" x2="192.5" y2="53.0003" gradientUnits="userSpaceOnUse">
<stop stop-color="#D4E9FA"/>
<stop offset="1" stop-color="#A6D2EB"/>
</linearGradient>
</defs>
</svg>
