<svg width="178" height="75" viewBox="0 0 178 75" fill="none" xmlns="http://www.w3.org/2000/svg">
<g clip-path="url(#clip0_394_82500)">
<path d="M7.64792 31.5539C7.64792 31.5539 5.51836 23.4061 12.8329 19.3322C20.1475 15.2582 23.6659 18.684 23.6659 18.684C23.6659 18.684 27.925 12.2028 35.4247 14.5175C42.9244 16.8322 42.6467 23.5913 42.6467 23.5913C42.6467 23.5913 46.4428 23.2209 49.2205 25.2579C51.9982 27.2948 52.4611 30.628 52.4611 30.628C52.4611 30.628 60.7016 35.3501 58.2942 42.1091C55.8869 48.8681 50.1464 50.8125 45.7947 49.5163C45.7947 49.5163 36.9987 53.3124 28.6657 49.3311C28.6657 49.3311 16.0735 53.9605 11.0737 48.4052C11.0737 48.4052 1.62962 49.4237 1.07408 43.2202C0.518544 37.0167 4.3147 37.2019 4.3147 37.2019C4.3147 37.2019 2.92586 32.5724 7.64792 31.5539Z" fill="url(#paint0_linear_394_82500)"/>
<path fill-rule="evenodd" clip-rule="evenodd" d="M23.4534 17.2973C23.527 17.211 23.6069 17.1198 23.693 17.0245C24.2512 16.4069 25.0809 15.6079 26.1691 14.8845C28.3629 13.4262 31.6176 12.2765 35.7251 13.5443C39.7884 14.7984 41.8075 17.2941 42.7808 19.5133C43.2609 20.6079 43.4813 21.6205 43.5821 22.3616C43.5909 22.4259 43.5987 22.4883 43.6058 22.5486C43.9976 22.556 44.4803 22.5828 45.0183 22.65C46.4049 22.8233 48.2399 23.2757 49.8228 24.4365C51.4043 25.5962 52.3107 27.1119 52.8196 28.3079C53.0754 28.909 53.2358 29.4407 53.333 29.8264C53.3481 29.8862 53.3617 29.9427 53.3739 29.9955C53.6104 30.1484 53.9379 30.3699 54.3201 30.6551C55.0938 31.2323 56.1082 32.0823 57.0494 33.166C58.919 35.3185 60.6355 38.5712 59.2537 42.4508C56.7286 49.5406 50.678 51.8368 45.853 50.5893C45.8229 50.6008 45.791 50.6129 45.7572 50.6255C45.4833 50.7279 45.088 50.8673 44.5896 51.0206C43.5937 51.3269 42.18 51.6907 40.4956 51.9253C37.2336 52.3797 32.8941 52.3574 28.6103 50.428C28.5557 50.4462 28.496 50.466 28.4313 50.4871C28.0642 50.6071 27.5375 50.771 26.8909 50.9494C25.6006 51.3053 23.8192 51.7229 21.8687 51.9622C19.9245 52.2008 17.7693 52.2678 15.7472 51.895C13.8843 51.5517 12.0767 50.8233 10.6728 49.4566C10.3998 49.4722 10.0282 49.4865 9.58779 49.4858C8.65069 49.4843 7.37668 49.415 6.06886 49.1348C4.76992 48.8564 3.3662 48.355 2.23165 47.4402C1.06742 46.5015 0.224827 45.1549 0.0596985 43.3109C-0.236111 40.0077 0.610717 38.1163 1.83612 37.1005C2.28105 36.7317 2.73962 36.511 3.13774 36.3791C3.09044 35.8843 3.08161 35.2483 3.20985 34.5704C3.35816 33.7865 3.69504 32.923 4.38729 32.1745C4.90873 31.6107 5.59772 31.1491 6.47847 30.8301C6.45665 30.6759 6.4354 30.5058 6.4164 30.3216C6.32468 29.4324 6.28356 28.1978 6.49029 26.8196C6.9071 24.0409 8.34078 20.6683 12.3374 18.4423C16.1719 16.3066 19.1226 16.081 21.1859 16.4804C22.17 16.6708 22.9251 16.9985 23.4534 17.2973ZM10.9651 47.3924L10.9654 47.3924L11.4824 47.3367L11.8308 47.7238C12.8839 48.8939 14.3737 49.5706 16.1164 49.8918C17.8616 50.2135 19.7918 50.1648 21.6206 49.9404C23.4431 49.7168 25.1223 49.3242 26.3492 48.9857C26.9613 48.8169 27.4574 48.6625 27.7985 48.551C27.9689 48.4953 28.1004 48.4504 28.1881 48.4198C28.2319 48.4046 28.2647 48.3929 28.286 48.3853C28.2966 48.3815 28.3043 48.3787 28.3091 48.377L28.3139 48.3752L28.3143 48.3751L28.3146 48.3749L28.7173 48.2269L29.1048 48.412C33.0305 50.2876 37.0928 50.3427 40.2146 49.9078C41.7709 49.6911 43.0769 49.3547 43.9907 49.0736C44.4471 48.9333 44.8041 48.8072 45.0438 48.7176C45.1636 48.6728 45.2539 48.6371 45.3126 48.6134C45.342 48.6016 45.3634 48.5927 45.3765 48.5872C45.3831 48.5845 45.3877 48.5825 45.3901 48.5815L45.3912 48.5811L45.3917 48.5808L45.3921 48.5807L45.3922 48.5806L45.7309 48.4344L46.0855 48.5401C49.9106 49.6795 55.1066 48.0235 57.3348 41.7673C58.3604 38.8879 57.1603 36.4 55.5115 34.5017C54.6936 33.56 53.7983 32.8071 53.1021 32.2877C52.7556 32.0292 52.4624 31.8315 52.2584 31.6999C52.1566 31.6342 52.0773 31.5852 52.0251 31.5536C51.999 31.5378 51.9797 31.5263 51.9678 31.5193C51.9619 31.5158 51.9577 31.5134 51.9555 31.5121L51.9548 31.5116L51.9542 31.5113L51.9539 31.5111L51.9537 31.511L51.5211 31.2631L51.4528 30.7715L51.4527 30.7704L51.4527 30.7703C51.4523 30.7679 51.4515 30.7625 51.4501 30.7542C51.4474 30.7376 51.4426 30.7095 51.4353 30.671C51.4206 30.5938 51.3959 30.4754 51.3578 30.3243C51.2815 30.0213 51.1525 29.5924 50.9453 29.1055C50.5284 28.1257 49.8144 26.9563 48.6182 26.0791C47.4234 25.2029 45.9715 24.822 44.7657 24.6712C44.1704 24.5968 43.6547 24.581 43.2906 24.5836C43.1091 24.5849 42.9667 24.5908 42.8725 24.5961C42.8254 24.5988 42.7906 24.6013 42.769 24.6029C42.7582 24.6038 42.7508 24.6044 42.7468 24.6048L42.7456 24.6049L42.7439 24.605L42.7435 24.6051L41.581 24.7185L41.6289 23.5535L41.6289 23.5533C41.6289 23.5532 41.6289 23.5529 41.629 23.5526C41.629 23.5525 41.629 23.5525 41.629 23.5524C41.629 23.5516 41.629 23.5502 41.6291 23.5482C41.6292 23.5442 41.6293 23.5378 41.6294 23.5292C41.6294 23.5239 41.6295 23.5176 41.6295 23.5106C41.6297 23.4737 41.6292 23.414 41.6262 23.3341C41.6203 23.1742 41.6043 22.9345 41.5637 22.6362C41.4823 22.0377 41.3033 21.2159 40.9154 20.3314C40.1527 18.5924 38.5608 16.5512 35.1244 15.4906C31.7322 14.4436 29.1074 15.3772 27.2967 16.5809C26.3827 17.1885 25.6789 17.8651 25.2042 18.3903C24.9677 18.652 24.7904 18.8734 24.6748 19.0258C24.617 19.1019 24.5747 19.1606 24.5483 19.1981C24.5351 19.2168 24.5259 19.2303 24.5207 19.238C24.5182 19.2416 24.5166 19.244 24.5159 19.245C24.5159 19.245 24.5159 19.2451 24.5158 19.2451L24.5157 19.2454L23.8394 20.2744L22.9622 19.4202C22.9605 19.4187 22.9578 19.4163 22.9541 19.4132C22.9409 19.4016 22.9149 19.3795 22.8762 19.3494C22.7985 19.2892 22.6703 19.1974 22.491 19.0934C22.1332 18.886 21.5712 18.6297 20.7989 18.4802C19.2743 18.1852 16.8085 18.2836 13.3285 20.2219C10.0106 22.0698 8.85177 24.8081 8.50471 27.1218C8.32951 28.2898 8.36362 29.3468 8.44261 30.1126C8.48196 30.4941 8.53204 30.7994 8.57124 31.0053C8.59082 31.1081 8.60762 31.1857 8.6189 31.2353C8.62454 31.2601 8.62879 31.2778 8.63132 31.2881C8.63258 31.2932 8.63341 31.2965 8.63376 31.2979L8.63392 31.2986L8.90226 32.3252L7.86269 32.5494C6.85473 32.7668 6.25361 33.1565 5.88276 33.5575C5.50734 33.9635 5.30605 34.4483 5.21131 34.9491C5.11549 35.4556 5.13415 35.9535 5.18209 36.3358C5.20569 36.524 5.23543 36.6767 5.25822 36.7786C5.26958 36.8294 5.27908 36.867 5.28503 36.8895C5.288 36.9008 5.29007 36.9082 5.29102 36.9116C5.29115 36.9121 5.29107 36.9118 5.29116 36.9121C5.29138 36.9129 5.29165 36.9138 5.29157 36.9135L5.70431 38.2893L4.27807 38.2197C4.27805 38.2197 4.2781 38.2197 4.27807 38.2197C4.27012 38.2198 4.25095 38.2201 4.22248 38.2221C4.16487 38.226 4.07222 38.2363 3.95778 38.2625C3.72825 38.3151 3.42676 38.4278 3.13609 38.6688C2.6023 39.1112 1.82882 40.229 2.08854 43.1293C2.20118 44.3871 2.74743 45.2395 3.51022 45.8545C4.30268 46.4935 5.36415 46.9006 6.49567 47.143C7.61833 47.3836 8.74006 47.4475 9.59109 47.4488C10.0139 47.4495 10.3637 47.4348 10.6052 47.4201C10.7258 47.4128 10.8191 47.4055 10.8805 47.4003C10.9112 47.3976 10.934 47.3955 10.9482 47.3941C10.9553 47.3934 10.9602 47.3929 10.963 47.3927L10.9646 47.3925L10.9651 47.3924Z" fill="url(#paint1_linear_394_82500)"/>
<path d="M12.2774 44.7942C12.2774 44.7942 2.55552 46.646 3.66659 43.1276C4.77766 39.6092 7.92569 39.1463 7.92569 39.1463C7.92569 39.1463 5.3332 34.4242 11.7219 34.5168C11.7219 34.5168 8.57382 27.8504 13.3885 24.2394C18.2031 20.6284 24.5918 22.8505 24.5918 22.8505C24.5918 22.8505 27.7398 16.1841 33.8507 17.4804C39.9616 18.7766 39.9616 27.48 39.9616 27.48C39.9616 27.48 44.6836 26.2763 47.2761 28.1281C49.8686 29.9799 49.5909 30.9984 50.1464 33.7761C50.1464 33.7761 55.2388 35.3501 55.8869 39.0537C56.5351 42.7572 54.4055 46.9238 51.813 46.7386C49.2205 46.5534 48.4798 45.072 48.4798 45.072C48.4798 45.072 46.5817 46.7849 44.6373 45.396C44.6373 45.396 43.9892 47.2478 42.1374 46.97C40.2856 46.6923 40.3782 45.0257 40.3782 45.0257L39.2672 44.8405C39.2672 44.8405 37.9709 46.2293 36.7673 45.7664C35.5636 45.3034 34.7303 44.285 34.7303 44.285C34.7303 44.285 31.9526 46.3219 30.1934 46.2293C28.4342 46.1367 27.8787 44.9331 27.138 44.3775C26.3973 43.822 25.2862 43.9146 24.8232 44.3775C24.3603 44.8405 23.8048 44.1924 23.2492 44.4701C22.6937 44.7479 22.6937 45.6738 22.1381 46.2293C21.5826 46.7849 20.6567 47.2478 19.916 46.6923C19.916 46.6923 18.4346 48.6367 15.8421 47.6182C13.2496 46.5997 12.2774 44.7942 12.2774 44.7942Z" fill="url(#paint2_linear_394_82500)"/>
<path d="M12.37 43.7757C12.37 43.7757 13.0552 37.4436 16.7217 35.2575C21.5363 32.3873 24.9621 34.239 24.9621 34.239C24.9621 34.239 31.5971 26.2449 38.3876 30.3503C46.3503 35.1649 44.8688 42.2943 44.8688 42.2943C44.8688 42.2943 39.7764 34.0539 35.2395 33.9613C27.4759 33.8029 25.2399 38.0352 25.2399 38.0352C25.2399 38.0352 16.0736 35.6279 12.37 43.7757Z" fill="white"/>
<path d="M4.12944 44.7016C4.12944 44.7016 5.05533 40.9055 8.66631 40.3499C8.66631 40.3499 7.83301 38.0352 10.2403 36.1834C12.6476 34.3316 13.9439 34.7946 13.9439 34.7946C13.9439 34.7946 10.6107 30.1651 14.4068 26.2764C18.203 22.3876 22.4621 25.2579 22.4621 25.2579C22.4621 25.2579 23.7584 22.295 26.536 22.9432C29.3137 23.5913 29.3137 24.5172 29.3137 24.5172C29.3137 24.5172 33.5728 21.2766 36.1653 23.2209C38.7578 25.1653 37.8319 28.9615 37.8319 28.9615C37.8319 28.9615 44.8687 27.6652 47.276 29.7022C49.6834 31.7391 48.85 34.7946 48.4797 35.1649C48.4797 35.1649 50.6092 34.8872 51.6277 36.276C52.6462 37.6649 51.7203 40.5351 50.4241 41.461C50.4241 41.461 54.498 42.2943 55.2387 43.9609C55.2387 43.9609 57.5534 40.1648 55.2387 36.739C52.924 33.3132 50.7018 33.4058 50.7018 33.4058C50.7018 33.4058 50.0537 28.2208 46.4427 27.2023C42.8317 26.1838 39.8689 26.9245 39.8689 26.9245C39.8689 26.9245 40.1467 17.7582 33.9432 16.9249C27.7397 16.0916 24.4991 21.9247 24.4991 21.9247C24.4991 21.9247 18.3882 19.8877 14.4068 22.3876C10.4255 24.8875 8.94408 30.8133 11.0736 33.8687C11.0736 33.8687 8.7589 33.4058 7.46265 34.7946C6.1664 36.1834 7.09229 39.0537 7.09229 39.0537C7.09229 39.0537 1.35176 42.0166 4.12944 44.7016Z" fill="#D1E5ED"/>
</g>
<g clip-path="url(#clip1_394_82500)">
<path d="M109.015 24.2962C109.015 24.2962 106.226 13.6267 115.805 8.2919C125.383 2.95713 129.99 7.44319 129.99 7.44319C129.99 7.44319 135.567 -1.04395 145.388 1.98717C155.209 5.01829 154.845 13.8692 154.845 13.8692C154.845 13.8692 159.816 13.3842 163.454 16.0516C167.091 18.719 167.697 23.0838 167.697 23.0838C167.697 23.0838 178.488 29.2673 175.336 38.1181C172.183 46.969 164.666 49.5152 158.968 47.8177C158.968 47.8177 147.449 52.7888 136.537 47.5752C136.537 47.5752 120.048 53.6375 113.501 46.3628C113.501 46.3628 101.134 47.6965 100.406 39.5731C99.679 31.4497 104.65 31.6922 104.65 31.6922C104.65 31.6922 102.831 25.6299 109.015 24.2962Z" fill="url(#paint3_linear_394_82500)"/>
<path fill-rule="evenodd" clip-rule="evenodd" d="M129.712 5.62752C129.808 5.51457 129.913 5.39513 130.026 5.27037C130.757 4.46157 131.843 3.41527 133.268 2.46803C136.141 0.55836 140.403 -0.947108 145.782 0.713C151.102 2.35524 153.746 5.62339 155.021 8.52935C155.65 9.9628 155.938 11.2887 156.07 12.2592C156.082 12.3435 156.092 12.4252 156.101 12.5042C156.614 12.5138 157.246 12.5488 157.951 12.6369C159.767 12.8639 162.17 13.4563 164.242 14.9763C166.313 16.495 167.5 18.4797 168.167 20.0459C168.502 20.833 168.712 21.5293 168.839 22.0343C168.859 22.1127 168.877 22.1866 168.893 22.2558C169.202 22.456 169.631 22.746 170.132 23.1195C171.145 23.8753 172.473 24.9885 173.706 26.4075C176.154 29.2262 178.402 33.4855 176.592 38.5658C173.285 47.8499 165.362 50.8567 159.044 49.2232C159.005 49.2382 158.963 49.254 158.919 49.2706C158.56 49.4047 158.042 49.5872 157.39 49.788C156.085 50.1891 154.234 50.6655 152.029 50.9727C147.757 51.5677 142.074 51.5386 136.465 49.0119C136.393 49.0359 136.315 49.0618 136.23 49.0894C135.75 49.2466 135.06 49.4611 134.213 49.6947C132.524 50.1608 130.191 50.7076 127.637 51.021C125.091 51.3334 122.269 51.4212 119.621 50.9331C117.181 50.4834 114.814 49.5296 112.976 47.74C112.618 47.7604 112.132 47.7791 111.555 47.7782C110.328 47.7762 108.66 47.6855 106.947 47.3185C105.246 46.954 103.408 46.2974 101.922 45.0995C100.398 43.8702 99.2943 42.1069 99.078 39.6922C98.6907 35.3667 99.7996 32.8899 101.404 31.5598C101.987 31.0768 102.587 30.7877 103.109 30.6151C103.047 29.9671 103.035 29.1342 103.203 28.2466C103.397 27.2201 103.838 26.0894 104.745 25.1092C105.428 24.3708 106.33 23.7664 107.483 23.3487C107.455 23.1468 107.427 22.9241 107.402 22.6828C107.282 21.5183 107.228 19.9017 107.499 18.097C108.045 14.4582 109.922 10.0418 115.156 7.12695C120.177 4.33026 124.041 4.03487 126.743 4.55782C128.031 4.80723 129.02 5.23633 129.712 5.62752ZM113.359 45.0369L113.359 45.0369L114.036 44.9639L114.492 45.4708C115.871 47.0031 117.822 47.8892 120.104 48.3099C122.389 48.7311 124.917 48.6673 127.312 48.3735C129.698 48.0806 131.897 47.5665 133.504 47.1233C134.305 46.9022 134.955 46.7 135.402 46.554C135.625 46.4811 135.797 46.4223 135.912 46.3823C135.969 46.3623 136.012 46.347 136.04 46.3371C136.054 46.3321 136.064 46.3284 136.07 46.3262L136.077 46.3238L136.077 46.3237L136.078 46.3235L136.605 46.1296L137.112 46.3721C142.253 48.8282 147.573 48.9002 151.661 48.3308C153.698 48.047 155.409 47.6065 156.605 47.2384C157.203 47.0546 157.67 46.8895 157.984 46.7721C158.141 46.7135 158.26 46.6668 158.336 46.6358C158.375 46.6203 158.403 46.6087 158.42 46.6015C158.429 46.5979 158.435 46.5954 158.438 46.594L158.439 46.5934L158.44 46.5931L158.44 46.5929L158.441 46.5928L158.884 46.4014L159.348 46.5397C164.357 48.0318 171.162 45.8632 174.079 37.6709C175.422 33.9003 173.851 30.6424 171.692 28.1567C170.621 26.9235 169.448 25.9376 168.537 25.2574C168.083 24.9189 167.699 24.66 167.432 24.4877C167.298 24.4017 167.195 24.3375 167.126 24.296C167.092 24.2753 167.067 24.2603 167.051 24.2511C167.043 24.2465 167.038 24.2434 167.035 24.2417L167.034 24.2412L167.034 24.2407L167.033 24.2405L167.033 24.2403L166.466 23.9157L166.377 23.2719L166.377 23.2705L166.377 23.2703C166.376 23.2672 166.375 23.2602 166.373 23.2493C166.37 23.2276 166.364 23.1908 166.354 23.1403C166.335 23.0393 166.302 22.8841 166.253 22.6863C166.153 22.2896 165.984 21.7279 165.712 21.0904C165.166 19.8073 164.231 18.276 162.665 17.1273C161.1 15.9799 159.199 15.4811 157.62 15.2837C156.841 15.1863 156.165 15.1655 155.689 15.1689C155.451 15.1707 155.264 15.1784 155.141 15.1853C155.079 15.1888 155.034 15.1921 155.005 15.1943C154.991 15.1954 154.982 15.1962 154.976 15.1966L154.975 15.1968L154.973 15.197L154.972 15.197L153.45 15.3455L153.513 13.82L153.513 13.8198C153.513 13.8196 153.513 13.8193 153.513 13.8189C153.513 13.8188 153.513 13.8187 153.513 13.8186C153.513 13.8175 153.513 13.8156 153.513 13.8131C153.513 13.8078 153.513 13.7995 153.513 13.7882C153.513 13.7812 153.513 13.7731 153.513 13.7638C153.514 13.7156 153.513 13.6374 153.509 13.5328C153.501 13.3233 153.48 13.0095 153.427 12.6189C153.321 11.8351 153.086 10.7589 152.578 9.60074C151.579 7.32349 149.495 4.65063 144.995 3.26175C140.553 1.89074 137.116 3.11328 134.745 4.6894C133.548 5.48505 132.626 6.37109 132.005 7.05891C131.695 7.40158 131.463 7.69151 131.311 7.89106C131.236 7.99073 131.18 8.06751 131.146 8.11664C131.128 8.14119 131.116 8.15881 131.109 8.16888C131.106 8.17365 131.104 8.17673 131.103 8.17804C131.103 8.17812 131.103 8.17819 131.103 8.17825L131.103 8.17854L130.217 9.52613L129.069 8.40757C129.066 8.40556 129.063 8.40244 129.058 8.39828C129.041 8.38312 129.007 8.35422 128.956 8.31483C128.854 8.23599 128.686 8.1157 128.452 7.97959C127.983 7.70793 127.247 7.37236 126.236 7.17661C124.239 6.79022 121.01 6.91918 116.453 9.45727C112.109 11.8772 110.591 15.4629 110.137 18.4927C109.907 20.0222 109.952 21.4063 110.055 22.4091C110.107 22.9087 110.172 23.3085 110.224 23.5781C110.249 23.7127 110.271 23.8144 110.286 23.8793C110.294 23.9117 110.299 23.9349 110.302 23.9484C110.304 23.9551 110.305 23.9595 110.306 23.9613L110.306 23.9621L110.657 25.3065L109.296 25.6001C107.976 25.8848 107.189 26.3951 106.703 26.9202C106.212 27.4518 105.948 28.0867 105.824 28.7425C105.699 29.4057 105.723 30.0578 105.786 30.5584C105.817 30.8048 105.856 31.0047 105.885 31.1382C105.9 31.2047 105.913 31.254 105.921 31.2835C105.924 31.2982 105.927 31.3079 105.928 31.3123C105.929 31.3129 105.928 31.3126 105.929 31.313C105.929 31.3141 105.929 31.3152 105.929 31.3149L106.47 33.1164L104.602 33.0253C104.602 33.0253 104.602 33.0253 104.602 33.0253C104.592 33.0254 104.566 33.0258 104.529 33.0284C104.454 33.0336 104.332 33.0471 104.183 33.0814C103.882 33.1503 103.487 33.2978 103.107 33.6133C102.408 34.1928 101.395 35.6565 101.735 39.4543C101.882 41.1014 102.598 42.2176 103.596 43.023C104.634 43.8597 106.024 44.3928 107.506 44.7103C108.976 45.0254 110.445 45.109 111.559 45.1108C112.113 45.1117 112.571 45.0924 112.887 45.0732C113.045 45.0636 113.167 45.0541 113.248 45.0472C113.288 45.0437 113.318 45.0409 113.336 45.0391C113.346 45.0382 113.352 45.0376 113.356 45.0372L113.358 45.037L113.359 45.0369Z" fill="url(#paint4_linear_394_82500)"/>
<path d="M115.077 41.6343C115.077 41.6343 102.346 44.0592 103.801 39.4518C105.256 34.8445 109.379 34.2383 109.379 34.2383C109.379 34.2383 105.984 28.0548 114.35 28.1761C114.35 28.1761 110.227 19.4464 116.532 14.7179C122.837 9.98934 131.203 12.8992 131.203 12.8992C131.203 12.8992 135.325 4.16959 143.327 5.86702C151.329 7.56444 151.329 18.9615 151.329 18.9615C151.329 18.9615 157.513 17.3853 160.908 19.8102C164.302 22.2351 163.939 23.5688 164.666 27.2061C164.666 27.2061 171.335 29.2673 172.183 34.1171C173.032 38.9669 170.243 44.4229 166.849 44.1804C163.454 43.9379 162.484 41.998 162.484 41.998C162.484 41.998 159.998 44.241 157.452 42.4223C157.452 42.4223 156.603 44.8472 154.179 44.4835C151.754 44.1198 151.875 41.9374 151.875 41.9374L150.42 41.6949C150.42 41.6949 148.722 43.5136 147.146 42.9073C145.57 42.3011 144.479 40.9674 144.479 40.9674C144.479 40.9674 140.842 43.6348 138.538 43.5136C136.234 43.3923 135.507 41.8161 134.537 41.0887C133.567 40.3612 132.112 40.4824 131.506 41.0887C130.899 41.6949 130.172 40.8462 129.445 41.2099C128.717 41.5736 128.717 42.7861 127.99 43.5136C127.262 44.241 126.05 44.8472 125.08 44.1198C125.08 44.1198 123.14 46.6659 119.745 45.3322C116.35 43.9985 115.077 41.6343 115.077 41.6343Z" fill="url(#paint5_linear_394_82500)"/>
<path d="M115.198 40.3005C115.198 40.3005 116.096 32.0086 120.897 29.146C127.202 25.3874 131.688 27.8123 131.688 27.8123C131.688 27.8123 140.376 17.344 149.268 22.72C159.695 29.0247 157.755 38.3606 157.755 38.3606C157.755 38.3606 151.087 27.5698 145.146 27.4486C134.979 27.2412 132.051 32.7833 132.051 32.7833C132.051 32.7833 120.048 29.631 115.198 40.3005Z" fill="white"/>
<path d="M104.408 41.513C104.408 41.513 105.62 36.542 110.349 35.8145C110.349 35.8145 109.257 32.7834 112.41 30.3585C115.562 27.9336 117.26 28.5398 117.26 28.5398C117.26 28.5398 112.895 22.4776 117.866 17.3853C122.837 12.293 128.414 16.0516 128.414 16.0516C128.414 16.0516 130.111 12.1717 133.749 13.0204C137.386 13.8692 137.386 15.0816 137.386 15.0816C137.386 15.0816 142.963 10.838 146.358 13.3842C149.753 15.9303 148.541 20.9014 148.541 20.9014C148.541 20.9014 157.755 19.2039 160.908 21.8713C164.06 24.5387 162.969 28.5398 162.484 29.0248C162.484 29.0248 165.272 28.661 166.606 30.4797C167.94 32.2984 166.727 36.057 165.03 37.2694C165.03 37.2694 170.365 38.3606 171.335 40.543C171.335 40.543 174.366 35.572 171.335 31.0859C168.304 26.5999 165.394 26.7211 165.394 26.7211C165.394 26.7211 164.545 19.9314 159.816 18.5977C155.088 17.264 151.208 18.234 151.208 18.234C151.208 18.234 151.572 6.23074 143.448 5.13953C135.325 4.04833 131.081 11.6868 131.081 11.6868C131.081 11.6868 123.079 9.01937 117.866 12.293C112.652 15.5666 110.712 23.3263 113.501 27.3273C113.501 27.3273 110.47 26.7211 108.772 28.5398C107.075 30.3585 108.287 34.1171 108.287 34.1171C108.287 34.1171 100.77 37.9969 104.408 41.513Z" fill="#D1E5ED"/>
</g>
<g clip-path="url(#clip2_394_82500)">
<path d="M42.2941 37.1072C42.2941 37.1072 38.3826 22.1414 51.8177 14.6585C65.2529 7.17565 71.7154 13.4681 71.7154 13.4681C71.7154 13.4681 79.5384 1.56349 93.3137 5.81512C107.089 10.0668 106.579 22.4815 106.579 22.4815C106.579 22.4815 113.551 21.8013 118.653 25.5427C123.755 29.2841 124.606 35.4065 124.606 35.4065C124.606 35.4065 139.742 44.0798 135.32 56.4946C130.898 68.9094 120.354 72.4808 112.361 70.0998C112.361 70.0998 96.2048 77.0725 80.8989 69.7597C80.8989 69.7597 57.77 78.263 48.5865 68.0591C48.5865 68.0591 31.2398 69.9298 30.2194 58.5354C29.199 47.141 36.1717 47.4811 36.1717 47.4811C36.1717 47.4811 33.6207 38.9779 42.2941 37.1072Z" fill="url(#paint6_linear_394_82500)"/>
<path fill-rule="evenodd" clip-rule="evenodd" d="M71.3251 10.921C71.4603 10.7626 71.607 10.595 71.7651 10.42C72.7905 9.28556 74.3144 7.81796 76.3132 6.4893C80.3428 3.81068 86.3209 1.69902 93.8654 4.02759C101.329 6.33109 105.037 10.9152 106.825 14.9913C107.707 17.0019 108.112 18.8618 108.297 20.2231C108.313 20.3412 108.327 20.4558 108.34 20.5666C109.06 20.5801 109.947 20.6293 110.935 20.7528C113.482 21.0712 116.852 21.902 119.76 24.0341C122.665 26.1643 124.329 28.9483 125.264 31.1451C125.734 32.2491 126.029 33.2257 126.207 33.9341C126.235 34.0441 126.26 34.1478 126.282 34.2448C126.717 34.5256 127.318 34.9324 128.02 35.4563C129.441 36.5165 131.304 38.0778 133.033 40.0683C136.467 44.022 139.62 49.9963 137.082 57.1223C132.444 70.1447 121.33 74.3622 112.468 72.0709C112.413 72.092 112.354 72.1142 112.292 72.1374C111.789 72.3255 111.063 72.5815 110.147 72.8631C108.318 73.4257 105.722 74.094 102.628 74.5249C96.6363 75.3594 88.6655 75.3186 80.7971 71.7746C80.6968 71.8081 80.5871 71.8445 80.4684 71.8833C79.7941 72.1037 78.8267 72.4046 77.639 72.7322C75.2689 73.3861 71.9971 74.153 68.4144 74.5926C64.8433 75.0308 60.8847 75.1539 57.1705 74.4693C53.7488 73.8385 50.4287 72.5006 47.85 69.9905C47.3486 70.0191 46.6661 70.0453 45.8571 70.044C44.1359 70.0412 41.7958 69.914 39.3937 69.3993C37.0078 68.888 34.4295 67.967 32.3456 66.2867C30.2071 64.5625 28.6595 62.0891 28.3562 58.7022C27.8129 52.635 29.3683 49.1609 31.6191 47.2951C32.4363 46.6177 33.2786 46.2122 34.0099 45.9701C33.923 45.0612 33.9068 43.8929 34.1423 42.6479C34.4147 41.208 35.0335 39.622 36.305 38.2471C37.2628 37.2115 38.5283 36.3636 40.146 35.7778C40.1059 35.4946 40.0669 35.1822 40.032 34.8438C39.8635 33.2104 39.788 30.9428 40.1677 28.4114C40.9333 23.3075 43.5667 17.1127 50.9075 13.0242C57.9507 9.10138 63.3704 8.68704 67.1603 9.42056C68.9678 9.77041 70.3547 10.3723 71.3251 10.921ZM48.3869 66.199L48.3875 66.1989L49.3371 66.0965L49.977 66.8076C51.9113 68.9568 54.6478 70.1998 57.8488 70.7898C61.0542 71.3807 64.5996 71.2912 67.9587 70.879C71.3062 70.4683 74.3905 69.7472 76.6441 69.1255C77.7683 68.8154 78.6795 68.5318 79.306 68.327C79.6191 68.2247 79.8606 68.1422 80.0216 68.0861C80.1021 68.0581 80.1624 68.0366 80.2014 68.0227C80.2209 68.0157 80.2351 68.0105 80.2438 68.0074L80.2528 68.0041L80.2534 68.0039L80.2541 68.0036L80.9937 67.7317L81.7054 68.0717C88.9161 71.5168 96.3775 71.6179 102.112 70.8192C104.97 70.4211 107.369 69.8032 109.048 69.287C109.886 69.0292 110.541 68.7976 110.982 68.6329C111.202 68.5506 111.368 68.4852 111.476 68.4417C111.529 68.4199 111.569 68.4037 111.593 68.3935C111.605 68.3885 111.613 68.3849 111.618 68.383L111.62 68.3822L111.621 68.3818L111.621 68.3815L111.622 68.3814L112.244 68.1129L112.895 68.307C119.921 70.3997 129.465 67.358 133.558 55.8669C135.441 50.5781 133.237 46.0084 130.209 42.5217C128.706 40.792 127.062 39.4091 125.783 38.4551C125.147 37.9802 124.608 37.6171 124.233 37.3754C124.046 37.2547 123.901 37.1647 123.805 37.1066C123.757 37.0775 123.721 37.0565 123.7 37.0436C123.689 37.0372 123.681 37.0328 123.677 37.0304L123.676 37.0296L123.675 37.029L123.674 37.0286L123.674 37.0285L122.879 36.5732L122.754 35.6701L122.753 35.6681L122.753 35.6678C122.753 35.6635 122.751 35.6536 122.749 35.6384C122.744 35.6079 122.735 35.5563 122.721 35.4855C122.694 35.3438 122.649 35.1262 122.579 34.8487C122.439 34.2922 122.202 33.5044 121.821 32.6101C121.056 30.8105 119.744 28.6625 117.547 27.0512C115.353 25.4419 112.686 24.7422 110.471 24.4653C109.377 24.3287 108.43 24.2995 107.762 24.3044C107.428 24.3068 107.167 24.3176 106.994 24.3274C106.907 24.3322 106.843 24.3368 106.803 24.3399C106.784 24.3414 106.77 24.3426 106.763 24.3432L106.76 24.3434L106.757 24.3437L106.757 24.3438L104.621 24.5521L104.709 22.4123L104.709 22.412C104.709 22.4118 104.709 22.4112 104.709 22.4107C104.709 22.4105 104.709 22.4105 104.709 22.4103C104.709 22.4087 104.71 22.4061 104.71 22.4026C104.71 22.3952 104.71 22.3835 104.71 22.3677C104.71 22.3578 104.71 22.3464 104.71 22.3335C104.711 22.2658 104.71 22.1561 104.704 22.0094C104.693 21.7155 104.664 21.2754 104.59 20.7275C104.44 19.6281 104.111 18.1186 103.399 16.4941C101.998 13.2999 99.074 9.55075 92.762 7.60262C86.5313 5.67955 81.7102 7.39436 78.3844 9.60513C76.7056 10.7212 75.4128 11.964 74.5409 12.9287C74.1065 13.4094 73.781 13.8161 73.5685 14.096C73.4623 14.2358 73.3848 14.3435 73.3362 14.4124C73.312 14.4468 73.295 14.4715 73.2854 14.4857C73.2809 14.4923 73.278 14.4967 73.2767 14.4985C73.2767 14.4986 73.2766 14.4987 73.2766 14.4988L73.2763 14.4992L72.0341 16.3894L70.4228 14.8205C70.4197 14.8176 70.4148 14.8133 70.4081 14.8074C70.3838 14.7862 70.336 14.7456 70.2648 14.6904C70.1223 14.5798 69.8867 14.4111 69.5574 14.2201C68.9002 13.8391 67.868 13.3684 66.4493 13.0938C63.6491 12.5519 59.12 12.7328 52.728 16.2928C46.6337 19.6871 44.5052 24.7167 43.8678 28.9664C43.5459 31.1118 43.6086 33.0533 43.7537 34.4599C43.826 35.1606 43.918 35.7214 43.99 36.0995C44.0259 36.2883 44.0568 36.431 44.0775 36.522C44.0879 36.5675 44.0957 36.6 44.1003 36.619C44.1026 36.6284 44.1041 36.6345 44.1048 36.637L44.1051 36.6382L44.598 38.524L42.6885 38.9358C40.8371 39.3351 39.733 40.0509 39.0518 40.7874C38.3623 41.5331 37.9925 42.4236 37.8185 43.3434C37.6425 44.2738 37.6768 45.1883 37.7649 45.8905C37.8082 46.2362 37.8628 46.5166 37.9047 46.7038C37.9256 46.7971 37.943 46.8662 37.9539 46.9076C37.9594 46.9282 37.9632 46.9418 37.9649 46.948C37.9652 46.9489 37.965 46.9485 37.9652 46.9491C37.9656 46.9505 37.9661 46.9521 37.966 46.9516L38.7241 49.4786L36.1044 49.3508C36.1043 49.3508 36.1044 49.3508 36.1044 49.3508C36.0898 49.3509 36.0546 49.3515 36.0023 49.3551C35.8964 49.3624 35.7263 49.3813 35.5161 49.4295C35.0945 49.5261 34.5407 49.733 34.0068 50.1756C33.0264 50.9883 31.6057 53.0414 32.0827 58.3685C32.2896 60.6788 33.2929 62.2445 34.694 63.3742C36.1496 64.5478 38.0993 65.2955 40.1776 65.7409C42.2397 66.1828 44.3 66.3001 45.8632 66.3026C46.6399 66.3038 47.2822 66.2768 47.7259 66.2499C47.9474 66.2364 48.1187 66.2231 48.2316 66.2134C48.288 66.2085 48.3297 66.2046 48.3558 66.2021C48.3689 66.2008 48.378 66.1999 48.383 66.1994L48.3859 66.1991L48.3869 66.199Z" fill="url(#paint7_linear_394_82500)"/>
<path d="M50.7973 61.4265C50.7973 61.4265 32.9404 64.8278 34.9812 58.3654C37.022 51.9029 42.8042 51.0525 42.8042 51.0525C42.8042 51.0525 38.0424 42.3792 49.7769 42.5493C49.7769 42.5493 43.9947 30.3046 52.8381 23.672C61.6815 17.0395 73.416 21.121 73.416 21.121C73.416 21.121 79.1982 8.87632 90.4225 11.2572C101.647 13.6382 101.647 29.6243 101.647 29.6243C101.647 29.6243 110.32 27.4135 115.082 30.8148C119.844 34.2161 119.334 36.0868 120.354 41.1887C120.354 41.1887 129.708 44.0799 130.898 50.8825C132.089 57.6851 128.177 65.338 123.415 64.9979C118.653 64.6578 117.293 61.9367 117.293 61.9367C117.293 61.9367 113.807 65.0829 110.235 62.532C110.235 62.532 109.045 65.9333 105.643 65.4231C102.242 64.9129 102.412 61.8517 102.412 61.8517L100.371 61.5116C100.371 61.5116 97.9904 64.0625 95.7796 63.2122C93.5687 62.3619 92.0382 60.4912 92.0382 60.4912C92.0382 60.4912 86.9362 64.2326 83.7049 64.0625C80.4737 63.8925 79.4533 61.6816 78.0928 60.6612C76.7323 59.6408 74.6915 59.8109 73.8412 60.6612C72.9908 61.5116 71.9704 60.3211 70.95 60.8313C69.9296 61.3415 69.9296 63.0422 68.9093 64.0625C67.8889 65.0829 66.1882 65.9333 64.8277 64.9129C64.8277 64.9129 62.1066 68.4842 57.3448 66.6135C52.583 64.7428 50.7973 61.4265 50.7973 61.4265Z" fill="url(#paint8_linear_394_82500)"/>
<path d="M50.9674 59.5558C50.9674 59.5558 52.2259 47.9251 58.9605 43.9098C67.8039 38.6378 74.0963 42.0391 74.0963 42.0391C74.0963 42.0391 86.2832 27.3556 98.7558 34.8963C113.381 43.7397 110.66 56.8348 110.66 56.8348C110.66 56.8348 101.307 41.699 92.9736 41.5289C78.7136 41.2381 74.6065 49.0118 74.6065 49.0118C74.6065 49.0118 57.77 44.5901 50.9674 59.5558Z" fill="white"/>
<path d="M35.8315 61.2564C35.8315 61.2564 37.5322 54.2838 44.1647 53.2634C44.1647 53.2634 42.6341 49.0117 47.0558 45.6104C51.4775 42.2091 53.8585 43.0594 53.8585 43.0594C53.8585 43.0594 47.7361 34.5562 54.7088 27.4134C61.6815 20.2707 69.5045 25.5427 69.5045 25.5427C69.5045 25.5427 71.8854 20.1006 76.9874 21.2911C82.0893 22.4815 82.0893 24.1822 82.0893 24.1822C82.0893 24.1822 89.9123 18.2299 94.6742 21.8013C99.436 25.3726 97.7353 32.3453 97.7353 32.3453C97.7353 32.3453 110.66 29.9644 115.082 33.7058C119.504 37.4473 117.973 43.0594 117.293 43.7397C117.293 43.7397 121.204 43.2295 123.075 45.7805C124.946 48.3315 123.245 53.6035 120.864 55.3041C120.864 55.3041 128.347 56.8347 129.708 59.8959C129.708 59.8959 133.959 52.9232 129.708 46.6308C125.456 40.3384 121.374 40.5085 121.374 40.5085C121.374 40.5085 120.184 30.9848 113.551 29.1141C106.919 27.2434 101.477 28.6039 101.477 28.6039C101.477 28.6039 101.987 11.7674 90.5926 10.2368C79.1982 8.70623 73.2459 19.4203 73.2459 19.4203C73.2459 19.4203 62.0216 15.6789 54.7088 20.2707C47.396 24.8624 44.6749 35.7466 48.5864 41.3588C48.5864 41.3588 44.3348 40.5085 41.9539 43.0594C39.573 45.6104 41.2736 50.8824 41.2736 50.8824C41.2736 50.8824 30.7296 56.3245 35.8315 61.2564Z" fill="#D1E5ED"/>
</g>
<defs>
<linearGradient id="paint0_linear_394_82500" x1="29.8767" y1="14.0185" x2="29.8767" y2="51.1504" gradientUnits="userSpaceOnUse">
<stop stop-color="white"/>
<stop offset="1" stop-color="#60B0E2"/>
</linearGradient>
<linearGradient id="paint1_linear_394_82500" x1="26.9287" y1="12.9999" x2="26.9287" y2="52.1689" gradientUnits="userSpaceOnUse">
<stop stop-color="#4F88AA"/>
<stop offset="1" stop-color="#2D6283"/>
</linearGradient>
<linearGradient id="paint2_linear_394_82500" x1="29.7916" y1="17.3137" x2="29.7916" y2="47.9135" gradientUnits="userSpaceOnUse">
<stop stop-color="#D4E9FA"/>
<stop offset="1" stop-color="#A6D2EB"/>
</linearGradient>
<linearGradient id="paint3_linear_394_82500" x1="138.123" y1="1.33366" x2="138.123" y2="49.9577" gradientUnits="userSpaceOnUse">
<stop stop-color="white"/>
<stop offset="1" stop-color="#60B0E2"/>
</linearGradient>
<linearGradient id="paint4_linear_394_82500" x1="134.263" y1="0.000197284" x2="134.263" y2="51.2916" gradientUnits="userSpaceOnUse">
<stop stop-color="#4F88AA"/>
<stop offset="1" stop-color="#2D6283"/>
</linearGradient>
<linearGradient id="paint5_linear_394_82500" x1="138.012" y1="5.64877" x2="138.012" y2="45.719" gradientUnits="userSpaceOnUse">
<stop stop-color="#D4E9FA"/>
<stop offset="1" stop-color="#A6D2EB"/>
</linearGradient>
<linearGradient id="paint6_linear_394_82500" x1="83.1234" y1="4.89847" x2="83.1234" y2="73.1015" gradientUnits="userSpaceOnUse">
<stop stop-color="white"/>
<stop offset="1" stop-color="#60B0E2"/>
</linearGradient>
<linearGradient id="paint7_linear_394_82500" x1="77.7085" y1="3.02777" x2="77.7085" y2="74.9722" gradientUnits="userSpaceOnUse">
<stop stop-color="#4F88AA"/>
<stop offset="1" stop-color="#2D6283"/>
</linearGradient>
<linearGradient id="paint8_linear_394_82500" x1="82.9669" y1="10.9511" x2="82.9669" y2="67.156" gradientUnits="userSpaceOnUse">
<stop stop-color="#D4E9FA"/>
<stop offset="1" stop-color="#A6D2EB"/>
</linearGradient>
<clipPath id="clip0_394_82500">
<rect width="59.7534" height="39.169" fill="white" transform="translate(0 13)"/>
</clipPath>
<clipPath id="clip1_394_82500">
<rect width="78.2466" height="51.2914" fill="white" transform="translate(99)"/>
</clipPath>
<clipPath id="clip2_394_82500">
<rect width="109.753" height="71.9445" fill="white" transform="translate(28.2466 3.02777)"/>
</clipPath>
</defs>
</svg>
