<svg width="29" height="36" viewBox="0 0 29 36" fill="none" xmlns="http://www.w3.org/2000/svg">
<path fill-rule="evenodd" clip-rule="evenodd" d="M0.0866247 19.9264C-0.208882 18.1534 0.0866249 13.5435 3.6327 9.28817C7.17878 5.03288 6.88324 11.0612 6.29221 14.6073L1.85961 21.6994L0.0866247 19.9264ZM1.77558 18.4885L4.59823 13.9723C4.71376 13.2188 4.81009 12.3802 4.85436 11.5834C4.8749 11.2139 4.88306 10.8717 4.87948 10.5633C2.44999 13.5513 1.82469 16.6712 1.77558 18.4885Z" fill="white"/>
<path d="M2.60812 25.4404C2.69677 25.4404 2.85635 25.6177 3.08684 25.7418C3.58631 26.0151 4.11587 26.2293 4.66484 26.3801L4.96626 26.4865L4.54073 27.0184L4.32797 27.3199C4.00841 27.8299 3.76921 28.386 3.61875 28.9688H3.51237C3.44376 29.2298 3.40217 29.4971 3.38826 29.7666C3.28936 30.5519 3.36697 31.3494 3.61543 32.1009C3.86388 32.8524 4.27692 33.539 4.82442 34.1106C5.94962 35.2239 7.46158 35.8591 9.04425 35.8836C9.46219 35.9367 9.88517 35.9367 10.3031 35.8836C15.2416 34.4089 19.827 31.9413 23.7782 28.6319L24.3278 28.1886C24.5938 27.9759 24.8066 27.7808 25.0016 27.6035C25.9413 26.7525 28.5477 24.0575 28.6363 22.1603C28.7073 19.9263 27.3066 18.1532 22.342 16.3802C23.9586 14.3358 25.3719 12.1387 26.5619 9.81996C26.616 9.64587 26.6574 9.4681 26.686 9.28805C27.3066 6.53984 25.2498 3.57886 21.686 2.07178C19.6175 1.09318 17.376 0.532813 15.0903 0.422852C13.5063 0.445455 11.9508 0.846734 10.5535 1.59317C9.15623 2.33961 7.95785 3.40954 7.05845 4.71361C4.43239 7.60692 2.36448 10.9613 0.959194 14.6072V14.7135C0.959194 14.8377 0.870542 14.944 0.835081 15.0682C0.79962 15.1923 0.835081 15.3696 0.693238 15.5291V15.8306C0.586839 16.0074 0.492076 16.191 0.409552 16.3802H0.374091C0.374091 16.3802 0.374091 16.3802 0.374091 16.4866C0.374091 16.593 0.374091 16.8944 0.249978 17.0894C0.241437 17.1601 0.241437 17.2315 0.249978 17.3022V17.71V18.0646C0.249978 18.171 0.249978 18.2951 0.249978 18.4015C0.241208 18.4899 0.241208 18.579 0.249978 18.6674C-0.0260858 19.904 0.04837 21.193 0.46497 22.3896C0.881569 23.5861 1.62378 24.6427 2.60812 25.4404Z" fill="white"/>
<path d="M23.6897 19.1992C21.7306 18.3703 19.7304 17.6424 17.6968 17.0183C20.6377 14.966 22.873 12.0557 24.0975 8.68504C25.3563 4.81982 19.4167 2.9404 17.8209 2.5326C16.5291 2.20189 15.1709 2.23557 13.8971 2.62993C12.6233 3.02428 11.4836 3.76387 10.6047 4.76663C10.6047 4.76663 3.06925 12.1779 2.59052 19.1105C2.43081 19.8732 2.48359 20.6651 2.74309 21.3998C3.0026 22.1346 3.45887 22.784 4.06215 23.2772L4.20399 23.3835C4.53906 23.587 4.90403 23.7366 5.28554 23.8268C6.7749 24.341 9.15077 24.997 11.1011 25.4935C9.60021 26.451 8.19849 27.5557 6.91674 28.7913L6.66851 29.0927V29.1814C6.50091 29.4354 6.38077 29.7178 6.31391 30.0147C6.14237 30.7036 6.25148 31.4324 6.61722 32.0409C6.98297 32.6493 7.5754 33.0876 8.26425 33.2594C8.70706 33.3662 9.16894 33.3662 9.61176 33.2594H9.73587C13.0104 32.1889 16.1377 30.7116 19.0443 28.8622C24.6826 25.2452 28.8492 21.2914 23.6897 19.1992Z" fill="#FFCB39"/>
<path d="M23.6896 19.1995C19.6648 17.5683 17.6968 17.0364 17.6968 17.0364C20.6357 14.9744 22.87 12.0592 24.0974 8.68536C25.4272 4.82014 19.4698 2.94072 17.8918 2.55065C16.5912 2.2058 15.2202 2.23053 13.9329 2.62205C12.6456 3.01357 11.493 3.75636 10.6046 4.76695C10.6046 4.76695 3.03374 12.196 2.55502 19.1286C2.39328 19.8912 2.44508 20.6838 2.70473 21.4189C2.96437 22.154 3.42179 22.8033 4.02664 23.2952H4.16848C4.51284 23.4927 4.88274 23.6418 5.26777 23.7385C6.75712 24.2526 9.13299 24.8909 11.0833 25.4051C9.58448 26.3915 8.18859 27.526 6.91669 28.7916L6.66847 29.093V29.1994C6.50108 29.4471 6.38086 29.7236 6.31386 30.015C6.20202 30.4675 6.21023 30.9413 6.33767 31.3895C6.46511 31.8378 6.70737 32.2451 7.04048 32.5711C7.3736 32.897 7.78603 33.1304 8.23699 33.248C8.68795 33.3657 9.16181 33.3636 9.61171 33.2419H9.71809C12.9955 32.1646 16.1278 30.6878 19.0443 28.8448C24.6825 25.2455 28.8492 21.3094 23.6896 19.1995Z" fill="url(#paint0_linear_24_39202)"/>
<path opacity="0.5" d="M23.7076 19.1638C19.665 17.5326 17.697 17.0007 17.697 17.0007C20.6348 14.941 22.874 12.0337 24.1154 8.66741C25.4451 4.78445 19.47 2.90503 17.892 2.51496C16.5915 2.16803 15.2199 2.19172 13.9322 2.58336C12.6444 2.97501 11.4919 3.719 10.6048 4.73126C10.6048 4.73126 3.0162 12.1603 2.55521 19.0929C2.39145 19.8539 2.4405 20.6454 2.69697 21.3804C2.95344 22.1154 3.40742 22.7656 4.0091 23.2595H4.15095C4.48905 23.4569 4.85309 23.6061 5.2325 23.7028C6.73958 24.217 9.11546 24.8552 11.0658 25.3694C9.57105 26.36 8.18616 27.5072 6.93462 28.7914C6.84104 28.8889 6.75785 28.9958 6.68639 29.1105V29.2169C6.5131 29.4635 6.38687 29.74 6.31405 30.0325C6.20079 30.4868 6.20864 30.9628 6.33682 31.4131C6.46499 31.8634 6.70901 32.2723 7.04452 32.5988C7.38003 32.9253 7.79531 33.1582 8.24891 33.2741C8.70252 33.39 9.17859 33.385 9.62964 33.2595H9.73602C12.9701 32.2181 16.0615 30.7767 18.9381 28.9687C24.6827 25.2453 28.8671 21.2737 23.7076 19.1638Z" fill="url(#paint1_linear_24_39202)"/>
<g style="mix-blend-mode:multiply" opacity="0.5">
<path d="M14.2572 23.3656C12.3069 22.8691 7.57285 21.3798 6.06577 20.8656C5.68636 20.7689 5.32233 20.6198 4.98422 20.4223H4.84237C4.21253 19.9257 3.73655 19.2606 3.46977 18.5042C3.20299 17.7478 3.15635 16.9312 3.33529 16.1493C3.33529 15.9543 3.33529 15.7592 3.33529 15.5642C2.90828 16.7041 2.63982 17.8973 2.53742 19.1103C2.37771 19.873 2.43049 20.6649 2.68999 21.3996C2.9495 22.1343 3.40577 22.7837 4.00905 23.2769L4.15089 23.3833C4.50238 23.5921 4.88571 23.7418 5.28563 23.8266C6.18988 24.1457 9.84234 25.1564 11.1012 25.4932C12.0941 24.7131 13.1757 24.0925 14.2572 23.3656Z" fill="url(#paint2_linear_24_39202)"/>
<path d="M17.6967 17.0183C20.636 14.9643 22.8709 12.0546 24.0974 8.68506C24.264 8.21342 24.3127 7.70821 24.2392 7.21344C23.0866 10.0604 21.0473 12.4603 18.4237 14.0574C16.9343 15.1744 16.4556 16.5574 17.6967 17.0183Z" fill="url(#paint3_linear_24_39202)"/>
<path d="M19.6649 26.043C15.2501 28.933 11.6863 30.8302 8.90259 30.4224C8.48061 30.3327 8.08902 30.1354 7.7659 29.8495C7.44278 29.5637 7.19912 29.1991 7.05863 28.7912H6.91678L6.66856 29.0926V29.1813C6.50096 29.4353 6.38081 29.7177 6.31395 30.0146C6.14242 30.7035 6.25152 31.4323 6.61727 32.0408C6.98301 32.6492 7.57545 33.0875 8.26429 33.2593C8.71316 33.3656 9.18067 33.3656 9.62953 33.2593H9.73592C13.0105 32.1888 16.1378 30.7115 19.0444 28.8621C23.477 25.9543 26.9699 22.9402 25.9592 20.7593C24.1529 22.8415 22.0285 24.6247 19.6649 26.043Z" fill="url(#paint4_linear_24_39202)"/>
</g>
<path style="mix-blend-mode:screen" d="M7.76791 10.2631C7.76791 10.2631 11.314 2.74542 16.6331 3.41918C21.9522 4.09293 24.2749 6.85887 22.7856 8.73829C22.109 9.55135 21.4815 10.4039 20.9061 11.2915C20.9061 11.2915 20.9948 7.5149 15.853 7.74539C12.9645 7.74183 10.1437 8.62022 7.76791 10.2631Z" fill="url(#paint5_linear_24_39202)"/>
<path d="M16.101 15.937C16.101 15.937 14.8776 16.7171 18.1754 17.7101C21.4733 18.703 25.8527 20.281 24.4874 21.4157L22.3598 23.1887C22.3598 23.1887 20.2144 21.6994 16.4733 19.4654C12.7322 17.2313 15.3386 16.6285 16.101 15.937Z" fill="url(#paint6_linear_24_39202)"/>
<path opacity="0.4" d="M8.95557 28.1709C8.95557 28.1709 14.2747 24.2348 15.764 23.5256C17.2534 22.8163 13.9201 26.8589 8.95557 28.1709Z" fill="url(#paint7_linear_24_39202)"/>
<path style="mix-blend-mode:multiply" opacity="0.3" d="M3.26398 17.7809C3.26398 17.7809 3.26398 19.9795 6.34907 21.1852C8.75366 22.1637 11.2396 22.929 13.7781 23.4724L12.0051 24.8731C9.39203 24.4279 6.86268 23.5847 4.50511 22.3731C2.89165 21.4334 2.9803 19.9263 3.26398 17.7809Z" fill="url(#paint8_linear_24_39202)"/>
<path d="M7.30675 29.7666C7.30675 29.7666 9.07979 31.8056 12.6259 30.1922C16.1719 28.5787 21.4911 25.4936 21.4911 25.4936C21.4911 25.4936 15.3209 31.1319 9.6117 32.1602C7.05852 32.6035 7.30675 29.7666 7.30675 29.7666Z" fill="url(#paint9_linear_24_39202)"/>
<path d="M6.15467 30.5648C6.19579 31.1951 6.48258 31.784 6.95339 32.2051C7.4242 32.6262 8.04142 32.8457 8.67238 32.8165C12.5199 32.8165 21.8638 27.3556 23.4418 25.7244C23.4418 25.7244 16.7397 31.8059 9.54117 33.5967C9.04278 33.6905 8.52884 33.6586 8.04588 33.5038C7.56292 33.349 7.12619 33.0762 6.77523 32.7101C6.51929 32.4209 6.33084 32.0783 6.22352 31.7073C6.11619 31.3362 6.09268 30.946 6.15467 30.5648Z" fill="#FF9100"/>
<path opacity="0.5" d="M12.9806 23.5612C9.98208 22.746 7.07187 21.6354 4.29266 20.2457C4.29266 20.2457 6.36712 22.9761 12.9806 23.5612Z" fill="#FF5000"/>
<path opacity="0.3" d="M17.3064 15.6C17.3064 15.6 18.583 14.3766 19.9305 13.2773C21.2026 12.1584 22.3553 10.9106 23.3702 9.55394C22.7094 11.0333 21.7284 12.3475 20.4978 13.4014C18.5298 15.0149 17.856 15.0326 17.3064 15.6Z" fill="#FF5000"/>
<defs>
<linearGradient id="paint0_linear_24_39202" x1="11.0966" y1="33.3254" x2="18.6186" y2="2.83914" gradientUnits="userSpaceOnUse">
<stop stop-color="#E87400"/>
<stop offset="0.63" stop-color="#FFDC3D"/>
</linearGradient>
<linearGradient id="paint1_linear_24_39202" x1="11.3941" y1="32.1202" x2="17.8968" y2="5.76532" gradientUnits="userSpaceOnUse">
<stop stop-color="#E87400"/>
<stop offset="1" stop-color="#FFFF8E"/>
</linearGradient>
<linearGradient id="paint2_linear_24_39202" x1="2.39291" y1="19.3069" x2="14.5461" y2="22.3056" gradientUnits="userSpaceOnUse">
<stop stop-color="#E87400"/>
<stop offset="0.63" stop-color="#FFDC3D"/>
</linearGradient>
<linearGradient id="paint3_linear_24_39202" x1="18.1504" y1="11.3978" x2="23.2286" y2="12.6508" gradientUnits="userSpaceOnUse">
<stop stop-color="#E87400"/>
<stop offset="0.63" stop-color="#FFDC3D"/>
</linearGradient>
<linearGradient id="paint4_linear_24_39202" x1="7.53997" y1="24.7956" x2="24.341" y2="28.941" gradientUnits="userSpaceOnUse">
<stop stop-color="#E87400"/>
<stop offset="0.63" stop-color="#FFDC3D"/>
</linearGradient>
<linearGradient id="paint5_linear_24_39202" x1="16.7982" y1="3.70453" x2="15.061" y2="10.7451" gradientUnits="userSpaceOnUse">
<stop stop-color="white"/>
<stop offset="1" stop-color="#FFCB39"/>
</linearGradient>
<linearGradient id="paint6_linear_24_39202" x1="20.1462" y1="17.15" x2="19.0589" y2="21.5568" gradientUnits="userSpaceOnUse">
<stop stop-color="white"/>
<stop offset="1" stop-color="#FFCB39"/>
</linearGradient>
<linearGradient id="paint7_linear_24_39202" x1="13.2579" y1="23.0109" x2="12.0262" y2="28.003" gradientUnits="userSpaceOnUse">
<stop stop-color="white"/>
<stop offset="1" stop-color="#FFCB39"/>
</linearGradient>
<linearGradient id="paint8_linear_24_39202" x1="2.37209" y1="26.6437" x2="9.03896" y2="20.1255" gradientUnits="userSpaceOnUse">
<stop stop-color="#FFD42C"/>
<stop offset="1" stop-color="#FF4D00"/>
</linearGradient>
<linearGradient id="paint9_linear_24_39202" x1="20.0051" y1="25.7896" x2="10.1373" y2="30.404" gradientUnits="userSpaceOnUse">
<stop stop-color="#FF4D00"/>
<stop offset="1" stop-color="#FF4D00"/>
</linearGradient>
</defs>
</svg>
