<svg width="284" height="43" viewBox="0 0 284 43" fill="none" xmlns="http://www.w3.org/2000/svg">
<g style="mix-blend-mode:multiply" opacity="0.5">
<path d="M283.985 22.8385C283.992 22.7977 283.992 22.7552 283.985 22.7144C283.993 22.5974 283.993 22.4797 283.985 22.3627C283.985 22.0317 283.985 21.7007 283.985 21.3697V20.8733C283.985 20.8733 283.985 20.7492 283.985 20.6871C283.883 20.2921 283.763 19.9053 283.628 19.5286C283.458 18.3429 283.209 17.1798 282.884 16.0533C282.775 15.7223 282.682 15.3706 282.574 15.0603C282.465 14.75 282.372 14.4604 282.264 14.1708L281.798 13.0537C281.167 11.6399 280.378 10.3633 279.457 9.26808C279.178 8.93709 278.899 8.64748 278.604 8.35786C278.115 7.88557 277.596 7.47031 277.054 7.11667L276.651 6.88911C276.146 6.61699 275.628 6.38895 275.1 6.20646C274.085 5.88178 273.044 5.72202 271.999 5.73066H12.1794C9.35397 5.56862 6.58634 6.83149 4.42702 9.26808C3.2141 10.7035 2.22835 12.4477 1.52763 14.3984C1.38783 14.7681 1.26359 15.1479 1.15552 15.5361C1.14684 15.6046 1.14684 15.6745 1.15552 15.743L1.06249 16.0326C1.06249 16.2395 0.938451 16.4463 0.891937 16.6532C0.798909 17.0049 0.721385 17.3359 0.643861 17.6668C0.566337 17.9978 0.643861 17.6668 0.643861 17.791V17.9978C0.643861 18.2254 0.550831 18.4323 0.519822 18.6598C0.488812 18.8874 0.395784 19.3218 0.34927 19.6734V20.0665C0.225967 20.9339 0.148255 21.8118 0.116699 22.6937V22.8385C0.116699 23.2315 0.116699 23.6246 0.116699 24.0176C0.117622 25.497 0.226671 26.9727 0.442299 28.4239C0.442299 28.7549 0.535327 29.0859 0.597346 29.4168C0.659365 29.7478 0.798908 30.4098 0.907441 30.9063C1.01597 31.4028 1.07799 31.5889 1.17102 31.9406C1.70614 33.996 2.55201 35.8829 3.65619 37.4842C4.76036 39.0855 6.0993 40.3671 7.58999 41.2496C9.06721 42.0472 10.6479 42.4479 12.2414 42.4287H271.906C273.487 42.4931 275.061 42.1097 276.522 41.3039C277.984 40.498 279.302 39.288 280.388 37.7536C280.496 37.5881 280.62 37.4226 280.729 37.2364C280.8 37.1312 280.868 37.0207 280.93 36.9054L281.271 36.3055C282.262 34.4254 282.992 32.3235 283.426 30.0995V29.872V29.6237L283.519 29.0859L283.612 28.4653C283.852 26.9966 283.982 25.4998 284 23.997C284 23.6453 284 23.2315 283.985 22.8385ZM278.403 28.3205C278.403 28.548 278.31 28.7962 278.248 29.0238C278.186 29.2514 278.248 29.2927 278.139 29.4375C278.031 29.5823 278.139 29.603 278.139 29.6858V29.934C277.778 31.363 277.13 32.6329 276.266 33.6064C275.403 34.5799 274.356 35.2199 273.24 35.4573C272.824 35.5429 272.404 35.5844 271.984 35.5815H12.1794C11.5998 35.5823 11.0221 35.492 10.4584 35.3125C9.3467 35.0112 8.32693 34.2769 7.52797 33.2025C7.37293 32.9956 7.23338 32.7681 7.09384 32.5405V32.4371L6.86127 32.0027L6.58218 31.3821L6.34961 30.8235C6.22557 30.4512 6.10154 30.0995 5.993 29.7271V29.541C5.993 29.541 5.993 29.3341 5.91548 29.2514C5.88633 29.1036 5.85008 28.9585 5.80694 28.8169C5.8138 28.7206 5.8138 28.6236 5.80694 28.5273C5.80694 28.2377 5.69841 27.9481 5.6519 27.6792C5.38167 26.4792 5.20502 25.2453 5.12474 23.997C5.10824 23.5628 5.10824 23.1278 5.12474 22.6937C5.20856 21.7359 5.34853 20.7883 5.54336 19.8596C5.54336 19.5286 5.68291 19.1977 5.76043 18.8667C5.7517 18.7913 5.7517 18.7145 5.76043 18.6391C5.82588 18.4751 5.89836 18.3162 5.9775 18.1633V17.9978C6.01233 17.87 6.05378 17.7456 6.10154 17.6255C6.18002 17.3783 6.268 17.1366 6.36512 16.9014C6.36512 16.798 6.44264 16.6946 6.48916 16.6118C6.516 16.5287 6.55264 16.4519 6.59769 16.3843C6.72286 16.1539 6.85744 15.9329 7.00081 15.7223L7.09384 15.5568C7.33942 15.1429 7.61464 14.7618 7.91559 14.419L8.36523 13.9433C9.48327 12.9076 10.8187 12.3716 12.1794 12.4124H271.844C272.859 12.3814 273.867 12.6572 274.79 13.2192C275.252 13.4986 275.681 13.8681 276.062 14.3156C276.32 14.6187 276.563 14.9434 276.79 15.2879C276.986 15.6038 277.168 15.9354 277.333 16.2808C277.788 17.2661 278.138 18.3314 278.372 19.4459C278.372 19.8389 278.527 20.2113 278.589 20.5837V20.7698C278.589 20.9146 278.589 21.0801 278.666 21.2249V21.3284C278.666 21.68 278.666 22.011 278.775 22.342C278.884 22.673 278.775 22.5903 278.775 22.7144C278.775 23.3764 278.775 23.8315 278.775 24.0383C278.78 25.4805 278.655 26.9182 278.403 28.3205Z" fill="#58129B"/>
</g>
<path d="M283.985 19.8385C283.992 19.7977 283.992 19.7552 283.985 19.7144C283.993 19.5974 283.993 19.4797 283.985 19.3627C283.985 19.0317 283.985 18.7007 283.985 18.3697V17.8733C283.985 17.8733 283.985 17.7492 283.985 17.6871C283.883 17.2921 283.763 16.9053 283.628 16.5286C283.458 15.3429 283.209 14.1798 282.884 13.0533C282.775 12.7223 282.682 12.3706 282.574 12.0603C282.465 11.75 282.372 11.4604 282.264 11.1708L281.798 10.0537C281.167 8.63994 280.378 7.36329 279.457 6.26808C279.178 5.93709 278.899 5.64748 278.604 5.35786C278.115 4.88557 277.596 4.47031 277.054 4.11667L276.651 3.88911C276.146 3.61699 275.628 3.38895 275.1 3.20646C274.085 2.88178 273.044 2.72202 271.999 2.73066H12.1794C9.35397 2.56862 6.58634 3.83149 4.42702 6.26808C3.2141 7.70345 2.22835 9.44769 1.52763 11.3984C1.38783 11.7681 1.26359 12.1479 1.15552 12.5361C1.14684 12.6046 1.14684 12.6745 1.15552 12.743L1.06249 13.0326C1.06249 13.2395 0.938451 13.4463 0.891937 13.6532C0.798909 14.0049 0.721385 14.3359 0.643861 14.6668C0.566337 14.9978 0.643861 14.6668 0.643861 14.791V14.9978C0.643861 15.2254 0.550831 15.4323 0.519822 15.6598C0.488812 15.8874 0.395784 16.3218 0.34927 16.6734V17.0665C0.225967 17.9339 0.148255 18.8118 0.116699 19.6937V19.8385C0.116699 20.2315 0.116699 20.6246 0.116699 21.0176C0.117622 22.497 0.226671 23.9727 0.442299 25.4239C0.442299 25.7549 0.535327 26.0859 0.597346 26.4168C0.659365 26.7478 0.798908 27.4098 0.907441 27.9063C1.01597 28.4028 1.07799 28.5889 1.17102 28.9406C1.70614 30.996 2.55201 32.8829 3.65619 34.4842C4.76036 36.0855 6.0993 37.3671 7.58999 38.2496C9.06721 39.0472 10.6479 39.4479 12.2414 39.4287H271.906C273.487 39.4931 275.061 39.1097 276.522 38.3039C277.984 37.498 279.302 36.288 280.388 34.7536C280.496 34.5881 280.62 34.4226 280.729 34.2364C280.8 34.1312 280.868 34.0207 280.93 33.9054L281.271 33.3055C282.262 31.4254 282.992 29.3235 283.426 27.0995V26.872V26.6237L283.519 26.0859L283.612 25.4653C283.852 23.9966 283.982 22.4998 284 20.997C284 20.6453 284 20.2315 283.985 19.8385ZM278.403 25.3205C278.403 25.548 278.31 25.7962 278.248 26.0238C278.186 26.2514 278.248 26.2927 278.139 26.4375C278.031 26.5823 278.139 26.603 278.139 26.6858V26.934C277.778 28.363 277.13 29.6329 276.266 30.6064C275.403 31.5799 274.356 32.2199 273.24 32.4573C272.824 32.5429 272.404 32.5844 271.984 32.5815H12.1794C11.5998 32.5823 11.0221 32.492 10.4584 32.3125C9.3467 32.0112 8.32693 31.2769 7.52797 30.2025C7.37293 29.9956 7.23338 29.7681 7.09384 29.5405V29.4371L6.86127 29.0027L6.58218 28.3821L6.34961 27.8235C6.22557 27.4512 6.10154 27.0995 5.993 26.7271V26.541C5.993 26.541 5.993 26.3341 5.91548 26.2514C5.88633 26.1036 5.85008 25.9585 5.80694 25.8169C5.8138 25.7206 5.8138 25.6236 5.80694 25.5273C5.80694 25.2377 5.69841 24.9481 5.6519 24.6792C5.38167 23.4792 5.20502 22.2453 5.12474 20.997C5.10824 20.5628 5.10824 20.1278 5.12474 19.6937C5.20856 18.7359 5.34853 17.7883 5.54336 16.8596C5.54336 16.5286 5.68291 16.1977 5.76043 15.8667C5.7517 15.7913 5.7517 15.7145 5.76043 15.6391C5.82588 15.4751 5.89836 15.3162 5.9775 15.1633V14.9978C6.01233 14.87 6.05378 14.7456 6.10154 14.6255C6.18002 14.3783 6.268 14.1366 6.36512 13.9014C6.36512 13.798 6.44264 13.6946 6.48916 13.6118C6.516 13.5287 6.55264 13.4519 6.59769 13.3843C6.72286 13.1539 6.85744 12.9329 7.00081 12.7223L7.09384 12.5568C7.33942 12.1429 7.61464 11.7618 7.91559 11.419L8.36523 10.9433C9.48327 9.9076 10.8187 9.37164 12.1794 9.41244H271.844C272.859 9.38141 273.867 9.65723 274.79 10.2192C275.252 10.4986 275.681 10.8681 276.062 11.3156C276.32 11.6187 276.563 11.9434 276.79 12.2879C276.986 12.6038 277.168 12.9354 277.333 13.2808C277.788 14.2661 278.138 15.3314 278.372 16.4459C278.372 16.8389 278.527 17.2113 278.589 17.5837V17.7698C278.589 17.9146 278.589 18.0801 278.666 18.2249V18.3284C278.666 18.68 278.666 19.011 278.775 19.342C278.884 19.673 278.775 19.5903 278.775 19.7144C278.775 20.3764 278.775 20.8315 278.775 21.0383C278.78 22.4805 278.655 23.9182 278.403 25.3205Z" fill="#9E4000"/>
<path d="M284 18.3699V17.6666V16.5288C283.922 15.4063 283.783 14.2931 283.581 13.1983C283.581 12.8466 283.457 12.5156 283.38 12.1846C283.353 12.009 283.317 11.8362 283.271 11.6674C283.221 11.4992 283.179 11.3264 283.147 11.1503C283.147 11.1503 282.961 10.4676 282.853 10.1366C282.443 8.85385 281.922 7.63898 281.302 6.51648C281.134 6.16852 280.947 5.83672 280.744 5.52352C280.491 5.11807 280.222 4.73134 279.938 4.36507C279.705 4.05477 279.442 3.76516 279.178 3.45486C277.108 1.26863 274.53 0.11942 271.891 0.207059H12.1792C11.5931 0.208467 11.0077 0.263762 10.4272 0.372552C9.42 0.539972 8.43431 0.887885 7.49681 1.40688L7.18672 1.59306C6.8213 1.80435 6.46879 2.05335 6.13239 2.33778C3.61287 4.47993 1.75749 7.76341 0.907288 11.5847C0.909873 11.6536 0.909873 11.7227 0.907288 11.7916C0.907288 12.1019 0.767746 12.4122 0.705727 12.7225C0.698514 12.7911 0.698514 12.8607 0.705727 12.9293C0.698991 13.0187 0.698991 13.1088 0.705727 13.1983C0.705727 13.4051 0.705726 13.612 0.597193 13.8189C0.605867 13.8873 0.605867 13.9573 0.597193 14.0257C0.597193 14.336 0.504164 14.6463 0.473155 14.9566C0.473155 14.9566 0.473155 14.9566 0.473155 15.0807L0.380127 15.9289C0.380127 16.2599 0.380127 16.6115 0.380127 16.9425V17.2735C0.380127 17.7079 0.380127 18.1217 0.380127 18.5354C0.380127 18.9491 0.380127 19.3422 0.380127 19.7352V19.8593C0.444744 21.4174 0.626546 22.9629 0.922793 24.4725C0.922793 24.8655 1.07784 25.2379 1.17087 25.6102L1.2639 25.9619C1.29828 26.1236 1.33969 26.2824 1.38794 26.4377V26.6239L1.57399 27.2652C1.68253 27.5755 1.77555 27.8858 1.88409 28.1754L1.97712 28.4236C2.02785 28.5725 2.08479 28.7176 2.14767 28.858L2.30272 29.2511L2.38024 29.4166C3.3232 31.7968 4.73271 33.7909 6.45844 35.1863C8.18416 36.5816 10.1614 37.3258 12.1792 37.3395H271.844C274.029 37.3956 276.18 36.6207 278.046 35.1054C278.399 34.812 278.741 34.4944 279.069 34.1538C279.116 34.1315 279.154 34.0874 279.178 34.0297H279.271C279.504 33.7608 279.736 33.4918 279.969 33.1815C281.191 31.5311 282.151 29.568 282.791 27.41L282.884 27.0997C282.892 27.0035 282.892 26.9062 282.884 26.8101C282.89 26.7275 282.89 26.6444 282.884 26.5618V26.3756C282.977 26.0588 283.055 25.734 283.116 25.4034C283.505 23.6677 283.734 21.8756 283.798 20.0662C283.798 20.0662 283.798 20.0662 283.798 19.9421V19.7145C283.798 19.3836 283.798 19.0733 283.798 18.763V18.4733L284 18.3699Z" fill="url(#paint0_linear_27_7113)"/>
<g style="mix-blend-mode:multiply" opacity="0.4">
<path d="M280.697 5.37852H279.302H278.589H276.542H276.403C267.58 5.08891 89.1604 4.71655 77.4233 4.30282C62.7713 3.78565 47.313 3.22711 34.6767 2.70995L24.2575 2.25484H24.1799C19.8851 2.04798 16.2415 1.8618 13.4817 1.6963L7.52783 1.19982C8.46533 0.680827 9.45102 0.332913 10.4582 0.165493C24.1024 0.537852 63.8721 1.05502 72.8649 1.59287H72.9734C73.268 1.48944 86.1525 0.806778 97.9981 0H269.472C263.1 0.330986 89.0363 0.682659 84.8501 1.11708C83.2996 1.30326 78.8342 1.84111 77.4078 1.98592L87.5479 2.60651C95.5948 3.12368 270.03 3.62016 276.821 3.99252L279.504 4.15801H279.798C280.082 4.52428 280.352 4.91101 280.604 5.31646L280.697 5.37852Z" fill="#C97B3A"/>
<path d="M282.759 10.033C282.883 10.4054 282.992 10.7777 283.085 11.1501H282.31L276.03 11.2949C258.107 11.6672 63.7324 11.9569 41.4366 12.1637H32.6144H32.3043L7.17106 12.3706H6.22527H1.27925H0.643555C0.643555 12.0603 0.783096 11.75 0.845115 11.4397C0.775401 11.604 0.718263 11.7773 0.674563 11.9569C0.674563 11.7086 0.783097 11.4811 0.829612 11.2328H1.65136H6.45784H8.00831C23.6371 11.088 245.021 10.7157 274.805 10.1157L281.891 9.95026L282.759 10.033Z" fill="#C97B3A"/>
<path d="M283.984 17.6664H283.814H278.557C248.323 17.1285 21.6213 15.7218 6.20957 15.1012H5.82195L0.612353 14.7909H0.209229C0.209229 14.4806 0.286752 14.1703 0.333266 13.86C0.341941 13.7916 0.341941 13.7216 0.333266 13.6532H0.844924L5.89948 13.86H6.36462C21.8694 14.4806 248.091 15.9287 278.247 16.4045H283.581H283.845L283.984 17.6664Z" fill="#C97B3A"/>
<path d="M283.706 25.2997L283.613 25.9203L283.52 26.4582H278.14C247.626 26.4582 20.5368 26.0652 7.68336 25.8583H5.66774H1.18687H0.50466L0.318604 24.7205H0.89228H5.45068H7.1562C22.8315 24.9688 248.805 25.4032 278.403 25.3411H283.706V25.2997Z" fill="#C97B3A"/>
<path d="M281.255 33.202L280.914 33.8019C280.851 33.9172 280.784 34.0277 280.712 34.1329L279.162 33.9261L276.03 33.4089C273.394 33.0365 96.9275 32.809 90.617 32.6021C88.1983 32.6021 86.2137 32.4573 85.2059 32.3746L82.1049 32.6021C69.7941 33.4089 25.249 36.2016 21.9465 37.2773H21.8689C21.396 37.8889 20.989 38.5851 20.6596 39.346H19.6362C19.958 38.6255 20.3154 37.9344 20.7061 37.2773C20.9478 36.8094 21.28 36.4377 21.6674 36.2016C23.8691 35.4776 49.3899 33.2227 57.6384 32.6642L59.5145 32.5401C65.5148 32.2504 80.8335 31.9401 82.0274 31.6505C73.1122 30.9886 23.683 30.3266 16.6593 29.7887L11.2947 29.2716L7.85263 29.0026H6.7673L2.2089 28.6303H1.63523H1.15458C1.04605 28.2579 0.937511 27.8649 0.844482 27.4718H1.2321H1.74376L6.25564 27.8442H7.27896L9.29458 28.0097C15.0468 28.4648 63.6388 29.0647 72.1509 29.7267C79.6552 30.2852 261.3 31.5057 273.053 32.4573L279.921 33.0158L281.255 33.202Z" fill="#C97B3A"/>
</g>
<path d="M17.6675 2.21365C14.0838 1.85771 10.4838 1.91307 6.90723 2.37914C4.16289 3.08249 1.65112 9.30916 0.844868 11.4399C0.853259 11.5084 0.853259 11.5782 0.844868 11.6467C0.775154 11.8111 0.718016 11.9843 0.674316 12.1639C0.674316 11.9157 0.78285 11.6881 0.829365 11.4399C1.67956 7.61859 3.53494 4.33511 6.05447 2.19296C6.39086 1.90853 6.74337 1.65953 7.10879 1.44824L17.6675 2.21365Z" fill="#FFDE55"/>
<path d="M124.015 5.37875H121.922C110.852 5.37875 63.6551 5.04777 58.3524 4.69609L30.3198 2.62743L24.242 2.17233H24.1644L17.792 1.69653L41.2042 2.62743C54.9569 3.18597 70.8803 3.86863 77.4078 4.2203L80.1986 4.44785C83.1911 4.75815 110.821 5.1512 119.72 5.33738H119.86H121.875C122.578 5.39626 123.282 5.39626 123.984 5.33738L124.015 5.37875Z" fill="#FFDE55"/>
<path d="M279.891 4.19959H279.581C278.495 4.0341 277.457 3.90998 276.48 3.80655C273.379 3.45488 271.146 3.31007 271.146 3.31007L90.3384 2.77222C90.3384 2.77222 266.154 2.77222 274.96 3.08252L279.162 3.24801C279.426 3.55831 279.689 3.84792 279.922 4.15822L279.891 4.19959Z" fill="#FFDE55"/>
<g style="mix-blend-mode:overlay" opacity="0.5">
<path d="M283.209 11.6675H73.4382L283.054 11.0469C283.092 11.2593 283.144 11.467 283.209 11.6675Z" fill="#FFDE55"/>
</g>
<g style="mix-blend-mode:overlay" opacity="0.5">
<path d="M0.0232571 14.9978L37.8704 16.0942C37.8704 16.0942 3.85293 15.5357 1.57373 15.6805C0.534914 15.6805 -0.100781 17.2113 0.0232571 19.1765C-0.00775238 19.1765 -0.00775238 15.6391 0.0232571 14.9978Z" fill="#FFDE55"/>
</g>
<g style="mix-blend-mode:overlay" opacity="0.5">
<path d="M41.4355 12.1846L6.70487 13.3844H6.4568L1.12316 13.0534H0.549485C0.54275 12.964 0.54275 12.8739 0.549485 12.7845H1.15417H7.01497L32.3342 12.2673H32.5978L43.4512 12.1018L41.4355 12.1846Z" fill="#FFDE55"/>
</g>
<g style="mix-blend-mode:overlay" opacity="0.5">
<path d="M283.984 17.8526H283.845L278.573 17.7699L71.9346 17.1079L278.651 18.225L283.891 18.3698H284L283.984 17.8526Z" fill="#FFDE55"/>
</g>
<g style="mix-blend-mode:overlay" opacity="0.5">
<path d="M113.083 33.4089H115.626C117.998 33.4089 120.51 33.7192 122.433 33.9054L123.983 34.0709L113.083 33.4089Z" fill="#FFDE55"/>
</g>
<g style="mix-blend-mode:overlay" opacity="0.5">
<path d="M123.921 34.2571L122.37 34.1537L113.067 33.4917L123.921 34.2571Z" fill="#FFDE55"/>
</g>
<g style="mix-blend-mode:overlay" opacity="0.5">
<path d="M230.763 32.6643C234.252 32.8298 249.989 33.1608 254.873 33.4918C246.423 33.4918 69.6715 34.2985 59.5159 34.5468C59.5159 34.5468 222.251 33.1194 226.112 32.6643H226.685C226.996 32.6643 228.5 32.6643 230.686 32.6643H230.763Z" fill="#FFDE55"/>
</g>
<g style="mix-blend-mode:overlay" opacity="0.5">
<path d="M1.15503 28.9614L11.6207 29.9751L48.367 30.8232C48.367 30.8232 11.5742 30.9267 7.52748 30.2233C5.47462 29.8087 3.40182 29.5943 1.32558 29.582L1.15503 28.9614Z" fill="#FFDE55"/>
</g>
<g style="mix-blend-mode:overlay" opacity="0.5">
<path d="M126.759 26.7065H126.217L121.364 26.6859L70.7561 26.3962L126.759 26.7065Z" fill="#FFDE55"/>
</g>
<g style="mix-blend-mode:overlay" opacity="0.5">
<path d="M70.4463 26.3962H70.7564C73.6558 26.3962 106.526 26.7272 121.286 26.9341H126.139H126.698L70.4463 26.3962Z" fill="#FFDE55"/>
</g>
<g style="mix-blend-mode:overlay" opacity="0.5">
<path d="M0.50415 26.1067L9.807 26.3549L46.4137 26.2515C46.4137 26.2515 10.4582 27.2445 6.45798 26.7893C4.49633 26.5002 2.51895 26.4518 0.550664 26.6445L0.50415 26.1067Z" fill="#FFDE55"/>
</g>
<g style="mix-blend-mode:multiply">
<path d="M264.586 31.7333H18.8621C12.2261 31.7333 11.978 20.2316 11.978 18.9283C11.978 17.6251 12.1796 6.12329 18.8156 6.12329H264.586C271.222 6.12329 272.338 14.6876 272.338 18.9283C272.323 22.7553 271.222 31.7333 264.586 31.7333Z" fill="#9E4000"/>
</g>
<g style="mix-blend-mode:multiply">
<path fill-rule="evenodd" clip-rule="evenodd" d="M272.253 20.8327C271.894 16.3676 270.252 10.1233 264.586 10.1233H18.8156C13.6037 10.1233 12.3609 17.2182 12.0675 20.8947C11.9889 19.924 11.978 19.2017 11.978 18.9283C11.978 17.6251 12.1796 6.12329 18.8156 6.12329H264.586C271.222 6.12329 272.338 14.6876 272.338 18.9283C272.336 19.4725 272.312 20.1208 272.253 20.8327Z" fill="#9E4000"/>
</g>
<defs>
<linearGradient id="paint0_linear_27_7113" x1="63.624" y1="-0.28942" x2="63.624" y2="35.7467" gradientUnits="userSpaceOnUse">
<stop stop-color="#F0CA57"/>
<stop offset="1" stop-color="#D45B1A"/>
</linearGradient>
</defs>
</svg>
