<svg width="100" height="104" viewBox="0 0 100 104" fill="none" xmlns="http://www.w3.org/2000/svg">
<path fill-rule="evenodd" clip-rule="evenodd" d="M89.3552 39.5381C89.3563 39.5389 89.3573 39.5398 89.3584 39.5406C89.4467 39.6089 89.6979 39.7364 90.214 39.9604C90.214 41.5646 89.7759 43.1237 88.9659 44.4776C88.9655 44.4782 88.9652 44.4788 88.9648 44.4794C88.5969 45.094 88.1523 45.6664 87.6372 46.1815C86.9184 46.9003 86.0879 47.4819 85.1867 47.9094C84.0192 48.4631 82.7329 48.7583 81.4161 48.7583C81.3278 48.7583 81.2395 48.7539 81.1516 48.7495C81.0642 48.7451 80.9772 48.7407 80.8908 48.7407C80.4033 50.0845 79.5958 51.2892 78.5381 52.2507C77.4804 53.2122 76.2043 53.9015 74.8203 54.259C73.4362 54.6164 71.986 54.6313 70.5949 54.3022C69.2039 53.9732 67.914 53.3101 66.8368 52.3705C65.4361 53.5925 63.6844 54.3396 61.8329 54.5044C59.9813 54.6692 58.1252 54.2434 56.5307 53.288C55.7722 54.552 54.7082 55.6052 53.4365 56.3508C52.1648 57.0963 50.7261 57.5104 49.2526 57.555C47.7792 57.5995 46.3181 57.2731 45.0037 56.6057C44.4031 56.3008 43.842 55.9291 43.3301 55.4994C42.7217 54.9886 42.1828 54.3958 41.7301 53.7354C41.3239 54.1039 40.8705 54.4141 40.3831 54.6587C40.0755 54.8131 39.7542 54.9414 39.4228 55.0416C38.5663 55.3005 37.663 55.3657 36.7783 55.2324C35.8935 55.0991 35.0495 54.7706 34.3074 54.2709C33.92 54.01 33.5654 53.7058 33.2501 53.3652C32.9613 53.0533 32.7054 52.7107 32.4873 52.3428C32.1445 52.5986 31.7765 52.8163 31.39 52.9932C30.9612 53.1894 30.5095 53.3353 30.0439 53.4268C29.1587 53.6009 28.2456 53.5742 27.372 53.3487C26.4984 53.1232 25.6866 52.7046 24.9962 52.1237C24.3058 51.5429 23.7544 50.8146 23.3828 49.9925C23.1239 50.0202 22.8473 50.0202 22.596 50.0202C19.2626 50.0202 16.0658 48.696 13.7088 46.339C11.3517 43.9819 10.0276 40.7851 10.0276 37.4518C10.0276 37.2004 10.0276 36.9691 10.0628 36.7303C10.0615 36.7119 10.0615 36.6934 10.0628 36.675C10.2399 33.8319 11.3775 31.1333 13.2893 29.0215C15.2011 26.9097 17.7735 25.51 20.585 25.0518C20.8364 24.8079 21.0878 24.5767 21.3743 24.358C21.3391 24.1292 21.3391 23.8779 21.3391 23.6265C21.3393 22.2685 21.6943 20.9342 22.3691 19.7557C23.0438 18.5772 24.0148 17.5955 25.1858 16.9079C26.0412 16.4056 26.9815 16.073 27.9556 15.9243C28.315 15.8694 28.6791 15.8396 29.0451 15.8355C30.403 15.8205 31.7412 16.1605 32.9272 16.822C33.0339 15.0921 33.4965 13.4127 34.2757 11.885C34.6646 11.1225 35.1324 10.3978 35.6742 9.72348C37.3016 7.69813 39.5166 6.22688 42.0146 5.51221C44.5125 4.79753 47.1705 4.87455 49.6229 5.73266C52.0752 6.59077 54.2014 8.18781 55.7087 10.304C56.7662 9.70452 57.9492 9.36075 59.1633 9.30016C60.3773 9.23958 61.5887 9.46386 62.7006 9.95507C63.8125 10.4463 64.7941 11.1908 65.5668 12.1291C66.2621 12.9734 66.771 13.9536 67.062 15.0051C67.0943 15.1222 67.124 15.2402 67.151 15.359C67.3034 15.3207 67.4565 15.2859 67.6102 15.2548C68.952 14.9833 70.3368 14.9884 71.6796 15.2716C73.1761 15.5873 74.5809 16.2402 75.7871 17.1807C76.9932 18.1211 77.9689 19.3244 78.6399 20.6988C78.8445 21.118 79.0192 21.5498 79.1631 21.9909C79.491 22.9959 79.6593 24.0491 79.6591 25.1121C79.6591 25.2104 79.6547 25.3088 79.6502 25.4068C79.6459 25.5042 79.6415 25.6013 79.6415 25.6978C80.5004 25.5869 81.3637 25.5884 82.2108 25.6978C83.6411 25.8824 85.0251 26.3744 86.2636 27.152C88.2354 28.3902 89.7155 30.2753 90.4503 32.4847C90.4582 32.5061 90.4649 32.528 90.4704 32.5501C90.509 32.664 90.5442 32.7797 90.576 32.897C90.5794 32.9087 90.5838 32.9204 90.5883 32.9321C90.5972 32.9556 90.6062 32.9791 90.6062 33.0025C90.6363 33.1098 90.664 33.2179 90.6891 33.3268C90.6929 33.3411 90.6976 33.3555 90.7023 33.3699C90.7132 33.4035 90.7243 33.4374 90.7243 33.4726C90.7469 33.5706 90.7771 33.7064 90.7871 33.7692C90.7903 33.7892 90.7933 33.8061 90.7963 33.8228C90.8027 33.8587 90.8095 33.8935 90.8198 33.9552C90.8277 34.0026 90.8356 34.0547 90.8431 34.1045C90.85 34.1499 90.8566 34.1933 90.8626 34.2292C90.8751 34.3046 90.8827 34.3675 90.8927 34.458C90.8962 34.4891 90.8979 34.5173 90.8995 34.5448C90.9026 34.5971 90.9055 34.6467 90.9204 34.7093C90.9334 34.7643 90.9348 34.8317 90.936 34.891C90.9369 34.9348 90.9377 34.9742 90.943 35.0009C90.9556 35.0638 90.9556 35.1266 90.9556 35.1894C90.9681 35.3629 90.9681 35.5263 90.9681 35.6922C90.9722 37.0112 90.7163 38.3181 90.2151 39.5381C90.2147 39.539 90.2144 39.5398 90.214 39.5406V39.5381C90.214 39.5389 90.2142 39.5398 90.214 39.5406C90.208 39.5729 90.0839 39.5622 89.9302 39.5406C89.9244 39.5398 89.9185 39.539 89.9125 39.5381H89.3552ZM85.1867 53.2616L87.3626 52.2322C88.1718 51.8494 88.9358 51.3777 89.6407 50.8259L90.9169 49.8267C91.4113 49.4396 91.8803 49.0177 92.2692 48.5249C94.0829 46.2266 95.1267 43.4021 95.2325 40.4572C95.7411 38.9205 95.9995 37.3096 95.9955 35.6863L95.9955 35.665C95.9956 35.5356 95.9958 35.2917 95.981 35.0069C95.9798 34.9577 95.978 34.9019 95.9751 34.8439C95.9712 34.7671 95.9652 34.6751 95.955 34.5707C95.9522 34.5139 95.9482 34.4479 95.9423 34.3767C95.9348 34.2845 95.9231 34.1681 95.9041 34.035C95.9028 34.0259 95.9014 34.0168 95.9001 34.0075C95.897 33.9749 95.8935 33.9398 95.8893 33.9028C95.8773 33.7948 95.858 33.6225 95.8226 33.409C95.8222 33.4069 95.8219 33.4048 95.8215 33.4027L95.8213 33.401C95.8193 33.3877 95.817 33.3728 95.8129 33.3458C95.8065 33.3035 95.7935 33.2171 95.7788 33.1287C95.7718 33.0868 95.7654 33.0496 95.7593 33.0158C95.7538 32.9849 95.749 32.9587 95.7464 32.9445C95.7234 32.8063 95.693 32.658 95.668 32.5424C95.6247 32.3015 95.5744 32.1169 95.5426 32.0077C95.5297 31.9557 95.5165 31.9038 95.5029 31.8519C95.5019 31.8477 95.501 31.8435 95.5 31.8394C95.4579 31.6578 95.4116 31.5039 95.3752 31.3927C95.3429 31.2815 95.3088 31.1707 95.2729 31.0603C95.2522 30.9919 95.2301 30.9239 95.2067 30.8562C94.0991 27.5583 91.884 24.7449 88.937 22.8944C87.4387 21.9536 85.7984 21.2913 84.0942 20.9247C83.8534 20.0913 83.5405 19.2776 83.1576 18.4933C82.1512 16.4317 80.6876 14.6268 78.8784 13.2161C77.0692 11.8054 74.962 10.826 72.7172 10.3525C71.9072 10.1816 71.0871 10.0783 70.265 10.0422C70.0132 9.65907 69.7404 9.2888 69.4476 8.93317C68.1763 7.38948 66.5614 6.16461 64.7322 5.35648C62.903 4.54835 60.91 4.17938 58.9127 4.27905C58.337 4.30778 57.7654 4.37522 57.2019 4.4803C55.4871 2.94668 53.4786 1.75558 51.2833 0.987416C47.85 -0.213943 44.1288 -0.321768 40.6317 0.678779C37.1346 1.67933 34.0335 3.73907 31.7552 6.57456C30.7156 7.86838 29.8707 9.29469 29.2379 10.8081C29.1551 10.8074 29.0722 10.8075 28.9893 10.8085C26.7553 10.8333 24.5667 11.4414 22.6402 12.5727C20.7137 13.7039 19.1162 15.319 18.0062 17.2578C17.3505 18.403 16.8783 19.6378 16.6015 20.9172C13.9199 21.8909 11.499 23.5082 9.5623 25.6476C6.88956 28.6 5.29753 32.3716 5.04617 36.3458C4.99855 36.8196 4.99962 37.2221 5.00012 37.4074C5.00016 37.424 5.0002 37.4388 5.0002 37.4518C5.0002 42.1185 6.85404 46.594 10.1539 49.8939C13.0022 52.7422 16.7265 54.5131 20.6935 54.9444C21.0247 55.309 21.3808 55.652 21.7597 55.9708C23.0254 57.0356 24.5138 57.803 26.1154 58.2165C27.717 58.6299 29.3909 58.6788 31.0139 58.3597C31.1082 58.3412 31.2021 58.3214 31.2957 58.3005C31.363 58.348 31.4309 58.3948 31.4993 58.4409C32.8599 59.3571 34.4072 59.9592 36.0293 60.2036C37.6164 60.4427 39.2361 60.3335 40.776 59.884C41.3899 60.3373 42.0424 60.7404 42.7276 61.0883C44.7931 62.1371 47.0891 62.65 49.4046 62.58C51.72 62.51 53.9808 61.8593 55.9792 60.6877C56.7041 60.2627 57.386 59.7741 58.0177 59.2292C59.4063 59.5416 60.8434 59.6397 62.2787 59.512C63.8662 59.3706 65.4071 58.9569 66.8371 58.2982C67.669 58.6813 68.5399 58.9822 69.4376 59.1946C71.6235 59.7117 73.9025 59.6883 76.0774 59.1266C78.2523 58.5649 80.2576 57.4817 81.9197 55.9708C82.7219 55.2416 83.4324 54.4234 84.0391 53.5346C84.426 53.4599 84.8088 53.3687 85.1867 53.2616ZM95.9183 34.2519L95.9182 34.2506C95.9184 34.2534 95.9184 34.2541 95.9183 34.2519ZM91.862 35.1894H91.8624C91.8638 35.1902 91.8653 35.191 91.8667 35.1917C91.8651 35.1909 91.8635 35.1902 91.862 35.1894Z" fill="white"/>
<path d="M80.9132 25.6395C80.4871 25.6404 80.0614 25.6681 79.6388 25.7225C79.6388 25.5289 79.6564 25.3328 79.6564 25.1368C79.6567 23.6073 79.3082 22.0979 78.6372 20.7235C77.9662 19.3491 76.9905 18.1458 75.7844 17.2053C74.5782 16.2649 73.1735 15.6119 71.6769 15.2963C70.1804 14.9806 68.6316 15.0105 67.1483 15.3837C66.8821 14.1966 66.3417 13.0884 65.5703 12.1477C64.7989 11.207 63.818 10.46 62.7061 9.96643C61.5941 9.47289 60.3821 9.24654 59.167 9.30552C57.9519 9.36449 56.7675 9.70715 55.7085 10.306C54.2012 8.18986 52.075 6.59283 49.6227 5.73472C47.1703 4.8766 44.5123 4.79958 42.0144 5.51426C39.5165 6.22894 37.3014 7.70018 35.6741 9.72553C34.0467 11.7509 33.087 14.2308 32.927 16.824C31.6434 16.1086 30.1836 15.7708 28.7161 15.8495C27.2487 15.9283 25.8334 16.4203 24.6337 17.269C23.4339 18.1176 22.4986 19.2882 21.9356 20.6456C21.3727 22.0031 21.205 23.4921 21.4521 24.9407C18.7067 25.192 16.12 26.339 14.0906 28.2051C12.0612 30.0711 10.7017 32.5527 10.2215 35.2674C9.74123 37.9822 10.1669 40.7795 11.433 43.2286C12.699 45.6776 14.7352 47.6424 17.2278 48.8203C19.7204 49.9982 22.5311 50.3238 25.227 49.7471C27.923 49.1704 30.3544 47.7232 32.1469 45.6285C33.9394 43.5339 34.9935 40.908 35.1467 38.1554C35.2999 35.4027 34.5438 32.676 32.9949 30.3954C34.5837 29.4864 35.8032 28.0489 36.4412 26.3333C37.7766 27.7131 39.4104 28.7686 41.2172 29.4188C43.024 30.0689 44.9558 30.2964 46.8642 30.0838C48.7726 29.8712 50.607 29.2241 52.2264 28.1923C53.8458 27.1604 55.2073 25.7712 56.2063 24.1313C57.2495 24.629 58.391 24.8867 59.5469 24.8854C59.5469 24.9684 59.5469 25.0513 59.5469 25.1368C59.5452 26.5653 59.8482 27.9777 60.4357 29.2797C61.0233 30.5818 61.8819 31.7435 62.9542 32.6873C64.0265 33.6311 65.2878 34.3353 66.6539 34.7528C68.02 35.1703 69.4594 35.2916 70.8761 35.1085C70.8761 35.3021 70.8585 35.4982 70.8585 35.6942C70.8585 37.6829 71.4482 39.6269 72.553 41.2803C73.6579 42.9338 75.2282 44.2226 77.0655 44.9836C78.9027 45.7446 80.9244 45.9437 82.8748 45.5558C84.8252 45.1678 86.6168 44.2102 88.023 42.804C89.4292 41.3978 90.3868 39.6062 90.7748 37.6558C91.1627 35.7054 90.9636 33.6837 90.2026 31.8465C89.4416 30.0092 88.1528 28.4389 86.4994 27.334C84.8459 26.2292 82.9019 25.6395 80.9132 25.6395Z" fill="#437591"/>
<path d="M80.9131 25.6522C80.4869 25.6531 80.0612 25.6816 79.6387 25.7377H79.6211V25.7201C79.7003 24.1478 79.4174 22.5783 78.7941 21.1326C78.1524 19.697 77.1932 18.4258 75.9888 17.4149C74.7698 16.4223 73.3386 15.7238 71.806 15.3738C70.274 15.0258 68.6812 15.0456 67.1583 15.4316L67.108 15.4441L67.0954 15.3939C66.8245 14.2177 66.2841 13.1206 65.5168 12.1889C65.3267 11.9565 65.1236 11.7349 64.9085 11.5253C64.7979 11.4223 64.6823 11.3267 64.5717 11.2262L64.4007 11.0779L64.2198 10.9447C63.7428 10.5792 63.2238 10.272 62.6738 10.0297C62.1241 9.78925 61.549 9.61134 60.9595 9.49929C60.3679 9.39728 59.7672 9.35769 59.1673 9.38114C57.9639 9.44397 56.7921 9.78837 55.7461 10.3866L55.6833 10.4218L55.6406 10.3615C54.1419 8.26394 52.0303 6.68218 49.596 5.83369C47.1617 4.9852 44.5243 4.91167 42.0466 5.62319C40.8186 5.98211 39.6504 6.52085 38.5802 7.22189L37.7985 7.7749L37.0695 8.39829C36.946 8.50039 36.8301 8.61128 36.7226 8.7301L36.3883 9.07447C36.2802 9.1901 36.162 9.29819 36.0615 9.42387L35.7624 9.80344C34.9513 10.7953 34.3039 11.9104 33.8444 13.1064C33.3902 14.3052 33.1116 15.5633 33.0174 16.8418V16.9825L32.8968 16.9146C31.6304 16.2009 30.1853 15.8667 28.7341 15.9519C28.3732 15.9692 28.0138 16.0104 27.6583 16.0751C27.4823 16.1078 27.3089 16.1631 27.1329 16.2033L26.8815 16.2711C26.7936 16.2963 26.7106 16.3315 26.6302 16.3616C25.9356 16.5925 25.2784 16.9236 24.6795 17.3445L24.2447 17.6688C24.1089 17.7869 23.9757 17.9201 23.8425 18.0307C23.7064 18.1509 23.5788 18.2802 23.4604 18.4178C23.3423 18.5536 23.209 18.6692 23.1035 18.825C22.654 19.3924 22.2821 20.0171 21.9974 20.6827C21.7255 21.3538 21.5429 22.0578 21.4545 22.7766C21.4319 22.9575 21.4319 23.1385 21.4193 23.3195C21.4067 23.5005 21.3967 23.6815 21.4193 23.8625C21.4293 24.2239 21.4646 24.5843 21.5249 24.9408V25.0087H21.4595C18.7297 25.2661 16.1565 26.4002 14.1246 28.2413C12.1028 30.1022 10.7466 32.5745 10.2636 35.2796C10.0257 36.6231 10.0138 37.9968 10.2284 39.3442C10.4241 40.6943 10.8492 42.0009 11.4852 43.2078C12.7521 45.642 14.7833 47.5929 17.2667 48.7605L17.7267 48.9817L18.2043 49.1577C18.5193 49.2836 18.8416 49.3902 19.1696 49.4769C19.5014 49.5598 19.8281 49.6529 20.1599 49.7283L21.1654 49.8816C22.5182 50.0214 23.8845 49.9553 25.2175 49.6855C26.5478 49.3905 27.8212 48.8811 28.988 48.1773C30.1594 47.4865 31.2056 46.6027 32.0823 45.5631C32.9529 44.5253 33.6537 43.3562 34.1586 42.0992C34.6667 40.8402 34.9574 39.504 35.0183 38.1477C35.1851 35.4208 34.4406 32.7158 32.9018 30.4584L32.8314 30.3578L32.9395 30.2975C34.5034 29.3997 35.7039 27.9831 36.333 26.2932L36.3958 26.1223L36.524 26.253C37.8456 27.6217 39.4642 28.6684 41.2547 29.3121C43.0451 29.9559 44.9596 30.1795 46.8502 29.9657C48.7407 29.7597 50.5578 29.1187 52.1591 28.093C53.7586 27.0649 55.1065 25.6904 56.1031 24.0711L56.1584 23.9781L56.2564 24.0259C57.2848 24.5132 58.4088 24.7656 59.5468 24.7649H59.67V24.8855C59.6242 27.0405 60.2773 29.1524 61.5314 30.9055C62.7856 32.6585 64.5735 33.9585 66.6279 34.611C66.9722 34.7015 67.3166 34.797 67.6635 34.8623C68.0104 34.9277 68.3673 34.983 68.7218 35.0106C69.0762 35.0383 69.4331 35.0559 69.7901 35.0509C70.1465 35.045 70.5024 35.019 70.8559 34.9729L70.9966 34.9579V35.1037C70.9966 35.355 70.9665 35.6064 70.9841 35.8427L71.0193 36.5817C71.0344 36.8331 71.0871 37.0719 71.1173 37.3157L71.1726 37.6827L71.2631 38.0422C71.4894 39.0055 71.8651 39.9274 72.3767 40.7745L72.5677 41.0912L72.6657 41.2496L72.7763 41.3979L73.2187 41.9937C73.5359 42.3727 73.8785 42.7297 74.2443 43.062C74.4223 43.2333 74.6112 43.3928 74.8099 43.5396C75.011 43.6854 75.202 43.8437 75.4082 43.9795L76.0416 44.3666C76.2502 44.4998 76.484 44.5903 76.7027 44.7034C77.5977 45.1318 78.5546 45.4168 79.5381 45.548L79.9051 45.6033L80.2772 45.6234C80.5285 45.6234 80.7799 45.6586 81.0187 45.6511L81.7602 45.6159C81.8842 45.6123 82.0077 45.5997 82.1297 45.5782L82.4967 45.5229L82.8662 45.4676C82.9869 45.4475 83.1176 45.4098 83.2282 45.3796C83.467 45.3167 83.7109 45.2665 83.9471 45.1911L84.6459 44.9397C84.7633 44.8995 84.8776 44.8508 84.9878 44.7939L85.3221 44.633C86.2177 44.2011 87.0404 43.632 87.7604 42.9463C87.9471 42.7823 88.1218 42.605 88.2832 42.416C88.4563 42.2375 88.6183 42.0486 88.7684 41.8504L89.2133 41.2546L89.6004 40.6187C90.0929 39.7551 90.4546 38.8233 90.6737 37.8536C90.7082 37.7344 90.7325 37.6125 90.7466 37.4891L90.8045 37.1196L90.8598 36.7526C90.8748 36.6295 90.8748 36.5013 90.8849 36.3806C90.8849 36.1292 90.9151 35.8779 90.9176 35.6265L90.8824 34.8724C90.8681 34.6245 90.8387 34.3777 90.7944 34.1334C90.7648 33.8859 90.7187 33.6407 90.6562 33.3994L90.4701 32.678L90.2188 31.9766C89.8504 31.0491 89.3473 30.1809 88.7256 29.4001C88.0972 28.6265 87.3636 27.9446 86.5463 27.3741C85.7145 26.8218 84.8113 26.3854 83.8617 26.077C82.9022 25.8042 81.9105 25.6614 80.9131 25.6522ZM80.9131 25.6271C81.9144 25.6402 82.9095 25.7873 83.8717 26.0645C85.8035 26.6523 87.5128 27.8096 88.7759 29.385C89.4019 30.1692 89.91 31.0406 90.2841 31.9716L90.5355 32.6754L90.7265 33.4044C90.7899 33.6473 90.8369 33.8942 90.8673 34.1434C90.9151 34.3924 90.9462 34.6444 90.9603 34.8975L91.0005 35.6516C91.0005 35.903 90.9779 36.1544 90.9678 36.4057C90.9678 36.5314 90.9678 36.6571 90.9452 36.7828L90.8899 37.1548L90.8346 37.5268C90.8199 37.6515 90.7964 37.775 90.7642 37.8964C90.5501 38.8717 90.1953 39.8107 89.711 40.684L89.3189 41.3275L88.8714 41.9333C88.7213 42.1346 88.5584 42.326 88.3838 42.5065C88.221 42.6982 88.0454 42.8787 87.8584 43.0469C87.131 43.7438 86.3 44.3238 85.395 44.7663L85.0557 44.9296C84.9449 44.9886 84.8298 45.039 84.7113 45.0805L84.0024 45.3318C83.7636 45.4072 83.5173 45.4625 83.2735 45.5279C83.1528 45.5581 83.0221 45.5983 82.9065 45.6184L82.5345 45.6762L82.1624 45.734C82.0387 45.7561 81.9135 45.7695 81.7879 45.7742L81.0338 45.8145C80.7824 45.8145 80.531 45.7969 80.2797 45.7893L79.9026 45.7717L79.5306 45.7164C78.5289 45.5874 77.5535 45.3024 76.6399 44.8718C76.4161 44.7587 76.1799 44.6657 75.9637 44.5325L75.3177 44.1429C75.1065 44.0046 74.9104 43.8437 74.7068 43.6979C74.502 43.5493 74.308 43.3863 74.1262 43.2103C73.7513 42.8731 73.3994 42.5112 73.0729 42.1269L72.618 41.5311L72.5049 41.3803L72.4043 41.2194L72.2082 40.8977C71.6799 40.0341 71.2914 39.0924 71.057 38.1075L70.9615 37.7405L70.9036 37.366C70.8684 37.1146 70.8131 36.8632 70.7981 36.6119L70.7579 35.8578C70.7403 35.6064 70.7579 35.355 70.7579 35.1037L70.8936 35.2319C70.5318 35.2806 70.1676 35.3091 69.8027 35.3173C69.4382 35.3173 69.0737 35.2872 68.7092 35.2746C68.3447 35.262 67.9853 35.1715 67.6233 35.1238C67.2613 35.076 66.9144 34.9478 66.56 34.8548C64.4496 34.1938 62.6121 32.8631 61.3258 31.0642C60.0395 29.2653 59.3744 27.0963 59.4312 24.8855L59.5544 25.0087C58.3786 25.0141 57.2166 24.7565 56.1534 24.2546L56.3092 24.2094C55.2945 25.8601 53.9196 27.26 52.2873 28.3041C50.6526 29.3445 48.8015 29.9971 46.8757 30.2118C44.95 30.4266 43.0006 30.198 41.1768 29.5434C39.3549 28.8835 37.707 27.8176 36.3581 26.4264L36.5492 26.3862C35.8997 28.126 34.6618 29.5836 33.0501 30.5061L33.0878 30.3427C34.653 32.6408 35.4067 35.3955 35.2295 38.1703C35.1623 39.5516 34.8615 40.9116 34.3396 42.1922C33.8184 43.4711 33.0972 44.659 32.203 45.7114C31.3107 46.7604 30.2475 47.651 29.0584 48.3457C27.8759 49.0523 26.5863 49.5617 25.2401 49.8539C23.8916 50.1231 22.5101 50.1858 21.1428 50.04L20.1373 49.8841C19.803 49.8137 19.4712 49.7157 19.1318 49.6327C18.8004 49.5439 18.4746 49.4348 18.1565 49.306L17.6739 49.1275L17.2114 48.9038C14.7 47.7073 12.6543 45.7145 11.3922 43.2354C10.7552 42.0174 10.3302 40.6999 10.1354 39.3392C9.92369 37.9828 9.93983 36.6006 10.1831 35.2494C10.6654 32.5268 12.0287 30.0378 14.0633 28.1654C16.0978 26.2929 18.6911 25.1406 21.4444 24.8855L21.3891 24.9584C21.3272 24.5952 21.2902 24.2282 21.2785 23.86C21.2727 23.6764 21.2769 23.4926 21.2911 23.3095C21.2911 23.126 21.2911 22.9399 21.3263 22.759C21.4855 21.2869 22.063 19.8913 22.9903 18.7371C23.0959 18.5862 23.2417 18.458 23.3523 18.3198C23.4723 18.1797 23.6017 18.0478 23.7394 17.9251C23.8777 17.802 24.0109 17.6738 24.1492 17.5556L24.5916 17.2238C25.1924 16.7961 25.852 16.4575 26.5497 16.2184C26.6377 16.1882 26.7232 16.153 26.8011 16.1254L27.0675 16.055C27.2485 16.0122 27.4245 15.9569 27.6055 15.9243C27.9684 15.8567 28.3353 15.8131 28.7039 15.7935C30.1872 15.703 31.6653 16.0406 32.9621 16.7663L32.8289 16.8392C32.9202 15.5422 33.1996 14.2653 33.6584 13.0486C34.1214 11.8323 34.7756 10.6977 35.5965 9.68781L35.9182 9.3007C36.0213 9.17502 36.1394 9.06442 36.25 8.94376L36.5894 8.59436C36.6918 8.46959 36.8036 8.35278 36.9237 8.24496L37.6778 7.609L38.4646 7.03839C39.5514 6.32453 40.7371 5.77404 41.9837 5.4045C44.5029 4.68695 47.1826 4.769 49.6532 5.63934C52.1237 6.50967 54.2632 8.12537 55.7763 10.2634L55.6682 10.2408C56.7375 9.63528 57.9346 9.29078 59.1622 9.23535C59.7734 9.21132 60.3854 9.25431 60.9872 9.36355C61.5875 9.47837 62.1728 9.66138 62.7317 9.90902C63.2888 10.1576 63.8145 10.4715 64.2977 10.8441L64.4812 10.9824L64.6546 11.1332C64.7677 11.2337 64.8834 11.3343 64.994 11.4373C65.211 11.6518 65.4166 11.8775 65.6098 12.1135C66.3862 13.0645 66.9302 14.1833 67.1985 15.3813L67.1356 15.3436C68.6745 14.9575 70.2831 14.9429 71.8287 15.3009C73.3704 15.6605 74.8092 16.3691 76.0341 17.3721C77.2404 18.392 78.2003 19.6715 78.8419 21.115C79.4619 22.5685 79.7405 24.1447 79.6563 25.7226L79.6387 25.7075C80.0617 25.6586 80.4873 25.6359 80.9131 25.6396V25.6271Z" fill="#1E394A"/>
<path d="M22.093 44.7436C19.4259 44.7439 16.8277 43.8958 14.6745 42.3219C12.5213 40.7479 10.9245 38.5298 10.1153 35.9884C10.058 36.4748 10.0287 36.9641 10.0273 37.4539C10.0281 39.2671 10.4212 41.0586 11.1796 42.7056C11.9381 44.3526 13.0439 45.8159 14.4211 46.9952C15.7984 48.1746 17.4145 49.0419 19.1586 49.5378C20.9027 50.0336 22.7334 50.1463 24.5251 49.8679C26.3168 49.5896 28.0271 48.9269 29.5385 47.9252C31.05 46.9236 32.3268 45.6069 33.2814 44.0653C34.236 42.5237 34.8457 40.7938 35.0687 38.9944C35.2918 37.195 35.1228 35.3686 34.5735 33.6406C34.2144 36.6988 32.7452 39.5188 30.4446 41.5655C28.1441 43.6121 25.1722 44.743 22.093 44.7436Z" fill="#425A6D"/>
<path d="M90.3169 32.1324C89.8862 34.6122 88.5411 36.8403 86.5475 38.3765C84.5538 39.9127 82.0565 40.6453 79.5488 40.4296C77.0412 40.2139 74.7057 39.0656 73.0036 37.2116C71.3015 35.3575 70.3567 32.9325 70.3557 30.4156C70.3557 30.2195 70.3557 30.0235 70.3733 29.8299C68.9566 30.013 67.5172 29.8917 66.1511 29.4742C64.785 29.0566 63.5237 28.3525 62.4514 27.4087C61.3791 26.4648 60.5205 25.3031 59.933 24.0011C59.3454 22.699 59.0424 21.2866 59.0442 19.8581C59.0442 19.7727 59.0442 19.6897 59.0442 19.6068C57.8883 19.608 56.7468 19.3503 55.7035 18.8527C54.582 20.6949 53.0052 22.2175 51.125 23.2741C49.2448 24.3306 47.1243 24.8856 44.9675 24.8855C41.4232 24.8855 43.7333 28.2513 41.4484 25.891C40.8099 27.6154 40.008 25.994 38.432 26.8964C39.3017 28.1759 34.0003 27.8441 34.3523 29.4101C35.2748 28.5781 37.7407 31.3633 38.1806 30.1642C40.4655 32.5246 41.926 30.1642 45.4703 30.1642C47.627 30.1643 49.7475 29.6094 51.6278 28.5528C53.508 27.4963 55.0847 25.9736 56.2062 24.1314C57.2495 24.6291 58.391 24.8867 59.5469 24.8855C59.5469 24.9685 59.5469 25.0514 59.5469 25.1369C59.5451 26.5653 59.8481 27.9778 60.4357 29.2798C61.0233 30.5819 61.8818 31.7436 62.9541 32.6874C64.0264 33.6312 65.2877 34.3354 66.6538 34.7529C68.0199 35.1704 69.4594 35.2917 70.8761 35.1086C70.8761 35.3022 70.8585 35.4983 70.8585 35.6943C70.8588 37.1679 71.1831 38.6233 71.8083 39.9576C72.4335 41.292 73.3443 42.4726 74.4763 43.4159C75.6083 44.3593 76.9338 45.0423 78.359 45.4166C79.7841 45.7909 81.2742 45.8474 82.7236 45.5821C84.1731 45.3168 85.5465 44.7361 86.7467 43.8812C87.9469 43.0263 88.9445 41.918 89.6689 40.6349C90.3933 39.3517 90.8269 37.925 90.9388 36.4558C91.0508 34.9865 90.8385 33.5106 90.3169 32.1324Z" fill="#2F4B61"/>
<path d="M81.4159 31.1697C79.6083 31.1694 77.8444 31.7259 76.3643 32.7635C74.8841 33.8011 73.7595 35.2694 73.1433 36.9688C72.9699 36.9688 72.7939 36.9512 72.618 36.9512C70.4914 36.9486 68.4365 37.7196 66.8365 39.1205C65.8671 38.2757 64.7243 37.6538 63.4886 37.2983C62.2529 36.9429 60.9543 36.8626 59.6842 37.0632C58.4142 37.2638 57.2035 37.7403 56.1375 38.4593C55.0714 39.1782 54.1759 40.1221 53.514 41.2244C52.505 40.6198 51.3849 40.2237 50.2201 40.0594C49.0553 39.8952 47.8694 39.9663 46.7325 40.2683C45.5957 40.5704 44.5309 41.0974 43.6013 41.8182C42.6716 42.5389 41.8959 43.4388 41.3201 44.4646C40.2782 43.6756 39.0082 43.2463 37.7013 43.2413C36.3943 43.2363 35.1211 43.6559 34.0732 44.4369C33.3481 43.2132 32.2138 42.285 30.8708 41.8163C29.5278 41.3476 28.0623 41.3686 26.7332 41.8755C26.8237 41.4976 26.8693 41.1103 26.869 40.7217C26.8737 39.6637 26.5459 38.6309 25.9321 37.7692C25.3182 36.9075 24.4492 36.2604 23.4477 35.9192C22.4462 35.5779 21.3629 35.5599 20.3506 35.8675C19.3383 36.1752 18.4482 36.793 17.8059 37.6338C17.1637 38.4746 16.8017 39.4958 16.7712 40.5534C16.7406 41.6109 17.0429 42.6514 17.6355 43.5279C18.2281 44.4043 19.0811 45.0726 20.0739 45.4382C21.0667 45.8038 22.1493 45.8484 23.1688 45.5656C22.7514 46.785 22.7355 48.1061 23.1235 49.3353C23.5114 50.5644 24.2829 51.637 25.3247 52.3958C26.3666 53.1547 27.6241 53.5599 28.913 53.5521C30.2019 53.5443 31.4544 53.1239 32.487 52.3525C32.9432 53.1222 33.5649 53.7808 34.3071 54.2805C35.0492 54.7803 35.8933 55.1087 36.778 55.242C37.6628 55.3753 38.5661 55.3102 39.4225 55.0513C40.279 54.7924 41.0671 54.3462 41.7299 53.7451C42.564 54.9606 43.6901 55.9471 45.0049 56.6138C46.3197 57.2806 47.7809 57.6063 49.2544 57.561C50.7279 57.5157 52.1664 57.1009 53.4378 56.3546C54.7091 55.6083 55.7726 54.5546 56.5304 53.2901C58.1249 54.2455 59.9811 54.6714 61.8326 54.5065C63.6841 54.3417 65.4359 53.5947 66.8365 52.3726C67.9137 53.3123 69.2036 53.9753 70.5947 54.3044C71.9857 54.6334 73.436 54.6186 74.82 54.2611C76.204 53.9037 77.4801 53.2144 78.5378 52.2529C79.5956 51.2914 80.4031 50.0866 80.8905 48.7429C81.064 48.7429 81.2399 48.7604 81.4159 48.7604C83.7492 48.7604 85.987 47.8335 87.6369 46.1836C89.2868 44.5337 90.2138 42.2959 90.2138 39.9626C90.2138 37.6292 89.2868 35.3914 87.6369 33.7415C85.987 32.0916 83.7492 31.1647 81.4159 31.1647V31.1697Z" fill="#3C6579"/>
<path d="M26.3662 38.5198C26.3468 38.8019 26.3039 39.0819 26.238 39.3568C26.3738 39.3066 26.512 39.2638 26.6503 39.2211C26.5739 38.9803 26.4789 38.7458 26.3662 38.5198Z" fill="#223D50"/>
<path d="M26.3662 38.5322C26.4215 38.5825 26.4215 38.6705 26.4341 38.7409C26.4429 38.8126 26.4429 38.8852 26.4341 38.957C26.4194 39.0295 26.3931 39.0991 26.3562 39.1632C26.3183 39.2256 26.2927 39.2947 26.2808 39.3668L26.228 39.3215C26.2961 39.2924 26.361 39.2562 26.4215 39.2134C26.4835 39.17 26.5501 39.1338 26.6201 39.1053L26.5397 39.2562C26.4855 39.146 26.4425 39.0306 26.4115 38.9118C26.3964 38.8489 26.3838 38.7886 26.3738 38.7258C26.3637 38.6629 26.331 38.5875 26.3662 38.5322ZM26.3662 38.5071C26.4259 38.5486 26.4792 38.5986 26.5246 38.6554C26.566 38.7066 26.603 38.7613 26.6352 38.8188C26.701 38.9323 26.7461 39.0565 26.7684 39.1858L26.7911 39.3115L26.688 39.3366C26.6178 39.353 26.5463 39.3631 26.4743 39.3668C26.4006 39.367 26.3271 39.3763 26.2556 39.3944L26.1827 39.4145L26.2028 39.3492C26.2232 39.2799 26.2283 39.207 26.2179 39.1355C26.2067 39.0656 26.2067 38.9943 26.2179 38.9244C26.2299 38.8554 26.2467 38.7874 26.2682 38.7207C26.2885 38.6445 26.3217 38.5722 26.3662 38.5071Z" fill="#1E394A"/>
<path d="M22.3443 44.9949C22.3438 44.334 22.4525 43.6774 22.6661 43.0519C21.539 43.3659 20.3374 43.2744 19.2708 42.7935C18.2042 42.3126 17.3402 41.4726 16.8293 40.42C16.8293 40.5206 16.8142 40.6186 16.8142 40.7217C16.8142 42.055 17.3439 43.3338 18.2867 44.2766C19.2295 45.2194 20.5082 45.749 21.8416 45.749C22.0248 45.7488 22.2078 45.737 22.3896 45.7139C22.3592 45.4754 22.3441 45.2353 22.3443 44.9949Z" fill="#223D50"/>
<path d="M22.3444 44.995C22.3444 44.6645 22.367 44.3345 22.4122 44.0071C22.4537 43.677 22.5218 43.3509 22.6158 43.0318L22.6963 43.1147C22.1301 43.3036 21.5318 43.3771 20.9367 43.3309C20.3471 43.2811 19.7719 43.1225 19.24 42.8634C18.1874 42.3333 17.3257 41.4891 16.774 40.4477L16.8922 40.4226C16.8706 41.1403 16.9999 41.8545 17.2717 42.519C17.339 42.6836 17.4145 42.8447 17.498 43.0016C17.5809 43.16 17.684 43.3058 17.7745 43.4591C17.865 43.6124 17.9856 43.7432 18.1038 43.8789C18.2196 44.0123 18.3421 44.1398 18.4708 44.261C18.9889 44.7499 19.5989 45.131 20.2655 45.3821C20.94 45.6454 21.6654 45.752 22.3871 45.6938L22.367 45.7164C22.3594 45.4751 22.3444 45.2463 22.3444 44.995ZM22.3695 44.995C22.3871 45.2338 22.4022 45.4751 22.4223 45.7114V45.734H22.4022C21.669 45.8443 20.9205 45.7911 20.2102 45.5782C19.493 45.3578 18.8371 44.9731 18.2948 44.4545C17.7553 43.9384 17.3394 43.307 17.0782 42.6075C16.8171 41.908 16.7174 41.1585 16.7866 40.415L16.8067 40.1813L16.9022 40.3899C17.1443 40.911 17.479 41.3837 17.8901 41.785C18.3063 42.1807 18.7921 42.496 19.3229 42.7151C19.8497 42.9276 20.4057 43.059 20.9719 43.1047C21.5393 43.1533 22.1109 43.1135 22.6661 42.9865L22.7893 42.9589L22.7465 43.072C22.6279 43.377 22.5354 43.6915 22.47 44.0121C22.4007 44.3353 22.3628 44.6645 22.3569 44.995H22.3695Z" fill="#1E394A"/>
<path d="M89.7111 37.0013C89.7111 37.1497 89.7237 37.303 89.7237 37.4538C89.7237 39.7872 88.7968 42.0249 87.1468 43.6749C85.4969 45.3248 83.2591 46.2517 80.9258 46.2517C80.7498 46.2517 80.5739 46.2517 80.4004 46.2341C79.9137 47.5801 79.106 48.787 78.0473 49.7501C76.9886 50.7133 75.7109 51.4036 74.3251 51.7612C72.9392 52.1188 71.487 52.1329 70.0945 51.8023C68.7019 51.4716 67.4111 50.8063 66.3339 49.8639C64.9327 51.0851 63.1806 51.8313 61.3291 51.9952C59.4776 52.1591 57.6218 51.7324 56.0278 50.7763C55.2689 52.0406 54.2045 53.0939 52.9323 53.8394C51.6602 54.5849 50.221 54.9987 48.7471 55.0427C47.2733 55.0867 45.812 54.7596 44.4975 54.0915C43.1831 53.4233 42.0577 52.4354 41.2247 51.2187C40.562 51.8198 39.7738 52.266 38.9174 52.5249C38.0609 52.7838 37.1576 52.849 36.2728 52.7157C35.3881 52.5824 34.5441 52.254 33.8019 51.7542C33.0598 51.2544 32.4381 50.5958 31.9819 49.8262C31.2542 50.3696 30.4132 50.7417 29.5216 50.9148C28.63 51.0879 27.7109 51.0574 26.8327 50.8257C25.9545 50.5939 25.14 50.1669 24.4499 49.5764C23.7598 48.9859 23.2119 48.2473 22.8472 47.4155C22.8472 47.4457 22.8472 47.4759 22.8472 47.5085C22.847 48.6276 23.1582 49.7247 23.7458 50.6771C24.3335 51.6295 25.1745 52.3996 26.1747 52.9015C27.175 53.4033 28.2951 53.617 29.4099 53.5187C30.5247 53.4204 31.5901 53.014 32.4871 52.3449C32.9433 53.1146 33.565 53.7731 34.3072 54.2729C35.0493 54.7727 35.8933 55.1011 36.7781 55.2344C37.6628 55.3677 38.5662 55.3025 39.4226 55.0436C40.2791 54.7847 41.0672 54.3386 41.7299 53.7374C42.5634 54.9534 43.6891 55.9403 45.0035 56.6077C46.3179 57.2751 47.779 57.6016 49.2525 57.557C50.7259 57.5125 52.1646 57.0984 53.4363 56.3528C54.708 55.6072 55.772 54.554 56.5305 53.29C58.125 54.2454 59.9812 54.6713 61.8327 54.5065C63.6842 54.3416 65.4359 53.5946 66.8366 52.3725C67.9138 53.3122 69.2037 53.9752 70.5947 54.3043C71.9858 54.6333 73.4361 54.6185 74.8201 54.261C76.2041 53.9036 77.4802 53.2143 78.5379 52.2528C79.5956 51.2913 80.4032 50.0865 80.8906 48.7428C81.064 48.7428 81.24 48.7603 81.416 48.7603C82.8269 48.762 84.2175 48.4244 85.4706 47.7758C86.7236 47.1272 87.8023 46.1868 88.6156 45.0339C89.429 43.8809 89.953 42.5493 90.1437 41.1513C90.3344 39.7533 90.186 38.33 89.7111 37.0013Z" fill="#374D5C"/>
<path d="M89.7109 37.014C89.8223 38.8847 89.3318 40.7419 88.3114 42.3137C87.2909 43.8855 85.7941 45.0894 84.04 45.749C82.8723 46.1855 81.6277 46.3788 80.3826 46.3171L80.4555 46.2693C79.9614 47.6232 79.1483 48.8381 78.0851 49.8111C77.5553 50.3042 76.9638 50.7267 76.3256 51.068C75.6911 51.4152 75.0155 51.6812 74.3146 51.8598C72.9164 52.2259 71.45 52.2448 70.0428 51.9149C68.6357 51.5851 67.3304 50.9163 66.2407 49.967H66.3814C64.9644 51.2032 63.1916 51.9578 61.3183 52.1223C59.4451 52.2867 57.5679 51.8524 55.9572 50.882L56.0879 50.8493C55.3163 52.1231 54.2388 53.1841 52.9533 53.9361C51.0164 55.0529 48.7291 55.3971 46.5493 54.8998C44.3694 54.4025 42.4578 53.1004 41.1968 51.254H41.2773C40.6082 51.8588 39.8128 52.3069 38.9488 52.5656C38.0848 52.8243 37.174 52.8872 36.2826 52.7496C35.3934 52.6118 34.5449 52.2816 33.7966 51.7819C33.0518 51.2755 32.4251 50.6144 31.9591 49.8438H32.0244C31.2913 50.3915 30.4441 50.767 29.5459 50.9423C29.0985 51.0322 28.642 51.0685 28.186 51.0504C27.73 51.038 27.2769 50.9722 26.8362 50.8543C26.3922 50.7402 25.9641 50.5713 25.5617 50.3516C25.1563 50.1457 24.7766 49.8926 24.4306 49.5975C23.7327 49.0014 23.177 48.2568 22.8042 47.4181L22.9274 47.393C22.921 47.9471 22.9912 48.4995 23.136 49.0344C23.2086 49.3019 23.2976 49.5646 23.4025 49.8212C23.5166 50.073 23.645 50.318 23.7871 50.5552C23.9304 50.7916 24.0891 51.0183 24.2622 51.2339C24.3476 51.3445 24.4457 51.44 24.5387 51.5456L24.6769 51.6964L24.8328 51.8372C25.2363 52.2149 25.6917 52.5332 26.1851 52.7823C26.9222 53.1664 27.7351 53.3827 28.5656 53.4157C28.8408 53.4384 29.1174 53.4384 29.3926 53.4157C30.4977 53.3202 31.554 52.9171 32.4417 52.2519L32.5272 52.1866L32.585 52.2796C33.0395 53.032 33.6518 53.677 34.3797 54.1698C35.1095 54.6588 35.939 54.9791 36.808 55.1075C37.6769 55.2352 38.5632 55.1708 39.4046 54.9189C40.2441 54.6638 41.0166 54.226 41.6669 53.637L41.7649 53.549L41.8378 53.6571C42.6633 54.8546 43.7744 55.8274 45.0704 56.4875C47.0272 57.4831 49.2887 57.6995 51.3988 57.093C53.5089 56.4866 55.3104 55.1024 56.4398 53.2197L56.5027 53.1166L56.6057 53.1795C58.1748 54.1214 60.002 54.5422 61.825 54.3815C63.6481 54.2207 65.3734 53.4866 66.7535 52.2846L66.8364 52.2142L66.9194 52.2846C67.9788 53.2164 69.2499 53.875 70.6221 54.2031C71.9943 54.5313 73.4259 54.519 74.7922 54.1673C75.4737 53.9983 76.1315 53.745 76.7504 53.4132C77.373 53.0837 77.9509 52.6757 78.4697 52.1991C79.5189 51.2491 80.3234 50.06 80.815 48.7328L80.8351 48.6775H80.8954C82.3349 48.7649 83.7736 48.4946 85.0832 47.8907L85.5684 47.6594L86.0309 47.3804C86.3363 47.193 86.6301 46.9874 86.9107 46.7645C87.4691 46.3105 87.9697 45.7896 88.4013 45.2136C88.8372 44.6411 89.2026 44.0183 89.4897 43.3585C89.7677 42.6928 89.9627 41.9955 90.0704 41.2822C90.1047 41.1052 90.129 40.9265 90.1433 40.7468L90.1734 40.2063C90.194 39.846 90.1856 39.4845 90.1483 39.1255C90.1157 38.7662 90.0603 38.4094 89.9824 38.0571C89.9447 37.8812 89.8994 37.7052 89.8517 37.5318C89.8039 37.3583 89.7361 37.1748 89.7109 37.014ZM89.7109 36.9888C90.2241 38.3583 90.3773 39.8366 90.1558 41.2822C89.9594 42.7322 89.3923 44.1071 88.5094 45.2739C88.0723 45.8584 87.5658 46.3876 87.0012 46.85C86.7171 47.0794 86.4191 47.291 86.1088 47.4835L85.6312 47.76L85.141 47.9988C83.8116 48.6183 82.3499 48.9006 80.8854 48.8207L80.9658 48.7679C80.4727 50.1238 79.6595 51.3405 78.5954 52.3148C78.0658 52.8082 77.4743 53.2307 76.8358 53.5716C76.2059 53.9197 75.5344 54.1866 74.8375 54.3659C73.4366 54.7335 71.9671 54.7532 70.5569 54.4234C69.1466 54.0935 67.8384 53.424 66.7459 52.4731H66.9118C66.2046 53.0865 65.4067 53.5868 64.5464 53.9562C63.2508 54.5085 61.8428 54.7461 60.4377 54.6495C59.0326 54.553 57.6703 54.125 56.4624 53.4007L56.6283 53.3579C55.8561 54.6369 54.777 55.7031 53.4888 56.4598C52.1982 57.2113 50.7402 57.628 49.2474 57.6719C47.7547 57.7158 46.2747 57.3855 44.9422 56.7112C43.6145 56.029 42.4782 55.0258 41.6367 53.7928L41.8077 53.8129C40.7905 54.7361 39.4928 55.291 38.1226 55.3885C36.7525 55.486 35.3892 55.1206 34.2515 54.3508C33.4999 53.838 32.8693 53.1671 32.404 52.3851L32.5473 52.4153C31.6276 53.0967 30.5358 53.5076 29.3951 53.6018C29.1123 53.6231 28.8283 53.6231 28.5455 53.6018C28.2619 53.5876 27.9796 53.5531 27.7009 53.4987C27.144 53.3859 26.6053 53.1973 26.0997 52.9381C25.5945 52.68 25.1289 52.3507 24.7172 51.9603L24.5588 51.8145L24.418 51.6587C24.325 51.5506 24.222 51.45 24.1365 51.3394C23.9603 51.1175 23.7991 50.884 23.6539 50.6406C23.5086 50.3975 23.3785 50.1457 23.2642 49.8865C23.157 49.6246 23.0671 49.3559 22.9953 49.0822C22.8479 48.5349 22.7777 47.9697 22.7866 47.403V47.0989L22.9123 47.3804C23.2755 48.2018 23.8164 48.9324 24.4959 49.5195C24.8369 49.8141 25.2116 50.0672 25.612 50.2736C26.009 50.4917 26.431 50.6606 26.8689 50.7764C27.3011 50.8934 27.7459 50.9584 28.1936 50.9699C28.6425 50.9902 29.0922 50.9573 29.5334 50.8719C30.4179 50.7016 31.2529 50.3348 31.9767 49.7986L32.0169 49.7684L32.042 49.8111C32.4971 50.5732 33.112 51.2276 33.8443 51.7291C34.9558 52.4753 36.2854 52.8274 37.6206 52.729C38.9558 52.6305 40.2194 52.0873 41.2094 51.1861L41.2547 51.1434L41.2899 51.1937C42.1252 52.3988 43.2485 53.3761 44.5576 54.0366C46.5255 55.0334 48.7981 55.2471 50.9172 54.6346C53.0364 54.0222 54.8446 52.6291 55.9773 50.7362L56.0251 50.6557L56.1055 50.7035C57.2846 51.4061 58.6131 51.82 59.9827 51.9113C61.3522 52.0026 62.724 51.7688 63.9859 51.2288C64.8235 50.8675 65.6008 50.3801 66.2909 49.7835L66.3613 49.7206L66.4317 49.7835C67.4934 50.7165 68.7671 51.3758 70.142 51.704C71.5168 52.0321 72.951 52.0192 74.3196 51.6662C75.0023 51.4924 75.6608 51.2349 76.2803 50.8996C76.9035 50.5685 77.4821 50.1597 78.0022 49.6829C79.0514 48.7309 79.8558 47.5402 80.3474 46.2115L80.365 46.1613H80.4203C81.6459 46.2337 82.8731 46.0488 84.0229 45.6184C85.1727 45.1881 86.2198 44.5219 87.0967 43.6627C87.9744 42.7994 88.6597 41.7603 89.1076 40.6136C89.2239 40.3289 89.3205 40.0367 89.3967 39.7388L89.5148 39.2939C89.5526 39.1456 89.5651 38.9897 89.5928 38.8389L89.6657 38.3839C89.6807 38.2306 89.6858 38.0773 89.6958 37.9239L89.721 37.4639C89.6933 37.303 89.6958 37.1397 89.6958 36.9888H89.7109Z" fill="#1E394A"/>
<path d="M49.4922 30.1641C49.4919 28.6004 48.9888 27.0783 48.0572 25.8224C47.1256 24.5666 45.8148 23.6436 44.3185 23.1897C42.8221 22.7358 41.2195 22.7751 39.7472 23.3018C38.2749 23.8284 37.0109 24.8146 36.142 26.1146C34.9703 24.6379 33.4247 23.5019 31.6656 22.8245C29.9065 22.1471 27.9981 21.953 26.1386 22.2625C24.2792 22.5719 22.5365 23.3736 21.0915 24.5842C19.6466 25.7947 18.5522 27.3701 17.9219 29.1466C17.2916 30.9232 17.1484 32.836 17.5073 34.6866C17.8661 36.5371 18.7139 38.2579 19.9626 39.67C21.2112 41.0822 22.8152 42.1343 24.6079 42.717C26.4006 43.2998 28.3166 43.3919 30.1569 42.9839C30.9865 44.6388 32.4145 45.9161 34.1513 46.5566C35.8881 47.1971 37.8035 47.1529 39.5089 46.433C41.2143 45.713 42.5819 44.3712 43.3342 42.6799C44.0865 40.9885 44.1672 39.0743 43.5599 37.3256C45.2279 37.0095 46.7333 36.1211 47.8163 34.8137C48.8993 33.5062 49.492 31.8618 49.4922 30.1641Z" fill="#437891"/>
<path d="M49.4922 30.1641C49.4806 29.3897 49.3535 28.6212 49.1152 27.8842C48.8727 27.1489 48.5109 26.4585 48.0443 25.8406C47.3492 24.917 46.4429 24.1734 45.4013 23.6722C44.3597 23.1709 43.2132 22.9265 42.0577 22.9595C40.9022 22.9925 39.7715 23.3019 38.7601 23.8617C37.7488 24.4216 36.8864 25.2157 36.2451 26.1774L36.1622 26.3031L36.0667 26.185C35.4857 25.4612 34.816 24.8135 34.0733 24.257C32.9511 23.4237 31.6724 22.825 30.3137 22.4968C28.955 22.1686 27.5441 22.1175 26.1653 22.3466L25.8209 22.3969C25.7078 22.417 25.5947 22.4522 25.4815 22.4773L24.8054 22.6482C24.5842 22.7211 24.368 22.8041 24.1468 22.882L23.82 23.0002C23.7119 23.0479 23.6088 23.1007 23.5033 23.1485L22.8723 23.4501L22.2741 23.8121C22.176 23.8724 22.073 23.9277 21.9775 23.9956L21.6959 24.2042C21.5124 24.345 21.3189 24.4757 21.1404 24.6265C20.7853 24.9277 20.4495 25.2509 20.1349 25.5943L19.8986 25.8456C19.8174 25.9286 19.7426 26.0177 19.6749 26.1121L19.2551 26.6726C18.7255 27.4405 18.3026 28.2769 17.9983 29.1587L17.8776 29.488C17.8374 29.5961 17.8173 29.7117 17.7872 29.8248L17.6162 30.5035C17.571 30.7297 17.5433 30.9635 17.5081 31.1922L17.4553 31.5391C17.4378 31.6522 17.4403 31.7704 17.4327 31.886L17.4 32.5848C17.4 32.8161 17.4202 33.0499 17.4277 33.2811C17.502 34.6818 17.8676 36.0516 18.501 37.303L18.6544 37.6147C18.7046 37.7203 18.7725 37.8158 18.8303 37.9163L19.1948 38.5096C19.3331 38.6981 19.4738 38.8816 19.6146 39.0676L19.8258 39.3441L20.0595 39.5955C20.9736 40.6436 22.0937 41.4924 23.3499 42.0891C23.7673 42.2892 24.1972 42.4622 24.6369 42.6069C25.5226 42.8904 26.4426 43.0528 27.3718 43.0895C28.2997 43.1476 29.2311 43.0706 30.1369 42.8608L30.2324 42.8406L30.2776 42.9286C30.8887 44.1407 31.8307 45.1548 32.9945 45.8533C34.1583 46.5519 35.4963 46.9063 36.8533 46.8755C38.2103 46.8447 39.5308 46.43 40.6618 45.6794C41.7927 44.9288 42.6878 43.873 43.2432 42.6345C43.6163 41.8109 43.8287 40.9236 43.8691 40.0203C43.9233 39.1144 43.7995 38.2066 43.5046 37.3483L43.4795 37.2754L43.5549 37.2603C45.2189 36.96 46.7247 36.0852 47.8098 34.7884C48.8948 33.4916 49.4902 31.855 49.4922 30.1641ZM49.5174 30.1641C49.5155 31.8686 48.9236 33.5198 47.8422 34.8373C46.7607 36.1547 45.2565 37.0571 43.5851 37.391L43.6328 37.303C43.9476 38.1754 44.0869 39.1014 44.0426 40.0278C43.9974 41.4285 43.5523 42.787 42.7599 43.9429C41.9675 45.0987 40.8609 46.0037 39.5707 46.5508C37.8349 47.2859 35.884 47.331 34.1161 46.6771C32.3481 46.0231 30.8962 44.7194 30.0564 43.0317L30.1972 43.0996C29.2707 43.3074 28.3193 43.3818 27.3718 43.3208C26.4252 43.2781 25.4885 43.109 24.5867 42.818C24.137 42.6703 23.6985 42.4905 23.2745 42.2801C22.8476 42.0758 22.4352 41.8423 22.0403 41.5813C21.2489 41.0575 20.5312 40.4303 19.9062 39.7161L19.6699 39.4648L19.4562 39.1807C19.318 38.9897 19.1747 38.8037 19.0365 38.6101L18.672 38.0043C18.6142 37.9013 18.5463 37.8032 18.496 37.6977L18.3427 37.3784C17.7135 36.1067 17.354 34.7185 17.2869 33.3012C17.2869 33.0675 17.2568 32.8312 17.2618 32.5974L17.302 31.891C17.302 31.7729 17.302 31.6548 17.3246 31.5391L17.3799 31.1897C17.4176 30.9585 17.4478 30.7247 17.4931 30.4934L17.6715 29.8097C17.7042 29.6966 17.7268 29.581 17.767 29.4704L17.8902 29.1411C18.5307 27.3607 19.6251 25.7785 21.065 24.5511C21.2435 24.3952 21.437 24.2645 21.623 24.1187L21.9046 23.9076C22.0001 23.8372 22.1031 23.7819 22.2037 23.7191L22.8045 23.3496L23.4404 23.0379C23.546 22.9876 23.6516 22.9348 23.7597 22.887L24.089 22.7639C24.3102 22.6834 24.5314 22.5954 24.7526 22.5125L25.4388 22.3315C25.5519 22.3039 25.665 22.2687 25.7807 22.2486L26.1301 22.1933C28.0012 21.8674 29.9256 22.0524 31.7004 22.7287C33.4761 23.4078 35.0382 24.5489 36.225 26.0342H36.0465C36.703 25.0536 37.5862 24.2457 38.6213 23.679C39.6563 23.1123 40.8128 22.8036 41.9926 22.7789C43.1724 22.7542 44.3407 23.0144 45.3986 23.5373C46.4564 24.0602 47.3726 24.8305 48.0695 25.7828C48.535 26.4074 48.8958 27.1036 49.1378 27.844C49.3752 28.5947 49.4989 29.3768 49.5048 30.1641H49.5174Z" fill="#1E394A"/>
<path d="M49.4921 30.1643C49.4953 28.5568 48.9648 26.9936 47.9839 25.7201C47.9839 25.7779 47.9839 25.8332 47.9839 25.891C47.9837 27.5887 47.391 29.2332 46.308 30.5406C45.225 31.848 43.7196 32.7364 42.0516 33.0525C42.6589 34.8012 42.5782 36.7154 41.8259 38.4068C41.0736 40.0981 39.706 41.4399 38.0006 42.1599C36.2952 42.8798 34.3798 42.924 32.643 42.2835C30.9062 41.643 29.4782 40.3657 28.6486 38.7108C26.514 39.1855 24.2847 38.9847 22.2693 38.1362C20.2539 37.2878 18.5522 35.8335 17.3999 33.975C17.5808 35.4341 18.0645 36.8392 18.82 38.1005C19.5754 39.3618 20.586 40.4514 21.7869 41.2995C22.9879 42.1476 24.3527 42.7355 25.794 43.0256C27.2353 43.3157 28.7213 43.3015 30.1568 42.9841C30.9864 44.6389 32.4144 45.9162 34.1512 46.5568C35.888 47.1973 37.8034 47.1531 39.5088 46.4331C41.2142 45.7132 42.5818 44.3714 43.3341 42.68C44.0864 40.9887 44.1671 39.0744 43.5598 37.3258C45.2278 37.0096 46.7332 36.1212 47.8162 34.8138C48.8992 33.5064 49.4919 31.862 49.4921 30.1643Z" fill="#345866"/>
<path d="M67.3393 22.8745C66.117 22.874 64.9048 23.0963 63.7623 23.5306C63.5901 21.8833 63.0327 20.2996 62.1352 18.9076C61.2377 17.5156 60.0253 16.3542 58.596 15.5174C57.1667 14.6807 55.5605 14.1919 53.9073 14.0907C52.2541 13.9894 50.6003 14.2786 49.0796 14.9347C47.5588 15.5909 46.2138 16.5956 45.1532 17.8677C44.0926 19.1399 43.3461 20.6437 42.9742 22.2577C42.6023 23.8716 42.6153 25.5505 43.0122 27.1585C43.4092 28.7665 44.1788 30.2585 45.2591 31.5141C44.2715 32.6212 43.5412 33.9332 43.1205 35.3559C42.6998 36.7786 42.5992 38.2768 42.8258 39.743C43.0525 41.2092 43.6008 42.6071 44.4314 43.8364C45.262 45.0656 46.3544 46.0959 47.6302 46.8532C48.9059 47.6105 50.3335 48.0761 51.8104 48.2166C53.2874 48.357 54.7771 48.1689 56.1728 47.6658C57.5684 47.1626 58.8354 46.3568 59.8829 45.3061C60.9304 44.2555 61.7324 42.9861 62.2315 41.5889C63.5633 42.3747 65.0584 42.8428 66.6006 42.9567C68.1427 43.0706 69.6904 42.8272 71.1232 42.2455C72.556 41.6639 73.8353 40.7596 74.8617 39.6029C75.8881 38.4463 76.6338 37.0685 77.041 35.5767C77.4482 34.0849 77.5058 32.5193 77.2093 31.0016C76.9128 29.4839 76.2703 28.0551 75.3317 26.8261C74.393 25.5972 73.1836 24.6014 71.7974 23.916C70.4112 23.2306 68.8856 22.8742 67.3393 22.8745Z" fill="#4B849E"/>
<path d="M67.3393 22.8871C66.1191 22.8903 64.9097 23.1152 63.7699 23.5507H63.7447V23.5231C63.5597 21.8837 62.996 20.3098 62.0983 18.9256C61.8723 18.583 61.6264 18.2539 61.3618 17.9402C61.226 17.7869 61.0978 17.626 60.9596 17.4752L60.5197 17.0453C60.4468 16.975 60.3739 16.8995 60.2985 16.8317L60.0622 16.6381L59.5871 16.2485L59.0844 15.9016L58.833 15.7282C58.745 15.6754 58.6545 15.6276 58.5665 15.5773C57.1451 14.7593 55.5524 14.2843 53.9151 14.19C52.2778 14.0958 50.6411 14.3849 49.1352 15.0344C47.6257 15.6913 46.2862 16.6843 45.2189 17.9377C44.1704 19.1985 43.4287 20.6853 43.0521 22.2813C42.6758 23.8826 42.6835 25.5501 43.0747 27.1478C43.4661 28.7473 44.2262 30.2331 45.2943 31.4864L45.322 31.5191L45.2943 31.5493C44.8046 32.0992 44.3741 32.6991 44.0098 33.339C43.6509 33.9821 43.365 34.6634 43.1577 35.3701C42.9499 36.0757 42.8226 36.8026 42.7781 37.5369C42.7505 37.9042 42.7505 38.2731 42.7781 38.6404L42.8058 39.1909C42.8259 39.3719 42.8611 39.5529 42.8862 39.7338C43.108 41.1902 43.6532 42.5784 44.4819 43.7963C45.3105 45.0143 46.4015 46.0311 47.6748 46.7721C48.9377 47.5236 50.3535 47.9815 51.8173 48.1119C52.1818 48.1119 52.5488 48.1597 52.9133 48.1496L53.4613 48.1245C53.6448 48.1245 53.8232 48.0843 54.0067 48.0667C54.3712 48.034 54.7256 47.941 55.0851 47.8731L55.6105 47.7223C55.6984 47.6972 55.7864 47.6746 55.8618 47.6469L56.1132 47.5514C57.4988 47.0568 58.7574 46.261 59.7982 45.2212C60.3119 44.7009 60.7694 44.128 61.1632 43.5119C61.5487 42.892 61.8697 42.2342 62.1209 41.5487L62.1712 41.4155L62.2943 41.4859C63.6095 42.2629 65.0868 42.7249 66.6103 42.8357C68.1323 42.9326 69.6569 42.6914 71.0746 42.1294C72.4881 41.5525 73.7492 40.657 74.7597 39.5126C75.0161 39.2322 75.2545 38.9358 75.4736 38.6253C75.5887 38.474 75.6936 38.3153 75.7878 38.1502L76.0869 37.6626L76.3383 37.1598C76.4274 36.9925 76.5055 36.8195 76.5721 36.642C76.718 36.2893 76.8406 35.9274 76.939 35.5586C77.3431 34.0843 77.411 32.538 77.1376 31.034C76.8507 29.5248 76.2164 28.1031 75.285 26.8814C74.3565 25.6499 73.1567 24.6489 71.7787 23.9562C70.4007 23.2635 68.8816 22.8977 67.3393 22.8871ZM67.3393 22.862C69.6796 22.8604 71.9484 23.669 73.7602 25.1504C75.572 26.6318 76.8151 28.6947 77.2784 30.9887C77.5756 32.518 77.5241 34.0947 77.1276 35.6013C76.7255 37.1127 75.9776 38.5099 74.9428 39.6825C73.908 40.8552 72.6147 41.7712 71.1651 42.3581C69.712 42.9328 68.1496 43.1783 66.5902 43.077C65.0299 42.9616 63.5174 42.4867 62.1712 41.6895L62.3421 41.6292C62.0828 42.3312 61.7526 43.005 61.3567 43.6401C60.9543 44.2744 60.4859 44.8642 59.9591 45.3997C58.8973 46.452 57.6168 47.2579 56.2087 47.76L55.9448 47.8555C55.8568 47.8857 55.7663 47.9083 55.6758 47.9335L55.1354 48.0818C54.7711 48.1643 54.4027 48.2281 54.0319 48.2728C53.8458 48.2904 53.6623 48.3231 53.4763 48.3281L52.9158 48.3482C52.5438 48.3482 52.1617 48.3155 51.7997 48.303C50.3101 48.158 48.8721 47.6803 47.5918 46.9054C46.3126 46.1353 45.215 45.0978 44.3743 43.8638C43.5464 42.6226 43.0023 41.2142 42.7806 39.7389C42.7555 39.5554 42.7228 39.3719 42.7027 39.1884L42.6776 38.6303C42.6512 38.2604 42.6512 37.8892 42.6776 37.5193C42.7282 36.778 42.8605 36.0446 43.0722 35.3324C43.2887 34.6226 43.5777 33.9369 43.9344 33.2862C44.2967 32.6381 44.7274 32.0305 45.2189 31.4739V31.5367C44.1272 30.2786 43.3483 28.7804 42.9456 27.1641C42.5428 25.5479 42.5276 23.8593 42.9013 22.2361C43.2749 20.6098 44.02 19.0922 45.0781 17.802C46.1557 16.5255 47.5084 15.5097 49.0347 14.8308C50.5714 14.1802 52.2392 13.8984 53.9044 14.0079C55.5696 14.1175 57.1861 14.6154 58.6244 15.4617C58.7148 15.512 58.8079 15.5623 58.8958 15.6176L59.1472 15.7935L59.6499 16.148L60.1275 16.5476L60.3789 16.7462C60.4543 16.8166 60.5247 16.892 60.6001 16.9649L61.0375 17.4048C61.1757 17.5606 61.3039 17.724 61.4372 17.8799C62.7614 19.4869 63.5786 21.451 63.7849 23.5231L63.7573 23.5055C64.9033 23.0801 66.1169 22.8663 67.3393 22.8746V22.862Z" fill="#1E394A"/>
<path d="M75.0261 26.4514C75.0958 26.9318 75.1311 27.4164 75.1317 27.9018C75.1315 29.6746 74.6626 31.4158 73.7726 32.9489C72.8825 34.4821 71.6029 35.7527 70.0635 36.6318C68.5241 37.511 66.7796 37.9676 65.0069 37.9552C63.2341 37.9429 61.4962 37.462 59.9692 36.5614C59.3744 38.2269 58.3509 39.7059 57.002 40.8495C55.6531 41.993 54.0264 42.7606 52.2861 43.0747C50.5458 43.3888 48.7534 43.2383 47.0898 42.6385C45.4262 42.0387 43.9502 41.0107 42.8108 39.6583C43.1338 41.8799 44.191 43.9295 45.814 45.4806C47.437 47.0317 49.5324 47.995 51.7663 48.217C54.0003 48.4391 56.2443 47.9072 58.1409 46.7059C60.0374 45.5047 61.4775 43.7034 62.2315 41.5888C64.2758 42.7919 66.6797 43.2335 69.0182 42.8355C71.3566 42.4376 73.4791 41.2256 75.0103 39.414C76.5416 37.6024 77.3831 35.3077 77.3859 32.9356C77.3888 30.5635 76.553 28.2668 75.0261 26.4514Z" fill="#3F617A"/>
<path d="M58.166 67.8557L58.5601 67.7872L58.4511 67.1605L57.9335 67.5302L58.166 67.8557ZM58.166 67.8557C58.5601 67.7872 58.5601 67.7872 58.5601 67.7873L58.5602 67.7876L58.5603 67.7886L58.5609 67.7921L58.5632 67.8054L58.5716 67.8556C58.5789 67.8994 58.5892 67.9634 58.602 68.045C58.6274 68.208 58.6622 68.4418 58.7 68.726C58.7754 69.2938 58.863 70.066 58.9109 70.8801C58.9587 71.6914 58.9678 72.5579 58.8815 73.3097C58.8384 73.6857 58.7702 74.0439 58.6657 74.3572C58.5625 74.6671 58.4151 74.9592 58.1975 75.1769C57.6634 75.7109 56.7412 76.0545 55.8434 75.9974C54.9151 75.9383 53.9843 75.4465 53.5213 74.2885L53.5213 74.2884C53.2087 73.5068 53.4021 72.6714 53.7785 71.9187C54.1573 71.1609 54.7532 70.4208 55.3623 69.7797C55.9744 69.1353 56.6163 68.574 57.1033 68.1748C57.3473 67.9748 57.5536 67.8146 57.6994 67.704C57.7723 67.6486 57.8301 67.6057 57.8701 67.5763L57.9163 67.5426L57.9286 67.5337L57.932 67.5313L57.933 67.5306L57.9333 67.5304C57.9334 67.5303 57.9335 67.5302 58.166 67.8557Z" fill="#294A59" stroke="white" stroke-width="0.8" stroke-miterlimit="10"/>
<path d="M74.505 66.0962L74.8991 66.0277L74.7901 65.401L74.2725 65.7707L74.505 66.0962ZM74.505 66.0962C74.8991 66.0277 74.8991 66.0277 74.8991 66.0278L74.8991 66.0281L74.8993 66.0291L74.8999 66.0326L74.9022 66.0458L74.9106 66.0961C74.9178 66.1399 74.9282 66.2039 74.9409 66.2854C74.9664 66.4485 75.0012 66.6823 75.039 66.9665C75.1144 67.5342 75.202 68.3065 75.2499 69.1205C75.2976 69.9318 75.3068 70.7984 75.2205 71.5501C75.1774 71.9262 75.1092 72.2844 75.0047 72.5977C74.9014 72.9076 74.7541 73.1997 74.5365 73.4173C74.0024 73.9514 73.0802 74.295 72.1824 74.2378C71.2541 74.1787 70.3233 73.6869 69.8603 72.529L69.8603 72.5289C69.5477 71.7473 69.7411 70.9118 70.1175 70.1591C70.4963 69.4014 71.0922 68.6613 71.7013 68.0202C72.3134 67.3758 72.9553 66.8145 73.4423 66.4153C73.6863 66.2153 73.8926 66.055 74.0384 65.9444C74.1113 65.8891 74.1691 65.8462 74.2091 65.8168L74.2552 65.7831L74.2676 65.7742L74.271 65.7718L74.272 65.7711L74.2723 65.7708C74.2724 65.7708 74.2725 65.7707 74.505 66.0962Z" fill="#294A59" stroke="white" stroke-width="0.8" stroke-miterlimit="10"/>
<path d="M65.707 80.9268L66.1011 80.8583L65.9921 80.2316L65.4745 80.6013L65.707 80.9268ZM65.707 80.9268C66.1011 80.8583 66.1011 80.8584 66.1011 80.8584L66.1012 80.8587L66.1013 80.8597L66.1019 80.8633L66.1042 80.8765L66.1126 80.9268C66.1199 80.9705 66.1303 81.0345 66.143 81.1161C66.1684 81.2792 66.2032 81.5129 66.241 81.7971C66.3164 82.3649 66.4041 83.1371 66.4519 83.9512C66.4997 84.7625 66.5088 85.629 66.4225 86.3808C66.3794 86.7568 66.3112 87.115 66.2068 87.4283C66.1035 87.7382 65.9562 88.0303 65.7385 88.248C65.2045 88.782 64.2822 89.1256 63.3844 89.0685C62.4561 89.0094 61.5253 88.5176 61.0624 87.3596L61.0623 87.3595C60.7497 86.5779 60.9431 85.7425 61.3195 84.9898C61.6984 84.232 62.2942 83.4919 62.9033 82.8508C63.5154 82.2065 64.1573 81.6451 64.6443 81.2459C64.8883 81.0459 65.0946 80.8857 65.2404 80.7751C65.3133 80.7198 65.3712 80.6768 65.4111 80.6474L65.4573 80.6137L65.4696 80.6048L65.473 80.6024L65.474 80.6017L65.4743 80.6015C65.4744 80.6014 65.4745 80.6013 65.707 80.9268Z" fill="#3E6373" stroke="white" stroke-width="0.8" stroke-miterlimit="10"/>
<path d="M55.401 94.7522L55.7951 94.6837L55.6861 94.057L55.1685 94.4267L55.401 94.7522ZM55.401 94.7522C55.7951 94.6837 55.7951 94.6837 55.7951 94.6838L55.7951 94.6841L55.7953 94.6851L55.7959 94.6886L55.7982 94.7019L55.8066 94.7521C55.8138 94.7959 55.8242 94.8599 55.8369 94.9414C55.8624 95.1045 55.8972 95.3383 55.935 95.6225C56.0104 96.1903 56.098 96.9625 56.1459 97.7765C56.1936 98.5878 56.2028 99.4544 56.1165 100.206C56.0734 100.582 56.0052 100.94 55.9007 101.254C55.7974 101.564 55.6501 101.856 55.4324 102.073C54.8984 102.607 53.9762 102.951 53.0784 102.894C52.1501 102.835 51.2193 102.343 50.7563 101.185L50.7563 101.185C50.4437 100.403 50.6371 99.5678 51.0135 98.8152C51.3923 98.0574 51.9882 97.3173 52.5973 96.6762C53.2094 96.0318 53.8513 95.4705 54.3383 95.0713C54.5823 94.8713 54.7886 94.711 54.9344 94.6004C55.0073 94.5451 55.0651 94.5022 55.1051 94.4728L55.1512 94.4391L55.1636 94.4302L55.167 94.4278L55.168 94.4271L55.1683 94.4268C55.1684 94.4268 55.1685 94.4267 55.401 94.7522Z" fill="#233F55" stroke="white" stroke-width="0.8" stroke-miterlimit="10"/>
<path d="M48.1113 81.4296L48.5054 81.361L48.3964 80.7344L47.8788 81.1041L48.1113 81.4296ZM48.1113 81.4296C48.5054 81.361 48.5054 81.3611 48.5054 81.3612L48.5055 81.3615L48.5056 81.3625L48.5062 81.366L48.5085 81.3792L48.5169 81.4295C48.5242 81.4733 48.5346 81.5372 48.5473 81.6188C48.5727 81.7819 48.6075 82.0157 48.6453 82.2999C48.7207 82.8676 48.8084 83.6399 48.8562 84.4539C48.904 85.2652 48.9131 86.1318 48.8268 86.8835C48.7837 87.2595 48.7155 87.6178 48.6111 87.9311C48.5078 88.241 48.3605 88.533 48.1428 88.7507C47.6088 89.2847 46.6865 89.6284 45.7887 89.5712C44.8604 89.5121 43.9296 89.0203 43.4666 87.8623L43.4666 87.8622C43.154 87.0807 43.3474 86.2452 43.7238 85.4925C44.1027 84.7348 44.6985 83.9947 45.3076 83.3535C45.9197 82.7092 46.5616 82.1479 47.0486 81.7486C47.2926 81.5486 47.4989 81.3884 47.6447 81.2778C47.7176 81.2225 47.7755 81.1795 47.8154 81.1502L47.8616 81.1165L47.8739 81.1076L47.8773 81.1051L47.8783 81.1044L47.8786 81.1042C47.8787 81.1041 47.8788 81.1041 48.1113 81.4296Z" fill="#3E6373" stroke="white" stroke-width="0.8" stroke-miterlimit="10"/>
<path d="M36.7998 93.4954L37.1939 93.4268L37.0849 92.8002L36.5673 93.1699L36.7998 93.4954ZM36.7998 93.4954C37.1939 93.4268 37.1939 93.4269 37.1939 93.427L37.1939 93.4273L37.1941 93.4283L37.1947 93.4318L37.197 93.445L37.2054 93.4953C37.2126 93.5391 37.223 93.603 37.2357 93.6846C37.2612 93.8477 37.296 94.0815 37.3338 94.3657C37.4092 94.9334 37.4968 95.7057 37.5447 96.5197C37.5924 97.331 37.6016 98.1976 37.5153 98.9493C37.4722 99.3253 37.404 99.6836 37.2995 99.9969C37.1962 100.307 37.0489 100.599 36.8313 100.817C36.2972 101.351 35.375 101.694 34.4772 101.637C33.5489 101.578 32.6181 101.086 32.1551 99.9281L32.1551 99.928C31.8425 99.1465 32.0359 98.311 32.4123 97.5583C32.7911 96.8006 33.387 96.0605 33.9961 95.4193C34.6082 94.775 35.2501 94.2136 35.7371 93.8144C35.9811 93.6144 36.1874 93.4542 36.3332 93.3436C36.4061 93.2883 36.4639 93.2453 36.5039 93.216L36.55 93.1823L36.5624 93.1734L36.5658 93.1709L36.5668 93.1702L36.5671 93.17C36.5672 93.1699 36.5673 93.1699 36.7998 93.4954Z" fill="#233F55" stroke="white" stroke-width="0.8" stroke-miterlimit="10"/>
<path d="M30.0128 80.1727L30.4069 80.1042L30.2979 79.4775L29.7803 79.8472L30.0128 80.1727ZM30.0128 80.1727C30.4069 80.1042 30.4069 80.1043 30.4069 80.1044L30.407 80.1046L30.4071 80.1056L30.4077 80.1092L30.41 80.1224L30.4184 80.1727C30.4257 80.2165 30.436 80.2804 30.4488 80.362C30.4742 80.5251 30.509 80.7588 30.5468 81.043C30.6222 81.6108 30.7098 82.383 30.7577 83.1971C30.8055 84.0084 30.8146 84.8749 30.7283 85.6267C30.6852 86.0027 30.617 86.3609 30.5125 86.6743C30.4093 86.9841 30.2619 87.2762 30.0443 87.4939C29.5102 88.0279 28.588 88.3715 27.6902 88.3144C26.7619 88.2553 25.8311 87.7635 25.3681 86.6055L25.3681 86.6054C25.0555 85.8238 25.2489 84.9884 25.6253 84.2357C26.0041 83.4779 26.6 82.7379 27.2091 82.0967C27.8212 81.4524 28.4631 80.891 28.9501 80.4918C29.1941 80.2918 29.4004 80.1316 29.5462 80.021C29.6191 79.9657 29.6769 79.9227 29.7169 79.8934L29.7631 79.8597L29.7754 79.8507L29.7788 79.8483L29.7798 79.8476L29.7801 79.8474C29.7802 79.8473 29.7803 79.8472 30.0128 80.1727Z" fill="#3E6373" stroke="white" stroke-width="0.8" stroke-miterlimit="10"/>
<path d="M39.8161 66.0962L40.2102 66.0277L40.1012 65.401L39.5836 65.7707L39.8161 66.0962ZM39.8161 66.0962C40.2102 66.0277 40.2102 66.0277 40.2102 66.0278L40.2103 66.0281L40.2105 66.0291L40.2111 66.0326L40.2133 66.0458L40.2218 66.0961C40.229 66.1399 40.2394 66.2039 40.2521 66.2854C40.2775 66.4485 40.3124 66.6823 40.3501 66.9665C40.4256 67.5342 40.5132 68.3065 40.5611 69.1205C40.6088 69.9318 40.6179 70.7984 40.5317 71.5501C40.4885 71.9262 40.4203 72.2844 40.3159 72.5977C40.2126 72.9076 40.0653 73.1997 39.8476 73.4173C39.3136 73.9514 38.3913 74.295 37.4935 74.2378C36.5652 74.1787 35.6344 73.6869 35.1715 72.529L35.1715 72.5289C34.8589 71.7473 35.0523 70.9118 35.4286 70.1591C35.8075 69.4014 36.4034 68.6613 37.0125 68.0202C37.6246 67.3758 38.2664 66.8145 38.7535 66.4153C38.9975 66.2153 39.2037 66.055 39.3495 65.9444C39.4224 65.8891 39.4803 65.8462 39.5202 65.8168L39.5664 65.7831L39.5788 65.7742L39.5822 65.7718L39.5831 65.7711L39.5834 65.7708C39.5836 65.7708 39.5836 65.7707 39.8161 66.0962Z" fill="#294A59" stroke="white" stroke-width="0.8" stroke-miterlimit="10"/>
<path d="M25.2368 64.0852L25.6309 64.0167L25.5219 63.39L25.0043 63.7597L25.2368 64.0852ZM25.2368 64.0852C25.6309 64.0167 25.6309 64.0167 25.6309 64.0168L25.631 64.0171L25.6311 64.0181L25.6317 64.0216L25.634 64.0349L25.6424 64.0851C25.6497 64.1289 25.66 64.1929 25.6728 64.2744C25.6982 64.4375 25.733 64.6713 25.7708 64.9555C25.8462 65.5233 25.9338 66.2955 25.9817 67.1096C26.0295 67.9208 26.0386 68.7874 25.9523 69.5392C25.9092 69.9152 25.841 70.2734 25.7365 70.5867C25.6333 70.8966 25.4859 71.1887 25.2683 71.4064C24.7342 71.9404 23.812 72.284 22.9142 72.2269C21.9859 72.1678 21.0551 71.676 20.5921 70.518L20.5921 70.5179C20.2795 69.7363 20.4729 68.9008 20.8493 68.1482C21.2281 67.3904 21.824 66.6503 22.4331 66.0092C23.0452 65.3648 23.6871 64.8035 24.1741 64.4043C24.4181 64.2043 24.6244 64.044 24.7702 63.9335C24.8431 63.8781 24.9009 63.8352 24.9409 63.8058L24.9871 63.7721L24.9994 63.7632L25.0028 63.7608L25.0038 63.7601L25.0041 63.7598C25.0042 63.7598 25.0043 63.7597 25.2368 64.0852Z" fill="#294A59" stroke="white" stroke-width="0.8" stroke-miterlimit="10"/>
</svg>
