<svg width="130" height="44" viewBox="0 0 130 44" fill="none" xmlns="http://www.w3.org/2000/svg">
<path d="M113.631 44H16.3061C0.43617 44 0 25.6137 0 23.5C0 21.3862 0.43617 3 16.3061 3H113.631C129.501 3 129.971 21.4198 129.971 23.5C129.971 25.5802 129.501 44 113.631 44Z" fill="black" fill-opacity="0.5"/>
<path d="M113.631 41H16.3061C0.43617 41 0 22.6137 0 20.5C0 18.3862 0.43617 0 16.3061 0H113.631C129.501 0 129.971 18.4198 129.971 20.5C129.971 22.5802 129.501 41 113.631 41Z" fill="url(#paint0_linear_24_17677)"/>
<g style="mix-blend-mode:screen" opacity="0.7">
<path d="M25.7675 4.26103C57.1718 4.26103 110.202 4.8314 110.202 4.8314C123.623 4.8314 127.548 12.5147 127.884 17.5474C127.884 16.7758 127.884 17.8494 127.884 17.5474C127.884 15.4672 126.106 2.14728 113.222 2.14728H17.1448C13.5463 2.05603 10.0436 3.31332 7.32459 5.67228C4.60557 8.03125 2.86663 11.3215 2.44922 14.8969C4.42876 8.75694 10.2667 4.32813 25.7675 4.26103Z" fill="#FFFDBD"/>
</g>
<g style="mix-blend-mode:multiply" opacity="0.4">
<path d="M127.951 18.5205C128.179 21.6525 127.369 24.7725 125.647 27.3984C123.925 30.0243 121.386 32.0099 118.422 33.0483C111.712 35.9673 85.801 36.8397 68.0187 36.8397H67.1463C49.3305 36.8397 18.3526 35.9673 11.7094 33.0483C8.74572 32.0099 6.20657 30.0243 4.48428 27.3984C2.76199 24.7725 1.95244 21.6525 2.18071 18.5205C2.18071 19.2922 0.46958 38.383 16.8092 38.383H113.322C129.83 38.383 128.018 19.2922 127.951 18.5205Z" fill="#1B8943"/>
</g>
<defs>
<linearGradient id="paint0_linear_24_17677" x1="48.9853" y1="-0.87234" x2="48.9853" y2="39.1211" gradientUnits="userSpaceOnUse">
<stop offset="0.2" stop-color="#AAD31D"/>
<stop offset="0.81" stop-color="#298200"/>
<stop offset="1" stop-color="#379600"/>
</linearGradient>
</defs>
</svg>
