<svg width="398" height="104" viewBox="0 0 398 104" fill="none" xmlns="http://www.w3.org/2000/svg">
<path d="M394.865 66.4337C394.87 69.916 394.181 73.3644 392.84 76.5782C391.499 79.7919 389.532 82.7067 387.054 85.1529C384.575 87.5991 381.635 89.5277 378.404 90.8265C375.173 92.1253 371.716 92.7683 368.234 92.7181H35.2772C31.7907 92.7682 28.329 92.1258 25.0927 90.8281C21.8564 89.5305 18.9098 87.6033 16.4239 85.1584C13.9379 82.7135 11.9619 79.7995 10.6104 76.5852C9.25902 73.371 8.55902 69.9205 8.55103 66.4337V32.7921C8.55103 25.7039 11.3668 18.906 16.3789 13.8939C21.3911 8.88176 28.1889 6.06598 35.2772 6.06598H368.234C371.739 6.06596 375.21 6.75792 378.447 8.1022C381.684 9.44647 384.624 11.4166 387.099 13.8996C389.573 16.3826 391.532 19.3296 392.865 22.5716C394.198 25.8136 394.878 29.2869 394.865 32.7921V66.4337Z" fill="url(#paint0_linear_24_41876)"/>
<g style="mix-blend-mode:multiply" opacity="0.6">
<path d="M366.94 103.572H33.9835C16.2187 103.572 0 87.6062 0 70.0307V38.4401C0 19.7602 17.2915 8.59011 33.9835 8.59011H366.94C370.907 8.39489 374.871 9.03409 378.576 10.4664C382.281 11.8987 385.644 14.0923 388.448 16.9054C391.253 19.7186 393.436 23.0887 394.856 26.798C396.277 30.5074 396.903 34.4735 396.695 38.4401V70.0307C396.695 88.8368 383.632 103.572 366.94 103.572ZM33.9835 18.9713C22.6557 18.9713 10.3812 26.418 10.3812 38.4401V72.0817C10.3812 83.7566 22.0877 95.2422 33.9835 95.2422H366.94C379.057 95.2422 386.314 83.4726 386.314 72.0817V38.4401C386.314 26.418 378.899 18.9713 366.94 18.9713H33.9835Z" fill="#FF5499"/>
</g>
<path d="M10.6331 54.7851V57.2463L11.4219 57.4987V54.6904L10.6331 54.7851ZM10.6331 66.4916V68.9528L11.4219 69.2052V66.3969L10.6331 66.4916ZM10.6331 54.7851V57.2463L11.4219 57.4987V54.6904L10.6331 54.7851ZM10.6331 66.4916V68.9528L11.4219 69.2052V66.3969L10.6331 66.4916ZM10.6331 54.7851V57.2463L11.4219 57.4987V54.6904L10.6331 54.7851ZM10.6331 66.4916V68.9528L11.4219 69.2052V66.3969L10.6331 66.4916ZM10.6331 54.7851V57.2463L11.4219 57.4987V54.6904L10.6331 54.7851ZM10.6331 66.4916V68.9528L11.4219 69.2052V66.3969L10.6331 66.4916ZM10.6331 54.7851V57.2463L11.4219 57.4987V54.6904L10.6331 54.7851ZM10.6331 66.4916V68.9528L11.4219 69.2052V66.3969L10.6331 66.4916ZM10.6331 54.7851V57.2463L11.4219 57.4987V54.6904L10.6331 54.7851ZM10.6331 66.4916V68.9528L11.4219 69.2052V66.3969L10.6331 66.4916ZM10.6331 54.7851V57.2463L11.4219 57.4987V54.6904L10.6331 54.7851ZM10.6331 66.4916V68.9528L11.4219 69.2052V66.3969L10.6331 66.4916ZM10.6331 54.7851V57.2463L11.4219 57.4987V54.6904L10.6331 54.7851ZM10.6331 66.4916V68.9528L11.4219 69.2052V66.3969L10.6331 66.4916ZM10.6331 54.7851V57.2463L11.4219 57.4987V54.6904L10.6331 54.7851ZM10.6331 66.4916V68.9528L11.4219 69.2052V66.3969L10.6331 66.4916ZM10.6331 54.7851V57.2463L11.4219 57.4987V54.6904L10.6331 54.7851ZM10.6331 66.4916V68.9528L11.4219 69.2052V66.3969L10.6331 66.4916ZM10.6331 54.7851V57.2463L11.4219 57.4987V54.6904L10.6331 54.7851ZM10.6331 66.4916V68.9528L11.4219 69.2052V66.3969L10.6331 66.4916ZM10.6331 54.7851V57.2463L11.4219 57.4987V54.6904L10.6331 54.7851ZM10.6331 66.4916V68.9528L11.4219 69.2052V66.3969L10.6331 66.4916ZM10.6331 54.7851V57.2463L11.4219 57.4987V54.6904L10.6331 54.7851ZM10.6331 66.4916V68.9528L11.4219 69.2052V66.3969L10.6331 66.4916ZM10.6331 54.7851V57.2463L11.4219 57.4987V54.6904L10.6331 54.7851ZM10.6331 66.4916V68.9528L11.4219 69.2052V66.3969L10.6331 66.4916ZM10.6331 54.7851V57.2463L11.4219 57.4987V54.6904L10.6331 54.7851ZM10.6331 66.4916V68.9528L11.4219 69.2052V66.3969L10.6331 66.4916ZM10.6331 54.7851V57.2463L11.4219 57.4987V54.6904L10.6331 54.7851ZM10.6331 66.4916V68.9528L11.4219 69.2052V66.3969L10.6331 66.4916ZM10.6331 54.7851V57.2463L11.4219 57.4987V54.6904L10.6331 54.7851ZM10.6331 66.4916V68.9528L11.4219 69.2052V66.3969L10.6331 66.4916ZM10.6331 54.7851V57.2463L11.4219 57.4987V54.6904L10.6331 54.7851ZM10.6331 66.4916V68.9528L11.4219 69.2052V66.3969L10.6331 66.4916ZM10.6331 54.7851V57.2463L11.4219 57.4987V54.6904L10.6331 54.7851ZM10.6331 66.4916V68.9528L11.4219 69.2052V66.3969L10.6331 66.4916ZM10.6331 54.7851V57.2463L11.4219 57.4987V54.6904L10.6331 54.7851ZM10.6331 66.4916V68.9528L11.4219 69.2052V66.3969L10.6331 66.4916ZM10.6331 54.7851V57.2463L11.4219 57.4987V54.6904L10.6331 54.7851ZM10.6331 66.4916V68.9528L11.4219 69.2052V66.3969L10.6331 66.4916ZM10.6331 54.7851V57.2463L11.4219 57.4987V54.6904L10.6331 54.7851ZM10.6331 66.4916V68.9528L11.4219 69.2052V66.3969L10.6331 66.4916ZM10.6331 54.7851V57.2463L11.4219 57.4987V54.6904L10.6331 54.7851ZM10.6331 66.4916V68.9528L11.4219 69.2052V66.3969L10.6331 66.4916ZM10.6331 54.7851V57.2463L11.4219 57.4987V54.6904L10.6331 54.7851ZM10.6331 66.4916V68.9528L11.4219 69.2052V66.3969L10.6331 66.4916ZM10.6331 54.7851V57.2463L11.4219 57.4987V54.6904L10.6331 54.7851ZM10.6331 66.4916V68.9528L11.4219 69.2052V66.3969L10.6331 66.4916ZM10.6331 54.7851V57.2463L11.4219 57.4987V54.6904L10.6331 54.7851ZM10.6331 66.4916V68.9528L11.4219 69.2052V66.3969L10.6331 66.4916ZM10.6331 54.7851V57.2463L11.4219 57.4987V54.6904L10.6331 54.7851ZM10.6331 66.4916V68.9528L11.4219 69.2052V66.3969L10.6331 66.4916ZM10.6331 57.2463L11.4219 57.4987V54.6904H10.6331V57.2463ZM10.6331 66.4916V68.9528L11.4219 69.2052V66.3969L10.6331 66.4916ZM396.411 26.5128C394.661 20.3484 390.81 14.9903 385.525 11.367C383.75 10.0968 381.833 9.03789 379.814 8.21158C376.066 6.83124 372.101 6.13651 368.107 6.16058H35.0558C31.6674 6.16026 28.2938 6.60584 25.0217 7.48584C22.5547 8.11981 20.1637 9.01907 17.8905 10.1679C13.668 12.2389 9.95179 15.2119 7.0044 18.8768C6.40487 19.6341 5.80535 20.4229 5.26893 21.2433C2.67425 25.3408 1.22509 30.0587 1.07227 34.9062C1.07227 35.2848 1.07227 35.6635 1.07227 36.0737V69.7153C1.07227 70.4305 1.07227 71.1562 1.07227 71.8925C1.13422 72.8779 1.26071 73.8581 1.45091 74.827C2.05793 78.2429 3.21973 81.5364 4.89029 84.5771C5.39881 85.5211 5.95705 86.4375 6.56264 87.3223C9.67393 92.0464 13.8812 95.9483 18.826 98.6954C23.7708 101.442 29.3064 102.953 34.9611 103.099H367.981C371.435 103.105 374.86 102.463 378.078 101.206C379.316 100.7 380.518 100.11 381.675 99.439C385.561 97.1062 388.915 93.9867 391.524 90.2806C394.132 86.5746 395.936 82.364 396.821 77.9193C397.007 77.1503 397.143 76.3704 397.231 75.5843C397.549 73.5912 397.708 71.5758 397.705 69.5575V35.9159C397.711 32.7368 397.275 29.5722 396.411 26.5128ZM11.6428 72.4289C11.6097 72.2198 11.6097 72.0069 11.6428 71.7978C11.5948 71.115 11.5948 70.4296 11.6428 69.7468V36.1052C11.578 35.2966 11.578 34.4841 11.6428 33.6756C12.3557 29.0406 14.8598 24.8709 18.6162 22.0637C19.4733 21.4205 20.3691 20.8304 21.2983 20.2967C25.4829 17.8854 30.2262 16.6125 35.0558 16.6049H367.981C377.258 16.6049 383.758 21.0856 386.219 28.7216C387.006 31.0916 387.39 33.5767 387.355 36.0737V69.7153C387.345 71.9053 387.081 74.0867 386.566 76.2154C386.377 77.0358 386.124 77.8246 385.872 78.5819C383.19 86.5019 376.911 92.8443 367.981 92.8443H35.0558C30.3839 92.7271 25.8591 91.1859 22.0872 88.4267C17.1779 85.0343 13.6068 80.0347 11.9899 74.2906C11.8287 73.6794 11.7127 73.0571 11.6428 72.4289ZM10.6331 66.4916V68.9528L11.4219 69.2052V66.3969L10.6331 66.4916ZM10.6331 54.7851V57.2463L11.4219 57.4987V54.6904L10.6331 54.7851ZM10.6331 66.4916V68.9528L11.4219 69.2052V66.3969L10.6331 66.4916ZM10.6331 54.7851V57.2463L11.4219 57.4987V54.6904L10.6331 54.7851ZM10.6331 66.4916V68.9528L11.4219 69.2052V66.3969L10.6331 66.4916ZM10.6331 54.7851V57.2463L11.4219 57.4987V54.6904L10.6331 54.7851ZM10.6331 66.4916V68.9528L11.4219 69.2052V66.3969L10.6331 66.4916ZM10.6331 54.7851V57.2463L11.4219 57.4987V54.6904L10.6331 54.7851ZM10.6331 66.4916V68.9528L11.4219 69.2052V66.3969L10.6331 66.4916ZM10.6331 54.7851V57.2463L11.4219 57.4987V54.6904L10.6331 54.7851ZM10.6331 66.4916V68.9528L11.4219 69.2052V66.3969L10.6331 66.4916ZM10.6331 54.7851V57.2463L11.4219 57.4987V54.6904L10.6331 54.7851ZM10.6331 66.4916V68.9528L11.4219 69.2052V66.3969L10.6331 66.4916ZM10.6331 54.7851V57.2463L11.4219 57.4987V54.6904L10.6331 54.7851ZM10.6331 66.4916V68.9528L11.4219 69.2052V66.3969L10.6331 66.4916ZM10.6331 54.7851V57.2463L11.4219 57.4987V54.6904L10.6331 54.7851ZM10.6331 66.4916V68.9528L11.4219 69.2052V66.3969L10.6331 66.4916ZM10.6331 54.7851V57.2463L11.4219 57.4987V54.6904L10.6331 54.7851ZM10.6331 66.4916V68.9528L11.4219 69.2052V66.3969L10.6331 66.4916ZM10.6331 54.7851V57.2463L11.4219 57.4987V54.6904L10.6331 54.7851ZM10.6331 66.4916V68.9528L11.4219 69.2052V66.3969L10.6331 66.4916ZM10.6331 54.7851V57.2463L11.4219 57.4987V54.6904L10.6331 54.7851ZM10.6331 66.4916V68.9528L11.4219 69.2052V66.3969L10.6331 66.4916ZM10.6331 54.7851V57.2463L11.4219 57.4987V54.6904L10.6331 54.7851ZM10.6331 66.4916V68.9528L11.4219 69.2052V66.3969L10.6331 66.4916ZM10.6331 54.7851V57.2463L11.4219 57.4987V54.6904L10.6331 54.7851ZM10.6331 66.4916V68.9528L11.4219 69.2052V66.3969L10.6331 66.4916ZM10.6331 54.7851V57.2463L11.4219 57.4987V54.6904L10.6331 54.7851ZM10.6331 66.4916V68.9528L11.4219 69.2052V66.3969L10.6331 66.4916ZM10.6331 54.7851V57.2463L11.4219 57.4987V54.6904L10.6331 54.7851ZM10.6331 66.4916V68.9528L11.4219 69.2052V66.3969L10.6331 66.4916ZM10.6331 54.7851V57.2463L11.4219 57.4987V54.6904L10.6331 54.7851ZM10.6331 66.4916V68.9528L11.4219 69.2052V66.3969L10.6331 66.4916ZM10.6331 54.7851V57.2463L11.4219 57.4987V54.6904L10.6331 54.7851ZM10.6331 66.4916V68.9528L11.4219 69.2052V66.3969L10.6331 66.4916ZM10.6331 54.7851V57.2463L11.4219 57.4987V54.6904L10.6331 54.7851ZM10.6331 66.4916V68.9528L11.4219 69.2052V66.3969L10.6331 66.4916ZM10.6331 54.7851V57.2463L11.4219 57.4987V54.6904L10.6331 54.7851ZM10.6331 66.4916V68.9528L11.4219 69.2052V66.3969L10.6331 66.4916ZM10.6331 54.7851V57.2463L11.4219 57.4987V54.6904L10.6331 54.7851ZM10.6331 66.4916V68.9528L11.4219 69.2052V66.3969L10.6331 66.4916ZM10.6331 54.7851V57.2463L11.4219 57.4987V54.6904L10.6331 54.7851ZM10.6331 66.4916V68.9528L11.4219 69.2052V66.3969L10.6331 66.4916ZM10.6331 54.7851V57.2463L11.4219 57.4987V54.6904L10.6331 54.7851ZM10.6331 66.4916V68.9528L11.4219 69.2052V66.3969L10.6331 66.4916ZM10.6331 54.7851V57.2463L11.4219 57.4987V54.6904L10.6331 54.7851ZM10.6331 66.4916V68.9528L11.4219 69.2052V66.3969L10.6331 66.4916ZM10.6331 54.7851V57.2463L11.4219 57.4987V54.6904L10.6331 54.7851ZM10.6331 66.4916V68.9528L11.4219 69.2052V66.3969L10.6331 66.4916ZM10.6331 54.7851V57.2463L11.4219 57.4987V54.6904L10.6331 54.7851ZM10.6331 66.4916V68.9528L11.4219 69.2052V66.3969L10.6331 66.4916ZM10.6331 54.7851V57.2463L11.4219 57.4987V54.6904L10.6331 54.7851ZM10.6331 66.4916V68.9528L11.4219 69.2052V66.3969L10.6331 66.4916ZM10.6331 54.7851V57.2463L11.4219 57.4987V54.6904L10.6331 54.7851Z" fill="#9E4000"/>
<path d="M386.566 58.2611V60.9747L387.355 60.3436V58.2926L386.566 58.2611ZM252.431 91.8344L243.785 91.2349L239.998 91.014L236.244 90.7932L230.343 90.4461L226.714 90.2252H225.231L218.195 89.8465L214.787 89.6572H165.121H165.878L169.255 90.0674L171.243 90.3198L178.342 91.1402L192.478 92.8442H266.725C262.055 92.5286 257.227 92.1499 252.431 91.8344ZM386.566 58.2611V60.9747L387.355 60.3436V58.2926L386.566 58.2611ZM252.431 91.8344L243.785 91.2349L239.998 91.014L236.244 90.7932L230.343 90.4461L226.714 90.2252H225.231L218.195 89.8465L214.787 89.6572H165.121H165.878L169.255 90.0674L171.243 90.3198L178.342 91.1402L192.478 92.8442H266.725C262.055 92.5286 257.227 92.1499 252.431 91.8344ZM386.566 58.2611V60.9747L387.355 60.3436V58.2926L386.566 58.2611ZM252.431 91.8344L243.785 91.2349L239.998 91.014L236.244 90.7932L230.343 90.4461L226.714 90.2252H225.231L218.195 89.8465L214.787 89.6572H165.121H165.878L169.255 90.0674L171.243 90.3198L178.342 91.1402L192.478 92.8442H266.725C262.055 92.5286 257.227 92.1499 252.431 91.8344ZM386.566 58.2611V60.9747L387.355 60.3436V58.2926L386.566 58.2611ZM252.431 91.8344L243.785 91.2349L239.998 91.014L236.244 90.7932L230.343 90.4461L226.714 90.2252H225.231L218.195 89.8465L214.787 89.6572H165.121H165.878L169.255 90.0674L171.243 90.3198L178.342 91.1402L192.478 92.8442H266.725C262.055 92.5286 257.227 92.1499 252.431 91.8344ZM386.566 58.2611V60.9747L387.355 60.3436V58.2926L386.566 58.2611ZM252.431 91.8344L243.785 91.2349L239.998 91.014L236.244 90.7932L230.343 90.4461L226.714 90.2252H225.231L218.195 89.8465L214.787 89.6572H165.121H165.878L169.255 90.0674L171.243 90.3198L178.342 91.1402L192.478 92.8442H266.725C262.055 92.5286 257.227 92.1499 252.431 91.8344ZM386.566 58.2611V60.9747L387.355 60.3436V58.2926L386.566 58.2611ZM252.431 91.8344L243.785 91.2349L239.998 91.014L236.244 90.7932L230.343 90.4461L226.714 90.2252H225.231L218.195 89.8465L214.787 89.6572H165.121H165.878L169.255 90.0674L171.243 90.3198L178.342 91.1402L192.478 92.8442H266.725C262.055 92.5286 257.227 92.1499 252.431 91.8344ZM386.566 58.2611V60.9747L387.355 60.3436V58.2926L386.566 58.2611ZM252.431 91.8344L243.785 91.2349L239.998 91.014L236.244 90.7932L230.343 90.4461L226.714 90.2252H225.231L218.195 89.8465L214.787 89.6572H165.121H165.878L169.255 90.0674L171.243 90.3198L178.342 91.1402L192.478 92.8442H266.725C262.055 92.5286 257.227 92.1499 252.431 91.8344ZM386.566 58.2611V60.9747L387.355 60.3436V58.2926L386.566 58.2611ZM252.431 91.8344L243.785 91.2349L239.998 91.014L236.244 90.7932L230.343 90.4461L226.714 90.2252H225.231L218.195 89.8465L214.787 89.6572H165.121H165.878L169.255 90.0674L171.243 90.3198L178.342 91.1402L192.478 92.8442H266.725C262.055 92.5286 257.227 92.1499 252.431 91.8344ZM386.566 58.2611V60.9747L387.355 60.3436V58.2926L386.566 58.2611ZM252.431 91.8344L243.785 91.2349L239.998 91.014L236.244 90.7932L230.343 90.4461L226.714 90.2252H225.231L218.195 89.8465L214.787 89.6572H165.121H165.878L169.255 90.0674L171.243 90.3198L178.342 91.1402L192.478 92.8442H266.725C262.055 92.5286 257.227 92.1499 252.431 91.8344ZM386.566 58.2611V60.9747L387.355 60.3436V58.2926L386.566 58.2611ZM252.431 91.8344L243.785 91.2349L239.998 91.014L236.244 90.7932L230.343 90.4461L226.714 90.2252H225.231L218.195 89.8465L214.787 89.6572H165.121H165.878L169.255 90.0674L171.243 90.3198L178.342 91.1402L192.478 92.8442H266.725C262.055 92.5286 257.227 92.1499 252.431 91.8344ZM386.566 58.2611V60.9747L387.355 60.3436V58.2926L386.566 58.2611ZM252.431 91.8344L243.785 91.2349L239.998 91.014L236.244 90.7932L230.343 90.4461L226.714 90.2252H225.231L218.195 89.8465L214.787 89.6572H165.121H165.878L169.255 90.0674L171.243 90.3198L178.342 91.1402L192.478 92.8442H266.725C262.055 92.5286 257.227 92.1499 252.431 91.8344ZM386.566 58.2611V60.9747L387.355 60.3436V58.2926L386.566 58.2611ZM252.431 91.8344L243.785 91.2349L239.998 91.014L236.244 90.7932L230.343 90.4461L226.714 90.2252H225.231L218.195 89.8465L214.787 89.6572H165.121H165.878L169.255 90.0674L171.243 90.3198L178.342 91.1402L192.478 92.8442H266.725C262.055 92.5286 257.227 92.1499 252.431 91.8344ZM386.566 58.2611V60.9747L387.355 60.3436V58.2926L386.566 58.2611ZM252.431 91.8344L243.785 91.2349L239.998 91.014L236.244 90.7932L230.343 90.4461L226.714 90.2252H225.231L218.195 89.8465L214.787 89.6572H165.121H165.878L169.255 90.0674L171.243 90.3198L178.342 91.1402L192.478 92.8442H266.725C262.055 92.5286 257.227 92.1499 252.431 91.8344ZM386.566 58.2611V60.9747L387.355 60.3436V58.2926L386.566 58.2611ZM252.431 91.8344L243.785 91.2349L239.998 91.014L236.244 90.7932L230.343 90.4461L226.714 90.2252H225.231L218.195 89.8465L214.787 89.6572H165.121H165.878L169.255 90.0674L171.243 90.3198L178.342 91.1402L192.478 92.8442H266.725C262.055 92.5286 257.227 92.1499 252.431 91.8344ZM386.566 58.2611V60.9747L387.355 60.3436V58.2926L386.566 58.2611ZM252.431 91.8344L243.785 91.2349L239.998 91.014L236.244 90.7932L230.343 90.4461L226.714 90.2252H225.231L218.195 89.8465L214.787 89.6572H165.121H165.878L169.255 90.0674L171.243 90.3198L178.342 91.1402L192.478 92.8442H266.725C262.055 92.5286 257.227 92.1499 252.431 91.8344ZM386.566 58.2611V60.9747L387.355 60.3436V58.2926L386.566 58.2611ZM252.431 91.8344L243.785 91.2349L239.998 91.014L236.244 90.7932L230.343 90.4461L226.714 90.2252H225.231L218.195 89.8465L214.787 89.6572H165.121H165.878L169.255 90.0674L171.243 90.3198L178.342 91.1402L192.478 92.8442H266.725C262.055 92.5286 257.227 92.1499 252.431 91.8344ZM386.566 58.2611V60.9747L387.355 60.3436V58.2926L386.566 58.2611ZM252.431 91.8344L243.785 91.2349L239.998 91.014L236.244 90.7932L230.343 90.4461L226.714 90.2252H225.231L218.195 89.8465L214.787 89.6572H165.121H165.878L169.255 90.0674L171.243 90.3198L178.342 91.1402L192.478 92.8442H266.725C262.055 92.5286 257.227 92.1499 252.431 91.8344ZM386.566 58.2611V60.9747L387.355 60.3436V58.2926L386.566 58.2611ZM252.431 91.8344L243.785 91.2349L239.998 91.014L236.244 90.7932L230.343 90.4461L226.714 90.2252H225.231L218.195 89.8465L214.787 89.6572H165.121H165.878L169.255 90.0674L171.243 90.3198L178.342 91.1402L192.478 92.8442H266.725C262.055 92.5286 257.227 92.1499 252.431 91.8344ZM386.566 58.2611V60.9747L387.355 60.3436V58.2926L386.566 58.2611ZM252.431 91.8344L243.785 91.2349L239.998 91.014L236.244 90.7932L230.343 90.4461L226.714 90.2252H225.231L218.195 89.8465L214.787 89.6572H165.121H165.878L169.255 90.0674L171.243 90.3198L178.342 91.1402L192.478 92.8442H266.725C262.055 92.5286 257.227 92.1499 252.431 91.8344ZM386.566 58.2611V60.9747L387.355 60.3436V58.2926L386.566 58.2611ZM252.431 91.8344L243.785 91.2349L239.998 91.014L236.244 90.7932L230.343 90.4461L226.714 90.2252H225.231L218.195 89.8465L214.787 89.6572H165.121H165.878L169.255 90.0674L171.243 90.3198L178.342 91.1402L192.478 92.8442H266.725C262.055 92.5286 257.227 92.1499 252.431 91.8344ZM386.566 58.2611V60.9747L387.355 60.3436V58.2926L386.566 58.2611ZM252.431 91.8344L243.785 91.2349L239.998 91.014L236.244 90.7932L230.343 90.4461L226.714 90.2252H225.231L218.195 89.8465L214.787 89.6572H165.121H165.878L169.255 90.0674L171.243 90.3198L178.342 91.1402L192.478 92.8442H266.725C262.055 92.5286 257.227 92.1499 252.431 91.8344ZM386.566 58.2611V60.9747L387.355 60.3436V58.2926L386.566 58.2611ZM252.431 91.8344L243.785 91.2349L239.998 91.014L236.244 90.7932L230.343 90.4461L226.714 90.2252H225.231L218.195 89.8465L214.787 89.6572H165.121H165.878L169.255 90.0674L171.243 90.3198L178.342 91.1402L192.478 92.8442H266.725C262.055 92.5286 257.227 92.1499 252.431 91.8344ZM386.566 58.2611V60.9747L387.355 60.3436V58.2926L386.566 58.2611ZM252.431 91.8344L243.785 91.2349L239.998 91.014L236.244 90.7932L230.343 90.4461L226.714 90.2252H225.231L218.195 89.8465L214.787 89.6572H165.121H165.878L169.255 90.0674L171.243 90.3198L178.342 91.1402L192.478 92.8442H266.725C262.055 92.5286 257.227 92.1499 252.431 91.8344ZM386.566 58.2611V60.9747L387.355 60.3436V58.2926L386.566 58.2611ZM252.431 91.8344L243.785 91.2349L239.998 91.014L236.244 90.7932L230.343 90.4461L226.714 90.2252H225.231L218.195 89.8465L214.787 89.6572H165.121H165.878L169.255 90.0674L171.243 90.3198L178.342 91.1402L192.478 92.8442H266.725C262.055 92.5286 257.227 92.1499 252.431 91.8344ZM386.566 58.2611V60.9747L387.355 60.3436V58.2926L386.566 58.2611ZM252.431 91.8344L243.785 91.2349L239.998 91.014L236.244 90.7932L230.343 90.4461L226.714 90.2252H225.231L218.195 89.8465L214.787 89.6572H165.121H165.878L169.255 90.0674L171.243 90.3198L178.342 91.1402L192.478 92.8442H266.725C262.055 92.5286 257.227 92.1499 252.431 91.8344ZM386.566 58.2611V60.9747L387.355 60.3436V58.2926L386.566 58.2611ZM252.431 91.8344L243.785 91.2349L239.998 91.014L236.244 90.7932L230.343 90.4461L226.714 90.2252H225.231L218.195 89.8465L214.787 89.6572H165.121H165.878L169.255 90.0674L171.243 90.3198L178.342 91.1402L192.478 92.8442H266.725C262.055 92.5286 257.227 92.1499 252.431 91.8344ZM386.566 58.2611V60.9747L387.355 60.3436V58.2926L386.566 58.2611ZM252.431 91.8344L243.785 91.2349L239.998 91.014L236.244 90.7932L230.343 90.4461L226.714 90.2252H225.231L218.195 89.8465L214.787 89.6572H165.121H165.878L169.255 90.0674L171.243 90.3198L178.342 91.1402L192.478 92.8442H266.725C262.055 92.5286 257.227 92.1499 252.431 91.8344ZM386.566 58.2611V60.9747L387.355 60.3436V58.2926L386.566 58.2611ZM252.431 91.8344L243.785 91.2349L239.998 91.014L236.244 90.7932L230.343 90.4461L226.714 90.2252H225.231L218.195 89.8465L214.787 89.6572H165.121H165.878L169.255 90.0674L171.243 90.3198L178.342 91.1402L192.478 92.8442H266.725C262.055 92.5286 257.227 92.1499 252.431 91.8344ZM246.12 91.8344H244.795H244.479H242.87H241.892L225.641 90.6354H225.168L221.603 90.3198L218.447 90.0674H213.872L259.94 93.2228H261.487L246.12 91.8344ZM246.12 91.8344H244.795H244.479H242.87H241.892L225.641 90.6354H225.168L221.603 90.3198L218.447 90.0674H213.872L259.94 93.2228H261.487L246.12 91.8344ZM246.12 91.8344H244.795H244.479H242.87H241.892L225.641 90.6354H225.168L221.603 90.3198L218.447 90.0674H213.872L259.94 93.2228H261.487L246.12 91.8344ZM246.12 91.8344H244.795H244.479H242.87H241.892L225.641 90.6354H225.168L221.603 90.3198L218.447 90.0674H213.872L259.94 93.2228H261.487L246.12 91.8344ZM246.12 91.8344H244.795H244.479H242.87H241.892L225.641 90.6354H225.168L221.603 90.3198L218.447 90.0674H213.872L259.94 93.2228H261.487L246.12 91.8344ZM246.12 91.8344H244.795H244.479H242.87H241.892L225.641 90.6354H225.168L221.603 90.3198L218.447 90.0674H213.872L259.94 93.2228H261.487L246.12 91.8344ZM246.12 91.8344H244.795H244.479H242.87H241.892L225.641 90.6354H225.168L221.603 90.3198L218.447 90.0674H213.872L259.94 93.2228H261.487L246.12 91.8344ZM246.12 91.8344H244.795H244.479H242.87H241.892L225.641 90.6354H225.168L221.603 90.3198L218.447 90.0674H213.872L259.94 93.2228H261.487L246.12 91.8344ZM396.411 26.6389C395.625 22.2661 393.867 18.1255 391.268 14.5222C390.657 13.6429 389.982 12.8097 389.248 12.0295C388.283 11.0002 387.227 10.0603 386.093 9.22118C380.646 5.11819 373.979 2.96256 367.161 3.09973H34.2356C27.5031 3.09245 20.8871 4.85528 15.0508 8.21146C13.7648 8.96878 12.5314 9.81214 11.359 10.7358C8.35935 12.9866 5.8205 15.7933 3.88076 19.0029C3.41444 19.7831 3.00323 20.595 2.65016 21.4325C1.03941 24.9901 0.221156 28.8553 0.252065 32.7604V66.402C0.252065 67.4117 0.252065 68.3899 0.409834 69.3365C0.474264 70.1548 0.600845 70.967 0.788481 71.7661C0.788481 72.3972 1.04091 73.0598 1.19868 73.6909C1.35645 74.322 1.388 74.3851 1.51422 74.7638C2.58319 78.3852 4.25823 81.7993 6.46818 84.861C7.19392 85.8392 7.95121 86.8173 8.74006 87.7324C8.87932 87.8874 9.02678 88.0349 9.18181 88.1741L9.97066 89.0892L10.4124 89.4994C16.6686 95.9735 25.2343 99.7061 34.2356 99.8807H368.896C371.205 99.7292 373.484 99.2839 375.68 98.5554C380.104 97.0018 384.112 94.4525 387.395 91.1043C390.677 87.756 393.147 83.6984 394.612 79.2444C394.612 78.8973 394.833 78.5818 394.928 78.2662C395.023 77.9507 394.928 78.2662 394.928 78.1085C395.18 77.3301 395.401 76.5413 395.591 75.7419C396.377 72.6484 396.77 69.4678 396.758 66.2758V32.6342C396.815 30.5875 396.699 28.5397 396.411 26.5127V26.6389ZM386.566 66.5913C386.553 69.9899 385.922 73.3577 384.705 76.5308C384.395 77.3558 384.026 78.1573 383.6 78.9289C383.451 79.2542 383.282 79.5703 383.095 79.8755C381.598 82.782 379.34 85.2273 376.561 86.9501C373.782 88.6729 370.587 89.6086 367.318 89.6572H34.2356C29.731 89.4151 25.3736 87.9703 21.6167 85.4731C17.8598 82.9759 14.8407 79.5176 12.8736 75.4579C12.6961 75.131 12.5381 74.7938 12.4003 74.4482V74.2589C12.1331 73.6883 11.9115 73.0975 11.7377 72.4919C11.6501 72.2867 11.5763 72.0758 11.5168 71.8608C11.0058 70.1181 10.7402 68.3127 10.728 66.4966V32.855C10.6757 28.6897 12.1711 24.6531 14.9246 21.5272C15.5602 20.797 16.2455 20.1117 16.9756 19.4762C21.809 15.4104 27.9196 13.1762 34.2356 13.1654H367.192C377.731 13.1654 384.736 18.9713 386.124 28.5953C386.372 29.927 386.488 31.2798 386.472 32.6342L386.566 66.5913ZM246.12 91.7082H244.795H244.479H242.87H241.892L225.641 90.5091H225.168L221.603 90.1936L218.447 89.9412H213.872L259.94 93.0966H261.487L246.12 91.7082ZM246.12 91.7082H244.795H244.479H242.87H241.892L225.641 90.5091H225.168L221.603 90.1936L218.447 89.9412H213.872L259.94 93.0966H261.487L246.12 91.7082ZM246.12 91.7082H244.795H244.479H242.87H241.892L225.641 90.5091H225.168L221.603 90.1936L218.447 89.9412H213.872L259.94 93.0966H261.487L246.12 91.7082ZM246.12 91.7082H244.795H244.479H242.87H241.892L225.641 90.5091H225.168L221.603 90.1936L218.447 89.9412H213.872L259.94 93.0966H261.487L246.12 91.7082ZM246.12 91.7082H244.795H244.479H242.87H241.892L225.641 90.5091H225.168L221.603 90.1936L218.447 89.9412H213.872L259.94 93.0966H261.487L246.12 91.7082ZM246.12 91.7082H244.795H244.479H242.87H241.892L225.641 90.5091H225.168L221.603 90.1936L218.447 89.9412H213.872L259.94 93.0966H261.487L246.12 91.7082ZM246.12 91.7082H244.795H244.479H242.87H241.892L225.641 90.5091H225.168L221.603 90.1936L218.447 89.9412H213.872L259.94 93.0966H261.487L246.12 91.7082ZM246.12 91.7082H244.795H244.479H242.87H241.892L225.641 90.5091H225.168L221.603 90.1936L218.447 89.9412H213.872L259.94 93.0966H261.487L246.12 91.7082ZM252.431 91.7082L243.785 91.1087L239.998 90.8878L236.244 90.6669L230.343 90.4461L226.714 90.2252H225.231L218.195 89.8465L214.787 89.6572H165.121H165.878L169.255 90.0674L171.243 90.3198L178.342 91.1402L192.478 92.8442H266.725C262.055 92.5286 257.227 92.1499 252.431 91.8344V91.7082ZM252.431 91.7082L243.785 91.1087L239.998 90.8878L236.244 90.6669L230.343 90.4461L226.714 90.2252H225.231L218.195 89.8465L214.787 89.6572H165.121H165.878L169.255 90.0674L171.243 90.3198L178.342 91.1402L192.478 92.8442H266.725C262.055 92.5286 257.227 92.1499 252.431 91.8344V91.7082ZM386.566 58.2611V60.9747L387.355 60.3436V58.2926L386.566 58.2611ZM252.431 91.8344L243.785 91.2349L239.998 91.014L236.244 90.7932L230.343 90.4461L226.714 90.2252H225.231L218.195 89.8465L214.787 89.6572H165.121H165.878L169.255 90.0674L171.243 90.3198L178.342 91.1402L192.478 92.8442H266.725C262.055 92.5286 257.227 92.1499 252.431 91.8344ZM386.566 58.2611V60.9747L387.355 60.3436V58.2926L386.566 58.2611ZM252.431 91.8344L243.785 91.2349L239.998 91.014L236.244 90.7932L230.343 90.4461L226.714 90.2252H225.231L218.195 89.8465L214.787 89.6572H165.121H165.878L169.255 90.0674L171.243 90.3198L178.342 91.1402L192.478 92.8442H266.725C262.055 92.5286 257.227 92.1499 252.431 91.8344ZM386.566 58.2611V60.9747L387.355 60.3436V58.2926L386.566 58.2611ZM252.431 91.8344L243.785 91.2349L239.998 91.014L236.244 90.7932L230.343 90.4461L226.714 90.2252H225.231L218.195 89.8465L214.787 89.6572H165.121H165.878L169.255 90.0674L171.243 90.3198L178.342 91.1402L192.478 92.8442H266.725C262.055 92.5286 257.227 92.1499 252.431 91.8344ZM386.566 58.2611V60.9747L387.355 60.3436V58.2926L386.566 58.2611ZM252.431 91.8344L243.785 91.2349L239.998 91.014L236.244 90.7932L230.343 90.4461L226.714 90.2252H225.231L218.195 89.8465L214.787 89.6572H165.121H165.878L169.255 90.0674L171.243 90.3198L178.342 91.1402L192.478 92.8442H266.725C262.055 92.5286 257.227 92.1499 252.431 91.8344ZM386.566 58.2611V60.9747L387.355 60.3436V58.2926L386.566 58.2611ZM252.431 91.8344L243.785 91.2349L239.998 91.014L236.244 90.7932L230.343 90.4461L226.714 90.2252H225.231L218.195 89.8465L214.787 89.6572H165.121H165.878L169.255 90.0674L171.243 90.3198L178.342 91.1402L192.478 92.8442H266.725C262.055 92.5286 257.227 92.1499 252.431 91.8344ZM386.566 58.2611V60.9747L387.355 60.3436V58.2926L386.566 58.2611ZM252.431 91.8344L243.785 91.2349L239.998 91.014L236.244 90.7932L230.343 90.4461L226.714 90.2252H225.231L218.195 89.8465L214.787 89.6572H165.121H165.878L169.255 90.0674L171.243 90.3198L178.342 91.1402L192.478 92.8442H266.725C262.055 92.5286 257.227 92.1499 252.431 91.8344ZM386.566 58.2611V60.9747L387.355 60.3436V58.2926L386.566 58.2611ZM252.431 91.8344L243.785 91.2349L239.998 91.014L236.244 90.7932L230.343 90.4461L226.714 90.2252H225.231L218.195 89.8465L214.787 89.6572H165.121H165.878L169.255 90.0674L171.243 90.3198L178.342 91.1402L192.478 92.8442H266.725C262.055 92.5286 257.227 92.1499 252.431 91.8344ZM386.566 58.2611V60.9747L387.355 60.3436V58.2926L386.566 58.2611ZM252.431 91.8344L243.785 91.2349L239.998 91.014L236.244 90.7932L230.343 90.4461L226.714 90.2252H225.231L218.195 89.8465L214.787 89.6572H165.121H165.878L169.255 90.0674L171.243 90.3198L178.342 91.1402L192.478 92.8442H266.725C262.055 92.5286 257.227 92.1499 252.431 91.8344ZM386.566 58.2611V60.9747L387.355 60.3436V58.2926L386.566 58.2611ZM252.431 91.8344L243.785 91.2349L239.998 91.014L236.244 90.7932L230.343 90.4461L226.714 90.2252H225.231L218.195 89.8465L214.787 89.6572H165.121H165.878L169.255 90.0674L171.243 90.3198L178.342 91.1402L192.478 92.8442H266.725C262.055 92.5286 257.227 92.1499 252.431 91.8344ZM386.566 58.2611V60.9747L387.355 60.3436V58.2926L386.566 58.2611ZM252.431 91.8344L243.785 91.2349L239.998 91.014L236.244 90.7932L230.343 90.4461L226.714 90.2252H225.231L218.195 89.8465L214.787 89.6572H165.121H165.878L169.255 90.0674L171.243 90.3198L178.342 91.1402L192.478 92.8442H266.725C262.055 92.5286 257.227 92.1499 252.431 91.8344ZM386.566 58.2611V60.9747L387.355 60.3436V58.2926L386.566 58.2611ZM252.431 91.8344L243.785 91.2349L239.998 91.014L236.244 90.7932L230.343 90.4461L226.714 90.2252H225.231L218.195 89.8465L214.787 89.6572H165.121H165.878L169.255 90.0674L171.243 90.3198L178.342 91.1402L192.478 92.8442H266.725C262.055 92.5286 257.227 92.1499 252.431 91.8344ZM386.566 58.2611V60.9747L387.355 60.3436V58.2926L386.566 58.2611ZM252.431 91.8344L243.785 91.2349L239.998 91.014L236.244 90.7932L230.343 90.4461L226.714 90.2252H225.231L218.195 89.8465L214.787 89.6572H165.121H165.878L169.255 90.0674L171.243 90.3198L178.342 91.1402L192.478 92.8442H266.725C262.055 92.5286 257.227 92.1499 252.431 91.8344ZM386.566 58.2611V60.9747L387.355 60.3436V58.2926L386.566 58.2611ZM252.431 91.8344L243.785 91.2349L239.998 91.014L236.244 90.7932L230.343 90.4461L226.714 90.2252H225.231L218.195 89.8465L214.787 89.6572H165.121H165.878L169.255 90.0674L171.243 90.3198L178.342 91.1402L192.478 92.8442H266.725C262.055 92.5286 257.227 92.1499 252.431 91.8344ZM386.566 58.2611V60.9747L387.355 60.3436V58.2926L386.566 58.2611ZM252.431 91.8344L243.785 91.2349L239.998 91.014L236.244 90.7932L230.343 90.4461L226.714 90.2252H225.231L218.195 89.8465L214.787 89.6572H165.121H165.878L169.255 90.0674L171.243 90.3198L178.342 91.1402L192.478 92.8442H266.725C262.055 92.5286 257.227 92.1499 252.431 91.8344ZM386.566 58.2611V60.9747L387.355 60.3436V58.2926L386.566 58.2611ZM252.431 91.8344L243.785 91.2349L239.998 91.014L236.244 90.7932L230.343 90.4461L226.714 90.2252H225.231L218.195 89.8465L214.787 89.6572H165.121H165.878L169.255 90.0674L171.243 90.3198L178.342 91.1402L192.478 92.8442H266.725C262.055 92.5286 257.227 92.1499 252.431 91.8344ZM386.566 58.2611V60.9747L387.355 60.3436V58.2926L386.566 58.2611ZM252.431 91.8344L243.785 91.2349L239.998 91.014L236.244 90.7932L230.343 90.4461L226.714 90.2252H225.231L218.195 89.8465L214.787 89.6572H165.121H165.878L169.255 90.0674L171.243 90.3198L178.342 91.1402L192.478 92.8442H266.725C262.055 92.5286 257.227 92.1499 252.431 91.8344ZM386.566 58.2611V60.9747L387.355 60.3436V58.2926L386.566 58.2611ZM252.431 91.8344L243.785 91.2349L239.998 91.014L236.244 90.7932L230.343 90.4461L226.714 90.2252H225.231L218.195 89.8465L214.787 89.6572H165.121H165.878L169.255 90.0674L171.243 90.3198L178.342 91.1402L192.478 92.8442H266.725C262.055 92.5286 257.227 92.1499 252.431 91.8344ZM386.566 58.2611V60.9747L387.355 60.3436V58.2926L386.566 58.2611ZM252.431 91.8344L243.785 91.2349L239.998 91.014L236.244 90.7932L230.343 90.4461L226.714 90.2252H225.231L218.195 89.8465L214.787 89.6572H165.121H165.878L169.255 90.0674L171.243 90.3198L178.342 91.1402L192.478 92.8442H266.725C262.055 92.5286 257.227 92.1499 252.431 91.8344ZM386.566 58.2611V60.9747L387.355 60.3436V58.2926L386.566 58.2611ZM252.431 91.8344L243.785 91.2349L239.998 91.014L236.244 90.7932L230.343 90.4461L226.714 90.2252H225.231L218.195 89.8465L214.787 89.6572H165.121H165.878L169.255 90.0674L171.243 90.3198L178.342 91.1402L192.478 92.8442H266.725C262.055 92.5286 257.227 92.1499 252.431 91.8344ZM386.566 58.2611V60.9747L387.355 60.3436V58.2926L386.566 58.2611ZM252.431 91.8344L243.785 91.2349L239.998 91.014L236.244 90.7932L230.343 90.4461L226.714 90.2252H225.231L218.195 89.8465L214.787 89.6572H165.121H165.878L169.255 90.0674L171.243 90.3198L178.342 91.1402L192.478 92.8442H266.725C262.055 92.5286 257.227 92.1499 252.431 91.8344ZM386.566 58.2611V60.9747L387.355 60.3436V58.2926L386.566 58.2611ZM252.431 91.8344L243.785 91.2349L239.998 91.014L236.244 90.7932L230.343 90.4461L226.714 90.2252H225.231L218.195 89.8465L214.787 89.6572H165.121H165.878L169.255 90.0674L171.243 90.3198L178.342 91.1402L192.478 92.8442H266.725C262.055 92.5286 257.227 92.1499 252.431 91.8344ZM386.566 58.2611V60.9747L387.355 60.3436V58.2926L386.566 58.2611ZM252.431 91.8344L243.785 91.2349L239.998 91.014L236.244 90.7932L230.343 90.4461L226.714 90.2252H225.231L218.195 89.8465L214.787 89.6572H165.121H165.878L169.255 90.0674L171.243 90.3198L178.342 91.1402L192.478 92.8442H266.725C262.055 92.5286 257.227 92.1499 252.431 91.8344ZM386.566 58.2611V60.9747L387.355 60.3436V58.2926L386.566 58.2611ZM252.431 91.8344L243.785 91.2349L239.998 91.014L236.244 90.7932L230.343 90.4461L226.714 90.2252H225.231L218.195 89.8465L214.787 89.6572H165.121H165.878L169.255 90.0674L171.243 90.3198L178.342 91.1402L192.478 92.8442H266.725C262.055 92.5286 257.227 92.1499 252.431 91.8344ZM386.566 58.2611V60.9747L387.355 60.3436V58.2926L386.566 58.2611ZM252.431 91.8344L243.785 91.2349L239.998 91.014L236.244 90.7932L230.343 90.4461L226.714 90.2252H225.231L218.195 89.8465L214.787 89.6572H165.121H165.878L169.255 90.0674L171.243 90.3198L178.342 91.1402L192.478 92.8442H266.725C262.055 92.5286 257.227 92.1499 252.431 91.8344ZM386.566 58.2611V60.9747L387.355 60.3436V58.2926L386.566 58.2611ZM252.431 91.8344L243.785 91.2349L239.998 91.014L236.244 90.7932L230.343 90.4461L226.714 90.2252H225.231L218.195 89.8465L214.787 89.6572H165.121H165.878L169.255 90.0674L171.243 90.3198L178.342 91.1402L192.478 92.8442H266.725C262.055 92.5286 257.227 92.1499 252.431 91.8344ZM386.566 58.2611V60.9747L387.355 60.3436V58.2926L386.566 58.2611ZM252.431 91.8344L243.785 91.2349L239.998 91.014L236.244 90.7932L230.343 90.4461L226.714 90.2252H225.231L218.195 89.8465L214.787 89.6572H165.121H165.878L169.255 90.0674L171.243 90.3198L178.342 91.1402L192.478 92.8442H266.725C262.055 92.5286 257.227 92.1499 252.431 91.8344ZM386.566 58.2611V60.9747L387.355 60.3436V58.2926L386.566 58.2611Z" fill="url(#paint1_linear_24_41876)"/>
<g style="mix-blend-mode:multiply" opacity="0.6">
<path d="M21.2987 20.2969C20.3695 20.8306 19.4738 21.4207 18.6167 22.0639C17.3545 21.843 16.1239 21.6853 14.9248 21.5275C11.7176 21.1966 8.49047 21.1017 5.26936 21.2435L2.65039 21.4328C3.00346 20.5953 3.41467 19.7834 3.88099 19.0032H7.03638C10.3711 18.9142 13.7073 19.1148 17.0074 19.6027C18.4486 19.7621 19.8808 19.9938 21.2987 20.2969Z" fill="#C97B3A"/>
<path d="M11.5808 33.6441C11.516 34.4527 11.516 35.2652 11.5808 36.0738L10.7919 36.2631C8.15664 36.8989 5.45655 37.2271 2.74569 37.2412H0.25293V34.8747H1.07333C4.26119 35.005 7.45085 34.6648 10.5395 33.865L11.5808 33.6441Z" fill="#C97B3A"/>
<path d="M11.423 42.7002V45.0352L10.6342 45.0037L1.04178 44.8459H0.25293V42.5109H1.04178L10.6342 42.7002H11.423Z" fill="#C97B3A"/>
<path d="M11.423 67.128V69.463L10.6342 69.3998L1.04178 68.9265L0.25293 68.8634V66.56L1.04178 66.5916L10.6342 67.0964L11.423 67.128Z" fill="#C97B3A"/>
<path d="M116.75 103.288H110.439L101.572 100.133C95.7032 97.9558 88.9507 95.4315 82.0404 93.0334L72.5742 89.878H79.8001L89.0453 93.0334C96.1765 95.6208 103.024 98.1767 108.262 100.133L116.75 103.288Z" fill="#C97B3A"/>
<path d="M92.7698 103.289H85.4808C82.0099 102.153 78.1603 100.985 74.1845 100.133C68.65 98.6353 63.0051 97.5802 57.3032 96.9778C40.9608 94.8183 24.7493 91.7635 8.74179 87.8272L6.62768 87.3539C6.02208 86.469 5.46385 85.5527 4.95532 84.6087C5.46593 84.6977 5.97149 84.8136 6.46991 84.9558C10.5088 85.8709 15.9361 87.133 21.9944 88.4267C29.4727 90.0044 37.7714 91.5821 45.2181 92.8758C49.7303 93.6331 53.9585 94.2011 57.4925 94.5482C66.0668 95.511 74.5233 97.3291 82.7356 99.9754C86.4274 101.111 89.8353 102.247 92.7698 103.289Z" fill="#C97B3A"/>
<path d="M161.588 103.289H159.253L158.874 101.175L155.435 99.9758L135.146 92.8761L125.743 89.5945H132.748L142.119 92.8761L160.894 99.4709L160.988 99.9758L161.588 103.289Z" fill="#C97B3A"/>
<path d="M381.802 99.6287C380.645 100.299 379.443 100.89 378.205 101.396C375.302 100.891 372.115 100.386 369.023 99.9442C365.867 99.4709 362.712 99.0607 360.314 98.8714C357.159 98.5874 350.848 98.2719 341.95 97.8301C330.054 97.2306 313.93 96.4417 296.417 95.2427C291.716 96.4733 282.092 98.1772 270.606 99.9758C263.664 101.049 256.028 102.216 248.519 103.131H231.511L245.142 101.238L232.836 99.818C215.608 97.8301 191.28 94.8956 173.105 92.7184L148.303 89.9101V89.5945H165.216H165.974L169.35 90.0048L171.338 90.2572L178.437 91.0776L192.574 92.7815C216.586 95.6529 243.06 98.7767 251.579 99.6602V99.8811V100.386L255.019 99.8811C267.64 98.0194 279.946 96.0946 288.182 94.5485C283.039 94.1699 277.801 93.7281 272.405 93.2864L266.725 92.7815C262.055 92.4344 257.259 92.0557 252.4 91.7402L243.754 91.1407L239.967 90.9198L236.213 90.6989L230.344 90.4465L225.232 90.1625L218.195 89.7839L214.787 89.5945H253.977C260.288 90.0363 266.599 90.5096 272.626 91.046C280.514 91.7402 288.403 92.3397 296.039 92.8761H296.26C313.835 94.0752 329.991 94.8956 341.918 95.4951C350.69 95.9369 357.064 96.2524 360.346 96.5364C364.542 96.9151 370.38 97.767 375.681 98.5874L381.802 99.6287Z" fill="#C97B3A"/>
<path d="M397.218 75.7735C397.131 76.5596 396.994 77.3395 396.808 78.1085H395.104C392.201 78.1085 389.078 78.3609 385.859 78.5502L383.587 78.708C384.013 77.9364 384.382 77.1349 384.692 76.3099H386.553C389.709 76.1206 392.864 75.9628 395.767 75.8682L397.218 75.7735Z" fill="#C97B3A"/>
<path d="M389.171 11.8404C387.972 11.6511 386.742 11.4617 385.511 11.3355C369.065 9.65309 352.523 9.11538 336.003 9.72628V9.53696C331.712 10.9884 328.178 12.3768 325.843 13.2919L322.687 14.554L322.119 13.2919L321.835 12.4084C322.466 12.1244 329.093 9.25298 338.433 6.09759C341.998 4.96165 345.974 3.79415 350.139 2.9422H361.972C356.865 3.76192 351.808 4.86805 346.826 6.25536L343.45 7.20197C355.534 6.92792 367.624 7.26493 379.673 8.2117C381.851 8.43257 383.965 8.65345 385.984 8.93744C387.134 9.80502 388.2 10.7768 389.171 11.8404Z" fill="#C97B3A"/>
<path d="M397.565 43.205V45.6662L396.808 45.9502C393.723 46.9682 390.556 47.7178 387.342 48.1905H386.553V46.0764H387.342C390.554 45.577 393.719 44.8172 396.808 43.8045L397.565 43.205Z" fill="#C97B3A"/>
<path d="M397.565 39.3871V41.7536L396.808 41.5643L387.342 39.2924C387.076 39.2442 386.812 39.181 386.553 39.1031V36.6103L387.342 36.7996L396.808 39.0715L397.565 39.3871Z" fill="#C97B3A"/>
<path d="M397.565 55.7633V58.0983H396.808L387.342 57.2463H386.553V54.9113H387.342C390.497 55.1638 393.653 55.4478 396.808 55.7633H397.565Z" fill="#C97B3A"/>
<path d="M337 7.32794L336 9.82794C323.884 9.82794 31.8061 9.50542 17.8908 10.2312L11.3276 10.5782C12.5046 9.70874 13.7379 8.91816 15.0194 8.21171L24.9905 7.70684C33.5416 7.29664 44.7432 6.76023 54.8089 6.38158C63.1076 5.90827 332.236 7.32794 337 7.32794Z" fill="#C97B3A"/>
</g>
<g style="mix-blend-mode:multiply" opacity="0.4">
<path d="M305.757 11.3668C305.946 11.8086 306.136 12.2819 306.294 12.7552H305H294.555C264.737 13.2285 202.071 13.6071 164.964 13.828H150.291H149.755L107.946 14.0805H96.9651C96.9651 13.6703 97.186 13.2916 97.3122 12.913C97.1229 13.2916 97.0282 13.5125 96.9966 13.544L97.2806 12.6605H109.176C135.208 12.6921 242.965 12.2503 292.441 11.3668H304.243H305.757Z" fill="#C97B3A"/>
</g>
<path d="M302.38 5.46636H298.909C280.482 5.34015 201.944 5.05616 193.077 4.5513L146.441 1.90077L136.344 1.42747H136.186L125.584 0.827942L164.553 1.90077C187.429 2.59496 213.935 3.44691 224.789 3.88867L229.364 4.10955C234.35 4.51975 280.324 4.99305 295.123 5.24548H298.815C299.981 5.31828 301.151 5.31828 302.317 5.24548L302.38 5.46636Z" fill="#FFDE55"/>
<g style="mix-blend-mode:overlay" opacity="0.5">
<path d="M305.515 10.2916H217.164L305.168 9.5343C305.168 9.5343 305.452 10.0707 305.515 10.2916Z" fill="#FFDE55"/>
</g>
<g style="mix-blend-mode:overlay" opacity="0.5">
<path d="M96.0506 17.4569L159.158 18.8453C159.158 18.8453 102.551 18.1195 98.7642 18.2773C97.0288 18.2773 95.9559 20.2021 96.1453 22.6633C96.019 22.6633 95.9875 18.2458 96.0506 17.4569Z" fill="#FFDE55"/>
</g>
<g style="mix-blend-mode:overlay" opacity="0.5">
<path d="M164.964 13.923L107.158 15.406H106.747L97.8177 15.0273H96.8711V14.7118H97.8177H107.568L149.629 14.2385H150.071L168.025 14.0176C168.372 13.8283 167.236 13.8914 164.964 13.923Z" fill="#FFDE55"/>
</g>
<defs>
<linearGradient id="paint0_linear_24_41876" x1="201.724" y1="228.3" x2="201.724" y2="13.8598" gradientUnits="userSpaceOnUse">
<stop stop-color="#667E00"/>
<stop offset="0.68" stop-color="#A2C521"/>
</linearGradient>
<linearGradient id="paint1_linear_24_41876" x1="198.6" y1="4.39344" x2="198.6" y2="211.261" gradientUnits="userSpaceOnUse">
<stop stop-color="#F0CA57"/>
<stop offset="1" stop-color="#D45B1A"/>
</linearGradient>
</defs>
</svg>
