<svg width="398" height="141" viewBox="0 0 398 141" fill="none" xmlns="http://www.w3.org/2000/svg">
<path d="M394.865 97.1573C394.87 100.64 394.181 104.088 392.84 107.302C391.499 110.516 389.532 113.43 387.054 115.877C384.575 118.323 381.635 120.251 378.404 121.55C375.173 122.849 371.716 123.492 368.234 123.442H35.2772C31.7907 123.492 28.329 122.849 25.0927 121.552C21.8564 120.254 18.9098 118.327 16.4239 115.882C13.9379 113.437 11.9619 110.523 10.6104 107.309C9.25902 104.095 8.55902 100.644 8.55103 97.1573V43.5157C8.55103 36.4275 11.3668 29.6296 16.3789 24.6175C21.3911 19.6054 28.1889 16.7896 35.2772 16.7896H368.234C371.739 16.7896 375.21 17.4816 378.447 18.8258C381.684 20.1701 384.624 22.1402 387.099 24.6232C389.573 27.1062 391.532 30.0532 392.865 33.2953C394.198 36.5373 394.878 40.0105 394.865 43.5157V97.1573Z" fill="url(#paint0_linear_24_17568)"/>
<path d="M10.6331 65.5087V67.9699L11.4219 68.2224V65.4141L10.6331 65.5087ZM10.6331 77.2152V79.6764L11.4219 79.9289V77.1206L10.6331 77.2152ZM10.6331 65.5087V67.9699L11.4219 68.2224V65.4141L10.6331 65.5087ZM10.6331 77.2152V79.6764L11.4219 79.9289V77.1206L10.6331 77.2152ZM10.6331 65.5087V67.9699L11.4219 68.2224V65.4141L10.6331 65.5087ZM10.6331 77.2152V79.6764L11.4219 79.9289V77.1206L10.6331 77.2152ZM10.6331 65.5087V67.9699L11.4219 68.2224V65.4141L10.6331 65.5087ZM10.6331 77.2152V79.6764L11.4219 79.9289V77.1206L10.6331 77.2152ZM10.6331 65.5087V67.9699L11.4219 68.2224V65.4141L10.6331 65.5087ZM10.6331 77.2152V79.6764L11.4219 79.9289V77.1206L10.6331 77.2152ZM10.6331 65.5087V67.9699L11.4219 68.2224V65.4141L10.6331 65.5087ZM10.6331 77.2152V79.6764L11.4219 79.9289V77.1206L10.6331 77.2152ZM10.6331 65.5087V67.9699L11.4219 68.2224V65.4141L10.6331 65.5087ZM10.6331 77.2152V79.6764L11.4219 79.9289V77.1206L10.6331 77.2152ZM10.6331 65.5087V67.9699L11.4219 68.2224V65.4141L10.6331 65.5087ZM10.6331 77.2152V79.6764L11.4219 79.9289V77.1206L10.6331 77.2152ZM10.6331 65.5087V67.9699L11.4219 68.2224V65.4141L10.6331 65.5087ZM10.6331 77.2152V79.6764L11.4219 79.9289V77.1206L10.6331 77.2152ZM10.6331 65.5087V67.9699L11.4219 68.2224V65.4141L10.6331 65.5087ZM10.6331 77.2152V79.6764L11.4219 79.9289V77.1206L10.6331 77.2152ZM10.6331 65.5087V67.9699L11.4219 68.2224V65.4141L10.6331 65.5087ZM10.6331 77.2152V79.6764L11.4219 79.9289V77.1206L10.6331 77.2152ZM10.6331 65.5087V67.9699L11.4219 68.2224V65.4141L10.6331 65.5087ZM10.6331 77.2152V79.6764L11.4219 79.9289V77.1206L10.6331 77.2152ZM10.6331 65.5087V67.9699L11.4219 68.2224V65.4141L10.6331 65.5087ZM10.6331 77.2152V79.6764L11.4219 79.9289V77.1206L10.6331 77.2152ZM10.6331 65.5087V67.9699L11.4219 68.2224V65.4141L10.6331 65.5087ZM10.6331 77.2152V79.6764L11.4219 79.9289V77.1206L10.6331 77.2152ZM10.6331 65.5087V67.9699L11.4219 68.2224V65.4141L10.6331 65.5087ZM10.6331 77.2152V79.6764L11.4219 79.9289V77.1206L10.6331 77.2152ZM10.6331 65.5087V67.9699L11.4219 68.2224V65.4141L10.6331 65.5087ZM10.6331 77.2152V79.6764L11.4219 79.9289V77.1206L10.6331 77.2152ZM10.6331 65.5087V67.9699L11.4219 68.2224V65.4141L10.6331 65.5087ZM10.6331 77.2152V79.6764L11.4219 79.9289V77.1206L10.6331 77.2152ZM10.6331 65.5087V67.9699L11.4219 68.2224V65.4141L10.6331 65.5087ZM10.6331 77.2152V79.6764L11.4219 79.9289V77.1206L10.6331 77.2152ZM10.6331 65.5087V67.9699L11.4219 68.2224V65.4141L10.6331 65.5087ZM10.6331 77.2152V79.6764L11.4219 79.9289V77.1206L10.6331 77.2152ZM10.6331 65.5087V67.9699L11.4219 68.2224V65.4141L10.6331 65.5087ZM10.6331 77.2152V79.6764L11.4219 79.9289V77.1206L10.6331 77.2152ZM10.6331 65.5087V67.9699L11.4219 68.2224V65.4141L10.6331 65.5087ZM10.6331 77.2152V79.6764L11.4219 79.9289V77.1206L10.6331 77.2152ZM10.6331 65.5087V67.9699L11.4219 68.2224V65.4141L10.6331 65.5087ZM10.6331 77.2152V79.6764L11.4219 79.9289V77.1206L10.6331 77.2152ZM10.6331 65.5087V67.9699L11.4219 68.2224V65.4141L10.6331 65.5087ZM10.6331 77.2152V79.6764L11.4219 79.9289V77.1206L10.6331 77.2152ZM10.6331 65.5087V67.9699L11.4219 68.2224V65.4141L10.6331 65.5087ZM10.6331 77.2152V79.6764L11.4219 79.9289V77.1206L10.6331 77.2152ZM10.6331 65.5087V67.9699L11.4219 68.2224V65.4141L10.6331 65.5087ZM10.6331 77.2152V79.6764L11.4219 79.9289V77.1206L10.6331 77.2152ZM10.6331 65.5087V67.9699L11.4219 68.2224V65.4141L10.6331 65.5087ZM10.6331 77.2152V79.6764L11.4219 79.9289V77.1206L10.6331 77.2152ZM10.6331 65.5087V67.9699L11.4219 68.2224V65.4141L10.6331 65.5087ZM10.6331 77.2152V79.6764L11.4219 79.9289V77.1206L10.6331 77.2152ZM10.6331 67.9699L11.4219 68.2224V65.4141H10.6331V67.9699ZM10.6331 77.2152V79.6764L11.4219 79.9289V77.1206L10.6331 77.2152ZM396.411 37.2365C394.661 31.072 390.81 25.7139 385.525 22.0906C383.75 20.8205 381.833 19.7615 379.814 18.9352C376.066 17.5549 372.101 16.8601 368.107 16.8842H35.0558C31.6674 16.8839 28.2938 17.3295 25.0217 18.2095C22.5547 18.8434 20.1637 19.7427 17.8905 20.8916C13.668 22.9626 9.95179 25.9355 7.0044 29.6004C6.40487 30.3577 5.80535 31.1466 5.26893 31.967C2.67425 36.0644 1.22509 40.7823 1.07227 45.6298C1.07227 46.0084 1.07227 46.3871 1.07227 46.7973V100.439C1.07227 101.154 1.07227 101.88 1.07227 102.616C1.13422 103.602 1.26071 104.582 1.45091 105.551C2.05793 108.966 3.21973 112.26 4.89028 115.301C5.39881 116.245 5.95705 117.161 6.56264 118.046C9.67393 122.77 13.8812 126.672 18.826 129.419C23.7708 132.166 29.3064 133.677 34.9611 133.823H367.981C371.435 133.829 374.86 133.187 378.078 131.93C379.316 131.424 380.518 130.833 381.675 130.163C385.561 127.83 388.915 124.71 391.524 121.004C394.132 117.298 395.936 113.088 396.821 108.643C397.006 107.874 397.143 107.094 397.231 106.308C397.549 104.315 397.708 102.299 397.705 100.281V46.6395C397.711 43.4604 397.275 40.2958 396.411 37.2365ZM11.6428 103.153C11.6097 102.943 11.6097 102.731 11.6428 102.521C11.5948 101.839 11.5948 101.153 11.6428 100.47V46.8288C11.578 46.0203 11.578 45.2078 11.6428 44.3992C12.3557 39.7643 14.8598 35.5945 18.6162 32.7874C19.4733 32.1442 20.369 31.5541 21.2983 31.0203C25.4829 28.609 30.2262 27.3361 35.0558 27.3285H367.981C377.258 27.3285 383.758 31.8092 386.219 39.4452C387.006 41.8152 387.39 44.3003 387.355 46.7973V100.439C387.345 102.629 387.081 104.81 386.566 106.939C386.377 107.759 386.124 108.548 385.872 109.306C383.19 117.226 376.911 123.568 367.981 123.568H35.0558C30.3838 123.451 25.8591 121.91 22.0871 119.15C17.1779 115.758 13.6068 110.758 11.9899 105.014C11.8287 104.403 11.7127 103.781 11.6428 103.153ZM10.6331 77.2152V79.6764L11.4219 79.9289V77.1206L10.6331 77.2152ZM10.6331 65.5087V67.9699L11.4219 68.2224V65.4141L10.6331 65.5087ZM10.6331 77.2152V79.6764L11.4219 79.9289V77.1206L10.6331 77.2152ZM10.6331 65.5087V67.9699L11.4219 68.2224V65.4141L10.6331 65.5087ZM10.6331 77.2152V79.6764L11.4219 79.9289V77.1206L10.6331 77.2152ZM10.6331 65.5087V67.9699L11.4219 68.2224V65.4141L10.6331 65.5087ZM10.6331 77.2152V79.6764L11.4219 79.9289V77.1206L10.6331 77.2152ZM10.6331 65.5087V67.9699L11.4219 68.2224V65.4141L10.6331 65.5087ZM10.6331 77.2152V79.6764L11.4219 79.9289V77.1206L10.6331 77.2152ZM10.6331 65.5087V67.9699L11.4219 68.2224V65.4141L10.6331 65.5087ZM10.6331 77.2152V79.6764L11.4219 79.9289V77.1206L10.6331 77.2152ZM10.6331 65.5087V67.9699L11.4219 68.2224V65.4141L10.6331 65.5087ZM10.6331 77.2152V79.6764L11.4219 79.9289V77.1206L10.6331 77.2152ZM10.6331 65.5087V67.9699L11.4219 68.2224V65.4141L10.6331 65.5087ZM10.6331 77.2152V79.6764L11.4219 79.9289V77.1206L10.6331 77.2152ZM10.6331 65.5087V67.9699L11.4219 68.2224V65.4141L10.6331 65.5087ZM10.6331 77.2152V79.6764L11.4219 79.9289V77.1206L10.6331 77.2152ZM10.6331 65.5087V67.9699L11.4219 68.2224V65.4141L10.6331 65.5087ZM10.6331 77.2152V79.6764L11.4219 79.9289V77.1206L10.6331 77.2152ZM10.6331 65.5087V67.9699L11.4219 68.2224V65.4141L10.6331 65.5087ZM10.6331 77.2152V79.6764L11.4219 79.9289V77.1206L10.6331 77.2152ZM10.6331 65.5087V67.9699L11.4219 68.2224V65.4141L10.6331 65.5087ZM10.6331 77.2152V79.6764L11.4219 79.9289V77.1206L10.6331 77.2152ZM10.6331 65.5087V67.9699L11.4219 68.2224V65.4141L10.6331 65.5087ZM10.6331 77.2152V79.6764L11.4219 79.9289V77.1206L10.6331 77.2152ZM10.6331 65.5087V67.9699L11.4219 68.2224V65.4141L10.6331 65.5087ZM10.6331 77.2152V79.6764L11.4219 79.9289V77.1206L10.6331 77.2152ZM10.6331 65.5087V67.9699L11.4219 68.2224V65.4141L10.6331 65.5087ZM10.6331 77.2152V79.6764L11.4219 79.9289V77.1206L10.6331 77.2152ZM10.6331 65.5087V67.9699L11.4219 68.2224V65.4141L10.6331 65.5087ZM10.6331 77.2152V79.6764L11.4219 79.9289V77.1206L10.6331 77.2152ZM10.6331 65.5087V67.9699L11.4219 68.2224V65.4141L10.6331 65.5087ZM10.6331 77.2152V79.6764L11.4219 79.9289V77.1206L10.6331 77.2152ZM10.6331 65.5087V67.9699L11.4219 68.2224V65.4141L10.6331 65.5087ZM10.6331 77.2152V79.6764L11.4219 79.9289V77.1206L10.6331 77.2152ZM10.6331 65.5087V67.9699L11.4219 68.2224V65.4141L10.6331 65.5087ZM10.6331 77.2152V79.6764L11.4219 79.9289V77.1206L10.6331 77.2152ZM10.6331 65.5087V67.9699L11.4219 68.2224V65.4141L10.6331 65.5087ZM10.6331 77.2152V79.6764L11.4219 79.9289V77.1206L10.6331 77.2152ZM10.6331 65.5087V67.9699L11.4219 68.2224V65.4141L10.6331 65.5087ZM10.6331 77.2152V79.6764L11.4219 79.9289V77.1206L10.6331 77.2152ZM10.6331 65.5087V67.9699L11.4219 68.2224V65.4141L10.6331 65.5087ZM10.6331 77.2152V79.6764L11.4219 79.9289V77.1206L10.6331 77.2152ZM10.6331 65.5087V67.9699L11.4219 68.2224V65.4141L10.6331 65.5087ZM10.6331 77.2152V79.6764L11.4219 79.9289V77.1206L10.6331 77.2152ZM10.6331 65.5087V67.9699L11.4219 68.2224V65.4141L10.6331 65.5087ZM10.6331 77.2152V79.6764L11.4219 79.9289V77.1206L10.6331 77.2152ZM10.6331 65.5087V67.9699L11.4219 68.2224V65.4141L10.6331 65.5087ZM10.6331 77.2152V79.6764L11.4219 79.9289V77.1206L10.6331 77.2152ZM10.6331 65.5087V67.9699L11.4219 68.2224V65.4141L10.6331 65.5087ZM10.6331 77.2152V79.6764L11.4219 79.9289V77.1206L10.6331 77.2152ZM10.6331 65.5087V67.9699L11.4219 68.2224V65.4141L10.6331 65.5087ZM10.6331 77.2152V79.6764L11.4219 79.9289V77.1206L10.6331 77.2152ZM10.6331 65.5087V67.9699L11.4219 68.2224V65.4141L10.6331 65.5087Z" fill="#9E4000"/>
<path d="M386.566 88.9847V91.6983L387.355 91.0673V89.0163L386.566 88.9847ZM252.431 122.558L243.785 121.959L239.998 121.738L236.244 121.517L230.343 121.17L226.714 120.949H225.231L218.195 120.57L214.787 120.381H165.121H165.878L169.255 120.791L171.243 121.043L178.342 121.864L192.478 123.568H266.725C262.055 123.252 257.227 122.874 252.431 122.558ZM386.566 88.9847V91.6983L387.355 91.0673V89.0163L386.566 88.9847ZM252.431 122.558L243.785 121.959L239.998 121.738L236.244 121.517L230.343 121.17L226.714 120.949H225.231L218.195 120.57L214.787 120.381H165.121H165.878L169.255 120.791L171.243 121.043L178.342 121.864L192.478 123.568H266.725C262.055 123.252 257.227 122.874 252.431 122.558ZM386.566 88.9847V91.6983L387.355 91.0673V89.0163L386.566 88.9847ZM252.431 122.558L243.785 121.959L239.998 121.738L236.244 121.517L230.343 121.17L226.714 120.949H225.231L218.195 120.57L214.787 120.381H165.121H165.878L169.255 120.791L171.243 121.043L178.342 121.864L192.478 123.568H266.725C262.055 123.252 257.227 122.874 252.431 122.558ZM386.566 88.9847V91.6983L387.355 91.0673V89.0163L386.566 88.9847ZM252.431 122.558L243.785 121.959L239.998 121.738L236.244 121.517L230.343 121.17L226.714 120.949H225.231L218.195 120.57L214.787 120.381H165.121H165.878L169.255 120.791L171.243 121.043L178.342 121.864L192.478 123.568H266.725C262.055 123.252 257.227 122.874 252.431 122.558ZM386.566 88.9847V91.6983L387.355 91.0673V89.0163L386.566 88.9847ZM252.431 122.558L243.785 121.959L239.998 121.738L236.244 121.517L230.343 121.17L226.714 120.949H225.231L218.195 120.57L214.787 120.381H165.121H165.878L169.255 120.791L171.243 121.043L178.342 121.864L192.478 123.568H266.725C262.055 123.252 257.227 122.874 252.431 122.558ZM386.566 88.9847V91.6983L387.355 91.0673V89.0163L386.566 88.9847ZM252.431 122.558L243.785 121.959L239.998 121.738L236.244 121.517L230.343 121.17L226.714 120.949H225.231L218.195 120.57L214.787 120.381H165.121H165.878L169.255 120.791L171.243 121.043L178.342 121.864L192.478 123.568H266.725C262.055 123.252 257.227 122.874 252.431 122.558ZM386.566 88.9847V91.6983L387.355 91.0673V89.0163L386.566 88.9847ZM252.431 122.558L243.785 121.959L239.998 121.738L236.244 121.517L230.343 121.17L226.714 120.949H225.231L218.195 120.57L214.787 120.381H165.121H165.878L169.255 120.791L171.243 121.043L178.342 121.864L192.478 123.568H266.725C262.055 123.252 257.227 122.874 252.431 122.558ZM386.566 88.9847V91.6983L387.355 91.0673V89.0163L386.566 88.9847ZM252.431 122.558L243.785 121.959L239.998 121.738L236.244 121.517L230.343 121.17L226.714 120.949H225.231L218.195 120.57L214.787 120.381H165.121H165.878L169.255 120.791L171.243 121.043L178.342 121.864L192.478 123.568H266.725C262.055 123.252 257.227 122.874 252.431 122.558ZM386.566 88.9847V91.6983L387.355 91.0673V89.0163L386.566 88.9847ZM252.431 122.558L243.785 121.959L239.998 121.738L236.244 121.517L230.343 121.17L226.714 120.949H225.231L218.195 120.57L214.787 120.381H165.121H165.878L169.255 120.791L171.243 121.043L178.342 121.864L192.478 123.568H266.725C262.055 123.252 257.227 122.874 252.431 122.558ZM386.566 88.9847V91.6983L387.355 91.0673V89.0163L386.566 88.9847ZM252.431 122.558L243.785 121.959L239.998 121.738L236.244 121.517L230.343 121.17L226.714 120.949H225.231L218.195 120.57L214.787 120.381H165.121H165.878L169.255 120.791L171.243 121.043L178.342 121.864L192.478 123.568H266.725C262.055 123.252 257.227 122.874 252.431 122.558ZM386.566 88.9847V91.6983L387.355 91.0673V89.0163L386.566 88.9847ZM252.431 122.558L243.785 121.959L239.998 121.738L236.244 121.517L230.343 121.17L226.714 120.949H225.231L218.195 120.57L214.787 120.381H165.121H165.878L169.255 120.791L171.243 121.043L178.342 121.864L192.478 123.568H266.725C262.055 123.252 257.227 122.874 252.431 122.558ZM386.566 88.9847V91.6983L387.355 91.0673V89.0163L386.566 88.9847ZM252.431 122.558L243.785 121.959L239.998 121.738L236.244 121.517L230.343 121.17L226.714 120.949H225.231L218.195 120.57L214.787 120.381H165.121H165.878L169.255 120.791L171.243 121.043L178.342 121.864L192.478 123.568H266.725C262.055 123.252 257.227 122.874 252.431 122.558ZM386.566 88.9847V91.6983L387.355 91.0673V89.0163L386.566 88.9847ZM252.431 122.558L243.785 121.959L239.998 121.738L236.244 121.517L230.343 121.17L226.714 120.949H225.231L218.195 120.57L214.787 120.381H165.121H165.878L169.255 120.791L171.243 121.043L178.342 121.864L192.478 123.568H266.725C262.055 123.252 257.227 122.874 252.431 122.558ZM386.566 88.9847V91.6983L387.355 91.0673V89.0163L386.566 88.9847ZM252.431 122.558L243.785 121.959L239.998 121.738L236.244 121.517L230.343 121.17L226.714 120.949H225.231L218.195 120.57L214.787 120.381H165.121H165.878L169.255 120.791L171.243 121.043L178.342 121.864L192.478 123.568H266.725C262.055 123.252 257.227 122.874 252.431 122.558ZM386.566 88.9847V91.6983L387.355 91.0673V89.0163L386.566 88.9847ZM252.431 122.558L243.785 121.959L239.998 121.738L236.244 121.517L230.343 121.17L226.714 120.949H225.231L218.195 120.57L214.787 120.381H165.121H165.878L169.255 120.791L171.243 121.043L178.342 121.864L192.478 123.568H266.725C262.055 123.252 257.227 122.874 252.431 122.558ZM386.566 88.9847V91.6983L387.355 91.0673V89.0163L386.566 88.9847ZM252.431 122.558L243.785 121.959L239.998 121.738L236.244 121.517L230.343 121.17L226.714 120.949H225.231L218.195 120.57L214.787 120.381H165.121H165.878L169.255 120.791L171.243 121.043L178.342 121.864L192.478 123.568H266.725C262.055 123.252 257.227 122.874 252.431 122.558ZM386.566 88.9847V91.6983L387.355 91.0673V89.0163L386.566 88.9847ZM252.431 122.558L243.785 121.959L239.998 121.738L236.244 121.517L230.343 121.17L226.714 120.949H225.231L218.195 120.57L214.787 120.381H165.121H165.878L169.255 120.791L171.243 121.043L178.342 121.864L192.478 123.568H266.725C262.055 123.252 257.227 122.874 252.431 122.558ZM386.566 88.9847V91.6983L387.355 91.0673V89.0163L386.566 88.9847ZM252.431 122.558L243.785 121.959L239.998 121.738L236.244 121.517L230.343 121.17L226.714 120.949H225.231L218.195 120.57L214.787 120.381H165.121H165.878L169.255 120.791L171.243 121.043L178.342 121.864L192.478 123.568H266.725C262.055 123.252 257.227 122.874 252.431 122.558ZM386.566 88.9847V91.6983L387.355 91.0673V89.0163L386.566 88.9847ZM252.431 122.558L243.785 121.959L239.998 121.738L236.244 121.517L230.343 121.17L226.714 120.949H225.231L218.195 120.57L214.787 120.381H165.121H165.878L169.255 120.791L171.243 121.043L178.342 121.864L192.478 123.568H266.725C262.055 123.252 257.227 122.874 252.431 122.558ZM386.566 88.9847V91.6983L387.355 91.0673V89.0163L386.566 88.9847ZM252.431 122.558L243.785 121.959L239.998 121.738L236.244 121.517L230.343 121.17L226.714 120.949H225.231L218.195 120.57L214.787 120.381H165.121H165.878L169.255 120.791L171.243 121.043L178.342 121.864L192.478 123.568H266.725C262.055 123.252 257.227 122.874 252.431 122.558ZM386.566 88.9847V91.6983L387.355 91.0673V89.0163L386.566 88.9847ZM252.431 122.558L243.785 121.959L239.998 121.738L236.244 121.517L230.343 121.17L226.714 120.949H225.231L218.195 120.57L214.787 120.381H165.121H165.878L169.255 120.791L171.243 121.043L178.342 121.864L192.478 123.568H266.725C262.055 123.252 257.227 122.874 252.431 122.558ZM386.566 88.9847V91.6983L387.355 91.0673V89.0163L386.566 88.9847ZM252.431 122.558L243.785 121.959L239.998 121.738L236.244 121.517L230.343 121.17L226.714 120.949H225.231L218.195 120.57L214.787 120.381H165.121H165.878L169.255 120.791L171.243 121.043L178.342 121.864L192.478 123.568H266.725C262.055 123.252 257.227 122.874 252.431 122.558ZM386.566 88.9847V91.6983L387.355 91.0673V89.0163L386.566 88.9847ZM252.431 122.558L243.785 121.959L239.998 121.738L236.244 121.517L230.343 121.17L226.714 120.949H225.231L218.195 120.57L214.787 120.381H165.121H165.878L169.255 120.791L171.243 121.043L178.342 121.864L192.478 123.568H266.725C262.055 123.252 257.227 122.874 252.431 122.558ZM386.566 88.9847V91.6983L387.355 91.0673V89.0163L386.566 88.9847ZM252.431 122.558L243.785 121.959L239.998 121.738L236.244 121.517L230.343 121.17L226.714 120.949H225.231L218.195 120.57L214.787 120.381H165.121H165.878L169.255 120.791L171.243 121.043L178.342 121.864L192.478 123.568H266.725C262.055 123.252 257.227 122.874 252.431 122.558ZM386.566 88.9847V91.6983L387.355 91.0673V89.0163L386.566 88.9847ZM252.431 122.558L243.785 121.959L239.998 121.738L236.244 121.517L230.343 121.17L226.714 120.949H225.231L218.195 120.57L214.787 120.381H165.121H165.878L169.255 120.791L171.243 121.043L178.342 121.864L192.478 123.568H266.725C262.055 123.252 257.227 122.874 252.431 122.558ZM386.566 88.9847V91.6983L387.355 91.0673V89.0163L386.566 88.9847ZM252.431 122.558L243.785 121.959L239.998 121.738L236.244 121.517L230.343 121.17L226.714 120.949H225.231L218.195 120.57L214.787 120.381H165.121H165.878L169.255 120.791L171.243 121.043L178.342 121.864L192.478 123.568H266.725C262.055 123.252 257.227 122.874 252.431 122.558ZM386.566 88.9847V91.6983L387.355 91.0673V89.0163L386.566 88.9847ZM252.431 122.558L243.785 121.959L239.998 121.738L236.244 121.517L230.343 121.17L226.714 120.949H225.231L218.195 120.57L214.787 120.381H165.121H165.878L169.255 120.791L171.243 121.043L178.342 121.864L192.478 123.568H266.725C262.055 123.252 257.227 122.874 252.431 122.558ZM386.566 88.9847V91.6983L387.355 91.0673V89.0163L386.566 88.9847ZM252.431 122.558L243.785 121.959L239.998 121.738L236.244 121.517L230.343 121.17L226.714 120.949H225.231L218.195 120.57L214.787 120.381H165.121H165.878L169.255 120.791L171.243 121.043L178.342 121.864L192.478 123.568H266.725C262.055 123.252 257.227 122.874 252.431 122.558ZM246.12 122.558H244.795H244.479H242.87H241.892L225.641 121.359H225.168L221.603 121.043L218.447 120.791H213.872L259.94 123.946H261.487L246.12 122.558ZM246.12 122.558H244.795H244.479H242.87H241.892L225.641 121.359H225.168L221.603 121.043L218.447 120.791H213.872L259.94 123.946H261.487L246.12 122.558ZM246.12 122.558H244.795H244.479H242.87H241.892L225.641 121.359H225.168L221.603 121.043L218.447 120.791H213.872L259.94 123.946H261.487L246.12 122.558ZM246.12 122.558H244.795H244.479H242.87H241.892L225.641 121.359H225.168L221.603 121.043L218.447 120.791H213.872L259.94 123.946H261.487L246.12 122.558ZM246.12 122.558H244.795H244.479H242.87H241.892L225.641 121.359H225.168L221.603 121.043L218.447 120.791H213.872L259.94 123.946H261.487L246.12 122.558ZM246.12 122.558H244.795H244.479H242.87H241.892L225.641 121.359H225.168L221.603 121.043L218.447 120.791H213.872L259.94 123.946H261.487L246.12 122.558ZM246.12 122.558H244.795H244.479H242.87H241.892L225.641 121.359H225.168L221.603 121.043L218.447 120.791H213.872L259.94 123.946H261.487L246.12 122.558ZM246.12 122.558H244.795H244.479H242.87H241.892L225.641 121.359H225.168L221.603 121.043L218.447 120.791H213.872L259.94 123.946H261.487L246.12 122.558ZM396.411 37.3626C395.625 32.9897 393.867 28.8491 391.268 25.2459C390.657 24.3665 389.982 23.5333 389.248 22.7531C388.283 21.7239 387.227 20.7839 386.093 19.9448C380.646 15.8418 373.979 13.6862 367.161 13.8234H34.2356C27.5031 13.8161 20.8871 15.5789 15.0508 18.9351C13.7648 19.6924 12.5314 20.5358 11.359 21.4594C8.35935 23.7102 5.8205 26.5169 3.88076 29.7265C3.41444 30.5067 3.00323 31.3186 2.65016 32.1562C1.03941 35.7137 0.221156 39.5789 0.252065 43.484V97.1256C0.252065 98.1353 0.252065 99.1135 0.409834 100.06C0.474264 100.878 0.600845 101.691 0.788481 102.49C0.788481 103.121 1.04091 103.783 1.19868 104.415C1.35645 105.046 1.388 105.109 1.51422 105.487C2.58319 109.109 4.25823 112.523 6.46818 115.585C7.19392 116.563 7.95121 117.541 8.74006 118.456C8.87932 118.611 9.02678 118.759 9.18181 118.898L9.97066 119.813L10.4124 120.223C16.6686 126.697 25.2343 130.43 34.2356 130.604H368.896C371.205 130.453 373.484 130.007 375.68 129.279C380.104 127.725 384.112 125.176 387.395 121.828C390.677 118.48 393.147 114.422 394.612 109.968C394.612 109.621 394.833 109.305 394.928 108.99C395.023 108.674 394.928 108.99 394.928 108.832C395.18 108.054 395.401 107.265 395.591 106.466C396.377 103.372 396.77 100.191 396.758 96.9994V43.3578C396.815 41.3112 396.699 39.2634 396.411 37.2363V37.3626ZM386.566 97.3149C386.553 100.714 385.922 104.081 384.705 107.254C384.395 108.079 384.026 108.881 383.6 109.652C383.451 109.978 383.282 110.294 383.095 110.599C381.598 113.506 379.34 115.951 376.561 117.674C373.782 119.397 370.587 120.332 367.318 120.381H34.2356C29.731 120.139 25.3736 118.694 21.6167 116.197C17.8598 113.7 14.8407 110.241 12.8736 106.182C12.6961 105.855 12.5381 105.517 12.4003 105.172V104.983C12.1331 104.412 11.9115 103.821 11.7377 103.215C11.6501 103.01 11.5763 102.799 11.5168 102.584C11.0058 100.842 10.7402 99.0363 10.728 97.2203V43.5787C10.6757 39.4133 12.1711 35.3767 14.9246 32.2508C15.5602 31.5207 16.2455 30.8354 16.9756 30.1998C21.809 26.134 27.9196 23.8998 34.2356 23.8891H367.192C377.731 23.8891 384.736 29.695 386.124 39.3189C386.372 40.6506 386.488 42.0034 386.472 43.3578L386.566 97.3149ZM246.12 122.432H244.795H244.479H242.87H241.892L225.641 121.233H225.168L221.603 120.917L218.447 120.665H213.872L259.94 123.82H261.487L246.12 122.432ZM246.12 122.432H244.795H244.479H242.87H241.892L225.641 121.233H225.168L221.603 120.917L218.447 120.665H213.872L259.94 123.82H261.487L246.12 122.432ZM246.12 122.432H244.795H244.479H242.87H241.892L225.641 121.233H225.168L221.603 120.917L218.447 120.665H213.872L259.94 123.82H261.487L246.12 122.432ZM246.12 122.432H244.795H244.479H242.87H241.892L225.641 121.233H225.168L221.603 120.917L218.447 120.665H213.872L259.94 123.82H261.487L246.12 122.432ZM246.12 122.432H244.795H244.479H242.87H241.892L225.641 121.233H225.168L221.603 120.917L218.447 120.665H213.872L259.94 123.82H261.487L246.12 122.432ZM246.12 122.432H244.795H244.479H242.87H241.892L225.641 121.233H225.168L221.603 120.917L218.447 120.665H213.872L259.94 123.82H261.487L246.12 122.432ZM246.12 122.432H244.795H244.479H242.87H241.892L225.641 121.233H225.168L221.603 120.917L218.447 120.665H213.872L259.94 123.82H261.487L246.12 122.432ZM246.12 122.432H244.795H244.479H242.87H241.892L225.641 121.233H225.168L221.603 120.917L218.447 120.665H213.872L259.94 123.82H261.487L246.12 122.432ZM252.431 122.432L243.785 121.832L239.998 121.611L236.244 121.391L230.343 121.17L226.714 120.949H225.231L218.195 120.57L214.787 120.381H165.121H165.878L169.255 120.791L171.243 121.043L178.342 121.864L192.478 123.568H266.725C262.055 123.252 257.227 122.874 252.431 122.558V122.432ZM252.431 122.432L243.785 121.832L239.998 121.611L236.244 121.391L230.343 121.17L226.714 120.949H225.231L218.195 120.57L214.787 120.381H165.121H165.878L169.255 120.791L171.243 121.043L178.342 121.864L192.478 123.568H266.725C262.055 123.252 257.227 122.874 252.431 122.558V122.432ZM386.566 88.9847V91.6983L387.355 91.0673V89.0163L386.566 88.9847ZM252.431 122.558L243.785 121.959L239.998 121.738L236.244 121.517L230.343 121.17L226.714 120.949H225.231L218.195 120.57L214.787 120.381H165.121H165.878L169.255 120.791L171.243 121.043L178.342 121.864L192.478 123.568H266.725C262.055 123.252 257.227 122.874 252.431 122.558ZM386.566 88.9847V91.6983L387.355 91.0673V89.0163L386.566 88.9847ZM252.431 122.558L243.785 121.959L239.998 121.738L236.244 121.517L230.343 121.17L226.714 120.949H225.231L218.195 120.57L214.787 120.381H165.121H165.878L169.255 120.791L171.243 121.043L178.342 121.864L192.478 123.568H266.725C262.055 123.252 257.227 122.874 252.431 122.558ZM386.566 88.9847V91.6983L387.355 91.0673V89.0163L386.566 88.9847ZM252.431 122.558L243.785 121.959L239.998 121.738L236.244 121.517L230.343 121.17L226.714 120.949H225.231L218.195 120.57L214.787 120.381H165.121H165.878L169.255 120.791L171.243 121.043L178.342 121.864L192.478 123.568H266.725C262.055 123.252 257.227 122.874 252.431 122.558ZM386.566 88.9847V91.6983L387.355 91.0673V89.0163L386.566 88.9847ZM252.431 122.558L243.785 121.959L239.998 121.738L236.244 121.517L230.343 121.17L226.714 120.949H225.231L218.195 120.57L214.787 120.381H165.121H165.878L169.255 120.791L171.243 121.043L178.342 121.864L192.478 123.568H266.725C262.055 123.252 257.227 122.874 252.431 122.558ZM386.566 88.9847V91.6983L387.355 91.0673V89.0163L386.566 88.9847ZM252.431 122.558L243.785 121.959L239.998 121.738L236.244 121.517L230.343 121.17L226.714 120.949H225.231L218.195 120.57L214.787 120.381H165.121H165.878L169.255 120.791L171.243 121.043L178.342 121.864L192.478 123.568H266.725C262.055 123.252 257.227 122.874 252.431 122.558ZM386.566 88.9847V91.6983L387.355 91.0673V89.0163L386.566 88.9847ZM252.431 122.558L243.785 121.959L239.998 121.738L236.244 121.517L230.343 121.17L226.714 120.949H225.231L218.195 120.57L214.787 120.381H165.121H165.878L169.255 120.791L171.243 121.043L178.342 121.864L192.478 123.568H266.725C262.055 123.252 257.227 122.874 252.431 122.558ZM386.566 88.9847V91.6983L387.355 91.0673V89.0163L386.566 88.9847ZM252.431 122.558L243.785 121.959L239.998 121.738L236.244 121.517L230.343 121.17L226.714 120.949H225.231L218.195 120.57L214.787 120.381H165.121H165.878L169.255 120.791L171.243 121.043L178.342 121.864L192.478 123.568H266.725C262.055 123.252 257.227 122.874 252.431 122.558ZM386.566 88.9847V91.6983L387.355 91.0673V89.0163L386.566 88.9847ZM252.431 122.558L243.785 121.959L239.998 121.738L236.244 121.517L230.343 121.17L226.714 120.949H225.231L218.195 120.57L214.787 120.381H165.121H165.878L169.255 120.791L171.243 121.043L178.342 121.864L192.478 123.568H266.725C262.055 123.252 257.227 122.874 252.431 122.558ZM386.566 88.9847V91.6983L387.355 91.0673V89.0163L386.566 88.9847ZM252.431 122.558L243.785 121.959L239.998 121.738L236.244 121.517L230.343 121.17L226.714 120.949H225.231L218.195 120.57L214.787 120.381H165.121H165.878L169.255 120.791L171.243 121.043L178.342 121.864L192.478 123.568H266.725C262.055 123.252 257.227 122.874 252.431 122.558ZM386.566 88.9847V91.6983L387.355 91.0673V89.0163L386.566 88.9847ZM252.431 122.558L243.785 121.959L239.998 121.738L236.244 121.517L230.343 121.17L226.714 120.949H225.231L218.195 120.57L214.787 120.381H165.121H165.878L169.255 120.791L171.243 121.043L178.342 121.864L192.478 123.568H266.725C262.055 123.252 257.227 122.874 252.431 122.558ZM386.566 88.9847V91.6983L387.355 91.0673V89.0163L386.566 88.9847ZM252.431 122.558L243.785 121.959L239.998 121.738L236.244 121.517L230.343 121.17L226.714 120.949H225.231L218.195 120.57L214.787 120.381H165.121H165.878L169.255 120.791L171.243 121.043L178.342 121.864L192.478 123.568H266.725C262.055 123.252 257.227 122.874 252.431 122.558ZM386.566 88.9847V91.6983L387.355 91.0673V89.0163L386.566 88.9847ZM252.431 122.558L243.785 121.959L239.998 121.738L236.244 121.517L230.343 121.17L226.714 120.949H225.231L218.195 120.57L214.787 120.381H165.121H165.878L169.255 120.791L171.243 121.043L178.342 121.864L192.478 123.568H266.725C262.055 123.252 257.227 122.874 252.431 122.558ZM386.566 88.9847V91.6983L387.355 91.0673V89.0163L386.566 88.9847ZM252.431 122.558L243.785 121.959L239.998 121.738L236.244 121.517L230.343 121.17L226.714 120.949H225.231L218.195 120.57L214.787 120.381H165.121H165.878L169.255 120.791L171.243 121.043L178.342 121.864L192.478 123.568H266.725C262.055 123.252 257.227 122.874 252.431 122.558ZM386.566 88.9847V91.6983L387.355 91.0673V89.0163L386.566 88.9847ZM252.431 122.558L243.785 121.959L239.998 121.738L236.244 121.517L230.343 121.17L226.714 120.949H225.231L218.195 120.57L214.787 120.381H165.121H165.878L169.255 120.791L171.243 121.043L178.342 121.864L192.478 123.568H266.725C262.055 123.252 257.227 122.874 252.431 122.558ZM386.566 88.9847V91.6983L387.355 91.0673V89.0163L386.566 88.9847ZM252.431 122.558L243.785 121.959L239.998 121.738L236.244 121.517L230.343 121.17L226.714 120.949H225.231L218.195 120.57L214.787 120.381H165.121H165.878L169.255 120.791L171.243 121.043L178.342 121.864L192.478 123.568H266.725C262.055 123.252 257.227 122.874 252.431 122.558ZM386.566 88.9847V91.6983L387.355 91.0673V89.0163L386.566 88.9847ZM252.431 122.558L243.785 121.959L239.998 121.738L236.244 121.517L230.343 121.17L226.714 120.949H225.231L218.195 120.57L214.787 120.381H165.121H165.878L169.255 120.791L171.243 121.043L178.342 121.864L192.478 123.568H266.725C262.055 123.252 257.227 122.874 252.431 122.558ZM386.566 88.9847V91.6983L387.355 91.0673V89.0163L386.566 88.9847ZM252.431 122.558L243.785 121.959L239.998 121.738L236.244 121.517L230.343 121.17L226.714 120.949H225.231L218.195 120.57L214.787 120.381H165.121H165.878L169.255 120.791L171.243 121.043L178.342 121.864L192.478 123.568H266.725C262.055 123.252 257.227 122.874 252.431 122.558ZM386.566 88.9847V91.6983L387.355 91.0673V89.0163L386.566 88.9847ZM252.431 122.558L243.785 121.959L239.998 121.738L236.244 121.517L230.343 121.17L226.714 120.949H225.231L218.195 120.57L214.787 120.381H165.121H165.878L169.255 120.791L171.243 121.043L178.342 121.864L192.478 123.568H266.725C262.055 123.252 257.227 122.874 252.431 122.558ZM386.566 88.9847V91.6983L387.355 91.0673V89.0163L386.566 88.9847ZM252.431 122.558L243.785 121.959L239.998 121.738L236.244 121.517L230.343 121.17L226.714 120.949H225.231L218.195 120.57L214.787 120.381H165.121H165.878L169.255 120.791L171.243 121.043L178.342 121.864L192.478 123.568H266.725C262.055 123.252 257.227 122.874 252.431 122.558ZM386.566 88.9847V91.6983L387.355 91.0673V89.0163L386.566 88.9847ZM252.431 122.558L243.785 121.959L239.998 121.738L236.244 121.517L230.343 121.17L226.714 120.949H225.231L218.195 120.57L214.787 120.381H165.121H165.878L169.255 120.791L171.243 121.043L178.342 121.864L192.478 123.568H266.725C262.055 123.252 257.227 122.874 252.431 122.558ZM386.566 88.9847V91.6983L387.355 91.0673V89.0163L386.566 88.9847ZM252.431 122.558L243.785 121.959L239.998 121.738L236.244 121.517L230.343 121.17L226.714 120.949H225.231L218.195 120.57L214.787 120.381H165.121H165.878L169.255 120.791L171.243 121.043L178.342 121.864L192.478 123.568H266.725C262.055 123.252 257.227 122.874 252.431 122.558ZM386.566 88.9847V91.6983L387.355 91.0673V89.0163L386.566 88.9847ZM252.431 122.558L243.785 121.959L239.998 121.738L236.244 121.517L230.343 121.17L226.714 120.949H225.231L218.195 120.57L214.787 120.381H165.121H165.878L169.255 120.791L171.243 121.043L178.342 121.864L192.478 123.568H266.725C262.055 123.252 257.227 122.874 252.431 122.558ZM386.566 88.9847V91.6983L387.355 91.0673V89.0163L386.566 88.9847ZM252.431 122.558L243.785 121.959L239.998 121.738L236.244 121.517L230.343 121.17L226.714 120.949H225.231L218.195 120.57L214.787 120.381H165.121H165.878L169.255 120.791L171.243 121.043L178.342 121.864L192.478 123.568H266.725C262.055 123.252 257.227 122.874 252.431 122.558ZM386.566 88.9847V91.6983L387.355 91.0673V89.0163L386.566 88.9847ZM252.431 122.558L243.785 121.959L239.998 121.738L236.244 121.517L230.343 121.17L226.714 120.949H225.231L218.195 120.57L214.787 120.381H165.121H165.878L169.255 120.791L171.243 121.043L178.342 121.864L192.478 123.568H266.725C262.055 123.252 257.227 122.874 252.431 122.558ZM386.566 88.9847V91.6983L387.355 91.0673V89.0163L386.566 88.9847ZM252.431 122.558L243.785 121.959L239.998 121.738L236.244 121.517L230.343 121.17L226.714 120.949H225.231L218.195 120.57L214.787 120.381H165.121H165.878L169.255 120.791L171.243 121.043L178.342 121.864L192.478 123.568H266.725C262.055 123.252 257.227 122.874 252.431 122.558ZM386.566 88.9847V91.6983L387.355 91.0673V89.0163L386.566 88.9847ZM252.431 122.558L243.785 121.959L239.998 121.738L236.244 121.517L230.343 121.17L226.714 120.949H225.231L218.195 120.57L214.787 120.381H165.121H165.878L169.255 120.791L171.243 121.043L178.342 121.864L192.478 123.568H266.725C262.055 123.252 257.227 122.874 252.431 122.558ZM386.566 88.9847V91.6983L387.355 91.0673V89.0163L386.566 88.9847Z" fill="url(#paint1_linear_24_17568)"/>
<g style="mix-blend-mode:multiply" opacity="0.6">
<path d="M21.2987 31.0205C20.3695 31.5543 19.4738 32.1444 18.6167 32.7876C17.3545 32.5667 16.1239 32.4089 14.9248 32.2511C11.7176 31.9202 8.49047 31.8253 5.26936 31.9672L2.65039 32.1565C3.00346 31.3189 3.41467 30.507 3.88099 29.7268H7.03638C10.3711 29.6378 13.7073 29.8384 17.0074 30.3264C18.4486 30.4857 19.8808 30.7174 21.2987 31.0205Z" fill="#C97B3A"/>
<path d="M11.5808 44.3677C11.516 45.1763 11.516 45.9888 11.5808 46.7974L10.7919 46.9867C8.15664 47.6225 5.45655 47.9507 2.74569 47.9649H0.25293V45.5983H1.07333C4.26119 45.7287 7.45085 45.3885 10.5395 44.5886L11.5808 44.3677Z" fill="#C97B3A"/>
<path d="M11.423 53.4239V55.7589L10.6342 55.7273L1.04178 55.5695H0.25293V53.2346H1.04178L10.6342 53.4239H11.423Z" fill="#C97B3A"/>
<path d="M11.423 68.1595V70.5261L10.6342 70.3683L1.04178 68.3173L0.25293 68.1595V65.793L1.04178 65.9507L10.6342 67.9702L11.423 68.1595Z" fill="#C97B3A"/>
<path d="M10.6342 77.2154L5.80641 77.8149C7.19478 78.3829 8.9618 79.0771 10.6342 79.6766L11.423 79.9291V82.3903L10.6342 82.0432C7.47376 81.0033 4.37629 79.7812 1.35732 78.3829H1.04178H0.25293V76.0479H1.04178L10.5079 74.8489H11.2968V77.2154H10.6342Z" fill="#C97B3A"/>
<path d="M11.423 97.8516V100.187L10.6342 100.123L1.04178 99.6502L0.25293 99.5871V97.2836L1.04178 97.3152L10.6342 97.82L11.423 97.8516Z" fill="#C97B3A"/>
<path d="M116.75 134.012H110.439L101.572 130.857C95.7032 128.679 88.9507 126.155 82.0404 123.757L72.5742 120.602H79.8001L89.0453 123.757C96.1765 126.344 103.024 128.9 108.262 130.857L116.75 134.012Z" fill="#C97B3A"/>
<path d="M92.7695 134.012H85.4806C82.0097 132.876 78.1601 131.709 74.1843 130.857C68.6498 129.359 63.0049 128.304 57.303 127.702C40.9606 125.542 24.7491 122.487 8.74154 118.551L6.62743 118.078C6.02184 117.193 5.4636 116.276 4.95508 115.332C5.46568 115.421 5.97124 115.537 6.46966 115.679C10.5086 116.595 15.9358 117.857 21.9942 119.15C29.4724 120.728 37.7711 122.306 45.2178 123.6C49.73 124.357 53.9583 124.925 57.4923 125.272C66.0666 126.235 74.5231 128.053 82.7354 130.699C86.4272 131.835 89.835 132.971 92.7695 134.012Z" fill="#C97B3A"/>
<path d="M161.588 134.013H159.253L158.874 131.898L155.435 130.699L135.146 123.6L125.743 120.318H132.748L142.119 123.6L160.894 130.194L160.988 130.699L161.588 134.013Z" fill="#C97B3A"/>
<path d="M381.802 130.352C380.645 131.023 379.443 131.613 378.205 132.119C375.302 131.614 372.115 131.11 369.023 130.668C365.867 130.194 362.712 129.784 360.314 129.595C357.159 129.311 350.848 128.995 341.95 128.554C330.054 127.954 313.93 127.165 296.417 125.966C291.716 127.197 282.092 128.901 270.606 130.699C263.664 131.772 256.028 132.94 248.519 133.855H231.511L245.142 131.962L232.836 130.542C215.608 128.554 191.28 125.619 173.105 123.442L148.303 120.634V120.318H165.216H165.974L169.35 120.728L171.338 120.981L178.437 121.801L192.574 123.505C216.586 126.376 243.06 129.5 251.579 130.384V130.605V131.11L255.019 130.605C267.64 128.743 279.946 126.818 288.182 125.272C283.039 124.893 277.801 124.452 272.405 124.01L266.725 123.505C262.055 123.158 257.259 122.779 252.4 122.464L243.754 121.864L239.967 121.643L236.213 121.423L230.344 121.17L225.232 120.886L218.195 120.507L214.787 120.318H253.977C260.288 120.76 266.599 121.233 272.626 121.77C280.514 122.464 288.403 123.063 296.039 123.6H296.26C313.835 124.799 329.991 125.619 341.918 126.219C350.69 126.66 357.064 126.976 360.346 127.26C364.542 127.639 370.38 128.491 375.681 129.311L381.802 130.352Z" fill="#C97B3A"/>
<path d="M397.232 106.497C397.145 107.283 397.008 108.063 396.822 108.832H395.118C392.215 108.832 389.091 109.084 385.873 109.274L383.601 109.432C384.027 108.66 384.396 107.859 384.705 107.033H386.567C389.723 106.844 392.878 106.686 395.781 106.592L397.232 106.497Z" fill="#C97B3A"/>
<path d="M389.185 22.564C387.986 22.3747 386.755 22.1854 385.525 22.0592C369.079 20.3767 352.537 19.839 336.017 20.4499V20.2606C331.725 21.7121 328.191 23.1004 325.856 24.0155L322.701 25.2777L322.133 24.0155L321.849 23.132C322.48 22.848 329.107 19.9766 338.446 16.8212C342.012 15.6853 345.988 14.5178 350.153 13.6658H361.986C356.879 14.4856 351.822 15.5917 346.84 16.979L343.464 17.9256C355.547 17.6516 367.638 17.9886 379.687 18.9353C381.865 19.1562 383.979 19.3771 385.998 19.6611C387.147 20.5287 388.214 21.5004 389.185 22.564Z" fill="#C97B3A"/>
<path d="M397.579 53.9286V56.3898L396.822 56.6738C393.737 57.6918 390.57 58.4414 387.356 58.9141H386.567V56.8H387.356C390.567 56.3006 393.733 55.5408 396.822 54.5281L397.579 53.9286Z" fill="#C97B3A"/>
<path d="M397.579 50.1107V52.4773L396.822 52.2879L387.356 50.0161C387.089 49.9679 386.826 49.9047 386.567 49.8267V47.334L387.356 47.5233L396.822 49.7952L397.579 50.1107Z" fill="#C97B3A"/>
<path d="M397.579 66.487V68.822H396.822L387.356 67.97H386.567V65.635H387.356C390.511 65.8874 393.667 66.1714 396.822 66.487H397.579Z" fill="#C97B3A"/>
<path d="M397.579 80.3076V82.6742L396.822 82.8319C393.667 83.5892 390.511 84.5043 387.356 85.3878L386.567 85.5771V83.179L387.356 82.9581C390.511 82.1377 393.887 81.1911 396.822 80.4654L397.579 80.3076Z" fill="#C97B3A"/>
<path d="M121.514 16.411V18.7144C109.397 18.7144 31.8061 20.229 17.8908 20.9548L11.3276 21.3019C12.5046 20.4324 13.7379 19.6418 15.0194 18.9353L24.9905 18.4305C33.5416 18.0203 44.7432 17.4838 54.8089 17.1052C63.1076 16.6319 116.749 16.411 121.514 16.411Z" fill="#C97B3A"/>
</g>
<g style="mix-blend-mode:overlay" opacity="0.5">
<path d="M12.8107 35.1223C13.3847 34.0755 14.0957 33.1099 14.9248 32.2509C11.7263 31.8035 8.48849 31.7083 5.26929 31.9669C11.4538 32.03 12.8107 35.1223 12.8107 35.1223Z" fill="#FFDE55"/>
<path d="M69.0709 18.6827L15.9973 21.3964C15.9973 21.3964 31.5218 21.3964 43.7016 21.0177C52.195 20.7139 60.6647 19.9343 69.0709 18.6827Z" fill="#FFDE55"/>
<path d="M8.17271 47.6494C5.55287 48.0532 2.89472 48.1485 0.252686 47.9334V53.2344L1.23086 49.0062C3.58522 48.7933 5.91143 48.3386 8.17271 47.6494Z" fill="#FFDE55"/>
<path d="M10.6337 57.1786V56.0111C6.97341 56.0111 1.45148 55.6009 0.252431 55.5378H0L0.157769 56.4845L10.6337 57.1786Z" fill="#FFDE55"/>
<path d="M10.6339 70.4313C5.61685 69.5793 0.252686 68.1594 0.252686 68.1594V69.7687L10.6339 71.5041V70.4313Z" fill="#FFDE55"/>
<path d="M10.6339 82.0429C6.879 80.7492 1.98815 78.5404 1.98815 78.5404H0.252686V79.8026C1.22445 79.7366 2.20067 79.8003 3.15564 79.9919C4.54401 80.339 8.04649 81.7589 10.6339 82.8002V82.0429Z" fill="#FFDE55"/>
<path d="M10.6339 100.249L0.252686 99.8077V100.786C3.69454 101.237 7.16263 101.458 10.6339 101.448V100.249Z" fill="#FFDE55"/>
<path d="M39.0641 125.177C30.2922 123.726 9.0564 118.866 9.0564 118.866L10.4132 120.192C10.4132 120.192 18.491 122.148 22.3721 123.347C26.2533 124.546 46.1007 127.323 52.3799 127.985C58.6591 128.648 67.3364 130.699 67.3364 130.699L73.6472 130.51C73.6472 130.51 60.4261 127.701 58.9746 127.701C57.5232 127.701 47.8361 126.597 39.0641 125.177Z" fill="#FFDE55"/>
<path d="M71.974 120.318H68.0613C77.5274 123.221 96.6175 130.036 98.4477 130.699H98.6054H101.351C101.351 130.699 87.1198 125.65 82.4183 123.915C78.8843 122.558 73.8987 120.949 71.974 120.318Z" fill="#FFDE55"/>
<path d="M127.383 120.318H125.427C131.738 122.968 150.133 129.784 153.1 130.699H153.51H155.434C155.434 130.699 145.716 126.912 140.099 125.335C135.75 123.958 131.501 122.281 127.383 120.318Z" fill="#FFDE55"/>
<path d="M219.71 129.121C214.819 128.648 177.522 124.483 168.561 123.126C162.566 122.211 152.784 121.012 146.883 120.318H141.992C150.133 122.558 180.551 125.713 190.743 126.628C199.768 127.48 217.501 129.784 223.275 130.604L225.168 130.857L231.953 130.667H231.605C230.028 130.478 224.033 129.531 219.71 129.121Z" fill="#FFDE55"/>
<path d="M225.169 120.886H225.642L244.574 122.274L218.511 120.286L225.169 120.886Z" fill="#FFDE55"/>
<path d="M263.064 123.599C257.763 123.189 252.746 122.81 249.559 122.653L244.447 122.306L283.795 125.303L213.872 120.318C222.139 121.296 237.379 123.063 244.952 123.473C246.372 123.473 247.508 123.662 248.297 123.662C254.324 123.662 281.365 125.145 286.382 125.398H287.14H285.688C282.06 125.114 272.089 124.293 263.064 123.599Z" fill="#FFDE55"/>
<path d="M383.033 110.442L394.739 109.937C394.739 109.59 394.96 109.274 395.055 108.959L383.538 109.495C383.389 109.82 383.22 110.137 383.033 110.442Z" fill="#FFDE55"/>
<path d="M396.947 82.958L386.566 85.7032V87.0285C389.406 86.3027 394.423 85.1983 396.947 84.6619V82.958Z" fill="#FFDE55"/>
<path d="M396.949 68.7589L385.715 67.7176C389.023 68.275 392.283 69.0874 395.465 70.1472C396.538 70.9045 397.012 78.1304 397.012 78.1304L396.949 68.7589Z" fill="#FFDE55"/>
<path d="M396.947 56.7997C395.874 57.0837 394.233 57.4939 391.899 58.1881C390.168 58.7152 388.374 59.0019 386.566 59.04V60.6177C390.096 59.8096 393.565 58.7553 396.947 57.4623V56.7997Z" fill="#FFDE55"/>
<path d="M386.566 51.1832C389.992 51.9507 393.458 52.53 396.947 52.9187V52.3192L386.566 49.7949V51.1832Z" fill="#FFDE55"/>
<path d="M389.281 22.6585C384.705 22.0274 373.504 20.5759 364.605 20.3235C353.309 20.0395 335.954 20.3235 335.954 20.3235L325.321 23.8891H329.076C332.312 22.3228 335.81 21.3706 339.394 21.0808C344.79 20.7968 371.421 21.4594 375.775 21.7434C381.045 22.3817 386.236 23.5553 391.268 25.2459C390.671 24.335 390.007 23.4701 389.281 22.6585Z" fill="#FFDE55"/>
</g>
<g style="mix-blend-mode:multiply" opacity="0.4">
<path d="M305.757 22.0905C305.946 22.5322 306.136 23.0055 306.294 23.4788H305H294.555C264.737 23.9521 202.071 24.3308 164.964 24.5517H150.291H149.755L107.946 24.8041H96.9651C96.9651 24.3939 97.186 24.0152 97.3122 23.6366C97.1229 24.0152 97.0282 24.2361 96.9966 24.2677L97.2806 23.3842H109.176C135.208 23.4157 242.965 22.974 292.441 22.0905H304.243H305.757Z" fill="#C97B3A"/>
</g>
<path d="M302.38 16.19H298.909C280.482 16.0638 201.944 15.7798 193.077 15.2749L146.441 12.6244L136.344 12.1511H136.186L125.584 11.5516L164.553 12.6244C187.429 13.3186 213.935 14.1705 224.789 14.6123L229.364 14.8332C234.35 15.2434 280.324 15.7167 295.123 15.9691H298.815C299.981 16.0419 301.151 16.0419 302.317 15.9691L302.38 16.19Z" fill="#FFDE55"/>
<g style="mix-blend-mode:overlay" opacity="0.5">
<path d="M306.515 24.0152H218.164L306.168 23.2579C306.168 23.2579 306.452 23.7944 306.515 24.0152Z" fill="#FFDE55"/>
</g>
<g style="mix-blend-mode:overlay" opacity="0.5">
<path d="M96.0506 28.1805L159.158 29.5689C159.158 29.5689 102.551 28.8432 98.7642 29.0009C97.0288 29.0009 95.9559 30.9257 96.1453 33.3869C96.019 33.3869 95.9875 28.9694 96.0506 28.1805Z" fill="#FFDE55"/>
</g>
<g style="mix-blend-mode:overlay" opacity="0.5">
<path d="M164.964 24.6466L107.158 26.1296H106.747L97.8177 25.751H96.8711V25.4354H97.8177H107.568L149.629 24.9621H150.071L168.025 24.7413C168.372 24.5519 167.236 24.615 164.964 24.6466Z" fill="#FFDE55"/>
</g>
<path d="M194.333 21.9681C194.347 21.8377 194.347 21.7062 194.333 21.5758V20.4831C194.347 20.306 194.347 20.128 194.333 19.9508C194.333 19.9508 194.333 19.9508 194.333 19.7267C194.333 19.5026 194.333 18.8862 194.109 18.4939C193.807 17.1117 193.375 15.761 192.82 14.4595L192.372 13.3668C192.204 13.0306 192.064 12.6944 191.896 12.3862L191.195 11.2095C190.258 9.63971 189.087 8.22247 187.721 7.00691C187.326 6.64038 186.905 6.30328 186.461 5.9983C185.699 5.47059 184.893 5.01119 184.051 4.62546L183.463 4.3733C182.698 4.06256 181.912 3.8097 181.109 3.61684C179.571 3.15076 177.98 2.87783 176.374 2.80434H24.2694C20.1124 2.69327 16.0644 4.14255 12.9225 6.86683C11.1426 8.43785 9.68646 10.3413 8.63589 12.4703C8.43977 12.8625 8.24365 13.2827 8.07554 13.703L7.90744 14.0112C7.84891 14.118 7.80195 14.2307 7.76736 14.3474L7.51521 15.0198C7.37512 15.384 7.26305 15.7763 7.15098 16.1405C7.13786 16.224 7.13786 16.3091 7.15098 16.3926C7.07257 16.6318 7.0071 16.8749 6.95486 17.1211L6.70271 18.2418V18.6901C6.54054 19.6173 6.42832 20.5525 6.3665 21.4918C6.3665 21.912 6.3665 22.3603 6.3665 22.8086C6.35842 24.4363 6.51802 26.0605 6.84279 27.6555C6.84279 28.0478 6.98288 28.412 7.06693 28.7762C7.19599 29.3354 7.35498 29.8871 7.54322 30.4292C7.54322 30.8215 7.79538 31.1857 7.93546 31.5499C9.07312 34.9918 11.2843 37.9783 14.2443 40.071C17.2043 42.1637 20.7572 43.2523 24.3815 43.177H176.374C178.709 43.2454 181.032 42.8189 183.191 41.9255C185.349 41.0322 187.294 39.6923 188.898 37.9939L189.402 37.4055L189.711 37.0413L190.215 36.3689C191.676 34.301 192.749 31.9846 193.381 29.5327C193.394 29.4491 193.394 29.3641 193.381 29.2805V28.9723C193.381 28.8042 193.381 28.6081 193.381 28.412C193.381 28.2159 193.381 27.9357 193.521 27.7116C193.8 26.1581 193.94 24.583 193.941 23.0047C194.361 22.8646 194.361 22.4163 194.333 21.9681ZM186.096 28.0198C186.096 28.2719 186.096 28.5241 185.872 28.8042L185.704 29.2525V29.5047C185.704 29.5047 185.704 29.7008 185.704 29.8129C185.164 31.3892 184.206 32.7896 182.934 33.8651C181.661 34.9406 180.12 35.651 178.476 35.9206C177.863 36.0111 177.245 36.058 176.627 36.0607H24.2694C23.4119 36.0616 22.5568 35.9676 21.7199 35.7805C20.0694 35.4201 18.5658 34.5706 17.4052 33.343C17.1665 33.1042 16.942 32.8516 16.7328 32.5865L16.3126 32.1103L15.8923 31.4378L15.5561 30.8215C15.36 30.4292 15.1919 30.009 15.0238 29.5887V29.3926V29.0844L14.8557 28.6081V28.2719L14.6035 27.3473C14.3167 26.0207 14.1572 24.6698 14.1272 23.3129C14.1272 23.0887 14.1272 22.5564 14.1272 21.856C14.2246 20.7888 14.4025 19.7304 14.6596 18.6901C14.7459 18.3184 14.8583 17.9533 14.9958 17.5974V17.3452L15.1078 16.8129V16.6168L15.2759 16.1965C15.416 15.9164 15.5281 15.6642 15.6962 15.384C15.7413 15.2757 15.7977 15.1724 15.8643 15.0758L16.0044 14.8237C16.1751 14.5421 16.3622 14.2708 16.5647 14.0112L16.7048 13.8151C17.0697 13.3612 17.4727 12.9394 17.9096 12.5543C18.1337 12.3862 18.3578 12.1901 18.582 12.05C20.2289 10.925 22.1921 10.3557 24.1854 10.425H176.374C177.862 10.3646 179.345 10.6324 180.717 11.2095C181.392 11.5279 182.023 11.9329 182.594 12.4142C182.986 12.7499 183.351 13.1152 183.687 13.5069L184.471 14.5996C185.141 15.6921 185.659 16.8702 186.012 18.1017C186.012 18.522 186.236 18.9422 186.32 19.3625C186.317 19.4278 186.317 19.4933 186.32 19.5586C186.32 19.7267 186.32 19.9228 186.32 20.0629C186.32 20.0629 186.32 20.8474 186.461 21.1836C186.601 21.5198 186.461 21.4918 186.461 21.6319C186.461 22.3323 186.461 22.8646 186.461 23.0887C186.555 24.7413 186.432 26.399 186.096 28.0198Z" fill="#9E4000"/>
<path d="M194.362 20.3431V19.6147V18.3539C194.255 17.0976 194.049 15.8516 193.746 14.6276C193.746 14.2634 193.578 13.8992 193.466 13.507L193.298 12.9466C193.298 12.7505 193.298 12.5824 193.101 12.3863C192.948 11.9789 192.761 11.5852 192.541 11.2096C191.985 9.79257 191.261 8.44747 190.384 7.20311L189.543 6.08242C189.151 5.63415 188.759 5.18587 188.339 4.79363C187.992 4.42851 187.617 4.09127 187.218 3.78502C184.169 1.27341 180.324 -0.0678038 176.375 0.00270607H24.2703C23.399 0.000798706 22.5285 0.0569574 21.6647 0.170809C20.1722 0.372816 18.7123 0.768384 17.322 1.34753L16.8737 1.54365C16.3363 1.79592 15.8125 2.07648 15.3048 2.38416C11.5917 4.77593 8.85062 8.41077 7.57205 12.6384C7.57205 12.6384 7.57205 12.6384 7.57205 12.8626C7.57205 13.0867 7.34791 13.535 7.26386 13.8992C7.24796 13.9731 7.24796 14.0495 7.26386 14.1233V14.4035L7.09576 15.1039C7.09576 15.1039 7.09576 15.244 7.09576 15.3281C7.09576 15.4121 6.95567 16.0005 6.89964 16.3647V16.6169C6.89964 16.925 6.89964 17.2332 6.89964 17.5414C6.89964 17.8496 6.89964 18.2979 6.89964 18.6901C6.88469 18.8111 6.88469 18.9334 6.89964 19.0543C6.89964 19.5306 6.89964 19.9789 6.89964 20.4552C6.89964 20.9315 6.89964 21.3237 6.89964 21.772V22.1362C7.00365 23.8676 7.27576 25.5847 7.71214 27.2634C7.71214 27.6836 7.93627 28.1039 8.07636 28.4961C8.07636 28.4961 8.07636 28.7483 8.21645 28.8884L8.38455 29.3927V29.6168L8.66472 30.3172C8.8048 30.6534 8.97291 31.0177 9.14101 31.3539V31.606L9.39316 32.0823C9.39316 32.0823 9.53325 32.3625 9.6173 32.5306V32.6987C11.0719 35.3756 13.2403 37.5967 15.8815 39.1151C18.5227 40.6335 21.5332 41.3898 24.5784 41.2999H176.375C179.6 41.3562 182.776 40.5016 185.537 38.8344C186.069 38.4982 186.545 38.134 187.022 37.7698H187.19C187.554 37.4896 187.89 37.1534 188.226 36.8452C190.031 35.0053 191.45 32.8241 192.401 30.4293V30.0931C192.401 30.0931 192.401 29.897 192.401 29.7849C192.413 29.6825 192.413 29.5791 192.401 29.4767V29.3086L192.737 28.2159C193.297 26.2902 193.636 24.3068 193.746 22.3043C193.746 22.3043 193.746 22.1362 193.746 22.0522V20.3431H194.362Z" fill="url(#paint2_linear_24_17568)"/>
<g style="mix-blend-mode:multiply" opacity="0.4">
<path d="M189.488 5.97009H187.414H186.378H183.352H183.128C170.156 5.60587 138.104 5.10156 120.734 4.65328C98.9924 4.09294 76.1584 3.47656 57.499 2.80415L42.1176 2.3839H41.9775C35.6457 2.15976 30.3224 1.96364 26.1759 1.76752L17.2944 1.34726C18.6847 0.768119 20.1446 0.372551 21.6371 0.170544C41.8094 0.590801 100.561 1.15114 113.841 1.76752H114.01C114.43 1.76752 133.622 0.898989 150.992 0.00244141H172.789C163.404 0.366664 137.768 0.758904 131.688 1.23519C129.363 1.43131 122.807 2.04769 120.678 2.18778L135.667 2.80415C147.546 3.3645 173.742 3.92484 183.856 4.3451L187.835 4.5132H188.283C188.703 4.90544 189.095 5.35371 189.488 5.80199V5.97009Z" fill="#C97B3A"/>
<path d="M192.541 11.2092C192.709 11.6015 192.877 12.0217 193.017 12.442H191.869H182.595C156.119 12.8622 100.477 13.1984 67.5287 13.3946H54.5008H54.0245L16.9018 13.6187H7.15186C7.15186 13.2545 7.34798 12.9183 7.46005 12.5821C7.29194 12.9183 7.20789 13.1144 7.17987 13.1424L7.43203 12.3579H17.9945C41.1086 12.3859 136.787 11.9937 180.718 11.2092H191.196H192.541Z" fill="#C97B3A"/>
<path d="M194.363 19.6144H194.111H186.322C141.663 19.0261 38.2517 17.4851 15.4177 16.8127H14.9134L7.20872 16.5606H6.62036C6.62036 16.1964 6.62036 15.8601 6.81648 15.5239C7.0126 15.1877 6.81648 15.5239 6.81648 15.2998H7.57294L15.0535 15.5239H15.838C38.7 16.2244 141.439 17.7653 185.986 18.3257H193.859H194.251L194.363 19.6144Z" fill="#C97B3A"/>
<path d="M193.943 28.0196C193.943 28.2437 193.943 28.4959 193.803 28.72C193.663 28.9441 193.803 29.1122 193.803 29.2803H185.706C140.626 29.2803 36.6266 28.8321 17.6029 28.636H14.6892H8.0491H7.04048L6.78833 27.3752H7.62884H14.3529H16.9025C40.0446 27.6273 142.391 28.0196 186.098 28.0196H193.943Z" fill="#C97B3A"/>
<path d="M190.328 36.7605L189.824 37.4329L189.516 37.7971L187.218 37.573L182.483 37.0687C178.813 36.6765 149.507 36.4243 140.206 36.1721C136.619 36.1721 133.678 36.004 132.193 35.92L127.57 36.1721C109.387 37.0687 43.5185 40.1786 38.6995 41.3553H38.5034C37.8053 42.0372 37.2022 42.8099 36.7103 43.6527H35.2254C35.7027 42.8567 36.2266 42.0896 36.7944 41.3553C37.1523 40.8381 37.647 40.4307 38.2232 40.1786C41.5012 39.254 79.2963 36.7885 91.4558 36.1721L94.2575 36.0321C103.139 35.7239 125.777 35.3877 127.542 35.0515C114.374 34.323 41.3051 33.6226 30.9388 32.9782L22.9819 32.5019L17.9108 32.2217H16.3139L9.56173 31.8295H8.72122H8.02079C7.85269 31.4092 7.7126 30.989 7.57251 30.5687H8.13285H8.88932L15.5574 30.961H17.0703L20.0401 31.1571C28.4453 31.6614 100.337 32.3338 112.917 33.0342C124.124 33.6786 160.826 35.0234 178.197 36.0881L188.339 36.7045L190.328 36.7605Z" fill="#C97B3A"/>
</g>
<path d="M189.543 5.97014H186.461C170.099 5.85807 100.364 5.60592 92.4916 5.15764L51.0823 2.80421L42.1168 2.38395H41.9767L32.563 1.85162L67.1641 2.80421C87.4766 3.42058 111.011 4.17704 120.649 4.56928L124.711 4.7654C129.138 5.12963 169.959 5.54988 183.099 5.77402H186.377C187.413 5.83865 188.451 5.83865 189.487 5.77402L189.543 5.97014Z" fill="#FFDE55"/>
<path d="M188.282 4.6538H187.862L183.295 4.23354C178.813 3.78527 175.394 3.64518 175.394 3.64518L139.785 3.05682C139.785 3.05682 167.998 3.05682 180.914 3.42105L187.218 3.61717C187.617 3.92341 187.992 4.26066 188.338 4.62578L188.282 4.6538Z" fill="#FFDE55"/>
<g style="mix-blend-mode:overlay" opacity="0.5">
<path d="M193.213 12.9185H114.765L192.905 12.2461C192.905 12.2461 193.157 12.7224 193.213 12.9185Z" fill="#FFDE55"/>
</g>
<g style="mix-blend-mode:overlay" opacity="0.5">
<path d="M67.5281 13.4789L16.2007 14.7957H15.8365L7.90765 14.4595H7.06714V14.1794H7.90765H16.5649L53.9118 13.7591H54.304L70.2457 13.563C70.5539 13.3949 69.5453 13.4509 67.5281 13.4789Z" fill="#FFDE55"/>
</g>
<g style="mix-blend-mode:overlay" opacity="0.5">
<path d="M194.362 19.7829H194.138L186.349 19.6708L112.608 18.9424L186.461 20.1751L194.222 20.3432H194.362V19.7829Z" fill="#FFDE55"/>
</g>
<g style="mix-blend-mode:overlay" opacity="0.5">
<path d="M137.767 36.1726C142.923 36.3687 166.149 36.7329 173.377 37.0972C160.91 37.0972 109.218 37.9937 94.2288 38.2739C94.2288 38.2739 125.048 36.6769 131.015 36.1726H131.856C132.304 36.1726 134.657 36.1726 137.767 36.1726Z" fill="#FFDE55"/>
</g>
<g style="mix-blend-mode:overlay" opacity="0.5">
<path d="M7.03955 28.9166L20.852 29.1968H74.925C74.925 29.1968 21.6925 30.2895 15.893 29.7852C12.9996 29.4655 10.0832 29.4092 7.17963 29.6171L7.03955 28.9166Z" fill="#FFDE55"/>
</g>
<g style="mix-blend-mode:multiply" opacity="0.8">
<path d="M177.299 35.136H22.1406C12.3346 35.136 12.0544 22.4162 12.0544 20.9593C12.0544 19.5024 12.3346 6.78265 22.1406 6.78265H177.299C187.105 6.78265 188.73 16.2805 188.73 20.9593C188.73 25.2179 187.217 35.136 177.299 35.136Z" fill="#9E4000"/>
</g>
<path d="M389.967 21.9681C389.981 21.8377 389.981 21.7062 389.967 21.5758V20.4831C389.981 20.306 389.981 20.128 389.967 19.9508C389.967 19.9508 389.967 19.9508 389.967 19.7267C389.967 19.5026 389.967 18.8862 389.743 18.4939C389.441 17.1117 389.009 15.761 388.454 14.4595L388.006 13.3668C387.838 13.0306 387.698 12.6944 387.53 12.3862L386.829 11.2095C385.892 9.63971 384.721 8.22247 383.355 7.00691C382.96 6.64038 382.539 6.30328 382.095 5.9983C381.333 5.47059 380.527 5.01119 379.685 4.62546L379.097 4.3733C378.332 4.06256 377.546 3.8097 376.743 3.61684C375.205 3.15076 373.614 2.87783 372.008 2.80434H219.903C215.746 2.69327 211.698 4.14255 208.557 6.86683C206.777 8.43785 205.32 10.3413 204.27 12.4703C204.074 12.8625 203.878 13.2827 203.71 13.703L203.541 14.0112C203.483 14.118 203.436 14.2307 203.401 14.3474L203.149 15.0198C203.009 15.384 202.897 15.7763 202.785 16.1405C202.772 16.224 202.772 16.3091 202.785 16.3926C202.707 16.6318 202.641 16.8749 202.589 17.1211L202.337 18.2418V18.6901C202.175 19.6173 202.062 20.5525 202.001 21.4918C202.001 21.912 202.001 22.3603 202.001 22.8086C201.992 24.4363 202.152 26.0605 202.477 27.6555C202.477 28.0478 202.617 28.412 202.701 28.7762C202.83 29.3354 202.989 29.8871 203.177 30.4292C203.177 30.8215 203.429 31.1857 203.569 31.5499C204.707 34.9918 206.918 37.9783 209.878 40.071C212.838 42.1637 216.391 43.2523 220.016 43.177H372.008C374.343 43.2454 376.666 42.8189 378.825 41.9255C380.983 41.0322 382.928 39.6923 384.532 37.9939L385.036 37.4055L385.345 37.0413L385.849 36.3689C387.31 34.301 388.383 31.9846 389.015 29.5327C389.028 29.4491 389.028 29.3641 389.015 29.2805V28.9723C389.015 28.8042 389.015 28.6081 389.015 28.412C389.015 28.2159 389.015 27.9357 389.155 27.7116C389.434 26.1581 389.574 24.583 389.575 23.0047C389.995 22.8646 389.995 22.4163 389.967 21.9681ZM381.73 28.0198C381.73 28.2719 381.73 28.5241 381.506 28.8042L381.338 29.2525V29.5047C381.338 29.5047 381.338 29.7008 381.338 29.8129C380.798 31.3892 379.84 32.7896 378.568 33.8651C377.295 34.9406 375.754 35.651 374.11 35.9206C373.497 36.0111 372.88 36.058 372.261 36.0607H219.903C219.046 36.0616 218.191 35.9676 217.354 35.7805C215.703 35.4201 214.2 34.5706 213.039 33.343C212.801 33.1042 212.576 32.8516 212.367 32.5865L211.947 32.1103L211.526 31.4378L211.19 30.8215C210.994 30.4292 210.826 30.009 210.658 29.5887V29.3926V29.0844L210.49 28.6081V28.2719L210.238 27.3473C209.951 26.0207 209.791 24.6698 209.761 23.3129C209.761 23.0887 209.761 22.5564 209.761 21.856C209.859 20.7888 210.037 19.7304 210.294 18.6901C210.38 18.3184 210.492 17.9533 210.63 17.5974V17.3452L210.742 16.8129V16.6168L210.91 16.1965C211.05 15.9164 211.162 15.6642 211.33 15.384C211.375 15.2757 211.432 15.1724 211.498 15.0758L211.638 14.8237C211.809 14.5421 211.996 14.2708 212.199 14.0112L212.339 13.8151C212.704 13.3612 213.107 12.9394 213.544 12.5543C213.768 12.3862 213.992 12.1901 214.216 12.05C215.863 10.925 217.826 10.3557 219.819 10.425H372.008C373.496 10.3646 374.979 10.6324 376.351 11.2095C377.026 11.5279 377.657 11.9329 378.228 12.4142C378.62 12.7499 378.985 13.1152 379.321 13.5069L380.105 14.5996C380.775 15.6921 381.293 16.8702 381.646 18.1017C381.646 18.522 381.87 18.9422 381.954 19.3625C381.951 19.4278 381.951 19.4933 381.954 19.5586C381.954 19.7267 381.954 19.9228 381.954 20.0629C381.954 20.0629 381.954 20.8474 382.095 21.1836C382.235 21.5198 382.095 21.4918 382.095 21.6319C382.095 22.3323 382.095 22.8646 382.095 23.0887C382.189 24.7413 382.066 26.399 381.73 28.0198Z" fill="#9E4000"/>
<path d="M389.996 20.3431V19.6147V18.3539C389.889 17.0976 389.683 15.8516 389.38 14.6276C389.38 14.2634 389.212 13.8992 389.1 13.507L388.932 12.9466C388.932 12.7505 388.932 12.5824 388.735 12.3863C388.582 11.9789 388.395 11.5852 388.175 11.2096C387.619 9.79257 386.895 8.44747 386.018 7.20311L385.177 6.08242C384.785 5.63415 384.393 5.18587 383.973 4.79363C383.626 4.42851 383.251 4.09127 382.852 3.78502C379.803 1.27341 375.959 -0.0678038 372.009 0.00270607H219.904C219.033 0.000798706 218.163 0.0569574 217.299 0.170809C215.806 0.372816 214.346 0.768384 212.956 1.34753L212.508 1.54365C211.97 1.79592 211.447 2.07648 210.939 2.38416C207.226 4.77593 204.485 8.41077 203.206 12.6384C203.206 12.6384 203.206 12.6384 203.206 12.8626C203.206 13.0867 202.982 13.535 202.898 13.8992C202.882 13.9731 202.882 14.0495 202.898 14.1233V14.4035L202.73 15.1039C202.73 15.1039 202.73 15.244 202.73 15.3281C202.73 15.4121 202.59 16.0005 202.534 16.3647V16.6169C202.534 16.925 202.534 17.2332 202.534 17.5414C202.534 17.8496 202.534 18.2979 202.534 18.6901C202.519 18.8111 202.519 18.9334 202.534 19.0543C202.534 19.5306 202.534 19.9789 202.534 20.4552C202.534 20.9315 202.534 21.3237 202.534 21.772V22.1362C202.638 23.8676 202.91 25.5847 203.346 27.2634C203.346 27.6836 203.57 28.1039 203.71 28.4961C203.71 28.4961 203.71 28.7483 203.85 28.8884L204.019 29.3927V29.6168L204.299 30.3172C204.439 30.6534 204.607 31.0177 204.775 31.3539V31.606L205.027 32.0823C205.027 32.0823 205.167 32.3625 205.251 32.5306V32.6987C206.706 35.3756 208.874 37.5967 211.516 39.1151C214.157 40.6335 217.167 41.3898 220.212 41.2999H372.009C375.234 41.3562 378.41 40.5016 381.171 38.8344C381.703 38.4982 382.179 38.134 382.656 37.7698H382.824C383.188 37.4896 383.524 37.1534 383.86 36.8452C385.665 35.0053 387.084 32.8241 388.035 30.4293V30.0931C388.035 30.0931 388.035 29.897 388.035 29.7849C388.047 29.6825 388.047 29.5791 388.035 29.4767V29.3086L388.371 28.2159C388.931 26.2902 389.27 24.3068 389.38 22.3043C389.38 22.3043 389.38 22.1362 389.38 22.0522V20.3431H389.996Z" fill="url(#paint3_linear_24_17568)"/>
<g style="mix-blend-mode:multiply" opacity="0.4">
<path d="M385.122 5.97009H383.049H382.012H378.986H378.762C365.79 5.60587 333.739 5.10156 316.368 4.65328C294.627 4.09294 271.793 3.47656 253.133 2.80415L237.752 2.3839H237.612C231.28 2.15976 225.957 1.96364 221.81 1.76752L212.929 1.34726C214.319 0.768119 215.779 0.372551 217.271 0.170544C237.444 0.590801 296.196 1.15114 309.476 1.76752H309.644C310.064 1.76752 329.256 0.898989 346.626 0.00244141H368.424C359.038 0.366664 333.402 0.758904 327.323 1.23519C324.997 1.43131 318.441 2.04769 316.312 2.18778L331.301 2.80415C343.18 3.3645 369.376 3.92484 379.491 4.3451L383.469 4.5132H383.917C384.337 4.90544 384.73 5.35371 385.122 5.80199V5.97009Z" fill="#98C719"/>
<path d="M388.175 11.2092C388.344 11.6015 388.512 12.0217 388.652 12.442H387.503H378.229C351.753 12.8622 296.111 13.1984 263.163 13.3946H250.135H249.659L212.536 13.6187H202.786C202.786 13.2545 202.982 12.9183 203.094 12.5821C202.926 12.9183 202.842 13.1144 202.814 13.1424L203.066 12.3579H213.629C236.743 12.3859 332.421 11.9937 376.352 11.2092H386.831H388.175Z" fill="#98C719"/>
<path d="M389.997 19.6144H389.745H381.956C337.297 19.0261 233.886 17.4851 211.052 16.8127H210.548L202.843 16.5606H202.255C202.255 16.1964 202.255 15.8601 202.451 15.5239C202.647 15.1877 202.451 15.5239 202.451 15.2998H203.207L210.688 15.5239H211.472C234.334 16.2244 337.073 17.7653 381.62 18.3257H389.493H389.885L389.997 19.6144Z" fill="#98C719"/>
<path d="M389.577 28.0196C389.577 28.2437 389.577 28.4959 389.437 28.72C389.297 28.9441 389.437 29.1122 389.437 29.2803H381.34C336.26 29.2803 232.261 28.8321 213.237 28.636H210.323H203.683H202.675L202.423 27.3752H203.263H209.987H212.537C235.679 27.6273 338.025 28.0196 381.732 28.0196H389.577Z" fill="#98C719"/>
<path d="M385.962 36.7605L385.458 37.4329L385.15 37.7971L382.853 37.573L378.118 37.0687C374.447 36.6765 345.142 36.4243 335.84 36.1721C332.254 36.1721 329.312 36.004 327.827 35.92L323.204 36.1721C305.021 37.0687 239.153 40.1786 234.334 41.3553H234.138C233.44 42.0372 232.836 42.8099 232.345 43.6527H230.86C231.337 42.8567 231.861 42.0896 232.429 41.3553C232.787 40.8381 233.281 40.4307 233.858 40.1786C237.136 39.254 274.931 36.7885 287.09 36.1721L289.892 36.0321C298.773 35.7239 321.411 35.3877 323.176 35.0515C310.008 34.323 236.939 33.6226 226.573 32.9782L218.616 32.5019L213.545 32.2217H211.948L205.196 31.8295H204.355H203.655C203.487 31.4092 203.347 30.989 203.207 30.5687H203.767H204.524L211.192 30.961H212.705L215.674 31.1571C224.08 31.6614 295.971 32.3338 308.551 33.0342C319.758 33.6786 356.46 35.0234 373.831 36.0881L383.973 36.7045L385.962 36.7605Z" fill="#98C719"/>
</g>
<path d="M385.177 5.97014H382.095C365.733 5.85807 295.998 5.60592 288.126 5.15764L246.716 2.80421L237.751 2.38395H237.611L228.197 1.85162L262.798 2.80421C283.111 3.42058 306.645 4.17704 316.283 4.56928L320.345 4.7654C324.772 5.12963 365.593 5.54988 378.733 5.77402H382.011C383.047 5.83865 384.085 5.83865 385.121 5.77402L385.177 5.97014Z" fill="#FFDE55"/>
<path d="M383.916 4.6538H383.496L378.929 4.23354C374.447 3.78527 371.028 3.64518 371.028 3.64518L335.419 3.05682C335.419 3.05682 363.632 3.05682 376.548 3.42105L382.852 3.61717C383.251 3.92341 383.626 4.26066 383.972 4.62578L383.916 4.6538Z" fill="#FFDE55"/>
<g style="mix-blend-mode:overlay" opacity="0.5">
<path d="M388.847 12.9185H310.399L388.539 12.2461C388.539 12.2461 388.791 12.7224 388.847 12.9185Z" fill="#FFDE55"/>
</g>
<g style="mix-blend-mode:overlay" opacity="0.5">
<path d="M263.162 13.4789L211.835 14.7957H211.471L203.542 14.4595H202.701V14.1794H203.542H212.199L249.546 13.7591H249.938L265.88 13.563C266.188 13.3949 265.179 13.4509 263.162 13.4789Z" fill="#FFDE55"/>
</g>
<g style="mix-blend-mode:overlay" opacity="0.5">
<path d="M389.996 19.7829H389.772L381.983 19.6708L308.242 18.9424L382.095 20.1751L389.856 20.3432H389.996V19.7829Z" fill="#FFDE55"/>
</g>
<g style="mix-blend-mode:overlay" opacity="0.5">
<path d="M333.401 36.1726C338.557 36.3687 361.783 36.7329 369.011 37.0972C356.544 37.0972 304.852 37.9937 289.863 38.2739C289.863 38.2739 320.682 36.6769 326.649 36.1726H327.49C327.938 36.1726 330.291 36.1726 333.401 36.1726Z" fill="#FFDE55"/>
</g>
<g style="mix-blend-mode:overlay" opacity="0.5">
<path d="M202.674 28.9166L216.486 29.1968H270.559C270.559 29.1968 217.327 30.2895 211.527 29.7852C208.634 29.4655 205.717 29.4092 202.814 29.6171L202.674 28.9166Z" fill="#FFDE55"/>
</g>
<g style="mix-blend-mode:multiply" opacity="0.8">
<path d="M372.933 35.136H217.775C207.969 35.136 207.688 22.4162 207.688 20.9593C207.688 19.5024 207.969 6.78265 217.775 6.78265H372.933C382.739 6.78265 384.364 16.2805 384.364 20.9593C384.364 25.2179 382.852 35.136 372.933 35.136Z" fill="#9E4000"/>
</g>
<defs>
<linearGradient id="paint0_linear_24_17568" x1="201.724" y1="239.024" x2="201.724" y2="24.5834" gradientUnits="userSpaceOnUse">
<stop stop-color="#667E00"/>
<stop offset="0.68" stop-color="#A2C521"/>
</linearGradient>
<linearGradient id="paint1_linear_24_17568" x1="198.6" y1="15.1171" x2="198.6" y2="221.984" gradientUnits="userSpaceOnUse">
<stop stop-color="#F0CA57"/>
<stop offset="1" stop-color="#D45B1A"/>
</linearGradient>
<linearGradient id="paint2_linear_24_17568" x1="100.309" y1="-0.333499" x2="100.309" y2="39.5909" gradientUnits="userSpaceOnUse">
<stop stop-color="#F0CA57"/>
<stop offset="1" stop-color="#D45B1A"/>
</linearGradient>
<linearGradient id="paint3_linear_24_17568" x1="295.943" y1="-0.333499" x2="295.943" y2="39.5909" gradientUnits="userSpaceOnUse">
<stop stop-color="#F0CA57"/>
<stop offset="1" stop-color="#D45B1A"/>
</linearGradient>
</defs>
</svg>
