<svg width="398" height="131" viewBox="0 0 398 131" fill="none" xmlns="http://www.w3.org/2000/svg">
<g style="mix-blend-mode:multiply" opacity="0.5">
<path d="M397.989 42.5737V39.7654C398.1 35.7162 397.36 31.6887 395.817 27.9437C394.273 24.1986 391.96 20.8194 389.028 18.0247C386.185 15.1427 382.779 12.8767 379.023 11.3676C375.266 9.85846 371.239 9.13859 367.193 9.25276H34.236C17.544 9.28432 0.252431 20.4544 0.252431 39.1027V41.1222C0.0876856 42.3354 0.00335792 43.5581 0 44.7824L0 96.5623C0 114.106 16.2187 130.104 33.9835 130.104H366.94C369.989 130.115 373.018 129.614 375.901 128.621C388.523 124.803 397.737 111.961 397.737 96.2784V42.6368C397.742 39.4326 397.285 36.2443 396.38 33.1706C396.38 32.6657 396.159 32.1609 396.033 31.656C397.307 35.1559 397.969 38.8491 397.989 42.5737Z" fill="#131115"/>
</g>
<path d="M394.865 86.4337C394.869 89.916 394.181 93.3645 392.84 96.5782C391.499 99.7919 389.532 102.707 387.053 105.153C384.575 107.599 381.635 109.528 378.404 110.827C375.173 112.125 371.715 112.768 368.233 112.718H35.2769C31.7905 112.768 28.3288 112.126 25.0925 110.828C21.8562 109.53 18.9096 107.603 16.4236 105.158C13.9376 102.714 11.9616 99.7995 10.6102 96.5852C9.25877 93.371 8.55877 89.9205 8.55078 86.4337V32.7921C8.55078 25.7039 11.3666 18.906 16.3787 13.8939C21.3908 8.88176 28.1887 6.06598 35.2769 6.06598H368.233C371.739 6.06596 375.21 6.75792 378.447 8.1022C381.684 9.44647 384.624 11.4166 387.098 13.8996C389.572 16.3826 391.532 19.3296 392.865 22.5716C394.198 25.8136 394.877 29.2869 394.865 32.7921V86.4337Z" fill="url(#paint0_linear_24_12574)"/>
<g style="mix-blend-mode:multiply" opacity="0.6">
<path d="M366.94 123.572H33.9835C16.2187 123.572 0 107.606 0 90.0307V38.4401C0 19.7602 17.2915 8.59011 33.9835 8.59011H366.94C370.907 8.39489 374.871 9.03409 378.576 10.4664C382.281 11.8987 385.644 14.0923 388.448 16.9054C391.253 19.7186 393.435 23.0887 394.856 26.798C396.277 30.5074 396.903 34.4735 396.695 38.4401V90.0307C396.695 108.837 383.632 123.572 366.94 123.572ZM33.9835 18.9713C22.6557 18.9713 10.3812 26.418 10.3812 38.4401V92.0817C10.3812 103.757 22.0877 115.242 33.9835 115.242H366.94C379.057 115.242 386.314 103.473 386.314 92.0817V38.4401C386.314 26.418 378.899 18.9713 366.94 18.9713H33.9835Z" fill="#FF5499"/>
</g>
<path d="M10.6331 54.7851V57.2463L11.4219 57.4987V54.6904L10.6331 54.7851ZM10.6331 66.4916V68.9528L11.4219 69.2052V66.3969L10.6331 66.4916ZM10.6331 54.7851V57.2463L11.4219 57.4987V54.6904L10.6331 54.7851ZM10.6331 66.4916V68.9528L11.4219 69.2052V66.3969L10.6331 66.4916ZM10.6331 54.7851V57.2463L11.4219 57.4987V54.6904L10.6331 54.7851ZM10.6331 66.4916V68.9528L11.4219 69.2052V66.3969L10.6331 66.4916ZM10.6331 54.7851V57.2463L11.4219 57.4987V54.6904L10.6331 54.7851ZM10.6331 66.4916V68.9528L11.4219 69.2052V66.3969L10.6331 66.4916ZM10.6331 54.7851V57.2463L11.4219 57.4987V54.6904L10.6331 54.7851ZM10.6331 66.4916V68.9528L11.4219 69.2052V66.3969L10.6331 66.4916ZM10.6331 54.7851V57.2463L11.4219 57.4987V54.6904L10.6331 54.7851ZM10.6331 66.4916V68.9528L11.4219 69.2052V66.3969L10.6331 66.4916ZM10.6331 54.7851V57.2463L11.4219 57.4987V54.6904L10.6331 54.7851ZM10.6331 66.4916V68.9528L11.4219 69.2052V66.3969L10.6331 66.4916ZM10.6331 54.7851V57.2463L11.4219 57.4987V54.6904L10.6331 54.7851ZM10.6331 66.4916V68.9528L11.4219 69.2052V66.3969L10.6331 66.4916ZM10.6331 54.7851V57.2463L11.4219 57.4987V54.6904L10.6331 54.7851ZM10.6331 66.4916V68.9528L11.4219 69.2052V66.3969L10.6331 66.4916ZM10.6331 54.7851V57.2463L11.4219 57.4987V54.6904L10.6331 54.7851ZM10.6331 66.4916V68.9528L11.4219 69.2052V66.3969L10.6331 66.4916ZM10.6331 54.7851V57.2463L11.4219 57.4987V54.6904L10.6331 54.7851ZM10.6331 66.4916V68.9528L11.4219 69.2052V66.3969L10.6331 66.4916ZM10.6331 54.7851V57.2463L11.4219 57.4987V54.6904L10.6331 54.7851ZM10.6331 66.4916V68.9528L11.4219 69.2052V66.3969L10.6331 66.4916ZM10.6331 54.7851V57.2463L11.4219 57.4987V54.6904L10.6331 54.7851ZM10.6331 66.4916V68.9528L11.4219 69.2052V66.3969L10.6331 66.4916ZM10.6331 54.7851V57.2463L11.4219 57.4987V54.6904L10.6331 54.7851ZM10.6331 66.4916V68.9528L11.4219 69.2052V66.3969L10.6331 66.4916ZM10.6331 54.7851V57.2463L11.4219 57.4987V54.6904L10.6331 54.7851ZM10.6331 66.4916V68.9528L11.4219 69.2052V66.3969L10.6331 66.4916ZM10.6331 54.7851V57.2463L11.4219 57.4987V54.6904L10.6331 54.7851ZM10.6331 66.4916V68.9528L11.4219 69.2052V66.3969L10.6331 66.4916ZM10.6331 54.7851V57.2463L11.4219 57.4987V54.6904L10.6331 54.7851ZM10.6331 66.4916V68.9528L11.4219 69.2052V66.3969L10.6331 66.4916ZM10.6331 54.7851V57.2463L11.4219 57.4987V54.6904L10.6331 54.7851ZM10.6331 66.4916V68.9528L11.4219 69.2052V66.3969L10.6331 66.4916ZM10.6331 54.7851V57.2463L11.4219 57.4987V54.6904L10.6331 54.7851ZM10.6331 66.4916V68.9528L11.4219 69.2052V66.3969L10.6331 66.4916ZM10.6331 54.7851V57.2463L11.4219 57.4987V54.6904L10.6331 54.7851ZM10.6331 66.4916V68.9528L11.4219 69.2052V66.3969L10.6331 66.4916ZM10.6331 54.7851V57.2463L11.4219 57.4987V54.6904L10.6331 54.7851ZM10.6331 66.4916V68.9528L11.4219 69.2052V66.3969L10.6331 66.4916ZM10.6331 54.7851V57.2463L11.4219 57.4987V54.6904L10.6331 54.7851ZM10.6331 66.4916V68.9528L11.4219 69.2052V66.3969L10.6331 66.4916ZM10.6331 54.7851V57.2463L11.4219 57.4987V54.6904L10.6331 54.7851ZM10.6331 66.4916V68.9528L11.4219 69.2052V66.3969L10.6331 66.4916ZM10.6331 54.7851V57.2463L11.4219 57.4987V54.6904L10.6331 54.7851ZM10.6331 66.4916V68.9528L11.4219 69.2052V66.3969L10.6331 66.4916ZM10.6331 54.7851V57.2463L11.4219 57.4987V54.6904L10.6331 54.7851ZM10.6331 66.4916V68.9528L11.4219 69.2052V66.3969L10.6331 66.4916ZM10.6331 54.7851V57.2463L11.4219 57.4987V54.6904L10.6331 54.7851ZM10.6331 66.4916V68.9528L11.4219 69.2052V66.3969L10.6331 66.4916ZM10.6331 54.7851V57.2463L11.4219 57.4987V54.6904L10.6331 54.7851ZM10.6331 66.4916V68.9528L11.4219 69.2052V66.3969L10.6331 66.4916ZM10.6331 57.2463L11.4219 57.4987V54.6904H10.6331V57.2463ZM10.6331 66.4916V68.9528L11.4219 69.2052V66.3969L10.6331 66.4916ZM396.411 26.5128C394.661 20.3484 390.81 14.9903 385.525 11.367C383.75 10.0968 381.833 9.03789 379.814 8.21158C376.066 6.83124 372.101 6.13651 368.107 6.16058H35.0558C31.6674 6.16026 28.2938 6.60584 25.0217 7.48584C22.5547 8.11981 20.1637 9.01907 17.8905 10.1679C13.668 12.2389 9.95179 15.2119 7.0044 18.8768C6.40487 19.6341 5.80535 20.4229 5.26893 21.2433C2.67425 25.3408 1.22509 30.0587 1.07227 34.9062C1.07227 35.2848 1.07227 35.6635 1.07227 36.0737V89.7153C1.07227 90.4305 1.07227 91.1562 1.07227 91.8925C1.13422 92.8779 1.26071 93.8581 1.45091 94.827C2.05793 98.2429 3.21973 101.536 4.89028 104.577C5.39881 105.521 5.95705 106.437 6.56264 107.322C9.67393 112.046 13.8812 115.948 18.826 118.695C23.7708 121.442 29.3064 122.953 34.9611 123.099H367.981C371.435 123.105 374.86 122.463 378.078 121.206C379.316 120.7 380.518 120.11 381.675 119.439C385.561 117.106 388.915 113.987 391.524 110.281C394.132 106.575 395.936 102.364 396.821 97.9193C397.006 97.1503 397.143 96.3704 397.231 95.5843C397.549 93.5912 397.708 91.5758 397.705 89.5575V35.9159C397.711 32.7368 397.275 29.5722 396.411 26.5128ZM11.6428 92.4289C11.6097 92.2198 11.6097 92.0069 11.6428 91.7978C11.5948 91.115 11.5948 90.4296 11.6428 89.7468V36.1052C11.578 35.2966 11.578 34.4841 11.6428 33.6756C12.3557 29.0406 14.8598 24.8709 18.6162 22.0637C19.4733 21.4205 20.369 20.8304 21.2983 20.2967C25.4829 17.8854 30.2262 16.6125 35.0558 16.6049H367.981C377.258 16.6049 383.758 21.0856 386.219 28.7216C387.006 31.0916 387.39 33.5767 387.355 36.0737V89.7153C387.345 91.9053 387.081 94.0867 386.566 96.2154C386.377 97.0358 386.124 97.8246 385.872 98.5819C383.19 106.502 376.911 112.844 367.981 112.844H35.0558C30.3838 112.727 25.8591 111.186 22.0871 108.427C17.1779 105.034 13.6068 100.035 11.9899 94.2906C11.8287 93.6794 11.7127 93.0571 11.6428 92.4289ZM10.6331 66.4916V68.9528L11.4219 69.2052V66.3969L10.6331 66.4916ZM10.6331 54.7851V57.2463L11.4219 57.4987V54.6904L10.6331 54.7851ZM10.6331 66.4916V68.9528L11.4219 69.2052V66.3969L10.6331 66.4916ZM10.6331 54.7851V57.2463L11.4219 57.4987V54.6904L10.6331 54.7851ZM10.6331 66.4916V68.9528L11.4219 69.2052V66.3969L10.6331 66.4916ZM10.6331 54.7851V57.2463L11.4219 57.4987V54.6904L10.6331 54.7851ZM10.6331 66.4916V68.9528L11.4219 69.2052V66.3969L10.6331 66.4916ZM10.6331 54.7851V57.2463L11.4219 57.4987V54.6904L10.6331 54.7851ZM10.6331 66.4916V68.9528L11.4219 69.2052V66.3969L10.6331 66.4916ZM10.6331 54.7851V57.2463L11.4219 57.4987V54.6904L10.6331 54.7851ZM10.6331 66.4916V68.9528L11.4219 69.2052V66.3969L10.6331 66.4916ZM10.6331 54.7851V57.2463L11.4219 57.4987V54.6904L10.6331 54.7851ZM10.6331 66.4916V68.9528L11.4219 69.2052V66.3969L10.6331 66.4916ZM10.6331 54.7851V57.2463L11.4219 57.4987V54.6904L10.6331 54.7851ZM10.6331 66.4916V68.9528L11.4219 69.2052V66.3969L10.6331 66.4916ZM10.6331 54.7851V57.2463L11.4219 57.4987V54.6904L10.6331 54.7851ZM10.6331 66.4916V68.9528L11.4219 69.2052V66.3969L10.6331 66.4916ZM10.6331 54.7851V57.2463L11.4219 57.4987V54.6904L10.6331 54.7851ZM10.6331 66.4916V68.9528L11.4219 69.2052V66.3969L10.6331 66.4916ZM10.6331 54.7851V57.2463L11.4219 57.4987V54.6904L10.6331 54.7851ZM10.6331 66.4916V68.9528L11.4219 69.2052V66.3969L10.6331 66.4916ZM10.6331 54.7851V57.2463L11.4219 57.4987V54.6904L10.6331 54.7851ZM10.6331 66.4916V68.9528L11.4219 69.2052V66.3969L10.6331 66.4916ZM10.6331 54.7851V57.2463L11.4219 57.4987V54.6904L10.6331 54.7851ZM10.6331 66.4916V68.9528L11.4219 69.2052V66.3969L10.6331 66.4916ZM10.6331 54.7851V57.2463L11.4219 57.4987V54.6904L10.6331 54.7851ZM10.6331 66.4916V68.9528L11.4219 69.2052V66.3969L10.6331 66.4916ZM10.6331 54.7851V57.2463L11.4219 57.4987V54.6904L10.6331 54.7851ZM10.6331 66.4916V68.9528L11.4219 69.2052V66.3969L10.6331 66.4916ZM10.6331 54.7851V57.2463L11.4219 57.4987V54.6904L10.6331 54.7851ZM10.6331 66.4916V68.9528L11.4219 69.2052V66.3969L10.6331 66.4916ZM10.6331 54.7851V57.2463L11.4219 57.4987V54.6904L10.6331 54.7851ZM10.6331 66.4916V68.9528L11.4219 69.2052V66.3969L10.6331 66.4916ZM10.6331 54.7851V57.2463L11.4219 57.4987V54.6904L10.6331 54.7851ZM10.6331 66.4916V68.9528L11.4219 69.2052V66.3969L10.6331 66.4916ZM10.6331 54.7851V57.2463L11.4219 57.4987V54.6904L10.6331 54.7851ZM10.6331 66.4916V68.9528L11.4219 69.2052V66.3969L10.6331 66.4916ZM10.6331 54.7851V57.2463L11.4219 57.4987V54.6904L10.6331 54.7851ZM10.6331 66.4916V68.9528L11.4219 69.2052V66.3969L10.6331 66.4916ZM10.6331 54.7851V57.2463L11.4219 57.4987V54.6904L10.6331 54.7851ZM10.6331 66.4916V68.9528L11.4219 69.2052V66.3969L10.6331 66.4916ZM10.6331 54.7851V57.2463L11.4219 57.4987V54.6904L10.6331 54.7851ZM10.6331 66.4916V68.9528L11.4219 69.2052V66.3969L10.6331 66.4916ZM10.6331 54.7851V57.2463L11.4219 57.4987V54.6904L10.6331 54.7851ZM10.6331 66.4916V68.9528L11.4219 69.2052V66.3969L10.6331 66.4916ZM10.6331 54.7851V57.2463L11.4219 57.4987V54.6904L10.6331 54.7851ZM10.6331 66.4916V68.9528L11.4219 69.2052V66.3969L10.6331 66.4916ZM10.6331 54.7851V57.2463L11.4219 57.4987V54.6904L10.6331 54.7851ZM10.6331 66.4916V68.9528L11.4219 69.2052V66.3969L10.6331 66.4916ZM10.6331 54.7851V57.2463L11.4219 57.4987V54.6904L10.6331 54.7851ZM10.6331 66.4916V68.9528L11.4219 69.2052V66.3969L10.6331 66.4916ZM10.6331 54.7851V57.2463L11.4219 57.4987V54.6904L10.6331 54.7851ZM10.6331 66.4916V68.9528L11.4219 69.2052V66.3969L10.6331 66.4916ZM10.6331 54.7851V57.2463L11.4219 57.4987V54.6904L10.6331 54.7851Z" fill="#9E4000"/>
<path d="M386.566 78.2611V80.9747L387.355 80.3436V78.2926L386.566 78.2611ZM252.43 111.834L243.785 111.235L239.998 111.014L236.243 110.793L230.343 110.446L226.714 110.225H225.231L218.194 109.846L214.787 109.657H165.121H165.878L169.254 110.067L171.242 110.32L178.342 111.14L192.478 112.844H266.724C262.054 112.529 257.227 112.15 252.43 111.834ZM386.566 78.2611V80.9747L387.355 80.3436V78.2926L386.566 78.2611ZM252.43 111.834L243.785 111.235L239.998 111.014L236.243 110.793L230.343 110.446L226.714 110.225H225.231L218.194 109.846L214.787 109.657H165.121H165.878L169.254 110.067L171.242 110.32L178.342 111.14L192.478 112.844H266.724C262.054 112.529 257.227 112.15 252.43 111.834ZM386.566 78.2611V80.9747L387.355 80.3436V78.2926L386.566 78.2611ZM252.43 111.834L243.785 111.235L239.998 111.014L236.243 110.793L230.343 110.446L226.714 110.225H225.231L218.194 109.846L214.787 109.657H165.121H165.878L169.254 110.067L171.242 110.32L178.342 111.14L192.478 112.844H266.724C262.054 112.529 257.227 112.15 252.43 111.834ZM386.566 78.2611V80.9747L387.355 80.3436V78.2926L386.566 78.2611ZM252.43 111.834L243.785 111.235L239.998 111.014L236.243 110.793L230.343 110.446L226.714 110.225H225.231L218.194 109.846L214.787 109.657H165.121H165.878L169.254 110.067L171.242 110.32L178.342 111.14L192.478 112.844H266.724C262.054 112.529 257.227 112.15 252.43 111.834ZM386.566 78.2611V80.9747L387.355 80.3436V78.2926L386.566 78.2611ZM252.43 111.834L243.785 111.235L239.998 111.014L236.243 110.793L230.343 110.446L226.714 110.225H225.231L218.194 109.846L214.787 109.657H165.121H165.878L169.254 110.067L171.242 110.32L178.342 111.14L192.478 112.844H266.724C262.054 112.529 257.227 112.15 252.43 111.834ZM386.566 78.2611V80.9747L387.355 80.3436V78.2926L386.566 78.2611ZM252.43 111.834L243.785 111.235L239.998 111.014L236.243 110.793L230.343 110.446L226.714 110.225H225.231L218.194 109.846L214.787 109.657H165.121H165.878L169.254 110.067L171.242 110.32L178.342 111.14L192.478 112.844H266.724C262.054 112.529 257.227 112.15 252.43 111.834ZM386.566 78.2611V80.9747L387.355 80.3436V78.2926L386.566 78.2611ZM252.43 111.834L243.785 111.235L239.998 111.014L236.243 110.793L230.343 110.446L226.714 110.225H225.231L218.194 109.846L214.787 109.657H165.121H165.878L169.254 110.067L171.242 110.32L178.342 111.14L192.478 112.844H266.724C262.054 112.529 257.227 112.15 252.43 111.834ZM386.566 78.2611V80.9747L387.355 80.3436V78.2926L386.566 78.2611ZM252.43 111.834L243.785 111.235L239.998 111.014L236.243 110.793L230.343 110.446L226.714 110.225H225.231L218.194 109.846L214.787 109.657H165.121H165.878L169.254 110.067L171.242 110.32L178.342 111.14L192.478 112.844H266.724C262.054 112.529 257.227 112.15 252.43 111.834ZM386.566 78.2611V80.9747L387.355 80.3436V78.2926L386.566 78.2611ZM252.43 111.834L243.785 111.235L239.998 111.014L236.243 110.793L230.343 110.446L226.714 110.225H225.231L218.194 109.846L214.787 109.657H165.121H165.878L169.254 110.067L171.242 110.32L178.342 111.14L192.478 112.844H266.724C262.054 112.529 257.227 112.15 252.43 111.834ZM386.566 78.2611V80.9747L387.355 80.3436V78.2926L386.566 78.2611ZM252.43 111.834L243.785 111.235L239.998 111.014L236.243 110.793L230.343 110.446L226.714 110.225H225.231L218.194 109.846L214.787 109.657H165.121H165.878L169.254 110.067L171.242 110.32L178.342 111.14L192.478 112.844H266.724C262.054 112.529 257.227 112.15 252.43 111.834ZM386.566 78.2611V80.9747L387.355 80.3436V78.2926L386.566 78.2611ZM252.43 111.834L243.785 111.235L239.998 111.014L236.243 110.793L230.343 110.446L226.714 110.225H225.231L218.194 109.846L214.787 109.657H165.121H165.878L169.254 110.067L171.242 110.32L178.342 111.14L192.478 112.844H266.724C262.054 112.529 257.227 112.15 252.43 111.834ZM386.566 78.2611V80.9747L387.355 80.3436V78.2926L386.566 78.2611ZM252.43 111.834L243.785 111.235L239.998 111.014L236.243 110.793L230.343 110.446L226.714 110.225H225.231L218.194 109.846L214.787 109.657H165.121H165.878L169.254 110.067L171.242 110.32L178.342 111.14L192.478 112.844H266.724C262.054 112.529 257.227 112.15 252.43 111.834ZM386.566 78.2611V80.9747L387.355 80.3436V78.2926L386.566 78.2611ZM252.43 111.834L243.785 111.235L239.998 111.014L236.243 110.793L230.343 110.446L226.714 110.225H225.231L218.194 109.846L214.787 109.657H165.121H165.878L169.254 110.067L171.242 110.32L178.342 111.14L192.478 112.844H266.724C262.054 112.529 257.227 112.15 252.43 111.834ZM386.566 78.2611V80.9747L387.355 80.3436V78.2926L386.566 78.2611ZM252.43 111.834L243.785 111.235L239.998 111.014L236.243 110.793L230.343 110.446L226.714 110.225H225.231L218.194 109.846L214.787 109.657H165.121H165.878L169.254 110.067L171.242 110.32L178.342 111.14L192.478 112.844H266.724C262.054 112.529 257.227 112.15 252.43 111.834ZM386.566 78.2611V80.9747L387.355 80.3436V78.2926L386.566 78.2611ZM252.43 111.834L243.785 111.235L239.998 111.014L236.243 110.793L230.343 110.446L226.714 110.225H225.231L218.194 109.846L214.787 109.657H165.121H165.878L169.254 110.067L171.242 110.32L178.342 111.14L192.478 112.844H266.724C262.054 112.529 257.227 112.15 252.43 111.834ZM386.566 78.2611V80.9747L387.355 80.3436V78.2926L386.566 78.2611ZM252.43 111.834L243.785 111.235L239.998 111.014L236.243 110.793L230.343 110.446L226.714 110.225H225.231L218.194 109.846L214.787 109.657H165.121H165.878L169.254 110.067L171.242 110.32L178.342 111.14L192.478 112.844H266.724C262.054 112.529 257.227 112.15 252.43 111.834ZM386.566 78.2611V80.9747L387.355 80.3436V78.2926L386.566 78.2611ZM252.43 111.834L243.785 111.235L239.998 111.014L236.243 110.793L230.343 110.446L226.714 110.225H225.231L218.194 109.846L214.787 109.657H165.121H165.878L169.254 110.067L171.242 110.32L178.342 111.14L192.478 112.844H266.724C262.054 112.529 257.227 112.15 252.43 111.834ZM386.566 78.2611V80.9747L387.355 80.3436V78.2926L386.566 78.2611ZM252.43 111.834L243.785 111.235L239.998 111.014L236.243 110.793L230.343 110.446L226.714 110.225H225.231L218.194 109.846L214.787 109.657H165.121H165.878L169.254 110.067L171.242 110.32L178.342 111.14L192.478 112.844H266.724C262.054 112.529 257.227 112.15 252.43 111.834ZM386.566 78.2611V80.9747L387.355 80.3436V78.2926L386.566 78.2611ZM252.43 111.834L243.785 111.235L239.998 111.014L236.243 110.793L230.343 110.446L226.714 110.225H225.231L218.194 109.846L214.787 109.657H165.121H165.878L169.254 110.067L171.242 110.32L178.342 111.14L192.478 112.844H266.724C262.054 112.529 257.227 112.15 252.43 111.834ZM386.566 78.2611V80.9747L387.355 80.3436V78.2926L386.566 78.2611ZM252.43 111.834L243.785 111.235L239.998 111.014L236.243 110.793L230.343 110.446L226.714 110.225H225.231L218.194 109.846L214.787 109.657H165.121H165.878L169.254 110.067L171.242 110.32L178.342 111.14L192.478 112.844H266.724C262.054 112.529 257.227 112.15 252.43 111.834ZM386.566 78.2611V80.9747L387.355 80.3436V78.2926L386.566 78.2611ZM252.43 111.834L243.785 111.235L239.998 111.014L236.243 110.793L230.343 110.446L226.714 110.225H225.231L218.194 109.846L214.787 109.657H165.121H165.878L169.254 110.067L171.242 110.32L178.342 111.14L192.478 112.844H266.724C262.054 112.529 257.227 112.15 252.43 111.834ZM386.566 78.2611V80.9747L387.355 80.3436V78.2926L386.566 78.2611ZM252.43 111.834L243.785 111.235L239.998 111.014L236.243 110.793L230.343 110.446L226.714 110.225H225.231L218.194 109.846L214.787 109.657H165.121H165.878L169.254 110.067L171.242 110.32L178.342 111.14L192.478 112.844H266.724C262.054 112.529 257.227 112.15 252.43 111.834ZM386.566 78.2611V80.9747L387.355 80.3436V78.2926L386.566 78.2611ZM252.43 111.834L243.785 111.235L239.998 111.014L236.243 110.793L230.343 110.446L226.714 110.225H225.231L218.194 109.846L214.787 109.657H165.121H165.878L169.254 110.067L171.242 110.32L178.342 111.14L192.478 112.844H266.724C262.054 112.529 257.227 112.15 252.43 111.834ZM386.566 78.2611V80.9747L387.355 80.3436V78.2926L386.566 78.2611ZM252.43 111.834L243.785 111.235L239.998 111.014L236.243 110.793L230.343 110.446L226.714 110.225H225.231L218.194 109.846L214.787 109.657H165.121H165.878L169.254 110.067L171.242 110.32L178.342 111.14L192.478 112.844H266.724C262.054 112.529 257.227 112.15 252.43 111.834ZM386.566 78.2611V80.9747L387.355 80.3436V78.2926L386.566 78.2611ZM252.43 111.834L243.785 111.235L239.998 111.014L236.243 110.793L230.343 110.446L226.714 110.225H225.231L218.194 109.846L214.787 109.657H165.121H165.878L169.254 110.067L171.242 110.32L178.342 111.14L192.478 112.844H266.724C262.054 112.529 257.227 112.15 252.43 111.834ZM386.566 78.2611V80.9747L387.355 80.3436V78.2926L386.566 78.2611ZM252.43 111.834L243.785 111.235L239.998 111.014L236.243 110.793L230.343 110.446L226.714 110.225H225.231L218.194 109.846L214.787 109.657H165.121H165.878L169.254 110.067L171.242 110.32L178.342 111.14L192.478 112.844H266.724C262.054 112.529 257.227 112.15 252.43 111.834ZM386.566 78.2611V80.9747L387.355 80.3436V78.2926L386.566 78.2611ZM252.43 111.834L243.785 111.235L239.998 111.014L236.243 110.793L230.343 110.446L226.714 110.225H225.231L218.194 109.846L214.787 109.657H165.121H165.878L169.254 110.067L171.242 110.32L178.342 111.14L192.478 112.844H266.724C262.054 112.529 257.227 112.15 252.43 111.834ZM386.566 78.2611V80.9747L387.355 80.3436V78.2926L386.566 78.2611ZM252.43 111.834L243.785 111.235L239.998 111.014L236.243 110.793L230.343 110.446L226.714 110.225H225.231L218.194 109.846L214.787 109.657H165.121H165.878L169.254 110.067L171.242 110.32L178.342 111.14L192.478 112.844H266.724C262.054 112.529 257.227 112.15 252.43 111.834ZM246.12 111.834H244.794H244.479H242.87H241.891L225.641 110.635H225.168L221.602 110.32L218.447 110.067H213.872L259.94 113.223H261.486L246.12 111.834ZM246.12 111.834H244.794H244.479H242.87H241.891L225.641 110.635H225.168L221.602 110.32L218.447 110.067H213.872L259.94 113.223H261.486L246.12 111.834ZM246.12 111.834H244.794H244.479H242.87H241.891L225.641 110.635H225.168L221.602 110.32L218.447 110.067H213.872L259.94 113.223H261.486L246.12 111.834ZM246.12 111.834H244.794H244.479H242.87H241.891L225.641 110.635H225.168L221.602 110.32L218.447 110.067H213.872L259.94 113.223H261.486L246.12 111.834ZM246.12 111.834H244.794H244.479H242.87H241.891L225.641 110.635H225.168L221.602 110.32L218.447 110.067H213.872L259.94 113.223H261.486L246.12 111.834ZM246.12 111.834H244.794H244.479H242.87H241.891L225.641 110.635H225.168L221.602 110.32L218.447 110.067H213.872L259.94 113.223H261.486L246.12 111.834ZM246.12 111.834H244.794H244.479H242.87H241.891L225.641 110.635H225.168L221.602 110.32L218.447 110.067H213.872L259.94 113.223H261.486L246.12 111.834ZM246.12 111.834H244.794H244.479H242.87H241.891L225.641 110.635H225.168L221.602 110.32L218.447 110.067H213.872L259.94 113.223H261.486L246.12 111.834ZM396.411 26.6389C395.624 22.2661 393.867 18.1255 391.268 14.5222C390.656 13.6429 389.982 12.8097 389.248 12.0295C388.283 11.0002 387.227 10.0603 386.093 9.22118C380.645 5.11819 373.979 2.96256 367.16 3.09973H34.2354C27.5029 3.09245 20.8869 4.85528 15.0506 8.21146C13.7645 8.96878 12.5311 9.81214 11.3588 10.7358C8.35911 12.9866 5.82026 15.7933 3.88052 19.0029C3.41419 19.7831 3.00299 20.595 2.64992 21.4325C1.03916 24.9901 0.220912 28.8553 0.251821 32.7604V86.402C0.251821 87.4117 0.251821 88.3899 0.40959 89.3365C0.47402 90.1548 0.6006 90.967 0.788237 91.7661C0.788237 92.3972 1.04067 93.0598 1.19844 93.6909C1.35621 94.322 1.38776 94.3851 1.51398 94.7637C2.58294 98.3852 4.25798 101.799 6.46794 104.861C7.19367 105.839 7.95097 106.817 8.73981 107.732C8.87908 107.887 9.02654 108.035 9.18157 108.174L9.97042 109.089L10.4122 109.499C16.6683 115.973 25.2341 119.706 34.2354 119.881H368.896C371.204 119.729 373.484 119.284 375.68 118.555C380.104 117.002 384.112 114.452 387.395 111.104C390.677 107.756 393.147 103.698 394.612 99.2444C394.612 98.8973 394.833 98.5818 394.928 98.2662C395.022 97.9507 394.928 98.2662 394.928 98.1085C395.18 97.3301 395.401 96.5413 395.59 95.7419C396.377 92.6484 396.769 89.4677 396.758 86.2758V32.6342C396.815 30.5875 396.699 28.5397 396.411 26.5127V26.6389ZM386.566 86.5913C386.553 89.9899 385.922 93.3577 384.704 96.5308C384.395 97.3558 384.026 98.1573 383.6 98.9289C383.451 99.2542 383.282 99.5703 383.095 99.8755C381.598 102.782 379.339 105.227 376.561 106.95C373.782 108.673 370.587 109.609 367.318 109.657H34.2354C29.7307 109.415 25.3733 107.97 21.6164 105.473C17.8595 102.976 14.8405 99.5176 12.8734 95.4579C12.6959 95.131 12.5379 94.7938 12.4001 94.4482V94.2589C12.1329 93.6883 11.9113 93.0974 11.7374 92.4919C11.6499 92.2867 11.5761 92.0758 11.5166 91.8608C11.0055 90.1181 10.74 88.3127 10.7277 86.4966V32.855C10.6754 28.6897 12.1709 24.6531 14.9244 21.5272C15.5599 20.797 16.2452 20.1117 16.9754 19.4762C21.8088 15.4104 27.9193 13.1762 34.2354 13.1654H367.192C377.731 13.1654 384.736 18.9713 386.124 28.5953C386.372 29.927 386.488 31.2797 386.471 32.6342L386.566 86.5913ZM246.12 111.708H244.794H244.479H242.87H241.891L225.641 110.509H225.168L221.602 110.194L218.447 109.941H213.872L259.94 113.097H261.486L246.12 111.708ZM246.12 111.708H244.794H244.479H242.87H241.891L225.641 110.509H225.168L221.602 110.194L218.447 109.941H213.872L259.94 113.097H261.486L246.12 111.708ZM246.12 111.708H244.794H244.479H242.87H241.891L225.641 110.509H225.168L221.602 110.194L218.447 109.941H213.872L259.94 113.097H261.486L246.12 111.708ZM246.12 111.708H244.794H244.479H242.87H241.891L225.641 110.509H225.168L221.602 110.194L218.447 109.941H213.872L259.94 113.097H261.486L246.12 111.708ZM246.12 111.708H244.794H244.479H242.87H241.891L225.641 110.509H225.168L221.602 110.194L218.447 109.941H213.872L259.94 113.097H261.486L246.12 111.708ZM246.12 111.708H244.794H244.479H242.87H241.891L225.641 110.509H225.168L221.602 110.194L218.447 109.941H213.872L259.94 113.097H261.486L246.12 111.708ZM246.12 111.708H244.794H244.479H242.87H241.891L225.641 110.509H225.168L221.602 110.194L218.447 109.941H213.872L259.94 113.097H261.486L246.12 111.708ZM246.12 111.708H244.794H244.479H242.87H241.891L225.641 110.509H225.168L221.602 110.194L218.447 109.941H213.872L259.94 113.097H261.486L246.12 111.708ZM252.43 111.708L243.785 111.109L239.998 110.888L236.243 110.667L230.343 110.446L226.714 110.225H225.231L218.194 109.846L214.787 109.657H165.121H165.878L169.254 110.067L171.242 110.32L178.342 111.14L192.478 112.844H266.724C262.054 112.529 257.227 112.15 252.43 111.834V111.708ZM252.43 111.708L243.785 111.109L239.998 110.888L236.243 110.667L230.343 110.446L226.714 110.225H225.231L218.194 109.846L214.787 109.657H165.121H165.878L169.254 110.067L171.242 110.32L178.342 111.14L192.478 112.844H266.724C262.054 112.529 257.227 112.15 252.43 111.834V111.708ZM386.566 78.2611V80.9747L387.355 80.3436V78.2926L386.566 78.2611ZM252.43 111.834L243.785 111.235L239.998 111.014L236.243 110.793L230.343 110.446L226.714 110.225H225.231L218.194 109.846L214.787 109.657H165.121H165.878L169.254 110.067L171.242 110.32L178.342 111.14L192.478 112.844H266.724C262.054 112.529 257.227 112.15 252.43 111.834ZM386.566 78.2611V80.9747L387.355 80.3436V78.2926L386.566 78.2611ZM252.43 111.834L243.785 111.235L239.998 111.014L236.243 110.793L230.343 110.446L226.714 110.225H225.231L218.194 109.846L214.787 109.657H165.121H165.878L169.254 110.067L171.242 110.32L178.342 111.14L192.478 112.844H266.724C262.054 112.529 257.227 112.15 252.43 111.834ZM386.566 78.2611V80.9747L387.355 80.3436V78.2926L386.566 78.2611ZM252.43 111.834L243.785 111.235L239.998 111.014L236.243 110.793L230.343 110.446L226.714 110.225H225.231L218.194 109.846L214.787 109.657H165.121H165.878L169.254 110.067L171.242 110.32L178.342 111.14L192.478 112.844H266.724C262.054 112.529 257.227 112.15 252.43 111.834ZM386.566 78.2611V80.9747L387.355 80.3436V78.2926L386.566 78.2611ZM252.43 111.834L243.785 111.235L239.998 111.014L236.243 110.793L230.343 110.446L226.714 110.225H225.231L218.194 109.846L214.787 109.657H165.121H165.878L169.254 110.067L171.242 110.32L178.342 111.14L192.478 112.844H266.724C262.054 112.529 257.227 112.15 252.43 111.834ZM386.566 78.2611V80.9747L387.355 80.3436V78.2926L386.566 78.2611ZM252.43 111.834L243.785 111.235L239.998 111.014L236.243 110.793L230.343 110.446L226.714 110.225H225.231L218.194 109.846L214.787 109.657H165.121H165.878L169.254 110.067L171.242 110.32L178.342 111.14L192.478 112.844H266.724C262.054 112.529 257.227 112.15 252.43 111.834ZM386.566 78.2611V80.9747L387.355 80.3436V78.2926L386.566 78.2611ZM252.43 111.834L243.785 111.235L239.998 111.014L236.243 110.793L230.343 110.446L226.714 110.225H225.231L218.194 109.846L214.787 109.657H165.121H165.878L169.254 110.067L171.242 110.32L178.342 111.14L192.478 112.844H266.724C262.054 112.529 257.227 112.15 252.43 111.834ZM386.566 78.2611V80.9747L387.355 80.3436V78.2926L386.566 78.2611ZM252.43 111.834L243.785 111.235L239.998 111.014L236.243 110.793L230.343 110.446L226.714 110.225H225.231L218.194 109.846L214.787 109.657H165.121H165.878L169.254 110.067L171.242 110.32L178.342 111.14L192.478 112.844H266.724C262.054 112.529 257.227 112.15 252.43 111.834ZM386.566 78.2611V80.9747L387.355 80.3436V78.2926L386.566 78.2611ZM252.43 111.834L243.785 111.235L239.998 111.014L236.243 110.793L230.343 110.446L226.714 110.225H225.231L218.194 109.846L214.787 109.657H165.121H165.878L169.254 110.067L171.242 110.32L178.342 111.14L192.478 112.844H266.724C262.054 112.529 257.227 112.15 252.43 111.834ZM386.566 78.2611V80.9747L387.355 80.3436V78.2926L386.566 78.2611ZM252.43 111.834L243.785 111.235L239.998 111.014L236.243 110.793L230.343 110.446L226.714 110.225H225.231L218.194 109.846L214.787 109.657H165.121H165.878L169.254 110.067L171.242 110.32L178.342 111.14L192.478 112.844H266.724C262.054 112.529 257.227 112.15 252.43 111.834ZM386.566 78.2611V80.9747L387.355 80.3436V78.2926L386.566 78.2611ZM252.43 111.834L243.785 111.235L239.998 111.014L236.243 110.793L230.343 110.446L226.714 110.225H225.231L218.194 109.846L214.787 109.657H165.121H165.878L169.254 110.067L171.242 110.32L178.342 111.14L192.478 112.844H266.724C262.054 112.529 257.227 112.15 252.43 111.834ZM386.566 78.2611V80.9747L387.355 80.3436V78.2926L386.566 78.2611ZM252.43 111.834L243.785 111.235L239.998 111.014L236.243 110.793L230.343 110.446L226.714 110.225H225.231L218.194 109.846L214.787 109.657H165.121H165.878L169.254 110.067L171.242 110.32L178.342 111.14L192.478 112.844H266.724C262.054 112.529 257.227 112.15 252.43 111.834ZM386.566 78.2611V80.9747L387.355 80.3436V78.2926L386.566 78.2611ZM252.43 111.834L243.785 111.235L239.998 111.014L236.243 110.793L230.343 110.446L226.714 110.225H225.231L218.194 109.846L214.787 109.657H165.121H165.878L169.254 110.067L171.242 110.32L178.342 111.14L192.478 112.844H266.724C262.054 112.529 257.227 112.15 252.43 111.834ZM386.566 78.2611V80.9747L387.355 80.3436V78.2926L386.566 78.2611ZM252.43 111.834L243.785 111.235L239.998 111.014L236.243 110.793L230.343 110.446L226.714 110.225H225.231L218.194 109.846L214.787 109.657H165.121H165.878L169.254 110.067L171.242 110.32L178.342 111.14L192.478 112.844H266.724C262.054 112.529 257.227 112.15 252.43 111.834ZM386.566 78.2611V80.9747L387.355 80.3436V78.2926L386.566 78.2611ZM252.43 111.834L243.785 111.235L239.998 111.014L236.243 110.793L230.343 110.446L226.714 110.225H225.231L218.194 109.846L214.787 109.657H165.121H165.878L169.254 110.067L171.242 110.32L178.342 111.14L192.478 112.844H266.724C262.054 112.529 257.227 112.15 252.43 111.834ZM386.566 78.2611V80.9747L387.355 80.3436V78.2926L386.566 78.2611ZM252.43 111.834L243.785 111.235L239.998 111.014L236.243 110.793L230.343 110.446L226.714 110.225H225.231L218.194 109.846L214.787 109.657H165.121H165.878L169.254 110.067L171.242 110.32L178.342 111.14L192.478 112.844H266.724C262.054 112.529 257.227 112.15 252.43 111.834ZM386.566 78.2611V80.9747L387.355 80.3436V78.2926L386.566 78.2611ZM252.43 111.834L243.785 111.235L239.998 111.014L236.243 110.793L230.343 110.446L226.714 110.225H225.231L218.194 109.846L214.787 109.657H165.121H165.878L169.254 110.067L171.242 110.32L178.342 111.14L192.478 112.844H266.724C262.054 112.529 257.227 112.15 252.43 111.834ZM386.566 78.2611V80.9747L387.355 80.3436V78.2926L386.566 78.2611ZM252.43 111.834L243.785 111.235L239.998 111.014L236.243 110.793L230.343 110.446L226.714 110.225H225.231L218.194 109.846L214.787 109.657H165.121H165.878L169.254 110.067L171.242 110.32L178.342 111.14L192.478 112.844H266.724C262.054 112.529 257.227 112.15 252.43 111.834ZM386.566 78.2611V80.9747L387.355 80.3436V78.2926L386.566 78.2611ZM252.43 111.834L243.785 111.235L239.998 111.014L236.243 110.793L230.343 110.446L226.714 110.225H225.231L218.194 109.846L214.787 109.657H165.121H165.878L169.254 110.067L171.242 110.32L178.342 111.14L192.478 112.844H266.724C262.054 112.529 257.227 112.15 252.43 111.834ZM386.566 78.2611V80.9747L387.355 80.3436V78.2926L386.566 78.2611ZM252.43 111.834L243.785 111.235L239.998 111.014L236.243 110.793L230.343 110.446L226.714 110.225H225.231L218.194 109.846L214.787 109.657H165.121H165.878L169.254 110.067L171.242 110.32L178.342 111.14L192.478 112.844H266.724C262.054 112.529 257.227 112.15 252.43 111.834ZM386.566 78.2611V80.9747L387.355 80.3436V78.2926L386.566 78.2611ZM252.43 111.834L243.785 111.235L239.998 111.014L236.243 110.793L230.343 110.446L226.714 110.225H225.231L218.194 109.846L214.787 109.657H165.121H165.878L169.254 110.067L171.242 110.32L178.342 111.14L192.478 112.844H266.724C262.054 112.529 257.227 112.15 252.43 111.834ZM386.566 78.2611V80.9747L387.355 80.3436V78.2926L386.566 78.2611ZM252.43 111.834L243.785 111.235L239.998 111.014L236.243 110.793L230.343 110.446L226.714 110.225H225.231L218.194 109.846L214.787 109.657H165.121H165.878L169.254 110.067L171.242 110.32L178.342 111.14L192.478 112.844H266.724C262.054 112.529 257.227 112.15 252.43 111.834ZM386.566 78.2611V80.9747L387.355 80.3436V78.2926L386.566 78.2611ZM252.43 111.834L243.785 111.235L239.998 111.014L236.243 110.793L230.343 110.446L226.714 110.225H225.231L218.194 109.846L214.787 109.657H165.121H165.878L169.254 110.067L171.242 110.32L178.342 111.14L192.478 112.844H266.724C262.054 112.529 257.227 112.15 252.43 111.834ZM386.566 78.2611V80.9747L387.355 80.3436V78.2926L386.566 78.2611ZM252.43 111.834L243.785 111.235L239.998 111.014L236.243 110.793L230.343 110.446L226.714 110.225H225.231L218.194 109.846L214.787 109.657H165.121H165.878L169.254 110.067L171.242 110.32L178.342 111.14L192.478 112.844H266.724C262.054 112.529 257.227 112.15 252.43 111.834ZM386.566 78.2611V80.9747L387.355 80.3436V78.2926L386.566 78.2611ZM252.43 111.834L243.785 111.235L239.998 111.014L236.243 110.793L230.343 110.446L226.714 110.225H225.231L218.194 109.846L214.787 109.657H165.121H165.878L169.254 110.067L171.242 110.32L178.342 111.14L192.478 112.844H266.724C262.054 112.529 257.227 112.15 252.43 111.834ZM386.566 78.2611V80.9747L387.355 80.3436V78.2926L386.566 78.2611ZM252.43 111.834L243.785 111.235L239.998 111.014L236.243 110.793L230.343 110.446L226.714 110.225H225.231L218.194 109.846L214.787 109.657H165.121H165.878L169.254 110.067L171.242 110.32L178.342 111.14L192.478 112.844H266.724C262.054 112.529 257.227 112.15 252.43 111.834ZM386.566 78.2611V80.9747L387.355 80.3436V78.2926L386.566 78.2611ZM252.43 111.834L243.785 111.235L239.998 111.014L236.243 110.793L230.343 110.446L226.714 110.225H225.231L218.194 109.846L214.787 109.657H165.121H165.878L169.254 110.067L171.242 110.32L178.342 111.14L192.478 112.844H266.724C262.054 112.529 257.227 112.15 252.43 111.834ZM386.566 78.2611V80.9747L387.355 80.3436V78.2926L386.566 78.2611Z" fill="url(#paint1_linear_24_12574)"/>
<g style="mix-blend-mode:multiply" opacity="0.6">
<path d="M21.2982 20.2969C20.369 20.8306 19.4733 21.4207 18.6162 22.0639C17.354 21.843 16.1234 21.6853 14.9244 21.5275C11.7172 21.1966 8.48998 21.1017 5.26887 21.2435L2.6499 21.4328C3.00298 20.5953 3.41418 19.7834 3.8805 19.0032H7.03589C10.3707 18.9142 13.7068 19.1148 17.0069 19.6027C18.4481 19.7621 19.8803 19.9938 21.2982 20.2969Z" fill="#C97B3A"/>
<path d="M11.5803 33.6441C11.5155 34.4527 11.5155 35.2652 11.5803 36.0738L10.7914 36.2631C8.15615 36.8989 5.45606 37.2271 2.7452 37.2412H0.252441V34.8747H1.07284C4.2607 35.005 7.45037 34.6648 10.539 33.865L11.5803 33.6441Z" fill="#C97B3A"/>
<path d="M11.4225 42.7002V45.0352L10.6337 45.0037L1.04129 44.8459H0.252441V42.5109H1.04129L10.6337 42.7002H11.4225Z" fill="#C97B3A"/>
<path d="M11.4225 57.4359V59.8024L10.6337 59.6446L1.04129 57.5936L0.252441 57.4359V55.0693L1.04129 55.2271L10.6337 57.2466L11.4225 57.4359Z" fill="#C97B3A"/>
<path d="M10.6337 66.4918L5.80592 67.0913C7.1943 67.6593 8.96131 68.3535 10.6337 68.953L11.4225 69.2054V71.6666L10.6337 71.3195C7.47327 70.2797 4.3758 69.0576 1.35683 67.6593H1.04129H0.252441V65.3243H1.04129L10.5075 64.1252H11.2963V66.4918H10.6337Z" fill="#C97B3A"/>
<path d="M11.4225 87.128V89.463L10.6337 89.3998L1.04129 88.9265L0.252441 88.8634V86.56L1.04129 86.5916L10.6337 87.0964L11.4225 87.128Z" fill="#C97B3A"/>
<path d="M116.749 123.288H110.438L101.572 120.133C95.7027 117.956 88.9502 115.431 82.0399 113.033L72.5737 109.878H79.7996L89.0449 113.033C96.176 115.621 103.023 118.177 108.261 120.133L116.749 123.288Z" fill="#C97B3A"/>
<path d="M92.7695 123.289H85.4806C82.0097 122.153 78.1601 120.985 74.1843 120.133C68.6498 118.635 63.0049 117.58 57.303 116.978C40.9606 114.818 24.7491 111.764 8.74154 107.827L6.62743 107.354C6.02184 106.469 5.4636 105.553 4.95508 104.609C5.46568 104.698 5.97124 104.814 6.46966 104.956C10.5086 105.871 15.9358 107.133 21.9942 108.427C29.4724 110.004 37.7711 111.582 45.2178 112.876C49.73 113.633 53.9583 114.201 57.4923 114.548C66.0666 115.511 74.5231 117.329 82.7354 119.975C86.4272 121.111 89.835 122.247 92.7695 123.289Z" fill="#C97B3A"/>
<path d="M161.588 123.289H159.253L158.874 121.175L155.435 119.976L135.146 112.876L125.743 109.594H132.748L142.119 112.876L160.894 119.471L160.988 119.976L161.588 123.289Z" fill="#C97B3A"/>
<path d="M381.802 119.629C380.645 120.299 379.443 120.89 378.205 121.396C375.302 120.891 372.115 120.386 369.023 119.944C365.867 119.471 362.712 119.061 360.314 118.871C357.158 118.587 350.848 118.272 341.949 117.83C330.054 117.231 313.93 116.442 296.417 115.243C291.716 116.473 282.092 118.177 270.606 119.976C263.664 121.049 256.028 122.216 248.518 123.131H231.511L245.142 121.238L232.836 119.818C215.608 117.83 191.28 114.896 173.105 112.718L148.303 109.91V109.594H165.216H165.973L169.35 110.005L171.338 110.257L178.437 111.078L192.573 112.781C216.586 115.653 243.06 118.777 251.579 119.66V119.881V120.386L255.018 119.881C267.64 118.019 279.946 116.095 288.182 114.548C283.038 114.17 277.8 113.728 272.405 113.286L266.725 112.781C262.055 112.434 257.259 112.056 252.399 111.74L243.754 111.141L239.967 110.92L236.212 110.699L230.343 110.446L225.232 110.162L218.195 109.784L214.787 109.594H253.977C260.288 110.036 266.599 110.51 272.626 111.046C280.514 111.74 288.402 112.34 296.038 112.876H296.259C313.835 114.075 329.99 114.896 341.918 115.495C350.69 115.937 357.064 116.252 360.345 116.536C364.542 116.915 370.379 117.767 375.68 118.587L381.802 119.629Z" fill="#C97B3A"/>
<path d="M397.22 95.7735C397.132 96.5596 396.995 97.3395 396.81 98.1085H395.106C392.203 98.1085 389.079 98.3609 385.861 98.5502L383.589 98.708C384.015 97.9364 384.384 97.1349 384.693 96.3099H386.555C389.71 96.1206 392.866 95.9628 395.769 95.8681L397.22 95.7735Z" fill="#C97B3A"/>
<path d="M389.173 11.8404C387.974 11.6511 386.743 11.4617 385.513 11.3355C369.067 9.65309 352.525 9.11538 336.005 9.72628V9.53696C331.713 10.9884 328.179 12.3768 325.844 13.2919L322.689 14.554L322.121 13.2919L321.837 12.4084C322.468 12.1244 329.094 9.25298 338.434 6.09759C342 4.96165 345.976 3.79415 350.141 2.9422H361.973C356.867 3.76192 351.81 4.86805 346.828 6.25536L343.451 7.20197C355.535 6.92792 367.625 7.26493 379.675 8.2117C381.852 8.43257 383.967 8.65345 385.986 8.93744C387.135 9.80502 388.202 10.7768 389.173 11.8404Z" fill="#C97B3A"/>
<path d="M397.567 43.205V45.6662L396.81 45.9501C393.725 46.9682 390.558 47.7178 387.344 48.1905H386.555V46.0764H387.344C390.555 45.5769 393.721 44.8171 396.81 43.8045L397.567 43.205Z" fill="#C97B3A"/>
<path d="M397.567 39.3871V41.7536L396.81 41.5643L387.344 39.2924C387.077 39.2443 386.814 39.1811 386.555 39.1031V36.6104L387.344 36.7997L396.81 39.0716L397.567 39.3871Z" fill="#C97B3A"/>
<path d="M397.567 55.7633V58.0983H396.81L387.344 57.2464H386.555V54.9114H387.344C390.499 55.1638 393.654 55.4478 396.81 55.7633H397.567Z" fill="#C97B3A"/>
<path d="M397.567 69.584V71.9505L396.81 72.1083C393.654 72.8656 390.499 73.7806 387.344 74.6642L386.555 74.8535V72.4554L387.344 72.2345C390.499 71.4141 393.875 70.4675 396.81 69.7418L397.567 69.584Z" fill="#C97B3A"/>
<path d="M337 7.32794L336 9.82794C323.883 9.82794 31.8056 9.50542 17.8904 10.2312L11.3271 10.5782C12.5041 9.70874 13.7374 8.91816 15.019 8.21171L24.99 7.70684C33.5411 7.29664 44.7427 6.76023 54.8084 6.38158C63.1071 5.90827 332.235 7.32794 337 7.32794Z" fill="#C97B3A"/>
</g>
<g style="mix-blend-mode:overlay" opacity="0.5">
<path d="M12.8104 24.3986C13.3845 23.3519 14.0954 22.3862 14.9245 21.5272C11.7261 21.0799 8.48824 20.9847 5.26904 21.2433C11.4536 21.3064 12.8104 24.3986 12.8104 24.3986Z" fill="#FFDE55"/>
<path d="M69.0707 7.95911L15.9971 10.6727C15.9971 10.6727 31.5216 10.6727 43.7014 10.2941C52.1948 9.99024 60.6645 9.21069 69.0707 7.95911Z" fill="#FFDE55"/>
<path d="M8.17246 36.9258C5.55262 37.3296 2.89448 37.4249 0.252441 37.2098V42.5108L1.23061 38.2826C3.58498 38.0697 5.91118 37.615 8.17246 36.9258Z" fill="#FFDE55"/>
<path d="M10.6337 46.455V45.2875C6.97341 45.2875 1.45148 44.8773 0.252431 44.8142H0L0.157769 45.7608L10.6337 46.455Z" fill="#FFDE55"/>
<path d="M10.6337 59.7077C5.6166 58.8557 0.252441 57.4358 0.252441 57.4358V59.045L10.6337 60.7805V59.7077Z" fill="#FFDE55"/>
<path d="M10.6337 71.3193C6.87876 70.0255 1.9879 67.8168 1.9879 67.8168H0.252441V69.0789C1.22421 69.013 2.20043 69.0767 3.1554 69.2683C4.54377 69.6153 8.04625 71.0353 10.6337 72.0765V71.3193Z" fill="#FFDE55"/>
<path d="M10.6337 89.5258L0.252441 89.084V90.0622C3.6943 90.5134 7.16238 90.7347 10.6337 90.7248V89.5258Z" fill="#FFDE55"/>
<path d="M39.0639 114.453C30.2919 113.002 9.05615 108.143 9.05615 108.143L10.413 109.468C10.413 109.468 18.4908 111.424 22.3719 112.623C26.253 113.822 46.1004 116.599 52.3796 117.262C58.6589 117.924 67.3362 119.975 67.3362 119.975L73.6469 119.786C73.6469 119.786 60.4259 116.978 58.9744 116.978C57.5229 116.978 47.8359 115.873 39.0639 114.453Z" fill="#FFDE55"/>
<path d="M71.9737 109.594H68.061C77.5272 112.497 96.6173 119.313 98.4474 119.975H98.6052H101.35C101.35 119.975 87.1196 114.927 82.4181 113.191C78.884 111.834 73.8985 110.225 71.9737 109.594Z" fill="#FFDE55"/>
<path d="M127.383 109.594H125.427C131.738 112.245 150.133 119.06 153.1 119.975H153.51H155.434C155.434 119.975 145.716 116.189 140.099 114.611C135.75 113.234 131.501 111.558 127.383 109.594Z" fill="#FFDE55"/>
<path d="M219.71 118.398C214.819 117.924 177.522 113.759 168.561 112.402C162.566 111.487 152.784 110.288 146.884 109.594H141.993C150.134 111.834 180.552 114.99 190.743 115.905C199.768 116.757 217.501 119.06 223.275 119.881L225.169 120.133L231.953 119.944H231.606C230.028 119.754 224.033 118.808 219.71 118.398Z" fill="#FFDE55"/>
<path d="M225.169 110.162H225.642L244.574 111.55L218.511 109.562L225.169 110.162Z" fill="#FFDE55"/>
<path d="M263.064 112.876C257.763 112.465 252.746 112.087 249.559 111.929L244.447 111.582L283.795 114.58L213.872 109.594C222.139 110.572 237.379 112.339 244.952 112.749C246.372 112.749 247.508 112.939 248.297 112.939C254.324 112.939 281.365 114.422 286.382 114.674H287.14H285.688C282.06 114.39 272.089 113.57 263.064 112.876Z" fill="#FFDE55"/>
<path d="M383.033 99.7181L394.74 99.2133C394.74 98.8662 394.961 98.5506 395.055 98.2351L383.538 98.7715C383.389 99.0968 383.22 99.4129 383.033 99.7181Z" fill="#FFDE55"/>
<path d="M396.947 72.2344L386.566 74.9796V76.3048C389.406 75.5791 394.423 74.4747 396.947 73.9383V72.2344Z" fill="#FFDE55"/>
<path d="M396.949 58.0352L385.715 56.994C389.023 57.5514 392.283 58.3637 395.465 59.4236C396.538 60.1809 397.012 67.4067 397.012 67.4067L396.949 58.0352Z" fill="#FFDE55"/>
<path d="M396.947 46.076C395.874 46.36 394.233 46.7702 391.899 47.4644C390.168 47.9916 388.374 48.2783 386.566 48.3164V49.8941C390.096 49.086 393.565 48.0316 396.947 46.7387V46.076Z" fill="#FFDE55"/>
<path d="M386.566 40.4596C389.992 41.227 393.458 41.8064 396.947 42.1951V41.5955L386.566 39.0712V40.4596Z" fill="#FFDE55"/>
<path d="M389.281 11.9348C384.705 11.3038 373.504 9.85228 364.605 9.59985C353.309 9.31586 335.954 9.59985 335.954 9.59985L325.321 13.1654H329.076C332.312 11.5992 335.81 10.647 339.394 10.3571C344.79 10.0732 371.421 10.7358 375.775 11.0198C381.045 11.6581 386.236 12.8317 391.268 14.5223C390.671 13.6113 390.007 12.7464 389.281 11.9348Z" fill="#FFDE55"/>
</g>
<g style="mix-blend-mode:multiply" opacity="0.4">
<path d="M305.757 11.3668C305.946 11.8086 306.136 12.2819 306.293 12.7552H305H294.555C264.737 13.2285 202.071 13.6071 164.963 13.828H150.291H149.754L107.946 14.0805H96.9648C96.9648 13.6703 97.1857 13.2916 97.3119 12.913C97.1226 13.2916 97.028 13.5125 96.9964 13.544L97.2804 12.6605H109.176C135.208 12.6921 242.965 12.2503 292.441 11.3668H304.242H305.757Z" fill="#C97B3A"/>
</g>
<path d="M302.38 5.46636H298.909C280.482 5.34015 201.944 5.05616 193.078 4.5513L146.441 1.90077L136.344 1.42747H136.186L125.584 0.827942L164.553 1.90077C187.43 2.59496 213.935 3.44691 224.789 3.88867L229.365 4.10955C234.35 4.51975 280.324 4.99305 295.123 5.24548H298.815C299.981 5.31828 301.151 5.31828 302.317 5.24548L302.38 5.46636Z" fill="#FFDE55"/>
<g style="mix-blend-mode:overlay" opacity="0.5">
<path d="M305.515 10.2916H217.164L305.168 9.5343C305.168 9.5343 305.452 10.0707 305.515 10.2916Z" fill="#FFDE55"/>
</g>
<g style="mix-blend-mode:overlay" opacity="0.5">
<path d="M96.0506 17.4569L159.158 18.8453C159.158 18.8453 102.551 18.1195 98.7642 18.2773C97.0288 18.2773 95.9559 20.2021 96.1453 22.6633C96.019 22.6633 95.9875 18.2458 96.0506 17.4569Z" fill="#FFDE55"/>
</g>
<g style="mix-blend-mode:overlay" opacity="0.5">
<path d="M164.964 13.923L107.158 15.406H106.747L97.8177 15.0273H96.8711V14.7118H97.8177H107.568L149.629 14.2385H150.071L168.025 14.0176C168.372 13.8283 167.236 13.8914 164.964 13.923Z" fill="#FFDE55"/>
</g>
<defs>
<linearGradient id="paint0_linear_24_12574" x1="201.724" y1="228.3" x2="201.724" y2="13.8598" gradientUnits="userSpaceOnUse">
<stop stop-color="#667E00"/>
<stop offset="0.68" stop-color="#A2C521"/>
</linearGradient>
<linearGradient id="paint1_linear_24_12574" x1="198.6" y1="4.39344" x2="198.6" y2="211.261" gradientUnits="userSpaceOnUse">
<stop stop-color="#F0CA57"/>
<stop offset="1" stop-color="#D45B1A"/>
</linearGradient>
</defs>
</svg>
