<svg width="191" height="48" viewBox="0 0 191 48" fill="none" xmlns="http://www.w3.org/2000/svg">
<g style="mix-blend-mode:multiply" opacity="0.5">
<path d="M190.257 25.7507C190.272 25.6204 190.272 25.4888 190.257 25.3584V24.2097C190.012 22.1876 189.523 20.2026 188.8 18.2981C188.8 17.9339 188.52 17.5697 188.352 17.2055C187.242 14.7192 185.597 12.5091 183.533 10.7335C183.063 10.3108 182.567 9.91779 182.048 9.55678C179.105 7.57239 175.622 6.54499 172.074 6.61499H19.0722C15.2978 6.54065 11.6043 7.71404 8.56486 9.95311C5.5254 12.1922 3.30985 15.3718 2.26193 18.9986L1.92572 20.1192C1.92572 20.4835 1.70159 20.8477 1.61753 21.2119C1.53348 21.5761 1.44943 21.9684 1.3934 22.3326C1.17703 23.4622 1.02735 24.6035 0.945123 25.7507C0.945123 26.255 0.945123 26.7313 0.945123 27.2356C0.936943 28.8819 1.09653 30.5247 1.42141 32.1386C1.47854 32.5269 1.5628 32.9107 1.67357 33.2873C1.67357 33.8196 1.95374 34.38 2.12184 34.9403C2.28995 35.5006 2.374 35.6968 2.51408 36.089C3.65608 39.5701 5.88823 42.5912 8.88034 44.7054C11.8725 46.8195 15.4656 47.9145 19.1282 47.8282H172.074C174.42 47.8814 176.752 47.4428 178.918 46.5404C181.085 45.6381 183.038 44.292 184.653 42.589L185.606 41.4963C187.353 39.2151 188.621 36.6037 189.332 33.8196C189.332 33.4554 189.528 33.0632 189.612 32.6989C190.022 30.9061 190.238 29.0745 190.257 27.2356C190.257 26.7313 190.257 26.255 190.257 25.7507ZM181.852 32.811C181.852 33.1752 181.6 33.5394 181.459 33.9317C180.801 35.8236 179.553 37.4543 177.899 38.584C176.245 39.7137 174.272 40.2828 172.27 40.2075H19.0722C17.5971 40.2816 16.1263 39.9935 14.7882 39.3684C13.4501 38.7433 12.2853 37.8001 11.3955 36.6213C11.1153 36.2291 10.8352 35.8368 10.611 35.4446C10.2309 34.784 9.91209 34.09 9.65845 33.3713C9.65845 32.9791 9.40629 32.6149 9.29422 32.2507C8.84219 30.6168 8.6067 28.9307 8.5938 27.2356C8.5938 27.0115 8.5938 26.4791 8.5938 25.7787C8.69966 24.7014 8.88697 23.6337 9.15414 22.5847C9.24425 22.2049 9.3565 21.8307 9.49034 21.4641C9.49034 21.0158 9.82654 20.5395 10.0227 20.0632C10.1966 19.6693 10.393 19.2858 10.611 18.9145C11.4355 17.4277 12.6598 16.2014 14.1453 15.3745C15.6308 14.5476 17.3181 14.1531 19.0162 14.2356H172.074C173.467 14.1705 174.856 14.4273 176.134 14.9861C177.412 15.5449 178.544 16.3906 179.442 17.4576C179.738 17.8126 180.009 18.187 180.255 18.5783C181.296 20.292 181.982 22.1976 182.272 24.1817C182.272 24.602 182.272 24.9662 182.44 25.3304C182.426 25.4702 182.426 25.6109 182.44 25.7507C182.44 26.4791 182.44 27.0115 182.44 27.2356C182.45 29.1223 182.186 31.0004 181.656 32.811H181.852Z" fill="#201C23"/>
</g>
<path d="M188.967 21.968C188.981 21.8376 188.981 21.7061 188.967 21.5758V20.4831C188.981 20.3059 188.981 20.1279 188.967 19.9508C188.967 19.9508 188.967 19.9508 188.967 19.7266C188.967 19.5025 188.967 18.8861 188.743 18.4939C188.441 17.1117 188.009 15.7609 187.454 14.4594L187.006 13.3667C186.838 13.0305 186.698 12.6943 186.53 12.3861L185.829 11.2094C184.892 9.63965 183.721 8.22241 182.355 7.00685C181.96 6.64032 181.539 6.30321 181.095 5.99824C180.333 5.47053 179.527 5.01112 178.685 4.6254L178.097 4.37324C177.332 4.0625 176.546 3.80964 175.743 3.61678C174.205 3.1507 172.614 2.87777 171.008 2.80428H18.9035C14.7464 2.69321 10.6984 4.14249 7.55654 6.86677C5.7766 8.43779 4.32049 10.3412 3.26992 12.4702C3.0738 12.8624 2.87768 13.2827 2.70958 13.7029L2.54148 14.0111C2.48294 14.1179 2.43598 14.2306 2.40139 14.3473L2.14924 15.0197C2.00915 15.384 1.89708 15.7762 1.78501 16.1404C1.77189 16.224 1.77189 16.309 1.78501 16.3926C1.7066 16.6317 1.64113 16.8749 1.58889 17.121L1.33674 18.2417V18.69C1.17458 19.6172 1.06235 20.5525 1.00054 21.4917C1.00054 21.912 1.00054 22.3602 1.00054 22.8085C0.992449 24.4362 1.15206 26.0605 1.47683 27.6555C1.47683 28.0477 1.61691 28.4119 1.70096 28.7762C1.83002 29.3353 1.98901 29.8871 2.17726 30.4292C2.17726 30.8214 2.42941 31.1856 2.56949 31.5499C3.70716 34.9918 5.91831 37.9783 8.87832 40.071C11.8383 42.1636 15.3913 43.2522 19.0155 43.177H171.008C173.343 43.2453 175.666 42.8188 177.825 41.9255C179.983 41.0322 181.928 39.6923 183.532 37.9938L184.036 37.4054L184.345 37.0412L184.849 36.3688C186.31 34.301 187.383 31.9845 188.015 29.5326C188.028 29.4491 188.028 29.364 188.015 29.2805V28.9723C188.015 28.8042 188.015 28.6081 188.015 28.4119C188.015 28.2158 188.015 27.9356 188.155 27.7115C188.434 26.158 188.574 24.5829 188.575 23.0046C188.995 22.8645 188.995 22.4163 188.967 21.968ZM180.73 28.0197C180.73 28.2718 180.73 28.524 180.506 28.8042L180.338 29.2524V29.5046C180.338 29.5046 180.338 29.7007 180.338 29.8128C179.798 31.3892 178.84 32.7896 177.568 33.8651C176.295 34.9406 174.754 35.6509 173.11 35.9205C172.497 36.0111 171.88 36.0579 171.261 36.0606H18.9035C18.0459 36.0615 17.1908 35.9676 16.3539 35.7804C14.7034 35.42 13.1998 34.5706 12.0393 33.3429C11.8005 33.1042 11.576 32.8516 11.3669 32.5865L10.9466 32.1102L10.5264 31.4378L10.1901 30.8214C9.99403 30.4292 9.82593 30.0089 9.65783 29.5887V29.3925V29.0843L9.48972 28.6081V28.2718L9.23757 27.3473C8.95075 26.0207 8.79127 24.6697 8.76128 23.3128C8.76128 23.0887 8.76128 22.5564 8.76128 21.8559C8.85859 20.7887 9.03653 19.7304 9.2936 18.69C9.37996 18.3184 9.49231 17.9532 9.6298 17.5973V17.3452L9.74188 16.8128V16.6167L9.90998 16.1965C10.0501 15.9163 10.1621 15.6641 10.3302 15.384C10.3754 15.2757 10.4317 15.1724 10.4983 15.0758L10.6384 14.8236C10.8091 14.5421 10.9962 14.2708 11.1988 14.0111L11.3389 13.815C11.7037 13.3611 12.1067 12.9393 12.5436 12.5542C12.7677 12.3861 12.9919 12.19 13.216 12.0499C14.8629 10.925 16.8262 10.3556 18.8194 10.4249H171.008C172.496 10.3645 173.979 10.6324 175.351 11.2094C176.026 11.5278 176.657 11.9328 177.228 12.4142C177.62 12.7498 177.985 13.1151 178.321 13.5068L179.105 14.5995C179.775 15.692 180.293 16.8701 180.646 18.1016C180.646 18.5219 180.87 18.9421 180.954 19.3624C180.951 19.4277 180.951 19.4932 180.954 19.5585C180.954 19.7266 180.954 19.9227 180.954 20.0628C180.954 20.0628 180.954 20.8473 181.095 21.1835C181.235 21.5197 181.095 21.4917 181.095 21.6318C181.095 22.3322 181.095 22.8645 181.095 23.0887C181.189 24.7412 181.066 26.399 180.73 28.0197Z" fill="#9E4000"/>
<path d="M188.996 20.3431V19.6147V18.3539C188.889 17.0976 188.683 15.8516 188.38 14.6276C188.38 14.2634 188.212 13.8992 188.1 13.507L187.932 12.9466C187.932 12.7505 187.932 12.5824 187.736 12.3863C187.583 11.9789 187.395 11.5852 187.175 11.2096C186.619 9.79257 185.895 8.44747 185.018 7.20311L184.178 6.08242C183.785 5.63415 183.393 5.18587 182.973 4.79363C182.626 4.42851 182.252 4.09127 181.852 3.78502C178.804 1.27341 174.959 -0.0678038 171.009 0.00270607H18.9045C18.0332 0.000798706 17.1628 0.0569574 16.2989 0.170809C14.8064 0.372816 13.3466 0.768384 11.9563 1.34753L11.508 1.54365C10.9706 1.79592 10.4468 2.07648 9.93905 2.38416C6.22593 4.77593 3.4849 8.41077 2.20632 12.6384C2.20632 12.6384 2.20632 12.6384 2.20632 12.8626C2.20632 13.0867 1.98219 13.535 1.89814 13.8992C1.88223 13.9731 1.88223 14.0495 1.89814 14.1233V14.4035L1.73003 15.1039C1.73003 15.1039 1.73003 15.244 1.73003 15.3281C1.73003 15.4121 1.58995 16.0005 1.53391 16.3647V16.6169C1.53391 16.925 1.53391 17.2332 1.53391 17.5414C1.53391 17.8496 1.53391 18.2979 1.53391 18.6901C1.51897 18.8111 1.51897 18.9334 1.53391 19.0543C1.53391 19.5306 1.53391 19.9789 1.53391 20.4552C1.53391 20.9315 1.53391 21.3237 1.53391 21.772V22.1362C1.63793 23.8676 1.91004 25.5847 2.34641 27.2634C2.34641 27.6836 2.57055 28.1039 2.71063 28.4961C2.71063 28.4961 2.71064 28.7483 2.85072 28.8884L3.01882 29.3927V29.6168L3.299 30.3172C3.43908 30.6534 3.60718 31.0177 3.77529 31.3539V31.606L4.02744 32.0823C4.02744 32.0823 4.16753 32.3625 4.25158 32.5306V32.6987C5.70618 35.3756 7.87458 37.5967 10.5158 39.1151C13.157 40.6335 16.1675 41.3898 19.2127 41.2999H171.009C174.234 41.3562 177.41 40.5016 180.171 38.8344C180.703 38.4982 181.18 38.134 181.656 37.7698H181.824C182.188 37.4896 182.525 37.1534 182.861 36.8452C184.665 35.0053 186.084 32.8241 187.035 30.4293V30.0931C187.035 30.0931 187.035 29.897 187.035 29.7849C187.047 29.6825 187.047 29.5791 187.035 29.4767V29.3086L187.371 28.2159C187.931 26.2902 188.27 24.3068 188.38 22.3043C188.38 22.3043 188.38 22.1362 188.38 22.0522V20.3431H188.996Z" fill="url(#paint0_linear_24_41809)"/>
<g style="mix-blend-mode:multiply" opacity="0.4">
<path d="M184.122 5.97003H182.049H181.012H177.986H177.762C164.79 5.6058 132.739 5.1015 115.368 4.65322C93.6266 4.09288 70.7927 3.4765 52.1333 2.80409L36.7519 2.38384H36.6118C30.2799 2.1597 24.9567 1.96358 20.8101 1.76746L11.9287 1.3472C13.319 0.768058 14.7789 0.37249 16.2714 0.170483C36.4437 0.59074 95.1956 1.15108 108.476 1.76746H108.644C109.064 1.76746 128.256 0.898928 145.626 0.00238037H167.424C158.038 0.366603 132.402 0.758843 126.323 1.23513C123.997 1.43125 117.441 2.04763 115.312 2.18772L130.301 2.80409C142.18 3.36443 168.376 3.92478 178.491 4.34503L182.469 4.51314H182.917C183.337 4.90538 183.73 5.35365 184.122 5.80192V5.97003Z" fill="#C97B3A"/>
<path d="M187.175 11.2092C187.344 11.6014 187.512 12.0217 187.652 12.4419H186.503H177.229C150.753 12.8622 95.1112 13.1984 62.163 13.3945H49.1351H48.6588L11.5361 13.6186H1.78613C1.78613 13.2544 1.98225 12.9182 2.09432 12.582C1.92622 12.9182 1.84217 13.1143 1.81415 13.1423L2.06631 12.3579H12.6288C35.7429 12.3859 131.421 11.9936 175.352 11.2092H185.831H187.175Z" fill="#C97B3A"/>
<path d="M188.997 19.6144H188.745H180.956C136.297 19.026 32.886 17.4851 10.052 16.8127H9.5477L1.843 16.5605H1.25464C1.25464 16.1963 1.25464 15.8601 1.45076 15.5239C1.64688 15.1877 1.45076 15.5239 1.45076 15.2997H2.20722L9.68779 15.5239H10.4723C33.3342 16.2243 136.073 17.7653 180.62 18.3256H188.493H188.885L188.997 19.6144Z" fill="#C97B3A"/>
<path d="M188.577 28.0195C188.577 28.2437 188.577 28.4958 188.437 28.7199C188.297 28.9441 188.437 29.1122 188.437 29.2803H180.34C135.26 29.2803 31.2608 28.832 12.2372 28.6359H9.32343H2.68337H1.67476L1.42261 27.3751H2.26312H8.98723H11.5368C34.6789 27.6273 137.025 28.0195 180.732 28.0195H188.577Z" fill="#C97B3A"/>
<path d="M184.962 36.7604L184.458 37.4329L184.15 37.7971L181.853 37.5729L177.118 37.0686C173.447 36.6764 144.142 36.4242 134.84 36.1721C131.254 36.1721 128.312 36.004 126.827 35.9199L122.204 36.1721C104.021 37.0686 38.1528 40.1785 33.3338 41.3553H33.1377C32.4396 42.0371 31.8365 42.8098 31.3446 43.6527H29.8597C30.337 42.8567 30.8609 42.0895 31.4286 41.3553C31.7866 40.8381 32.2813 40.4306 32.8575 40.1785C36.1355 39.254 73.9306 36.7885 86.09 36.1721L88.8918 36.032C97.7732 35.7238 120.411 35.3876 122.176 35.0514C109.008 34.323 35.9394 33.6225 25.5731 32.9781L17.6162 32.5018L12.5451 32.2217H10.9481L4.19601 31.8294H3.35549H2.65507C2.48696 31.4092 2.34687 30.9889 2.20679 30.5687H2.76713H3.5236L10.1917 30.9609H11.7046L14.6744 31.157C23.0795 31.6613 94.9715 32.3337 107.551 33.0342C118.758 33.6786 155.46 35.0234 172.831 36.088L182.973 36.7044L184.962 36.7604Z" fill="#C97B3A"/>
</g>
<path d="M184.177 5.97008H181.095C164.733 5.85801 94.9985 5.60586 87.1256 5.15758L45.7163 2.80414L36.7509 2.38389H36.6108L27.197 1.85156L61.7982 2.80414C82.1106 3.42052 105.645 4.17698 115.283 4.56922L119.345 4.76534C123.772 5.12957 164.593 5.54982 177.733 5.77396H181.011C182.047 5.83859 183.085 5.83859 184.121 5.77396L184.177 5.97008Z" fill="#FFDE55"/>
<path d="M182.916 4.6538H182.496L177.929 4.23354C173.447 3.78527 170.028 3.64518 170.028 3.64518L134.419 3.05682C134.419 3.05682 162.632 3.05682 175.548 3.42105L181.852 3.61717C182.251 3.92341 182.626 4.26066 182.972 4.62578L182.916 4.6538Z" fill="#FFDE55"/>
<g style="mix-blend-mode:overlay" opacity="0.5">
<path d="M187.847 12.9184H109.399L187.539 12.246C187.539 12.246 187.791 12.7223 187.847 12.9184Z" fill="#FFDE55"/>
</g>
<g style="mix-blend-mode:overlay" opacity="0.5">
<path d="M62.1624 13.4789L10.835 14.7957H10.4708L2.54193 14.4595H1.70142V14.1794H2.54193H11.1992L48.546 13.7591H48.9383L64.88 13.563C65.1882 13.3949 64.1796 13.4509 62.1624 13.4789Z" fill="#FFDE55"/>
</g>
<g style="mix-blend-mode:overlay" opacity="0.5">
<path d="M188.996 19.7829H188.772L180.983 19.6708L107.242 18.9424L181.095 20.1751L188.856 20.3432H188.996V19.7829Z" fill="#FFDE55"/>
</g>
<g style="mix-blend-mode:overlay" opacity="0.5">
<path d="M132.401 36.1726C137.557 36.3687 160.783 36.7329 168.011 37.0972C155.544 37.0972 103.852 37.9937 88.8628 38.2739C88.8628 38.2739 119.682 36.6769 125.649 36.1726H126.49C126.938 36.1726 129.291 36.1726 132.401 36.1726Z" fill="#FFDE55"/>
</g>
<g style="mix-blend-mode:overlay" opacity="0.5">
<path d="M1.67358 28.9166L15.486 29.1967H69.5591C69.5591 29.1967 16.3265 30.2894 10.527 29.7851C7.63363 29.4654 4.71721 29.4091 1.81367 29.617L1.67358 28.9166Z" fill="#FFDE55"/>
</g>
<g style="mix-blend-mode:multiply" opacity="0.8">
<path d="M171.934 35.136H16.7749C6.9689 35.136 6.68872 22.4162 6.68872 20.9593C6.68872 19.5024 6.9689 6.78265 16.7749 6.78265H171.934C181.74 6.78265 183.365 16.2805 183.365 20.9593C183.365 25.2179 181.852 35.136 171.934 35.136Z" fill="#9E4000"/>
</g>
<defs>
<linearGradient id="paint0_linear_24_41809" x1="94.943" y1="-0.333499" x2="94.943" y2="39.5909" gradientUnits="userSpaceOnUse">
<stop stop-color="#F0CA57"/>
<stop offset="1" stop-color="#D45B1A"/>
</linearGradient>
</defs>
</svg>
