<svg width="189" height="44" viewBox="0 0 189 44" fill="none" xmlns="http://www.w3.org/2000/svg">
<path d="M188.333 21.9681C188.347 21.8377 188.347 21.7062 188.333 21.5758V20.4831C188.347 20.306 188.347 20.128 188.333 19.9508C188.333 19.9508 188.333 19.9508 188.333 19.7267C188.333 19.5026 188.333 18.8862 188.109 18.4939C187.807 17.1117 187.375 15.761 186.82 14.4595L186.372 13.3668C186.204 13.0306 186.064 12.6944 185.896 12.3862L185.195 11.2095C184.258 9.63971 183.087 8.22247 181.721 7.00691C181.326 6.64038 180.905 6.30328 180.461 5.9983C179.699 5.47059 178.893 5.01119 178.051 4.62546L177.463 4.3733C176.698 4.06256 175.912 3.8097 175.109 3.61684C173.571 3.15076 171.98 2.87783 170.374 2.80434H18.2694C14.1124 2.69327 10.0644 4.14255 6.92251 6.86683C5.14257 8.43785 3.68646 10.3413 2.63589 12.4703C2.43977 12.8625 2.24365 13.2827 2.07554 13.703L1.90744 14.0112C1.84891 14.118 1.80195 14.2307 1.76736 14.3474L1.51521 15.0198C1.37512 15.384 1.26305 15.7763 1.15098 16.1405C1.13786 16.224 1.13786 16.3091 1.15098 16.3926C1.07257 16.6318 1.0071 16.8749 0.95486 17.1211L0.702706 18.2418V18.6901C0.540543 19.6173 0.428316 20.5525 0.366503 21.4918C0.366503 21.912 0.366503 22.3603 0.366503 22.8086C0.358416 24.4363 0.518022 26.0605 0.842795 27.6555C0.842795 28.0478 0.98288 28.412 1.06693 28.7762C1.19599 29.3354 1.35498 29.8871 1.54322 30.4292C1.54322 30.8215 1.79538 31.1857 1.93546 31.5499C3.07312 34.9918 5.28428 37.9783 8.24429 40.071C11.2043 42.1637 14.7572 43.2523 18.3815 43.177H170.374C172.709 43.2454 175.032 42.8189 177.191 41.9255C179.349 41.0322 181.294 39.6923 182.898 37.9939L183.402 37.4055L183.711 37.0413L184.215 36.3689C185.676 34.301 186.749 31.9846 187.381 29.5327C187.394 29.4491 187.394 29.3641 187.381 29.2805V28.9723C187.381 28.8042 187.381 28.6081 187.381 28.412C187.381 28.2159 187.381 27.9357 187.521 27.7116C187.8 26.1581 187.94 24.583 187.941 23.0047C188.361 22.8646 188.361 22.4163 188.333 21.9681ZM180.096 28.0198C180.096 28.2719 180.096 28.5241 179.872 28.8042L179.704 29.2525V29.5047C179.704 29.5047 179.704 29.7008 179.704 29.8129C179.164 31.3892 178.206 32.7896 176.934 33.8651C175.661 34.9406 174.12 35.651 172.476 35.9206C171.863 36.0111 171.245 36.058 170.627 36.0607H18.2694C17.4119 36.0616 16.5568 35.9676 15.7199 35.7805C14.0694 35.4201 12.5658 34.5706 11.4052 33.343C11.1665 33.1042 10.942 32.8516 10.7328 32.5865L10.3126 32.1103L9.89232 31.4378L9.55612 30.8215C9.36 30.4292 9.1919 30.009 9.02379 29.5887V29.3926V29.0844L8.85569 28.6081V28.2719L8.60353 27.3473C8.31672 26.0207 8.15724 24.6698 8.12725 23.3129C8.12725 23.0887 8.12725 22.5564 8.12725 21.856C8.22456 20.7888 8.4025 19.7304 8.65957 18.6901C8.74593 18.3184 8.85827 17.9533 8.99577 17.5974V17.3452L9.10784 16.8129V16.6168L9.27595 16.1965C9.41603 15.9164 9.5281 15.6642 9.6962 15.384C9.74132 15.2757 9.79767 15.1724 9.86431 15.0758L10.0044 14.8237C10.1751 14.5421 10.3622 14.2708 10.5647 14.0112L10.7048 13.8151C11.0697 13.3612 11.4727 12.9394 11.9096 12.5543C12.1337 12.3862 12.3578 12.1901 12.582 12.05C14.2289 10.925 16.1921 10.3557 18.1854 10.425H170.374C171.862 10.3646 173.345 10.6324 174.717 11.2095C175.392 11.5279 176.023 11.9329 176.594 12.4142C176.986 12.7499 177.351 13.1152 177.687 13.5069L178.471 14.5996C179.141 15.6921 179.659 16.8702 180.012 18.1017C180.012 18.522 180.236 18.9422 180.32 19.3625C180.317 19.4278 180.317 19.4933 180.32 19.5586C180.32 19.7267 180.32 19.9228 180.32 20.0629C180.32 20.0629 180.32 20.8474 180.461 21.1836C180.601 21.5198 180.461 21.4918 180.461 21.6319C180.461 22.3323 180.461 22.8646 180.461 23.0887C180.555 24.7413 180.432 26.399 180.096 28.0198Z" fill="#9E4000"/>
<path d="M188.362 20.3431V19.6147V18.3539C188.255 17.0976 188.049 15.8516 187.746 14.6276C187.746 14.2634 187.578 13.8992 187.466 13.507L187.298 12.9466C187.298 12.7505 187.298 12.5824 187.101 12.3863C186.948 11.9789 186.761 11.5852 186.541 11.2096C185.985 9.79257 185.261 8.44747 184.384 7.20311L183.543 6.08242C183.151 5.63415 182.759 5.18587 182.339 4.79363C181.992 4.42851 181.617 4.09127 181.218 3.78502C178.169 1.27341 174.324 -0.0678038 170.375 0.00270607H18.2703C17.399 0.000798706 16.5285 0.0569574 15.6647 0.170809C14.1722 0.372816 12.7123 0.768384 11.322 1.34753L10.8737 1.54365C10.3363 1.79592 9.81255 2.07648 9.30477 2.38416C5.59165 4.77593 2.85062 8.41077 1.57205 12.6384C1.57205 12.6384 1.57205 12.6384 1.57205 12.8626C1.57205 13.0867 1.34791 13.535 1.26386 13.8992C1.24796 13.9731 1.24796 14.0495 1.26386 14.1233V14.4035L1.09576 15.1039C1.09576 15.1039 1.09576 15.244 1.09576 15.3281C1.09576 15.4121 0.955671 16.0005 0.899637 16.3647V16.6169C0.899637 16.925 0.899637 17.2332 0.899637 17.5414C0.899637 17.8496 0.899637 18.2979 0.899637 18.6901C0.884691 18.8111 0.884691 18.9334 0.899637 19.0543C0.899637 19.5306 0.899637 19.9789 0.899637 20.4552C0.899637 20.9315 0.899637 21.3237 0.899637 21.772V22.1362C1.00365 23.8676 1.27576 25.5847 1.71214 27.2634C1.71214 27.6836 1.93627 28.1039 2.07636 28.4961C2.07636 28.4961 2.07636 28.7483 2.21645 28.8884L2.38455 29.3927V29.6168L2.66472 30.3172C2.8048 30.6534 2.97291 31.0177 3.14101 31.3539V31.606L3.39316 32.0823C3.39316 32.0823 3.53325 32.3625 3.6173 32.5306V32.6987C5.0719 35.3756 7.2403 37.5967 9.88149 39.1151C12.5227 40.6335 15.5332 41.3898 18.5784 41.2999H170.375C173.6 41.3562 176.776 40.5016 179.537 38.8344C180.069 38.4982 180.545 38.134 181.022 37.7698H181.19C181.554 37.4896 181.89 37.1534 182.226 36.8452C184.031 35.0053 185.45 32.8241 186.401 30.4293V30.0931C186.401 30.0931 186.401 29.897 186.401 29.7849C186.413 29.6825 186.413 29.5791 186.401 29.4767V29.3086L186.737 28.2159C187.297 26.2902 187.636 24.3068 187.746 22.3043C187.746 22.3043 187.746 22.1362 187.746 22.0522V20.3431H188.362Z" fill="url(#paint0_linear_24_17620)"/>
<g style="mix-blend-mode:multiply" opacity="0.4">
<path d="M183.488 5.97009H181.414H180.378H177.352H177.128C164.156 5.60587 132.104 5.10156 114.734 4.65328C92.9924 4.09294 70.1584 3.47656 51.499 2.80415L36.1176 2.3839H35.9775C29.6457 2.15976 24.3224 1.96364 20.1759 1.76752L11.2944 1.34726C12.6847 0.768119 14.1446 0.372551 15.6371 0.170544C35.8094 0.590801 94.5613 1.15114 107.841 1.76752H108.01C108.43 1.76752 127.622 0.898989 144.992 0.00244141H166.789C157.404 0.366664 131.768 0.758904 125.688 1.23519C123.363 1.43131 116.807 2.04769 114.678 2.18778L129.667 2.80415C141.546 3.3645 167.742 3.92484 177.856 4.3451L181.835 4.5132H182.283C182.703 4.90544 183.095 5.35371 183.488 5.80199V5.97009Z" fill="#C97B3A"/>
<path d="M186.541 11.2092C186.709 11.6015 186.877 12.0217 187.017 12.442H185.869H176.595C150.119 12.8622 94.4769 13.1984 61.5287 13.3946H48.5008H48.0245L10.9018 13.6187H1.15186C1.15186 13.2545 1.34798 12.9183 1.46005 12.5821C1.29194 12.9183 1.20789 13.1144 1.17987 13.1424L1.43203 12.3579H11.9945C35.1086 12.3859 130.787 11.9937 174.718 11.2092H185.196H186.541Z" fill="#C97B3A"/>
<path d="M188.363 19.6144H188.111H180.322C135.663 19.0261 32.2517 17.4851 9.41774 16.8127H8.91343L1.20872 16.5606H0.620361C0.620361 16.1964 0.62036 15.8601 0.81648 15.5239C1.0126 15.1877 0.81648 15.5239 0.81648 15.2998H1.57294L9.05351 15.5239H9.838C32.7 16.2244 135.439 17.7653 179.986 18.3257H187.859H188.251L188.363 19.6144Z" fill="#C97B3A"/>
<path d="M187.943 28.0196C187.943 28.2437 187.943 28.4959 187.803 28.72C187.663 28.9441 187.803 29.1122 187.803 29.2803H179.706C134.626 29.2803 30.6266 28.8321 11.6029 28.636H8.68915H2.0491H1.04048L0.78833 27.3752H1.62884H8.35295H10.9025C34.0446 27.6273 136.391 28.0196 180.098 28.0196H187.943Z" fill="#C97B3A"/>
<path d="M184.328 36.7605L183.824 37.4329L183.516 37.7971L181.218 37.573L176.483 37.0687C172.813 36.6765 143.507 36.4243 134.206 36.1721C130.619 36.1721 127.678 36.004 126.193 35.92L121.57 36.1721C103.387 37.0687 37.5185 40.1786 32.6995 41.3553H32.5034C31.8053 42.0372 31.2022 42.8099 30.7103 43.6527H29.2254C29.7027 42.8567 30.2266 42.0896 30.7944 41.3553C31.1523 40.8381 31.647 40.4307 32.2232 40.1786C35.5012 39.254 73.2963 36.7885 85.4558 36.1721L88.2575 36.0321C97.1389 35.7239 119.777 35.3877 121.542 35.0515C108.374 34.323 35.3051 33.6226 24.9388 32.9782L16.9819 32.5019L11.9108 32.2217H10.3139L3.56173 31.8295H2.72122H2.02079C1.85269 31.4092 1.7126 30.989 1.57251 30.5687H2.13285H2.88932L9.55739 30.961H11.0703L14.0401 31.1571C22.4453 31.6614 94.3372 32.3338 106.917 33.0342C118.124 33.6786 154.826 35.0234 172.197 36.0881L182.339 36.7045L184.328 36.7605Z" fill="#C97B3A"/>
</g>
<path d="M183.543 5.97014H180.461C164.099 5.85807 94.3644 5.60592 86.4916 5.15764L45.0823 2.80421L36.1168 2.38395H35.9767L26.563 1.85162L61.1641 2.80421C81.4766 3.42058 105.011 4.17704 114.649 4.56928L118.711 4.7654C123.138 5.12963 163.959 5.54988 177.099 5.77402H180.377C181.413 5.83865 182.451 5.83865 183.487 5.77402L183.543 5.97014Z" fill="#FFDE55"/>
<path d="M182.282 4.6538H181.862L177.295 4.23354C172.813 3.78527 169.394 3.64518 169.394 3.64518L133.785 3.05682C133.785 3.05682 161.998 3.05682 174.914 3.42105L181.218 3.61717C181.617 3.92341 181.992 4.26066 182.338 4.62578L182.282 4.6538Z" fill="#FFDE55"/>
<g style="mix-blend-mode:overlay" opacity="0.5">
<path d="M187.213 12.9185H108.765L186.905 12.2461C186.905 12.2461 187.157 12.7224 187.213 12.9185Z" fill="#FFDE55"/>
</g>
<g style="mix-blend-mode:overlay" opacity="0.5">
<path d="M61.5281 13.4789L10.2007 14.7957H9.8365L1.90765 14.4595H1.06714V14.1794H1.90765H10.5649L47.9118 13.7591H48.304L64.2457 13.563C64.5539 13.3949 63.5453 13.4509 61.5281 13.4789Z" fill="#FFDE55"/>
</g>
<g style="mix-blend-mode:overlay" opacity="0.5">
<path d="M188.362 19.7829H188.138L180.349 19.6708L106.608 18.9424L180.461 20.1751L188.222 20.3432H188.362V19.7829Z" fill="#FFDE55"/>
</g>
<g style="mix-blend-mode:overlay" opacity="0.5">
<path d="M131.767 36.1726C136.923 36.3687 160.149 36.7329 167.377 37.0972C154.91 37.0972 103.218 37.9937 88.2288 38.2739C88.2288 38.2739 119.048 36.6769 125.015 36.1726H125.856C126.304 36.1726 128.657 36.1726 131.767 36.1726Z" fill="#FFDE55"/>
</g>
<g style="mix-blend-mode:overlay" opacity="0.5">
<path d="M1.03955 28.9166L14.852 29.1968H68.925C68.925 29.1968 15.6925 30.2895 9.89296 29.7852C6.99959 29.4655 4.08318 29.4092 1.17963 29.6171L1.03955 28.9166Z" fill="#FFDE55"/>
</g>
<g style="mix-blend-mode:multiply" opacity="0.8">
<path d="M171.299 35.136H16.1406C6.33462 35.136 6.05444 22.4162 6.05444 20.9593C6.05444 19.5024 6.33462 6.78265 16.1406 6.78265H171.299C181.105 6.78265 182.73 16.2805 182.73 20.9593C182.73 25.2179 181.217 35.136 171.299 35.136Z" fill="#9E4000"/>
</g>
<defs>
<linearGradient id="paint0_linear_24_17620" x1="94.3087" y1="-0.333499" x2="94.3087" y2="39.5909" gradientUnits="userSpaceOnUse">
<stop stop-color="#F0CA57"/>
<stop offset="1" stop-color="#D45B1A"/>
</linearGradient>
</defs>
</svg>
