<svg width="79" height="82" viewBox="0 0 79 82" fill="none" xmlns="http://www.w3.org/2000/svg">
<g style="mix-blend-mode:multiply" opacity="0.6">
<path d="M72.8348 81.5234H6.74547C3.21929 81.5234 0 78.3543 0 74.8657V7.04606C0 3.33825 3.43224 1.12107 6.74547 1.12107H72.8348C73.6223 1.08232 74.4091 1.2092 75.1445 1.4935C75.8799 1.77781 76.5475 2.21321 77.1041 2.7716C77.6607 3.32998 78.094 3.99892 78.3759 4.7352C78.6579 5.47148 78.7823 6.25872 78.741 7.04606V74.8657C78.741 78.5985 76.1481 81.5234 72.8348 81.5234ZM6.74547 3.18167C4.49698 3.18167 2.0606 4.65978 2.0606 7.04606V75.2728C2.0606 77.5901 4.38425 79.87 6.74547 79.87H72.8348C75.2399 79.87 76.6804 77.5338 76.6804 75.2728V7.04606C76.6804 4.65978 75.2086 3.18167 72.8348 3.18167H6.74547Z" fill="#FF5499"/>
</g>
<path d="M2.11064 67.8696V68.3582L2.26722 68.4083V67.8508L2.11064 67.8696ZM2.11064 12.614V13.1026L2.26722 13.1527V12.5953L2.11064 12.614ZM2.11064 67.8696V68.3582L2.26722 68.4083V67.8508L2.11064 67.8696ZM2.11064 12.614V13.1026L2.26722 13.1527V12.5953L2.11064 12.614ZM2.11064 67.8696V68.3582L2.26722 68.4083V67.8508L2.11064 67.8696ZM2.11064 12.614V13.1026L2.26722 13.1527V12.5953L2.11064 12.614ZM2.11064 67.8696V68.3582L2.26722 68.4083V67.8508L2.11064 67.8696ZM2.11064 12.614V13.1026L2.26722 13.1527V12.5953L2.11064 12.614ZM2.11064 67.8696V68.3582L2.26722 68.4083V67.8508L2.11064 67.8696ZM2.11064 12.614V13.1026L2.26722 13.1527V12.5953L2.11064 12.614ZM2.11064 67.8696V68.3582L2.26722 68.4083V67.8508L2.11064 67.8696ZM2.11064 12.614V13.1026L2.26722 13.1527V12.5953L2.11064 12.614ZM2.11064 67.8696V68.3582L2.26722 68.4083V67.8508L2.11064 67.8696ZM2.11064 12.614V13.1026L2.26722 13.1527V12.5953L2.11064 12.614ZM2.11064 67.8696V68.3582L2.26722 68.4083V67.8508L2.11064 67.8696ZM2.11064 12.614V13.1026L2.26722 13.1527V12.5953L2.11064 12.614ZM2.11064 67.8696V68.3582L2.26722 68.4083V67.8508L2.11064 67.8696ZM2.11064 12.614V13.1026L2.26722 13.1527V12.5953L2.11064 12.614ZM2.11064 67.8696V68.3582L2.26722 68.4083V67.8508L2.11064 67.8696ZM2.11064 12.614V13.1026L2.26722 13.1527V12.5953L2.11064 12.614ZM2.11064 67.8696V68.3582L2.26722 68.4083V67.8508L2.11064 67.8696ZM2.11064 12.614V13.1026L2.26722 13.1527V12.5953L2.11064 12.614ZM2.11064 67.8696V68.3582L2.26722 68.4083V67.8508L2.11064 67.8696ZM2.11064 12.614V13.1026L2.26722 13.1527V12.5953L2.11064 12.614ZM2.11064 67.8696V68.3582L2.26722 68.4083V67.8508L2.11064 67.8696ZM2.11064 12.614V13.1026L2.26722 13.1527V12.5953L2.11064 12.614ZM2.11064 67.8696V68.3582L2.26722 68.4083V67.8508L2.11064 67.8696ZM2.11064 12.614V13.1026L2.26722 13.1527V12.5953L2.11064 12.614ZM2.11064 67.8696V68.3582L2.26722 68.4083V67.8508L2.11064 67.8696ZM2.11064 12.614V13.1026L2.26722 13.1527V12.5953L2.11064 12.614ZM2.11064 67.8696V68.3582L2.26722 68.4083V67.8508L2.11064 67.8696ZM2.11064 12.614V13.1026L2.26722 13.1527V12.5953L2.11064 12.614ZM2.11064 67.8696V68.3582L2.26722 68.4083V67.8508L2.11064 67.8696ZM2.11064 12.614V13.1026L2.26722 13.1527V12.5953L2.11064 12.614ZM2.11064 67.8696V68.3582L2.26722 68.4083V67.8508L2.11064 67.8696ZM2.11064 12.614V13.1026L2.26722 13.1527V12.5953L2.11064 12.614ZM2.11064 67.8696V68.3582L2.26722 68.4083V67.8508L2.11064 67.8696ZM2.11064 12.614V13.1026L2.26722 13.1527V12.5953L2.11064 12.614ZM2.11064 67.8696V68.3582L2.26722 68.4083V67.8508L2.11064 67.8696ZM2.11064 12.614V13.1026L2.26722 13.1527V12.5953L2.11064 12.614ZM2.11064 67.8696V68.3582L2.26722 68.4083V67.8508L2.11064 67.8696ZM2.11064 12.614V13.1026L2.26722 13.1527V12.5953L2.11064 12.614ZM2.11064 67.8696V68.3582L2.26722 68.4083V67.8508L2.11064 67.8696ZM2.11064 12.614V13.1026L2.26722 13.1527V12.5953L2.11064 12.614ZM2.11064 67.8696V68.3582L2.26722 68.4083V67.8508L2.11064 67.8696ZM2.11064 12.614V13.1026L2.26722 13.1527V12.5953L2.11064 12.614ZM2.11064 67.8696V68.3582L2.26722 68.4083V67.8508L2.11064 67.8696ZM2.11064 12.614V13.1026L2.26722 13.1527V12.5953L2.11064 12.614ZM2.11064 67.8696V68.3582L2.26722 68.4083V67.8508L2.11064 67.8696ZM2.11064 12.614V13.1026L2.26722 13.1527V12.5953L2.11064 12.614ZM2.11064 67.8696V68.3582L2.26722 68.4083V67.8508L2.11064 67.8696ZM2.11064 12.614V13.1026L2.26722 13.1527V12.5953L2.11064 12.614ZM2.11064 67.8696V68.3582L2.26722 68.4083V67.8508L2.11064 67.8696ZM2.11064 12.614V13.1026L2.26722 13.1527V12.5953L2.11064 12.614ZM2.11064 68.3582L2.26722 68.4083V67.8508H2.11064V68.3582ZM2.11064 12.614V13.1026L2.26722 13.1527V12.5953L2.11064 12.614ZM78.6846 4.67856C78.3373 3.45497 77.5729 2.39143 76.5238 1.67222C76.1715 1.42011 75.7911 1.20992 75.3902 1.0459C74.6463 0.771914 73.8592 0.634014 73.0665 0.638792H6.95836C6.2858 0.63873 5.61615 0.727174 4.96666 0.901847C4.477 1.02768 4.00241 1.20618 3.55118 1.43422C2.71305 1.8453 1.97541 2.43541 1.39037 3.16286C1.27137 3.31318 1.15237 3.46976 1.0459 3.63261C0.530872 4.44591 0.243225 5.38239 0.212891 6.34457C0.212891 6.41973 0.212891 6.49489 0.212891 6.57631V74.803C0.212891 74.945 0.212891 75.089 0.212891 75.2352C0.225189 75.4308 0.250295 75.6253 0.288049 75.8176C0.408537 76.4957 0.639147 77.1494 0.970739 77.753C1.07168 77.9404 1.18248 78.1222 1.30269 78.2979C1.92026 79.2356 2.75538 80.0101 3.73687 80.5553C4.71837 81.1006 5.81715 81.4005 6.93957 81.4295H73.0415C73.7272 81.4307 74.407 81.3032 75.0457 81.0537C75.2914 80.9532 75.53 80.8361 75.7597 80.7029C76.5309 80.2399 77.1968 79.6207 77.7145 78.8851C78.2323 78.1495 78.5904 77.3137 78.766 76.4314C78.8028 76.2788 78.83 76.124 78.8475 75.968C78.9106 75.5723 78.942 75.1723 78.9414 74.7717V6.545C78.9426 5.91396 78.8562 5.28581 78.6846 4.67856ZM2.31107 75.3416C2.3045 75.3001 2.3045 75.2579 2.31107 75.2164C2.30153 75.0808 2.30153 74.9448 2.31107 74.8093V6.58258C2.2982 6.42208 2.2982 6.26081 2.31107 6.10031C2.45256 5.18031 2.94961 4.35264 3.69523 3.79545C3.86537 3.66778 4.04316 3.55065 4.22761 3.44471C5.05821 2.96607 5.99972 2.71342 6.95836 2.71191H73.0415C74.8829 2.71191 76.1731 3.60129 76.6616 5.11698C76.8178 5.58741 76.894 6.08069 76.8871 6.57631V74.803C76.8852 75.2377 76.8326 75.6707 76.7305 76.0932C76.6929 76.2561 76.6428 76.4127 76.5927 76.563C76.0603 78.135 74.814 79.3939 73.0415 79.3939H6.95836C6.03102 79.3707 5.13289 79.0648 4.38419 78.5171C3.40974 77.8437 2.7009 76.8513 2.37996 75.7112C2.34795 75.5899 2.32493 75.4663 2.31107 75.3416ZM2.11064 12.614V13.1026L2.26722 13.1527V12.5953L2.11064 12.614ZM2.11064 67.8696V68.3582L2.26722 68.4083V67.8508L2.11064 67.8696ZM2.11064 12.614V13.1026L2.26722 13.1527V12.5953L2.11064 12.614ZM2.11064 67.8696V68.3582L2.26722 68.4083V67.8508L2.11064 67.8696ZM2.11064 12.614V13.1026L2.26722 13.1527V12.5953L2.11064 12.614ZM2.11064 67.8696V68.3582L2.26722 68.4083V67.8508L2.11064 67.8696ZM2.11064 12.614V13.1026L2.26722 13.1527V12.5953L2.11064 12.614ZM2.11064 67.8696V68.3582L2.26722 68.4083V67.8508L2.11064 67.8696ZM2.11064 12.614V13.1026L2.26722 13.1527V12.5953L2.11064 12.614ZM2.11064 67.8696V68.3582L2.26722 68.4083V67.8508L2.11064 67.8696ZM2.11064 12.614V13.1026L2.26722 13.1527V12.5953L2.11064 12.614ZM2.11064 67.8696V68.3582L2.26722 68.4083V67.8508L2.11064 67.8696ZM2.11064 12.614V13.1026L2.26722 13.1527V12.5953L2.11064 12.614ZM2.11064 67.8696V68.3582L2.26722 68.4083V67.8508L2.11064 67.8696ZM2.11064 12.614V13.1026L2.26722 13.1527V12.5953L2.11064 12.614ZM2.11064 67.8696V68.3582L2.26722 68.4083V67.8508L2.11064 67.8696ZM2.11064 12.614V13.1026L2.26722 13.1527V12.5953L2.11064 12.614ZM2.11064 67.8696V68.3582L2.26722 68.4083V67.8508L2.11064 67.8696ZM2.11064 12.614V13.1026L2.26722 13.1527V12.5953L2.11064 12.614ZM2.11064 67.8696V68.3582L2.26722 68.4083V67.8508L2.11064 67.8696ZM2.11064 12.614V13.1026L2.26722 13.1527V12.5953L2.11064 12.614ZM2.11064 67.8696V68.3582L2.26722 68.4083V67.8508L2.11064 67.8696ZM2.11064 12.614V13.1026L2.26722 13.1527V12.5953L2.11064 12.614ZM2.11064 67.8696V68.3582L2.26722 68.4083V67.8508L2.11064 67.8696ZM2.11064 12.614V13.1026L2.26722 13.1527V12.5953L2.11064 12.614ZM2.11064 67.8696V68.3582L2.26722 68.4083V67.8508L2.11064 67.8696ZM2.11064 12.614V13.1026L2.26722 13.1527V12.5953L2.11064 12.614ZM2.11064 67.8696V68.3582L2.26722 68.4083V67.8508L2.11064 67.8696ZM2.11064 12.614V13.1026L2.26722 13.1527V12.5953L2.11064 12.614ZM2.11064 67.8696V68.3582L2.26722 68.4083V67.8508L2.11064 67.8696ZM2.11064 12.614V13.1026L2.26722 13.1527V12.5953L2.11064 12.614ZM2.11064 67.8696V68.3582L2.26722 68.4083V67.8508L2.11064 67.8696ZM2.11064 12.614V13.1026L2.26722 13.1527V12.5953L2.11064 12.614ZM2.11064 67.8696V68.3582L2.26722 68.4083V67.8508L2.11064 67.8696ZM2.11064 12.614V13.1026L2.26722 13.1527V12.5953L2.11064 12.614ZM2.11064 67.8696V68.3582L2.26722 68.4083V67.8508L2.11064 67.8696ZM2.11064 12.614V13.1026L2.26722 13.1527V12.5953L2.11064 12.614ZM2.11064 67.8696V68.3582L2.26722 68.4083V67.8508L2.11064 67.8696ZM2.11064 12.614V13.1026L2.26722 13.1527V12.5953L2.11064 12.614ZM2.11064 67.8696V68.3582L2.26722 68.4083V67.8508L2.11064 67.8696ZM2.11064 12.614V13.1026L2.26722 13.1527V12.5953L2.11064 12.614ZM2.11064 67.8696V68.3582L2.26722 68.4083V67.8508L2.11064 67.8696ZM2.11064 12.614V13.1026L2.26722 13.1527V12.5953L2.11064 12.614ZM2.11064 67.8696V68.3582L2.26722 68.4083V67.8508L2.11064 67.8696ZM2.11064 12.614V13.1026L2.26722 13.1527V12.5953L2.11064 12.614ZM2.11064 67.8696V68.3582L2.26722 68.4083V67.8508L2.11064 67.8696ZM2.11064 12.614V13.1026L2.26722 13.1527V12.5953L2.11064 12.614ZM2.11064 67.8696V68.3582L2.26722 68.4083V67.8508L2.11064 67.8696ZM2.11064 12.614V13.1026L2.26722 13.1527V12.5953L2.11064 12.614ZM2.11064 67.8696V68.3582L2.26722 68.4083V67.8508L2.11064 67.8696ZM2.11064 12.614V13.1026L2.26722 13.1527V12.5953L2.11064 12.614ZM2.11064 67.8696V68.3582L2.26722 68.4083V67.8508L2.11064 67.8696ZM2.11064 12.614V13.1026L2.26722 13.1527V12.5953L2.11064 12.614ZM2.11064 67.8696V68.3582L2.26722 68.4083V67.8508L2.11064 67.8696Z" fill="#9E4000"/>
<path d="M76.7305 72.5293V73.068L76.8871 72.9427V72.5356L76.7305 72.5293ZM50.1056 79.1934L48.3895 79.0744L47.6379 79.0305L46.8926 78.9867L45.7214 78.9178L45.0011 78.874H44.7068L43.3101 78.7988L42.6336 78.7612H32.7754H32.9257L33.5958 78.8426L33.9904 78.8928L35.3996 79.0556L38.2056 79.3938H52.9429C52.0159 79.3312 51.0577 79.256 50.1056 79.1934ZM76.7305 72.5293V73.068L76.8871 72.9427V72.5356L76.7305 72.5293ZM50.1056 79.1934L48.3895 79.0744L47.6379 79.0305L46.8926 78.9867L45.7214 78.9178L45.0011 78.874H44.7068L43.3101 78.7988L42.6336 78.7612H32.7754H32.9257L33.5958 78.8426L33.9904 78.8928L35.3996 79.0556L38.2056 79.3938H52.9429C52.0159 79.3312 51.0577 79.256 50.1056 79.1934ZM76.7305 72.5293V73.068L76.8871 72.9427V72.5356L76.7305 72.5293ZM50.1056 79.1934L48.3895 79.0744L47.6379 79.0305L46.8926 78.9867L45.7214 78.9178L45.0011 78.874H44.7068L43.3101 78.7988L42.6336 78.7612H32.7754H32.9257L33.5958 78.8426L33.9904 78.8928L35.3996 79.0556L38.2056 79.3938H52.9429C52.0159 79.3312 51.0577 79.256 50.1056 79.1934ZM76.7305 72.5293V73.068L76.8871 72.9427V72.5356L76.7305 72.5293ZM50.1056 79.1934L48.3895 79.0744L47.6379 79.0305L46.8926 78.9867L45.7214 78.9178L45.0011 78.874H44.7068L43.3101 78.7988L42.6336 78.7612H32.7754H32.9257L33.5958 78.8426L33.9904 78.8928L35.3996 79.0556L38.2056 79.3938H52.9429C52.0159 79.3312 51.0577 79.256 50.1056 79.1934ZM76.7305 72.5293V73.068L76.8871 72.9427V72.5356L76.7305 72.5293ZM50.1056 79.1934L48.3895 79.0744L47.6379 79.0305L46.8926 78.9867L45.7214 78.9178L45.0011 78.874H44.7068L43.3101 78.7988L42.6336 78.7612H32.7754H32.9257L33.5958 78.8426L33.9904 78.8928L35.3996 79.0556L38.2056 79.3938H52.9429C52.0159 79.3312 51.0577 79.256 50.1056 79.1934ZM76.7305 72.5293V73.068L76.8871 72.9427V72.5356L76.7305 72.5293ZM50.1056 79.1934L48.3895 79.0744L47.6379 79.0305L46.8926 78.9867L45.7214 78.9178L45.0011 78.874H44.7068L43.3101 78.7988L42.6336 78.7612H32.7754H32.9257L33.5958 78.8426L33.9904 78.8928L35.3996 79.0556L38.2056 79.3938H52.9429C52.0159 79.3312 51.0577 79.256 50.1056 79.1934ZM76.7305 72.5293V73.068L76.8871 72.9427V72.5356L76.7305 72.5293ZM50.1056 79.1934L48.3895 79.0744L47.6379 79.0305L46.8926 78.9867L45.7214 78.9178L45.0011 78.874H44.7068L43.3101 78.7988L42.6336 78.7612H32.7754H32.9257L33.5958 78.8426L33.9904 78.8928L35.3996 79.0556L38.2056 79.3938H52.9429C52.0159 79.3312 51.0577 79.256 50.1056 79.1934ZM76.7305 72.5293V73.068L76.8871 72.9427V72.5356L76.7305 72.5293ZM50.1056 79.1934L48.3895 79.0744L47.6379 79.0305L46.8926 78.9867L45.7214 78.9178L45.0011 78.874H44.7068L43.3101 78.7988L42.6336 78.7612H32.7754H32.9257L33.5958 78.8426L33.9904 78.8928L35.3996 79.0556L38.2056 79.3938H52.9429C52.0159 79.3312 51.0577 79.256 50.1056 79.1934ZM76.7305 72.5293V73.068L76.8871 72.9427V72.5356L76.7305 72.5293ZM50.1056 79.1934L48.3895 79.0744L47.6379 79.0305L46.8926 78.9867L45.7214 78.9178L45.0011 78.874H44.7068L43.3101 78.7988L42.6336 78.7612H32.7754H32.9257L33.5958 78.8426L33.9904 78.8928L35.3996 79.0556L38.2056 79.3938H52.9429C52.0159 79.3312 51.0577 79.256 50.1056 79.1934ZM76.7305 72.5293V73.068L76.8871 72.9427V72.5356L76.7305 72.5293ZM50.1056 79.1934L48.3895 79.0744L47.6379 79.0305L46.8926 78.9867L45.7214 78.9178L45.0011 78.874H44.7068L43.3101 78.7988L42.6336 78.7612H32.7754H32.9257L33.5958 78.8426L33.9904 78.8928L35.3996 79.0556L38.2056 79.3938H52.9429C52.0159 79.3312 51.0577 79.256 50.1056 79.1934ZM76.7305 72.5293V73.068L76.8871 72.9427V72.5356L76.7305 72.5293ZM50.1056 79.1934L48.3895 79.0744L47.6379 79.0305L46.8926 78.9867L45.7214 78.9178L45.0011 78.874H44.7068L43.3101 78.7988L42.6336 78.7612H32.7754H32.9257L33.5958 78.8426L33.9904 78.8928L35.3996 79.0556L38.2056 79.3938H52.9429C52.0159 79.3312 51.0577 79.256 50.1056 79.1934ZM76.7305 72.5293V73.068L76.8871 72.9427V72.5356L76.7305 72.5293ZM50.1056 79.1934L48.3895 79.0744L47.6379 79.0305L46.8926 78.9867L45.7214 78.9178L45.0011 78.874H44.7068L43.3101 78.7988L42.6336 78.7612H32.7754H32.9257L33.5958 78.8426L33.9904 78.8928L35.3996 79.0556L38.2056 79.3938H52.9429C52.0159 79.3312 51.0577 79.256 50.1056 79.1934ZM76.7305 72.5293V73.068L76.8871 72.9427V72.5356L76.7305 72.5293ZM50.1056 79.1934L48.3895 79.0744L47.6379 79.0305L46.8926 78.9867L45.7214 78.9178L45.0011 78.874H44.7068L43.3101 78.7988L42.6336 78.7612H32.7754H32.9257L33.5958 78.8426L33.9904 78.8928L35.3996 79.0556L38.2056 79.3938H52.9429C52.0159 79.3312 51.0577 79.256 50.1056 79.1934ZM76.7305 72.5293V73.068L76.8871 72.9427V72.5356L76.7305 72.5293ZM50.1056 79.1934L48.3895 79.0744L47.6379 79.0305L46.8926 78.9867L45.7214 78.9178L45.0011 78.874H44.7068L43.3101 78.7988L42.6336 78.7612H32.7754H32.9257L33.5958 78.8426L33.9904 78.8928L35.3996 79.0556L38.2056 79.3938H52.9429C52.0159 79.3312 51.0577 79.256 50.1056 79.1934ZM76.7305 72.5293V73.068L76.8871 72.9427V72.5356L76.7305 72.5293ZM50.1056 79.1934L48.3895 79.0744L47.6379 79.0305L46.8926 78.9867L45.7214 78.9178L45.0011 78.874H44.7068L43.3101 78.7988L42.6336 78.7612H32.7754H32.9257L33.5958 78.8426L33.9904 78.8928L35.3996 79.0556L38.2056 79.3938H52.9429C52.0159 79.3312 51.0577 79.256 50.1056 79.1934ZM76.7305 72.5293V73.068L76.8871 72.9427V72.5356L76.7305 72.5293ZM50.1056 79.1934L48.3895 79.0744L47.6379 79.0305L46.8926 78.9867L45.7214 78.9178L45.0011 78.874H44.7068L43.3101 78.7988L42.6336 78.7612H32.7754H32.9257L33.5958 78.8426L33.9904 78.8928L35.3996 79.0556L38.2056 79.3938H52.9429C52.0159 79.3312 51.0577 79.256 50.1056 79.1934ZM76.7305 72.5293V73.068L76.8871 72.9427V72.5356L76.7305 72.5293ZM50.1056 79.1934L48.3895 79.0744L47.6379 79.0305L46.8926 78.9867L45.7214 78.9178L45.0011 78.874H44.7068L43.3101 78.7988L42.6336 78.7612H32.7754H32.9257L33.5958 78.8426L33.9904 78.8928L35.3996 79.0556L38.2056 79.3938H52.9429C52.0159 79.3312 51.0577 79.256 50.1056 79.1934ZM76.7305 72.5293V73.068L76.8871 72.9427V72.5356L76.7305 72.5293ZM50.1056 79.1934L48.3895 79.0744L47.6379 79.0305L46.8926 78.9867L45.7214 78.9178L45.0011 78.874H44.7068L43.3101 78.7988L42.6336 78.7612H32.7754H32.9257L33.5958 78.8426L33.9904 78.8928L35.3996 79.0556L38.2056 79.3938H52.9429C52.0159 79.3312 51.0577 79.256 50.1056 79.1934ZM76.7305 72.5293V73.068L76.8871 72.9427V72.5356L76.7305 72.5293ZM50.1056 79.1934L48.3895 79.0744L47.6379 79.0305L46.8926 78.9867L45.7214 78.9178L45.0011 78.874H44.7068L43.3101 78.7988L42.6336 78.7612H32.7754H32.9257L33.5958 78.8426L33.9904 78.8928L35.3996 79.0556L38.2056 79.3938H52.9429C52.0159 79.3312 51.0577 79.256 50.1056 79.1934ZM76.7305 72.5293V73.068L76.8871 72.9427V72.5356L76.7305 72.5293ZM50.1056 79.1934L48.3895 79.0744L47.6379 79.0305L46.8926 78.9867L45.7214 78.9178L45.0011 78.874H44.7068L43.3101 78.7988L42.6336 78.7612H32.7754H32.9257L33.5958 78.8426L33.9904 78.8928L35.3996 79.0556L38.2056 79.3938H52.9429C52.0159 79.3312 51.0577 79.256 50.1056 79.1934ZM76.7305 72.5293V73.068L76.8871 72.9427V72.5356L76.7305 72.5293ZM50.1056 79.1934L48.3895 79.0744L47.6379 79.0305L46.8926 78.9867L45.7214 78.9178L45.0011 78.874H44.7068L43.3101 78.7988L42.6336 78.7612H32.7754H32.9257L33.5958 78.8426L33.9904 78.8928L35.3996 79.0556L38.2056 79.3938H52.9429C52.0159 79.3312 51.0577 79.256 50.1056 79.1934ZM76.7305 72.5293V73.068L76.8871 72.9427V72.5356L76.7305 72.5293ZM50.1056 79.1934L48.3895 79.0744L47.6379 79.0305L46.8926 78.9867L45.7214 78.9178L45.0011 78.874H44.7068L43.3101 78.7988L42.6336 78.7612H32.7754H32.9257L33.5958 78.8426L33.9904 78.8928L35.3996 79.0556L38.2056 79.3938H52.9429C52.0159 79.3312 51.0577 79.256 50.1056 79.1934ZM76.7305 72.5293V73.068L76.8871 72.9427V72.5356L76.7305 72.5293ZM50.1056 79.1934L48.3895 79.0744L47.6379 79.0305L46.8926 78.9867L45.7214 78.9178L45.0011 78.874H44.7068L43.3101 78.7988L42.6336 78.7612H32.7754H32.9257L33.5958 78.8426L33.9904 78.8928L35.3996 79.0556L38.2056 79.3938H52.9429C52.0159 79.3312 51.0577 79.256 50.1056 79.1934ZM76.7305 72.5293V73.068L76.8871 72.9427V72.5356L76.7305 72.5293ZM50.1056 79.1934L48.3895 79.0744L47.6379 79.0305L46.8926 78.9867L45.7214 78.9178L45.0011 78.874H44.7068L43.3101 78.7988L42.6336 78.7612H32.7754H32.9257L33.5958 78.8426L33.9904 78.8928L35.3996 79.0556L38.2056 79.3938H52.9429C52.0159 79.3312 51.0577 79.256 50.1056 79.1934ZM76.7305 72.5293V73.068L76.8871 72.9427V72.5356L76.7305 72.5293ZM50.1056 79.1934L48.3895 79.0744L47.6379 79.0305L46.8926 78.9867L45.7214 78.9178L45.0011 78.874H44.7068L43.3101 78.7988L42.6336 78.7612H32.7754H32.9257L33.5958 78.8426L33.9904 78.8928L35.3996 79.0556L38.2056 79.3938H52.9429C52.0159 79.3312 51.0577 79.256 50.1056 79.1934ZM76.7305 72.5293V73.068L76.8871 72.9427V72.5356L76.7305 72.5293ZM50.1056 79.1934L48.3895 79.0744L47.6379 79.0305L46.8926 78.9867L45.7214 78.9178L45.0011 78.874H44.7068L43.3101 78.7988L42.6336 78.7612H32.7754H32.9257L33.5958 78.8426L33.9904 78.8928L35.3996 79.0556L38.2056 79.3938H52.9429C52.0159 79.3312 51.0577 79.256 50.1056 79.1934ZM76.7305 72.5293V73.068L76.8871 72.9427V72.5356L76.7305 72.5293ZM50.1056 79.1934L48.3895 79.0744L47.6379 79.0305L46.8926 78.9867L45.7214 78.9178L45.0011 78.874H44.7068L43.3101 78.7988L42.6336 78.7612H32.7754H32.9257L33.5958 78.8426L33.9904 78.8928L35.3996 79.0556L38.2056 79.3938H52.9429C52.0159 79.3312 51.0577 79.256 50.1056 79.1934ZM76.7305 72.5293V73.068L76.8871 72.9427V72.5356L76.7305 72.5293ZM50.1056 79.1934L48.3895 79.0744L47.6379 79.0305L46.8926 78.9867L45.7214 78.9178L45.0011 78.874H44.7068L43.3101 78.7988L42.6336 78.7612H32.7754H32.9257L33.5958 78.8426L33.9904 78.8928L35.3996 79.0556L38.2056 79.3938H52.9429C52.0159 79.3312 51.0577 79.256 50.1056 79.1934ZM48.853 79.1934H48.59H48.5273H48.2079H48.0137L44.7882 78.9554H44.6942L43.9865 78.8928L43.3602 78.8426H42.452L51.5963 79.469H51.9032L48.853 79.1934ZM48.853 79.1934H48.59H48.5273H48.2079H48.0137L44.7882 78.9554H44.6942L43.9865 78.8928L43.3602 78.8426H42.452L51.5963 79.469H51.9032L48.853 79.1934ZM48.853 79.1934H48.59H48.5273H48.2079H48.0137L44.7882 78.9554H44.6942L43.9865 78.8928L43.3602 78.8426H42.452L51.5963 79.469H51.9032L48.853 79.1934ZM48.853 79.1934H48.59H48.5273H48.2079H48.0137L44.7882 78.9554H44.6942L43.9865 78.8928L43.3602 78.8426H42.452L51.5963 79.469H51.9032L48.853 79.1934ZM48.853 79.1934H48.59H48.5273H48.2079H48.0137L44.7882 78.9554H44.6942L43.9865 78.8928L43.3602 78.8426H42.452L51.5963 79.469H51.9032L48.853 79.1934ZM48.853 79.1934H48.59H48.5273H48.2079H48.0137L44.7882 78.9554H44.6942L43.9865 78.8928L43.3602 78.8426H42.452L51.5963 79.469H51.9032L48.853 79.1934ZM48.853 79.1934H48.59H48.5273H48.2079H48.0137L44.7882 78.9554H44.6942L43.9865 78.8928L43.3602 78.8426H42.452L51.5963 79.469H51.9032L48.853 79.1934ZM48.853 79.1934H48.59H48.5273H48.2079H48.0137L44.7882 78.9554H44.6942L43.9865 78.8928L43.3602 78.8426H42.452L51.5963 79.469H51.9032L48.853 79.1934ZM78.6847 4.70348C78.5286 3.83551 78.1797 3.01362 77.6638 2.29841C77.5425 2.12386 77.4085 1.95848 77.2629 1.80362C77.0714 1.59932 76.8617 1.41275 76.6366 1.24619C75.5554 0.43178 74.232 0.00390396 72.8787 0.0311307H6.79557C5.45923 0.0296857 4.14599 0.379594 2.98754 1.04577C2.73227 1.19609 2.48744 1.36349 2.25474 1.54683C1.65933 1.9936 1.15539 2.5507 0.770363 3.18779C0.677801 3.34265 0.59618 3.5038 0.526098 3.67005C0.206376 4.3762 0.0439592 5.14341 0.0500943 5.91854V74.1452C0.0500943 74.3457 0.0500943 74.5398 0.0814103 74.7277C0.0941991 74.8901 0.119324 75.0514 0.156569 75.21C0.156569 75.3353 0.206675 75.4668 0.237991 75.592C0.269307 75.7173 0.27557 75.7298 0.300623 75.805C0.512805 76.5238 0.845288 77.2015 1.28395 77.8092C1.428 78.0034 1.57832 78.1975 1.7349 78.3792C1.76254 78.4099 1.79181 78.4392 1.82258 78.4669L1.97916 78.6485L2.06685 78.7299C3.30865 80.015 5.00888 80.7559 6.79557 80.7905H73.2232C73.6814 80.7604 74.1339 80.672 74.5697 80.5275C75.4479 80.2191 76.2434 79.7131 76.895 79.0485C77.5466 78.3839 78.0367 77.5784 78.3277 76.6944C78.3277 76.6255 78.3715 76.5628 78.3903 76.5002C78.4091 76.4376 78.3903 76.5002 78.3903 76.4689C78.4404 76.3144 78.4842 76.1578 78.5218 75.9991C78.678 75.3851 78.7558 74.7538 78.7536 74.1202V5.89349C78.7649 5.48725 78.7419 5.08078 78.6847 4.67843V4.70348ZM76.7305 74.1828C76.7279 74.8574 76.6027 75.5259 76.361 76.1557C76.2996 76.3195 76.2263 76.4786 76.1418 76.6317C76.1122 76.6963 76.0787 76.759 76.0416 76.8196C75.7444 77.3966 75.2961 77.8819 74.7445 78.2239C74.193 78.5659 73.5589 78.7516 72.91 78.7612H6.79557C5.90144 78.7132 5.03652 78.4264 4.29081 77.9307C3.54509 77.435 2.94583 76.7486 2.55538 75.9428C2.52015 75.8779 2.48878 75.811 2.46143 75.7424V75.7048C2.40839 75.5915 2.36441 75.4742 2.3299 75.354C2.31252 75.3133 2.29787 75.2715 2.28606 75.2288C2.18462 74.8829 2.13192 74.5245 2.12948 74.164V5.93734C2.1191 5.11054 2.41593 4.30931 2.96249 3.68884C3.08864 3.54391 3.22466 3.40789 3.36959 3.28174C4.32898 2.47471 5.54189 2.03123 6.79557 2.02909H72.8849C74.9769 2.02909 76.3673 3.18152 76.6429 5.0918C76.692 5.35613 76.7151 5.62465 76.7118 5.89349L76.7305 74.1828ZM48.853 79.1683H48.59H48.5273H48.2079H48.0137L44.7882 78.9303H44.6942L43.9865 78.8677L43.3602 78.8176H42.452L51.5963 79.4439H51.9032L48.853 79.1683ZM48.853 79.1683H48.59H48.5273H48.2079H48.0137L44.7882 78.9303H44.6942L43.9865 78.8677L43.3602 78.8176H42.452L51.5963 79.4439H51.9032L48.853 79.1683ZM48.853 79.1683H48.59H48.5273H48.2079H48.0137L44.7882 78.9303H44.6942L43.9865 78.8677L43.3602 78.8176H42.452L51.5963 79.4439H51.9032L48.853 79.1683ZM48.853 79.1683H48.59H48.5273H48.2079H48.0137L44.7882 78.9303H44.6942L43.9865 78.8677L43.3602 78.8176H42.452L51.5963 79.4439H51.9032L48.853 79.1683ZM48.853 79.1683H48.59H48.5273H48.2079H48.0137L44.7882 78.9303H44.6942L43.9865 78.8677L43.3602 78.8176H42.452L51.5963 79.4439H51.9032L48.853 79.1683ZM48.853 79.1683H48.59H48.5273H48.2079H48.0137L44.7882 78.9303H44.6942L43.9865 78.8677L43.3602 78.8176H42.452L51.5963 79.4439H51.9032L48.853 79.1683ZM48.853 79.1683H48.59H48.5273H48.2079H48.0137L44.7882 78.9303H44.6942L43.9865 78.8677L43.3602 78.8176H42.452L51.5963 79.4439H51.9032L48.853 79.1683ZM48.853 79.1683H48.59H48.5273H48.2079H48.0137L44.7882 78.9303H44.6942L43.9865 78.8677L43.3602 78.8176H42.452L51.5963 79.4439H51.9032L48.853 79.1683ZM50.1056 79.1683L48.3895 79.0493L47.6379 79.0055L46.8926 78.9616L45.7214 78.9178L45.0011 78.874H44.7068L43.3101 78.7988L42.6336 78.7612H32.7754H32.9257L33.5958 78.8426L33.9904 78.8928L35.3996 79.0556L38.2056 79.3938H52.9429C52.0159 79.3312 51.0577 79.256 50.1056 79.1934V79.1683ZM50.1056 79.1683L48.3895 79.0493L47.6379 79.0055L46.8926 78.9616L45.7214 78.9178L45.0011 78.874H44.7068L43.3101 78.7988L42.6336 78.7612H32.7754H32.9257L33.5958 78.8426L33.9904 78.8928L35.3996 79.0556L38.2056 79.3938H52.9429C52.0159 79.3312 51.0577 79.256 50.1056 79.1934V79.1683ZM76.7305 72.5293V73.068L76.8871 72.9427V72.5356L76.7305 72.5293ZM50.1056 79.1934L48.3895 79.0744L47.6379 79.0305L46.8926 78.9867L45.7214 78.9178L45.0011 78.874H44.7068L43.3101 78.7988L42.6336 78.7612H32.7754H32.9257L33.5958 78.8426L33.9904 78.8928L35.3996 79.0556L38.2056 79.3938H52.9429C52.0159 79.3312 51.0577 79.256 50.1056 79.1934ZM76.7305 72.5293V73.068L76.8871 72.9427V72.5356L76.7305 72.5293ZM50.1056 79.1934L48.3895 79.0744L47.6379 79.0305L46.8926 78.9867L45.7214 78.9178L45.0011 78.874H44.7068L43.3101 78.7988L42.6336 78.7612H32.7754H32.9257L33.5958 78.8426L33.9904 78.8928L35.3996 79.0556L38.2056 79.3938H52.9429C52.0159 79.3312 51.0577 79.256 50.1056 79.1934ZM76.7305 72.5293V73.068L76.8871 72.9427V72.5356L76.7305 72.5293ZM50.1056 79.1934L48.3895 79.0744L47.6379 79.0305L46.8926 78.9867L45.7214 78.9178L45.0011 78.874H44.7068L43.3101 78.7988L42.6336 78.7612H32.7754H32.9257L33.5958 78.8426L33.9904 78.8928L35.3996 79.0556L38.2056 79.3938H52.9429C52.0159 79.3312 51.0577 79.256 50.1056 79.1934ZM76.7305 72.5293V73.068L76.8871 72.9427V72.5356L76.7305 72.5293ZM50.1056 79.1934L48.3895 79.0744L47.6379 79.0305L46.8926 78.9867L45.7214 78.9178L45.0011 78.874H44.7068L43.3101 78.7988L42.6336 78.7612H32.7754H32.9257L33.5958 78.8426L33.9904 78.8928L35.3996 79.0556L38.2056 79.3938H52.9429C52.0159 79.3312 51.0577 79.256 50.1056 79.1934ZM76.7305 72.5293V73.068L76.8871 72.9427V72.5356L76.7305 72.5293ZM50.1056 79.1934L48.3895 79.0744L47.6379 79.0305L46.8926 78.9867L45.7214 78.9178L45.0011 78.874H44.7068L43.3101 78.7988L42.6336 78.7612H32.7754H32.9257L33.5958 78.8426L33.9904 78.8928L35.3996 79.0556L38.2056 79.3938H52.9429C52.0159 79.3312 51.0577 79.256 50.1056 79.1934ZM76.7305 72.5293V73.068L76.8871 72.9427V72.5356L76.7305 72.5293ZM50.1056 79.1934L48.3895 79.0744L47.6379 79.0305L46.8926 78.9867L45.7214 78.9178L45.0011 78.874H44.7068L43.3101 78.7988L42.6336 78.7612H32.7754H32.9257L33.5958 78.8426L33.9904 78.8928L35.3996 79.0556L38.2056 79.3938H52.9429C52.0159 79.3312 51.0577 79.256 50.1056 79.1934ZM76.7305 72.5293V73.068L76.8871 72.9427V72.5356L76.7305 72.5293ZM50.1056 79.1934L48.3895 79.0744L47.6379 79.0305L46.8926 78.9867L45.7214 78.9178L45.0011 78.874H44.7068L43.3101 78.7988L42.6336 78.7612H32.7754H32.9257L33.5958 78.8426L33.9904 78.8928L35.3996 79.0556L38.2056 79.3938H52.9429C52.0159 79.3312 51.0577 79.256 50.1056 79.1934ZM76.7305 72.5293V73.068L76.8871 72.9427V72.5356L76.7305 72.5293ZM50.1056 79.1934L48.3895 79.0744L47.6379 79.0305L46.8926 78.9867L45.7214 78.9178L45.0011 78.874H44.7068L43.3101 78.7988L42.6336 78.7612H32.7754H32.9257L33.5958 78.8426L33.9904 78.8928L35.3996 79.0556L38.2056 79.3938H52.9429C52.0159 79.3312 51.0577 79.256 50.1056 79.1934ZM76.7305 72.5293V73.068L76.8871 72.9427V72.5356L76.7305 72.5293ZM50.1056 79.1934L48.3895 79.0744L47.6379 79.0305L46.8926 78.9867L45.7214 78.9178L45.0011 78.874H44.7068L43.3101 78.7988L42.6336 78.7612H32.7754H32.9257L33.5958 78.8426L33.9904 78.8928L35.3996 79.0556L38.2056 79.3938H52.9429C52.0159 79.3312 51.0577 79.256 50.1056 79.1934ZM76.7305 72.5293V73.068L76.8871 72.9427V72.5356L76.7305 72.5293ZM50.1056 79.1934L48.3895 79.0744L47.6379 79.0305L46.8926 78.9867L45.7214 78.9178L45.0011 78.874H44.7068L43.3101 78.7988L42.6336 78.7612H32.7754H32.9257L33.5958 78.8426L33.9904 78.8928L35.3996 79.0556L38.2056 79.3938H52.9429C52.0159 79.3312 51.0577 79.256 50.1056 79.1934ZM76.7305 72.5293V73.068L76.8871 72.9427V72.5356L76.7305 72.5293ZM50.1056 79.1934L48.3895 79.0744L47.6379 79.0305L46.8926 78.9867L45.7214 78.9178L45.0011 78.874H44.7068L43.3101 78.7988L42.6336 78.7612H32.7754H32.9257L33.5958 78.8426L33.9904 78.8928L35.3996 79.0556L38.2056 79.3938H52.9429C52.0159 79.3312 51.0577 79.256 50.1056 79.1934ZM76.7305 72.5293V73.068L76.8871 72.9427V72.5356L76.7305 72.5293ZM50.1056 79.1934L48.3895 79.0744L47.6379 79.0305L46.8926 78.9867L45.7214 78.9178L45.0011 78.874H44.7068L43.3101 78.7988L42.6336 78.7612H32.7754H32.9257L33.5958 78.8426L33.9904 78.8928L35.3996 79.0556L38.2056 79.3938H52.9429C52.0159 79.3312 51.0577 79.256 50.1056 79.1934ZM76.7305 72.5293V73.068L76.8871 72.9427V72.5356L76.7305 72.5293ZM50.1056 79.1934L48.3895 79.0744L47.6379 79.0305L46.8926 78.9867L45.7214 78.9178L45.0011 78.874H44.7068L43.3101 78.7988L42.6336 78.7612H32.7754H32.9257L33.5958 78.8426L33.9904 78.8928L35.3996 79.0556L38.2056 79.3938H52.9429C52.0159 79.3312 51.0577 79.256 50.1056 79.1934ZM76.7305 72.5293V73.068L76.8871 72.9427V72.5356L76.7305 72.5293ZM50.1056 79.1934L48.3895 79.0744L47.6379 79.0305L46.8926 78.9867L45.7214 78.9178L45.0011 78.874H44.7068L43.3101 78.7988L42.6336 78.7612H32.7754H32.9257L33.5958 78.8426L33.9904 78.8928L35.3996 79.0556L38.2056 79.3938H52.9429C52.0159 79.3312 51.0577 79.256 50.1056 79.1934ZM76.7305 72.5293V73.068L76.8871 72.9427V72.5356L76.7305 72.5293ZM50.1056 79.1934L48.3895 79.0744L47.6379 79.0305L46.8926 78.9867L45.7214 78.9178L45.0011 78.874H44.7068L43.3101 78.7988L42.6336 78.7612H32.7754H32.9257L33.5958 78.8426L33.9904 78.8928L35.3996 79.0556L38.2056 79.3938H52.9429C52.0159 79.3312 51.0577 79.256 50.1056 79.1934ZM76.7305 72.5293V73.068L76.8871 72.9427V72.5356L76.7305 72.5293ZM50.1056 79.1934L48.3895 79.0744L47.6379 79.0305L46.8926 78.9867L45.7214 78.9178L45.0011 78.874H44.7068L43.3101 78.7988L42.6336 78.7612H32.7754H32.9257L33.5958 78.8426L33.9904 78.8928L35.3996 79.0556L38.2056 79.3938H52.9429C52.0159 79.3312 51.0577 79.256 50.1056 79.1934ZM76.7305 72.5293V73.068L76.8871 72.9427V72.5356L76.7305 72.5293ZM50.1056 79.1934L48.3895 79.0744L47.6379 79.0305L46.8926 78.9867L45.7214 78.9178L45.0011 78.874H44.7068L43.3101 78.7988L42.6336 78.7612H32.7754H32.9257L33.5958 78.8426L33.9904 78.8928L35.3996 79.0556L38.2056 79.3938H52.9429C52.0159 79.3312 51.0577 79.256 50.1056 79.1934ZM76.7305 72.5293V73.068L76.8871 72.9427V72.5356L76.7305 72.5293ZM50.1056 79.1934L48.3895 79.0744L47.6379 79.0305L46.8926 78.9867L45.7214 78.9178L45.0011 78.874H44.7068L43.3101 78.7988L42.6336 78.7612H32.7754H32.9257L33.5958 78.8426L33.9904 78.8928L35.3996 79.0556L38.2056 79.3938H52.9429C52.0159 79.3312 51.0577 79.256 50.1056 79.1934ZM76.7305 72.5293V73.068L76.8871 72.9427V72.5356L76.7305 72.5293ZM50.1056 79.1934L48.3895 79.0744L47.6379 79.0305L46.8926 78.9867L45.7214 78.9178L45.0011 78.874H44.7068L43.3101 78.7988L42.6336 78.7612H32.7754H32.9257L33.5958 78.8426L33.9904 78.8928L35.3996 79.0556L38.2056 79.3938H52.9429C52.0159 79.3312 51.0577 79.256 50.1056 79.1934ZM76.7305 72.5293V73.068L76.8871 72.9427V72.5356L76.7305 72.5293ZM50.1056 79.1934L48.3895 79.0744L47.6379 79.0305L46.8926 78.9867L45.7214 78.9178L45.0011 78.874H44.7068L43.3101 78.7988L42.6336 78.7612H32.7754H32.9257L33.5958 78.8426L33.9904 78.8928L35.3996 79.0556L38.2056 79.3938H52.9429C52.0159 79.3312 51.0577 79.256 50.1056 79.1934ZM76.7305 72.5293V73.068L76.8871 72.9427V72.5356L76.7305 72.5293ZM50.1056 79.1934L48.3895 79.0744L47.6379 79.0305L46.8926 78.9867L45.7214 78.9178L45.0011 78.874H44.7068L43.3101 78.7988L42.6336 78.7612H32.7754H32.9257L33.5958 78.8426L33.9904 78.8928L35.3996 79.0556L38.2056 79.3938H52.9429C52.0159 79.3312 51.0577 79.256 50.1056 79.1934ZM76.7305 72.5293V73.068L76.8871 72.9427V72.5356L76.7305 72.5293ZM50.1056 79.1934L48.3895 79.0744L47.6379 79.0305L46.8926 78.9867L45.7214 78.9178L45.0011 78.874H44.7068L43.3101 78.7988L42.6336 78.7612H32.7754H32.9257L33.5958 78.8426L33.9904 78.8928L35.3996 79.0556L38.2056 79.3938H52.9429C52.0159 79.3312 51.0577 79.256 50.1056 79.1934ZM76.7305 72.5293V73.068L76.8871 72.9427V72.5356L76.7305 72.5293ZM50.1056 79.1934L48.3895 79.0744L47.6379 79.0305L46.8926 78.9867L45.7214 78.9178L45.0011 78.874H44.7068L43.3101 78.7988L42.6336 78.7612H32.7754H32.9257L33.5958 78.8426L33.9904 78.8928L35.3996 79.0556L38.2056 79.3938H52.9429C52.0159 79.3312 51.0577 79.256 50.1056 79.1934ZM76.7305 72.5293V73.068L76.8871 72.9427V72.5356L76.7305 72.5293ZM50.1056 79.1934L48.3895 79.0744L47.6379 79.0305L46.8926 78.9867L45.7214 78.9178L45.0011 78.874H44.7068L43.3101 78.7988L42.6336 78.7612H32.7754H32.9257L33.5958 78.8426L33.9904 78.8928L35.3996 79.0556L38.2056 79.3938H52.9429C52.0159 79.3312 51.0577 79.256 50.1056 79.1934ZM76.7305 72.5293V73.068L76.8871 72.9427V72.5356L76.7305 72.5293ZM50.1056 79.1934L48.3895 79.0744L47.6379 79.0305L46.8926 78.9867L45.7214 78.9178L45.0011 78.874H44.7068L43.3101 78.7988L42.6336 78.7612H32.7754H32.9257L33.5958 78.8426L33.9904 78.8928L35.3996 79.0556L38.2056 79.3938H52.9429C52.0159 79.3312 51.0577 79.256 50.1056 79.1934ZM76.7305 72.5293V73.068L76.8871 72.9427V72.5356L76.7305 72.5293ZM50.1056 79.1934L48.3895 79.0744L47.6379 79.0305L46.8926 78.9867L45.7214 78.9178L45.0011 78.874H44.7068L43.3101 78.7988L42.6336 78.7612H32.7754H32.9257L33.5958 78.8426L33.9904 78.8928L35.3996 79.0556L38.2056 79.3938H52.9429C52.0159 79.3312 51.0577 79.256 50.1056 79.1934ZM76.7305 72.5293V73.068L76.8871 72.9427V72.5356L76.7305 72.5293Z" fill="url(#paint0_linear_323_77030)"/>
<g opacity="0.5">
<path d="M72.5467 0.0876465H6.78305C3.50739 0.0876465 0.162842 2.21714 0.162842 5.90617V6.45733C0.162842 2.7683 3.50739 0.494755 6.8081 0.494755H72.5718C73.3615 0.466583 74.1486 0.601687 74.8837 0.891613C75.6188 1.18154 76.2862 1.62005 76.8441 2.17971C77.402 2.73937 77.8384 3.40814 78.126 4.14418C78.4136 4.88022 78.5462 5.66769 78.5156 6.45733V5.90617C78.4905 2.43635 76.004 0.0876465 72.5467 0.0876465Z" fill="#FFFDF5"/>
</g>
<g style="mix-blend-mode:multiply" opacity="0.6">
<path d="M4.22756 3.44483C4.04311 3.55077 3.86532 3.6679 3.69518 3.79557C3.44466 3.75172 3.20039 3.72041 2.96239 3.68909C2.32578 3.62341 1.68521 3.60457 1.04585 3.63272L0.526001 3.6703C0.596083 3.50405 0.677704 3.3429 0.770266 3.18804H1.39659C2.05851 3.17036 2.72072 3.21018 3.37576 3.30704C3.66182 3.33867 3.94611 3.38466 4.22756 3.44483Z" fill="#C97B3A"/>
<path d="M2.29854 6.09412C2.28568 6.25461 2.28568 6.41588 2.29854 6.57638L2.14196 6.61396C1.61888 6.74016 1.08293 6.80532 0.544842 6.80812H0.0500488V6.33838H0.212892C0.845658 6.36425 1.47878 6.29672 2.09185 6.13796L2.29854 6.09412Z" fill="#C97B3A"/>
<path d="M2.26722 7.89171V8.35518L2.11064 8.34892L0.206629 8.3176H0.0500488V7.85413H0.206629L2.11064 7.89171H2.26722Z" fill="#C97B3A"/>
<path d="M2.26722 10.8165V11.2863L2.11064 11.255L0.206629 10.8479L0.0500488 10.8165V10.3468L0.206629 10.3781L2.11064 10.779L2.26722 10.8165Z" fill="#C97B3A"/>
<path d="M2.11064 12.614L1.15237 12.733C1.42795 12.8458 1.77869 12.9836 2.11064 13.1026L2.26722 13.1527V13.6412L2.11064 13.5723C1.48333 13.3659 0.868504 13.1233 0.269261 12.8458H0.206629H0.0500488V12.3823H0.206629L2.08559 12.1443H2.24217V12.614H2.11064Z" fill="#C97B3A"/>
<path d="M2.26722 16.7103V17.1737L2.11064 17.1612L0.206629 17.0673L0.0500488 17.0547V16.5975L0.206629 16.6038L2.11064 16.704L2.26722 16.7103Z" fill="#C97B3A"/>
<path d="M2.26722 33.552V34.0092L2.11064 33.9779L0.206629 33.5771L0.0500488 33.5458V33.0823L0.206629 33.1136L2.11064 33.5144L2.26722 33.552Z" fill="#C97B3A"/>
<path d="M2.11064 39.7275L1.15237 39.8778C1.42795 39.9905 1.77869 40.1221 2.11064 40.2473L2.26722 40.2974V40.7797L2.11064 40.7296C1.48285 40.5076 0.868076 40.2504 0.269261 39.9592H0.206629H0.0500488V39.4895H0.206629L2.08559 39.2515H2.24217V39.7149L2.11064 39.7275Z" fill="#C97B3A"/>
<path d="M2.26722 45.7026V46.1661L2.11064 46.1536L0.206629 46.0534L0.0500488 46.0471V45.5836L0.206629 45.5961L2.11064 45.6964L2.26722 45.7026Z" fill="#C97B3A"/>
<path d="M2.2672 32.2869V32.7503H2.11062C1.63461 32.8004 0.945659 32.8631 0.231653 32.9069H0.0750732V32.4434H0.231653C0.976975 32.3996 1.65966 32.337 2.11062 32.2869H2.2672Z" fill="#C97B3A"/>
<path d="M2.2672 24.345V24.8022H2.11062C1.56572 24.8022 0.88929 24.7521 0.231653 24.6957H0.0750732V24.2197H0.231653C0.914343 24.2824 1.59077 24.3137 2.11062 24.3325L2.2672 24.345Z" fill="#C97B3A"/>
<path d="M2.31112 50.9574C2.34876 51.0904 2.39693 51.2203 2.45518 51.3457C2.4302 51.3428 2.40499 51.3428 2.38002 51.3457L0.225475 50.8571H0.156579C0.119335 50.6985 0.0942097 50.5373 0.0814209 50.3749H0.206685C0.732794 50.4876 1.45933 50.6379 2.26728 50.8258C2.27414 50.8719 2.28898 50.9164 2.31112 50.9574Z" fill="#C97B3A"/>
<path d="M23.1739 81.467H21.9212L20.1613 80.8407C18.9963 80.4086 17.656 79.9075 16.2844 79.4315L14.4054 78.8052H15.8397L17.6748 79.4315C19.0903 79.9451 20.4494 80.4524 21.4891 80.8407L23.1739 81.467Z" fill="#C97B3A"/>
<path d="M18.4138 81.4671H16.967C16.278 81.2416 15.5139 81.0099 14.7248 80.8408C13.6262 80.5434 12.5057 80.334 11.3739 80.2145C8.1301 79.7858 4.91224 79.1795 1.73486 78.3981L1.31523 78.3042C1.19502 78.1285 1.08421 77.9467 0.983276 77.7593C1.08463 77.777 1.18498 77.7999 1.28391 77.8282C2.0856 78.0098 3.16287 78.2603 4.36541 78.5171C5.84979 78.8303 7.49701 79.1434 8.97513 79.4002C9.87077 79.5506 10.71 79.6633 11.4115 79.7322C13.1134 79.9233 14.792 80.2842 16.4221 80.8095C17.1549 81.0349 17.8313 81.2604 18.4138 81.4671Z" fill="#C97B3A"/>
<path d="M32.0739 81.4671H31.6104L31.5352 81.0475L30.8525 80.8095L26.8253 79.4003L24.9589 78.7489H26.3493L28.2095 79.4003L31.9361 80.7093L31.9549 80.8095L32.0739 81.4671Z" fill="#C97B3A"/>
<path d="M75.7847 80.7406C75.555 80.8737 75.3165 80.9909 75.0707 81.0913C74.4945 80.9911 73.8619 80.8909 73.2481 80.8032C72.6218 80.7093 71.9955 80.6279 71.5195 80.5903C70.8932 80.5339 69.6405 80.4713 67.8743 80.3836C65.5131 80.2646 62.3126 80.108 58.8365 79.87C57.9033 80.1143 55.993 80.4525 53.7132 80.8095C52.3353 81.0224 50.8196 81.2542 49.329 81.4358H45.9531L48.6588 81.06L46.2161 80.7782C42.7964 80.3836 37.9675 79.8011 34.3599 79.369L29.437 78.8115V78.7489H32.7941H32.9444L33.6146 78.8303L34.0092 78.8804L35.4184 79.0433L38.2243 79.3815C42.9906 79.9514 48.2454 80.5715 49.9365 80.7469V80.7907V80.8909L50.6192 80.7907C53.1245 80.4212 55.5671 80.0391 57.2018 79.7322C56.1809 79.6571 55.1412 79.5694 54.0702 79.4817L52.9428 79.3815C52.0159 79.3126 51.0639 79.2374 50.0993 79.1748L48.3832 79.0558L47.6316 79.012L46.8863 78.9681L45.7213 78.918L44.7067 78.8616L43.31 78.7865L42.6336 78.7489H50.4125C51.6651 78.8366 52.9178 78.9305 54.114 79.037C55.6799 79.1748 57.2457 79.2938 58.7613 79.4003H58.8052C62.2938 79.6383 65.5006 79.8011 67.868 79.9201C69.6092 80.0078 70.8744 80.0704 71.5258 80.1268C72.3588 80.202 73.5175 80.3711 74.5697 80.5339L75.7847 80.7406Z" fill="#C97B3A"/>
<path d="M78.8474 56.0159C78.83 56.1719 78.8028 56.3267 78.766 56.4793H78.4278C77.8516 56.4793 77.2315 56.5295 76.5927 56.567L76.1417 56.5983C76.2262 56.4452 76.2995 56.2861 76.3609 56.1223H76.7305C77.3568 56.0848 77.9831 56.0534 78.5593 56.0347L78.8474 56.0159Z" fill="#C97B3A"/>
<path d="M78.9163 49.3328V49.7962H78.766H78.1021C77.8578 49.9653 77.3442 50.3662 76.8495 50.767L76.6929 50.8923V50.3036L76.8495 50.1783L77.363 49.7712H76.6929V49.314H76.8495C77.4758 49.314 78.1773 49.314 78.7284 49.3641L78.9163 49.3328Z" fill="#C97B3A"/>
<path d="M78.9164 32.8462V33.3034H78.7661C78.3465 33.3034 77.6074 33.2595 76.8872 33.2533H76.7306V32.7898H76.8872C77.6325 32.7898 78.3653 32.8274 78.7661 32.8399L78.9164 32.8462Z" fill="#C97B3A"/>
<path d="M78.9164 41.6813V42.151H78.7661C78.1451 42.0264 77.5179 41.9344 76.8872 41.8754H76.7306V41.4182H76.8872C77.518 41.4728 78.1453 41.5627 78.7661 41.6875L78.9164 41.6813Z" fill="#C97B3A"/>
<path d="M78.791 20.1425C78.841 20.1364 78.8914 20.1364 78.9414 20.1425V20.5997H78.791C78.3088 20.5997 77.576 20.5997 76.9121 20.6373H76.7555V20.1738H76.9121C77.576 20.1487 78.29 20.1425 78.791 20.1425Z" fill="#C97B3A"/>
<path d="M78.9163 17.8627V18.395L78.766 18.4827C78.0645 18.8773 77.4006 19.2656 76.887 19.5976L76.7305 19.6978V19.1466L76.887 19.0527C77.3693 18.7583 77.9956 18.395 78.766 17.9504C78.8187 17.9259 78.8691 17.8965 78.9163 17.8627Z" fill="#C97B3A"/>
<path d="M77.2503 1.76622C77.0123 1.72865 76.7681 1.69107 76.5238 1.66601C73.2595 1.33206 69.9759 1.22533 66.6968 1.34659V1.30901C65.845 1.59712 65.1435 1.8727 64.6801 2.05433L64.0537 2.30486L63.941 2.05433L63.8846 1.87896C64.0099 1.82259 65.3252 1.25264 67.1791 0.626321C67.8868 0.400845 68.676 0.169107 69.5027 0H71.8514C70.8378 0.162709 69.8341 0.382267 68.8451 0.657637L68.1749 0.845533C70.5735 0.791136 72.9733 0.858028 75.3651 1.04596C75.7973 1.0898 76.2169 1.13364 76.6177 1.19001C76.8459 1.36222 77.0576 1.55511 77.2503 1.76622Z" fill="#C97B3A"/>
<path d="M78.9163 7.99182V8.48035L78.766 8.53672C78.1537 8.7388 77.525 8.88758 76.887 8.98141H76.7305V8.56177H76.887C77.5246 8.46264 78.153 8.31182 78.766 8.11082L78.9163 7.99182Z" fill="#C97B3A"/>
<path d="M78.9163 7.2339V7.70364L78.766 7.66606L76.887 7.21511C76.8342 7.20555 76.7819 7.19301 76.7305 7.17753V6.68274L76.887 6.72032L78.766 7.17127L78.9163 7.2339Z" fill="#C97B3A"/>
<path d="M78.9163 10.4845V10.948H78.766L76.887 10.7789H76.7305V10.3154H76.887C77.5134 10.3655 78.1397 10.4219 78.766 10.4845H78.9163Z" fill="#C97B3A"/>
<path d="M78.9163 13.228V13.6978L78.766 13.7291C78.1397 13.8794 77.5134 14.061 76.887 14.2364L76.7305 14.274V13.798L76.887 13.7541C77.5134 13.5913 78.1835 13.4034 78.766 13.2593L78.9163 13.228Z" fill="#C97B3A"/>
<path d="M24.1195 0.544922V1.00214C21.7145 1.00214 6.31323 1.30277 3.55116 1.44682L2.24841 1.51572C2.48204 1.34313 2.72684 1.1862 2.98121 1.04598L4.96038 0.945767C6.65771 0.864345 8.88115 0.757871 10.8791 0.682712C12.5263 0.588764 23.1738 0.544922 24.1195 0.544922Z" fill="#C97B3A"/>
</g>
<g style="mix-blend-mode:overlay" opacity="0.5">
<path d="M2.54293 4.25884C2.65687 4.05106 2.79799 3.85939 2.96256 3.68889C2.3277 3.6001 1.68501 3.58119 1.04602 3.63252C2.27361 3.64505 2.54293 4.25884 2.54293 4.25884Z" fill="#FFDE55"/>
<path d="M13.7101 0.995728L3.17542 1.53436C3.17542 1.53436 6.25691 1.53436 8.67451 1.4592C10.3604 1.39889 12.0416 1.24416 13.7101 0.995728Z" fill="#FFDE55"/>
<path d="M1.62211 6.74536C1.10209 6.82551 0.574473 6.84443 0.0500488 6.80173V7.85395L0.244208 7.01468C0.711533 6.97241 1.17327 6.88216 1.62211 6.74536Z" fill="#FFDE55"/>
<path d="M2.1107 8.63684V8.40511C1.38417 8.40511 0.288108 8.32368 0.0501057 8.31116H0L0.031316 8.49905L2.1107 8.63684Z" fill="#FFDE55"/>
<path d="M2.11064 11.2674C1.11479 11.0983 0.0500488 10.8164 0.0500488 10.8164V11.1358L2.11064 11.4803V11.2674Z" fill="#FFDE55"/>
<path d="M2.11064 13.5722C1.36532 13.3154 0.394525 12.877 0.394525 12.877H0.0500488V13.1275C0.242937 13.1144 0.436709 13.127 0.626264 13.1651C0.901845 13.234 1.59706 13.5158 2.11064 13.7225V13.5722Z" fill="#FFDE55"/>
<path d="M2.11064 17.1861L0.0500488 17.0984V17.2925C0.733231 17.3821 1.42162 17.426 2.11064 17.4241V17.1861Z" fill="#FFDE55"/>
<path d="M2.11064 24.846C1.44048 24.7959 0.48221 24.7019 0.0500488 24.6581V24.846C0.475947 24.8961 1.42169 24.965 2.11064 25.0088V24.846Z" fill="#FFDE55"/>
<path d="M2.11064 33.9653L0.0500488 33.6021V33.7586L2.11064 34.172V33.9653Z" fill="#FFDE55"/>
<path d="M0.0500488 40.266C0.186741 40.263 0.323333 40.2756 0.457157 40.3036C0.651317 40.3474 1.45301 40.598 2.11064 40.8109V40.6606C1.48134 40.4697 0.866062 40.2353 0.269261 39.9591L0.0500488 40.0217V40.266Z" fill="#FFDE55"/>
<path d="M1.10853 46.2598L2.11064 46.3412V46.1784C1.48432 46.1784 0.419578 46.0657 0.0500488 46.0281V46.241C0.338156 46.2348 0.732738 46.2348 1.10853 46.2598Z" fill="#FFDE55"/>
<path d="M2.46148 51.3457V51.3081C1.63473 51.1515 0.47604 50.901 0.156616 50.8446C0.156616 50.9699 0.206722 51.1014 0.238038 51.2267C0.496297 51.2013 0.756416 51.2013 1.01468 51.2267C1.53915 51.2714 2.0564 51.3786 2.55542 51.5461C2.5202 51.4812 2.48883 51.4143 2.46148 51.3457Z" fill="#FFDE55"/>
<path d="M7.7538 79.7133C6.01262 79.4252 1.79749 78.4607 1.79749 78.4607L2.0668 78.7237C2.0668 78.7237 3.67018 79.1121 4.44056 79.3501C5.21093 79.5881 9.15049 80.1392 10.3969 80.2708C11.6432 80.4023 13.3656 80.8094 13.3656 80.8094L14.6183 80.7718C14.6183 80.7718 11.994 80.2144 11.7059 80.2144C11.4178 80.2144 9.49497 79.9952 7.7538 79.7133Z" fill="#FFDE55"/>
<path d="M14.2864 78.7488H13.5098C15.3887 79.325 19.178 80.6778 19.5412 80.8094H19.5725H20.1174C20.1174 80.8094 17.2927 79.8073 16.3595 79.4628C15.658 79.1935 14.6685 78.874 14.2864 78.7488Z" fill="#FFDE55"/>
<path d="M25.2846 78.7488H24.8962C26.1489 79.2749 29.8003 80.6277 30.3891 80.8094H30.4705H30.8526C30.8526 80.8094 28.9235 80.0578 27.8086 79.7446C26.9453 79.4713 26.1019 79.1386 25.2846 78.7488Z" fill="#FFDE55"/>
<path d="M43.6107 80.4962C42.6399 80.4023 35.2368 79.5755 33.4581 79.3062C32.2681 79.1246 30.3265 78.8866 29.1552 78.7488H28.1844C29.8004 79.1935 35.8381 79.8198 37.8611 80.0014C39.6524 80.1705 43.1723 80.6277 44.3185 80.7906L44.6943 80.8407L46.0409 80.8031H45.972C45.6588 80.7655 44.4688 80.5776 43.6107 80.4962Z" fill="#FFDE55"/>
<path d="M44.6942 58.8614H44.7882L48.5461 59.137L43.3727 58.7424L44.6942 58.8614Z" fill="#FFDE55"/>
<path d="M52.2164 79.4002C51.1641 79.3187 50.1683 79.2436 49.5357 79.2123L48.5211 79.1434L56.3313 79.7384L42.452 78.7488C44.093 78.9429 47.1181 79.2937 48.6213 79.3751C48.9031 79.3751 49.1286 79.4127 49.2852 79.4127C50.4815 79.4127 55.849 79.7071 56.8449 79.7572H56.9952H56.7071C55.9868 79.7008 54.0076 79.5379 52.2164 79.4002Z" fill="#FFDE55"/>
<path d="M76.0291 56.7989L78.3527 56.6987C78.3527 56.6298 78.3965 56.5671 78.4153 56.5045L76.1293 56.611C76.0996 56.6756 76.0662 56.7383 76.0291 56.7989Z" fill="#FFDE55"/>
<path d="M76.7306 50.8985V51.3119C77.2379 50.8171 78.1899 50.0279 78.1899 50.0279L78.8162 50.078V49.8275L78.1899 49.7711L76.7306 50.8985Z" fill="#FFDE55"/>
<path d="M76.7306 42.1885C77.4252 42.1622 78.1198 42.2404 78.7912 42.4203V42.1134C78.1085 42.0049 77.4208 41.9318 76.7306 41.8942V42.1885Z" fill="#FFDE55"/>
<path d="M78.6345 33.2908H76.599L76.2545 33.6916C76.6515 33.5264 77.0772 33.4413 77.5072 33.4411C78.1335 33.4787 78.7598 33.5789 78.7598 33.5789C78.7598 33.5789 79.0166 33.2908 78.6345 33.2908Z" fill="#FFDE55"/>
<path d="M76.7306 21.1633C77.1361 20.9688 77.573 20.8479 78.0208 20.8063C78.2964 20.8063 78.5594 20.7687 78.7912 20.7687V20.5996C78.1649 20.5996 77.1126 20.6622 76.7306 20.6873V21.1633Z" fill="#FFDE55"/>
<path d="M78.7912 18.4951L76.7306 19.6914V19.967C77.2316 19.6538 78.24 19.1465 78.7912 18.8834V18.4951Z" fill="#FFDE55"/>
<path d="M78.7912 13.7539L76.7306 14.2988V14.5619C77.2943 14.4178 78.2901 14.1986 78.7912 14.0921V13.7539Z" fill="#FFDE55"/>
<path d="M78.7911 10.9354L76.5614 10.7288C77.218 10.8394 77.865 11.0006 78.4967 11.211C78.7097 11.3613 78.8036 12.7956 78.8036 12.7956L78.7911 10.9354Z" fill="#FFDE55"/>
<path d="M78.7912 8.56177C78.5782 8.61814 78.2525 8.69956 77.7891 8.83735C77.4457 8.94199 77.0895 8.99889 76.7306 9.00646V9.31962C77.4312 9.15922 78.1198 8.94994 78.7912 8.69329V8.56177Z" fill="#FFDE55"/>
<path d="M76.7306 7.44685C77.4107 7.59917 78.0986 7.71417 78.7912 7.79132V7.67232L76.7306 7.17126V7.44685Z" fill="#FFDE55"/>
<path d="M77.2691 1.78492C76.361 1.65965 74.1375 1.37155 72.3713 1.32144C70.1291 1.26507 66.6843 1.32144 66.6843 1.32144L64.5736 2.02918H65.3189C65.9613 1.71829 66.6557 1.52928 67.367 1.47176C68.438 1.41539 73.7242 1.54692 74.5885 1.60328C75.6345 1.72999 76.6649 1.96293 77.6637 2.2985C77.5452 2.11769 77.4133 1.94602 77.2691 1.78492Z" fill="#FFDE55"/>
</g>
<path d="M2.11064 57.7275L1.15237 57.8778C1.42795 57.9905 1.77869 58.1221 2.11064 58.2473L2.26722 58.2974V58.7797L2.11064 58.7296C1.48285 58.5076 0.868076 58.2504 0.269261 57.9592H0.206629H0.0500488V57.4895H0.206629L2.08559 57.2515H2.24217V57.7149L2.11064 57.7275Z" fill="#BA3F0E"/>
<path d="M2.26722 69.7026V70.1661L2.11064 70.1536L0.206629 70.0534L0.0500488 70.0471V69.5836L0.206629 69.5961L2.11064 69.6964L2.26722 69.7026Z" fill="#BA3F0E"/>
<path d="M0.0500488 58.266C0.186741 58.263 0.323333 58.2756 0.457157 58.3036C0.651317 58.3474 1.45301 58.598 2.11064 58.8109V58.6606C1.48134 58.4697 0.866062 58.2353 0.269261 57.9591L0.0500488 58.0217V58.266Z" fill="#EA7D17"/>
<path d="M1.10853 70.2599L2.11064 70.3414V70.1785C1.48432 70.1785 0.419578 70.0658 0.0500488 70.0282V70.2411C0.338156 70.2349 0.732738 70.2349 1.10853 70.2599Z" fill="#EA7D17"/>
<g style="mix-blend-mode:multiply" opacity="0.4">
<path d="M60.6905 1.67224C60.728 1.75993 60.7656 1.85387 60.7969 1.94782H60.5402H58.467C52.5483 2.04177 40.1096 2.11693 32.744 2.16077H29.8316H29.7252L21.4264 2.21088H19.2468C19.2468 2.12946 19.2907 2.0543 19.3157 1.97914C19.2781 2.0543 19.2594 2.09814 19.2531 2.1044L19.3095 1.92903H21.6707C26.8378 1.9353 48.2267 1.84761 58.0474 1.67224H60.3898H60.6905Z" fill="#C97B3A"/>
</g>
<g style="mix-blend-mode:overlay" opacity="0.5">
<path d="M60.8408 2.05425H43.3038L60.7719 1.90393C60.7719 1.90393 60.8283 2.01041 60.8408 2.05425Z" fill="#FFDE55"/>
</g>
<g style="mix-blend-mode:overlay" opacity="0.5">
<path d="M19.0652 2.88098L31.5916 3.15656C31.5916 3.15656 20.3554 3.01251 19.6039 3.04382C19.2594 3.04382 19.0464 3.42588 19.084 3.91441C19.059 3.91441 19.0527 3.03756 19.0652 2.88098Z" fill="#FFDE55"/>
</g>
<g style="mix-blend-mode:overlay" opacity="0.5">
<path d="M32.744 2.1795L21.2698 2.47387H21.1884L19.4159 2.39871H19.228V2.33608H19.4159H21.3513L29.7001 2.24213H29.7878L33.3516 2.19829C33.4205 2.16071 33.195 2.17323 32.744 2.1795Z" fill="#FFDE55"/>
</g>
<g style="mix-blend-mode:overlay" opacity="0.5">
<path d="M61.0976 3.58877H61.0475L59.3063 3.56372L42.8215 3.40088L59.3313 3.67646L61.0663 3.71404H61.0976V3.58877Z" fill="#FFDE55"/>
</g>
<defs>
<linearGradient id="paint0_linear_323_77030" x1="39.4206" y1="0.287922" x2="39.4206" y2="41.3495" gradientUnits="userSpaceOnUse">
<stop stop-color="#F0CA57"/>
<stop offset="1" stop-color="#D45B1A"/>
</linearGradient>
</defs>
</svg>
