<svg width="105" height="29" viewBox="0 0 105 29" fill="none" xmlns="http://www.w3.org/2000/svg">
<path d="M93.186 28.4964H11.2233C0.300212 28.4964 0 15.8412 0 14.3864C0 12.9315 0.300212 0.276367 11.2233 0.276367H93.186C104.109 0.276367 104.432 12.9546 104.432 14.3864C104.432 15.8182 104.109 28.4964 93.186 28.4964Z" fill="url(#paint0_linear_24_23977)"/>
<g style="mix-blend-mode:screen" opacity="0.7">
<path d="M17.7356 3.20917C39.3509 3.20917 91.1376 3.60176 91.1376 3.60176C100.375 3.60176 103.077 8.89012 103.308 12.3541C103.308 11.823 103.308 12.562 103.308 12.3541C103.308 10.9223 102.084 1.75429 93.216 1.75429H11.8007C9.32381 1.69148 6.91295 2.55687 5.04147 4.18053C3.16999 5.80419 1.97309 8.06882 1.68579 10.5297C3.0483 6.30367 7.06653 3.25536 17.7356 3.20917Z" fill="#FFFDBD"/>
</g>
<g style="mix-blend-mode:multiply" opacity="0.4">
<path d="M103.354 13.0239C103.511 15.1797 102.954 17.3271 101.769 19.1345C100.583 20.9419 98.8354 22.3086 96.7956 23.0233C92.1769 25.0324 70.9788 25.6329 58.7394 25.6329H58.1389C45.8764 25.6329 12.6321 25.0324 8.05964 23.0233C6.01979 22.3086 4.27211 20.9419 3.08667 19.1345C1.90123 17.3271 1.34402 15.1797 1.50114 13.0239C1.50114 13.5551 0.323382 26.6952 11.5698 26.6952H93.2854C104.647 26.6952 103.4 13.5551 103.354 13.0239Z" fill="#878787"/>
</g>
<defs>
<linearGradient id="paint0_linear_24_23977" x1="33.7162" y1="-0.324058" x2="33.7162" y2="27.2031" gradientUnits="userSpaceOnUse">
<stop offset="0.2" stop-color="#D0D0D0"/>
<stop offset="0.81" stop-color="#9F9F9F"/>
<stop offset="1" stop-color="#777777"/>
</linearGradient>
</defs>
</svg>
