<svg width="26" height="27" viewBox="0 0 26 27" fill="none" xmlns="http://www.w3.org/2000/svg">
<path d="M23.4737 18.9278C22.4874 21.1442 20.8661 23.0184 18.8147 24.3134C16.7633 25.6084 14.374 26.2661 11.9488 26.2032C9.52369 26.1404 7.17164 25.3599 5.19008 23.9603C3.20851 22.5608 1.68642 20.6052 0.816258 18.3407C-0.0539047 16.0761 -0.233061 13.6044 0.301442 11.2381C0.835944 8.87178 2.0601 6.71706 3.81913 5.04642C5.57816 3.37578 7.79307 2.26423 10.1838 1.85232C12.5745 1.44041 15.0337 1.74664 17.2504 2.73228C18.7226 3.38689 20.0514 4.3251 21.1609 5.49333C22.2705 6.66156 23.139 8.03693 23.7169 9.54088C24.2948 11.0448 24.5708 12.6479 24.529 14.2585C24.4873 15.8691 24.1287 17.4558 23.4737 18.9278Z" fill="#F6AE28"/>
<path style="mix-blend-mode:multiply" d="M23.4737 19.0629C22.4874 21.2793 20.8661 23.1535 18.8147 24.4485C16.7633 25.7435 14.374 26.4012 11.9488 26.3384C9.52369 26.2755 7.17164 25.495 5.19008 24.0955C3.20851 22.696 1.68642 20.7403 0.816258 18.4758C-0.0539047 16.2113 -0.233061 13.7396 0.301442 11.3732C0.835944 9.00691 2.0601 6.8522 3.81913 5.18155C5.57816 3.51091 7.79307 2.39936 10.1838 1.98745C12.5745 1.57554 15.0337 1.88177 17.2504 2.86741C18.7226 3.52202 20.0514 4.46023 21.1609 5.62846C22.2705 6.7967 23.139 8.17206 23.7169 9.67601C24.2948 11.18 24.5708 12.783 24.529 14.3936C24.4873 16.0043 24.1287 17.5909 23.4737 19.0629Z" fill="url(#paint0_linear_24_7968)"/>
<path style="mix-blend-mode:multiply" d="M23.0676 17.7433C21.8767 20.6614 19.5774 22.9884 16.6736 24.214C13.7698 25.4396 10.4986 25.4638 7.57696 24.2815C4.73998 22.9066 2.56504 20.4615 1.53023 17.4836C0.495415 14.5057 0.685431 11.2387 2.0585 8.4009C3.24941 5.48274 5.54877 3.15582 8.45254 1.93023C11.3563 0.704632 14.6275 0.68036 17.5492 1.86273C20.3862 3.23759 22.5611 5.68272 23.5959 8.66061C24.6307 11.6385 24.4407 14.9054 23.0676 17.7433Z" fill="url(#paint1_linear_24_7968)"/>
<path d="M24.1474 17.2033C23.1697 19.4272 21.5537 21.3107 19.5042 22.615C17.4547 23.9193 15.0641 24.5858 12.6355 24.5298C10.2068 24.4738 7.84942 23.6979 5.86224 22.3005C3.87506 20.9031 2.34754 18.9472 1.47335 16.6806C0.599162 14.414 0.417664 11.9389 0.951869 9.56904C1.48607 7.19919 2.71192 5.04132 4.47401 3.369C6.23609 1.69669 8.45506 0.585239 10.8496 0.175566C13.2441 -0.234108 15.7064 0.0764423 17.9242 1.06785C20.8823 2.39017 23.197 4.82918 24.363 7.85232C25.529 10.8755 25.4515 14.2371 24.1474 17.2033Z" fill="url(#paint2_linear_24_7968)"/>
<path style="mix-blend-mode:screen" d="M23.7136 16.7835C22.778 18.8975 21.237 20.6868 19.2852 21.9255C17.3334 23.1642 15.0582 23.7968 12.7471 23.7434C10.436 23.6899 8.1926 22.9529 6.30013 21.6252C4.40765 20.2976 2.951 18.439 2.11414 16.2841C1.27728 14.1292 1.09773 11.7746 1.59816 9.51769C2.0986 7.26079 3.25657 5.20278 4.92586 3.60356C6.59515 2.00434 8.70089 0.935625 10.9772 0.53237C13.2534 0.129115 15.5982 0.409407 17.7152 1.33785C19.125 1.95609 20.3988 2.84652 21.4637 3.95809C22.5286 5.06966 23.3637 6.38049 23.9209 7.81544C24.4782 9.25038 24.7467 10.7812 24.7111 12.3202C24.6755 13.8591 24.3365 15.3759 23.7136 16.7835Z" fill="url(#paint3_linear_24_7968)"/>
<path d="M22.2888 16.0638C21.4748 17.893 20.1366 19.4398 18.4434 20.5084C16.7503 21.577 14.7783 22.1195 12.7768 22.0673C10.7753 22.0151 8.83428 21.3705 7.19919 20.215C5.56409 19.0595 4.3084 17.445 3.59093 15.5758C2.87346 13.7066 2.72644 11.6666 3.16847 9.71388C3.61049 7.76112 4.62171 5.98331 6.07421 4.6053C7.52672 3.22729 9.35526 2.311 11.3286 1.9723C13.3019 1.63361 15.3313 1.88773 17.1602 2.70254C19.6117 3.79473 21.5291 5.81579 22.4908 8.32134C23.4525 10.8269 23.3799 13.6118 22.2888 16.0638Z" fill="url(#paint4_linear_24_7968)"/>
<path d="M21.4786 15.7638C20.7265 17.4544 19.49 18.884 17.9255 19.872C16.361 20.86 14.5387 21.362 12.689 21.3145C10.8392 21.267 9.04508 20.6721 7.53334 19.6052C6.02161 18.5382 4.86014 17.0469 4.19576 15.32C3.53139 13.593 3.39393 11.7079 3.80076 9.90278C4.20759 8.09771 5.14045 6.45378 6.48142 5.17878C7.82239 3.90379 9.51126 3.05499 11.3345 2.73966C13.1578 2.42434 15.0337 2.65665 16.7249 3.40724C17.8488 3.906 18.8633 4.62136 19.7105 5.51243C20.5578 6.40349 21.2211 7.4528 21.6626 8.60036C22.104 9.74791 22.315 10.9712 22.2835 12.2004C22.2519 13.4295 21.9784 14.6404 21.4786 15.7638Z" fill="url(#paint5_linear_24_7968)"/>
<path opacity="0.5" d="M2.92871 17.8633C4.01397 19.9837 5.79951 21.6633 7.9823 22.617C13.0059 24.8513 15.8101 23.4417 15.8101 23.4417C10.9489 23.3527 6.31945 21.3478 2.92871 17.8633Z" fill="white"/>
<path opacity="0.3" d="M20.3235 9.09074C19.6487 10.5903 16.8595 10.8153 14.0703 9.57061C11.2811 8.32596 9.57153 6.10658 10.2313 4.607C10.8912 3.10742 13.6954 2.89747 16.4846 4.14213C19.2738 5.38678 20.9833 7.59116 20.3235 9.09074Z" fill="url(#paint6_linear_24_7968)"/>
<path opacity="0.7" d="M16.0347 5.04165C18.524 6.15134 20.1586 8.04081 20.0086 9.54039C20.1214 9.41649 20.2127 9.27457 20.2785 9.12051C20.9534 7.62093 19.2288 5.40155 16.4546 4.1569C13.6804 2.91225 10.8612 3.12219 10.2014 4.62177C10.1266 4.78241 10.0809 4.95503 10.0664 5.13162C11.0561 4.06692 13.5454 3.93196 16.0347 5.04165Z" fill="url(#paint7_linear_24_7968)"/>
<path opacity="0.5" d="M23.1274 6.22648C22.067 4.11425 20.3077 2.43449 18.1488 1.47281C13.1252 -0.761569 10.3359 0.648036 10.3359 0.648036C15.1668 0.755765 19.7615 2.75952 23.1274 6.22648Z" fill="white"/>
<path fill-rule="evenodd" clip-rule="evenodd" d="M13.1897 9.25714L10.4708 11.9761L8.8889 10.3939L13.1897 6.09314L17.4919 10.3952L15.9099 11.9772L13.1897 9.25714ZM7.77175 11.5109L6.1897 13.0931L7.77164 14.6749L9.3537 13.0928L7.77175 11.5109ZM13.1897 16.9291L10.4708 14.2104L8.88666 15.7901L8.8889 15.7923L13.1897 20.0931L17.4919 15.7911L17.4927 15.7903L15.9098 14.2091L13.1897 16.9291ZM18.6078 11.5118L17.0257 13.0938L18.6077 14.6758L20.1897 13.0937L18.6078 11.5118ZM13.1897 11.0931L15.1877 13.0921L15.1897 13.0931L15.1887 13.0942L13.1897 15.0931L11.1925 13.0956L11.1897 13.0928L11.1925 13.0901L11.5426 12.7399L11.7123 12.5701L13.1897 11.0931Z" fill="#FF7708"/>
<path d="M9.97079 11.676L12.6897 8.95709L15.4099 11.6772L16.9919 10.0952L12.6897 5.79309L8.3889 10.0939L9.97079 11.676ZM5.6897 12.7931L7.27175 11.2108L8.8537 12.7928L7.27164 14.3748L5.6897 12.7931ZM9.97079 13.9103L12.6897 16.6291L15.4098 13.9091L16.9927 15.4902L16.9919 15.4911L12.6897 19.7931L8.3889 15.4923L8.38666 15.4901L9.97095 13.9102L9.97079 13.9103ZM16.5257 12.7938L18.1078 11.2117L19.6897 12.7937L18.1077 14.3757L16.5257 12.7938Z" fill="white"/>
<path d="M14.6877 12.792H14.6886L12.6897 10.7931L11.2123 12.2701L11.0426 12.4399L10.6925 12.79L10.6897 12.7927L10.6925 12.7956L12.6897 14.7931L14.6887 12.7941L14.6897 12.793L14.6879 12.792" fill="white"/>
<defs>
<linearGradient id="paint0_linear_24_7968" x1="5.71142" y1="24.698" x2="14.2313" y2="6.40747" gradientUnits="userSpaceOnUse">
<stop stop-color="#FFAC1C"/>
<stop offset="1" stop-color="#F9D445"/>
</linearGradient>
<linearGradient id="paint1_linear_24_7968" x1="6.01305" y1="23.7346" x2="14.5268" y2="5.45768" gradientUnits="userSpaceOnUse">
<stop stop-color="#FFAC1C"/>
<stop offset="1" stop-color="#F9D445"/>
</linearGradient>
<linearGradient id="paint2_linear_24_7968" x1="6.39434" y1="22.8884" x2="14.9142" y2="4.59786" gradientUnits="userSpaceOnUse">
<stop stop-color="#FFB138"/>
<stop offset="1" stop-color="#F7931A"/>
</linearGradient>
<linearGradient id="paint3_linear_24_7968" x1="6.69047" y1="22.2335" x2="14.8093" y2="4.79648" gradientUnits="userSpaceOnUse">
<stop stop-color="#E37F06"/>
<stop offset="0.99" stop-color="#F7931A"/>
</linearGradient>
<linearGradient id="paint4_linear_24_7968" x1="7.3099" y1="20.8218" x2="14.3317" y2="5.74699" gradientUnits="userSpaceOnUse">
<stop stop-color="#FFAC1C"/>
<stop offset="0.95" stop-color="#FF6100"/>
</linearGradient>
<linearGradient id="paint5_linear_24_7968" x1="7.48243" y1="20.2922" x2="13.9864" y2="6.33022" gradientUnits="userSpaceOnUse">
<stop stop-color="#FDC439"/>
<stop offset="1" stop-color="#D59C11"/>
</linearGradient>
<linearGradient id="paint6_linear_24_7968" x1="12.145" y1="10.3436" x2="14.2538" y2="5.663" gradientUnits="userSpaceOnUse">
<stop stop-color="#FFCD25"/>
<stop offset="0.99" stop-color="white"/>
</linearGradient>
<linearGradient id="paint7_linear_24_7968" x1="13.1124" y1="8.087" x2="14.3482" y2="5.34412" gradientUnits="userSpaceOnUse">
<stop stop-color="#FFCD25"/>
<stop offset="0.99" stop-color="white"/>
</linearGradient>
</defs>
</svg>
