<svg width="49" height="48" viewBox="0 0 49 48" fill="none" xmlns="http://www.w3.org/2000/svg">
<path d="M46.1695 33.547C44.2629 37.8836 41.1117 41.5564 37.1152 44.0999C33.1187 46.6433 28.4569 47.9428 23.721 47.8337C18.985 47.7245 14.3881 46.2115 10.5131 43.4866C6.63807 40.7617 3.65939 36.9475 1.9547 32.5276C0.250017 28.1078 -0.103907 23.2813 0.937802 18.66C1.97951 14.0388 4.36994 9.83089 7.80603 6.56985C11.2421 3.30881 15.5691 1.14146 20.2385 0.342594C24.9079 -0.456277 29.7093 0.149302 34.0341 2.08256C39.8024 4.66111 44.3162 9.41722 46.5899 15.3124C48.8636 21.2076 48.7125 27.7629 46.1695 33.547Z" fill="url(#paint0_linear_328_77423)"/>
<path style="mix-blend-mode:screen" d="M45.3247 32.7283C43.5003 36.8505 40.4953 40.3397 36.6892 42.7552C32.8832 45.1708 28.4467 46.4043 23.94 46.3001C19.4333 46.1959 15.0586 44.7586 11.3682 42.1698C7.67785 39.5809 4.83737 35.9565 3.20547 31.7544C1.57358 27.5523 1.22345 22.9608 2.1993 18.5598C3.17516 14.1588 5.43323 10.1457 8.68837 7.02719C11.9435 3.90869 16.0497 1.82467 20.4885 1.03832C24.9273 0.251966 29.4995 0.79854 33.6278 2.60902C36.3769 3.8146 38.8609 5.55096 40.9375 7.71853C43.0141 9.8861 44.6424 12.4422 45.729 15.2404C46.8157 18.0386 47.3394 21.0237 47.27 24.0247C47.2006 27.0256 46.5395 29.9834 45.3247 32.7283Z" fill="url(#paint1_linear_328_77423)"/>
<path d="M42.5458 31.3249C40.9585 34.8919 38.3491 37.9081 35.0474 39.992C31.7458 42.0758 27.9003 43.1337 23.9974 43.0318C20.0944 42.93 16.3094 41.673 13.1209 39.4197C9.93248 37.1665 7.48387 34.0183 6.08479 30.3734C4.68571 26.7284 4.39902 22.7504 5.26097 18.9425C6.12293 15.1345 8.09481 11.6678 10.9272 8.98063C13.7596 6.2935 17.3253 4.50671 21.1733 3.84625C25.0213 3.18579 28.9787 3.68134 32.5451 5.27022C37.3255 7.40001 41.0645 11.3411 42.9398 16.227C44.8152 21.1128 44.6735 26.5435 42.5458 31.3249Z" fill="url(#paint2_linear_328_77423)"/>
<path d="M40.9645 30.7398C39.4978 34.0365 37.0867 36.8244 34.0359 38.7509C30.9851 40.6775 27.4316 41.6564 23.8245 41.5638C20.2175 41.4711 16.7189 40.3112 13.771 38.2306C10.8231 36.1499 8.55823 33.242 7.26268 29.8744C5.96713 26.5068 5.69908 22.8307 6.49241 19.3108C7.28575 15.7909 9.10484 12.5852 11.7197 10.0989C14.3347 7.61267 17.628 5.95749 21.1834 5.3426C24.7388 4.72771 28.3968 5.18073 31.6948 6.64439C33.8863 7.61698 35.8647 9.01194 37.5168 10.7495C39.1689 12.4871 40.4623 14.5333 41.3232 16.771C42.1841 19.0088 42.5955 21.3943 42.534 23.7911C42.4724 26.188 41.9391 28.5492 40.9645 30.7398Z" fill="url(#paint3_linear_328_77423)"/>
<path opacity="0.5" d="M4.79272 34.8339C6.90899 38.9687 10.3908 42.2439 14.6473 44.1036C24.4434 48.4607 29.9117 45.7119 29.9117 45.7119C20.4322 45.5383 11.4047 41.6288 4.79272 34.8339Z" fill="white"/>
<path opacity="0.3" d="M38.7129 17.7272C37.397 20.6514 31.958 21.09 26.519 18.6629C21.08 16.2358 17.7464 11.908 19.033 8.98378C20.3197 6.05957 25.7879 5.65019 31.227 8.07728C36.666 10.5044 39.9996 14.8029 38.7129 17.7272Z" fill="url(#paint4_linear_328_77423)"/>
<path opacity="0.7" d="M30.3495 9.83161C35.2037 11.9955 38.3911 15.68 38.0987 18.6042C38.3186 18.3626 38.4965 18.0859 38.625 17.7854C39.9409 14.8612 36.5781 10.5334 31.1683 8.10633C25.7585 5.67924 20.261 6.08863 18.9744 9.01283C18.8286 9.32609 18.7395 9.66271 18.7112 10.0071C20.6412 7.93088 25.4953 7.6677 30.3495 9.83161Z" fill="url(#paint5_linear_328_77423)"/>
<path opacity="0.5" d="M44.1805 12.1418C42.1127 8.02294 38.6822 4.74738 34.4722 2.87208C24.6761 -1.48498 19.2371 1.26377 19.2371 1.26377C28.6574 1.47384 37.617 5.38119 44.1805 12.1418Z" fill="white"/>
<g clip-path="url(#clip0_328_77423)">
<path d="M30.7652 25.0597C32.2059 24.3231 33.1229 23.0129 32.9101 20.8356C32.6316 17.8551 30.1841 16.8567 26.9426 16.5782V12.4521H24.4211V16.4635C23.766 16.4635 23.0951 16.4801 22.4233 16.4959V12.4521H19.9018V16.5782C18.9749 16.6064 17.8949 16.5923 14.843 16.5782V19.2635C16.8333 19.2285 17.8783 19.1005 18.1177 20.3767V31.674C17.9656 32.6866 17.155 32.5411 15.351 32.5095L14.8438 35.5057C19.4413 35.5057 19.9035 35.5223 19.9035 35.5223V39.0556H22.425V35.5714C23.1125 35.588 23.7834 35.588 24.4228 35.588V39.0564H26.9443V35.5232C31.1684 35.2937 33.9925 34.2296 34.3691 30.2507C34.6634 27.0583 33.1578 25.6333 30.7669 25.0605L30.7652 25.0597ZM22.4724 19.4439C23.8965 19.4439 28.3501 19.0016 28.3501 21.9654C28.3501 24.7978 23.8965 24.4703 22.4724 24.4703V19.4439ZM22.4724 32.5253V26.9909C24.175 26.9909 29.3893 26.5162 29.3893 29.7577C29.3893 32.8853 24.175 32.5245 22.4724 32.5245V32.5253Z" fill="#F57E06"/>
<path d="M30.221 24.3053C31.6617 23.5687 32.5787 22.2585 32.3659 20.0812C32.0874 17.1008 29.6399 16.1023 26.3984 15.8238V11.6978H23.8769V15.7091C23.2218 15.7091 22.5509 15.7257 21.8792 15.7415V11.6978H19.3576V15.8238C18.4307 15.8521 17.3507 15.8379 14.2988 15.8238V18.5091C16.2891 18.4742 17.3341 18.3461 17.5735 19.6223V30.9196C17.4214 31.9322 16.6108 31.7867 14.8068 31.7551L14.2997 34.7513C18.8971 34.7513 19.3593 34.7679 19.3593 34.7679V38.3012H21.8808V34.817C22.5683 34.8336 23.2393 34.8336 23.8786 34.8336V38.3021H26.4001V34.7688C30.6242 34.5393 33.4483 33.4752 33.8249 29.4963C34.1192 26.3039 32.6137 24.8789 30.2227 24.3061L30.221 24.3053ZM21.9282 18.6895C23.3523 18.6895 27.8059 18.2472 27.8059 21.211C27.8059 24.0434 23.3523 23.7159 21.9282 23.7159V18.6895ZM21.9282 31.7709V26.2365C23.6308 26.2365 28.8451 25.7618 28.8451 29.0033C28.8451 32.1309 23.6308 31.7701 21.9282 31.7701V31.7709Z" fill="url(#paint6_linear_328_77423)"/>
</g>
<defs>
<linearGradient id="paint0_linear_328_77423" x1="11.5507" y1="44.633" x2="28.1646" y2="8.96613" gradientUnits="userSpaceOnUse">
<stop stop-color="#FFB138"/>
<stop offset="1" stop-color="#F7931A"/>
</linearGradient>
<linearGradient id="paint1_linear_328_77423" x1="12.1294" y1="43.3558" x2="27.9613" y2="9.3534" gradientUnits="userSpaceOnUse">
<stop stop-color="#E37F06"/>
<stop offset="0.99" stop-color="#F7931A"/>
</linearGradient>
<linearGradient id="paint2_linear_328_77423" x1="13.3368" y1="40.6031" x2="27.0294" y2="11.2069" gradientUnits="userSpaceOnUse">
<stop stop-color="#FFAC1C"/>
<stop offset="0.95" stop-color="#FF6100"/>
</linearGradient>
<linearGradient id="paint3_linear_328_77423" x1="13.6717" y1="39.5704" x2="26.3546" y2="12.3442" gradientUnits="userSpaceOnUse">
<stop stop-color="#F7931A"/>
<stop offset="1" stop-color="#FFBB42"/>
</linearGradient>
<linearGradient id="paint4_linear_328_77423" x1="22.7646" y1="20.1703" x2="26.8769" y2="11.043" gradientUnits="userSpaceOnUse">
<stop stop-color="#FFCD25"/>
<stop offset="0.99" stop-color="white"/>
</linearGradient>
<linearGradient id="paint5_linear_328_77423" x1="24.6508" y1="15.7701" x2="27.0607" y2="10.4214" gradientUnits="userSpaceOnUse">
<stop stop-color="#FFCD25"/>
<stop offset="0.99" stop-color="white"/>
</linearGradient>
<linearGradient id="paint6_linear_328_77423" x1="24.0802" y1="11.6978" x2="24.0802" y2="38.3021" gradientUnits="userSpaceOnUse">
<stop stop-color="white"/>
<stop offset="1" stop-color="#E4E4E4"/>
</linearGradient>
<clipPath id="clip0_328_77423">
<rect width="26.6035" height="26.6035" fill="white" transform="translate(10.7778 11.6974)"/>
</clipPath>
</defs>
</svg>
