<svg width="48" height="48" viewBox="0 0 48 48" fill="none" xmlns="http://www.w3.org/2000/svg">
<path d="M45.3501 33.5723C43.463 37.8647 40.3438 41.5001 36.3881 44.0176C32.4323 46.5351 27.8181 47.8214 23.1304 47.7133C18.4428 47.6052 13.8928 46.1077 10.0572 43.4105C6.22169 40.7134 3.27338 36.9381 1.58607 32.5633C-0.101235 28.1885 -0.451551 23.4112 0.579538 18.8371C1.61063 14.263 3.97668 10.098 7.37774 6.87018C10.7788 3.64238 15.0617 1.49714 19.6835 0.70641C24.3052 -0.0843153 29.0577 0.515089 33.3384 2.42863C39.0479 4.9809 43.5157 9.68852 45.7662 15.5236C48.0167 21.3587 47.8671 27.8471 45.3501 33.5723Z" fill="url(#paint0_linear_328_77428)"/>
<path style="mix-blend-mode:screen" d="M44.5121 32.762C42.7063 36.8422 39.7319 40.2958 35.9647 42.6867C32.1974 45.0776 27.8061 46.2986 23.3454 46.1955C18.8847 46.0923 14.5545 44.6697 10.9018 42.1072C7.24905 39.5447 4.43753 35.9573 2.82227 31.798C1.20701 27.6388 0.860453 23.0941 1.82636 18.738C2.79226 14.3819 5.02732 10.4096 8.24927 7.32292C11.4712 4.23621 15.5356 2.17344 19.9291 1.39511C24.3226 0.616769 28.8482 1.15777 32.9345 2.94979C35.6555 4.14308 38.1142 5.86174 40.1696 8.00721C42.225 10.1527 43.8367 12.6828 44.9123 15.4524C45.9879 18.222 46.5062 21.1768 46.4375 24.1471C46.3688 27.1175 45.7145 30.0451 44.5121 32.762Z" fill="url(#paint1_linear_328_77428)"/>
<path d="M41.7616 31.3729C40.1905 34.9036 37.6076 37.889 34.3396 39.9516C31.0716 42.0142 27.2654 43.0613 23.4022 42.9605C19.5391 42.8597 15.7926 41.6155 12.6367 39.3852C9.48072 37.155 7.05707 34.0389 5.67225 30.4311C4.28744 26.8233 4.00367 22.8858 4.85684 19.1167C5.71001 15.3476 7.66179 11.9162 10.4653 9.25644C13.2688 6.5967 16.7982 4.82813 20.6069 4.1744C24.4157 3.52068 28.3328 4.01118 31.8628 5.58385C36.5945 7.69194 40.2953 11.5929 42.1516 16.4289C44.0078 21.265 43.8676 26.6402 41.7616 31.3729Z" fill="url(#paint2_linear_328_77428)"/>
<path d="M40.1984 30.7937C38.7466 34.0568 36.3601 36.8162 33.3404 38.7232C30.3207 40.6301 26.8034 41.599 23.2331 41.5073C19.6629 41.4156 16.2 40.2675 13.2821 38.2081C10.3642 36.1487 8.12246 33.2704 6.84012 29.9372C5.55778 26.6039 5.29246 22.9653 6.07771 19.4812C6.86295 15.9972 8.6635 12.8242 11.2517 10.3633C13.84 7.90236 17.0997 6.26405 20.6189 5.65543C24.1381 5.04681 27.7587 5.49521 31.0231 6.94394C33.1923 7.90662 35.1505 9.28736 36.7858 11.0072C38.421 12.7271 39.7013 14.7524 40.5534 16.9674C41.4055 19.1823 41.8127 21.5435 41.7518 23.9159C41.6909 26.2883 41.163 28.6255 40.1984 30.7937Z" fill="url(#paint3_linear_328_77428)"/>
<path opacity="0.5" d="M4.39453 34.8461C6.48922 38.9388 9.93557 42.1806 14.1486 44.0213C23.8449 48.3339 29.2574 45.6132 29.2574 45.6132C19.8746 45.4413 10.9391 41.5717 4.39453 34.8461Z" fill="white"/>
<path opacity="0.3" d="M37.9687 17.9139C36.6662 20.8083 31.2826 21.2424 25.8991 18.8401C20.5155 16.4378 17.2159 12.1541 18.4894 9.25966C19.763 6.36527 25.1755 5.96005 30.5591 8.3624C35.9426 10.7647 39.2422 15.0195 37.9687 17.9139Z" fill="url(#paint4_linear_328_77428)"/>
<path opacity="0.7" d="M29.6911 10.0987C34.4958 12.2405 37.6507 15.8874 37.3612 18.7818C37.5789 18.5427 37.755 18.2688 37.8822 17.9714C39.1847 15.077 35.8561 10.7933 30.5015 8.39096C25.1469 5.98862 19.7054 6.39383 18.4319 9.28822C18.2876 9.59829 18.1994 9.93147 18.1714 10.2723C20.0817 8.2173 24.8864 7.9568 29.6911 10.0987Z" fill="url(#paint5_linear_328_77428)"/>
<path opacity="0.5" d="M43.3806 12.3855C41.3339 8.30859 37.9383 5.06643 33.7712 3.21025C24.075 -1.1024 18.6914 1.61833 18.6914 1.61833C28.0157 1.82626 36.8839 5.69377 43.3806 12.3855Z" fill="white"/>
<path fill-rule="evenodd" clip-rule="evenodd" d="M24.1992 18.2351L18.9513 23.483L15.8981 20.4293L24.1992 12.1282L32.503 20.4318L29.4495 23.4853L24.1992 18.2351ZM13.7418 22.5851L10.6882 25.6391L13.7416 28.6921L16.7952 25.6385L13.7418 22.5851ZM24.1992 33.0431L18.9513 27.7956L15.8937 30.8446L15.8981 30.8489L24.1992 39.1501L32.503 30.8466L32.5045 30.8449L29.4494 27.7931L24.1992 33.0431ZM34.6568 22.5868L31.6032 25.6404L34.6566 28.6938L37.7101 25.6402L34.6568 22.5868ZM24.1988 21.7788L28.0553 25.6371L28.059 25.639L28.0572 25.6411L24.1988 29.4994L20.3439 25.6439L20.3385 25.6384L20.3439 25.6332L21.0195 24.9574L21.3472 24.6296L24.1988 21.7788Z" fill="#FF7708"/>
<path d="M17.9865 22.9039L23.2343 17.656L28.4847 22.9062L31.5382 19.8527L23.2343 11.5491L14.9332 19.8502L17.9865 22.9039ZM9.72339 25.06L12.777 22.006L15.8303 25.0594L12.7768 28.113L9.72339 25.06ZM17.9865 27.2165L23.2343 32.464L28.4846 27.214L31.5397 30.2658L31.5382 30.2675L23.2343 38.571L14.9332 30.2698L14.9289 30.2655L17.9868 27.2161L17.9865 27.2165ZM30.6383 25.0613L33.6919 22.0077L36.7453 25.0611L33.6918 28.1147L30.6383 25.0613Z" fill="white"/>
<path d="M27.0906 25.058H27.0922L23.2341 21.1997L20.3824 24.0505L20.0548 24.3783L19.3792 25.0541L19.3738 25.0593L19.3792 25.0648L23.2341 28.9202L27.0924 25.062L27.0943 25.0598L27.0908 25.058" fill="white"/>
<defs>
<linearGradient id="paint0_linear_328_77428" x1="11.0842" y1="44.5452" x2="27.5287" y2="9.24203" gradientUnits="userSpaceOnUse">
<stop stop-color="#FFB138"/>
<stop offset="1" stop-color="#F7931A"/>
</linearGradient>
<linearGradient id="paint1_linear_328_77428" x1="11.6552" y1="43.2811" x2="27.3257" y2="9.62542" gradientUnits="userSpaceOnUse">
<stop stop-color="#E37F06"/>
<stop offset="0.99" stop-color="#F7931A"/>
</linearGradient>
<linearGradient id="paint2_linear_328_77428" x1="12.8504" y1="40.5565" x2="26.4033" y2="11.4601" gradientUnits="userSpaceOnUse">
<stop stop-color="#FFAC1C"/>
<stop offset="0.95" stop-color="#FF6100"/>
</linearGradient>
<linearGradient id="paint3_linear_328_77428" x1="13.1838" y1="39.5342" x2="25.7374" y2="12.5857" gradientUnits="userSpaceOnUse">
<stop stop-color="#FDC439"/>
<stop offset="1" stop-color="#D59C11"/>
</linearGradient>
<linearGradient id="paint4_linear_328_77428" x1="22.183" y1="20.3322" x2="26.2534" y2="11.2979" gradientUnits="userSpaceOnUse">
<stop stop-color="#FFCD25"/>
<stop offset="0.99" stop-color="white"/>
</linearGradient>
<linearGradient id="paint5_linear_328_77428" x1="24.0505" y1="15.9766" x2="26.4357" y2="10.6825" gradientUnits="userSpaceOnUse">
<stop stop-color="#FFCD25"/>
<stop offset="0.99" stop-color="white"/>
</linearGradient>
</defs>
</svg>
