<svg width="26" height="27" viewBox="0 0 26 27" fill="none" xmlns="http://www.w3.org/2000/svg">
<path d="M23.4737 18.9278C22.4874 21.1442 20.8661 23.0184 18.8147 24.3134C16.7633 25.6084 14.374 26.2661 11.9488 26.2032C9.52369 26.1404 7.17164 25.3599 5.19008 23.9603C3.20851 22.5608 1.68642 20.6052 0.816258 18.3407C-0.0539047 16.0761 -0.233061 13.6044 0.301442 11.2381C0.835944 8.87178 2.0601 6.71706 3.81913 5.04642C5.57816 3.37578 7.79307 2.26423 10.1838 1.85232C12.5745 1.44041 15.0337 1.74664 17.2504 2.73228C18.7226 3.38689 20.0514 4.3251 21.1609 5.49333C22.2705 6.66156 23.139 8.03693 23.7169 9.54088C24.2948 11.0448 24.5708 12.6479 24.529 14.2585C24.4873 15.8691 24.1287 17.4558 23.4737 18.9278Z" fill="#464141"/>
<path style="mix-blend-mode:multiply" d="M23.4737 19.0629C22.4874 21.2793 20.8661 23.1535 18.8147 24.4485C16.7633 25.7435 14.374 26.4012 11.9488 26.3384C9.52369 26.2755 7.17164 25.495 5.19008 24.0955C3.20851 22.696 1.68642 20.7403 0.816258 18.4758C-0.0539047 16.2113 -0.233061 13.7396 0.301442 11.3732C0.835944 9.00691 2.0601 6.8522 3.81913 5.18155C5.57816 3.51091 7.79307 2.39936 10.1838 1.98745C12.5745 1.57554 15.0337 1.88177 17.2504 2.86741C18.7226 3.52202 20.0514 4.46023 21.1609 5.62846C22.2705 6.7967 23.139 8.17206 23.7169 9.67601C24.2948 11.18 24.5708 12.783 24.529 14.3936C24.4873 16.0043 24.1287 17.5909 23.4737 19.0629Z" fill="url(#paint0_linear_24_8048)"/>
<path style="mix-blend-mode:multiply" d="M23.0676 17.7433C21.8767 20.6614 19.5774 22.9884 16.6736 24.214C13.7698 25.4396 10.4986 25.4638 7.57696 24.2815C4.73998 22.9066 2.56504 20.4615 1.53023 17.4836C0.495415 14.5057 0.685431 11.2387 2.0585 8.4009C3.24941 5.48274 5.54877 3.15582 8.45254 1.93023C11.3563 0.704632 14.6275 0.68036 17.5492 1.86273C20.3862 3.23759 22.5611 5.68272 23.5959 8.66061C24.6307 11.6385 24.4407 14.9054 23.0676 17.7433Z" fill="url(#paint1_linear_24_8048)"/>
<path d="M24.1474 17.2033C23.1697 19.4272 21.5537 21.3107 19.5042 22.615C17.4547 23.9193 15.0641 24.5858 12.6355 24.5298C10.2068 24.4738 7.84942 23.6979 5.86224 22.3005C3.87506 20.9031 2.34754 18.9472 1.47335 16.6806C0.599162 14.414 0.417664 11.9389 0.951869 9.56904C1.48607 7.19919 2.71192 5.04132 4.47401 3.369C6.23609 1.69669 8.45506 0.585239 10.8496 0.175566C13.2441 -0.234108 15.7064 0.0764423 17.9242 1.06785C20.8823 2.39017 23.197 4.82918 24.363 7.85232C25.529 10.8755 25.4515 14.2371 24.1474 17.2033Z" fill="url(#paint2_linear_24_8048)"/>
<path style="mix-blend-mode:screen" d="M23.7136 16.7835C22.778 18.8975 21.237 20.6868 19.2852 21.9255C17.3334 23.1642 15.0582 23.7968 12.7471 23.7434C10.436 23.6899 8.1926 22.9529 6.30013 21.6252C4.40765 20.2976 2.951 18.439 2.11414 16.2841C1.27728 14.1292 1.09773 11.7746 1.59816 9.51769C2.0986 7.26079 3.25657 5.20278 4.92586 3.60356C6.59515 2.00434 8.70089 0.935625 10.9772 0.53237C13.2534 0.129115 15.5982 0.409407 17.7152 1.33785C19.125 1.95609 20.3988 2.84652 21.4637 3.95809C22.5286 5.06966 23.3637 6.38049 23.9209 7.81544C24.4782 9.25038 24.7467 10.7812 24.7111 12.3202C24.6755 13.8591 24.3365 15.3759 23.7136 16.7835Z" fill="url(#paint3_linear_24_8048)"/>
<path d="M22.2888 16.0638C21.4748 17.893 20.1366 19.4398 18.4434 20.5084C16.7503 21.577 14.7783 22.1195 12.7768 22.0673C10.7753 22.0151 8.83428 21.3705 7.19919 20.215C5.56409 19.0595 4.3084 17.445 3.59093 15.5758C2.87346 13.7066 2.72644 11.6666 3.16847 9.71388C3.61049 7.76112 4.62171 5.98331 6.07421 4.6053C7.52672 3.22729 9.35526 2.311 11.3286 1.9723C13.3019 1.63361 15.3313 1.88773 17.1602 2.70254C19.6117 3.79473 21.5291 5.81579 22.4908 8.32134C23.4525 10.8269 23.3799 13.6118 22.2888 16.0638Z" fill="url(#paint4_linear_24_8048)"/>
<path d="M21.4786 15.7638C20.7265 17.4544 19.49 18.884 17.9255 19.872C16.361 20.86 14.5387 21.362 12.689 21.3145C10.8392 21.267 9.04508 20.6721 7.53334 19.6052C6.02161 18.5382 4.86014 17.0469 4.19576 15.32C3.53139 13.593 3.39393 11.7079 3.80076 9.90278C4.20759 8.09771 5.14045 6.45378 6.48142 5.17878C7.82239 3.90379 9.51126 3.05499 11.3345 2.73966C13.1578 2.42434 15.0337 2.65665 16.7249 3.40724C17.8488 3.906 18.8633 4.62136 19.7105 5.51243C20.5578 6.40349 21.2211 7.4528 21.6626 8.60036C22.104 9.74791 22.315 10.9712 22.2835 12.2004C22.2519 13.4295 21.9784 14.6404 21.4786 15.7638Z" fill="url(#paint5_linear_24_8048)"/>
<path opacity="0.5" d="M2.92871 17.8633C4.01397 19.9837 5.79951 21.6633 7.9823 22.617C13.0059 24.8513 15.8101 23.4417 15.8101 23.4417C10.9489 23.3527 6.31945 21.3478 2.92871 17.8633Z" fill="white"/>
<path opacity="0.5" d="M23.1274 6.22648C22.067 4.11425 20.3077 2.43449 18.1488 1.47281C13.1252 -0.761569 10.3359 0.648036 10.3359 0.648036C15.1668 0.755765 19.7615 2.75952 23.1274 6.22648Z" fill="white"/>
<path d="M12.5179 5.83155C12.8231 5.67167 13.1955 6.04259 13.0331 6.34896C12.939 6.59865 12.582 6.66506 12.3997 6.47473C12.2067 6.29201 12.2697 5.93094 12.5179 5.83155ZM9.23594 6.18699C9.4213 6.11029 9.65594 6.28097 9.63702 6.48402C9.65667 6.7044 9.38854 6.8667 9.1996 6.76191C8.94928 6.6645 8.97789 6.2561 9.23594 6.18705V6.18699ZM15.9578 6.7681C15.6681 6.73293 15.6223 6.27529 15.9012 6.18283C16.1175 6.07681 16.3159 6.27563 16.3476 6.48166C16.3022 6.65757 16.1556 6.81869 15.9578 6.76782V6.7681ZM9.98259 7.59052C10.2925 7.39355 10.7347 7.68686 10.687 8.0486C10.6709 8.41384 10.1882 8.62543 9.91584 8.3785C9.65264 8.18457 9.6924 7.73959 9.98259 7.59063V7.59052ZM14.7133 7.79964C14.8516 7.44195 15.4119 7.43069 15.5692 7.77961C15.7247 8.05086 15.5334 8.38677 15.2564 8.47895C14.8893 8.54783 14.5406 8.14906 14.7134 7.79992L14.7133 7.79964ZM12.1227 8.45852C12.1197 8.15075 12.3986 7.92142 12.6897 7.90049C12.8827 7.93937 13.0932 8.02204 13.176 8.21783C13.3303 8.48795 13.1933 8.85971 12.9144 8.98369C12.7869 9.0555 12.6361 9.02871 12.4972 9.02021C12.2849 8.91548 12.1061 8.71007 12.1228 8.45858L12.1227 8.45852ZM7.24195 8.90693C7.52503 8.73202 7.90695 9.05122 7.79976 9.36023C7.74074 9.62754 7.38318 9.73627 7.17878 9.56564C6.96038 9.40576 6.99515 9.02128 7.24195 8.90693ZM17.7227 8.90636C17.9629 8.71897 18.3592 8.93394 18.3306 9.23839C18.3467 9.51628 18.0041 9.7258 17.7656 9.58275C17.503 9.46417 17.4763 9.0582 17.7227 8.90608V8.90636ZM13.4953 9.45933C13.8916 9.31628 14.3624 9.48747 14.5883 9.84257C14.8862 10.2767 14.7277 10.9378 14.2653 11.1868C13.7861 11.4814 13.0865 11.2319 12.9095 10.694C12.7086 10.2126 13.0013 9.61021 13.4953 9.45933ZM11.1699 9.507C11.6091 9.29878 12.2003 9.47323 12.4124 9.92496C12.6621 10.3645 12.4691 10.9765 12.0227 11.2034C11.5757 11.4585 10.9452 11.2653 10.7291 10.7932C10.4863 10.3369 10.7017 9.71713 11.1699 9.507ZM8.84142 10.307C8.87502 10.0225 9.14181 9.83751 9.41117 9.81832C9.70142 9.85349 9.93326 10.08 9.96479 10.3755C9.94574 10.6676 9.72102 10.9533 9.4129 10.9515C9.07388 10.9808 8.77669 10.642 8.84142 10.3072V10.307ZM15.7188 9.88039C16.0668 9.67678 16.5501 9.97319 16.5347 10.375C16.5585 10.8007 16.0237 11.101 15.6771 10.851C15.3171 10.6431 15.3451 10.0575 15.7188 9.88045V9.88039ZM10.2235 11.3807C10.6306 11.2681 11.096 11.4609 11.2956 11.8369C11.514 12.2153 11.4249 12.7411 11.0853 13.0187C10.6497 13.4258 9.84629 13.2624 9.61445 12.7067C9.34806 12.1973 9.67162 11.5147 10.2235 11.3806V11.3807ZM14.6341 11.3785C15.0298 11.2648 15.4947 11.4179 15.7074 11.7803C15.9887 12.1947 15.8544 12.8127 15.4357 13.0797C14.9971 13.3899 14.3177 13.227 14.0763 12.7421C13.7837 12.2404 14.0782 11.5315 14.6341 11.3785ZM7.60539 11.8512C7.95701 11.7176 8.34677 12.1075 8.20431 12.4578C8.11734 12.7769 7.66979 12.8951 7.43856 12.6596C7.16803 12.4387 7.26821 11.9471 7.60544 11.8512H7.60539ZM17.1361 12.3596C17.126 12.067 17.3391 11.8076 17.6379 11.7912C17.8787 11.8296 18.1128 12.0248 18.0938 12.2882C18.1158 12.6362 17.6986 12.8726 17.4036 12.7092C17.2654 12.6385 17.1945 12.496 17.1361 12.3595V12.3596ZM5.87661 12.0228C6.08812 11.93 6.34981 12.1143 6.30154 12.3503C6.29034 12.6177 5.89749 12.7204 5.75324 12.4971C5.62573 12.3422 5.702 12.1031 5.87661 12.0228ZM19.2147 12.0172C19.3636 11.9106 19.6026 11.9872 19.6616 12.1621C19.7617 12.3531 19.5782 12.6148 19.3642 12.5825C19.0639 12.61 18.9666 12.1501 19.2147 12.0172ZM11.3726 13.3003C11.9292 13.1548 12.5276 13.6211 12.5311 14.1973C12.5674 14.7793 11.9781 15.2954 11.4083 15.161C10.9679 15.0897 10.6223 14.6634 10.6366 14.2161C10.6354 13.7884 10.9566 13.3908 11.3726 13.3003H11.3726ZM13.5771 13.2991C14.1421 13.1404 14.7582 13.6152 14.7493 14.2045C14.7791 14.7758 14.2081 15.2746 13.6503 15.1612C13.1253 15.093 12.7379 14.5134 12.8845 14.0014C12.9584 13.6602 13.2421 13.3828 13.5771 13.2991ZM9.32666 13.6536C9.7176 13.5866 10.0841 14.0251 9.92558 14.3979C9.80994 14.7955 9.23426 14.9033 8.97974 14.5786C8.68121 14.2668 8.90409 13.6967 9.32666 13.6536ZM15.7915 13.6717C16.1401 13.525 16.568 13.828 16.5412 14.2082C16.5552 14.6268 16.0269 14.9154 15.686 14.6711C15.2996 14.4516 15.3701 13.8063 15.7915 13.6717ZM17.5985 15.4931C17.462 15.2374 17.7099 14.8985 17.9925 14.9458C18.1331 14.9434 18.2315 15.0547 18.3215 15.1484C18.3399 15.2999 18.371 15.4804 18.2458 15.5975C18.0758 15.8136 17.6908 15.7519 17.5985 15.4933V15.4931ZM7.24088 15.017C7.50492 14.8404 7.88488 15.1038 7.82552 15.4141C7.79394 15.6884 7.45032 15.8452 7.22352 15.6898C6.98042 15.5485 6.98939 15.1461 7.24088 15.0173V15.017ZM12.4573 15.5916C12.803 15.4383 13.2433 15.7408 13.2106 16.1234C13.2362 16.5461 12.6915 16.8389 12.3538 16.5848C11.9786 16.3668 12.0409 15.7255 12.4575 15.5914L12.4573 15.5916ZM10.0409 16.1578C10.3353 16.0021 10.7304 16.2709 10.7036 16.6023C10.7126 16.8742 10.4485 17.106 10.1815 17.0658C9.96036 17.061 9.81616 16.8618 9.74526 16.6723C9.7489 16.4659 9.83346 16.2359 10.0409 16.158V16.1578ZM14.9349 16.1628C15.2376 15.9748 15.668 16.2449 15.6393 16.599C15.6471 16.969 15.1608 17.2061 14.8789 16.963C14.606 16.7725 14.6393 16.3144 14.9349 16.1628ZM15.7861 18.2772C15.6517 18.0724 15.81 17.8257 16.0286 17.779C16.2045 17.815 16.3904 17.9478 16.3534 18.1527C16.3278 18.4299 15.9243 18.515 15.7861 18.2772ZM9.03031 18.0993C9.08396 17.937 9.21388 17.7757 9.404 17.818C9.68114 17.8377 9.76341 18.2575 9.52082 18.3868C9.3027 18.5346 9.04963 18.3323 9.03031 18.0993ZM12.2895 18.2856C12.3426 18.0455 12.6518 17.9287 12.8557 18.0562C12.9901 18.1144 13.0297 18.2658 13.0643 18.3945C13.0458 18.4615 13.0293 18.5287 13.013 18.5957C12.9296 18.6951 12.8226 18.7945 12.6835 18.7909C12.4254 18.8213 12.1926 18.5281 12.2895 18.2856Z" fill="#3CC8C8"/>
<path opacity="0.3" d="M20.3235 9.09074C19.6487 10.5903 16.8595 10.8153 14.0703 9.57061C11.2811 8.32596 9.57153 6.10658 10.2313 4.607C10.8912 3.10742 13.6954 2.89747 16.4846 4.14213C19.2738 5.38678 20.9833 7.59116 20.3235 9.09074Z" fill="url(#paint6_linear_24_8048)"/>
<path opacity="0.7" d="M16.0347 5.04177C18.524 6.15146 20.1586 8.04093 20.0086 9.54051C20.1214 9.41662 20.2127 9.27469 20.2785 9.12063C20.9534 7.62105 19.2288 5.40167 16.4546 4.15702C13.6804 2.91237 10.8612 3.12231 10.2014 4.62189C10.1266 4.78253 10.0809 4.95516 10.0664 5.13175C11.0561 4.06704 13.5454 3.93208 16.0347 5.04177Z" fill="url(#paint7_linear_24_8048)"/>
<defs>
<linearGradient id="paint0_linear_24_8048" x1="5.71142" y1="24.698" x2="14.2313" y2="6.40747" gradientUnits="userSpaceOnUse">
<stop stop-color="#3CC8C8"/>
<stop offset="1" stop-color="#3CC8C8"/>
</linearGradient>
<linearGradient id="paint1_linear_24_8048" x1="6.01305" y1="23.7346" x2="14.5268" y2="5.45768" gradientUnits="userSpaceOnUse">
<stop stop-color="#079393"/>
<stop offset="1" stop-color="#1BA7A7"/>
</linearGradient>
<linearGradient id="paint2_linear_24_8048" x1="6.39434" y1="22.8884" x2="14.9142" y2="4.59786" gradientUnits="userSpaceOnUse">
<stop stop-color="#008C8C"/>
<stop offset="1" stop-color="#28B4B4"/>
</linearGradient>
<linearGradient id="paint3_linear_24_8048" x1="6.69047" y1="22.2335" x2="14.8093" y2="4.79648" gradientUnits="userSpaceOnUse">
<stop stop-color="#008C8C"/>
<stop offset="0.99" stop-color="#3CC8C8"/>
</linearGradient>
<linearGradient id="paint4_linear_24_8048" x1="7.3099" y1="20.8218" x2="14.3317" y2="5.74699" gradientUnits="userSpaceOnUse">
<stop stop-color="#8CFFFF"/>
<stop offset="0.95" stop-color="#28B4B4"/>
</linearGradient>
<linearGradient id="paint5_linear_24_8048" x1="7.48243" y1="20.2922" x2="13.9864" y2="6.33022" gradientUnits="userSpaceOnUse">
<stop stop-color="#DCFFFF"/>
<stop offset="1" stop-color="#96FFFF"/>
</linearGradient>
<linearGradient id="paint6_linear_24_8048" x1="12.145" y1="10.3436" x2="14.2538" y2="5.663" gradientUnits="userSpaceOnUse">
<stop stop-color="#B9B9B9"/>
<stop offset="0.99" stop-color="white"/>
</linearGradient>
<linearGradient id="paint7_linear_24_8048" x1="13.1124" y1="8.08712" x2="14.3482" y2="5.34424" gradientUnits="userSpaceOnUse">
<stop stop-color="#D0D0D0"/>
<stop offset="0.99" stop-color="white"/>
</linearGradient>
</defs>
</svg>
