<svg width="48" height="48" viewBox="0 0 48 48" fill="none" xmlns="http://www.w3.org/2000/svg">
<path d="M45.9803 33.4085C44.0816 37.7272 40.9434 41.3849 36.9634 43.9178C32.9834 46.4508 28.3409 47.7449 23.6245 47.6362C18.9081 47.5274 14.3302 46.0207 10.4712 43.307C6.61211 40.5934 3.64573 36.7949 1.94809 32.3933C0.250439 27.9917 -0.102023 23.1852 0.935384 18.583C1.97279 13.9808 4.35335 9.7903 7.77526 6.54272C11.1972 3.29514 15.5063 1.13675 20.1564 0.341179C24.8065 -0.454393 29.5881 0.148685 33.895 2.07396C39.6395 4.64187 44.1347 9.37834 46.399 15.2492C48.6633 21.12 48.5128 27.6483 45.9803 33.4085Z" fill="url(#paint0_linear_328_77409)"/>
<path style="mix-blend-mode:screen" d="M45.1371 32.5932C43.3202 36.6984 40.3276 40.1732 36.5373 42.5788C32.7469 44.9843 28.3287 46.2128 23.8407 46.109C19.3526 46.0052 14.9959 44.5739 11.3208 41.9957C7.64567 39.4175 4.81692 35.8081 3.19176 31.6233C1.5666 27.4386 1.21792 22.8661 2.18975 18.4832C3.16157 14.1004 5.41032 10.1038 8.65202 6.99821C11.8937 3.89259 15.983 1.81718 20.4034 1.03407C24.8239 0.250961 29.3772 0.795278 33.4885 2.59828C36.2262 3.79889 38.7 5.52807 40.768 7.68669C42.836 9.84531 44.4576 12.3909 45.5398 15.1775C46.6219 17.9641 47.1434 20.937 47.0743 23.9255C47.0052 26.9141 46.3469 29.8596 45.1371 32.5932Z" fill="url(#paint1_linear_328_77409)"/>
<path d="M42.3699 31.1955C40.7891 34.7478 38.1904 37.7515 34.9024 39.8268C31.6144 41.902 27.7848 42.9555 23.898 42.8541C20.0112 42.7527 16.2417 41.5008 13.0665 39.2569C9.89117 37.013 7.45266 33.8778 6.05936 30.2479C4.66605 26.618 4.38055 22.6564 5.23894 18.8642C6.09734 15.072 8.06108 11.6195 10.8818 8.94349C13.7025 6.26745 17.2535 4.48803 21.0856 3.8303C24.9177 3.17257 28.8588 3.66608 32.4104 5.24839C37.1711 7.36939 40.8946 11.2942 42.7622 16.1599C44.6299 21.0256 44.4888 26.4338 42.3699 31.1955Z" fill="url(#paint2_linear_328_77409)"/>
<path d="M40.7967 30.6129C39.336 33.8959 36.9349 36.6723 33.8966 38.5909C30.8584 40.5095 27.3196 41.4844 23.7275 41.3921C20.1353 41.2999 16.6512 40.1447 13.7154 38.0727C10.7797 36.0006 8.52417 33.1047 7.23398 29.751C5.94378 26.3973 5.67684 22.7364 6.46689 19.231C7.25694 15.7256 9.06853 12.5332 11.6726 10.0572C14.2767 7.5812 17.5565 5.93285 21.0972 5.3205C24.638 4.70815 28.2808 5.1593 31.5652 6.61691C33.7477 7.58549 35.7179 8.97469 37.3631 10.7051C39.0084 12.4355 40.2965 14.4732 41.1539 16.7018C42.0112 18.9303 42.4209 21.3059 42.3596 23.6929C42.2983 26.0798 41.7672 28.4313 40.7967 30.6129Z" fill="url(#paint3_linear_328_77409)"/>
<path opacity="0.5" d="M4.77368 34.6901C6.88121 38.8079 10.3487 42.0696 14.5876 43.9215C24.3432 48.2606 29.7889 45.5232 29.7889 45.5232C20.3486 45.3503 11.3584 41.457 4.77368 34.6901Z" fill="white"/>
<path opacity="0.5" d="M43.9987 12.0918C41.9394 7.98991 38.523 4.72788 34.3304 2.86032C24.5748 -1.47875 19.1582 1.25865 19.1582 1.25865C28.5396 1.46786 37.4622 5.35907 43.9987 12.0918Z" fill="white"/>
<path d="M23.3952 11.3249C23.9878 11.0145 24.7111 11.7348 24.3957 12.3297C24.2129 12.8146 23.5196 12.9436 23.1655 12.574C22.7908 12.2191 22.9131 11.5179 23.3952 11.3249ZM17.0217 12.0152C17.3817 11.8662 17.8373 12.1977 17.8006 12.592C17.8387 13.02 17.318 13.3351 16.9511 13.1317C16.465 12.9425 16.5206 12.1494 17.0217 12.0153V12.0152ZM30.0753 13.1437C29.5128 13.0754 29.4238 12.1867 29.9654 12.0071C30.3855 11.8012 30.7708 12.1873 30.8322 12.5874C30.7441 12.929 30.4594 13.2419 30.0753 13.1431V13.1437ZM18.4717 14.7408C19.0735 14.3583 19.9322 14.9279 19.8396 15.6304C19.8084 16.3396 18.8709 16.7506 18.342 16.271C17.8309 15.8944 17.9081 15.0303 18.4717 14.741V14.7408ZM27.6584 15.1469C27.9272 14.4523 29.0151 14.4304 29.3207 15.108C29.6227 15.6347 29.2512 16.2871 28.7131 16.4661C28.0003 16.5998 27.3232 15.8254 27.6588 15.1474L27.6584 15.1469ZM22.6277 16.4264C22.6218 15.8287 23.1635 15.3834 23.7288 15.3427C24.1036 15.4182 24.5123 15.5788 24.6731 15.959C24.9729 16.4836 24.7067 17.2055 24.1652 17.4463C23.9175 17.5857 23.6247 17.5337 23.355 17.5172C22.9427 17.3138 22.5955 16.9149 22.6278 16.4265L22.6277 16.4264ZM13.1494 17.2972C13.6992 16.9575 14.4408 17.5774 14.2327 18.1775C14.1181 18.6966 13.4237 18.9078 13.0268 18.5764C12.6026 18.2659 12.6702 17.5193 13.1494 17.2972ZM33.5027 17.2961C33.9691 16.9322 34.7387 17.3497 34.6832 17.9409C34.7145 18.4806 34.049 18.8874 33.586 18.6096C33.0761 18.3794 33.0241 17.591 33.5027 17.2956V17.2961ZM25.2931 18.37C26.0628 18.0921 26.977 18.4246 27.4157 19.1142C27.9944 19.9572 27.6865 21.241 26.7884 21.7247C25.858 22.2968 24.4993 21.8121 24.1556 20.7677C23.7654 19.8329 24.3338 18.663 25.2931 18.37ZM20.7773 18.4625C21.6303 18.0582 22.7783 18.3969 23.1903 19.2742C23.6753 20.1277 23.3003 21.3162 22.4334 21.7568C21.5655 22.2522 20.341 21.8771 19.9213 20.9603C19.4499 20.0742 19.8681 18.8706 20.7773 18.4625ZM16.2555 20.016C16.3208 19.4637 16.8389 19.1044 17.362 19.0671C17.9256 19.1354 18.3759 19.5753 18.4371 20.149C18.4001 20.7164 17.9637 21.2712 17.3653 21.2677C16.707 21.3246 16.1298 20.6666 16.2555 20.0165V20.016ZM29.6112 19.1876C30.2871 18.7922 31.2256 19.3678 31.1956 20.1481C31.2419 20.9749 30.2032 21.5579 29.5302 21.0726C28.831 20.6688 28.8855 19.5317 29.6112 19.1877V19.1876ZM18.9395 22.1011C19.73 21.8825 20.6338 22.2569 21.0215 22.9871C21.4457 23.722 21.2726 24.743 20.6131 25.2821C19.7671 26.0728 18.207 25.7553 17.7567 24.6762C17.2394 23.687 17.8678 22.3614 18.9395 22.101V22.1011ZM27.5048 22.0969C28.2732 21.8761 29.176 22.1734 29.5891 22.8772C30.1353 23.6819 29.8746 24.882 29.0614 25.4007C28.2096 26.0029 26.8902 25.6867 26.4215 24.7449C25.8533 23.7708 26.4251 22.3941 27.5048 22.0969ZM13.8552 23.0149C14.5381 22.7554 15.295 23.5126 15.0183 24.1929C14.8494 24.8126 13.9803 25.0421 13.5312 24.5848C13.0059 24.1558 13.2004 23.2011 13.8553 23.0149H13.8552ZM32.3635 24.0022C32.3438 23.4339 32.7578 22.9301 33.3379 22.8984C33.8056 22.9729 34.2602 23.352 34.2233 23.8635C34.2661 24.5393 33.4559 24.9985 32.883 24.681C32.6145 24.5439 32.4768 24.2671 32.3635 24.0019V24.0022ZM10.498 23.3482C10.9087 23.1679 11.4169 23.5257 11.3232 23.9842C11.3014 24.5033 10.5385 24.7029 10.2584 24.2691C10.0108 23.9685 10.1589 23.504 10.498 23.3482ZM36.4 23.3372C36.6893 23.1302 37.1534 23.279 37.268 23.6186C37.4624 23.9896 37.1059 24.4977 36.6905 24.435C36.1073 24.4884 35.9184 23.5952 36.4 23.3372ZM21.171 25.8289C22.2519 25.5464 23.4139 26.4519 23.4208 27.5709C23.4914 28.7011 22.3469 29.7035 21.2403 29.4424C20.385 29.304 19.7139 28.4761 19.7416 27.6075C19.7394 26.7769 20.3632 26.0047 21.1711 25.8289H21.171ZM25.452 25.8267C26.5492 25.5185 27.7458 26.4405 27.7284 27.585C27.7863 28.6943 26.6775 29.6629 25.5942 29.4428C24.5746 29.3104 23.8224 28.1847 24.107 27.1904C24.2507 26.5279 24.8015 25.9892 25.452 25.8267ZM17.1979 26.5152C17.9571 26.385 18.6688 27.2364 18.361 27.9606C18.1364 28.7326 17.0184 28.942 16.5242 28.3114C15.9444 27.7058 16.3772 26.5988 17.1979 26.5152ZM29.7523 26.5502C30.4293 26.2653 31.2603 26.8537 31.2082 27.5922C31.2354 28.405 30.2094 28.9655 29.5474 28.491C28.7971 28.0648 28.9341 26.8116 29.7523 26.5502ZM33.2615 30.0873C32.9965 29.5907 33.4779 28.9326 34.0265 29.0245C34.2996 29.0199 34.4907 29.236 34.6654 29.4179C34.7013 29.7122 34.7616 30.0627 34.5185 30.29C34.1885 30.7098 33.4408 30.59 33.2615 30.0877V30.0873ZM13.1474 29.1628C13.6601 28.8198 14.398 29.3313 14.2827 29.9338C14.2214 30.4666 13.5541 30.7711 13.1136 30.4693C12.6416 30.1949 12.659 29.4135 13.1474 29.1634V29.1628ZM23.2774 30.2786C23.9488 29.9809 24.8039 30.5682 24.7402 31.3113C24.7901 32.1322 23.7322 32.7009 23.0764 32.2074C22.3477 31.7841 22.4689 30.5386 23.2779 30.2783L23.2774 30.2786ZM18.5849 31.3781C19.1566 31.0758 19.9239 31.5978 19.8718 32.2414C19.8892 32.7694 19.3765 33.2194 18.8579 33.1414C18.4285 33.1321 18.1485 32.7452 18.0108 32.3774C18.0178 31.9764 18.1821 31.5299 18.5849 31.3786V31.3781ZM28.0889 31.3879C28.6768 31.0228 29.5124 31.5472 29.4569 32.2349C29.472 32.9535 28.5276 33.4139 27.9801 32.9418C27.4501 32.5718 27.5148 31.6822 28.0889 31.3879ZM29.7419 35.4939C29.4809 35.0962 29.7882 34.6171 30.2129 34.5265C30.5544 34.5963 30.9154 34.8543 30.8436 35.2521C30.7938 35.7905 30.0103 35.9557 29.7419 35.4939ZM16.6224 35.1485C16.7265 34.8334 16.9788 34.5201 17.3481 34.6021C17.8863 34.6405 18.046 35.4556 17.5749 35.7069C17.1513 35.9939 16.6599 35.6009 16.6224 35.1485ZM22.9516 35.5102C23.0547 35.0439 23.6552 34.8172 24.0511 35.0648C24.3121 35.1777 24.389 35.4718 24.4562 35.7217C24.4203 35.8519 24.3882 35.9823 24.3567 36.1124C24.1946 36.3054 23.9869 36.4985 23.7167 36.4915C23.2155 36.5506 22.7634 35.9812 22.9516 35.5102Z" fill="#042D99"/>
<path opacity="0.3" d="M38.5539 17.6542C37.2434 20.5663 31.8268 21.0031 26.4103 18.586C20.9937 16.169 17.6739 11.859 18.9552 8.94689C20.2366 6.03475 25.6822 5.62706 31.0988 8.04413C36.5154 10.4612 39.8352 14.742 38.5539 17.6542Z" fill="url(#paint4_linear_328_77409)"/>
<path opacity="0.7" d="M30.2253 9.79121C35.0594 11.9462 38.2337 15.6155 37.9424 18.5276C38.1615 18.287 38.3387 18.0114 38.4666 17.7122C39.7771 14.8001 36.4281 10.4901 31.0407 8.07306C25.6532 5.65599 20.1784 6.06368 18.8971 8.97582C18.7519 9.28778 18.6632 9.62301 18.635 9.96594C20.557 7.89833 25.3912 7.63624 30.2253 9.79121Z" fill="url(#paint5_linear_328_77409)"/>
<defs>
<linearGradient id="paint0_linear_328_77409" x1="11.5045" y1="44.4487" x2="28.0498" y2="8.92911" gradientUnits="userSpaceOnUse">
<stop stop-color="#C8C8C8"/>
<stop offset="1" stop-color="#E4E4E4"/>
</linearGradient>
<linearGradient id="paint1_linear_328_77409" x1="12.0788" y1="43.1768" x2="27.8454" y2="9.31482" gradientUnits="userSpaceOnUse">
<stop stop-color="#E8E8E8"/>
<stop offset="0.99" stop-color="#F3F3F3"/>
</linearGradient>
<linearGradient id="paint2_linear_328_77409" x1="13.2815" y1="40.4354" x2="26.9175" y2="11.1606" gradientUnits="userSpaceOnUse">
<stop stop-color="#DCDCDC"/>
<stop offset="0.95" stop-color="#CDCDCD"/>
</linearGradient>
<linearGradient id="paint3_linear_328_77409" x1="13.6166" y1="39.4069" x2="26.2471" y2="12.2932" gradientUnits="userSpaceOnUse">
<stop stop-color="white"/>
<stop offset="1" stop-color="#EAEAEA"/>
</linearGradient>
<linearGradient id="paint4_linear_328_77409" x1="22.6714" y1="20.0872" x2="26.7667" y2="10.9976" gradientUnits="userSpaceOnUse">
<stop stop-color="#B9B9B9"/>
<stop offset="0.99" stop-color="white"/>
</linearGradient>
<linearGradient id="paint5_linear_328_77409" x1="24.5501" y1="15.7052" x2="26.95" y2="10.3786" gradientUnits="userSpaceOnUse">
<stop stop-color="#D0D0D0"/>
<stop offset="0.99" stop-color="white"/>
</linearGradient>
</defs>
</svg>
