<svg width="48" height="48" viewBox="0 0 48 48" fill="none" xmlns="http://www.w3.org/2000/svg">
<path d="M45.8172 33.547C43.9106 37.8836 40.7594 41.5564 36.7629 44.0999C32.7664 46.6433 28.1046 47.9428 23.3687 47.8337C18.6327 47.7245 14.0358 46.2115 10.1608 43.4866C6.28577 40.7617 3.30709 36.9475 1.60241 32.5276C-0.102278 28.1078 -0.456202 23.2813 0.585507 18.66C1.62722 14.0388 4.01764 9.83089 7.45374 6.56985C10.8898 3.30881 15.2168 1.14146 19.8862 0.342594C24.5556 -0.456277 29.357 0.149302 33.6818 2.08256C39.4501 4.66111 43.9639 9.41722 46.2376 15.3124C48.5113 21.2076 48.3602 27.7629 45.8172 33.547Z" fill="url(#paint0_linear_0_1)"/>
<path style="mix-blend-mode:screen" d="M44.9724 32.7283C43.148 36.8505 40.143 40.3397 36.337 42.7552C32.5309 45.1708 28.0944 46.4043 23.5877 46.3001C19.081 46.1959 14.7063 44.7586 11.0159 42.1698C7.32555 39.5809 4.48508 35.9565 2.85318 31.7544C1.22128 27.5523 0.871155 22.9608 1.84701 18.5598C2.82286 14.1588 5.08094 10.1457 8.33607 7.02719C11.5912 3.90869 15.6974 1.82467 20.1362 1.03832C24.575 0.251966 29.1472 0.79854 33.2755 2.60902C36.0246 3.8146 38.5086 5.55096 40.5852 7.71853C42.6618 9.8861 44.2901 12.4422 45.3767 15.2404C46.4634 18.0386 46.9871 21.0237 46.9177 24.0247C46.8483 27.0256 46.1872 29.9834 44.9724 32.7283Z" fill="url(#paint1_linear_0_1)"/>
<path d="M42.1935 31.3249C40.6063 34.8919 37.9968 37.9081 34.6951 39.992C31.3935 42.0758 27.548 43.1337 23.6451 43.0318C19.7422 42.93 15.9571 41.673 12.7686 39.4197C9.58019 37.1665 7.13157 34.0183 5.73249 30.3734C4.33341 26.7284 4.04672 22.7504 4.90868 18.9425C5.77063 15.1345 7.74252 11.6678 10.5749 8.98063C13.4073 6.2935 16.973 4.50671 20.821 3.84625C24.669 3.18579 28.6264 3.68134 32.1928 5.27022C36.9732 7.40001 40.7122 11.3411 42.5876 16.227C44.4629 21.1128 44.3212 26.5435 42.1935 31.3249Z" fill="url(#paint2_linear_0_1)"/>
<path d="M40.6122 30.7398C39.1455 34.0365 36.7344 36.8244 33.6836 38.7509C30.6328 40.6775 27.0793 41.6564 23.4722 41.5638C19.8652 41.4711 16.3666 40.3112 13.4187 38.2306C10.4708 36.1499 8.20593 33.242 6.91039 29.8744C5.61484 26.5068 5.34679 22.8307 6.14012 19.3108C6.93345 15.7909 8.75254 12.5852 11.3675 10.0989C13.9824 7.61267 17.2757 5.95749 20.8311 5.3426C24.3865 4.72771 28.0445 5.18073 31.3425 6.64439C33.534 7.61698 35.5124 9.01194 37.1645 10.7495C38.8166 12.4871 40.11 14.5333 40.9709 16.771C41.8318 19.0088 42.2432 21.3943 42.1817 23.7911C42.1201 26.188 41.5868 28.5492 40.6122 30.7398Z" fill="url(#paint3_linear_0_1)"/>
<path opacity="0.5" d="M4.44043 34.8339C6.55669 38.9687 10.0385 42.2439 14.295 44.1036C24.0911 48.4607 29.5594 45.7119 29.5594 45.7119C20.0799 45.5383 11.0524 41.6288 4.44043 34.8339Z" fill="white"/>
<path opacity="0.3" d="M38.3606 17.7272C37.0447 20.6514 31.6057 21.09 26.1667 18.6629C20.7277 16.2358 17.3941 11.908 18.6807 8.98378C19.9674 6.05957 25.4356 5.65019 30.8747 8.07728C36.3137 10.5044 39.6473 14.8029 38.3606 17.7272Z" fill="url(#paint4_linear_0_1)"/>
<path opacity="0.7" d="M29.9972 9.83161C34.8514 11.9955 38.0388 15.68 37.7464 18.6042C37.9663 18.3626 38.1442 18.0859 38.2727 17.7854C39.5886 14.8612 36.2258 10.5334 30.816 8.10633C25.4062 5.67924 19.9087 6.08863 18.6221 9.01283C18.4763 9.32609 18.3872 9.66271 18.3589 10.0071C20.2889 7.93088 25.143 7.6677 29.9972 9.83161Z" fill="url(#paint5_linear_0_1)"/>
<path opacity="0.5" d="M43.8282 12.1418C41.7604 8.02294 38.3299 4.74738 34.1199 2.87208C24.3238 -1.48498 18.8848 1.26377 18.8848 1.26377C28.3051 1.47384 37.2647 5.38119 43.8282 12.1418Z" fill="white"/>
<path d="M25.637 33.368C23.935 33.368 22.4017 33.0153 21.037 32.31C19.6723 31.5893 18.599 30.5927 17.817 29.32C17.0503 28.032 16.667 26.5753 16.667 24.95C16.667 23.3247 17.0503 21.8757 17.817 20.603C18.599 19.315 19.6723 18.3183 21.037 17.613C22.4017 16.8923 23.935 16.532 25.637 16.532C27.201 16.532 28.5963 16.808 29.823 17.36C31.0497 17.912 32.0617 18.7093 32.859 19.752L29.432 22.811C28.4353 21.5537 27.2623 20.925 25.913 20.925C24.7783 20.925 23.866 21.293 23.176 22.029C22.486 22.7497 22.141 23.7233 22.141 24.95C22.141 26.1767 22.486 27.158 23.176 27.894C23.866 28.6147 24.7783 28.975 25.913 28.975C27.2623 28.975 28.4353 28.3463 29.432 27.089L32.859 30.148C32.0617 31.1907 31.0497 31.988 29.823 32.54C28.5963 33.092 27.201 33.368 25.637 33.368Z" fill="#F57E06"/>
<path d="M24.637 32.368C22.935 32.368 21.4017 32.0153 20.037 31.31C18.6723 30.5893 17.599 29.5927 16.817 28.32C16.0503 27.032 15.667 25.5753 15.667 23.95C15.667 22.3247 16.0503 20.8757 16.817 19.603C17.599 18.315 18.6723 17.3183 20.037 16.613C21.4017 15.8923 22.935 15.532 24.637 15.532C26.201 15.532 27.5963 15.808 28.823 16.36C30.0497 16.912 31.0617 17.7093 31.859 18.752L28.432 21.811C27.4353 20.5537 26.2623 19.925 24.913 19.925C23.7783 19.925 22.866 20.293 22.176 21.029C21.486 21.7497 21.141 22.7233 21.141 23.95C21.141 25.1767 21.486 26.158 22.176 26.894C22.866 27.6147 23.7783 27.975 24.913 27.975C26.2623 27.975 27.4353 27.3463 28.432 26.089L31.859 29.148C31.0617 30.1907 30.0497 30.988 28.823 31.54C27.5963 32.092 26.201 32.368 24.637 32.368Z" fill="#F7F7F7"/>
<defs>
<linearGradient id="paint0_linear_0_1" x1="11.1984" y1="44.633" x2="27.8123" y2="8.96613" gradientUnits="userSpaceOnUse">
<stop stop-color="#FFB138"/>
<stop offset="1" stop-color="#F7931A"/>
</linearGradient>
<linearGradient id="paint1_linear_0_1" x1="11.7771" y1="43.3558" x2="27.609" y2="9.3534" gradientUnits="userSpaceOnUse">
<stop stop-color="#E37F06"/>
<stop offset="0.99" stop-color="#F7931A"/>
</linearGradient>
<linearGradient id="paint2_linear_0_1" x1="12.9845" y1="40.6031" x2="26.6771" y2="11.2069" gradientUnits="userSpaceOnUse">
<stop stop-color="#FFAC1C"/>
<stop offset="0.95" stop-color="#FF6100"/>
</linearGradient>
<linearGradient id="paint3_linear_0_1" x1="13.3194" y1="39.5704" x2="26.0023" y2="12.3442" gradientUnits="userSpaceOnUse">
<stop stop-color="#F7931A"/>
<stop offset="1" stop-color="#FFBB42"/>
</linearGradient>
<linearGradient id="paint4_linear_0_1" x1="22.4123" y1="20.1703" x2="26.5246" y2="11.043" gradientUnits="userSpaceOnUse">
<stop stop-color="#FFCD25"/>
<stop offset="0.99" stop-color="white"/>
</linearGradient>
<linearGradient id="paint5_linear_0_1" x1="24.2985" y1="15.7701" x2="26.7084" y2="10.4214" gradientUnits="userSpaceOnUse">
<stop stop-color="#FFCD25"/>
<stop offset="0.99" stop-color="white"/>
</linearGradient>
</defs>
</svg>
