<svg width="48" height="48" viewBox="0 0 48 48" fill="none" xmlns="http://www.w3.org/2000/svg">
<path d="M45.9835 33.4108C44.0847 37.7298 40.9462 41.3877 36.9659 43.9208C32.9856 46.454 28.3428 47.7482 23.6261 47.6395C18.9094 47.5307 14.3312 46.0239 10.4719 43.31C6.61255 40.5962 3.64596 36.7975 1.9482 32.3956C0.250432 27.9937 -0.102055 23.1868 0.935425 18.5843C1.9729 13.9818 4.35363 9.79098 7.77577 6.54317C11.1979 3.29537 15.5074 1.13683 20.1578 0.341203C24.8082 -0.454424 29.5901 0.148696 33.8973 2.0741C39.6422 4.64219 44.1377 9.37899 46.4022 15.2502C48.6666 21.1215 48.5161 27.6502 45.9835 33.4108Z" fill="url(#paint0_linear_328_77424)"/>
<path style="mix-blend-mode:screen" d="M45.141 32.5954C43.3241 36.7009 40.3313 40.1759 36.5407 42.5817C32.7501 44.9874 28.3316 46.2159 23.8432 46.1121C19.3548 46.0083 14.9978 44.5769 11.3224 41.9985C7.64706 39.4202 4.81812 35.8106 3.19285 31.6255C1.56758 27.4404 1.21887 22.8676 2.19076 18.4845C3.16265 14.1013 5.41156 10.1045 8.65348 6.99865C11.8954 3.89281 15.985 1.81725 20.4057 1.03409C24.8264 0.250931 29.3801 0.795286 33.4917 2.59841C36.2296 3.7991 38.7035 5.52841 40.7717 7.68718C42.8398 9.84595 44.4615 12.3917 45.5438 15.1785C46.626 17.9653 47.1475 20.9384 47.0784 23.9271C47.0093 26.9159 46.3509 29.8616 45.141 32.5954Z" fill="url(#paint1_linear_328_77424)"/>
<path d="M42.3734 31.1976C40.7926 34.7502 38.1937 37.7541 34.9055 39.8295C31.6172 41.9049 27.7874 42.9585 23.9003 42.8571C20.0132 42.7556 16.2435 41.5037 13.068 39.2596C9.8925 37.0156 7.45382 33.8801 6.06042 30.25C4.66702 26.6198 4.3815 22.6579 5.23995 18.8655C6.09841 15.073 8.06229 11.6203 10.8832 8.94411C13.7041 6.26788 17.2553 4.48834 21.0877 3.83057C24.92 3.17279 28.8614 3.66633 32.4133 5.24875C37.1743 7.3699 40.8981 11.295 42.7658 16.161C44.6336 21.0271 44.4925 26.4357 42.3734 31.1976Z" fill="url(#paint2_linear_328_77424)"/>
<path d="M40.8003 30.615C39.3396 33.8983 36.9382 36.6748 33.8998 38.5936C30.8614 40.5124 27.3223 41.4872 23.7299 41.395C20.1375 41.3027 16.6531 40.1475 13.7172 38.0753C10.7812 36.0032 8.52557 33.107 7.23528 29.7531C5.94499 26.3992 5.67803 22.738 6.46814 19.2324C7.25825 15.7267 9.06996 12.5341 11.6742 10.0579C14.2785 7.58174 17.5585 5.93328 21.0995 5.32089C24.6405 4.7085 28.2836 5.15967 31.5682 6.61739C33.7508 7.58603 35.7211 8.97533 37.3665 10.7059C39.0119 12.4364 40.3001 14.4743 41.1575 16.7029C42.0149 18.9316 42.4247 21.3074 42.3634 23.6945C42.3021 26.0816 41.7709 28.4333 40.8003 30.615Z" fill="url(#paint3_linear_328_77424)"/>
<path opacity="0.5" d="M4.7749 34.6924C6.88257 38.8105 10.3503 42.0724 14.5895 43.9245C24.3458 48.2639 29.7918 45.5263 29.7918 45.5263C20.3509 45.3533 11.3601 41.4597 4.7749 34.6924Z" fill="white"/>
<path opacity="0.5" d="M44.0024 12.0926C41.943 7.99044 38.5263 4.72818 34.3334 2.86049C24.5771 -1.47888 19.1602 1.25871 19.1602 1.25871C28.5422 1.46793 37.4654 5.35942 44.0024 12.0926Z" fill="white"/>
<path d="M28.8214 12.1077C28.8214 13.6507 26.5362 14.9069 23.7224 14.9069C20.9114 14.9069 18.6248 13.6507 18.6248 12.1064C18.6248 10.5661 20.9201 9.30859 23.7238 9.30859C26.5275 9.30859 28.8214 10.5647 28.8214 12.1077ZM28.8228 33.6988C28.8228 35.2418 26.5377 36.498 23.7238 36.498C20.9129 36.498 18.6263 35.2418 18.6263 33.6988C18.6263 32.1558 20.9215 30.8997 23.7253 30.8997C26.529 30.8997 28.8243 32.1558 28.8243 33.7002M16.3743 19.0247C17.8188 16.6824 17.826 14.1469 16.4076 13.3788C14.9804 12.6039 12.6693 13.8818 11.2248 16.2256C9.78031 18.5693 9.78031 21.1047 11.1901 21.8714C12.6187 22.6395 14.9299 21.3684 16.3743 19.0247ZM36.2387 23.927C37.6673 24.6869 37.6587 27.1734 36.2229 29.4763C34.7784 31.7793 32.4585 33.0273 31.0401 32.2673C29.6028 31.5074 29.6115 29.0209 31.0473 26.718C32.4918 24.415 34.8116 23.167 36.2387 23.927ZM16.4162 32.2836C17.8434 31.5237 17.8347 29.0372 16.3902 26.7343C14.9544 24.4313 12.6346 23.1833 11.2074 23.9433C9.77164 24.71 9.78031 27.1897 11.2248 29.4926C12.6606 31.7956 14.9804 33.0517 16.4076 32.2918L16.4162 32.2836ZM36.2387 16.2337C37.6832 18.5775 37.6832 21.1047 36.2647 21.8714C34.8463 22.6463 32.5264 21.3766 31.082 19.0247C29.6548 16.6824 29.6375 14.1551 31.056 13.387C32.4831 12.6121 34.7957 13.8832 36.2387 16.2337Z" fill="#E6007A"/>
<path opacity="0.3" d="M38.5572 17.6551C37.2466 20.5674 31.8297 21.0042 26.4128 18.587C20.9958 16.1698 17.6758 11.8595 18.9572 8.94718C20.2386 6.03485 25.6847 5.62712 31.1016 8.04436C36.5186 10.4616 39.8386 14.7427 38.5572 17.6551Z" fill="url(#paint4_linear_328_77424)"/>
<path opacity="0.7" d="M30.2276 9.79169C35.062 11.9468 38.2365 15.6164 37.9452 18.5287C38.1643 18.2881 38.3415 18.0124 38.4695 17.7132C39.78 14.8009 36.4308 10.4906 31.043 8.07341C25.6552 5.65617 20.18 6.0639 18.8986 8.97623C18.7534 9.28822 18.6647 9.62347 18.6365 9.96643C20.5586 7.89867 25.3931 7.63656 30.2276 9.79169Z" fill="url(#paint5_linear_328_77424)"/>
<defs>
<linearGradient id="paint0_linear_328_77424" x1="11.5052" y1="44.4518" x2="28.0517" y2="8.92973" gradientUnits="userSpaceOnUse">
<stop stop-color="#A00034"/>
<stop offset="1" stop-color="#BE0052"/>
</linearGradient>
<linearGradient id="paint1_linear_328_77424" x1="12.0805" y1="43.1797" x2="27.8482" y2="9.31542" gradientUnits="userSpaceOnUse">
<stop stop-color="#BE608B"/>
<stop offset="0.99" stop-color="#B06782"/>
</linearGradient>
<linearGradient id="paint2_linear_328_77424" x1="13.283" y1="40.4382" x2="26.92" y2="11.1614" gradientUnits="userSpaceOnUse">
<stop stop-color="#C65E9F"/>
<stop offset="0.95" stop-color="#A5426D"/>
</linearGradient>
<linearGradient id="paint3_linear_328_77424" x1="13.6183" y1="39.4097" x2="26.2497" y2="12.2941" gradientUnits="userSpaceOnUse">
<stop stop-color="#C56BC2"/>
<stop offset="1" stop-color="#BD65A2"/>
</linearGradient>
<linearGradient id="paint4_linear_328_77424" x1="22.6736" y1="20.0883" x2="26.7692" y2="10.998" gradientUnits="userSpaceOnUse">
<stop stop-color="#B9B9B9"/>
<stop offset="0.99" stop-color="white"/>
</linearGradient>
<linearGradient id="paint5_linear_328_77424" x1="24.552" y1="15.7061" x2="26.9521" y2="10.3791" gradientUnits="userSpaceOnUse">
<stop stop-color="#D0D0D0"/>
<stop offset="0.99" stop-color="white"/>
</linearGradient>
</defs>
</svg>
