<svg width="48" height="48" viewBox="0 0 48 48" fill="none" xmlns="http://www.w3.org/2000/svg">
<path d="M45.9803 33.4085C44.0816 37.7272 40.9434 41.3849 36.9634 43.9178C32.9834 46.4508 28.3409 47.7449 23.6245 47.6362C18.9081 47.5274 14.3302 46.0207 10.4712 43.307C6.61211 40.5934 3.64573 36.7949 1.94809 32.3933C0.250439 27.9917 -0.102023 23.1852 0.935384 18.583C1.97279 13.9808 4.35335 9.7903 7.77526 6.54272C11.1972 3.29514 15.5063 1.13675 20.1564 0.341179C24.8065 -0.454393 29.5881 0.148685 33.895 2.07396C39.6395 4.64187 44.1347 9.37834 46.399 15.2492C48.6633 21.12 48.5128 27.6483 45.9803 33.4085Z" fill="url(#paint0_linear_328_77427)"/>
<path d="M45.1371 32.5932C43.3202 36.6984 40.3276 40.1732 36.5373 42.5788C32.7469 44.9843 28.3287 46.2128 23.8407 46.109C19.3526 46.0052 14.9959 44.5739 11.3208 41.9957C7.64567 39.4175 4.81692 35.8081 3.19176 31.6233C1.5666 27.4386 1.21792 22.8661 2.18975 18.4832C3.16157 14.1004 5.41032 10.1038 8.65202 6.99821C11.8937 3.89259 15.983 1.81718 20.4034 1.03407C24.8239 0.250961 29.3772 0.795278 33.4885 2.59828C36.2262 3.79889 38.7 5.52807 40.768 7.68669C42.836 9.84531 44.4576 12.3909 45.5398 15.1775C46.6219 17.9641 47.1434 20.937 47.0743 23.9255C47.0052 26.9141 46.3469 29.8596 45.1371 32.5932Z" fill="url(#paint1_linear_328_77427)" style="mix-blend-mode:screen"/>
<path d="M42.3699 31.1955C40.7891 34.7478 38.1904 37.7515 34.9024 39.8268C31.6144 41.902 27.7848 42.9555 23.898 42.8541C20.0112 42.7527 16.2417 41.5008 13.0665 39.2569C9.89117 37.013 7.45266 33.8778 6.05936 30.2479C4.66605 26.618 4.38055 22.6564 5.23894 18.8642C6.09734 15.072 8.06108 11.6195 10.8818 8.94349C13.7025 6.26745 17.2535 4.48803 21.0856 3.8303C24.9177 3.17257 28.8588 3.66608 32.4104 5.24839C37.1711 7.36939 40.8946 11.2942 42.7622 16.1599C44.6299 21.0256 44.4888 26.4338 42.3699 31.1955Z" fill="url(#paint2_linear_328_77427)"/>
<path d="M40.7967 30.6129C39.336 33.8959 36.9349 36.6723 33.8966 38.5909C30.8584 40.5095 27.3196 41.4844 23.7275 41.3921C20.1353 41.2999 16.6512 40.1447 13.7154 38.0727C10.7797 36.0006 8.52417 33.1047 7.23398 29.751C5.94378 26.3973 5.67684 22.7364 6.46689 19.231C7.25694 15.7256 9.06853 12.5332 11.6726 10.0572C14.2767 7.5812 17.5565 5.93285 21.0972 5.3205C24.638 4.70815 28.2808 5.1593 31.5652 6.61691C33.7477 7.58549 35.7179 8.97469 37.3631 10.7051C39.0084 12.4355 40.2965 14.4732 41.1539 16.7018C42.0112 18.9303 42.4209 21.3059 42.3596 23.6929C42.2983 26.0798 41.7672 28.4313 40.7967 30.6129Z" fill="url(#paint3_linear_328_77427)"/>
<path opacity="0.5" d="M4.77368 34.6901C6.88121 38.8079 10.3487 42.0696 14.5876 43.9215C24.3432 48.2606 29.7889 45.5232 29.7889 45.5232C20.3486 45.3503 11.3584 41.457 4.77368 34.6901Z" fill="#5F5F5F"/>
<path opacity="0.5" d="M43.9987 12.0918C41.9394 7.98991 38.523 4.72788 34.3304 2.86032C24.5748 -1.47875 19.1582 1.25865 19.1582 1.25865C28.5396 1.46786 37.4622 5.35907 43.9987 12.0918Z" fill="#5F5F5F"/>
<path fill-rule="evenodd" clip-rule="evenodd" d="M13.9193 21.8131H32.5369C32.7703 21.8131 32.9916 21.9171 33.1526 22.1024L36.0979 25.4344C36.6411 26.0492 36.2548 27.0981 35.4823 27.0981H16.8646C16.6312 27.0981 16.4099 26.9941 16.249 26.8088L13.3036 23.4768C12.7564 22.8619 13.1467 21.8131 13.9193 21.8131ZM13.3036 17.3961L16.249 14.0641C16.414 13.8788 16.6353 13.7748 16.8646 13.7748H35.4783C36.2508 13.7748 36.6411 14.8236 36.0939 15.4385L33.1526 18.7705C32.9876 18.9558 32.7663 19.0598 32.5369 19.0598H13.9193C13.1467 19.0598 12.7564 18.0109 13.3036 17.3961ZM36.0939 31.5151L33.1485 34.847C32.9836 35.0324 32.7623 35.1364 32.5329 35.1364H13.9193C13.1467 35.1364 12.7564 34.0875 13.3036 33.4727L16.249 30.1407C16.414 29.9554 16.6353 29.8514 16.8646 29.8514H35.4783C36.2508 29.8514 36.6411 30.9002 36.0939 31.5151Z" fill="url(#paint4_linear_328_77427)"/>
<path fill-rule="evenodd" clip-rule="evenodd" d="M12.9483 21.2304H31.566C31.7994 21.2304 32.0207 21.3344 32.1816 21.5198L35.127 24.8517C35.6702 25.4666 35.2839 26.5155 34.5113 26.5155H15.8937C15.6603 26.5155 15.439 26.4115 15.278 26.2261L12.3327 22.8942C11.7855 22.2793 12.1758 21.2304 12.9483 21.2304ZM12.3327 16.8134L15.278 13.4815C15.443 13.2961 15.6643 13.1921 15.8937 13.1921H34.5073C35.2799 13.1921 35.6702 14.241 35.1229 14.8559L32.1816 18.1878C32.0166 18.3732 31.7953 18.4772 31.566 18.4772H12.9483C12.1758 18.4772 11.7855 17.4283 12.3327 16.8134ZM35.1229 30.9324L32.1776 34.2644C32.0126 34.4498 31.7913 34.5537 31.562 34.5537H12.9483C12.1758 34.5537 11.7855 33.5049 12.3327 32.89L15.278 29.5581C15.443 29.3727 15.6643 29.2687 15.8937 29.2687H34.5073C35.2799 29.2687 35.6702 30.3176 35.1229 30.9324Z" fill="url(#paint5_linear_328_77427)"/>
<path opacity="0.3" d="M38.5539 17.6542C37.2434 20.5663 31.8268 21.0031 26.4103 18.586C20.9937 16.169 17.6739 11.859 18.9552 8.94689C20.2366 6.03475 25.6822 5.62706 31.0988 8.04413C36.5154 10.4612 39.8352 14.742 38.5539 17.6542Z" fill="url(#paint6_linear_328_77427)"/>
<path opacity="0.7" d="M30.2253 9.79121C35.0594 11.9462 38.2337 15.6155 37.9424 18.5276C38.1615 18.287 38.3387 18.0114 38.4666 17.7122C39.7771 14.8001 36.4281 10.4901 31.0407 8.07306C25.6532 5.65599 20.1784 6.06368 18.8971 8.97582C18.7519 9.28778 18.6632 9.62301 18.635 9.96594C20.557 7.89833 25.3912 7.63624 30.2253 9.79121Z" fill="url(#paint7_linear_328_77427)"/>
<defs>
<linearGradient id="paint0_linear_328_77427" x1="11.5045" y1="44.4487" x2="28.0498" y2="8.92911" gradientUnits="userSpaceOnUse">
<stop stop-color="#0F0F0F"/>
<stop offset="1" stop-color="#4E4E4E"/>
</linearGradient>
<linearGradient id="paint1_linear_328_77427" x1="12.0788" y1="43.1768" x2="27.8454" y2="9.31482" gradientUnits="userSpaceOnUse">
<stop stop-color="#0A0A0A"/>
<stop offset="0.99"/>
</linearGradient>
<linearGradient id="paint2_linear_328_77427" x1="13.2815" y1="40.4354" x2="26.9175" y2="11.1606" gradientUnits="userSpaceOnUse">
<stop stop-color="#3A3A3A"/>
<stop offset="0.95" stop-color="#393939"/>
</linearGradient>
<linearGradient id="paint3_linear_328_77427" x1="13.6166" y1="39.4069" x2="26.2471" y2="12.2932" gradientUnits="userSpaceOnUse">
<stop stop-color="#212121"/>
<stop offset="1"/>
</linearGradient>
<linearGradient id="paint4_linear_328_77427" x1="14.3747" y1="36.0555" x2="37.418" y2="15.5468" gradientUnits="userSpaceOnUse">
<stop stop-color="#5D3E64"/>
<stop offset="1" stop-color="#445F57"/>
</linearGradient>
<linearGradient id="paint5_linear_328_77427" x1="13.4038" y1="35.4729" x2="36.447" y2="14.9642" gradientUnits="userSpaceOnUse">
<stop stop-color="#CB4EE8"/>
<stop offset="1" stop-color="#10F4B1"/>
</linearGradient>
<linearGradient id="paint6_linear_328_77427" x1="22.6714" y1="20.0872" x2="26.7667" y2="10.9976" gradientUnits="userSpaceOnUse">
<stop stop-color="#B9B9B9"/>
<stop offset="0.99" stop-color="white"/>
</linearGradient>
<linearGradient id="paint7_linear_328_77427" x1="24.5501" y1="15.7052" x2="26.95" y2="10.3786" gradientUnits="userSpaceOnUse">
<stop stop-color="#767676"/>
<stop offset="0.99" stop-color="#737373"/>
</linearGradient>
</defs>
</svg>
