<svg width="48" height="48" viewBox="0 0 48 48" fill="none" xmlns="http://www.w3.org/2000/svg">
<path d="M44.7387 34.4891C42.8589 38.5277 39.7688 41.9428 35.8591 44.3025C31.9493 46.6621 27.3955 47.8605 22.7734 47.746C18.1513 47.6315 13.6685 46.2093 9.89182 43.6592C6.11514 41.1091 3.21417 37.5456 1.55572 33.4193C-0.102737 29.293 -0.444194 24.7893 0.574521 20.4775C1.59324 16.1657 3.92637 12.2395 7.27892 9.19533C10.6315 6.15118 14.8529 4.12578 19.4094 3.37522C23.9659 2.62466 28.6529 3.18266 32.8777 4.97865C35.6836 6.17142 38.2162 7.88098 40.3308 10.0097C42.4455 12.1384 44.1008 14.6445 45.2023 17.3849C46.3037 20.1253 46.8297 23.0463 46.7501 25.9811C46.6706 28.9158 45.9871 31.8069 44.7387 34.4891Z" fill="#464141"/>
<path style="mix-blend-mode:multiply" d="M44.7387 34.7352C42.8589 38.7738 39.7688 42.1889 35.8591 44.5485C31.9493 46.9082 27.3955 48.1066 22.7734 47.9921C18.1513 47.8776 13.6685 46.4554 9.89182 43.9053C6.11514 41.3552 3.21417 37.7917 1.55572 33.6654C-0.102737 29.5391 -0.444194 25.0354 0.574521 20.7236C1.59324 16.4118 3.92637 12.4856 7.27892 9.44142C10.6315 6.39727 14.8529 4.37187 19.4094 3.62131C23.9659 2.87076 28.6529 3.42875 32.8777 5.22474C35.6836 6.41752 38.2162 8.12707 40.3308 10.2558C42.4455 12.3844 44.1008 14.8906 45.2023 17.631C46.3037 20.3714 46.8297 23.2924 46.7501 26.2272C46.6706 29.1619 45.9871 32.053 44.7387 34.7352Z" fill="url(#paint0_linear_24_8006)"/>
<path style="mix-blend-mode:multiply" d="M43.9648 32.3307C41.695 37.648 37.3126 41.8879 31.7783 44.1211C26.244 46.3543 20.0093 46.3986 14.441 44.2441C9.03393 41.7389 4.88869 37.2836 2.91643 31.8574C0.94417 26.4313 1.30632 20.4785 3.92328 15.3075C6.19305 9.99022 10.5754 5.75024 16.1097 3.51703C21.644 1.28382 27.8787 1.2396 33.4471 3.39405C38.8541 5.89924 42.9994 10.3546 44.9716 15.7807C46.9439 21.2069 46.5817 27.1597 43.9648 32.3307Z" fill="url(#paint1_linear_24_8006)"/>
<path d="M46.0229 31.347C44.1594 35.3992 41.0794 38.8312 37.1733 41.2079C33.2672 43.5845 28.7109 44.7988 24.0821 44.6968C19.4532 44.5948 14.9603 43.181 11.1729 40.6348C7.38554 38.0885 4.47424 34.5245 2.80811 30.3945C1.14198 26.2645 0.79606 21.7545 1.81421 17.4362C2.83235 13.118 5.16872 9.1861 8.52709 6.1389C11.8855 3.0917 16.1146 1.06649 20.6784 0.320006C25.2421 -0.426478 29.9349 0.139389 34.1619 1.94587C39.7998 4.35533 44.2115 8.79955 46.4338 14.3081C48.656 19.8167 48.5083 25.9422 46.0229 31.347Z" fill="url(#paint2_linear_24_8006)"/>
<path style="mix-blend-mode:screen" d="M45.1962 30.5819C43.413 34.4338 40.476 37.6941 36.7561 39.9513C33.0361 42.2084 28.6999 43.361 24.2952 43.2637C19.8904 43.1663 15.6146 41.8233 12.0077 39.4042C8.40083 36.9851 5.6246 33.5984 4.02961 29.6718C2.43463 25.7453 2.09242 21.4549 3.0462 17.3425C3.99998 13.2301 6.20698 9.48013 9.3885 6.56612C12.57 3.65212 16.5834 1.70476 20.9217 0.969976C25.2601 0.235189 29.7289 0.74592 33.7639 2.43767C36.4507 3.5642 38.8786 5.18669 40.9082 7.21212C42.9378 9.23755 44.5293 11.6261 45.5914 14.2407C46.6535 16.8554 47.1653 19.6448 47.0975 22.449C47.0296 25.2531 46.3835 28.0169 45.1962 30.5819Z" fill="url(#paint3_linear_24_8006)"/>
<path d="M42.4801 29.2704C40.9287 32.6035 38.3782 35.4219 35.1513 37.3691C31.9243 39.3163 28.1658 40.3048 24.3512 40.2096C20.5365 40.1145 16.8371 38.9399 13.7207 36.8344C10.6044 34.729 8.21115 31.7872 6.84371 28.3813C5.47628 24.9753 5.19607 21.2582 6.03853 17.7C6.88099 14.1417 8.80828 10.9023 11.5766 8.3914C14.345 5.88047 17.83 4.21085 21.591 3.59371C25.3519 2.97656 29.2198 3.43961 32.7055 4.9243C37.3778 6.91443 41.0322 10.5971 42.8652 15.1626C44.6982 19.728 44.5596 24.8025 42.4801 29.2704Z" fill="url(#paint4_linear_24_8006)"/>
<path d="M40.9362 28.7238C39.5027 31.8042 37.1461 34.4093 34.1643 36.2095C31.1825 38.0098 27.7093 38.9244 24.1839 38.8379C20.6585 38.7513 17.239 37.6675 14.3578 35.7233C11.4765 33.7791 9.26288 31.0619 7.99663 27.9151C6.73039 24.7683 6.4684 21.3333 7.24379 18.0442C8.01918 14.7551 9.79713 11.7596 12.3529 9.43639C14.9087 7.11318 18.1275 5.56653 21.6025 4.99197C25.0775 4.4174 28.6527 4.84071 31.8761 6.20839C34.0181 7.1172 35.9517 8.42069 37.5664 10.0443C39.1812 11.668 40.4454 13.58 41.2868 15.671C42.1282 17.762 42.5303 19.991 42.4702 22.2307C42.41 24.4704 41.8888 26.6768 40.9362 28.7238Z" fill="url(#paint5_linear_24_8006)"/>
<path opacity="0.5" d="M5.58203 32.5493C7.65043 36.413 11.0535 39.4735 15.2137 41.2112C24.7882 45.2825 30.1328 42.714 30.1328 42.714C20.8678 42.5518 12.0445 38.8987 5.58203 32.5493Z" fill="white"/>
<path opacity="0.5" d="M44.0788 11.3454C42.0577 7.49662 38.7048 4.43587 34.59 2.68354C25.0155 -1.38781 19.6995 1.1807 19.6995 1.1807C28.9067 1.37699 37.6637 5.02811 44.0788 11.3454Z" fill="white"/>
<path d="M37.303 17.5484L26.2259 34.4129C26.022 34.7216 25.7022 34.9441 25.3322 35.0344C24.9621 35.1248 24.5699 35.0763 24.2361 34.8988C24.0147 34.7802 23.8278 34.6107 23.6923 34.4056L12.8324 17.5411C12.5282 17.0684 12.3676 16.5241 12.3687 15.9692C12.3824 15.1498 12.7355 14.3692 13.3505 13.7985C13.9656 13.2278 14.7923 12.9136 15.6494 12.925H34.5153C36.3158 12.925 37.7808 14.2831 37.7808 15.9619C37.7808 16.5207 37.6156 17.0697 37.3018 17.5484M15.4982 16.9847L23.5792 28.8954V15.7833H16.3431C15.5071 15.7833 15.1322 16.3129 15.4994 16.9847M26.569 28.8954L34.65 16.9847C35.0223 16.3129 34.6411 15.7833 33.8051 15.7833H26.569V28.8954Z" fill="#3B3B3B"/>
<path d="M36.4134 16.8581L25.3362 33.7226C25.1324 34.0313 24.8126 34.2538 24.4425 34.3441C24.0725 34.4345 23.6803 34.386 23.3465 34.2085C23.1251 34.0899 22.9382 33.9204 22.8027 33.7153L11.9428 16.8508C11.6385 16.3781 11.4779 15.8338 11.479 15.2789C11.4927 14.4595 11.8458 13.6789 12.4609 13.1082C13.076 12.5374 13.9027 12.2233 14.7597 12.2347H33.6257C35.4261 12.2347 36.8911 13.5928 36.8911 15.2716C36.8911 15.8304 36.726 16.3794 36.4121 16.8581M14.6085 16.2944L22.6896 28.2051V15.093H15.4535C14.6174 15.093 14.2426 15.6226 14.6098 16.2944M25.6793 28.2051L33.7604 16.2944C34.1327 15.6226 33.7515 15.093 32.9154 15.093H25.6793V28.2051Z" fill="#FEFEFE"/>
<path opacity="0.3" d="M38.7347 16.5645C37.4486 19.2969 32.1326 19.7068 26.8166 17.4389C21.5006 15.1709 18.2424 11.1269 19.4999 8.39445C20.7575 5.66201 26.1021 5.27946 31.4181 7.54739C36.7341 9.81533 39.9923 13.832 38.7347 16.5645Z" fill="url(#paint6_linear_24_8006)"/>
<path opacity="0.7" d="M30.5606 9.18676C35.305 11.2088 38.4203 14.6517 38.1345 17.3841C38.3495 17.1583 38.5234 16.8997 38.649 16.619C39.9351 13.8866 36.6483 9.84255 31.3609 7.57462C26.0735 5.30668 20.7003 5.68923 19.4428 8.42167C19.3003 8.71439 19.2132 9.02893 19.1855 9.35071C21.0719 7.41067 25.8163 7.16475 30.5606 9.18676Z" fill="url(#paint7_linear_24_8006)"/>
<defs>
<linearGradient id="paint0_linear_24_8006" x1="10.8855" y1="45.0032" x2="25.9586" y2="11.1564" gradientUnits="userSpaceOnUse">
<stop stop-color="#2AABEE"/>
<stop offset="1" stop-color="#2AABEE"/>
</linearGradient>
<linearGradient id="paint1_linear_24_8006" x1="11.4603" y1="43.2476" x2="26.5225" y2="9.42609" gradientUnits="userSpaceOnUse">
<stop stop-color="#FFAC1C"/>
<stop offset="1" stop-color="#F9D445"/>
</linearGradient>
<linearGradient id="paint2_linear_24_8006" x1="12.1871" y1="41.706" x2="27.2602" y2="7.85924" gradientUnits="userSpaceOnUse">
<stop stop-color="#0C8DD0"/>
<stop offset="1" stop-color="#0283C6"/>
</linearGradient>
<linearGradient id="paint3_linear_24_8006" x1="12.7517" y1="40.5124" x2="27.1152" y2="8.24553" gradientUnits="userSpaceOnUse">
<stop stop-color="#0C8DD0"/>
<stop offset="0.99" stop-color="#0C8DD0"/>
</linearGradient>
<linearGradient id="paint4_linear_24_8006" x1="13.9317" y1="37.9402" x2="26.3545" y2="10.0441" gradientUnits="userSpaceOnUse">
<stop stop-color="#2AABEE"/>
<stop offset="0.95" stop-color="#1697DA"/>
</linearGradient>
<linearGradient id="paint5_linear_24_8006" x1="14.2607" y1="36.9752" x2="25.7674" y2="11.1384" gradientUnits="userSpaceOnUse">
<stop stop-color="#0283C6"/>
<stop offset="1" stop-color="#0283B9"/>
</linearGradient>
<linearGradient id="paint6_linear_24_8006" x1="23.1471" y1="18.8474" x2="26.8749" y2="10.1931" gradientUnits="userSpaceOnUse">
<stop stop-color="#B9B9B9"/>
<stop offset="0.99" stop-color="white"/>
</linearGradient>
<linearGradient id="paint7_linear_24_8006" x1="24.9909" y1="14.7358" x2="27.1754" y2="9.66432" gradientUnits="userSpaceOnUse">
<stop stop-color="#D0D0D0"/>
<stop offset="0.99" stop-color="white"/>
</linearGradient>
</defs>
</svg>
