<svg width="48" height="48" viewBox="0 0 48 48" fill="none" xmlns="http://www.w3.org/2000/svg">
<path d="M45.9803 33.4085C44.0816 37.7272 40.9434 41.3849 36.9634 43.9178C32.9834 46.4508 28.3409 47.7449 23.6245 47.6362C18.9081 47.5274 14.3302 46.0207 10.4712 43.307C6.61211 40.5934 3.64573 36.7949 1.94809 32.3933C0.250439 27.9917 -0.102023 23.1852 0.935384 18.583C1.97279 13.9808 4.35335 9.7903 7.77526 6.54272C11.1972 3.29514 15.5063 1.13675 20.1564 0.341179C24.8065 -0.454393 29.5881 0.148685 33.895 2.07396C39.6395 4.64187 44.1347 9.37834 46.399 15.2492C48.6633 21.12 48.5128 27.6483 45.9803 33.4085Z" fill="url(#paint0_linear_328_77301)"/>
<path style="mix-blend-mode:screen" d="M45.1371 32.5932C43.3202 36.6984 40.3276 40.1732 36.5373 42.5788C32.7469 44.9843 28.3287 46.2128 23.8407 46.109C19.3526 46.0052 14.9959 44.5739 11.3208 41.9957C7.64567 39.4175 4.81692 35.8081 3.19176 31.6233C1.5666 27.4386 1.21792 22.8661 2.18975 18.4832C3.16157 14.1004 5.41032 10.1038 8.65202 6.99821C11.8937 3.89259 15.983 1.81718 20.4034 1.03407C24.8239 0.250961 29.3772 0.795278 33.4885 2.59828C36.2262 3.79889 38.7 5.52807 40.768 7.68669C42.836 9.84531 44.4576 12.3909 45.5398 15.1775C46.6219 17.9641 47.1434 20.937 47.0743 23.9255C47.0052 26.9141 46.3469 29.8596 45.1371 32.5932Z" fill="url(#paint1_linear_328_77301)"/>
<path d="M42.3699 31.1955C40.7891 34.7478 38.1904 37.7515 34.9024 39.8268C31.6144 41.902 27.7848 42.9555 23.898 42.8541C20.0112 42.7527 16.2417 41.5008 13.0665 39.2569C9.89117 37.013 7.45266 33.8778 6.05936 30.2479C4.66605 26.618 4.38055 22.6564 5.23894 18.8642C6.09734 15.072 8.06108 11.6195 10.8818 8.94349C13.7025 6.26745 17.2535 4.48803 21.0856 3.8303C24.9177 3.17257 28.8588 3.66608 32.4104 5.24839C37.1711 7.36939 40.8946 11.2942 42.7622 16.1599C44.6299 21.0256 44.4888 26.4338 42.3699 31.1955Z" fill="url(#paint2_linear_328_77301)"/>
<path d="M40.7967 30.6129C39.336 33.8959 36.9349 36.6723 33.8966 38.5909C30.8584 40.5095 27.3196 41.4844 23.7275 41.3921C20.1353 41.2999 16.6512 40.1447 13.7154 38.0727C10.7797 36.0006 8.52417 33.1047 7.23398 29.751C5.94378 26.3973 5.67684 22.7364 6.46689 19.231C7.25694 15.7256 9.06853 12.5332 11.6726 10.0572C14.2767 7.5812 17.5565 5.93285 21.0972 5.3205C24.638 4.70815 28.2808 5.1593 31.5652 6.61691C33.7477 7.58549 35.7179 8.97469 37.3631 10.7051C39.0084 12.4355 40.2965 14.4732 41.1539 16.7018C42.0112 18.9303 42.4209 21.3059 42.3596 23.6929C42.2983 26.0798 41.7672 28.4313 40.7967 30.6129Z" fill="url(#paint3_linear_328_77301)"/>
<path opacity="0.5" d="M4.77368 34.6901C6.88121 38.8079 10.3487 42.0696 14.5876 43.9215C24.3432 48.2606 29.7889 45.5232 29.7889 45.5232C20.3486 45.3503 11.3584 41.457 4.77368 34.6901Z" fill="white"/>
<path opacity="0.5" d="M43.9987 12.0918C41.9394 7.98991 38.523 4.72788 34.3304 2.86032C24.5748 -1.47875 19.1582 1.25865 19.1582 1.25865C28.5396 1.46786 37.4622 5.35907 43.9987 12.0918Z" fill="white"/>
<path d="M37.0946 18.7025L25.8079 36.676C25.6001 37.0051 25.2743 37.2421 24.8972 37.3385C24.5202 37.4348 24.1205 37.383 23.7804 37.1939C23.5549 37.0675 23.3644 36.8869 23.2263 36.6683L12.161 18.6947C11.851 18.191 11.6874 17.6109 11.6885 17.0195C11.7025 16.1463 12.0623 15.3143 12.6889 14.706C13.3156 14.0978 14.158 13.763 15.0312 13.7751H34.2541C36.0886 13.7751 37.5813 15.2225 37.5813 17.0117C37.5813 17.6072 37.413 18.1924 37.0933 18.7025M14.8772 18.1018L23.1111 30.7958V16.8214H15.7381C14.8862 16.8214 14.5043 17.3859 14.8785 18.1018M26.1574 30.7958L34.3913 18.1018C34.7707 17.3859 34.3823 16.8214 33.5304 16.8214H26.1574V30.7958Z" fill="#3B3B3B"/>
<path d="M36.1881 17.9668L24.9014 35.9403C24.6936 36.2694 24.3678 36.5064 23.9907 36.6027C23.6137 36.699 23.2141 36.6473 22.874 36.4582C22.6484 36.3318 22.4579 36.1511 22.3198 35.9326L11.2545 17.959C10.9445 17.4553 10.7809 16.8752 10.782 16.2838C10.796 15.4105 11.1558 14.5785 11.7825 13.9703C12.4091 13.3621 13.2515 13.0273 14.1248 13.0394H33.3476C35.1821 13.0394 36.6748 14.4868 36.6748 16.276C36.6748 16.8715 36.5065 17.4567 36.1868 17.9668M13.9707 17.3661L22.2046 30.06V16.0857H14.8316C13.9798 16.0857 13.5978 16.6501 13.972 17.3661M25.2509 30.06L33.4848 17.3661C33.8642 16.6501 33.4758 16.0857 32.6239 16.0857H25.2509V30.06Z" fill="black"/>
<path opacity="0.3" d="M38.5544 17.6542C37.2439 20.5663 31.8273 21.0031 26.4108 18.586C20.9942 16.169 17.6744 11.859 18.9557 8.94689C20.237 6.03475 25.6827 5.62706 31.0993 8.04413C36.5159 10.4612 39.8357 14.742 38.5544 17.6542Z" fill="url(#paint4_linear_328_77301)"/>
<path opacity="0.7" d="M30.2255 9.79121C35.0597 11.9462 38.2339 15.6155 37.9427 18.5276C38.1617 18.287 38.3389 18.0114 38.4669 17.7122C39.7773 14.8001 36.4284 10.4901 31.0409 8.07306C25.6535 5.65599 20.1787 6.06368 18.8973 8.97582C18.7522 9.28778 18.6634 9.62301 18.6353 9.96594C20.5573 7.89833 25.3914 7.63624 30.2255 9.79121Z" fill="url(#paint5_linear_328_77301)"/>
<defs>
<linearGradient id="paint0_linear_328_77301" x1="11.5045" y1="44.4487" x2="28.0498" y2="8.92911" gradientUnits="userSpaceOnUse">
<stop stop-color="#5F5F5F"/>
<stop offset="1" stop-color="#8A8A8A"/>
</linearGradient>
<linearGradient id="paint1_linear_328_77301" x1="12.0788" y1="43.1768" x2="27.8454" y2="9.31482" gradientUnits="userSpaceOnUse">
<stop stop-color="#373737"/>
<stop offset="0.99" stop-color="#1E1E1E"/>
</linearGradient>
<linearGradient id="paint2_linear_328_77301" x1="13.2815" y1="40.4354" x2="26.9175" y2="11.1606" gradientUnits="userSpaceOnUse">
<stop stop-color="#9E9E9E"/>
<stop offset="0.95" stop-color="#757575"/>
</linearGradient>
<linearGradient id="paint3_linear_328_77301" x1="13.6166" y1="39.4069" x2="26.2471" y2="12.2932" gradientUnits="userSpaceOnUse">
<stop stop-color="#858585"/>
<stop offset="1" stop-color="#585858"/>
</linearGradient>
<linearGradient id="paint4_linear_328_77301" x1="22.6719" y1="20.0872" x2="26.7672" y2="10.9976" gradientUnits="userSpaceOnUse">
<stop stop-color="#B9B9B9"/>
<stop offset="0.99" stop-color="white"/>
</linearGradient>
<linearGradient id="paint5_linear_328_77301" x1="24.5504" y1="15.7052" x2="26.9503" y2="10.3786" gradientUnits="userSpaceOnUse">
<stop stop-color="#D0D0D0"/>
<stop offset="0.99" stop-color="white"/>
</linearGradient>
</defs>
</svg>
