<svg width="48" height="48" viewBox="0 0 48 48" fill="none" xmlns="http://www.w3.org/2000/svg">
<path d="M45.9803 33.4085C44.0816 37.7272 40.9434 41.3849 36.9634 43.9178C32.9834 46.4508 28.3409 47.7449 23.6245 47.6362C18.9081 47.5274 14.3302 46.0207 10.4712 43.307C6.61211 40.5934 3.64573 36.7949 1.94809 32.3933C0.250439 27.9917 -0.102023 23.1852 0.935384 18.583C1.97279 13.9808 4.35335 9.7903 7.77526 6.54272C11.1972 3.29514 15.5063 1.13675 20.1564 0.341179C24.8065 -0.454393 29.5881 0.148685 33.895 2.07396C39.6395 4.64187 44.1347 9.37834 46.399 15.2492C48.6633 21.12 48.5128 27.6483 45.9803 33.4085Z" fill="url(#paint0_linear_328_77429)"/>
<path style="mix-blend-mode:screen" d="M45.139 32.5932C43.3222 36.6984 40.3296 40.1732 36.5392 42.5788C32.7489 44.9843 28.3307 46.2128 23.8426 46.109C19.3546 46.0052 14.9979 44.5739 11.3227 41.9957C7.64762 39.4175 4.81887 35.8081 3.19372 31.6233C1.56856 27.4386 1.21988 22.8661 2.1917 18.4832C3.16352 14.1004 5.41227 10.1038 8.65397 6.99821C11.8957 3.89259 15.9849 1.81718 20.4054 1.03407C24.8258 0.250961 29.3792 0.795278 33.4905 2.59828C36.2281 3.79889 38.7019 5.52807 40.7699 7.68669C42.8379 9.84531 44.4595 12.3909 45.5417 15.1775C46.6239 17.9641 47.1454 20.937 47.0763 23.9255C47.0072 26.9141 46.3488 29.8596 45.139 32.5932Z" fill="url(#paint1_linear_328_77429)"/>
<path d="M42.3716 31.1956C40.7908 34.7479 38.1921 37.7516 34.9041 39.8269C31.6161 41.9021 27.7865 42.9557 23.8997 42.8542C20.0129 42.7528 16.2435 41.5009 13.0682 39.257C9.89287 37.0131 7.45437 33.8779 6.06107 30.248C4.66776 26.6181 4.38225 22.6565 5.24065 18.8643C6.09905 15.0721 8.06279 11.6197 10.8835 8.94361C13.7042 6.26757 17.2552 4.48816 21.0873 3.83043C24.9194 3.1727 28.8605 3.6662 32.4121 5.24851C37.1728 7.36952 40.8963 11.2943 42.764 16.16C44.6316 21.0257 44.4905 26.434 42.3716 31.1956Z" fill="url(#paint2_linear_328_77429)"/>
<path d="M40.7969 30.6129C39.3363 33.8959 36.9351 36.6723 33.8969 38.5909C30.8587 40.5095 27.3198 41.4844 23.7277 41.3921C20.1356 41.2999 16.6514 40.1447 13.7157 38.0727C10.7799 36.0006 8.52442 33.1047 7.23422 29.751C5.94402 26.3973 5.67708 22.7364 6.46713 19.231C7.25719 15.7256 9.06877 12.5332 11.6729 10.0572C14.277 7.5812 17.5567 5.93285 21.0975 5.3205C24.6382 4.70815 28.281 5.1593 31.5654 6.61691C33.7479 7.58549 35.7181 8.97469 37.3634 10.7051C39.0087 12.4355 40.2968 14.4732 41.1541 16.7018C42.0115 18.9303 42.4212 21.3059 42.3599 23.6929C42.2986 26.0798 41.7675 28.4313 40.7969 30.6129Z" fill="url(#paint3_linear_328_77429)"/>
<path opacity="0.5" d="M4.77441 34.6901C6.88194 38.8079 10.3494 42.0696 14.5883 43.9215C24.3439 48.2606 29.7896 45.5232 29.7896 45.5232C20.3493 45.3503 11.3591 41.457 4.77441 34.6901Z" fill="white"/>
<path opacity="0.5" d="M43.9994 12.0918C41.9402 7.98991 38.5238 4.72788 34.3311 2.86032C24.5755 -1.47875 19.1589 1.25865 19.1589 1.25865C28.5404 1.46786 37.463 5.35907 43.9994 12.0918Z" fill="white"/>
<path opacity="0.3" d="M38.5553 17.6542C37.2449 20.5663 31.8283 21.0031 26.4117 18.586C20.9952 16.169 17.6753 11.859 18.9567 8.94689C20.238 6.03475 25.6837 5.62706 31.1003 8.04413C36.5168 10.4612 39.8367 14.742 38.5553 17.6542Z" fill="url(#paint4_linear_328_77429)"/>
<path opacity="0.7" d="M30.2268 9.79121C35.0609 11.9462 38.2351 15.6155 37.9439 18.5276C38.163 18.287 38.3401 18.0114 38.4681 17.7122C39.7786 14.8001 36.4296 10.4901 31.0422 8.07306C25.6547 5.65599 20.1799 6.06368 18.8986 8.97582C18.7534 9.28778 18.6647 9.62301 18.6365 9.96594C20.5585 7.89833 25.3926 7.63624 30.2268 9.79121Z" fill="url(#paint5_linear_328_77429)"/>
<path d="M33.3408 13.1923H37.2703L29.0928 21.1664C26.1314 24.0526 21.33 24.0526 18.3665 21.1664L10.1858 13.1923H14.1184L20.3312 19.2497C21.2364 20.1283 22.4563 20.6209 23.7272 20.6209C24.9982 20.6209 26.2181 20.1283 27.1233 19.2497L33.3408 13.1923Z" fill="#23292F"/>
<path d="M14.0686 35.3658H10.1365L18.3671 27.3425C21.3285 24.4563 26.1298 24.4563 29.0934 27.3425L37.324 35.3658H33.3945L27.1287 29.2592C26.2235 28.3806 25.0036 27.888 23.7326 27.888C22.4617 27.888 21.2418 28.3806 20.3366 29.2592L14.0686 35.3658Z" fill="#23292F"/>
<defs>
<linearGradient id="paint0_linear_328_77429" x1="11.5045" y1="44.4487" x2="28.0498" y2="8.92911" gradientUnits="userSpaceOnUse">
<stop stop-color="#5F5F5F"/>
<stop offset="1" stop-color="#8A8A8A"/>
</linearGradient>
<linearGradient id="paint1_linear_328_77429" x1="12.0808" y1="43.1768" x2="27.8473" y2="9.31482" gradientUnits="userSpaceOnUse">
<stop stop-color="#23292F"/>
<stop offset="0.99" stop-color="#373D43"/>
</linearGradient>
<linearGradient id="paint2_linear_328_77429" x1="13.2832" y1="40.4355" x2="26.9192" y2="11.1607" gradientUnits="userSpaceOnUse">
<stop stop-color="#494F55"/>
<stop offset="0.95" stop-color="#2D3339"/>
</linearGradient>
<linearGradient id="paint3_linear_328_77429" x1="13.6168" y1="39.4069" x2="26.2473" y2="12.2932" gradientUnits="userSpaceOnUse">
<stop stop-color="#73797F"/>
<stop offset="1" stop-color="#555B61"/>
</linearGradient>
<linearGradient id="paint4_linear_328_77429" x1="22.6729" y1="20.0872" x2="26.7682" y2="10.9976" gradientUnits="userSpaceOnUse">
<stop stop-color="#6B7177"/>
<stop offset="0.99" stop-color="white"/>
</linearGradient>
<linearGradient id="paint5_linear_328_77429" x1="24.5516" y1="15.7052" x2="26.9515" y2="10.3786" gradientUnits="userSpaceOnUse">
<stop stop-color="#23292F"/>
<stop offset="0.99" stop-color="white"/>
</linearGradient>
</defs>
</svg>
