<svg width="58" height="45" viewBox="0 0 58 45" fill="none" xmlns="http://www.w3.org/2000/svg">
<path d="M55.5917 16.7069C55.5917 16.7069 58.0182 10.9889 55.0458 5.75632C52.0734 0.523717 40.8115 -0.470789 38.4883 0.175731C36.1652 0.822251 34.3843 6.56401 34.3843 6.56401C34.3843 6.56401 39.678 3.14093 47.0572 6.04386C54.4365 8.94679 55.5917 16.7069 55.5917 16.7069Z" fill="#FF9FDB"/>
<path d="M55.3359 17.8955C56.0361 18.4147 56.5646 19.1354 56.852 19.9633C57.1875 20.9743 57.8676 29.2801 56.6544 36.0658C55.4411 42.8516 51.4768 44.2069 48.3883 44.619C44.5509 45.1318 37.4727 44.1189 37.4727 44.1189L55.3359 17.8955Z" fill="#FF9FDB"/>
<path d="M18.5432 33.1501C18.2439 40.042 34.5675 43.5677 34.5675 43.5677C34.5675 43.5677 50.7514 47.3955 53.7473 41.1867C54.3302 39.9327 54.7906 38.6243 55.122 37.2801C56.8249 30.7691 56.9609 22.0054 56.6526 20.0896L41.4915 16.0731L26.1092 11.9614C24.6566 13.8296 18.8424 26.249 18.5432 33.1501Z" fill="url(#paint0_radial_245_57744)"/>
<g style="mix-blend-mode:multiply">
<path d="M25.9823 17.0549C25.9823 17.0549 28.0424 19.0696 26.1636 27.5238C24.2848 35.978 20.9135 34.4579 19.5733 33.2143C18.2331 31.9707 18.6357 31.9835 18.6357 31.9835L25.9823 17.0549Z" fill="#BF6377"/>
</g>
<path d="M56.5148 19.4561C57.7371 21.837 50.7913 22.1337 39.9519 19.3682C30.5633 16.9725 23.6102 13.1575 26.8129 11.2253C32.7631 7.63372 53.3883 13.37 56.5148 19.4561Z" fill="url(#paint1_linear_245_57744)"/>
<path d="M32.7558 14.2546C33.8258 15.4359 36.8852 16.9286 40.612 17.881C44.8538 18.9652 48.1054 19.0971 49.6216 18.6941C50.4104 18.478 50.7296 18.1227 50.4721 17.6722C48.5443 14.3187 36.2795 10.9304 32.8047 12.8205C32.1827 13.1465 32.2208 13.6612 32.7558 14.2546Z" fill="url(#paint2_linear_245_57744)"/>
<g style="mix-blend-mode:multiply">
<path d="M32.7558 14.2544C33.8258 15.4357 36.8852 16.9284 40.612 17.8808C44.8538 18.965 48.1055 19.0969 49.6216 18.694C46.8306 15.6518 36.3992 12.8405 32.7558 14.2544Z" fill="#DE6377"/>
</g>
<path d="M25.7899 17.022C28.6553 19.8956 26.9324 31.5476 20.8535 32.5989C19.0817 32.9066 11.0895 29.0202 12.981 16.2088C12.981 16.2088 15.9443 12.4561 17.5148 12.4377C21.3921 19.163 25.7899 17.022 25.7899 17.022Z" fill="url(#paint3_linear_245_57744)"/>
<g style="mix-blend-mode:multiply">
<path d="M22.843 17.1941C22.843 17.1941 22.9192 18.6208 20.431 24.3717C18.4488 28.9505 14.12 26.8809 13.7482 26.1172C13.3764 25.3534 13.3728 25.2399 13.3728 25.2399L22.843 17.1941Z" fill="#BF6377"/>
</g>
<path d="M21.6279 6.34424C25.5723 12.5713 23.7007 20.0402 16.2381 24.1428C7.93033 28.7105 0.349802 20.8131 0.00341988 17.097C-0.342964 13.3809 21.6279 6.34424 21.6279 6.34424Z" fill="url(#paint4_linear_245_57744)"/>
<path d="M43.5499 35.7013C43.5499 35.7013 44.0776 36.2123 46.6038 35.4101C47.558 35.0955 48.4818 34.694 49.364 34.2104C49.3106 34.1959 49.2599 34.173 49.2135 34.1427C48.9542 33.9595 47.9241 33.3112 48.6332 33.4101C49.2189 33.4925 49.6868 33.6921 49.7829 33.9595C51.2337 33.0731 52.2421 32.0254 51.4641 31.2397C50.5827 30.3551 49.7503 29.3478 48.5733 29.2874C48.7202 29.5456 48.7547 29.8075 48.3702 29.6079C48.3077 29.5847 48.2525 29.5452 48.2101 29.4934C48.1677 29.4416 48.1397 29.3793 48.129 29.313C47.5875 29.4074 47.0749 29.6268 46.631 29.954C46.405 30.117 46.205 30.3141 46.038 30.5383C46.6854 30.6866 47.4507 30.9467 46.2466 30.8844C46.0984 30.8791 45.9507 30.8657 45.8041 30.8441C44.6035 32.5548 43.5499 35.7013 43.5499 35.7013Z" fill="#D39AB5"/>
<path d="M35.8805 30.2599C36.2124 29.9394 36.9832 29.5584 37.928 29.2324C38.5682 30.2746 39.8467 30.2654 39.2936 28.835C41.3338 28.3405 43.5572 28.2526 43.9852 29.4302C44.7269 31.4888 43.1528 35.5749 43.1528 35.5749C42.5468 35.4538 41.9731 35.2041 41.4698 34.8423C41.141 34.6171 40.8008 34.4092 40.4506 34.2196C40.7916 33.7965 39.9211 33.0273 38.5718 32.4101C37.5726 31.9504 37.2461 32.031 37.3876 32.3368C36.2251 31.5255 35.3981 30.7214 35.8805 30.2599ZM43.0802 33.1903C43.4212 33.4742 43.6878 33.1665 43.3251 33.0072C43.3251 33.0035 42.7429 32.9046 43.0802 33.183V33.1903Z" fill="#D39AB5"/>
<path d="M43.1201 36.172C42.8028 35.932 39.8558 33.6829 37.3531 34.4906C34.8505 35.2983 39.2337 39.2525 40.6356 39.2635C42.0374 39.2745 43.1201 36.172 43.1201 36.172Z" fill="#D39AB5"/>
<path d="M42.5888 38.2784C42.9189 39.9267 45.5612 40.1905 47.5524 38.8278C48.5734 38.1264 49.453 36.1337 48.4211 36.1135C48.2688 36.1135 48.0584 36.1135 47.8244 36.1044C48.0257 36.4395 47.8099 36.7765 47.197 36.6154C46.8197 36.5183 46.8633 36.2802 47.0319 36.0916C46.8887 36.0916 46.7472 36.0916 46.5985 36.0916L46.0816 37.0897C46.0816 37.0897 45.9511 36.6154 46.1379 36.3571C46.215 36.2359 46.3252 36.1398 46.4552 36.0806C45.1676 36.0806 43.764 36.0806 43.5536 36.2124C43.5482 36.2143 42.3458 37.0604 42.5888 38.2784Z" fill="#D39AB5"/>
<path d="M20.4854 5.29111C28.2673 10.7032 13.4762 26.4724 3.18806 20.7929C-6.57777 15.4028 9.54083 -2.32245 20.4854 5.29111Z" fill="url(#paint5_linear_245_57744)"/>
<path d="M28.8785 15.2014C28.8785 15.2014 26.1038 13.8278 25.9315 12.2014C25.9315 12.2014 28.98 3.17941 36.1652 0.827766C42.8027 -1.34256 50.0949 2.43216 51.9429 3.83509C51.9429 3.83509 40.8568 0.126301 35.7844 6.0567C30.7119 11.9871 28.8785 15.2014 28.8785 15.2014Z" fill="url(#paint6_linear_245_57744)"/>
<path d="M51.8467 18.2343L49.7611 16.0695C49.7611 16.0695 53.789 9.07315 45.7188 3.94495C45.7278 3.94495 56.3206 3.57498 51.8467 18.2343Z" fill="url(#paint7_linear_245_57744)"/>
<path d="M28.8785 15.2013C28.8785 15.2013 33.1095 1.36245 44.9881 1.64816C59.917 1.98516 55.2725 18.1317 55.2725 18.1317C54.4927 18.8643 51.8468 18.2361 51.8468 18.2361C51.8468 18.2361 55.9961 7.30384 45.0787 6.52545C37.1155 5.95769 34.0398 14.5932 33.8149 15.6701C32.6325 16.1408 28.8785 15.2013 28.8785 15.2013Z" fill="url(#paint8_linear_245_57744)"/>
<path d="M8.41288 9.74155C9.16368 9.76536 10.3189 9.24522 11.2347 8.35511C12.3083 7.30932 12.6855 6.31298 12.5477 5.75621C12.523 5.63613 12.4599 5.52757 12.3682 5.44717C12.2764 5.36678 12.1611 5.319 12.0399 5.31115C9.8909 5.10602 6.96206 7.9247 7.7056 9.37159C7.82711 9.61518 8.08282 9.73423 8.41288 9.74155Z" fill="url(#paint9_linear_245_57744)"/>
<g style="mix-blend-mode:multiply">
<path d="M8.41288 9.7417C9.16368 9.7655 10.3189 9.24536 11.2347 8.35525C12.3083 7.30946 12.6855 6.31312 12.5477 5.75635C10.4513 5.81312 7.84343 8.3351 8.41288 9.7417Z" fill="#AB6377"/>
</g>
<path d="M3.60691 14.9248C4.22713 14.998 5.16109 14.6262 5.88832 13.9193C6.73886 13.0896 7.02721 12.2563 6.89483 11.7654C6.87191 11.6596 6.81854 11.563 6.74143 11.4877C6.66431 11.4125 6.56688 11.3619 6.46139 11.3424C4.69865 11.009 2.36101 13.2398 3.0157 14.553C3.07452 14.6609 3.15976 14.7517 3.26327 14.8168C3.36678 14.8819 3.4851 14.9191 3.60691 14.9248Z" fill="url(#paint10_linear_245_57744)"/>
<g style="mix-blend-mode:multiply">
<path d="M3.60691 14.9247C4.22713 14.998 5.16109 14.6262 5.88832 13.9192C6.73886 13.0896 7.02721 12.2562 6.89483 11.7654C5.17923 11.661 3.09912 13.661 3.60691 14.9247Z" fill="#AB6377"/>
</g>
<path d="M15.2063 14.1264C16.0622 14.1868 17.3934 13.6978 18.4706 12.8114C19.7292 11.7674 20.1971 10.7418 20.0466 10.152C20.0148 10.0183 19.9411 9.89854 19.8366 9.81045C19.7321 9.72236 19.6022 9.67066 19.4662 9.66303C17.0143 9.35168 13.6013 12.1612 14.4065 13.7052C14.5371 13.9652 14.8254 14.1026 15.2063 14.1264Z" fill="url(#paint11_linear_245_57744)"/>
<g style="mix-blend-mode:multiply">
<path d="M15.2063 14.1263C16.0622 14.1868 17.3934 13.6978 18.4706 12.8113C19.7292 11.7674 20.1971 10.7417 20.0466 10.152C17.6328 10.1172 14.5897 12.6373 15.2063 14.1263Z" fill="#AB6377"/>
</g>
<path d="M8.90974 19.2672C9.60432 19.3753 10.6689 19.0383 11.5085 18.3514C12.4914 17.5346 12.8378 16.6848 12.7 16.1665C12.6743 16.0498 12.6152 15.9433 12.5301 15.8603C12.445 15.7773 12.3376 15.7213 12.2212 15.6994C10.2391 15.2654 7.5496 17.4595 8.24418 18.8514C8.31299 18.9704 8.40965 19.0705 8.52569 19.143C8.64172 19.2155 8.77359 19.2581 8.90974 19.2672Z" fill="url(#paint12_linear_245_57744)"/>
<g style="mix-blend-mode:multiply">
<path d="M8.90974 19.2674C9.60432 19.3755 10.6689 19.0385 11.5085 18.3517C12.4914 17.5348 12.8378 16.685 12.7 16.1667C10.7704 15.967 8.37112 17.9322 8.90974 19.2674Z" fill="#AB6377"/>
</g>
<path d="M8.97319 14.628C9.69859 14.6958 10.8012 14.2617 11.6753 13.4833C12.7018 12.5584 13.0663 11.6372 12.9249 11.1024C12.8987 10.9841 12.8369 10.8769 12.7479 10.7955C12.6589 10.7142 12.5471 10.6627 12.428 10.6482C10.3678 10.324 7.56589 12.8148 8.28405 14.2324C8.35511 14.353 8.45599 14.4529 8.5768 14.5223C8.69762 14.5916 8.83422 14.6281 8.97319 14.628Z" fill="url(#paint13_linear_245_57744)"/>
<g style="mix-blend-mode:multiply">
<path d="M8.97319 14.6281C9.69859 14.6958 10.8012 14.2618 11.6753 13.4834C12.7018 12.5585 13.0663 11.6372 12.9249 11.1024C10.91 11.0273 8.41281 13.2581 8.97319 14.6281Z" fill="#AB6377"/>
</g>
<g style="mix-blend-mode:multiply" opacity="0.8">
<path d="M20.1916 15.5676C20.1916 15.5676 20.4219 20.8204 16.2381 24.1427C12.0543 27.4651 3.99319 23.3643 3.26597 22.3112C2.53874 21.2581 5.84842 22.9065 10.6035 21.6977C15.3585 20.4889 20.1916 15.5676 20.1916 15.5676Z" fill="#EB6D98"/>
</g>
<g style="mix-blend-mode:soft-light" opacity="0.5">
<path d="M20.5416 14.7106C21.2489 11.2966 12.8342 17.0274 11.0098 20.1556C9.18536 23.2838 17.7434 19.4303 20.5416 14.7106Z" fill="#FFBD8D"/>
</g>
<g style="mix-blend-mode:soft-light" opacity="0.3">
<path d="M48.392 21.0366C53.2595 21.1722 47.692 34.8004 36.2523 36.6996C24.8126 38.5989 27.1847 20.5623 27.5637 17.9945C27.9427 15.4267 38.084 20.7473 48.392 21.0366Z" fill="#FFA98D"/>
</g>
<g style="mix-blend-mode:multiply" opacity="0.8">
<path d="M54.4239 32.8132C56.727 20.9084 45.1078 33.8846 35.7192 38.2014C26.3306 42.5183 43.6624 45.2875 48.2905 43.8241C52.9186 42.3608 54.4239 32.8132 54.4239 32.8132Z" fill="#EB6D98"/>
</g>
<g style="mix-blend-mode:multiply" opacity="0.8">
<path d="M21.9037 32.2966C26.1854 29.7526 16.9365 27.4724 15.5655 27.0072C14.1944 26.542 14.1545 27.064 14.1545 27.064C14.1545 27.064 17.1831 33.39 21.9037 32.2966Z" fill="#E8598A"/>
</g>
<g style="mix-blend-mode:multiply">
<path d="M18.5431 33.1501C18.2438 40.0421 34.5674 43.5677 34.5674 43.5677C34.5674 43.5677 50.7512 47.3956 53.7472 41.1868C54.3301 39.9328 54.7905 38.6244 55.1218 37.2802C55.1218 37.2802 50.8619 46.9267 35.8676 43.119C20.8734 39.3113 18.5431 33.1501 18.5431 33.1501Z" fill="#C26377"/>
</g>
<g style="mix-blend-mode:soft-light" opacity="0.5">
<path d="M52.1821 21.3368C53.1687 21.0364 51.3461 20.3148 43.6168 18.5236C35.8876 16.7324 30.6592 15.8368 30.6048 15.9778C30.5504 16.1188 39.2662 20.4375 52.1821 21.3368Z" fill="#FFD4A6"/>
</g>
<g style="mix-blend-mode:soft-light" opacity="0.5">
<path d="M45.483 0.88281C45.8965 1.00003 38.4501 1.98171 35.2239 4.44508C31.9976 6.90845 31.2849 4.69966 31.6585 3.93043C32.0321 3.1612 36.263 -1.58605 45.483 0.88281Z" fill="#FFD4A6"/>
</g>
<g style="mix-blend-mode:multiply" opacity="0.8">
<path d="M50.8204 3.09694C53.751 5.28741 45.1839 5.20866 40.7082 6.87899C36.2324 8.54932 32.1701 10.7361 31.626 10.5548C31.082 10.3735 35.2531 3.67203 41.1615 2.52917C47.07 1.38632 50.8204 3.09694 50.8204 3.09694Z" fill="#EB6D98"/>
</g>
<g style="mix-blend-mode:soft-light" opacity="0.5">
<path d="M23.9963 29.7086C24.7508 28.813 24.671 26.7214 22.7414 26.4723C22.1411 26.3936 21.3069 27.3441 21.7059 28.4705C22.1048 29.5969 23.6663 30.0987 23.9963 29.7086Z" fill="#FFBD8D"/>
</g>
<path d="M15.9934 19.0476C15.9934 19.0476 12.7563 21.2875 8.72299 21.5183C6.26616 21.6373 3.83023 21.0116 1.72824 19.7216C1.72824 19.7216 3.21895 22.0696 7.89422 22.4359C12.5695 22.8022 15.9934 19.0476 15.9934 19.0476Z" fill="#FF5754"/>
<path d="M44.988 1.64826C44.988 1.64826 41.867 3.45412 36.5932 4.21236C36.5932 4.21236 37.9334 0.558519 44.988 1.64826Z" fill="#B52225"/>
<path d="M55.8291 20.8919C55.8291 20.8919 54.2151 22.185 51.3225 22.2766C49.5112 22.3108 47.7125 21.966 46.0397 21.2637C46.0397 21.2637 49.8826 19.185 55.8291 20.8919Z" fill="#B31F19"/>
<g style="mix-blend-mode:multiply" opacity="0.3">
<path d="M40.1405 26.6152C39.1159 27.932 37.3133 28.4467 36.3068 27.0914C35.1026 25.476 33.3181 23.7544 34.4805 22.6848C34.6855 22.5016 34.8831 22.2873 35.0989 22.0877C36.0946 21.1372 37.2389 20.2654 39.0996 21.9778C39.0996 21.9778 41.4263 23.9449 40.6211 25.8093C40.4997 26.0997 40.3379 26.371 40.1405 26.6152Z" fill="#C763A7"/>
</g>
<g style="mix-blend-mode:multiply">
<path d="M40.1404 26.6152L39.9591 26.7361C39.9591 26.7361 40.7915 25.8698 40.5503 24.6811C40.3091 23.4925 39.1139 22.465 37.6214 21.9082C36.1289 21.3514 35.097 22.0914 35.097 22.0914C36.0926 21.1408 37.237 20.269 39.0976 21.9815C39.0976 21.9815 41.4244 23.9485 40.6192 25.813C40.498 26.1019 40.3368 26.372 40.1404 26.6152Z" fill="#C763A7"/>
</g>
<g style="mix-blend-mode:multiply" opacity="0.3">
<path d="M27.9806 35.1281C27.6488 36.2416 26.9886 37.0823 26.5516 36.5347C26.0293 35.879 25.2821 35.3277 25.6775 34.3369C25.7464 34.1537 25.8135 33.9706 25.886 33.7874C26.2215 32.9083 26.6114 32.0365 27.3912 32.5603C27.3912 32.5603 28.3524 33.1098 28.1275 34.498C28.0925 34.7111 28.0434 34.9216 27.9806 35.1281Z" fill="#C763A7"/>
</g>
<g style="mix-blend-mode:multiply">
<path d="M27.9808 35.1282L27.9173 35.2564C28.0341 34.8124 28.0539 34.3481 27.9753 33.8956C27.8339 33.2308 27.3823 32.8645 26.7947 32.9506C26.2071 33.0366 25.888 33.7784 25.888 33.7784C26.2235 32.8993 26.6134 32.0275 27.3932 32.5513C27.3932 32.5513 28.3544 33.1007 28.1295 34.489C28.0943 34.7052 28.0446 34.9188 27.9808 35.1282Z" fill="#C763A7"/>
</g>
<path d="M18.106 16.3387C18.4361 16.2984 18.9983 17.4595 18.5177 18.4504C18.0371 19.4412 17.1321 19.9302 16.9653 19.8808C16.7985 19.8313 15.6795 16.6317 18.106 16.3387Z" fill="#810937"/>
<g style="mix-blend-mode:multiply">
<path d="M18.1061 16.3388C18.5305 16.4927 18.9022 17.3571 18.3001 18.1538C17.6981 18.9505 16.9545 18.2765 16.8004 17.5476C16.6462 16.8187 17.7996 16.2271 18.1061 16.3388Z" fill="#C76393"/>
</g>
<path d="M18.5178 18.4506C18.5649 18.1557 16.9871 19 16.8638 19.1923C16.7405 19.3846 16.9672 19.837 17.0633 19.8736C17.1594 19.9103 18.3999 19.1795 18.5178 18.4506Z" fill="#E54247"/>
<path d="M17.7036 19.509C17.465 19.5657 17.2346 19.6531 17.0181 19.7691C17.0016 19.7826 16.9883 19.7996 16.9792 19.8189C16.9701 19.8383 16.9654 19.8594 16.9655 19.8808C16.9655 19.8808 16.9655 19.9175 17.2067 19.8259C17.3863 19.7444 17.5536 19.6377 17.7036 19.509Z" fill="#FF635C"/>
<path d="M45.8985 20.1665C46.2013 20.3021 46.2938 21.1592 45.5358 21.4358C44.7777 21.7123 43.8057 21.5328 43.6751 21.4358C43.5445 21.3387 43.6642 19.1647 45.8985 20.1665Z" fill="#86002B"/>
<g style="mix-blend-mode:multiply">
<path d="M45.8984 20.1667C46.2176 20.445 46.243 21.0604 45.4396 21.1813C44.6362 21.3022 44.2137 20.6062 44.3316 20.163C44.4494 19.7198 45.6663 19.9634 45.8984 20.1667Z" fill="#C76393"/>
</g>
<path d="M45.5265 21.4286C45.6698 21.3004 43.9904 20.9817 43.8163 21.0238C43.6422 21.066 43.6821 21.4011 43.7547 21.4634C43.8272 21.5257 45.1692 21.7528 45.5265 21.4286Z" fill="#E54247"/>
<path d="M44.4438 21.5896C44.2181 21.5101 43.9864 21.4489 43.7511 21.4065C43.6858 21.4065 43.6658 21.4376 43.6658 21.4376C43.6658 21.4376 43.6532 21.4578 43.8962 21.5237C44.076 21.5647 44.2595 21.5868 44.4438 21.5896Z" fill="#FF635C"/>
<path d="M6.59937 13.0237C6.59937 13.0237 5.68172 14.8552 4.2708 15.0823C2.85988 15.3094 2.91972 14.2856 2.91972 14.2856C2.91972 14.2856 2.91972 15.0805 4.15473 14.8973C5.38974 14.7142 6.59937 13.0237 6.59937 13.0237Z" fill="#FF4A4F"/>
<path d="M12.1958 12.9504C11.9538 13.4274 11.602 13.8389 11.1701 14.1502C10.7381 14.4616 10.2384 14.6638 9.71309 14.7398C7.88687 15.02 8.16978 13.6739 8.16978 13.6739C8.16978 13.6739 8.03558 14.4376 8.99131 14.5677C9.94703 14.6977 11.7442 13.586 12.1958 12.9504Z" fill="#FF4A4F"/>
<path d="M11.7534 18.1318C11.7534 18.1318 10.7596 19.3351 9.43936 19.4707C8.11911 19.6062 8.14269 18.5128 8.14269 18.5128C8.16181 18.6714 8.22366 18.8218 8.3215 18.9474C8.41935 19.073 8.54945 19.1691 8.69763 19.2252C9.20723 19.4139 11.1332 18.9817 11.7534 18.1318Z" fill="#FF4A4F"/>
<path d="M6.76074 22.3442C6.76074 22.3442 4.41585 20.8039 3.34769 20.2307C2.72904 19.8947 2.08358 19.6116 1.4181 19.3845C1.4181 19.3845 1.45255 20.8058 3.45287 21.9376C5.45319 23.0695 6.76074 22.3442 6.76074 22.3442Z" fill="#B41619"/>
<g style="mix-blend-mode:soft-light" opacity="0.5">
<path d="M21.1074 6.01468C21.7403 6.88281 18.2311 9.34068 15.6668 9.28391C13.1025 9.22713 14.4536 5.60808 12.8794 4.97072C11.3053 4.33336 7.80157 6.36266 7.28472 8.26742C6.76786 10.1722 8.60859 9.56046 8.37283 10.3407C8.13707 11.1209 6.1966 9.9231 4.61703 11.2564C3.03745 12.5898 2.2141 11.7711 2.20685 11.5348C2.1996 11.2986 5.94271 4.96156 10.589 4.08427C15.2352 3.20698 19.7817 4.2253 21.1074 6.01468Z" fill="#FFC8A6"/>
</g>
<path d="M50.1147 2.60063C50.1147 2.60063 45.7278 1.42297 44.9244 1.89001C43.5124 2.71383 42.0368 3.42125 40.5121 4.00539C38.7131 4.6684 36.8035 4.02004 35.0933 5.78744C33.3832 7.55484 30.5976 11.2691 30.5976 11.2691C30.5976 11.2691 31.9451 8.58415 33.5899 6.93396C35.2348 5.28378 36.468 4.23982 36.9975 4.15191C37.5271 4.064 39.6054 3.78561 41.5622 3.06583C43.519 2.34605 44.1356 1.41748 44.1356 1.41748C46.1803 1.46969 48.2017 1.86968 50.1147 2.60063Z" fill="#DB393E"/>
<g style="mix-blend-mode:multiply">
<path d="M43.5445 1.47622C44.1339 1.53483 42.0936 3.27292 40.6809 3.36267C39.2682 3.45241 39.8358 1.11358 43.5445 1.47622Z" fill="#C76393"/>
</g>
<g style="mix-blend-mode:soft-light">
<path d="M33.425 21.5238C33.5537 24.3498 31.4573 22.9725 31.5443 21.707C31.6314 20.4414 33.3869 20.7198 33.425 21.5238Z" fill="#FFFFD1"/>
</g>
<path d="M37.9951 18.8407C37.1453 18.2825 36.232 17.8299 35.2748 17.4927C34.402 17.1901 33.4957 16.9963 32.5763 16.9158C34.3188 17.7276 36.1331 18.3721 37.9951 18.8407Z" fill="#FF5657"/>
<g style="mix-blend-mode:multiply">
<path d="M43.2815 15.2564C47.5288 16.4652 43.7947 18.1209 39.736 17.4542C35.6774 16.7875 34.4786 15.3846 34.4678 14.652C34.4569 13.9194 38.0204 13.76 43.2815 15.2564Z" fill="#CC6377"/>
</g>
<defs>
<radialGradient id="paint0_radial_245_57744" cx="0" cy="0" r="1" gradientUnits="userSpaceOnUse" gradientTransform="translate(31.4801 25.5297) rotate(-165.604) scale(25.6914 25.9147)">
<stop stop-color="#AC0E00"/>
<stop offset="0.21" stop-color="#AA0D05"/>
<stop offset="0.47" stop-color="#A20B15"/>
<stop offset="0.76" stop-color="#97082E"/>
<stop offset="0.9" stop-color="#90063C"/>
<stop offset="1" stop-color="#BD007E"/>
</radialGradient>
<linearGradient id="paint1_linear_245_57744" x1="56.7929" y1="19.5018" x2="26.1314" y2="11.7856" gradientUnits="userSpaceOnUse">
<stop stop-color="#CC3800"/>
<stop offset="0.19" stop-color="#CF3805"/>
<stop offset="0.42" stop-color="#D83915"/>
<stop offset="0.68" stop-color="#E73A2E"/>
<stop offset="0.96" stop-color="#FC3B51"/>
<stop offset="1" stop-color="#FF3B57"/>
</linearGradient>
<linearGradient id="paint2_linear_245_57744" x1="50.5835" y1="17.9288" x2="32.3527" y2="13.3409" gradientUnits="userSpaceOnUse">
<stop stop-color="#900B00"/>
<stop offset="0.21" stop-color="#8D0A05"/>
<stop offset="0.47" stop-color="#850715"/>
<stop offset="0.76" stop-color="#77032E"/>
<stop offset="0.9" stop-color="#6F003C"/>
</linearGradient>
<linearGradient id="paint3_linear_245_57744" x1="17.0795" y1="31.7755" x2="21.7634" y2="13.5268" gradientUnits="userSpaceOnUse">
<stop stop-color="#720025"/>
<stop offset="0.28" stop-color="#81081F"/>
<stop offset="0.67" stop-color="#911018"/>
<stop offset="0.98" stop-color="#961316"/>
</linearGradient>
<linearGradient id="paint4_linear_245_57744" x1="9.35526" y1="25.4105" x2="14.7059" y2="4.56445" gradientUnits="userSpaceOnUse">
<stop stop-color="#90063C"/>
<stop offset="0.15" stop-color="#950D2E"/>
<stop offset="0.47" stop-color="#9D1A15"/>
<stop offset="0.76" stop-color="#A22105"/>
<stop offset="1" stop-color="#A42400"/>
</linearGradient>
<linearGradient id="paint5_linear_245_57744" x1="21.3833" y1="15.3056" x2="1.37697" y2="10.2708" gradientUnits="userSpaceOnUse">
<stop stop-color="#C82E57"/>
<stop offset="0.03" stop-color="#CA2E55"/>
<stop offset="0.4" stop-color="#E0343C"/>
<stop offset="0.73" stop-color="#ED372C"/>
<stop offset="1" stop-color="#F23827"/>
</linearGradient>
<linearGradient id="paint6_linear_245_57744" x1="36.634" y1="17.1848" x2="41.1082" y2="-0.246634" gradientUnits="userSpaceOnUse">
<stop stop-color="#CC3800"/>
<stop offset="0.19" stop-color="#CF3805"/>
<stop offset="0.42" stop-color="#D83915"/>
<stop offset="0.68" stop-color="#E73A2E"/>
<stop offset="0.96" stop-color="#FC3B51"/>
<stop offset="1" stop-color="#FF3B57"/>
</linearGradient>
<linearGradient id="paint7_linear_245_57744" x1="47.3051" y1="17.0665" x2="50.4263" y2="4.90597" gradientUnits="userSpaceOnUse">
<stop stop-color="#7F0B00"/>
<stop offset="0.24" stop-color="#7E0A05"/>
<stop offset="0.53" stop-color="#790715"/>
<stop offset="0.85" stop-color="#73032E"/>
<stop offset="1" stop-color="#6F003C"/>
</linearGradient>
<linearGradient id="paint8_linear_245_57744" x1="55.5017" y1="8.77293" x2="28.621" y2="13.8204" gradientUnits="userSpaceOnUse">
<stop stop-color="#BD007E"/>
<stop offset="0.1" stop-color="#90063C"/>
<stop offset="0.32" stop-color="#900637"/>
<stop offset="0.57" stop-color="#8E0829"/>
<stop offset="0.84" stop-color="#8C0A12"/>
<stop offset="1" stop-color="#8B0C00"/>
</linearGradient>
<linearGradient id="paint9_linear_245_57744" x1="12.4078" y1="5.33366" x2="7.91957" y2="9.53434" gradientUnits="userSpaceOnUse">
<stop stop-color="#900B00"/>
<stop offset="0.21" stop-color="#8D0A05"/>
<stop offset="0.47" stop-color="#850715"/>
<stop offset="0.76" stop-color="#77032E"/>
<stop offset="0.9" stop-color="#6F003C"/>
</linearGradient>
<linearGradient id="paint10_linear_245_57744" x1="6.76402" y1="11.4147" x2="3.20842" y2="14.7425" gradientUnits="userSpaceOnUse">
<stop stop-color="#900B00"/>
<stop offset="0.21" stop-color="#8D0A05"/>
<stop offset="0.47" stop-color="#850715"/>
<stop offset="0.76" stop-color="#77032E"/>
<stop offset="0.9" stop-color="#6F003C"/>
</linearGradient>
<linearGradient id="paint11_linear_245_57744" x1="19.7256" y1="9.50223" x2="14.8445" y2="14.0706" gradientUnits="userSpaceOnUse">
<stop stop-color="#900B00"/>
<stop offset="0.21" stop-color="#8D0A05"/>
<stop offset="0.47" stop-color="#850715"/>
<stop offset="0.76" stop-color="#77032E"/>
<stop offset="0.9" stop-color="#6F003C"/>
</linearGradient>
<linearGradient id="paint12_linear_245_57744" x1="12.4387" y1="15.6351" x2="8.62259" y2="19.2068" gradientUnits="userSpaceOnUse">
<stop stop-color="#900B00"/>
<stop offset="0.21" stop-color="#8D0A05"/>
<stop offset="0.47" stop-color="#850715"/>
<stop offset="0.76" stop-color="#77032E"/>
<stop offset="0.9" stop-color="#6F003C"/>
</linearGradient>
<linearGradient id="paint13_linear_245_57744" x1="12.7202" y1="10.625" x2="8.58605" y2="14.4942" gradientUnits="userSpaceOnUse">
<stop stop-color="#900B00"/>
<stop offset="0.21" stop-color="#8D0A05"/>
<stop offset="0.47" stop-color="#850715"/>
<stop offset="0.76" stop-color="#77032E"/>
<stop offset="0.9" stop-color="#6F003C"/>
</linearGradient>
</defs>
</svg>
