<svg width="63" height="53" viewBox="0 0 63 53" fill="none" xmlns="http://www.w3.org/2000/svg">
<path style="mix-blend-mode:screen" opacity="0.5" d="M44.3044 52.9982C33.9791 52.9982 25.6088 42.408 25.6088 29.3443C25.6088 16.2807 33.9791 5.69048 44.3044 5.69048C54.6297 5.69048 63 16.2807 63 29.3443C63 42.408 54.6297 52.9982 44.3044 52.9982Z" fill="url(#paint0_radial_24_39548)"/>
<path d="M55.5918 16.707C55.5918 16.707 58.0183 10.989 55.0459 5.75641C52.0735 0.523808 40.8115 -0.470697 38.4884 0.175823C36.1653 0.822343 34.3844 6.5641 34.3844 6.5641C34.3844 6.5641 39.6781 3.14102 47.0573 6.04395C54.4365 8.94688 55.5918 16.707 55.5918 16.707Z" fill="#FF9FDB"/>
<path d="M55.336 17.8956C56.0362 18.4148 56.5647 19.1355 56.8522 19.9634C57.1877 20.9744 57.8677 29.2802 56.6545 36.0659C55.4412 42.8516 51.4769 44.207 48.3884 44.619C44.551 45.1319 37.4728 44.119 37.4728 44.119L55.336 17.8956Z" fill="#FF9FDB"/>
<path d="M18.5433 33.1502C18.2441 40.0421 34.5676 43.5678 34.5676 43.5678C34.5676 43.5678 50.7515 47.3956 53.7474 41.1868C54.3303 39.9328 54.7907 38.6245 55.1221 37.2802C56.825 30.7692 56.961 22.0055 56.6527 20.0897L41.4916 16.0733L26.1093 11.9615C24.6567 13.8297 18.8425 26.2491 18.5433 33.1502Z" fill="url(#paint1_radial_24_39548)"/>
<g style="mix-blend-mode:multiply">
<path d="M25.9824 17.0549C25.9824 17.0549 28.0425 19.0696 26.1637 27.5238C24.2849 35.978 20.9136 34.4579 19.5734 33.2143C18.2332 31.9707 18.6358 31.9835 18.6358 31.9835L25.9824 17.0549Z" fill="#BF6377"/>
</g>
<path d="M56.5148 19.456C57.7372 21.837 50.7914 22.1337 39.9519 19.3681C30.5633 16.9725 23.6103 13.1575 26.813 11.2253C32.7631 7.6337 53.3883 13.37 56.5148 19.456Z" fill="url(#paint2_linear_24_39548)"/>
<path d="M32.7559 14.2546C33.8258 15.4359 36.8853 16.9286 40.612 17.881C44.8539 18.9652 48.1055 19.0971 49.6216 18.6941C50.4105 18.478 50.7297 18.1227 50.4722 17.6722C48.5444 14.3187 36.2795 10.9304 32.8048 12.8205C32.1828 13.1465 32.2209 13.6612 32.7559 14.2546Z" fill="url(#paint3_linear_24_39548)"/>
<g style="mix-blend-mode:multiply">
<path d="M32.7559 14.2546C33.8259 15.4359 36.8853 16.9286 40.6121 17.881C44.8539 18.9652 48.1055 19.0971 49.6216 18.6941C46.8306 15.652 36.3992 12.8407 32.7559 14.2546Z" fill="#DE6377"/>
</g>
<path d="M25.7901 17.022C28.6555 19.8956 26.9326 31.5476 20.8537 32.5989C19.0819 32.9066 11.0897 29.0201 12.9812 16.2088C12.9812 16.2088 15.9445 12.456 17.515 12.4377C21.3923 19.163 25.7901 17.022 25.7901 17.022Z" fill="url(#paint4_linear_24_39548)"/>
<g style="mix-blend-mode:multiply">
<path d="M22.8431 17.1941C22.8431 17.1941 22.9193 18.6209 20.4312 24.3718C18.449 28.9505 14.1201 26.881 13.7483 26.1172C13.3766 25.3535 13.3729 25.2399 13.3729 25.2399L22.8431 17.1941Z" fill="#BF6377"/>
</g>
<path d="M21.6281 6.34432C25.5725 12.5714 23.7009 20.0403 16.2383 24.1429C7.93054 28.7106 0.350016 20.8132 0.0036335 17.0971C-0.342751 13.381 21.6281 6.34432 21.6281 6.34432Z" fill="url(#paint5_linear_24_39548)"/>
<path d="M43.55 35.7015C43.55 35.7015 44.0777 36.2125 46.6039 35.4103C47.5581 35.0957 48.482 34.6942 49.3641 34.2106C49.3108 34.1961 49.26 34.1732 49.2136 34.1429C48.9543 33.9597 47.9242 33.3114 48.6333 33.4103C49.219 33.4927 49.6869 33.6923 49.783 33.9597C51.2339 33.0733 52.2422 32.0256 51.4642 31.2399C50.5828 30.3553 49.7504 29.348 48.5734 29.2875C48.7203 29.5458 48.7548 29.8077 48.3703 29.6081C48.3078 29.5849 48.2526 29.5454 48.2102 29.4936C48.1678 29.4418 48.1398 29.3795 48.1291 29.3132C47.5876 29.4076 47.075 29.627 46.6311 29.9542C46.4051 30.1172 46.2051 30.3143 46.0381 30.5385C46.6855 30.6868 47.4508 30.9469 46.2467 30.8846C46.0986 30.8793 45.9508 30.8659 45.8042 30.8443C44.6036 32.5549 43.55 35.7015 43.55 35.7015Z" fill="#D39AB5"/>
<path d="M35.8806 30.2601C36.2124 29.9396 36.9832 29.5586 37.928 29.2326C38.5682 30.2747 39.8467 30.2656 39.2936 28.8352C41.3338 28.3407 43.5572 28.2527 43.9852 29.4304C44.7269 31.489 43.1528 35.5751 43.1528 35.5751C42.5468 35.454 41.9732 35.2043 41.4698 34.8425C41.141 34.6172 40.8008 34.4094 40.4506 34.2198C40.7916 33.7967 39.9211 33.0275 38.5718 32.4103C37.5726 31.9505 37.2462 32.0311 37.3876 32.337C36.2251 31.5256 35.3982 30.7216 35.8806 30.2601ZM43.0803 33.1905C43.4212 33.4744 43.6878 33.1667 43.3251 33.0073C43.3251 33.0037 42.7429 32.9048 43.0803 33.1831V33.1905Z" fill="#D39AB5"/>
<path d="M43.1201 36.1722C42.8028 35.9322 39.8558 33.6831 37.3531 34.4908C34.8505 35.2985 39.2338 39.2527 40.6356 39.2637C42.0375 39.2747 43.1201 36.1722 43.1201 36.1722Z" fill="#D39AB5"/>
<path d="M42.5888 38.2784C42.9189 39.9267 45.5612 40.1905 47.5524 38.8278C48.5734 38.1264 49.453 36.1337 48.4211 36.1135C48.2688 36.1135 48.0584 36.1135 47.8244 36.1044C48.0257 36.4396 47.8099 36.7766 47.197 36.6154C46.8197 36.5183 46.8633 36.2802 47.0319 36.0916C46.8887 36.0916 46.7472 36.0916 46.5985 36.0916L46.0816 37.0897C46.0816 37.0897 45.9511 36.6154 46.1379 36.3571C46.215 36.2359 46.3252 36.1399 46.4552 36.0806C45.1676 36.0806 43.764 36.0806 43.5536 36.2125C43.5482 36.2143 42.3458 37.0604 42.5888 38.2784Z" fill="#D39AB5"/>
<path d="M20.4856 5.29121C28.2674 10.7033 13.4763 26.4725 3.18818 20.793C-6.57765 15.4029 9.54095 -2.32235 20.4856 5.29121Z" fill="url(#paint6_linear_24_39548)"/>
<path d="M28.8786 15.2015C28.8786 15.2015 26.1039 13.8278 25.9316 12.2015C25.9316 12.2015 28.9801 3.17949 36.1653 0.827843C42.8028 -1.34249 50.095 2.43224 51.9429 3.83517C51.9429 3.83517 40.8569 0.126377 35.7845 6.05678C30.712 11.9872 28.8786 15.2015 28.8786 15.2015Z" fill="url(#paint7_linear_24_39548)"/>
<path d="M51.8468 18.2344L49.7613 16.0696C49.7613 16.0696 53.7891 9.07326 45.7189 3.94505C45.728 3.94505 56.3208 3.57509 51.8468 18.2344Z" fill="url(#paint8_linear_24_39548)"/>
<path d="M28.8786 15.2015C28.8786 15.2015 33.1095 1.36264 44.9881 1.64835C59.917 1.98535 55.2726 18.1319 55.2726 18.1319C54.4928 18.8645 51.8468 18.2363 51.8468 18.2363C51.8468 18.2363 55.9962 7.30403 45.0788 6.52564C37.1156 5.95788 34.0398 14.5934 33.815 15.6703C32.6325 16.141 28.8786 15.2015 28.8786 15.2015Z" fill="url(#paint9_linear_24_39548)"/>
<path d="M8.41294 9.74175C9.16374 9.76556 10.319 9.24542 11.2348 8.35531C12.3084 7.30952 12.6856 6.31318 12.5478 5.75641C12.523 5.63633 12.4599 5.52777 12.3682 5.44737C12.2765 5.36698 12.1612 5.3192 12.04 5.31135C9.89096 5.10622 6.96212 7.9249 7.70566 9.37179C7.82717 9.61538 8.08288 9.73443 8.41294 9.74175Z" fill="url(#paint10_linear_24_39548)"/>
<g style="mix-blend-mode:multiply">
<path d="M8.41294 9.74176C9.16374 9.76557 10.319 9.24542 11.2348 8.35531C12.3084 7.30952 12.6856 6.31319 12.5478 5.75641C10.4513 5.81319 7.84349 8.33516 8.41294 9.74176Z" fill="#AB6377"/>
</g>
<path d="M3.6071 14.9249C4.22733 14.9982 5.16129 14.6264 5.88851 13.9194C6.73906 13.0897 7.02741 12.2564 6.89502 11.7656C6.87211 11.6597 6.81874 11.5631 6.74163 11.4879C6.66451 11.4126 6.56708 11.362 6.46159 11.3425C4.69884 11.0092 2.36121 13.2399 3.01589 14.5531C3.07471 14.661 3.15996 14.7518 3.26347 14.8169C3.36698 14.882 3.4853 14.9192 3.6071 14.9249Z" fill="url(#paint11_linear_24_39548)"/>
<g style="mix-blend-mode:multiply">
<path d="M3.6071 14.9249C4.22733 14.9982 5.16129 14.6264 5.88851 13.9194C6.73906 13.0897 7.02741 12.2564 6.89502 11.7656C5.17943 11.6612 3.09932 13.6612 3.6071 14.9249Z" fill="#AB6377"/>
</g>
<path d="M15.2064 14.1264C16.0624 14.1868 17.3935 13.6978 18.4707 12.8114C19.7293 11.7674 20.1972 10.7418 20.0467 10.152C20.0149 10.0183 19.9413 9.89851 19.8367 9.81042C19.7322 9.72233 19.6023 9.67063 19.4664 9.663C17.0145 9.35165 13.6014 12.1612 14.4066 13.7051C14.5372 13.9652 14.8256 14.1026 15.2064 14.1264Z" fill="url(#paint12_linear_24_39548)"/>
<g style="mix-blend-mode:multiply">
<path d="M15.2064 14.1264C16.0624 14.1868 17.3935 13.6978 18.4707 12.8114C19.7293 11.7674 20.1972 10.7418 20.0467 10.152C17.6329 10.1172 14.5898 12.6374 15.2064 14.1264Z" fill="#AB6377"/>
</g>
<path d="M8.90984 19.2674C9.60442 19.3755 10.669 19.0385 11.5086 18.3516C12.4916 17.5348 12.8379 16.685 12.7001 16.1667C12.6744 16.05 12.6153 15.9436 12.5302 15.8605C12.4451 15.7775 12.3377 15.7215 12.2213 15.6996C10.2392 15.2656 7.5497 17.4597 8.24428 18.8516C8.3131 18.9706 8.40976 19.0708 8.52579 19.1432C8.64183 19.2157 8.7737 19.2584 8.90984 19.2674Z" fill="url(#paint13_linear_24_39548)"/>
<g style="mix-blend-mode:multiply">
<path d="M8.90984 19.2674C9.60442 19.3755 10.669 19.0385 11.5086 18.3516C12.4916 17.5348 12.8379 16.685 12.7001 16.1667C10.7705 15.967 8.37123 17.9322 8.90984 19.2674Z" fill="#AB6377"/>
</g>
<path d="M8.97332 14.6282C9.69873 14.696 10.8014 14.2619 11.6755 13.4835C12.7019 12.5586 13.0664 11.6374 12.925 11.1026C12.8988 10.9842 12.837 10.877 12.748 10.7957C12.659 10.7143 12.5473 10.6629 12.4281 10.6483C10.3679 10.3242 7.56603 12.815 8.28419 14.2326C8.35524 14.3532 8.45612 14.4531 8.57694 14.5225C8.69776 14.5918 8.83435 14.6283 8.97332 14.6282Z" fill="url(#paint14_linear_24_39548)"/>
<g style="mix-blend-mode:multiply">
<path d="M8.97332 14.6282C9.69873 14.696 10.8014 14.2619 11.6755 13.4835C12.7019 12.5586 13.0664 11.6374 12.925 11.1026C10.9102 11.0275 8.41294 13.2582 8.97332 14.6282Z" fill="#AB6377"/>
</g>
<g style="mix-blend-mode:multiply" opacity="0.8">
<path d="M20.1918 15.5678C20.1918 15.5678 20.4221 20.8205 16.2383 24.1429C12.0545 27.4652 3.99339 23.3645 3.26616 22.3114C2.53894 21.2582 5.84862 22.9066 10.6037 21.6978C15.3587 20.489 20.1918 15.5678 20.1918 15.5678Z" fill="#EB6D98"/>
</g>
<g style="mix-blend-mode:soft-light" opacity="0.5">
<path d="M20.5418 14.7106C21.2491 11.2967 12.8343 17.0275 11.0099 20.1557C9.1855 23.2839 17.7435 19.4304 20.5418 14.7106Z" fill="#FFBD8D"/>
</g>
<g style="mix-blend-mode:soft-light" opacity="0.3">
<path d="M48.3921 21.0366C53.2596 21.1722 47.692 34.8004 36.2523 36.6996C24.8126 38.5989 27.1847 20.5623 27.5638 17.9945C27.9428 15.4267 38.084 20.7473 48.3921 21.0366Z" fill="#FFA98D"/>
</g>
<g style="mix-blend-mode:multiply" opacity="0.8">
<path d="M54.4239 32.8132C56.727 20.9084 45.1078 33.8846 35.7192 38.2015C26.3306 42.5183 43.6624 45.2875 48.2905 43.8242C52.9186 42.3608 54.4239 32.8132 54.4239 32.8132Z" fill="#EB6D98"/>
</g>
<g style="mix-blend-mode:multiply" opacity="0.8">
<path d="M21.9037 32.2967C26.1855 29.7527 16.9365 27.4725 15.5655 27.0073C14.1945 26.5421 14.1546 27.0641 14.1546 27.0641C14.1546 27.0641 17.1831 33.3901 21.9037 32.2967Z" fill="#E8598A"/>
</g>
<g style="mix-blend-mode:multiply">
<path d="M18.5433 33.1502C18.2441 40.0421 34.5676 43.5678 34.5676 43.5678C34.5676 43.5678 50.7515 47.3956 53.7474 41.1868C54.3303 39.9328 54.7907 38.6245 55.1221 37.2802C55.1221 37.2802 50.8621 46.9267 35.8679 43.119C20.8737 39.3113 18.5433 33.1502 18.5433 33.1502Z" fill="#C26377"/>
</g>
<g style="mix-blend-mode:soft-light" opacity="0.5">
<path d="M52.1823 21.337C53.1689 21.0366 51.3463 20.315 43.6171 18.5238C35.8878 16.7326 30.6594 15.837 30.605 15.978C30.5506 16.119 39.2664 20.4377 52.1823 21.337Z" fill="#FFD4A6"/>
</g>
<g style="mix-blend-mode:soft-light" opacity="0.5">
<path d="M45.4832 0.882779C45.8967 0.999995 38.4503 1.98168 35.2241 4.44505C31.9978 6.90842 31.2851 4.69963 31.6587 3.9304C32.0323 3.16117 36.2632 -1.58609 45.4832 0.882779Z" fill="#FFD4A6"/>
</g>
<g style="mix-blend-mode:multiply" opacity="0.8">
<path d="M50.8204 3.09707C53.751 5.28754 45.1839 5.20879 40.7082 6.87912C36.2324 8.54945 32.1701 10.7363 31.626 10.5549C31.082 10.3736 35.2531 3.67216 41.1616 2.5293C47.07 1.38645 50.8204 3.09707 50.8204 3.09707Z" fill="#EB6D98"/>
</g>
<g style="mix-blend-mode:soft-light" opacity="0.5">
<path d="M23.9966 29.7088C24.751 28.8132 24.6712 26.7216 22.7416 26.4725C22.1413 26.3938 21.3071 27.3443 21.7061 28.4707C22.105 29.5971 23.6665 30.0989 23.9966 29.7088Z" fill="#FFBD8D"/>
</g>
<path d="M15.9935 19.0476C15.9935 19.0476 12.7563 21.2875 8.72305 21.5183C6.26622 21.6373 3.83029 21.0116 1.7283 19.7216C1.7283 19.7216 3.21901 22.0696 7.89428 22.4359C12.5695 22.8022 15.9935 19.0476 15.9935 19.0476Z" fill="#FF5754"/>
<path d="M44.9881 1.64835C44.9881 1.64835 41.867 3.45421 36.5933 4.21246C36.5933 4.21246 37.9335 0.55861 44.9881 1.64835Z" fill="#B52225"/>
<path d="M55.8293 20.8919C55.8293 20.8919 54.2153 22.185 51.3227 22.2766C49.5114 22.3108 47.7128 21.966 46.0399 21.2637C46.0399 21.2637 49.8828 19.185 55.8293 20.8919Z" fill="#B31F19"/>
<g style="mix-blend-mode:multiply" opacity="0.3">
<path d="M40.1405 26.6154C39.1159 27.9322 37.3133 28.4469 36.3068 27.0916C35.1026 25.4762 33.3181 23.7546 34.4805 22.685C34.6855 22.5018 34.8831 22.2875 35.0989 22.0879C36.0946 21.1374 37.2389 20.2656 39.0996 21.978C39.0996 21.978 41.4263 23.945 40.6211 25.8095C40.4997 26.0999 40.3379 26.3712 40.1405 26.6154Z" fill="#C763A7"/>
</g>
<g style="mix-blend-mode:multiply">
<path d="M40.1405 26.6154L39.9592 26.7363C39.9592 26.7363 40.7916 25.87 40.5504 24.6813C40.3092 23.4927 39.1141 22.4652 37.6216 21.9084C36.129 21.3516 35.0971 22.0916 35.0971 22.0916C36.0928 21.141 37.2371 20.2692 39.0978 21.9817C39.0978 21.9817 41.4245 23.9487 40.6193 25.8132C40.4982 26.1021 40.337 26.3722 40.1405 26.6154Z" fill="#C763A7"/>
</g>
<g style="mix-blend-mode:multiply" opacity="0.3">
<path d="M27.9809 35.1282C27.649 36.2418 26.9889 37.0824 26.5518 36.5348C26.0295 35.8791 25.2823 35.3278 25.6777 34.337C25.7466 34.1538 25.8137 33.9707 25.8862 33.7875C26.2217 32.9084 26.6116 32.0366 27.3915 32.5604C27.3915 32.5604 28.3526 33.1099 28.1278 34.4982C28.0928 34.7113 28.0437 34.9217 27.9809 35.1282Z" fill="#C763A7"/>
</g>
<g style="mix-blend-mode:multiply">
<path d="M27.9809 35.1282L27.9174 35.2564C28.0342 34.8124 28.054 34.3481 27.9754 33.8956C27.834 33.2308 27.3824 32.8645 26.7948 32.9505C26.2072 33.0366 25.8881 33.7784 25.8881 33.7784C26.2236 32.8993 26.6135 32.0275 27.3933 32.5513C27.3933 32.5513 28.3544 33.1007 28.1296 34.489C28.0944 34.7052 28.0447 34.9188 27.9809 35.1282Z" fill="#C763A7"/>
</g>
<path d="M18.1062 16.3388C18.4363 16.2985 18.9985 17.4597 18.5179 18.4505C18.0373 19.4414 17.1324 19.9304 16.9655 19.881C16.7987 19.8315 15.6797 16.6319 18.1062 16.3388Z" fill="#810937"/>
<g style="mix-blend-mode:multiply">
<path d="M18.1062 16.3388C18.5306 16.4927 18.9024 17.3571 18.3003 18.1538C17.6982 18.9505 16.9546 18.2766 16.8005 17.5476C16.6463 16.8187 17.7997 16.2271 18.1062 16.3388Z" fill="#C76393"/>
</g>
<path d="M18.5179 18.4506C18.565 18.1557 16.9873 19 16.864 19.1923C16.7406 19.3846 16.9673 19.837 17.0634 19.8736C17.1596 19.9103 18.4 19.1795 18.5179 18.4506Z" fill="#E54247"/>
<path d="M17.7036 19.5092C17.465 19.5658 17.2346 19.6532 17.0181 19.7692C17.0016 19.7827 16.9883 19.7997 16.9792 19.819C16.9701 19.8384 16.9654 19.8595 16.9655 19.881C16.9655 19.881 16.9655 19.9176 17.2067 19.826C17.3863 19.7445 17.5536 19.6378 17.7036 19.5092Z" fill="#FF635C"/>
<path d="M45.8985 20.1667C46.2013 20.3022 46.2938 21.1593 45.5358 21.4359C44.7777 21.7125 43.8057 21.533 43.6751 21.4359C43.5445 21.3388 43.6642 19.1648 45.8985 20.1667Z" fill="#86002B"/>
<g style="mix-blend-mode:multiply">
<path d="M45.8985 20.1667C46.2177 20.4451 46.243 21.0604 45.4396 21.1813C44.6363 21.3022 44.2137 20.6062 44.3316 20.163C44.4495 19.7198 45.6663 19.9634 45.8985 20.1667Z" fill="#C76393"/>
</g>
<path d="M45.5267 21.4286C45.67 21.3004 43.9906 20.9817 43.8165 21.0238C43.6424 21.0659 43.6823 21.4011 43.7549 21.4634C43.8274 21.5256 45.1694 21.7527 45.5267 21.4286Z" fill="#E54247"/>
<path d="M44.444 21.5897C44.2183 21.5102 43.9866 21.449 43.7513 21.4066C43.686 21.4066 43.666 21.4377 43.666 21.4377C43.666 21.4377 43.6533 21.4579 43.8963 21.5238C44.0762 21.5648 44.2597 21.5869 44.444 21.5897Z" fill="#FF635C"/>
<path d="M6.59941 13.0238C6.59941 13.0238 5.68177 14.8553 4.27085 15.0824C2.85993 15.3095 2.91977 14.2857 2.91977 14.2857C2.91977 14.2857 2.91977 15.0806 4.15478 14.8974C5.38979 14.7143 6.59941 13.0238 6.59941 13.0238Z" fill="#FF4A4F"/>
<path d="M12.196 12.9505C11.9539 13.4276 11.6022 13.839 11.1702 14.1503C10.7382 14.4617 10.2386 14.6639 9.71324 14.7399C7.88703 15.0201 8.16993 13.674 8.16993 13.674C8.16993 13.674 8.03573 14.4377 8.99146 14.5678C9.94719 14.6978 11.7444 13.5861 12.196 12.9505Z" fill="#FF4A4F"/>
<path d="M11.7534 18.1319C11.7534 18.1319 10.7596 19.3352 9.43939 19.4707C8.11915 19.6062 8.14272 18.5128 8.14272 18.5128C8.16184 18.6715 8.22369 18.8218 8.32153 18.9474C8.41938 19.073 8.54948 19.1691 8.69766 19.2253C9.20726 19.4139 11.1332 18.9817 11.7534 18.1319Z" fill="#FF4A4F"/>
<path d="M6.76082 22.3443C6.76082 22.3443 4.41593 20.804 3.34777 20.2308C2.72912 19.8947 2.08366 19.6117 1.41817 19.3846C1.41817 19.3846 1.45263 20.8059 3.45295 21.9377C5.45326 23.0696 6.76082 22.3443 6.76082 22.3443Z" fill="#B41619"/>
<g style="mix-blend-mode:soft-light" opacity="0.5">
<path d="M21.1076 6.01465C21.7405 6.88278 18.2314 9.34066 15.667 9.28388C13.1027 9.22711 14.4538 5.60806 12.8797 4.9707C11.3055 4.33333 7.80178 6.36264 7.28493 8.2674C6.76808 10.1722 8.6088 9.56044 8.37304 10.3407C8.13729 11.1209 6.19682 9.92308 4.61724 11.2564C3.03766 12.5897 2.21432 11.7711 2.20706 11.5348C2.19981 11.2985 5.94292 4.96154 10.5892 4.08425C15.2354 3.20696 19.7819 4.22528 21.1076 6.01465Z" fill="#FFC8A6"/>
</g>
<path d="M50.1149 2.60073C50.1149 2.60073 45.728 1.42307 44.9246 1.89011C43.5126 2.71393 42.037 3.42135 40.5123 4.00549C38.7133 4.6685 36.8036 4.02014 35.0935 5.78754C33.3833 7.55494 30.5978 11.2692 30.5978 11.2692C30.5978 11.2692 31.9452 8.58425 33.5901 6.93406C35.235 5.28388 36.4681 4.23992 36.9977 4.15201C37.5272 4.0641 39.6055 3.78571 41.5623 3.06593C43.5191 2.34615 44.1357 1.41758 44.1357 1.41758C46.1805 1.46979 48.2019 1.86978 50.1149 2.60073Z" fill="#DB393E"/>
<g style="mix-blend-mode:multiply">
<path d="M43.5445 1.47619C44.1339 1.5348 42.0937 3.27289 40.681 3.36264C39.2682 3.45238 39.8359 1.11355 43.5445 1.47619Z" fill="#C76393"/>
</g>
<g style="mix-blend-mode:soft-light">
<path d="M33.4251 21.5238C33.5538 24.3498 31.4574 22.9725 31.5444 21.707C31.6315 20.4414 33.387 20.7198 33.4251 21.5238Z" fill="#FFFFD1"/>
</g>
<path d="M37.9951 18.8407C37.1453 18.2825 36.232 17.8299 35.2748 17.4927C34.402 17.19 33.4957 16.9963 32.5763 16.9157C34.3188 17.7276 36.1331 18.3721 37.9951 18.8407Z" fill="#FF5657"/>
<g style="mix-blend-mode:multiply">
<path d="M43.2816 15.2564C47.5288 16.4652 43.7948 18.1209 39.7361 17.4542C35.6775 16.7875 34.4787 15.3846 34.4678 14.652C34.457 13.9194 38.0205 13.7601 43.2816 15.2564Z" fill="#CC6377"/>
</g>
<defs>
<radialGradient id="paint0_radial_24_39548" cx="0" cy="0" r="1" gradientUnits="userSpaceOnUse" gradientTransform="translate(44.3044 29.2092) rotate(180) scale(18.6956 23.6012)">
<stop stop-color="#FF0EE7"/>
<stop offset="0.28" stop-color="#B10AA0"/>
<stop offset="0.63" stop-color="#52054B"/>
<stop offset="0.88" stop-color="#170115"/>
<stop offset="1"/>
</radialGradient>
<radialGradient id="paint1_radial_24_39548" cx="0" cy="0" r="1" gradientUnits="userSpaceOnUse" gradientTransform="translate(31.4802 25.5298) rotate(-165.604) scale(25.6914 25.9147)">
<stop stop-color="#AC0E00"/>
<stop offset="0.21" stop-color="#AA0D05"/>
<stop offset="0.47" stop-color="#A20B15"/>
<stop offset="0.76" stop-color="#97082E"/>
<stop offset="0.9" stop-color="#90063C"/>
<stop offset="1" stop-color="#BD007E"/>
</radialGradient>
<linearGradient id="paint2_linear_24_39548" x1="56.793" y1="19.5018" x2="26.1314" y2="11.7856" gradientUnits="userSpaceOnUse">
<stop stop-color="#CC3800"/>
<stop offset="0.19" stop-color="#CF3805"/>
<stop offset="0.42" stop-color="#D83915"/>
<stop offset="0.68" stop-color="#E73A2E"/>
<stop offset="0.96" stop-color="#FC3B51"/>
<stop offset="1" stop-color="#FF3B57"/>
</linearGradient>
<linearGradient id="paint3_linear_24_39548" x1="50.5836" y1="17.9288" x2="32.3528" y2="13.3409" gradientUnits="userSpaceOnUse">
<stop stop-color="#900B00"/>
<stop offset="0.21" stop-color="#8D0A05"/>
<stop offset="0.47" stop-color="#850715"/>
<stop offset="0.76" stop-color="#77032E"/>
<stop offset="0.9" stop-color="#6F003C"/>
</linearGradient>
<linearGradient id="paint4_linear_24_39548" x1="17.0797" y1="31.7755" x2="21.7636" y2="13.5267" gradientUnits="userSpaceOnUse">
<stop stop-color="#720025"/>
<stop offset="0.28" stop-color="#81081F"/>
<stop offset="0.67" stop-color="#911018"/>
<stop offset="0.98" stop-color="#961316"/>
</linearGradient>
<linearGradient id="paint5_linear_24_39548" x1="9.35548" y1="25.4106" x2="14.7061" y2="4.56453" gradientUnits="userSpaceOnUse">
<stop stop-color="#90063C"/>
<stop offset="0.15" stop-color="#950D2E"/>
<stop offset="0.47" stop-color="#9D1A15"/>
<stop offset="0.76" stop-color="#A22105"/>
<stop offset="1" stop-color="#A42400"/>
</linearGradient>
<linearGradient id="paint6_linear_24_39548" x1="21.3835" y1="15.3057" x2="1.37709" y2="10.2709" gradientUnits="userSpaceOnUse">
<stop stop-color="#C82E57"/>
<stop offset="0.03" stop-color="#CA2E55"/>
<stop offset="0.4" stop-color="#E0343C"/>
<stop offset="0.73" stop-color="#ED372C"/>
<stop offset="1" stop-color="#F23827"/>
</linearGradient>
<linearGradient id="paint7_linear_24_39548" x1="36.6341" y1="17.1849" x2="41.1082" y2="-0.246558" gradientUnits="userSpaceOnUse">
<stop stop-color="#CC3800"/>
<stop offset="0.19" stop-color="#CF3805"/>
<stop offset="0.42" stop-color="#D83915"/>
<stop offset="0.68" stop-color="#E73A2E"/>
<stop offset="0.96" stop-color="#FC3B51"/>
<stop offset="1" stop-color="#FF3B57"/>
</linearGradient>
<linearGradient id="paint8_linear_24_39548" x1="47.3052" y1="17.0666" x2="50.4265" y2="4.90607" gradientUnits="userSpaceOnUse">
<stop stop-color="#7F0B00"/>
<stop offset="0.24" stop-color="#7E0A05"/>
<stop offset="0.53" stop-color="#790715"/>
<stop offset="0.85" stop-color="#73032E"/>
<stop offset="1" stop-color="#6F003C"/>
</linearGradient>
<linearGradient id="paint9_linear_24_39548" x1="55.5017" y1="8.77312" x2="28.6211" y2="13.8206" gradientUnits="userSpaceOnUse">
<stop stop-color="#BD007E"/>
<stop offset="0.1" stop-color="#90063C"/>
<stop offset="0.32" stop-color="#900637"/>
<stop offset="0.57" stop-color="#8E0829"/>
<stop offset="0.84" stop-color="#8C0A12"/>
<stop offset="1" stop-color="#8B0C00"/>
</linearGradient>
<linearGradient id="paint10_linear_24_39548" x1="12.4079" y1="5.33386" x2="7.91963" y2="9.53454" gradientUnits="userSpaceOnUse">
<stop stop-color="#900B00"/>
<stop offset="0.21" stop-color="#8D0A05"/>
<stop offset="0.47" stop-color="#850715"/>
<stop offset="0.76" stop-color="#77032E"/>
<stop offset="0.9" stop-color="#6F003C"/>
</linearGradient>
<linearGradient id="paint11_linear_24_39548" x1="6.76421" y1="11.4148" x2="3.20861" y2="14.7426" gradientUnits="userSpaceOnUse">
<stop stop-color="#900B00"/>
<stop offset="0.21" stop-color="#8D0A05"/>
<stop offset="0.47" stop-color="#850715"/>
<stop offset="0.76" stop-color="#77032E"/>
<stop offset="0.9" stop-color="#6F003C"/>
</linearGradient>
<linearGradient id="paint12_linear_24_39548" x1="19.7257" y1="9.5022" x2="14.8446" y2="14.0706" gradientUnits="userSpaceOnUse">
<stop stop-color="#900B00"/>
<stop offset="0.21" stop-color="#8D0A05"/>
<stop offset="0.47" stop-color="#850715"/>
<stop offset="0.76" stop-color="#77032E"/>
<stop offset="0.9" stop-color="#6F003C"/>
</linearGradient>
<linearGradient id="paint13_linear_24_39548" x1="12.4389" y1="15.6353" x2="8.6227" y2="19.207" gradientUnits="userSpaceOnUse">
<stop stop-color="#900B00"/>
<stop offset="0.21" stop-color="#8D0A05"/>
<stop offset="0.47" stop-color="#850715"/>
<stop offset="0.76" stop-color="#77032E"/>
<stop offset="0.9" stop-color="#6F003C"/>
</linearGradient>
<linearGradient id="paint14_linear_24_39548" x1="12.7204" y1="10.6251" x2="8.58618" y2="14.4944" gradientUnits="userSpaceOnUse">
<stop stop-color="#900B00"/>
<stop offset="0.21" stop-color="#8D0A05"/>
<stop offset="0.47" stop-color="#850715"/>
<stop offset="0.76" stop-color="#77032E"/>
<stop offset="0.9" stop-color="#6F003C"/>
</linearGradient>
</defs>
</svg>
