<svg width="430" height="86" viewBox="0 0 430 86" fill="none" xmlns="http://www.w3.org/2000/svg">
<path d="M7.89363 55L7.89363 22.639C7.89363 14.4355 13.3786 5.96003 22.56 5.96003L404.268 5.96006C413.307 5.96006 422.13 14.2089 422.13 22.6391L422.13 55L430 55L430 24.1121C430 11.5122 417.718 3.43315e-05 404.268 3.31556e-05L22.5123 -2.18539e-07C9.873 -1.32351e-06 -3.03307e-06 10.6057 -4.21383e-06 24.1121L-6.91414e-06 55L7.89363 55Z" fill="#DB6D22"/>
<path d="M7.89363 32.4499L7.89363 30.4025L7.29748 30.8786L7.29748 32.4261L7.89363 32.4499ZM239.191 7.09478L245.749 7.52332L248.61 7.71378L251.352 7.88043L255.907 8.14232L258.673 8.30897L259.794 8.30898L265.111 8.59467C265.969 8.59467 266.828 8.59467 267.662 8.73751L305.218 8.73751C305.036 8.72591 304.853 8.72591 304.67 8.73751L302.095 8.42801L300.593 8.23756L295.204 7.61856L284.521 6.30913L228.342 6.30913C231.847 6.57101 235.495 6.8567 239.167 7.09478L239.191 7.09478ZM7.89363 32.4499L7.89363 30.4025L7.29748 30.8786L7.29748 32.4261L7.89363 32.4499ZM239.191 7.09478L245.749 7.52332L248.61 7.71378L251.352 7.88043L255.907 8.14232L258.673 8.30897L259.794 8.30898L265.111 8.59467C265.969 8.59467 266.828 8.59467 267.662 8.73751L305.218 8.73751C305.036 8.72591 304.853 8.72591 304.67 8.73751L302.095 8.42801L300.593 8.23756L295.204 7.61856L284.521 6.30913L228.342 6.30913C231.847 6.57101 235.495 6.8567 239.167 7.09478L239.191 7.09478ZM7.89363 32.4499L7.89363 30.4025L7.29748 30.8786L7.29748 32.4261L7.89363 32.4499ZM239.191 7.09478L245.749 7.52332L248.61 7.71378L251.352 7.88043L255.907 8.14232L258.673 8.30897L259.794 8.30898L265.111 8.59467C265.969 8.59467 266.828 8.59467 267.662 8.73751L305.218 8.73751C305.036 8.72591 304.853 8.72591 304.67 8.73751L302.095 8.42801L300.593 8.23756L295.204 7.61856L284.521 6.30913L228.342 6.30913C231.847 6.57101 235.495 6.8567 239.167 7.09478L239.191 7.09478ZM7.89363 32.4499L7.89363 30.4025L7.29748 30.8786L7.29748 32.4261L7.89363 32.4499ZM239.191 7.09478L245.749 7.52332L248.61 7.71378L251.352 7.88043L255.907 8.14232L258.673 8.30897L259.794 8.30898L265.111 8.59467C265.969 8.59467 266.828 8.59467 267.662 8.73751L305.218 8.73751C305.036 8.72591 304.853 8.72591 304.67 8.73751L302.095 8.42801L300.593 8.23756L295.204 7.61856L284.521 6.30913L228.342 6.30913C231.847 6.57101 235.495 6.8567 239.167 7.09478L239.191 7.09478ZM7.89363 32.4499L7.89363 30.4025L7.29748 30.8786L7.29748 32.4261L7.89363 32.4499ZM239.191 7.09478L245.749 7.52332L248.61 7.71378L251.352 7.88043L255.907 8.14232L258.673 8.30897L259.794 8.30898L265.111 8.59467C265.969 8.59467 266.828 8.59467 267.662 8.73751L305.218 8.73751C305.036 8.72591 304.853 8.72591 304.67 8.73751L302.095 8.42801L300.593 8.23756L295.204 7.61856L284.521 6.30913L228.342 6.30913C231.847 6.57101 235.495 6.8567 239.167 7.09478L239.191 7.09478ZM7.89363 32.4499L7.89363 30.4025L7.29748 30.8786L7.29748 32.4261L7.89363 32.4499ZM239.191 7.09478L245.749 7.52332L248.61 7.71378L251.352 7.88043L255.907 8.14232L258.673 8.30897L259.794 8.30898L265.111 8.59467C265.969 8.59467 266.828 8.59467 267.662 8.73751L305.218 8.73751C305.036 8.72591 304.853 8.72591 304.67 8.73751L302.095 8.42801L300.593 8.23756L295.204 7.61856L284.521 6.30913L228.342 6.30913C231.847 6.57101 235.495 6.8567 239.167 7.09478L239.191 7.09478ZM7.89363 32.4499L7.89363 30.4025L7.29748 30.8786L7.29748 32.4261L7.89363 32.4499ZM239.191 7.09478L245.749 7.52332L248.61 7.71378L251.352 7.88043L255.907 8.14232L258.673 8.30897L259.794 8.30898L265.111 8.59467C265.969 8.59467 266.828 8.59467 267.662 8.73751L305.218 8.73751C305.036 8.72591 304.853 8.72591 304.67 8.73751L302.095 8.42801L300.593 8.23756L295.204 7.61856L284.521 6.30913L228.342 6.30913C231.847 6.57101 235.495 6.8567 239.167 7.09478L239.191 7.09478ZM7.89363 32.4499L7.89363 30.4025L7.29748 30.8786L7.29748 32.4261L7.89363 32.4499ZM239.191 7.09478L245.749 7.52332L248.61 7.71378L251.352 7.88043L255.907 8.14232L258.673 8.30897L259.794 8.30898L265.111 8.59467C265.969 8.59467 266.828 8.59467 267.662 8.73751L305.218 8.73751C305.036 8.72591 304.853 8.72591 304.67 8.73751L302.095 8.42801L300.593 8.23756L295.204 7.61856L284.521 6.30913L228.342 6.30913C231.847 6.57101 235.495 6.8567 239.167 7.09478L239.191 7.09478ZM7.89363 32.4499L7.89363 30.4025L7.29748 30.8786L7.29748 32.4261L7.89363 32.4499ZM239.191 7.09478L245.749 7.52332L248.61 7.71378L251.352 7.88043L255.907 8.14232L258.673 8.30897L259.794 8.30898L265.111 8.59467C265.969 8.59467 266.828 8.59467 267.662 8.73751L305.218 8.73751C305.036 8.72591 304.853 8.72591 304.67 8.73751L302.095 8.42801L300.593 8.23756L295.204 7.61856L284.521 6.30913L228.342 6.30913C231.847 6.57101 235.495 6.8567 239.167 7.09478L239.191 7.09478ZM7.89363 32.4499L7.89363 30.4025L7.29748 30.8786L7.29748 32.4261L7.89363 32.4499ZM239.191 7.09478L245.749 7.52332L248.61 7.71378L251.352 7.88043L255.907 8.14232L258.673 8.30897L259.794 8.30898L265.111 8.59467C265.969 8.59467 266.828 8.59467 267.662 8.73751L305.218 8.73751C305.036 8.72591 304.853 8.72591 304.67 8.73751L302.095 8.42801L300.593 8.23756L295.204 7.61856L284.521 6.30913L228.342 6.30913C231.847 6.57101 235.495 6.8567 239.167 7.09478L239.191 7.09478ZM7.89363 32.4499L7.89363 30.4025L7.29748 30.8786L7.29748 32.4261L7.89363 32.4499ZM239.191 7.09478L245.749 7.52332L248.61 7.71378L251.352 7.88043L255.907 8.14232L258.673 8.30897L259.794 8.30898L265.111 8.59467C265.969 8.59467 266.828 8.59467 267.662 8.73751L305.218 8.73751C305.036 8.72591 304.853 8.72591 304.67 8.73751L302.095 8.42801L300.593 8.23756L295.204 7.61856L284.521 6.30913L228.342 6.30913C231.847 6.57101 235.495 6.8567 239.167 7.09478L239.191 7.09478ZM7.89363 32.4499L7.89363 30.4025L7.29748 30.8786L7.29748 32.4261L7.89363 32.4499ZM239.191 7.09478L245.749 7.52332L248.61 7.71378L251.352 7.88043L255.907 8.14232L258.673 8.30897L259.794 8.30898L265.111 8.59467C265.969 8.59467 266.828 8.59467 267.662 8.73751L305.218 8.73751C305.036 8.72591 304.853 8.72591 304.67 8.73751L302.095 8.42801L300.593 8.23756L295.204 7.61856L284.521 6.30913L228.342 6.30913C231.847 6.57101 235.495 6.8567 239.167 7.09478L239.191 7.09478ZM7.89363 32.4499L7.89363 30.4025L7.29748 30.8786L7.29748 32.4261L7.89363 32.4499ZM239.191 7.09478L245.749 7.52332L248.61 7.71378L251.352 7.88043L255.907 8.14232L258.673 8.30897L259.794 8.30898L265.111 8.59467C265.969 8.59467 266.828 8.59467 267.662 8.73751L305.218 8.73751C305.036 8.72591 304.853 8.72591 304.67 8.73751L302.095 8.42801L300.593 8.23756L295.204 7.61856L284.521 6.30913L228.342 6.30913C231.847 6.57101 235.495 6.8567 239.167 7.09478L239.191 7.09478ZM7.89363 32.4499L7.89363 30.4025L7.29748 30.8786L7.29748 32.4261L7.89363 32.4499ZM239.191 7.09478L245.749 7.52332L248.61 7.71378L251.352 7.88043L255.907 8.14232L258.673 8.30897L259.794 8.30898L265.111 8.59467C265.969 8.59467 266.828 8.59467 267.662 8.73751L305.218 8.73751C305.036 8.72591 304.853 8.72591 304.67 8.73751L302.095 8.42801L300.593 8.23756L295.204 7.61856L284.521 6.30913L228.342 6.30913C231.847 6.57101 235.495 6.8567 239.167 7.09478L239.191 7.09478ZM7.89363 32.4499L7.89363 30.4025L7.29748 30.8786L7.29748 32.4261L7.89363 32.4499ZM239.191 7.09478L245.749 7.52332L248.61 7.71378L251.352 7.88043L255.907 8.14232L258.673 8.30897L259.794 8.30898L265.111 8.59467C265.969 8.59467 266.828 8.59467 267.662 8.73751L305.218 8.73751C305.036 8.72591 304.853 8.72591 304.67 8.73751L302.095 8.42801L300.593 8.23756L295.204 7.61856L284.521 6.30913L228.342 6.30913C231.847 6.57101 235.495 6.8567 239.167 7.09478L239.191 7.09478ZM7.89363 32.4499L7.89363 30.4025L7.29748 30.8786L7.29748 32.4261L7.89363 32.4499ZM239.191 7.09478L245.749 7.52332L248.61 7.71378L251.352 7.88043L255.907 8.14232L258.673 8.30897L259.794 8.30898L265.111 8.59467C265.969 8.59467 266.828 8.59467 267.662 8.73751L305.218 8.73751C305.036 8.72591 304.853 8.72591 304.67 8.73751L302.095 8.42801L300.593 8.23756L295.204 7.61856L284.521 6.30913L228.342 6.30913C231.847 6.57101 235.495 6.8567 239.167 7.09478L239.191 7.09478ZM7.89363 32.4499L7.89363 30.4025L7.29748 30.8786L7.29748 32.4261L7.89363 32.4499ZM239.191 7.09478L245.749 7.52332L248.61 7.71378L251.352 7.88043L255.907 8.14232L258.673 8.30897L259.794 8.30898L265.111 8.59467C265.969 8.59467 266.828 8.59467 267.662 8.73751L305.218 8.73751C305.036 8.72591 304.853 8.72591 304.67 8.73751L302.095 8.42801L300.593 8.23756L295.204 7.61856L284.521 6.30913L228.342 6.30913C231.847 6.57101 235.495 6.8567 239.167 7.09478L239.191 7.09478ZM7.89363 32.4499L7.89363 30.4025L7.29748 30.8786L7.29748 32.4261L7.89363 32.4499ZM239.191 7.09478L245.749 7.52332L248.61 7.71378L251.352 7.88043L255.907 8.14232L258.673 8.30897L259.794 8.30898L265.111 8.59467C265.969 8.59467 266.828 8.59467 267.662 8.73751L305.218 8.73751C305.036 8.72591 304.853 8.72591 304.67 8.73751L302.095 8.42801L300.593 8.23756L295.204 7.61856L284.521 6.30913L228.342 6.30913C231.847 6.57101 235.495 6.8567 239.167 7.09478L239.191 7.09478ZM7.89363 32.4499L7.89363 30.4025L7.29748 30.8786L7.29748 32.4261L7.89363 32.4499ZM239.191 7.09478L245.749 7.52332L248.61 7.71378L251.352 7.88043L255.907 8.14232L258.673 8.30897L259.794 8.30898L265.111 8.59467C265.969 8.59467 266.828 8.59467 267.662 8.73751L305.218 8.73751C305.036 8.72591 304.853 8.72591 304.67 8.73751L302.095 8.42801L300.593 8.23756L295.204 7.61856L284.521 6.30913L228.342 6.30913C231.847 6.57101 235.495 6.8567 239.167 7.09478L239.191 7.09478ZM7.89363 32.4499L7.89363 30.4025L7.29748 30.8786L7.29748 32.4261L7.89363 32.4499ZM239.191 7.09478L245.749 7.52332L248.61 7.71378L251.352 7.88043L255.907 8.14232L258.673 8.30897L259.794 8.30898L265.111 8.59467C265.969 8.59467 266.828 8.59467 267.662 8.73751L305.218 8.73751C305.036 8.72591 304.853 8.72591 304.67 8.73751L302.095 8.42801L300.593 8.23756L295.204 7.61856L284.521 6.30913L228.342 6.30913C231.847 6.57101 235.495 6.8567 239.167 7.09478L239.191 7.09478ZM7.89363 32.4499L7.89363 30.4025L7.29748 30.8786L7.29748 32.4261L7.89363 32.4499ZM239.191 7.09478L245.749 7.52332L248.61 7.71378L251.352 7.88043L255.907 8.14232L258.673 8.30897L259.794 8.30898L265.111 8.59467C265.969 8.59467 266.828 8.59467 267.662 8.73751L305.218 8.73751C305.036 8.72591 304.853 8.72591 304.67 8.73751L302.095 8.42801L300.593 8.23756L295.204 7.61856L284.521 6.30913L228.342 6.30913C231.847 6.57101 235.495 6.8567 239.167 7.09478L239.191 7.09478ZM7.89363 32.4499L7.89363 30.4025L7.29748 30.8786L7.29748 32.4261L7.89363 32.4499ZM239.191 7.09478L245.749 7.52332L248.61 7.71378L251.352 7.88043L255.907 8.14232L258.673 8.30897L259.794 8.30898L265.111 8.59467C265.969 8.59467 266.828 8.59467 267.662 8.73751L305.218 8.73751C305.036 8.72591 304.853 8.72591 304.67 8.73751L302.095 8.42801L300.593 8.23756L295.204 7.61856L284.521 6.30913L228.342 6.30913C231.847 6.57101 235.495 6.8567 239.167 7.09478L239.191 7.09478ZM7.89363 32.4499L7.89363 30.4025L7.29748 30.8786L7.29748 32.4261L7.89363 32.4499ZM239.191 7.09478L245.749 7.52332L248.61 7.71378L251.352 7.88043L255.907 8.14232L258.673 8.30897L259.794 8.30898L265.111 8.59467C265.969 8.59467 266.828 8.59467 267.662 8.73751L305.218 8.73751C305.036 8.72591 304.853 8.72591 304.67 8.73751L302.095 8.42801L300.593 8.23756L295.204 7.61856L284.521 6.30913L228.342 6.30913C231.847 6.57101 235.495 6.8567 239.167 7.09478L239.191 7.09478ZM7.89363 32.4499L7.89363 30.4025L7.29748 30.8786L7.29748 32.4261L7.89363 32.4499ZM239.191 7.09478L245.749 7.52332L248.61 7.71378L251.352 7.88043L255.907 8.14232L258.673 8.30897L259.794 8.30898L265.111 8.59467C265.969 8.59467 266.828 8.59467 267.662 8.73751L305.218 8.73751C305.036 8.72591 304.853 8.72591 304.67 8.73751L302.095 8.42801L300.593 8.23756L295.204 7.61856L284.521 6.30913L228.342 6.30913C231.847 6.57101 235.495 6.8567 239.167 7.09478L239.191 7.09478ZM7.89363 32.4499L7.89363 30.4025L7.29748 30.8786L7.29748 32.4261L7.89363 32.4499ZM239.191 7.09478L245.749 7.52332L248.61 7.71378L251.352 7.88043L255.907 8.14232L258.673 8.30897L259.794 8.30898L265.111 8.59467C265.969 8.59467 266.828 8.59467 267.662 8.73751L305.218 8.73751C305.036 8.72591 304.853 8.72591 304.67 8.73751L302.095 8.42801L300.593 8.23756L295.204 7.61856L284.521 6.30913L228.342 6.30913C231.847 6.57101 235.495 6.8567 239.167 7.09478L239.191 7.09478ZM7.89363 32.4499L7.89363 30.4025L7.29748 30.8786L7.29748 32.4261L7.89363 32.4499ZM239.191 7.09478L245.749 7.52332L248.61 7.71378L251.352 7.88043L255.907 8.14232L258.673 8.30897L259.794 8.30898L265.111 8.59467C265.969 8.59467 266.828 8.59467 267.662 8.73751L305.218 8.73751C305.036 8.72591 304.853 8.72591 304.67 8.73751L302.095 8.42801L300.593 8.23756L295.204 7.61856L284.521 6.30913L228.342 6.30913C231.847 6.57101 235.495 6.8567 239.167 7.09478L239.191 7.09478ZM7.89363 32.4499L7.89363 30.4025L7.29748 30.8786L7.29748 32.4261L7.89363 32.4499ZM239.191 7.09478L245.749 7.52332L248.61 7.71378L251.352 7.88043L255.907 8.14232L258.673 8.30897L259.794 8.30898L265.111 8.59467C265.969 8.59467 266.828 8.59467 267.662 8.73751L305.218 8.73751C305.036 8.72591 304.853 8.72591 304.67 8.73751L302.095 8.42801L300.593 8.23756L295.204 7.61856L284.521 6.30913L228.342 6.30913C231.847 6.57101 235.495 6.8567 239.167 7.09478L239.191 7.09478ZM239.191 7.09478L245.749 7.52332L248.61 7.71378L251.352 7.88043L255.907 8.14232L258.673 8.30897L259.794 8.30898L265.111 8.59467C265.969 8.59467 266.828 8.59467 267.662 8.73751L305.218 8.73751C305.036 8.72591 304.853 8.72591 304.67 8.73751L302.095 8.42801L300.593 8.23756L295.204 7.61856L284.521 6.30913L228.342 6.30913C231.847 6.57101 235.495 6.8567 239.167 7.09478L239.191 7.09478ZM243.96 7.09478L244.962 7.09478L245.2 7.09478L246.416 7.09478L247.156 7.09478C250.947 7.35667 255.454 7.71378 259.46 8.02328L259.841 8.02328L262.536 8.26136L264.92 8.45182L268.33 8.45182L233.445 5.95201L232.276 5.95201L243.96 7.09478ZM243.96 7.09478L244.962 7.09478L245.2 7.09478L246.416 7.09478L247.156 7.09478C250.947 7.35667 255.454 7.71378 259.46 8.02328L259.841 8.02328L262.536 8.26136L264.92 8.45182L268.33 8.45182L233.445 5.95201L232.276 5.95201L243.96 7.09478ZM243.96 7.09478L244.962 7.09478L245.2 7.09478L246.416 7.09478L247.156 7.09478C250.947 7.35667 255.454 7.71378 259.46 8.02328L259.841 8.02328L262.536 8.26136L264.92 8.45182L268.33 8.45182L233.445 5.95201L232.276 5.95201L243.96 7.09478ZM243.96 7.09478L244.962 7.09478L245.2 7.09478L246.416 7.09478L247.156 7.09478C250.947 7.35667 255.454 7.71378 259.46 8.02328L259.841 8.02328L262.536 8.26136L264.92 8.45182L268.33 8.45182L233.445 5.95201L232.276 5.95201L243.96 7.09478ZM243.96 7.09478L244.962 7.09478L245.2 7.09478L246.416 7.09478L247.156 7.09478C250.947 7.35667 255.454 7.71378 259.46 8.02328L259.841 8.02328L262.536 8.26136L264.92 8.45182L268.33 8.45182L233.445 5.95201L232.276 5.95201L243.96 7.09478ZM243.96 7.09478L244.962 7.09478L245.2 7.09478L246.416 7.09478L247.156 7.09478C250.947 7.35667 255.454 7.71378 259.46 8.02328L259.841 8.02328L262.536 8.26136L264.92 8.45182L268.33 8.45182L233.445 5.95201L232.276 5.95201L243.96 7.09478ZM243.96 7.09478L244.962 7.09478L245.2 7.09478L246.416 7.09478L247.156 7.09478C250.947 7.35667 255.454 7.71378 259.46 8.02328L259.841 8.02328L262.536 8.26136L264.92 8.45182L268.33 8.45182L233.445 5.95201L232.276 5.95201L243.96 7.09478ZM243.96 7.09478L244.962 7.09478L245.2 7.09478L246.416 7.09478L247.156 7.09478C250.947 7.35667 255.454 7.71378 259.46 8.02328L259.841 8.02328L262.536 8.26136L264.92 8.45182L268.33 8.45182L233.445 5.95201L232.276 5.95201L243.96 7.09478ZM7.89362 85.9047L7.89363 26.2837C7.90659 23.712 8.38317 21.1636 9.30052 18.7605C9.53638 18.1503 9.80705 17.5542 10.1112 16.9749C10.1112 16.7369 10.3497 16.4988 10.4928 16.2607C11.6242 14.0677 13.331 12.2227 15.4309 10.9229C17.5308 9.62297 19.9449 8.917 22.4153 8.88034L404.271 8.88037C407.682 9.06113 410.981 10.1529 413.825 12.0416C416.669 13.9303 418.953 16.5467 420.438 19.6176C420.653 19.7605 420.653 20.0462 420.82 20.2604C420.815 20.3079 420.815 20.3558 420.82 20.4033C421.011 20.8381 421.178 21.2832 421.32 21.7365C421.365 21.9066 421.421 22.0736 421.487 22.2365C421.875 23.551 422.076 24.9134 422.083 26.2838L422.083 86L430 86L430 26.2838C430 25.5219 430 24.7839 429.881 24.0458C429.834 23.4204 429.738 22.7995 429.595 22.1888C429.517 21.6997 429.413 21.215 429.285 20.7366C429.285 20.4509 429.142 20.189 429.046 19.9033C428.238 17.1709 426.973 14.5949 425.303 12.2849C424.754 11.5468 424.182 10.8088 423.562 10.0946L423.252 9.76125L422.632 9.09464L422.322 8.78515C417.569 3.91509 411.081 1.11699 404.271 1.00004L22.4392 1L21.1754 1C19.4301 1.09258 17.7056 1.42094 16.0487 1.97612C12.6783 3.13765 9.62242 5.06144 7.11987 7.59722C4.61733 10.133 2.73585 13.2121 1.62238 16.594C1.52069 16.8347 1.43312 17.0812 1.36009 17.3321C1.16933 17.9034 1.02627 18.4986 0.883201 19.0938C0.278092 21.4259 -0.0185611 23.8271 0.000889542 26.2361L0.000884317 86L7.89362 85.9047ZM243.96 7.09478L244.962 7.09478L245.2 7.09478L246.416 7.09478L247.156 7.09478C250.947 7.35667 255.454 7.71378 259.46 8.02328L259.841 8.02328L262.536 8.26136L264.92 8.45182L268.33 8.45182L233.445 5.95201L232.276 5.95201L243.96 7.09478ZM243.96 7.09478L244.962 7.09478L245.2 7.09478L246.416 7.09478L247.156 7.09478C250.947 7.35667 255.454 7.71378 259.46 8.02328L259.841 8.02328L262.536 8.26136L264.92 8.45182L268.33 8.45182L233.445 5.95201L232.276 5.95201L243.96 7.09478ZM243.96 7.09478L244.962 7.09478L245.2 7.09478L246.416 7.09478L247.156 7.09478C250.947 7.35667 255.454 7.71378 259.46 8.02328L259.841 8.02328L262.536 8.26136L264.92 8.45182L268.33 8.45182L233.445 5.95201L232.276 5.95201L243.96 7.09478ZM243.96 7.09478L244.962 7.09478L245.2 7.09478L246.416 7.09478L247.156 7.09478C250.947 7.35667 255.454 7.71378 259.46 8.02328L259.841 8.02328L262.536 8.26136L264.92 8.45182L268.33 8.45182L233.445 5.95201L232.276 5.95201L243.96 7.09478ZM243.96 7.09478L244.962 7.09478L245.2 7.09478L246.416 7.09478L247.156 7.09478C250.947 7.35667 255.454 7.71378 259.46 8.02328L259.841 8.02328L262.536 8.26136L264.92 8.45182L268.33 8.45182L233.445 5.95201L232.276 5.95201L243.96 7.09478ZM243.96 7.09478L244.962 7.09478L245.2 7.09478L246.416 7.09478L247.156 7.09478C250.947 7.35667 255.454 7.71378 259.46 8.02328L259.841 8.02328L262.536 8.26136L264.92 8.45182L268.33 8.45182L233.445 5.95201L232.276 5.95201L243.96 7.09478ZM243.96 7.09478L244.962 7.09478L245.2 7.09478L246.416 7.09478L247.156 7.09478C250.947 7.35667 255.454 7.71378 259.46 8.02328L259.841 8.02328L262.536 8.26136L264.92 8.45182L268.33 8.45182L233.445 5.95201L232.276 5.95201L243.96 7.09478ZM243.96 7.09478L244.962 7.09478L245.2 7.09478L246.416 7.09478L247.156 7.09478C250.947 7.35667 255.454 7.71378 259.46 8.02328L259.841 8.02328L262.536 8.26136L264.92 8.45182L268.33 8.45182L233.445 5.95201L232.276 5.95201L243.96 7.09478ZM239.191 7.09478L245.749 7.52332L248.61 7.71378L251.352 7.88043L255.907 8.14232L258.673 8.30897L259.794 8.30898L265.111 8.59467C265.969 8.59467 266.828 8.59467 267.662 8.73751L305.218 8.73751C305.036 8.72591 304.853 8.72591 304.67 8.73751L302.095 8.42801L300.593 8.23756L295.204 7.61856L284.521 6.30913L228.342 6.30913C231.847 6.57101 235.495 6.8567 239.167 7.09478L239.191 7.09478ZM7.89363 32.4499L7.89363 30.4025L7.29748 30.8786L7.29748 32.4261L7.89363 32.4499ZM239.191 7.09478L245.749 7.52332L248.61 7.71378L251.352 7.88043L255.907 8.14232L258.673 8.30897L259.794 8.30898L265.111 8.59467C265.969 8.59467 266.828 8.59467 267.662 8.73751L305.218 8.73751C305.036 8.72591 304.853 8.72591 304.67 8.73751L302.095 8.42801L300.593 8.23756L295.204 7.61856L284.521 6.30913L228.342 6.30913C231.847 6.57101 235.495 6.8567 239.167 7.09478L239.191 7.09478ZM7.89363 32.4499L7.89363 30.4025L7.29748 30.8786L7.29748 32.4261L7.89363 32.4499ZM239.191 7.09478L245.749 7.52332L248.61 7.71378L251.352 7.88043L255.907 8.14232L258.673 8.30897L259.794 8.30898L265.111 8.59467C265.969 8.59467 266.828 8.59467 267.662 8.73751L305.218 8.73751C305.036 8.72591 304.853 8.72591 304.67 8.73751L302.095 8.42801L300.593 8.23756L295.204 7.61856L284.521 6.30913L228.342 6.30913C231.847 6.57101 235.495 6.8567 239.167 7.09478L239.191 7.09478ZM7.89363 32.4499L7.89363 30.4025L7.29748 30.8786L7.29748 32.4261L7.89363 32.4499ZM239.191 7.09478L245.749 7.52332L248.61 7.71378L251.352 7.88043L255.907 8.14232L258.673 8.30897L259.794 8.30898L265.111 8.59467C265.969 8.59467 266.828 8.59467 267.662 8.73751L305.218 8.73751C305.036 8.72591 304.853 8.72591 304.67 8.73751L302.095 8.42801L300.593 8.23756L295.204 7.61856L284.521 6.30913L228.342 6.30913C231.847 6.57101 235.495 6.8567 239.167 7.09478L239.191 7.09478ZM7.89363 32.4499L7.89363 30.4025L7.29748 30.8786L7.29748 32.4261L7.89363 32.4499ZM239.191 7.09478L245.749 7.52332L248.61 7.71378L251.352 7.88043L255.907 8.14232L258.673 8.30897L259.794 8.30898L265.111 8.59467C265.969 8.59467 266.828 8.59467 267.662 8.73751L305.218 8.73751C305.036 8.72591 304.853 8.72591 304.67 8.73751L302.095 8.42801L300.593 8.23756L295.204 7.61856L284.521 6.30913L228.342 6.30913C231.847 6.57101 235.495 6.8567 239.167 7.09478L239.191 7.09478ZM7.89363 32.4499L7.89363 30.4025L7.29748 30.8786L7.29748 32.4261L7.89363 32.4499ZM239.191 7.09478L245.749 7.52332L248.61 7.71378L251.352 7.88043L255.907 8.14232L258.673 8.30897L259.794 8.30898L265.111 8.59467C265.969 8.59467 266.828 8.59467 267.662 8.73751L305.218 8.73751C305.036 8.72591 304.853 8.72591 304.67 8.73751L302.095 8.42801L300.593 8.23756L295.204 7.61856L284.521 6.30913L228.342 6.30913C231.847 6.57101 235.495 6.8567 239.167 7.09478L239.191 7.09478ZM7.89363 32.4499L7.89363 30.4025L7.29748 30.8786L7.29748 32.4261L7.89363 32.4499ZM239.191 7.09478L245.749 7.52332L248.61 7.71378L251.352 7.88043L255.907 8.14232L258.673 8.30897L259.794 8.30898L265.111 8.59467C265.969 8.59467 266.828 8.59467 267.662 8.73751L305.218 8.73751C305.036 8.72591 304.853 8.72591 304.67 8.73751L302.095 8.42801L300.593 8.23756L295.204 7.61856L284.521 6.30913L228.342 6.30913C231.847 6.57101 235.495 6.8567 239.167 7.09478L239.191 7.09478ZM7.89363 32.4499L7.89363 30.4025L7.29748 30.8786L7.29748 32.4261L7.89363 32.4499ZM239.191 7.09478L245.749 7.52332L248.61 7.71378L251.352 7.88043L255.907 8.14232L258.673 8.30897L259.794 8.30898L265.111 8.59467C265.969 8.59467 266.828 8.59467 267.662 8.73751L305.218 8.73751C305.036 8.72591 304.853 8.72591 304.67 8.73751L302.095 8.42801L300.593 8.23756L295.204 7.61856L284.521 6.30913L228.342 6.30913C231.847 6.57101 235.495 6.8567 239.167 7.09478L239.191 7.09478ZM7.89363 32.4499L7.89363 30.4025L7.29748 30.8786L7.29748 32.4261L7.89363 32.4499ZM239.191 7.09478L245.749 7.52332L248.61 7.71378L251.352 7.88043L255.907 8.14232L258.673 8.30897L259.794 8.30898L265.111 8.59467C265.969 8.59467 266.828 8.59467 267.662 8.73751L305.218 8.73751C305.036 8.72591 304.853 8.72591 304.67 8.73751L302.095 8.42801L300.593 8.23756L295.204 7.61856L284.521 6.30913L228.342 6.30913C231.847 6.57101 235.495 6.8567 239.167 7.09478L239.191 7.09478ZM7.89363 32.4499L7.89363 30.4025L7.29748 30.8786L7.29748 32.4261L7.89363 32.4499ZM239.191 7.09478L245.749 7.52332L248.61 7.71378L251.352 7.88043L255.907 8.14232L258.673 8.30897L259.794 8.30898L265.111 8.59467C265.969 8.59467 266.828 8.59467 267.662 8.73751L305.218 8.73751C305.036 8.72591 304.853 8.72591 304.67 8.73751L302.095 8.42801L300.593 8.23756L295.204 7.61856L284.521 6.30913L228.342 6.30913C231.847 6.57101 235.495 6.8567 239.167 7.09478L239.191 7.09478ZM7.89363 32.4499L7.89363 30.4025L7.29748 30.8786L7.29748 32.4261L7.89363 32.4499ZM239.191 7.09478L245.749 7.52332L248.61 7.71378L251.352 7.88043L255.907 8.14232L258.673 8.30897L259.794 8.30898L265.111 8.59467C265.969 8.59467 266.828 8.59467 267.662 8.73751L305.218 8.73751C305.036 8.72591 304.853 8.72591 304.67 8.73751L302.095 8.42801L300.593 8.23756L295.204 7.61856L284.521 6.30913L228.342 6.30913C231.847 6.57101 235.495 6.8567 239.167 7.09478L239.191 7.09478ZM7.89363 32.4499L7.89363 30.4025L7.29748 30.8786L7.29748 32.4261L7.89363 32.4499ZM239.191 7.09478L245.749 7.52332L248.61 7.71378L251.352 7.88043L255.907 8.14232L258.673 8.30897L259.794 8.30898L265.111 8.59467C265.969 8.59467 266.828 8.59467 267.662 8.73751L305.218 8.73751C305.036 8.72591 304.853 8.72591 304.67 8.73751L302.095 8.42801L300.593 8.23756L295.204 7.61856L284.521 6.30913L228.342 6.30913C231.847 6.57101 235.495 6.8567 239.167 7.09478L239.191 7.09478ZM7.89363 32.4499L7.89363 30.4025L7.29748 30.8786L7.29748 32.4261L7.89363 32.4499ZM239.191 7.09478L245.749 7.52332L248.61 7.71378L251.352 7.88043L255.907 8.14232L258.673 8.30897L259.794 8.30898L265.111 8.59467C265.969 8.59467 266.828 8.59467 267.662 8.73751L305.218 8.73751C305.036 8.72591 304.853 8.72591 304.67 8.73751L302.095 8.42801L300.593 8.23756L295.204 7.61856L284.521 6.30913L228.342 6.30913C231.847 6.57101 235.495 6.8567 239.167 7.09478L239.191 7.09478ZM7.89363 32.4499L7.89363 30.4025L7.29748 30.8786L7.29748 32.4261L7.89363 32.4499ZM239.191 7.09478L245.749 7.52332L248.61 7.71378L251.352 7.88043L255.907 8.14232L258.673 8.30897L259.794 8.30898L265.111 8.59467C265.969 8.59467 266.828 8.59467 267.662 8.73751L305.218 8.73751C305.036 8.72591 304.853 8.72591 304.67 8.73751L302.095 8.42801L300.593 8.23756L295.204 7.61856L284.521 6.30913L228.342 6.30913C231.847 6.57101 235.495 6.8567 239.167 7.09478L239.191 7.09478ZM7.89363 32.4499L7.89363 30.4025L7.29748 30.8786L7.29748 32.4261L7.89363 32.4499ZM239.191 7.09478L245.749 7.52332L248.61 7.71378L251.352 7.88043L255.907 8.14232L258.673 8.30897L259.794 8.30898L265.111 8.59467C265.969 8.59467 266.828 8.59467 267.662 8.73751L305.218 8.73751C305.036 8.72591 304.853 8.72591 304.67 8.73751L302.095 8.42801L300.593 8.23756L295.204 7.61856L284.521 6.30913L228.342 6.30913C231.847 6.57101 235.495 6.8567 239.167 7.09478L239.191 7.09478ZM7.89363 32.4499L7.89363 30.4025L7.29748 30.8786L7.29748 32.4261L7.89363 32.4499ZM239.191 7.09478L245.749 7.52332L248.61 7.71378L251.352 7.88043L255.907 8.14232L258.673 8.30897L259.794 8.30898L265.111 8.59467C265.969 8.59467 266.828 8.59467 267.662 8.73751L305.218 8.73751C305.036 8.72591 304.853 8.72591 304.67 8.73751L302.095 8.42801L300.593 8.23756L295.204 7.61856L284.521 6.30913L228.342 6.30913C231.847 6.57101 235.495 6.8567 239.167 7.09478L239.191 7.09478ZM7.89363 32.4499L7.89363 30.4025L7.29748 30.8786L7.29748 32.4261L7.89363 32.4499ZM239.191 7.09478L245.749 7.52332L248.61 7.71378L251.352 7.88043L255.907 8.14232L258.673 8.30897L259.794 8.30898L265.111 8.59467C265.969 8.59467 266.828 8.59467 267.662 8.73751L305.218 8.73751C305.036 8.72591 304.853 8.72591 304.67 8.73751L302.095 8.42801L300.593 8.23756L295.204 7.61856L284.521 6.30913L228.342 6.30913C231.847 6.57101 235.495 6.8567 239.167 7.09478L239.191 7.09478ZM7.89363 32.4499L7.89363 30.4025L7.29748 30.8786L7.29748 32.4261L7.89363 32.4499ZM239.191 7.09478L245.749 7.52332L248.61 7.71378L251.352 7.88043L255.907 8.14232L258.673 8.30897L259.794 8.30898L265.111 8.59467C265.969 8.59467 266.828 8.59467 267.662 8.73751L305.218 8.73751C305.036 8.72591 304.853 8.72591 304.67 8.73751L302.095 8.42801L300.593 8.23756L295.204 7.61856L284.521 6.30913L228.342 6.30913C231.847 6.57101 235.495 6.8567 239.167 7.09478L239.191 7.09478ZM7.89363 32.4499L7.89363 30.4025L7.29748 30.8786L7.29748 32.4261L7.89363 32.4499ZM239.191 7.09478L245.749 7.52332L248.61 7.71378L251.352 7.88043L255.907 8.14232L258.673 8.30897L259.794 8.30898L265.111 8.59467C265.969 8.59467 266.828 8.59467 267.662 8.73751L305.218 8.73751C305.036 8.72591 304.853 8.72591 304.67 8.73751L302.095 8.42801L300.593 8.23756L295.204 7.61856L284.521 6.30913L228.342 6.30913C231.847 6.57101 235.495 6.8567 239.167 7.09478L239.191 7.09478ZM7.89363 32.4499L7.89363 30.4025L7.29748 30.8786L7.29748 32.4261L7.89363 32.4499ZM239.191 7.09478L245.749 7.52332L248.61 7.71378L251.352 7.88043L255.907 8.14232L258.673 8.30897L259.794 8.30898L265.111 8.59467C265.969 8.59467 266.828 8.59467 267.662 8.73751L305.218 8.73751C305.036 8.72591 304.853 8.72591 304.67 8.73751L302.095 8.42801L300.593 8.23756L295.204 7.61856L284.521 6.30913L228.342 6.30913C231.847 6.57101 235.495 6.8567 239.167 7.09478L239.191 7.09478ZM7.89363 32.4499L7.89363 30.4025L7.29748 30.8786L7.29748 32.4261L7.89363 32.4499ZM239.191 7.09478L245.749 7.52332L248.61 7.71378L251.352 7.88043L255.907 8.14232L258.673 8.30897L259.794 8.30898L265.111 8.59467C265.969 8.59467 266.828 8.59467 267.662 8.73751L305.218 8.73751C305.036 8.72591 304.853 8.72591 304.67 8.73751L302.095 8.42801L300.593 8.23756L295.204 7.61856L284.521 6.30913L228.342 6.30913C231.847 6.57101 235.495 6.8567 239.167 7.09478L239.191 7.09478ZM7.89363 32.4499L7.89363 30.4025L7.29748 30.8786L7.29748 32.4261L7.89363 32.4499ZM239.191 7.09478L245.749 7.52332L248.61 7.71378L251.352 7.88043L255.907 8.14232L258.673 8.30897L259.794 8.30898L265.111 8.59467C265.969 8.59467 266.828 8.59467 267.662 8.73751L305.218 8.73751C305.036 8.72591 304.853 8.72591 304.67 8.73751L302.095 8.42801L300.593 8.23756L295.204 7.61856L284.521 6.30913L228.342 6.30913C231.847 6.57101 235.495 6.8567 239.167 7.09478L239.191 7.09478ZM7.89363 32.4499L7.89363 30.4025L7.29748 30.8786L7.29748 32.4261L7.89363 32.4499ZM239.191 7.09478L245.749 7.52332L248.61 7.71378L251.352 7.88043L255.907 8.14232L258.673 8.30897L259.794 8.30898L265.111 8.59467C265.969 8.59467 266.828 8.59467 267.662 8.73751L305.218 8.73751C305.036 8.72591 304.853 8.72591 304.67 8.73751L302.095 8.42801L300.593 8.23756L295.204 7.61856L284.521 6.30913L228.342 6.30913C231.847 6.57101 235.495 6.8567 239.167 7.09478L239.191 7.09478ZM7.89363 32.4499L7.89363 30.4025L7.29748 30.8786L7.29748 32.4261L7.89363 32.4499ZM239.191 7.09478L245.749 7.52332L248.61 7.71378L251.352 7.88043L255.907 8.14232L258.673 8.30897L259.794 8.30898L265.111 8.59467C265.969 8.59467 266.828 8.59467 267.662 8.73751L305.218 8.73751C305.036 8.72591 304.853 8.72591 304.67 8.73751L302.095 8.42801L300.593 8.23756L295.204 7.61856L284.521 6.30913L228.342 6.30913C231.847 6.57101 235.495 6.8567 239.167 7.09478L239.191 7.09478ZM7.89363 32.4499L7.89363 30.4025L7.29748 30.8786L7.29748 32.4261L7.89363 32.4499ZM239.191 7.09478L245.749 7.52332L248.61 7.71378L251.352 7.88043L255.907 8.14232L258.673 8.30897L259.794 8.30898L265.111 8.59467C265.969 8.59467 266.828 8.59467 267.662 8.73751L305.218 8.73751C305.036 8.72591 304.853 8.72591 304.67 8.73751L302.095 8.42801L300.593 8.23756L295.204 7.61856L284.521 6.30913L228.342 6.30913C231.847 6.57101 235.495 6.8567 239.167 7.09478L239.191 7.09478ZM7.89363 32.4499L7.89363 30.4025L7.29748 30.8786L7.29748 32.4261L7.89363 32.4499ZM239.191 7.09478L245.749 7.52332L248.61 7.71378L251.352 7.88043L255.907 8.14232L258.673 8.30897L259.794 8.30898L265.111 8.59467C265.969 8.59467 266.828 8.59467 267.662 8.73751L305.218 8.73751C305.036 8.72591 304.853 8.72591 304.67 8.73751L302.095 8.42801L300.593 8.23756L295.204 7.61856L284.521 6.30913L228.342 6.30913C231.847 6.57101 235.495 6.8567 239.167 7.09478L239.191 7.09478ZM7.89363 32.4499L7.89363 30.4025L7.29748 30.8786L7.29748 32.4261L7.89363 32.4499ZM239.191 7.09478L245.749 7.52332L248.61 7.71378L251.352 7.88043L255.907 8.14232L258.673 8.30897L259.794 8.30898L265.111 8.59467C265.969 8.59467 266.828 8.59467 267.662 8.73751L305.218 8.73751C305.036 8.72591 304.853 8.72591 304.67 8.73751L302.095 8.42801L300.593 8.23756L295.204 7.61856L284.521 6.30913L228.342 6.30913C231.847 6.57101 235.495 6.8567 239.167 7.09478L239.191 7.09478ZM7.89363 32.4499L7.89363 30.4025L7.29748 30.8786L7.29748 32.4261L7.89363 32.4499ZM239.191 7.09478L245.749 7.52332L248.61 7.71378L251.352 7.88043L255.907 8.14232L258.673 8.30897L259.794 8.30898L265.111 8.59467C265.969 8.59467 266.828 8.59467 267.662 8.73751L305.218 8.73751C305.036 8.72591 304.853 8.72591 304.67 8.73751L302.095 8.42801L300.593 8.23756L295.204 7.61856L284.521 6.30913L228.342 6.30913C231.847 6.57101 235.495 6.8567 239.167 7.09478L239.191 7.09478ZM7.89363 32.4499L7.89363 30.4025L7.29748 30.8786L7.29748 32.4261L7.89363 32.4499Z" fill="url(#paint0_linear_47_61069)"/>
<g style="mix-blend-mode:multiply" opacity="0.6" filter="url(#filter0_d_47_61069)">
<path d="M422.978 50.1157L426.596 49.6634C425.549 49.2111 424.216 48.7112 422.978 48.259L422.383 48.0447L422.383 46.1404L422.978 46.3308C425.359 47.1706 427.695 48.1319 429.977 49.2111L430.215 49.2111L430.81 49.2111L430.81 50.9012L430.215 50.9012L423.073 51.782L422.478 51.782L422.478 50.1871L422.978 50.1157Z" fill="#C97B3A"/>
<path d="M422.383 34.5237L422.383 32.7384L422.978 32.786L430.215 33.1668L430.81 33.1906L430.81 34.9521L430.215 34.9283L422.978 34.5237L422.383 34.5237Z" fill="#C97B3A"/>
<path d="M422 59.4516L422 57.6663L422.595 57.7139L429.832 58.0948L430.427 58.1186L430.427 59.8801L429.832 59.8563L422.595 59.4516L422 59.4516Z" fill="#C97B3A"/>
<path d="M422 82.6129L422 81L422.565 81.043L429.435 81.3871L430 81.4086L430 83L429.435 82.9785L422.565 82.6129L422 82.6129Z" fill="#C97B3A"/>
<path d="M421.216 21.646C421.055 21.1511 420.864 20.6662 420.645 20.1939L420.931 20.1939L429.143 22.0268L429.405 22.0268C429.548 22.6374 429.644 23.2581 429.691 23.8836L429.215 23.8836L421.383 22.1696L421.216 21.646Z" fill="#C97B3A"/>
<path d="M347.739 0.5L352.5 0.5L353.374 0.721989C357.802 2.36448 362.896 4.26882 368.133 6.07795L375.274 8.57739L369.847 8.57739L362.848 6.07795C357.445 4.1498 352.279 2.22166 348.328 0.721989L347.739 0.5Z" fill="#C97B3A"/>
<path d="M367 0.5L372.499 0.5C375.141 1.35695 370.966 0.0790573 373.941 0.721772C378.125 1.84984 382.391 2.64579 386.7 3.1022C399.043 4.7407 411.288 7.04514 423.383 10.0054L425.001 10.4339C425.454 11.1004 425.858 11.7908 426.263 12.5049C425.878 12.4377 425.496 12.3503 425.12 12.243C422.05 11.5527 417.979 10.6005 413.385 9.62456C407.743 8.41055 401.483 7.24414 395.841 6.24436C392.437 5.69686 389.247 5.24458 386.557 5.00654C380.091 4.2571 373.713 2.87784 367.514 0.888401C364.705 -0.0161611 369.19 1.28554 367 0.5Z" fill="#C97B3A"/>
<path d="M308.36 0.500244L311.5 0.5L312 0.500244L312.574 0.840637L327.88 6.1966L334.997 8.69604L329.713 8.69604L322.619 6.19659L308.432 1.2215L308.36 0.840637L308.36 0.500244Z" fill="#C97B3A"/>
<path d="M16.1166 2.10258C16.997 1.61064 17.9028 1.16567 18.8303 0.769542C21.0203 1.15041 19.4483 0.531277 21.7811 0.888341C24.1615 1.2216 26.542 1.53106 28.3511 1.67388C30.7315 1.88812 165.107 2.14998 171.724 2.45943C180.722 2.91172 192.91 3.53063 206.145 4.43519C209.692 3.48302 216.976 2.19759 225.641 0.840749C230.878 0.0314052 222.951 1.24542 228.592 0.531297L237 0.531296L245 0.531052L254.087 0.912166C267.084 2.41183 285.485 4.62563 299.315 6.26813L318.144 8.64855L318.144 8.8866L305.361 8.8866C305.179 8.87499 304.996 8.87499 304.814 8.8866L302.243 8.57714L300.743 8.3867C299.029 8.17247 297.244 7.95823 295.363 7.76779L284.699 6.45856C266.536 4.31617 246.612 1.93575 240.114 1.29303L240.114 0.912165L240.114 0.531297L237.448 0.912164C227.926 2.34042 218.595 3.76867 212.382 4.93508C216.286 5.24454 220.237 5.55399 224.284 5.91106L228.592 6.26812C232.092 6.55377 235.734 6.83942 239.4 7.07747L245.946 7.50594L248.802 7.69638L251.468 7.79159L256.015 8.05344L259.895 8.26768L265.203 8.55333C266.06 8.55333 266.917 8.55333 267.75 8.69616L238.114 8.69616C233.353 8.3629 228.592 7.98202 224.022 7.57735C218.047 7.05366 212.12 6.60138 206.335 6.1967L206.193 6.1967C192.91 5.26834 180.698 4.64942 171.7 4.19714C165.059 3.86388 30.7553 3.64963 28.2559 3.41159C25.0899 3.12594 20.6861 2.48322 16.687 1.86431L16.1166 2.10258Z" fill="#C97B3A"/>
<path d="M0.357202 19.1465C0.431532 18.5451 0.542827 17.9488 0.690459 17.3611L1.95208 17.3611L8.95054 17.0041L10 17.0041C9.68861 17.5829 9.41046 18.179 9.16687 18.7894L8.42684 18.7894C6.04642 18.9322 3.66599 19.0512 1.476 19.1227L0.357202 19.1465Z" fill="#C97B3A"/>
<path d="M-4.0046e-05 33.905L-3.9892e-05 32.1435L0.595067 32.1435L3.11831 32.1435C4.04668 31.5008 4.99863 29.9773 6.87916 28.4539L7.47427 27.9778L7.47427 30.2154L6.87916 30.6915C6.21264 31.2628 6.52234 31.7864 5.92723 32.2387L7.42665 32.2387L7.42665 34.0002L7.83154 34.0002C5.3321 34.0002 2.78504 34.0002 0.690268 33.8098L-4.0046e-05 33.905Z" fill="#C97B3A"/>
<path d="M-0.999943 65.5222L-0.999943 63.7607L-0.404836 63.7607L2.11841 63.7607C3.04677 63.118 4.99872 61.5945 6.87926 60.071L7.47437 59.595L7.47437 61.8326L6.87926 62.3086C6.21274 62.8799 5.52244 63.4036 4.92733 63.8559L7.42675 63.8559L7.42675 65.6174L6.83164 65.6174C4.33219 65.6174 1.78514 65.6174 -0.309635 65.427L-0.999943 65.5222Z" fill="#C97B3A"/>
<path d="M-0.999822 47.8069L-0.999822 46.0215L-0.404716 46.1406C1.95581 46.6085 4.33962 46.9502 6.73656 47.1641L7.33167 47.1641L7.33167 48.9971L6.73656 48.9971C4.34075 48.7849 1.95725 48.4512 -0.404716 47.9973L-0.999822 47.8069Z" fill="#C97B3A"/>
<path d="M-0.999822 79.424L-0.999822 77.6387L-0.404716 77.7577C1.95581 78.2257 4.33962 78.5674 6.73656 78.7813L7.33167 78.7813L7.33167 80.6143L6.73656 80.6143C4.34075 80.4021 1.95725 80.0684 -0.404716 79.6145L-0.999822 79.424Z" fill="#C97B3A"/>
</g>
<g style="mix-blend-mode:overlay" opacity="0.5" filter="url(#filter1_d_47_61069)">
<path d="M429.81 48.0684C429.289 48.0718 428.77 48.0159 428.262 47.9018C427.524 47.7351 424.478 46.783 421.978 45.9736L421.978 46.5449C424.37 47.2704 426.708 48.1613 428.977 49.211L429.81 48.9968L429.81 48.0684Z" fill="#FFDE55"/>
<path d="M425.787 32.3814L421.978 32.072L421.978 32.6909C424.359 32.6909 428.405 33.1194 429.81 33.2622L429.81 32.4529C428.715 32.4767 427.215 32.4767 425.787 32.3814Z" fill="#FFDE55"/>
<path d="M425.404 57.3094L421.595 57L421.595 57.6189C423.975 57.6189 428.022 58.0474 429.427 58.1902L429.427 57.3808C428.332 57.4046 426.832 57.4046 425.404 57.3094Z" fill="#FFDE55"/>
<path d="M426.404 80.26L423 80L423 80.52C425.128 80.52 428.745 80.88 430 81L430 80.32C429.021 80.34 427.681 80.34 426.404 80.26Z" fill="#FFDE55"/>
<path d="M420.645 20.1939C423.763 21.0032 428.191 21.8602 429.405 22.0982C429.327 21.6092 429.224 21.1245 429.096 20.6462C428.113 20.7305 427.126 20.7305 426.144 20.6462C424.143 20.4734 422.17 20.0659 420.264 19.4321C420.405 19.6787 420.533 19.933 420.645 20.1939Z" fill="#FFDE55"/>
<path d="M400.483 5.03024C407.124 6.12524 423.168 9.79109 423.168 9.79109L422.145 8.76751C422.145 8.76751 416.027 7.31545 413.099 6.38708C410.171 5.45872 395.175 3.38775 390.437 2.88786C386.636 2.40005 382.862 1.71676 379.13 0.840689L374.37 0.983517C374.37 0.983517 384.344 3.10209 385.439 3.1021C386.534 3.1021 393.865 3.93524 400.483 5.03024Z" fill="#FFDE55"/>
<path d="M375.631 8.69612L378.583 8.69612C371.442 6.50613 356.992 1.3406 355.612 0.840713L353.422 0.840713C353.422 0.840713 364.181 4.64939 367.704 5.98243C370.489 7.00602 374.155 8.22004 375.631 8.69612Z" fill="#FFDE55"/>
<path d="M333.76 8.69612L335.235 8.69612C330.475 6.67276 316.573 1.55484 314.335 0.840713L314.002 0.840713L312.574 0.840713C312.574 0.840713 319.906 3.72103 324.143 4.88744C327.429 5.94434 330.641 7.21666 333.76 8.69612Z" fill="#FFDE55"/>
<path d="M263.989 2.03091C267.703 2.41178 295.863 5.53013 302.647 6.57752C307.194 7.24404 314.55 8.17241 319.025 8.69611L322.881 8.69611C316.74 7.006 293.769 4.60177 286.056 3.93525C279.224 3.26873 265.846 1.55482 261.466 0.912109L260.038 0.721675L254.872 0.912108L255.134 0.912108C256.229 0.912109 260.752 1.72145 263.989 2.03091Z" fill="#FFDE55"/>
<path d="M170.105 30.5861H170.486C175.247 30.9431 180.579 31.3716 184.769 31.6573L165.082 30.1338L170.105 30.5861Z" fill="#FFDE55"/>
<path d="M231.259 6.19659C235.258 6.50605 239.043 6.7917 241.447 6.93453L245.303 7.17257L215.572 4.91116L268.417 8.69604C262.156 7.95811 250.635 6.62507 244.946 6.19659C243.851 6.19659 242.994 6.05377 242.399 6.05377C237.852 6.05377 217.404 4.95877 213.62 4.76834L213.024 4.76834L214.119 4.76834C216.881 5.05399 224.427 5.6729 231.259 6.19659Z" fill="#FFDE55"/>
<path d="M10.0453 16.0757L1.21389 16.4803C1.11238 16.721 1.02495 16.9674 0.952046 17.2183L9.66441 16.7898C9.83104 16.5517 10.0453 16.3137 10.0453 16.0757Z" fill="#FFDE55"/>
<path d="M7.42688 27.954L7.42688 26.3829C5.49874 28.2635 1.85669 31.2866 1.85669 31.2866L-0.404703 31.0962L-0.404703 32.0245L1.97572 32.2388L7.42688 27.954Z" fill="#FFDE55"/>
<path d="M7.42688 59.5712L7.42688 58.0001C5.49874 59.8806 1.85669 62.9038 1.85669 62.9038L-0.404703 62.7134L-0.404703 63.6417L1.97572 63.856L7.42688 59.5712Z" fill="#FFDE55"/>
<path d="M7.42688 45.8784C4.78686 45.9816 2.14645 45.6846 -0.404703 44.9976L-0.404703 46.1402C2.18977 46.5524 4.80376 46.8305 7.42688 46.9734L7.42688 45.8784Z" fill="#FFDE55"/>
<path d="M7.42688 77.4956C4.78686 77.5988 2.14645 77.3018 -0.404703 76.6148L-0.404703 77.7574C2.18977 78.1696 4.80376 78.4477 7.42688 78.5906L7.42688 77.4956Z" fill="#FFDE55"/>
</g>
<defs>
<filter id="filter0_d_47_61069" x="-5" y="0.5" width="439.81" height="90.5" filterUnits="userSpaceOnUse" color-interpolation-filters="sRGB">
<feFlood flood-opacity="0" result="BackgroundImageFix"/>
<feColorMatrix in="SourceAlpha" type="matrix" values="0 0 0 0 0 0 0 0 0 0 0 0 0 0 0 0 0 0 127 0" result="hardAlpha"/>
<feOffset dy="4"/>
<feGaussianBlur stdDeviation="2"/>
<feComposite in2="hardAlpha" operator="out"/>
<feColorMatrix type="matrix" values="0 0 0 0 0 0 0 0 0 0 0 0 0 0 0 0 0 0 0.25 0"/>
<feBlend mode="normal" in2="BackgroundImageFix" result="effect1_dropShadow_47_61069"/>
<feBlend mode="normal" in="SourceGraphic" in2="effect1_dropShadow_47_61069" result="shape"/>
</filter>
<filter id="filter1_d_47_61069" x="-4.40466" y="0.72168" width="438.405" height="88.2783" filterUnits="userSpaceOnUse" color-interpolation-filters="sRGB">
<feFlood flood-opacity="0" result="BackgroundImageFix"/>
<feColorMatrix in="SourceAlpha" type="matrix" values="0 0 0 0 0 0 0 0 0 0 0 0 0 0 0 0 0 0 127 0" result="hardAlpha"/>
<feOffset dy="4"/>
<feGaussianBlur stdDeviation="2"/>
<feComposite in2="hardAlpha" operator="out"/>
<feColorMatrix type="matrix" values="0 0 0 0 0 0 0 0 0 0 0 0 0 0 0 0 0 0 0.25 0"/>
<feBlend mode="normal" in2="BackgroundImageFix" result="effect1_dropShadow_47_61069"/>
<feBlend mode="normal" in="SourceGraphic" in2="effect1_dropShadow_47_61069" result="shape"/>
</filter>
<linearGradient id="paint0_linear_47_61069" x1="215.012" y1="2.23802" x2="215.012" y2="55.6148" gradientUnits="userSpaceOnUse">
<stop stop-color="#F0CA57"/>
<stop offset="1" stop-color="#D45B1A"/>
</linearGradient>
</defs>
</svg>
