<svg width="430" height="86" viewBox="0 0 430 86" fill="none" xmlns="http://www.w3.org/2000/svg">
<path d="M7.89362 54.9999L7.89362 22.639C7.89362 14.4354 13.3786 5.95996 22.56 5.95996L404.268 5.96C413.307 5.96 422.13 14.2089 422.13 22.639L422.13 54.9999L430 54.9999L430 24.112C430 11.5121 417.718 -2.77766e-05 404.268 -2.89524e-05L22.5123 -6.23266e-05C9.87299 -6.34316e-05 3.88107e-06 10.6056 2.70031e-06 24.112L0 54.9999L7.89362 54.9999Z" fill="#DB6D22"/>
<g filter="url(#filter0_d_47_61069)">
<path d="M7.89362 32.4498L7.89362 30.4024L7.29749 30.8785L7.29749 32.426L7.89362 32.4498ZM239.191 7.09471L245.749 7.52325L248.61 7.71371L251.352 7.88036L255.907 8.14226L258.673 8.30891L259.794 8.30891L265.111 8.5946C265.969 8.5946 266.828 8.5946 267.662 8.73744L305.218 8.73745C305.036 8.72583 304.853 8.72583 304.67 8.73745L302.095 8.42794L300.593 8.23749L295.204 7.61849L284.521 6.30906L228.342 6.30906C231.847 6.57094 235.495 6.85663 239.167 7.09471L239.191 7.09471ZM7.89362 32.4498L7.89362 30.4024L7.29749 30.8785L7.29749 32.426L7.89362 32.4498ZM239.191 7.09471L245.749 7.52325L248.61 7.71371L251.352 7.88036L255.907 8.14226L258.673 8.30891L259.794 8.30891L265.111 8.5946C265.969 8.5946 266.828 8.5946 267.662 8.73744L305.218 8.73745C305.036 8.72583 304.853 8.72583 304.67 8.73745L302.095 8.42794L300.593 8.23749L295.204 7.61849L284.521 6.30906L228.342 6.30906C231.847 6.57094 235.495 6.85663 239.167 7.09471L239.191 7.09471ZM7.89362 32.4498L7.89362 30.4024L7.29749 30.8785L7.29749 32.426L7.89362 32.4498ZM239.191 7.09471L245.749 7.52325L248.61 7.71371L251.352 7.88036L255.907 8.14226L258.673 8.30891L259.794 8.30891L265.111 8.5946C265.969 8.5946 266.828 8.5946 267.662 8.73744L305.218 8.73745C305.036 8.72583 304.853 8.72583 304.67 8.73745L302.095 8.42794L300.593 8.23749L295.204 7.61849L284.521 6.30906L228.342 6.30906C231.847 6.57094 235.495 6.85663 239.167 7.09471L239.191 7.09471ZM7.89362 32.4498L7.89362 30.4024L7.29749 30.8785L7.29749 32.426L7.89362 32.4498ZM239.191 7.09471L245.749 7.52325L248.61 7.71371L251.352 7.88036L255.907 8.14226L258.673 8.30891L259.794 8.30891L265.111 8.5946C265.969 8.5946 266.828 8.5946 267.662 8.73744L305.218 8.73745C305.036 8.72583 304.853 8.72583 304.67 8.73745L302.095 8.42794L300.593 8.23749L295.204 7.61849L284.521 6.30906L228.342 6.30906C231.847 6.57094 235.495 6.85663 239.167 7.09471L239.191 7.09471ZM7.89362 32.4498L7.89362 30.4024L7.29749 30.8785L7.29749 32.426L7.89362 32.4498ZM239.191 7.09471L245.749 7.52325L248.61 7.71371L251.352 7.88036L255.907 8.14226L258.673 8.30891L259.794 8.30891L265.111 8.5946C265.969 8.5946 266.828 8.5946 267.662 8.73744L305.218 8.73745C305.036 8.72583 304.853 8.72583 304.67 8.73745L302.095 8.42794L300.593 8.23749L295.204 7.61849L284.521 6.30906L228.342 6.30906C231.847 6.57094 235.495 6.85663 239.167 7.09471L239.191 7.09471ZM7.89362 32.4498L7.89362 30.4024L7.29749 30.8785L7.29749 32.426L7.89362 32.4498ZM239.191 7.09471L245.749 7.52325L248.61 7.71371L251.352 7.88036L255.907 8.14226L258.673 8.30891L259.794 8.30891L265.111 8.5946C265.969 8.5946 266.828 8.5946 267.662 8.73744L305.218 8.73745C305.036 8.72583 304.853 8.72583 304.67 8.73745L302.095 8.42794L300.593 8.23749L295.204 7.61849L284.521 6.30906L228.342 6.30906C231.847 6.57094 235.495 6.85663 239.167 7.09471L239.191 7.09471ZM7.89362 32.4498L7.89362 30.4024L7.29749 30.8785L7.29749 32.426L7.89362 32.4498ZM239.191 7.09471L245.749 7.52325L248.61 7.71371L251.352 7.88036L255.907 8.14226L258.673 8.30891L259.794 8.30891L265.111 8.5946C265.969 8.5946 266.828 8.5946 267.662 8.73744L305.218 8.73745C305.036 8.72583 304.853 8.72583 304.67 8.73745L302.095 8.42794L300.593 8.23749L295.204 7.61849L284.521 6.30906L228.342 6.30906C231.847 6.57094 235.495 6.85663 239.167 7.09471L239.191 7.09471ZM7.89362 32.4498L7.89362 30.4024L7.29749 30.8785L7.29749 32.426L7.89362 32.4498ZM239.191 7.09471L245.749 7.52325L248.61 7.71371L251.352 7.88036L255.907 8.14226L258.673 8.30891L259.794 8.30891L265.111 8.5946C265.969 8.5946 266.828 8.5946 267.662 8.73744L305.218 8.73745C305.036 8.72583 304.853 8.72583 304.67 8.73745L302.095 8.42794L300.593 8.23749L295.204 7.61849L284.521 6.30906L228.342 6.30906C231.847 6.57094 235.495 6.85663 239.167 7.09471L239.191 7.09471ZM7.89362 32.4498L7.89362 30.4024L7.29749 30.8785L7.29749 32.426L7.89362 32.4498ZM239.191 7.09471L245.749 7.52325L248.61 7.71371L251.352 7.88036L255.907 8.14226L258.673 8.30891L259.794 8.30891L265.111 8.5946C265.969 8.5946 266.828 8.5946 267.662 8.73744L305.218 8.73745C305.036 8.72583 304.853 8.72583 304.67 8.73745L302.095 8.42794L300.593 8.23749L295.204 7.61849L284.521 6.30906L228.342 6.30906C231.847 6.57094 235.495 6.85663 239.167 7.09471L239.191 7.09471ZM7.89362 32.4498L7.89362 30.4024L7.29749 30.8785L7.29749 32.426L7.89362 32.4498ZM239.191 7.09471L245.749 7.52325L248.61 7.71371L251.352 7.88036L255.907 8.14226L258.673 8.30891L259.794 8.30891L265.111 8.5946C265.969 8.5946 266.828 8.5946 267.662 8.73744L305.218 8.73745C305.036 8.72583 304.853 8.72583 304.67 8.73745L302.095 8.42794L300.593 8.23749L295.204 7.61849L284.521 6.30906L228.342 6.30906C231.847 6.57094 235.495 6.85663 239.167 7.09471L239.191 7.09471ZM7.89362 32.4498L7.89362 30.4024L7.29749 30.8785L7.29749 32.426L7.89362 32.4498ZM239.191 7.09471L245.749 7.52325L248.61 7.71371L251.352 7.88036L255.907 8.14226L258.673 8.30891L259.794 8.30891L265.111 8.5946C265.969 8.5946 266.828 8.5946 267.662 8.73744L305.218 8.73745C305.036 8.72583 304.853 8.72583 304.67 8.73745L302.095 8.42794L300.593 8.23749L295.204 7.61849L284.521 6.30906L228.342 6.30906C231.847 6.57094 235.495 6.85663 239.167 7.09471L239.191 7.09471ZM7.89362 32.4498L7.89362 30.4024L7.29749 30.8785L7.29749 32.426L7.89362 32.4498ZM239.191 7.09471L245.749 7.52325L248.61 7.71371L251.352 7.88036L255.907 8.14226L258.673 8.30891L259.794 8.30891L265.111 8.5946C265.969 8.5946 266.828 8.5946 267.662 8.73744L305.218 8.73745C305.036 8.72583 304.853 8.72583 304.67 8.73745L302.095 8.42794L300.593 8.23749L295.204 7.61849L284.521 6.30906L228.342 6.30906C231.847 6.57094 235.495 6.85663 239.167 7.09471L239.191 7.09471ZM7.89362 32.4498L7.89362 30.4024L7.29749 30.8785L7.29749 32.426L7.89362 32.4498ZM239.191 7.09471L245.749 7.52325L248.61 7.71371L251.352 7.88036L255.907 8.14226L258.673 8.30891L259.794 8.30891L265.111 8.5946C265.969 8.5946 266.828 8.5946 267.662 8.73744L305.218 8.73745C305.036 8.72583 304.853 8.72583 304.67 8.73745L302.095 8.42794L300.593 8.23749L295.204 7.61849L284.521 6.30906L228.342 6.30906C231.847 6.57094 235.495 6.85663 239.167 7.09471L239.191 7.09471ZM7.89362 32.4498L7.89362 30.4024L7.29749 30.8785L7.29749 32.426L7.89362 32.4498ZM239.191 7.09471L245.749 7.52325L248.61 7.71371L251.352 7.88036L255.907 8.14226L258.673 8.30891L259.794 8.30891L265.111 8.5946C265.969 8.5946 266.828 8.5946 267.662 8.73744L305.218 8.73745C305.036 8.72583 304.853 8.72583 304.67 8.73745L302.095 8.42794L300.593 8.23749L295.204 7.61849L284.521 6.30906L228.342 6.30906C231.847 6.57094 235.495 6.85663 239.167 7.09471L239.191 7.09471ZM7.89362 32.4498L7.89362 30.4024L7.29749 30.8785L7.29749 32.426L7.89362 32.4498ZM239.191 7.09471L245.749 7.52325L248.61 7.71371L251.352 7.88036L255.907 8.14226L258.673 8.30891L259.794 8.30891L265.111 8.5946C265.969 8.5946 266.828 8.5946 267.662 8.73744L305.218 8.73745C305.036 8.72583 304.853 8.72583 304.67 8.73745L302.095 8.42794L300.593 8.23749L295.204 7.61849L284.521 6.30906L228.342 6.30906C231.847 6.57094 235.495 6.85663 239.167 7.09471L239.191 7.09471ZM7.89362 32.4498L7.89362 30.4024L7.29749 30.8785L7.29749 32.426L7.89362 32.4498ZM239.191 7.09471L245.749 7.52325L248.61 7.71371L251.352 7.88036L255.907 8.14226L258.673 8.30891L259.794 8.30891L265.111 8.5946C265.969 8.5946 266.828 8.5946 267.662 8.73744L305.218 8.73745C305.036 8.72583 304.853 8.72583 304.67 8.73745L302.095 8.42794L300.593 8.23749L295.204 7.61849L284.521 6.30906L228.342 6.30906C231.847 6.57094 235.495 6.85663 239.167 7.09471L239.191 7.09471ZM7.89362 32.4498L7.89362 30.4024L7.29749 30.8785L7.29749 32.426L7.89362 32.4498ZM239.191 7.09471L245.749 7.52325L248.61 7.71371L251.352 7.88036L255.907 8.14226L258.673 8.30891L259.794 8.30891L265.111 8.5946C265.969 8.5946 266.828 8.5946 267.662 8.73744L305.218 8.73745C305.036 8.72583 304.853 8.72583 304.67 8.73745L302.095 8.42794L300.593 8.23749L295.204 7.61849L284.521 6.30906L228.342 6.30906C231.847 6.57094 235.495 6.85663 239.167 7.09471L239.191 7.09471ZM7.89362 32.4498L7.89362 30.4024L7.29749 30.8785L7.29749 32.426L7.89362 32.4498ZM239.191 7.09471L245.749 7.52325L248.61 7.71371L251.352 7.88036L255.907 8.14226L258.673 8.30891L259.794 8.30891L265.111 8.5946C265.969 8.5946 266.828 8.5946 267.662 8.73744L305.218 8.73745C305.036 8.72583 304.853 8.72583 304.67 8.73745L302.095 8.42794L300.593 8.23749L295.204 7.61849L284.521 6.30906L228.342 6.30906C231.847 6.57094 235.495 6.85663 239.167 7.09471L239.191 7.09471ZM7.89362 32.4498L7.89362 30.4024L7.29749 30.8785L7.29749 32.426L7.89362 32.4498ZM239.191 7.09471L245.749 7.52325L248.61 7.71371L251.352 7.88036L255.907 8.14226L258.673 8.30891L259.794 8.30891L265.111 8.5946C265.969 8.5946 266.828 8.5946 267.662 8.73744L305.218 8.73745C305.036 8.72583 304.853 8.72583 304.67 8.73745L302.095 8.42794L300.593 8.23749L295.204 7.61849L284.521 6.30906L228.342 6.30906C231.847 6.57094 235.495 6.85663 239.167 7.09471L239.191 7.09471ZM7.89362 32.4498L7.89362 30.4024L7.29749 30.8785L7.29749 32.426L7.89362 32.4498ZM239.191 7.09471L245.749 7.52325L248.61 7.71371L251.352 7.88036L255.907 8.14226L258.673 8.30891L259.794 8.30891L265.111 8.5946C265.969 8.5946 266.828 8.5946 267.662 8.73744L305.218 8.73745C305.036 8.72583 304.853 8.72583 304.67 8.73745L302.095 8.42794L300.593 8.23749L295.204 7.61849L284.521 6.30906L228.342 6.30906C231.847 6.57094 235.495 6.85663 239.167 7.09471L239.191 7.09471ZM7.89362 32.4498L7.89362 30.4024L7.29749 30.8785L7.29749 32.426L7.89362 32.4498ZM239.191 7.09471L245.749 7.52325L248.61 7.71371L251.352 7.88036L255.907 8.14226L258.673 8.30891L259.794 8.30891L265.111 8.5946C265.969 8.5946 266.828 8.5946 267.662 8.73744L305.218 8.73745C305.036 8.72583 304.853 8.72583 304.67 8.73745L302.095 8.42794L300.593 8.23749L295.204 7.61849L284.521 6.30906L228.342 6.30906C231.847 6.57094 235.495 6.85663 239.167 7.09471L239.191 7.09471ZM7.89362 32.4498L7.89362 30.4024L7.29749 30.8785L7.29749 32.426L7.89362 32.4498ZM239.191 7.09471L245.749 7.52325L248.61 7.71371L251.352 7.88036L255.907 8.14226L258.673 8.30891L259.794 8.30891L265.111 8.5946C265.969 8.5946 266.828 8.5946 267.662 8.73744L305.218 8.73745C305.036 8.72583 304.853 8.72583 304.67 8.73745L302.095 8.42794L300.593 8.23749L295.204 7.61849L284.521 6.30906L228.342 6.30906C231.847 6.57094 235.495 6.85663 239.167 7.09471L239.191 7.09471ZM7.89362 32.4498L7.89362 30.4024L7.29749 30.8785L7.29749 32.426L7.89362 32.4498ZM239.191 7.09471L245.749 7.52325L248.61 7.71371L251.352 7.88036L255.907 8.14226L258.673 8.30891L259.794 8.30891L265.111 8.5946C265.969 8.5946 266.828 8.5946 267.662 8.73744L305.218 8.73745C305.036 8.72583 304.853 8.72583 304.67 8.73745L302.095 8.42794L300.593 8.23749L295.204 7.61849L284.521 6.30906L228.342 6.30906C231.847 6.57094 235.495 6.85663 239.167 7.09471L239.191 7.09471ZM7.89362 32.4498L7.89362 30.4024L7.29749 30.8785L7.29749 32.426L7.89362 32.4498ZM239.191 7.09471L245.749 7.52325L248.61 7.71371L251.352 7.88036L255.907 8.14226L258.673 8.30891L259.794 8.30891L265.111 8.5946C265.969 8.5946 266.828 8.5946 267.662 8.73744L305.218 8.73745C305.036 8.72583 304.853 8.72583 304.67 8.73745L302.095 8.42794L300.593 8.23749L295.204 7.61849L284.521 6.30906L228.342 6.30906C231.847 6.57094 235.495 6.85663 239.167 7.09471L239.191 7.09471ZM7.89362 32.4498L7.89362 30.4024L7.29749 30.8785L7.29749 32.426L7.89362 32.4498ZM239.191 7.09471L245.749 7.52325L248.61 7.71371L251.352 7.88036L255.907 8.14226L258.673 8.30891L259.794 8.30891L265.111 8.5946C265.969 8.5946 266.828 8.5946 267.662 8.73744L305.218 8.73745C305.036 8.72583 304.853 8.72583 304.67 8.73745L302.095 8.42794L300.593 8.23749L295.204 7.61849L284.521 6.30906L228.342 6.30906C231.847 6.57094 235.495 6.85663 239.167 7.09471L239.191 7.09471ZM7.89362 32.4498L7.89362 30.4024L7.29749 30.8785L7.29749 32.426L7.89362 32.4498ZM239.191 7.09471L245.749 7.52325L248.61 7.71371L251.352 7.88036L255.907 8.14226L258.673 8.30891L259.794 8.30891L265.111 8.5946C265.969 8.5946 266.828 8.5946 267.662 8.73744L305.218 8.73745C305.036 8.72583 304.853 8.72583 304.67 8.73745L302.095 8.42794L300.593 8.23749L295.204 7.61849L284.521 6.30906L228.342 6.30906C231.847 6.57094 235.495 6.85663 239.167 7.09471L239.191 7.09471ZM7.89362 32.4498L7.89362 30.4024L7.29749 30.8785L7.29749 32.426L7.89362 32.4498ZM239.191 7.09471L245.749 7.52325L248.61 7.71371L251.352 7.88036L255.907 8.14226L258.673 8.30891L259.794 8.30891L265.111 8.5946C265.969 8.5946 266.828 8.5946 267.662 8.73744L305.218 8.73745C305.036 8.72583 304.853 8.72583 304.67 8.73745L302.095 8.42794L300.593 8.23749L295.204 7.61849L284.521 6.30906L228.342 6.30906C231.847 6.57094 235.495 6.85663 239.167 7.09471L239.191 7.09471ZM239.191 7.09471L245.749 7.52325L248.61 7.71371L251.352 7.88036L255.907 8.14226L258.673 8.30891L259.794 8.30891L265.111 8.5946C265.969 8.5946 266.828 8.5946 267.662 8.73744L305.218 8.73745C305.036 8.72583 304.853 8.72583 304.67 8.73745L302.095 8.42794L300.593 8.23749L295.204 7.61849L284.521 6.30906L228.342 6.30906C231.847 6.57094 235.495 6.85663 239.167 7.09471L239.191 7.09471ZM243.96 7.09471L244.962 7.09471L245.2 7.09471L246.416 7.09471L247.156 7.09471C250.947 7.3566 255.454 7.71371 259.46 8.02322L259.841 8.02322L262.536 8.26129L264.92 8.45175L268.33 8.45175L233.445 5.95194L232.276 5.95194L243.96 7.09471ZM243.96 7.09471L244.962 7.09471L245.2 7.09471L246.416 7.09471L247.156 7.09471C250.947 7.3566 255.454 7.71371 259.46 8.02322L259.841 8.02322L262.536 8.26129L264.92 8.45175L268.33 8.45175L233.445 5.95194L232.276 5.95194L243.96 7.09471ZM243.96 7.09471L244.962 7.09471L245.2 7.09471L246.416 7.09471L247.156 7.09471C250.947 7.3566 255.454 7.71371 259.46 8.02322L259.841 8.02322L262.536 8.26129L264.92 8.45175L268.33 8.45175L233.445 5.95194L232.276 5.95194L243.96 7.09471ZM243.96 7.09471L244.962 7.09471L245.2 7.09471L246.416 7.09471L247.156 7.09471C250.947 7.3566 255.454 7.71371 259.46 8.02322L259.841 8.02322L262.536 8.26129L264.92 8.45175L268.33 8.45175L233.445 5.95194L232.276 5.95194L243.96 7.09471ZM243.96 7.09471L244.962 7.09471L245.2 7.09471L246.416 7.09471L247.156 7.09471C250.947 7.3566 255.454 7.71371 259.46 8.02322L259.841 8.02322L262.536 8.26129L264.92 8.45175L268.33 8.45175L233.445 5.95194L232.276 5.95194L243.96 7.09471ZM243.96 7.09471L244.962 7.09471L245.2 7.09471L246.416 7.09471L247.156 7.09471C250.947 7.3566 255.454 7.71371 259.46 8.02322L259.841 8.02322L262.536 8.26129L264.92 8.45175L268.33 8.45175L233.445 5.95194L232.276 5.95194L243.96 7.09471ZM243.96 7.09471L244.962 7.09471L245.2 7.09471L246.416 7.09471L247.156 7.09471C250.947 7.3566 255.454 7.71371 259.46 8.02322L259.841 8.02322L262.536 8.26129L264.92 8.45175L268.33 8.45175L233.445 5.95194L232.276 5.95194L243.96 7.09471ZM243.96 7.09471L244.962 7.09471L245.2 7.09471L246.416 7.09471L247.156 7.09471C250.947 7.3566 255.454 7.71371 259.46 8.02322L259.841 8.02322L262.536 8.26129L264.92 8.45175L268.33 8.45175L233.445 5.95194L232.276 5.95194L243.96 7.09471ZM7.89362 85.9047L7.89362 26.2837C7.90659 23.7119 8.38315 21.1636 9.30051 18.7604C9.53638 18.1503 9.80704 17.5541 10.1112 16.9749C10.1112 16.7368 10.3497 16.4987 10.4928 16.2606C11.6242 14.0676 13.331 12.2227 15.4309 10.9228C17.5308 9.6229 19.9449 8.91693 22.4153 8.88027L404.271 8.88031C407.682 9.06106 410.981 10.1528 413.825 12.0415C416.669 13.9303 418.953 16.5467 420.438 19.6176C420.653 19.7604 420.653 20.0461 420.82 20.2604C420.815 20.3079 420.815 20.3557 420.82 20.4032C421.011 20.838 421.178 21.2831 421.32 21.7364C421.365 21.9065 421.421 22.0735 421.487 22.2364C421.875 23.5509 422.076 24.9134 422.083 26.2837L422.083 85.9999L430 85.9999L430 26.2837C430 25.5219 430 24.7838 429.881 24.0458C429.834 23.4203 429.738 22.7994 429.595 22.1888C429.517 21.6997 429.413 21.2149 429.285 20.7365C429.285 20.4508 429.142 20.1889 429.046 19.9032C428.238 17.1708 426.973 14.5949 425.303 12.2848C424.754 11.5468 424.182 10.8087 423.562 10.0945L423.252 9.76118L422.632 9.09457L422.322 8.78508C417.569 3.91502 411.081 1.11692 404.271 0.999967L22.4392 0.999934L21.1754 0.999934C19.4301 1.09252 17.7055 1.42087 16.0487 1.97605C12.6783 3.13757 9.62241 5.06137 7.11988 7.59715C4.61735 10.1329 2.73585 13.212 1.62238 16.5939C1.5207 16.8347 1.43311 17.0811 1.36008 17.332C1.16932 17.9034 1.02628 18.4986 0.883215 19.0938C0.278112 21.4259 -0.0185493 23.827 0.000890234 26.236L0.00088501 85.9999L7.89362 85.9047ZM243.96 7.09471L244.962 7.09471L245.2 7.09471L246.416 7.09471L247.156 7.09471C250.947 7.3566 255.454 7.71371 259.46 8.02322L259.841 8.02322L262.536 8.26129L264.92 8.45175L268.33 8.45175L233.445 5.95194L232.276 5.95194L243.96 7.09471ZM243.96 7.09471L244.962 7.09471L245.2 7.09471L246.416 7.09471L247.156 7.09471C250.947 7.3566 255.454 7.71371 259.46 8.02322L259.841 8.02322L262.536 8.26129L264.92 8.45175L268.33 8.45175L233.445 5.95194L232.276 5.95194L243.96 7.09471ZM243.96 7.09471L244.962 7.09471L245.2 7.09471L246.416 7.09471L247.156 7.09471C250.947 7.3566 255.454 7.71371 259.46 8.02322L259.841 8.02322L262.536 8.26129L264.92 8.45175L268.33 8.45175L233.445 5.95194L232.276 5.95194L243.96 7.09471ZM243.96 7.09471L244.962 7.09471L245.2 7.09471L246.416 7.09471L247.156 7.09471C250.947 7.3566 255.454 7.71371 259.46 8.02322L259.841 8.02322L262.536 8.26129L264.92 8.45175L268.33 8.45175L233.445 5.95194L232.276 5.95194L243.96 7.09471ZM243.96 7.09471L244.962 7.09471L245.2 7.09471L246.416 7.09471L247.156 7.09471C250.947 7.3566 255.454 7.71371 259.46 8.02322L259.841 8.02322L262.536 8.26129L264.92 8.45175L268.33 8.45175L233.445 5.95194L232.276 5.95194L243.96 7.09471ZM243.96 7.09471L244.962 7.09471L245.2 7.09471L246.416 7.09471L247.156 7.09471C250.947 7.3566 255.454 7.71371 259.46 8.02322L259.841 8.02322L262.536 8.26129L264.92 8.45175L268.33 8.45175L233.445 5.95194L232.276 5.95194L243.96 7.09471ZM243.96 7.09471L244.962 7.09471L245.2 7.09471L246.416 7.09471L247.156 7.09471C250.947 7.3566 255.454 7.71371 259.46 8.02322L259.841 8.02322L262.536 8.26129L264.92 8.45175L268.33 8.45175L233.445 5.95194L232.276 5.95194L243.96 7.09471ZM243.96 7.09471L244.962 7.09471L245.2 7.09471L246.416 7.09471L247.156 7.09471C250.947 7.3566 255.454 7.71371 259.46 8.02322L259.841 8.02322L262.536 8.26129L264.92 8.45175L268.33 8.45175L233.445 5.95194L232.276 5.95194L243.96 7.09471ZM239.191 7.09471L245.749 7.52325L248.61 7.71371L251.352 7.88036L255.907 8.14226L258.673 8.30891L259.794 8.30891L265.111 8.5946C265.969 8.5946 266.828 8.5946 267.662 8.73744L305.218 8.73745C305.036 8.72583 304.853 8.72583 304.67 8.73745L302.095 8.42794L300.593 8.23749L295.204 7.61849L284.521 6.30906L228.342 6.30906C231.847 6.57094 235.495 6.85663 239.167 7.09471L239.191 7.09471ZM7.89362 32.4498L7.89362 30.4024L7.29749 30.8785L7.29749 32.426L7.89362 32.4498ZM239.191 7.09471L245.749 7.52325L248.61 7.71371L251.352 7.88036L255.907 8.14226L258.673 8.30891L259.794 8.30891L265.111 8.5946C265.969 8.5946 266.828 8.5946 267.662 8.73744L305.218 8.73745C305.036 8.72583 304.853 8.72583 304.67 8.73745L302.095 8.42794L300.593 8.23749L295.204 7.61849L284.521 6.30906L228.342 6.30906C231.847 6.57094 235.495 6.85663 239.167 7.09471L239.191 7.09471ZM7.89362 32.4498L7.89362 30.4024L7.29749 30.8785L7.29749 32.426L7.89362 32.4498ZM239.191 7.09471L245.749 7.52325L248.61 7.71371L251.352 7.88036L255.907 8.14226L258.673 8.30891L259.794 8.30891L265.111 8.5946C265.969 8.5946 266.828 8.5946 267.662 8.73744L305.218 8.73745C305.036 8.72583 304.853 8.72583 304.67 8.73745L302.095 8.42794L300.593 8.23749L295.204 7.61849L284.521 6.30906L228.342 6.30906C231.847 6.57094 235.495 6.85663 239.167 7.09471L239.191 7.09471ZM7.89362 32.4498L7.89362 30.4024L7.29749 30.8785L7.29749 32.426L7.89362 32.4498ZM239.191 7.09471L245.749 7.52325L248.61 7.71371L251.352 7.88036L255.907 8.14226L258.673 8.30891L259.794 8.30891L265.111 8.5946C265.969 8.5946 266.828 8.5946 267.662 8.73744L305.218 8.73745C305.036 8.72583 304.853 8.72583 304.67 8.73745L302.095 8.42794L300.593 8.23749L295.204 7.61849L284.521 6.30906L228.342 6.30906C231.847 6.57094 235.495 6.85663 239.167 7.09471L239.191 7.09471ZM7.89362 32.4498L7.89362 30.4024L7.29749 30.8785L7.29749 32.426L7.89362 32.4498ZM239.191 7.09471L245.749 7.52325L248.61 7.71371L251.352 7.88036L255.907 8.14226L258.673 8.30891L259.794 8.30891L265.111 8.5946C265.969 8.5946 266.828 8.5946 267.662 8.73744L305.218 8.73745C305.036 8.72583 304.853 8.72583 304.67 8.73745L302.095 8.42794L300.593 8.23749L295.204 7.61849L284.521 6.30906L228.342 6.30906C231.847 6.57094 235.495 6.85663 239.167 7.09471L239.191 7.09471ZM7.89362 32.4498L7.89362 30.4024L7.29749 30.8785L7.29749 32.426L7.89362 32.4498ZM239.191 7.09471L245.749 7.52325L248.61 7.71371L251.352 7.88036L255.907 8.14226L258.673 8.30891L259.794 8.30891L265.111 8.5946C265.969 8.5946 266.828 8.5946 267.662 8.73744L305.218 8.73745C305.036 8.72583 304.853 8.72583 304.67 8.73745L302.095 8.42794L300.593 8.23749L295.204 7.61849L284.521 6.30906L228.342 6.30906C231.847 6.57094 235.495 6.85663 239.167 7.09471L239.191 7.09471ZM7.89362 32.4498L7.89362 30.4024L7.29749 30.8785L7.29749 32.426L7.89362 32.4498ZM239.191 7.09471L245.749 7.52325L248.61 7.71371L251.352 7.88036L255.907 8.14226L258.673 8.30891L259.794 8.30891L265.111 8.5946C265.969 8.5946 266.828 8.5946 267.662 8.73744L305.218 8.73745C305.036 8.72583 304.853 8.72583 304.67 8.73745L302.095 8.42794L300.593 8.23749L295.204 7.61849L284.521 6.30906L228.342 6.30906C231.847 6.57094 235.495 6.85663 239.167 7.09471L239.191 7.09471ZM7.89362 32.4498L7.89362 30.4024L7.29749 30.8785L7.29749 32.426L7.89362 32.4498ZM239.191 7.09471L245.749 7.52325L248.61 7.71371L251.352 7.88036L255.907 8.14226L258.673 8.30891L259.794 8.30891L265.111 8.5946C265.969 8.5946 266.828 8.5946 267.662 8.73744L305.218 8.73745C305.036 8.72583 304.853 8.72583 304.67 8.73745L302.095 8.42794L300.593 8.23749L295.204 7.61849L284.521 6.30906L228.342 6.30906C231.847 6.57094 235.495 6.85663 239.167 7.09471L239.191 7.09471ZM7.89362 32.4498L7.89362 30.4024L7.29749 30.8785L7.29749 32.426L7.89362 32.4498ZM239.191 7.09471L245.749 7.52325L248.61 7.71371L251.352 7.88036L255.907 8.14226L258.673 8.30891L259.794 8.30891L265.111 8.5946C265.969 8.5946 266.828 8.5946 267.662 8.73744L305.218 8.73745C305.036 8.72583 304.853 8.72583 304.67 8.73745L302.095 8.42794L300.593 8.23749L295.204 7.61849L284.521 6.30906L228.342 6.30906C231.847 6.57094 235.495 6.85663 239.167 7.09471L239.191 7.09471ZM7.89362 32.4498L7.89362 30.4024L7.29749 30.8785L7.29749 32.426L7.89362 32.4498ZM239.191 7.09471L245.749 7.52325L248.61 7.71371L251.352 7.88036L255.907 8.14226L258.673 8.30891L259.794 8.30891L265.111 8.5946C265.969 8.5946 266.828 8.5946 267.662 8.73744L305.218 8.73745C305.036 8.72583 304.853 8.72583 304.67 8.73745L302.095 8.42794L300.593 8.23749L295.204 7.61849L284.521 6.30906L228.342 6.30906C231.847 6.57094 235.495 6.85663 239.167 7.09471L239.191 7.09471ZM7.89362 32.4498L7.89362 30.4024L7.29749 30.8785L7.29749 32.426L7.89362 32.4498ZM239.191 7.09471L245.749 7.52325L248.61 7.71371L251.352 7.88036L255.907 8.14226L258.673 8.30891L259.794 8.30891L265.111 8.5946C265.969 8.5946 266.828 8.5946 267.662 8.73744L305.218 8.73745C305.036 8.72583 304.853 8.72583 304.67 8.73745L302.095 8.42794L300.593 8.23749L295.204 7.61849L284.521 6.30906L228.342 6.30906C231.847 6.57094 235.495 6.85663 239.167 7.09471L239.191 7.09471ZM7.89362 32.4498L7.89362 30.4024L7.29749 30.8785L7.29749 32.426L7.89362 32.4498ZM239.191 7.09471L245.749 7.52325L248.61 7.71371L251.352 7.88036L255.907 8.14226L258.673 8.30891L259.794 8.30891L265.111 8.5946C265.969 8.5946 266.828 8.5946 267.662 8.73744L305.218 8.73745C305.036 8.72583 304.853 8.72583 304.67 8.73745L302.095 8.42794L300.593 8.23749L295.204 7.61849L284.521 6.30906L228.342 6.30906C231.847 6.57094 235.495 6.85663 239.167 7.09471L239.191 7.09471ZM7.89362 32.4498L7.89362 30.4024L7.29749 30.8785L7.29749 32.426L7.89362 32.4498ZM239.191 7.09471L245.749 7.52325L248.61 7.71371L251.352 7.88036L255.907 8.14226L258.673 8.30891L259.794 8.30891L265.111 8.5946C265.969 8.5946 266.828 8.5946 267.662 8.73744L305.218 8.73745C305.036 8.72583 304.853 8.72583 304.67 8.73745L302.095 8.42794L300.593 8.23749L295.204 7.61849L284.521 6.30906L228.342 6.30906C231.847 6.57094 235.495 6.85663 239.167 7.09471L239.191 7.09471ZM7.89362 32.4498L7.89362 30.4024L7.29749 30.8785L7.29749 32.426L7.89362 32.4498ZM239.191 7.09471L245.749 7.52325L248.61 7.71371L251.352 7.88036L255.907 8.14226L258.673 8.30891L259.794 8.30891L265.111 8.5946C265.969 8.5946 266.828 8.5946 267.662 8.73744L305.218 8.73745C305.036 8.72583 304.853 8.72583 304.67 8.73745L302.095 8.42794L300.593 8.23749L295.204 7.61849L284.521 6.30906L228.342 6.30906C231.847 6.57094 235.495 6.85663 239.167 7.09471L239.191 7.09471ZM7.89362 32.4498L7.89362 30.4024L7.29749 30.8785L7.29749 32.426L7.89362 32.4498ZM239.191 7.09471L245.749 7.52325L248.61 7.71371L251.352 7.88036L255.907 8.14226L258.673 8.30891L259.794 8.30891L265.111 8.5946C265.969 8.5946 266.828 8.5946 267.662 8.73744L305.218 8.73745C305.036 8.72583 304.853 8.72583 304.67 8.73745L302.095 8.42794L300.593 8.23749L295.204 7.61849L284.521 6.30906L228.342 6.30906C231.847 6.57094 235.495 6.85663 239.167 7.09471L239.191 7.09471ZM7.89362 32.4498L7.89362 30.4024L7.29749 30.8785L7.29749 32.426L7.89362 32.4498ZM239.191 7.09471L245.749 7.52325L248.61 7.71371L251.352 7.88036L255.907 8.14226L258.673 8.30891L259.794 8.30891L265.111 8.5946C265.969 8.5946 266.828 8.5946 267.662 8.73744L305.218 8.73745C305.036 8.72583 304.853 8.72583 304.67 8.73745L302.095 8.42794L300.593 8.23749L295.204 7.61849L284.521 6.30906L228.342 6.30906C231.847 6.57094 235.495 6.85663 239.167 7.09471L239.191 7.09471ZM7.89362 32.4498L7.89362 30.4024L7.29749 30.8785L7.29749 32.426L7.89362 32.4498ZM239.191 7.09471L245.749 7.52325L248.61 7.71371L251.352 7.88036L255.907 8.14226L258.673 8.30891L259.794 8.30891L265.111 8.5946C265.969 8.5946 266.828 8.5946 267.662 8.73744L305.218 8.73745C305.036 8.72583 304.853 8.72583 304.67 8.73745L302.095 8.42794L300.593 8.23749L295.204 7.61849L284.521 6.30906L228.342 6.30906C231.847 6.57094 235.495 6.85663 239.167 7.09471L239.191 7.09471ZM7.89362 32.4498L7.89362 30.4024L7.29749 30.8785L7.29749 32.426L7.89362 32.4498ZM239.191 7.09471L245.749 7.52325L248.61 7.71371L251.352 7.88036L255.907 8.14226L258.673 8.30891L259.794 8.30891L265.111 8.5946C265.969 8.5946 266.828 8.5946 267.662 8.73744L305.218 8.73745C305.036 8.72583 304.853 8.72583 304.67 8.73745L302.095 8.42794L300.593 8.23749L295.204 7.61849L284.521 6.30906L228.342 6.30906C231.847 6.57094 235.495 6.85663 239.167 7.09471L239.191 7.09471ZM7.89362 32.4498L7.89362 30.4024L7.29749 30.8785L7.29749 32.426L7.89362 32.4498ZM239.191 7.09471L245.749 7.52325L248.61 7.71371L251.352 7.88036L255.907 8.14226L258.673 8.30891L259.794 8.30891L265.111 8.5946C265.969 8.5946 266.828 8.5946 267.662 8.73744L305.218 8.73745C305.036 8.72583 304.853 8.72583 304.67 8.73745L302.095 8.42794L300.593 8.23749L295.204 7.61849L284.521 6.30906L228.342 6.30906C231.847 6.57094 235.495 6.85663 239.167 7.09471L239.191 7.09471ZM7.89362 32.4498L7.89362 30.4024L7.29749 30.8785L7.29749 32.426L7.89362 32.4498ZM239.191 7.09471L245.749 7.52325L248.61 7.71371L251.352 7.88036L255.907 8.14226L258.673 8.30891L259.794 8.30891L265.111 8.5946C265.969 8.5946 266.828 8.5946 267.662 8.73744L305.218 8.73745C305.036 8.72583 304.853 8.72583 304.67 8.73745L302.095 8.42794L300.593 8.23749L295.204 7.61849L284.521 6.30906L228.342 6.30906C231.847 6.57094 235.495 6.85663 239.167 7.09471L239.191 7.09471ZM7.89362 32.4498L7.89362 30.4024L7.29749 30.8785L7.29749 32.426L7.89362 32.4498ZM239.191 7.09471L245.749 7.52325L248.61 7.71371L251.352 7.88036L255.907 8.14226L258.673 8.30891L259.794 8.30891L265.111 8.5946C265.969 8.5946 266.828 8.5946 267.662 8.73744L305.218 8.73745C305.036 8.72583 304.853 8.72583 304.67 8.73745L302.095 8.42794L300.593 8.23749L295.204 7.61849L284.521 6.30906L228.342 6.30906C231.847 6.57094 235.495 6.85663 239.167 7.09471L239.191 7.09471ZM7.89362 32.4498L7.89362 30.4024L7.29749 30.8785L7.29749 32.426L7.89362 32.4498ZM239.191 7.09471L245.749 7.52325L248.61 7.71371L251.352 7.88036L255.907 8.14226L258.673 8.30891L259.794 8.30891L265.111 8.5946C265.969 8.5946 266.828 8.5946 267.662 8.73744L305.218 8.73745C305.036 8.72583 304.853 8.72583 304.67 8.73745L302.095 8.42794L300.593 8.23749L295.204 7.61849L284.521 6.30906L228.342 6.30906C231.847 6.57094 235.495 6.85663 239.167 7.09471L239.191 7.09471ZM7.89362 32.4498L7.89362 30.4024L7.29749 30.8785L7.29749 32.426L7.89362 32.4498ZM239.191 7.09471L245.749 7.52325L248.61 7.71371L251.352 7.88036L255.907 8.14226L258.673 8.30891L259.794 8.30891L265.111 8.5946C265.969 8.5946 266.828 8.5946 267.662 8.73744L305.218 8.73745C305.036 8.72583 304.853 8.72583 304.67 8.73745L302.095 8.42794L300.593 8.23749L295.204 7.61849L284.521 6.30906L228.342 6.30906C231.847 6.57094 235.495 6.85663 239.167 7.09471L239.191 7.09471ZM7.89362 32.4498L7.89362 30.4024L7.29749 30.8785L7.29749 32.426L7.89362 32.4498ZM239.191 7.09471L245.749 7.52325L248.61 7.71371L251.352 7.88036L255.907 8.14226L258.673 8.30891L259.794 8.30891L265.111 8.5946C265.969 8.5946 266.828 8.5946 267.662 8.73744L305.218 8.73745C305.036 8.72583 304.853 8.72583 304.67 8.73745L302.095 8.42794L300.593 8.23749L295.204 7.61849L284.521 6.30906L228.342 6.30906C231.847 6.57094 235.495 6.85663 239.167 7.09471L239.191 7.09471ZM7.89362 32.4498L7.89362 30.4024L7.29749 30.8785L7.29749 32.426L7.89362 32.4498ZM239.191 7.09471L245.749 7.52325L248.61 7.71371L251.352 7.88036L255.907 8.14226L258.673 8.30891L259.794 8.30891L265.111 8.5946C265.969 8.5946 266.828 8.5946 267.662 8.73744L305.218 8.73745C305.036 8.72583 304.853 8.72583 304.67 8.73745L302.095 8.42794L300.593 8.23749L295.204 7.61849L284.521 6.30906L228.342 6.30906C231.847 6.57094 235.495 6.85663 239.167 7.09471L239.191 7.09471ZM7.89362 32.4498L7.89362 30.4024L7.29749 30.8785L7.29749 32.426L7.89362 32.4498ZM239.191 7.09471L245.749 7.52325L248.61 7.71371L251.352 7.88036L255.907 8.14226L258.673 8.30891L259.794 8.30891L265.111 8.5946C265.969 8.5946 266.828 8.5946 267.662 8.73744L305.218 8.73745C305.036 8.72583 304.853 8.72583 304.67 8.73745L302.095 8.42794L300.593 8.23749L295.204 7.61849L284.521 6.30906L228.342 6.30906C231.847 6.57094 235.495 6.85663 239.167 7.09471L239.191 7.09471ZM7.89362 32.4498L7.89362 30.4024L7.29749 30.8785L7.29749 32.426L7.89362 32.4498ZM239.191 7.09471L245.749 7.52325L248.61 7.71371L251.352 7.88036L255.907 8.14226L258.673 8.30891L259.794 8.30891L265.111 8.5946C265.969 8.5946 266.828 8.5946 267.662 8.73744L305.218 8.73745C305.036 8.72583 304.853 8.72583 304.67 8.73745L302.095 8.42794L300.593 8.23749L295.204 7.61849L284.521 6.30906L228.342 6.30906C231.847 6.57094 235.495 6.85663 239.167 7.09471L239.191 7.09471ZM7.89362 32.4498L7.89362 30.4024L7.29749 30.8785L7.29749 32.426L7.89362 32.4498ZM239.191 7.09471L245.749 7.52325L248.61 7.71371L251.352 7.88036L255.907 8.14226L258.673 8.30891L259.794 8.30891L265.111 8.5946C265.969 8.5946 266.828 8.5946 267.662 8.73744L305.218 8.73745C305.036 8.72583 304.853 8.72583 304.67 8.73745L302.095 8.42794L300.593 8.23749L295.204 7.61849L284.521 6.30906L228.342 6.30906C231.847 6.57094 235.495 6.85663 239.167 7.09471L239.191 7.09471ZM7.89362 32.4498L7.89362 30.4024L7.29749 30.8785L7.29749 32.426L7.89362 32.4498Z" fill="url(#paint0_linear_47_61069)"/>
</g>
<g style="mix-blend-mode:multiply" opacity="0.6" filter="url(#filter1_d_47_61069)">
<path d="M422.978 50.1156L426.596 49.6633C425.549 49.2111 424.216 48.7112 422.978 48.2589L422.383 48.0447L422.383 46.1403L422.978 46.3307C425.359 47.1705 427.695 48.1319 429.977 49.2111L430.215 49.2111L430.81 49.2111L430.81 50.9012L430.215 50.9012L423.073 51.7819L422.478 51.7819L422.478 50.187L422.978 50.1156Z" fill="#C97B3A"/>
<path d="M422.383 34.5236L422.383 32.7383L422.978 32.7859L430.215 33.1668L430.81 33.1906L430.81 34.9521L430.215 34.9283L422.978 34.5236L422.383 34.5236Z" fill="#C97B3A"/>
<path d="M422 59.4516L422 57.6663L422.595 57.7139L429.832 58.0947L430.427 58.1186L430.427 59.8801L429.832 59.8563L422.595 59.4516L422 59.4516Z" fill="#C97B3A"/>
<path d="M422 82.6128L422 80.9999L422.565 81.043L429.435 81.387L430 81.4085L430 82.9999L429.435 82.9784L422.565 82.6128L422 82.6128Z" fill="#C97B3A"/>
<path d="M421.216 21.6459C421.055 21.151 420.864 20.6661 420.645 20.1938L420.931 20.1938L429.143 22.0268L429.405 22.0268C429.548 22.6373 429.644 23.2581 429.691 23.8835L429.215 23.8835L421.383 22.1696L421.216 21.6459Z" fill="#C97B3A"/>
<path d="M347.739 0.499938L352.5 0.499939L353.374 0.721928C357.802 2.36442 362.896 4.26876 368.133 6.07789L375.274 8.57733L369.847 8.57733L362.848 6.07789C357.445 4.14974 352.279 2.2216 348.328 0.721928L347.739 0.499938Z" fill="#C97B3A"/>
<path d="M367 0.499939L372.499 0.499939C375.141 1.35689 370.966 0.0789966 373.941 0.721711C378.125 1.84978 382.391 2.64573 386.7 3.10214C399.043 4.74064 411.288 7.04507 423.383 10.0054L425.001 10.4338C425.454 11.1004 425.858 11.7907 426.263 12.5048C425.878 12.4377 425.496 12.3502 425.12 12.243C422.05 11.5526 417.979 10.6005 413.385 9.6245C407.743 8.41049 401.483 7.24408 395.841 6.2443C392.437 5.6968 389.247 5.24452 386.557 5.00648C380.091 4.25704 373.713 2.87778 367.514 0.88834C364.705 -0.0162217 369.19 1.28548 367 0.499939Z" fill="#C97B3A"/>
<path d="M308.36 0.500183L311.5 0.499939L312 0.500183L312.574 0.840576L327.88 6.19653L334.997 8.69598L329.713 8.69598L322.619 6.19653L308.432 1.22144L308.36 0.840576L308.36 0.500183Z" fill="#C97B3A"/>
<path d="M16.1166 2.10252C16.997 1.61058 17.9028 1.16561 18.8303 0.769481C21.0203 1.15035 19.4483 0.531215 21.7811 0.88828C24.1615 1.22154 26.542 1.53099 28.3511 1.67382C30.7315 1.88806 165.107 2.14992 171.724 2.45937C180.722 2.91165 192.91 3.53057 206.145 4.43513C209.692 3.48296 216.976 2.19753 225.641 0.840688C230.878 0.0313444 222.951 1.24536 228.592 0.531235L237 0.531235L245 0.530991L254.087 0.912105C267.084 2.41177 285.485 4.62557 299.315 6.26807L318.144 8.64849L318.144 8.88654L305.361 8.88653C305.179 8.87493 304.996 8.87493 304.814 8.88653L302.243 8.57708L300.743 8.38664C299.029 8.1724 297.244 7.95817 295.363 7.76773L284.699 6.4585C266.536 4.31611 246.612 1.93569 240.114 1.29297L240.114 0.912104L240.114 0.531236L237.448 0.912103C227.926 2.34036 218.595 3.76861 212.382 4.93502C216.286 5.24448 220.237 5.55393 224.284 5.911L228.592 6.26806C232.092 6.55371 235.734 6.83936 239.4 7.07741L245.946 7.50588L248.802 7.69632L251.468 7.79153L256.015 8.05338L259.895 8.26762L265.203 8.55327C266.06 8.55327 266.917 8.55327 267.75 8.6961L238.114 8.69609C233.353 8.36283 228.592 7.98196 224.022 7.57729C218.047 7.0536 212.12 6.60132 206.335 6.19664L206.193 6.19664C192.91 5.26828 180.698 4.64936 171.7 4.19708C165.059 3.86382 30.7553 3.64957 28.2559 3.41153C25.0899 3.12588 20.6861 2.48316 16.687 1.86425L16.1166 2.10252Z" fill="#C97B3A"/>
<path d="M0.357202 19.1464C0.431532 18.545 0.542828 17.9488 0.690459 17.3611L1.95208 17.3611L8.95054 17.004L10 17.004C9.68861 17.5828 9.41046 18.1789 9.16687 18.7893L8.42684 18.7893C6.04642 18.9322 3.66599 19.0512 1.476 19.1226L0.357202 19.1464Z" fill="#C97B3A"/>
<path d="M-4.0046e-05 33.905L-3.9892e-05 32.1435L0.595067 32.1435L3.11831 32.1435C4.04668 31.5007 4.99863 29.9773 6.87916 28.4538L7.47427 27.9777L7.47427 30.2153L6.87916 30.6914C6.21264 31.2627 6.52234 31.7864 5.92723 32.2387L7.42665 32.2387L7.42665 34.0002L7.83154 34.0002C5.3321 34.0002 2.78504 34.0002 0.690268 33.8097L-4.0046e-05 33.905Z" fill="#C97B3A"/>
<path d="M-0.999943 65.5222L-0.999943 63.7606L-0.404836 63.7606L2.11841 63.7606C3.04677 63.1179 4.99872 61.5945 6.87926 60.071L7.47437 59.5949L7.47437 61.8325L6.87926 62.3086C6.21274 62.8799 5.52244 63.4036 4.92733 63.8559L7.42675 63.8559L7.42675 65.6174L6.83164 65.6174C4.33219 65.6174 1.78514 65.6174 -0.309635 65.4269L-0.999943 65.5222Z" fill="#C97B3A"/>
<path d="M-0.999823 47.8068L-0.999822 46.0215L-0.404716 46.1405C1.95581 46.6085 4.33962 46.9501 6.73656 47.1641L7.33167 47.1641L7.33167 48.997L6.73656 48.997C4.34075 48.7848 1.95725 48.4511 -0.404716 47.9972L-0.999823 47.8068Z" fill="#C97B3A"/>
<path d="M-0.999823 79.424L-0.999822 77.6387L-0.404716 77.7577C1.95581 78.2257 4.33962 78.5673 6.73656 78.7813L7.33167 78.7813L7.33167 80.6142L6.73656 80.6142C4.34075 80.402 1.95725 80.0683 -0.404716 79.6144L-0.999823 79.424Z" fill="#C97B3A"/>
</g>
<g style="mix-blend-mode:overlay" opacity="0.5" filter="url(#filter2_d_47_61069)">
<path d="M429.81 48.0683C429.289 48.0717 428.77 48.0158 428.262 47.9017C427.524 47.7351 424.478 46.7829 421.978 45.9736L421.978 46.5449C424.37 47.2704 426.708 48.1612 428.977 49.211L429.81 48.9967L429.81 48.0683Z" fill="#FFDE55"/>
<path d="M425.787 32.3814L421.978 32.0719L421.978 32.6908C424.359 32.6908 428.405 33.1193 429.81 33.2621L429.81 32.4528C428.715 32.4766 427.215 32.4766 425.787 32.3814Z" fill="#FFDE55"/>
<path d="M425.404 57.3094L421.595 56.9999L421.595 57.6188C423.975 57.6188 428.022 58.0473 429.427 58.1901L429.427 57.3808C428.332 57.4046 426.832 57.4046 425.404 57.3094Z" fill="#FFDE55"/>
<path d="M426.404 80.2599L423 79.9999L423 80.5199C425.128 80.5199 428.745 80.8799 430 80.9999L430 80.3199C429.021 80.3399 427.681 80.3399 426.404 80.2599Z" fill="#FFDE55"/>
<path d="M420.645 20.1938C423.763 21.0032 428.191 21.8601 429.405 22.0982C429.327 21.6091 429.224 21.1244 429.096 20.6461C428.113 20.7304 427.126 20.7304 426.144 20.6461C424.143 20.4733 422.17 20.0658 420.264 19.4321C420.405 19.6786 420.533 19.933 420.645 20.1938Z" fill="#FFDE55"/>
<path d="M400.483 5.03018C407.124 6.12517 423.168 9.79103 423.168 9.79103L422.145 8.76745C422.145 8.76745 416.027 7.31539 413.099 6.38702C410.171 5.45866 395.175 3.38769 390.437 2.8878C386.636 2.39999 382.862 1.7167 379.13 0.840628L374.37 0.983456C374.37 0.983456 384.344 3.10203 385.439 3.10203C386.534 3.10203 393.865 3.93518 400.483 5.03018Z" fill="#FFDE55"/>
<path d="M375.631 8.69606L378.583 8.69606C371.442 6.50607 356.992 1.34054 355.612 0.840652L353.422 0.840652C353.422 0.840652 364.181 4.64933 367.704 5.98237C370.489 7.00595 374.155 8.21997 375.631 8.69606Z" fill="#FFDE55"/>
<path d="M333.76 8.69606L335.235 8.69606C330.475 6.6727 316.573 1.55478 314.335 0.840653L314.002 0.840653L312.574 0.840652C312.574 0.840652 319.906 3.72097 324.143 4.88738C327.429 5.94428 330.641 7.2166 333.76 8.69606Z" fill="#FFDE55"/>
<path d="M263.989 2.03085C267.703 2.41171 295.863 5.53007 302.647 6.57746C307.194 7.24398 314.55 8.17235 319.025 8.69604L322.881 8.69604C316.74 7.00594 293.769 4.60171 286.056 3.93519C279.224 3.26867 265.846 1.55476 261.466 0.912048L260.038 0.721614L254.872 0.912048L255.134 0.912048C256.229 0.912048 260.752 1.72139 263.989 2.03085Z" fill="#FFDE55"/>
<path d="M170.105 30.586H170.486C175.247 30.9431 180.579 31.3716 184.769 31.6572L165.082 30.1337L170.105 30.586Z" fill="#FFDE55"/>
<path d="M231.259 6.19653C235.258 6.50599 239.043 6.79164 241.447 6.93447L245.303 7.17251L215.572 4.9111L268.417 8.69598C262.156 7.95805 250.635 6.62501 244.946 6.19653C243.851 6.19653 242.994 6.05371 242.399 6.05371C237.852 6.05371 217.404 4.95871 213.62 4.76828L213.024 4.76828L214.119 4.76828C216.881 5.05393 224.427 5.67284 231.259 6.19653Z" fill="#FFDE55"/>
<path d="M10.0453 16.0756L1.21389 16.4803C1.11238 16.721 1.02495 16.9674 0.952046 17.2182L9.66441 16.7897C9.83104 16.5517 10.0453 16.3136 10.0453 16.0756Z" fill="#FFDE55"/>
<path d="M7.42688 27.9539L7.42688 26.3829C5.49874 28.2634 1.85669 31.2865 1.85669 31.2865L-0.404703 31.0961L-0.404703 32.0245L1.97572 32.2387L7.42688 27.9539Z" fill="#FFDE55"/>
<path d="M7.42688 59.5711L7.42688 58.0001C5.49874 59.8806 1.85669 62.9037 1.85669 62.9037L-0.404703 62.7133L-0.404703 63.6417L1.97572 63.8559L7.42688 59.5711Z" fill="#FFDE55"/>
<path d="M7.42688 45.8783C4.78686 45.9815 2.14645 45.6846 -0.404703 44.9976L-0.404703 46.1402C2.18977 46.5524 4.80376 46.8305 7.42688 46.9733L7.42688 45.8783Z" fill="#FFDE55"/>
<path d="M7.42688 77.4955C4.78686 77.5987 2.14645 77.3018 -0.404703 76.6148L-0.404703 77.7574C2.18977 78.1696 4.80376 78.4476 7.42688 78.5905L7.42688 77.4955Z" fill="#FFDE55"/>
</g>
<defs>
<filter id="filter0_d_47_61069" x="0" y="0.999939" width="430" height="88" filterUnits="userSpaceOnUse" color-interpolation-filters="sRGB">
<feFlood flood-opacity="0" result="BackgroundImageFix"/>
<feColorMatrix in="SourceAlpha" type="matrix" values="0 0 0 0 0 0 0 0 0 0 0 0 0 0 0 0 0 0 127 0" result="hardAlpha"/>
<feOffset dy="3"/>
<feComposite in2="hardAlpha" operator="out"/>
<feColorMatrix type="matrix" values="0 0 0 0 0.619608 0 0 0 0 0.25098 0 0 0 0 0 0 0 0 1 0"/>
<feBlend mode="normal" in2="BackgroundImageFix" result="effect1_dropShadow_47_61069"/>
<feBlend mode="normal" in="SourceGraphic" in2="effect1_dropShadow_47_61069" result="shape"/>
</filter>
<filter id="filter1_d_47_61069" x="-5" y="0.499939" width="439.81" height="90.5" filterUnits="userSpaceOnUse" color-interpolation-filters="sRGB">
<feFlood flood-opacity="0" result="BackgroundImageFix"/>
<feColorMatrix in="SourceAlpha" type="matrix" values="0 0 0 0 0 0 0 0 0 0 0 0 0 0 0 0 0 0 127 0" result="hardAlpha"/>
<feOffset dy="4"/>
<feGaussianBlur stdDeviation="2"/>
<feComposite in2="hardAlpha" operator="out"/>
<feColorMatrix type="matrix" values="0 0 0 0 0 0 0 0 0 0 0 0 0 0 0 0 0 0 0.25 0"/>
<feBlend mode="normal" in2="BackgroundImageFix" result="effect1_dropShadow_47_61069"/>
<feBlend mode="normal" in="SourceGraphic" in2="effect1_dropShadow_47_61069" result="shape"/>
</filter>
<filter id="filter2_d_47_61069" x="-4.40466" y="0.721619" width="438.405" height="88.2783" filterUnits="userSpaceOnUse" color-interpolation-filters="sRGB">
<feFlood flood-opacity="0" result="BackgroundImageFix"/>
<feColorMatrix in="SourceAlpha" type="matrix" values="0 0 0 0 0 0 0 0 0 0 0 0 0 0 0 0 0 0 127 0" result="hardAlpha"/>
<feOffset dy="4"/>
<feGaussianBlur stdDeviation="2"/>
<feComposite in2="hardAlpha" operator="out"/>
<feColorMatrix type="matrix" values="0 0 0 0 0 0 0 0 0 0 0 0 0 0 0 0 0 0 0.25 0"/>
<feBlend mode="normal" in2="BackgroundImageFix" result="effect1_dropShadow_47_61069"/>
<feBlend mode="normal" in="SourceGraphic" in2="effect1_dropShadow_47_61069" result="shape"/>
</filter>
<linearGradient id="paint0_linear_47_61069" x1="215.012" y1="2.23795" x2="215.012" y2="55.6147" gradientUnits="userSpaceOnUse">
<stop stop-color="#F0CA57"/>
<stop offset="1" stop-color="#D45B1A"/>
</linearGradient>
</defs>
</svg>
