<svg width="48" height="52" viewBox="0 0 48 52" fill="none" xmlns="http://www.w3.org/2000/svg">
<g clip-path="url(#clip0_30_10674)">
<g style="mix-blend-mode:multiply" opacity="0.5">
<path d="M47.9528 27.4656C47.9528 27.3242 47.9528 27.1827 47.9293 27.0177C47.9057 26.5933 47.8585 26.1925 47.8114 25.7682C47.5521 23.5285 47.0334 21.336 46.2318 19.2377C46.0668 18.8369 45.9018 18.4126 45.7367 18.0118C44.5344 15.277 42.8134 12.8252 40.5972 10.8684C40.0786 10.3969 39.5363 9.97251 38.947 9.5953C36.0236 7.56779 32.3694 6.34186 27.9371 6.34186H20.0864C10.1375 6.36543 4.10216 12.4951 1.50884 20.0157C1.36739 20.4165 1.22593 20.8409 1.10805 21.2652C0.990177 21.666 0.872299 22.0668 0.777996 22.4912C0.683694 22.892 0.589391 23.3163 0.518664 23.7171C0.282908 24.9666 0.117878 26.2397 0.0471513 27.4892C0.0235756 28.0314 0 28.5737 0 29.1159C0 30.9077 0.165029 32.7466 0.518664 34.5383C0.589391 34.9627 0.683694 35.3635 0.777996 35.7878C0.91945 36.4008 1.10805 37.0138 1.29666 37.6267C1.43811 38.0511 1.57957 38.4754 1.7446 38.8998C4.47937 46.114 10.444 51.8664 20.0864 51.8664H27.9371C34.0196 51.8664 38.6405 49.5796 41.8939 46.0904C42.2475 45.7132 42.6012 45.3124 42.9312 44.888C44.8644 42.4362 46.2554 39.5128 47.057 36.4244C47.1748 36 47.2692 35.5992 47.3635 35.1749C47.7878 33.1945 48 31.1434 48 29.1395C48 28.5973 48 28.055 47.9528 27.5128V27.4656ZM38.5226 35.2456C38.4047 35.6464 38.2397 36.0707 38.0747 36.4951C36.6365 40.0314 33.7367 43.4499 27.9371 43.4499H20.0864C15.9843 43.4499 13.3202 41.7289 11.5992 39.4656C11.2927 39.0413 11.0098 38.6169 10.7505 38.169C10.3261 37.4145 9.9725 36.6601 9.68959 35.8821C9.54813 35.4578 9.40668 35.057 9.2888 34.6326C8.55796 32.0157 8.48723 29.6582 8.48723 29.0923C8.48723 28.833 8.48723 28.2672 8.55796 27.4892C8.65226 26.5462 8.81729 25.2967 9.14735 23.9764C9.26523 23.5756 9.35953 23.1513 9.50098 22.7505C9.66601 22.2318 9.87819 21.7132 10.1139 21.1945C10.3026 20.7701 10.5147 20.3458 10.7505 19.945C12.4008 17.1159 15.2063 14.7584 20.0393 14.7584H27.89C31.7564 14.7584 34.3261 16.2672 36.0471 18.3183C36.3772 18.6955 36.6601 19.1199 36.943 19.5442C38.2161 21.5717 38.8527 23.9057 39.1827 25.7682C39.2534 26.2161 39.3242 26.6405 39.3477 27.0177C39.3477 27.1827 39.3949 27.3477 39.3949 27.5128C39.4656 28.3144 39.4656 28.8802 39.4656 29.1395C39.4656 29.7525 39.4185 32.4401 38.4754 35.2927L38.5226 35.2456Z" fill="#58129B"/>
</g>
<path d="M47.9528 24.4715C47.9528 24.4715 47.9528 24.3772 47.9528 24.3065C47.9528 24.165 47.9528 24.0236 47.9528 23.8821C47.9293 23.4813 47.8821 23.057 47.835 22.6326C47.5756 20.3929 47.057 18.2004 46.2554 16.1022C46.0904 15.6778 45.9253 15.277 45.7603 14.8762C44.558 12.165 42.8369 9.6896 40.6208 7.73282C40.1022 7.26131 39.5599 6.83695 38.9705 6.43616C36.0471 4.40866 32.3929 3.2063 27.9371 3.2063H20.0864C15.2063 3.2063 11.2692 4.69156 8.20432 7.0727C5.04519 9.54815 2.82908 13.0138 1.50884 16.8566C1.36739 17.2574 1.24951 17.6817 1.10805 18.1061C0.990177 18.5069 0.872299 18.9077 0.777996 19.332C0.683694 19.7328 0.589391 20.1572 0.518664 20.558C0.282908 21.8075 0.117878 23.0806 0.0471513 24.3301C0.0471513 24.3772 0.0471513 24.4008 0.0471513 24.4244C0.0235756 24.9195 0 25.4381 0 25.9332C0 27.7485 0.165029 29.5639 0.518664 31.3556C0.589391 31.78 0.683694 32.2043 0.777996 32.6051C0.91945 33.2181 1.10805 33.8311 1.29666 34.444C1.43811 34.8684 1.57957 35.2927 1.7446 35.7171C2.59332 37.9568 3.74853 40.0786 5.25737 41.9175C5.56385 42.2947 5.87033 42.6483 6.20039 43.002C6.4833 43.3085 6.78978 43.6149 7.09627 43.8979C10.279 46.8212 14.5697 48.6837 20.0629 48.6837H27.9136C33.9961 48.6837 38.6169 46.3969 41.8703 42.9077C42.224 42.5069 42.5776 42.1061 42.9077 41.7053C44.8644 39.2534 46.2318 36.3301 47.0334 33.2417C47.1513 32.8173 47.2456 32.4165 47.3399 31.9922C47.7642 30.0118 47.9764 27.9607 47.9764 25.9568C47.9764 25.4617 47.9764 24.9666 47.9293 24.4715H47.9528ZM20.0864 11.5992H27.9371C31.8035 11.5992 34.3733 13.1081 36.0943 15.1591C36.4244 15.5364 36.7073 15.9607 36.9902 16.3851C38.2633 18.4126 38.8998 20.7466 39.2299 22.609C39.3006 23.057 39.3713 23.4813 39.3949 23.8586C39.3949 24.0236 39.4185 24.1886 39.442 24.3536C39.5128 25.1316 39.5128 25.721 39.5128 25.9568C39.5128 26.5698 39.4656 29.2338 38.5226 32.11C38.4047 32.5344 38.2397 32.9352 38.0747 33.3595C36.6365 36.8723 33.7367 40.2908 27.9371 40.2908H20.0864C18.7662 40.2908 17.5874 40.1257 16.5501 39.7957C14.3576 39.112 12.778 37.8389 11.6228 36.3065C11.5049 36.165 11.4106 36.0236 11.3163 35.8821C11.1277 35.5992 10.9391 35.3163 10.7741 35.0334C10.3497 34.279 9.99607 33.5246 9.71316 32.7466C9.57171 32.3222 9.43025 31.8979 9.31238 31.4971C8.55796 28.8566 8.51081 26.5462 8.51081 25.9568C8.51081 25.6975 8.51081 25.1316 8.58153 24.3536C8.67583 23.4106 8.84086 22.1847 9.1945 20.8409C9.31238 20.4401 9.40668 20.0393 9.54813 19.6149C9.71316 19.0963 9.92534 18.5776 10.1611 18.0589C10.3497 17.6346 10.5619 17.2338 10.7976 16.8094C11.5049 15.5835 12.4244 14.4519 13.6503 13.556C15.2534 12.3772 17.3281 11.5992 20.0864 11.5992Z" fill="#9E4000"/>
<path d="M47.1984 16.2672C47.1041 15.8428 46.9862 15.4421 46.8684 15.0177C46.1375 12.448 45.0295 10.0432 43.5206 7.89785C43.2141 7.44992 42.8841 7.02556 42.554 6.62477C39.2534 2.64049 34.4204 -0.0235596 27.9136 -0.0235596H20.0629C17.1395 -0.0235596 14.5462 0.51868 12.2829 1.48528C11.4813 1.81534 10.7269 2.19255 10.0196 2.64049C8.58153 3.51279 7.30845 4.57369 6.20039 5.77605C3.32417 8.84088 1.48527 12.8723 0.612967 17.0924C0.518664 17.5167 0.447937 17.9411 0.37721 18.3654C0.306483 18.7662 0.259332 19.167 0.212181 19.5678C0.165029 19.9922 0.117878 20.4165 0.0943025 20.8173C0.0471513 21.5481 0 22.3026 0 23.0334C0 23.5049 0 23.9764 0.0471513 24.448C0.0471513 24.5187 0.0471513 24.5894 0.0471513 24.6601C0.165029 27.0884 0.612967 29.5167 1.34381 31.8271C1.48527 32.2515 1.62672 32.6758 1.79175 33.1002C2.05108 33.7603 2.31041 34.3969 2.6169 35.0098C2.82908 35.4578 3.06483 35.8821 3.30059 36.3065C4.52652 38.499 6.10609 40.4794 8.06287 42.0354C11.1277 44.5344 15.112 46.0904 20.0864 46.0904H27.9371C31.9686 46.0904 35.3635 45.0766 38.1454 43.332C38.7348 42.9784 39.3006 42.5776 39.8192 42.1297C42.5776 39.9371 44.6051 36.9902 45.9489 33.6896C46.1139 33.2652 46.279 32.8409 46.4204 32.4165C47.2927 29.9175 47.7878 27.277 47.9293 24.613C47.9293 24.5658 47.9293 24.5187 47.9293 24.448C47.9293 24.3536 47.9293 24.2593 47.9293 24.165C47.9293 23.7878 47.9528 23.387 47.9528 23.0098V22.9155C47.9528 20.6994 47.6935 18.4362 47.1513 16.2436L47.1984 16.2672Z" fill="url(#paint0_linear_30_10674)"/>
<g opacity="0.5">
<path d="M27.9136 44.5108H20.0629C6.5776 44.5108 0.282908 33.0531 0 22.1847C0 22.4204 0 22.6562 0 22.892C0 33.9725 6.2947 45.9254 20.0864 45.9254H27.9371C41.7289 45.9254 48 33.9725 48 22.892C48 22.6562 48 22.4204 48 22.1847C47.7407 33.0766 41.446 44.5108 27.9371 44.5108H27.9136Z" fill="url(#paint1_linear_30_10674)"/>
</g>
<g style="mix-blend-mode:multiply" opacity="0.4">
<path d="M47.1983 16.0786C46.8683 16.0786 46.5382 16.1022 46.2081 16.1257C43.8506 16.22 41.2337 16.2908 38.4282 16.3851C37.9331 16.3851 37.438 16.4086 36.9429 16.4322C3.11187 17.3517 35.5048 17.8939 10.1374 18.0825C9.76019 18.0825 9.40656 18.0825 9.05293 18.0825C5.56373 18.1061 2.85253 18.1297 1.08436 18.1297C0.825028 18.1297 0.589272 18.1297 0.353516 18.1297C0.424243 17.7289 0.494969 17.3045 0.589272 16.8801C0.848604 16.8801 1.15509 16.8801 1.48515 16.8801C3.32405 16.8801 6.01167 16.8566 9.40656 16.833C9.8545 16.833 10.326 16.833 10.7975 16.833C36.3299 16.6444 2.38102 16.1257 36.0706 15.2063C36.7071 15.2063 37.3437 15.1827 37.9802 15.1591C40.7622 15.0648 43.3791 14.9941 45.7366 14.9234C46.1374 14.9234 46.5146 14.8998 46.8918 14.8762C47.0097 15.277 47.1276 15.7014 47.2219 16.1022L47.1983 16.0786Z" fill="#C97B3A"/>
<path d="M47.9999 22.6326V22.7269C47.9999 23.1041 47.9999 23.4813 47.9764 23.8585H47.9292C47.5048 23.8585 47.0569 23.8585 46.609 23.8585C44.44 23.8585 42.0589 23.8585 39.4656 23.8349H39.3713C6.34178 23.552 35.3398 21.6188 9.19444 20.8173C9.00583 20.8173 8.81723 20.8173 8.62862 20.8173C5.13943 20.7229 2.38108 20.6286 0.5186 20.5579C0.377146 20.5579 0.235692 20.5579 0.0942383 20.5579C0.117814 20.1571 0.164965 19.7328 0.212116 19.3084C0.400722 19.3084 0.589327 19.3084 0.777932 19.3084C2.64041 19.3791 5.35161 19.4499 8.77007 19.5677C9.02941 19.5677 9.28874 19.5677 9.54807 19.5913C35.8349 20.3929 6.27106 22.3025 39.1826 22.609C39.277 22.609 39.3948 22.609 39.4891 22.609C42.554 22.6326 45.3359 22.6326 47.8113 22.6326H47.9999Z" fill="#C97B3A"/>
<path d="M47.3398 31.9921C47.2455 32.4165 47.1512 32.8408 47.0333 33.2416C46.6797 33.2416 46.3024 33.2416 45.9488 33.2416C43.5205 33.2888 40.88 33.3124 38.051 33.3359C37.438 33.3359 36.825 33.3359 36.1885 33.3359C30.2946 33.3831 46.1846 33.4067 45.9488 33.4067C30.9311 33.4067 33.0529 32.9587 11.3398 32.723C10.774 32.723 10.2317 32.723 9.68948 32.723C6.43604 32.6758 3.77199 32.6522 1.79164 32.6287C1.438 32.6287 1.10795 32.6287 0.777887 32.6287L0.518555 31.3792C0.777887 31.3792 1.06079 31.3792 1.3437 31.3792C3.2769 31.4027 5.96453 31.4263 9.28869 31.4735C9.71305 31.4735 10.1374 31.4735 10.5618 31.4735C36.6836 31.7564 3.04115 32.3693 37.0608 32.0864C37.5559 32.0864 38.0274 32.0864 38.4989 32.0864C41.3516 32.0628 44.0156 32.0157 46.4203 31.9921C46.7268 31.9921 47.0333 31.9921 47.3398 31.9921Z" fill="#C97B3A"/>
</g>
<g style="mix-blend-mode:overlay" opacity="0.5">
<path d="M38.8292 16.5265L47.1985 16.2672L47.4814 17.6346L38.7349 17.1631L38.8292 16.5265Z" fill="#FFDE55"/>
</g>
<g style="mix-blend-mode:overlay" opacity="0.5">
<path d="M40.0785 24.165L47.9292 24.2122C47.9292 24.2122 47.9527 26.8055 47.1276 30.1297C47.1276 30.1297 47.6463 25.9568 45.996 25.3674C44.3457 24.778 38.4753 24.7544 38.4753 24.7544L40.0785 24.1886V24.165Z" fill="#FFDE55"/>
</g>
<g style="mix-blend-mode:overlay" opacity="0.5">
<path d="M35.2927 33.7603L47.057 33.6896L46.8212 34.5383C46.8212 34.5383 45.6896 34.3261 40.2436 34.2082C34.3261 34.0668 29.5403 34.0432 29.5403 34.0432L35.3163 33.7603H35.2927Z" fill="#FFDE55"/>
</g>
<g style="mix-blend-mode:multiply" opacity="0.8">
<path d="M28.6915 37.8389H19.5677C8.18065 37.8389 7.85059 24.613 7.85059 23.1277C7.85059 21.6425 8.18065 8.39294 19.5677 8.39294H28.6915C40.0785 8.39294 40.4085 21.6189 40.4085 23.1277C40.4085 24.6366 40.0785 37.8389 28.6915 37.8389Z" fill="#9E4000"/>
</g>
<g style="mix-blend-mode:multiply" opacity="0.8">
<path fill-rule="evenodd" clip-rule="evenodd" d="M40.2948 25.1266C39.8701 21.0098 37.8826 12.3929 28.6915 12.3929H19.5677C10.3831 12.3929 8.39191 21.0127 7.96525 25.1266C7.86293 24.1415 7.85059 23.415 7.85059 23.1277C7.85059 21.6425 8.18065 8.39294 19.5677 8.39294H28.6915C40.0785 8.39294 40.4085 21.6189 40.4085 23.1277C40.4085 23.4187 40.3963 24.1445 40.2948 25.1266Z" fill="#9E4000"/>
</g>
<g filter="url(#filter0_d_30_10674)">
<path d="M25.5059 16.0364C23.2908 16.2183 21.2576 17.2975 20.2268 18.8416C19.9641 19.2418 19.7175 19.7754 19.6245 20.1594L19.5558 20.4262L19.0465 20.5959C17.7328 21.0325 16.5808 21.8207 15.8815 22.7585C15.5824 23.1587 15.2307 23.862 15.1135 24.2985C15.0044 24.7108 14.964 25.5637 15.0367 26.0084C15.1822 26.9219 15.5945 27.7465 16.2655 28.466L16.5727 28.7974L16.5283 29.0319C16.4272 29.6059 16.1119 30.3254 15.7522 30.8064C15.5662 31.053 15.542 31.1095 15.542 31.2793C15.542 31.441 15.5622 31.4936 15.6754 31.6027C15.7966 31.728 15.8209 31.7361 16.0594 31.728C16.9244 31.7037 18.3796 31.1904 19.3133 30.576L19.6528 30.3537L19.9196 30.4103C20.7281 30.58 22.0013 30.6407 22.7976 30.5436C24.556 30.3294 26.0111 29.6665 27.1066 28.5832C27.7331 27.9648 28.1696 27.2736 28.3556 26.6026C28.392 26.4692 28.4283 26.3398 28.4364 26.3115C28.4485 26.2792 28.5981 26.356 28.8487 26.5096C29.5561 26.9542 30.3039 27.2614 31.1285 27.4474C32.0461 27.6495 32.3169 27.6293 32.4422 27.3301C32.5311 27.1119 32.5109 27.0149 32.3169 26.74C31.9005 26.1458 31.6216 25.5395 31.5084 24.9695L31.4397 24.6381L31.7186 24.347C32.333 23.7084 32.6766 23.1021 32.9151 22.237C32.9879 21.9581 33 21.8126 33 21.1861C33 20.5151 32.9919 20.4302 32.8949 20.1149C32.1997 17.8634 29.8876 16.2789 26.9489 16.0364C26.3709 15.9879 26.1243 15.9879 25.5059 16.0364ZM26.9206 16.7195C28.5536 16.865 30.0209 17.4754 31.0234 18.4253C31.468 18.8457 31.7267 19.1893 31.9733 19.6905C32.2643 20.2766 32.3533 20.6889 32.325 21.3276C32.2845 22.3381 31.8884 23.2072 31.1204 23.959C30.8051 24.2662 30.7809 24.343 30.8092 24.8806C30.8375 25.3131 31.0032 25.8346 31.3063 26.4085C31.5206 26.8208 31.5206 26.8249 31.4155 26.8006C30.4817 26.5904 29.8512 26.3237 29.0589 25.8103C28.8245 25.6567 28.5779 25.5233 28.5132 25.5071C28.4485 25.495 28.1696 25.5314 27.8907 25.588C26.4719 25.879 25.1097 25.8063 23.792 25.3657C21.2252 24.5128 19.7539 22.4513 20.2673 20.4343C20.4977 19.5288 21.0272 18.7487 21.8437 18.1181C22.2802 17.7826 22.4945 17.6533 22.9997 17.4107C24.1841 16.8448 25.5665 16.6023 26.9206 16.7195ZM19.6245 22.3138C20.1985 24.3713 22.3207 25.9679 24.9804 26.356C25.8252 26.4813 26.7953 26.4773 27.5795 26.3519L27.729 26.3277L27.6684 26.4975C27.4057 27.2453 26.8721 27.9607 26.1769 28.4983C25.7403 28.8338 25.5261 28.9632 25.0208 29.2057C23.5899 29.8807 21.8154 30.0869 20.1904 29.7554C19.9156 29.6988 19.6286 29.6544 19.5558 29.6544C19.4588 29.6544 19.3093 29.7271 19.0142 29.9292C18.7878 30.0788 18.4321 30.289 18.2179 30.3941C17.6601 30.673 16.4838 31.0408 16.5364 30.9236C16.5444 30.9034 16.6495 30.6973 16.7627 30.4628C17.0537 29.8807 17.1831 29.4644 17.2073 29.044C17.2437 28.4943 17.2235 28.4417 16.8233 28.0214C16.2857 27.4555 15.9947 26.9664 15.7966 26.2751C15.7158 26.0003 15.7037 25.8628 15.7037 25.3293C15.7077 24.723 15.7118 24.6906 15.8411 24.3026C16.2938 22.9889 17.4216 21.946 19.0586 21.3235L19.4629 21.1699L19.4912 21.558C19.5073 21.7722 19.568 22.1117 19.6245 22.3138Z" fill="white"/>
<path d="M25.4824 15.7373L25.4813 15.7374C23.1952 15.9251 21.0692 17.0394 19.9773 18.6751L19.976 18.677L19.9761 18.677C19.6998 19.0978 19.4368 19.6617 19.3335 20.0866L19.306 20.1932L18.9519 20.3112C17.5908 20.7636 16.3834 21.5837 15.6412 22.579M25.4824 15.7373L19.0465 20.5959C17.7328 21.0325 16.5808 21.8207 15.8815 22.7585C15.5824 23.1587 15.2307 23.862 15.1135 24.2985C15.0044 24.7108 14.964 25.5637 15.0367 26.0084M25.4824 15.7373C26.1158 15.6876 26.3787 15.6875 26.9737 15.7374C29.996 15.9869 32.44 17.625 33.1815 20.0264L33.1816 20.0267C33.2324 20.1916 33.2654 20.3139 33.2824 20.4879C33.2983 20.65 33.3 20.855 33.3 21.1861C33.3 21.8159 33.2885 21.9942 33.2054 22.3128L33.2054 22.3128L33.2043 22.3168C32.9528 23.2293 32.5844 23.8798 31.9348 24.555L31.7655 24.7317L31.8022 24.9086L31.8027 24.9111C31.9058 25.4305 32.1637 25.9984 32.5623 26.5674C32.6582 26.7034 32.7468 26.8414 32.7791 26.9941C32.8158 27.1675 32.7726 27.3142 32.72 27.4433L32.72 27.4433L32.7189 27.4461C32.6728 27.556 32.6025 27.6653 32.487 27.7475C32.373 27.8286 32.2421 27.864 32.1084 27.8756C31.8575 27.8974 31.5163 27.84 31.064 27.7403L31.0625 27.74C30.2058 27.5469 29.4268 27.227 28.6906 26.7645C28.67 26.7519 28.6503 26.74 28.6316 26.7287C28.4217 27.4468 27.9576 28.1647 27.3173 28.7967M25.4824 15.7373L27.3173 28.7967M15.6412 22.579C15.6411 22.579 15.6411 22.5791 15.641 22.5791L15.8815 22.7585L15.6412 22.5789C15.6412 22.5789 15.6412 22.5789 15.6412 22.579ZM15.6412 22.579C15.322 23.006 14.952 23.7433 14.8238 24.2207L14.8235 24.2218C14.7609 24.4582 14.7223 24.799 14.7072 25.1276C14.6922 25.4565 14.6994 25.8042 14.7406 26.0562M14.7406 26.0562C14.7405 26.056 14.7405 26.0558 14.7405 26.0556L15.0367 26.0084M14.7406 26.0562C14.8961 27.0321 15.3372 27.9103 16.0458 28.6703L16.0455 28.6699L16.2655 28.466M14.7406 26.0562C14.7406 26.0564 14.7406 26.0566 14.7407 26.0568L15.0367 26.0084M15.0367 26.0084C15.1822 26.9219 15.5945 27.7465 16.2655 28.466M16.5727 28.7974L16.5283 29.0319C16.4272 29.6059 16.1119 30.3254 15.7522 30.8064C15.5662 31.053 15.542 31.1095 15.542 31.2793C15.542 31.441 15.5622 31.4936 15.6754 31.6027M16.5727 28.7974L16.3552 28.9991L16.3531 29.001L16.3527 29.0014L16.3523 29.0009L16.3496 28.998L16.2498 28.8903M16.5727 28.7974L16.278 28.7415L16.2498 28.8903M16.5727 28.7974L16.2655 28.466M16.2498 28.8903L16.2335 28.976L16.2328 28.9799L16.2328 28.9799C16.1402 29.5057 15.8448 30.1815 15.5123 30.6263M16.2498 28.8903L16.0461 28.6706L16.2655 28.466M15.5123 30.6263C15.5124 30.6261 15.5125 30.6259 15.5126 30.6258L15.7522 30.8064L15.5119 30.6267C15.512 30.6266 15.5122 30.6264 15.5123 30.6263ZM15.5123 30.6263C15.4227 30.745 15.3485 30.8475 15.303 30.9502C15.2491 31.0719 15.242 31.1769 15.242 31.2793C15.242 31.3656 15.2458 31.4695 15.2885 31.5742C15.3314 31.679 15.4006 31.7542 15.4632 31.8149M15.4632 31.8149C15.4621 31.8137 15.4609 31.8125 15.4598 31.8113L15.6754 31.6027M15.4632 31.8149C15.4645 31.8161 15.4658 31.8174 15.4671 31.8186L15.6754 31.6027M15.4632 31.8149C15.4635 31.8151 15.4637 31.8153 15.4639 31.8156C15.5196 31.8732 15.6023 31.9587 15.7302 32.0005C15.8382 32.0358 15.958 32.0317 16.0586 32.0282C16.0623 32.0281 16.0659 32.0279 16.0695 32.0278L16.0594 31.728M15.6754 31.6027C15.7966 31.728 15.8209 31.7361 16.0594 31.728M16.0594 31.728L16.0678 32.0279C16.5446 32.0145 17.1581 31.8692 17.7606 31.6561C18.3665 31.4419 18.9865 31.1501 19.478 30.8268C19.4781 30.8267 19.4781 30.8267 19.4782 30.8266L19.7127 30.673L19.8574 30.7037L19.858 30.7039C20.6971 30.8801 22.0034 30.9426 22.8339 30.8414L22.7976 30.5436M16.0594 31.728L27.3173 28.7967M22.7976 30.5436C22.0013 30.6407 20.7281 30.58 19.9196 30.4103L19.6528 30.3537L27.1066 28.5832C26.0111 29.6665 24.556 30.3294 22.7976 30.5436ZM22.7976 30.5436L22.8339 30.8414C24.6479 30.6204 26.1679 29.9334 27.3173 28.7967M28.5132 25.5071C28.5779 25.5233 28.8245 25.6567 29.0589 25.8103C29.7697 26.2709 30.3503 26.5329 31.1365 26.7338L28.5132 25.5071ZM28.5132 25.5071C28.4485 25.495 28.1696 25.5314 27.8907 25.588L28.5132 25.5071ZM19.193 21.5934L19.1653 21.6039C17.5883 22.2036 16.5419 23.1914 16.1252 24.3989C16.0601 24.5944 16.0361 24.6738 16.0228 24.7738C16.0082 24.883 16.0057 25.0205 16.0037 25.3303C16.0037 25.856 16.0162 25.9583 16.0844 26.1905L16.0845 26.1905L16.085 26.1925C16.2683 26.8322 16.5326 27.2798 17.0408 27.8147L16.8234 28.0213L17.0406 27.8145C17.2291 28.0125 17.3837 28.1759 17.4599 28.3786C17.5373 28.5845 17.5239 28.8035 17.5068 29.0626C17.4803 29.5175 17.3444 29.9553 17.0703 30.5174C17.4178 30.4077 17.8279 30.2537 18.0837 30.1258L18.0837 30.1258L18.0858 30.1248C18.2846 30.0272 18.6274 29.8251 18.8468 29.6803C18.9968 29.5776 19.1204 29.5004 19.2245 29.448C19.3247 29.3976 19.4369 29.3544 19.5558 29.3544C19.6204 29.3544 19.7352 29.3702 19.8441 29.3874C19.9639 29.4063 20.1088 29.4323 20.2507 29.4615C21.8142 29.7804 23.522 29.5808 24.8919 28.9348C25.3788 28.7011 25.5752 28.5824 25.9938 28.2607C26.5529 27.8282 26.9962 27.2766 27.264 26.6966C26.5257 26.7769 25.6847 26.7637 24.9368 26.6528C24.9366 26.6528 24.9365 26.6528 24.9364 26.6527L24.9804 26.356C22.3207 25.9679 20.1985 24.3713 19.6245 22.3138M19.193 21.5934L19.6245 22.3138M19.193 21.5934C19.212 21.8279 19.275 22.178 19.3357 22.3947M19.193 21.5934L19.3357 22.3947M19.6245 22.3138L19.3357 22.3947M19.6245 22.3138L19.3356 22.3945C19.3356 22.3946 19.3356 22.3946 19.3357 22.3947M30.8173 18.6433L30.817 18.6431C29.8725 17.748 28.473 17.1592 26.8946 17.0184C25.5917 16.9056 24.2634 17.1395 23.1295 17.6812C22.6419 17.9153 22.4456 18.0339 22.0267 18.3558C21.2579 18.9496 20.7702 19.6743 20.558 20.5082L20.558 20.5082C20.0985 22.3135 21.4031 24.2557 23.8866 25.081L23.8871 25.0811C25.1524 25.5042 26.4608 25.575 27.8304 25.2941L27.8311 25.294C27.9766 25.2644 28.1231 25.24 28.2436 25.2243C28.3036 25.2165 28.3601 25.2105 28.4083 25.2073C28.4453 25.2049 28.5104 25.2014 28.5685 25.2123L28.5773 25.2139L28.586 25.2161C28.6351 25.2284 28.6875 25.2525 28.7224 25.2692C28.7649 25.2895 28.8144 25.3154 28.8672 25.3444C28.9727 25.4026 29.0992 25.4781 29.2227 25.5589C29.8251 25.9492 30.3246 26.1889 30.9512 26.3722C30.6909 25.841 30.5386 25.3403 30.5098 24.9002L30.5098 24.9002L30.5096 24.8964C30.4961 24.6405 30.4881 24.4267 30.5516 24.2378C30.6193 24.0362 30.7564 23.8948 30.9107 23.7445C31.6273 23.0429 31.988 22.245 32.0252 21.3156L32.0253 21.3143C32.0512 20.7278 31.9737 20.3658 31.7046 19.8239L31.7041 19.8229C31.4749 19.3569 31.2387 19.0417 30.8173 18.6433ZM31.1204 23.959C30.8051 24.2662 30.7809 24.343 30.8092 24.8806L32.325 21.3276C32.2845 22.3381 31.8884 23.2072 31.1204 23.959Z" stroke="white" stroke-width="0.6"/>
</g>
</g>
<defs>
<filter id="filter0_d_30_10674" x="14.3999" y="15.4" width="19.2002" height="18.4306" filterUnits="userSpaceOnUse" color-interpolation-filters="sRGB">
<feFlood flood-opacity="0" result="BackgroundImageFix"/>
<feColorMatrix in="SourceAlpha" type="matrix" values="0 0 0 0 0 0 0 0 0 0 0 0 0 0 0 0 0 0 127 0" result="hardAlpha"/>
<feOffset dy="1.5"/>
<feComposite in2="hardAlpha" operator="out"/>
<feColorMatrix type="matrix" values="0 0 0 0 0.415686 0 0 0 0 0.12549 0 0 0 0 0.027451 0 0 0 1 0"/>
<feBlend mode="normal" in2="BackgroundImageFix" result="effect1_dropShadow_30_10674"/>
<feBlend mode="normal" in="SourceGraphic" in2="effect1_dropShadow_30_10674" result="shape"/>
</filter>
<linearGradient id="paint0_linear_30_10674" x1="24" y1="-0.353618" x2="24" y2="44.1336" gradientUnits="userSpaceOnUse">
<stop stop-color="#F0CA57"/>
<stop offset="1" stop-color="#D45B1A"/>
</linearGradient>
<linearGradient id="paint1_linear_30_10674" x1="0.943026" y1="34.0432" x2="44.5815" y2="34.0432" gradientUnits="userSpaceOnUse">
<stop stop-color="#F0CA57"/>
<stop offset="0.5" stop-color="#F7C850"/>
<stop offset="1" stop-color="#FEC649"/>
</linearGradient>
<clipPath id="clip0_30_10674">
<rect width="48" height="51.8664" fill="white"/>
</clipPath>
</defs>
</svg>
