<svg width="50" height="54" viewBox="0 0 50 54" fill="none" xmlns="http://www.w3.org/2000/svg">
<g clip-path="url(#clip0_776_110895)">
<path d="M49.9481 25.3278C49.9619 25.1813 49.9619 25.0337 49.9481 24.8871C49.9481 24.4464 49.9481 24.0057 49.8185 23.5909C49.5634 21.2585 49.0145 18.9677 48.1846 16.7729C48.029 16.3322 47.8475 15.9174 47.666 15.5026C46.4372 12.6561 44.5954 10.1157 42.2718 8.06236C41.7359 7.57072 41.1637 7.1201 40.5602 6.7143C37.1794 4.43395 33.175 3.2566 29.0975 3.34416H20.9284C16.5854 3.25078 12.333 4.59238 8.83039 7.16093C5.32783 9.72948 2.77087 13.3815 1.55602 17.5506C1.55602 17.9913 1.27075 18.432 1.14108 18.8468C1.01141 19.2616 0.907676 19.7023 0.803942 20.1171C0.700207 20.5319 0.622407 20.9726 0.544606 21.4133C0.272195 22.7126 0.0902238 24.0293 0 25.3538C0 25.9241 0 26.4685 0 27.0388C-3.81106e-06 28.9357 0.18237 30.8283 0.544606 32.6903C0.544606 33.131 0.726141 33.5717 0.829875 33.9865C0.93361 34.4013 1.14108 35.2827 1.34855 35.9049L1.81535 37.227C2.68206 39.5599 3.91654 41.7391 5.47199 43.6821C5.78319 44.071 6.12033 44.4339 6.45747 44.7969C8.31929 46.7441 10.5695 48.2787 13.0623 49.3014C15.5551 50.324 18.235 50.8119 20.9284 50.7335H29.0975C31.812 50.813 34.5125 50.3157 37.0205 49.2745C39.5285 48.2332 41.7868 46.6717 43.6463 44.6932C44.0093 44.3043 44.3724 43.8636 44.7095 43.4488C46.7286 40.8336 48.1934 37.8345 49.0145 34.6346C49.1442 34.1939 49.2479 33.7532 49.3257 33.3384C49.782 31.2698 50.0081 29.1571 50 27.0388C50 26.4685 49.9741 25.9241 49.9481 25.3278ZM20.9284 41.9711C19.6745 41.9946 18.4242 41.8286 17.2199 41.4786C15.1481 40.8668 13.3291 39.603 12.0332 37.8751C11.7062 37.4392 11.4115 36.98 11.1515 36.5011C10.72 35.7482 10.3556 34.9588 10.0622 34.1421C9.89204 33.7094 9.74488 33.2681 9.62137 32.8199C9.11155 30.9431 8.84142 29.0094 8.81743 27.0648C8.81743 26.8055 8.81743 26.2093 8.81743 25.3797C8.92143 24.1459 9.12964 22.9231 9.43983 21.7244C9.54568 21.294 9.67556 20.8699 9.82884 20.4541C10.019 19.9011 10.2265 19.3566 10.4512 18.8209C10.6501 18.3758 10.8752 17.943 11.1255 17.5247C12.0658 15.7736 13.4897 14.3295 15.2276 13.3643C16.9656 12.3992 18.9444 11.9536 20.9284 12.0806H29.0975C30.7038 12.0032 32.3061 12.3001 33.7778 12.948C35.2495 13.5959 36.5505 14.5769 37.5778 15.8137C37.9179 16.2151 38.2298 16.6396 38.5114 17.084C39.6941 19.0648 40.4781 21.2576 40.8195 23.5391C40.9147 23.9743 40.9754 24.4164 41.001 24.8612C41.0137 25.0251 41.0137 25.1898 41.001 25.3538C41.001 26.1833 41.001 26.7796 41.001 27.0388C40.965 29.212 40.6156 31.3686 39.9637 33.4421C39.8354 33.8835 39.6794 34.3164 39.4969 34.7383C38.7506 36.9189 37.3204 38.8006 35.4188 40.1037C33.5172 41.4068 31.2457 42.0617 28.9419 41.9711H20.9284Z" fill="#9E4000"/>
<path d="M49.2737 16.9544C49.2737 16.5137 49.0403 16.0729 48.9106 15.6582C48.1746 13.01 47 10.5039 45.4355 8.24385C45.1243 7.77722 44.7612 7.33651 44.4241 6.92172C42.5691 4.67302 40.2228 2.87969 37.5657 1.6797C34.9085 0.479718 32.0115 -0.0949308 29.0973 -2.71667e-05H20.9282C18.1455 -0.0309952 15.385 0.497983 12.811 1.55542C11.975 1.90309 11.1609 2.30133 10.3732 2.74793C7.80811 4.45434 5.6212 6.66956 3.94825 9.2561C2.27531 11.8427 1.15203 14.7453 0.648141 17.7839C0.648141 18.2246 0.466605 18.6654 0.388805 19.1061C0.311004 19.5468 0.388805 19.9356 0.207269 20.3764C0.025734 20.8171 0.207269 21.2318 0.207269 21.6726C0.207269 22.1133 0.207269 23.228 0.207269 24.0057C0.207269 24.7835 0.207269 25.1205 0.207269 25.6908C0.344569 28.2174 0.797605 30.7169 1.55582 33.131L2.02262 34.4532C2.28196 35.1272 2.56723 35.8012 2.87843 36.4493L3.57864 37.7974C5.25565 40.9585 7.78366 43.5879 10.877 45.3882C13.9704 47.1886 17.5058 48.0883 21.0838 47.9856H29.2529C32.995 48.0539 36.6804 47.0655 39.8857 45.1339C40.494 44.7489 41.0826 44.3336 41.6492 43.8896C44.4881 41.5495 46.6838 38.5249 48.0288 35.1013C48.2158 34.6693 48.3802 34.228 48.5216 33.7791C49.4354 31.1642 49.9682 28.4315 50.1035 25.6649C50.1164 25.5096 50.1164 25.3535 50.1035 25.1982C50.1035 24.7835 50.1035 24.3946 50.1035 24.0057C50.095 21.6314 49.8166 19.2658 49.2737 16.9544ZM41.0527 25.6908C40.672 28.1726 39.7223 30.5327 38.2778 32.5866C37.9925 33.0273 37.0589 34.2198 36.7218 34.6346C35.8759 35.8433 34.7247 36.8064 33.3854 37.4257C32.046 38.045 30.5665 38.2985 29.0973 38.1603H20.9282C19.7334 38.0683 18.5606 37.7884 17.4531 37.3307C16.5909 37.1656 15.7761 36.8115 15.0672 36.2938L13.9261 35.7234C12.9147 34.9976 12.4739 35.5679 11.8255 34.5828C11.5181 34.1673 11.2491 33.7247 11.0216 33.2607C9.84344 30.9057 9.13858 28.3427 8.9469 25.7167C8.9469 24.8872 8.9469 24.2909 8.9469 24.0317C8.91047 23.3495 8.91047 22.6658 8.9469 21.9836C8.9469 21.5948 8.9469 21.1541 9.12843 20.6874C9.30997 20.2208 9.30997 19.6246 9.43963 19.0801C9.5693 18.5357 9.6471 18.1987 9.77677 17.758C10.3034 15.207 11.7071 12.9208 13.7442 11.2965C15.7813 9.6722 18.323 8.81227 20.9282 8.86603H29.0973C31.3524 8.79984 33.5706 9.44891 35.4341 10.7203C37.2975 11.9916 38.7106 13.8199 39.4708 15.9433C39.6523 16.384 39.8338 16.8247 39.9635 17.2395C40.6471 19.379 41.0226 21.6049 41.0786 23.8502V24.0057C41.0786 24.1872 41.0786 24.602 41.0786 25.1723C41.0816 25.3455 41.0729 25.5187 41.0527 25.6908Z" fill="url(#paint0_linear_776_110895)"/>
<g opacity="0.5">
<path d="M29.0978 46.3524H20.9287C6.84672 46.3524 0.181788 34.4273 0.0261868 23.0207C0.0132437 23.2625 0.0132437 23.5048 0.0261868 23.7466C0.0261868 35.3087 6.56146 47.7523 20.9546 47.7523H29.1237C43.4909 47.7523 50.0262 35.3087 50.0262 23.7466C50.0391 23.5048 50.0391 23.2625 50.0262 23.0207C49.715 34.4273 43.1538 46.3524 29.0978 46.3524Z" fill="url(#paint1_linear_776_110895)"/>
</g>
<g style="mix-blend-mode:multiply" opacity="0.4">
<path d="M49.2736 16.747H48.2363L40.1191 17.0063H38.589C3.34523 17.9655 37.0849 18.5099 10.6585 18.7172H9.46556H1.14087H0.388794C0.388794 18.2765 0.544396 17.8358 0.64813 17.421H1.55581H9.80269H11.255C37.8369 17.2914 2.59315 16.747 37.5776 15.8137H39.5485L47.6398 15.5545H48.8328C48.9624 15.8656 49.0662 16.3063 49.2736 16.747Z" fill="#C97B3A"/>
<path d="M50 23.591C50 23.9799 50 24.3688 50 24.7836H41.001C6.58714 24.5502 36.7998 22.5541 9.5695 21.6986H8.97303L0.544606 21.4134H0C0 20.9986 0 20.5579 0 20.1431H0.803942L9.15456 20.4283H9.95851C37.3444 21.2579 6.53527 23.3318 40.8195 23.5651H50V23.591Z" fill="#C97B3A"/>
<path d="M49.2738 33.3386C49.2738 33.7533 49.0663 34.1941 48.9626 34.6348H47.8215H39.6006H37.6556C31.5093 34.6348 48.029 34.6348 47.8215 34.6348C32.2614 34.6348 34.4138 34.1941 11.7738 33.9348H10.1141H1.86717H0.829825L0.544556 32.6386H1.40036H9.69912H11.0217C38.252 32.9497 3.24165 33.5719 38.6151 33.2867H40.1192H48.3661L49.2738 33.3386Z" fill="#C97B3A"/>
</g>
<g style="mix-blend-mode:overlay" opacity="0.5">
<path d="M40.4566 17.2136L49.1703 16.9543L49.4556 18.3542L40.3529 17.8617L40.4566 17.2136Z" fill="#FFDE55"/>
</g>
<g style="mix-blend-mode:overlay" opacity="0.5">
<path d="M41.7537 25.1722H49.9228C49.8811 27.2452 49.6027 29.3065 49.0929 31.3163C49.0929 31.3163 49.6375 26.9869 47.9 26.3648C45.3325 25.9069 42.7278 25.6899 40.1199 25.7166L41.7537 25.1722Z" fill="#FFDE55"/>
</g>
<g style="mix-blend-mode:overlay" opacity="0.5">
<path d="M36.7736 35.1531H49.0142L48.7808 36.0346C46.4975 35.8019 44.2035 35.6894 41.9084 35.6975C35.7362 35.542 30.757 35.5161 30.757 35.5161L36.7736 35.1531Z" fill="#FFDE55"/>
</g>
<g style="mix-blend-mode:multiply" opacity="0.7">
<path d="M30.031 42.7127H20.5134C8.66172 42.7127 8.32458 26.947 8.32458 25.3656C8.32458 23.7842 8.66172 8.04443 20.5134 8.04443H30.031C41.9086 8.04443 42.2457 23.8102 42.2457 25.3656C42.2457 26.9211 41.9086 42.7127 30.031 42.7127Z" fill="#9E4000"/>
</g>
<g style="mix-blend-mode:multiply" opacity="0.2">
<path d="M40.4567 25.7762C40.3011 28.0057 39.3415 34.6682 34.5438 36.9754C31.7139 38.1543 28.6752 38.7504 25.6094 38.7282C22.5437 38.7059 19.514 38.0657 16.7015 36.8458C11.6704 34.2275 10.5293 28.0057 10.3737 25.7762C10.3737 26.3465 9.12888 40.6307 21.3436 40.6307H29.4868C41.7015 40.6307 40.4826 26.3465 40.4567 25.7762Z" fill="#1B8943"/>
</g>
<path d="M31.2754 22C31.2754 24.4316 30.2939 26.2139 28.3311 27.3467C26.8564 28.1865 26.0557 29.0361 25.9287 29.8955C25.8994 30.1201 25.875 30.3447 25.8555 30.5693C25.7871 30.7744 25.6113 30.877 25.3281 30.877C24.3418 30.877 23.6338 30.9355 23.2041 31.0527C23.1162 31.082 23.0479 31.0967 22.999 31.0967C22.6475 31.0967 22.4717 30.6182 22.4717 29.6611C22.4717 28.8311 22.9502 27.8057 23.9072 26.585C24.874 25.3545 25.3574 24.3242 25.3574 23.4941C25.3574 22.2344 24.6885 21.6045 23.3506 21.6045C22.501 21.6045 21.3975 21.9365 20.04 22.6006C19.6201 22.6006 19.4102 21.3555 19.4102 18.8652C19.4102 18.5918 19.4248 18.3867 19.4541 18.25C19.5908 17.5957 20.4062 17.0879 21.9004 16.7266C22.9844 16.4629 24.0293 16.3311 25.0352 16.3311C26.8027 16.3311 28.2676 16.8242 29.4297 17.8105C30.6602 18.8555 31.2754 20.252 31.2754 22ZM27.3057 34.5977C27.3057 35.3496 27.042 35.999 26.5146 36.5459C25.9971 37.0928 25.3623 37.3662 24.6104 37.3662C23.8584 37.3662 23.2188 37.0928 22.6914 36.5459C22.1738 35.999 21.915 35.3496 21.915 34.5977C21.915 33.8457 22.1738 33.2061 22.6914 32.6787C23.2188 32.1416 23.8584 31.873 24.6104 31.873C25.3623 31.873 25.9971 32.1416 26.5146 32.6787C27.042 33.2061 27.3057 33.8457 27.3057 34.5977Z" fill="#9E300A"/>
<path d="M31.2754 21C31.2754 23.4316 30.2939 25.2139 28.3311 26.3467C26.8564 27.1865 26.0557 28.0361 25.9287 28.8955C25.8994 29.1201 25.875 29.3447 25.8555 29.5693C25.7871 29.7744 25.6113 29.877 25.3281 29.877C24.3418 29.877 23.6338 29.9355 23.2041 30.0527C23.1162 30.082 23.0479 30.0967 22.999 30.0967C22.6475 30.0967 22.4717 29.6182 22.4717 28.6611C22.4717 27.8311 22.9502 26.8057 23.9072 25.585C24.874 24.3545 25.3574 23.3242 25.3574 22.4941C25.3574 21.2344 24.6885 20.6045 23.3506 20.6045C22.501 20.6045 21.3975 20.9365 20.04 21.6006C19.6201 21.6006 19.4102 20.3555 19.4102 17.8652C19.4102 17.5918 19.4248 17.3867 19.4541 17.25C19.5908 16.5957 20.4062 16.0879 21.9004 15.7266C22.9844 15.4629 24.0293 15.3311 25.0352 15.3311C26.8027 15.3311 28.2676 15.8242 29.4297 16.8105C30.6602 17.8555 31.2754 19.252 31.2754 21ZM27.3057 33.5977C27.3057 34.3496 27.042 34.999 26.5146 35.5459C25.9971 36.0928 25.3623 36.3662 24.6104 36.3662C23.8584 36.3662 23.2188 36.0928 22.6914 35.5459C22.1738 34.999 21.915 34.3496 21.915 33.5977C21.915 32.8457 22.1738 32.2061 22.6914 31.6787C23.2188 31.1416 23.8584 30.873 24.6104 30.873C25.3623 30.873 25.9971 31.1416 26.5146 31.6787C27.042 32.2061 27.3057 32.8457 27.3057 33.5977Z" fill="url(#paint2_linear_776_110895)"/>
</g>
<defs>
<linearGradient id="paint0_linear_776_110895" x1="24.9998" y1="-0.388889" x2="24.9998" y2="45.9635" gradientUnits="userSpaceOnUse">
<stop stop-color="#F0CA57"/>
<stop offset="1" stop-color="#D45B1A"/>
</linearGradient>
<linearGradient id="paint1_linear_776_110895" x1="0.98573" y1="35.4643" x2="46.4733" y2="35.4643" gradientUnits="userSpaceOnUse">
<stop stop-color="#F0CA57"/>
<stop offset="0.5" stop-color="#F7C850"/>
<stop offset="1" stop-color="#FEC649"/>
</linearGradient>
<linearGradient id="paint2_linear_776_110895" x1="25.5" y1="14" x2="25.5" y2="36" gradientUnits="userSpaceOnUse">
<stop stop-color="#EAB24A"/>
<stop offset="1" stop-color="#D76721"/>
</linearGradient>
<clipPath id="clip0_776_110895">
<rect width="50" height="54" fill="white"/>
</clipPath>
</defs>
</svg>
