<svg width="48" height="52" viewBox="0 0 48 52" fill="none" xmlns="http://www.w3.org/2000/svg">
<g style="mix-blend-mode:multiply" opacity="0.5">
<path d="M47.9528 27.4892C47.9528 27.3477 47.9528 27.2063 47.9293 27.0413C47.9057 26.6169 47.8585 26.2161 47.8114 25.7917C47.5521 23.5521 47.0334 21.3595 46.2318 19.2613C46.0668 18.8605 45.9018 18.4361 45.7367 18.0354C44.5344 15.3006 42.8134 12.8487 40.5972 10.8919C40.0786 10.4204 39.5363 9.99607 38.947 9.61886C36.0236 7.59135 32.3694 6.36542 27.9371 6.36542H20.0864C10.1375 6.38899 4.10216 12.5187 1.50884 20.0393C1.36739 20.4401 1.22593 20.8644 1.10805 21.2888C0.990177 21.6896 0.872299 22.0904 0.777996 22.5147C0.683694 22.9155 0.589391 23.3399 0.518664 23.7407C0.282908 24.9902 0.117878 26.2633 0.0471513 27.5128C0.0235756 28.055 0 28.5972 0 29.1395C0 30.9312 0.165029 32.7701 0.518664 34.5619C0.589391 34.9862 0.683694 35.387 0.777996 35.8114C0.91945 36.4244 1.10805 37.0373 1.29666 37.6503C1.43811 38.0747 1.57957 38.499 1.7446 38.9234C4.47937 46.1375 10.444 51.89 20.0864 51.89H27.9371C34.0196 51.89 38.6405 49.6031 41.8939 46.1139C42.2475 45.7367 42.6012 45.3359 42.9312 44.9116C44.8644 42.4597 46.2554 39.5363 47.057 36.4479C47.1748 36.0236 47.2692 35.6228 47.3635 35.1984C47.7878 33.2181 48 31.167 48 29.1631C48 28.6208 48 28.0786 47.9528 27.5363V27.4892ZM38.5226 35.2691C38.4047 35.6699 38.2397 36.0943 38.0747 36.5187C36.6365 40.055 33.7367 43.4735 27.9371 43.4735H20.0864C15.9843 43.4735 13.3202 41.7524 11.5992 39.4892C11.2927 39.0648 11.0098 38.6405 10.7505 38.1925C10.3261 37.4381 9.97249 36.6837 9.68959 35.9057C9.54813 35.4813 9.40668 35.0805 9.2888 34.6562C8.55796 32.0393 8.48723 29.6817 8.48723 29.1159C8.48723 28.8566 8.48723 28.2908 8.55796 27.5128C8.65226 26.5697 8.81729 25.3202 9.14735 24C9.26523 23.5992 9.35953 23.1748 9.50098 22.7741C9.66601 22.2554 9.87819 21.7367 10.1139 21.2181C10.3026 20.7937 10.5147 20.3693 10.7505 19.9686C12.4008 17.1395 15.2063 14.7819 20.0393 14.7819H27.89C31.7564 14.7819 34.3261 16.2908 36.0471 18.3418C36.3772 18.7191 36.6601 19.1434 36.943 19.5678C38.2161 21.5953 38.8527 23.9293 39.1827 25.7917C39.2534 26.2397 39.3242 26.664 39.3477 27.0413C39.3477 27.2063 39.3949 27.3713 39.3949 27.5363C39.4656 28.3379 39.4656 28.9037 39.4656 29.1631C39.4656 29.776 39.4185 32.4636 38.4754 35.3163L38.5226 35.2691Z" fill="#58129B"/>
</g>
<path d="M47.9528 24.4951C47.9528 24.4951 47.9528 24.4008 47.9528 24.3301C47.9528 24.1886 47.9528 24.0471 47.9528 23.9057C47.9293 23.5049 47.8821 23.0805 47.835 22.6562C47.5756 20.4165 47.057 18.224 46.2554 16.1257C46.0904 15.7014 45.9253 15.3006 45.7603 14.8998C44.558 12.1886 42.8369 9.71316 40.6208 7.75638C40.1022 7.28487 39.5599 6.86051 38.9705 6.45972C36.0472 4.43222 32.3929 3.22986 27.9371 3.22986H20.0864C15.2063 3.22986 11.2692 4.71512 8.20432 7.09626C5.04519 9.5717 2.82908 13.0373 1.50884 16.8802C1.36739 17.2809 1.24951 17.7053 1.10805 18.1297C0.990177 18.5304 0.872299 18.9312 0.777996 19.3556C0.683694 19.7564 0.589391 20.1807 0.518664 20.5815C0.282908 21.831 0.117878 23.1041 0.0471513 24.3536C0.0471513 24.4008 0.0471513 24.4244 0.0471513 24.4479C0.0235756 24.943 0 25.4617 0 25.9568C0 27.7721 0.165029 29.5874 0.518664 31.3792C0.589391 31.8035 0.683694 32.2279 0.777996 32.6287C0.91945 33.2416 1.10805 33.8546 1.29666 34.4676C1.43811 34.8919 1.57957 35.3163 1.7446 35.7407C2.59332 37.9803 3.74853 40.1022 5.25737 41.9411C5.56385 42.3183 5.87033 42.6719 6.20039 43.0255C6.4833 43.332 6.78978 43.6385 7.09627 43.9214C10.279 46.8448 14.5697 48.7073 20.0629 48.7073H27.9136C33.9961 48.7073 38.6169 46.4204 41.8703 42.9312C42.224 42.5304 42.5776 42.1297 42.9077 41.7289C44.8644 39.277 46.2318 36.3536 47.0334 33.2652C47.1513 32.8409 47.2456 32.4401 47.3399 32.0157C47.7642 30.0354 47.9764 27.9843 47.9764 25.9803C47.9764 25.4853 47.9764 24.9902 47.9293 24.4951H47.9528ZM20.0864 11.6228H27.9371C31.8035 11.6228 34.3733 13.1316 36.0943 15.1827C36.4244 15.5599 36.7073 15.9843 36.9902 16.4086C38.2633 18.4361 38.8998 20.7701 39.2299 22.6326C39.3006 23.0805 39.3713 23.5049 39.3949 23.8821C39.3949 24.0471 39.4185 24.2122 39.442 24.3772C39.5128 25.1552 39.5128 25.7446 39.5128 25.9803C39.5128 26.5933 39.4656 29.2574 38.5226 32.1336C38.4047 32.558 38.2397 32.9587 38.0747 33.3831C36.6365 36.8959 33.7367 40.3143 27.9371 40.3143H20.0864C18.7662 40.3143 17.5874 40.1493 16.5501 39.8192C14.3576 39.1356 12.778 37.8625 11.6228 36.3301C11.5049 36.1886 11.4106 36.0471 11.3163 35.9057C11.1277 35.6228 10.9391 35.3399 10.7741 35.057C10.3497 34.3025 9.99607 33.5481 9.71316 32.7701C9.57171 32.3458 9.43026 31.9214 9.31238 31.5206C8.55796 28.8802 8.5108 26.5697 8.5108 25.9803C8.5108 25.721 8.51081 25.1552 8.58153 24.3772C8.67583 23.4342 8.84086 22.2082 9.1945 20.8644C9.31238 20.4636 9.40668 20.0629 9.54813 19.6385C9.71316 19.1198 9.92534 18.6012 10.1611 18.0825C10.3497 17.6581 10.5619 17.2574 10.7976 16.833C11.5049 15.6071 12.4244 14.4754 13.6503 13.5796C15.2534 12.4008 17.3281 11.6228 20.0864 11.6228Z" fill="#9E4000"/>
<path d="M47.1984 16.2908C47.1041 15.8664 46.9862 15.4656 46.8684 15.0413C46.1375 12.4715 45.0295 10.0668 43.5206 7.92141C43.2141 7.47348 42.8841 7.04912 42.554 6.64833C39.2534 2.66405 34.4204 0 27.9136 0H20.0629C17.1395 0 14.5462 0.54224 12.2829 1.50884C11.4813 1.8389 10.7269 2.21611 10.0196 2.66405C8.58153 3.53635 7.30845 4.59725 6.20039 5.79961C3.32417 8.86444 1.48527 12.8959 0.612967 17.1159C0.518664 17.5403 0.447937 17.9646 0.37721 18.389C0.306483 18.7898 0.259332 19.1906 0.212181 19.5914C0.165029 20.0157 0.117878 20.4401 0.0943025 20.8409C0.0471513 21.5717 0 22.3261 0 23.057C0 23.5285 0 24 0.0471513 24.4715C0.0471513 24.5422 0.0471513 24.613 0.0471513 24.6837C0.165029 27.112 0.612967 29.5403 1.34381 31.8507C1.48527 32.275 1.62672 32.6994 1.79175 33.1238C2.05108 33.7839 2.31041 34.4204 2.6169 35.0334C2.82908 35.4813 3.06483 35.9057 3.30059 36.3301C4.52652 38.5226 6.10609 40.5029 8.06287 42.0589C11.1277 44.558 15.112 46.1139 20.0864 46.1139H27.9371C31.9686 46.1139 35.3635 45.1002 38.1454 43.3556C38.7348 43.002 39.3006 42.6012 39.8193 42.1532C42.5776 39.9607 44.6051 37.0138 45.9489 33.7132C46.1139 33.2888 46.279 32.8644 46.4204 32.4401C47.2927 29.9411 47.7878 27.3006 47.9293 24.6365C47.9293 24.5894 47.9293 24.5422 47.9293 24.4715C47.9293 24.3772 47.9293 24.2829 47.9293 24.1886C47.9293 23.8114 47.9528 23.4106 47.9528 23.0334V22.9391C47.9528 20.723 47.6935 18.4597 47.1513 16.2672L47.1984 16.2908Z" fill="url(#paint0_linear_73_5568)"/>
<g opacity="0.5">
<path d="M27.9136 44.5344H20.0629C6.5776 44.5344 0.282908 33.0766 0 22.2083C0 22.444 0 22.6798 0 22.9155C0 33.9961 6.2947 45.9489 20.0864 45.9489H27.9371C41.7289 45.9489 48 33.9961 48 22.9155C48 22.6798 48 22.444 48 22.2083C47.7407 33.1002 41.446 44.5344 27.9371 44.5344H27.9136Z" fill="url(#paint1_linear_73_5568)"/>
</g>
<g style="mix-blend-mode:multiply" opacity="0.4">
<path d="M47.1983 16.1021C46.8683 16.1021 46.5382 16.1257 46.2081 16.1493C43.8506 16.2436 41.2337 16.3143 38.4282 16.4086C37.9331 16.4086 37.438 16.4322 36.9429 16.4558C3.11187 17.3752 35.5048 17.9175 10.1374 18.1061C9.7602 18.1061 9.40656 18.1061 9.05293 18.1061C5.56373 18.1296 2.85253 18.1532 1.08436 18.1532C0.825028 18.1532 0.589272 18.1532 0.353516 18.1532C0.424243 17.7524 0.494969 17.3281 0.589272 16.9037C0.848604 16.9037 1.15509 16.9037 1.48515 16.9037C3.32405 16.9037 6.01167 16.8801 9.40656 16.8566C9.8545 16.8566 10.326 16.8566 10.7975 16.8566C36.3299 16.668 2.38102 16.1493 36.0706 15.2298C36.7071 15.2298 37.3437 15.2063 37.9802 15.1827C40.7622 15.0884 43.3791 15.0177 45.7366 14.9469C46.1374 14.9469 46.5146 14.9234 46.8918 14.8998C47.0097 15.3006 47.1276 15.7249 47.2219 16.1257L47.1983 16.1021Z" fill="#C97B3A"/>
<path d="M47.9999 22.6561V22.7504C47.9999 23.1276 47.9999 23.5049 47.9764 23.8821H47.9292C47.5048 23.8821 47.0569 23.8821 46.609 23.8821C44.44 23.8821 42.0589 23.8821 39.4656 23.8585H39.3713C6.34178 23.5756 35.3398 21.6424 9.19444 20.8408C9.00583 20.8408 8.81723 20.8408 8.62862 20.8408C5.13943 20.7465 2.38108 20.6522 0.5186 20.5815C0.377146 20.5815 0.235692 20.5815 0.0942383 20.5815C0.117814 20.1807 0.164965 19.7563 0.212116 19.332C0.400722 19.332 0.589327 19.332 0.777932 19.332C2.64041 19.4027 5.35161 19.4734 8.77007 19.5913C9.02941 19.5913 9.28874 19.5913 9.54807 19.6149C35.8349 20.4165 6.27106 22.3261 39.1826 22.6326C39.277 22.6326 39.3948 22.6326 39.4891 22.6326C42.554 22.6561 45.3359 22.6561 47.8113 22.6561H47.9999Z" fill="#C97B3A"/>
<path d="M47.3398 32.0157C47.2455 32.44 47.1512 32.8644 47.0333 33.2652C46.6797 33.2652 46.3024 33.2652 45.9488 33.2652C43.5205 33.3123 40.88 33.3359 38.051 33.3595C37.438 33.3595 36.825 33.3595 36.1885 33.3595C30.2946 33.4066 46.1846 33.4302 45.9488 33.4302C30.9311 33.4302 33.0529 32.9823 11.3398 32.7465C10.774 32.7465 10.2317 32.7465 9.68948 32.7465C6.43604 32.6994 3.77199 32.6758 1.79164 32.6522C1.438 32.6522 1.10795 32.6522 0.777887 32.6522L0.518555 31.4027C0.777887 31.4027 1.06079 31.4027 1.3437 31.4027C3.2769 31.4263 5.96453 31.4499 9.28869 31.497C9.71305 31.497 10.1374 31.497 10.5618 31.497C36.6836 31.7799 3.04115 32.3929 37.0608 32.11C37.5559 32.11 38.0274 32.11 38.4989 32.11C41.3516 32.0864 44.0156 32.0393 46.4203 32.0157C46.7268 32.0157 47.0333 32.0157 47.3398 32.0157Z" fill="#C97B3A"/>
</g>
<g style="mix-blend-mode:overlay" opacity="0.5">
<path d="M38.8292 16.5501L47.1985 16.2908L47.4814 17.6582L38.7349 17.1866L38.8292 16.5501Z" fill="#FFDE55"/>
</g>
<g style="mix-blend-mode:overlay" opacity="0.5">
<path d="M40.0785 24.1886L47.9292 24.2358C47.9292 24.2358 47.9527 26.8291 47.1276 30.1532C47.1276 30.1532 47.6463 25.9803 45.996 25.391C44.3457 24.8016 38.4753 24.778 38.4753 24.778L40.0785 24.2122V24.1886Z" fill="#FFDE55"/>
</g>
<g style="mix-blend-mode:overlay" opacity="0.5">
<path d="M35.2927 33.7839L47.057 33.7131L46.8212 34.5619C46.8212 34.5619 45.6896 34.3497 40.2436 34.2318C34.3261 34.0903 29.5403 34.0668 29.5403 34.0668L35.3163 33.7839H35.2927Z" fill="#FFDE55"/>
</g>
<g style="mix-blend-mode:multiply" opacity="0.8">
<path d="M28.6914 37.8625H19.5677C8.18065 37.8625 7.85059 24.6365 7.85059 23.1513C7.85059 21.666 8.18065 8.4165 19.5677 8.4165H28.6914C40.0785 8.4165 40.4085 21.6424 40.4085 23.1513C40.4085 24.6601 40.0785 37.8625 28.6914 37.8625Z" fill="#9E4000"/>
</g>
<g filter="url(#filter0_d_73_5568)">
<path fill-rule="evenodd" clip-rule="evenodd" d="M33.84 28.5042L33.8416 28.5064C34.1162 28.865 34.248 30.0558 32.3615 29.8443C31.8061 29.7821 31.0297 29.6722 30.0965 29.3184C29.4682 29.0801 28.9209 28.7811 28.4706 28.489C27.7299 28.7871 26.9312 28.9704 26.0971 29.0171C24.957 30.5425 23.1368 31.53 21.0859 31.53C20.4119 31.53 19.7615 31.423 19.1516 31.2248C18.7852 31.4375 18.3685 31.6447 17.908 31.8193C16.9748 32.1731 16.2003 32.305 15.643 32.3452C15.2256 32.3753 14.9322 32.3538 14.787 32.337C14.4688 32.3002 14.183 32.1188 14.0601 31.8131C13.9523 31.5449 13.9913 31.2398 14.163 31.0071C14.3736 30.7199 14.5672 30.419 14.7502 30.1137C15.1071 29.5182 15.4571 28.8762 15.5457 28.1778C15.0908 27.3103 14.8336 26.323 14.8336 25.2777C14.8336 22.7816 16.2963 20.6272 18.4112 19.6247C19.2531 16.4019 22.1842 14.0236 25.6709 14.0236C29.8146 14.0236 33.1736 17.3827 33.1736 21.5263C33.1736 22.6714 32.9165 23.7586 32.4563 24.7315C32.2976 26.1686 33.02 27.3788 33.84 28.5042ZM19.8354 21.5263C19.8354 18.3035 22.448 15.6908 25.6709 15.6908C28.8937 15.6908 31.5064 18.3035 31.5064 21.5263C31.5064 22.4598 31.2878 23.34 30.8997 24.1204C30.8596 24.201 30.8329 24.2876 30.8204 24.3768C30.638 25.6897 30.946 26.8866 31.5749 28.0356C30.6646 27.8162 29.8067 27.4144 29.049 26.8645C28.8009 26.6844 28.474 26.6551 28.1978 26.788C27.4342 27.1554 26.5778 27.3618 25.6709 27.3618C22.448 27.3618 19.8354 24.7491 19.8354 21.5263ZM18.1711 21.7383C18.2673 25.2051 20.7152 28.084 23.9764 28.8369C23.1877 29.4783 22.1817 29.8627 21.0859 29.8627C20.4779 29.8627 19.8995 29.7448 19.3708 29.5314C19.1197 29.43 18.835 29.457 18.6073 29.6036C18.2415 29.8393 17.8065 30.0747 17.3168 30.2603C16.9918 30.3835 16.6948 30.4726 16.4296 30.5365C16.7066 30.0304 16.9872 29.4274 17.1165 28.8599C17.1803 28.5797 17.2155 28.307 17.2314 28.0509C17.2415 27.8864 17.2027 27.7225 17.1198 27.58C16.7264 26.9041 16.5009 26.1185 16.5009 25.2777C16.5009 23.8525 17.1511 22.5792 18.1711 21.7383Z" fill="white"/>
</g>
<g style="mix-blend-mode:multiply" opacity="0.8">
<path fill-rule="evenodd" clip-rule="evenodd" d="M40.2948 25.1501C39.8701 21.0334 37.8826 12.4165 28.6915 12.4165H19.5677C10.3831 12.4165 8.39191 21.0363 7.96525 25.1501C7.86293 24.1651 7.85059 23.4386 7.85059 23.1513C7.85059 21.666 8.18065 8.4165 19.5677 8.4165H28.6915C40.0785 8.4165 40.4085 21.6424 40.4085 23.1513C40.4085 23.4422 40.3963 24.168 40.2948 25.1501Z" fill="#9E4000"/>
</g>
<defs>
<filter id="filter0_d_73_5568" x="14" y="14.0236" width="20" height="19.8367" filterUnits="userSpaceOnUse" color-interpolation-filters="sRGB">
<feFlood flood-opacity="0" result="BackgroundImageFix"/>
<feColorMatrix in="SourceAlpha" type="matrix" values="0 0 0 0 0 0 0 0 0 0 0 0 0 0 0 0 0 0 127 0" result="hardAlpha"/>
<feOffset dy="1.5"/>
<feComposite in2="hardAlpha" operator="out"/>
<feColorMatrix type="matrix" values="0 0 0 0 0.415686 0 0 0 0 0.12549 0 0 0 0 0.027451 0 0 0 1 0"/>
<feBlend mode="normal" in2="BackgroundImageFix" result="effect1_dropShadow_73_5568"/>
<feBlend mode="normal" in="SourceGraphic" in2="effect1_dropShadow_73_5568" result="shape"/>
</filter>
<linearGradient id="paint0_linear_73_5568" x1="24" y1="-0.330059" x2="24" y2="44.1572" gradientUnits="userSpaceOnUse">
<stop stop-color="#F0CA57"/>
<stop offset="1" stop-color="#D45B1A"/>
</linearGradient>
<linearGradient id="paint1_linear_73_5568" x1="0.943026" y1="34.0668" x2="44.5815" y2="34.0668" gradientUnits="userSpaceOnUse">
<stop stop-color="#F0CA57"/>
<stop offset="0.5" stop-color="#F7C850"/>
<stop offset="1" stop-color="#FEC649"/>
</linearGradient>
</defs>
</svg>
