<svg width="50" height="54" viewBox="0 0 50 54" fill="none" xmlns="http://www.w3.org/2000/svg">
<g clip-path="url(#clip0_880_176797)">
<path d="M49.9481 25.3278C49.9619 25.1813 49.9619 25.0337 49.9481 24.8871C49.9481 24.4464 49.9481 24.0057 49.8185 23.5909C49.5634 21.2585 49.0145 18.9677 48.1846 16.7729C48.029 16.3322 47.8475 15.9174 47.666 15.5026C46.4372 12.6561 44.5954 10.1157 42.2718 8.06236C41.7359 7.57072 41.1637 7.1201 40.5602 6.7143C37.1794 4.43395 33.175 3.2566 29.0975 3.34416H20.9284C16.5854 3.25078 12.333 4.59238 8.83039 7.16093C5.32783 9.72948 2.77087 13.3815 1.55602 17.5506C1.55602 17.9913 1.27075 18.432 1.14108 18.8468C1.01141 19.2616 0.907676 19.7023 0.803942 20.1171C0.700207 20.5319 0.622407 20.9726 0.544606 21.4133C0.272195 22.7126 0.0902238 24.0293 0 25.3538C0 25.9241 0 26.4685 0 27.0388C-3.81106e-06 28.9357 0.18237 30.8283 0.544606 32.6903C0.544606 33.131 0.726141 33.5717 0.829875 33.9865C0.93361 34.4013 1.14108 35.2827 1.34855 35.9049L1.81535 37.227C2.68206 39.5599 3.91654 41.7391 5.47199 43.6821C5.78319 44.071 6.12033 44.4339 6.45747 44.7969C8.31929 46.7441 10.5695 48.2787 13.0623 49.3014C15.5551 50.324 18.235 50.8119 20.9284 50.7335H29.0975C31.812 50.813 34.5125 50.3157 37.0205 49.2745C39.5285 48.2332 41.7868 46.6717 43.6463 44.6932C44.0093 44.3043 44.3724 43.8636 44.7095 43.4488C46.7286 40.8336 48.1934 37.8345 49.0145 34.6346C49.1442 34.1939 49.2479 33.7532 49.3257 33.3384C49.782 31.2698 50.0081 29.1571 50 27.0388C50 26.4685 49.9741 25.9241 49.9481 25.3278ZM20.9284 41.9711C19.6745 41.9946 18.4242 41.8286 17.2199 41.4786C15.1481 40.8668 13.3291 39.603 12.0332 37.8751C11.7062 37.4392 11.4115 36.98 11.1515 36.5011C10.72 35.7482 10.3556 34.9588 10.0622 34.1421C9.89204 33.7094 9.74488 33.2681 9.62137 32.8199C9.11155 30.9431 8.84142 29.0094 8.81743 27.0648C8.81743 26.8055 8.81743 26.2093 8.81743 25.3797C8.92143 24.1459 9.12964 22.9231 9.43983 21.7244C9.54568 21.294 9.67556 20.8699 9.82884 20.4541C10.019 19.9011 10.2265 19.3566 10.4512 18.8209C10.6501 18.3758 10.8752 17.943 11.1255 17.5247C12.0658 15.7736 13.4897 14.3295 15.2276 13.3643C16.9656 12.3992 18.9444 11.9536 20.9284 12.0806H29.0975C30.7038 12.0032 32.3061 12.3001 33.7778 12.948C35.2495 13.5959 36.5505 14.5769 37.5778 15.8137C37.9179 16.2151 38.2298 16.6396 38.5114 17.084C39.6941 19.0648 40.4781 21.2576 40.8195 23.5391C40.9147 23.9743 40.9754 24.4164 41.001 24.8612C41.0137 25.0251 41.0137 25.1898 41.001 25.3538C41.001 26.1833 41.001 26.7796 41.001 27.0388C40.965 29.212 40.6156 31.3686 39.9637 33.4421C39.8354 33.8835 39.6794 34.3164 39.4969 34.7383C38.7506 36.9189 37.3204 38.8006 35.4188 40.1037C33.5172 41.4068 31.2457 42.0617 28.9419 41.9711H20.9284Z" fill="#9E4000"/>
<path d="M49.2735 16.9544C49.2735 16.5137 49.0401 16.0729 48.9105 15.6582C48.1745 13.01 46.9999 10.5039 45.4354 8.24385C45.1242 7.77722 44.7611 7.33651 44.4239 6.92172C42.569 4.67302 40.2227 2.87969 37.5655 1.6797C34.9084 0.479718 32.0113 -0.0949308 29.0972 -2.71667e-05H20.9281C18.1454 -0.0309952 15.3849 0.497983 12.8109 1.55542C11.9748 1.90309 11.1607 2.30133 10.3731 2.74793C7.80799 4.45434 5.62108 6.66956 3.94813 9.2561C2.27518 11.8427 1.15191 14.7453 0.648019 17.7839C0.648019 18.2246 0.466483 18.6654 0.388682 19.1061C0.310882 19.5468 0.388682 19.9356 0.207147 20.3764C0.0256119 20.8171 0.207147 21.2318 0.207147 21.6726C0.207147 22.1133 0.207147 23.228 0.207147 24.0057C0.207147 24.7835 0.207147 25.1205 0.207147 25.6908C0.344447 28.2174 0.797482 30.7169 1.55569 33.131L2.0225 34.4532C2.28184 35.1272 2.56711 35.8012 2.87831 36.4493L3.57852 37.7974C5.25553 40.9585 7.78354 43.5879 10.8769 45.3882C13.9703 47.1886 17.5057 48.0883 21.0837 47.9856H29.2528C32.9948 48.0539 36.6803 47.0655 39.8856 45.1339C40.4939 44.7489 41.0824 44.3336 41.6491 43.8896C44.488 41.5495 46.6836 38.5249 48.0287 35.1013C48.2156 34.6693 48.3801 34.228 48.5215 33.7791C49.4353 31.1642 49.9681 28.4315 50.1034 25.6649C50.1163 25.5096 50.1163 25.3535 50.1034 25.1982C50.1034 24.7835 50.1034 24.3946 50.1034 24.0057C50.0949 21.6314 49.8164 19.2658 49.2735 16.9544ZM41.0526 25.6908C40.6719 28.1726 39.7222 30.5327 38.2777 32.5866C37.9924 33.0273 37.0588 34.2198 36.7217 34.6346C35.8758 35.8433 34.7245 36.8064 33.3852 37.4257C32.0459 38.045 30.5664 38.2985 29.0972 38.1603H20.9281C19.7333 38.0683 18.5605 37.7884 17.453 37.3307C16.5908 37.1656 15.776 36.8115 15.0671 36.2938L13.926 35.7234C12.9146 34.9976 12.4737 35.5679 11.8254 34.5828C11.518 34.1673 11.2489 33.7247 11.0215 33.2607C9.84331 30.9057 9.13846 28.3427 8.94677 25.7167C8.94677 24.8872 8.94677 24.2909 8.94677 24.0317C8.91034 23.3495 8.91034 22.6658 8.94677 21.9836C8.94677 21.5948 8.94677 21.1541 9.12831 20.6874C9.30984 20.2208 9.30984 19.6246 9.43951 19.0801C9.56918 18.5357 9.64698 18.1987 9.77665 17.758C10.3033 15.207 11.707 12.9208 13.7441 11.2965C15.7811 9.6722 18.3229 8.81227 20.9281 8.86603H29.0972C31.3523 8.79984 33.5705 9.44891 35.4339 10.7203C37.2974 11.9916 38.7104 13.8199 39.4706 15.9433C39.6522 16.384 39.8337 16.8247 39.9634 17.2395C40.647 19.379 41.0224 21.6049 41.0785 23.8502V24.0057C41.0785 24.1872 41.0785 24.602 41.0785 25.1723C41.0814 25.3455 41.0728 25.5187 41.0526 25.6908Z" fill="url(#paint0_linear_880_176797)"/>
<g opacity="0.5">
<path d="M29.0979 46.3524H20.9288C6.84685 46.3524 0.18191 34.4273 0.0263089 23.0207C0.0133658 23.2625 0.0133658 23.5048 0.0263089 23.7466C0.0263089 35.3087 6.56158 47.7523 20.9547 47.7523H29.1238C43.491 47.7523 50.0263 35.3087 50.0263 23.7466C50.0393 23.5048 50.0393 23.2625 50.0263 23.0207C49.7151 34.4273 43.1539 46.3524 29.0979 46.3524Z" fill="url(#paint1_linear_880_176797)"/>
</g>
<g style="mix-blend-mode:multiply" opacity="0.4">
<path d="M49.2735 16.747H48.2362L40.119 17.0063H38.5889C3.3451 17.9655 37.0847 18.5099 10.6584 18.7172H9.46544H1.14075H0.388672C0.388672 18.2765 0.544274 17.8358 0.648008 17.421H1.55568H9.80257H11.2549C37.8368 17.2914 2.59303 16.747 37.5775 15.8137H39.5484L47.6397 15.5545H48.8327C48.9623 15.8656 49.0661 16.3063 49.2735 16.747Z" fill="#C97B3A"/>
<path d="M50 23.591C50 23.9799 50 24.3688 50 24.7836H41.001C6.58714 24.5502 36.7998 22.5541 9.5695 21.6986H8.97303L0.544606 21.4134H0C0 20.9986 0 20.5579 0 20.1431H0.803942L9.15456 20.4283H9.95851C37.3444 21.2579 6.53527 23.3318 40.8195 23.5651H50V23.591Z" fill="#C97B3A"/>
<path d="M49.2737 33.3386C49.2737 33.7533 49.0662 34.1941 48.9625 34.6348H47.8214H39.6004H37.6554C31.5092 34.6348 48.0289 34.6348 47.8214 34.6348C32.2612 34.6348 34.4137 34.1941 11.7737 33.9348H10.1139H1.86705H0.829703L0.544434 32.6386H1.40024H9.699H11.0216C38.2519 32.9497 3.24153 33.5719 38.615 33.2867H40.1191H48.366L49.2737 33.3386Z" fill="#C97B3A"/>
</g>
<g style="mix-blend-mode:overlay" opacity="0.5">
<path d="M40.4568 17.2136L49.1705 16.9543L49.4557 18.3542L40.353 17.8617L40.4568 17.2136Z" fill="#FFDE55"/>
</g>
<g style="mix-blend-mode:overlay" opacity="0.5">
<path d="M41.7534 25.1722H49.9225C49.8809 27.2452 49.6025 29.3065 49.0927 31.3163C49.0927 31.3163 49.6373 26.9869 47.8997 26.3648C45.3322 25.9069 42.7275 25.6899 40.1196 25.7166L41.7534 25.1722Z" fill="#FFDE55"/>
</g>
<g style="mix-blend-mode:overlay" opacity="0.5">
<path d="M36.7734 35.1531H49.0141L48.7807 36.0346C46.4974 35.8019 44.2034 35.6894 41.9083 35.6975C35.7361 35.542 30.7568 35.5161 30.7568 35.5161L36.7734 35.1531Z" fill="#FFDE55"/>
</g>
<g style="mix-blend-mode:multiply" opacity="0.7">
<path d="M30.0311 42.7127H20.5135C8.66184 42.7127 8.32471 26.947 8.32471 25.3656C8.32471 23.7842 8.66184 8.04443 20.5135 8.04443H30.0311C41.9087 8.04443 42.2459 23.8102 42.2459 25.3656C42.2459 26.9211 41.9087 42.7127 30.0311 42.7127Z" fill="#9E4000"/>
</g>
<g style="mix-blend-mode:multiply" opacity="0.2">
<path d="M40.4566 25.7762C40.301 28.0057 39.3414 34.6682 34.5437 36.9754C31.7138 38.1543 28.6751 38.7504 25.6093 38.7282C22.5436 38.7059 19.5139 38.0657 16.7014 36.8458C11.6703 34.2275 10.5292 28.0057 10.3736 25.7762C10.3736 26.3465 9.12876 40.6307 21.3435 40.6307H29.4866C41.7014 40.6307 40.4825 26.3465 40.4566 25.7762Z" fill="#1B8943"/>
</g>
<g filter="url(#filter0_d_880_176797)">
<path d="M26.137 16.8358L26.1363 16.8358C23.9483 17.0155 21.9216 18.0818 20.8848 19.635L20.8839 19.6363C20.621 20.0368 20.3718 20.5726 20.275 20.971L20.2361 21.122L19.8474 21.2516L26.137 16.8358ZM26.137 16.8358C26.7447 16.7881 26.9938 16.788 27.5638 16.8358C30.4593 17.0748 32.7816 18.6418 33.4844 20.9175L33.4845 20.9177C33.5328 21.0749 33.5627 21.1864 33.5783 21.3457C33.5931 21.4971 33.5949 21.6904 33.5949 22.0117C33.5949 22.6194 33.5836 22.7819 33.5063 23.0778L33.5064 23.0778L33.5056 23.0805C33.2665 23.9479 32.918 24.5633 32.301 25.2048M26.137 16.8358L32.301 25.2048M29.118 27.2312C29.112 27.2532 29.1058 27.2759 29.0995 27.2987L29.0993 27.2995C28.9081 27.9896 28.4638 28.6868 27.84 29.3025C26.7454 30.3849 25.296 31.0416 23.5597 31.2532L23.5355 31.0547L23.5597 31.2532C22.7674 31.3497 21.5148 31.2899 20.7131 31.1215L20.7127 31.1214L20.5363 31.084L20.2782 31.253C20.2782 31.253 20.2781 31.2531 20.2781 31.2531C19.8105 31.5607 19.2182 31.8397 18.6378 32.045C18.0597 32.2494 17.4769 32.3866 17.0294 32.3991L17.0272 32.3992C16.924 32.4027 16.8225 32.4061 16.7336 32.3771C16.6324 32.344 16.5662 32.2763 16.5113 32.2196C16.4528 32.163 16.3965 32.1008 16.3621 32.0166C16.3278 31.9327 16.3238 31.8473 16.3238 31.7656C16.3238 31.6719 16.3304 31.5849 16.3751 31.484C16.4142 31.3956 16.4794 31.3046 16.567 31.1885C16.8965 30.7478 17.1879 30.0816 17.2799 29.5591L17.2799 29.5591L17.2804 29.5565L17.3046 29.4291L17.0767 29.1833C17.0766 29.1832 17.0766 29.1831 17.0765 29.183C16.403 28.4607 15.9854 27.6281 15.838 26.7037C15.7997 26.4691 15.7925 26.1401 15.8069 25.8248C15.8213 25.5098 15.8583 25.1877 15.9164 24.9683L15.9165 24.9676C16.0371 24.5186 16.3891 23.8163 16.6916 23.4117C17.3959 22.4671 18.5461 21.6841 19.8472 21.2517L29.118 27.2312ZM29.118 27.2312C29.1633 27.2571 29.2166 27.2887 29.2777 27.3262C29.9805 27.7678 30.724 28.0731 31.5423 28.2576L31.5432 28.2578C31.9823 28.3545 32.2988 28.4064 32.5254 28.3867C32.6443 28.3764 32.7538 28.3456 32.847 28.2793C32.9412 28.2123 33.0002 28.1222 33.0403 28.0265L33.041 28.0247C33.0894 27.9059 33.1234 27.7845 33.0934 27.6431C33.0664 27.5156 32.9913 27.3957 32.8983 27.2639M29.118 27.2312L32.0314 25.486L32.1042 25.4101M32.8983 27.2639C32.8982 27.2638 32.8982 27.2637 32.8981 27.2636L32.7347 27.3789L32.8985 27.2641C32.8984 27.264 32.8984 27.264 32.8983 27.2639ZM32.8983 27.2639C32.5078 26.7065 32.2523 26.1461 32.1496 25.629L32.1493 25.6274L32.1042 25.4101M32.1042 25.4101L32.3007 25.205M32.1042 25.4101L32.3007 25.205M32.3007 25.205C32.3008 25.205 32.3009 25.2049 32.301 25.2048M32.3007 25.205L32.301 25.2048M31.3471 19.4889L31.3473 19.4891C31.7615 19.8807 31.9965 20.1938 32.2232 20.6547L32.2235 20.6553C32.4902 21.1923 32.5685 21.5572 32.5427 22.1396L32.5427 22.1404C32.5058 23.0629 32.1466 23.8552 31.4388 24.5483C31.2886 24.6946 31.1717 24.8176 31.114 24.9895C31.0591 25.1528 31.0647 25.3414 31.0779 25.5925L31.0781 25.5951L31.0781 25.5951C31.1079 26.0502 31.2802 26.5818 31.581 27.1514M31.3471 19.4889L31.8457 27.2283C31.757 27.2077 31.6712 27.1866 31.5879 27.1647M31.3471 19.4889C30.4169 18.6075 29.0441 18.0319 27.5023 17.8945C26.2279 17.7843 24.9281 18.0129 23.8172 18.5436C23.3408 18.7723 23.1457 18.8902 22.7357 19.2053C21.9784 19.7902 21.4945 20.5071 21.284 21.3345L21.284 21.3345C20.8238 23.1425 22.1345 25.0552 24.5595 25.861L24.5598 25.8611C25.7983 26.2752 27.0789 26.3442 28.4172 26.0697L28.4176 26.0696C28.5564 26.0414 28.6959 26.0182 28.81 26.0033C28.8669 25.9959 28.9194 25.9904 28.9634 25.9875C29 25.9851 29.0522 25.9827 29.0958 25.9909L29.0958 25.9906L29.1074 25.9935C29.145 26.0028 29.1882 26.0223 29.2222 26.0386C29.2613 26.0573 29.3076 26.0814 29.3576 26.109C29.4576 26.1641 29.578 26.236 29.6954 26.3129M31.3471 19.4889L29.5863 26.4805M31.581 27.1514C31.5811 27.1516 31.5812 27.1518 31.5813 27.152L31.7581 27.0586L31.5807 27.1508C31.5808 27.151 31.5809 27.1512 31.581 27.1514ZM31.581 27.1514C31.5833 27.1559 31.5856 27.1603 31.5879 27.1647M31.5879 27.1647C31.6363 27.2578 31.6716 27.3263 31.6967 27.3774C31.701 27.386 31.7048 27.394 31.7083 27.4013C30.8895 27.2034 30.3071 26.9476 29.5863 26.4805M31.5879 27.1647C30.8777 26.9781 30.347 26.735 29.6954 26.3129M29.6954 26.3129C29.6956 26.313 29.6957 26.3131 29.6959 26.3132L29.5863 26.4805M29.6954 26.3129C29.6953 26.3128 29.6952 26.3127 29.695 26.3126L29.5863 26.4805M20.1329 22.2784L19.9933 22.3315C18.4513 22.9178 17.4157 23.8889 17.0022 25.0876C16.9394 25.2761 16.9135 25.3606 16.8992 25.4669C16.8842 25.5793 16.882 25.7189 16.88 26.0163C16.88 26.5267 16.892 26.6361 16.9617 26.8732L16.9617 26.8732L16.9621 26.8746C17.1437 27.5081 17.4071 27.9531 17.9069 28.4793L20.1329 22.2784ZM20.1329 22.2784L20.1407 22.3856L20.1407 22.3861C20.1574 22.6066 20.2183 22.9476 20.2764 23.1553C20.8585 25.2416 22.9924 26.8229 25.6157 27.2057C26.3841 27.3196 27.2558 27.3256 27.9966 27.2291C27.7408 27.8573 27.276 28.458 26.6789 28.9198C26.2691 29.2347 26.074 29.3526 25.598 29.5811C24.2559 30.2141 22.5855 30.4089 21.0561 30.097C20.9203 30.0691 20.7816 30.0441 20.6673 30.0261C20.5601 30.0091 20.4566 29.9953 20.4027 29.9953C20.3089 29.9953 20.2156 30.0296 20.1229 30.0762C20.0276 30.1241 19.9118 30.1962 19.7676 30.295C19.5535 30.4363 19.2184 30.6341 19.0216 30.7306L19.0203 30.7312L19.0203 30.7313C18.7642 30.8593 18.3565 31.0119 18.0161 31.1187C17.9498 31.1396 17.8871 31.1583 17.8295 31.1746C17.8469 31.1392 17.8648 31.1024 17.883 31.0647C18.17 30.4904 18.307 30.0609 18.3328 29.6178C18.3496 29.3628 18.3598 29.1716 18.293 28.9941C18.2271 28.8186 18.0925 28.6743 17.9069 28.4793L20.1329 22.2784Z" fill="url(#paint2_linear_880_176797)" stroke="url(#paint3_linear_880_176797)" stroke-width="0.4"/>
</g>
</g>
<defs>
<filter id="filter0_d_880_176797" x="15.6001" y="16.6" width="18.1948" height="17.0016" filterUnits="userSpaceOnUse" color-interpolation-filters="sRGB">
<feFlood flood-opacity="0" result="BackgroundImageFix"/>
<feColorMatrix in="SourceAlpha" type="matrix" values="0 0 0 0 0 0 0 0 0 0 0 0 0 0 0 0 0 0 127 0" result="hardAlpha"/>
<feOffset dy="1"/>
<feComposite in2="hardAlpha" operator="out"/>
<feColorMatrix type="matrix" values="0 0 0 0 0.619608 0 0 0 0 0.188235 0 0 0 0 0.0392157 0 0 0 1 0"/>
<feBlend mode="normal" in2="BackgroundImageFix" result="effect1_dropShadow_880_176797"/>
<feBlend mode="normal" in="SourceGraphic" in2="effect1_dropShadow_880_176797" result="shape"/>
</filter>
<linearGradient id="paint0_linear_880_176797" x1="24.9997" y1="-0.388889" x2="24.9997" y2="45.9635" gradientUnits="userSpaceOnUse">
<stop stop-color="#F0CA57"/>
<stop offset="1" stop-color="#D45B1A"/>
</linearGradient>
<linearGradient id="paint1_linear_880_176797" x1="0.985852" y1="35.4643" x2="46.4734" y2="35.4643" gradientUnits="userSpaceOnUse">
<stop stop-color="#F0CA57"/>
<stop offset="0.5" stop-color="#F7C850"/>
<stop offset="1" stop-color="#FEC649"/>
</linearGradient>
<linearGradient id="paint2_linear_880_176797" x1="24.6974" y1="17" x2="24.6974" y2="32.2014" gradientUnits="userSpaceOnUse">
<stop stop-color="#EAAF49"/>
<stop offset="1" stop-color="#D96C24"/>
</linearGradient>
<linearGradient id="paint3_linear_880_176797" x1="24.6974" y1="17" x2="24.6974" y2="32.2014" gradientUnits="userSpaceOnUse">
<stop stop-color="#EAAF49"/>
<stop offset="1" stop-color="#D96C24"/>
</linearGradient>
<clipPath id="clip0_880_176797">
<rect width="50" height="54" fill="white"/>
</clipPath>
</defs>
</svg>
