<svg width="43" height="52" viewBox="0 0 43 52" fill="none" xmlns="http://www.w3.org/2000/svg">
<path d="M40.0267 38.8209C38.3355 42.587 35.5664 45.7676 32.069 47.9614C28.5717 50.1551 24.5028 51.2635 20.3761 51.1468C16.2493 51.0301 12.2496 49.6934 8.88186 47.3055C5.5141 44.9176 2.92925 41.5855 1.45358 37.7298C-0.0220932 33.8741 -0.322439 29.6677 0.590454 25.6415C1.50335 21.6153 3.58855 17.9497 6.58287 15.1076C9.57719 12.2654 13.3464 10.374 17.4147 9.67213C21.483 8.97026 25.6681 9.48937 29.4416 11.1639C31.9567 12.28 34.2265 13.8819 36.1208 15.8776C38.0151 17.8733 39.4966 20.2235 40.4801 22.7933C41.4636 25.3631 41.9299 28.1018 41.8521 30.8523C41.7743 33.6028 41.1539 36.3108 40.0267 38.8209Z" fill="#F6AE28"/>
<path style="mix-blend-mode:multiply" d="M40.0265 38.9969C38.3336 42.7545 35.566 45.9266 32.0727 48.1134C28.5794 50.3001 24.5168 51.4036 20.3972 51.2846C16.2777 51.1655 12.2856 49.8294 8.92433 47.4446C5.56311 45.0598 2.98327 41.7331 1.51015 37.8841C0.0370182 34.0351 -0.263438 29.836 0.646663 25.8165C1.55676 21.7969 3.63667 18.1368 6.62411 15.2978C9.61154 12.4587 13.3727 10.5678 17.4334 9.86341C21.4941 9.15905 25.6724 9.67283 29.4414 11.3399C31.9587 12.4534 34.2308 14.0538 36.127 16.049C38.0231 18.0442 39.5058 20.3949 40.4897 22.9656C41.4736 25.5362 41.9392 28.2761 41.8597 31.0275C41.7802 33.7789 41.1572 36.4873 40.0265 38.9969Z" fill="url(#paint0_linear_717_106088)"/>
<path style="mix-blend-mode:multiply" d="M39.3478 36.8095C37.3176 41.776 33.4028 45.7362 28.46 47.8236C23.5171 49.911 17.9488 49.9556 12.9731 47.9477C8.14547 45.6001 4.44654 41.4328 2.68827 36.3607C0.930001 31.2886 1.25607 25.7261 3.59491 20.8941C4.58611 18.4275 6.05643 16.1818 7.92086 14.2869C9.78528 12.392 12.0068 10.8855 14.4571 9.85443C16.9073 8.82336 19.5376 8.28823 22.1959 8.27995C24.8543 8.27168 27.4879 8.79043 29.9445 9.80622C32.3445 10.951 34.4937 12.5604 36.2678 14.5412C38.0418 16.5219 39.4055 18.8348 40.28 21.346C41.1545 23.8571 41.5224 26.5168 41.3623 29.1711C41.2023 31.8253 40.5176 34.4215 39.3478 36.8095Z" fill="url(#paint1_linear_717_106088)"/>
<path d="M41.1582 35.9797C39.4653 39.7373 36.6977 42.9095 33.2044 45.0962C29.7111 47.283 25.6485 48.3864 21.5289 48.2674C17.4094 48.1484 13.4173 46.8122 10.056 44.4274C6.69482 42.0426 4.11499 38.716 2.64186 34.8669C1.16873 31.0179 0.868275 26.8189 1.77838 22.7993C2.68848 18.7797 4.76838 15.1197 7.75582 12.2806C10.7433 9.44152 14.5044 7.55059 18.5651 6.84624C22.6258 6.14189 26.8041 6.65566 30.5731 8.32277C33.0904 9.43619 35.3625 11.0366 37.2587 13.0318C39.1548 15.0271 40.6375 17.3777 41.6214 19.9484C42.6053 22.5191 43.0709 25.259 42.9914 28.0103C42.9119 30.7617 42.2889 33.4702 41.1582 35.9797Z" fill="url(#paint2_linear_717_106088)"/>
<path style="mix-blend-mode:screen" d="M40.429 35.1752C38.8265 38.7747 36.1923 41.818 32.8596 43.9198C29.5269 46.0217 25.6456 47.0876 21.7069 46.9827C17.7682 46.8777 13.9491 45.6067 10.733 43.3304C7.51697 41.0542 5.04847 37.875 3.63995 34.1952C2.23143 30.5155 1.94621 26.5006 2.82039 22.6587C3.69457 18.8168 5.68885 15.3205 8.55084 12.6125C11.4128 9.90441 15.0139 8.10627 18.8982 7.4456C22.7825 6.78494 26.7755 7.29146 30.3719 8.90105C35.1861 11.0557 38.9488 15.0323 40.8343 19.9582C42.7198 24.884 42.574 30.3567 40.429 35.1752Z" fill="url(#paint3_linear_717_106088)"/>
<path d="M38.0154 33.8427C36.6474 36.9685 34.3817 39.6176 31.5059 41.4538C28.63 43.29 25.2736 44.2306 21.8623 44.1563C18.451 44.082 15.1387 42.9961 12.3455 41.0364C9.55236 39.0766 7.40424 36.3314 6.17369 33.149C4.94314 29.9665 4.68562 26.4902 5.43379 23.1612C6.18196 19.8322 7.90211 16.8004 10.376 14.4504C12.8499 12.1005 15.9661 10.5384 19.3291 9.96222C22.6922 9.38605 26.1507 9.82182 29.2657 11.2142C33.4145 13.0687 36.6622 16.4878 38.3011 20.7263C39.94 24.9649 39.8373 29.6795 38.0154 33.8427Z" fill="url(#paint4_linear_717_106088)"/>
<path d="M36.6826 33.4655C35.4055 36.3492 33.3017 38.7892 30.6373 40.4769C27.973 42.1645 24.8679 43.0238 21.715 42.9462C18.5621 42.8685 15.5031 41.8573 12.9251 40.0405C10.3471 38.2237 8.36596 35.6831 7.23237 32.74C6.09879 29.7969 5.86372 26.5837 6.55691 23.5069C7.25011 20.4302 8.8404 17.6282 11.1266 15.4556C13.4127 13.283 16.292 11.8374 19.4 11.3017C22.508 10.766 25.7051 11.1643 28.5867 12.4462C32.4452 14.1627 35.4649 17.3402 36.9828 21.2811C38.5007 25.222 38.3928 29.6041 36.6826 33.4655Z" fill="url(#paint5_linear_717_106088)"/>
<path opacity="0.5" d="M5.07849 37.0106C6.87706 40.6024 9.86142 43.4624 13.5264 45.1066C22.1001 48.9031 26.8521 46.4894 26.8521 46.4894C18.6291 46.3205 10.8049 42.9143 5.07849 37.0106Z" fill="white"/>
<path opacity="0.3" d="M34.6714 22.101C33.5149 24.6153 28.7629 25.0176 24.036 22.9056C19.3092 20.7936 16.3675 17.0222 17.4989 14.4576C18.6304 11.8931 23.4075 11.5411 28.1343 13.6531C32.8611 15.7651 35.8028 19.5365 34.6714 22.101Z" fill="url(#paint6_linear_717_106088)"/>
<path opacity="0.7" d="M27.3799 15.1868C31.6039 17.0725 34.3948 20.2153 34.1182 22.7296C34.3143 22.5128 34.4755 22.2668 34.5959 22.0004C35.7273 19.4862 32.8108 15.6645 28.0839 13.5525C23.3571 11.4405 18.58 11.8176 17.4486 14.357C17.3232 14.6264 17.2466 14.9158 17.2223 15.2119C18.8817 13.3513 23.1308 13.3513 27.3799 15.1868Z" fill="url(#paint7_linear_717_106088)"/>
<path opacity="0.5" d="M39.4485 17.1982C37.6273 13.6202 34.6376 10.7725 30.9754 9.12736C22.4269 5.33081 17.6498 7.71937 17.6498 7.71937C25.8767 7.9033 33.7034 11.3066 39.4485 17.1982Z" fill="white"/>
<g style="mix-blend-mode:overlay">
<path d="M33.4392 1.65997C36.4905 2.85034 38.9452 5.20227 40.265 8.19995C41.5847 11.1976 41.6617 14.5963 40.4791 17.6507C39.5994 19.9504 38.056 21.9366 36.0451 23.3573C34.0341 24.7779 31.6463 25.5688 29.1849 25.6296C26.7235 25.6903 24.2996 25.0181 22.221 23.6984C20.1424 22.3786 18.503 20.4709 17.5109 18.2175C16.5188 15.964 16.2189 13.4666 16.6491 11.0423C17.0794 8.61805 18.2205 6.37637 19.9275 4.60197C21.6344 2.82758 23.8302 1.60054 26.236 1.07672C28.6418 0.552887 31.149 0.7559 33.4392 1.65997Z" fill="url(#paint8_radial_717_106088)" fill-opacity="0.3"/>
</g>
<g style="mix-blend-mode:overlay">
<path d="M16.5684 41.1843C19.485 42.366 21.3204 44.6792 20.6415 46.3637C19.9627 48.0483 17.0713 48.5511 14.0541 47.3443C11.037 46.1374 9.30218 43.8746 9.95589 42.1649C10.6096 40.4552 13.6519 40.0278 16.5684 41.1843Z" fill="white"/>
</g>
<g style="mix-blend-mode:overlay">
<path d="M18.6808 37.262C20.5657 37.8438 22.1476 39.1408 23.0876 40.8751C24.0276 42.6093 24.2508 44.6428 23.7093 46.5397C22.792 48.29 21.2244 49.6103 19.3437 50.2168C17.4629 50.8234 15.4193 50.6676 13.6522 49.7831C11.7674 49.2013 10.1854 47.9043 9.24542 46.17C8.30544 44.4358 8.08225 42.4023 8.6237 40.5054C9.54105 38.7552 11.1086 37.4348 12.9894 36.8283C14.8701 36.2217 16.9137 36.3775 18.6808 37.262Z" fill="url(#paint9_radial_717_106088)" fill-opacity="0.3"/>
</g>
<path d="M21.5899 33.7039C22.1991 33.8672 22.725 33.9018 23.1678 33.8079C23.6124 33.7068 23.9716 33.4994 24.2455 33.1856C24.5284 32.8666 24.7363 32.4592 24.8691 31.9634C25.0001 31.4746 24.9949 31.0405 24.8537 30.661C24.7143 30.2744 24.4672 29.9501 24.1122 29.6879C23.7644 29.4277 23.3355 29.2293 22.8255 29.0926L20.7004 28.5232C20.5375 28.4795 20.4102 28.4872 20.3185 28.5461C20.2268 28.6051 20.1582 28.7195 20.1126 28.8895L19.1532 32.4702C19.0981 32.6756 19.0885 32.8249 19.1243 32.918C19.1672 33.013 19.2878 33.0871 19.4861 33.1402L21.5899 33.7039ZM21.4771 26.1348L23.1133 26.5733C23.5738 26.6966 24.0036 26.7359 24.4028 26.691C24.8039 26.6391 25.1489 26.4848 25.4379 26.2281C25.7339 25.9734 25.9483 25.5981 26.0812 25.1023C26.2141 24.6064 26.2228 24.1912 26.1075 23.8566C26.0011 23.5169 25.7835 23.2384 25.4545 23.0212C25.1326 22.8058 24.7166 22.6299 24.2066 22.4932L22.4747 22.0291C22.3118 21.9855 22.1821 21.9735 22.0857 21.9932C21.9964 22.0149 21.929 22.1107 21.8834 22.2807L21.0436 25.4151C20.979 25.6559 20.9692 25.8203 21.0139 25.9082C21.0677 25.991 21.2221 26.0665 21.4771 26.1348ZM21.3155 36.2155L12.3053 33.8012C12.0858 33.7424 11.9626 33.6638 11.9357 33.5655C11.9108 33.4602 11.9287 33.2942 11.9895 33.0675L12.3852 31.5906C12.4251 31.4418 12.4781 31.3573 12.5442 31.3371C12.6104 31.3169 12.7108 31.3248 12.8454 31.3608L14.3329 31.7594C14.5383 31.8145 14.6798 31.8106 14.7573 31.7479C14.8368 31.6781 14.9059 31.5334 14.9648 31.3138L17.6523 21.2836C17.7036 21.0924 17.7104 20.9537 17.6727 20.8677C17.6369 20.7746 17.5269 20.7034 17.3427 20.654L15.8977 20.2668C15.7065 20.2156 15.5891 20.1576 15.5458 20.0928C15.5095 20.0299 15.516 19.9064 15.5653 19.7223L15.9639 18.2347C16.0171 18.0364 16.0805 17.9129 16.1542 17.8644C16.237 17.8106 16.3704 17.8084 16.5546 17.8578L25.0016 20.1211C26.4891 20.5197 27.683 20.9801 28.5832 21.5022C29.4853 22.0172 30.0914 22.6313 30.4013 23.3445C30.7203 24.0525 30.7498 24.8918 30.4897 25.8622C30.2506 26.7547 29.8178 27.4207 29.1914 27.8602C28.5668 28.2926 27.7652 28.522 26.7864 28.5482C26.587 28.5555 26.475 28.6052 26.4503 28.6973C26.4256 28.7894 26.5139 28.8852 26.715 28.9846C27.7748 29.5343 28.5331 30.1892 28.99 30.9494C29.4468 31.7095 29.5433 32.5819 29.2795 33.5665C28.9815 34.6786 28.5044 35.4959 27.8481 36.0185C27.1989 36.5431 26.3334 36.8122 25.2516 36.826C24.1788 36.8347 22.8668 36.6312 21.3155 36.2155Z" fill="white" fill-opacity="0.5"/>
<path d="M21.5899 32.7039C22.1991 32.8672 22.725 32.9018 23.1678 32.8079C23.6124 32.7068 23.9716 32.4994 24.2455 32.1856C24.5284 31.8666 24.7363 31.4592 24.8691 30.9634C25.0001 30.4746 24.9949 30.0405 24.8537 29.661C24.7143 29.2744 24.4672 28.9501 24.1122 28.6879C23.7644 28.4277 23.3355 28.2293 22.8255 28.0926L20.7004 27.5232C20.5375 27.4795 20.4102 27.4872 20.3185 27.5461C20.2268 27.6051 20.1582 27.7195 20.1126 27.8895L19.1532 31.4702C19.0981 31.6756 19.0885 31.8249 19.1243 31.918C19.1672 32.013 19.2878 32.0871 19.4861 32.1402L21.5899 32.7039ZM21.4771 25.1348L23.1133 25.5733C23.5738 25.6966 24.0036 25.7359 24.4028 25.691C24.8039 25.6391 25.1489 25.4848 25.4379 25.2281C25.7339 24.9734 25.9483 24.5981 26.0812 24.1023C26.2141 23.6064 26.2228 23.1912 26.1075 22.8566C26.0011 22.5169 25.7835 22.2384 25.4545 22.0212C25.1326 21.8058 24.7166 21.6299 24.2066 21.4932L22.4747 21.0291C22.3118 20.9855 22.1821 20.9735 22.0857 20.9932C21.9964 21.0149 21.929 21.1107 21.8834 21.2807L21.0436 24.4151C20.979 24.6559 20.9692 24.8203 21.0139 24.9082C21.0677 24.991 21.2221 25.0665 21.4771 25.1348ZM21.3155 35.2155L12.3053 32.8012C12.0858 32.7424 11.9626 32.6638 11.9357 32.5655C11.9108 32.4602 11.9287 32.2942 11.9895 32.0675L12.3852 30.5906C12.4251 30.4418 12.4781 30.3573 12.5442 30.3371C12.6104 30.3169 12.7108 30.3248 12.8454 30.3608L14.3329 30.7594C14.5383 30.8145 14.6798 30.8106 14.7573 30.7479C14.8368 30.6781 14.9059 30.5334 14.9648 30.3138L17.6523 20.2836C17.7036 20.0924 17.7104 19.9537 17.6727 19.8677C17.6369 19.7746 17.5269 19.7034 17.3427 19.654L15.8977 19.2668C15.7065 19.2156 15.5891 19.1576 15.5458 19.0928C15.5095 19.0299 15.516 18.9064 15.5653 18.7223L15.9639 17.2347C16.0171 17.0364 16.0805 16.9129 16.1542 16.8644C16.237 16.8106 16.3704 16.8084 16.5546 16.8578L25.0016 19.1211C26.4891 19.5197 27.683 19.9801 28.5832 20.5022C29.4853 21.0172 30.0914 21.6313 30.4013 22.3445C30.7203 23.0525 30.7498 23.8918 30.4897 24.8622C30.2506 25.7547 29.8178 26.4207 29.1914 26.8602C28.5668 27.2926 27.7652 27.522 26.7864 27.5482C26.587 27.5555 26.475 27.6052 26.4503 27.6973C26.4256 27.7894 26.5139 27.8852 26.715 27.9846C27.7748 28.5343 28.5331 29.1892 28.99 29.9494C29.4468 30.7095 29.5433 31.5819 29.2795 32.5665C28.9815 33.6786 28.5044 34.4959 27.8481 35.0185C27.1989 35.5431 26.3334 35.8122 25.2516 35.826C24.1788 35.8347 22.8668 35.6312 21.3155 35.2155Z" fill="url(#paint10_linear_717_106088)"/>
<defs>
<linearGradient id="paint0_linear_717_106088" x1="9.27221" y1="48.0048" x2="23.7529" y2="16.9033" gradientUnits="userSpaceOnUse">
<stop stop-color="#FFAC1C"/>
<stop offset="1" stop-color="#F9D445"/>
</linearGradient>
<linearGradient id="paint1_linear_717_106088" x1="9.78002" y1="46.3893" x2="24.271" y2="15.2649" gradientUnits="userSpaceOnUse">
<stop stop-color="#FFAC1C"/>
<stop offset="1" stop-color="#F9D445"/>
</linearGradient>
<linearGradient id="paint2_linear_717_106088" x1="10.417" y1="44.9147" x2="24.8977" y2="13.8132" gradientUnits="userSpaceOnUse">
<stop stop-color="#FFAC1C"/>
<stop offset="1" stop-color="#F9D445"/>
</linearGradient>
<linearGradient id="paint3_linear_717_106088" x1="10.9346" y1="43.8268" x2="24.7532" y2="14.1335" gradientUnits="userSpaceOnUse">
<stop stop-color="#FFAC1C"/>
<stop offset="0.99" stop-color="#F9D477"/>
</linearGradient>
<linearGradient id="paint4_linear_717_106088" x1="11.9942" y1="41.4141" x2="23.9425" y2="15.75" gradientUnits="userSpaceOnUse">
<stop stop-color="#FFAC1C"/>
<stop offset="0.95" stop-color="#FF6100"/>
</linearGradient>
<linearGradient id="paint5_linear_717_106088" x1="12.261" y1="40.516" x2="23.3309" y2="16.7406" gradientUnits="userSpaceOnUse">
<stop stop-color="#FFAC1C"/>
<stop offset="1" stop-color="#F9D445"/>
</linearGradient>
<linearGradient id="paint6_linear_717_106088" x1="20.2156" y1="23.5942" x2="23.8133" y2="15.6092" gradientUnits="userSpaceOnUse">
<stop stop-color="#FFCD25"/>
<stop offset="0.99" stop-color="white"/>
</linearGradient>
<linearGradient id="paint7_linear_717_106088" x1="21.8684" y1="19.7424" x2="23.9713" y2="15.0749" gradientUnits="userSpaceOnUse">
<stop stop-color="#FFCD25"/>
<stop offset="0.99" stop-color="white"/>
</linearGradient>
<radialGradient id="paint8_radial_717_106088" cx="0" cy="0" r="1" gradientUnits="userSpaceOnUse" gradientTransform="translate(28.8858 13.2129) rotate(90) scale(12.4205 12.4278)">
<stop stop-color="white"/>
<stop offset="1" stop-color="white" stop-opacity="0"/>
</radialGradient>
<radialGradient id="paint9_radial_717_106088" cx="0" cy="0" r="1" gradientUnits="userSpaceOnUse" gradientTransform="translate(16.1665 43.5226) rotate(90) scale(7.05837 7.83252)">
<stop stop-color="white"/>
<stop offset="1" stop-color="white" stop-opacity="0"/>
</radialGradient>
<linearGradient id="paint10_linear_717_106088" x1="25.5742" y1="15.6511" x2="19.8802" y2="36.9015" gradientUnits="userSpaceOnUse">
<stop stop-color="#FF6201"/>
<stop offset="1" stop-color="#FFA71A"/>
</linearGradient>
</defs>
</svg>
