<svg width="50" height="46" viewBox="0 0 50 46" fill="none" xmlns="http://www.w3.org/2000/svg">
<path d="M25.2862 0.620361C25.2862 0.620361 21.0586 2.11798 21.6883 4.10045C22.3179 6.08291 27.0789 13.7973 26.7145 14.0312C26.35 14.2652 25.2722 13.6388 24.2084 14.9086C23.1445 16.1784 22.8685 17.3389 22.5025 17.4867C22.1365 17.6345 19.9405 17.9038 19.742 17.7607C19.5435 17.6175 17.6996 16.8372 17.3134 17.0511C16.9273 17.2651 13.8892 19.1767 11.7863 22.015C9.68338 24.8532 10.2448 25.298 10.403 25.7937C10.5611 26.2893 11.2621 27.0619 11.2404 27.4421C11.2187 27.8223 10.7534 29.5985 9.95012 31.5579C9.14679 33.5173 8.83973 34.1883 8.9793 34.587C9.11888 34.9856 9.96407 35.8076 11.3831 36.5448C12.8021 37.2821 13.9869 38.5057 14.6057 38.9629C19.5311 42.6123 23.2996 43.3619 26.623 44.2284L34.0669 6.67242L25.2862 0.620361Z" fill="#FFE09E"/>
<path d="M42.3159 4.85166C41.3063 8.22862 40.061 11.5502 38.9041 14.9117C39.147 11.1962 39.3817 7.47648 39.6081 3.75269C40.0914 3.79322 40.5668 3.89939 41.0209 4.06822C41.5007 4.24144 41.9409 4.50777 42.3159 4.85166Z" fill="url(#paint0_linear_245_57688)"/>
<path d="M41.5124 4.16051C37.6649 1.96563 33.6529 0.457238 29.0532 0.0493553C27.0759 -0.126111 22.0403 0.911297 22.9429 3.70491C24.5356 8.63029 28.4483 13.3032 30.697 18.1855C32.6418 19.3933 34.5441 20.6113 36.404 21.8395C39.0544 20.1757 41.6768 18.5272 44.2574 16.9803C46.075 15.8906 49.6667 14.3253 49.9784 12.7353C50.4545 10.308 43.3207 7.36508 40.8844 5.75664C39.2762 4.69768 44.1442 5.66736 41.5124 4.16051Z" fill="url(#paint1_linear_245_57688)"/>
<path d="M27.676 16.1861C26.8851 11.978 22.9429 3.69871 22.9429 3.69871C23.098 3.47553 29.5385 4.95161 30.2317 6.5739C30.4675 7.11877 28.5429 10.0063 29.8471 11.3454C31.6213 13.1724 34.1724 13.9066 36.4319 14.7069C37.9114 15.2318 41.2488 16.1753 41.6442 15.4596C42.0924 14.6454 39.0636 10.1017 39.0636 10.1017C39.1381 9.9601 42.8213 11.2546 44.4264 11.9487C48.8586 13.8635 49.5751 13.4279 49.5751 13.4279C49.7302 13.9774 40.5804 22.3382 38.7101 22.6414C35.0718 23.2463 28.4638 20.3696 27.676 16.1861Z" fill="url(#paint2_linear_245_57688)"/>
<path d="M26.7502 2.27188C26.5579 2.50122 32.7721 3.12766 33.4901 5.43028C33.929 6.84017 30.6986 8.71951 30.9235 9.80617C31.2119 11.1683 36.2598 13.6249 37.8138 12.7306C38.3597 12.4228 36.449 8.67333 36.9267 8.14385C37.4462 7.56974 45.129 10.685 46.5495 11.1175C46.8364 11.2037 43.8713 9.05351 40.261 6.84632C37.5967 5.21787 36.7794 4.38364 37.1872 4.24357C37.8215 4.01731 39.4328 4.72072 39.2917 4.10504C37.2679 2.33499 29.0765 -0.494026 26.7502 2.27188Z" fill="url(#paint3_linear_245_57688)"/>
<g style="mix-blend-mode:multiply" opacity="0.5">
<path d="M29.1725 10.5467C28.935 12.0638 28.5867 13.5618 28.1303 15.0288C27.0122 13.6774 23.8516 5.72135 23.0623 3.8651C22.5412 2.63375 27.7597 4.80862 29.6718 6.01995C30.4473 6.50325 29.9355 7.45601 29.737 8.438C29.4377 9.91254 29.3183 9.61086 29.1725 10.5467Z" fill="#BE2F55"/>
</g>
<g style="mix-blend-mode:multiply" opacity="0.5">
<path d="M39.2156 10.1172C39.0605 10.425 41.9047 13.8328 41.6473 15.4705C41.2611 17.9193 37.9951 23.0648 37.9951 23.0648C38.1797 23.2926 47.6304 16.2724 49.161 13.9544C49.5596 13.351 45.6112 12.5491 44.2573 11.878C43.0415 11.2716 39.2776 9.99406 39.2156 10.1172Z" fill="#BE2F55"/>
</g>
<g style="mix-blend-mode:multiply" opacity="0.8">
<path d="M37.0647 4.29596C37.0477 4.25594 36.829 8.15161 37.0647 8.11159C38.4124 7.88225 46.5371 11.113 46.5371 11.113C46.6147 10.9806 44.4172 9.4753 41.1387 7.40818C37.2989 4.97782 37.2741 4.76079 37.0647 4.29596Z" fill="#AB4863"/>
</g>
<g style="mix-blend-mode:multiply">
<path d="M33.5212 5.85352C33.5661 7.59587 33.2854 10.2633 33.4436 11.9025C33.4436 11.9748 30.0117 10.2833 31.1903 9.07502C33.2467 6.96326 33.5212 5.85352 33.5212 5.85352Z" fill="#CC6377"/>
</g>
<g style="mix-blend-mode:multiply">
<path d="M36.77 8.41016C36.2133 10.5158 35.5045 12.6183 35.5852 12.646C35.6658 12.6737 37.7873 13.1693 37.9114 12.4336C38.0355 11.6978 37.4818 10.9483 37.1546 9.90778C36.9951 9.417 36.8667 8.91682 36.77 8.41016Z" fill="#CC6377"/>
</g>
<g style="mix-blend-mode:soft-light" opacity="0.5">
<path d="M29.9944 17.7192C30.2627 18.9505 31.6538 20.3358 33.5458 21.1161C36.9374 22.5014 33.3767 15.7844 32.882 15.0964C29.5276 10.4388 29.3105 14.5915 29.9944 17.7192Z" fill="#FFE0B3"/>
</g>
<path d="M45.3679 40.7084C45.1745 41.0039 44.9678 41.301 44.7475 41.5996C44.557 41.8706 44.4095 42.1691 44.3102 42.4846C43.8884 43.7159 43.8171 45.3121 43.2246 45.6615C42.9399 45.8281 42.6227 45.9331 42.2941 45.9693C41.1977 46.1078 39.9291 45.6753 38.4574 45.8061C29.7604 46.5757 17.8734 42.1521 14.0025 38.024C11.9229 35.8061 11.9415 36.845 10.0123 35.4074C9.84323 35.2797 9.66023 35.1365 9.45862 34.9688C8.93289 34.5301 9.75018 33.4481 10.3364 32.4845C10.4762 32.2615 10.6 32.029 10.707 31.7888C11.0823 30.9192 11.2312 29.9233 11.3274 28.8752C11.4824 27.1821 11.5042 25.3489 12.1229 23.7435C13.7389 19.5493 22.0808 15.8121 25.7205 18.8689C30.4645 22.8539 39.3274 24.3438 43.2944 25.9599C47.4972 27.6823 49.7815 34.056 45.3679 40.7084Z" fill="url(#paint4_radial_245_57688)"/>
<g style="mix-blend-mode:multiply" opacity="0.3">
<path d="M20.9113 18.8181C24.3433 19.5431 18.1199 33.0525 38.7008 42.9971C39.6623 43.4589 35.7977 43.2865 37.8882 45.1689C38.6806 45.8815 24.0518 46.5726 15.1345 38.4488C10.7922 34.4947 9.93929 27.1451 13.5372 23.3156C17.0669 19.5523 19.635 18.5472 20.9113 18.8181Z" fill="#BE2F55"/>
</g>
<path d="M17.6965 34.53C17.3863 34.3761 13.8194 28.478 11.5723 26.2708C11.5102 26.5786 11.5009 26.9018 11.4404 27.1943C10.9752 26.183 10.7596 25.9491 10.665 25.5166C10.7069 25.3488 11.1613 23.9774 14.2319 20.5373C16.6264 17.8499 18.2206 17.1511 18.2206 17.1511C19.4427 17.5221 21.3595 19.112 22.549 20.2002C23.8362 21.3808 25.9096 23.3571 26.2803 24.1821C26.516 24.7085 26.5423 25.5889 26.5423 25.5889C23.954 28.0347 18.2098 34.7901 17.6965 34.53Z" fill="url(#paint5_radial_245_57688)"/>
<g style="mix-blend-mode:multiply" opacity="0.3">
<path d="M17.6965 34.53C17.3863 34.3591 13.7217 28.4533 11.5102 26.5724C11.4482 26.8726 11.5009 26.9018 11.4404 27.2019C10.9876 26.183 10.6542 25.6474 10.8651 25.6089C12.0623 25.3873 16.0758 32.2905 16.9908 32.3105C18.2532 32.3367 23.2375 26.4154 26.2694 24.1882C26.5222 24.473 26.5315 25.595 26.5315 25.595C23.9773 28.0562 18.202 34.8132 17.6965 34.53Z" fill="#6A386F"/>
</g>
<g style="mix-blend-mode:multiply" opacity="0.6">
<path d="M16.9907 32.3106C17.2776 32.7277 17.4901 34.3423 17.7879 34.1314C18.9558 33.3164 20.046 32.3968 21.0446 31.384C21.0446 31.384 19.1402 34.9872 18.6517 35.8322C15.2569 41.6904 11.8978 33.2279 11.5908 31.5225C11.2793 29.7873 11.2719 28.0117 11.5691 26.2739C11.5691 26.2739 13.3634 28.1717 14.9638 30.2327C16.5643 32.2937 16.6868 31.8658 16.9907 32.3106Z" fill="#AB6363"/>
</g>
<path d="M23.5725 24.1836C23.5725 24.1836 21.938 25.1071 21.7751 25.4149C21.6123 25.7228 21.3471 26.4062 21.4945 26.5601C21.6418 26.714 23.3182 27.5205 23.7928 28.4471C24.2673 29.3737 24.0828 31.0853 24.0828 31.0853C24.0828 31.0853 24.7031 31.721 24.9388 31.8641C25.1745 32.0072 27.0169 30.3542 27.1534 29.7262C27.5287 27.9869 25.8988 24.5884 23.5725 24.1836Z" fill="url(#paint6_linear_245_57688)"/>
<path d="M11.684 30.1727C11.684 30.1727 12.8456 31.8274 13.041 31.9012C13.2364 31.9751 13.9374 31.7273 13.9606 31.5595C13.9839 31.3918 13.5233 30.5421 13.8241 29.9142C14.125 29.2862 15.9953 27.6916 15.9953 27.6916C15.9953 27.6916 16.2403 27.099 16.0403 26.882C15.9116 26.7434 14.7686 26.0246 14.2025 25.7784C14.0304 25.7091 13.1821 26.1493 13.1325 26.1709C12.2035 26.4895 11.0575 28.1149 11.684 30.1727Z" fill="url(#paint7_linear_245_57688)"/>
<path d="M24.9094 14.7301C23.9681 15.3288 22.6685 17.6191 22.9957 18.047C26.9115 23.1694 36.5638 26.8865 43.2711 25.9615C43.4903 26.0312 43.699 26.1301 43.8914 26.2554C44.7863 24.8394 44.853 23.331 43.9023 21.9365C43.9023 21.9365 43.0959 20.9253 41.8707 20.6821L40.6549 21.6056C37.9425 23.5665 35.3728 22.2874 33.3055 21.3639C31.3748 20.502 28.5616 17.9685 28.4484 16.9342C28.4484 16.8957 28.3119 15.4258 28.3119 15.4258C26.9844 14.4284 25.325 14.473 24.9094 14.7301Z" fill="url(#paint8_linear_245_57688)"/>
<g style="mix-blend-mode:multiply" opacity="0.5">
<path d="M45.3663 40.7099C45.0453 40.8638 44.9631 41.3025 44.746 41.6011C44.5555 41.8722 44.408 42.1707 44.3086 42.4861C44.3086 42.4861 36.7623 43.4389 37.6044 44.6271C38.4465 45.8154 42.2848 45.9708 42.2848 45.9708C41.1884 46.1094 39.9198 45.6768 38.4481 45.8077C29.7511 46.5773 17.864 42.1537 13.9932 38.0256C11.9135 35.8076 11.9322 36.8466 10.0029 35.409C10.0029 35.409 12.0454 36.3325 12.6998 35.4413C13.3543 34.5501 10.3162 32.4814 10.3162 32.4814C10.456 32.2584 10.5798 32.026 10.6868 31.7857C11.0621 30.9161 11.211 29.9203 11.3072 28.8721C10.5147 38.4473 27.718 49.003 45.3663 40.7099Z" fill="#BE2F55"/>
</g>
<g style="mix-blend-mode:soft-light" opacity="0.3">
<path d="M42.7655 26.9403C34.5833 28.832 26.2787 25.1179 25.8987 26.771C25.3746 29.0798 27.2479 39.9879 39.1536 41.1762C51.0592 42.3644 45.6283 26.2677 42.7655 26.9403Z" fill="#FFD197"/>
</g>
<g style="mix-blend-mode:soft-light" opacity="0.5">
<path d="M22.2326 25.5812C23.9276 26.5232 25.1311 27.9069 25.2924 29.52C25.4536 31.133 27.7907 29.5354 26.8525 27.4528C25.6118 24.7023 24.1463 24.2652 23.4329 24.4791C22.7195 24.6931 21.6014 25.2287 22.2326 25.5812Z" fill="#FFE0B3"/>
</g>
<g style="mix-blend-mode:multiply" opacity="0.6">
<path d="M21.7751 25.4119C21.437 25.9444 21.3362 26.5755 21.62 27.0588C21.9038 27.5421 22.5039 27.8592 22.6265 28.3809C22.749 28.9027 22.3489 29.9201 22.4714 30.1464C22.5939 30.3726 24.7077 31.9241 24.9403 31.861C25.1729 31.7979 26.091 29.934 24.8395 28.0531C24.0788 26.9127 23.0193 25.9996 21.7751 25.4119Z" fill="#AB6363"/>
</g>
<g style="mix-blend-mode:multiply" opacity="0.6">
<path d="M15.8387 27.6684C12.4734 27.1681 12.9076 31.4147 13.0333 31.681C13.4148 32.4906 15.8418 32.1227 15.651 31.6641C15.3528 30.9536 15.0035 30.2654 14.6058 29.6046C14.7655 29.4492 16.4993 27.7669 15.8387 27.6684Z" fill="#AB6363"/>
</g>
<g style="mix-blend-mode:multiply" opacity="0.6">
<path d="M15.5082 27.8731C14.1125 27.5176 13.4425 28.6889 13.3371 28.5488C13.1556 28.3103 12.5198 26.6095 12.1135 27.1836C11.504 28.044 11.5242 29.5832 11.7413 30.0542C12.9106 32.5907 13.6984 31.6718 13.8008 31.5702C13.9031 31.4687 13.5294 30.3989 13.7853 29.7956C14.0567 29.1537 15.792 27.9455 15.5082 27.8731Z" fill="#AB6363"/>
</g>
<g style="mix-blend-mode:soft-light" opacity="0.5">
<path d="M12.7464 26.6111C13.0224 27.0159 13.7963 27.2729 13.9653 27.3052C14.1343 27.3376 16.0481 26.9835 16.0325 26.8881C16.017 26.7927 14.4693 25.8107 14.1948 25.7845C13.9203 25.7584 12.5711 26.354 12.7464 26.6111Z" fill="#FFE0B3"/>
</g>
<g style="mix-blend-mode:multiply" opacity="0.5">
<path d="M24.3651 15.2119C24.21 18.5258 30.4753 23.4712 34.3446 24.7718C37.0973 25.6953 43.3053 26.8081 44.5428 23.9514C44.5428 23.9514 44.7429 24.8749 43.8915 26.2602C43.8915 26.2602 38.1535 28.9183 31.2507 25.7984C24.0146 22.5246 21.8264 17.7654 21.8264 17.7654L22.9461 17.8239C23.0319 17.4121 23.1765 17.0145 23.3757 16.6434C23.6734 16.1308 24.3651 15.2119 24.3651 15.2119Z" fill="#BE2F55"/>
</g>
<g style="mix-blend-mode:multiply" opacity="0.6">
<path d="M38.4372 45.8091C33.3086 45.5182 24.3418 42.7307 19.2225 38.5057C12.2934 32.7799 13.182 37.2405 13.182 37.2405C13.182 37.2405 15.6944 40.759 24.2285 43.6927C32.2106 46.4355 38.4372 45.8091 38.4372 45.8091Z" fill="#AB6363"/>
</g>
<g style="mix-blend-mode:multiply" opacity="0.2">
<path d="M17.5088 18.0516C16.5519 18.0301 12.8051 21.3408 17.3459 21.5917C19.6458 21.721 19.7761 31.4779 23.6562 26.2093C26.9346 21.7749 19.1449 18.0886 17.5088 18.0516Z" fill="#928B6F"/>
</g>
<g style="mix-blend-mode:soft-light" opacity="0.5">
<path d="M39.74 31.0761C41.4288 33.9036 43.0231 33.5019 42.1624 31.0853C41.3017 28.6688 39.0561 29.931 39.74 31.0761Z" fill="#FFE0B3"/>
</g>
<g style="mix-blend-mode:multiply" opacity="0.5">
<path d="M25.0644 20.4051C29.9666 27.3052 36.8693 27.3991 40.6688 26.1001C41.1713 25.9277 35.4798 26.0293 31.2832 23.9529C25.9748 21.324 24.2549 19.2661 25.0644 20.4051Z" fill="#BE2F55"/>
</g>
<g style="mix-blend-mode:multiply" opacity="0.5">
<path d="M29.2283 10.8205C28.9181 12.4859 28.3118 15.4196 28.3118 15.4196C28.3118 15.4196 25.0876 13.7573 24.8441 15.3272C24.6006 16.8972 27.7907 20.4604 31.86 21.6948C35.8224 22.8985 39.1287 22.8169 40.2205 21.918C42.5002 20.0417 43.5827 15.0179 42.3296 15.6551C41.4767 16.0907 38.5704 22.4275 38.7162 22.0104C39.6312 19.4138 41.2115 16.1615 40.6873 16.0076C38.8465 15.4535 34.9865 14.3699 31.9438 12.9292C28.8452 11.4393 29.388 9.97243 29.2283 10.8205Z" fill="#BE2F55"/>
</g>
<path d="M41.2518 21.6039C36.8134 25.0517 33.0852 23.0307 34.7756 24.1913C36.466 25.3518 43.3051 25.6273 43.7052 23.9435C44.1053 22.2596 42.0272 20.9975 41.2518 21.6039Z" fill="#FFE016"/>
<g style="mix-blend-mode:multiply" opacity="0.5">
<path d="M28.1304 15.0286C29.1012 13.454 29.6409 6.42614 27.6031 6.73705C25.5374 7.05105 27.6869 15.749 28.1304 15.0286Z" fill="#BE2F55"/>
</g>
<g style="mix-blend-mode:soft-light" opacity="0.5">
<path d="M26.1514 3.80798C31.6693 5.84739 29.9137 6.83862 31.08 7.06796C32.2462 7.2973 33.9552 6.14445 32.9533 5.00546C31.9515 3.86647 23.2452 2.73517 26.1514 3.80798Z" fill="white"/>
</g>
<g style="mix-blend-mode:soft-light" opacity="0.5">
<path d="M38.5272 9.89398C40.5681 12.1412 41.5544 14.8902 41.1062 15.3781C40.658 15.866 35.1712 14.1898 35.1045 13.6234C35.0378 13.057 37.6479 13.7219 37.9549 12.6999C38.262 11.6779 36.5995 7.76684 38.5272 9.89398Z" fill="white"/>
</g>
<g style="mix-blend-mode:soft-light" opacity="0.5">
<path d="M44.1272 8.79047C48.6556 11.7642 45.9044 11.6226 44.7568 11.561C43.6092 11.4994 50.0746 14.2592 49.6931 12.6384C48.7905 8.81048 43.6806 8.49649 44.1272 8.79047Z" fill="white"/>
</g>
<g style="mix-blend-mode:multiply" opacity="0.5">
<path d="M47.3078 15.4672C47.7979 14.4868 42.95 13.2954 42.0071 15.2687C41.6567 15.9998 38.9861 21.056 39.363 22.1811C39.6111 22.9184 46.7108 16.6616 47.3078 15.4672Z" fill="#BE2F55"/>
</g>
<g style="mix-blend-mode:multiply" opacity="0.5">
<path d="M33.4095 7.77308C32.0866 8.77201 30.7576 9.45387 31.4632 10.4359C32.1688 11.4179 33.0574 12.129 33.2265 11.2901C33.3955 10.4513 33.653 7.58684 33.4095 7.77308Z" fill="#BE2F55"/>
</g>
<path opacity="0.35" d="M15.3826 30.6744C16.4185 31.9981 16.8093 32.4213 17.1272 32.2936C17.4452 32.1658 19.9187 30.4204 20.2428 29.8017C20.567 29.1829 14.7824 29.9063 15.3826 30.6744Z" fill="url(#paint9_linear_245_57688)"/>
<g style="mix-blend-mode:soft-light" opacity="0.5">
<path d="M39.3521 11.8996C39.1071 13.8605 36.9995 14.37 38.6915 15.0411C40.3834 15.7122 41.469 15.5798 41.1728 14.5793C40.8766 13.5789 39.4141 11.3948 39.3521 11.8996Z" fill="#FFE0B3"/>
</g>
<g style="mix-blend-mode:multiply" opacity="0.6">
<path d="M28.3336 15.6628C26.7548 14.8932 26.4369 16.3215 28.2746 17.8684C30.1124 19.4153 30.4939 19.4707 30.4939 19.4707C30.4939 19.4707 28.9818 14.9747 28.76 14.3775C28.5383 13.7803 28.3336 15.6628 28.3336 15.6628Z" fill="#AB6363"/>
</g>
<g style="mix-blend-mode:multiply" opacity="0.3">
<path d="M18.6486 20.8607C20.0056 22.9386 22.7971 21.1916 21.3827 20.0465C19.9684 18.9013 17.9492 19.7848 18.6486 20.8607Z" fill="#C763A7"/>
</g>
<g style="mix-blend-mode:multiply" opacity="0.6">
<path d="M18.5772 20.7298C18.6517 20.0079 19.8768 19.1444 20.8135 19.8463C21.7502 20.5482 21.7114 21.0469 21.7114 21.0469C21.7114 21.0469 22.1627 20.1741 20.7809 19.6878C19.3992 19.2014 18.6191 19.8417 18.5617 20.1495C18.5286 20.3421 18.5339 20.5392 18.5772 20.7298Z" fill="#AB6363"/>
</g>
<g style="mix-blend-mode:multiply" opacity="0.3">
<path d="M16.4389 21.1407C17.1042 22.155 18.5557 21.2561 17.8346 20.7051C17.1135 20.1541 16.0915 20.6189 16.4389 21.1407Z" fill="#C763A7"/>
</g>
<g style="mix-blend-mode:multiply" opacity="0.6">
<path d="M16.4 21.0775C16.445 20.7204 17.0778 20.2772 17.5477 20.6158C18.0175 20.9544 17.9943 21.2007 17.9943 21.2007C17.9943 21.2007 18.2347 20.762 17.529 20.5373C16.8234 20.3126 16.4264 20.6404 16.3954 20.7959C16.3778 20.8891 16.3794 20.9849 16.4 21.0775Z" fill="#AB6363"/>
</g>
<path style="mix-blend-mode:screen" d="M28.084 34.8417C34.1997 28.7719 34.1997 18.9308 28.084 12.861C21.9683 6.79114 12.0527 6.79114 5.93701 12.861C-0.178709 18.9308 -0.178709 28.7719 5.93701 34.8417C12.0527 40.9115 21.9683 40.9115 28.084 34.8417Z" fill="url(#paint10_radial_245_57688)"/>
<path d="M14.4769 15.018C14.4777 15.1712 14.4209 15.3191 14.3177 15.4329C14.2145 15.5468 14.0722 15.6184 13.9186 15.6337C13.8463 15.6397 13.7736 15.6306 13.705 15.6069C13.6365 15.5832 13.5738 15.5454 13.521 15.4961C13.4682 15.4467 13.4264 15.3868 13.3985 15.3204C13.3705 15.2539 13.357 15.1823 13.3588 15.1103C13.3603 14.9588 13.4181 14.8131 13.5211 14.7012C13.6242 14.5893 13.7651 14.5191 13.9171 14.5039C13.9887 14.4977 14.0607 14.5064 14.1287 14.5294C14.1967 14.5525 14.259 14.5895 14.3118 14.6379C14.3645 14.6863 14.4064 14.7451 14.4349 14.8106C14.4633 14.8761 14.4776 14.9467 14.4769 15.018Z" fill="#6DFF00"/>
<path d="M14.19 18.3072C14.1667 18.9336 13.9791 19.1198 13.4146 19.1198C12.4841 18.9336 12.2918 17.4498 13.4363 17.4421C13.6512 17.4591 13.8508 17.5593 13.9919 17.7212C14.133 17.8831 14.2041 18.0936 14.19 18.3072Z" fill="#6DFF00"/>
<defs>
<linearGradient id="paint0_linear_245_57688" x1="37.1871" y1="7.82871" x2="41.554" y2="10.409" gradientUnits="userSpaceOnUse">
<stop stop-color="#932B1D"/>
<stop offset="1" stop-color="#CA450E"/>
</linearGradient>
<linearGradient id="paint1_linear_245_57688" x1="22.3783" y1="3.34489" x2="47.0134" y2="17.9017" gradientUnits="userSpaceOnUse">
<stop stop-color="#CF461D"/>
<stop offset="1" stop-color="#DE700E"/>
</linearGradient>
<linearGradient id="paint2_linear_245_57688" x1="21.5342" y1="6.08148" x2="45.567" y2="20.2824" gradientUnits="userSpaceOnUse">
<stop stop-color="#932B1D"/>
<stop offset="1" stop-color="#CA450E"/>
</linearGradient>
<linearGradient id="paint3_linear_245_57688" x1="34.2599" y1="12.2662" x2="38.0872" y2="3.21757" gradientUnits="userSpaceOnUse">
<stop stop-color="#8A0021"/>
<stop offset="1" stop-color="#A32414"/>
</linearGradient>
<radialGradient id="paint4_radial_245_57688" cx="0" cy="0" r="1" gradientUnits="userSpaceOnUse" gradientTransform="translate(34.5084 24.3236) rotate(11.8728) scale(24.4641 24.2961)">
<stop stop-color="#DE700E"/>
<stop offset="0.22" stop-color="#DB6B11"/>
<stop offset="0.47" stop-color="#D25E1A"/>
<stop offset="0.73" stop-color="#C4472A"/>
<stop offset="0.89" stop-color="#B93635"/>
<stop offset="1" stop-color="#EB5E00"/>
</radialGradient>
<radialGradient id="paint5_radial_245_57688" cx="0" cy="0" r="1" gradientUnits="userSpaceOnUse" gradientTransform="translate(25.5437 23.4662) rotate(30.202) scale(13.8006 13.7497)">
<stop offset="0.37" stop-color="#998A05"/>
<stop offset="0.68" stop-color="#83771E"/>
<stop offset="1" stop-color="#C3700E"/>
</radialGradient>
<linearGradient id="paint6_linear_245_57688" x1="20.4994" y1="27.2099" x2="25.6889" y2="31.9441" gradientUnits="userSpaceOnUse">
<stop stop-color="#8B111B"/>
<stop offset="1" stop-color="#9D1F11"/>
</linearGradient>
<linearGradient id="paint7_linear_245_57688" x1="14.1987" y1="33.6936" x2="16.2819" y2="27.8907" gradientUnits="userSpaceOnUse">
<stop stop-color="#8B111B"/>
<stop offset="1" stop-color="#9D1F11"/>
</linearGradient>
<linearGradient id="paint8_linear_245_57688" x1="22.8262" y1="18.2803" x2="44.8864" y2="22.9886" gradientUnits="userSpaceOnUse">
<stop stop-color="#FFA900"/>
<stop offset="1" stop-color="#FFC600"/>
</linearGradient>
<linearGradient id="paint9_linear_245_57688" x1="15.387" y1="30.2958" x2="19.9294" y2="31.2652" gradientUnits="userSpaceOnUse">
<stop stop-color="#C7CC34"/>
<stop offset="1" stop-color="#BBC200"/>
</linearGradient>
<radialGradient id="paint10_radial_245_57688" cx="0" cy="0" r="1" gradientUnits="userSpaceOnUse" gradientTransform="translate(17.0098 23.8511) scale(15.6603 15.5427)">
<stop stop-color="#40FF00"/>
<stop offset="0.21" stop-color="#19A117"/>
<stop offset="0.36" stop-color="#006625" stop-opacity="0.5"/>
<stop offset="0.44" stop-color="#00561F" stop-opacity="0.3"/>
<stop offset="0.69" stop-color="white" stop-opacity="0"/>
<stop offset="0.89" stop-color="white" stop-opacity="0"/>
<stop offset="1" stop-color="white" stop-opacity="0"/>
</radialGradient>
</defs>
</svg>
