<svg width="50" height="56" viewBox="0 0 50 56" fill="none" xmlns="http://www.w3.org/2000/svg">
<g filter="url(#filter0_d_24_39271)">
<path style="mix-blend-mode:screen" opacity="0.5" d="M15.3934 39.2399C14.9638 37.2482 14.8196 26.1661 17.8344 28.4394C20.8492 30.7128 23.2623 29.0074 23.2623 26.4493C23.2623 23.8912 19.8257 20.4803 18.1074 16.5015C16.3891 12.5228 16.2526 -0.410969 22.8389 2.15484C29.4252 4.72066 32.2896 6.84473 30.5713 1.8701C30.5713 1.8701 34.3894 -1.25598 37.826 0.591038C41.2627 2.43805 47.3248 14.5191 46.7526 17.2142C46.1803 19.9093 33.8652 25.8844 31.0009 22.0472C28.1365 18.21 29.7121 13.6618 26.992 12.3827C24.2719 11.1036 17.6359 16.9787 20.643 19.2521C23.65 21.5254 31.2878 29.5784 38.0121 28.4425C44.7365 27.3066 46.7479 33.9836 45.8888 38.5318L15.3934 39.2399Z" fill="url(#paint0_radial_24_39271)"/>
<path style="mix-blend-mode:screen" opacity="0.5" d="M32.0412 47.9325C39.3706 40.6582 39.3706 28.8641 32.0412 21.5897C24.7118 14.3154 12.8286 14.3154 5.49921 21.5897C-1.83016 28.8641 -1.83016 40.6582 5.49921 47.9325C12.8286 55.2069 24.7118 55.2069 32.0412 47.9325Z" fill="url(#paint1_radial_24_39271)"/>
<path d="M25.2861 10.6203C25.2861 10.6203 21.0586 12.118 21.6882 14.1004C22.3178 16.0829 27.0789 23.7973 26.7144 24.0312C26.35 24.2652 25.2722 23.6387 24.2083 24.9085C23.1444 26.1784 22.8684 27.3389 22.5024 27.4867C22.1364 27.6344 19.9404 27.9038 19.7419 27.7606C19.5434 27.6175 17.6995 26.8371 17.3133 27.0511C16.9272 27.265 13.8891 29.1767 11.7862 32.0149C9.68331 34.8532 10.2447 35.298 10.4029 35.7936C10.5611 36.2892 11.262 37.0619 11.2403 37.4421C11.2186 37.8223 10.7534 39.5985 9.95006 41.5579C9.14673 43.5172 8.83967 44.1883 8.97924 44.587C9.11882 44.9856 9.96401 45.8075 11.383 46.5448C12.802 47.2821 13.9868 48.5057 14.6056 48.9629C19.531 52.6122 23.2995 53.3618 26.6229 54.2284L34.0669 16.6724L25.2861 10.6203Z" fill="#FFE09E"/>
<path d="M42.3157 14.8515C41.3061 18.2285 40.0608 21.5501 38.9039 24.9116C39.1468 21.196 39.3815 17.4764 39.6079 13.7526C40.0912 13.7931 40.5666 13.8993 41.0207 14.0681C41.5005 14.2413 41.9407 14.5077 42.3157 14.8515Z" fill="url(#paint2_linear_24_39271)"/>
<path d="M41.5124 14.1604C37.6648 11.9656 33.6528 10.4572 29.0531 10.0493C27.0758 9.87383 22.0403 10.9112 22.9428 13.7048C24.5355 18.6302 28.4482 23.3032 30.6969 28.1855C32.6417 29.3932 34.544 30.6112 36.404 31.8395C39.0543 30.1756 41.6767 28.5272 44.2573 26.9803C46.0749 25.8905 49.6666 24.3252 49.9783 22.7352C50.4544 20.3079 43.3206 17.365 40.8843 15.7566C39.2761 14.6976 44.1441 15.6673 41.5124 14.1604Z" fill="url(#paint3_linear_24_39271)"/>
<path d="M27.6759 26.1861C26.885 21.978 22.9428 13.6987 22.9428 13.6987C23.0979 13.4755 29.5385 14.9516 30.2317 16.5739C30.4674 17.1188 28.5429 20.0063 29.8471 21.3453C31.6212 23.1724 34.1723 23.9065 36.4319 24.7069C37.9114 25.2318 41.2487 26.1753 41.6442 25.4596C42.0924 24.6454 39.0636 20.1017 39.0636 20.1017C39.1381 19.9601 42.8213 21.2545 44.4264 21.9487C48.8586 23.8634 49.5751 23.4279 49.5751 23.4279C49.7302 23.9773 40.5803 32.3382 38.71 32.6414C35.0718 33.2463 28.4638 30.3696 27.6759 26.1861Z" fill="url(#paint4_linear_24_39271)"/>
<path d="M26.7501 12.2719C26.5578 12.5012 32.7719 13.1277 33.49 15.4303C33.9288 16.8402 30.6985 18.7195 30.9234 19.8062C31.2118 21.1683 36.2597 23.6249 37.8137 22.7306C38.3595 22.4228 36.4489 18.6733 36.9266 18.1439C37.4461 17.5697 45.1289 20.685 46.5494 21.1175C46.8363 21.2037 43.8712 19.0535 40.2608 16.8463C37.5965 15.2179 36.7793 14.3836 37.1871 14.2436C37.8214 14.0173 39.4327 14.7207 39.2916 14.105C37.2678 12.335 29.0763 9.50597 26.7501 12.2719Z" fill="url(#paint5_linear_24_39271)"/>
<g style="mix-blend-mode:multiply" opacity="0.5">
<path d="M29.1725 20.5465C28.935 22.0636 28.5867 23.5616 28.1303 25.0286C27.0122 23.6772 23.8516 15.7212 23.0623 13.8649C22.5412 12.6336 27.7597 14.8084 29.6718 16.0198C30.4473 16.5031 29.9355 17.4558 29.737 18.4378C29.4377 19.9124 29.3183 19.6107 29.1725 20.5465Z" fill="#BE2F55"/>
</g>
<g style="mix-blend-mode:multiply" opacity="0.5">
<path d="M39.2156 20.1171C39.0605 20.4249 41.9047 23.8327 41.6473 25.4704C41.2611 27.9192 37.9951 33.0647 37.9951 33.0647C38.1796 33.2925 47.6303 26.2723 49.161 23.9543C49.5596 23.3509 45.6112 22.549 44.2573 21.8779C43.0415 21.2715 39.2776 19.9939 39.2156 20.1171Z" fill="#BE2F55"/>
</g>
<g style="mix-blend-mode:multiply" opacity="0.8">
<path d="M37.0646 14.2959C37.0475 14.2559 36.8289 18.1515 37.0646 18.1115C38.4123 17.8822 46.537 21.1129 46.537 21.1129C46.6145 20.9806 44.417 19.4752 41.1386 17.4081C37.2988 14.9778 37.274 14.7607 37.0646 14.2959Z" fill="#AB4863"/>
</g>
<g style="mix-blend-mode:multiply">
<path d="M33.521 15.8536C33.566 17.5959 33.2853 20.2633 33.4434 21.9025C33.4434 21.9749 30.0115 20.2833 31.1901 19.0751C33.2465 16.9633 33.521 15.8536 33.521 15.8536Z" fill="#CC6377"/>
</g>
<g style="mix-blend-mode:multiply">
<path d="M36.7699 18.4101C36.2132 20.5157 35.5045 22.6182 35.5851 22.646C35.6657 22.6737 37.7873 23.1693 37.9113 22.4335C38.0354 21.6978 37.4818 20.9482 37.1545 19.9077C36.9951 19.417 36.8666 18.9168 36.7699 18.4101Z" fill="#CC6377"/>
</g>
<g style="mix-blend-mode:soft-light" opacity="0.5">
<path d="M29.9944 27.7191C30.2627 28.9504 31.6538 30.3357 33.5458 31.1161C36.9374 32.5013 33.3768 25.7843 32.882 25.0963C29.5276 20.4388 29.3105 24.5915 29.9944 27.7191Z" fill="#FFE0B3"/>
</g>
<path d="M45.3677 50.7083C45.1744 51.0038 44.9676 51.3009 44.7474 51.5995C44.5569 51.8706 44.4094 52.169 44.31 52.4845C43.8882 53.7159 43.8169 55.312 43.2245 55.6614C42.9397 55.8281 42.6226 55.933 42.294 55.9692C41.1975 56.1077 39.929 55.6752 38.4572 55.8061C29.7602 56.5757 17.8732 52.152 14.0023 48.024C11.9227 45.806 11.9413 46.845 10.0121 45.4074C9.84304 45.2796 9.66005 45.1365 9.45844 44.9687C8.93271 44.53 9.74999 43.448 10.3362 42.4845C10.476 42.2614 10.5999 42.029 10.7068 41.7887C11.0821 40.9191 11.231 39.9233 11.3272 38.8751C11.4823 37.182 11.504 35.3488 12.1227 33.7434C13.7387 29.5492 22.0806 25.8121 25.7203 28.8689C30.4643 32.8538 39.3272 34.3437 43.2942 35.9599C47.497 37.6822 49.7813 44.056 45.3677 50.7083Z" fill="url(#paint6_radial_24_39271)"/>
<g style="mix-blend-mode:multiply" opacity="0.3">
<path d="M20.9113 28.8181C24.3432 29.543 18.1198 43.0524 38.7007 52.9971C39.6622 53.4588 35.7976 53.2864 37.8881 55.1688C38.6806 55.8815 24.0517 56.5726 15.1345 48.4488C10.7922 44.4946 9.9392 37.145 13.5371 33.3156C17.0668 29.5523 19.6349 28.5472 20.9113 28.8181Z" fill="#BE2F55"/>
</g>
<path d="M17.6964 44.53C17.3862 44.3761 13.8193 38.478 11.5722 36.2708C11.5102 36.5786 11.5009 36.9018 11.4404 37.1943C10.9751 36.183 10.7596 35.9491 10.665 35.5166C10.7069 35.3488 11.1612 33.9774 14.2319 30.5373C16.6263 27.8499 18.2206 27.1511 18.2206 27.1511C19.4426 27.5221 21.3594 29.1121 22.5489 30.2003C23.8361 31.3808 25.9095 33.3571 26.2802 34.1821C26.5159 34.7085 26.5423 35.5889 26.5423 35.5889C23.954 38.0347 18.2097 44.7901 17.6964 44.53Z" fill="url(#paint7_radial_24_39271)"/>
<g style="mix-blend-mode:multiply" opacity="0.3">
<path d="M17.6964 44.53C17.3862 44.3592 13.7216 38.4533 11.5102 36.5725C11.4481 36.8726 11.5009 36.9018 11.4404 37.202C10.9875 36.183 10.6541 35.6474 10.865 35.6089C12.0623 35.3873 16.0758 42.2905 16.9908 42.3105C18.2531 42.3367 23.2375 36.4155 26.2693 34.1883C26.5221 34.473 26.5314 35.5951 26.5314 35.5951C23.9772 38.0562 18.202 44.8132 17.6964 44.53Z" fill="#6A386F"/>
</g>
<g style="mix-blend-mode:multiply" opacity="0.6">
<path d="M16.9908 42.3105C17.2777 42.7276 17.4901 44.3422 17.7879 44.1314C18.9559 43.3164 20.046 42.3967 21.0446 41.3839C21.0446 41.3839 19.1402 44.9872 18.6517 45.8322C15.257 51.6903 11.8979 43.2279 11.5908 41.5225C11.2793 39.7872 11.272 38.0116 11.5691 36.2739C11.5691 36.2739 13.3634 38.1717 14.9638 40.2326C16.5643 42.2936 16.6868 41.8657 16.9908 42.3105Z" fill="#AB6363"/>
</g>
<path d="M23.5725 34.1837C23.5725 34.1837 21.9379 35.1072 21.7751 35.415C21.6122 35.7228 21.347 36.4062 21.4944 36.5601C21.6417 36.7141 23.3181 37.5206 23.7927 38.4472C24.2672 39.3738 24.0827 41.0853 24.0827 41.0853C24.0827 41.0853 24.703 41.721 24.9387 41.8642C25.1745 42.0073 27.0168 40.3542 27.1533 39.7262C27.5286 37.987 25.8987 34.5885 23.5725 34.1837Z" fill="url(#paint8_linear_24_39271)"/>
<path d="M11.6839 40.1726C11.6839 40.1726 12.8454 41.8272 13.0408 41.9011C13.2362 41.975 13.9372 41.7272 13.9605 41.5594C13.9837 41.3916 13.5231 40.542 13.824 39.914C14.1249 39.286 15.9951 37.6914 15.9951 37.6914C15.9951 37.6914 16.2402 37.0989 16.0401 36.8818C15.9114 36.7433 14.7684 36.0245 14.2024 35.7782C14.0303 35.709 13.182 36.1492 13.1323 36.1707C12.2034 36.4893 11.0573 38.1147 11.6839 40.1726Z" fill="url(#paint9_linear_24_39271)"/>
<path d="M24.9093 24.73C23.9679 25.3287 22.6683 27.619 22.9956 28.0469C26.9114 33.1693 36.5637 36.8864 43.271 35.9614C43.4902 36.0311 43.6989 36.13 43.8913 36.2554C44.7861 34.8393 44.8528 33.3309 43.9022 31.9364C43.9022 31.9364 43.0957 30.9252 41.8706 30.682L40.6548 31.6055C37.9424 33.5664 35.3727 32.2874 33.3054 31.3639C31.3746 30.5019 28.5615 27.9684 28.4483 26.9341C28.4483 26.8956 28.3118 25.4257 28.3118 25.4257C26.9843 24.4283 25.3249 24.473 24.9093 24.73Z" fill="url(#paint10_linear_24_39271)"/>
<g style="mix-blend-mode:multiply" opacity="0.5">
<path d="M45.3661 50.7098C45.0451 50.8637 44.9629 51.3024 44.7458 51.601C44.5553 51.8721 44.4078 52.1706 44.3085 52.486C44.3085 52.486 36.7622 53.4388 37.6043 54.627C38.4464 55.8153 42.2847 55.9708 42.2847 55.9708C41.1882 56.1093 39.9197 55.6768 38.4479 55.8076C29.7509 56.5772 17.8639 52.1536 13.993 48.0255C11.9134 45.8075 11.932 46.8465 10.0028 45.4089C10.0028 45.4089 12.0452 46.3324 12.6997 45.4412C13.3541 44.55 10.316 42.4814 10.316 42.4814C10.4558 42.2584 10.5797 42.0259 10.6867 41.7857C11.062 40.916 11.2109 39.9202 11.307 38.872C10.5145 48.4472 27.7178 59.0029 45.3661 50.7098Z" fill="#BE2F55"/>
</g>
<g style="mix-blend-mode:soft-light" opacity="0.3">
<path d="M42.7654 36.9403C34.5833 38.832 26.2787 35.1179 25.8987 36.771C25.3745 39.0798 27.2479 49.988 39.1536 51.1762C51.0592 52.3644 45.6282 36.2677 42.7654 36.9403Z" fill="#FFD197"/>
</g>
<g style="mix-blend-mode:soft-light" opacity="0.5">
<path d="M22.2326 35.5812C23.9276 36.5232 25.131 37.9069 25.2923 39.52C25.4536 41.1331 27.7907 39.5354 26.8524 37.4529C25.6118 34.7024 24.1463 34.2652 23.4329 34.4792C22.7195 34.6931 21.6014 35.2288 22.2326 35.5812Z" fill="#FFE0B3"/>
</g>
<g style="mix-blend-mode:multiply" opacity="0.6">
<path d="M21.7751 35.4119C21.437 35.9445 21.3362 36.5755 21.62 37.0588C21.9038 37.5421 22.5039 37.8592 22.6265 38.381C22.749 38.9028 22.3489 39.9202 22.4714 40.1464C22.5939 40.3727 24.7077 41.9242 24.9403 41.8611C25.1729 41.798 26.091 39.934 24.8395 38.0532C24.0788 36.9128 23.0193 35.9996 21.7751 35.4119Z" fill="#AB6363"/>
</g>
<g style="mix-blend-mode:multiply" opacity="0.6">
<path d="M15.8385 37.6684C12.4732 37.1681 12.9075 41.4147 13.0331 41.681C13.4146 42.4906 15.8416 42.1227 15.6509 41.6641C15.3527 40.9536 15.0033 40.2654 14.6056 39.6046C14.7653 39.4492 16.4992 37.7669 15.8385 37.6684Z" fill="#AB6363"/>
</g>
<g style="mix-blend-mode:multiply" opacity="0.6">
<path d="M15.5082 37.8731C14.1125 37.5175 13.4425 38.6888 13.337 38.5488C13.1556 38.3102 12.5198 36.6094 12.1134 37.1835C11.504 38.0439 11.5241 39.5831 11.7413 40.0541C12.9106 42.5907 13.6984 41.6718 13.8007 41.5702C13.9031 41.4686 13.5293 40.3989 13.7852 39.7955C14.0566 39.1537 15.792 37.9454 15.5082 37.8731Z" fill="#AB6363"/>
</g>
<g style="mix-blend-mode:soft-light" opacity="0.5">
<path d="M12.7462 36.6109C13.0222 37.0157 13.7961 37.2728 13.9651 37.3051C14.1342 37.3374 16.0479 36.9834 16.0324 36.888C16.0169 36.7926 14.4691 35.8106 14.1946 35.7844C13.9201 35.7582 12.5709 36.3539 12.7462 36.6109Z" fill="#FFE0B3"/>
</g>
<g style="mix-blend-mode:multiply" opacity="0.5">
<path d="M24.3649 25.2118C24.2098 28.5256 30.4752 33.471 34.3445 34.7716C37.0972 35.6951 43.3051 36.808 44.5426 33.9512C44.5426 33.9512 44.7427 34.8747 43.8913 36.26C43.8913 36.26 38.1533 38.9182 31.2506 35.7983C24.0144 32.5244 21.8262 27.7653 21.8262 27.7653L22.9459 27.8238C23.0317 27.4119 23.1764 27.0144 23.3755 26.6432C23.6733 26.1307 24.3649 25.2118 24.3649 25.2118Z" fill="#BE2F55"/>
</g>
<g style="mix-blend-mode:multiply" opacity="0.6">
<path d="M38.4371 55.8091C33.3085 55.5182 24.3417 52.7308 19.2224 48.5057C12.2933 42.78 13.182 47.2405 13.182 47.2405C13.182 47.2405 15.6943 50.7591 24.2284 53.6928C32.2105 56.4356 38.4371 55.8091 38.4371 55.8091Z" fill="#AB6363"/>
</g>
<g style="mix-blend-mode:multiply" opacity="0.2">
<path d="M17.5088 28.0516C16.5519 28.03 12.8051 31.3408 17.3459 31.5917C19.6458 31.721 19.7761 41.4778 23.6562 36.2092C26.9346 31.7748 19.1449 28.0885 17.5088 28.0516Z" fill="#928B6F"/>
</g>
<g style="mix-blend-mode:soft-light" opacity="0.5">
<path d="M39.7397 41.0761C41.4286 43.9036 43.0228 43.5018 42.1621 41.0853C41.3014 38.6688 39.0558 39.9309 39.7397 41.0761Z" fill="#FFE0B3"/>
</g>
<g style="mix-blend-mode:multiply" opacity="0.5">
<path d="M25.0644 30.405C29.9665 37.3051 36.8692 37.399 40.6687 36.0999C41.1712 35.9275 35.4797 36.0291 31.2831 33.9528C25.9747 31.3239 24.2548 29.266 25.0644 30.405Z" fill="#BE2F55"/>
</g>
<g style="mix-blend-mode:multiply" opacity="0.5">
<path d="M29.2283 20.8205C28.9181 22.4859 28.3118 25.4196 28.3118 25.4196C28.3118 25.4196 25.0876 23.7572 24.8441 25.3272C24.6006 26.8972 27.7907 30.4604 31.86 31.6948C35.8224 32.8984 39.1287 32.8169 40.2205 31.918C42.5002 30.0417 43.5827 25.0178 42.3296 25.6551C41.4767 26.0906 38.5704 32.4274 38.7162 32.0103C39.6312 29.4137 41.2115 26.1614 40.6873 26.0075C38.8465 25.4534 34.9865 24.3698 31.9438 22.9292C28.8452 21.4392 29.388 19.9724 29.2283 20.8205Z" fill="#BE2F55"/>
</g>
<path d="M41.2518 31.604C36.8134 35.0517 33.0852 33.0308 34.7756 34.1913C36.466 35.3519 43.3051 35.6274 43.7052 33.9435C44.1053 32.2597 42.0272 30.9975 41.2518 31.604Z" fill="#FFE016"/>
<g style="mix-blend-mode:multiply" opacity="0.5">
<path d="M28.1303 25.0286C29.1011 23.454 29.6408 16.4261 27.6031 16.737C25.5374 17.051 27.6868 25.7489 28.1303 25.0286Z" fill="#BE2F55"/>
</g>
<g style="mix-blend-mode:soft-light" opacity="0.5">
<path d="M26.1515 13.808C31.6693 15.8474 29.9138 16.8386 31.08 17.068C32.2462 17.2973 33.9552 16.1445 32.9534 15.0055C31.9515 13.8665 23.2452 12.7352 26.1515 13.808Z" fill="white"/>
</g>
<g style="mix-blend-mode:soft-light" opacity="0.5">
<path d="M38.527 19.8939C40.5679 22.1411 41.5542 24.8901 41.106 25.378C40.6578 25.8659 35.171 24.1898 35.1043 23.6233C35.0377 23.0569 37.6477 23.7218 37.9548 22.6998C38.2618 21.6778 36.5993 17.7668 38.527 19.8939Z" fill="white"/>
</g>
<g style="mix-blend-mode:soft-light" opacity="0.5">
<path d="M44.127 18.7903C48.6554 21.764 45.9043 21.6224 44.7567 21.5608C43.609 21.4993 50.0744 24.259 49.6929 22.6383C48.7903 18.8103 43.6804 18.4963 44.127 18.7903Z" fill="white"/>
</g>
<g style="mix-blend-mode:multiply" opacity="0.5">
<path d="M47.3078 25.4673C47.7978 24.4868 42.95 23.2955 42.0071 25.2687C41.6566 25.9998 38.9861 31.056 39.3629 32.1812C39.611 32.9184 46.7107 26.6617 47.3078 25.4673Z" fill="#BE2F55"/>
</g>
<g style="mix-blend-mode:multiply" opacity="0.5">
<path d="M33.4093 17.7729C32.0865 18.7718 30.7574 19.4537 31.463 20.4357C32.1687 21.4177 33.0573 22.1288 33.2263 21.2899C33.3954 20.4511 33.6528 17.5867 33.4093 17.7729Z" fill="#BE2F55"/>
</g>
<path opacity="0.35" d="M15.3826 40.6744C16.4185 41.9981 16.8093 42.4213 17.1272 42.2936C17.4452 42.1658 19.9187 40.4204 20.2428 39.8017C20.567 39.1829 14.7824 39.9063 15.3826 40.6744Z" fill="url(#paint11_linear_24_39271)"/>
<g style="mix-blend-mode:soft-light" opacity="0.5">
<path d="M39.352 21.8995C39.107 23.8604 36.9994 24.3698 38.6914 25.0409C40.3833 25.712 41.4689 25.5796 41.1727 24.5792C40.8765 23.5787 39.4141 21.3946 39.352 21.8995Z" fill="#FFE0B3"/>
</g>
<g style="mix-blend-mode:multiply" opacity="0.6">
<path d="M28.3335 25.6627C26.7547 24.8932 26.4368 26.3215 28.2745 27.8684C30.1123 29.4153 30.4938 29.4707 30.4938 29.4707C30.4938 29.4707 28.9817 24.9747 28.7599 24.3775C28.5382 23.7803 28.3335 25.6627 28.3335 25.6627Z" fill="#AB6363"/>
</g>
<g style="mix-blend-mode:multiply" opacity="0.3">
<path d="M18.6486 30.8606C20.0056 32.9385 22.7971 31.1915 21.3827 30.0463C19.9684 28.9012 17.9492 29.7847 18.6486 30.8606Z" fill="#C763A7"/>
</g>
<g style="mix-blend-mode:multiply" opacity="0.6">
<path d="M18.5773 30.7297C18.6517 30.0079 19.8768 29.1444 20.8135 29.8462C21.7502 30.5481 21.7115 31.0468 21.7115 31.0468C21.7115 31.0468 22.1628 30.1741 20.781 29.6877C19.3992 29.2013 18.6191 29.8416 18.5617 30.1495C18.5287 30.342 18.5339 30.5392 18.5773 30.7297Z" fill="#AB6363"/>
</g>
<g style="mix-blend-mode:multiply" opacity="0.3">
<path d="M16.4387 31.1407C17.104 32.155 18.5556 31.2561 17.8344 30.7051C17.1133 30.1541 16.0913 30.6189 16.4387 31.1407Z" fill="#C763A7"/>
</g>
<g style="mix-blend-mode:multiply" opacity="0.6">
<path d="M16.3999 31.0776C16.4449 30.7205 17.0776 30.2772 17.5475 30.6158C18.0174 30.9545 17.9942 31.2007 17.9942 31.2007C17.9942 31.2007 18.2345 30.7621 17.5289 30.5373C16.8233 30.3126 16.4263 30.6405 16.3953 30.7959C16.3777 30.8892 16.3793 30.985 16.3999 31.0776Z" fill="#AB6363"/>
</g>
<path style="mix-blend-mode:screen" opacity="0.5" d="M32.0865 34.8978C41.6552 34.8978 49.4122 27.199 49.4122 17.7021C49.4122 8.20517 41.6552 0.506378 32.0865 0.506378C22.5177 0.506378 14.7607 8.20517 14.7607 17.7021C14.7607 27.199 22.5177 34.8978 32.0865 34.8978Z" fill="url(#paint12_radial_24_39271)"/>
<path style="mix-blend-mode:screen" d="M26.3896 43.1602C31.5696 38.0191 31.5696 29.6837 26.3896 24.5426C21.2096 19.4015 12.8112 19.4015 7.63123 24.5426C2.45125 29.6837 2.45125 38.0191 7.63123 43.1602C12.8112 48.3013 21.2096 48.3013 26.3896 43.1602Z" fill="url(#paint13_radial_24_39271)"/>
<path d="M14.4769 25.0178C14.4777 25.171 14.4209 25.3189 14.3177 25.4328C14.2144 25.5466 14.0722 25.6182 13.9186 25.6335C13.8463 25.6396 13.7735 25.6305 13.705 25.6068C13.6365 25.583 13.5738 25.5453 13.521 25.4959C13.4681 25.4465 13.4264 25.3867 13.3985 25.3202C13.3705 25.2537 13.357 25.1822 13.3588 25.1102C13.3603 24.9586 13.4181 24.8129 13.5211 24.701C13.6241 24.5891 13.7651 24.5189 13.9171 24.5037C13.9886 24.4975 14.0607 24.5062 14.1287 24.5293C14.1966 24.5524 14.259 24.5893 14.3117 24.6377C14.3645 24.6861 14.4064 24.745 14.4348 24.8104C14.4633 24.8759 14.4776 24.9465 14.4769 25.0178Z" fill="#6DFF00"/>
<path d="M14.19 28.3071C14.1667 28.9335 13.9791 29.1197 13.4146 29.1197C12.4841 28.9335 12.2918 27.4497 13.4363 27.442C13.6512 27.459 13.8508 27.5592 13.9919 27.7211C14.133 27.883 14.2041 28.0935 14.19 28.3071Z" fill="#6DFF00"/>
</g>
<defs>
<filter id="filter0_d_24_39271" x="-3.99783" y="0.00724792" width="57.9988" height="63.9912" filterUnits="userSpaceOnUse" color-interpolation-filters="sRGB">
<feFlood flood-opacity="0" result="BackgroundImageFix"/>
<feColorMatrix in="SourceAlpha" type="matrix" values="0 0 0 0 0 0 0 0 0 0 0 0 0 0 0 0 0 0 127 0" result="hardAlpha"/>
<feOffset dy="4"/>
<feGaussianBlur stdDeviation="2"/>
<feComposite in2="hardAlpha" operator="out"/>
<feColorMatrix type="matrix" values="0 0 0 0 0 0 0 0 0 0 0 0 0 0 0 0 0 0 0.25 0"/>
<feBlend mode="normal" in2="BackgroundImageFix" result="effect1_dropShadow_24_39271"/>
<feBlend mode="normal" in="SourceGraphic" in2="effect1_dropShadow_24_39271" result="shape"/>
</filter>
<radialGradient id="paint0_radial_24_39271" cx="0" cy="0" r="1" gradientUnits="userSpaceOnUse" gradientTransform="translate(31.9298 19.0243) scale(25.3327 25.1425)">
<stop stop-color="#FF6B05"/>
<stop offset="0.21" stop-color="#B84D04"/>
<stop offset="0.42" stop-color="#773202"/>
<stop offset="0.61" stop-color="#441D01"/>
<stop offset="0.78" stop-color="#1F0D01"/>
<stop offset="0.91" stop-color="#080300"/>
<stop offset="1"/>
</radialGradient>
<radialGradient id="paint1_radial_24_39271" cx="0" cy="0" r="1" gradientUnits="userSpaceOnUse" gradientTransform="translate(18.7704 34.7611) rotate(6.64024) scale(18.7661 18.6291)">
<stop stop-color="#FF6B05"/>
<stop offset="0.21" stop-color="#B84D04"/>
<stop offset="0.42" stop-color="#773202"/>
<stop offset="0.61" stop-color="#441D01"/>
<stop offset="0.78" stop-color="#1F0D01"/>
<stop offset="0.91" stop-color="#080300"/>
<stop offset="1"/>
</radialGradient>
<linearGradient id="paint2_linear_24_39271" x1="37.1869" y1="17.8286" x2="41.5538" y2="20.4089" gradientUnits="userSpaceOnUse">
<stop stop-color="#932B1D"/>
<stop offset="1" stop-color="#CA450E"/>
</linearGradient>
<linearGradient id="paint3_linear_24_39271" x1="22.3782" y1="13.3448" x2="47.0133" y2="27.9016" gradientUnits="userSpaceOnUse">
<stop stop-color="#CF461D"/>
<stop offset="1" stop-color="#DE700E"/>
</linearGradient>
<linearGradient id="paint4_linear_24_39271" x1="21.5342" y1="16.0815" x2="45.567" y2="30.2824" gradientUnits="userSpaceOnUse">
<stop stop-color="#932B1D"/>
<stop offset="1" stop-color="#CA450E"/>
</linearGradient>
<linearGradient id="paint5_linear_24_39271" x1="34.2598" y1="22.2662" x2="38.0871" y2="13.2176" gradientUnits="userSpaceOnUse">
<stop stop-color="#8A0021"/>
<stop offset="1" stop-color="#A32414"/>
</linearGradient>
<radialGradient id="paint6_radial_24_39271" cx="0" cy="0" r="1" gradientUnits="userSpaceOnUse" gradientTransform="translate(34.5082 34.3235) rotate(11.8728) scale(24.4641 24.2961)">
<stop stop-color="#DE700E"/>
<stop offset="0.22" stop-color="#DB6B11"/>
<stop offset="0.47" stop-color="#D25E1A"/>
<stop offset="0.73" stop-color="#C4472A"/>
<stop offset="0.89" stop-color="#B93635"/>
<stop offset="1" stop-color="#EB5E00"/>
</radialGradient>
<radialGradient id="paint7_radial_24_39271" cx="0" cy="0" r="1" gradientUnits="userSpaceOnUse" gradientTransform="translate(25.5436 33.4662) rotate(30.202) scale(13.8006 13.7497)">
<stop offset="0.37" stop-color="#998A05"/>
<stop offset="0.68" stop-color="#83771E"/>
<stop offset="1" stop-color="#C3700E"/>
</radialGradient>
<linearGradient id="paint8_linear_24_39271" x1="20.4993" y1="37.21" x2="25.6889" y2="41.9442" gradientUnits="userSpaceOnUse">
<stop stop-color="#8B111B"/>
<stop offset="1" stop-color="#9D1F11"/>
</linearGradient>
<linearGradient id="paint9_linear_24_39271" x1="14.1985" y1="43.6935" x2="16.2817" y2="37.8906" gradientUnits="userSpaceOnUse">
<stop stop-color="#8B111B"/>
<stop offset="1" stop-color="#9D1F11"/>
</linearGradient>
<linearGradient id="paint10_linear_24_39271" x1="22.826" y1="28.2803" x2="44.8863" y2="32.9886" gradientUnits="userSpaceOnUse">
<stop stop-color="#FFA900"/>
<stop offset="1" stop-color="#FFC600"/>
</linearGradient>
<linearGradient id="paint11_linear_24_39271" x1="15.387" y1="40.2958" x2="19.9294" y2="41.2652" gradientUnits="userSpaceOnUse">
<stop stop-color="#C7CC34"/>
<stop offset="1" stop-color="#BBC200"/>
</linearGradient>
<radialGradient id="paint12_radial_24_39271" cx="0" cy="0" r="1" gradientUnits="userSpaceOnUse" gradientTransform="translate(32.0865 17.7021) scale(17.3258 17.1957)">
<stop stop-color="#FF0097"/>
<stop offset="0.17" stop-color="#E10060"/>
<stop offset="0.36" stop-color="#C20025"/>
<stop offset="0.47" stop-color="#97001D"/>
<stop offset="0.66" stop-color="#570011"/>
<stop offset="0.81" stop-color="#280008"/>
<stop offset="0.93" stop-color="#0B0002"/>
<stop offset="1"/>
</radialGradient>
<radialGradient id="paint13_radial_24_39271" cx="0" cy="0" r="1" gradientUnits="userSpaceOnUse" gradientTransform="translate(17.0099 33.8512) scale(13.2642 13.1646)">
<stop stop-color="#40FF00"/>
<stop offset="0.21" stop-color="#19A117"/>
<stop offset="0.36" stop-color="#006625"/>
<stop offset="0.44" stop-color="#00561F"/>
<stop offset="0.69" stop-color="#00280E"/>
<stop offset="0.89" stop-color="#000B04"/>
<stop offset="1"/>
</radialGradient>
</defs>
</svg>
