<svg width="50" height="56" viewBox="0 0 50 56" fill="none" xmlns="http://www.w3.org/2000/svg">
<path style="mix-blend-mode:screen" opacity="0.5" d="M15.3936 39.2399C14.964 37.2482 14.8198 26.1661 17.8346 28.4395C20.8494 30.7129 23.2625 29.0075 23.2625 26.4493C23.2625 23.8912 19.8259 20.4804 18.1075 16.5016C16.3892 12.5228 16.2528 -0.410892 22.8391 2.15492C29.4254 4.72074 32.2898 6.8448 30.5715 1.87017C30.5715 1.87017 34.3896 -1.2559 37.8262 0.591114C41.2628 2.43813 47.325 14.5192 46.7527 17.2143C46.1805 19.9094 33.8654 25.8845 31.0011 22.0473C28.1367 18.2101 29.7123 13.6618 26.9922 12.3828C24.2721 11.1037 17.6361 16.9788 20.6431 19.2521C23.6502 21.5255 31.288 29.5785 38.0123 28.4426C44.7367 27.3067 46.7481 33.9836 45.8889 38.5319L15.3936 39.2399Z" fill="#FF6B05" fill-opacity="0.5"/>
<path d="M25.2862 10.6204C25.2862 10.6204 21.0586 12.118 21.6883 14.1004C22.3179 16.0829 27.0789 23.7973 26.7145 24.0312C26.35 24.2652 25.2722 23.6388 24.2084 24.9086C23.1445 26.1784 22.8685 27.3389 22.5025 27.4867C22.1365 27.6345 19.9405 27.9038 19.742 27.7607C19.5435 27.6175 17.6996 26.8372 17.3134 27.0511C16.9273 27.2651 13.8892 29.1767 11.7863 32.015C9.68338 34.8532 10.2448 35.298 10.403 35.7937C10.5611 36.2893 11.2621 37.0619 11.2404 37.4421C11.2187 37.8223 10.7534 39.5985 9.95012 41.5579C9.14679 43.5173 8.83973 44.1883 8.9793 44.587C9.11888 44.9856 9.96407 45.8076 11.3831 46.5448C12.8021 47.2821 13.9869 48.5057 14.6057 48.9629C19.5311 52.6123 23.2996 53.3619 26.623 54.2284L34.0669 16.6724L25.2862 10.6204Z" fill="#FFE09E"/>
<path d="M42.3159 14.8517C41.3063 18.2286 40.061 21.5502 38.9041 24.9117C39.147 21.1962 39.3817 17.4765 39.6081 13.7527C40.0914 13.7932 40.5668 13.8994 41.0209 14.0682C41.5007 14.2414 41.9409 14.5078 42.3159 14.8517Z" fill="url(#paint0_linear_245_57688)"/>
<path d="M41.5124 14.1605C37.6649 11.9656 33.6529 10.4572 29.0532 10.0494C27.0759 9.87389 22.0403 10.9113 22.9429 13.7049C24.5356 18.6303 28.4483 23.3032 30.697 28.1855C32.6418 29.3933 34.5441 30.6113 36.404 31.8395C39.0544 30.1757 41.6768 28.5272 44.2574 26.9803C46.075 25.8906 49.6667 24.3253 49.9784 22.7353C50.4545 20.308 43.3207 17.3651 40.8844 15.7566C39.2762 14.6977 44.1442 15.6674 41.5124 14.1605Z" fill="url(#paint1_linear_245_57688)"/>
<path d="M27.676 26.1861C26.8851 21.978 22.9429 13.6987 22.9429 13.6987C23.098 13.4755 29.5385 14.9516 30.2317 16.5739C30.4675 17.1188 28.5429 20.0063 29.8471 21.3454C31.6213 23.1724 34.1724 23.9066 36.4319 24.7069C37.9114 25.2318 41.2488 26.1753 41.6442 25.4596C42.0924 24.6454 39.0636 20.1017 39.0636 20.1017C39.1381 19.9601 42.8213 21.2546 44.4264 21.9487C48.8586 23.8635 49.5751 23.4279 49.5751 23.4279C49.7302 23.9774 40.5804 32.3382 38.7101 32.6414C35.0718 33.2463 28.4638 30.3696 27.676 26.1861Z" fill="url(#paint2_linear_245_57688)"/>
<path d="M26.7502 12.2719C26.5579 12.5012 32.7721 13.1277 33.4901 15.4303C33.929 16.8402 30.6986 18.7195 30.9235 19.8062C31.2119 21.1683 36.2598 23.6249 37.8138 22.7306C38.3597 22.4228 36.449 18.6733 36.9267 18.1439C37.4462 17.5697 45.129 20.685 46.5495 21.1175C46.8364 21.2037 43.8713 19.0535 40.261 16.8463C37.5967 15.2179 36.7794 14.3836 37.1872 14.2436C37.8215 14.0173 39.4328 14.7207 39.2917 14.105C37.2679 12.335 29.0765 9.50597 26.7502 12.2719Z" fill="url(#paint3_linear_245_57688)"/>
<g style="mix-blend-mode:multiply" opacity="0.5">
<path d="M29.1725 20.5467C28.935 22.0638 28.5867 23.5618 28.1303 25.0288C27.0122 23.6774 23.8516 15.7214 23.0623 13.8651C22.5412 12.6338 27.7597 14.8086 29.6718 16.02C30.4473 16.5033 29.9355 17.456 29.737 18.438C29.4377 19.9125 29.3183 19.6109 29.1725 20.5467Z" fill="#BE2F55"/>
</g>
<g style="mix-blend-mode:multiply" opacity="0.5">
<path d="M39.2156 20.1172C39.0605 20.425 41.9047 23.8328 41.6473 25.4705C41.2611 27.9193 37.9951 33.0648 37.9951 33.0648C38.1797 33.2926 47.6304 26.2724 49.161 23.9544C49.5596 23.351 45.6112 22.5491 44.2573 21.878C43.0415 21.2716 39.2776 19.9941 39.2156 20.1172Z" fill="#BE2F55"/>
</g>
<g style="mix-blend-mode:multiply" opacity="0.8">
<path d="M37.0647 14.296C37.0477 14.2559 36.829 18.1516 37.0647 18.1116C38.4124 17.8823 46.5371 21.113 46.5371 21.113C46.6147 20.9806 44.4172 19.4753 41.1387 17.4082C37.2989 14.9778 37.2741 14.7608 37.0647 14.296Z" fill="#AB4863"/>
</g>
<g style="mix-blend-mode:multiply">
<path d="M33.5212 15.8535C33.5661 17.5959 33.2854 20.2633 33.4436 21.9025C33.4436 21.9748 30.0117 20.2833 31.1903 19.075C33.2467 16.9633 33.5212 15.8535 33.5212 15.8535Z" fill="#CC6377"/>
</g>
<g style="mix-blend-mode:multiply">
<path d="M36.77 18.4102C36.2133 20.5158 35.5045 22.6183 35.5852 22.646C35.6658 22.6737 37.7873 23.1693 37.9114 22.4336C38.0355 21.6978 37.4818 20.9483 37.1546 19.9078C36.9951 19.417 36.8667 18.9168 36.77 18.4102Z" fill="#CC6377"/>
</g>
<g style="mix-blend-mode:soft-light" opacity="0.5">
<path d="M29.9944 27.7192C30.2627 28.9505 31.6538 30.3358 33.5458 31.1161C36.9374 32.5014 33.3767 25.7844 32.882 25.0964C29.5276 20.4388 29.3105 24.5915 29.9944 27.7192Z" fill="#FFE0B3"/>
</g>
<path d="M45.3679 50.7084C45.1745 51.0039 44.9678 51.301 44.7475 51.5996C44.557 51.8706 44.4095 52.1691 44.3102 52.4846C43.8884 53.7159 43.8171 55.3121 43.2246 55.6615C42.9399 55.8281 42.6227 55.9331 42.2941 55.9693C41.1977 56.1078 39.9291 55.6753 38.4574 55.8061C29.7604 56.5757 17.8734 52.1521 14.0025 48.024C11.9229 45.8061 11.9415 46.845 10.0123 45.4074C9.84323 45.2797 9.66023 45.1365 9.45862 44.9688C8.93289 44.5301 9.75018 43.4481 10.3364 42.4845C10.4762 42.2615 10.6 42.029 10.707 41.7888C11.0823 40.9192 11.2312 39.9233 11.3274 38.8752C11.4824 37.1821 11.5042 35.3489 12.1229 33.7435C13.7389 29.5493 22.0808 25.8121 25.7205 28.8689C30.4645 32.8539 39.3274 34.3438 43.2944 35.9599C47.4972 37.6823 49.7815 44.056 45.3679 50.7084Z" fill="url(#paint4_radial_245_57688)"/>
<g style="mix-blend-mode:multiply" opacity="0.3">
<path d="M20.9113 28.8181C24.3433 29.5431 18.1199 43.0525 38.7008 52.9971C39.6623 53.4589 35.7977 53.2865 37.8882 55.1689C38.6806 55.8815 24.0518 56.5726 15.1345 48.4488C10.7922 44.4947 9.93929 37.1451 13.5372 33.3156C17.0669 29.5523 19.635 28.5472 20.9113 28.8181Z" fill="#BE2F55"/>
</g>
<path d="M17.6965 44.53C17.3863 44.3761 13.8194 38.478 11.5723 36.2708C11.5102 36.5786 11.5009 36.9018 11.4404 37.1943C10.9752 36.183 10.7596 35.9491 10.665 35.5166C10.7069 35.3488 11.1613 33.9774 14.2319 30.5373C16.6264 27.8499 18.2206 27.1511 18.2206 27.1511C19.4427 27.5221 21.3595 29.112 22.549 30.2002C23.8362 31.3808 25.9096 33.3571 26.2803 34.1821C26.516 34.7085 26.5423 35.5889 26.5423 35.5889C23.954 38.0347 18.2098 44.7901 17.6965 44.53Z" fill="url(#paint5_radial_245_57688)"/>
<g style="mix-blend-mode:multiply" opacity="0.3">
<path d="M17.6965 44.53C17.3863 44.3591 13.7217 38.4533 11.5102 36.5724C11.4482 36.8726 11.5009 36.9018 11.4404 37.2019C10.9876 36.183 10.6542 35.6474 10.8651 35.6089C12.0623 35.3873 16.0758 42.2905 16.9908 42.3105C18.2532 42.3367 23.2375 36.4154 26.2694 34.1882C26.5222 34.473 26.5315 35.595 26.5315 35.595C23.9773 38.0562 18.202 44.8132 17.6965 44.53Z" fill="#6A386F"/>
</g>
<g style="mix-blend-mode:multiply" opacity="0.6">
<path d="M16.9907 42.3106C17.2776 42.7277 17.4901 44.3423 17.7879 44.1314C18.9558 43.3164 20.046 42.3968 21.0446 41.384C21.0446 41.384 19.1402 44.9872 18.6517 45.8322C15.2569 51.6904 11.8978 43.2279 11.5908 41.5225C11.2793 39.7873 11.2719 38.0117 11.5691 36.2739C11.5691 36.2739 13.3634 38.1717 14.9638 40.2327C16.5643 42.2937 16.6868 41.8658 16.9907 42.3106Z" fill="#AB6363"/>
</g>
<path d="M23.5725 34.1836C23.5725 34.1836 21.938 35.1071 21.7751 35.4149C21.6123 35.7228 21.3471 36.4062 21.4945 36.5601C21.6418 36.714 23.3182 37.5205 23.7928 38.4471C24.2673 39.3737 24.0828 41.0853 24.0828 41.0853C24.0828 41.0853 24.7031 41.721 24.9388 41.8641C25.1745 42.0072 27.0169 40.3542 27.1534 39.7262C27.5287 37.9869 25.8988 34.5884 23.5725 34.1836Z" fill="url(#paint6_linear_245_57688)"/>
<path d="M11.684 40.1727C11.684 40.1727 12.8456 41.8274 13.041 41.9012C13.2364 41.9751 13.9374 41.7273 13.9606 41.5595C13.9839 41.3918 13.5233 40.5421 13.8241 39.9142C14.125 39.2862 15.9953 37.6916 15.9953 37.6916C15.9953 37.6916 16.2403 37.099 16.0403 36.882C15.9116 36.7434 14.7686 36.0246 14.2025 35.7784C14.0304 35.7091 13.1821 36.1493 13.1325 36.1709C12.2035 36.4895 11.0575 38.1149 11.684 40.1727Z" fill="url(#paint7_linear_245_57688)"/>
<path d="M24.9094 24.7301C23.9681 25.3288 22.6685 27.6191 22.9957 28.047C26.9115 33.1694 36.5638 36.8865 43.2711 35.9615C43.4903 36.0312 43.699 36.1301 43.8914 36.2554C44.7863 34.8394 44.853 33.331 43.9023 31.9365C43.9023 31.9365 43.0959 30.9253 41.8707 30.6821L40.6549 31.6056C37.9425 33.5665 35.3728 32.2874 33.3055 31.3639C31.3748 30.502 28.5616 27.9685 28.4484 26.9342C28.4484 26.8957 28.3119 25.4258 28.3119 25.4258C26.9844 24.4284 25.325 24.473 24.9094 24.7301Z" fill="url(#paint8_linear_245_57688)"/>
<g style="mix-blend-mode:multiply" opacity="0.5">
<path d="M45.3663 50.7099C45.0453 50.8638 44.9631 51.3025 44.746 51.6011C44.5555 51.8722 44.408 52.1707 44.3086 52.4861C44.3086 52.4861 36.7623 53.4389 37.6044 54.6271C38.4465 55.8154 42.2848 55.9708 42.2848 55.9708C41.1884 56.1094 39.9198 55.6768 38.4481 55.8077C29.7511 56.5773 17.864 52.1537 13.9932 48.0256C11.9135 45.8076 11.9322 46.8466 10.0029 45.409C10.0029 45.409 12.0454 46.3325 12.6998 45.4413C13.3543 44.5501 10.3162 42.4814 10.3162 42.4814C10.456 42.2584 10.5798 42.026 10.6868 41.7857C11.0621 40.9161 11.211 39.9203 11.3072 38.8721C10.5147 48.4473 27.718 59.003 45.3663 50.7099Z" fill="#BE2F55"/>
</g>
<g style="mix-blend-mode:soft-light" opacity="0.3">
<path d="M42.7655 36.9403C34.5833 38.832 26.2787 35.1179 25.8987 36.771C25.3746 39.0798 27.2479 49.9879 39.1536 51.1762C51.0592 52.3644 45.6283 36.2677 42.7655 36.9403Z" fill="#FFD197"/>
</g>
<g style="mix-blend-mode:soft-light" opacity="0.5">
<path d="M22.2326 35.5812C23.9276 36.5232 25.1311 37.9069 25.2924 39.52C25.4536 41.133 27.7907 39.5354 26.8525 37.4528C25.6118 34.7023 24.1463 34.2652 23.4329 34.4791C22.7195 34.6931 21.6014 35.2287 22.2326 35.5812Z" fill="#FFE0B3"/>
</g>
<g style="mix-blend-mode:multiply" opacity="0.6">
<path d="M21.7751 35.4119C21.437 35.9444 21.3362 36.5755 21.62 37.0588C21.9038 37.5421 22.5039 37.8592 22.6265 38.3809C22.749 38.9027 22.3489 39.9201 22.4714 40.1464C22.5939 40.3726 24.7077 41.9241 24.9403 41.861C25.1729 41.7979 26.091 39.934 24.8395 38.0531C24.0788 36.9127 23.0193 35.9996 21.7751 35.4119Z" fill="#AB6363"/>
</g>
<g style="mix-blend-mode:multiply" opacity="0.6">
<path d="M15.8387 37.6684C12.4734 37.1681 12.9076 41.4147 13.0333 41.681C13.4148 42.4906 15.8418 42.1227 15.651 41.6641C15.3528 40.9536 15.0035 40.2654 14.6058 39.6046C14.7655 39.4492 16.4993 37.7669 15.8387 37.6684Z" fill="#AB6363"/>
</g>
<g style="mix-blend-mode:multiply" opacity="0.6">
<path d="M15.5082 37.8731C14.1125 37.5176 13.4425 38.6889 13.3371 38.5488C13.1556 38.3103 12.5198 36.6095 12.1135 37.1836C11.504 38.044 11.5242 39.5832 11.7413 40.0542C12.9106 42.5907 13.6984 41.6718 13.8008 41.5702C13.9031 41.4687 13.5294 40.3989 13.7853 39.7956C14.0567 39.1537 15.792 37.9455 15.5082 37.8731Z" fill="#AB6363"/>
</g>
<g style="mix-blend-mode:soft-light" opacity="0.5">
<path d="M12.7464 36.6111C13.0224 37.0159 13.7963 37.2729 13.9653 37.3052C14.1343 37.3376 16.0481 36.9835 16.0325 36.8881C16.017 36.7927 14.4693 35.8107 14.1948 35.7845C13.9203 35.7584 12.5711 36.354 12.7464 36.6111Z" fill="#FFE0B3"/>
</g>
<g style="mix-blend-mode:multiply" opacity="0.5">
<path d="M24.3651 25.2119C24.21 28.5258 30.4753 33.4712 34.3446 34.7718C37.0973 35.6953 43.3053 36.8081 44.5428 33.9514C44.5428 33.9514 44.7429 34.8749 43.8915 36.2602C43.8915 36.2602 38.1535 38.9183 31.2507 35.7984C24.0146 32.5246 21.8264 27.7654 21.8264 27.7654L22.9461 27.8239C23.0319 27.4121 23.1765 27.0145 23.3757 26.6434C23.6734 26.1308 24.3651 25.2119 24.3651 25.2119Z" fill="#BE2F55"/>
</g>
<g style="mix-blend-mode:multiply" opacity="0.6">
<path d="M38.4372 55.8093C33.3086 55.5184 24.3418 52.731 19.2225 48.5059C12.2934 42.7802 13.182 47.2407 13.182 47.2407C13.182 47.2407 15.6944 50.7593 24.2285 53.6929C32.2106 56.4358 38.4372 55.8093 38.4372 55.8093Z" fill="#AB6363"/>
</g>
<g style="mix-blend-mode:multiply" opacity="0.2">
<path d="M17.5088 28.0516C16.5519 28.0301 12.8051 31.3408 17.3459 31.5917C19.6458 31.721 19.7761 41.4779 23.6562 36.2093C26.9346 31.7749 19.1449 28.0886 17.5088 28.0516Z" fill="#928B6F"/>
</g>
<g style="mix-blend-mode:soft-light" opacity="0.5">
<path d="M39.74 41.0761C41.4288 43.9036 43.0231 43.5019 42.1624 41.0853C41.3017 38.6688 39.0561 39.931 39.74 41.0761Z" fill="#FFE0B3"/>
</g>
<g style="mix-blend-mode:multiply" opacity="0.5">
<path d="M25.0644 30.4051C29.9666 37.3052 36.8693 37.3991 40.6688 36.1001C41.1713 35.9277 35.4798 36.0293 31.2832 33.9529C25.9748 31.324 24.2549 29.2661 25.0644 30.4051Z" fill="#BE2F55"/>
</g>
<g style="mix-blend-mode:multiply" opacity="0.5">
<path d="M29.2283 20.8205C28.9181 22.4859 28.3118 25.4196 28.3118 25.4196C28.3118 25.4196 25.0876 23.7573 24.8441 25.3272C24.6006 26.8972 27.7907 30.4604 31.86 31.6948C35.8224 32.8985 39.1287 32.8169 40.2205 31.918C42.5002 30.0417 43.5827 25.0179 42.3296 25.6551C41.4767 26.0907 38.5704 32.4275 38.7162 32.0104C39.6312 29.4138 41.2115 26.1615 40.6873 26.0076C38.8465 25.4535 34.9865 24.3699 31.9438 22.9292C28.8452 21.4393 29.388 19.9724 29.2283 20.8205Z" fill="#BE2F55"/>
</g>
<path d="M41.2518 31.6039C36.8134 35.0517 33.0852 33.0307 34.7756 34.1913C36.466 35.3518 43.3051 35.6273 43.7052 33.9435C44.1053 32.2596 42.0272 30.9975 41.2518 31.6039Z" fill="#FFE016"/>
<g style="mix-blend-mode:multiply" opacity="0.5">
<path d="M28.1304 25.0286C29.1012 23.454 29.6409 16.4261 27.6031 16.7371C25.5374 17.051 27.6869 25.749 28.1304 25.0286Z" fill="#BE2F55"/>
</g>
<g style="mix-blend-mode:soft-light" opacity="0.5">
<path d="M26.1514 13.808C31.6693 15.8474 29.9137 16.8386 31.08 17.068C32.2462 17.2973 33.9552 16.1445 32.9533 15.0055C31.9515 13.8665 23.2452 12.7352 26.1514 13.808Z" fill="white"/>
</g>
<g style="mix-blend-mode:soft-light" opacity="0.5">
<path d="M38.5272 19.894C40.5681 22.1412 41.5544 24.8902 41.1062 25.3781C40.658 25.866 35.1712 24.1898 35.1045 23.6234C35.0378 23.057 37.6479 23.7219 37.9549 22.6999C38.262 21.6779 36.5995 17.7668 38.5272 19.894Z" fill="white"/>
</g>
<g style="mix-blend-mode:soft-light" opacity="0.5">
<path d="M44.1272 18.7905C48.6556 21.7642 45.9044 21.6226 44.7568 21.561C43.6092 21.4994 50.0746 24.2592 49.6931 22.6384C48.7905 18.8105 43.6806 18.4965 44.1272 18.7905Z" fill="white"/>
</g>
<g style="mix-blend-mode:multiply" opacity="0.5">
<path d="M47.3078 25.4675C47.7979 24.487 42.95 23.2957 42.0071 25.2689C41.6567 26 38.9861 31.0562 39.363 32.1814C39.6111 32.9186 46.7108 26.6619 47.3078 25.4675Z" fill="#BE2F55"/>
</g>
<g style="mix-blend-mode:multiply" opacity="0.5">
<path d="M33.4095 17.7731C32.0866 18.772 30.7576 19.4539 31.4632 20.4359C32.1688 21.4179 33.0574 22.129 33.2265 21.2901C33.3955 20.4513 33.653 17.5868 33.4095 17.7731Z" fill="#BE2F55"/>
</g>
<path opacity="0.35" d="M15.3826 40.6744C16.4185 41.9981 16.8093 42.4213 17.1272 42.2936C17.4452 42.1658 19.9187 40.4204 20.2428 39.8017C20.567 39.1829 14.7824 39.9063 15.3826 40.6744Z" fill="url(#paint9_linear_245_57688)"/>
<g style="mix-blend-mode:soft-light" opacity="0.5">
<path d="M39.3521 21.8996C39.1071 23.8605 36.9995 24.37 38.6915 25.0411C40.3834 25.7122 41.469 25.5798 41.1728 24.5793C40.8766 23.5789 39.4141 21.3948 39.3521 21.8996Z" fill="#FFE0B3"/>
</g>
<g style="mix-blend-mode:multiply" opacity="0.6">
<path d="M28.3336 25.6628C26.7548 24.8932 26.4369 26.3215 28.2746 27.8684C30.1124 29.4153 30.4939 29.4707 30.4939 29.4707C30.4939 29.4707 28.9818 24.9747 28.76 24.3775C28.5383 23.7803 28.3336 25.6628 28.3336 25.6628Z" fill="#AB6363"/>
</g>
<g style="mix-blend-mode:multiply" opacity="0.3">
<path d="M18.6486 30.8607C20.0056 32.9386 22.7971 31.1916 21.3827 30.0465C19.9684 28.9013 17.9492 29.7848 18.6486 30.8607Z" fill="#C763A7"/>
</g>
<g style="mix-blend-mode:multiply" opacity="0.6">
<path d="M18.5772 30.7298C18.6517 30.0079 19.8768 29.1444 20.8135 29.8463C21.7502 30.5482 21.7114 31.0469 21.7114 31.0469C21.7114 31.0469 22.1627 30.1741 20.7809 29.6878C19.3992 29.2014 18.6191 29.8417 18.5617 30.1495C18.5286 30.3421 18.5339 30.5392 18.5772 30.7298Z" fill="#AB6363"/>
</g>
<g style="mix-blend-mode:multiply" opacity="0.3">
<path d="M16.4389 31.1407C17.1042 32.155 18.5557 31.2561 17.8346 30.7051C17.1135 30.1541 16.0915 30.6189 16.4389 31.1407Z" fill="#C763A7"/>
</g>
<g style="mix-blend-mode:multiply" opacity="0.6">
<path d="M16.4 31.0775C16.445 30.7204 17.0778 30.2772 17.5477 30.6158C18.0175 30.9544 17.9943 31.2007 17.9943 31.2007C17.9943 31.2007 18.2347 30.762 17.529 30.5373C16.8234 30.3126 16.4264 30.6404 16.3954 30.7959C16.3778 30.8891 16.3794 30.9849 16.4 31.0775Z" fill="#AB6363"/>
</g>
<path style="mix-blend-mode:screen" d="M28.084 44.8419C34.1997 38.7721 34.1997 28.931 28.084 22.8612C21.9683 16.7914 12.0527 16.7914 5.93701 22.8612C-0.178709 28.931 -0.178709 38.7721 5.93701 44.8419C12.0527 50.9117 21.9683 50.9117 28.084 44.8419Z" fill="url(#paint10_radial_245_57688)"/>
<path d="M14.4769 25.018C14.4777 25.1712 14.4209 25.3191 14.3177 25.4329C14.2145 25.5468 14.0722 25.6184 13.9186 25.6337C13.8463 25.6397 13.7736 25.6306 13.705 25.6069C13.6365 25.5832 13.5738 25.5454 13.521 25.4961C13.4682 25.4467 13.4264 25.3868 13.3985 25.3204C13.3705 25.2539 13.357 25.1823 13.3588 25.1103C13.3603 24.9588 13.4181 24.8131 13.5211 24.7012C13.6242 24.5893 13.7651 24.5191 13.9171 24.5039C13.9887 24.4977 14.0607 24.5064 14.1287 24.5294C14.1967 24.5525 14.259 24.5895 14.3118 24.6379C14.3645 24.6863 14.4064 24.7451 14.4349 24.8106C14.4633 24.8761 14.4776 24.9467 14.4769 25.018Z" fill="#6DFF00"/>
<path d="M14.19 28.3072C14.1667 28.9336 13.9791 29.1198 13.4146 29.1198C12.4841 28.9336 12.2918 27.4498 13.4363 27.4421C13.6512 27.4591 13.8508 27.5593 13.9919 27.7212C14.133 27.8831 14.2041 28.0936 14.19 28.3072Z" fill="#6DFF00"/>
<defs>
<linearGradient id="paint0_linear_245_57688" x1="37.1871" y1="17.8287" x2="41.554" y2="20.409" gradientUnits="userSpaceOnUse">
<stop stop-color="#932B1D"/>
<stop offset="1" stop-color="#CA450E"/>
</linearGradient>
<linearGradient id="paint1_linear_245_57688" x1="22.3783" y1="13.3449" x2="47.0134" y2="27.9017" gradientUnits="userSpaceOnUse">
<stop stop-color="#CF461D"/>
<stop offset="1" stop-color="#DE700E"/>
</linearGradient>
<linearGradient id="paint2_linear_245_57688" x1="21.5342" y1="16.0815" x2="45.567" y2="30.2824" gradientUnits="userSpaceOnUse">
<stop stop-color="#932B1D"/>
<stop offset="1" stop-color="#CA450E"/>
</linearGradient>
<linearGradient id="paint3_linear_245_57688" x1="34.2599" y1="22.2662" x2="38.0872" y2="13.2176" gradientUnits="userSpaceOnUse">
<stop stop-color="#8A0021"/>
<stop offset="1" stop-color="#A32414"/>
</linearGradient>
<radialGradient id="paint4_radial_245_57688" cx="0" cy="0" r="1" gradientUnits="userSpaceOnUse" gradientTransform="translate(34.5084 34.3236) rotate(11.8728) scale(24.4641 24.2961)">
<stop stop-color="#DE700E"/>
<stop offset="0.22" stop-color="#DB6B11"/>
<stop offset="0.47" stop-color="#D25E1A"/>
<stop offset="0.73" stop-color="#C4472A"/>
<stop offset="0.89" stop-color="#B93635"/>
<stop offset="1" stop-color="#EB5E00"/>
</radialGradient>
<radialGradient id="paint5_radial_245_57688" cx="0" cy="0" r="1" gradientUnits="userSpaceOnUse" gradientTransform="translate(25.5437 33.4662) rotate(30.202) scale(13.8006 13.7497)">
<stop offset="0.37" stop-color="#998A05"/>
<stop offset="0.68" stop-color="#83771E"/>
<stop offset="1" stop-color="#C3700E"/>
</radialGradient>
<linearGradient id="paint6_linear_245_57688" x1="20.4994" y1="37.2099" x2="25.6889" y2="41.9441" gradientUnits="userSpaceOnUse">
<stop stop-color="#8B111B"/>
<stop offset="1" stop-color="#9D1F11"/>
</linearGradient>
<linearGradient id="paint7_linear_245_57688" x1="14.1987" y1="43.6936" x2="16.2819" y2="37.8907" gradientUnits="userSpaceOnUse">
<stop stop-color="#8B111B"/>
<stop offset="1" stop-color="#9D1F11"/>
</linearGradient>
<linearGradient id="paint8_linear_245_57688" x1="22.8262" y1="28.2803" x2="44.8864" y2="32.9886" gradientUnits="userSpaceOnUse">
<stop stop-color="#FFA900"/>
<stop offset="1" stop-color="#FFC600"/>
</linearGradient>
<linearGradient id="paint9_linear_245_57688" x1="15.387" y1="40.2958" x2="19.9294" y2="41.2652" gradientUnits="userSpaceOnUse">
<stop stop-color="#C7CC34"/>
<stop offset="1" stop-color="#BBC200"/>
</linearGradient>
<radialGradient id="paint10_radial_245_57688" cx="0" cy="0" r="1" gradientUnits="userSpaceOnUse" gradientTransform="translate(17.0098 33.8513) scale(15.6603 15.5427)">
<stop stop-color="#40FF00"/>
<stop offset="0.21" stop-color="#19A117"/>
<stop offset="0.36" stop-color="#006625" stop-opacity="0.5"/>
<stop offset="0.44" stop-color="#00561F" stop-opacity="0.3"/>
<stop offset="0.69" stop-color="white" stop-opacity="0"/>
<stop offset="0.89" stop-color="white" stop-opacity="0"/>
<stop offset="1" stop-color="white" stop-opacity="0"/>
</radialGradient>
</defs>
</svg>
