<svg width="146" height="96" viewBox="0 0 146 96" fill="none" xmlns="http://www.w3.org/2000/svg">
<g filter="url(#filter0_dddd_2_144322)">
<path d="M40.6223 46.4723H38.4882H38.978H39.4678H39.8876H40.4824L41.7768 46.6823H42.1967L45.6952 47.242C45.6778 47.0558 45.6778 46.8684 45.6952 46.6823C45.6952 46.4374 45.6952 46.1925 45.6952 45.9126L40.6223 46.4723ZM40.6223 46.4723H38.4882H38.978H39.4678H39.8876H40.4824L41.7768 46.6823H42.1967L45.6952 47.242C45.6778 47.0558 45.6778 46.8684 45.6952 46.6823C45.6952 46.4374 45.6952 46.1925 45.6952 45.9126L40.6223 46.4723ZM40.6223 46.4723H38.4882H38.978H39.4678H39.8876H40.4824L41.7768 46.6823H42.1967L45.6952 47.242C45.6778 47.0558 45.6778 46.8684 45.6952 46.6823C45.6952 46.4374 45.6952 46.1925 45.6952 45.9126L40.6223 46.4723ZM115.211 47.8368C115.228 47.5805 115.228 47.3234 115.211 47.0671C115.211 46.8222 115.211 46.5773 115.211 46.2974C115.211 46.0175 115.211 45.2479 115.211 44.7231C115.211 44.1983 115.211 44.3033 115.211 44.1283V43.3586C114.869 40.6671 114.295 38.01 113.497 35.417C113.497 34.9272 113.217 34.4724 113.042 34.0176L112.517 32.5482C112.237 31.8135 111.957 31.0788 111.608 30.3791C111.608 30.3791 111.608 30.1342 111.608 29.9942C111.363 29.4695 111.118 28.9447 110.838 28.4549C108.667 24.3374 105.721 20.6784 102.162 17.6794C101.273 16.8788 100.339 16.1311 99.3627 15.4403C98.838 15.0555 98.3132 14.7406 97.7534 14.3908L97.2286 14.0759C91.893 11.082 85.8528 9.57193 79.7359 9.70273H65.7418C61.3583 9.58206 56.9951 10.3402 52.9092 11.9325C48.8234 13.5248 45.0977 15.9189 41.9518 18.9739C41.462 19.4986 40.9372 20.0234 40.4824 20.5482C38.9481 22.2962 37.5779 24.1817 36.3891 26.1808C36.1092 26.6356 35.8643 27.1254 35.5844 27.6152C34.7347 29.2397 33.9756 30.9099 33.3104 32.6181L32.8906 33.8426C32.6457 34.5423 32.4357 35.242 32.2258 35.9418C32.0159 36.6415 31.806 37.3762 31.6311 38.1108C31.4562 38.8455 31.3162 39.5452 31.1763 40.2799C30.855 41.9223 30.6214 43.5806 30.4766 45.2479V46.6123C30.4766 46.6123 30.4766 46.8572 30.4766 46.9621C30.4766 47.0671 30.4766 47.4869 30.4766 47.7668C30.4766 48.0467 30.4766 49.1312 30.4766 49.8309C30.4832 53.0591 30.7877 56.2797 31.3862 59.4519C31.3862 60.1866 31.7011 60.9213 31.876 61.656C32.0509 62.3907 32.4358 63.8251 32.7856 64.9096C33.1355 65.9942 33.2754 66.414 33.5553 67.1487C35.0235 71.1124 37.1268 74.8108 39.7827 78.0991C40.3075 78.7638 40.8672 79.3936 41.462 80.0233C42.7788 81.4212 44.219 82.6975 45.7652 83.8367L46.8847 84.6064C48.772 85.8893 50.8034 86.9461 52.9372 87.7551C53.6468 88.0481 54.3707 88.305 55.1063 88.5247C58.6338 89.5913 62.3015 90.122 65.9867 90.0991H79.9808C84.5891 90.2379 89.1743 89.3959 93.4325 87.6286C97.6907 85.8614 101.525 83.2094 104.68 79.8484C105.335 79.1699 105.954 78.4575 106.535 77.7143C106.947 77.2104 107.333 76.6849 107.689 76.1399C108.039 75.6501 108.389 75.1603 108.704 74.6356C109.019 74.1108 109.683 73.0262 110.138 72.2216C110.593 71.4169 110.628 71.277 110.838 70.8222C111.873 68.4926 112.715 66.0822 113.357 63.6152C113.357 63.4053 113.357 63.1953 113.357 62.9854C113.357 62.7755 113.357 62.4956 113.532 62.2857C113.707 62.0758 113.777 61.2712 113.882 60.7814C114.197 59.277 114.476 57.7726 114.651 56.2682C114.651 55.8134 114.651 55.3586 114.651 54.9038C114.651 53.2945 114.896 51.6852 114.896 50.0758C115.281 49.2362 115.246 48.5365 115.211 47.8368ZM46.6048 40.8397C46.6048 40.105 46.9897 39.4053 47.2346 38.6706C47.5444 37.7299 47.9065 36.8072 48.3191 35.9068C48.6104 35.2367 48.9374 34.5827 49.2987 33.9476C49.292 33.8661 49.292 33.7842 49.2987 33.7027C49.5113 33.317 49.7449 32.9433 49.9984 32.5832C51.6824 29.9811 54.0189 27.8657 56.775 26.4477C59.5311 25.0297 62.6106 24.3587 65.7068 24.5015H79.701C82.4333 24.3815 85.1567 24.8899 87.6617 25.9878C90.1667 27.0856 92.3863 28.7435 94.1499 30.8339C94.722 31.5214 95.2479 32.246 95.7243 33.003V33.2129C96.0041 33.6677 96.284 34.1225 96.5289 34.5773C97.9745 37.4292 98.9772 40.4847 99.5027 43.6385C99.5027 43.6385 99.5027 43.8834 99.5027 43.9884C99.5194 44.3264 99.5194 44.665 99.5027 45.003C99.5027 45.4228 99.5027 45.8076 99.5027 46.1925V47.0321C99.5027 48.4665 99.5027 49.4811 99.5027 49.9009C99.4868 51.2928 99.3933 52.6827 99.2228 54.0642C99.2228 54.484 99.2228 54.9038 99.0129 55.3936C98.7421 57.2326 98.3209 59.0463 97.7534 60.8163V61.2362C97.7534 61.656 97.4386 62.1108 97.2986 62.5656L97.0887 63.0204C95.7993 66.3834 93.6524 69.3505 90.8613 71.6268C90.1891 72.1333 89.4882 72.6006 88.7622 73.0262C85.8012 74.5913 82.4895 75.374 79.1412 75.3003H65.1471C63.0279 75.3192 60.9176 75.0245 58.8847 74.4256C57.6687 74.0642 56.4956 73.5715 55.3861 72.9563C54.6519 72.5756 53.96 72.1182 53.322 71.5918C52.0918 70.6366 50.9972 69.5185 50.0684 68.2682C49.5027 67.5424 48.9994 66.7699 48.564 65.9592C47.8216 64.6739 47.1896 63.328 46.6748 61.9359C46.4299 61.1662 46.185 60.4315 45.9751 59.6968C45.9717 59.6385 45.9717 59.5801 45.9751 59.5219C45.9751 59.0321 45.7302 58.5773 45.6252 58.1225C44.9833 55.428 44.6431 52.6706 44.6106 49.9009C44.6106 49.691 44.6106 49.3761 44.6106 48.9563C44.6106 48.5365 44.6106 48.1516 44.6106 47.6269C44.5933 47.4407 44.5933 47.2533 44.6106 47.0671C44.6106 46.8222 44.6106 46.5773 44.6106 46.2974C44.6106 46.0175 44.6107 45.4228 44.7856 44.968C45.3066 43.5672 45.9142 42.2001 46.6048 40.8747V40.8397ZM40.6223 46.4374H38.4882H38.978H39.4678H39.8876H40.4824L41.7768 46.6473H42.1967L45.6952 47.207C45.6778 47.0209 45.6778 46.8335 45.6952 46.6473C45.6952 46.4024 45.6952 46.1575 45.6952 45.8776L40.6223 46.4374ZM40.6223 46.4374H38.4882H38.978H39.4678H39.8876H40.4824L41.7768 46.6473H42.1967L45.6952 47.207C45.6778 47.0209 45.6778 46.8335 45.6952 46.6473C45.6952 46.4024 45.6952 46.1575 45.6952 45.8776L40.6223 46.4374ZM40.6223 46.4374H38.4882H38.978H39.4678H39.8876H40.4824L41.7768 46.6473H42.1967L45.6952 47.207C45.6778 47.0209 45.6778 46.8335 45.6952 46.6473C45.6952 46.4024 45.6952 46.1575 45.6952 45.8776L40.6223 46.4374Z" fill="#9E4000"/>
<g filter="url(#filter1_d_2_144322)">
<path d="M115.246 44.6531C115.246 44.2333 115.246 43.7785 115.246 43.3237C115.112 40.6794 114.784 38.0485 114.267 35.452C114.267 34.9972 114.267 34.5424 113.987 34.0876C113.971 33.9949 113.971 33.9003 113.987 33.8077C113.812 33.073 113.602 32.3383 113.392 31.6036C113.182 30.8689 113.147 30.8339 113.042 30.4141L112.517 28.9097C111.305 25.3918 109.61 22.0596 107.479 19.0089C106.947 18.2332 106.375 17.4858 105.765 16.7698C102.628 12.962 98.66 9.92286 94.1665 7.8853C89.6729 5.84774 84.7726 4.86581 79.8409 5.01473H65.8468C61.122 4.94952 56.4329 5.8421 52.0625 7.63863C50.6852 8.21636 49.3521 8.89457 48.0742 9.66778C44.0055 12.1771 40.5221 15.5293 37.8585 19.4987C37.5436 19.9885 37.2288 20.4783 36.9489 20.9681C36.669 21.4578 35.9693 22.6124 35.5495 23.417C35.1296 24.2217 34.5699 25.3762 34.15 26.3908C33.9401 26.8456 33.7652 27.3354 33.5903 27.7902C32.9881 29.3579 32.4742 30.958 32.0509 32.5832C32.0509 33.003 31.806 33.4578 31.7011 33.9126C31.5961 34.3674 31.7011 34.7873 31.4212 35.2071C31.1413 35.6269 31.1413 36.7115 31.0013 37.4462L30.6865 39.5803L30.4766 41.8193C30.4766 42.9738 30.4766 44.1633 30.4766 45.3179V46.6823C30.4766 47.0671 30.4766 47.452 30.4766 47.8368C30.4766 48.2216 30.4766 48.3616 30.4766 48.6065C30.6391 51.5164 31.0488 54.4073 31.7011 57.2479L32.0159 58.6123C32.2608 59.4869 32.5057 60.3965 32.7856 61.2712C33.0655 62.1458 33.3104 62.7755 33.5903 63.5102C33.8701 64.2449 34.4999 65.7843 35.0247 67.0088C35.5494 68.2333 35.7943 68.5481 36.2142 69.3178C36.634 70.0875 36.9839 70.6473 37.4037 71.277C37.8235 71.9067 37.9984 72.1866 38.3133 72.6414C40.8252 76.2841 44.0507 79.3788 47.7943 81.7376L49.3687 82.6472C52.4575 84.3424 55.8014 85.524 59.2695 86.1458C60.3891 86.3207 61.5086 86.4606 62.7681 86.5656C63.8176 86.5656 64.9022 86.5656 66.0217 86.5656H80.0158C86.383 86.6829 92.6534 84.9971 98.1033 81.7026C99.1363 81.0514 100.129 80.3388 101.077 79.5685C102.181 78.7113 103.221 77.7759 104.191 76.7697C104.681 76.2799 105.135 75.7551 105.625 75.1954C106.372 74.3107 107.072 73.3882 107.724 72.4315L108.669 71.0671C109.926 69.0252 111.014 66.8839 111.922 64.6648L112.447 63.4053C112.447 63.0554 112.692 62.7406 112.797 62.3907V62.0758C113.452 60.1272 113.989 58.1411 114.406 56.1283C114.406 55.6735 114.406 55.2187 114.651 54.7639C115.007 52.7272 115.241 50.6711 115.351 48.6065C115.368 48.3502 115.368 48.0931 115.351 47.8368C115.351 47.1721 115.351 46.4724 115.351 45.8077C115.342 45.4209 115.307 45.0352 115.246 44.6531Z" fill="url(#paint0_linear_2_144322)"/>
</g>
<g style="mix-blend-mode:overlay" opacity="0.5">
<path d="M31.7006 33.9475H46.2195L47.0242 34.6122C42.8568 34.3066 38.6685 34.4591 34.5344 35.067C31.3507 35.6967 30.5811 40.1749 30.5811 40.1749C31.2458 36.7463 31.4907 34.4023 31.7006 33.9475Z" fill="#FFDE55"/>
</g>
<g style="mix-blend-mode:overlay" opacity="0.5">
<path d="M33.5899 27.8251C33.5899 27.8251 48.0039 26.3906 49.7182 25.9708L49.1234 27.2653C49.1234 27.2653 42.1263 27.6151 39.4675 27.86C37.355 27.9776 35.2582 28.2938 33.2051 28.8046L33.5899 27.8251Z" fill="#FFDE55"/>
</g>
<g style="mix-blend-mode:overlay" opacity="0.5">
<path d="M36.9482 21.0028C42.7196 20.4044 48.4381 19.3753 54.056 17.9241C54.056 17.9241 46.779 20.0232 41.7761 21.0728C38.2776 21.8074 36.3184 22.1223 35.9336 22.787C36.2317 22.1704 36.5707 21.5743 36.9482 21.0028Z" fill="#FFDE55"/>
</g>
<g style="mix-blend-mode:overlay" opacity="0.5">
<path d="M30.3357 46.7168H33.8343C37.507 47.6998 41.2333 48.4708 44.9946 49.0258L45.5194 50.3903L39.5019 48.676C37.7255 48.06 35.8813 47.6606 34.0092 47.4865C32.7847 47.4865 30.5107 47.7314 30.5107 49.2707C30.3814 48.4258 30.3229 47.5715 30.3357 46.7168Z" fill="#FFDE55"/>
</g>
<g style="mix-blend-mode:overlay" opacity="0.5">
<path d="M31.9463 58.6474L49.0891 59.697L49.8938 60.7116C49.8938 60.7116 33.0308 59.697 32.4011 59.4871L31.9463 58.6474Z" fill="#FFDE55"/>
</g>
<g style="mix-blend-mode:overlay" opacity="0.5">
<path d="M38.4872 72.5365C38.4872 72.5365 53.356 73.1662 58.8487 73.0962C64.3414 73.0263 73.2627 73.0962 73.2627 73.0962L72.0732 73.586C72.0732 73.586 59.0236 73.586 55.5251 73.586C52.0266 73.586 41.8458 73.0613 41.2511 73.9709C41.0252 74.3479 40.9302 74.7889 40.9808 75.2254C41.0314 75.662 41.2248 76.0696 41.531 76.3849C41.531 76.3849 38.1374 72.9913 38.4872 72.5365Z" fill="#FFDE55"/>
</g>
<g style="mix-blend-mode:overlay" opacity="0.5">
<path d="M49.5791 82.5421C49.5791 82.5421 59.48 79.0436 61.9989 78.5538C64.5179 78.064 77.9522 73.166 77.9522 73.166L107.445 72.4313L106.64 73.7958C106.64 73.7958 99.6432 73.271 95.235 73.3759C88.3794 73.2854 81.5296 73.8123 74.7686 74.9503C70.0106 76.3497 51.0485 82.857 52.3429 83.8715C52.3429 83.8715 50.3838 82.9619 49.5791 82.5421Z" fill="#FFDE55"/>
</g>
<g style="mix-blend-mode:overlay" opacity="0.5">
<path d="M63.5029 86.3558C63.5029 86.3558 77.9169 82.2975 83.7944 80.8981C89.672 79.4987 103.491 76.8048 103.491 76.8048C103.491 76.8048 93.6253 79.7786 85.1589 81.7028C76.6924 83.627 67.8761 86.3558 67.8761 86.3558H63.5029Z" fill="#FFDE55"/>
</g>
<g style="mix-blend-mode:overlay" opacity="0.5">
<path d="M112.167 63.4049C112.167 63.4049 94.674 62.3904 92.7149 62.3554L90.7207 63.8597C90.7207 63.8597 97.7178 63.6149 102.861 63.6149C105.821 63.736 108.762 64.1462 111.642 64.8393L112.167 63.4049Z" fill="#FFDE55"/>
</g>
<g style="mix-blend-mode:overlay" opacity="0.5">
<path d="M98.3834 55.4284L114.232 56.1281L113.987 57.6325C113.987 57.6325 107.55 57.0727 105.835 57.0727C104.121 57.0727 97.5088 56.7228 97.5088 56.7228L98.3834 55.4284Z" fill="#FFDE55"/>
</g>
<g style="mix-blend-mode:overlay" opacity="0.5">
<path d="M101.252 45.248L115.246 44.6532V45.4929C115.246 45.4929 102.826 45.9127 100.657 45.8427C98.4879 45.7728 101.252 45.248 101.252 45.248Z" fill="#FFDE55"/>
</g>
<g style="mix-blend-mode:overlay" opacity="0.5">
<path d="M100.027 34.6821L114.231 35.4517L114.476 36.7812C114.476 36.7812 103.561 35.6966 99.7821 35.4168C96.0037 35.1369 100.027 34.6821 100.027 34.6821Z" fill="#FFDE55"/>
</g>
<g style="mix-blend-mode:overlay" opacity="0.5">
<path d="M112.203 30.2739L95.6547 26.4955L90.9316 27.2302C98.0904 27.6897 105.202 28.7074 112.203 30.2739Z" fill="#FFDE55"/>
</g>
<g style="mix-blend-mode:overlay" opacity="0.5">
<path d="M86.0684 18.7636L94.6748 16.0697L96.2491 16.1747L86.838 19.6033L86.0684 18.7636Z" fill="#FFDE55"/>
</g>
<g opacity="0.5">
<path d="M79.7349 83.7665H65.7408C41.8808 83.7665 30.7554 63.545 30.2656 44.2681C30.2656 44.6879 30.2656 45.0727 30.2656 45.4926C30.2656 65.1543 41.391 86.2855 65.7758 86.2855H79.7699C104.26 86.2855 115.315 65.2943 115.315 45.4926C115.315 45.0727 115.315 44.6879 115.315 44.2681C114.79 63.615 103.63 83.7665 79.7349 83.7665Z" fill="url(#paint1_linear_2_144322)"/>
</g>
<g style="mix-blend-mode:multiply" opacity="0.7">
<path d="M81.3453 74.1111H65.1821C45.0305 74.1111 44.4707 50.7409 44.4707 48.047C44.4707 45.3531 45.0305 22.0179 65.1821 22.0179H81.3453C101.532 22.0179 102.092 45.3881 102.092 48.047C102.092 50.7059 101.532 74.1111 81.3453 74.1111Z" fill="#9E4000"/>
</g>
<g style="mix-blend-mode:multiply" opacity="0.5">
<path d="M111.083 29.9595C97.089 26.461 73.4738 22.0528 73.1939 22.0178V21.738L67.8762 22.9974C58.64 25.0616 44.1211 26.7409 35.8296 27.6155L33.7305 27.8254C33.7305 27.3706 34.0803 26.8808 34.2902 26.426L36.3894 26.1811C44.7858 25.2715 58.5001 23.6622 67.3514 21.703C79.6313 18.9741 94.3951 14.7059 97.019 14.0762H97.4388V14.496L97.6837 15.3706C97.6837 15.3706 86.8033 18.4843 75.538 21.2482C81.6254 22.4377 98.5234 25.7613 110.104 28.5251L112.203 29.0149L112.727 30.5193L111.083 29.9595Z" fill="#C97B3A"/>
<path d="M63.1532 14.9154C54.7159 18.0602 45.9089 20.1062 36.9492 21.0029C37.2291 20.5131 37.544 20.0233 37.8588 19.5335C46.33 18.6254 54.6524 16.6505 62.6285 13.656L63.1532 14.9154Z" fill="#C97B3A"/>
<path d="M114.232 35.6266H113.113C108.774 35.3117 103.072 35.0668 96.6695 34.8569C81.8357 34.4371 63.2935 34.2621 49.2993 34.2272H31.8066C31.8066 33.7724 32.0165 33.3175 32.1565 32.8977H50.2439C63.8532 32.8977 81.5558 33.1076 95.9698 33.5275C102.477 33.5275 108.285 33.9473 112.763 34.2621H114.057C114.057 34.542 114.127 34.9968 114.232 35.6266Z" fill="#C97B3A"/>
<path d="M114.477 54.7635H115.037C115.037 55.2183 115.037 55.6731 115.037 56.1279H114.372C109.684 56.1279 104.821 55.778 99.8879 55.4282C79.4914 54.0288 58.2203 51.02 45.5556 48.9909C41.6761 48.421 37.8329 47.6266 34.0454 46.6119H30.5469V45.2475H30.7568L45.9754 44.8976L99.8529 43.5682L115.037 43.2183H115.421C115.421 43.6731 115.421 44.1279 115.421 44.5477H115.176L100.028 44.8976L45.7655 46.1921H40.7976H38.4885H38.9783H39.4681H39.888H40.4827L41.7772 46.402H42.197L45.6955 46.9617C58.3602 48.9559 79.7013 51.9996 100.168 53.399C104.891 54.4136 109.859 54.6585 114.477 54.7635Z" fill="#C97B3A"/>
<path d="M113.777 62.1456C113.777 62.3555 113.777 62.6004 113.602 62.8453C113.427 63.0902 113.602 63.2651 113.602 63.475H112.343L98.0687 62.6703L46.8852 59.5566L32.0863 58.647L31.7715 57.2826L46.5353 58.1572C61.3691 59.0668 81.5207 60.2913 98.4886 61.2709L112.763 62.0756L113.777 62.1456Z" fill="#C97B3A"/>
<path d="M110.593 70.9274C110.383 71.3822 110.138 71.872 109.893 72.3268H107.444C101.602 72.6416 95.4791 72.8166 89.3567 72.9565H77.9515L71.3742 75.3355L49.3334 82.5775L48.4938 82.8224L46.8845 84.6066L45.765 83.837L47.8291 81.5629L66.9661 75.3005L73.5783 73.1314C67.4908 73.1314 61.6133 73.1314 56.0856 72.9565C49.0885 72.9565 43.0361 72.7116 38.1381 72.5367C37.8233 72.0819 37.5084 71.6271 37.2285 71.1723C41.7766 71.1723 47.5142 71.4871 54.0215 71.5921C65.1119 71.802 78.5112 71.907 91.3509 71.5921C97.0885 71.5921 102.791 71.2772 108.284 70.9973L110.593 70.9274Z" fill="#C97B3A"/>
<path d="M108.46 74.7401C108.145 75.2649 107.795 75.7547 107.445 76.2445L103.947 76.7693C100.658 77.294 96.9496 77.9588 92.5064 78.8684C83.2003 80.7926 71.5152 83.8713 62.6289 86.4252L55.0021 88.6293C54.2666 88.4095 53.5426 88.1526 52.833 87.8596L59.2353 86.0054C68.5065 83.3115 81.8709 79.673 92.3665 77.6089C97.5093 76.5593 101.882 75.7897 105.521 75.2649L108.46 74.7401Z" fill="#C97B3A"/>
</g>
<path d="M81.3453 69.842H65.1821C45.0305 69.842 44.4707 46.4718 44.4707 43.7779C44.4707 41.0841 45.0305 17.7488 65.1821 17.7488H81.3453C101.532 17.7488 102.092 41.1191 102.092 43.7779C102.092 46.4368 101.532 69.842 81.3453 69.842Z" fill="url(#paint2_linear_2_144322)"/>
<g opacity="0.5">
<path d="M81.4498 68.3727H65.3215C45.135 68.3727 44.5752 45.6671 44.5752 43.0782C44.5752 40.4893 45.135 17.7488 65.3215 17.7488H81.4498C101.636 17.7488 102.196 40.4893 102.196 43.0782C102.196 45.6671 101.636 68.3727 81.4498 68.3727Z" fill="url(#paint3_linear_2_144322)" style="mix-blend-mode:multiply"/>
</g>
<g style="mix-blend-mode:multiply" opacity="0.2">
<path d="M99.0126 41.9946C98.7677 45.808 97.1584 57.1432 89.0068 61.0266C84.2077 63.049 79.048 64.0762 73.8402 64.0462C68.6325 64.0161 63.485 62.9293 58.7095 60.8517C50.1731 56.3736 48.2139 45.808 47.969 41.9946C47.969 42.9742 45.7999 67.254 66.5812 67.254H80.5753C101.182 67.1141 99.0826 42.9742 99.0126 41.9946Z" fill="#1B8943"/>
</g>
<g style="mix-blend-mode:overlay" opacity="0.3">
<path d="M47.9687 42.1692C48.2486 38.6707 48.7034 28.385 56.89 24.9564C62.1671 23.3445 67.6808 22.6464 73.1931 22.8923C78.8683 22.6246 84.5453 23.3831 89.9511 25.1314C98.4875 29.0147 98.7674 38.8456 99.0123 42.1692C99.0123 41.3296 101.181 20.0935 80.4001 20.0935H66.406C45.7996 20.0935 47.8987 41.3296 47.9687 42.1692Z" fill="white"/>
</g>
<g style="mix-blend-mode:screen" opacity="0.3">
<path d="M72.2494 15.5104C84.5993 15.5104 96.4243 19.3238 96.4243 24.2917C96.4243 29.2596 84.6692 33.4929 72.3544 33.5628C60.0396 33.6328 49.9638 29.6445 49.9288 24.6416C49.8938 19.6387 59.8996 15.5454 72.2494 15.5104Z" fill="white"/>
</g>
<g style="mix-blend-mode:overlay" opacity="0.5">
<path d="M58.7793 22.7521C63.5295 21.4259 68.4363 20.7434 73.3682 20.723C78.4678 20.5757 83.5459 21.4438 88.3069 23.2769C88.3069 23.2769 78.4411 22.0175 73.3332 22.0175C68.2253 22.0175 58.7793 22.7521 58.7793 22.7521Z" fill="white"/>
</g>
</g>
<g clip-path="url(#clip0_2_144322)">
<path d="M53 19.0001H73.1675H74.2159H95V61.0001H65.172H58.3382H53V19.0001ZM73.1675 19.0001C72.9551 19.0542 72.7313 19.0665 72.5142 19.0946C72.2842 19.126 72.0562 19.1681 71.8302 19.221L71.3731 19.3306C71.2168 19.3797 71.0554 19.4232 70.9031 19.4833C69.0193 20.0566 67.39 21.5349 66.4731 23.2528C65.4917 25.0914 65.2951 27.4412 65.9017 29.4279C66.4978 31.3802 67.8806 33.1615 69.695 34.1259C70.3393 34.4684 70.9945 34.761 71.7085 34.9255L71.725 35.5441C71.7555 36.2542 71.7692 36.9733 71.8387 37.6808C71.8537 37.7689 71.8603 37.8766 71.846 37.9652C71.8475 38.2418 71.8621 38.5618 71.906 38.8348C71.9178 38.9734 71.9311 39.1115 71.9314 39.2507L71.9511 39.5043C71.9669 39.662 71.9797 39.8225 71.9763 39.981C71.9932 40.2525 72.0082 40.5241 72.0213 40.7958C72.048 41.1129 72.0771 41.4318 72.0726 41.7503C72.0767 42.0513 72.0629 42.446 72.1748 42.7269C72.1783 42.7356 72.1816 42.7445 72.1851 42.7533C72.1872 42.7585 72.1895 42.7637 72.1917 42.7689C72.5784 43.0566 73.0071 43.0789 73.4732 43.0761C73.6038 43.0784 73.7432 43.0896 73.8722 43.0699L74.1521 42.9927C74.2391 43.2192 74.2964 43.5115 74.2838 43.7538C73.9452 43.8195 73.5839 43.8116 73.2402 43.8203C73.2472 43.825 73.2539 43.8303 73.2614 43.8344C73.3024 43.8566 73.3419 43.856 73.3871 43.858L73.4093 43.8864C73.2026 44.5145 73.2012 44.9794 73.4046 45.6113C73.4399 45.7209 73.6472 46.2077 73.6141 46.2687C73.5677 46.2748 73.522 46.2803 73.4753 46.2837C73.4928 46.3181 73.4803 46.3085 73.5193 46.3211C73.7475 46.3952 74.4232 46.3353 74.6816 46.3069C74.8091 46.2797 74.94 46.2798 75.0687 46.2562C74.9962 46.2582 74.932 46.2625 74.8623 46.24C74.7132 46.105 74.4595 45.3257 74.3993 45.1009C74.3516 44.9226 74.2508 44.489 74.3457 44.3236C74.403 44.3023 74.4597 44.2852 74.5187 44.2695C74.5688 44.2122 75.2553 44.0184 75.4061 43.949C75.6829 43.8217 75.9535 43.649 76.1662 43.4293C76.3381 43.2517 76.4588 43.0362 76.4483 42.7824C76.4332 42.4139 76.1579 42.0421 75.8575 41.843C75.6963 41.7363 75.5036 41.6552 75.3615 41.524C75.3566 41.5195 75.352 41.5148 75.3472 41.5102C75.2097 41.4666 75.0766 41.4184 74.943 41.3642C74.9412 41.0884 74.9776 40.8037 74.9981 40.5285C75.0214 40.2164 75.029 39.8902 75.0819 39.582C75.1026 39.4637 75.1089 39.3465 75.1356 39.2285C75.1559 39.058 75.1477 38.8794 75.1493 38.7077C75.1549 38.4739 75.1585 38.2361 75.1931 38.0047C77.1546 37.9556 79.1233 37.993 81.0855 37.9956L83.356 37.9974C84.253 37.9971 85.1997 37.9521 86.0756 38.1783C86.6214 38.3193 87.2188 38.5266 87.7015 38.8214C87.9543 38.9759 88.1978 39.1931 88.4721 39.3053C88.8018 39.7959 89.0858 40.3262 89.3916 40.833C90.5014 42.672 91.5265 44.5581 92.5744 46.4327L94.0468 49.0598C94.2744 49.4663 94.5435 49.8665 94.7293 50.2944C94.8757 50.6311 94.9077 50.9569 94.9171 51.3212C94.9479 51.9994 94.7642 52.5384 94.6407 53.1865C94.3752 54.3239 94.0997 55.4587 93.8143 56.5911C93.7327 56.9127 93.6961 57.2418 93.5905 57.5579C93.5389 57.7962 93.4881 58.0312 93.3958 58.2581C93.1383 58.8911 92.5877 59.4302 92.0208 59.7941C91.4465 60.1625 90.7866 60.3787 90.1119 60.4644C89.2635 60.5727 88.3891 60.5522 87.5343 60.5673L83.2754 60.635L69.185 60.902L66.4419 60.9578C66.0806 60.964 65.5023 60.9295 65.172 61.0001H95V19.0001H74.2159H73.1675ZM53 19.0001V61.0001H58.3382C58.0615 60.8992 57.7637 60.8561 57.4805 60.7737C57.3815 60.7444 57.2833 60.7123 57.1861 60.6773C57.0888 60.6423 56.9926 60.6045 56.8976 60.5641C56.8025 60.5236 56.7086 60.4804 56.616 60.4345C56.5234 60.3888 56.4322 60.3404 56.3424 60.2893C56.2525 60.2381 56.1642 60.1844 56.0775 60.1281C55.9907 60.072 55.9057 60.0135 55.8223 59.9525C55.7389 59.8914 55.6573 59.8281 55.5775 59.7624C55.4978 59.6967 55.42 59.6287 55.3441 59.5586C55.2922 59.5101 55.2416 59.4602 55.1923 59.4089C55.1431 59.3577 55.0953 59.3051 55.0489 59.2512C55.0026 59.1974 54.9577 59.1423 54.9143 59.086C54.871 59.0297 54.8292 58.9722 54.7889 58.9136C54.7487 58.8551 54.7101 58.7954 54.6731 58.7348C54.6361 58.6741 54.6008 58.6124 54.5671 58.5498C54.5335 58.4872 54.5016 58.4237 54.4714 58.3594C54.4412 58.2951 54.4128 58.2299 54.3862 58.164C54.2273 57.7622 54.1685 57.3304 54.0819 56.9094L53.7517 55.3496L53.2764 53.1616C53.1822 52.7254 53.0464 52.2671 53.0326 51.8201C53.0228 51.5038 53.1182 51.2347 53.2472 50.95C53.3689 50.6815 53.5336 50.4302 53.6717 50.1696C53.9576 49.6302 54.2348 49.086 54.5127 48.5426C55.5627 46.4796 56.6257 44.4234 57.7017 42.3738L58.6732 40.5032C58.9393 39.9958 59.1884 39.3985 59.5875 38.9814C60.1711 38.3712 61.1212 37.9677 61.9405 37.808C62.4746 37.7039 63.006 37.7176 63.547 37.7159L64.9025 37.7062L69.0661 37.684C69.9895 37.6844 70.9158 37.7048 71.8387 37.6808C71.7692 36.9733 71.7555 36.2542 71.725 35.5441L71.7085 34.9255C70.9945 34.761 70.3393 34.4684 69.695 34.1259C67.8806 33.1615 66.4978 31.3802 65.9017 29.4279C65.2951 27.4412 65.4917 25.0914 66.4731 23.2528C67.39 21.5349 69.0193 20.0566 70.9031 19.4833C71.0554 19.4232 71.2168 19.3797 71.3731 19.3306L71.8302 19.221C72.0562 19.1681 72.2842 19.126 72.5142 19.0946C72.7313 19.0665 72.9551 19.0542 73.1675 19.0001H53Z" fill="#EA4E07"/>
<path d="M70.3507 38.0553C70.6372 38.0523 71.5372 38.1059 71.7527 38.0519C71.814 38.0366 71.8147 38.0173 71.8462 37.9652C71.8478 38.2418 71.8624 38.5619 71.9063 38.8348C71.1349 38.8126 70.3608 38.8251 69.589 38.8251C69.5846 38.5865 69.6637 38.3069 69.6911 38.0647L69.6308 38.0748C69.8708 38.0675 70.1109 38.0667 70.3507 38.0553Z" fill="#D7C4BC"/>
<path d="M65.4512 43.874C65.5099 43.9748 65.533 44.0999 65.5652 44.2115C65.6463 44.4921 65.7327 44.7723 65.9074 45.0113C66.1055 45.4124 66.4558 45.7484 66.7872 46.0402C66.841 46.2922 67.1512 47.687 67.1078 47.8296C66.9938 47.7457 66.8806 47.6608 66.7734 47.5683C65.9459 46.8548 65.7832 46.4247 65.6175 45.374C65.54 44.8764 65.4846 44.3765 65.4512 43.874Z" fill="#4E094A"/>
<path d="M66.7871 46.0402C67.9359 46.9124 68.6882 47.2859 70.0651 47.7118C70.0988 48.2495 70.1303 48.787 70.1246 49.3261C69.0418 48.9637 68.0083 48.5495 67.1078 47.8296C67.1512 47.687 66.841 46.2922 66.7871 46.0402Z" fill="#510D17"/>
<path d="M63.9053 42.676C64.1065 42.4094 64.3183 42.161 64.5562 41.9264C65.7637 40.7359 67.434 40.0635 69.047 39.6336C69.4741 39.5198 69.9013 39.4088 70.3392 39.3446C70.8672 39.2671 71.3978 39.2466 71.9309 39.2507L71.9506 39.5043C71.6791 39.5276 71.4147 39.5849 71.1497 39.6461C70.6618 39.7761 70.1787 39.9083 69.7095 40.0972C68.7025 40.5028 66.3893 41.767 65.7775 42.6181C65.7406 42.6695 65.7063 42.7225 65.6745 42.7771C65.6427 42.8317 65.6135 42.8877 65.587 42.9451C65.5605 43.0025 65.5368 43.0611 65.5158 43.1207C65.4949 43.1804 65.4768 43.2409 65.4616 43.3022C65.4483 43.3112 65.4224 43.3188 65.4072 43.3249C65.2687 43.2432 65.1563 43.0992 65.0137 43.0079C64.8593 42.909 64.6765 42.8538 64.5112 42.7755C64.427 42.7357 64.3467 42.6826 64.2647 42.6378C64.1406 42.6415 64.0269 42.6501 63.9053 42.676Z" fill="#F57312"/>
<path d="M70.3732 46.7758C70.497 46.8098 70.6234 46.84 70.7457 46.8785C70.7564 46.8799 70.7671 46.8811 70.7778 46.8827C71.0003 46.9146 71.2311 47.0002 71.4553 47.0439C72.028 47.1556 72.6367 47.2023 73.22 47.1979L73.2206 47.9775L73.2156 48.1242L73.2028 48.1336C73.2225 48.6826 73.2205 49.2304 73.22 49.7797C72.8705 49.7253 72.498 49.7412 72.1437 49.7077C71.4524 49.6423 70.7944 49.5047 70.1249 49.3261C70.1306 48.787 70.0992 48.2495 70.0654 47.7118L70.0826 47.7113C70.1528 47.3808 70.2366 47.086 70.3732 46.7758Z" fill="#794F4A"/>
<path d="M70.3727 46.7758C70.4964 46.8098 70.6228 46.84 70.7451 46.8785C70.7558 46.8799 70.7666 46.8811 70.7773 46.8827C70.9998 46.9146 71.2306 47.0002 71.4548 47.0439C72.0274 47.1556 72.6361 47.2023 73.2194 47.1979L73.2201 47.9775L73.2151 48.1242L73.2023 48.1336C72.8695 48.0729 72.5111 48.1133 72.1725 48.0833C71.4524 48.0193 70.7818 47.8822 70.082 47.7113C70.1522 47.3808 70.236 47.086 70.3727 46.7758Z" fill="#B57A4F"/>
<path d="M58.1993 44.7743C58.2212 44.7985 58.217 44.8038 58.2137 44.8353C58.1994 44.9714 58.1485 45.1143 58.1203 45.2493C58.0664 45.5075 58.0472 45.7832 58.0458 46.0466C58.0374 47.627 58.9062 49.0468 59.9877 50.1374C61.5403 51.7032 64.0089 52.7619 66.2196 52.7707C66.0697 52.8306 65.9187 52.8633 65.7609 52.8952C65.4825 52.9236 65.2097 52.9778 64.9286 52.9973C63.9628 53.0639 62.9573 52.9256 62.036 52.6312C60.4782 52.1335 59.0807 51.1602 58.3183 49.6786C57.4389 47.9696 57.6451 46.5088 58.1993 44.7743Z" fill="#AC261E"/>
<path d="M65.7778 42.6181C66.3896 41.767 68.7028 40.5028 69.7098 40.0972C70.1789 39.9083 70.6621 39.7761 71.15 39.6461C71.2095 39.682 71.2387 39.6917 71.2724 39.7537C71.2677 39.8168 71.2534 39.8933 71.276 39.9534C71.3199 39.9559 71.3992 39.9484 71.4331 39.974C71.347 40.041 71.2015 40.0301 71.0986 40.0858C70.8423 40.1216 70.5256 40.1988 70.2857 40.2923C70.2805 40.2949 70.2753 40.2976 70.2701 40.3001C70.127 40.3692 69.9696 40.3925 69.8223 40.4485C69.6145 40.5274 69.4202 40.6415 69.2138 40.724C69.0584 40.7862 68.8893 40.8129 68.736 40.8798C68.0783 41.1666 67.2959 41.6718 67.0444 42.3763C66.9717 42.5802 66.9206 42.8104 66.8862 43.0243C66.7268 43.4944 66.8047 44.0092 67.0213 44.4473C67.582 45.5814 68.8263 46.2705 69.985 46.6565C70.1125 46.6989 70.2428 46.7421 70.3728 46.7758C70.2362 47.0861 70.1524 47.3808 70.0821 47.7113L70.065 47.7118C68.6881 47.2859 67.9358 46.9124 66.787 46.0402C66.4557 45.7484 66.1053 45.4124 65.9073 45.0114C65.7326 44.7724 65.6462 44.4921 65.5651 44.2116C65.5329 44.0999 65.5098 43.9748 65.451 43.874C65.4342 43.686 65.4484 43.4902 65.4619 43.3022C65.4771 43.2409 65.4952 43.1804 65.5161 43.1207C65.5371 43.0611 65.5608 43.0025 65.5873 42.9452C65.6138 42.8878 65.6429 42.8317 65.6748 42.7771C65.7066 42.7225 65.7409 42.6695 65.7778 42.6181Z" fill="url(#paint4_linear_2_144322)"/>
<path d="M65.7778 42.6181L65.878 42.5741L65.8909 42.5915C65.889 42.6013 65.8869 42.611 65.8851 42.6208C65.8482 42.825 65.9099 43.0397 65.9321 43.2433C65.9736 43.6256 66.0272 44.3875 65.9335 44.7428C65.9124 44.8231 65.8965 44.8704 65.9293 44.9487L65.9073 45.0114C65.7326 44.7724 65.6462 44.4921 65.5651 44.2116C65.5329 44.0999 65.5098 43.9748 65.451 43.874C65.4342 43.686 65.4484 43.4902 65.4619 43.3022C65.4771 43.2409 65.4952 43.1804 65.5161 43.1207C65.5371 43.0611 65.5608 43.0025 65.5873 42.9452C65.6138 42.8878 65.6429 42.8317 65.6748 42.7771C65.7066 42.7225 65.7409 42.6695 65.7778 42.6181Z" fill="#794F4A"/>
<path d="M71.15 39.6461C71.415 39.5849 71.6795 39.5276 71.9509 39.5043C71.9668 39.662 71.9795 39.8225 71.9762 39.981C71.993 40.2525 72.008 40.5241 72.0212 40.7958C72.0479 41.1129 72.077 41.4318 72.0724 41.7503C72.0766 42.0513 72.0628 42.446 72.1747 42.7269C72.1782 42.7356 72.1815 42.7445 72.1849 42.7533C72.1871 42.7585 72.1894 42.7637 72.1916 42.7689C72.5783 43.0566 73.0069 43.0789 73.4731 43.0761C73.6037 43.0784 73.743 43.0896 73.8721 43.0699L74.152 42.9927C74.239 43.2192 74.2963 43.5115 74.2837 43.7538C73.9451 43.8195 73.5838 43.8116 73.2401 43.8203C73.2471 43.825 73.2538 43.8303 73.2613 43.8344C73.3022 43.8566 73.3417 43.856 73.387 43.858L73.4091 43.8864C73.2025 44.5145 73.2011 44.9794 73.4045 45.6113C73.4398 45.7209 73.6471 46.2077 73.614 46.2687C73.5676 46.2748 73.5218 46.2802 73.4752 46.2837C73.4927 46.3181 73.4802 46.3085 73.5191 46.3211C73.7474 46.3952 74.423 46.3353 74.6814 46.3069C74.7007 46.3588 74.7033 46.372 74.6825 46.427C74.6645 46.4745 74.6434 46.4955 74.5967 46.5099C74.4979 46.4351 74.378 46.4545 74.26 46.4713C73.5364 46.5745 72.8203 46.5574 72.0952 46.469C71.8704 46.4417 71.1889 46.2957 71.0194 46.3473C71.2252 46.4282 71.4021 46.4419 71.6209 46.4387C71.5623 46.6774 71.5898 46.8139 71.685 47.0395C71.4693 46.9758 70.9516 46.807 70.7453 46.8785C70.623 46.84 70.4966 46.8098 70.3728 46.7758C70.2429 46.7421 70.1125 46.6989 69.9851 46.6565C68.8263 46.2704 67.582 45.5814 67.0214 44.4473C66.8048 44.0092 66.7268 43.4944 66.8863 43.0243C66.9206 42.8104 66.9717 42.5801 67.0445 42.3763C67.2959 41.6718 68.0784 41.1666 68.736 40.8798C68.8894 40.8129 69.0584 40.7862 69.2138 40.724C69.4202 40.6415 69.6145 40.5274 69.8223 40.4485C69.9697 40.3925 70.1271 40.3692 70.2701 40.3001C70.2753 40.2975 70.2805 40.2949 70.2857 40.2923C70.5257 40.1988 70.8423 40.1216 71.0986 40.0858C71.2016 40.0301 71.347 40.041 71.4331 39.974C71.3992 39.9484 71.3199 39.9559 71.2761 39.9534C71.2535 39.8933 71.2678 39.8168 71.2724 39.7537C71.2388 39.6917 71.2095 39.6819 71.15 39.6461Z" fill="#AC261E"/>
<path d="M72.021 40.7959C72.0477 41.1129 72.0769 41.4318 72.0723 41.7503L71.9065 41.7897C71.9508 41.7575 71.9809 41.7411 72.001 41.688C71.7782 41.5214 71.5455 41.3718 71.3848 41.1409C71.533 41.0217 71.7745 41.0369 71.9376 40.9337C72.0038 40.8918 72.0052 40.8669 72.021 40.7959Z" fill="#8E4A72"/>
<path d="M71.1505 39.6461C71.4154 39.5849 71.6799 39.5276 71.9514 39.5043C71.9672 39.662 71.98 39.8225 71.9766 39.981C71.9935 40.2525 72.0085 40.5241 72.0216 40.7958C72.0058 40.8669 72.0043 40.8918 71.9381 40.9337C71.7751 41.0369 71.5335 41.0217 71.3853 41.1409L71.2193 41.266C70.9647 41.2568 70.7803 41.4679 70.5564 41.5532C70.5918 41.4708 70.8556 41.3632 70.9393 41.3209C70.7529 41.1329 70.4804 40.9128 70.4065 40.6485C70.3837 40.5668 70.3856 40.4805 70.3693 40.3979C70.3566 40.3336 70.3412 40.3266 70.2861 40.2923C70.5261 40.1988 70.8428 40.1216 71.099 40.0858C71.202 40.0301 71.3475 40.041 71.4335 39.974C71.3997 39.9484 71.3203 39.9559 71.2765 39.9534C71.2539 39.8933 71.2682 39.8168 71.2728 39.7537C71.2392 39.6917 71.21 39.6819 71.1505 39.6461Z" fill="url(#paint5_linear_2_144322)"/>
<path d="M71.1501 39.6461C71.415 39.5849 71.6795 39.5276 71.951 39.5043C71.9668 39.662 71.9796 39.8225 71.9762 39.981C71.7123 39.9091 71.4123 40.1212 71.0986 40.0858C71.2016 40.0301 71.3471 40.041 71.4332 39.974C71.3993 39.9484 71.32 39.9559 71.2761 39.9534C71.2535 39.8933 71.2678 39.8168 71.2725 39.7537C71.2388 39.6917 71.2096 39.6819 71.1501 39.6461Z" fill="#8E4A72"/>
<path d="M66.8863 43.0243C66.992 44.0063 67.3592 44.5117 68.12 45.1219C68.698 45.5855 69.472 45.9456 70.1853 46.1512C70.4593 46.2302 70.7416 46.2833 71.0194 46.3473C71.2252 46.4282 71.4021 46.4419 71.6209 46.4387C71.5623 46.6774 71.5898 46.8139 71.685 47.0395C71.4693 46.9758 70.9516 46.807 70.7453 46.8785C70.623 46.84 70.4966 46.8098 70.3728 46.7758C70.2429 46.7421 70.1125 46.6989 69.9851 46.6565C68.8263 46.2704 67.582 45.5814 67.0214 44.4473C66.8048 44.0092 66.7268 43.4944 66.8863 43.0243Z" fill="#510D17"/>
<path d="M71.9068 41.7897L72.0725 41.7503C72.0767 42.0513 72.0629 42.446 72.1748 42.7269C72.1783 42.7356 72.1816 42.7445 72.1851 42.7533C72.1872 42.7585 72.1895 42.7637 72.1917 42.7689C72.5784 43.0566 73.007 43.0789 73.4732 43.0761C73.6038 43.0784 73.7432 43.0896 73.8722 43.0699L74.1521 42.9927C74.2391 43.2192 74.2964 43.5115 74.2838 43.7538C73.9452 43.8195 73.5839 43.8116 73.2402 43.8203C72.7804 43.7705 72.3399 43.729 71.9079 43.5501C71.5947 43.4204 71.2691 43.1802 71.1435 42.8544C71.0794 42.6881 71.0805 42.5087 71.1598 42.3477C71.3015 42.0602 71.6173 41.8911 71.9068 41.7897Z" fill="#510D17"/>
<path d="M75.0816 39.582C76.8823 39.9636 79.6378 40.5646 80.7184 42.2194C80.773 42.3031 80.8225 42.3898 80.8668 42.4794C80.9111 42.569 80.9498 42.661 80.9831 42.7553C81.0504 42.8995 81.0843 43.0572 81.1084 43.2138C81.1641 43.531 81.1578 43.8396 81.1259 44.1589C81.1749 44.3836 81.1616 44.626 81.1596 44.855C81.1537 45.551 81.1013 46.163 80.7139 46.7624C80.2205 47.5258 79.4211 48.0899 78.6335 48.522C78.3826 48.6597 78.0994 48.7802 77.8619 48.9367C77.4978 49.0627 77.1373 49.2081 76.7685 49.3185C76.6249 49.3607 76.4804 49.4 76.3352 49.4365C76.19 49.4731 76.0441 49.5067 75.8975 49.5375C75.751 49.5684 75.6039 49.5963 75.4563 49.6214C75.3086 49.6465 75.1606 49.6687 75.0121 49.688C74.8636 49.7073 74.7147 49.7237 74.5656 49.7372C74.4165 49.7506 74.2671 49.7612 74.1175 49.7689C73.968 49.7765 73.8184 49.7813 73.6686 49.7831C73.5189 49.7849 73.3692 49.7838 73.2195 49.7797C73.2199 49.2304 73.222 48.6826 73.2022 48.1336L73.215 48.1241L73.22 47.9775L73.2194 47.1979C72.6361 47.2023 72.0274 47.1556 71.4548 47.0439C71.2306 47.0002 70.9998 46.9146 70.7773 46.8826C70.7666 46.8811 70.7558 46.8799 70.7451 46.8785C70.9515 46.807 71.4691 46.9758 71.6848 47.0395C71.5896 46.8139 71.5621 46.6774 71.6208 46.4387C71.4019 46.4419 71.225 46.4282 71.0192 46.3473C71.1887 46.2957 71.8703 46.4417 72.095 46.469C72.8201 46.5574 73.5362 46.5745 74.2598 46.4713C74.3778 46.4545 74.4978 46.4351 74.5965 46.5099C74.6432 46.4955 74.6643 46.4745 74.6823 46.427C74.7032 46.372 74.7005 46.3588 74.6813 46.3069C74.8088 46.2797 74.9397 46.2798 75.0684 46.2562C74.9959 46.2582 74.9317 46.2625 74.862 46.24C74.7129 46.105 74.4592 45.3257 74.399 45.1009C74.3513 44.9226 74.2505 44.489 74.3454 44.3236C74.4027 44.3023 74.4594 44.2852 74.5184 44.2695C74.5685 44.2122 75.255 44.0184 75.4058 43.949C75.6826 43.8217 75.9532 43.649 76.1659 43.4293C76.3378 43.2517 76.4585 43.0362 76.4481 42.7824C76.4329 42.4139 76.1576 42.0421 75.8572 41.843C75.696 41.7362 75.5033 41.6552 75.3612 41.524C75.3563 41.5195 75.3517 41.5148 75.3469 41.5102C75.2094 41.4666 75.0763 41.4184 74.9427 41.3642C74.9409 41.0884 74.9773 40.8037 74.9978 40.5285C75.0211 40.2164 75.0287 39.8902 75.0816 39.582Z" fill="url(#paint6_linear_2_144322)"/>
<path d="M75.347 41.5102C75.8372 41.6358 76.4658 41.9636 76.7321 42.4147C76.7395 42.4272 76.7466 42.4398 76.7534 42.4527C76.7602 42.4655 76.7666 42.4786 76.7727 42.4918C76.7788 42.5049 76.7846 42.5183 76.79 42.5318C76.7955 42.5452 76.8006 42.5588 76.8053 42.5726C76.81 42.5863 76.8144 42.6002 76.8185 42.6141C76.8225 42.6281 76.8261 42.6421 76.8295 42.6563C76.8328 42.6704 76.8357 42.6847 76.8383 42.699C76.8409 42.7133 76.8431 42.7276 76.845 42.742C76.8468 42.7565 76.8483 42.7709 76.8494 42.7854C76.8505 42.7999 76.8513 42.8144 76.8516 42.829C76.852 42.8435 76.852 42.858 76.8516 42.8725C76.8513 42.8871 76.8506 42.9016 76.8494 42.9161C76.8483 42.9306 76.8469 42.945 76.845 42.9594C76.8432 42.9738 76.841 42.9882 76.8384 43.0025C76.8358 43.0168 76.8328 43.031 76.8295 43.0452C76.8262 43.0593 76.8226 43.0734 76.8185 43.0874C76.7222 43.4323 76.4266 43.6811 76.1219 43.8443C75.6191 44.1138 75.0813 44.2287 74.5186 44.2695C74.5687 44.2122 75.2552 44.0184 75.406 43.949C75.6828 43.8217 75.9533 43.649 76.166 43.4293C76.3379 43.2517 76.4586 43.0362 76.4482 42.7824C76.4331 42.4139 76.1577 42.0421 75.8573 41.843C75.6962 41.7363 75.5034 41.6553 75.3614 41.524C75.3565 41.5195 75.3518 41.5148 75.347 41.5102Z" fill="#794F4A"/>
<path d="M79.6865 45.9848C79.7542 45.7509 79.9105 45.5482 79.9937 45.3194C80.0817 45.0775 80.1449 44.824 80.226 44.5791C80.3781 44.1193 80.544 43.6732 80.7169 43.2215C80.782 43.0514 80.7497 42.8061 80.8398 42.6534C80.9053 42.6609 80.9368 42.7108 80.9837 42.7553C81.051 42.8995 81.0849 43.0572 81.109 43.2138C81.0195 43.3816 81.0485 43.6415 81.0144 43.8287C80.8637 44.6577 80.3468 45.4647 79.6865 45.9848Z" fill="#D7C4BC"/>
<path d="M79.6857 45.9848C80.3459 45.4647 80.8629 44.6577 81.0136 43.8287C81.0477 43.6415 81.0187 43.3816 81.1082 43.2138C81.1639 43.531 81.1576 43.8396 81.1257 44.1589C80.7503 45.4415 79.9236 46.2786 78.7684 46.9112C77.0721 47.8401 75.1296 48.1428 73.2148 48.1241L73.2198 47.9775C75.525 47.9363 77.8437 47.439 79.6857 45.9848Z" fill="#FEFEFE"/>
<path d="M76.2666 40.3519C76.4096 40.3798 76.554 40.413 76.6991 40.4269C77.0654 40.5074 77.462 40.623 77.8023 40.7811C77.992 40.8693 78.1587 40.9886 78.3306 41.1062C78.7531 41.3953 79.1468 41.6698 79.4294 42.1092C79.6978 42.5265 79.7944 42.9993 79.6886 43.486C79.5941 43.9208 79.3516 44.3069 79.027 44.6077C78.9693 44.4847 79.175 44.0516 79.1942 43.8906C79.2402 43.5053 79.1991 43.1433 79.0611 42.7806C78.6207 41.6234 77.3495 40.8433 76.2666 40.3519Z" fill="#D7C4BC"/>
<path d="M77.9072 41.172C77.9439 41.172 77.9413 41.1701 77.9709 41.1752C78.4159 41.2515 79.0015 41.7703 79.2626 42.124C79.3979 42.3073 79.505 42.4956 79.4693 42.7294C79.4537 42.7372 79.43 42.7497 79.4137 42.7542C79.3518 42.7714 79.3239 42.7544 79.283 42.7068C79.1713 42.5766 79.0968 42.4137 78.9998 42.2723C78.7072 41.846 78.3474 41.4482 77.9072 41.172Z" fill="#FEFEFE"/>
<path d="M76.6988 40.4269L76.7135 40.3825C76.9796 40.3153 78.16 40.8569 78.4285 41.0181C79.176 41.4668 79.8534 42.1661 80.0646 43.0347C80.2077 43.6235 80.0805 44.1811 79.7677 44.6937C79.029 45.9041 77.4357 46.5705 76.1042 46.8857C75.1544 47.1106 74.193 47.1799 73.2194 47.1979C72.6361 47.2023 72.0274 47.1556 71.4548 47.0439C71.2306 47.0002 70.9998 46.9146 70.7773 46.8826C70.7666 46.8811 70.7558 46.8799 70.7451 46.8785C70.9515 46.807 71.4691 46.9758 71.6848 47.0395C71.5896 46.8139 71.5621 46.6774 71.6208 46.4387C71.4019 46.4419 71.225 46.4282 71.0192 46.3473C71.1887 46.2957 71.8703 46.4417 72.095 46.469C72.8201 46.5574 73.5362 46.5745 74.2598 46.4713C74.3778 46.4545 74.4978 46.4351 74.5965 46.5099C74.6432 46.4955 74.6643 46.4745 74.6823 46.427C74.7032 46.372 74.7005 46.3588 74.6813 46.3069C74.8088 46.2797 74.9397 46.2798 75.0684 46.2562C76.3524 46.1633 78.1439 45.5681 79.0267 44.6077C79.3513 44.3069 79.5938 43.9208 79.6883 43.486C79.7941 42.9992 79.6976 42.5265 79.4292 42.1092C79.1466 41.6698 78.7528 41.3953 78.3303 41.1062C78.1584 40.9886 77.9918 40.8693 77.802 40.7811C77.4617 40.623 77.0651 40.5074 76.6988 40.4269Z" fill="url(#paint7_linear_2_144322)"/>
<path d="M81.1258 44.1589C81.1748 44.3836 81.1615 44.626 81.1595 44.855C81.1536 45.551 81.1012 46.163 80.7138 46.7624C80.2205 47.5258 79.421 48.0899 78.6334 48.522C78.3825 48.6597 78.0993 48.7802 77.8618 48.9367C77.4978 49.0627 77.1372 49.2081 76.7685 49.3185C76.6248 49.3607 76.4803 49.4 76.3351 49.4365C76.1899 49.4731 76.044 49.5067 75.8974 49.5375C75.7509 49.5684 75.6038 49.5963 75.4562 49.6214C75.3085 49.6465 75.1605 49.6687 75.012 49.688C74.8635 49.7073 74.7146 49.7237 74.5655 49.7372C74.4164 49.7506 74.267 49.7612 74.1175 49.7689C73.9679 49.7765 73.8183 49.7813 73.6685 49.7831C73.5188 49.7849 73.3691 49.7838 73.2194 49.7797C73.2198 49.2304 73.2219 48.6826 73.2021 48.1336L73.2149 48.1241C75.1297 48.1428 77.0722 47.8401 78.7685 46.9112C79.9237 46.2786 80.7504 45.4415 81.1258 44.1589Z" fill="#898481"/>
<path d="M75.136 39.2285C76.4483 39.2321 77.7589 39.1556 79.0711 39.1705C79.5863 39.179 80.1008 39.2027 80.6146 39.2418C81.1284 39.2808 81.6406 39.3349 82.1512 39.4043C82.8624 39.5024 83.6474 39.6363 84.3086 39.9276C84.6972 40.0737 85.0701 40.3055 85.2947 40.6616L85.334 40.6247C85.2556 40.5285 85.1773 40.4329 85.1048 40.3321C85.5132 40.5374 85.9302 40.7222 86.3223 40.9593C87.9478 41.9427 89.3828 43.47 89.9818 45.3006C90.4346 46.6845 90.388 48.2394 89.7154 49.5449C89.0761 50.7859 87.8567 51.8334 86.525 52.2575C86.3056 52.3274 86.0638 52.3452 85.8353 52.3618C85.45 52.3899 85.0659 52.3851 84.68 52.3919C84.2415 52.4032 83.8032 52.4168 83.3648 52.4325C82.646 52.4558 81.9328 52.4938 81.2133 52.4784C81.0299 52.4744 80.8345 52.4895 80.6538 52.4609C80.4356 52.4265 80.2322 52.3283 80.014 52.294C79.4123 52.1995 78.7977 52.167 78.2024 52.0331C77.6983 51.9197 77.2341 51.7124 76.7171 51.6427C75.6992 51.5055 74.5377 51.717 73.5992 51.2269C73.4657 51.1572 73.3363 51.0789 73.2285 50.9728C73.9047 50.746 74.5785 50.4902 75.2672 50.3056C75.9224 50.0454 76.5735 49.8017 77.1977 49.4686C77.3841 49.2469 77.7134 49.2012 77.8626 48.9367C78.1001 48.7802 78.3833 48.6597 78.6342 48.522C79.4218 48.0899 80.2213 47.5258 80.7146 46.7624C81.102 46.163 81.1544 45.551 81.1604 44.855C81.1623 44.626 81.1756 44.3836 81.1267 44.1589C81.1586 43.8396 81.1648 43.531 81.1091 43.2138C81.085 43.0572 81.0511 42.8995 80.9838 42.7553C80.9506 42.661 80.9118 42.5691 80.8675 42.4794C80.8232 42.3898 80.7737 42.3031 80.7191 42.2194C79.6386 40.5646 76.883 39.9636 75.0823 39.582C75.103 39.4637 75.1093 39.3465 75.136 39.2285Z" fill="url(#paint8_linear_2_144322)"/>
<path d="M84.0198 44.1227C83.9778 44.4615 84.0211 44.7788 84.2389 45.0535C84.653 45.5757 85.3969 45.8014 86.0337 45.868C86.6827 45.9358 87.4635 45.8573 87.9897 45.4321C88.0776 45.3611 88.2403 45.1318 88.2854 45.1035C88.2869 45.1025 88.3278 45.1012 88.328 45.1013C88.3342 45.1019 88.3401 45.1045 88.346 45.1061C88.3436 45.1454 88.3393 45.1773 88.3252 45.2143C88.1972 45.5499 87.8867 45.7728 87.5678 45.9094C86.7955 46.2402 85.8312 46.2148 85.057 45.9059C84.6259 45.7339 84.1633 45.4468 83.9814 44.9972C83.8585 44.6935 83.897 44.4162 84.0198 44.1227Z" fill="#AC261E"/>
<path d="M81.4592 40.4091C81.4789 40.5115 81.4063 40.6307 81.3737 40.7304C81.2202 41.201 81.4636 41.5935 81.8454 41.8521C82.467 42.2731 83.3438 42.4145 84.0743 42.2727C84.5415 42.182 84.9835 41.9759 85.2543 41.5712C85.3307 41.457 85.3979 41.3284 85.4465 41.2L85.477 41.1784C85.5307 41.2462 85.512 41.3863 85.5097 41.4719C85.4793 41.6515 85.3856 41.8095 85.2621 41.9419C84.8372 42.3977 84.1601 42.579 83.5563 42.6011C82.8707 42.6263 82.0596 42.4555 81.5465 41.9704C81.3194 41.7557 81.1383 41.4424 81.1387 41.1236C81.139 40.8467 81.2668 40.6011 81.4592 40.4091Z" fill="#AC261E"/>
<path d="M81.2367 45.9204C81.1342 46.8912 80.4291 47.7753 79.6937 48.37C78.6244 49.2347 77.4143 49.7164 76.1138 50.1142C75.8788 50.186 75.5369 50.3409 75.2912 50.3106C75.2828 50.3096 75.2748 50.3072 75.2666 50.3056C75.9218 50.0454 76.5729 49.8016 77.1971 49.4686C77.4648 49.4275 77.7263 49.264 77.9647 49.1402C79.011 48.5967 79.9937 47.9266 80.6979 46.962C80.8345 46.7749 80.9728 46.5698 81.063 46.3555C81.1242 46.2101 81.1628 46.0606 81.2367 45.9204Z" fill="#FE9C04"/>
<path d="M87.317 43.5383C87.7005 43.66 88.0636 43.9903 88.2452 44.3462C88.3626 44.5761 88.4294 44.8543 88.3465 45.1061C88.3405 45.1045 88.3347 45.1019 88.3285 45.1013C88.3283 45.1012 88.2874 45.1025 88.2859 45.1035C88.2408 45.1318 88.078 45.3611 87.9901 45.432C87.464 45.8573 86.6832 45.9358 86.0342 45.868C85.3973 45.8014 84.6534 45.5757 84.2393 45.0535C84.0216 44.7788 83.9782 44.4615 84.0203 44.1227C84.0744 43.929 84.2868 43.717 84.4527 43.6139C84.4523 43.6216 84.4528 43.6295 84.4515 43.6371C84.4402 43.7068 84.3823 43.7806 84.3485 43.8424C84.1774 44.1548 84.155 44.4254 84.3558 44.7368C84.6563 45.2028 85.3144 45.4435 85.8328 45.5437C86.4445 45.662 87.2896 45.6439 87.8222 45.2779C87.9956 45.1588 88.1501 44.9856 88.1883 44.7726C88.2159 44.6189 88.1875 44.4666 88.0965 44.3394C87.9279 43.971 87.7036 43.7598 87.3501 43.5699L87.317 43.5383Z" fill="#CF4C2A"/>
<path d="M81.4592 40.4091C81.703 40.1499 81.9956 39.9926 82.3405 39.9105C82.3378 39.916 82.3357 39.9219 82.3322 39.9269C82.3145 39.9519 82.3014 39.9556 82.2752 39.9681C82.0753 40.0638 81.8145 40.2126 81.7375 40.4339C81.667 40.6366 81.721 40.8913 81.8184 41.0764C81.9139 41.2578 82.0384 41.3885 82.2271 41.4693C82.3816 41.517 82.532 41.6176 82.6843 41.6781C83.1342 41.8566 83.6908 41.856 84.1587 41.7521C84.5311 41.6694 84.979 41.5501 85.1902 41.2035C85.2819 41.053 85.3389 40.8348 85.294 40.6616L85.3333 40.6246C85.4645 40.89 85.5761 41.1697 85.5098 41.4719C85.5121 41.3863 85.5307 41.2462 85.477 41.1784L85.4465 41.2001C85.3979 41.3284 85.3307 41.457 85.2543 41.5712C84.9835 41.9759 84.5415 42.182 84.0744 42.2727C83.3439 42.4145 82.467 42.2731 81.8454 41.8521C81.4636 41.5935 81.2202 41.201 81.3738 40.7304C81.4063 40.6307 81.479 40.5115 81.4592 40.4091Z" fill="#CF4C2A"/>
<path d="M84.452 43.6139C84.4537 43.6116 84.4549 43.609 84.4569 43.607C84.7242 43.3324 85.3844 43.2202 85.7498 43.2058C86.1248 43.191 87.0339 43.2765 87.3163 43.5383C87.1819 43.5481 86.9458 43.3974 86.8055 43.3561C86.6406 43.3076 86.4491 43.2979 86.2781 43.2771C85.7511 43.2233 85.3459 43.2673 84.8876 43.54C84.8869 44.0072 85.0785 44.2884 85.3435 44.6526C85.4288 44.7699 85.513 44.9091 85.6132 45.0132C85.6208 45.021 85.6286 45.0286 85.6363 45.0364C86.1346 45.1929 87.1688 45.2646 87.641 45.027C87.8395 44.9271 87.9989 44.7679 88.0622 44.5509C88.0828 44.4819 88.094 44.4114 88.0958 44.3394C88.1868 44.4666 88.2152 44.6189 88.1876 44.7726C88.1495 44.9856 87.9949 45.1588 87.8215 45.2779C87.2889 45.6439 86.4438 45.662 85.8321 45.5437C85.3138 45.4435 84.6556 45.2028 84.3551 44.7368C84.1543 44.4255 84.1767 44.1548 84.3478 43.8424C84.3816 43.7806 84.4395 43.7068 84.4508 43.6371C84.4521 43.6295 84.4516 43.6216 84.452 43.6139Z" fill="#EA4E07"/>
<path d="M88.3679 48.0426C88.372 48.0464 88.3762 48.0501 88.3803 48.054C88.7539 48.4089 89.0407 48.9508 89.0558 49.4711C89.0704 49.9715 88.8491 50.4421 88.5075 50.7994C87.8484 51.4888 86.7816 51.7956 85.8525 51.8131C84.772 51.8334 83.6241 51.5102 82.8364 50.7394C82.4 50.3124 82.1233 49.7961 82.1201 49.1767C82.1176 48.6787 82.2924 48.1874 82.6469 47.8321C82.3719 48.3594 82.169 48.8398 82.3525 49.4347C82.5656 50.1258 83.093 50.6725 83.7242 51.0041C84.7216 51.5281 86.0276 51.64 87.1017 51.3034C87.7104 51.1126 88.3476 50.7181 88.6474 50.1356C88.84 49.7615 88.8926 49.3049 88.7622 48.9022C88.6669 48.6076 88.4215 48.3383 88.3679 48.0426Z" fill="#AC261E"/>
<path d="M84.8877 43.54C85.346 43.2673 85.7512 43.2233 86.2782 43.277C86.4492 43.2979 86.6407 43.3076 86.8055 43.3561C86.9459 43.3974 87.182 43.5481 87.3164 43.5383L87.3495 43.5699C87.703 43.7598 87.9273 43.971 88.0959 44.3393C88.0941 44.4114 88.0829 44.4819 88.0623 44.5509C87.999 44.7679 87.8396 44.9271 87.6411 45.027C87.1689 45.2646 86.1347 45.1929 85.6364 45.0364C85.6287 45.0286 85.6209 45.021 85.6133 45.0132C85.5131 44.9091 85.4289 44.7699 85.3436 44.6526C85.0786 44.2884 84.887 44.0072 84.8877 43.54Z" fill="#FE9C04"/>
<path d="M87.6589 44.0628C87.6288 44.1494 87.5991 44.2203 87.5236 44.2767C87.3525 44.4045 87.1036 44.385 86.9043 44.3506C86.5977 44.2978 86.1504 44.1481 85.969 43.8764C85.9253 43.8107 85.8963 43.7251 85.9149 43.6461C85.9403 43.5387 86.0307 43.4896 86.1167 43.4341L86.1455 43.7711C86.4008 44.0199 86.8377 44.165 87.1921 44.1596C87.3583 44.1571 87.5034 44.1176 87.6589 44.0628Z" fill="#FDD950"/>
<path d="M86.278 43.277C86.449 43.2979 86.6404 43.3076 86.8053 43.3561C86.9457 43.3974 87.1818 43.5481 87.3162 43.5383L87.3493 43.5699L87.2742 43.643L87.4151 43.7324C87.5022 43.8131 87.6513 43.9371 87.6584 44.0628C87.5029 44.1176 87.3578 44.1571 87.1916 44.1596C86.8372 44.1649 86.4003 44.0199 86.145 43.7711L86.1162 43.434L86.2258 43.4082C86.2699 43.3646 86.2667 43.3369 86.278 43.277Z" fill="#FDCF81"/>
<path d="M87.4158 43.7324C87.3835 43.8221 87.3407 43.8949 87.2568 43.9458C87.1299 44.0228 86.9897 44.0119 86.8524 43.972C86.6791 43.9216 86.4797 43.8185 86.398 43.6476C86.3702 43.5895 86.3719 43.5425 86.3917 43.4815C86.4361 43.4415 86.4559 43.4509 86.5142 43.4497C86.472 43.4895 86.4734 43.4911 86.4651 43.5488C86.5098 43.6714 86.6108 43.7381 86.7266 43.7911C86.8257 43.8364 86.9442 43.8652 87.0499 43.8248C87.0947 43.8077 87.1307 43.7817 87.1526 43.7382C87.1696 43.7043 87.1779 43.6594 87.1873 43.6226L87.275 43.643L87.4158 43.7324Z" fill="#FFEBAE"/>
<path d="M86.514 43.4497C86.6976 43.4468 87.0311 43.4888 87.1753 43.6108C87.1795 43.6144 87.1831 43.6187 87.187 43.6226C87.1777 43.6594 87.1693 43.7043 87.1523 43.7382C87.1304 43.7817 87.0945 43.8077 87.0497 43.8248C86.9439 43.8652 86.8255 43.8365 86.7264 43.7911C86.6105 43.7381 86.5096 43.6714 86.4648 43.5489C86.4731 43.4911 86.4718 43.4895 86.514 43.4497Z" fill="#FEFEFE"/>
<path d="M82.3411 39.9105C82.3638 39.9021 82.3861 39.8951 82.4096 39.8894C82.6792 39.8238 83.2018 39.6759 83.4582 39.8321C83.5408 39.837 83.6288 39.8362 83.7096 39.8534C83.7786 39.8611 83.8472 39.8682 83.9154 39.881C84.0375 39.9129 84.1515 39.9784 84.2709 40.0078L84.2661 39.9795L84.2175 39.9469L84.2449 39.9709L84.2189 39.9394C84.246 39.9426 84.261 39.9432 84.2879 39.935C84.2949 39.9328 84.3017 39.9301 84.3086 39.9276C84.6972 40.0737 85.0701 40.3055 85.2946 40.6616C85.3396 40.8348 85.2826 41.053 85.1908 41.2035C84.9796 41.5501 84.5317 41.6693 84.1594 41.7521C83.6915 41.856 83.1348 41.8566 82.6849 41.678C82.5326 41.6176 82.3823 41.517 82.2277 41.4693C82.039 41.3885 81.9145 41.2578 81.8191 41.0764C81.7216 40.8913 81.6677 40.6366 81.7381 40.4339C81.8151 40.2126 82.0759 40.0638 82.2759 39.9681C82.302 39.9556 82.3151 39.9519 82.3328 39.9269C82.3364 39.9219 82.3384 39.916 82.3411 39.9105Z" fill="#FE9C04"/>
<path d="M82.3411 39.9105C82.3638 39.9021 82.3861 39.8951 82.4096 39.8894C82.6792 39.8238 83.2018 39.6759 83.4582 39.8321L83.2442 39.8368C83.1124 39.8437 82.9832 39.8522 82.8526 39.8718C82.7786 39.98 82.7005 40.0818 82.6173 40.183C82.6798 40.5409 82.7478 40.8643 83.0637 41.0938C83.3125 41.2745 83.6457 41.3594 83.946 41.3998C84.0526 41.414 84.1667 41.4157 84.2709 41.4411C84.3152 41.452 84.3342 41.4607 84.3658 41.4913C84.2869 41.5424 84.1772 41.5096 84.0906 41.4913C83.9622 41.464 83.8308 41.4559 83.7038 41.4269C83.3222 41.3395 82.9362 41.1352 82.7223 40.7978C82.5855 40.5822 82.5359 40.3683 82.5342 40.1144L82.7186 39.9242C82.5927 39.9428 82.4438 39.9462 82.362 40.0576C82.2432 40.2195 82.1631 40.6678 82.0192 40.7485C81.9702 40.7322 81.9536 40.7151 81.9303 40.668C81.8969 40.6003 81.8863 40.506 81.8706 40.4326C81.8348 40.5275 81.8021 40.619 81.7455 40.7041C81.8398 41.0748 81.9603 41.215 82.2277 41.4693C82.039 41.3885 81.9145 41.2578 81.8191 41.0764C81.7216 40.8913 81.6677 40.6366 81.7381 40.4339C81.8151 40.2126 82.0759 40.0638 82.2759 39.9681C82.302 39.9556 82.3151 39.9519 82.3328 39.9269C82.3364 39.9219 82.3384 39.916 82.3411 39.9105Z" fill="#EA4E07"/>
<path d="M83.4577 39.8321C83.5403 39.837 83.6283 39.8362 83.7091 39.8534C83.7781 39.8611 83.8466 39.8682 83.9149 39.881C84.037 39.9129 84.151 39.9784 84.2704 40.0079L84.3765 40.0677C84.4377 40.1016 84.501 40.1337 84.5583 40.1739C84.6088 40.2092 84.6601 40.2477 84.7053 40.2898C84.7667 40.3471 84.8071 40.4274 84.8092 40.512C84.8128 40.6638 84.706 40.7807 84.6113 40.8866C84.5677 40.9032 84.5238 40.9187 84.4784 40.93C84.1842 41.0033 83.8789 40.9096 83.6269 40.755C83.3575 40.5897 83.1962 40.3843 83.123 40.0747C83.1585 39.9928 83.2014 39.9153 83.2437 39.8368L83.4577 39.8321Z" fill="#FDCF81"/>
<path d="M83.7089 39.8534C83.7778 39.8611 83.8464 39.8682 83.9146 39.881C83.8272 39.9499 83.6837 40.0265 83.6622 40.1439C83.6525 40.197 83.681 40.2448 83.7132 40.2846C83.7651 40.3487 83.828 40.4057 83.8874 40.4628C84.0157 40.4607 84.1669 40.4741 84.2662 40.3767C84.3464 40.298 84.3627 40.1736 84.3762 40.0677C84.4375 40.1016 84.5008 40.1337 84.558 40.1739C84.5465 40.2271 84.534 40.2859 84.5114 40.3356C84.4656 40.4364 84.3697 40.5291 84.2655 40.5673C84.1115 40.6237 83.937 40.5928 83.7932 40.5214C83.59 40.4206 83.4955 40.2715 83.4258 40.0651C83.4501 40.003 83.4733 39.9476 83.5102 39.8918C83.574 39.8479 83.6337 39.854 83.7089 39.8534Z" fill="#D7C4BC"/>
<path d="M83.9154 39.881C84.0375 39.9129 84.1516 39.9784 84.271 40.0078L84.3771 40.0677C84.3636 40.1736 84.3472 40.298 84.267 40.3767C84.1678 40.4741 84.0165 40.4607 83.8882 40.4628C83.8288 40.4057 83.7659 40.3487 83.714 40.2846C83.6818 40.2448 83.6533 40.197 83.6631 40.1439C83.6845 40.0265 83.828 39.9499 83.9154 39.881Z" fill="#FEFEFE"/>
<path d="M82.6461 47.8321C82.7469 47.5732 83.4959 47.1852 83.7404 47.0771C84.6943 46.6551 85.9606 46.7046 86.9207 47.079C87.2293 47.1993 88.2193 47.7339 88.367 48.0426C88.4206 48.3383 88.666 48.6076 88.7613 48.9022C88.8917 49.3049 88.8391 49.7615 88.6465 50.1356C88.3467 50.7181 87.7096 51.1126 87.1008 51.3034C86.0267 51.64 84.7207 51.5281 83.7233 51.0041C83.0921 50.6725 82.5647 50.1258 82.3516 49.4347C82.1681 48.8398 82.371 48.3594 82.6461 47.8321Z" fill="url(#paint9_linear_2_144322)"/>
<path d="M86.0667 46.91C86.4668 47.0261 86.8474 47.1302 87.232 47.2979C87.2997 47.3362 87.3718 47.3723 87.4347 47.4182C87.3544 47.4962 87.2068 47.5941 87.1643 47.6965C87.1132 47.6535 87.0593 47.6137 87.0063 47.5731L86.9017 47.4911L86.78 47.4473C86.7773 47.4432 86.7754 47.4384 86.7718 47.4348C86.5998 47.2623 86.2017 47.2228 85.9703 47.2148L85.9648 47.1972C86.0004 47.1021 86.0344 47.0063 86.0667 46.91Z" fill="#FDD950"/>
<path d="M87.2326 47.2979C87.3003 47.3362 87.3725 47.3723 87.4354 47.4182C87.3551 47.4962 87.2075 47.5941 87.165 47.6965C87.1139 47.6535 87.0599 47.6137 87.0069 47.5731L86.9023 47.4911C86.9612 47.4624 87.031 47.4509 87.0931 47.4309C87.1703 47.4061 87.1958 47.3669 87.2326 47.2979Z" fill="#FEF92B"/>
<path d="M83.5383 49.7892C83.4609 49.7301 83.3849 49.6653 83.3158 49.5967C83.0411 49.324 82.8119 48.9383 82.8206 48.5408C82.8287 48.1679 83.0306 47.8575 83.2905 47.6064C83.9431 46.9757 84.7724 46.8425 85.6474 46.8539C85.7876 46.8706 85.9279 46.8861 86.0671 46.9101C86.0348 47.0063 86.0008 47.1021 85.9653 47.1972L85.9707 47.2148C86.2022 47.2228 86.6002 47.2623 86.7722 47.4348C86.7758 47.4384 86.7777 47.4432 86.7804 47.4473L86.9021 47.4911L87.0067 47.5731C87.0597 47.6137 87.1137 47.6535 87.1648 47.6965C87.2072 47.5941 87.3548 47.4962 87.4351 47.4182C87.9124 47.7164 88.3333 48.1282 88.4603 48.6962C88.4646 48.7156 88.4685 48.7351 88.4719 48.7546C88.4753 48.7743 88.4781 48.7939 88.4805 48.8137C88.4829 48.8334 88.4848 48.8532 88.4862 48.873C88.4876 48.8928 88.4885 48.9127 88.489 48.9326C88.4894 48.9525 88.4893 48.9723 88.4887 48.9922C88.4882 49.0121 88.4871 49.0319 88.4855 49.0517C88.484 49.0715 88.482 49.0913 88.4794 49.111C88.4769 49.1307 88.4739 49.1504 88.4704 49.17C88.4669 49.1895 88.4629 49.209 88.4584 49.2284C88.4539 49.2477 88.449 49.267 88.4435 49.2861C88.4381 49.3052 88.4322 49.3242 88.4258 49.3431C88.4195 49.3619 88.4126 49.3806 88.4054 49.399C88.3981 49.4175 88.3903 49.4358 88.3821 49.454C88.3739 49.4721 88.3652 49.4899 88.3561 49.5076C88.347 49.5253 88.3375 49.5427 88.3276 49.5599C88.3176 49.5772 88.3072 49.5941 88.2964 49.6108C87.9867 50.0949 87.3856 50.3616 86.8434 50.4782C86.0617 50.6462 85.2559 50.556 84.5016 50.3097C84.1515 50.1822 83.8291 50.0249 83.5383 49.7892Z" fill="url(#paint10_linear_2_144322)"/>
<path d="M83.5381 49.7892C83.7299 49.7375 84.2127 50.0509 84.3908 50.1547C84.467 50.1991 84.4748 50.2294 84.5013 50.3097C84.1513 50.1822 83.8289 50.0249 83.5381 49.7892Z" fill="#EA4E07"/>
<path d="M85.6479 46.8539C85.7881 46.8705 85.9285 46.886 86.0677 46.91C86.0353 47.0063 86.0013 47.1021 85.9658 47.1972C85.8672 47.2036 85.7693 47.2097 85.6714 47.224C85.6188 47.2359 85.5632 47.2446 85.5127 47.2635C85.3816 47.3403 85.3131 47.4194 85.2334 47.5478C85.2431 47.075 85.5486 47.1046 85.6479 46.8539Z" fill="#FEF92B"/>
<path d="M85.9658 47.1972L85.9712 47.2148C86.2027 47.2227 86.6007 47.2622 86.7728 47.4348C86.7763 47.4384 86.7782 47.4432 86.781 47.4473L86.9026 47.4911L87.0072 47.5731C87.0602 47.6137 87.1142 47.6535 87.1653 47.6965L87.3125 47.8941C87.3342 47.956 87.3532 48.0148 87.3486 48.0814C87.3419 48.1779 87.2938 48.2664 87.2223 48.3303C87.0526 48.4817 86.7967 48.4949 86.5805 48.4806C86.1669 48.4533 85.6641 48.3303 85.3849 47.9991C85.2772 47.8714 85.2198 47.7151 85.2334 47.5478C85.3131 47.4194 85.3816 47.3403 85.5127 47.2635C85.5633 47.2446 85.6188 47.2359 85.6715 47.224C85.7693 47.2097 85.8672 47.2036 85.9658 47.1972Z" fill="#FDD950"/>
<path d="M85.5127 47.2635C85.5633 47.2447 85.6188 47.2359 85.6715 47.224C85.6551 47.3949 85.6658 47.4606 85.7781 47.5937C85.9802 47.8335 86.3431 48.0101 86.6553 48.0334C86.7498 48.0404 86.856 48.0266 86.9295 47.9615C86.99 47.9078 87.006 47.8372 87.0074 47.7602C87.0086 47.6981 87.0032 47.6348 87.0072 47.5731C87.0602 47.6137 87.1142 47.6535 87.1653 47.6965L87.3125 47.8941C87.2665 47.949 87.219 48.0116 87.163 48.0564C87.0072 48.1807 86.7809 48.194 86.5918 48.1675C86.5653 48.164 86.539 48.1599 86.5128 48.155C86.4865 48.1502 86.4604 48.1447 86.4345 48.1386C86.4085 48.1324 86.3827 48.1256 86.3571 48.1182C86.3315 48.1107 86.306 48.1026 86.2808 48.0939C86.2556 48.0852 86.2306 48.0758 86.2059 48.0658C86.1812 48.0558 86.1567 48.0452 86.1325 48.0339C86.1083 48.0227 86.0844 48.0108 86.0608 47.9984C86.0372 47.986 86.0139 47.9729 85.9909 47.9593C85.968 47.9457 85.9454 47.9315 85.9232 47.9167C85.9009 47.902 85.8791 47.8867 85.8576 47.8708C85.8362 47.8549 85.8152 47.8385 85.7945 47.8216C85.7739 47.8047 85.7537 47.7872 85.734 47.7693C85.7142 47.7514 85.695 47.7329 85.6761 47.714C85.6573 47.695 85.639 47.6757 85.6211 47.6558C85.6033 47.636 85.586 47.6157 85.5692 47.595C85.5524 47.5742 85.5361 47.5531 85.5204 47.5316C85.5115 47.4431 85.514 47.3524 85.5127 47.2635Z" fill="#FDCF81"/>
<path d="M85.9655 47.1972L85.9709 47.2148C86.2024 47.2227 86.6004 47.2622 86.7725 47.4348C86.776 47.4384 86.7779 47.4432 86.7807 47.4473L86.9023 47.4911L87.0069 47.5731C87.0029 47.6348 87.0083 47.6981 87.0071 47.7602C87.0056 47.8372 86.9897 47.9078 86.9292 47.9615C86.8557 48.0266 86.7495 48.0404 86.655 48.0334C86.3428 48.0101 85.9798 47.8335 85.7778 47.5937C85.6655 47.4606 85.6547 47.3949 85.6711 47.224C85.769 47.2097 85.8669 47.2036 85.9655 47.1972Z" fill="#FFEBAE"/>
<path d="M85.971 47.2148C86.2025 47.2227 86.6005 47.2622 86.7725 47.4348C86.7761 47.4384 86.778 47.4432 86.7807 47.4473C86.8089 47.5057 86.8281 47.5249 86.8848 47.5568C86.9114 47.5718 86.9082 47.5884 86.9171 47.6167C86.8489 47.6293 86.8245 47.5749 86.757 47.5815C86.7313 47.6366 86.7044 47.722 86.6421 47.7431C86.5086 47.7881 86.3189 47.7125 86.2015 47.652C86.0901 47.5946 85.9477 47.4941 85.9201 47.3624C85.9088 47.3082 85.9444 47.2589 85.971 47.2148Z" fill="#FEFEFE"/>
<path d="M75.1931 38.0047C77.1545 37.9556 79.1232 37.993 81.0855 37.9956L83.3559 37.9974C84.253 37.9971 85.1996 37.9521 86.0755 38.1783C86.6214 38.3193 87.2188 38.5266 87.7014 38.8214C87.9543 38.9759 88.1978 39.1931 88.472 39.3053C88.8017 39.7959 89.0858 40.3262 89.3916 40.8331C90.5014 42.672 91.5265 44.5581 92.5743 46.4328L94.0468 49.0598C94.2744 49.4663 94.5435 49.8665 94.7293 50.2944C94.8757 50.6312 94.9077 50.9569 94.9171 51.3212C94.9479 51.9994 94.7641 52.5384 94.6407 53.1866C94.3751 54.3239 94.0997 55.4587 93.8142 56.5911C93.7327 56.9127 93.6961 57.2418 93.5904 57.5579C93.533 57.6192 93.5034 57.6761 93.4713 57.7533C93.2456 57.7112 92.575 57.9164 92.3165 57.9656L88.0218 58.7596C87.3715 58.8827 86.7189 59.0263 86.0625 59.1115C85.9328 59.1284 85.7812 59.1651 85.6524 59.1651C85.6189 59.0591 85.5868 58.9526 85.5561 58.8457C85.2124 57.6034 85.4397 56.1872 86.0754 55.0738C86.1812 55.0199 86.2994 54.7857 86.3485 54.6775C85.0321 54.7446 83.7093 54.7398 82.3916 54.7737C78.882 54.8689 75.3719 54.9371 71.8613 54.9786L65.1294 55.0877C63.969 55.1093 62.8024 55.1835 61.6423 55.1548C61.5196 55.1455 61.3974 55.1261 61.2754 55.1099C61.6046 54.8857 61.8421 54.8931 62.1653 54.7431C62.4169 54.6264 62.6379 54.4326 62.8529 54.2602C62.7734 54.1562 62.683 54.0788 62.5919 53.9867C62.5174 53.9113 62.45 53.8388 62.4505 53.7278C62.4854 53.6668 62.5054 53.659 62.5642 53.6238C62.7074 53.6675 62.8692 53.6789 63.0177 53.6992C63.7116 53.7937 64.4017 53.822 65.1022 53.8109C65.5746 53.8034 66.0455 53.768 66.5176 53.7502L69.3702 53.6616L80.0751 53.3854L84.3591 53.2761L85.5977 53.2446C85.9096 53.2362 86.2291 53.2442 86.5352 53.1775C87.4984 52.9676 88.8601 52.068 89.5346 51.3649C89.5679 51.3308 89.6008 51.2962 89.6332 51.2612C89.6657 51.2262 89.6976 51.1908 89.7292 51.155C89.7607 51.1193 89.7918 51.0831 89.8224 51.0465C89.8531 51.0099 89.8832 50.973 89.9129 50.9356C89.9426 50.8983 89.9718 50.8606 90.0006 50.8225C90.0293 50.7844 90.0576 50.746 90.0854 50.7072C90.1132 50.6685 90.1405 50.6293 90.1672 50.5899C90.194 50.5504 90.2204 50.5106 90.2462 50.4705C90.2719 50.4303 90.2972 50.3899 90.322 50.3491C90.3468 50.3084 90.371 50.2673 90.3948 50.2259C90.4185 50.1845 90.4418 50.1428 90.4644 50.1009C90.4871 50.0589 90.5093 50.0167 90.5309 49.9742C90.5526 49.9316 90.5737 49.8889 90.5942 49.8458C90.6148 49.8027 90.6348 49.7594 90.6542 49.7159C90.6737 49.6723 90.6926 49.6285 90.711 49.5845C90.7293 49.5405 90.7471 49.4962 90.7644 49.4517C90.7816 49.4073 90.7983 49.3626 90.8144 49.3177C90.8305 49.2728 90.8461 49.2277 90.8611 49.1824C90.8761 49.1371 90.8905 49.0916 90.9043 49.046C90.9182 49.0003 90.9314 48.9545 90.9441 48.9085C90.9568 48.8625 90.9689 48.8164 90.9804 48.7701C90.992 48.7238 91.0029 48.6774 91.0133 48.6308C91.0236 48.5842 91.0334 48.5375 91.0426 48.4907C91.0518 48.4439 91.0603 48.397 91.0683 48.3499C91.0763 48.3029 91.0837 48.2558 91.0906 48.2086C91.0974 48.1614 91.1036 48.1141 91.1092 48.0667C91.1148 48.0193 91.1199 47.9719 91.1243 47.9244C91.1287 47.8769 91.1325 47.8293 91.1358 47.7818C91.139 47.7341 91.1416 47.6865 91.1437 47.6389C91.1457 47.5912 91.1471 47.5435 91.148 47.4958C91.1488 47.4481 91.149 47.4004 91.1487 47.3527C91.1483 47.305 91.1473 47.2573 91.1458 47.2096C91.0901 45.1652 90.0079 43.2661 88.548 41.8847C88.4754 41.8159 88.4018 41.748 88.3272 41.6813C88.2526 41.6145 88.1771 41.5487 88.1007 41.4841C88.0243 41.4195 87.9469 41.3559 87.8687 41.2935C87.7904 41.2311 87.7113 41.1698 87.6313 41.1096C87.5512 41.0494 87.4704 40.9904 87.3887 40.9325C87.3071 40.8747 87.2246 40.818 87.1413 40.7624C87.058 40.7069 86.9739 40.6526 86.889 40.5995C86.8042 40.5463 86.7186 40.4944 86.6323 40.4437C86.546 40.393 86.459 40.3436 86.3712 40.2954C86.2835 40.2472 86.1951 40.2002 86.106 40.1545C86.0169 40.1088 85.9272 40.0644 85.8369 40.0213C85.7466 39.9781 85.6557 39.9363 85.5641 39.8957C85.4726 39.8552 85.3805 39.8159 85.2879 39.778C85.1952 39.7401 85.1021 39.7035 85.0084 39.6682C84.9147 39.6329 84.8205 39.599 84.7259 39.5664C84.6312 39.5339 84.5361 39.5026 84.4406 39.4727C83.6761 39.2288 82.8711 39.098 82.0785 38.986C79.7424 38.6557 77.499 38.6448 75.1493 38.7077C75.1548 38.4739 75.1584 38.2361 75.1931 38.0047Z" fill="#CCA4D3"/>
<path d="M89.3171 54.5887C89.285 54.5855 89.2583 54.5818 89.2274 54.5713C89.1922 54.5593 89.2062 54.568 89.1875 54.5273C89.2262 54.4639 89.3206 54.4396 89.3825 54.3997L89.3816 54.3159C89.4114 54.2965 89.4183 54.2952 89.4532 54.3009C89.5694 54.3198 89.7485 54.4358 89.8135 54.5317C90.1263 54.5486 90.4586 54.4968 90.7658 54.5574C90.2845 54.5598 89.7974 54.5585 89.3171 54.5887Z" fill="#FEFEFE"/>
<path d="M94.9171 51.3212C94.9478 51.9994 94.7641 52.5384 94.6406 53.1865C94.6066 53.2077 94.5856 53.2191 94.545 53.2239C94.397 53.2417 94.2485 53.2737 94.1013 53.2982L94.1131 53.2856L94.0791 53.2975C94.0955 53.2543 94.0881 53.2677 94.1095 53.2328C94.1271 53.2037 94.1234 53.1975 94.1238 53.1644C94.2145 53.0087 94.3289 52.8654 94.4199 52.7078C94.6701 52.2729 94.8034 51.8058 94.9171 51.3212Z" fill="#8E4A72"/>
<path d="M92.3725 48.6529C92.3852 48.6633 92.3971 48.6753 92.4085 48.6871C92.5833 48.8681 92.6991 49.1338 92.8105 49.3566C93.1882 50.1118 93.5831 50.9642 93.5631 51.8251C93.5527 52.2728 93.3996 52.672 93.0703 52.9808C92.337 53.6685 91.2317 53.5498 90.3057 53.5236L88.9304 53.4959C88.6695 53.4921 88.4085 53.4898 88.1475 53.489C88.5402 53.3722 88.9298 53.2516 89.3271 53.1502C90.0218 52.9728 90.7287 52.8208 91.4155 52.6155C91.8795 52.4768 92.5274 52.2884 92.7672 51.8256C93.1131 51.1582 92.8638 50.0227 92.6353 49.3399C92.5616 49.1198 92.4532 48.9085 92.3837 48.6896C92.3798 48.6774 92.3762 48.6651 92.3725 48.6529Z" fill="#FEFEFE"/>
<path d="M90.7663 54.5574C90.7834 54.5588 90.8004 54.5604 90.8176 54.5611C91.8616 54.5971 92.9398 54.2809 93.7287 53.5803C93.8659 53.4585 93.9728 53.3036 94.1073 53.1794C94.1127 53.1742 94.1184 53.1694 94.1241 53.1644C94.1237 53.1975 94.1274 53.2037 94.1098 53.2328C94.0885 53.2677 94.0958 53.2543 94.0794 53.2975L94.1135 53.2856L94.1016 53.2982C94.2488 53.2737 94.3973 53.2417 94.5454 53.2239C94.586 53.2191 94.6069 53.2077 94.6409 53.1865C94.3754 54.3239 94.1 55.4587 93.8145 56.5911C93.7329 56.9127 93.6963 57.2418 93.5907 57.5579C93.5333 57.6192 93.5037 57.6761 93.4715 57.7533C93.2459 57.7112 92.5753 57.9164 92.3167 57.9656L88.0221 58.7596C87.3718 58.8827 86.7192 59.0263 86.0628 59.1115C85.9331 59.1284 85.7814 59.1651 85.6526 59.1651C85.6192 59.0591 85.5871 58.9526 85.5564 58.8457C85.2127 57.6034 85.44 56.1872 86.0757 55.0738C86.1815 55.0199 86.2996 54.7857 86.3488 54.6775C86.6688 54.6066 87.2639 54.6444 87.6142 54.6432C88.1788 54.6413 88.7541 54.6273 89.3176 54.5887C89.7979 54.5585 90.285 54.5598 90.7663 54.5574Z" fill="url(#paint11_linear_2_144322)"/>
<path d="M71.839 37.6808C71.854 37.7688 71.8606 37.8766 71.8463 37.9652C71.8148 38.0173 71.8141 38.0366 71.7528 38.0519C71.5373 38.1059 70.6373 38.0523 70.3508 38.0553C70.111 38.0667 69.8709 38.0675 69.6309 38.0748L69.6911 38.0647C69.6638 38.3069 69.5847 38.5865 69.5891 38.8251C68.8023 38.8189 68.0161 38.8232 67.2317 38.8932C64.4385 39.1422 61.5527 40.0528 59.5174 42.06C58.1258 43.4324 57.0898 45.3607 57.0782 47.347C57.0687 48.9817 57.6164 50.5048 58.7799 51.6751C59.8432 52.7446 61.1243 53.2691 62.5645 53.6238C62.5057 53.659 62.4857 53.6668 62.4509 53.7278C62.4504 53.8388 62.5177 53.9113 62.5923 53.9867C62.6834 54.0788 62.7738 54.1561 62.8532 54.2602C62.6383 54.4326 62.4172 54.6263 62.1657 54.7431C61.8425 54.8931 61.6049 54.8857 61.2757 55.1098C61.3977 55.1261 61.5199 55.1454 61.6427 55.1548C62.8028 55.1835 63.9694 55.1093 65.1298 55.0877L71.8617 54.9785C75.3723 54.9371 78.8824 54.8688 82.3919 54.7737C83.7096 54.7398 85.0324 54.7446 86.3489 54.6775C86.2997 54.7857 86.1815 55.0199 86.0758 55.0737C85.4401 56.1872 85.2127 57.6034 85.5565 58.8457C85.5871 58.9526 85.6192 59.059 85.6527 59.1651C85.7815 59.1651 85.9331 59.1283 86.0628 59.1115C86.7192 59.0263 87.3719 58.8827 88.0222 58.7596L92.3168 57.9656C92.5753 57.9164 93.246 57.7112 93.4716 57.7533C93.5037 57.6761 93.5334 57.6192 93.5908 57.5579C93.5392 57.7962 93.4884 58.0312 93.3961 58.2581C93.1386 58.8911 92.588 59.4302 92.0211 59.7941C91.4468 60.1625 90.7869 60.3787 90.1122 60.4644C89.2638 60.5727 88.3894 60.5522 87.5346 60.5673L83.2757 60.635L69.1853 60.902L66.4422 60.9578C66.0809 60.964 65.5026 60.9295 65.1723 61.0001H58.3385C58.0618 60.8992 57.764 60.8561 57.4809 60.7736C57.3818 60.7444 57.2836 60.7123 57.1864 60.6773C57.0891 60.6423 56.9929 60.6045 56.8979 60.5641C56.8028 60.5236 56.7089 60.4804 56.6163 60.4344C56.5237 60.3888 56.4325 60.3404 56.3427 60.2893C56.2528 60.2381 56.1646 60.1844 56.0778 60.1281C55.991 60.072 55.906 60.0135 55.8226 59.9525C55.7392 59.8914 55.6576 59.8281 55.5779 59.7624C55.4981 59.6967 55.4203 59.6287 55.3444 59.5586C55.2925 59.5101 55.2419 59.4602 55.1927 59.4089C55.1434 59.3577 55.0956 59.3051 55.0493 59.2512C55.0029 59.1974 54.958 59.1423 54.9146 59.086C54.8713 59.0297 54.8295 58.9722 54.7892 58.9136C54.749 58.8551 54.7104 58.7954 54.6734 58.7348C54.6364 58.6741 54.6011 58.6124 54.5674 58.5498C54.5338 58.4872 54.5019 58.4237 54.4717 58.3594C54.4415 58.295 54.4131 58.2299 54.3865 58.164C54.2276 57.7622 54.1688 57.3304 54.0822 56.9094L53.752 55.3496L53.2767 53.1616C53.1825 52.7254 53.0467 52.267 53.0329 51.8201C53.0231 51.5037 53.1185 51.2347 53.2475 50.95C53.3692 50.6815 53.5339 50.4302 53.6721 50.1696C53.9579 49.6302 54.2351 49.086 54.513 48.5426C55.563 46.4796 56.626 44.4234 57.7021 42.3738L58.6735 40.5032C58.9396 39.9958 59.1887 39.3985 59.5878 38.9813C60.1714 38.3712 61.1215 37.9676 61.9408 37.808C62.4749 37.7039 63.0063 37.7176 63.5473 37.7159L64.9028 37.7062L69.0664 37.684C69.9898 37.6844 70.9161 37.7048 71.839 37.6808Z" fill="#794F4A"/>
<path d="M60.4983 59.4107L60.5136 59.4199C60.5632 59.81 60.6084 60.2277 60.6987 60.6096C60.545 60.5944 60.3828 60.6088 60.228 60.6088C60.006 60.6077 59.7842 60.5989 59.5628 60.5825C59.3414 60.5661 59.1207 60.5421 58.901 60.5103C58.6812 60.4786 58.4627 60.4394 58.2457 60.3926C58.0286 60.3456 57.8134 60.2913 57.6001 60.2298C57.4454 60.1847 57.2118 60.1318 57.0957 60.0161C57.5332 60.0288 58.0045 59.878 58.4354 59.8016C59.0768 59.6878 59.8797 59.5878 60.4983 59.4107Z" fill="#8E4A72"/>
<path d="M85.6523 59.1651C85.7811 59.1651 85.9328 59.1283 86.0625 59.1115C86.7189 59.0263 87.3715 58.8827 88.0218 58.7596L92.3164 57.9656C92.575 57.9164 93.2456 57.7112 93.4712 57.7533C93.0641 58.6579 92.1856 59.3151 91.2758 59.6609C89.9782 60.1543 88.5536 60.0194 87.194 60.0579C86.9242 60.0657 86.3068 60.1375 86.0819 60.0887C85.8838 59.8002 85.7604 59.4966 85.6523 59.1651Z" fill="url(#paint12_linear_2_144322)"/>
<path d="M55.708 54.7921C56.1149 54.974 56.5237 55.1134 56.9654 55.1847C57.6973 55.3029 58.4576 55.257 59.1954 55.2351C60.0095 55.2111 60.8267 55.1829 61.641 55.173L61.6847 55.192C61.5486 55.3699 61.3229 55.5168 61.1674 55.6867C60.4976 56.4184 60.1862 57.2195 60.3176 58.2107C60.3482 58.4422 60.4055 58.6693 60.4365 58.8999C60.4591 59.0678 60.4548 59.2471 60.4978 59.4107C59.8792 59.5878 59.0763 59.6878 58.4349 59.8016C58.004 59.878 57.5326 60.0288 57.0951 60.0161C57.0187 59.9819 56.8962 59.9771 56.8113 59.9499L56.8149 59.9349C56.8651 59.9346 56.8452 59.9314 56.89 59.9427C57.1739 60.0141 57.9473 59.9128 58.2025 59.7829C58.2078 59.7456 58.2031 59.7357 58.1828 59.7043C58.1241 59.6134 58.0223 59.5428 57.9526 59.4584C57.8581 59.3439 57.7842 59.2098 57.7059 59.084C57.5224 58.789 57.2713 58.5601 57.082 58.2761C56.7543 57.7847 56.0689 56.2119 55.9993 55.6296C55.9561 55.5833 55.915 55.5364 55.8748 55.4874C55.872 55.2837 55.8565 54.942 55.708 54.7921Z" fill="url(#paint13_linear_2_144322)"/>
<path d="M60.5137 59.4199C61.3803 59.2757 62.2436 59.1081 63.1093 58.9579L69.8209 57.8287L72.0076 57.4616C72.3596 57.4024 72.7205 57.3224 73.0751 57.2882C73.1253 57.2901 73.206 57.2766 73.2392 57.3185C73.2578 57.3421 73.2701 57.394 73.2808 57.4231C73.5636 57.6668 73.8881 57.875 74.1855 58.1019C74.9551 58.6892 75.7246 59.2694 76.5175 59.8253C76.6477 59.9165 76.7691 60.101 76.8282 60.1367C76.8643 60.1584 76.9222 60.1625 76.9633 60.1691C77.04 60.1822 77.1189 60.2019 77.1901 60.2335L77.237 60.3032C76.9106 60.3044 76.5824 60.2975 76.2562 60.3069C75.9996 60.3143 75.7438 60.3401 75.487 60.3438C75.0537 60.3508 74.6194 60.336 74.1864 60.3467C73.9054 60.3541 73.6251 60.3766 73.3439 60.3824L65.9715 60.5107C65.5928 60.5185 65.2146 60.5427 64.8359 60.5468C64.3118 60.5522 63.7866 60.5382 63.2628 60.555C62.6359 60.5751 62.0131 60.5866 61.3858 60.5928C61.1589 60.5948 60.9242 60.6219 60.6987 60.6096C60.6085 60.2277 60.5633 59.81 60.5137 59.4199Z" fill="url(#paint14_linear_2_144322)"/>
<path d="M73.0752 57.2882C73.2712 57.2361 73.4824 57.2121 73.6828 57.1781L74.8183 56.9858L78.3753 56.3793L83.4768 55.5107C84.3337 55.3648 85.2156 55.1757 86.0758 55.0738C85.4401 56.1872 85.2127 57.6034 85.5565 58.8457C85.5871 58.9526 85.6192 59.0591 85.6527 59.1651C85.7608 59.4966 85.8842 59.8002 86.0823 60.0887C85.7067 60.1174 85.3231 60.092 84.9458 60.1022L81.5682 60.181C81.3351 60.1859 81.1029 60.2142 80.8696 60.2199L78.0167 60.2638C77.7559 60.2663 77.4986 60.3114 77.2371 60.3032L77.1902 60.2335C77.119 60.2019 77.0401 60.1822 76.9634 60.1691C76.9223 60.1625 76.8644 60.1584 76.8282 60.1367C76.7691 60.101 76.6477 59.9165 76.5176 59.8253C75.7247 59.2694 74.9551 58.6892 74.1856 58.1019C73.8882 57.875 73.5636 57.6668 73.2809 57.4231C73.2701 57.394 73.2579 57.3421 73.2393 57.3185C73.2061 57.2766 73.1254 57.2901 73.0752 57.2882Z" fill="url(#paint15_linear_2_144322)"/>
<path d="M55.7087 54.7921C55.2585 54.5049 54.9334 54.3497 54.5552 53.943C53.9995 53.3452 53.5964 52.5618 53.6321 51.7272C53.644 51.448 53.7212 51.1892 53.8361 50.9358C54.0928 50.3699 54.4284 49.8229 54.7163 49.2702L56.4131 45.9625L58.4068 42.1241L59.1675 40.6462C59.3146 40.3555 59.4486 40.0537 59.611 39.7715C59.7371 39.5524 59.8639 39.3831 60.05 39.2126C60.6162 38.6935 61.3978 38.3199 62.1467 38.1614C62.812 38.0205 63.5167 38.0466 64.1928 38.0497L65.8664 38.0511L68.7461 38.0496C69.2797 38.0495 69.8179 38.034 70.3508 38.0553C70.111 38.0667 69.8709 38.0675 69.6309 38.0748L69.6911 38.0647C69.6638 38.3069 69.5847 38.5865 69.5891 38.8251C68.8023 38.8189 68.0161 38.8232 67.2317 38.8932C64.4385 39.1422 61.5527 40.0528 59.5174 42.06C58.1259 43.4324 57.0898 45.3607 57.0783 47.347C57.0687 48.9817 57.6164 50.5048 58.7799 51.6751C59.8432 52.7446 61.1243 53.2691 62.5646 53.6238C62.5057 53.659 62.4858 53.6668 62.4509 53.7278C62.4504 53.8388 62.5178 53.9113 62.5923 53.9867C62.6834 54.0788 62.7738 54.1562 62.8532 54.2602C62.6383 54.4326 62.4172 54.6264 62.1657 54.7431C61.8425 54.8931 61.605 54.8857 61.2758 55.1098C61.3977 55.1261 61.52 55.1455 61.6427 55.1548L61.6417 55.173C60.8275 55.1829 60.0103 55.2111 59.1962 55.2352C58.4583 55.257 57.6981 55.3029 56.9661 55.1847C56.5245 55.1134 56.1156 54.974 55.7087 54.7921Z" fill="#A3839D"/>
<path d="M61.642 55.1548C62.8021 55.1835 63.9687 55.1093 65.1291 55.0877L71.861 54.9786C75.3716 54.9371 78.8817 54.8689 82.3913 54.7737C83.7089 54.7398 85.0318 54.7446 86.3482 54.6775C86.299 54.7857 86.1808 55.0199 86.0751 55.0738C85.2149 55.1757 84.3331 55.3648 83.4761 55.5107L78.3746 56.3793L74.8176 56.9858L73.6822 57.1781C73.4817 57.2121 73.2705 57.2361 73.0745 57.2882C72.7199 57.3224 72.359 57.4024 72.007 57.4616L69.8203 57.8286L63.1087 58.9578C62.243 59.108 61.3796 59.2757 60.5131 59.4199L60.4978 59.4107C60.4548 59.2471 60.4591 59.0679 60.4365 58.8999C60.4055 58.6693 60.3483 58.4422 60.3176 58.2107C60.1863 57.2195 60.4976 56.4185 61.1674 55.6867C61.3229 55.5168 61.5486 55.3699 61.6847 55.192L61.641 55.173L61.642 55.1548Z" fill="#794F4A"/>
<path d="M73.7515 35.1763C73.9451 35.127 74.1882 35.131 74.39 35.106C74.719 35.0651 75.0457 35.004 75.3716 34.9438C75.3596 35.1668 75.3504 35.3904 75.3335 35.613L75.2264 37.4747C77.3264 37.4535 79.4284 37.4764 81.5287 37.4777L83.4843 37.4777C84.0699 37.4778 84.6486 37.465 85.2299 37.5508C86.0977 37.6788 87.4246 38.054 88.0588 38.6657C88.2479 38.8479 88.3567 39.0733 88.4717 39.3053C88.1974 39.1931 87.9539 38.9759 87.7011 38.8214C87.2184 38.5266 86.621 38.3193 86.0752 38.1783C85.1993 37.9521 84.2526 37.9971 83.3556 37.9974L81.0851 37.9956C79.1228 37.993 77.1541 37.9556 75.1927 38.0046C75.1581 38.2361 75.1545 38.4739 75.1489 38.7077C75.1472 38.8794 75.1555 39.058 75.1352 39.2285C75.1084 39.3465 75.1022 39.4637 75.0815 39.582C75.0286 39.8902 75.021 40.2164 74.9977 40.5285C74.9771 40.8037 74.9408 41.0884 74.9426 41.3642C75.0762 41.4184 75.2093 41.4666 75.3467 41.5102C75.3515 41.5148 75.3562 41.5195 75.3611 41.524C75.5031 41.6552 75.6959 41.7362 75.8571 41.843C76.1575 42.0421 76.4328 42.4139 76.4479 42.7824C76.4583 43.0362 76.3376 43.2517 76.1657 43.4293C75.953 43.649 75.6825 43.8217 75.4057 43.949C75.2549 44.0184 74.5684 44.2122 74.5183 44.2695C74.4592 44.2852 74.4026 44.3023 74.3453 44.3236C74.2504 44.489 74.3512 44.9226 74.3989 45.1009C74.459 45.3257 74.7128 46.105 74.8619 46.24C74.9315 46.2625 74.9958 46.2582 75.0683 46.2562C74.9396 46.2798 74.8087 46.2797 74.6811 46.3069C74.4227 46.3353 73.7471 46.3952 73.5188 46.3211C73.4799 46.3085 73.4924 46.3181 73.4749 46.2837C73.5215 46.2802 73.5673 46.2748 73.6137 46.2687C73.6468 46.2077 73.4395 45.7209 73.4042 45.6113C73.2008 44.9794 73.2022 44.5145 73.4088 43.8864L73.3867 43.858C73.3414 43.856 73.3019 43.8566 73.261 43.8344C73.2535 43.8303 73.2468 43.825 73.2398 43.8203C73.5835 43.8116 73.9448 43.8195 74.2834 43.7538C74.296 43.5115 74.2387 43.2192 74.1517 42.9927L73.8718 43.0699C73.7427 43.0896 73.6034 43.0784 73.4728 43.0761C73.0066 43.0789 72.578 43.0566 72.1913 42.7689C72.1891 42.7637 72.1868 42.7585 72.1846 42.7533C72.1812 42.7445 72.1779 42.7356 72.1744 42.7269C72.0625 42.446 72.0763 42.0513 72.0721 41.7503C72.0767 41.4318 72.0476 41.1129 72.0209 40.7958C72.0077 40.5241 71.9927 40.2525 71.9759 39.981C71.9792 39.8225 71.9665 39.662 71.9506 39.5043L71.931 39.2507C71.9307 39.1115 71.9173 38.9734 71.9056 38.8348C71.8617 38.5618 71.8471 38.2418 71.8456 37.9652C71.8598 37.8766 71.8533 37.7689 71.8383 37.6808C71.7688 36.9733 71.7551 36.2542 71.7246 35.5441L71.7534 35.5243C71.7738 35.556 71.7848 35.5851 71.7978 35.62C71.8714 35.8177 72.0229 35.8999 72.2067 35.9805C72.586 36.1468 73.0232 36.1777 73.432 36.1998L73.5345 36.2104L73.8625 36.1692C73.826 35.8332 73.7546 35.5177 73.7515 35.1763Z" fill="#898481"/>
<path d="M74.9264 41.9278C75.2105 42.067 75.503 42.2631 75.6119 42.5777C75.6698 42.7451 75.6518 42.9175 75.5683 43.0727C75.3835 43.4165 74.9538 43.594 74.5965 43.6929C74.4977 43.7202 74.3865 43.7526 74.2841 43.7538C74.2966 43.5115 74.2394 43.2192 74.1523 42.9927C74.3966 42.9219 74.6806 42.8431 74.8168 42.6076C74.9289 42.4135 74.9252 42.1465 74.9264 41.9278Z" fill="#794F4A"/>
<path d="M74.7597 36.1609C74.7817 36.1665 74.7931 36.1778 74.8108 36.1914C74.8613 36.3144 74.8459 36.4776 74.8419 36.6092C74.8291 37.0239 74.7824 37.4389 74.7618 37.8536L74.6333 40.6638C74.6044 41.1937 74.6268 41.9381 74.529 42.4262C74.5065 42.5384 74.4611 42.5829 74.369 42.6467C74.347 42.6403 74.3342 42.6267 74.3167 42.6123C74.284 42.5416 74.2796 42.4803 74.2794 42.4027C74.2767 41.5764 74.3259 40.7416 74.3456 39.9147L74.4097 36.3673C74.517 36.2837 74.6401 36.2244 74.7597 36.1609Z" fill="#D7C4BC"/>
<path d="M73.7521 35.1763C73.9456 35.127 74.1887 35.131 74.3905 35.106C74.7195 35.0651 75.0463 35.004 75.3721 34.9438C75.3601 35.1668 75.3509 35.3904 75.334 35.613C74.7851 36.0459 74.4684 36.0657 73.816 36.2106L73.8141 39.9481C73.8048 40.892 73.7633 41.9018 73.7927 42.8395C73.7951 42.9151 73.798 42.9853 73.829 43.0553L73.8724 43.0699C73.7433 43.0896 73.6039 43.0784 73.4733 43.0761C73.4392 42.6276 73.4806 42.1627 73.4853 41.7124C73.4973 40.5726 73.5328 39.4285 73.5058 38.2888C73.53 37.6007 73.4605 36.8938 73.535 36.2104L73.8631 36.1692C73.8265 35.8332 73.7551 35.5177 73.7521 35.1763Z" fill="#794F4A"/>
<path d="M71.7246 35.5441L71.7534 35.5243C71.7738 35.556 71.7848 35.5851 71.7978 35.62C71.8714 35.8177 72.0229 35.8998 72.2067 35.9805C72.586 36.1468 73.0232 36.1777 73.432 36.1998L73.5345 36.2104C73.4599 36.8938 73.5295 37.6007 73.5053 38.2888C73.5323 39.4285 73.4967 40.5726 73.4848 41.7124C73.4801 42.1626 73.4387 42.6276 73.4728 43.0761C73.0066 43.0789 72.578 43.0566 72.1913 42.7689C72.1891 42.7637 72.1868 42.7585 72.1846 42.7533C72.1812 42.7445 72.1779 42.7356 72.1744 42.7269C72.0625 42.446 72.0763 42.0513 72.0721 41.7503C72.0767 41.4318 72.0476 41.1129 72.0209 40.7958C72.0077 40.5241 71.9927 40.2525 71.9759 39.981C71.9792 39.8225 71.9665 39.662 71.9506 39.5043L71.931 39.2507C71.9307 39.1115 71.9173 38.9734 71.9056 38.8348C71.8617 38.5618 71.8471 38.2418 71.8456 37.9652C71.8598 37.8766 71.8533 37.7688 71.8383 37.6808C71.7688 36.9733 71.7551 36.2542 71.7246 35.5441Z" fill="url(#paint16_linear_2_144322)"/>
<path d="M73.4326 36.1998L73.5351 36.2104C73.4606 36.8938 73.5301 37.6007 73.5059 38.2888C73.4671 38.0757 73.4686 37.8588 73.4627 37.6429C73.4498 37.1647 73.4664 36.676 73.4326 36.1998Z" fill="#904A17"/>
<path d="M73.168 19.0001H74.2164C74.4603 19.0766 74.7545 19.0794 75.0096 19.1199C75.5128 19.1997 76.6301 19.4855 77.0394 19.7479C77.2999 19.8136 77.5959 20.0111 77.8298 20.145C79.1538 20.9027 80.2191 21.9332 81.0025 23.2443C81.0348 23.2977 81.0664 23.3515 81.0973 23.4056C81.1282 23.4598 81.1585 23.5144 81.188 23.5693C81.2176 23.6243 81.2465 23.6795 81.2746 23.7352C81.3028 23.7908 81.3303 23.8468 81.3571 23.9032C81.3839 23.9595 81.41 24.0162 81.4354 24.0732C81.4608 24.1301 81.4855 24.1874 81.5094 24.245C81.5334 24.3026 81.5567 24.3605 81.5792 24.4187C81.6017 24.4769 81.6235 24.5353 81.6446 24.5941C81.6656 24.6528 81.686 24.7117 81.7056 24.771C81.7252 24.8302 81.744 24.8896 81.7622 24.9493C81.7803 25.009 81.7977 25.0689 81.8143 25.1291C81.8309 25.1892 81.8468 25.2495 81.862 25.31C81.8771 25.3705 81.8915 25.4312 81.9051 25.4921C81.9187 25.553 81.9316 25.614 81.9437 25.6752C81.9558 25.7365 81.9672 25.7978 81.9777 25.8593C81.9883 25.9207 81.9981 25.9823 82.0072 26.0441C82.0162 26.1058 82.0245 26.1676 82.032 26.2296C82.0395 26.2915 82.0463 26.3535 82.0522 26.4156C82.0582 26.4777 82.0634 26.5399 82.0678 26.6021C82.0722 26.6643 82.0759 26.7266 82.0788 26.7889C82.0816 26.8512 82.0837 26.9136 82.0851 26.976C82.0864 27.0383 82.0869 27.1007 82.0867 27.1631C82.0865 27.2255 82.0855 27.2878 82.0837 27.3502C82.0819 27.4126 82.0793 27.4749 82.076 27.5372C82.0727 27.5995 82.0686 27.6617 82.0637 27.7239C82.0588 27.7861 82.0532 27.8482 82.0468 27.9103C82.0403 27.9723 82.0332 28.0343 82.0252 28.0962C82.0172 28.1581 82.0085 28.2198 81.999 28.2815C81.9895 28.3431 81.9792 28.4047 81.9682 28.4661C81.9572 28.5275 81.9454 28.5887 81.9328 28.6498C81.9203 28.7109 81.907 28.7719 81.8929 28.8327C81.8788 28.8934 81.864 28.954 81.8484 29.0144C81.7719 29.3147 81.6822 29.6221 81.5545 29.9049C80.741 31.9454 78.9834 33.6217 76.9774 34.4779C76.4673 34.6956 75.9179 34.8453 75.3725 34.9438C75.0466 35.004 74.7199 35.0651 74.3909 35.106C74.1891 35.131 73.946 35.127 73.7524 35.1763C73.7555 35.5178 73.8269 35.8332 73.8635 36.1692L73.5354 36.2104L73.4329 36.1998C73.0241 36.1777 72.5869 36.1469 72.2077 35.9805C72.0238 35.8999 71.8724 35.8177 71.7987 35.62C71.7857 35.5851 71.7747 35.556 71.7543 35.5243L71.7255 35.5441L71.7089 34.9255C70.995 34.761 70.3398 34.4685 69.6954 34.1259C67.881 33.1615 66.4983 31.3802 65.9022 29.4279C65.2956 27.4412 65.4922 25.0914 66.4735 23.2528C67.3904 21.535 69.0198 20.0566 70.9036 19.4833C71.0559 19.4232 71.2173 19.3797 71.3736 19.3306L71.8307 19.221C72.0567 19.1681 72.2847 19.126 72.5147 19.0946C72.7318 19.0665 72.9556 19.0542 73.168 19.0001Z" fill="url(#paint17_linear_2_144322)"/>
<path d="M73.1679 19.0001H74.2162C74.4601 19.0766 74.7544 19.0794 75.0095 19.1199C75.5126 19.1997 76.63 19.4855 77.0393 19.7479L77.0519 19.7905C77.06 19.7936 77.0682 19.7967 77.0763 19.8C77.3211 19.8985 77.5551 20.0383 77.7833 20.1701C77.9797 20.2835 78.1856 20.3888 78.3751 20.5131C78.8645 20.834 79.3359 21.2418 79.746 21.6589C79.847 21.7616 80.0089 21.8984 80.0632 22.0314C80.0667 22.04 80.0695 22.0488 80.0727 22.0575L80.0572 22.088C79.9144 22.0929 79.7954 21.9937 79.6394 21.9996C79.5425 22.0032 79.4673 21.9172 79.4029 21.8536C78.9529 21.4079 78.4435 20.8662 77.9105 20.5234C77.6986 20.3871 77.4675 20.2811 77.2419 20.1695C77.1425 20.1203 76.9951 20.0128 76.8908 20.0033C76.9133 20.0384 76.9064 20.0365 76.9481 20.0546C76.9934 20.0742 76.9761 20.0646 77.0132 20.0919C76.5528 19.9426 76.0984 19.7672 75.6208 19.6805C74.4701 19.4716 73.6114 19.7582 72.5714 20.1827C72.3133 20.2881 72.0518 20.3789 71.8028 20.5056C70.819 21.0064 69.9598 21.7729 69.4815 22.7804C69.498 22.3358 69.7365 21.858 69.8694 21.4418C69.8318 21.4551 69.7976 21.4745 69.7622 21.4928C69.6756 21.4775 69.7363 21.4396 69.6816 21.3958C69.5852 21.3188 69.4291 21.3682 69.316 21.3731C69.2431 21.3763 69.1715 21.3764 69.1177 21.3195C69.1111 21.3125 69.1062 21.304 69.0996 21.297C69.0894 21.286 69.0781 21.276 69.0684 21.2646L69.0874 21.1713C69.385 20.6237 70.1665 20.0351 70.6967 19.7172C70.7586 19.6801 70.8272 19.6589 70.8889 19.6233C70.9507 19.5877 70.9986 19.5301 71.0664 19.5058C71.0985 19.4943 71.1198 19.4831 71.148 19.4644L71.092 19.4642C71.0717 19.4775 71.0457 19.4974 71.0229 19.5073C70.97 19.5302 70.9527 19.5074 70.9034 19.4833C71.0558 19.4232 71.2171 19.3797 71.3734 19.3306L71.8306 19.221C72.0566 19.1681 72.2845 19.126 72.5145 19.0946C72.7316 19.0665 72.9554 19.0542 73.1679 19.0001Z" fill="#F57312"/>
<path d="M71.3732 19.3306L71.8304 19.221C71.7753 19.4378 71.2653 19.7055 71.0781 19.8618C71.0895 19.8476 71.1156 19.8158 71.1241 19.8008C71.1514 19.7521 71.1159 19.6972 71.0989 19.6496C71.1737 19.5356 71.2922 19.47 71.363 19.3491C71.3665 19.343 71.3698 19.3368 71.3732 19.3306Z" fill="#CF4C2A"/>
<path d="M70.9036 19.4833C70.9529 19.5074 70.9702 19.5302 71.0231 19.5073C71.0458 19.4974 71.0719 19.4775 71.0922 19.4642L71.1481 19.4644C71.12 19.4831 71.0986 19.4943 71.0666 19.5058C70.9987 19.5301 70.9509 19.5877 70.8891 19.6233C70.8274 19.6589 70.7588 19.6801 70.6968 19.7172C70.1666 20.0351 69.3852 20.6237 69.0876 21.1713C68.2331 22.246 67.8912 23.7604 68.0433 25.1102C68.1224 25.8114 68.2716 26.2506 68.4972 26.9085C68.5542 27.0746 68.5949 27.2501 68.6685 27.4097C69.1174 28.3835 70.0983 29.5451 70.9425 30.2121C72.5171 31.4563 74.5383 32.1616 76.5542 31.922C78.2089 31.7252 79.7547 30.9957 80.7954 29.6665C80.9081 29.5225 81.0133 29.3744 81.1057 29.2166C81.4326 29.4017 81.4272 29.5829 81.5545 29.9049C80.741 31.9454 78.9834 33.6217 76.9774 34.4779C76.4673 34.6956 75.9179 34.8453 75.3725 34.9438C75.0466 35.004 74.7199 35.0651 74.3909 35.106C74.1891 35.131 73.946 35.127 73.7524 35.1763C73.7555 35.5177 73.8269 35.8332 73.8635 36.1692L73.5354 36.2104L73.4329 36.1998C73.0241 36.1777 72.5869 36.1468 72.2077 35.9805C72.0238 35.8999 71.8724 35.8177 71.7987 35.62C71.7857 35.5851 71.7747 35.556 71.7543 35.5243L71.7255 35.5441L71.7089 34.9255C70.995 34.761 70.3398 34.4684 69.6954 34.1259C67.881 33.1615 66.4983 31.3802 65.9022 29.4279C65.2956 27.4412 65.4922 25.0914 66.4735 23.2528C67.3904 21.5349 69.0198 20.0566 70.9036 19.4833Z" fill="#AC261E"/>
<path d="M71.708 34.9255C72.2761 35.0487 72.8199 35.1489 73.4011 35.1717C73.5133 35.1761 73.641 35.1914 73.7515 35.1763C73.7545 35.5178 73.826 35.8332 73.8625 36.1692L73.5344 36.2104L73.4319 36.1998C73.0231 36.1777 72.586 36.1469 72.2067 35.9805C72.0228 35.8999 71.8714 35.8177 71.7977 35.62C71.7847 35.5851 71.7738 35.556 71.7534 35.5243L71.7246 35.5441L71.708 34.9255Z" fill="url(#paint18_linear_2_144322)"/>
<path d="M69.4812 22.7804C69.9595 21.7729 70.8187 21.0064 71.8025 20.5056C72.0514 20.3789 72.313 20.2881 72.5711 20.1827C73.6111 19.7582 74.4698 19.4716 75.6205 19.6805C76.098 19.7672 76.5525 19.9426 77.0128 20.0919C77.2893 20.2259 77.5796 20.3519 77.838 20.5182C78.1167 20.6977 78.3731 20.9204 78.622 21.1387C79.5696 21.9697 80.3724 22.9457 80.7947 24.148C81.1195 25.0731 81.2611 26.4177 81.0952 27.3777C81.0825 27.4516 81.0672 27.525 81.0493 27.5979C81.0314 27.6707 81.011 27.7428 80.988 27.8142C80.9649 27.8856 80.9394 27.9561 80.9113 28.0257C80.8833 28.0953 80.8528 28.1638 80.8198 28.2312C80.3049 29.3015 79.3418 30.0749 78.2271 30.4556C76.5748 31.0199 74.8147 30.7786 73.2728 30.0126C71.583 29.1731 70.2066 27.6486 69.6081 25.8543C69.2381 24.7447 69.2821 23.9171 69.4812 22.7804Z" fill="#EA4E07"/>
<path d="M72.2979 20.8403C72.67 20.2973 73.2018 20.0145 73.8406 19.8937C75.2857 19.6203 77.0216 20.1717 78.215 20.9915C78.2875 21.0404 78.3589 21.0908 78.4292 21.1428C78.4994 21.1948 78.5685 21.2483 78.6364 21.3034C78.7043 21.3584 78.771 21.415 78.8364 21.473C78.9018 21.531 78.9658 21.5904 79.0286 21.6513C79.0914 21.7121 79.1528 21.7743 79.2128 21.8379C79.2728 21.9014 79.3314 21.9663 79.3886 22.0325C79.4457 22.0986 79.5013 22.166 79.5555 22.2346C79.6097 22.3033 79.6623 22.373 79.7134 22.444C79.79 22.5493 79.8817 22.6596 79.9419 22.7741C79.5925 22.8592 79.2073 22.5464 78.7886 22.6534C78.7755 22.7212 78.7599 22.7848 78.7286 22.8469C78.6298 23.0432 78.4442 23.184 78.2381 23.2517C77.8574 23.3767 77.3967 23.2901 77.0446 23.1178C76.4718 22.8376 76.2668 22.4757 76.0685 21.8974C76.0566 21.8881 76.0635 21.8946 76.0507 21.8726C76.0332 21.8426 76.0171 21.8355 75.9839 21.8212C75.7985 21.7418 75.5426 21.7023 75.3454 21.6481C74.645 21.4554 73.9343 21.2845 73.2296 21.1062C73.066 21.0648 72.3894 20.9392 72.2979 20.8403Z" fill="url(#paint19_linear_2_144322)"/>
<path d="M76.0684 21.8974L76.0742 21.8579C76.1165 21.5627 76.1212 21.3457 76.3838 21.1507C76.645 20.9567 76.9849 20.9406 77.2942 20.9952C77.7884 21.0825 78.2764 21.3953 78.5625 21.808C78.7397 22.0635 78.8253 22.341 78.7885 22.6534C78.7754 22.7212 78.7598 22.7848 78.7285 22.8469C78.6297 23.0432 78.4441 23.184 78.238 23.2517C77.8573 23.3767 77.3966 23.2901 77.0445 23.1178C76.4717 22.8376 76.2667 22.4757 76.0684 21.8974Z" fill="#FEF92B"/>
<path d="M77.2881 21.2311C77.5384 21.2431 77.7929 21.3147 77.9939 21.4702C78.0628 21.5234 78.1358 21.6047 78.1341 21.698C78.1328 21.7685 78.0895 21.8017 78.0469 21.851C77.8563 21.8871 77.6746 21.8309 77.5092 21.7356C77.394 21.6691 77.2604 21.5674 77.2292 21.4298C77.21 21.3455 77.243 21.2984 77.2881 21.2311Z" fill="#FEFEFE"/>
<path d="M79.9481 27.8422C79.7988 27.9451 79.6677 28.0755 79.5158 28.1784C79.0075 28.5225 78.3795 28.7044 77.7731 28.7614C76.3541 28.8948 74.9507 28.294 73.8754 27.3993C72.6994 26.421 71.8191 24.9617 71.6848 23.4232C71.6606 23.147 71.653 22.8676 71.6808 22.5914C71.7331 22.0724 71.9627 21.2377 72.2975 20.8403C72.3891 20.9392 73.0657 21.0648 73.2293 21.1062C73.934 21.2845 74.6447 21.4554 75.3451 21.6481C75.5422 21.7023 75.7981 21.7418 75.9836 21.8212C76.0168 21.8355 76.0329 21.8426 76.0503 21.8726C76.0632 21.8946 76.0563 21.8881 76.0681 21.8974C76.2665 22.4757 76.4715 22.8376 77.0443 23.1178C77.3964 23.2901 77.8571 23.3767 78.2378 23.2517C78.4439 23.184 78.6295 23.0432 78.7283 22.8469C78.7595 22.7848 78.7752 22.7212 78.7883 22.6534C79.207 22.5464 79.5922 22.8592 79.9416 22.7742C80.6097 23.7871 81.0596 25.0496 80.8044 26.2698C80.7209 26.669 80.5764 27.0358 80.3522 27.376C80.2585 27.5786 80.148 27.7328 79.9481 27.8422Z" fill="url(#paint20_linear_2_144322)"/>
<path d="M79.6976 25.9086C79.7063 25.9085 79.7151 25.9079 79.7238 25.9084C79.8465 25.9144 79.9734 25.9794 80.0522 26.0731C80.1401 26.1776 80.176 26.3204 80.1566 26.4544C80.1327 26.6191 80.052 26.7007 79.9232 26.7963C79.8911 26.7958 79.8913 26.7965 79.8552 26.7921C79.7336 26.7774 79.6072 26.6951 79.534 26.5985C79.5244 26.5859 79.5154 26.5728 79.5071 26.5593C79.4989 26.5457 79.4913 26.5318 79.4844 26.5175C79.4776 26.5032 79.4714 26.4886 79.4661 26.4737C79.4607 26.4588 79.4561 26.4436 79.4523 26.4282C79.4485 26.4128 79.4454 26.3973 79.4432 26.3816C79.441 26.3659 79.4395 26.3501 79.4388 26.3343C79.4382 26.3184 79.4384 26.3026 79.4394 26.2867C79.4404 26.2709 79.4421 26.2552 79.4447 26.2395C79.4725 26.077 79.5681 25.9984 79.6976 25.9086Z" fill="#FEF92B"/>
<path d="M79.5537 27.4148C79.5702 27.3401 79.5839 27.2565 79.6192 27.1881C79.6725 27.0846 79.7698 26.9872 79.8832 26.9533C79.9701 26.9273 80.0606 26.9382 80.1371 26.987C80.2762 27.0758 80.3146 27.2265 80.3529 27.376C80.2592 27.5786 80.1487 27.7328 79.9487 27.8422C79.831 27.8029 79.7364 27.7392 79.6412 27.6622C79.6016 27.5814 79.5782 27.501 79.5537 27.4148Z" fill="#ECAFB0"/>
</g>
<defs>
<filter id="filter0_dddd_2_144322" x="0.265625" y="0" width="145.155" height="196.114" filterUnits="userSpaceOnUse" color-interpolation-filters="sRGB">
<feFlood flood-opacity="0" result="BackgroundImageFix"/>
<feColorMatrix in="SourceAlpha" type="matrix" values="0 0 0 0 0 0 0 0 0 0 0 0 0 0 0 0 0 0 127 0" result="hardAlpha"/>
<feOffset dy="5"/>
<feGaussianBlur stdDeviation="5"/>
<feColorMatrix type="matrix" values="0 0 0 0 1 0 0 0 0 0.952941 0 0 0 0 0.290196 0 0 0 0.2 0"/>
<feBlend mode="normal" in2="BackgroundImageFix" result="effect1_dropShadow_2_144322"/>
<feColorMatrix in="SourceAlpha" type="matrix" values="0 0 0 0 0 0 0 0 0 0 0 0 0 0 0 0 0 0 127 0" result="hardAlpha"/>
<feOffset dy="19"/>
<feGaussianBlur stdDeviation="9.5"/>
<feColorMatrix type="matrix" values="0 0 0 0 1 0 0 0 0 0.952941 0 0 0 0 0.290196 0 0 0 0.17 0"/>
<feBlend mode="normal" in2="effect1_dropShadow_2_144322" result="effect2_dropShadow_2_144322"/>
<feColorMatrix in="SourceAlpha" type="matrix" values="0 0 0 0 0 0 0 0 0 0 0 0 0 0 0 0 0 0 127 0" result="hardAlpha"/>
<feOffset dy="43"/>
<feGaussianBlur stdDeviation="13"/>
<feColorMatrix type="matrix" values="0 0 0 0 1 0 0 0 0 0.952941 0 0 0 0 0.290196 0 0 0 0.1 0"/>
<feBlend mode="normal" in2="effect2_dropShadow_2_144322" result="effect3_dropShadow_2_144322"/>
<feColorMatrix in="SourceAlpha" type="matrix" values="0 0 0 0 0 0 0 0 0 0 0 0 0 0 0 0 0 0 127 0" result="hardAlpha"/>
<feOffset dy="76"/>
<feGaussianBlur stdDeviation="15"/>
<feColorMatrix type="matrix" values="0 0 0 0 1 0 0 0 0 0.952941 0 0 0 0 0.290196 0 0 0 0.03 0"/>
<feBlend mode="normal" in2="effect3_dropShadow_2_144322" result="effect4_dropShadow_2_144322"/>
<feBlend mode="normal" in="SourceGraphic" in2="effect4_dropShadow_2_144322" result="shape"/>
</filter>
<filter id="filter1_d_2_144322" x="25.4766" y="0" width="94.8877" height="91.5713" filterUnits="userSpaceOnUse" color-interpolation-filters="sRGB">
<feFlood flood-opacity="0" result="BackgroundImageFix"/>
<feColorMatrix in="SourceAlpha" type="matrix" values="0 0 0 0 0 0 0 0 0 0 0 0 0 0 0 0 0 0 127 0" result="hardAlpha"/>
<feOffset/>
<feGaussianBlur stdDeviation="2.5"/>
<feComposite in2="hardAlpha" operator="out"/>
<feColorMatrix type="matrix" values="0 0 0 0 0 0 0 0 0 0 0 0 0 0 0 0 0 0 0.35 0"/>
<feBlend mode="normal" in2="BackgroundImageFix" result="effect1_dropShadow_2_144322"/>
<feBlend mode="normal" in="SourceGraphic" in2="effect1_dropShadow_2_144322" result="shape"/>
</filter>
<linearGradient id="paint0_linear_2_144322" x1="72.8088" y1="4.38499" x2="72.8088" y2="83.102" gradientUnits="userSpaceOnUse">
<stop stop-color="#F0CA57"/>
<stop offset="1" stop-color="#D45B1A"/>
</linearGradient>
<linearGradient id="paint1_linear_2_144322" x1="32.0149" y1="65.2593" x2="109.263" y2="65.2593" gradientUnits="userSpaceOnUse">
<stop stop-color="#F0CA57"/>
<stop offset="0.5" stop-color="#F7C850"/>
<stop offset="1" stop-color="#FEC649"/>
</linearGradient>
<linearGradient id="paint2_linear_2_144322" x1="73.2637" y1="16.6293" x2="73.2637" y2="67.463" gradientUnits="userSpaceOnUse">
<stop stop-color="#A2C522"/>
<stop offset="0.29" stop-color="#86A40D"/>
<stop offset="0.85" stop-color="#799C0B"/>
<stop offset="1" stop-color="#85A70E"/>
</linearGradient>
<linearGradient id="paint3_linear_2_144322" x1="73.4031" y1="16.6643" x2="73.4031" y2="66.0636" gradientUnits="userSpaceOnUse">
<stop offset="0.29" stop-color="#A2C522"/>
<stop offset="0.85" stop-color="#6F9208"/>
<stop offset="1" stop-color="#486A00"/>
</linearGradient>
<linearGradient id="paint4_linear_2_144322" x1="65.8615" y1="43.8553" x2="71.4303" y2="43.6464" gradientUnits="userSpaceOnUse">
<stop stop-color="#854443"/>
<stop offset="1" stop-color="#BF6D6C"/>
</linearGradient>
<linearGradient id="paint5_linear_2_144322" x1="70.5198" y1="40.8512" x2="72.0185" y2="40.2399" gradientUnits="userSpaceOnUse">
<stop stop-color="#AB4B56"/>
<stop offset="1" stop-color="#B57872"/>
</linearGradient>
<linearGradient id="paint6_linear_2_144322" x1="73.7888" y1="43.5388" x2="79.9086" y2="45.6033" gradientUnits="userSpaceOnUse">
<stop stop-color="#B68E77"/>
<stop offset="1" stop-color="#D5BFAD"/>
</linearGradient>
<linearGradient id="paint7_linear_2_144322" x1="75.2125" y1="47.8575" x2="76.9101" y2="40.609" gradientUnits="userSpaceOnUse">
<stop stop-color="#784727"/>
<stop offset="1" stop-color="#A26F5E"/>
</linearGradient>
<linearGradient id="paint8_linear_2_144322" x1="80.4278" y1="52.9066" x2="83.6182" y2="39.7152" gradientUnits="userSpaceOnUse">
<stop stop-color="#FE6103"/>
<stop offset="1" stop-color="#FEA907"/>
</linearGradient>
<linearGradient id="paint9_linear_2_144322" x1="87.1602" y1="47.0812" x2="83.9271" y2="51.1866" gradientUnits="userSpaceOnUse">
<stop stop-color="#FE452C"/>
<stop offset="1" stop-color="#E03736"/>
</linearGradient>
<linearGradient id="paint10_linear_2_144322" x1="84.7866" y1="50.413" x2="86.5495" y2="47.0071" gradientUnits="userSpaceOnUse">
<stop stop-color="#FD5200"/>
<stop offset="1" stop-color="#FEE90E"/>
</linearGradient>
<linearGradient id="paint11_linear_2_144322" x1="89.703" y1="54.0815" x2="90.4884" y2="58.2991" gradientUnits="userSpaceOnUse">
<stop stop-color="#6B495D"/>
<stop offset="1" stop-color="#BCABB6"/>
</linearGradient>
<linearGradient id="paint12_linear_2_144322" x1="89.5401" y1="58.442" x2="89.8235" y2="59.9688" gradientUnits="userSpaceOnUse">
<stop stop-color="#BBAAB5"/>
<stop offset="1" stop-color="#D8CED6"/>
</linearGradient>
<linearGradient id="paint13_linear_2_144322" x1="61.641" y1="55.2493" x2="56.8455" y2="57.8" gradientUnits="userSpaceOnUse">
<stop stop-color="#330133"/>
<stop offset="1" stop-color="#4E2545"/>
</linearGradient>
<linearGradient id="paint14_linear_2_144322" x1="71.6705" y1="56.0863" x2="65.5623" y2="64.2042" gradientUnits="userSpaceOnUse">
<stop stop-color="#805577"/>
<stop offset="1" stop-color="#B872B6"/>
</linearGradient>
<linearGradient id="paint15_linear_2_144322" x1="83.6162" y1="53.3288" x2="77.9003" y2="60.9513" gradientUnits="userSpaceOnUse">
<stop stop-color="#4D3B3C"/>
<stop offset="1" stop-color="#815578"/>
</linearGradient>
<linearGradient id="paint16_linear_2_144322" x1="71.8392" y1="39.3805" x2="73.4927" y2="39.3451" gradientUnits="userSpaceOnUse">
<stop stop-color="#561200"/>
<stop offset="1" stop-color="#904B17"/>
</linearGradient>
<linearGradient id="paint17_linear_2_144322" x1="74.7026" y1="31.8739" x2="75.2656" y2="21.6137" gradientUnits="userSpaceOnUse">
<stop stop-color="#AF3400"/>
<stop offset="1" stop-color="#DE6D1E"/>
</linearGradient>
<linearGradient id="paint18_linear_2_144322" x1="71.7557" y1="35.6084" x2="73.7904" y2="35.5225" gradientUnits="userSpaceOnUse">
<stop stop-color="#320000"/>
<stop offset="1" stop-color="#683825"/>
</linearGradient>
<linearGradient id="paint19_linear_2_144322" x1="76.5158" y1="20.1741" x2="76.0737" y2="21.9103" gradientUnits="userSpaceOnUse">
<stop stop-color="#FFE201"/>
<stop offset="1" stop-color="#FFC202"/>
</linearGradient>
<linearGradient id="paint20_linear_2_144322" x1="76.8365" y1="21.9943" x2="75.2154" y2="28.3376" gradientUnits="userSpaceOnUse">
<stop stop-color="#FFC302"/>
<stop offset="1" stop-color="#FA4F08"/>
</linearGradient>
<clipPath id="clip0_2_144322">
<rect width="42" height="42" fill="white" transform="translate(53 19.0001)"/>
</clipPath>
</defs>
</svg>
