<svg width="96" height="92" viewBox="0 0 96 92" fill="none" xmlns="http://www.w3.org/2000/svg">
<path d="M15.6223 46.4723H13.4882H13.978H14.4678H14.8876H15.4824L16.7768 46.6823H17.1967L20.6952 47.242C20.6778 47.0558 20.6778 46.8684 20.6952 46.6823C20.6952 46.4374 20.6952 46.1925 20.6952 45.9126L15.6223 46.4723ZM15.6223 46.4723H13.4882H13.978H14.4678H14.8876H15.4824L16.7768 46.6823H17.1967L20.6952 47.242C20.6778 47.0558 20.6778 46.8684 20.6952 46.6823C20.6952 46.4374 20.6952 46.1925 20.6952 45.9126L15.6223 46.4723ZM15.6223 46.4723H13.4882H13.978H14.4678H14.8876H15.4824L16.7768 46.6823H17.1967L20.6952 47.242C20.6778 47.0558 20.6778 46.8684 20.6952 46.6823C20.6952 46.4374 20.6952 46.1925 20.6952 45.9126L15.6223 46.4723ZM90.2111 47.8368C90.2277 47.5805 90.2277 47.3234 90.2111 47.0671C90.2111 46.8222 90.2111 46.5773 90.2111 46.2974C90.2111 46.0175 90.2111 45.2479 90.2111 44.7231C90.2111 44.1983 90.2111 44.3033 90.2111 44.1283V43.3586C89.8688 40.6671 89.2953 38.01 88.4968 35.417C88.4968 34.9272 88.2169 34.4724 88.042 34.0176L87.5172 32.5482C87.2374 31.8135 86.9575 31.0788 86.6076 30.3791C86.6076 30.3791 86.6076 30.1342 86.6076 29.9942C86.3627 29.4695 86.1178 28.9447 85.8379 28.4549C83.6674 24.3374 80.7212 20.6784 77.1616 17.6794C76.2734 16.8788 75.3388 16.1311 74.3627 15.4403C73.838 15.0555 73.3132 14.7406 72.7534 14.3908L72.2286 14.0759C66.893 11.082 60.8528 9.57193 54.7359 9.70273H40.7418C36.3583 9.58206 31.9951 10.3402 27.9092 11.9325C23.8234 13.5248 20.0977 15.9189 16.9518 18.9739C16.462 19.4986 15.9372 20.0234 15.4824 20.5482C13.9481 22.2962 12.5779 24.1817 11.3891 26.1808C11.1092 26.6356 10.8643 27.1254 10.5844 27.6152C9.73474 29.2397 8.97559 30.9099 8.31039 32.6181L7.89056 33.8426C7.64566 34.5423 7.43574 35.242 7.22583 35.9418C7.01592 36.6415 6.80601 37.3762 6.63109 38.1108C6.45616 38.8455 6.31623 39.5452 6.17629 40.2799C5.85501 41.9223 5.62142 43.5806 5.47656 45.2479V46.6123C5.47656 46.6123 5.47656 46.8572 5.47656 46.9621C5.47656 47.0671 5.47656 47.4869 5.47656 47.7668C5.47656 48.0467 5.47656 49.1312 5.47656 49.8309C5.48321 53.0591 5.78771 56.2797 6.38619 59.4519C6.38619 60.1866 6.70106 60.9213 6.87598 61.656C7.05091 62.3907 7.43576 63.8251 7.78561 64.9096C8.13546 65.9942 8.27541 66.414 8.55529 67.1487C10.0235 71.1124 12.1268 74.8108 14.7827 78.0991C15.3075 78.7638 15.8672 79.3936 16.462 80.0233C17.7788 81.4212 19.219 82.6975 20.7652 83.8367L21.8847 84.6064C23.772 85.8893 25.8034 86.9461 27.9372 87.7551C28.6468 88.0481 29.3707 88.305 30.1063 88.5247C33.6338 89.5913 37.3015 90.122 40.9867 90.0991H54.9808C59.5891 90.2379 64.1743 89.3959 68.4325 87.6286C72.6907 85.8614 76.5247 83.2094 79.6805 79.8484C80.3354 79.1699 80.9543 78.4575 81.5347 77.7143C81.9474 77.2104 82.3327 76.6849 82.6892 76.1399C83.0391 75.6501 83.3889 75.1603 83.7038 74.6356C84.0187 74.1108 84.6834 73.0262 85.1382 72.2216C85.593 71.4169 85.628 71.277 85.8379 70.8222C86.8728 68.4926 87.7153 66.0822 88.3569 63.6152C88.3569 63.4053 88.3569 63.1953 88.3569 62.9854C88.3569 62.7755 88.3569 62.4956 88.5318 62.2857C88.7067 62.0758 88.7767 61.2712 88.8817 60.7814C89.1965 59.277 89.4764 57.7726 89.6513 56.2682C89.6513 55.8134 89.6513 55.3586 89.6513 54.9038C89.6513 53.2945 89.8962 51.6852 89.8962 50.0758C90.2811 49.2362 90.2461 48.5365 90.2111 47.8368ZM21.6048 40.8397C21.6048 40.105 21.9897 39.4053 22.2346 38.6706C22.5444 37.7299 22.9065 36.8072 23.3191 35.9068C23.6104 35.2367 23.9374 34.5827 24.2987 33.9476C24.292 33.8661 24.292 33.7842 24.2987 33.7027C24.5113 33.317 24.7449 32.9433 24.9984 32.5832C26.6824 29.9811 29.0189 27.8657 31.775 26.4477C34.5311 25.0297 37.6106 24.3587 40.7068 24.5015H54.701C57.4333 24.3815 60.1567 24.8899 62.6617 25.9878C65.1667 27.0856 67.3863 28.7435 69.1499 30.8339C69.722 31.5214 70.2479 32.246 70.7243 33.003V33.2129C71.0041 33.6677 71.284 34.1225 71.5289 34.5773C72.9745 37.4292 73.9772 40.4847 74.5027 43.6385C74.5027 43.6385 74.5027 43.8834 74.5027 43.9884C74.5194 44.3264 74.5194 44.665 74.5027 45.003C74.5027 45.4228 74.5027 45.8076 74.5027 46.1925V47.0321C74.5027 48.4665 74.5027 49.4811 74.5027 49.9009C74.4868 51.2928 74.3933 52.6827 74.2228 54.0642C74.2228 54.484 74.2228 54.9038 74.0129 55.3936C73.7421 57.2326 73.3209 59.0463 72.7534 60.8163V61.2362C72.7534 61.656 72.4386 62.1108 72.2986 62.5656L72.0887 63.0204C70.7993 66.3834 68.6524 69.3505 65.8613 71.6268C65.1891 72.1333 64.4882 72.6006 63.7622 73.0262C60.8012 74.5913 57.4895 75.374 54.1412 75.3003H40.1471C38.0279 75.3192 35.9176 75.0245 33.8847 74.4256C32.6687 74.0642 31.4956 73.5715 30.3861 72.9563C29.6519 72.5756 28.96 72.1182 28.322 71.5918C27.0918 70.6366 25.9972 69.5185 25.0684 68.2682C24.5027 67.5424 23.9994 66.7699 23.564 65.9592C22.8216 64.6739 22.1896 63.328 21.6748 61.9359C21.4299 61.1662 21.185 60.4315 20.9751 59.6968C20.9717 59.6385 20.9717 59.5801 20.9751 59.5219C20.9751 59.0321 20.7302 58.5773 20.6252 58.1225C19.9833 55.428 19.6431 52.6706 19.6106 49.9009C19.6106 49.691 19.6106 49.3761 19.6106 48.9563C19.6106 48.5365 19.6106 48.1516 19.6106 47.6269C19.5933 47.4407 19.5933 47.2533 19.6106 47.0671C19.6106 46.8222 19.6106 46.5773 19.6106 46.2974C19.6106 46.0175 19.6107 45.4228 19.7856 44.968C20.3066 43.5672 20.9142 42.2001 21.6048 40.8747V40.8397ZM15.6223 46.4374H13.4882H13.978H14.4678H14.8876H15.4824L16.7768 46.6473H17.1967L20.6952 47.207C20.6778 47.0209 20.6778 46.8335 20.6952 46.6473C20.6952 46.4024 20.6952 46.1575 20.6952 45.8776L15.6223 46.4374ZM15.6223 46.4374H13.4882H13.978H14.4678H14.8876H15.4824L16.7768 46.6473H17.1967L20.6952 47.207C20.6778 47.0209 20.6778 46.8335 20.6952 46.6473C20.6952 46.4024 20.6952 46.1575 20.6952 45.8776L15.6223 46.4374ZM15.6223 46.4374H13.4882H13.978H14.4678H14.8876H15.4824L16.7768 46.6473H17.1967L20.6952 47.207C20.6778 47.0209 20.6778 46.8335 20.6952 46.6473C20.6952 46.4024 20.6952 46.1575 20.6952 45.8776L15.6223 46.4374Z" fill="#9E4000"/>
<g filter="url(#filter0_d_5_144323)">
<path d="M90.2461 44.6531C90.2461 44.2333 90.2461 43.7785 90.2461 43.3237C90.1117 40.6794 89.7843 38.0485 89.2665 35.452C89.2665 34.9972 89.2665 34.5424 88.9866 34.0876C88.971 33.9949 88.971 33.9003 88.9866 33.8077C88.8117 33.073 88.6018 32.3383 88.3919 31.6036C88.182 30.8689 88.147 30.8339 88.042 30.4141L87.5172 28.9097C86.3051 25.3918 84.6095 22.0596 82.4793 19.0089C81.9472 18.2332 81.375 17.4858 80.7651 16.7698C77.6275 12.962 73.66 9.92286 69.1665 7.8853C64.6729 5.84774 59.7726 4.86581 54.8409 5.01473H40.8468C36.122 4.94952 31.4329 5.8421 27.0625 7.63863C25.6852 8.21636 24.3521 8.89457 23.0742 9.66778C19.0055 12.1771 15.5221 15.5293 12.8585 19.4987C12.5436 19.9885 12.2288 20.4783 11.9489 20.9681C11.669 21.4578 10.9693 22.6124 10.5495 23.417C10.1296 24.2217 9.56986 25.3762 9.15004 26.3908C8.94012 26.8456 8.76518 27.3354 8.59026 27.7902C7.98809 29.3579 7.47418 30.958 7.05092 32.5832C7.05092 33.003 6.80603 33.4578 6.70107 33.9126C6.59612 34.3674 6.70106 34.7873 6.42118 35.2071C6.1413 35.6269 6.14129 36.7115 6.00135 37.4462L5.68649 39.5803L5.47656 41.8193C5.47656 42.9738 5.47656 44.1633 5.47656 45.3179V46.6823C5.47656 47.0671 5.47656 47.452 5.47656 47.8368C5.47656 48.2216 5.47656 48.3616 5.47656 48.6065C5.63913 51.5164 6.04879 54.4073 6.70107 57.2479L7.01593 58.6123C7.26082 59.4869 7.50573 60.3965 7.78561 61.2712C8.06549 62.1458 8.31037 62.7755 8.59026 63.5102C8.87014 64.2449 9.49989 65.7843 10.0247 67.0088C10.5494 68.2333 10.7943 68.5481 11.2142 69.3178C11.634 70.0875 11.9839 70.6473 12.4037 71.277C12.8235 71.9067 12.9984 72.1866 13.3133 72.6414C15.8252 76.2841 19.0507 79.3788 22.7943 81.7376L24.3687 82.6472C27.4575 84.3424 30.8014 85.524 34.2695 86.1458C35.3891 86.3207 36.5086 86.4606 37.7681 86.5656C38.8176 86.5656 39.9022 86.5656 41.0217 86.5656H55.0158C61.383 86.6829 67.6534 84.9971 73.1033 81.7026C74.1363 81.0514 75.1294 80.3388 76.077 79.5685C77.1805 78.7113 78.2211 77.7759 79.1907 76.7697C79.6805 76.2799 80.1353 75.7551 80.6251 75.1954C81.3718 74.3107 82.0725 73.3882 82.7242 72.4315L83.6689 71.0671C84.926 69.0252 86.0141 66.8839 86.9225 64.6648L87.4473 63.4053C87.4473 63.0554 87.6921 62.7406 87.7971 62.3907V62.0758C88.4516 60.1272 88.989 58.1411 89.4064 56.1283C89.4064 55.6735 89.4064 55.2187 89.6513 54.7639C90.0072 52.7272 90.2409 50.6711 90.351 48.6065C90.3685 48.3502 90.3685 48.0931 90.351 47.8368C90.351 47.1721 90.351 46.4724 90.351 45.8077C90.3423 45.4209 90.3072 45.0352 90.2461 44.6531Z" fill="url(#paint0_linear_5_144323)"/>
</g>
<g style="mix-blend-mode:overlay" opacity="0.5">
<path d="M6.70061 33.9475H21.2195L22.0242 34.6122C17.8568 34.3066 13.6685 34.4591 9.53442 35.067C6.35075 35.6967 5.58105 40.1749 5.58105 40.1749C6.24578 36.7463 6.4907 34.4023 6.70061 33.9475Z" fill="#FFDE55"/>
</g>
<g style="mix-blend-mode:overlay" opacity="0.5">
<path d="M8.58992 27.8251C8.58992 27.8251 23.0039 26.3906 24.7182 25.9708L24.1234 27.2653C24.1234 27.2653 17.1263 27.6151 14.4675 27.86C12.355 27.9776 10.2582 28.2938 8.20508 28.8046L8.58992 27.8251Z" fill="#FFDE55"/>
</g>
<g style="mix-blend-mode:overlay" opacity="0.5">
<path d="M11.9482 21.0028C17.7196 20.4044 23.4381 19.3753 29.056 17.9241C29.056 17.9241 21.779 20.0232 16.7761 21.0728C13.2776 21.8074 11.3184 22.1223 10.9336 22.787C11.2317 22.1704 11.5707 21.5743 11.9482 21.0028Z" fill="#FFDE55"/>
</g>
<g style="mix-blend-mode:overlay" opacity="0.5">
<path d="M5.33572 46.7168H8.83426C12.507 47.6998 16.2333 48.4708 19.9946 49.0258L20.5194 50.3903L14.5019 48.676C12.7255 48.06 10.8813 47.6606 9.0092 47.4865C7.78471 47.4865 5.51066 47.7314 5.51066 49.2707C5.38138 48.4258 5.32286 47.5715 5.33572 46.7168Z" fill="#FFDE55"/>
</g>
<g style="mix-blend-mode:overlay" opacity="0.5">
<path d="M6.94629 58.6474L24.0891 59.697L24.8938 60.7116C24.8938 60.7116 8.03083 59.697 7.40109 59.4871L6.94629 58.6474Z" fill="#FFDE55"/>
</g>
<g style="mix-blend-mode:overlay" opacity="0.5">
<path d="M13.4872 72.5365C13.4872 72.5365 28.356 73.1662 33.8487 73.0962C39.3414 73.0263 48.2627 73.0962 48.2627 73.0962L47.0732 73.586C47.0732 73.586 34.0236 73.586 30.5251 73.586C27.0266 73.586 16.8458 73.0613 16.2511 73.9709C16.0252 74.3479 15.9302 74.7889 15.9808 75.2254C16.0314 75.662 16.2248 76.0696 16.531 76.3849C16.531 76.3849 13.1374 72.9913 13.4872 72.5365Z" fill="#FFDE55"/>
</g>
<g style="mix-blend-mode:overlay" opacity="0.5">
<path d="M24.5791 82.5421C24.5791 82.5421 34.48 79.0436 36.9989 78.5538C39.5179 78.064 52.9522 73.166 52.9522 73.166L82.4449 72.4313L81.6402 73.7958C81.6402 73.7958 74.6432 73.271 70.235 73.3759C63.3794 73.2854 56.5296 73.8123 49.7686 74.9503C45.0106 76.3497 26.0485 82.857 27.3429 83.8715C27.3429 83.8715 25.3838 82.9619 24.5791 82.5421Z" fill="#FFDE55"/>
</g>
<g style="mix-blend-mode:overlay" opacity="0.5">
<path d="M38.5029 86.3558C38.5029 86.3558 52.9169 82.2975 58.7944 80.8981C64.672 79.4987 78.4912 76.8048 78.4912 76.8048C78.4912 76.8048 68.6253 79.7786 60.1589 81.7028C51.6924 83.627 42.8761 86.3558 42.8761 86.3558H38.5029Z" fill="#FFDE55"/>
</g>
<g style="mix-blend-mode:overlay" opacity="0.5">
<path d="M87.1667 63.4049C87.1667 63.4049 69.674 62.3904 67.7149 62.3554L65.7207 63.8597C65.7207 63.8597 72.7178 63.6149 77.8606 63.6149C80.8206 63.736 83.7617 64.1462 86.642 64.8393L87.1667 63.4049Z" fill="#FFDE55"/>
</g>
<g style="mix-blend-mode:overlay" opacity="0.5">
<path d="M73.3834 55.4284L89.2318 56.1281L88.9869 57.6325C88.9869 57.6325 82.5496 57.0727 80.8353 57.0727C79.121 57.0727 72.5088 56.7228 72.5088 56.7228L73.3834 55.4284Z" fill="#FFDE55"/>
</g>
<g style="mix-blend-mode:overlay" opacity="0.5">
<path d="M76.2517 45.248L90.2459 44.6532V45.4929C90.2459 45.4929 77.8261 45.9127 75.657 45.8427C73.4879 45.7728 76.2517 45.248 76.2517 45.248Z" fill="#FFDE55"/>
</g>
<g style="mix-blend-mode:overlay" opacity="0.5">
<path d="M75.027 34.6821L89.2311 35.4517L89.476 36.7812C89.476 36.7812 78.5606 35.6966 74.7821 35.4168C71.0037 35.1369 75.027 34.6821 75.027 34.6821Z" fill="#FFDE55"/>
</g>
<g style="mix-blend-mode:overlay" opacity="0.5">
<path d="M87.2027 30.2739L70.6547 26.4955L65.9316 27.2302C73.0904 27.6897 80.2024 28.7074 87.2027 30.2739Z" fill="#FFDE55"/>
</g>
<g style="mix-blend-mode:overlay" opacity="0.5">
<path d="M61.0684 18.7636L69.6748 16.0697L71.2491 16.1747L61.838 19.6033L61.0684 18.7636Z" fill="#FFDE55"/>
</g>
<g opacity="0.5">
<path d="M54.7349 83.7665H40.7408C16.8808 83.7665 5.75542 63.545 5.26562 44.2681C5.26562 44.6879 5.26562 45.0727 5.26562 45.4926C5.26562 65.1543 16.391 86.2855 40.7758 86.2855H54.7699C79.2597 86.2855 90.315 65.2943 90.315 45.4926C90.315 45.0727 90.315 44.6879 90.315 44.2681C89.7902 63.615 78.6299 83.7665 54.7349 83.7665Z" fill="url(#paint1_linear_5_144323)"/>
</g>
<g style="mix-blend-mode:multiply" opacity="0.7">
<path d="M56.3453 74.1111H40.1821C20.0305 74.1111 19.4707 50.7409 19.4707 48.047C19.4707 45.3531 20.0305 22.0179 40.1821 22.0179H56.3453C76.5318 22.0179 77.0916 45.3881 77.0916 48.047C77.0916 50.7059 76.5318 74.1111 56.3453 74.1111Z" fill="#9E4000"/>
</g>
<g style="mix-blend-mode:multiply" opacity="0.5">
<path d="M86.0831 29.9595C72.089 26.461 48.4738 22.0528 48.1939 22.0178V21.738L42.8762 22.9974C33.64 25.0616 19.1211 26.7409 10.8296 27.6155L8.73047 27.8254C8.73047 27.3706 9.08034 26.8808 9.29025 26.426L11.3894 26.1811C19.7858 25.2715 33.5001 23.6622 42.3514 21.703C54.6313 18.9741 69.3951 14.7059 72.019 14.0762H72.4388V14.496L72.6837 15.3706C72.6837 15.3706 61.8033 18.4843 50.538 21.2482C56.6254 22.4377 73.5234 25.7613 85.1035 28.5251L87.2026 29.0149L87.7274 30.5193L86.0831 29.9595Z" fill="#C97B3A"/>
<path d="M38.1532 14.9154C29.7159 18.0602 20.9089 20.1062 11.9492 21.0029C12.2291 20.5131 12.544 20.0233 12.8588 19.5335C21.33 18.6254 29.6524 16.6505 37.6285 13.656L38.1532 14.9154Z" fill="#C97B3A"/>
<path d="M89.2321 35.6266H88.1126C83.7744 35.3117 78.0718 35.0668 71.6695 34.8569C56.8357 34.4371 38.2935 34.2621 24.2993 34.2272H6.80664C6.80664 33.7724 7.01655 33.3175 7.15649 32.8977H25.2439C38.8532 32.8977 56.5558 33.1076 70.9698 33.5275C77.477 33.5275 83.2846 33.9473 87.7627 34.2621H89.0572C89.0572 34.542 89.1272 34.9968 89.2321 35.6266Z" fill="#C97B3A"/>
<path d="M89.4767 54.7635H90.0365C90.0365 55.2183 90.0365 55.6731 90.0365 56.1279H89.3718C84.6838 56.1279 79.8208 55.778 74.8879 55.4282C54.4914 54.0288 33.2203 51.02 20.5556 48.9909C16.6761 48.421 12.8329 47.6266 9.04541 46.6119H5.54688V45.2475H5.75678L20.9754 44.8976L74.8529 43.5682L90.0365 43.2183H90.4213C90.4213 43.6731 90.4213 44.1279 90.4213 44.5477H90.1764L75.0278 44.8976L20.7655 46.1921H15.7976H13.4885H13.9783H14.4681H14.888H15.4827L16.7772 46.402H17.197L20.6955 46.9617C33.3602 48.9559 54.7013 51.9996 75.1677 53.399C79.8908 54.4136 84.8587 54.6585 89.4767 54.7635Z" fill="#C97B3A"/>
<path d="M88.7772 62.1456C88.7772 62.3555 88.7772 62.6004 88.6022 62.8453C88.4273 63.0902 88.6022 63.2651 88.6022 63.475H87.3428L73.0687 62.6703L21.8852 59.5566L7.08634 58.647L6.77148 57.2826L21.5353 58.1572C36.3691 59.0668 56.5207 60.2913 73.4886 61.2709L87.7626 62.0756L88.7772 62.1456Z" fill="#C97B3A"/>
<path d="M85.5928 70.9274C85.3829 71.3822 85.138 71.872 84.8931 72.3268H82.4441C76.6016 72.6416 70.4791 72.8166 64.3567 72.9565H52.9515L46.3742 75.3355L24.3334 82.5775L23.4938 82.8224L21.8845 84.6066L20.765 83.837L22.8291 81.5629L41.9661 75.3005L48.5783 73.1314C42.4908 73.1314 36.6133 73.1314 31.0856 72.9565C24.0885 72.9565 18.0361 72.7116 13.1381 72.5367C12.8233 72.0819 12.5084 71.6271 12.2285 71.1723C16.7766 71.1723 22.5142 71.4871 29.0215 71.5921C40.1119 71.802 53.5112 71.907 66.3509 71.5921C72.0885 71.5921 77.7911 71.2772 83.2838 70.9973L85.5928 70.9274Z" fill="#C97B3A"/>
<path d="M83.4597 74.7401C83.1449 75.2649 82.795 75.7547 82.4451 76.2445L78.9466 76.7693C75.658 77.294 71.9496 77.9588 67.5064 78.8684C58.2003 80.7926 46.5152 83.8713 37.6289 86.4252L30.0021 88.6293C29.2666 88.4095 28.5426 88.1526 27.833 87.8596L34.2353 86.0054C43.5065 83.3115 56.8709 79.673 67.3665 77.6089C72.5093 76.5593 76.8825 75.7897 80.521 75.2649L83.4597 74.7401Z" fill="#C97B3A"/>
</g>
<path d="M56.3453 69.842H40.1821C20.0305 69.842 19.4707 46.4718 19.4707 43.7779C19.4707 41.0841 20.0305 17.7488 40.1821 17.7488H56.3453C76.5318 17.7488 77.0916 41.1191 77.0916 43.7779C77.0916 46.4368 76.5318 69.842 56.3453 69.842Z" fill="url(#paint2_linear_5_144323)"/>
<g opacity="0.5">
<path d="M56.4498 68.3727H40.3215C20.135 68.3727 19.5752 45.6671 19.5752 43.0782C19.5752 40.4893 20.135 17.7488 40.3215 17.7488H56.4498C76.6363 17.7488 77.1961 40.4893 77.1961 43.0782C77.1961 45.6671 76.6363 68.3727 56.4498 68.3727Z" fill="url(#paint3_linear_5_144323)" style="mix-blend-mode:multiply"/>
</g>
<g style="mix-blend-mode:multiply" opacity="0.2">
<path d="M74.0126 41.9946C73.7677 45.808 72.1584 57.1432 64.0068 61.0266C59.2077 63.049 54.048 64.0762 48.8402 64.0462C43.6325 64.0161 38.485 62.9293 33.7095 60.8517C25.1731 56.3736 23.2139 45.808 22.969 41.9946C22.969 42.9742 20.7999 67.254 41.5812 67.254H55.5753C76.1817 67.1141 74.0826 42.9742 74.0126 41.9946Z" fill="#1B8943"/>
</g>
<g style="mix-blend-mode:overlay" opacity="0.3">
<path d="M22.9687 42.1692C23.2486 38.6707 23.7034 28.385 31.89 24.9564C37.1671 23.3445 42.6808 22.6464 48.1931 22.8923C53.8683 22.6246 59.5453 23.3831 64.9511 25.1314C73.4875 29.0147 73.7674 38.8456 74.0123 42.1692C74.0123 41.3296 76.1814 20.0935 55.4001 20.0935H41.406C20.7996 20.0935 22.8987 41.3296 22.9687 42.1692Z" fill="white"/>
</g>
<g style="mix-blend-mode:screen" opacity="0.3">
<path d="M47.2494 15.5104C59.5993 15.5104 71.4243 19.3238 71.4243 24.2917C71.4243 29.2596 59.6692 33.4929 47.3544 33.5628C35.0396 33.6328 24.9638 29.6445 24.9288 24.6416C24.8938 19.6387 34.8996 15.5454 47.2494 15.5104Z" fill="white"/>
</g>
<g style="mix-blend-mode:overlay" opacity="0.5">
<path d="M33.7793 22.7521C38.5295 21.4259 43.4363 20.7434 48.3682 20.723C53.4678 20.5757 58.5459 21.4438 63.3069 23.2769C63.3069 23.2769 53.4411 22.0175 48.3332 22.0175C43.2253 22.0175 33.7793 22.7521 33.7793 22.7521Z" fill="white"/>
</g>
<g clip-path="url(#clip0_5_144323)">
<path d="M28 19.0001H48.1675H49.2159H70V61.0001H40.172H33.3382H28V19.0001ZM48.1675 19.0001C47.9551 19.0542 47.7313 19.0665 47.5142 19.0946C47.2842 19.126 47.0562 19.1681 46.8302 19.221L46.3731 19.3306C46.2168 19.3797 46.0554 19.4232 45.9031 19.4833C44.0193 20.0566 42.39 21.5349 41.4731 23.2528C40.4917 25.0914 40.2951 27.4412 40.9017 29.4279C41.4978 31.3802 42.8806 33.1615 44.695 34.1259C45.3393 34.4684 45.9945 34.761 46.7085 34.9255L46.725 35.5441C46.7555 36.2542 46.7692 36.9733 46.8387 37.6808C46.8537 37.7689 46.8603 37.8766 46.846 37.9652C46.8475 38.2418 46.8621 38.5618 46.906 38.8348C46.9178 38.9734 46.9311 39.1115 46.9314 39.2507L46.9511 39.5043C46.9669 39.662 46.9797 39.8225 46.9763 39.981C46.9932 40.2525 47.0082 40.5241 47.0213 40.7958C47.048 41.1129 47.0771 41.4318 47.0726 41.7503C47.0767 42.0513 47.0629 42.446 47.1748 42.7269C47.1783 42.7356 47.1816 42.7445 47.1851 42.7533C47.1872 42.7585 47.1895 42.7637 47.1917 42.7689C47.5784 43.0566 48.0071 43.0789 48.4732 43.0761C48.6038 43.0784 48.7432 43.0896 48.8722 43.0699L49.1521 42.9927C49.2391 43.2192 49.2964 43.5115 49.2838 43.7538C48.9452 43.8195 48.5839 43.8116 48.2402 43.8203C48.2472 43.825 48.2539 43.8303 48.2614 43.8344C48.3024 43.8566 48.3419 43.856 48.3871 43.858L48.4093 43.8864C48.2026 44.5145 48.2012 44.9794 48.4046 45.6113C48.4399 45.7209 48.6472 46.2077 48.6141 46.2687C48.5677 46.2748 48.522 46.2803 48.4753 46.2837C48.4928 46.3181 48.4803 46.3085 48.5193 46.3211C48.7475 46.3952 49.4232 46.3353 49.6816 46.3069C49.8091 46.2797 49.94 46.2798 50.0687 46.2562C49.9962 46.2582 49.932 46.2625 49.8623 46.24C49.7132 46.105 49.4595 45.3257 49.3993 45.1009C49.3516 44.9226 49.2508 44.489 49.3457 44.3236C49.403 44.3023 49.4597 44.2852 49.5187 44.2695C49.5688 44.2122 50.2553 44.0184 50.4061 43.949C50.6829 43.8217 50.9535 43.649 51.1662 43.4293C51.3381 43.2517 51.4588 43.0362 51.4483 42.7824C51.4332 42.4139 51.1579 42.0421 50.8575 41.843C50.6963 41.7363 50.5036 41.6552 50.3615 41.524C50.3566 41.5195 50.352 41.5148 50.3472 41.5102C50.2097 41.4666 50.0766 41.4184 49.943 41.3642C49.9412 41.0884 49.9776 40.8037 49.9981 40.5285C50.0214 40.2164 50.029 39.8902 50.0819 39.582C50.1026 39.4637 50.1089 39.3465 50.1356 39.2285C50.1559 39.058 50.1477 38.8794 50.1493 38.7077C50.1549 38.4739 50.1585 38.2361 50.1931 38.0047C52.1546 37.9556 54.1233 37.993 56.0855 37.9956L58.356 37.9974C59.253 37.9971 60.1997 37.9521 61.0756 38.1783C61.6214 38.3193 62.2188 38.5266 62.7015 38.8214C62.9543 38.9759 63.1978 39.1931 63.4721 39.3053C63.8018 39.7959 64.0858 40.3262 64.3916 40.833C65.5014 42.672 66.5265 44.5581 67.5744 46.4327L69.0468 49.0598C69.2744 49.4663 69.5435 49.8665 69.7293 50.2944C69.8757 50.6311 69.9077 50.9569 69.9171 51.3212C69.9479 51.9994 69.7642 52.5384 69.6407 53.1865C69.3752 54.3239 69.0997 55.4587 68.8143 56.5911C68.7327 56.9127 68.6961 57.2418 68.5905 57.5579C68.5389 57.7962 68.4881 58.0312 68.3958 58.2581C68.1383 58.8911 67.5877 59.4302 67.0208 59.7941C66.4465 60.1625 65.7866 60.3787 65.1119 60.4644C64.2635 60.5727 63.3891 60.5522 62.5343 60.5673L58.2754 60.635L44.185 60.902L41.4419 60.9578C41.0806 60.964 40.5023 60.9295 40.172 61.0001H70V19.0001H49.2159H48.1675ZM28 19.0001V61.0001H33.3382C33.0615 60.8992 32.7637 60.8561 32.4805 60.7737C32.3815 60.7444 32.2833 60.7123 32.1861 60.6773C32.0888 60.6423 31.9926 60.6045 31.8976 60.5641C31.8025 60.5236 31.7086 60.4804 31.616 60.4345C31.5234 60.3888 31.4322 60.3404 31.3424 60.2893C31.2525 60.2381 31.1642 60.1844 31.0775 60.1281C30.9907 60.072 30.9057 60.0135 30.8223 59.9525C30.7389 59.8914 30.6573 59.8281 30.5775 59.7624C30.4978 59.6967 30.42 59.6287 30.3441 59.5586C30.2922 59.5101 30.2416 59.4602 30.1923 59.4089C30.1431 59.3577 30.0953 59.3051 30.0489 59.2512C30.0026 59.1974 29.9577 59.1423 29.9143 59.086C29.871 59.0297 29.8292 58.9722 29.7889 58.9136C29.7487 58.8551 29.7101 58.7954 29.6731 58.7348C29.6361 58.6741 29.6008 58.6124 29.5671 58.5498C29.5335 58.4872 29.5016 58.4237 29.4714 58.3594C29.4412 58.2951 29.4128 58.2299 29.3862 58.164C29.2273 57.7622 29.1685 57.3304 29.0819 56.9094L28.7517 55.3496L28.2764 53.1616C28.1822 52.7254 28.0464 52.2671 28.0326 51.8201C28.0228 51.5038 28.1182 51.2347 28.2472 50.95C28.3689 50.6815 28.5336 50.4302 28.6717 50.1696C28.9576 49.6302 29.2348 49.086 29.5127 48.5426C30.5627 46.4796 31.6257 44.4234 32.7017 42.3738L33.6732 40.5032C33.9393 39.9958 34.1884 39.3985 34.5875 38.9814C35.1711 38.3712 36.1212 37.9677 36.9405 37.808C37.4746 37.7039 38.006 37.7176 38.547 37.7159L39.9025 37.7062L44.0661 37.684C44.9895 37.6844 45.9158 37.7048 46.8387 37.6808C46.7692 36.9733 46.7555 36.2542 46.725 35.5441L46.7085 34.9255C45.9945 34.761 45.3393 34.4684 44.695 34.1259C42.8806 33.1615 41.4978 31.3802 40.9017 29.4279C40.2951 27.4412 40.4917 25.0914 41.4731 23.2528C42.39 21.5349 44.0193 20.0566 45.9031 19.4833C46.0554 19.4232 46.2168 19.3797 46.3731 19.3306L46.8302 19.221C47.0562 19.1681 47.2842 19.126 47.5142 19.0946C47.7313 19.0665 47.9551 19.0542 48.1675 19.0001H28Z" fill="#EA4E07"/>
<path d="M45.3507 38.0553C45.6372 38.0523 46.5372 38.1059 46.7527 38.0519C46.814 38.0366 46.8147 38.0173 46.8462 37.9652C46.8478 38.2418 46.8624 38.5619 46.9063 38.8348C46.1349 38.8126 45.3608 38.8251 44.589 38.8251C44.5846 38.5865 44.6637 38.3069 44.6911 38.0647L44.6308 38.0748C44.8708 38.0675 45.1109 38.0667 45.3507 38.0553Z" fill="#D7C4BC"/>
<path d="M40.4512 43.874C40.5099 43.9748 40.533 44.0999 40.5652 44.2115C40.6463 44.4921 40.7327 44.7723 40.9074 45.0113C41.1055 45.4124 41.4558 45.7484 41.7872 46.0402C41.841 46.2922 42.1512 47.687 42.1078 47.8296C41.9938 47.7457 41.8806 47.6608 41.7734 47.5683C40.9459 46.8548 40.7832 46.4247 40.6175 45.374C40.54 44.8764 40.4846 44.3765 40.4512 43.874Z" fill="#4E094A"/>
<path d="M41.7871 46.0402C42.9359 46.9124 43.6882 47.2859 45.0651 47.7118C45.0988 48.2495 45.1303 48.787 45.1246 49.3261C44.0418 48.9637 43.0083 48.5495 42.1078 47.8296C42.1512 47.687 41.841 46.2922 41.7871 46.0402Z" fill="#510D17"/>
<path d="M38.9053 42.676C39.1065 42.4094 39.3183 42.161 39.5562 41.9264C40.7637 40.7359 42.434 40.0635 44.047 39.6336C44.4741 39.5198 44.9013 39.4088 45.3392 39.3446C45.8672 39.2671 46.3978 39.2466 46.9309 39.2507L46.9506 39.5043C46.6791 39.5276 46.4147 39.5849 46.1497 39.6461C45.6618 39.7761 45.1787 39.9083 44.7095 40.0972C43.7025 40.5028 41.3893 41.767 40.7775 42.6181C40.7406 42.6695 40.7063 42.7225 40.6745 42.7771C40.6427 42.8317 40.6135 42.8877 40.587 42.9451C40.5605 43.0025 40.5368 43.0611 40.5158 43.1207C40.4949 43.1804 40.4768 43.2409 40.4616 43.3022C40.4483 43.3112 40.4224 43.3188 40.4072 43.3249C40.2687 43.2432 40.1563 43.0992 40.0137 43.0079C39.8593 42.909 39.6765 42.8538 39.5112 42.7755C39.427 42.7357 39.3467 42.6826 39.2647 42.6378C39.1406 42.6415 39.0269 42.6501 38.9053 42.676Z" fill="#F57312"/>
<path d="M45.3732 46.7758C45.497 46.8098 45.6234 46.84 45.7457 46.8785C45.7564 46.8799 45.7671 46.8811 45.7778 46.8827C46.0003 46.9146 46.2311 47.0002 46.4553 47.0439C47.028 47.1556 47.6367 47.2023 48.22 47.1979L48.2206 47.9775L48.2156 48.1242L48.2028 48.1336C48.2225 48.6826 48.2205 49.2304 48.22 49.7797C47.8705 49.7253 47.498 49.7412 47.1437 49.7077C46.4524 49.6423 45.7944 49.5047 45.1249 49.3261C45.1306 48.787 45.0992 48.2495 45.0654 47.7118L45.0826 47.7113C45.1528 47.3808 45.2366 47.086 45.3732 46.7758Z" fill="#794F4A"/>
<path d="M45.3727 46.7758C45.4964 46.8098 45.6228 46.84 45.7451 46.8785C45.7558 46.8799 45.7666 46.8811 45.7773 46.8827C45.9998 46.9146 46.2306 47.0002 46.4548 47.0439C47.0274 47.1556 47.6361 47.2023 48.2194 47.1979L48.2201 47.9775L48.2151 48.1242L48.2023 48.1336C47.8695 48.0729 47.5111 48.1133 47.1725 48.0833C46.4524 48.0193 45.7818 47.8822 45.082 47.7113C45.1522 47.3808 45.236 47.086 45.3727 46.7758Z" fill="#B57A4F"/>
<path d="M33.1993 44.7743C33.2212 44.7985 33.217 44.8038 33.2137 44.8353C33.1994 44.9714 33.1485 45.1143 33.1203 45.2493C33.0664 45.5075 33.0472 45.7832 33.0458 46.0466C33.0374 47.627 33.9062 49.0468 34.9877 50.1374C36.5403 51.7032 39.0089 52.7619 41.2196 52.7707C41.0697 52.8306 40.9187 52.8633 40.7609 52.8952C40.4825 52.9236 40.2097 52.9778 39.9286 52.9973C38.9628 53.0639 37.9573 52.9256 37.036 52.6312C35.4782 52.1335 34.0807 51.1602 33.3183 49.6786C32.4389 47.9696 32.6451 46.5088 33.1993 44.7743Z" fill="#AC261E"/>
<path d="M40.7778 42.6181C41.3896 41.767 43.7028 40.5028 44.7098 40.0972C45.1789 39.9083 45.6621 39.7761 46.15 39.6461C46.2095 39.682 46.2387 39.6917 46.2724 39.7537C46.2677 39.8168 46.2534 39.8933 46.276 39.9534C46.3199 39.9559 46.3992 39.9484 46.4331 39.974C46.347 40.041 46.2015 40.0301 46.0986 40.0858C45.8423 40.1216 45.5256 40.1988 45.2857 40.2923C45.2805 40.2949 45.2753 40.2976 45.2701 40.3001C45.127 40.3692 44.9696 40.3925 44.8223 40.4485C44.6145 40.5274 44.4202 40.6415 44.2138 40.724C44.0584 40.7862 43.8893 40.8129 43.736 40.8798C43.0783 41.1666 42.2959 41.6718 42.0444 42.3763C41.9717 42.5802 41.9206 42.8104 41.8862 43.0243C41.7268 43.4944 41.8047 44.0092 42.0213 44.4473C42.582 45.5814 43.8263 46.2705 44.985 46.6565C45.1125 46.6989 45.2428 46.7421 45.3728 46.7758C45.2362 47.0861 45.1524 47.3808 45.0821 47.7113L45.065 47.7118C43.6881 47.2859 42.9358 46.9124 41.787 46.0402C41.4557 45.7484 41.1053 45.4124 40.9073 45.0114C40.7326 44.7724 40.6462 44.4921 40.5651 44.2116C40.5329 44.0999 40.5098 43.9748 40.451 43.874C40.4342 43.686 40.4484 43.4902 40.4619 43.3022C40.4771 43.2409 40.4952 43.1804 40.5161 43.1207C40.5371 43.0611 40.5608 43.0025 40.5873 42.9452C40.6138 42.8878 40.6429 42.8317 40.6748 42.7771C40.7066 42.7225 40.7409 42.6695 40.7778 42.6181Z" fill="url(#paint4_linear_5_144323)"/>
<path d="M40.7778 42.6181L40.878 42.5741L40.8909 42.5915C40.889 42.6013 40.8869 42.611 40.8851 42.6208C40.8482 42.825 40.9099 43.0397 40.9321 43.2433C40.9736 43.6256 41.0272 44.3875 40.9335 44.7428C40.9124 44.8231 40.8965 44.8704 40.9293 44.9487L40.9073 45.0114C40.7326 44.7724 40.6462 44.4921 40.5651 44.2116C40.5329 44.0999 40.5098 43.9748 40.451 43.874C40.4342 43.686 40.4484 43.4902 40.4619 43.3022C40.4771 43.2409 40.4952 43.1804 40.5161 43.1207C40.5371 43.0611 40.5608 43.0025 40.5873 42.9452C40.6138 42.8878 40.6429 42.8317 40.6748 42.7771C40.7066 42.7225 40.7409 42.6695 40.7778 42.6181Z" fill="#794F4A"/>
<path d="M46.15 39.6461C46.415 39.5849 46.6795 39.5276 46.9509 39.5043C46.9668 39.662 46.9795 39.8225 46.9762 39.981C46.993 40.2525 47.008 40.5241 47.0212 40.7958C47.0479 41.1129 47.077 41.4318 47.0724 41.7503C47.0766 42.0513 47.0628 42.446 47.1747 42.7269C47.1782 42.7356 47.1815 42.7445 47.1849 42.7533C47.1871 42.7585 47.1894 42.7637 47.1916 42.7689C47.5783 43.0566 48.0069 43.0789 48.4731 43.0761C48.6037 43.0784 48.743 43.0896 48.8721 43.0699L49.152 42.9927C49.239 43.2192 49.2963 43.5115 49.2837 43.7538C48.9451 43.8195 48.5838 43.8116 48.2401 43.8203C48.2471 43.825 48.2538 43.8303 48.2613 43.8344C48.3022 43.8566 48.3417 43.856 48.387 43.858L48.4091 43.8864C48.2025 44.5145 48.2011 44.9794 48.4045 45.6113C48.4398 45.7209 48.6471 46.2077 48.614 46.2687C48.5676 46.2748 48.5218 46.2802 48.4752 46.2837C48.4927 46.3181 48.4802 46.3085 48.5191 46.3211C48.7474 46.3952 49.423 46.3353 49.6814 46.3069C49.7007 46.3588 49.7033 46.372 49.6825 46.427C49.6645 46.4745 49.6434 46.4955 49.5967 46.5099C49.4979 46.4351 49.378 46.4545 49.26 46.4713C48.5364 46.5745 47.8203 46.5574 47.0952 46.469C46.8704 46.4417 46.1889 46.2957 46.0194 46.3473C46.2252 46.4282 46.4021 46.4419 46.6209 46.4387C46.5623 46.6774 46.5898 46.8139 46.685 47.0395C46.4693 46.9758 45.9516 46.807 45.7453 46.8785C45.623 46.84 45.4966 46.8098 45.3728 46.7758C45.2429 46.7421 45.1125 46.6989 44.9851 46.6565C43.8263 46.2704 42.582 45.5814 42.0214 44.4473C41.8048 44.0092 41.7268 43.4944 41.8863 43.0243C41.9206 42.8104 41.9717 42.5801 42.0445 42.3763C42.2959 41.6718 43.0784 41.1666 43.736 40.8798C43.8894 40.8129 44.0584 40.7862 44.2138 40.724C44.4202 40.6415 44.6145 40.5274 44.8223 40.4485C44.9697 40.3925 45.1271 40.3692 45.2701 40.3001C45.2753 40.2975 45.2805 40.2949 45.2857 40.2923C45.5257 40.1988 45.8423 40.1216 46.0986 40.0858C46.2016 40.0301 46.347 40.041 46.4331 39.974C46.3992 39.9484 46.3199 39.9559 46.2761 39.9534C46.2535 39.8933 46.2678 39.8168 46.2724 39.7537C46.2388 39.6917 46.2095 39.6819 46.15 39.6461Z" fill="#AC261E"/>
<path d="M47.021 40.7959C47.0477 41.1129 47.0769 41.4318 47.0723 41.7503L46.9065 41.7897C46.9508 41.7575 46.9809 41.7411 47.001 41.688C46.7782 41.5214 46.5455 41.3718 46.3848 41.1409C46.533 41.0217 46.7745 41.0369 46.9376 40.9337C47.0038 40.8918 47.0052 40.8669 47.021 40.7959Z" fill="#8E4A72"/>
<path d="M46.1505 39.6461C46.4154 39.5849 46.6799 39.5276 46.9514 39.5043C46.9672 39.662 46.98 39.8225 46.9766 39.981C46.9935 40.2525 47.0085 40.5241 47.0216 40.7958C47.0058 40.8669 47.0043 40.8918 46.9381 40.9337C46.7751 41.0369 46.5335 41.0217 46.3853 41.1409L46.2193 41.266C45.9647 41.2568 45.7803 41.4679 45.5564 41.5532C45.5918 41.4708 45.8556 41.3632 45.9393 41.3209C45.7529 41.1329 45.4804 40.9128 45.4065 40.6485C45.3837 40.5668 45.3856 40.4805 45.3693 40.3979C45.3566 40.3336 45.3412 40.3266 45.2861 40.2923C45.5261 40.1988 45.8428 40.1216 46.099 40.0858C46.202 40.0301 46.3475 40.041 46.4335 39.974C46.3997 39.9484 46.3203 39.9559 46.2765 39.9534C46.2539 39.8933 46.2682 39.8168 46.2728 39.7537C46.2392 39.6917 46.21 39.6819 46.1505 39.6461Z" fill="url(#paint5_linear_5_144323)"/>
<path d="M46.1501 39.6461C46.415 39.5849 46.6795 39.5276 46.951 39.5043C46.9668 39.662 46.9796 39.8225 46.9762 39.981C46.7123 39.9091 46.4123 40.1212 46.0986 40.0858C46.2016 40.0301 46.3471 40.041 46.4332 39.974C46.3993 39.9484 46.32 39.9559 46.2761 39.9534C46.2535 39.8933 46.2678 39.8168 46.2725 39.7537C46.2388 39.6917 46.2096 39.6819 46.1501 39.6461Z" fill="#8E4A72"/>
<path d="M41.8863 43.0243C41.992 44.0063 42.3592 44.5117 43.12 45.1219C43.698 45.5855 44.472 45.9456 45.1853 46.1512C45.4593 46.2302 45.7416 46.2833 46.0194 46.3473C46.2252 46.4282 46.4021 46.4419 46.6209 46.4387C46.5623 46.6774 46.5898 46.8139 46.685 47.0395C46.4693 46.9758 45.9516 46.807 45.7453 46.8785C45.623 46.84 45.4966 46.8098 45.3728 46.7758C45.2429 46.7421 45.1125 46.6989 44.9851 46.6565C43.8263 46.2704 42.582 45.5814 42.0214 44.4473C41.8048 44.0092 41.7268 43.4944 41.8863 43.0243Z" fill="#510D17"/>
<path d="M46.9068 41.7897L47.0725 41.7503C47.0767 42.0513 47.0629 42.446 47.1748 42.7269C47.1783 42.7356 47.1816 42.7445 47.1851 42.7533C47.1872 42.7585 47.1895 42.7637 47.1917 42.7689C47.5784 43.0566 48.007 43.0789 48.4732 43.0761C48.6038 43.0784 48.7432 43.0896 48.8722 43.0699L49.1521 42.9927C49.2391 43.2192 49.2964 43.5115 49.2838 43.7538C48.9452 43.8195 48.5839 43.8116 48.2402 43.8203C47.7804 43.7705 47.3399 43.729 46.9079 43.5501C46.5947 43.4204 46.2691 43.1802 46.1435 42.8544C46.0794 42.6881 46.0805 42.5087 46.1598 42.3477C46.3015 42.0602 46.6173 41.8911 46.9068 41.7897Z" fill="#510D17"/>
<path d="M50.0816 39.582C51.8823 39.9636 54.6378 40.5646 55.7184 42.2194C55.773 42.3031 55.8225 42.3898 55.8668 42.4794C55.9111 42.569 55.9498 42.661 55.9831 42.7553C56.0504 42.8995 56.0843 43.0572 56.1084 43.2138C56.1641 43.531 56.1578 43.8396 56.1259 44.1589C56.1749 44.3836 56.1616 44.626 56.1596 44.855C56.1537 45.551 56.1013 46.163 55.7139 46.7624C55.2205 47.5258 54.4211 48.0899 53.6335 48.522C53.3826 48.6597 53.0994 48.7802 52.8619 48.9367C52.4978 49.0627 52.1373 49.2081 51.7685 49.3185C51.6249 49.3607 51.4804 49.4 51.3352 49.4365C51.19 49.4731 51.0441 49.5067 50.8975 49.5375C50.751 49.5684 50.6039 49.5963 50.4563 49.6214C50.3086 49.6465 50.1606 49.6687 50.0121 49.688C49.8636 49.7073 49.7147 49.7237 49.5656 49.7372C49.4165 49.7506 49.2671 49.7612 49.1175 49.7689C48.968 49.7765 48.8184 49.7813 48.6686 49.7831C48.5189 49.7849 48.3692 49.7838 48.2195 49.7797C48.2199 49.2304 48.222 48.6826 48.2022 48.1336L48.215 48.1241L48.22 47.9775L48.2194 47.1979C47.6361 47.2023 47.0274 47.1556 46.4548 47.0439C46.2306 47.0002 45.9998 46.9146 45.7773 46.8826C45.7666 46.8811 45.7558 46.8799 45.7451 46.8785C45.9515 46.807 46.4691 46.9758 46.6848 47.0395C46.5896 46.8139 46.5621 46.6774 46.6208 46.4387C46.4019 46.4419 46.225 46.4282 46.0192 46.3473C46.1887 46.2957 46.8703 46.4417 47.095 46.469C47.8201 46.5574 48.5362 46.5745 49.2598 46.4713C49.3778 46.4545 49.4978 46.4351 49.5965 46.5099C49.6432 46.4955 49.6643 46.4745 49.6823 46.427C49.7032 46.372 49.7005 46.3588 49.6813 46.3069C49.8088 46.2797 49.9397 46.2798 50.0684 46.2562C49.9959 46.2582 49.9317 46.2625 49.862 46.24C49.7129 46.105 49.4592 45.3257 49.399 45.1009C49.3513 44.9226 49.2505 44.489 49.3454 44.3236C49.4027 44.3023 49.4594 44.2852 49.5184 44.2695C49.5685 44.2122 50.255 44.0184 50.4058 43.949C50.6826 43.8217 50.9532 43.649 51.1659 43.4293C51.3378 43.2517 51.4585 43.0362 51.4481 42.7824C51.4329 42.4139 51.1576 42.0421 50.8572 41.843C50.696 41.7362 50.5033 41.6552 50.3612 41.524C50.3563 41.5195 50.3517 41.5148 50.3469 41.5102C50.2094 41.4666 50.0763 41.4184 49.9427 41.3642C49.9409 41.0884 49.9773 40.8037 49.9978 40.5285C50.0211 40.2164 50.0287 39.8902 50.0816 39.582Z" fill="url(#paint6_linear_5_144323)"/>
<path d="M50.347 41.5102C50.8372 41.6358 51.4658 41.9636 51.7321 42.4147C51.7395 42.4272 51.7466 42.4398 51.7534 42.4527C51.7602 42.4655 51.7666 42.4786 51.7727 42.4918C51.7788 42.5049 51.7846 42.5183 51.79 42.5318C51.7955 42.5452 51.8006 42.5588 51.8053 42.5726C51.81 42.5863 51.8144 42.6002 51.8185 42.6141C51.8225 42.6281 51.8261 42.6421 51.8295 42.6563C51.8328 42.6704 51.8357 42.6847 51.8383 42.699C51.8409 42.7133 51.8431 42.7276 51.845 42.742C51.8468 42.7565 51.8483 42.7709 51.8494 42.7854C51.8505 42.7999 51.8513 42.8144 51.8516 42.829C51.852 42.8435 51.852 42.858 51.8516 42.8725C51.8513 42.8871 51.8506 42.9016 51.8494 42.9161C51.8483 42.9306 51.8469 42.945 51.845 42.9594C51.8432 42.9738 51.841 42.9882 51.8384 43.0025C51.8358 43.0168 51.8328 43.031 51.8295 43.0452C51.8262 43.0593 51.8226 43.0734 51.8185 43.0874C51.7222 43.4323 51.4266 43.6811 51.1219 43.8443C50.6191 44.1138 50.0813 44.2287 49.5186 44.2695C49.5687 44.2122 50.2552 44.0184 50.406 43.949C50.6828 43.8217 50.9533 43.649 51.166 43.4293C51.3379 43.2517 51.4586 43.0362 51.4482 42.7824C51.4331 42.4139 51.1577 42.0421 50.8573 41.843C50.6962 41.7363 50.5034 41.6553 50.3614 41.524C50.3565 41.5195 50.3518 41.5148 50.347 41.5102Z" fill="#794F4A"/>
<path d="M54.6865 45.9848C54.7542 45.7509 54.9105 45.5482 54.9937 45.3194C55.0817 45.0775 55.1449 44.824 55.226 44.5791C55.3781 44.1193 55.544 43.6732 55.7169 43.2215C55.782 43.0514 55.7497 42.8061 55.8398 42.6534C55.9053 42.6609 55.9368 42.7108 55.9837 42.7553C56.051 42.8995 56.0849 43.0572 56.109 43.2138C56.0195 43.3816 56.0485 43.6415 56.0144 43.8287C55.8637 44.6577 55.3468 45.4647 54.6865 45.9848Z" fill="#D7C4BC"/>
<path d="M54.6857 45.9848C55.3459 45.4647 55.8629 44.6577 56.0136 43.8287C56.0477 43.6415 56.0187 43.3816 56.1082 43.2138C56.1639 43.531 56.1576 43.8396 56.1257 44.1589C55.7503 45.4415 54.9236 46.2786 53.7684 46.9112C52.0721 47.8401 50.1296 48.1428 48.2148 48.1241L48.2198 47.9775C50.525 47.9363 52.8437 47.439 54.6857 45.9848Z" fill="#FEFEFE"/>
<path d="M51.2666 40.3519C51.4096 40.3798 51.554 40.413 51.6991 40.4269C52.0654 40.5074 52.462 40.623 52.8023 40.7811C52.992 40.8693 53.1587 40.9886 53.3306 41.1062C53.7531 41.3953 54.1468 41.6698 54.4294 42.1092C54.6978 42.5265 54.7944 42.9993 54.6886 43.486C54.5941 43.9208 54.3516 44.3069 54.027 44.6077C53.9693 44.4847 54.175 44.0516 54.1942 43.8906C54.2402 43.5053 54.1991 43.1433 54.0611 42.7806C53.6207 41.6234 52.3495 40.8433 51.2666 40.3519Z" fill="#D7C4BC"/>
<path d="M52.9072 41.172C52.9439 41.172 52.9413 41.1701 52.9709 41.1752C53.4159 41.2515 54.0015 41.7703 54.2626 42.124C54.3979 42.3073 54.505 42.4956 54.4693 42.7294C54.4537 42.7372 54.43 42.7497 54.4137 42.7542C54.3518 42.7714 54.3239 42.7544 54.283 42.7068C54.1713 42.5766 54.0968 42.4137 53.9998 42.2723C53.7072 41.846 53.3474 41.4482 52.9072 41.172Z" fill="#FEFEFE"/>
<path d="M51.6988 40.4269L51.7135 40.3825C51.9796 40.3153 53.16 40.8569 53.4285 41.0181C54.176 41.4668 54.8534 42.1661 55.0646 43.0347C55.2077 43.6235 55.0805 44.1811 54.7677 44.6937C54.029 45.9041 52.4357 46.5705 51.1042 46.8857C50.1544 47.1106 49.193 47.1799 48.2194 47.1979C47.6361 47.2023 47.0274 47.1556 46.4548 47.0439C46.2306 47.0002 45.9998 46.9146 45.7773 46.8826C45.7666 46.8811 45.7558 46.8799 45.7451 46.8785C45.9515 46.807 46.4691 46.9758 46.6848 47.0395C46.5896 46.8139 46.5621 46.6774 46.6208 46.4387C46.4019 46.4419 46.225 46.4282 46.0192 46.3473C46.1887 46.2957 46.8703 46.4417 47.095 46.469C47.8201 46.5574 48.5362 46.5745 49.2598 46.4713C49.3778 46.4545 49.4978 46.4351 49.5965 46.5099C49.6432 46.4955 49.6643 46.4745 49.6823 46.427C49.7032 46.372 49.7005 46.3588 49.6813 46.3069C49.8088 46.2797 49.9397 46.2798 50.0684 46.2562C51.3524 46.1633 53.1439 45.5681 54.0267 44.6077C54.3513 44.3069 54.5938 43.9208 54.6883 43.486C54.7941 42.9992 54.6976 42.5265 54.4292 42.1092C54.1466 41.6698 53.7528 41.3953 53.3303 41.1062C53.1584 40.9886 52.9918 40.8693 52.802 40.7811C52.4617 40.623 52.0651 40.5074 51.6988 40.4269Z" fill="url(#paint7_linear_5_144323)"/>
<path d="M56.1258 44.1589C56.1748 44.3836 56.1615 44.626 56.1595 44.855C56.1536 45.551 56.1012 46.163 55.7138 46.7624C55.2205 47.5258 54.421 48.0899 53.6334 48.522C53.3825 48.6597 53.0993 48.7802 52.8618 48.9367C52.4978 49.0627 52.1372 49.2081 51.7685 49.3185C51.6248 49.3607 51.4803 49.4 51.3351 49.4365C51.1899 49.4731 51.044 49.5067 50.8974 49.5375C50.7509 49.5684 50.6038 49.5963 50.4562 49.6214C50.3085 49.6465 50.1605 49.6687 50.012 49.688C49.8635 49.7073 49.7146 49.7237 49.5655 49.7372C49.4164 49.7506 49.267 49.7612 49.1175 49.7689C48.9679 49.7765 48.8183 49.7813 48.6685 49.7831C48.5188 49.7849 48.3691 49.7838 48.2194 49.7797C48.2198 49.2304 48.2219 48.6826 48.2021 48.1336L48.2149 48.1241C50.1297 48.1428 52.0722 47.8401 53.7685 46.9112C54.9237 46.2786 55.7504 45.4415 56.1258 44.1589Z" fill="#898481"/>
<path d="M50.136 39.2285C51.4483 39.2321 52.7589 39.1556 54.0711 39.1705C54.5863 39.179 55.1008 39.2027 55.6146 39.2418C56.1284 39.2808 56.6406 39.3349 57.1512 39.4043C57.8624 39.5024 58.6474 39.6363 59.3086 39.9276C59.6972 40.0737 60.0701 40.3055 60.2947 40.6616L60.334 40.6247C60.2556 40.5285 60.1773 40.4329 60.1048 40.3321C60.5132 40.5374 60.9302 40.7222 61.3223 40.9593C62.9478 41.9427 64.3828 43.47 64.9818 45.3006C65.4346 46.6845 65.388 48.2394 64.7154 49.5449C64.0761 50.7859 62.8567 51.8334 61.525 52.2575C61.3056 52.3274 61.0638 52.3452 60.8353 52.3618C60.45 52.3899 60.0659 52.3851 59.68 52.3919C59.2415 52.4032 58.8032 52.4168 58.3648 52.4325C57.646 52.4558 56.9328 52.4938 56.2133 52.4784C56.0299 52.4744 55.8345 52.4895 55.6538 52.4609C55.4356 52.4265 55.2322 52.3283 55.014 52.294C54.4123 52.1995 53.7977 52.167 53.2024 52.0331C52.6983 51.9197 52.2341 51.7124 51.7171 51.6427C50.6992 51.5055 49.5377 51.717 48.5992 51.2269C48.4657 51.1572 48.3363 51.0789 48.2285 50.9728C48.9047 50.746 49.5785 50.4902 50.2672 50.3056C50.9224 50.0454 51.5735 49.8017 52.1977 49.4686C52.3841 49.2469 52.7134 49.2012 52.8626 48.9367C53.1001 48.7802 53.3833 48.6597 53.6342 48.522C54.4218 48.0899 55.2213 47.5258 55.7146 46.7624C56.102 46.163 56.1544 45.551 56.1604 44.855C56.1623 44.626 56.1756 44.3836 56.1267 44.1589C56.1586 43.8396 56.1648 43.531 56.1091 43.2138C56.085 43.0572 56.0511 42.8995 55.9838 42.7553C55.9506 42.661 55.9118 42.5691 55.8675 42.4794C55.8232 42.3898 55.7737 42.3031 55.7191 42.2194C54.6386 40.5646 51.883 39.9636 50.0823 39.582C50.103 39.4637 50.1093 39.3465 50.136 39.2285Z" fill="url(#paint8_linear_5_144323)"/>
<path d="M59.0198 44.1227C58.9778 44.4615 59.0211 44.7788 59.2389 45.0535C59.653 45.5757 60.3969 45.8014 61.0337 45.868C61.6827 45.9358 62.4635 45.8573 62.9897 45.4321C63.0776 45.3611 63.2403 45.1318 63.2854 45.1035C63.2869 45.1025 63.3278 45.1012 63.328 45.1013C63.3342 45.1019 63.3401 45.1045 63.346 45.1061C63.3436 45.1454 63.3393 45.1773 63.3252 45.2143C63.1972 45.5499 62.8867 45.7728 62.5678 45.9094C61.7955 46.2402 60.8312 46.2148 60.057 45.9059C59.6259 45.7339 59.1633 45.4468 58.9814 44.9972C58.8585 44.6935 58.897 44.4162 59.0198 44.1227Z" fill="#AC261E"/>
<path d="M56.4592 40.4091C56.4789 40.5115 56.4063 40.6307 56.3737 40.7304C56.2202 41.201 56.4636 41.5935 56.8454 41.8521C57.467 42.2731 58.3438 42.4145 59.0743 42.2727C59.5415 42.182 59.9835 41.9759 60.2543 41.5712C60.3307 41.457 60.3979 41.3284 60.4465 41.2L60.477 41.1784C60.5307 41.2462 60.512 41.3863 60.5097 41.4719C60.4793 41.6515 60.3856 41.8095 60.2621 41.9419C59.8372 42.3977 59.1601 42.579 58.5563 42.6011C57.8707 42.6263 57.0596 42.4555 56.5465 41.9704C56.3194 41.7557 56.1383 41.4424 56.1387 41.1236C56.139 40.8467 56.2668 40.6011 56.4592 40.4091Z" fill="#AC261E"/>
<path d="M56.2367 45.9204C56.1342 46.8912 55.4291 47.7753 54.6937 48.37C53.6244 49.2347 52.4143 49.7164 51.1138 50.1142C50.8788 50.186 50.5369 50.3409 50.2912 50.3106C50.2828 50.3096 50.2748 50.3072 50.2666 50.3056C50.9218 50.0454 51.5729 49.8016 52.1971 49.4686C52.4648 49.4275 52.7263 49.264 52.9647 49.1402C54.011 48.5967 54.9937 47.9266 55.6979 46.962C55.8345 46.7749 55.9728 46.5698 56.063 46.3555C56.1242 46.2101 56.1628 46.0606 56.2367 45.9204Z" fill="#FE9C04"/>
<path d="M62.317 43.5383C62.7005 43.66 63.0636 43.9903 63.2452 44.3462C63.3626 44.5761 63.4294 44.8543 63.3465 45.1061C63.3405 45.1045 63.3347 45.1019 63.3285 45.1013C63.3283 45.1012 63.2874 45.1025 63.2859 45.1035C63.2408 45.1318 63.078 45.3611 62.9901 45.432C62.464 45.8573 61.6832 45.9358 61.0342 45.868C60.3973 45.8014 59.6534 45.5757 59.2393 45.0535C59.0216 44.7788 58.9782 44.4615 59.0203 44.1227C59.0744 43.929 59.2868 43.717 59.4527 43.6139C59.4523 43.6216 59.4528 43.6295 59.4515 43.6371C59.4402 43.7068 59.3823 43.7806 59.3485 43.8424C59.1774 44.1548 59.155 44.4254 59.3558 44.7368C59.6563 45.2028 60.3144 45.4435 60.8328 45.5437C61.4445 45.662 62.2896 45.6439 62.8222 45.2779C62.9956 45.1588 63.1501 44.9856 63.1883 44.7726C63.2159 44.6189 63.1875 44.4666 63.0965 44.3394C62.9279 43.971 62.7036 43.7598 62.3501 43.5699L62.317 43.5383Z" fill="#CF4C2A"/>
<path d="M56.4592 40.4091C56.703 40.1499 56.9956 39.9926 57.3405 39.9105C57.3378 39.916 57.3357 39.9219 57.3322 39.9269C57.3145 39.9519 57.3014 39.9556 57.2752 39.9681C57.0753 40.0638 56.8145 40.2126 56.7375 40.4339C56.667 40.6366 56.721 40.8913 56.8184 41.0764C56.9139 41.2578 57.0384 41.3885 57.2271 41.4693C57.3816 41.517 57.532 41.6176 57.6843 41.6781C58.1342 41.8566 58.6908 41.856 59.1587 41.7521C59.5311 41.6694 59.979 41.5501 60.1902 41.2035C60.2819 41.053 60.3389 40.8348 60.294 40.6616L60.3333 40.6246C60.4645 40.89 60.5761 41.1697 60.5098 41.4719C60.5121 41.3863 60.5307 41.2462 60.477 41.1784L60.4465 41.2001C60.3979 41.3284 60.3307 41.457 60.2543 41.5712C59.9835 41.9759 59.5415 42.182 59.0744 42.2727C58.3439 42.4145 57.467 42.2731 56.8454 41.8521C56.4636 41.5935 56.2202 41.201 56.3738 40.7304C56.4063 40.6307 56.479 40.5115 56.4592 40.4091Z" fill="#CF4C2A"/>
<path d="M59.452 43.6139C59.4537 43.6116 59.4549 43.609 59.4569 43.607C59.7242 43.3324 60.3844 43.2202 60.7498 43.2058C61.1248 43.191 62.0339 43.2765 62.3163 43.5383C62.1819 43.5481 61.9458 43.3974 61.8055 43.3561C61.6406 43.3076 61.4491 43.2979 61.2781 43.2771C60.7511 43.2233 60.3459 43.2673 59.8876 43.54C59.8869 44.0072 60.0785 44.2884 60.3435 44.6526C60.4288 44.7699 60.513 44.9091 60.6132 45.0132C60.6208 45.021 60.6286 45.0286 60.6363 45.0364C61.1346 45.1929 62.1688 45.2646 62.641 45.027C62.8395 44.9271 62.9989 44.7679 63.0622 44.5509C63.0828 44.4819 63.094 44.4114 63.0958 44.3394C63.1868 44.4666 63.2152 44.6189 63.1876 44.7726C63.1495 44.9856 62.9949 45.1588 62.8215 45.2779C62.2889 45.6439 61.4438 45.662 60.8321 45.5437C60.3138 45.4435 59.6556 45.2028 59.3551 44.7368C59.1543 44.4255 59.1767 44.1548 59.3478 43.8424C59.3816 43.7806 59.4395 43.7068 59.4508 43.6371C59.4521 43.6295 59.4516 43.6216 59.452 43.6139Z" fill="#EA4E07"/>
<path d="M63.3679 48.0426C63.372 48.0464 63.3762 48.0501 63.3803 48.054C63.7539 48.4089 64.0407 48.9508 64.0558 49.4711C64.0704 49.9715 63.8491 50.4421 63.5075 50.7994C62.8484 51.4888 61.7816 51.7956 60.8525 51.8131C59.772 51.8334 58.6241 51.5102 57.8364 50.7394C57.4 50.3124 57.1233 49.7961 57.1201 49.1767C57.1176 48.6787 57.2924 48.1874 57.6469 47.8321C57.3719 48.3594 57.169 48.8398 57.3525 49.4347C57.5656 50.1258 58.093 50.6725 58.7242 51.0041C59.7216 51.5281 61.0276 51.64 62.1017 51.3034C62.7104 51.1126 63.3476 50.7181 63.6474 50.1356C63.84 49.7615 63.8926 49.3049 63.7622 48.9022C63.6669 48.6076 63.4215 48.3383 63.3679 48.0426Z" fill="#AC261E"/>
<path d="M59.8877 43.54C60.346 43.2673 60.7512 43.2233 61.2782 43.277C61.4492 43.2979 61.6407 43.3076 61.8055 43.3561C61.9459 43.3974 62.182 43.5481 62.3164 43.5383L62.3495 43.5699C62.703 43.7598 62.9273 43.971 63.0959 44.3393C63.0941 44.4114 63.0829 44.4819 63.0623 44.5509C62.999 44.7679 62.8396 44.9271 62.6411 45.027C62.1689 45.2646 61.1347 45.1929 60.6364 45.0364C60.6287 45.0286 60.6209 45.021 60.6133 45.0132C60.5131 44.9091 60.4289 44.7699 60.3436 44.6526C60.0786 44.2884 59.887 44.0072 59.8877 43.54Z" fill="#FE9C04"/>
<path d="M62.6589 44.0628C62.6288 44.1494 62.5991 44.2203 62.5236 44.2767C62.3525 44.4045 62.1036 44.385 61.9043 44.3506C61.5977 44.2978 61.1504 44.1481 60.969 43.8764C60.9253 43.8107 60.8963 43.7251 60.9149 43.6461C60.9403 43.5387 61.0307 43.4896 61.1167 43.4341L61.1455 43.7711C61.4008 44.0199 61.8377 44.165 62.1921 44.1596C62.3583 44.1571 62.5034 44.1176 62.6589 44.0628Z" fill="#FDD950"/>
<path d="M61.278 43.277C61.449 43.2979 61.6404 43.3076 61.8053 43.3561C61.9457 43.3974 62.1818 43.5481 62.3162 43.5383L62.3493 43.5699L62.2742 43.643L62.4151 43.7324C62.5022 43.8131 62.6513 43.9371 62.6584 44.0628C62.5029 44.1176 62.3578 44.1571 62.1916 44.1596C61.8372 44.1649 61.4003 44.0199 61.145 43.7711L61.1162 43.434L61.2258 43.4082C61.2699 43.3646 61.2667 43.3369 61.278 43.277Z" fill="#FDCF81"/>
<path d="M62.4158 43.7324C62.3835 43.8221 62.3407 43.8949 62.2568 43.9458C62.1299 44.0228 61.9897 44.0119 61.8524 43.972C61.6791 43.9216 61.4797 43.8185 61.398 43.6476C61.3702 43.5895 61.3719 43.5425 61.3917 43.4815C61.4361 43.4415 61.4559 43.4509 61.5142 43.4497C61.472 43.4895 61.4734 43.4911 61.4651 43.5488C61.5098 43.6714 61.6108 43.7381 61.7266 43.7911C61.8257 43.8364 61.9442 43.8652 62.0499 43.8248C62.0947 43.8077 62.1307 43.7817 62.1526 43.7382C62.1696 43.7043 62.1779 43.6594 62.1873 43.6226L62.275 43.643L62.4158 43.7324Z" fill="#FFEBAE"/>
<path d="M61.514 43.4497C61.6976 43.4468 62.0311 43.4888 62.1753 43.6108C62.1795 43.6144 62.1831 43.6187 62.187 43.6226C62.1777 43.6594 62.1693 43.7043 62.1523 43.7382C62.1304 43.7817 62.0945 43.8077 62.0497 43.8248C61.9439 43.8652 61.8255 43.8365 61.7264 43.7911C61.6105 43.7381 61.5096 43.6714 61.4648 43.5489C61.4731 43.4911 61.4718 43.4895 61.514 43.4497Z" fill="#FEFEFE"/>
<path d="M57.3411 39.9105C57.3638 39.9021 57.3861 39.8951 57.4096 39.8894C57.6792 39.8238 58.2018 39.6759 58.4582 39.8321C58.5408 39.837 58.6288 39.8362 58.7096 39.8534C58.7786 39.8611 58.8472 39.8682 58.9154 39.881C59.0375 39.9129 59.1515 39.9784 59.2709 40.0078L59.2661 39.9795L59.2175 39.9469L59.2449 39.9709L59.2189 39.9394C59.246 39.9426 59.261 39.9432 59.2879 39.935C59.2949 39.9328 59.3017 39.9301 59.3086 39.9276C59.6972 40.0737 60.0701 40.3055 60.2946 40.6616C60.3396 40.8348 60.2826 41.053 60.1908 41.2035C59.9796 41.5501 59.5317 41.6693 59.1594 41.7521C58.6915 41.856 58.1348 41.8566 57.6849 41.678C57.5326 41.6176 57.3823 41.517 57.2277 41.4693C57.039 41.3885 56.9145 41.2578 56.8191 41.0764C56.7216 40.8913 56.6677 40.6366 56.7381 40.4339C56.8151 40.2126 57.0759 40.0638 57.2759 39.9681C57.302 39.9556 57.3151 39.9519 57.3328 39.9269C57.3364 39.9219 57.3384 39.916 57.3411 39.9105Z" fill="#FE9C04"/>
<path d="M57.3411 39.9105C57.3638 39.9021 57.3861 39.8951 57.4096 39.8894C57.6792 39.8238 58.2018 39.6759 58.4582 39.8321L58.2442 39.8368C58.1124 39.8437 57.9832 39.8522 57.8526 39.8718C57.7786 39.98 57.7005 40.0818 57.6173 40.183C57.6798 40.5409 57.7478 40.8643 58.0637 41.0938C58.3125 41.2745 58.6457 41.3594 58.946 41.3998C59.0526 41.414 59.1667 41.4157 59.2709 41.4411C59.3152 41.452 59.3342 41.4607 59.3658 41.4913C59.2869 41.5424 59.1772 41.5096 59.0906 41.4913C58.9622 41.464 58.8308 41.4559 58.7038 41.4269C58.3222 41.3395 57.9362 41.1352 57.7223 40.7978C57.5855 40.5822 57.5359 40.3683 57.5342 40.1144L57.7186 39.9242C57.5927 39.9428 57.4438 39.9462 57.362 40.0576C57.2432 40.2195 57.1631 40.6678 57.0192 40.7485C56.9702 40.7322 56.9536 40.7151 56.9303 40.668C56.8969 40.6003 56.8863 40.506 56.8706 40.4326C56.8348 40.5275 56.8021 40.619 56.7455 40.7041C56.8398 41.0748 56.9603 41.215 57.2277 41.4693C57.039 41.3885 56.9145 41.2578 56.8191 41.0764C56.7216 40.8913 56.6677 40.6366 56.7381 40.4339C56.8151 40.2126 57.0759 40.0638 57.2759 39.9681C57.302 39.9556 57.3151 39.9519 57.3328 39.9269C57.3364 39.9219 57.3384 39.916 57.3411 39.9105Z" fill="#EA4E07"/>
<path d="M58.4577 39.8321C58.5403 39.837 58.6283 39.8362 58.7091 39.8534C58.7781 39.8611 58.8466 39.8682 58.9149 39.881C59.037 39.9129 59.151 39.9784 59.2704 40.0079L59.3765 40.0677C59.4377 40.1016 59.501 40.1337 59.5583 40.1739C59.6088 40.2092 59.6601 40.2477 59.7053 40.2898C59.7667 40.3471 59.8071 40.4274 59.8092 40.512C59.8128 40.6638 59.706 40.7807 59.6113 40.8866C59.5677 40.9032 59.5238 40.9187 59.4784 40.93C59.1842 41.0033 58.8789 40.9096 58.6269 40.755C58.3575 40.5897 58.1962 40.3843 58.123 40.0747C58.1585 39.9928 58.2014 39.9153 58.2437 39.8368L58.4577 39.8321Z" fill="#FDCF81"/>
<path d="M58.7089 39.8534C58.7778 39.8611 58.8464 39.8682 58.9146 39.881C58.8272 39.9499 58.6837 40.0265 58.6622 40.1439C58.6525 40.197 58.681 40.2448 58.7132 40.2846C58.7651 40.3487 58.828 40.4057 58.8874 40.4628C59.0157 40.4607 59.1669 40.4741 59.2662 40.3767C59.3464 40.298 59.3627 40.1736 59.3762 40.0677C59.4375 40.1016 59.5008 40.1337 59.558 40.1739C59.5465 40.2271 59.534 40.2859 59.5114 40.3356C59.4656 40.4364 59.3697 40.5291 59.2655 40.5673C59.1115 40.6237 58.937 40.5928 58.7932 40.5214C58.59 40.4206 58.4955 40.2715 58.4258 40.0651C58.4501 40.003 58.4733 39.9476 58.5102 39.8918C58.574 39.8479 58.6337 39.854 58.7089 39.8534Z" fill="#D7C4BC"/>
<path d="M58.9154 39.881C59.0375 39.9129 59.1516 39.9784 59.271 40.0078L59.3771 40.0677C59.3636 40.1736 59.3472 40.298 59.267 40.3767C59.1678 40.4741 59.0165 40.4607 58.8882 40.4628C58.8288 40.4057 58.7659 40.3487 58.714 40.2846C58.6818 40.2448 58.6533 40.197 58.6631 40.1439C58.6845 40.0265 58.828 39.9499 58.9154 39.881Z" fill="#FEFEFE"/>
<path d="M57.6461 47.8321C57.7469 47.5732 58.4959 47.1852 58.7404 47.0771C59.6943 46.6551 60.9606 46.7046 61.9207 47.079C62.2293 47.1993 63.2193 47.7339 63.367 48.0426C63.4206 48.3383 63.666 48.6076 63.7613 48.9022C63.8917 49.3049 63.8391 49.7615 63.6465 50.1356C63.3467 50.7181 62.7096 51.1126 62.1008 51.3034C61.0267 51.64 59.7207 51.5281 58.7233 51.0041C58.0921 50.6725 57.5647 50.1258 57.3516 49.4347C57.1681 48.8398 57.371 48.3594 57.6461 47.8321Z" fill="url(#paint9_linear_5_144323)"/>
<path d="M61.0667 46.91C61.4668 47.0261 61.8474 47.1302 62.232 47.2979C62.2997 47.3362 62.3718 47.3723 62.4347 47.4182C62.3544 47.4962 62.2068 47.5941 62.1643 47.6965C62.1132 47.6535 62.0593 47.6137 62.0063 47.5731L61.9017 47.4911L61.78 47.4473C61.7773 47.4432 61.7754 47.4384 61.7718 47.4348C61.5998 47.2623 61.2017 47.2228 60.9703 47.2148L60.9648 47.1972C61.0004 47.1021 61.0344 47.0063 61.0667 46.91Z" fill="#FDD950"/>
<path d="M62.2326 47.2979C62.3003 47.3362 62.3725 47.3723 62.4354 47.4182C62.3551 47.4962 62.2075 47.5941 62.165 47.6965C62.1139 47.6535 62.0599 47.6137 62.0069 47.5731L61.9023 47.4911C61.9612 47.4624 62.031 47.4509 62.0931 47.4309C62.1703 47.4061 62.1958 47.3669 62.2326 47.2979Z" fill="#FEF92B"/>
<path d="M58.5383 49.7892C58.4609 49.7301 58.3849 49.6653 58.3158 49.5967C58.0411 49.324 57.8119 48.9383 57.8206 48.5408C57.8287 48.1679 58.0306 47.8575 58.2905 47.6064C58.9431 46.9757 59.7724 46.8425 60.6474 46.8539C60.7876 46.8706 60.9279 46.8861 61.0671 46.9101C61.0348 47.0063 61.0008 47.1021 60.9653 47.1972L60.9707 47.2148C61.2022 47.2228 61.6002 47.2623 61.7722 47.4348C61.7758 47.4384 61.7777 47.4432 61.7804 47.4473L61.9021 47.4911L62.0067 47.5731C62.0597 47.6137 62.1137 47.6535 62.1648 47.6965C62.2072 47.5941 62.3548 47.4962 62.4351 47.4182C62.9124 47.7164 63.3333 48.1282 63.4603 48.6962C63.4646 48.7156 63.4685 48.7351 63.4719 48.7546C63.4753 48.7743 63.4781 48.7939 63.4805 48.8137C63.4829 48.8334 63.4848 48.8532 63.4862 48.873C63.4876 48.8928 63.4885 48.9127 63.489 48.9326C63.4894 48.9525 63.4893 48.9723 63.4887 48.9922C63.4882 49.0121 63.4871 49.0319 63.4855 49.0517C63.484 49.0715 63.482 49.0913 63.4794 49.111C63.4769 49.1307 63.4739 49.1504 63.4704 49.17C63.4669 49.1895 63.4629 49.209 63.4584 49.2284C63.4539 49.2477 63.449 49.267 63.4435 49.2861C63.4381 49.3052 63.4322 49.3242 63.4258 49.3431C63.4195 49.3619 63.4126 49.3806 63.4054 49.399C63.3981 49.4175 63.3903 49.4358 63.3821 49.454C63.3739 49.4721 63.3652 49.4899 63.3561 49.5076C63.347 49.5253 63.3375 49.5427 63.3276 49.5599C63.3176 49.5772 63.3072 49.5941 63.2964 49.6108C62.9867 50.0949 62.3856 50.3616 61.8434 50.4782C61.0617 50.6462 60.2559 50.556 59.5016 50.3097C59.1515 50.1822 58.8291 50.0249 58.5383 49.7892Z" fill="url(#paint10_linear_5_144323)"/>
<path d="M58.5381 49.7892C58.7299 49.7375 59.2127 50.0509 59.3908 50.1547C59.467 50.1991 59.4748 50.2294 59.5013 50.3097C59.1513 50.1822 58.8289 50.0249 58.5381 49.7892Z" fill="#EA4E07"/>
<path d="M60.6479 46.8539C60.7881 46.8705 60.9285 46.886 61.0677 46.91C61.0353 47.0063 61.0013 47.1021 60.9658 47.1972C60.8672 47.2036 60.7693 47.2097 60.6714 47.224C60.6188 47.2359 60.5632 47.2446 60.5127 47.2635C60.3816 47.3403 60.3131 47.4194 60.2334 47.5478C60.2431 47.075 60.5486 47.1046 60.6479 46.8539Z" fill="#FEF92B"/>
<path d="M60.9658 47.1972L60.9712 47.2148C61.2027 47.2227 61.6007 47.2622 61.7728 47.4348C61.7763 47.4384 61.7782 47.4432 61.781 47.4473L61.9026 47.4911L62.0072 47.5731C62.0602 47.6137 62.1142 47.6535 62.1653 47.6965L62.3125 47.8941C62.3342 47.956 62.3532 48.0148 62.3486 48.0814C62.3419 48.1779 62.2938 48.2664 62.2223 48.3303C62.0526 48.4817 61.7967 48.4949 61.5805 48.4806C61.1669 48.4533 60.6641 48.3303 60.3849 47.9991C60.2772 47.8714 60.2198 47.7151 60.2334 47.5478C60.3131 47.4194 60.3816 47.3403 60.5127 47.2635C60.5633 47.2446 60.6188 47.2359 60.6715 47.224C60.7693 47.2097 60.8672 47.2036 60.9658 47.1972Z" fill="#FDD950"/>
<path d="M60.5127 47.2635C60.5633 47.2447 60.6188 47.2359 60.6715 47.224C60.6551 47.3949 60.6658 47.4606 60.7781 47.5937C60.9802 47.8335 61.3431 48.0101 61.6553 48.0334C61.7498 48.0404 61.856 48.0266 61.9295 47.9615C61.99 47.9078 62.006 47.8372 62.0074 47.7602C62.0086 47.6981 62.0032 47.6348 62.0072 47.5731C62.0602 47.6137 62.1142 47.6535 62.1653 47.6965L62.3125 47.8941C62.2665 47.949 62.219 48.0116 62.163 48.0564C62.0072 48.1807 61.7809 48.194 61.5918 48.1675C61.5653 48.164 61.539 48.1599 61.5128 48.155C61.4865 48.1502 61.4604 48.1447 61.4345 48.1386C61.4085 48.1324 61.3827 48.1256 61.3571 48.1182C61.3315 48.1107 61.306 48.1026 61.2808 48.0939C61.2556 48.0852 61.2306 48.0758 61.2059 48.0658C61.1812 48.0558 61.1567 48.0452 61.1325 48.0339C61.1083 48.0227 61.0844 48.0108 61.0608 47.9984C61.0372 47.986 61.0139 47.9729 60.9909 47.9593C60.968 47.9457 60.9454 47.9315 60.9232 47.9167C60.9009 47.902 60.8791 47.8867 60.8576 47.8708C60.8362 47.8549 60.8152 47.8385 60.7945 47.8216C60.7739 47.8047 60.7537 47.7872 60.734 47.7693C60.7142 47.7514 60.695 47.7329 60.6761 47.714C60.6573 47.695 60.639 47.6757 60.6211 47.6558C60.6033 47.636 60.586 47.6157 60.5692 47.595C60.5524 47.5742 60.5361 47.5531 60.5204 47.5316C60.5115 47.4431 60.514 47.3524 60.5127 47.2635Z" fill="#FDCF81"/>
<path d="M60.9655 47.1972L60.9709 47.2148C61.2024 47.2227 61.6004 47.2622 61.7725 47.4348C61.776 47.4384 61.7779 47.4432 61.7807 47.4473L61.9023 47.4911L62.0069 47.5731C62.0029 47.6348 62.0083 47.6981 62.0071 47.7602C62.0056 47.8372 61.9897 47.9078 61.9292 47.9615C61.8557 48.0266 61.7495 48.0404 61.655 48.0334C61.3428 48.0101 60.9798 47.8335 60.7778 47.5937C60.6655 47.4606 60.6547 47.3949 60.6711 47.224C60.769 47.2097 60.8669 47.2036 60.9655 47.1972Z" fill="#FFEBAE"/>
<path d="M60.971 47.2148C61.2025 47.2227 61.6005 47.2622 61.7725 47.4348C61.7761 47.4384 61.778 47.4432 61.7807 47.4473C61.8089 47.5057 61.8281 47.5249 61.8848 47.5568C61.9114 47.5718 61.9082 47.5884 61.9171 47.6167C61.8489 47.6293 61.8245 47.5749 61.757 47.5815C61.7313 47.6366 61.7044 47.722 61.6421 47.7431C61.5086 47.7881 61.3189 47.7125 61.2015 47.652C61.0901 47.5946 60.9477 47.4941 60.9201 47.3624C60.9088 47.3082 60.9444 47.2589 60.971 47.2148Z" fill="#FEFEFE"/>
<path d="M50.1931 38.0047C52.1545 37.9556 54.1232 37.993 56.0855 37.9956L58.3559 37.9974C59.253 37.9971 60.1996 37.9521 61.0755 38.1783C61.6214 38.3193 62.2188 38.5266 62.7014 38.8214C62.9543 38.9759 63.1978 39.1931 63.472 39.3053C63.8017 39.7959 64.0858 40.3262 64.3916 40.8331C65.5014 42.672 66.5265 44.5581 67.5743 46.4328L69.0468 49.0598C69.2744 49.4663 69.5435 49.8665 69.7293 50.2944C69.8757 50.6312 69.9077 50.9569 69.9171 51.3212C69.9479 51.9994 69.7641 52.5384 69.6407 53.1866C69.3751 54.3239 69.0997 55.4587 68.8142 56.5911C68.7327 56.9127 68.6961 57.2418 68.5904 57.5579C68.533 57.6192 68.5034 57.6761 68.4713 57.7533C68.2456 57.7112 67.575 57.9164 67.3165 57.9656L63.0218 58.7596C62.3715 58.8827 61.7189 59.0263 61.0625 59.1115C60.9328 59.1284 60.7812 59.1651 60.6524 59.1651C60.6189 59.0591 60.5868 58.9526 60.5561 58.8457C60.2124 57.6034 60.4397 56.1872 61.0754 55.0738C61.1812 55.0199 61.2994 54.7857 61.3485 54.6775C60.0321 54.7446 58.7093 54.7398 57.3916 54.7737C53.882 54.8689 50.3719 54.9371 46.8613 54.9786L40.1294 55.0877C38.969 55.1093 37.8024 55.1835 36.6423 55.1548C36.5196 55.1455 36.3974 55.1261 36.2754 55.1099C36.6046 54.8857 36.8421 54.8931 37.1653 54.7431C37.4169 54.6264 37.6379 54.4326 37.8529 54.2602C37.7734 54.1562 37.683 54.0788 37.5919 53.9867C37.5174 53.9113 37.45 53.8388 37.4505 53.7278C37.4854 53.6668 37.5054 53.659 37.5642 53.6238C37.7074 53.6675 37.8692 53.6789 38.0177 53.6992C38.7116 53.7937 39.4017 53.822 40.1022 53.8109C40.5746 53.8034 41.0455 53.768 41.5176 53.7502L44.3702 53.6616L55.0751 53.3854L59.3591 53.2761L60.5977 53.2446C60.9096 53.2362 61.2291 53.2442 61.5352 53.1775C62.4984 52.9676 63.8601 52.068 64.5346 51.3649C64.5679 51.3308 64.6008 51.2962 64.6332 51.2612C64.6657 51.2262 64.6976 51.1908 64.7292 51.155C64.7607 51.1193 64.7918 51.0831 64.8224 51.0465C64.8531 51.0099 64.8832 50.973 64.9129 50.9356C64.9426 50.8983 64.9718 50.8606 65.0006 50.8225C65.0293 50.7844 65.0576 50.746 65.0854 50.7072C65.1132 50.6685 65.1405 50.6293 65.1672 50.5899C65.194 50.5504 65.2204 50.5106 65.2462 50.4705C65.2719 50.4303 65.2972 50.3899 65.322 50.3491C65.3468 50.3084 65.371 50.2673 65.3948 50.2259C65.4185 50.1845 65.4418 50.1428 65.4644 50.1009C65.4871 50.0589 65.5093 50.0167 65.5309 49.9742C65.5526 49.9316 65.5737 49.8889 65.5942 49.8458C65.6148 49.8027 65.6348 49.7594 65.6542 49.7159C65.6737 49.6723 65.6926 49.6285 65.711 49.5845C65.7293 49.5405 65.7471 49.4962 65.7644 49.4517C65.7816 49.4073 65.7983 49.3626 65.8144 49.3177C65.8305 49.2728 65.8461 49.2277 65.8611 49.1824C65.8761 49.1371 65.8905 49.0916 65.9043 49.046C65.9182 49.0003 65.9314 48.9545 65.9441 48.9085C65.9568 48.8625 65.9689 48.8164 65.9804 48.7701C65.992 48.7238 66.0029 48.6774 66.0133 48.6308C66.0236 48.5842 66.0334 48.5375 66.0426 48.4907C66.0518 48.4439 66.0603 48.397 66.0683 48.3499C66.0763 48.3029 66.0837 48.2558 66.0906 48.2086C66.0974 48.1614 66.1036 48.1141 66.1092 48.0667C66.1148 48.0193 66.1199 47.9719 66.1243 47.9244C66.1287 47.8769 66.1325 47.8293 66.1358 47.7818C66.139 47.7341 66.1416 47.6865 66.1437 47.6389C66.1457 47.5912 66.1471 47.5435 66.148 47.4958C66.1488 47.4481 66.149 47.4004 66.1487 47.3527C66.1483 47.305 66.1473 47.2573 66.1458 47.2096C66.0901 45.1652 65.0079 43.2661 63.548 41.8847C63.4754 41.8159 63.4018 41.748 63.3272 41.6813C63.2526 41.6145 63.1771 41.5487 63.1007 41.4841C63.0243 41.4195 62.9469 41.3559 62.8687 41.2935C62.7904 41.2311 62.7113 41.1698 62.6313 41.1096C62.5512 41.0494 62.4704 40.9904 62.3887 40.9325C62.3071 40.8747 62.2246 40.818 62.1413 40.7624C62.058 40.7069 61.9739 40.6526 61.889 40.5995C61.8042 40.5463 61.7186 40.4944 61.6323 40.4437C61.546 40.393 61.459 40.3436 61.3712 40.2954C61.2835 40.2472 61.1951 40.2002 61.106 40.1545C61.0169 40.1088 60.9272 40.0644 60.8369 40.0213C60.7466 39.9781 60.6557 39.9363 60.5641 39.8957C60.4726 39.8552 60.3805 39.8159 60.2879 39.778C60.1952 39.7401 60.1021 39.7035 60.0084 39.6682C59.9147 39.6329 59.8205 39.599 59.7259 39.5664C59.6312 39.5339 59.5361 39.5026 59.4406 39.4727C58.6761 39.2288 57.8711 39.098 57.0785 38.986C54.7424 38.6557 52.499 38.6448 50.1493 38.7077C50.1548 38.4739 50.1584 38.2361 50.1931 38.0047Z" fill="#CCA4D3"/>
<path d="M64.3171 54.5887C64.285 54.5855 64.2583 54.5818 64.2274 54.5713C64.1922 54.5593 64.2062 54.568 64.1875 54.5273C64.2262 54.4639 64.3206 54.4396 64.3825 54.3997L64.3816 54.3159C64.4114 54.2965 64.4183 54.2952 64.4532 54.3009C64.5694 54.3198 64.7485 54.4358 64.8135 54.5317C65.1263 54.5486 65.4586 54.4968 65.7658 54.5574C65.2845 54.5598 64.7974 54.5585 64.3171 54.5887Z" fill="#FEFEFE"/>
<path d="M69.9171 51.3212C69.9478 51.9994 69.7641 52.5384 69.6406 53.1865C69.6066 53.2077 69.5856 53.2191 69.545 53.2239C69.397 53.2417 69.2485 53.2737 69.1013 53.2982L69.1131 53.2856L69.0791 53.2975C69.0955 53.2543 69.0881 53.2677 69.1095 53.2328C69.1271 53.2037 69.1234 53.1975 69.1238 53.1644C69.2145 53.0087 69.3289 52.8654 69.4199 52.7078C69.6701 52.2729 69.8034 51.8058 69.9171 51.3212Z" fill="#8E4A72"/>
<path d="M67.3725 48.6529C67.3852 48.6633 67.3971 48.6753 67.4085 48.6871C67.5833 48.8681 67.6991 49.1338 67.8105 49.3566C68.1882 50.1118 68.5831 50.9642 68.5631 51.8251C68.5527 52.2728 68.3996 52.672 68.0703 52.9808C67.337 53.6685 66.2317 53.5498 65.3057 53.5236L63.9304 53.4959C63.6695 53.4921 63.4085 53.4898 63.1475 53.489C63.5402 53.3722 63.9298 53.2516 64.3271 53.1502C65.0218 52.9728 65.7287 52.8208 66.4155 52.6155C66.8795 52.4768 67.5274 52.2884 67.7672 51.8256C68.1131 51.1582 67.8638 50.0227 67.6353 49.3399C67.5616 49.1198 67.4532 48.9085 67.3837 48.6896C67.3798 48.6774 67.3762 48.6651 67.3725 48.6529Z" fill="#FEFEFE"/>
<path d="M65.7663 54.5574C65.7834 54.5588 65.8004 54.5604 65.8176 54.5611C66.8616 54.5971 67.9398 54.2809 68.7287 53.5803C68.8659 53.4585 68.9728 53.3036 69.1073 53.1794C69.1127 53.1742 69.1184 53.1694 69.1241 53.1644C69.1237 53.1975 69.1274 53.2037 69.1098 53.2328C69.0885 53.2677 69.0958 53.2543 69.0794 53.2975L69.1135 53.2856L69.1016 53.2982C69.2488 53.2737 69.3973 53.2417 69.5454 53.2239C69.586 53.2191 69.6069 53.2077 69.6409 53.1865C69.3754 54.3239 69.1 55.4587 68.8145 56.5911C68.7329 56.9127 68.6963 57.2418 68.5907 57.5579C68.5333 57.6192 68.5037 57.6761 68.4715 57.7533C68.2459 57.7112 67.5753 57.9164 67.3167 57.9656L63.0221 58.7596C62.3718 58.8827 61.7192 59.0263 61.0628 59.1115C60.9331 59.1284 60.7814 59.1651 60.6526 59.1651C60.6192 59.0591 60.5871 58.9526 60.5564 58.8457C60.2127 57.6034 60.44 56.1872 61.0757 55.0738C61.1815 55.0199 61.2996 54.7857 61.3488 54.6775C61.6688 54.6066 62.2639 54.6444 62.6142 54.6432C63.1788 54.6413 63.7541 54.6273 64.3176 54.5887C64.7979 54.5585 65.285 54.5598 65.7663 54.5574Z" fill="url(#paint11_linear_5_144323)"/>
<path d="M46.839 37.6808C46.854 37.7688 46.8606 37.8766 46.8463 37.9652C46.8148 38.0173 46.8141 38.0366 46.7528 38.0519C46.5373 38.1059 45.6373 38.0523 45.3508 38.0553C45.111 38.0667 44.8709 38.0675 44.6309 38.0748L44.6911 38.0647C44.6638 38.3069 44.5847 38.5865 44.5891 38.8251C43.8023 38.8189 43.0161 38.8232 42.2317 38.8932C39.4385 39.1422 36.5527 40.0528 34.5174 42.06C33.1258 43.4324 32.0898 45.3607 32.0782 47.347C32.0687 48.9817 32.6164 50.5048 33.7799 51.6751C34.8432 52.7446 36.1243 53.2691 37.5645 53.6238C37.5057 53.659 37.4857 53.6668 37.4509 53.7278C37.4504 53.8388 37.5177 53.9113 37.5923 53.9867C37.6834 54.0788 37.7738 54.1561 37.8532 54.2602C37.6383 54.4326 37.4172 54.6263 37.1657 54.7431C36.8425 54.8931 36.6049 54.8857 36.2757 55.1098C36.3977 55.1261 36.5199 55.1454 36.6427 55.1548C37.8028 55.1835 38.9694 55.1093 40.1298 55.0877L46.8617 54.9785C50.3723 54.9371 53.8824 54.8688 57.3919 54.7737C58.7096 54.7398 60.0324 54.7446 61.3489 54.6775C61.2997 54.7857 61.1815 55.0199 61.0758 55.0737C60.4401 56.1872 60.2127 57.6034 60.5565 58.8457C60.5871 58.9526 60.6192 59.059 60.6527 59.1651C60.7815 59.1651 60.9331 59.1283 61.0628 59.1115C61.7192 59.0263 62.3719 58.8827 63.0222 58.7596L67.3168 57.9656C67.5753 57.9164 68.246 57.7112 68.4716 57.7533C68.5037 57.6761 68.5334 57.6192 68.5908 57.5579C68.5392 57.7962 68.4884 58.0312 68.3961 58.2581C68.1386 58.8911 67.588 59.4302 67.0211 59.7941C66.4468 60.1625 65.7869 60.3787 65.1122 60.4644C64.2638 60.5727 63.3894 60.5522 62.5346 60.5673L58.2757 60.635L44.1853 60.902L41.4422 60.9578C41.0809 60.964 40.5026 60.9295 40.1723 61.0001H33.3385C33.0618 60.8992 32.764 60.8561 32.4809 60.7736C32.3818 60.7444 32.2836 60.7123 32.1864 60.6773C32.0891 60.6423 31.9929 60.6045 31.8979 60.5641C31.8028 60.5236 31.7089 60.4804 31.6163 60.4344C31.5237 60.3888 31.4325 60.3404 31.3427 60.2893C31.2528 60.2381 31.1646 60.1844 31.0778 60.1281C30.991 60.072 30.906 60.0135 30.8226 59.9525C30.7392 59.8914 30.6576 59.8281 30.5779 59.7624C30.4981 59.6967 30.4203 59.6287 30.3444 59.5586C30.2925 59.5101 30.2419 59.4602 30.1927 59.4089C30.1434 59.3577 30.0956 59.3051 30.0493 59.2512C30.0029 59.1974 29.958 59.1423 29.9146 59.086C29.8713 59.0297 29.8295 58.9722 29.7892 58.9136C29.749 58.8551 29.7104 58.7954 29.6734 58.7348C29.6364 58.6741 29.6011 58.6124 29.5674 58.5498C29.5338 58.4872 29.5019 58.4237 29.4717 58.3594C29.4415 58.295 29.4131 58.2299 29.3865 58.164C29.2276 57.7622 29.1688 57.3304 29.0822 56.9094L28.752 55.3496L28.2767 53.1616C28.1825 52.7254 28.0467 52.267 28.0329 51.8201C28.0231 51.5037 28.1185 51.2347 28.2475 50.95C28.3692 50.6815 28.5339 50.4302 28.6721 50.1696C28.9579 49.6302 29.2351 49.086 29.513 48.5426C30.563 46.4796 31.626 44.4234 32.7021 42.3738L33.6735 40.5032C33.9396 39.9958 34.1887 39.3985 34.5878 38.9813C35.1714 38.3712 36.1215 37.9676 36.9408 37.808C37.4749 37.7039 38.0063 37.7176 38.5473 37.7159L39.9028 37.7062L44.0664 37.684C44.9898 37.6844 45.9161 37.7048 46.839 37.6808Z" fill="#794F4A"/>
<path d="M35.4983 59.4107L35.5136 59.4199C35.5632 59.81 35.6084 60.2277 35.6987 60.6096C35.545 60.5944 35.3828 60.6088 35.228 60.6088C35.006 60.6077 34.7842 60.5989 34.5628 60.5825C34.3414 60.5661 34.1207 60.5421 33.901 60.5103C33.6812 60.4786 33.4627 60.4394 33.2457 60.3926C33.0286 60.3456 32.8134 60.2913 32.6001 60.2298C32.4454 60.1847 32.2118 60.1318 32.0957 60.0161C32.5332 60.0288 33.0045 59.878 33.4354 59.8016C34.0768 59.6878 34.8797 59.5878 35.4983 59.4107Z" fill="#8E4A72"/>
<path d="M60.6523 59.1651C60.7811 59.1651 60.9328 59.1283 61.0625 59.1115C61.7189 59.0263 62.3715 58.8827 63.0218 58.7596L67.3164 57.9656C67.575 57.9164 68.2456 57.7112 68.4712 57.7533C68.0641 58.6579 67.1856 59.3151 66.2758 59.6609C64.9782 60.1543 63.5536 60.0194 62.194 60.0579C61.9242 60.0657 61.3068 60.1375 61.0819 60.0887C60.8838 59.8002 60.7604 59.4966 60.6523 59.1651Z" fill="url(#paint12_linear_5_144323)"/>
<path d="M30.708 54.7921C31.1149 54.974 31.5237 55.1134 31.9654 55.1847C32.6973 55.3029 33.4576 55.257 34.1954 55.2351C35.0095 55.2111 35.8267 55.1829 36.641 55.173L36.6847 55.192C36.5486 55.3699 36.3229 55.5168 36.1674 55.6867C35.4976 56.4184 35.1862 57.2195 35.3176 58.2107C35.3482 58.4422 35.4055 58.6693 35.4365 58.8999C35.4591 59.0678 35.4548 59.2471 35.4978 59.4107C34.8792 59.5878 34.0763 59.6878 33.4349 59.8016C33.004 59.878 32.5326 60.0288 32.0951 60.0161C32.0187 59.9819 31.8962 59.9771 31.8113 59.9499L31.8149 59.9349C31.8651 59.9346 31.8452 59.9314 31.89 59.9427C32.1739 60.0141 32.9473 59.9128 33.2025 59.7829C33.2078 59.7456 33.2031 59.7357 33.1828 59.7043C33.1241 59.6134 33.0223 59.5428 32.9526 59.4584C32.8581 59.3439 32.7842 59.2098 32.7059 59.084C32.5224 58.789 32.2713 58.5601 32.082 58.2761C31.7543 57.7847 31.0689 56.2119 30.9993 55.6296C30.9561 55.5833 30.915 55.5364 30.8748 55.4874C30.872 55.2837 30.8565 54.942 30.708 54.7921Z" fill="url(#paint13_linear_5_144323)"/>
<path d="M35.5137 59.4199C36.3803 59.2757 37.2436 59.1081 38.1093 58.9579L44.8209 57.8287L47.0076 57.4616C47.3596 57.4024 47.7205 57.3224 48.0751 57.2882C48.1253 57.2901 48.206 57.2766 48.2392 57.3185C48.2578 57.3421 48.2701 57.394 48.2808 57.4231C48.5636 57.6668 48.8881 57.875 49.1855 58.1019C49.9551 58.6892 50.7246 59.2694 51.5175 59.8253C51.6477 59.9165 51.7691 60.101 51.8282 60.1367C51.8643 60.1584 51.9222 60.1625 51.9633 60.1691C52.04 60.1822 52.1189 60.2019 52.1901 60.2335L52.237 60.3032C51.9106 60.3044 51.5824 60.2975 51.2562 60.3069C50.9996 60.3143 50.7438 60.3401 50.487 60.3438C50.0537 60.3508 49.6194 60.336 49.1864 60.3467C48.9054 60.3541 48.6251 60.3766 48.3439 60.3824L40.9715 60.5107C40.5928 60.5185 40.2146 60.5427 39.8359 60.5468C39.3118 60.5522 38.7866 60.5382 38.2628 60.555C37.6359 60.5751 37.0131 60.5866 36.3858 60.5928C36.1589 60.5948 35.9242 60.6219 35.6987 60.6096C35.6085 60.2277 35.5633 59.81 35.5137 59.4199Z" fill="url(#paint14_linear_5_144323)"/>
<path d="M48.0752 57.2882C48.2712 57.2361 48.4824 57.2121 48.6828 57.1781L49.8183 56.9858L53.3753 56.3793L58.4768 55.5107C59.3337 55.3648 60.2156 55.1757 61.0758 55.0738C60.4401 56.1872 60.2127 57.6034 60.5565 58.8457C60.5871 58.9526 60.6192 59.0591 60.6527 59.1651C60.7608 59.4966 60.8842 59.8002 61.0823 60.0887C60.7067 60.1174 60.3231 60.092 59.9458 60.1022L56.5682 60.181C56.3351 60.1859 56.1029 60.2142 55.8696 60.2199L53.0167 60.2638C52.7559 60.2663 52.4986 60.3114 52.2371 60.3032L52.1902 60.2335C52.119 60.2019 52.0401 60.1822 51.9634 60.1691C51.9223 60.1625 51.8644 60.1584 51.8282 60.1367C51.7691 60.101 51.6477 59.9165 51.5176 59.8253C50.7247 59.2694 49.9551 58.6892 49.1856 58.1019C48.8882 57.875 48.5636 57.6668 48.2809 57.4231C48.2701 57.394 48.2579 57.3421 48.2393 57.3185C48.2061 57.2766 48.1254 57.2901 48.0752 57.2882Z" fill="url(#paint15_linear_5_144323)"/>
<path d="M30.7087 54.7921C30.2585 54.5049 29.9334 54.3497 29.5552 53.943C28.9995 53.3452 28.5964 52.5618 28.6321 51.7272C28.644 51.448 28.7212 51.1892 28.8361 50.9358C29.0928 50.3699 29.4284 49.8229 29.7163 49.2702L31.4131 45.9625L33.4068 42.1241L34.1675 40.6462C34.3146 40.3555 34.4486 40.0537 34.611 39.7715C34.7371 39.5524 34.8639 39.3831 35.05 39.2126C35.6162 38.6935 36.3978 38.3199 37.1467 38.1614C37.812 38.0205 38.5167 38.0466 39.1928 38.0497L40.8664 38.0511L43.7461 38.0496C44.2797 38.0495 44.8179 38.034 45.3508 38.0553C45.111 38.0667 44.8709 38.0675 44.6309 38.0748L44.6911 38.0647C44.6638 38.3069 44.5847 38.5865 44.5891 38.8251C43.8023 38.8189 43.0161 38.8232 42.2317 38.8932C39.4385 39.1422 36.5527 40.0528 34.5174 42.06C33.1259 43.4324 32.0898 45.3607 32.0783 47.347C32.0687 48.9817 32.6164 50.5048 33.7799 51.6751C34.8432 52.7446 36.1243 53.2691 37.5646 53.6238C37.5057 53.659 37.4858 53.6668 37.4509 53.7278C37.4504 53.8388 37.5178 53.9113 37.5923 53.9867C37.6834 54.0788 37.7738 54.1562 37.8532 54.2602C37.6383 54.4326 37.4172 54.6264 37.1657 54.7431C36.8425 54.8931 36.605 54.8857 36.2758 55.1098C36.3977 55.1261 36.52 55.1455 36.6427 55.1548L36.6417 55.173C35.8275 55.1829 35.0103 55.2111 34.1962 55.2352C33.4583 55.257 32.6981 55.3029 31.9661 55.1847C31.5245 55.1134 31.1156 54.974 30.7087 54.7921Z" fill="#A3839D"/>
<path d="M36.642 55.1548C37.8021 55.1835 38.9687 55.1093 40.1291 55.0877L46.861 54.9786C50.3716 54.9371 53.8817 54.8689 57.3913 54.7737C58.7089 54.7398 60.0318 54.7446 61.3482 54.6775C61.299 54.7857 61.1808 55.0199 61.0751 55.0738C60.2149 55.1757 59.3331 55.3648 58.4761 55.5107L53.3746 56.3793L49.8176 56.9858L48.6822 57.1781C48.4817 57.2121 48.2705 57.2361 48.0745 57.2882C47.7199 57.3224 47.359 57.4024 47.007 57.4616L44.8203 57.8286L38.1087 58.9578C37.243 59.108 36.3796 59.2757 35.5131 59.4199L35.4978 59.4107C35.4548 59.2471 35.4591 59.0679 35.4365 58.8999C35.4055 58.6693 35.3483 58.4422 35.3176 58.2107C35.1863 57.2195 35.4976 56.4185 36.1674 55.6867C36.3229 55.5168 36.5486 55.3699 36.6847 55.192L36.641 55.173L36.642 55.1548Z" fill="#794F4A"/>
<path d="M48.7515 35.1763C48.9451 35.127 49.1882 35.131 49.39 35.106C49.719 35.0651 50.0457 35.004 50.3716 34.9438C50.3596 35.1668 50.3504 35.3904 50.3335 35.613L50.2264 37.4747C52.3264 37.4535 54.4284 37.4764 56.5287 37.4777L58.4843 37.4777C59.0699 37.4778 59.6486 37.465 60.2299 37.5508C61.0977 37.6788 62.4246 38.054 63.0588 38.6657C63.2479 38.8479 63.3567 39.0733 63.4717 39.3053C63.1974 39.1931 62.9539 38.9759 62.7011 38.8214C62.2184 38.5266 61.621 38.3193 61.0752 38.1783C60.1993 37.9521 59.2526 37.9971 58.3556 37.9974L56.0851 37.9956C54.1228 37.993 52.1541 37.9556 50.1927 38.0046C50.1581 38.2361 50.1545 38.4739 50.1489 38.7077C50.1472 38.8794 50.1555 39.058 50.1352 39.2285C50.1084 39.3465 50.1022 39.4637 50.0815 39.582C50.0286 39.8902 50.021 40.2164 49.9977 40.5285C49.9771 40.8037 49.9408 41.0884 49.9426 41.3642C50.0762 41.4184 50.2093 41.4666 50.3467 41.5102C50.3515 41.5148 50.3562 41.5195 50.3611 41.524C50.5031 41.6552 50.6959 41.7362 50.8571 41.843C51.1575 42.0421 51.4328 42.4139 51.4479 42.7824C51.4583 43.0362 51.3376 43.2517 51.1657 43.4293C50.953 43.649 50.6825 43.8217 50.4057 43.949C50.2549 44.0184 49.5684 44.2122 49.5183 44.2695C49.4592 44.2852 49.4026 44.3023 49.3453 44.3236C49.2504 44.489 49.3512 44.9226 49.3989 45.1009C49.459 45.3257 49.7128 46.105 49.8619 46.24C49.9315 46.2625 49.9958 46.2582 50.0683 46.2562C49.9396 46.2798 49.8087 46.2797 49.6811 46.3069C49.4227 46.3353 48.7471 46.3952 48.5188 46.3211C48.4799 46.3085 48.4924 46.3181 48.4749 46.2837C48.5215 46.2802 48.5673 46.2748 48.6137 46.2687C48.6468 46.2077 48.4395 45.7209 48.4042 45.6113C48.2008 44.9794 48.2022 44.5145 48.4088 43.8864L48.3867 43.858C48.3414 43.856 48.3019 43.8566 48.261 43.8344C48.2535 43.8303 48.2468 43.825 48.2398 43.8203C48.5835 43.8116 48.9448 43.8195 49.2834 43.7538C49.296 43.5115 49.2387 43.2192 49.1517 42.9927L48.8718 43.0699C48.7427 43.0896 48.6034 43.0784 48.4728 43.0761C48.0066 43.0789 47.578 43.0566 47.1913 42.7689C47.1891 42.7637 47.1868 42.7585 47.1846 42.7533C47.1812 42.7445 47.1779 42.7356 47.1744 42.7269C47.0625 42.446 47.0763 42.0513 47.0721 41.7503C47.0767 41.4318 47.0476 41.1129 47.0209 40.7958C47.0077 40.5241 46.9927 40.2525 46.9759 39.981C46.9792 39.8225 46.9665 39.662 46.9506 39.5043L46.931 39.2507C46.9307 39.1115 46.9173 38.9734 46.9056 38.8348C46.8617 38.5618 46.8471 38.2418 46.8456 37.9652C46.8598 37.8766 46.8533 37.7689 46.8383 37.6808C46.7688 36.9733 46.7551 36.2542 46.7246 35.5441L46.7534 35.5243C46.7738 35.556 46.7848 35.5851 46.7978 35.62C46.8714 35.8177 47.0229 35.8999 47.2067 35.9805C47.586 36.1468 48.0232 36.1777 48.432 36.1998L48.5345 36.2104L48.8625 36.1692C48.826 35.8332 48.7546 35.5177 48.7515 35.1763Z" fill="#898481"/>
<path d="M49.9264 41.9278C50.2105 42.067 50.503 42.2631 50.6119 42.5777C50.6698 42.7451 50.6518 42.9175 50.5683 43.0727C50.3835 43.4165 49.9538 43.594 49.5965 43.6929C49.4977 43.7202 49.3865 43.7526 49.2841 43.7538C49.2966 43.5115 49.2394 43.2192 49.1523 42.9927C49.3966 42.9219 49.6806 42.8431 49.8168 42.6076C49.9289 42.4135 49.9252 42.1465 49.9264 41.9278Z" fill="#794F4A"/>
<path d="M49.7597 36.1609C49.7817 36.1665 49.7931 36.1778 49.8108 36.1914C49.8613 36.3144 49.8459 36.4776 49.8419 36.6092C49.8291 37.0239 49.7824 37.4389 49.7618 37.8536L49.6333 40.6638C49.6044 41.1937 49.6268 41.9381 49.529 42.4262C49.5065 42.5384 49.4611 42.5829 49.369 42.6467C49.347 42.6403 49.3342 42.6267 49.3167 42.6123C49.284 42.5416 49.2796 42.4803 49.2794 42.4027C49.2767 41.5764 49.3259 40.7416 49.3456 39.9147L49.4097 36.3673C49.517 36.2837 49.6401 36.2244 49.7597 36.1609Z" fill="#D7C4BC"/>
<path d="M48.7521 35.1763C48.9456 35.127 49.1887 35.131 49.3905 35.106C49.7195 35.0651 50.0463 35.004 50.3721 34.9438C50.3601 35.1668 50.3509 35.3904 50.334 35.613C49.7851 36.0459 49.4684 36.0657 48.816 36.2106L48.8141 39.9481C48.8048 40.892 48.7633 41.9018 48.7927 42.8395C48.7951 42.9151 48.798 42.9853 48.829 43.0553L48.8724 43.0699C48.7433 43.0896 48.6039 43.0784 48.4733 43.0761C48.4392 42.6276 48.4806 42.1627 48.4853 41.7124C48.4973 40.5726 48.5328 39.4285 48.5058 38.2888C48.53 37.6007 48.4605 36.8938 48.535 36.2104L48.8631 36.1692C48.8265 35.8332 48.7551 35.5177 48.7521 35.1763Z" fill="#794F4A"/>
<path d="M46.7246 35.5441L46.7534 35.5243C46.7738 35.556 46.7848 35.5851 46.7978 35.62C46.8714 35.8177 47.0229 35.8998 47.2067 35.9805C47.586 36.1468 48.0232 36.1777 48.432 36.1998L48.5345 36.2104C48.4599 36.8938 48.5295 37.6007 48.5053 38.2888C48.5323 39.4285 48.4967 40.5726 48.4848 41.7124C48.4801 42.1626 48.4387 42.6276 48.4728 43.0761C48.0066 43.0789 47.578 43.0566 47.1913 42.7689C47.1891 42.7637 47.1868 42.7585 47.1846 42.7533C47.1812 42.7445 47.1779 42.7356 47.1744 42.7269C47.0625 42.446 47.0763 42.0513 47.0721 41.7503C47.0767 41.4318 47.0476 41.1129 47.0209 40.7958C47.0077 40.5241 46.9927 40.2525 46.9759 39.981C46.9792 39.8225 46.9665 39.662 46.9506 39.5043L46.931 39.2507C46.9307 39.1115 46.9173 38.9734 46.9056 38.8348C46.8617 38.5618 46.8471 38.2418 46.8456 37.9652C46.8598 37.8766 46.8533 37.7688 46.8383 37.6808C46.7688 36.9733 46.7551 36.2542 46.7246 35.5441Z" fill="url(#paint16_linear_5_144323)"/>
<path d="M48.4326 36.1998L48.5351 36.2104C48.4606 36.8938 48.5301 37.6007 48.5059 38.2888C48.4671 38.0757 48.4686 37.8588 48.4627 37.6429C48.4498 37.1647 48.4664 36.676 48.4326 36.1998Z" fill="#904A17"/>
<path d="M48.168 19.0001H49.2164C49.4603 19.0766 49.7545 19.0794 50.0096 19.1199C50.5128 19.1997 51.6301 19.4855 52.0394 19.7479C52.2999 19.8136 52.5959 20.0111 52.8298 20.145C54.1538 20.9027 55.2191 21.9332 56.0025 23.2443C56.0348 23.2977 56.0664 23.3515 56.0973 23.4056C56.1282 23.4598 56.1585 23.5144 56.188 23.5693C56.2176 23.6243 56.2465 23.6795 56.2746 23.7352C56.3028 23.7908 56.3303 23.8468 56.3571 23.9032C56.3839 23.9595 56.41 24.0162 56.4354 24.0732C56.4608 24.1301 56.4855 24.1874 56.5094 24.245C56.5334 24.3026 56.5567 24.3605 56.5792 24.4187C56.6017 24.4769 56.6235 24.5353 56.6446 24.5941C56.6656 24.6528 56.686 24.7117 56.7056 24.771C56.7252 24.8302 56.744 24.8896 56.7622 24.9493C56.7803 25.009 56.7977 25.0689 56.8143 25.1291C56.8309 25.1892 56.8468 25.2495 56.862 25.31C56.8771 25.3705 56.8915 25.4312 56.9051 25.4921C56.9187 25.553 56.9316 25.614 56.9437 25.6752C56.9558 25.7365 56.9672 25.7978 56.9777 25.8593C56.9883 25.9207 56.9981 25.9823 57.0072 26.0441C57.0162 26.1058 57.0245 26.1676 57.032 26.2296C57.0395 26.2915 57.0463 26.3535 57.0522 26.4156C57.0582 26.4777 57.0634 26.5399 57.0678 26.6021C57.0722 26.6643 57.0759 26.7266 57.0788 26.7889C57.0816 26.8512 57.0837 26.9136 57.0851 26.976C57.0864 27.0383 57.0869 27.1007 57.0867 27.1631C57.0865 27.2255 57.0855 27.2878 57.0837 27.3502C57.0819 27.4126 57.0793 27.4749 57.076 27.5372C57.0727 27.5995 57.0686 27.6617 57.0637 27.7239C57.0588 27.7861 57.0532 27.8482 57.0468 27.9103C57.0403 27.9723 57.0332 28.0343 57.0252 28.0962C57.0172 28.1581 57.0085 28.2198 56.999 28.2815C56.9895 28.3431 56.9792 28.4047 56.9682 28.4661C56.9572 28.5275 56.9454 28.5887 56.9328 28.6498C56.9203 28.7109 56.907 28.7719 56.8929 28.8327C56.8788 28.8934 56.864 28.954 56.8484 29.0144C56.7719 29.3147 56.6822 29.6221 56.5545 29.9049C55.741 31.9454 53.9834 33.6217 51.9774 34.4779C51.4673 34.6956 50.9179 34.8453 50.3725 34.9438C50.0466 35.004 49.7199 35.0651 49.3909 35.106C49.1891 35.131 48.946 35.127 48.7524 35.1763C48.7555 35.5178 48.8269 35.8332 48.8635 36.1692L48.5354 36.2104L48.4329 36.1998C48.0241 36.1777 47.5869 36.1469 47.2077 35.9805C47.0238 35.8999 46.8724 35.8177 46.7987 35.62C46.7857 35.5851 46.7747 35.556 46.7543 35.5243L46.7255 35.5441L46.7089 34.9255C45.995 34.761 45.3398 34.4685 44.6954 34.1259C42.881 33.1615 41.4983 31.3802 40.9022 29.4279C40.2956 27.4412 40.4922 25.0914 41.4735 23.2528C42.3904 21.535 44.0198 20.0566 45.9036 19.4833C46.0559 19.4232 46.2173 19.3797 46.3736 19.3306L46.8307 19.221C47.0567 19.1681 47.2847 19.126 47.5147 19.0946C47.7318 19.0665 47.9556 19.0542 48.168 19.0001Z" fill="url(#paint17_linear_5_144323)"/>
<path d="M48.1679 19.0001H49.2162C49.4601 19.0766 49.7544 19.0794 50.0095 19.1199C50.5126 19.1997 51.63 19.4855 52.0393 19.7479L52.0519 19.7905C52.06 19.7936 52.0682 19.7967 52.0763 19.8C52.3211 19.8985 52.5551 20.0383 52.7833 20.1701C52.9797 20.2835 53.1856 20.3888 53.3751 20.5131C53.8645 20.834 54.3359 21.2418 54.746 21.6589C54.847 21.7616 55.0089 21.8984 55.0632 22.0314C55.0667 22.04 55.0695 22.0488 55.0727 22.0575L55.0572 22.088C54.9144 22.0929 54.7954 21.9937 54.6394 21.9996C54.5425 22.0032 54.4673 21.9172 54.4029 21.8536C53.9529 21.4079 53.4435 20.8662 52.9105 20.5234C52.6986 20.3871 52.4675 20.2811 52.2419 20.1695C52.1425 20.1203 51.9951 20.0128 51.8908 20.0033C51.9133 20.0384 51.9064 20.0365 51.9481 20.0546C51.9934 20.0742 51.9761 20.0646 52.0132 20.0919C51.5528 19.9426 51.0984 19.7672 50.6208 19.6805C49.4701 19.4716 48.6114 19.7582 47.5714 20.1827C47.3133 20.2881 47.0518 20.3789 46.8028 20.5056C45.819 21.0064 44.9598 21.7729 44.4815 22.7804C44.498 22.3358 44.7365 21.858 44.8694 21.4418C44.8318 21.4551 44.7976 21.4745 44.7622 21.4928C44.6756 21.4775 44.7363 21.4396 44.6816 21.3958C44.5852 21.3188 44.4291 21.3682 44.316 21.3731C44.2431 21.3763 44.1715 21.3764 44.1177 21.3195C44.1111 21.3125 44.1062 21.304 44.0996 21.297C44.0894 21.286 44.0781 21.276 44.0684 21.2646L44.0874 21.1713C44.385 20.6237 45.1665 20.0351 45.6967 19.7172C45.7586 19.6801 45.8272 19.6589 45.8889 19.6233C45.9507 19.5877 45.9986 19.5301 46.0664 19.5058C46.0985 19.4943 46.1198 19.4831 46.148 19.4644L46.092 19.4642C46.0717 19.4775 46.0457 19.4974 46.0229 19.5073C45.97 19.5302 45.9527 19.5074 45.9034 19.4833C46.0558 19.4232 46.2171 19.3797 46.3734 19.3306L46.8306 19.221C47.0566 19.1681 47.2845 19.126 47.5145 19.0946C47.7316 19.0665 47.9554 19.0542 48.1679 19.0001Z" fill="#F57312"/>
<path d="M46.3732 19.3306L46.8304 19.221C46.7753 19.4378 46.2653 19.7055 46.0781 19.8618C46.0895 19.8476 46.1156 19.8158 46.1241 19.8008C46.1514 19.7521 46.1159 19.6972 46.0989 19.6496C46.1737 19.5356 46.2922 19.47 46.363 19.3491C46.3665 19.343 46.3698 19.3368 46.3732 19.3306Z" fill="#CF4C2A"/>
<path d="M45.9036 19.4833C45.9529 19.5074 45.9702 19.5302 46.0231 19.5073C46.0458 19.4974 46.0719 19.4775 46.0922 19.4642L46.1481 19.4644C46.12 19.4831 46.0986 19.4943 46.0666 19.5058C45.9987 19.5301 45.9509 19.5877 45.8891 19.6233C45.8274 19.6589 45.7588 19.6801 45.6968 19.7172C45.1666 20.0351 44.3852 20.6237 44.0876 21.1713C43.2331 22.246 42.8912 23.7604 43.0433 25.1102C43.1224 25.8114 43.2716 26.2506 43.4972 26.9085C43.5542 27.0746 43.5949 27.2501 43.6685 27.4097C44.1174 28.3835 45.0983 29.5451 45.9425 30.2121C47.5171 31.4563 49.5383 32.1616 51.5542 31.922C53.2089 31.7252 54.7547 30.9957 55.7954 29.6665C55.9081 29.5225 56.0133 29.3744 56.1057 29.2166C56.4326 29.4017 56.4272 29.5829 56.5545 29.9049C55.741 31.9454 53.9834 33.6217 51.9774 34.4779C51.4673 34.6956 50.9179 34.8453 50.3725 34.9438C50.0466 35.004 49.7199 35.0651 49.3909 35.106C49.1891 35.131 48.946 35.127 48.7524 35.1763C48.7555 35.5177 48.8269 35.8332 48.8635 36.1692L48.5354 36.2104L48.4329 36.1998C48.0241 36.1777 47.5869 36.1468 47.2077 35.9805C47.0238 35.8999 46.8724 35.8177 46.7987 35.62C46.7857 35.5851 46.7747 35.556 46.7543 35.5243L46.7255 35.5441L46.7089 34.9255C45.995 34.761 45.3398 34.4684 44.6954 34.1259C42.881 33.1615 41.4983 31.3802 40.9022 29.4279C40.2956 27.4412 40.4922 25.0914 41.4735 23.2528C42.3904 21.5349 44.0198 20.0566 45.9036 19.4833Z" fill="#AC261E"/>
<path d="M46.708 34.9255C47.2761 35.0487 47.8199 35.1489 48.4011 35.1717C48.5133 35.1761 48.641 35.1914 48.7515 35.1763C48.7545 35.5178 48.826 35.8332 48.8625 36.1692L48.5344 36.2104L48.4319 36.1998C48.0231 36.1777 47.586 36.1469 47.2067 35.9805C47.0228 35.8999 46.8714 35.8177 46.7977 35.62C46.7847 35.5851 46.7738 35.556 46.7534 35.5243L46.7246 35.5441L46.708 34.9255Z" fill="url(#paint18_linear_5_144323)"/>
<path d="M44.4812 22.7804C44.9595 21.7729 45.8187 21.0064 46.8025 20.5056C47.0514 20.3789 47.313 20.2881 47.5711 20.1827C48.6111 19.7582 49.4698 19.4716 50.6205 19.6805C51.098 19.7672 51.5525 19.9426 52.0128 20.0919C52.2893 20.2259 52.5796 20.3519 52.838 20.5182C53.1167 20.6977 53.3731 20.9204 53.622 21.1387C54.5696 21.9697 55.3724 22.9457 55.7947 24.148C56.1195 25.0731 56.2611 26.4177 56.0952 27.3777C56.0825 27.4516 56.0672 27.525 56.0493 27.5979C56.0314 27.6707 56.011 27.7428 55.988 27.8142C55.9649 27.8856 55.9394 27.9561 55.9113 28.0257C55.8833 28.0953 55.8528 28.1638 55.8198 28.2312C55.3049 29.3015 54.3418 30.0749 53.2271 30.4556C51.5748 31.0199 49.8147 30.7786 48.2728 30.0126C46.583 29.1731 45.2066 27.6486 44.6081 25.8543C44.2381 24.7447 44.2821 23.9171 44.4812 22.7804Z" fill="#EA4E07"/>
<path d="M47.2979 20.8403C47.67 20.2973 48.2018 20.0145 48.8406 19.8937C50.2857 19.6203 52.0216 20.1717 53.215 20.9915C53.2875 21.0404 53.3589 21.0908 53.4292 21.1428C53.4994 21.1948 53.5685 21.2483 53.6364 21.3034C53.7043 21.3584 53.771 21.415 53.8364 21.473C53.9018 21.531 53.9658 21.5904 54.0286 21.6513C54.0914 21.7121 54.1528 21.7743 54.2128 21.8379C54.2728 21.9014 54.3314 21.9663 54.3886 22.0325C54.4457 22.0986 54.5013 22.166 54.5555 22.2346C54.6097 22.3033 54.6623 22.373 54.7134 22.444C54.79 22.5493 54.8817 22.6596 54.9419 22.7741C54.5925 22.8592 54.2073 22.5464 53.7886 22.6534C53.7755 22.7212 53.7599 22.7848 53.7286 22.8469C53.6298 23.0432 53.4442 23.184 53.2381 23.2517C52.8574 23.3767 52.3967 23.2901 52.0446 23.1178C51.4718 22.8376 51.2668 22.4757 51.0685 21.8974C51.0566 21.8881 51.0635 21.8946 51.0507 21.8726C51.0332 21.8426 51.0171 21.8355 50.9839 21.8212C50.7985 21.7418 50.5426 21.7023 50.3454 21.6481C49.645 21.4554 48.9343 21.2845 48.2296 21.1062C48.066 21.0648 47.3894 20.9392 47.2979 20.8403Z" fill="url(#paint19_linear_5_144323)"/>
<path d="M51.0684 21.8974L51.0742 21.8579C51.1165 21.5627 51.1212 21.3457 51.3838 21.1507C51.645 20.9567 51.9849 20.9406 52.2942 20.9952C52.7884 21.0825 53.2764 21.3953 53.5625 21.808C53.7397 22.0635 53.8253 22.341 53.7885 22.6534C53.7754 22.7212 53.7598 22.7848 53.7285 22.8469C53.6297 23.0432 53.4441 23.184 53.238 23.2517C52.8573 23.3767 52.3966 23.2901 52.0445 23.1178C51.4717 22.8376 51.2667 22.4757 51.0684 21.8974Z" fill="#FEF92B"/>
<path d="M52.2881 21.2311C52.5384 21.2431 52.7929 21.3147 52.9939 21.4702C53.0628 21.5234 53.1358 21.6047 53.1341 21.698C53.1328 21.7685 53.0895 21.8017 53.0469 21.851C52.8563 21.8871 52.6746 21.8309 52.5092 21.7356C52.394 21.6691 52.2604 21.5674 52.2292 21.4298C52.21 21.3455 52.243 21.2984 52.2881 21.2311Z" fill="#FEFEFE"/>
<path d="M54.9481 27.8422C54.7988 27.9451 54.6677 28.0755 54.5158 28.1784C54.0075 28.5225 53.3795 28.7044 52.7731 28.7614C51.3541 28.8948 49.9507 28.294 48.8754 27.3993C47.6994 26.421 46.8191 24.9617 46.6848 23.4232C46.6606 23.147 46.653 22.8676 46.6808 22.5914C46.7331 22.0724 46.9627 21.2377 47.2975 20.8403C47.3891 20.9392 48.0657 21.0648 48.2293 21.1062C48.934 21.2845 49.6447 21.4554 50.3451 21.6481C50.5422 21.7023 50.7981 21.7418 50.9836 21.8212C51.0168 21.8355 51.0329 21.8426 51.0503 21.8726C51.0632 21.8946 51.0563 21.8881 51.0681 21.8974C51.2665 22.4757 51.4715 22.8376 52.0443 23.1178C52.3964 23.2901 52.8571 23.3767 53.2378 23.2517C53.4439 23.184 53.6295 23.0432 53.7283 22.8469C53.7595 22.7848 53.7752 22.7212 53.7883 22.6534C54.207 22.5464 54.5922 22.8592 54.9416 22.7742C55.6097 23.7871 56.0596 25.0496 55.8044 26.2698C55.7209 26.669 55.5764 27.0358 55.3522 27.376C55.2585 27.5786 55.148 27.7328 54.9481 27.8422Z" fill="url(#paint20_linear_5_144323)"/>
<path d="M54.6976 25.9086C54.7063 25.9085 54.7151 25.9079 54.7238 25.9084C54.8465 25.9144 54.9734 25.9794 55.0522 26.0731C55.1401 26.1776 55.176 26.3204 55.1566 26.4544C55.1327 26.6191 55.052 26.7007 54.9232 26.7963C54.8911 26.7958 54.8913 26.7965 54.8552 26.7921C54.7336 26.7774 54.6072 26.6951 54.534 26.5985C54.5244 26.5859 54.5154 26.5728 54.5071 26.5593C54.4989 26.5457 54.4913 26.5318 54.4844 26.5175C54.4776 26.5032 54.4714 26.4886 54.4661 26.4737C54.4607 26.4588 54.4561 26.4436 54.4523 26.4282C54.4485 26.4128 54.4454 26.3973 54.4432 26.3816C54.441 26.3659 54.4395 26.3501 54.4388 26.3343C54.4382 26.3184 54.4384 26.3026 54.4394 26.2867C54.4404 26.2709 54.4421 26.2552 54.4447 26.2395C54.4725 26.077 54.5681 25.9984 54.6976 25.9086Z" fill="#FEF92B"/>
<path d="M54.5537 27.4148C54.5702 27.3401 54.5839 27.2565 54.6192 27.1881C54.6725 27.0846 54.7698 26.9872 54.8832 26.9533C54.9701 26.9273 55.0606 26.9382 55.1371 26.987C55.2762 27.0758 55.3146 27.2265 55.3529 27.376C55.2592 27.5786 55.1487 27.7328 54.9487 27.8422C54.831 27.8029 54.7364 27.7392 54.6412 27.6622C54.6016 27.5814 54.5782 27.501 54.5537 27.4148Z" fill="#ECAFB0"/>
</g>
<defs>
<filter id="filter0_d_5_144323" x="0.476562" y="0" width="94.8877" height="91.5713" filterUnits="userSpaceOnUse" color-interpolation-filters="sRGB">
<feFlood flood-opacity="0" result="BackgroundImageFix"/>
<feColorMatrix in="SourceAlpha" type="matrix" values="0 0 0 0 0 0 0 0 0 0 0 0 0 0 0 0 0 0 127 0" result="hardAlpha"/>
<feOffset/>
<feGaussianBlur stdDeviation="2.5"/>
<feComposite in2="hardAlpha" operator="out"/>
<feColorMatrix type="matrix" values="0 0 0 0 0 0 0 0 0 0 0 0 0 0 0 0 0 0 0.35 0"/>
<feBlend mode="normal" in2="BackgroundImageFix" result="effect1_dropShadow_5_144323"/>
<feBlend mode="normal" in="SourceGraphic" in2="effect1_dropShadow_5_144323" result="shape"/>
</filter>
<linearGradient id="paint0_linear_5_144323" x1="47.8088" y1="4.38499" x2="47.8088" y2="83.102" gradientUnits="userSpaceOnUse">
<stop stop-color="#F0CA57"/>
<stop offset="1" stop-color="#D45B1A"/>
</linearGradient>
<linearGradient id="paint1_linear_5_144323" x1="7.01489" y1="65.2593" x2="84.2625" y2="65.2593" gradientUnits="userSpaceOnUse">
<stop stop-color="#F0CA57"/>
<stop offset="0.5" stop-color="#F7C850"/>
<stop offset="1" stop-color="#FEC649"/>
</linearGradient>
<linearGradient id="paint2_linear_5_144323" x1="48.2637" y1="16.6293" x2="48.2637" y2="67.463" gradientUnits="userSpaceOnUse">
<stop stop-color="#A2C522"/>
<stop offset="0.29" stop-color="#86A40D"/>
<stop offset="0.85" stop-color="#799C0B"/>
<stop offset="1" stop-color="#85A70E"/>
</linearGradient>
<linearGradient id="paint3_linear_5_144323" x1="48.4031" y1="16.6643" x2="48.4031" y2="66.0636" gradientUnits="userSpaceOnUse">
<stop offset="0.29" stop-color="#A2C522"/>
<stop offset="0.85" stop-color="#6F9208"/>
<stop offset="1" stop-color="#486A00"/>
</linearGradient>
<linearGradient id="paint4_linear_5_144323" x1="40.8615" y1="43.8553" x2="46.4303" y2="43.6464" gradientUnits="userSpaceOnUse">
<stop stop-color="#854443"/>
<stop offset="1" stop-color="#BF6D6C"/>
</linearGradient>
<linearGradient id="paint5_linear_5_144323" x1="45.5198" y1="40.8512" x2="47.0185" y2="40.2399" gradientUnits="userSpaceOnUse">
<stop stop-color="#AB4B56"/>
<stop offset="1" stop-color="#B57872"/>
</linearGradient>
<linearGradient id="paint6_linear_5_144323" x1="48.7888" y1="43.5388" x2="54.9086" y2="45.6033" gradientUnits="userSpaceOnUse">
<stop stop-color="#B68E77"/>
<stop offset="1" stop-color="#D5BFAD"/>
</linearGradient>
<linearGradient id="paint7_linear_5_144323" x1="50.2125" y1="47.8575" x2="51.9101" y2="40.609" gradientUnits="userSpaceOnUse">
<stop stop-color="#784727"/>
<stop offset="1" stop-color="#A26F5E"/>
</linearGradient>
<linearGradient id="paint8_linear_5_144323" x1="55.4278" y1="52.9066" x2="58.6182" y2="39.7152" gradientUnits="userSpaceOnUse">
<stop stop-color="#FE6103"/>
<stop offset="1" stop-color="#FEA907"/>
</linearGradient>
<linearGradient id="paint9_linear_5_144323" x1="62.1602" y1="47.0812" x2="58.9271" y2="51.1866" gradientUnits="userSpaceOnUse">
<stop stop-color="#FE452C"/>
<stop offset="1" stop-color="#E03736"/>
</linearGradient>
<linearGradient id="paint10_linear_5_144323" x1="59.7866" y1="50.413" x2="61.5495" y2="47.0071" gradientUnits="userSpaceOnUse">
<stop stop-color="#FD5200"/>
<stop offset="1" stop-color="#FEE90E"/>
</linearGradient>
<linearGradient id="paint11_linear_5_144323" x1="64.703" y1="54.0815" x2="65.4884" y2="58.2991" gradientUnits="userSpaceOnUse">
<stop stop-color="#6B495D"/>
<stop offset="1" stop-color="#BCABB6"/>
</linearGradient>
<linearGradient id="paint12_linear_5_144323" x1="64.5401" y1="58.442" x2="64.8235" y2="59.9688" gradientUnits="userSpaceOnUse">
<stop stop-color="#BBAAB5"/>
<stop offset="1" stop-color="#D8CED6"/>
</linearGradient>
<linearGradient id="paint13_linear_5_144323" x1="36.641" y1="55.2493" x2="31.8455" y2="57.8" gradientUnits="userSpaceOnUse">
<stop stop-color="#330133"/>
<stop offset="1" stop-color="#4E2545"/>
</linearGradient>
<linearGradient id="paint14_linear_5_144323" x1="46.6705" y1="56.0863" x2="40.5623" y2="64.2042" gradientUnits="userSpaceOnUse">
<stop stop-color="#805577"/>
<stop offset="1" stop-color="#B872B6"/>
</linearGradient>
<linearGradient id="paint15_linear_5_144323" x1="58.6162" y1="53.3288" x2="52.9003" y2="60.9513" gradientUnits="userSpaceOnUse">
<stop stop-color="#4D3B3C"/>
<stop offset="1" stop-color="#815578"/>
</linearGradient>
<linearGradient id="paint16_linear_5_144323" x1="46.8392" y1="39.3805" x2="48.4927" y2="39.3451" gradientUnits="userSpaceOnUse">
<stop stop-color="#561200"/>
<stop offset="1" stop-color="#904B17"/>
</linearGradient>
<linearGradient id="paint17_linear_5_144323" x1="49.7026" y1="31.8739" x2="50.2656" y2="21.6137" gradientUnits="userSpaceOnUse">
<stop stop-color="#AF3400"/>
<stop offset="1" stop-color="#DE6D1E"/>
</linearGradient>
<linearGradient id="paint18_linear_5_144323" x1="46.7557" y1="35.6084" x2="48.7904" y2="35.5225" gradientUnits="userSpaceOnUse">
<stop stop-color="#320000"/>
<stop offset="1" stop-color="#683825"/>
</linearGradient>
<linearGradient id="paint19_linear_5_144323" x1="51.5158" y1="20.1741" x2="51.0737" y2="21.9103" gradientUnits="userSpaceOnUse">
<stop stop-color="#FFE201"/>
<stop offset="1" stop-color="#FFC202"/>
</linearGradient>
<linearGradient id="paint20_linear_5_144323" x1="51.8365" y1="21.9943" x2="50.2154" y2="28.3376" gradientUnits="userSpaceOnUse">
<stop stop-color="#FFC302"/>
<stop offset="1" stop-color="#FA4F08"/>
</linearGradient>
<clipPath id="clip0_5_144323">
<rect width="42" height="42" fill="white" transform="translate(28 19.0001)"/>
</clipPath>
</defs>
</svg>
