<svg width="107" height="88" viewBox="0 0 107 88" fill="none" xmlns="http://www.w3.org/2000/svg">
<g style="mix-blend-mode:multiply" opacity="0.6">
<path d="M98.0693 74.1435L106.4 67.7127C101.226 65.9004 93.7139 64.0004 91.7846 63.5035L91.4631 63.2404V63.4158L91.2 64.1465L90.5862 65.4912C78.3139 63.4584 65.9021 62.3833 53.4631 62.2758C40.9354 62.3786 28.4351 63.4635 16.077 65.5204L15.0539 63.2404C15.0539 63.2404 6.02157 65.4619 3.05176e-05 67.5373L8.3308 73.9973L5.61233 85.485C5.61233 85.485 9.70463 84.2573 14.8785 82.9712L16.0477 87.9696C28.5795 85.5946 41.294 84.3134 54.0477 84.1404C66.3273 84.2889 78.5676 85.5609 90.6154 87.9404L91.7554 83.1465C96.8416 84.4035 100.817 85.6312 100.817 85.6312L98.0693 74.1435Z" fill="#39600F"/>
</g>
<path d="M26.9216 39.6508H25.1385H25.5477H25.9569H26.3077H26.8046L27.8862 39.8262H28.237L31.16 40.2939C31.1455 40.1383 31.1455 39.9817 31.16 39.8262C31.16 39.6216 31.16 39.417 31.16 39.1831L26.9216 39.6508ZM26.9216 39.6508H25.1385H25.5477H25.9569H26.3077H26.8046L27.8862 39.8262H28.237L31.16 40.2939C31.1455 40.1383 31.1455 39.9817 31.16 39.8262C31.16 39.6216 31.16 39.417 31.16 39.1831L26.9216 39.6508ZM26.9216 39.6508H25.1385H25.5477H25.9569H26.3077H26.8046L27.8862 39.8262H28.237L31.16 40.2939C31.1455 40.1383 31.1455 39.9817 31.16 39.8262C31.16 39.6216 31.16 39.417 31.16 39.1831L26.9216 39.6508ZM89.2415 40.7908C89.2554 40.5767 89.2554 40.3619 89.2415 40.1477C89.2415 39.9431 89.2415 39.7385 89.2415 39.5046C89.2415 39.2708 89.2415 38.6277 89.2415 38.1893C89.2415 37.7508 89.2415 37.8385 89.2415 37.6923V37.0493C88.9556 34.8004 88.4764 32.5804 87.8092 30.4139C87.8092 30.0046 87.5754 29.6246 87.4293 29.2446L86.9908 28.017C86.7569 27.4031 86.5231 26.7893 86.2308 26.2046C86.2308 26.2046 86.2308 26 86.2308 25.8831C86.0262 25.4447 85.8215 25.0062 85.5877 24.597C83.7742 21.1567 81.3126 18.0996 78.3385 15.5939C77.5964 14.9249 76.8155 14.3003 76 13.7231C75.5616 13.4016 75.1231 13.1385 74.6554 12.8462L74.2169 12.5831C69.7589 10.0816 64.7122 8.81997 59.6016 8.92927H47.9092C44.2468 8.82844 40.6012 9.46188 37.1874 10.7922C33.7737 12.1226 30.6608 14.123 28.0323 16.6754C27.6231 17.1139 27.1846 17.5523 26.8046 17.9908C25.5227 19.4513 24.3779 21.0267 23.3846 22.697C23.1508 23.077 22.9462 23.4862 22.7123 23.8954C22.0024 25.2527 21.3681 26.6481 20.8123 28.0754L20.4616 29.0985C20.2569 29.6831 20.0815 30.2677 19.9062 30.8523C19.7308 31.437 19.5554 32.0508 19.4092 32.6646C19.2631 33.2785 19.1462 33.8631 19.0293 34.477C18.7608 35.8492 18.5657 37.2347 18.4446 38.6277V39.7677C18.4446 39.7677 18.4446 39.9723 18.4446 40.06C18.4446 40.1477 18.4446 40.4985 18.4446 40.7323C18.4446 40.9662 18.4446 41.8723 18.4446 42.457C18.4502 45.1541 18.7046 47.845 19.2046 50.4954C19.2046 51.1093 19.4677 51.7231 19.6139 52.337C19.76 52.9508 20.0816 54.1493 20.3739 55.0554C20.6662 55.9616 20.7831 56.3123 21.0169 56.9262C22.2437 60.2379 24.001 63.328 26.22 66.0754C26.6585 66.6308 27.1262 67.157 27.6231 67.6831C28.7233 68.8511 29.9267 69.9175 31.2185 70.8693L32.1539 71.5123C33.7307 72.5842 35.428 73.4672 37.2108 74.1431C37.8037 74.3879 38.4085 74.6026 39.0231 74.7862C41.9704 75.6773 45.0348 76.1207 48.1139 76.1016H59.8062C63.6564 76.2176 67.4874 75.514 71.0452 74.0375C74.603 72.5609 77.8064 70.3452 80.4431 67.537C80.9903 66.9701 81.5074 66.3749 81.9923 65.7539C82.3371 65.3329 82.6591 64.8938 82.9569 64.4385C83.2492 64.0293 83.5415 63.62 83.8046 63.1816C84.0677 62.7431 84.6231 61.837 85.0031 61.1646C85.3831 60.4923 85.4123 60.3754 85.5877 59.9954C86.4524 58.049 87.1563 56.0351 87.6923 53.9739C87.6923 53.7985 87.6923 53.6231 87.6923 53.4477C87.6923 53.2723 87.6923 53.0385 87.8385 52.8631C87.9846 52.6877 88.0431 52.0154 88.1308 51.6062C88.3939 50.3493 88.6277 49.0923 88.7739 47.8354C88.7739 47.4554 88.7739 47.0754 88.7739 46.6954C88.7739 45.3508 88.9785 44.0062 88.9785 42.6616C89.3 41.96 89.2708 41.3754 89.2415 40.7908ZM31.92 34.9446C31.92 34.3308 32.2416 33.7462 32.4462 33.1323C32.705 32.3463 33.0076 31.5754 33.3523 30.8231C33.5957 30.2633 33.8689 29.7168 34.1708 29.1862C34.1652 29.1181 34.1652 29.0497 34.1708 28.9816C34.3485 28.6593 34.5436 28.3471 34.7554 28.0462C36.1624 25.8721 38.1145 24.1046 40.4173 22.9199C42.7201 21.7352 45.2931 21.1746 47.88 21.2939H59.5723C61.8552 21.1936 64.1307 21.6184 66.2236 22.5356C68.3166 23.4529 70.1711 24.8381 71.6446 26.5847C72.1226 27.1591 72.562 27.7645 72.96 28.397V28.5723C73.1939 28.9523 73.4277 29.3323 73.6323 29.7123C74.8401 32.0951 75.6779 34.648 76.1169 37.2831C76.1169 37.2831 76.1169 37.4877 76.1169 37.5754C76.1309 37.8578 76.1309 38.1407 76.1169 38.4231C76.1169 38.7739 76.1169 39.0954 76.1169 39.417V40.1185C76.1169 41.317 76.1169 42.1646 76.1169 42.5154C76.1037 43.6783 76.0256 44.8396 75.8831 45.9939C75.8831 46.3447 75.8831 46.6954 75.7077 47.1046C75.4815 48.6412 75.1295 50.1565 74.6554 51.6354V51.9862C74.6554 52.337 74.3923 52.717 74.2754 53.097L74.1 53.477C73.0227 56.2868 71.2289 58.7658 68.8969 60.6677C68.3353 61.0909 67.7497 61.4813 67.1431 61.837C64.6692 63.1446 61.9022 63.7986 59.1046 63.737H47.4123C45.6417 63.7528 43.8785 63.5065 42.18 63.0062C41.164 62.7042 40.1839 62.2925 39.2569 61.7785C38.6435 61.4604 38.0653 61.0783 37.5323 60.6385C36.5045 59.8404 35.5899 58.9062 34.8139 57.8616C34.3412 57.2551 33.9207 56.6097 33.5569 55.9323C32.9367 54.8585 32.4086 53.7339 31.9785 52.5708C31.7739 51.9277 31.5692 51.3139 31.3939 50.7C31.391 50.6514 31.391 50.6026 31.3939 50.5539C31.3939 50.1446 31.1892 49.7646 31.1016 49.3846C30.5653 47.1334 30.2809 44.8295 30.2539 42.5154C30.2539 42.34 30.2539 42.077 30.2539 41.7262C30.2539 41.3754 30.2539 41.0539 30.2539 40.6154C30.2393 40.4599 30.2393 40.3033 30.2539 40.1477C30.2539 39.9431 30.2539 39.7385 30.2539 39.5046C30.2539 39.2708 30.2539 38.7739 30.4 38.3939C30.8353 37.2235 31.343 36.0813 31.92 34.9739V34.9446ZM26.9216 39.6216H25.1385H25.5477H25.9569H26.3077H26.8046L27.8862 39.797H28.237L31.16 40.2646C31.1455 40.1091 31.1455 39.9525 31.16 39.797C31.16 39.5923 31.16 39.3877 31.16 39.1539L26.9216 39.6216ZM26.9216 39.6216H25.1385H25.5477H25.9569H26.3077H26.8046L27.8862 39.797H28.237L31.16 40.2646C31.1455 40.1091 31.1455 39.9525 31.16 39.797C31.16 39.5923 31.16 39.3877 31.16 39.1539L26.9216 39.6216ZM26.9216 39.6216H25.1385H25.5477H25.9569H26.3077H26.8046L27.8862 39.797H28.237L31.16 40.2646C31.1455 40.1091 31.1455 39.9525 31.16 39.797C31.16 39.5923 31.16 39.3877 31.16 39.1539L26.9216 39.6216Z" fill="#9E4000"/>
<g filter="url(#filter0_d_24_39428)">
<path d="M89.2708 38.1308C89.2708 37.7801 89.2708 37.4001 89.2708 37.0201C89.1585 34.8108 88.8849 32.6126 88.4523 30.4431C88.4523 30.0631 88.4523 29.6831 88.2185 29.3031C88.2054 29.2257 88.2054 29.1467 88.2185 29.0693C88.0723 28.4554 87.8969 27.8416 87.7216 27.2278C87.5462 26.6139 87.517 26.5847 87.4293 26.2339L86.9908 24.977C85.978 22.0377 84.5614 19.2536 82.7816 16.7047C82.337 16.0566 81.8589 15.4322 81.3493 14.8339C78.7278 11.6524 75.4129 9.11318 71.6585 7.41077C67.904 5.70836 63.8097 4.88794 59.6892 5.01237H47.9969C44.0493 4.95788 40.1316 5.70365 36.48 7.20468C35.3292 7.68737 34.2154 8.25403 33.1477 8.90006C29.7483 10.9966 26.8378 13.7975 24.6123 17.1139C24.3492 17.5231 24.0862 17.9324 23.8523 18.3416C23.6185 18.7508 23.0339 19.7154 22.6831 20.3878C22.3323 21.0601 21.8646 22.0247 21.5139 22.8724C21.3385 23.2524 21.1923 23.6616 21.0462 24.0416C20.543 25.3514 20.1137 26.6884 19.76 28.0462C19.76 28.397 19.5554 28.777 19.4677 29.157C19.38 29.537 19.4677 29.8878 19.2339 30.2385C19 30.5893 19 31.4954 18.8831 32.1093L18.62 33.8924L18.4446 35.7631C18.4446 36.7278 18.4446 37.7216 18.4446 38.6862V39.8262C18.4446 40.1478 18.4446 40.4693 18.4446 40.7908C18.4446 41.1124 18.4446 41.2293 18.4446 41.4339C18.5805 43.8652 18.9227 46.2806 19.4677 48.6539L19.7308 49.7939C19.9354 50.5247 20.14 51.2847 20.3739 52.0154C20.6077 52.7462 20.8123 53.2724 21.0462 53.8862C21.28 54.5001 21.8062 55.7862 22.2446 56.8093C22.6831 57.8324 22.8877 58.0954 23.2385 58.7385C23.5892 59.3816 23.8816 59.8493 24.2323 60.3754C24.5831 60.9016 24.7293 61.1354 24.9923 61.5154C27.091 64.559 29.786 67.1446 32.9139 69.1154L34.2292 69.8754C36.81 71.2918 39.6039 72.279 42.5016 72.7985C43.4369 72.9447 44.3723 73.0616 45.4246 73.1493C46.3016 73.1493 47.2077 73.1493 48.1431 73.1493H59.8354C65.1552 73.2473 70.3943 71.8388 74.9477 69.0862C75.8109 68.5421 76.6406 67.9467 77.4323 67.3031C78.3543 66.5869 79.2237 65.8054 80.0339 64.9647C80.4431 64.5554 80.8231 64.117 81.2323 63.6493C81.8562 62.9102 82.4416 62.1394 82.9862 61.3401L83.7754 60.2001C84.8258 58.494 85.7349 56.705 86.4939 54.8508L86.9323 53.7985C86.9323 53.5062 87.1369 53.2431 87.2246 52.9508V52.6877C87.7715 51.0596 88.2205 49.4003 88.5693 47.7185C88.5693 47.3385 88.5693 46.9585 88.7739 46.5785C89.0712 44.8768 89.2664 43.1589 89.3585 41.4339C89.3731 41.2198 89.3731 41.0049 89.3585 40.7908C89.3585 40.2354 89.3585 39.6508 89.3585 39.0954C89.3511 38.7723 89.3218 38.45 89.2708 38.1308Z" fill="url(#paint0_linear_24_39428)"/>
</g>
<g style="mix-blend-mode:overlay" opacity="0.5">
<path d="M19.4676 29.1861H31.5983L32.2707 29.7415C28.7888 29.4861 25.2894 29.6136 21.8353 30.1215C19.1753 30.6476 18.5322 34.3892 18.5322 34.3892C19.0876 31.5246 19.2922 29.5661 19.4676 29.1861Z" fill="#FFDE55"/>
</g>
<g style="mix-blend-mode:overlay" opacity="0.5">
<path d="M21.0461 24.0707C21.0461 24.0707 33.0892 22.8723 34.5215 22.5215L34.0245 23.603C34.0245 23.603 28.1784 23.8953 25.9568 24.0999C24.1918 24.1981 22.44 24.4624 20.7245 24.8892L21.0461 24.0707Z" fill="#FFDE55"/>
</g>
<g style="mix-blend-mode:overlay" opacity="0.5">
<path d="M23.8523 18.3706C28.6744 17.8707 33.4523 17.0108 38.1461 15.7983C38.1461 15.7983 32.0661 17.5522 27.8861 18.4291C24.963 19.0429 23.3261 19.306 23.0046 19.8614C23.2537 19.3462 23.5369 18.8481 23.8523 18.3706Z" fill="#FFDE55"/>
</g>
<g style="mix-blend-mode:overlay" opacity="0.5">
<path d="M18.3278 39.855H21.2509C24.3195 40.6764 27.4329 41.3205 30.5755 41.7843L31.014 42.9243L25.9863 41.492C24.5021 40.9773 22.9612 40.6436 21.397 40.4981C20.374 40.4981 18.474 40.7027 18.474 41.9889C18.3659 41.2829 18.317 40.5692 18.3278 39.855Z" fill="#FFDE55"/>
</g>
<g style="mix-blend-mode:overlay" opacity="0.5">
<path d="M19.6723 49.8233L33.9953 50.7002L34.6677 51.5479C34.6677 51.5479 20.5784 50.7002 20.0523 50.5248L19.6723 49.8233Z" fill="#FFDE55"/>
</g>
<g style="mix-blend-mode:overlay" opacity="0.5">
<path d="M25.1385 61.4278C25.1385 61.4278 37.5616 61.9539 42.1508 61.8955C46.74 61.837 54.1939 61.8955 54.1939 61.8955L53.2 62.3047C53.2 62.3047 42.297 62.3047 39.3739 62.3047C36.4508 62.3047 27.9447 61.8662 27.4477 62.6262C27.259 62.9412 27.1796 63.3097 27.2219 63.6744C27.2642 64.0392 27.4258 64.3797 27.6816 64.6432C27.6816 64.6432 24.8462 61.8078 25.1385 61.4278Z" fill="#FFDE55"/>
</g>
<g style="mix-blend-mode:overlay" opacity="0.5">
<path d="M34.4047 69.7876C34.4047 69.7876 42.677 66.8645 44.7816 66.4553C46.8863 66.0461 58.1109 61.9538 58.1109 61.9538L82.7524 61.3399L82.0801 62.4799C82.0801 62.4799 76.2339 62.0415 72.5509 62.1292C66.8229 62.0535 61.0998 62.4938 55.4509 63.4445C51.4755 64.6138 35.6324 70.0507 36.7139 70.8984C36.7139 70.8984 35.077 70.1384 34.4047 69.7876Z" fill="#FFDE55"/>
</g>
<g style="mix-blend-mode:overlay" opacity="0.5">
<path d="M46.0385 72.974C46.0385 72.974 58.0816 69.5833 62.9924 68.414C67.9031 67.2448 79.4493 64.994 79.4493 64.994C79.4493 64.994 71.2062 67.4786 64.1324 69.0863C57.0585 70.694 49.6923 72.974 49.6923 72.974H46.0385Z" fill="#FFDE55"/>
</g>
<g style="mix-blend-mode:overlay" opacity="0.5">
<path d="M86.6986 53.7982C86.6986 53.7982 72.0832 52.9505 70.4462 52.9213L68.7801 54.1782C68.7801 54.1782 74.6262 53.9736 78.9232 53.9736C81.3963 54.0749 83.8536 54.4175 86.2601 54.9967L86.6986 53.7982Z" fill="#FFDE55"/>
</g>
<g style="mix-blend-mode:overlay" opacity="0.5">
<path d="M75.1815 47.1337L88.423 47.7183L88.2184 48.9752C88.2184 48.9752 82.8399 48.5075 81.4076 48.5075C79.9753 48.5075 74.4507 48.2152 74.4507 48.2152L75.1815 47.1337Z" fill="#FFDE55"/>
</g>
<g style="mix-blend-mode:overlay" opacity="0.5">
<path d="M77.5784 38.6278L89.2707 38.1309V38.8324C89.2707 38.8324 78.8938 39.1832 77.0815 39.1248C75.2692 39.0663 77.5784 38.6278 77.5784 38.6278Z" fill="#FFDE55"/>
</g>
<g style="mix-blend-mode:overlay" opacity="0.5">
<path d="M76.5553 29.7999L88.423 30.4429L88.6276 31.5537C88.6276 31.5537 79.5076 30.6475 76.3507 30.4137C73.1937 30.1799 76.5553 29.7999 76.5553 29.7999Z" fill="#FFDE55"/>
</g>
<g style="mix-blend-mode:overlay" opacity="0.5">
<path d="M86.7276 26.1168L72.9014 22.9598L68.9553 23.5737C74.9365 23.9576 80.8787 24.8079 86.7276 26.1168Z" fill="#FFDE55"/>
</g>
<g style="mix-blend-mode:overlay" opacity="0.5">
<path d="M64.8924 16.4998L72.0832 14.249L73.3985 14.3367L65.5355 17.2013L64.8924 16.4998Z" fill="#FFDE55"/>
</g>
<g opacity="0.5">
<path d="M59.6015 70.8106H47.9092C27.9738 70.8106 18.6785 53.9153 18.2692 37.8091C18.2692 38.1599 18.2692 38.4814 18.2692 38.8322C18.2692 55.2599 27.5646 72.9153 47.9385 72.9153H59.6308C80.0923 72.9153 89.3292 55.3768 89.3292 38.8322C89.3292 38.4814 89.3292 38.1599 89.3292 37.8091C88.8908 53.9737 79.5661 70.8106 59.6015 70.8106Z" fill="url(#paint1_linear_24_39428)"/>
</g>
<g style="mix-blend-mode:multiply" opacity="0.7">
<path d="M60.9461 62.7434H47.4415C30.6046 62.7434 30.1369 43.2172 30.1369 40.9664C30.1369 38.7157 30.6046 19.2188 47.4415 19.2188H60.9461C77.8123 19.2188 78.28 38.7449 78.28 40.9664C78.28 43.188 77.8123 62.7434 60.9461 62.7434Z" fill="#9E4000"/>
</g>
<g style="mix-blend-mode:multiply" opacity="0.5">
<path d="M85.7923 25.8541C74.0999 22.931 54.3692 19.2479 54.1353 19.2187V18.9849L49.6923 20.0372C41.9753 21.7618 29.8446 23.1649 22.9169 23.8956L21.163 24.071C21.163 23.691 21.4553 23.2818 21.6307 22.9018L23.3846 22.6972C30.4 21.9372 41.8584 20.5926 49.2538 18.9556C59.5138 16.6756 71.8492 13.1095 74.0415 12.5833H74.3923V12.9341L74.5969 13.6649C74.5969 13.6649 65.5061 16.2664 56.0938 18.5756C61.18 19.5695 75.2984 22.3464 84.9738 24.6556L86.7276 25.0649L87.1661 26.3218L85.7923 25.8541Z" fill="#C97B3A"/>
<path d="M45.7463 13.2845C38.6967 15.9121 31.3383 17.6215 23.8524 18.3707C24.0863 17.9615 24.3493 17.5522 24.6124 17.143C31.6902 16.3842 38.6437 14.7343 45.3078 12.2322L45.7463 13.2845Z" fill="#C97B3A"/>
<path d="M88.423 30.589H87.4877C83.863 30.3259 79.0984 30.1213 73.7492 29.9459C61.3554 29.5952 45.8631 29.449 34.1707 29.4198H19.5554C19.5554 29.0398 19.7307 28.6598 19.8477 28.309H34.96C46.3307 28.309 61.1215 28.4844 73.1646 28.8352C78.6015 28.8352 83.4538 29.1859 87.1954 29.449H88.2769C88.2769 29.6829 88.3354 30.0629 88.423 30.589Z" fill="#C97B3A"/>
<path d="M88.6277 46.5782H89.0954C89.0954 46.9582 89.0954 47.3382 89.0954 47.7182H88.54C84.6231 47.7182 80.56 47.4259 76.4385 47.1335C59.397 45.9643 41.6247 43.4505 31.0431 41.7551C27.8018 41.2789 24.5907 40.6152 21.4262 39.7674H18.5031V38.6274H18.6785L31.3939 38.3351L76.4093 37.2243L89.0954 36.932H89.4169C89.4169 37.312 89.4169 37.692 89.4169 38.0428H89.2123L76.5554 38.3351L31.2185 39.4166H27.0677H25.1385H25.5477H25.9569H26.3077H26.8046L27.8862 39.592H28.237L31.16 40.0597C41.7416 41.7259 59.5723 44.2689 76.6724 45.4382C80.6185 46.2859 84.7693 46.4905 88.6277 46.5782Z" fill="#C97B3A"/>
<path d="M88.0431 52.746C88.0431 52.9214 88.0431 53.126 87.8969 53.3306C87.7508 53.5352 87.8969 53.6814 87.8969 53.8568H86.8446L74.9184 53.1845L32.1538 50.5829L19.7892 49.8229L19.5262 48.6829L31.8615 49.4137C44.2554 50.1737 61.0923 51.1968 75.2692 52.0152L87.1954 52.6875L88.0431 52.746Z" fill="#C97B3A"/>
<path d="M85.383 60.0833C85.2076 60.4633 85.003 60.8726 84.7984 61.2526H82.7523C77.8707 61.5156 72.7553 61.6618 67.64 61.7787H58.1107L52.6153 63.7664L34.1999 69.8172L33.4984 70.0218L32.1538 71.5126L31.2184 70.8695L32.943 68.9695L48.9323 63.7372L54.4569 61.9249C49.3707 61.9249 44.4599 61.9249 39.8415 61.7787C33.9953 61.7787 28.9384 61.5741 24.8461 61.4279C24.583 61.0479 24.32 60.6679 24.0861 60.2879C27.8861 60.2879 32.68 60.551 38.1169 60.6387C47.383 60.8141 58.5784 60.9018 69.3061 60.6387C74.1 60.6387 78.8646 60.3756 83.4538 60.1418L85.383 60.0833Z" fill="#C97B3A"/>
<path d="M83.6 63.2689C83.3369 63.7074 83.0446 64.1166 82.7523 64.5259L79.8292 64.9643C77.0816 65.4028 73.9831 65.9582 70.2708 66.7182C62.4954 68.3259 52.7323 70.8982 45.3077 73.032L38.9354 74.8735C38.3208 74.6899 37.716 74.4753 37.1231 74.2305L42.4723 72.6812C50.2185 70.4305 61.3846 67.3905 70.1539 65.6659C74.4508 64.7889 78.1046 64.1459 81.1446 63.7074L83.6 63.2689Z" fill="#C97B3A"/>
</g>
<path d="M15.0539 57.8618C15.0539 57.8618 6.02157 60.1126 3.05176e-05 62.1879L8.3308 68.6187L5.61233 80.1064C5.61233 80.1064 13.6508 77.6802 21.4554 76.131L15.0539 57.8618Z" fill="url(#paint2_linear_24_39428)"/>
<path d="M15.0538 57.8618L11.1077 61.4279L18.1231 64.8187L15.0538 57.8618Z" fill="#FF6950"/>
<path d="M91.4046 58.0366C91.4046 58.0366 100.437 60.2581 106.4 62.3335L98.0693 68.7643L100.788 80.2812C100.788 80.2812 92.7492 77.8258 84.9446 76.3058L91.4046 58.0366Z" fill="url(#paint3_linear_24_39428)"/>
<path d="M91.5216 57.8618L95.497 61.4279L88.4816 64.8187L91.5216 57.8618Z" fill="#FF6950"/>
<path d="M53.4046 57.0141C53.4046 57.0141 24.1738 57.2771 11.1077 61.5448L16.1062 82.591C28.6379 80.216 41.3525 78.9347 54.1062 78.7618C66.3686 78.8986 78.5914 80.1806 90.6154 82.591L95.6138 61.5448C82.5769 57.2479 53.4046 57.0141 53.4046 57.0141Z" fill="url(#paint4_linear_24_39428)"/>
<g style="mix-blend-mode:screen" opacity="0.5">
<path d="M95.5846 61.4277C82.5769 57.16 53.4046 56.8969 53.4046 56.8969C53.4046 56.8969 24.1738 57.16 11.1077 61.4277L16.1062 82.5908C15.5215 78.7908 14.2938 66.3969 15.4631 64C16.6323 61.6031 21.1046 60.8723 22.7123 60.5216C32.9337 59.0447 43.2529 58.3509 53.58 58.4462C63.6028 58.3595 73.618 59.024 83.5415 60.4339C84.4477 60.6092 90.1477 61.8077 91.2292 64C92.3108 66.1923 91.2292 78.7908 90.5861 82.5908L95.2046 62.9477L95.5846 61.4277Z" fill="#FF6550"/>
</g>
<path d="M60.9461 59.1765H47.4415C30.6046 59.1765 30.1369 39.6504 30.1369 37.3996C30.1369 35.1488 30.6046 15.6519 47.4415 15.6519H60.9461C77.8123 15.6519 78.28 35.1781 78.28 37.3996C78.28 39.6211 77.8123 59.1765 60.9461 59.1765Z" fill="url(#paint5_linear_24_39428)"/>
<g opacity="0.5">
<path d="M61.0338 57.9488H47.5584C30.6922 57.9488 30.2245 38.9781 30.2245 36.815C30.2245 34.6519 30.6922 15.6519 47.5584 15.6519H61.0338C77.8999 15.6519 78.3676 34.6519 78.3676 36.815C78.3676 38.9781 77.8999 57.9488 61.0338 57.9488Z" fill="url(#paint6_linear_24_39428)" style="mix-blend-mode:multiply"/>
</g>
<g style="mix-blend-mode:multiply" opacity="0.2">
<path d="M75.7077 35.9096C75.5031 39.0957 74.1584 48.5665 67.3477 51.8111C63.3379 53.5008 59.0269 54.3591 54.6758 54.334C50.3246 54.3088 46.0238 53.4008 42.0338 51.6649C34.9015 47.9234 33.2646 39.0957 33.06 35.9096C33.06 36.728 31.2477 57.0142 48.6107 57.0142H60.303C77.52 56.8973 75.7661 36.728 75.7077 35.9096Z" fill="#1B8943"/>
</g>
<g style="mix-blend-mode:overlay" opacity="0.3">
<path d="M33.06 36.0555C33.2939 33.1324 33.6739 24.5386 40.5139 21.6739C44.923 20.3271 49.5298 19.7439 54.1354 19.9493C58.8771 19.7257 63.6203 20.3594 68.137 21.8201C75.2693 25.0647 75.5031 33.2786 75.7077 36.0555C75.7077 35.3539 77.52 17.6109 60.157 17.6109H48.4647C31.2477 17.6109 33.0016 35.3539 33.06 36.0555Z" fill="white"/>
</g>
<g style="mix-blend-mode:screen" opacity="0.3">
<path d="M53.3462 13.7816C63.6647 13.7816 73.5447 16.9678 73.5447 21.1186C73.5447 25.2693 63.7232 28.8063 53.4339 28.8647C43.1447 28.9232 34.7263 25.5909 34.697 21.4109C34.6678 17.2309 43.0278 13.8109 53.3462 13.7816Z" fill="white"/>
</g>
<g style="mix-blend-mode:overlay" opacity="0.5">
<path d="M42.0924 19.8322C46.0613 18.7242 50.1609 18.1539 54.2816 18.1369C58.5424 18.0138 62.7852 18.7391 66.7631 20.2707C66.7631 20.2707 58.52 19.2184 54.2524 19.2184C49.9847 19.2184 42.0924 19.8322 42.0924 19.8322Z" fill="white"/>
</g>
<path d="M36.4944 66.3451C36.5033 66.4573 36.4516 66.5178 36.3394 66.5266C36.2967 66.53 36.2215 66.5305 36.1138 66.5282C34.753 66.4473 33.7682 66.4308 33.1592 66.4787C32.7212 66.5132 32.5127 66.5269 32.5336 66.5199C32.2259 66.571 32.0782 66.674 32.0904 66.8289C32.1097 67.0746 32.3727 67.2071 32.8795 67.2263C32.9765 67.2294 33.3161 67.208 33.8983 67.1622C34.347 67.1269 34.7357 67.0802 35.0643 67.022C35.531 66.9423 35.7083 66.9068 35.5961 66.9157C35.7403 66.9043 35.8196 66.9894 35.8339 67.1711C35.8473 67.342 35.8544 67.6021 35.855 67.9514C35.861 68.3003 35.8707 68.5602 35.8841 68.7311C35.8976 68.902 35.9229 69.1554 35.9601 69.491C35.9973 69.8267 36.0224 70.0773 36.0354 70.2429C36.0451 70.3658 35.9671 70.4337 35.8016 70.4468C35.8496 70.443 35.6147 70.4292 35.0969 70.4055C34.5195 70.3757 33.8569 70.3903 33.109 70.4491C32.623 70.4874 32.3904 70.6401 32.4115 70.9072C32.4771 71.7404 32.5572 72.5188 32.6518 73.2423C32.6638 73.3274 32.6972 73.5129 32.752 73.7988C32.7923 74.0375 32.8179 74.2263 32.8288 74.3651C32.8385 74.488 32.7472 74.557 32.5549 74.5721C32.4961 74.5768 32.4181 74.5748 32.3207 74.5664C31.8509 74.5389 31.2074 74.5573 30.3901 74.6216C30.1871 74.6376 29.8809 74.6725 29.4712 74.7262C29.067 74.7796 28.7633 74.8142 28.5604 74.8302C28.3841 74.8441 28.2898 74.7736 28.2777 74.6187C28.2865 74.7308 28.2723 74.2429 28.235 73.1547C28.1696 71.3003 28.1057 69.9777 28.0435 69.1872C28.0019 68.6584 27.7881 66.8989 27.4022 63.9087L27.386 63.8052C27.3705 63.6774 27.4322 63.6081 27.5711 63.5971C27.9931 63.5639 28.6269 63.5248 29.4726 63.4797C30.3236 63.4342 30.9627 63.3946 31.39 63.3609C31.8334 63.326 32.4955 63.2363 33.3763 63.0917C34.2624 62.9467 34.9272 62.8567 35.3705 62.8218C35.6964 62.7962 35.897 62.955 35.9724 63.2985C35.9848 63.5931 36.0296 64.0249 36.1066 64.5939C36.3546 65.6278 36.4839 66.2116 36.4944 66.3451Z" fill="black" fill-opacity="0.2"/>
<path d="M36.4944 65.4678C36.5033 65.5799 36.4516 65.6405 36.3394 65.6493C36.2967 65.6526 36.2215 65.6532 36.1138 65.6509C34.753 65.5699 33.7682 65.5534 33.1592 65.6014C32.7212 65.6359 32.5127 65.6496 32.5336 65.6426C32.2259 65.6937 32.0782 65.7967 32.0904 65.9516C32.1097 66.1973 32.3727 66.3298 32.8795 66.349C32.9765 66.3521 33.3161 66.3307 33.8983 66.2849C34.347 66.2496 34.7357 66.2028 35.0643 66.1447C35.531 66.065 35.7083 66.0295 35.5961 66.0383C35.7403 66.027 35.8196 66.1121 35.8339 66.2937C35.8473 66.4647 35.8544 66.7248 35.855 67.0741C35.861 67.423 35.8707 67.6829 35.8841 67.8538C35.8976 68.0247 35.9229 68.278 35.9601 68.6137C35.9973 68.9494 36.0224 69.2 36.0354 69.3656C36.0451 69.4885 35.9671 69.5564 35.8016 69.5694C35.8496 69.5657 35.6147 69.5519 35.0969 69.5282C34.5195 69.4984 33.8569 69.5129 33.109 69.5718C32.623 69.6101 32.3904 69.7628 32.4115 70.0298C32.4771 70.8631 32.5572 71.6415 32.6518 72.365C32.6638 72.4501 32.6972 72.6356 32.752 72.9215C32.7923 73.1602 32.8179 73.3489 32.8288 73.4878C32.8385 73.6107 32.7472 73.6797 32.5549 73.6948C32.4961 73.6994 32.4181 73.6975 32.3207 73.6891C31.8509 73.6616 31.2074 73.68 30.3901 73.7443C30.1871 73.7603 29.8809 73.7952 29.4712 73.8489C29.067 73.9022 28.7633 73.9369 28.5604 73.9529C28.3841 73.9668 28.2898 73.8963 28.2777 73.7413C28.2865 73.8535 28.2723 73.3655 28.235 72.2774C28.1696 70.4229 28.1057 69.1004 28.0435 68.3099C28.0019 67.7811 27.7881 66.0216 27.4022 63.0314L27.386 62.9279C27.3705 62.8001 27.4322 62.7307 27.5711 62.7198C27.9931 62.6866 28.6269 62.6474 29.4726 62.6024C30.3236 62.5568 30.9627 62.5173 31.39 62.4836C31.8334 62.4487 32.4955 62.359 33.3763 62.2144C34.2624 62.0694 34.9272 61.9794 35.3705 61.9445C35.6964 61.9188 35.897 62.0777 35.9724 62.4211C35.9848 62.7158 36.0296 63.1476 36.1066 63.7166C36.3546 64.7505 36.4839 65.3342 36.4944 65.4678Z" fill="white"/>
<path d="M51.3741 73.4715C51.3762 73.5465 51.2701 73.587 51.0559 73.5932C50.8256 73.5997 50.4772 73.599 50.0106 73.5909C49.544 73.5828 49.1956 73.582 48.9653 73.5886C48.735 73.5952 48.3925 73.6157 47.9379 73.6501C47.4832 73.6845 47.1408 73.705 46.9105 73.7116C46.7712 73.7156 46.6886 73.6376 46.6626 73.4775C46.6627 73.4829 46.659 73.3516 46.6513 73.0838C46.6452 72.8696 46.5404 72.7654 46.3368 72.7712C45.0889 72.8069 44.3588 72.8626 44.1466 72.9383C43.9342 73.0087 43.8077 73.1785 43.7672 73.4477C43.731 73.6846 43.6487 73.8048 43.5202 73.8085C43.3006 73.8148 42.9709 73.8135 42.5311 73.8046C42.0913 73.7957 41.7616 73.7945 41.542 73.8007C41.3278 73.8068 41.0014 73.8269 40.5628 73.8609C40.1296 73.8947 39.8059 73.9147 39.5916 73.9208C39.4363 73.9252 39.3567 73.8605 39.3529 73.7266C39.3483 73.5659 40.5106 69.877 42.8397 62.6599C42.8841 62.5246 42.9247 62.443 42.9614 62.4152C42.998 62.382 43.0805 62.3635 43.2091 62.3599C43.3965 62.3545 43.673 62.3707 44.0386 62.4085C44.4096 62.4461 44.6887 62.4623 44.8762 62.4569C45.6314 62.4353 46.1579 62.3828 46.4557 62.2992C46.5193 62.276 46.5645 62.264 46.5913 62.2632C46.6824 62.2606 46.7921 62.3486 46.9205 62.5272C46.9763 62.606 47.2096 63.079 47.6203 63.9464C47.9449 64.6125 48.4079 65.6204 49.0093 66.9701C49.2975 67.6748 49.6871 68.7437 50.1784 70.1769C50.6749 71.61 51.0645 72.6736 51.347 73.3677C51.3644 73.4155 51.3734 73.4501 51.3741 73.4715ZM45.8674 68.4428C45.8553 68.0197 45.6095 67.6729 45.1301 67.4026C44.6686 67.7588 44.443 68.119 44.4534 68.4832C44.4588 68.6707 44.5332 68.8347 44.6766 68.9754C44.8251 69.1105 44.9932 69.1754 45.1806 69.17C45.3734 69.1645 45.5375 69.0901 45.6728 68.9469C45.8079 68.7983 45.8728 68.6303 45.8674 68.4428Z" fill="black" fill-opacity="0.2"/>
<path d="M51.3741 72.5944C51.3762 72.6694 51.2701 72.71 51.0559 72.7161C50.8256 72.7227 50.4772 72.7219 50.0106 72.7138C49.544 72.7057 49.1956 72.7049 48.9653 72.7115C48.735 72.7181 48.3925 72.7386 47.9379 72.773C47.4832 72.8075 47.1408 72.828 46.9105 72.8345C46.7712 72.8385 46.6886 72.7605 46.6626 72.6004C46.6627 72.6058 46.659 72.4746 46.6513 72.2068C46.6452 71.9925 46.5404 71.8883 46.3368 71.8941C45.0889 71.9298 44.3588 71.9855 44.1466 72.0613C43.9342 72.1317 43.8077 72.3014 43.7672 72.5706C43.731 72.8075 43.6487 72.9278 43.5202 72.9314C43.3006 72.9377 42.9709 72.9364 42.5311 72.9275C42.0913 72.9187 41.7616 72.9174 41.542 72.9237C41.3278 72.9298 41.0014 72.9498 40.5628 72.9838C40.1296 73.0176 39.8059 73.0376 39.5916 73.0437C39.4363 73.0482 39.3567 72.9834 39.3529 72.8495C39.3483 72.6889 40.5106 68.9999 42.8397 61.7828C42.8841 61.6475 42.9247 61.5659 42.9614 61.5381C42.998 61.5049 43.0805 61.4864 43.2091 61.4828C43.3965 61.4774 43.673 61.4936 44.0386 61.5314C44.4096 61.5691 44.6887 61.5852 44.8762 61.5799C45.6314 61.5583 46.1579 61.5057 46.4557 61.4222C46.5193 61.3989 46.5645 61.3869 46.5913 61.3861C46.6824 61.3835 46.7921 61.4715 46.9205 61.6501C46.9763 61.7289 47.2096 62.202 47.6203 63.0693C47.9449 63.7354 48.4079 64.7433 49.0093 66.093C49.2975 66.7977 49.6871 67.8666 50.1784 69.2999C50.6749 70.7329 51.0645 71.7965 51.347 72.4907C51.3644 72.5384 51.3734 72.573 51.3741 72.5944ZM45.8674 67.5657C45.8553 67.1426 45.6095 66.7959 45.1301 66.5255C44.6686 66.8817 44.443 67.242 44.4534 67.6062C44.4588 67.7936 44.5332 67.9577 44.6766 68.0983C44.8251 68.2334 44.9932 68.2983 45.1806 68.2929C45.3734 68.2874 45.5375 68.213 45.6728 68.0698C45.8079 67.9212 45.8728 67.7532 45.8674 67.5657Z" fill="white"/>
<path d="M64.1773 73.5598C64.176 73.6187 64.1031 73.6466 63.9584 73.6435C63.7227 73.6385 63.3721 73.6202 62.9065 73.5888C62.4463 73.5575 62.101 73.5394 61.8706 73.5345C61.6456 73.5296 61.3106 73.5332 60.8655 73.5451C60.4258 73.5571 60.0961 73.5607 59.8765 73.556C59.6944 73.5521 59.5753 73.4826 59.5192 73.3474C59.428 73.1043 59.2965 72.737 59.1248 72.2457C58.9575 71.8026 58.72 71.1303 58.4124 70.2287C58.3423 69.9967 58.2752 69.8801 58.2109 69.8787C58.1627 69.8777 58.1367 69.9655 58.1329 70.1423C58.1251 70.5066 58.1482 71.0537 58.2022 71.7837C58.2616 72.5139 58.2876 73.0504 58.2802 73.3932C58.2776 73.5164 58.2227 73.5769 58.1156 73.5746C58.0781 73.5738 58.0113 73.5643 57.9152 73.5462C57.4559 73.472 56.7602 73.4249 55.8281 73.405C55.6246 73.4006 55.3163 73.4047 54.9034 73.4173C54.4958 73.43 54.1902 73.4342 53.9867 73.4298C53.8099 73.426 53.7232 73.3465 53.7265 73.1911C53.7394 72.5911 53.7908 71.6919 53.8808 70.4933C53.9709 69.2894 54.0224 68.3875 54.0352 67.7875C54.0681 66.2555 54.0312 64.4754 53.9246 62.4473L53.919 62.3346C53.9106 62.2272 53.9628 62.1667 54.0756 62.1531C54.0649 62.1528 54.1667 62.155 54.3809 62.1596C54.9648 62.1721 55.8462 62.183 57.0251 62.1922C58.2039 62.2013 59.088 62.2123 59.6772 62.2249C60.9307 62.2517 61.9589 62.5391 62.7618 63.0868C63.6965 63.7339 64.1511 64.6521 64.1256 65.8413C64.1091 66.6127 63.9806 67.2316 63.7402 67.6981C63.5051 68.1646 63.083 68.6058 62.4738 69.0215C62.3433 69.1098 62.2771 69.1968 62.2753 69.2825C62.2739 69.3468 62.5909 70.061 63.2262 71.4252C63.8615 72.7893 64.1785 73.5009 64.1773 73.5598ZM59.7822 66.327C59.7952 65.7217 59.3571 65.4095 58.4678 65.3904C58.2482 65.3857 58.1312 65.7182 58.1169 66.3878C58.1151 66.4681 58.1179 66.5888 58.1252 66.7497C58.1325 66.9106 58.1352 67.0313 58.1335 67.1116C58.1318 67.192 58.2407 67.2345 58.4604 67.2392C59.3282 67.2578 59.7688 66.9538 59.7822 66.327Z" fill="black" fill-opacity="0.2"/>
<path d="M64.1773 72.6827C64.176 72.7416 64.1031 72.7696 63.9584 72.7665C63.7227 72.7614 63.3721 72.7432 62.9065 72.7117C62.4463 72.6804 62.101 72.6623 61.8706 72.6574C61.6456 72.6526 61.3106 72.6561 60.8655 72.668C60.4258 72.68 60.0961 72.6837 59.8765 72.679C59.6944 72.6751 59.5753 72.6055 59.5192 72.4703C59.428 72.2272 59.2965 71.86 59.1248 71.3686C58.9575 70.9255 58.72 70.2532 58.4124 69.3516C58.3423 69.1197 58.2752 69.003 58.2109 69.0016C58.1627 69.0006 58.1367 69.0885 58.1329 69.2652C58.1251 69.6295 58.1482 70.1766 58.2022 70.9067C58.2616 71.6368 58.2876 72.1733 58.2802 72.5161C58.2776 72.6393 58.2227 72.6998 58.1156 72.6975C58.0781 72.6967 58.0113 72.6872 57.9152 72.6691C57.4559 72.5949 56.7602 72.5479 55.8281 72.5279C55.6246 72.5235 55.3163 72.5276 54.9034 72.5402C54.4958 72.5529 54.1902 72.5571 53.9867 72.5527C53.8099 72.5489 53.7232 72.4694 53.7265 72.314C53.7394 71.7141 53.7908 70.8148 53.8808 69.6162C53.9709 68.4123 54.0224 67.5104 54.0352 66.9104C54.0681 65.3784 54.0312 63.5983 53.9246 61.5702L53.919 61.4575C53.9106 61.3502 53.9628 61.2896 54.0756 61.276C54.0649 61.2758 54.1667 61.2779 54.3809 61.2825C54.9648 61.295 55.8462 61.3059 57.0251 61.3151C58.2039 61.3243 59.088 61.3352 59.6772 61.3478C60.9307 61.3747 61.9589 61.662 62.7618 62.2098C63.6965 62.8568 64.1511 63.775 64.1256 64.9642C64.1091 65.7356 63.9806 66.3545 63.7402 66.821C63.5051 67.2876 63.083 67.7287 62.4738 68.1444C62.3433 68.2327 62.2771 68.3197 62.2753 68.4054C62.2739 68.4697 62.5909 69.1839 63.2262 70.5481C63.8615 71.9122 64.1785 72.6238 64.1773 72.6827ZM59.7822 65.4499C59.7952 64.8446 59.3571 64.5324 58.4678 64.5134C58.2482 64.5086 58.1312 64.8411 58.1169 65.5107C58.1151 65.5911 58.1179 65.7117 58.1252 65.8726C58.1325 66.0336 58.1352 66.1542 58.1335 66.2346C58.1318 66.3149 58.2407 66.3574 58.4604 66.3622C59.3282 66.3808 59.7688 66.0767 59.7822 65.4499Z" fill="white"/>
<path d="M80.1249 75.0992C80.1135 75.2542 80.0196 75.3251 79.8433 75.3121C79.6349 75.2967 79.3204 75.2627 78.8998 75.2101C78.4846 75.1579 78.1701 75.1239 77.9564 75.1081C77.748 75.0927 77.4293 75.0799 77.0002 75.0696C76.5765 75.0598 76.2605 75.0472 76.0521 75.0317C75.8864 75.0195 75.8109 74.9145 75.8255 74.7168C75.852 74.3588 75.9079 73.8203 75.9933 73.1013C76.0791 72.3769 76.1353 71.8358 76.1617 71.4778C76.1732 71.3228 76.1629 71.2441 76.1308 71.2418C76.0293 71.2343 75.6375 71.8822 74.9555 73.1857C74.2789 74.4896 73.8871 75.1376 73.7802 75.1297C73.6306 75.1186 73.3277 74.4193 72.8716 73.0316C72.4154 71.644 72.1339 70.9462 72.027 70.9383C71.995 70.9359 71.9732 71.0122 71.9618 71.1672C71.9353 71.5252 71.9112 72.0688 71.8895 72.7978C71.8683 73.5216 71.8444 74.0625 71.8179 74.4205C71.8033 74.6182 71.7158 74.7111 71.5555 74.6993C71.3418 74.6835 71.0246 74.6493 70.6041 74.5967C70.1835 74.5441 69.8664 74.5099 69.6526 74.4941C69.4442 74.4787 69.1282 74.466 68.7045 74.4562C68.2861 74.4468 67.9727 74.4343 67.7643 74.4189C67.588 74.4059 67.5055 74.3219 67.517 74.1669C67.5601 73.5845 67.6514 72.7128 67.791 71.5519C67.9309 70.3856 68.0224 69.5112 68.0655 68.9288C68.1113 68.309 68.1534 67.3772 68.1916 66.1336C68.2356 64.885 68.2805 63.9508 68.3263 63.3309C68.335 63.2134 68.4596 63.1635 68.7 63.1813C68.8764 63.1943 69.1415 63.2058 69.4953 63.2159C69.8492 63.2259 70.1143 63.2375 70.2906 63.2505C70.4883 63.2651 70.7918 63.2661 71.2011 63.2534C71.6107 63.2353 71.9144 63.2336 72.1121 63.2482C72.1602 63.2518 72.2477 63.3764 72.3746 63.6222C72.8875 64.6057 73.4296 65.7392 74.0009 67.0225C74.2036 67.4781 74.3237 67.7072 74.3611 67.71C74.4413 67.7159 74.5845 67.5223 74.7909 67.1293C75.0103 66.7049 75.3336 66.1835 75.7608 65.565C76.3734 64.6916 76.7251 64.1857 76.8159 64.0473C76.9558 63.8266 77.0739 63.7199 77.17 63.727C77.3678 63.7416 77.6689 63.7746 78.0734 63.826C78.4779 63.8774 78.7817 63.9106 78.9848 63.9256C79.1825 63.9403 79.4749 63.9458 79.862 63.9421C80.2548 63.9336 80.5501 63.9366 80.7478 63.9512C80.876 63.9607 80.9356 64.0269 80.9265 64.1498C80.8799 64.7803 80.7831 65.7268 80.636 66.9893C80.4889 68.2517 80.3919 69.2009 80.3448 69.8368C80.3018 70.4192 80.2637 71.2975 80.2306 72.4717C80.2032 73.6409 80.168 74.5168 80.1249 75.0992Z" fill="black" fill-opacity="0.2"/>
<path d="M80.1249 74.2222C80.1135 74.3771 80.0196 74.4481 79.8433 74.4351C79.6349 74.4197 79.3204 74.3857 78.8998 74.3331C78.4846 74.2809 78.1701 74.2469 77.9564 74.2311C77.748 74.2157 77.4293 74.2028 77.0002 74.1926C76.5765 74.1828 76.2605 74.1701 76.0521 74.1547C75.8864 74.1425 75.8109 74.0375 75.8255 73.8398C75.852 73.4818 75.9079 72.9433 75.9933 72.2243C76.0791 71.4999 76.1353 70.9588 76.1617 70.6007C76.1732 70.4458 76.1629 70.3671 76.1308 70.3647C76.0293 70.3572 75.6375 71.0052 74.9555 72.3087C74.2789 73.6126 73.8871 74.2606 73.7802 74.2527C73.6306 74.2416 73.3277 73.5423 72.8716 72.1546C72.4154 70.767 72.1339 70.0692 72.027 70.0613C71.995 70.0589 71.9732 70.1352 71.9618 70.2902C71.9353 70.6482 71.9112 71.1917 71.8895 71.9208C71.8683 72.6446 71.8444 73.1854 71.8179 73.5435C71.8033 73.7412 71.7158 73.8341 71.5555 73.8222C71.3418 73.8064 71.0246 73.7722 70.6041 73.7197C70.1835 73.6671 69.8664 73.6329 69.6526 73.6171C69.4442 73.6017 69.1282 73.589 68.7045 73.5792C68.2861 73.5697 67.9727 73.5573 67.7643 73.5419C67.588 73.5289 67.5055 73.4449 67.517 73.2899C67.5601 72.7075 67.6514 71.8358 67.791 70.6749C67.9309 69.5086 68.0224 68.6342 68.0655 68.0518C68.1113 67.4319 68.1534 66.5002 68.1916 65.2566C68.2356 64.008 68.2805 63.0738 68.3263 62.4539C68.335 62.3364 68.4596 62.2865 68.7 62.3042C68.8764 62.3173 69.1415 62.3288 69.4953 62.3389C69.8492 62.3489 70.1143 62.3605 70.2906 62.3735C70.4883 62.3881 70.7918 62.3891 71.2011 62.3764C71.6107 62.3583 71.9144 62.3566 72.1121 62.3712C72.1602 62.3747 72.2477 62.4994 72.3746 62.7452C72.8875 63.7287 73.4296 64.8621 74.0009 66.1455C74.2036 66.601 74.3237 66.8302 74.3611 66.833C74.4413 66.8389 74.5845 66.6453 74.7909 66.2523C75.0103 65.8279 75.3336 65.3065 75.7608 64.688C76.3734 63.8146 76.7251 63.3087 76.8159 63.1703C76.9558 62.9496 77.0739 62.8428 77.17 62.85C77.3678 62.8646 77.6689 62.8976 78.0734 62.949C78.4779 63.0004 78.7817 63.0336 78.9848 63.0486C79.1825 63.0632 79.4749 63.0687 79.862 63.0651C80.2548 63.0566 80.5501 63.0596 80.7478 63.0742C80.876 63.0837 80.9356 63.1499 80.9265 63.2728C80.8799 63.9033 80.7831 64.8498 80.636 66.1123C80.4889 67.3747 80.3919 68.3239 80.3448 68.9598C80.3018 69.5422 80.2637 70.4205 80.2306 71.5947C80.2032 72.7639 80.168 73.6397 80.1249 74.2222Z" fill="white"/>
<defs>
<filter id="filter0_d_24_39428" x="13.4446" y="6.10352e-05" width="80.9248" height="78.154" filterUnits="userSpaceOnUse" color-interpolation-filters="sRGB">
<feFlood flood-opacity="0" result="BackgroundImageFix"/>
<feColorMatrix in="SourceAlpha" type="matrix" values="0 0 0 0 0 0 0 0 0 0 0 0 0 0 0 0 0 0 127 0" result="hardAlpha"/>
<feOffset/>
<feGaussianBlur stdDeviation="2.5"/>
<feComposite in2="hardAlpha" operator="out"/>
<feColorMatrix type="matrix" values="0 0 0 0 0 0 0 0 0 0 0 0 0 0 0 0 0 0 0.35 0"/>
<feBlend mode="normal" in2="BackgroundImageFix" result="effect1_dropShadow_24_39428"/>
<feBlend mode="normal" in="SourceGraphic" in2="effect1_dropShadow_24_39428" result="shape"/>
</filter>
<linearGradient id="paint0_linear_24_39428" x1="53.8139" y1="4.48621" x2="53.8139" y2="70.2554" gradientUnits="userSpaceOnUse">
<stop stop-color="#F0CA57"/>
<stop offset="1" stop-color="#D45B1A"/>
</linearGradient>
<linearGradient id="paint1_linear_24_39428" x1="19.7308" y1="55.3476" x2="84.2723" y2="55.3476" gradientUnits="userSpaceOnUse">
<stop stop-color="#F0CA57"/>
<stop offset="0.5" stop-color="#F7C850"/>
<stop offset="1" stop-color="#FEC649"/>
</linearGradient>
<linearGradient id="paint2_linear_24_39428" x1="0.058492" y1="68.9987" x2="21.5139" y2="68.9987" gradientUnits="userSpaceOnUse">
<stop offset="0.11" stop-color="#FF6854"/>
<stop offset="0.68" stop-color="#EA2424"/>
</linearGradient>
<linearGradient id="paint3_linear_24_39428" x1="102.22" y1="69.1443" x2="87.8677" y2="69.1443" gradientUnits="userSpaceOnUse">
<stop offset="0.11" stop-color="#FF6854"/>
<stop offset="0.68" stop-color="#EA2424"/>
</linearGradient>
<linearGradient id="paint4_linear_24_39428" x1="11.2246" y1="69.7879" x2="95.9061" y2="69.7879" gradientUnits="userSpaceOnUse">
<stop stop-color="#FF6854"/>
<stop offset="0.13" stop-color="#EA2424"/>
<stop offset="0.51" stop-color="#FF6854"/>
<stop offset="0.77" stop-color="#EA2424"/>
<stop offset="1" stop-color="#FF6854"/>
</linearGradient>
<linearGradient id="paint5_linear_24_39428" x1="54.1938" y1="14.7165" x2="54.1938" y2="57.1888" gradientUnits="userSpaceOnUse">
<stop stop-color="#A2C522"/>
<stop offset="0.29" stop-color="#86A40D"/>
<stop offset="0.85" stop-color="#799C0B"/>
<stop offset="1" stop-color="#85A70E"/>
</linearGradient>
<linearGradient id="paint6_linear_24_39428" x1="54.3107" y1="14.7457" x2="54.3107" y2="56.0196" gradientUnits="userSpaceOnUse">
<stop offset="0.29" stop-color="#A2C522"/>
<stop offset="0.85" stop-color="#6F9208"/>
<stop offset="1" stop-color="#486A00"/>
</linearGradient>
</defs>
</svg>
