<svg width="42" height="45" viewBox="0 0 42 45" fill="none" xmlns="http://www.w3.org/2000/svg">
<g clip-path="url(#clip0_880_177707)">
<path d="M41.9564 21.1065C41.968 20.9844 41.968 20.8614 41.9564 20.7393C41.9564 20.372 41.9564 20.0047 41.8475 19.6591C41.6333 17.7154 41.1721 15.8064 40.4751 13.9774C40.3444 13.6101 40.1919 13.2645 40.0394 12.9188C39.0072 10.5467 37.4601 8.42971 35.5083 6.71861C35.0581 6.30891 34.5775 5.93339 34.0705 5.59523C31.2307 3.69493 27.867 2.71381 24.4419 2.78678H17.5799C13.9318 2.70896 10.3597 3.82696 7.41753 5.96742C4.47538 8.10788 2.32753 11.1512 1.30705 14.6255C1.30705 14.9927 1.06743 15.36 0.958506 15.7057C0.849585 16.0513 0.762448 16.4186 0.675311 16.7642C0.588174 17.1099 0.522822 17.4771 0.457469 17.8444C0.228644 18.9272 0.075788 20.0244 0 21.1281C0 21.6034 0 22.0571 0 22.5323C-3.20129e-06 24.1131 0.153191 25.6902 0.457469 27.2419C0.457469 27.6092 0.609958 27.9764 0.697095 28.3221C0.784232 28.6677 0.958506 29.4022 1.13278 29.9207L1.5249 31.0225C2.25293 32.9666 3.28989 34.7826 4.59647 36.4018C4.85788 36.7258 5.14108 37.0283 5.42427 37.3307C6.9882 38.9534 8.87835 40.2322 10.9723 41.0845C13.0663 41.9367 15.3174 42.3433 17.5799 42.2779H24.4419C26.7221 42.3442 28.9905 41.9297 31.0972 41.062C33.2039 40.1943 35.1009 38.8931 36.6629 37.2443C36.9678 36.9202 37.2728 36.553 37.556 36.2073C39.252 34.028 40.4824 31.5287 41.1722 28.8622C41.2811 28.4949 41.3683 28.1276 41.4336 27.782C41.8168 26.0581 42.0068 24.2976 42 22.5323C42 22.0571 41.9782 21.6034 41.9564 21.1065ZM17.5799 34.9759C16.5266 34.9955 15.4763 34.8571 14.4647 34.5655C12.7244 34.0556 11.1964 33.0025 10.1079 31.5626C9.83324 31.1993 9.58569 30.8166 9.36722 30.4176C9.00483 29.7901 8.69867 29.1323 8.45228 28.4517C8.30932 28.0912 8.1857 27.7234 8.08195 27.3499C7.6537 25.7859 7.4268 24.1745 7.40664 22.5539C7.40664 22.3379 7.40664 21.841 7.40664 21.1497C7.494 20.1216 7.6689 19.1026 7.92946 18.1036C8.01838 17.745 8.12747 17.3916 8.25622 17.0451C8.41597 16.5842 8.59025 16.1305 8.77905 15.684C8.94607 15.3132 9.1352 14.9525 9.34544 14.6039C10.1353 13.1446 11.3313 11.9412 12.7912 11.1369C14.2511 10.3326 15.9133 9.9613 17.5799 10.0671H24.4419C25.7912 10.0026 27.1371 10.2501 28.3734 10.79C29.6096 11.3299 30.7024 12.1474 31.5654 13.178C31.851 13.5126 32.113 13.8663 32.3496 14.2366C33.343 15.8873 34.0016 17.7147 34.2884 19.6159C34.3683 19.9786 34.4193 20.347 34.4409 20.7177C34.4515 20.8543 34.4515 20.9915 34.4409 21.1281C34.4409 21.8194 34.4409 22.3163 34.4409 22.5323C34.4106 24.3433 34.1171 26.1405 33.5695 27.8684C33.4617 28.2362 33.3307 28.597 33.1774 28.9486C32.5505 30.7658 31.3491 32.3338 29.7518 33.4197C28.1544 34.5057 26.2463 35.0514 24.3112 34.9759H17.5799Z" fill="#9E4000"/>
<path d="M41.39 14.1287C41.39 13.7614 41.1939 13.3942 41.085 13.0485C40.4668 10.8417 39.4801 8.75329 38.1659 6.86992C37.9045 6.48105 37.5995 6.11379 37.3163 5.76814C35.7582 3.89422 33.7873 2.39978 31.5553 1.39979C29.3233 0.399804 26.8897 -0.0790696 24.4419 1.67798e-05H17.5798C15.2423 -0.0257899 12.9235 0.415025 10.7614 1.29622C10.0591 1.58595 9.37524 1.91781 8.71364 2.28998C6.55892 3.71199 4.72192 5.558 3.31664 7.71346C1.91137 9.86892 0.967816 12.2878 0.54455 14.82C0.54455 15.1872 0.392061 15.5545 0.326708 15.9218C0.261355 16.289 0.326708 16.6131 0.174218 16.9803C0.0217288 17.3476 0.174218 17.6932 0.174218 18.0605C0.174218 18.4278 0.174218 19.3567 0.174218 20.0048C0.174218 20.6529 0.174218 20.9338 0.174218 21.409C0.28955 23.5145 0.6701 25.5974 1.307 27.6092L1.69911 28.711C1.91696 29.2727 2.15658 29.8344 2.41799 30.3745L3.00617 31.4979C4.41486 34.1322 6.53839 36.3233 9.13682 37.8236C11.7353 39.3239 14.705 40.0736 17.7105 39.988H24.5726C27.7159 40.045 30.8116 39.2213 33.5041 37.6116C34.0151 37.2908 34.5095 36.9447 34.9854 36.5747C37.3701 34.6246 39.2145 32.1042 40.3443 29.2511C40.5014 28.8912 40.6395 28.5234 40.7582 28.1493C41.5259 25.9702 41.9734 23.6929 42.0871 21.3874C42.0979 21.258 42.0979 21.128 42.0871 20.9986C42.0871 20.6529 42.0871 20.3289 42.0871 20.0048C42.0799 18.0262 41.846 16.0549 41.39 14.1287ZM34.4844 21.409C34.1646 23.4772 33.3669 25.4439 32.1535 27.1556C31.9138 27.5228 31.1296 28.5166 30.8464 28.8622C30.1359 29.8695 29.1688 30.672 28.0438 31.1881C26.9188 31.7042 25.676 31.9154 24.4419 31.8003H17.5798C16.5762 31.7237 15.591 31.4903 14.6607 31.109C13.9365 30.9714 13.252 30.6763 12.6566 30.2449L11.6981 29.7696C10.8485 29.1647 10.4782 29.64 9.93356 28.819C9.67536 28.4727 9.44933 28.104 9.25824 27.7172C8.2686 25.7548 7.67652 23.619 7.51551 21.4306C7.51551 20.7393 7.51551 20.2425 7.51551 20.0264C7.4849 19.4579 7.4849 18.8882 7.51551 18.3197C7.51551 17.9957 7.51551 17.6284 7.66799 17.2396C7.82048 16.8507 7.82048 16.3538 7.92941 15.9002C8.03833 15.4465 8.10368 15.1656 8.2126 14.7984C8.65499 12.6725 9.83411 10.7674 11.5452 9.4138C13.2564 8.06021 15.3915 7.3436 17.5798 7.3884H24.4419C26.3362 7.33324 28.1994 7.87413 29.7647 8.93358C31.33 9.99303 32.517 11.5167 33.1555 13.2861C33.308 13.6534 33.4605 14.0207 33.5694 14.3663C34.1437 16.1492 34.4591 18.0041 34.5062 19.8752V20.0048C34.5062 20.156 34.5062 20.5017 34.5062 20.977C34.5086 21.1213 34.5013 21.2657 34.4844 21.409Z" fill="url(#paint0_linear_880_177707)"/>
<g opacity="0.5">
<path d="M24.4419 38.627H17.5799C5.75108 38.627 0.152531 28.6894 0.021826 19.1839C0.0109538 19.3854 0.0109538 19.5873 0.021826 19.7888C0.021826 29.4239 5.51145 39.7936 17.6017 39.7936H24.4637C36.5322 39.7936 42.0218 29.4239 42.0218 19.7888C42.0327 19.5873 42.0327 19.3854 42.0218 19.1839C41.7604 28.6894 36.249 38.627 24.4419 38.627Z" fill="url(#paint1_linear_880_177707)"/>
</g>
<g style="mix-blend-mode:multiply" opacity="0.4">
<path d="M41.3899 13.9559H40.5186L33.7001 14.1719H32.4148C2.81006 14.9712 31.1513 15.4249 8.95322 15.5977H7.95114H0.958403H0.32666C0.32666 15.2305 0.457366 14.8632 0.544502 14.5175H1.30695H8.23434H9.45425C31.7831 14.4095 2.17832 13.9559 31.5652 13.1781H33.2208L40.0175 12.9621H41.0196C41.1285 13.2213 41.2157 13.5886 41.3899 13.9559Z" fill="#C97B3A"/>
<path d="M42 19.6592C42 19.9833 42 20.3073 42 20.653H34.4409C5.53319 20.4585 30.9118 18.7951 8.03838 18.0822H7.53734L0.457469 17.8445H0C0 17.4989 0 17.1316 0 16.7859H0.675311L7.68983 17.0236H8.36514C31.3693 17.7149 5.48963 19.4432 34.2884 19.6376H42V19.6592Z" fill="#C97B3A"/>
<path d="M41.3901 27.7821C41.3901 28.1278 41.2158 28.495 41.1287 28.8623H40.1702H33.2646H31.6308C26.4679 28.8623 40.3445 28.8623 40.1702 28.8623C27.0996 28.8623 28.9077 28.495 9.89009 28.279H8.4959H1.56852H0.697146L0.45752 27.1988H1.1764H8.14735H9.25835C32.1318 27.4581 2.72308 27.9766 32.4368 27.7389H33.7003H40.6276L41.3901 27.7821Z" fill="#C97B3A"/>
</g>
<g style="mix-blend-mode:overlay" opacity="0.5">
<path d="M33.9836 14.3447L41.3031 14.1286L41.5427 15.2952L33.8965 14.8847L33.9836 14.3447Z" fill="#FFDE55"/>
</g>
<g style="mix-blend-mode:overlay" opacity="0.5">
<path d="M35.0731 20.9769H41.9351C41.9001 22.7043 41.6663 24.4221 41.238 26.0969C41.238 26.0969 41.6955 22.4891 40.236 21.9706C38.0793 21.5891 35.8913 21.4083 33.7007 21.4305L35.0731 20.9769Z" fill="#FFDE55"/>
</g>
<g style="mix-blend-mode:overlay" opacity="0.5">
<path d="M30.8899 29.2943H41.172L40.976 30.0288C39.058 29.8349 37.1311 29.7412 35.2032 29.748C30.0185 29.6183 25.8359 29.5967 25.8359 29.5967L30.8899 29.2943Z" fill="#FFDE55"/>
</g>
<g style="mix-blend-mode:multiply" opacity="0.7">
<path d="M25.2261 35.5939H17.2313C7.27587 35.5939 6.99268 22.4558 6.99268 21.138C6.99268 19.8202 7.27587 6.70369 17.2313 6.70369H25.2261C35.2033 6.70369 35.4865 19.8418 35.4865 21.138C35.4865 22.4342 35.2033 35.5939 25.2261 35.5939Z" fill="#9E4000"/>
</g>
<g style="mix-blend-mode:multiply" opacity="0.2">
<path d="M33.9838 21.4802C33.8531 23.3381 33.047 28.8902 29.017 30.8129C26.6398 31.7953 24.0873 32.292 21.5121 32.2735C18.9369 32.2549 16.3919 31.7214 14.0294 30.7048C9.80327 28.5229 8.84476 23.3381 8.71406 21.4802C8.71406 21.9554 7.66841 33.8589 17.9288 33.8589H24.769C35.0294 33.8589 34.0055 21.9554 33.9838 21.4802Z" fill="#1B8943"/>
</g>
<path d="M27.2686 17.5586C27.2686 18.9746 26.8486 20.2295 26.0088 21.3232C25.9014 21.4502 25.1006 22.251 23.6064 23.7256C22.708 24.5947 22.2197 25.4492 22.1416 26.2891C22.1221 26.5039 22.1025 26.7188 22.083 26.9336C22.0439 27.0996 21.9023 27.2266 21.6582 27.3145C21.375 27.4121 21.1553 27.4609 20.999 27.4609C20.501 27.4609 20.208 27.4463 20.1201 27.417C19.8857 27.3291 19.7686 27.0947 19.7686 26.7139C19.7686 25.542 19.9688 24.6094 20.3691 23.916C21.0137 23.0762 21.6533 22.2314 22.2881 21.3818C23.0498 20.3662 23.4307 19.3945 23.4307 18.4668C23.4307 17.5586 23.167 16.8262 22.6396 16.2695C22.1221 15.7129 21.4141 15.4346 20.5156 15.4346C19.793 15.4346 18.9873 15.6885 18.0986 16.1963C17.2197 16.7041 16.7998 16.958 16.8389 16.958C16.5361 16.958 16.3848 16.0205 16.3848 14.1455C16.3848 14.0088 16.5312 13.8379 16.8242 13.6328C18.3574 12.5684 19.9688 12.0361 21.6582 12.0361C23.3086 12.0361 24.6562 12.5439 25.7012 13.5596C26.7461 14.5752 27.2686 15.9082 27.2686 17.5586ZM23.0938 30.8447C23.0938 31.3916 22.9131 31.8701 22.5518 32.2803C22.1904 32.6904 21.7412 32.8955 21.2041 32.8955C20.6768 32.8955 20.2324 32.6904 19.8711 32.2803C19.5195 31.8701 19.3438 31.3916 19.3438 30.8447C19.3438 30.2979 19.5195 29.8291 19.8711 29.4385C20.2227 29.0381 20.667 28.8379 21.2041 28.8379C21.751 28.8379 22.2002 29.0381 22.5518 29.4385C22.9131 29.8291 23.0938 30.2979 23.0938 30.8447Z" fill="#9E300A"/>
<path d="M27.2686 16.7253C27.2686 18.1413 26.8486 19.3962 26.0088 20.4899C25.9014 20.6169 25.1006 21.4176 23.6064 22.8923C22.708 23.7614 22.2197 24.6159 22.1416 25.4557C22.1221 25.6706 22.1025 25.8854 22.083 26.1003C22.0439 26.2663 21.9023 26.3932 21.6582 26.4811C21.375 26.5788 21.1553 26.6276 20.999 26.6276C20.501 26.6276 20.208 26.613 20.1201 26.5837C19.8857 26.4958 19.7686 26.2614 19.7686 25.8805C19.7686 24.7087 19.9688 23.776 20.3691 23.0827C21.0137 22.2428 21.6533 21.3981 22.2881 20.5485C23.0498 19.5329 23.4307 18.5612 23.4307 17.6335C23.4307 16.7253 23.167 15.9928 22.6396 15.4362C22.1221 14.8796 21.4141 14.6012 20.5156 14.6012C19.793 14.6012 18.9873 14.8551 18.0986 15.363C17.2197 15.8708 16.7998 16.1247 16.8389 16.1247C16.5361 16.1247 16.3848 15.1872 16.3848 13.3122C16.3848 13.1755 16.5312 13.0046 16.8242 12.7995C18.3574 11.735 19.9688 11.2028 21.6582 11.2028C23.3086 11.2028 24.6562 11.7106 25.7012 12.7262C26.7461 13.7419 27.2686 15.0749 27.2686 16.7253ZM23.0938 30.0114C23.0938 30.5583 22.9131 31.0368 22.5518 31.4469C22.1904 31.8571 21.7412 32.0622 21.2041 32.0622C20.6768 32.0622 20.2324 31.8571 19.8711 31.4469C19.5195 31.0368 19.3438 30.5583 19.3438 30.0114C19.3438 29.4645 19.5195 28.9958 19.8711 28.6051C20.2227 28.2048 20.667 28.0046 21.2041 28.0046C21.751 28.0046 22.2002 28.2048 22.5518 28.6051C22.9131 28.9958 23.0938 29.4645 23.0938 30.0114Z" fill="url(#paint2_linear_880_177707)"/>
</g>
<defs>
<linearGradient id="paint0_linear_880_177707" x1="20.9999" y1="-0.324035" x2="20.9999" y2="38.3029" gradientUnits="userSpaceOnUse">
<stop stop-color="#F0CA57"/>
<stop offset="1" stop-color="#D45B1A"/>
</linearGradient>
<linearGradient id="paint1_linear_880_177707" x1="0.827842" y1="29.5535" x2="39.0374" y2="29.5535" gradientUnits="userSpaceOnUse">
<stop stop-color="#F0CA57"/>
<stop offset="0.5" stop-color="#F7C850"/>
<stop offset="1" stop-color="#FEC649"/>
</linearGradient>
<linearGradient id="paint2_linear_880_177707" x1="21" y1="11.6667" x2="21" y2="30" gradientUnits="userSpaceOnUse">
<stop stop-color="#EAB24A"/>
<stop offset="1" stop-color="#D76721"/>
</linearGradient>
<clipPath id="clip0_880_177707">
<rect width="42" height="45" fill="white"/>
</clipPath>
</defs>
</svg>
