<svg width="48" height="52" viewBox="0 0 48 52" fill="none" xmlns="http://www.w3.org/2000/svg">
<g clip-path="url(#clip0_73_5591)">
<g style="mix-blend-mode:multiply" opacity="0.5">
<path d="M47.9528 27.4656C47.9528 27.3242 47.9528 27.1827 47.9293 27.0177C47.9057 26.5933 47.8585 26.1925 47.8114 25.7682C47.5521 23.5285 47.0334 21.336 46.2318 19.2377C46.0668 18.8369 45.9018 18.4126 45.7367 18.0118C44.5344 15.277 42.8134 12.8252 40.5972 10.8684C40.0786 10.3969 39.5363 9.97251 38.947 9.5953C36.0236 7.56779 32.3694 6.34186 27.9371 6.34186H20.0864C10.1375 6.36543 4.10216 12.4951 1.50884 20.0157C1.36739 20.4165 1.22593 20.8409 1.10805 21.2652C0.990177 21.666 0.872299 22.0668 0.777996 22.4912C0.683694 22.892 0.589391 23.3163 0.518664 23.7171C0.282908 24.9666 0.117878 26.2397 0.0471513 27.4892C0.0235756 28.0314 0 28.5737 0 29.1159C0 30.9077 0.165029 32.7466 0.518664 34.5383C0.589391 34.9627 0.683694 35.3635 0.777996 35.7878C0.91945 36.4008 1.10805 37.0138 1.29666 37.6267C1.43811 38.0511 1.57957 38.4755 1.7446 38.8998C4.47937 46.114 10.444 51.8664 20.0864 51.8664H27.9371C34.0196 51.8664 38.6405 49.5796 41.8939 46.0904C42.2475 45.7132 42.6012 45.3124 42.9312 44.888C44.8644 42.4362 46.2554 39.5128 47.057 36.4244C47.1748 36 47.2692 35.5992 47.3635 35.1749C47.7878 33.1945 48 31.1434 48 29.1395C48 28.5973 48 28.055 47.9528 27.5128V27.4656ZM38.5226 35.2456C38.4047 35.6464 38.2397 36.0707 38.0747 36.4951C36.6365 40.0314 33.7367 43.4499 27.9371 43.4499H20.0864C15.9843 43.4499 13.3202 41.7289 11.5992 39.4656C11.2927 39.0413 11.0098 38.6169 10.7505 38.169C10.3261 37.4145 9.97249 36.6601 9.68959 35.8821C9.54813 35.4578 9.40668 35.057 9.2888 34.6326C8.55796 32.0157 8.48723 29.6582 8.48723 29.0923C8.48723 28.833 8.48723 28.2672 8.55796 27.4892C8.65226 26.5462 8.81729 25.2967 9.14735 23.9764C9.26523 23.5756 9.35953 23.1513 9.50098 22.7505C9.66601 22.2318 9.87819 21.7132 10.1139 21.1945C10.3026 20.7701 10.5147 20.3458 10.7505 19.945C12.4008 17.1159 15.2063 14.7584 20.0393 14.7584H27.89C31.7564 14.7584 34.3261 16.2672 36.0471 18.3183C36.3772 18.6955 36.6601 19.1199 36.943 19.5442C38.2161 21.5717 38.8527 23.9057 39.1827 25.7682C39.2534 26.2161 39.3242 26.6405 39.3477 27.0177C39.3477 27.1827 39.3949 27.3477 39.3949 27.5128C39.4656 28.3144 39.4656 28.8802 39.4656 29.1395C39.4656 29.7525 39.4185 32.4401 38.4754 35.2927L38.5226 35.2456Z" fill="#58129B"/>
</g>
<path d="M47.9528 24.4715C47.9528 24.4715 47.9528 24.3772 47.9528 24.3065C47.9528 24.165 47.9528 24.0236 47.9528 23.8821C47.9293 23.4813 47.8821 23.057 47.835 22.6326C47.5756 20.3929 47.057 18.2004 46.2554 16.1022C46.0904 15.6778 45.9253 15.277 45.7603 14.8762C44.558 12.165 42.8369 9.6896 40.6208 7.73282C40.1022 7.26131 39.5599 6.83695 38.9705 6.43616C36.0472 4.40866 32.3929 3.2063 27.9371 3.2063H20.0864C15.2063 3.2063 11.2692 4.69156 8.20432 7.0727C5.04519 9.54815 2.82908 13.0138 1.50884 16.8566C1.36739 17.2574 1.24951 17.6817 1.10805 18.1061C0.990177 18.5069 0.872299 18.9077 0.777996 19.332C0.683694 19.7328 0.589391 20.1572 0.518664 20.558C0.282908 21.8075 0.117878 23.0806 0.0471513 24.3301C0.0471513 24.3772 0.0471513 24.4008 0.0471513 24.4244C0.0235756 24.9195 0 25.4381 0 25.9332C0 27.7485 0.165029 29.5639 0.518664 31.3556C0.589391 31.78 0.683694 32.2043 0.777996 32.6051C0.91945 33.2181 1.10805 33.8311 1.29666 34.444C1.43811 34.8684 1.57957 35.2927 1.7446 35.7171C2.59332 37.9568 3.74853 40.0786 5.25737 41.9175C5.56385 42.2947 5.87033 42.6483 6.20039 43.002C6.4833 43.3085 6.78978 43.6149 7.09627 43.8978C10.279 46.8212 14.5697 48.6837 20.0629 48.6837H27.9136C33.9961 48.6837 38.6169 46.3969 41.8703 42.9077C42.224 42.5069 42.5776 42.1061 42.9077 41.7053C44.8644 39.2534 46.2318 36.3301 47.0334 33.2417C47.1513 32.8173 47.2456 32.4165 47.3399 31.9922C47.7642 30.0118 47.9764 27.9607 47.9764 25.9568C47.9764 25.4617 47.9764 24.9666 47.9293 24.4715H47.9528ZM20.0864 11.5992H27.9371C31.8035 11.5992 34.3733 13.1081 36.0943 15.1591C36.4244 15.5364 36.7073 15.9607 36.9902 16.3851C38.2633 18.4126 38.8998 20.7466 39.2299 22.609C39.3006 23.057 39.3713 23.4813 39.3949 23.8586C39.3949 24.0236 39.4185 24.1886 39.442 24.3536C39.5128 25.1316 39.5128 25.721 39.5128 25.9568C39.5128 26.5698 39.4656 29.2338 38.5226 32.11C38.4047 32.5344 38.2397 32.9352 38.0747 33.3595C36.6365 36.8723 33.7367 40.2908 27.9371 40.2908H20.0864C18.7662 40.2908 17.5874 40.1257 16.5501 39.7957C14.3576 39.112 12.778 37.8389 11.6228 36.3065C11.5049 36.165 11.4106 36.0236 11.3163 35.8821C11.1277 35.5992 10.9391 35.3163 10.7741 35.0334C10.3497 34.279 9.99607 33.5246 9.71316 32.7466C9.57171 32.3222 9.43026 31.8978 9.31238 31.4971C8.55796 28.8566 8.5108 26.5462 8.5108 25.9568C8.5108 25.6975 8.51081 25.1316 8.58153 24.3536C8.67583 23.4106 8.84086 22.1847 9.1945 20.8409C9.31238 20.4401 9.40668 20.0393 9.54813 19.6149C9.71316 19.0963 9.92534 18.5776 10.1611 18.0589C10.3497 17.6346 10.5619 17.2338 10.7976 16.8094C11.5049 15.5835 12.4244 14.4519 13.6503 13.556C15.2534 12.3772 17.3281 11.5992 20.0864 11.5992Z" fill="#9E4000"/>
<path d="M47.1984 16.2672C47.1041 15.8428 46.9862 15.4421 46.8684 15.0177C46.1375 12.448 45.0295 10.0432 43.5206 7.89785C43.2141 7.44992 42.8841 7.02556 42.554 6.62477C39.2534 2.64049 34.4204 -0.0235596 27.9136 -0.0235596H20.0629C17.1395 -0.0235596 14.5462 0.51868 12.2829 1.48528C11.4813 1.81534 10.7269 2.19255 10.0196 2.64049C8.58153 3.51279 7.30845 4.57369 6.20039 5.77605C3.32417 8.84088 1.48527 12.8723 0.612967 17.0924C0.518664 17.5167 0.447937 17.9411 0.37721 18.3654C0.306483 18.7662 0.259332 19.167 0.212181 19.5678C0.165029 19.9922 0.117878 20.4165 0.0943025 20.8173C0.0471513 21.5481 0 22.3026 0 23.0334C0 23.5049 0 23.9764 0.0471513 24.448C0.0471513 24.5187 0.0471513 24.5894 0.0471513 24.6601C0.165029 27.0884 0.612967 29.5167 1.34381 31.8271C1.48527 32.2515 1.62672 32.6758 1.79175 33.1002C2.05108 33.7603 2.31041 34.3969 2.6169 35.0098C2.82908 35.4578 3.06483 35.8821 3.30059 36.3065C4.52652 38.499 6.10609 40.4794 8.06287 42.0354C11.1277 44.5344 15.112 46.0904 20.0864 46.0904H27.9371C31.9686 46.0904 35.3635 45.0766 38.1454 43.332C38.7348 42.9784 39.3006 42.5776 39.8193 42.1297C42.5776 39.9371 44.6051 36.9902 45.9489 33.6896C46.1139 33.2652 46.279 32.8409 46.4204 32.4165C47.2927 29.9175 47.7878 27.277 47.9293 24.613C47.9293 24.5658 47.9293 24.5187 47.9293 24.448C47.9293 24.3536 47.9293 24.2593 47.9293 24.165C47.9293 23.7878 47.9528 23.387 47.9528 23.0098V22.9155C47.9528 20.6994 47.6935 18.4362 47.1513 16.2436L47.1984 16.2672Z" fill="url(#paint0_linear_73_5591)"/>
<g opacity="0.5">
<path d="M27.9136 44.5108H20.0629C6.5776 44.5108 0.282908 33.0531 0 22.1847C0 22.4204 0 22.6562 0 22.892C0 33.9725 6.2947 45.9254 20.0864 45.9254H27.9371C41.7289 45.9254 48 33.9725 48 22.892C48 22.6562 48 22.4204 48 22.1847C47.7407 33.0766 41.446 44.5108 27.9371 44.5108H27.9136Z" fill="url(#paint1_linear_73_5591)"/>
</g>
<g style="mix-blend-mode:multiply" opacity="0.4">
<path d="M47.1983 16.0786C46.8683 16.0786 46.5382 16.1022 46.2081 16.1257C43.8506 16.22 41.2337 16.2908 38.4282 16.3851C37.9331 16.3851 37.438 16.4086 36.9429 16.4322C3.11187 17.3517 35.5048 17.8939 10.1374 18.0825C9.7602 18.0825 9.40656 18.0825 9.05293 18.0825C5.56373 18.1061 2.85253 18.1297 1.08436 18.1297C0.825028 18.1297 0.589272 18.1297 0.353516 18.1297C0.424243 17.7289 0.494969 17.3045 0.589272 16.8801C0.848604 16.8801 1.15509 16.8801 1.48515 16.8801C3.32405 16.8801 6.01167 16.8566 9.40656 16.833C9.8545 16.833 10.326 16.833 10.7975 16.833C36.3299 16.6444 2.38102 16.1257 36.0706 15.2063C36.7071 15.2063 37.3437 15.1827 37.9802 15.1591C40.7622 15.0648 43.3791 14.9941 45.7366 14.9234C46.1374 14.9234 46.5146 14.8998 46.8918 14.8762C47.0097 15.277 47.1276 15.7014 47.2219 16.1022L47.1983 16.0786Z" fill="#C97B3A"/>
<path d="M47.9999 22.6326V22.7269C47.9999 23.1041 47.9999 23.4813 47.9764 23.8585H47.9292C47.5048 23.8585 47.0569 23.8585 46.609 23.8585C44.44 23.8585 42.0589 23.8585 39.4656 23.8349H39.3713C6.34178 23.552 35.3398 21.6188 9.19444 20.8173C9.00583 20.8173 8.81723 20.8173 8.62862 20.8173C5.13943 20.7229 2.38108 20.6286 0.5186 20.5579C0.377146 20.5579 0.235692 20.5579 0.0942383 20.5579C0.117814 20.1571 0.164965 19.7328 0.212116 19.3084C0.400722 19.3084 0.589327 19.3084 0.777932 19.3084C2.64041 19.3791 5.35161 19.4499 8.77007 19.5677C9.02941 19.5677 9.28874 19.5677 9.54807 19.5913C35.8349 20.3929 6.27106 22.3025 39.1826 22.609C39.277 22.609 39.3948 22.609 39.4891 22.609C42.554 22.6326 45.3359 22.6326 47.8113 22.6326H47.9999Z" fill="#C97B3A"/>
<path d="M47.3398 31.9921C47.2455 32.4165 47.1512 32.8408 47.0333 33.2416C46.6797 33.2416 46.3024 33.2416 45.9488 33.2416C43.5205 33.2888 40.88 33.3124 38.051 33.3359C37.438 33.3359 36.825 33.3359 36.1885 33.3359C30.2946 33.3831 46.1846 33.4067 45.9488 33.4067C30.9311 33.4067 33.0529 32.9587 11.3398 32.723C10.774 32.723 10.2317 32.723 9.68948 32.723C6.43604 32.6758 3.77199 32.6522 1.79164 32.6287C1.438 32.6287 1.10795 32.6287 0.777887 32.6287L0.518555 31.3792C0.777887 31.3792 1.06079 31.3792 1.3437 31.3792C3.2769 31.4027 5.96453 31.4263 9.28869 31.4735C9.71305 31.4735 10.1374 31.4735 10.5618 31.4735C36.6836 31.7564 3.04115 32.3693 37.0608 32.0864C37.5559 32.0864 38.0274 32.0864 38.4989 32.0864C41.3516 32.0628 44.0156 32.0157 46.4203 31.9921C46.7268 31.9921 47.0333 31.9921 47.3398 31.9921Z" fill="#C97B3A"/>
</g>
<g style="mix-blend-mode:overlay" opacity="0.5">
<path d="M38.8292 16.5265L47.1985 16.2672L47.4814 17.6346L38.7349 17.1631L38.8292 16.5265Z" fill="#FFDE55"/>
</g>
<g style="mix-blend-mode:overlay" opacity="0.5">
<path d="M40.0785 24.165L47.9292 24.2122C47.9292 24.2122 47.9527 26.8055 47.1276 30.1297C47.1276 30.1297 47.6463 25.9568 45.996 25.3674C44.3457 24.778 38.4753 24.7544 38.4753 24.7544L40.0785 24.1886V24.165Z" fill="#FFDE55"/>
</g>
<g style="mix-blend-mode:overlay" opacity="0.5">
<path d="M35.2927 33.7603L47.057 33.6896L46.8212 34.5383C46.8212 34.5383 45.6896 34.3261 40.2436 34.2082C34.3261 34.0668 29.5403 34.0432 29.5403 34.0432L35.3163 33.7603H35.2927Z" fill="#FFDE55"/>
</g>
<g style="mix-blend-mode:multiply" opacity="0.8">
<path d="M28.6914 37.8389H19.5677C8.18065 37.8389 7.85059 24.613 7.85059 23.1277C7.85059 21.6425 8.18065 8.39294 19.5677 8.39294H28.6914C40.0785 8.39294 40.4085 21.6189 40.4085 23.1277C40.4085 24.6366 40.0785 37.8389 28.6914 37.8389Z" fill="#9E4000"/>
</g>
<g style="mix-blend-mode:multiply" opacity="0.8">
<path fill-rule="evenodd" clip-rule="evenodd" d="M40.2948 25.1266C39.8701 21.0098 37.8826 12.3929 28.6915 12.3929H19.5677C10.3831 12.3929 8.39191 21.0127 7.96525 25.1266C7.86293 24.1415 7.85059 23.415 7.85059 23.1277C7.85059 21.6425 8.18065 8.39294 19.5677 8.39294H28.6915C40.0785 8.39294 40.4085 21.6189 40.4085 23.1277C40.4085 23.4187 40.3963 24.1445 40.2948 25.1266Z" fill="#9E4000"/>
</g>
<g filter="url(#filter0_d_73_5591)">
<path d="M28.8167 20.3016C28.8167 21.5235 28.4543 22.6064 27.7296 23.5502C27.6369 23.6597 26.9459 24.3507 25.6565 25.6232C24.8813 26.3732 24.4599 27.1106 24.3925 27.8353C24.3756 28.0207 24.3588 28.2061 24.3419 28.3915C24.3082 28.5347 24.186 28.6443 23.9754 28.7201C23.731 28.8044 23.5414 28.8465 23.4065 28.8465C22.9768 28.8465 22.724 28.8339 22.6481 28.8086C22.4459 28.7328 22.3447 28.5305 22.3447 28.2019C22.3447 27.1906 22.5175 26.3859 22.863 25.7875C23.4192 25.0628 23.9712 24.3339 24.5189 23.6007C25.1762 22.7243 25.5049 21.8859 25.5049 21.0853C25.5049 20.3016 25.2773 19.6696 24.8223 19.1892C24.3756 18.7089 23.7647 18.4687 22.9894 18.4687C22.3658 18.4687 21.6706 18.6878 20.9037 19.126C20.1453 19.5642 19.783 19.7833 19.8167 19.7833C19.5554 19.7833 19.4248 18.9743 19.4248 17.3564C19.4248 17.2384 19.5512 17.0909 19.804 16.9139C21.1271 15.9954 22.5175 15.5361 23.9754 15.5361C25.3995 15.5361 26.5624 15.9743 27.4641 16.8507C28.3658 17.7271 28.8167 18.8774 28.8167 20.3016ZM25.2141 31.7665C25.2141 32.2384 25.0582 32.6513 24.7464 33.0052C24.4346 33.3592 24.047 33.5361 23.5835 33.5361C23.1285 33.5361 22.745 33.3592 22.4332 33.0052C22.1299 32.6513 21.9782 32.2384 21.9782 31.7665C21.9782 31.2946 22.1299 30.8901 22.4332 30.553C22.7366 30.2075 23.12 30.0347 23.5835 30.0347C24.0554 30.0347 24.4431 30.2075 24.7464 30.553C25.0582 30.8901 25.2141 31.2946 25.2141 31.7665Z" fill="white"/>
</g>
</g>
<defs>
<filter id="filter0_d_73_5591" x="19.4248" y="15.5361" width="9.39185" height="19.5" filterUnits="userSpaceOnUse" color-interpolation-filters="sRGB">
<feFlood flood-opacity="0" result="BackgroundImageFix"/>
<feColorMatrix in="SourceAlpha" type="matrix" values="0 0 0 0 0 0 0 0 0 0 0 0 0 0 0 0 0 0 127 0" result="hardAlpha"/>
<feOffset dy="1.5"/>
<feComposite in2="hardAlpha" operator="out"/>
<feColorMatrix type="matrix" values="0 0 0 0 0.415686 0 0 0 0 0.12549 0 0 0 0 0.027451 0 0 0 1 0"/>
<feBlend mode="normal" in2="BackgroundImageFix" result="effect1_dropShadow_73_5591"/>
<feBlend mode="normal" in="SourceGraphic" in2="effect1_dropShadow_73_5591" result="shape"/>
</filter>
<linearGradient id="paint0_linear_73_5591" x1="24" y1="-0.353618" x2="24" y2="44.1336" gradientUnits="userSpaceOnUse">
<stop stop-color="#F0CA57"/>
<stop offset="1" stop-color="#D45B1A"/>
</linearGradient>
<linearGradient id="paint1_linear_73_5591" x1="0.943026" y1="34.0432" x2="44.5815" y2="34.0432" gradientUnits="userSpaceOnUse">
<stop stop-color="#F0CA57"/>
<stop offset="0.5" stop-color="#F7C850"/>
<stop offset="1" stop-color="#FEC649"/>
</linearGradient>
<clipPath id="clip0_73_5591">
<rect width="48" height="51.8664" fill="white"/>
</clipPath>
</defs>
</svg>
