<svg width="46" height="46" viewBox="0 0 46 46" fill="none" xmlns="http://www.w3.org/2000/svg">
<g clip-path="url(#clip0_38_12225)">
<path d="M25.3062 45.8603C25.3062 45.8603 22.4345 46.6868 16.7322 42.8742C11.03 39.0617 7.16691 31.6903 7.36757 29.9375C7.56956 28.1847 17.6 26.3269 17.6 26.3269C17.6 26.3269 14.8479 21.3981 14.7416 19.4366C14.6353 17.4752 16.9356 16.8201 16.9356 16.8201C16.9356 16.8201 12.2791 9.38892 12.1064 5.9285C11.9336 2.46808 19.3143 0.436208 20.1129 0.284714C20.9103 0.131892 25.3062 45.8616 25.3062 45.8616V45.8603Z" fill="#FFE09E"/>
<path d="M37.8782 31.4379C37.8782 31.4379 37.1899 32.004 36.5533 32.5834H36.5493C36.5188 32.6099 36.4895 32.6379 36.459 32.6644C36.059 33.0299 35.6922 33.39 35.55 33.6C35.368 33.8684 35.6364 34.1674 35.9912 34.4491C36.0138 34.4677 36.0364 34.4837 36.0603 34.5023C36.3022 34.6857 36.5746 34.8624 36.7633 35.0126C34.9985 39.6982 31.9222 44.4277 26.9654 45.8098C16.2333 47.0005 7.68457 31.4339 8.12045 30.1223C8.25334 29.7223 9.2314 29.2638 10.5271 28.8107C13.4812 27.7701 18.0805 26.7549 18.0007 26.525C17.8891 26.1914 15.1157 21.2865 15.1901 19.4221L21.598 18.1105L28.0325 16.9344C28.7993 18.6367 28.0617 24.222 28.079 24.5728C28.0883 24.8041 32.3102 24.1117 35.4131 23.923C36.9958 23.8273 38.2875 23.8605 38.5905 24.2193C38.9493 24.6406 38.8244 27.7157 37.8782 31.4405V31.4379Z" fill="url(#paint0_radial_38_12225)"/>
<path d="M15.2705 20.1795C15.2705 20.1795 22.2538 38.0996 25.7089 37.6451C28.8823 37.2265 28.1846 17.4088 28.1846 17.4088L15.2705 20.1809V20.1795Z" fill="url(#paint1_linear_38_12225)"/>
<path d="M15.2945 19.0273C16.4373 15.5762 26.4386 14.3881 27.8804 16.5356C30.2113 20.0067 13.7809 23.596 15.2945 19.0273Z" fill="url(#paint2_linear_38_12225)"/>
<path d="M18.235 18.6658C18.8463 16.82 24.1978 16.1835 24.9685 17.333C26.215 19.1907 17.4244 21.111 18.235 18.6658Z" fill="url(#paint3_linear_38_12225)"/>
<path d="M18.6276 19.3423C18.6276 19.3423 12.8151 9.21351 13.231 5.29462C13.328 4.383 22.9758 -0.165782 23.6389 0.615604C25.8196 3.187 25.098 17.6865 25.098 17.6865C25.098 17.6865 22.5173 20.6247 18.6276 19.3423Z" fill="url(#paint4_linear_38_12225)"/>
<path d="M13.2353 4.69794C12.6054 6.92516 18.6704 6.08132 21.2152 4.35775C23.7601 2.63418 23.8092 1.49798 23.6391 0.6156C23.2763 -1.25813 14.1549 1.44483 13.2353 4.69794Z" fill="#BB6334"/>
<g style="mix-blend-mode:multiply" opacity="0.8">
<path d="M18.0015 26.5222C18.0015 26.5222 22.8573 37.3912 25.5044 37.4284C27.4406 37.4563 28.0785 24.5688 28.0785 24.5688C28.0785 24.5688 28.0692 38.8596 26.2406 40.3453C25.745 40.7493 24.6154 39.338 21.2812 35.0205C16.565 28.9142 18.0015 26.5209 18.0015 26.5209V26.5222Z" fill="#904F98"/>
</g>
<g style="mix-blend-mode:multiply" opacity="0.5">
<path d="M36.0603 34.501C36.3022 34.6844 36.5746 34.8611 36.7633 35.0113C34.9985 39.6969 31.9222 44.4264 26.9654 45.8085C16.2333 46.9992 7.68457 31.4326 8.12045 30.121C8.25334 29.721 9.2314 29.2625 10.5271 28.8094C7.44405 30.3296 16.5748 46.0105 26.6744 44.8916C27.1515 44.8384 27.6086 44.7454 28.0431 44.6191C29.7335 44.1314 31.1315 43.1241 32.2836 41.8112C32.3182 41.77 32.3341 41.7501 32.3354 41.7541C34.0524 39.7581 35.2165 37.0817 35.9925 34.4492C36.0151 34.4678 36.0377 34.4837 36.0616 34.5023L36.0603 34.501Z" fill="#AB7CA2"/>
</g>
<g style="mix-blend-mode:multiply" opacity="0.5">
<path d="M37.878 31.4379C37.878 31.4379 37.1896 32.004 36.5531 32.5834H36.5491C36.5186 32.61 36.4893 32.6379 36.4588 32.6645C38.8308 29.7755 37.3491 26.7257 37.3518 26.6393C37.3677 26.3987 37.3717 26.238 37.3744 26.1516C37.3783 26.0918 37.3783 26.0333 37.3797 25.9788C37.3797 25.9403 37.3797 25.9203 37.3797 25.9243C37.393 25.3064 37.3611 24.9263 37.3106 24.8665C36.9385 24.4134 35.5006 23.947 35.4089 23.9217C36.9916 23.826 38.2833 23.8592 38.5863 24.218C38.9451 24.6393 38.8202 27.7143 37.874 31.4392L37.878 31.4379Z" fill="#AB7CA2"/>
</g>
<path d="M28.0789 24.5701C28.0789 24.5701 28.3313 25.2279 29.1606 25.9522C29.9898 26.6777 35.9087 25.7276 36.9253 25.2598C37.9419 24.7921 38.5917 24.2153 38.5917 24.2153C38.5917 24.2153 38.2635 23.5894 34.314 24.0014C30.3645 24.4147 28.0802 24.5688 28.0802 24.5688L28.0789 24.5701Z" fill="url(#paint5_linear_38_12225)"/>
<path d="M18.001 26.5223C18.001 26.5223 18.1498 28.1834 17.6076 28.6206C17.0655 29.0578 8.52337 30.2924 8.11939 30.1196C7.71541 29.9469 10.4662 28.5276 12.7732 27.8605C15.0801 27.1921 18.001 26.5223 18.001 26.5223Z" fill="url(#paint6_linear_38_12225)"/>
<g style="mix-blend-mode:multiply" opacity="0.2">
<path d="M15.6221 21.3874C15.6168 20.4943 19.3576 20.8345 21.2007 22.978C23.0426 25.1215 26.2399 37.5493 25.5024 37.4297C22.1522 36.8915 17.5317 25.3767 15.6221 21.3874Z" fill="#904F98"/>
</g>
<g style="mix-blend-mode:soft-light" opacity="0.2">
<path d="M37.3804 25.8765C37.3804 25.8765 37.3804 25.8925 37.3804 25.923C37.3804 25.9191 37.3804 25.939 37.3804 25.9775C37.3778 26.0214 37.3764 26.0798 37.3751 26.1503C37.3725 26.2367 37.3392 26.9131 37.3379 26.921C37.2688 28.1144 37.0721 30.218 36.5525 32.5821H36.5486C36.518 32.6087 36.4888 32.6366 36.4582 32.6632C36.0582 33.0286 35.6914 33.3887 35.5492 33.5987C35.3672 33.8671 35.6356 34.1661 35.9904 34.4479C36.013 34.4665 36.0356 34.4824 36.0595 34.501C35.318 37.0684 34.1552 39.7315 32.3333 41.7527C32.3333 41.7488 32.3174 41.7674 32.2815 41.8099C31.144 43.0551 29.7473 44.0544 28.041 44.6178C26.1832 44.1208 27.9334 28.0386 28.546 26.9968C29.1586 25.9549 37.3778 26.0293 37.3791 25.8779L37.3804 25.8765Z" fill="#C5CFEA"/>
</g>
<path d="M14.5804 2.89208C14.5804 2.89208 19.1199 1.94458 21.1438 2.35919C23.1677 2.77381 24.0248 10.7604 23.2328 14.9212C22.3358 19.6374 17.1359 15.8142 15.7459 13.7305L16.3479 14.9982C16.3479 14.9982 19.3365 17.6693 21.5358 17.7849C23.7351 17.9005 25.1969 13.8275 24.7212 8.7033C24.2454 3.57911 23.7617 3.07679 23.2953 2.43228C22.8275 1.78777 19.3179 1.9087 17.2116 2.19973C15.1053 2.48942 14.5791 2.89341 14.5791 2.89341L14.5804 2.89208Z" fill="url(#paint7_linear_38_12225)"/>
<path d="M13.6207 3.91527C13.6207 3.91527 19.7575 1.83689 20.9469 4.53055C22.1362 7.2242 23.109 14.2965 19.9143 14.8042C16.7197 15.3118 15.0759 12.2261 15.0759 12.2261L14.6918 11.3026C14.6918 11.3026 16.6665 15.3092 19.9834 14.3962C23.3003 13.4833 21.82 6.46142 20.2785 4.74317C18.7369 3.02359 13.3523 4.3857 13.3523 4.3857L13.6221 3.91527H13.6207Z" fill="url(#paint8_linear_38_12225)"/>
<g style="mix-blend-mode:multiply">
<path d="M15.7979 3.46878C15.067 3.69602 18.1739 3.36645 19.6995 4.30997C21.225 5.25348 21.92 9.5099 21.92 9.5099C21.92 9.5099 21.6197 4.99301 20.4729 3.87675C19.3274 2.76048 15.7979 3.46878 15.7979 3.46878Z" fill="#DB9090"/>
</g>
<g style="mix-blend-mode:multiply">
<path d="M20.4447 1.96446C20.3264 1.96579 21.5969 1.65616 22.5457 3.76112C23.4945 5.86608 23.8918 10.7099 23.735 12.3152C23.5782 13.9205 25.0559 9.10059 24.2254 5.45013C23.3948 1.79968 22.0221 1.89935 20.4434 1.96446H20.4447Z" fill="#DB9090"/>
</g>
<g style="mix-blend-mode:multiply">
<path d="M16.9427 14.189C16.9427 14.189 18.746 15.4288 20.4177 14.4029C22.0895 13.3783 21.9592 11.1139 21.9592 11.1139C21.9592 11.1139 21.9924 13.1391 20.3207 13.9059C18.649 14.6727 15.8477 12.9438 15.8105 12.9026C15.7733 12.8614 16.0988 13.5019 16.9413 14.189H16.9427Z" fill="#DB9090"/>
</g>
<g style="mix-blend-mode:multiply">
<path d="M16.5536 14.7019C16.5536 14.7019 19.7017 17.8075 21.6366 16.7497C23.5728 15.6919 23.5169 11.9139 23.5169 11.9139C23.5169 11.9139 24.208 16.6753 21.8638 17.2042C19.5197 17.7318 17.2499 15.4421 16.5522 14.7019H16.5536Z" fill="#DB9090"/>
</g>
<g style="mix-blend-mode:multiply" opacity="0.2">
<path d="M15.7318 6.38567C14.4348 6.37504 15.191 13.5112 19.0899 13.773C22.9875 14.0348 20.9052 6.71258 20.4068 6.04548C19.9085 5.37971 17.0713 6.3963 15.7318 6.38567Z" fill="#AB4077"/>
</g>
<g style="mix-blend-mode:multiply" opacity="0.2">
<path d="M21.5542 4.42019C21.311 4.68862 22.3874 8.57562 22.0419 11.5351C21.6964 14.4945 22.0286 14.9848 22.4552 15.1284C22.8818 15.2719 24.0512 10.9689 23.2871 7.55636C22.523 4.14245 22.301 3.83282 21.9914 4.04145C21.6818 4.24876 21.5542 4.42151 21.5542 4.42151V4.42019Z" fill="#AB4077"/>
</g>
<g style="mix-blend-mode:multiply" opacity="0.2">
<path d="M21.6524 19.5668C21.3495 19.297 24.0936 16.3655 24.5375 15.0805C24.9826 13.7955 25.3428 16.4333 24.6305 17.6652C23.9182 18.897 21.6524 19.5668 21.6524 19.5668Z" fill="#AB4077"/>
</g>
<g style="mix-blend-mode:soft-light" opacity="0.5">
<path d="M14.8515 5.91656C12.7372 5.81157 16.1246 3.88602 18.2548 4.15046C20.385 4.41491 18.696 6.10659 14.8515 5.91656Z" fill="#FFD6A1"/>
</g>
<g style="mix-blend-mode:soft-light" opacity="0.5">
<path d="M18.0381 2.51861C17.2633 2.69535 20.4899 3.17508 20.8846 3.87408C21.2779 4.57307 22.2188 3.83687 21.7696 2.91595C21.3204 1.9937 19.4401 2.19835 18.0394 2.51861H18.0381Z" fill="#FFD6A1"/>
</g>
<g style="mix-blend-mode:soft-light" opacity="0.5">
<path d="M16.5227 1.80892C15.7387 2.25276 22.116 1.68666 22.8402 2.00028C23.5658 2.31389 23.6416 1.13251 23.3904 0.527868C23.1392 -0.0767761 19.91 -0.108669 16.5227 1.80892Z" fill="#FFD6A1"/>
</g>
<path d="M22.4321 2.07993C22.2647 2.05468 23.6666 2.99421 23.6666 2.99421C23.6666 2.99421 23.5178 2.18359 23.47 1.98159C23.4221 1.78093 22.4321 2.0786 22.4321 2.0786V2.07993Z" fill="#923B3F"/>
<path d="M20.2398 3.69467C20.1548 3.76776 21.1395 5.01426 21.1395 5.01426C21.1395 5.01426 21.2896 4.55845 21.1661 4.26211C21.0425 3.96576 20.2398 3.69467 20.2398 3.69467Z" fill="#923B3F"/>
<g style="mix-blend-mode:multiply" opacity="0.3">
<path d="M18.462 8.61286C18.5537 9.88195 19.0653 11.0806 19.67 10.8108C20.3929 10.4879 21.3337 10.3976 21.1464 9.20156C21.1131 8.99159 21.0866 8.771 21.052 8.54908C20.8979 7.50457 20.6799 6.4295 19.7151 6.47734C19.7151 6.47734 18.5431 6.43747 18.454 7.90988C18.4381 8.13978 18.4421 8.37898 18.4607 8.61286H18.462Z" fill="#A72A6F"/>
</g>
<g style="mix-blend-mode:multiply" opacity="0.5">
<path d="M18.4621 8.61295L18.4993 8.77242C18.4993 8.77242 18.4489 7.98838 18.7625 7.42759C19.0761 6.87078 19.5332 6.49338 20.1485 6.92394C20.7598 7.35716 21.0535 8.54784 21.0535 8.54784C20.8993 7.50333 20.6814 6.42826 19.7166 6.4761C19.7166 6.4761 18.5445 6.43624 18.4555 7.90864C18.4395 8.13854 18.4435 8.37774 18.4621 8.61163V8.61295Z" fill="#A72A6F"/>
</g>
<g style="mix-blend-mode:soft-light" opacity="0.3">
<path d="M19.3868 21.1523C18.1602 20.8745 22.3502 19.8912 24.9455 18.4281C27.5409 16.9649 27.687 17.0473 27.9355 17.2267C28.184 17.4061 27.6405 20.1157 19.3868 21.1509V21.1523Z" fill="#F6F4EA"/>
</g>
<path d="M26.0337 18.0678C25.7932 17.9748 24.9918 19.1549 25.0437 20.3097C25.0942 21.4552 25.631 22.1342 25.7759 22.105C25.9207 22.0758 27.7984 18.7562 26.035 18.0692L26.0337 18.0678Z" fill="#433D5D"/>
<g style="mix-blend-mode:multiply">
<path d="M26.0333 18.0678C25.6586 18.1715 25.0991 19.0578 25.3037 20.0173C25.5071 20.9714 26.2951 20.3548 26.6459 19.5827C26.9994 18.8053 26.3031 17.9921 26.0333 18.0678Z" fill="#AB6393"/>
</g>
<path d="M25.0435 20.3084C25.102 19.9789 26.0402 21.1363 26.0721 21.3675C26.104 21.5974 25.7864 22.0559 25.7027 22.0812C25.619 22.1064 24.9 21.123 25.0435 20.3098V20.3084Z" fill="#867E98"/>
<path d="M25.3277 21.5866C25.3543 21.5521 25.741 21.9149 25.7689 21.9733C25.7968 22.0318 25.7743 22.1022 25.7743 22.1022C25.7743 22.1022 25.7623 22.1434 25.6068 22.0066C25.4527 21.8684 25.3264 21.5866 25.3264 21.5866H25.3277Z" fill="#65637D"/>
<path d="M10.5006 30.2724C10.5153 30.3813 11.9079 30.3109 12.9272 29.9548C13.9385 29.6026 14.3305 29.2199 14.2454 29.18C14.1591 29.1388 10.397 29.4684 10.5006 30.2724Z" fill="#433D5D"/>
<g style="mix-blend-mode:multiply">
<path d="M10.5012 30.2724C10.7484 30.3708 11.777 30.303 12.5583 29.9508C13.3344 29.6027 12.4573 29.5136 11.6175 29.6186C10.7723 29.7249 10.3245 30.2007 10.5025 30.2711L10.5012 30.2724Z" fill="#AB6393"/>
</g>
<path d="M12.9295 29.9547C12.6093 30.0318 13.2671 29.3713 13.4624 29.2929C13.6578 29.2145 14.1999 29.1893 14.2571 29.2106C14.3142 29.2318 13.7229 29.766 12.9295 29.9547Z" fill="#867E98"/>
<path d="M13.9641 29.4844C13.9216 29.4844 14.0903 29.2479 14.1315 29.22C14.1727 29.1934 14.2458 29.1801 14.2458 29.1801C14.2458 29.1801 14.2883 29.1721 14.2272 29.2651C14.1661 29.3582 13.9628 29.4844 13.9628 29.4844H13.9641Z" fill="#65637D"/>
<g style="mix-blend-mode:soft-light" opacity="0.2">
<path d="M12.3285 30.1382C11.0288 30.6711 9.96306 35.8351 16.6567 39.1441C20.6726 41.1294 20.4307 37.261 20.3709 35.479C20.3111 33.697 17.3264 29.6983 17.1789 29.4179C17.0314 29.1375 12.3285 30.1369 12.3285 30.1369V30.1382Z" fill="#C5CFEA"/>
</g>
<g style="mix-blend-mode:soft-light" opacity="0.2">
<path d="M19.3142 40.065C18.7428 40.7015 21.1454 41.4816 21.3222 41.6318C21.4989 41.7819 21.6172 38.9647 21.5388 37.4192C21.4604 35.8737 19.9149 39.3952 19.3129 40.065H19.3142Z" fill="#C5CFEA"/>
</g>
<path d="M36.7618 35.0111C36.6502 34.3919 35.8635 33.5467 35.8781 33.2184C35.8781 33.2184 35.223 33.8802 35.3293 34.3028C35.4356 34.7254 36.2874 35.3991 36.7618 35.0111Z" fill="#7D7588"/>
<path d="M35.3293 34.3043C35.3293 34.3043 35.3573 33.5614 36.0562 32.3429C36.7552 31.1243 37.8768 31.4379 37.8768 31.4379C37.8768 31.4379 36.6263 31.9854 35.3293 34.3043Z" fill="#3C3657"/>
<g style="mix-blend-mode:soft-light" opacity="0.2">
<path d="M29.1131 33.1362C29.2101 34.897 30.2559 34.8451 30.244 33.2598C30.232 31.6744 29.0639 32.2618 29.1131 33.1362Z" fill="#C5CFEA"/>
<path d="M30.7254 34.2178C30.1181 36.4504 34.0596 35.0457 34.1287 32.1647C34.1978 29.2837 31.0484 33.0285 30.7254 34.2178Z" fill="#C5CFEA"/>
<path d="M22.7063 39.7393C22.0139 42.9738 24.2504 43.2781 25.2923 43.7047C26.3341 44.1299 24.4112 39.3645 23.6391 38.8914C22.8657 38.4183 22.7063 39.7406 22.7063 39.7406V39.7393Z" fill="#C5CFEA"/>
<path d="M22.6954 21.4911C22.2914 21.3661 23.4237 27.6757 24.0456 28.4611C24.6675 29.2464 24.8044 23.2399 24.629 21.3143C24.4535 19.3888 22.6954 21.4911 22.6954 21.4911Z" fill="#C5CFEA"/>
<path d="M24.8916 25.5123C24.2166 29.8444 26.5129 36.2829 27.4351 27.8033C27.8777 23.7382 25.1813 23.6465 24.8916 25.5123Z" fill="#C5CFEA"/>
</g>
<g style="mix-blend-mode:multiply" opacity="0.3">
<path d="M13.6682 35.6172C14.1891 36.7919 15.4449 37.5175 16.4562 36.7042C17.6655 35.7315 19.3306 34.792 18.6608 33.7754C18.5412 33.5973 18.4323 33.4033 18.3087 33.2132C17.7399 32.3176 17.0449 31.4498 15.3253 32.3681C15.3253 32.3681 13.2058 33.3873 13.4596 34.9275C13.4955 35.1694 13.5685 35.4032 13.6682 35.6172Z" fill="#B08EA7"/>
</g>
<g style="mix-blend-mode:multiply">
<path d="M13.6686 35.6172L13.7789 35.7421C13.7789 35.7421 13.3178 34.9395 13.7244 34.1009C14.131 33.2664 15.2207 32.7282 16.4486 32.5993C17.6699 32.4757 18.3104 33.2132 18.3104 33.2132C17.7416 32.3176 17.0466 31.4498 15.327 32.3681C15.327 32.3681 13.2075 33.3873 13.4613 34.9275C13.4972 35.1694 13.5703 35.4032 13.6699 35.6172H13.6686Z" fill="#B08EA7"/>
</g>
<g style="mix-blend-mode:multiply" opacity="0.3">
<path d="M27.988 40.5833C28.0266 41.4749 28.3628 42.2258 28.7947 41.9015C29.3103 41.5135 29.976 41.2464 29.8684 40.4278C29.8485 40.2842 29.8352 40.1314 29.8152 39.9786C29.7289 39.2623 29.596 38.5368 28.9156 38.7786C28.9156 38.7786 28.0903 39.0019 27.9973 40.0796C27.9814 40.2484 27.9787 40.4185 27.988 40.5833Z" fill="#B08EA7"/>
</g>
<g style="mix-blend-mode:multiply">
<path d="M27.9882 40.5833L28.0107 40.6896C28.0107 40.6896 27.9921 40.1381 28.2247 39.6676C28.4573 39.1999 28.8652 39.0138 29.2905 39.1906C29.713 39.37 29.8167 39.9786 29.8167 39.9786C29.7303 39.2623 29.5974 38.5368 28.917 38.7786C28.917 38.7786 28.0918 39.0019 27.9988 40.0796C27.9828 40.2484 27.9802 40.4185 27.9895 40.5833H27.9882Z" fill="#B08EA7"/>
</g>
<path d="M34.7407 25.7966C34.7407 25.7966 35.7175 25.3607 36.8736 24.9209C38.0297 24.481 38.4324 24.3468 38.4324 24.3468C38.4324 24.3468 38.055 25.1215 37.2005 25.5401C36.3473 25.9587 34.7407 25.7966 34.7407 25.7966Z" fill="#605B76"/>
<path d="M14.2957 29.3634C14.2957 29.3634 15.7149 28.8119 16.0485 28.7548C16.382 28.699 17.6099 28.6205 17.6099 28.6205C17.6099 28.6205 16.8006 29.1322 16.0232 29.3554C15.2471 29.5773 14.2957 29.3634 14.2957 29.3634Z" fill="#605B76"/>
<path d="M15.6951 20.5543C15.6951 20.5543 18.2558 20.464 19.0731 20.541C19.8904 20.6181 21.0306 20.9583 21.0306 20.9583C21.0306 20.9583 19.7256 21.5909 18.0339 21.6188C16.3409 21.6453 15.6951 20.5557 15.6951 20.5557V20.5543Z" fill="#605B76"/>
<g style="mix-blend-mode:multiply">
<path d="M22.989 19.3077C22.989 19.3077 21.2561 20.2061 18.6542 19.9815C16.0522 19.7569 15.8715 19.1496 15.9486 18.5583C16.0256 17.9669 17.3492 16.9795 17.3492 16.9795L16.8376 15.9802C16.8376 15.9802 18.0814 18.8546 20.0522 19.2254C21.5232 19.5018 22.9903 19.3077 22.9903 19.3077H22.989Z" fill="#9A88A9"/>
</g>
<g style="mix-blend-mode:multiply" opacity="0.2">
<path d="M18.9344 21.5602C17.6587 21.8339 18.0268 23.9442 19.5484 27.0604C21.0713 30.178 23.4021 31.362 23.927 31.4444C24.452 31.5268 22.9051 26.4132 22.1211 24.283C21.337 22.1528 18.9331 21.5588 18.9331 21.5588L18.9344 21.5602Z" fill="#904F98"/>
</g>
<path d="M32.7778 29.5295C31.8954 29.8046 33.7732 30.376 34.2914 30.3867C34.8097 30.3973 33.4556 29.3196 32.7778 29.5295Z" fill="#312857"/>
<path d="M32.5746 29.6398C32.2756 30.7003 34.0417 30.3587 34.0417 30.3587C34.0417 30.3587 32.4098 30.0637 32.5746 29.6398Z" fill="#9998A9"/>
<path d="M30.0473 27.8684C26.5164 27.0459 33.101 28.9488 35.0399 29.4551C36.9774 29.9614 32.7609 28.501 30.0473 27.8684Z" fill="#312857"/>
<path d="M34.1199 29.2067C34.1199 29.2067 26.811 27.7329 29.195 27.6838L34.1199 29.2067Z" fill="#9998A9"/>
<path d="M35.5406 34.6576C35.3825 34.3932 36.2569 35.1081 36.2569 35.1081C36.2569 35.1081 35.7519 35.0125 35.5406 34.6576Z" fill="#9998A9"/>
<path d="M32.7146 26.0838C32.7146 26.0838 33.1438 25.7582 34.6016 25.0884C36.0594 24.4187 37.8321 24.5609 37.8321 24.5609L34.7385 25.7967L32.7146 26.0838Z" fill="#ADACBA"/>
<g style="mix-blend-mode:soft-light" opacity="0.5">
<path d="M37.3128 31.3009C37.3128 31.3009 36.5606 31.3847 36.0238 31.6664C35.4882 31.9481 34.8676 34.2125 34.8278 34.4212C34.7892 34.6298 35.2969 35.4391 35.3075 35.7859C35.3195 36.1328 32.6072 40.9686 31.4351 42.2563C30.263 43.5427 25.7874 44.9473 25.7874 44.9473C25.7874 44.9473 27.786 44.95 30.1408 43.6224C32.4956 42.2948 34.4809 38.7268 34.9447 37.5972C35.4072 36.4677 35.7567 35.2066 35.7567 35.2066C35.7567 35.2066 35.374 35.1454 35.3288 34.3056C35.2836 33.4657 35.6131 32.7375 36.2138 32.1049C36.8158 31.471 37.3115 31.3036 37.3115 31.3036L37.3128 31.3009Z" fill="#D9D6C6"/>
</g>
<g style="mix-blend-mode:soft-light" opacity="0.5">
<path d="M11.7933 35.16C11.7933 35.16 14.669 38.9261 16.4046 40.2922C18.1401 41.6583 20.0617 42.9832 21.7361 43.8403C23.4118 44.6974 25.9181 44.9047 25.9181 44.9047C25.9181 44.9047 18.4099 46.0462 11.792 35.1613L11.7933 35.16Z" fill="#D9D6C6"/>
</g>
<g style="mix-blend-mode:multiply" opacity="0.5">
<path d="M10.7476 35.5176C10.7476 35.5176 13.9395 39.7501 17.885 42.0012C21.8305 44.2524 25.756 45.0165 26.2105 45.1746C26.665 45.3328 26.9653 45.8072 26.9653 45.8072C26.9653 45.8072 20.0219 48.2802 10.7489 35.5163L10.7476 35.5176Z" fill="#8D4D81"/>
</g>
<g style="mix-blend-mode:multiply" opacity="0.5">
<path d="M35.918 32.7681C35.918 32.7681 35.9512 32.8797 36.5293 32.485C37.1073 32.0903 37.8781 31.4378 37.8781 31.4378C37.8781 31.4378 37.1937 31.3408 36.5372 31.798C35.8808 32.2551 35.9193 32.7681 35.9193 32.7681H35.918Z" fill="#8D4D81"/>
</g>
<path d="M16.835 15.9801L18.2941 18.7455C18.2941 18.7455 16.8496 16.7363 16.0895 15.1642C15.3281 13.5908 15.2058 12.8519 15.2058 12.8519L16.8364 15.9801H16.835Z" fill="#FF9FDB"/>
<path d="M8.32435 29.9441C8.15558 30.0557 9.99476 30.0837 10.8492 29.7474C11.7037 29.4112 13.3356 29.192 14.2273 29.2651C15.119 29.3381 15.8419 28.7574 16.493 28.7056C17.1442 28.6538 17.6066 28.6219 17.6066 28.6219C17.6066 28.6219 16.3442 28.5368 15.5269 28.6126C14.7097 28.6883 12.5569 29.4112 10.8479 29.5601C9.14029 29.7089 9.71569 29.1029 8.32302 29.9454L8.32435 29.9441Z" fill="#ADACBA"/>
<path d="M23.0831 20.5103C21.9801 20.6511 23.5309 19.3488 24.218 18.9595C24.905 18.5701 25.4432 18.4399 25.4432 18.4399C25.4432 18.4399 24.905 19.8007 24.812 19.9468C24.719 20.093 23.418 20.4691 23.0831 20.5116V20.5103Z" fill="#B7B6C2"/>
</g>
<defs>
<radialGradient id="paint0_radial_38_12225" cx="0" cy="0" r="1" gradientUnits="userSpaceOnUse" gradientTransform="translate(30.7374 26.6782) rotate(-10.96) scale(21.0456)">
<stop stop-color="#5E5F7C"/>
<stop offset="0.32" stop-color="#5C5C79"/>
<stop offset="0.54" stop-color="#565370"/>
<stop offset="0.72" stop-color="#4C4462"/>
<stop offset="0.88" stop-color="#3E2F4E"/>
<stop offset="0.94" stop-color="#392746"/>
<stop offset="1" stop-color="#884A9C"/>
</radialGradient>
<linearGradient id="paint1_linear_38_12225" x1="19.1722" y1="29.4903" x2="31.1498" y2="24.4149" gradientUnits="userSpaceOnUse">
<stop stop-color="#8B64A2"/>
<stop offset="0.14" stop-color="#392746"/>
<stop offset="0.18" stop-color="#3E2F4D"/>
<stop offset="0.33" stop-color="#4C4461"/>
<stop offset="0.5" stop-color="#56536F"/>
<stop offset="0.7" stop-color="#5C5C77"/>
<stop offset="1" stop-color="#5E5F7A"/>
</linearGradient>
<linearGradient id="paint2_linear_38_12225" x1="22.1033" y1="20.7633" x2="21.1316" y2="15.7456" gradientUnits="userSpaceOnUse">
<stop stop-color="#8D8BA6"/>
<stop offset="0.33" stop-color="#8A88A1"/>
<stop offset="0.69" stop-color="#838294"/>
<stop offset="1" stop-color="#7A7B83"/>
</linearGradient>
<linearGradient id="paint3_linear_38_12225" x1="21.8772" y1="19.5969" x2="21.3572" y2="16.9119" gradientUnits="userSpaceOnUse">
<stop stop-color="#1D2048"/>
<stop offset="0.4" stop-color="#1E1136"/>
<stop offset="1" stop-color="#2A1036"/>
</linearGradient>
<linearGradient id="paint4_linear_38_12225" x1="21.7633" y1="19.5514" x2="18.2628" y2="1.47551" gradientUnits="userSpaceOnUse">
<stop stop-color="#681C48"/>
<stop offset="0.01" stop-color="#681D47"/>
<stop offset="0.39" stop-color="#803636"/>
<stop offset="0.73" stop-color="#8E452C"/>
<stop offset="1" stop-color="#934B29"/>
</linearGradient>
<linearGradient id="paint5_linear_38_12225" x1="28.3113" y1="25.789" x2="38.5098" y2="23.814" gradientUnits="userSpaceOnUse">
<stop stop-color="#8D8BA6"/>
<stop offset="0.33" stop-color="#8A88A1"/>
<stop offset="0.69" stop-color="#838294"/>
<stop offset="1" stop-color="#7A7B83"/>
</linearGradient>
<linearGradient id="paint6_linear_38_12225" x1="7.97154" y1="29.5423" x2="18.1987" y2="27.5618" gradientUnits="userSpaceOnUse">
<stop stop-color="#8D8BA6"/>
<stop offset="0.33" stop-color="#8A88A1"/>
<stop offset="0.69" stop-color="#838294"/>
<stop offset="1" stop-color="#7A7B83"/>
</linearGradient>
<linearGradient id="paint7_linear_38_12225" x1="21.6361" y1="17.8218" x2="18.5555" y2="1.91419" gradientUnits="userSpaceOnUse">
<stop stop-color="#934B29"/>
<stop offset="0.27" stop-color="#8E452C"/>
<stop offset="0.61" stop-color="#803636"/>
<stop offset="0.99" stop-color="#681D47"/>
<stop offset="1" stop-color="#681C48"/>
</linearGradient>
<linearGradient id="paint8_linear_38_12225" x1="19.3113" y1="14.9261" x2="17.0271" y2="3.13077" gradientUnits="userSpaceOnUse">
<stop stop-color="#934B29"/>
<stop offset="0.27" stop-color="#8E452C"/>
<stop offset="0.61" stop-color="#803636"/>
<stop offset="0.99" stop-color="#681D47"/>
<stop offset="1" stop-color="#681C48"/>
</linearGradient>
<clipPath id="clip0_38_12225">
<rect width="46" height="46" fill="white"/>
</clipPath>
</defs>
</svg>
