<svg width="430" height="86" viewBox="0 0 430 86" fill="none" xmlns="http://www.w3.org/2000/svg">
<path d="M3.52316 86.9003L2.14252 27.1926C2.14225 24.5613 2.66508 21.9562 3.68058 19.5287C4.69608 17.1013 6.184 14.8999 8.05787 13.0526C9.93174 11.2053 12.1542 9.74899 14.5959 8.76826C17.0376 7.78753 19.6499 7.30199 22.2809 7.33985L403.339 7.33988C405.974 7.29886 408.59 7.7819 411.035 8.76092C413.481 9.73994 415.708 11.1954 417.586 13.0427C419.465 14.89 420.957 17.0922 421.976 19.5214C422.996 21.9505 423.523 24.5582 423.525 27.1926L423.525 86.9003L3.52316 86.9003Z" fill="url(#paint0_linear_27_7240)"/>
<path style="mix-blend-mode:multiply" opacity="0.7" d="M422 88L422 27.3911C421.967 24.8896 420.911 22.5011 419.06 20.7433C417.209 18.9855 414.713 17.9998 412.111 18L17.889 18C15.2875 17.9998 12.7908 18.9854 10.9398 20.7433C9.08875 22.5011 8.03254 24.8896 8.00001 27.3911L8 88L422 88Z" fill="url(#paint1_linear_27_7240)"/>
<path d="M7.89362 56.9999L7.89362 24.639C7.89362 16.4354 13.3786 7.95996 22.56 7.95996L404.268 7.96C413.307 7.96 422.13 16.2089 422.13 24.639L422.13 56.9999L430 56.9999L430 26.112C430 13.5121 417.718 1.99997 404.268 1.99997L22.5123 1.99994C9.87299 1.99994 3.88107e-06 12.6056 2.70031e-06 26.112L0 56.9999L7.89362 56.9999Z" fill="#DB6D22"/>
<path d="M6.64331 70.1158V72.0808C6.84374 72.1564 7.06922 72.232 7.26965 72.3075V70.0654L6.64331 70.141V70.1158ZM6.64331 57.0581V59.0232C6.84374 59.0987 7.06922 59.1743 7.26965 59.2247V56.9826L6.64331 57.0581ZM6.64331 70.1158V72.0808C6.84374 72.1564 7.06922 72.232 7.26965 72.3075V70.0654L6.64331 70.141V70.1158ZM6.64331 57.0581V59.0232C6.84374 59.0987 7.06922 59.1743 7.26965 59.2247V56.9826L6.64331 57.0581ZM6.64331 70.1158V72.0808C6.84374 72.1564 7.06922 72.232 7.26965 72.3075V70.0654L6.64331 70.141V70.1158ZM6.64331 57.0581V59.0232C6.84374 59.0987 7.06922 59.1743 7.26965 59.2247V56.9826L6.64331 57.0581ZM6.64331 70.1158V72.0808C6.84374 72.1564 7.06922 72.232 7.26965 72.3075V70.0654L6.64331 70.141V70.1158ZM6.64331 57.0581V59.0232C6.84374 59.0987 7.06922 59.1743 7.26965 59.2247V56.9826L6.64331 57.0581ZM6.64331 70.1158V72.0808C6.84374 72.1564 7.06922 72.232 7.26965 72.3075V70.0654L6.64331 70.141V70.1158ZM6.64331 57.0581V59.0232C6.84374 59.0987 7.06922 59.1743 7.26965 59.2247V56.9826L6.64331 57.0581ZM6.64331 70.1158V72.0808C6.84374 72.1564 7.06922 72.232 7.26965 72.3075V70.0654L6.64331 70.141V70.1158ZM6.64331 57.0581V59.0232C6.84374 59.0987 7.06922 59.1743 7.26965 59.2247V56.9826L6.64331 57.0581ZM6.64331 70.1158V72.0808C6.84374 72.1564 7.06922 72.232 7.26965 72.3075V70.0654L6.64331 70.141V70.1158ZM6.64331 57.0581V59.0232C6.84374 59.0987 7.06922 59.1743 7.26965 59.2247V56.9826L6.64331 57.0581ZM6.64331 70.1158V72.0808C6.84374 72.1564 7.06922 72.232 7.26965 72.3075V70.0654L6.64331 70.141V70.1158ZM6.64331 57.0581V59.0232C6.84374 59.0987 7.06922 59.1743 7.26965 59.2247V56.9826L6.64331 57.0581ZM6.64331 70.1158V72.0808C6.84374 72.1564 7.06922 72.232 7.26965 72.3075V70.0654L6.64331 70.141V70.1158ZM6.64331 57.0581V59.0232C6.84374 59.0987 7.06922 59.1743 7.26965 59.2247V56.9826L6.64331 57.0581ZM6.64331 70.1158V72.0808C6.84374 72.1564 7.06922 72.232 7.26965 72.3075V70.0654L6.64331 70.141V70.1158ZM6.64331 57.0581V59.0232C6.84374 59.0987 7.06922 59.1743 7.26965 59.2247V56.9826L6.64331 57.0581ZM6.64331 70.1158V72.0808C6.84374 72.1564 7.06922 72.232 7.26965 72.3075V70.0654L6.64331 70.141V70.1158ZM6.64331 57.0581V59.0232C6.84374 59.0987 7.06922 59.1743 7.26965 59.2247V56.9826L6.64331 57.0581ZM6.64331 70.1158V72.0808C6.84374 72.1564 7.06922 72.232 7.26965 72.3075V70.0654L6.64331 70.141V70.1158ZM6.64331 57.0581V59.0232C6.84374 59.0987 7.06922 59.1743 7.26965 59.2247V56.9826L6.64331 57.0581ZM6.64331 70.1158V72.0808C6.84374 72.1564 7.06922 72.232 7.26965 72.3075V70.0654L6.64331 70.141V70.1158ZM6.64331 57.0581V59.0232C6.84374 59.0987 7.06922 59.1743 7.26965 59.2247V56.9826L6.64331 57.0581ZM6.64331 70.1158V72.0808C6.84374 72.1564 7.06922 72.232 7.26965 72.3075V70.0654L6.64331 70.141V70.1158ZM6.64331 57.0581V59.0232C6.84374 59.0987 7.06922 59.1743 7.26965 59.2247V56.9826L6.64331 57.0581ZM6.64331 70.1158V72.0808C6.84374 72.1564 7.06922 72.232 7.26965 72.3075V70.0654L6.64331 70.141V70.1158ZM6.64331 57.0581V59.0232C6.84374 59.0987 7.06922 59.1743 7.26965 59.2247V56.9826L6.64331 57.0581ZM6.64331 70.1158V72.0808C6.84374 72.1564 7.06922 72.232 7.26965 72.3075V70.0654L6.64331 70.141V70.1158ZM6.64331 57.0581V59.0232C6.84374 59.0987 7.06922 59.1743 7.26965 59.2247V56.9826L6.64331 57.0581ZM6.64331 70.1158V72.0808C6.84374 72.1564 7.06922 72.232 7.26965 72.3075V70.0654L6.64331 70.141V70.1158ZM6.64331 57.0581V59.0232C6.84374 59.0987 7.06922 59.1743 7.26965 59.2247V56.9826L6.64331 57.0581ZM6.64331 70.1158V72.0808C6.84374 72.1564 7.06922 72.232 7.26965 72.3075V70.0654L6.64331 70.141V70.1158ZM6.64331 57.0581V59.0232C6.84374 59.0987 7.06922 59.1743 7.26965 59.2247V56.9826L6.64331 57.0581ZM6.64331 70.1158V72.0808C6.84374 72.1564 7.06922 72.232 7.26965 72.3075V70.0654L6.64331 70.141V70.1158ZM6.64331 57.0581V59.0232C6.84374 59.0987 7.06922 59.1743 7.26965 59.2247V56.9826L6.64331 57.0581ZM6.64331 70.1158V72.0808C6.84374 72.1564 7.06922 72.232 7.26965 72.3075V70.0654L6.64331 70.141V70.1158ZM6.64331 57.0581V59.0232C6.84374 59.0987 7.06922 59.1743 7.26965 59.2247V56.9826L6.64331 57.0581ZM6.64331 70.1158V72.0808C6.84374 72.1564 7.06922 72.232 7.26965 72.3075V70.0654L6.64331 70.141V70.1158ZM6.64331 57.0581V59.0232C6.84374 59.0987 7.06922 59.1743 7.26965 59.2247V56.9826L6.64331 57.0581ZM6.64331 70.1158V72.0808C6.84374 72.1564 7.06922 72.232 7.26965 72.3075V70.0654L6.64331 70.141V70.1158ZM6.64331 57.0581V59.0232C6.84374 59.0987 7.06922 59.1743 7.26965 59.2247V56.9826L6.64331 57.0581ZM6.64331 70.1158V72.0808C6.84374 72.1564 7.06922 72.232 7.26965 72.3075V70.0654L6.64331 70.141V70.1158ZM6.64331 57.0581V59.0232C6.84374 59.0987 7.06922 59.1743 7.26965 59.2247V56.9826L6.64331 57.0581ZM6.64331 70.1158V72.0808C6.84374 72.1564 7.06922 72.232 7.26965 72.3075V70.0654L6.64331 70.141V70.1158ZM6.64331 57.0581V59.0232C6.84374 59.0987 7.06922 59.1743 7.26965 59.2247V56.9826L6.64331 57.0581ZM6.64331 70.1158V72.0808C6.84374 72.1564 7.06922 72.232 7.26965 72.3075V70.0654L6.64331 70.141V70.1158ZM6.64331 57.0581V59.0232C6.84374 59.0987 7.06922 59.1743 7.26965 59.2247V56.9826L6.64331 57.0581ZM6.64331 70.1158V72.0808C6.84374 72.1564 7.06922 72.232 7.26965 72.3075V70.0654L6.64331 70.141V70.1158ZM6.64331 57.0581V59.0232C6.84374 59.0987 7.06922 59.1743 7.26965 59.2247V56.9826L6.64331 57.0581ZM6.64331 70.1158V72.0808C6.84374 72.1564 7.06922 72.232 7.26965 72.3075V70.0654L6.64331 70.141V70.1158ZM6.64331 57.0581V59.0232C6.84374 59.0987 7.06922 59.1743 7.26965 59.2247V56.9826L6.64331 57.0581ZM6.64331 72.0808C6.84374 72.1564 7.06922 72.232 7.26965 72.3075V70.0654L6.64331 70.141V72.106V72.0808ZM6.64331 57.0581V59.0232C6.84374 59.0987 7.06922 59.1743 7.26965 59.2247V56.9826L6.64331 57.0581ZM428.948 24.1388C427.469 19.0247 424.438 14.8427 420.304 11.9959C420.304 11.9959 420.287 11.9959 420.254 11.9959C418.851 11.0386 417.348 10.2324 415.719 9.60256C415.719 9.60256 415.694 9.60256 415.669 9.60256C412.863 8.54446 409.757 7.96503 406.374 7.96503H26.0347C23.3791 7.96503 20.6733 8.31773 18.0928 9.02313C16.1135 9.55217 14.2345 10.2576 12.4557 11.1645C9.09855 12.8524 6.09213 15.1702 3.81226 18.0673C3.31119 18.672 2.86023 19.3018 2.43432 19.982C0.455092 23.0807 -0.747477 26.7337 -0.922852 30.8653C-0.922852 31.1676 -0.922852 31.4699 -0.922852 31.7974V90.0294C-0.922852 90.6088 -0.922852 91.1883 -0.847691 91.7677C-0.797584 92.5739 -0.69737 93.3297 -0.547049 94.1106C-0.071032 96.8315 0.855948 99.4263 2.18378 101.87C2.58464 102.626 3.0356 103.356 3.51162 104.087C8.47222 111.544 17.0155 116.809 26.0848 116.809H406.374C409.205 116.809 411.886 116.28 414.392 115.298C415.394 114.895 416.321 114.441 417.248 113.887C423.21 110.461 427.62 104.263 429.273 96.7055C429.424 96.1009 429.524 95.4711 429.599 94.8412C429.85 93.2793 429.975 91.6921 429.975 90.0294V31.7722C429.975 29.0514 429.599 26.5069 428.923 24.1388H428.948ZM7.44502 92.1708C7.39492 91.9944 7.39492 91.8433 7.36986 91.667C7.31976 91.1379 7.26965 90.5837 7.26965 90.0294V31.7722C7.26965 31.092 7.31976 30.4874 7.39492 29.8576C7.92104 26.0535 10.0506 22.9296 12.9818 20.6118C13.6583 20.0828 14.3598 19.6041 15.1114 19.1758C18.3684 17.2612 22.2516 16.2283 26.0097 16.2283H406.374C413.74 16.2283 418.926 19.8057 420.855 25.9023C421.432 27.6658 421.732 29.6309 421.732 31.7722V90.0294C421.732 91.7677 421.507 93.5312 421.106 95.2191C420.956 95.8742 420.78 96.504 420.555 97.1086C418.425 103.407 413.439 108.496 406.349 108.496H26.0347C22.3769 108.496 18.7442 107.135 15.6876 104.918C11.8294 102.147 8.82297 98.0407 7.74566 93.632C7.6204 93.1281 7.52018 92.6495 7.44502 92.1456V92.1708ZM6.64331 57.0581V59.0232C6.84374 59.0987 7.06922 59.1743 7.26965 59.2247V56.9826L6.64331 57.0581ZM6.64331 70.1158V72.0808C6.84374 72.1564 7.06922 72.232 7.26965 72.3075V70.0654L6.64331 70.141V70.1158ZM6.64331 57.0581V59.0232C6.84374 59.0987 7.06922 59.1743 7.26965 59.2247V56.9826L6.64331 57.0581ZM6.64331 70.1158V72.0808C6.84374 72.1564 7.06922 72.232 7.26965 72.3075V70.0654L6.64331 70.141V70.1158ZM6.64331 57.0581V59.0232C6.84374 59.0987 7.06922 59.1743 7.26965 59.2247V56.9826L6.64331 57.0581ZM6.64331 70.1158V72.0808C6.84374 72.1564 7.06922 72.232 7.26965 72.3075V70.0654L6.64331 70.141V70.1158ZM6.64331 57.0581V59.0232C6.84374 59.0987 7.06922 59.1743 7.26965 59.2247V56.9826L6.64331 57.0581ZM6.64331 70.1158V72.0808C6.84374 72.1564 7.06922 72.232 7.26965 72.3075V70.0654L6.64331 70.141V70.1158ZM6.64331 57.0581V59.0232C6.84374 59.0987 7.06922 59.1743 7.26965 59.2247V56.9826L6.64331 57.0581ZM6.64331 70.1158V72.0808C6.84374 72.1564 7.06922 72.232 7.26965 72.3075V70.0654L6.64331 70.141V70.1158ZM6.64331 57.0581V59.0232C6.84374 59.0987 7.06922 59.1743 7.26965 59.2247V56.9826L6.64331 57.0581ZM6.64331 70.1158V72.0808C6.84374 72.1564 7.06922 72.232 7.26965 72.3075V70.0654L6.64331 70.141V70.1158ZM6.64331 57.0581V59.0232C6.84374 59.0987 7.06922 59.1743 7.26965 59.2247V56.9826L6.64331 57.0581ZM6.64331 70.1158V72.0808C6.84374 72.1564 7.06922 72.232 7.26965 72.3075V70.0654L6.64331 70.141V70.1158ZM6.64331 57.0581V59.0232C6.84374 59.0987 7.06922 59.1743 7.26965 59.2247V56.9826L6.64331 57.0581ZM6.64331 70.1158V72.0808C6.84374 72.1564 7.06922 72.232 7.26965 72.3075V70.0654L6.64331 70.141V70.1158ZM6.64331 57.0581V59.0232C6.84374 59.0987 7.06922 59.1743 7.26965 59.2247V56.9826L6.64331 57.0581ZM6.64331 70.1158V72.0808C6.84374 72.1564 7.06922 72.232 7.26965 72.3075V70.0654L6.64331 70.141V70.1158ZM6.64331 57.0581V59.0232C6.84374 59.0987 7.06922 59.1743 7.26965 59.2247V56.9826L6.64331 57.0581ZM6.64331 70.1158V72.0808C6.84374 72.1564 7.06922 72.232 7.26965 72.3075V70.0654L6.64331 70.141V70.1158ZM6.64331 57.0581V59.0232C6.84374 59.0987 7.06922 59.1743 7.26965 59.2247V56.9826L6.64331 57.0581ZM6.64331 70.1158V72.0808C6.84374 72.1564 7.06922 72.232 7.26965 72.3075V70.0654L6.64331 70.141V70.1158ZM6.64331 57.0581V59.0232C6.84374 59.0987 7.06922 59.1743 7.26965 59.2247V56.9826L6.64331 57.0581ZM6.64331 70.1158V72.0808C6.84374 72.1564 7.06922 72.232 7.26965 72.3075V70.0654L6.64331 70.141V70.1158ZM6.64331 57.0581V59.0232C6.84374 59.0987 7.06922 59.1743 7.26965 59.2247V56.9826L6.64331 57.0581ZM6.64331 70.1158V72.0808C6.84374 72.1564 7.06922 72.232 7.26965 72.3075V70.0654L6.64331 70.141V70.1158ZM6.64331 57.0581V59.0232C6.84374 59.0987 7.06922 59.1743 7.26965 59.2247V56.9826L6.64331 57.0581ZM6.64331 70.1158V72.0808C6.84374 72.1564 7.06922 72.232 7.26965 72.3075V70.0654L6.64331 70.141V70.1158ZM6.64331 57.0581V59.0232C6.84374 59.0987 7.06922 59.1743 7.26965 59.2247V56.9826L6.64331 57.0581ZM6.64331 70.1158V72.0808C6.84374 72.1564 7.06922 72.232 7.26965 72.3075V70.0654L6.64331 70.141V70.1158ZM6.64331 57.0581V59.0232C6.84374 59.0987 7.06922 59.1743 7.26965 59.2247V56.9826L6.64331 57.0581ZM6.64331 70.1158V72.0808C6.84374 72.1564 7.06922 72.232 7.26965 72.3075V70.0654L6.64331 70.141V70.1158ZM6.64331 57.0581V59.0232C6.84374 59.0987 7.06922 59.1743 7.26965 59.2247V56.9826L6.64331 57.0581ZM6.64331 70.1158V72.0808C6.84374 72.1564 7.06922 72.232 7.26965 72.3075V70.0654L6.64331 70.141V70.1158ZM6.64331 57.0581V59.0232C6.84374 59.0987 7.06922 59.1743 7.26965 59.2247V56.9826L6.64331 57.0581ZM6.64331 70.1158V72.0808C6.84374 72.1564 7.06922 72.232 7.26965 72.3075V70.0654L6.64331 70.141V70.1158ZM6.64331 57.0581V59.0232C6.84374 59.0987 7.06922 59.1743 7.26965 59.2247V56.9826L6.64331 57.0581ZM6.64331 70.1158V72.0808C6.84374 72.1564 7.06922 72.232 7.26965 72.3075V70.0654L6.64331 70.141V70.1158ZM6.64331 57.0581V59.0232C6.84374 59.0987 7.06922 59.1743 7.26965 59.2247V56.9826L6.64331 57.0581ZM6.64331 70.1158V72.0808C6.84374 72.1564 7.06922 72.232 7.26965 72.3075V70.0654L6.64331 70.141V70.1158ZM6.64331 57.0581V59.0232C6.84374 59.0987 7.06922 59.1743 7.26965 59.2247V56.9826L6.64331 57.0581ZM6.64331 70.1158V72.0808C6.84374 72.1564 7.06922 72.232 7.26965 72.3075V70.0654L6.64331 70.141V70.1158ZM6.64331 57.0581V59.0232C6.84374 59.0987 7.06922 59.1743 7.26965 59.2247V56.9826L6.64331 57.0581ZM6.64331 70.1158V72.0808C6.84374 72.1564 7.06922 72.232 7.26965 72.3075V70.0654L6.64331 70.141V70.1158ZM6.64331 57.0581V59.0232C6.84374 59.0987 7.06922 59.1743 7.26965 59.2247V56.9826L6.64331 57.0581ZM6.64331 70.1158V72.0808C6.84374 72.1564 7.06922 72.232 7.26965 72.3075V70.0654L6.64331 70.141V70.1158ZM6.64331 57.0581V59.0232C6.84374 59.0987 7.06922 59.1743 7.26965 59.2247V56.9826L6.64331 57.0581ZM6.64331 70.1158V72.0808C6.84374 72.1564 7.06922 72.232 7.26965 72.3075V70.0654L6.64331 70.141V70.1158ZM6.64331 57.0581V59.0232C6.84374 59.0987 7.06922 59.1743 7.26965 59.2247V56.9826L6.64331 57.0581ZM6.64331 70.1158V72.0808C6.84374 72.1564 7.06922 72.232 7.26965 72.3075V70.0654L6.64331 70.141V70.1158ZM6.64331 57.0581V59.0232C6.84374 59.0987 7.06922 59.1743 7.26965 59.2247V56.9826L6.64331 57.0581ZM6.64331 70.1158V72.0808C6.84374 72.1564 7.06922 72.232 7.26965 72.3075V70.0654L6.64331 70.141V70.1158ZM6.64331 57.0581V59.0232C6.84374 59.0987 7.06922 59.1743 7.26965 59.2247V56.9826L6.64331 57.0581ZM6.64331 70.1158V72.0808C6.84374 72.1564 7.06922 72.232 7.26965 72.3075V70.0654L6.64331 70.141V70.1158Z" fill="#9E4000" fill-opacity="0.3"/>
<g filter="url(#filter0_d_27_7240)">
<path d="M7.89362 32.4499L7.89362 30.4024L7.29749 30.8785L7.29749 32.426L7.89362 32.4499ZM239.191 7.09472L245.749 7.52326L248.61 7.71372L251.352 7.88037L255.907 8.14227L258.673 8.30891L259.794 8.30891L265.111 8.59461C265.969 8.59461 266.828 8.59461 267.662 8.73745L305.218 8.73745C305.036 8.72584 304.853 8.72584 304.67 8.73745L302.095 8.42795L300.593 8.2375L295.204 7.6185L284.521 6.30907L228.342 6.30906C231.847 6.57095 235.495 6.85664 239.167 7.09472L239.191 7.09472ZM7.89362 32.4499L7.89362 30.4024L7.29749 30.8785L7.29749 32.426L7.89362 32.4499ZM239.191 7.09472L245.749 7.52326L248.61 7.71372L251.352 7.88037L255.907 8.14227L258.673 8.30891L259.794 8.30891L265.111 8.59461C265.969 8.59461 266.828 8.59461 267.662 8.73745L305.218 8.73745C305.036 8.72584 304.853 8.72584 304.67 8.73745L302.095 8.42795L300.593 8.2375L295.204 7.6185L284.521 6.30907L228.342 6.30906C231.847 6.57095 235.495 6.85664 239.167 7.09472L239.191 7.09472ZM7.89362 32.4499L7.89362 30.4024L7.29749 30.8785L7.29749 32.426L7.89362 32.4499ZM239.191 7.09472L245.749 7.52326L248.61 7.71372L251.352 7.88037L255.907 8.14227L258.673 8.30891L259.794 8.30891L265.111 8.59461C265.969 8.59461 266.828 8.59461 267.662 8.73745L305.218 8.73745C305.036 8.72584 304.853 8.72584 304.67 8.73745L302.095 8.42795L300.593 8.2375L295.204 7.6185L284.521 6.30907L228.342 6.30906C231.847 6.57095 235.495 6.85664 239.167 7.09472L239.191 7.09472ZM7.89362 32.4499L7.89362 30.4024L7.29749 30.8785L7.29749 32.426L7.89362 32.4499ZM239.191 7.09472L245.749 7.52326L248.61 7.71372L251.352 7.88037L255.907 8.14227L258.673 8.30891L259.794 8.30891L265.111 8.59461C265.969 8.59461 266.828 8.59461 267.662 8.73745L305.218 8.73745C305.036 8.72584 304.853 8.72584 304.67 8.73745L302.095 8.42795L300.593 8.2375L295.204 7.6185L284.521 6.30907L228.342 6.30906C231.847 6.57095 235.495 6.85664 239.167 7.09472L239.191 7.09472ZM7.89362 32.4499L7.89362 30.4024L7.29749 30.8785L7.29749 32.426L7.89362 32.4499ZM239.191 7.09472L245.749 7.52326L248.61 7.71372L251.352 7.88037L255.907 8.14227L258.673 8.30891L259.794 8.30891L265.111 8.59461C265.969 8.59461 266.828 8.59461 267.662 8.73745L305.218 8.73745C305.036 8.72584 304.853 8.72584 304.67 8.73745L302.095 8.42795L300.593 8.2375L295.204 7.6185L284.521 6.30907L228.342 6.30906C231.847 6.57095 235.495 6.85664 239.167 7.09472L239.191 7.09472ZM7.89362 32.4499L7.89362 30.4024L7.29749 30.8785L7.29749 32.426L7.89362 32.4499ZM239.191 7.09472L245.749 7.52326L248.61 7.71372L251.352 7.88037L255.907 8.14227L258.673 8.30891L259.794 8.30891L265.111 8.59461C265.969 8.59461 266.828 8.59461 267.662 8.73745L305.218 8.73745C305.036 8.72584 304.853 8.72584 304.67 8.73745L302.095 8.42795L300.593 8.2375L295.204 7.6185L284.521 6.30907L228.342 6.30906C231.847 6.57095 235.495 6.85664 239.167 7.09472L239.191 7.09472ZM7.89362 32.4499L7.89362 30.4024L7.29749 30.8785L7.29749 32.426L7.89362 32.4499ZM239.191 7.09472L245.749 7.52326L248.61 7.71372L251.352 7.88037L255.907 8.14227L258.673 8.30891L259.794 8.30891L265.111 8.59461C265.969 8.59461 266.828 8.59461 267.662 8.73745L305.218 8.73745C305.036 8.72584 304.853 8.72584 304.67 8.73745L302.095 8.42795L300.593 8.2375L295.204 7.6185L284.521 6.30907L228.342 6.30906C231.847 6.57095 235.495 6.85664 239.167 7.09472L239.191 7.09472ZM7.89362 32.4499L7.89362 30.4024L7.29749 30.8785L7.29749 32.426L7.89362 32.4499ZM239.191 7.09472L245.749 7.52326L248.61 7.71372L251.352 7.88037L255.907 8.14227L258.673 8.30891L259.794 8.30891L265.111 8.59461C265.969 8.59461 266.828 8.59461 267.662 8.73745L305.218 8.73745C305.036 8.72584 304.853 8.72584 304.67 8.73745L302.095 8.42795L300.593 8.2375L295.204 7.6185L284.521 6.30907L228.342 6.30906C231.847 6.57095 235.495 6.85664 239.167 7.09472L239.191 7.09472ZM7.89362 32.4499L7.89362 30.4024L7.29749 30.8785L7.29749 32.426L7.89362 32.4499ZM239.191 7.09472L245.749 7.52326L248.61 7.71372L251.352 7.88037L255.907 8.14227L258.673 8.30891L259.794 8.30891L265.111 8.59461C265.969 8.59461 266.828 8.59461 267.662 8.73745L305.218 8.73745C305.036 8.72584 304.853 8.72584 304.67 8.73745L302.095 8.42795L300.593 8.2375L295.204 7.6185L284.521 6.30907L228.342 6.30906C231.847 6.57095 235.495 6.85664 239.167 7.09472L239.191 7.09472ZM7.89362 32.4499L7.89362 30.4024L7.29749 30.8785L7.29749 32.426L7.89362 32.4499ZM239.191 7.09472L245.749 7.52326L248.61 7.71372L251.352 7.88037L255.907 8.14227L258.673 8.30891L259.794 8.30891L265.111 8.59461C265.969 8.59461 266.828 8.59461 267.662 8.73745L305.218 8.73745C305.036 8.72584 304.853 8.72584 304.67 8.73745L302.095 8.42795L300.593 8.2375L295.204 7.6185L284.521 6.30907L228.342 6.30906C231.847 6.57095 235.495 6.85664 239.167 7.09472L239.191 7.09472ZM7.89362 32.4499L7.89362 30.4024L7.29749 30.8785L7.29749 32.426L7.89362 32.4499ZM239.191 7.09472L245.749 7.52326L248.61 7.71372L251.352 7.88037L255.907 8.14227L258.673 8.30891L259.794 8.30891L265.111 8.59461C265.969 8.59461 266.828 8.59461 267.662 8.73745L305.218 8.73745C305.036 8.72584 304.853 8.72584 304.67 8.73745L302.095 8.42795L300.593 8.2375L295.204 7.6185L284.521 6.30907L228.342 6.30906C231.847 6.57095 235.495 6.85664 239.167 7.09472L239.191 7.09472ZM7.89362 32.4499L7.89362 30.4024L7.29749 30.8785L7.29749 32.426L7.89362 32.4499ZM239.191 7.09472L245.749 7.52326L248.61 7.71372L251.352 7.88037L255.907 8.14227L258.673 8.30891L259.794 8.30891L265.111 8.59461C265.969 8.59461 266.828 8.59461 267.662 8.73745L305.218 8.73745C305.036 8.72584 304.853 8.72584 304.67 8.73745L302.095 8.42795L300.593 8.2375L295.204 7.6185L284.521 6.30907L228.342 6.30906C231.847 6.57095 235.495 6.85664 239.167 7.09472L239.191 7.09472ZM7.89362 32.4499L7.89362 30.4024L7.29749 30.8785L7.29749 32.426L7.89362 32.4499ZM239.191 7.09472L245.749 7.52326L248.61 7.71372L251.352 7.88037L255.907 8.14227L258.673 8.30891L259.794 8.30891L265.111 8.59461C265.969 8.59461 266.828 8.59461 267.662 8.73745L305.218 8.73745C305.036 8.72584 304.853 8.72584 304.67 8.73745L302.095 8.42795L300.593 8.2375L295.204 7.6185L284.521 6.30907L228.342 6.30906C231.847 6.57095 235.495 6.85664 239.167 7.09472L239.191 7.09472ZM7.89362 32.4499L7.89362 30.4024L7.29749 30.8785L7.29749 32.426L7.89362 32.4499ZM239.191 7.09472L245.749 7.52326L248.61 7.71372L251.352 7.88037L255.907 8.14227L258.673 8.30891L259.794 8.30891L265.111 8.59461C265.969 8.59461 266.828 8.59461 267.662 8.73745L305.218 8.73745C305.036 8.72584 304.853 8.72584 304.67 8.73745L302.095 8.42795L300.593 8.2375L295.204 7.6185L284.521 6.30907L228.342 6.30906C231.847 6.57095 235.495 6.85664 239.167 7.09472L239.191 7.09472ZM7.89362 32.4499L7.89362 30.4024L7.29749 30.8785L7.29749 32.426L7.89362 32.4499ZM239.191 7.09472L245.749 7.52326L248.61 7.71372L251.352 7.88037L255.907 8.14227L258.673 8.30891L259.794 8.30891L265.111 8.59461C265.969 8.59461 266.828 8.59461 267.662 8.73745L305.218 8.73745C305.036 8.72584 304.853 8.72584 304.67 8.73745L302.095 8.42795L300.593 8.2375L295.204 7.6185L284.521 6.30907L228.342 6.30906C231.847 6.57095 235.495 6.85664 239.167 7.09472L239.191 7.09472ZM7.89362 32.4499L7.89362 30.4024L7.29749 30.8785L7.29749 32.426L7.89362 32.4499ZM239.191 7.09472L245.749 7.52326L248.61 7.71372L251.352 7.88037L255.907 8.14227L258.673 8.30891L259.794 8.30891L265.111 8.59461C265.969 8.59461 266.828 8.59461 267.662 8.73745L305.218 8.73745C305.036 8.72584 304.853 8.72584 304.67 8.73745L302.095 8.42795L300.593 8.2375L295.204 7.6185L284.521 6.30907L228.342 6.30906C231.847 6.57095 235.495 6.85664 239.167 7.09472L239.191 7.09472ZM7.89362 32.4499L7.89362 30.4024L7.29749 30.8785L7.29749 32.426L7.89362 32.4499ZM239.191 7.09472L245.749 7.52326L248.61 7.71372L251.352 7.88037L255.907 8.14227L258.673 8.30891L259.794 8.30891L265.111 8.59461C265.969 8.59461 266.828 8.59461 267.662 8.73745L305.218 8.73745C305.036 8.72584 304.853 8.72584 304.67 8.73745L302.095 8.42795L300.593 8.2375L295.204 7.6185L284.521 6.30907L228.342 6.30906C231.847 6.57095 235.495 6.85664 239.167 7.09472L239.191 7.09472ZM7.89362 32.4499L7.89362 30.4024L7.29749 30.8785L7.29749 32.426L7.89362 32.4499ZM239.191 7.09472L245.749 7.52326L248.61 7.71372L251.352 7.88037L255.907 8.14227L258.673 8.30891L259.794 8.30891L265.111 8.59461C265.969 8.59461 266.828 8.59461 267.662 8.73745L305.218 8.73745C305.036 8.72584 304.853 8.72584 304.67 8.73745L302.095 8.42795L300.593 8.2375L295.204 7.6185L284.521 6.30907L228.342 6.30906C231.847 6.57095 235.495 6.85664 239.167 7.09472L239.191 7.09472ZM7.89362 32.4499L7.89362 30.4024L7.29749 30.8785L7.29749 32.426L7.89362 32.4499ZM239.191 7.09472L245.749 7.52326L248.61 7.71372L251.352 7.88037L255.907 8.14227L258.673 8.30891L259.794 8.30891L265.111 8.59461C265.969 8.59461 266.828 8.59461 267.662 8.73745L305.218 8.73745C305.036 8.72584 304.853 8.72584 304.67 8.73745L302.095 8.42795L300.593 8.2375L295.204 7.6185L284.521 6.30907L228.342 6.30906C231.847 6.57095 235.495 6.85664 239.167 7.09472L239.191 7.09472ZM7.89362 32.4499L7.89362 30.4024L7.29749 30.8785L7.29749 32.426L7.89362 32.4499ZM239.191 7.09472L245.749 7.52326L248.61 7.71372L251.352 7.88037L255.907 8.14227L258.673 8.30891L259.794 8.30891L265.111 8.59461C265.969 8.59461 266.828 8.59461 267.662 8.73745L305.218 8.73745C305.036 8.72584 304.853 8.72584 304.67 8.73745L302.095 8.42795L300.593 8.2375L295.204 7.6185L284.521 6.30907L228.342 6.30906C231.847 6.57095 235.495 6.85664 239.167 7.09472L239.191 7.09472ZM7.89362 32.4499L7.89362 30.4024L7.29749 30.8785L7.29749 32.426L7.89362 32.4499ZM239.191 7.09472L245.749 7.52326L248.61 7.71372L251.352 7.88037L255.907 8.14227L258.673 8.30891L259.794 8.30891L265.111 8.59461C265.969 8.59461 266.828 8.59461 267.662 8.73745L305.218 8.73745C305.036 8.72584 304.853 8.72584 304.67 8.73745L302.095 8.42795L300.593 8.2375L295.204 7.6185L284.521 6.30907L228.342 6.30906C231.847 6.57095 235.495 6.85664 239.167 7.09472L239.191 7.09472ZM7.89362 32.4499L7.89362 30.4024L7.29749 30.8785L7.29749 32.426L7.89362 32.4499ZM239.191 7.09472L245.749 7.52326L248.61 7.71372L251.352 7.88037L255.907 8.14227L258.673 8.30891L259.794 8.30891L265.111 8.59461C265.969 8.59461 266.828 8.59461 267.662 8.73745L305.218 8.73745C305.036 8.72584 304.853 8.72584 304.67 8.73745L302.095 8.42795L300.593 8.2375L295.204 7.6185L284.521 6.30907L228.342 6.30906C231.847 6.57095 235.495 6.85664 239.167 7.09472L239.191 7.09472ZM7.89362 32.4499L7.89362 30.4024L7.29749 30.8785L7.29749 32.426L7.89362 32.4499ZM239.191 7.09472L245.749 7.52326L248.61 7.71372L251.352 7.88037L255.907 8.14227L258.673 8.30891L259.794 8.30891L265.111 8.59461C265.969 8.59461 266.828 8.59461 267.662 8.73745L305.218 8.73745C305.036 8.72584 304.853 8.72584 304.67 8.73745L302.095 8.42795L300.593 8.2375L295.204 7.6185L284.521 6.30907L228.342 6.30906C231.847 6.57095 235.495 6.85664 239.167 7.09472L239.191 7.09472ZM7.89362 32.4499L7.89362 30.4024L7.29749 30.8785L7.29749 32.426L7.89362 32.4499ZM239.191 7.09472L245.749 7.52326L248.61 7.71372L251.352 7.88037L255.907 8.14227L258.673 8.30891L259.794 8.30891L265.111 8.59461C265.969 8.59461 266.828 8.59461 267.662 8.73745L305.218 8.73745C305.036 8.72584 304.853 8.72584 304.67 8.73745L302.095 8.42795L300.593 8.2375L295.204 7.6185L284.521 6.30907L228.342 6.30906C231.847 6.57095 235.495 6.85664 239.167 7.09472L239.191 7.09472ZM7.89362 32.4499L7.89362 30.4024L7.29749 30.8785L7.29749 32.426L7.89362 32.4499ZM239.191 7.09472L245.749 7.52326L248.61 7.71372L251.352 7.88037L255.907 8.14227L258.673 8.30891L259.794 8.30891L265.111 8.59461C265.969 8.59461 266.828 8.59461 267.662 8.73745L305.218 8.73745C305.036 8.72584 304.853 8.72584 304.67 8.73745L302.095 8.42795L300.593 8.2375L295.204 7.6185L284.521 6.30907L228.342 6.30906C231.847 6.57095 235.495 6.85664 239.167 7.09472L239.191 7.09472ZM7.89362 32.4499L7.89362 30.4024L7.29749 30.8785L7.29749 32.426L7.89362 32.4499ZM239.191 7.09472L245.749 7.52326L248.61 7.71372L251.352 7.88037L255.907 8.14227L258.673 8.30891L259.794 8.30891L265.111 8.59461C265.969 8.59461 266.828 8.59461 267.662 8.73745L305.218 8.73745C305.036 8.72584 304.853 8.72584 304.67 8.73745L302.095 8.42795L300.593 8.2375L295.204 7.6185L284.521 6.30907L228.342 6.30906C231.847 6.57095 235.495 6.85664 239.167 7.09472L239.191 7.09472ZM7.89362 32.4499L7.89362 30.4024L7.29749 30.8785L7.29749 32.426L7.89362 32.4499ZM239.191 7.09472L245.749 7.52326L248.61 7.71372L251.352 7.88037L255.907 8.14227L258.673 8.30891L259.794 8.30891L265.111 8.59461C265.969 8.59461 266.828 8.59461 267.662 8.73745L305.218 8.73745C305.036 8.72584 304.853 8.72584 304.67 8.73745L302.095 8.42795L300.593 8.2375L295.204 7.6185L284.521 6.30907L228.342 6.30906C231.847 6.57095 235.495 6.85664 239.167 7.09472L239.191 7.09472ZM239.191 7.09472L245.749 7.52326L248.61 7.71372L251.352 7.88037L255.907 8.14227L258.673 8.30891L259.794 8.30891L265.111 8.59461C265.969 8.59461 266.828 8.59461 267.662 8.73745L305.218 8.73745C305.036 8.72584 304.853 8.72584 304.67 8.73745L302.095 8.42795L300.593 8.2375L295.204 7.6185L284.521 6.30907L228.342 6.30906C231.847 6.57095 235.495 6.85664 239.167 7.09472L239.191 7.09472ZM243.96 7.09472L244.962 7.09472L245.2 7.09472L246.416 7.09472L247.156 7.09472C250.947 7.35661 255.454 7.71372 259.46 8.02322L259.841 8.02322L262.536 8.2613L264.92 8.45176L268.33 8.45176L233.445 5.95195L232.276 5.95195L243.96 7.09472ZM243.96 7.09472L244.962 7.09472L245.2 7.09472L246.416 7.09472L247.156 7.09472C250.947 7.35661 255.454 7.71372 259.46 8.02322L259.841 8.02322L262.536 8.2613L264.92 8.45176L268.33 8.45176L233.445 5.95195L232.276 5.95195L243.96 7.09472ZM243.96 7.09472L244.962 7.09472L245.2 7.09472L246.416 7.09472L247.156 7.09472C250.947 7.35661 255.454 7.71372 259.46 8.02322L259.841 8.02322L262.536 8.2613L264.92 8.45176L268.33 8.45176L233.445 5.95195L232.276 5.95195L243.96 7.09472ZM243.96 7.09472L244.962 7.09472L245.2 7.09472L246.416 7.09472L247.156 7.09472C250.947 7.35661 255.454 7.71372 259.46 8.02322L259.841 8.02322L262.536 8.2613L264.92 8.45176L268.33 8.45176L233.445 5.95195L232.276 5.95195L243.96 7.09472ZM243.96 7.09472L244.962 7.09472L245.2 7.09472L246.416 7.09472L247.156 7.09472C250.947 7.35661 255.454 7.71372 259.46 8.02322L259.841 8.02322L262.536 8.2613L264.92 8.45176L268.33 8.45176L233.445 5.95195L232.276 5.95195L243.96 7.09472ZM243.96 7.09472L244.962 7.09472L245.2 7.09472L246.416 7.09472L247.156 7.09472C250.947 7.35661 255.454 7.71372 259.46 8.02322L259.841 8.02322L262.536 8.2613L264.92 8.45176L268.33 8.45176L233.445 5.95195L232.276 5.95195L243.96 7.09472ZM243.96 7.09472L244.962 7.09472L245.2 7.09472L246.416 7.09472L247.156 7.09472C250.947 7.35661 255.454 7.71372 259.46 8.02322L259.841 8.02322L262.536 8.2613L264.92 8.45176L268.33 8.45176L233.445 5.95195L232.276 5.95195L243.96 7.09472ZM243.96 7.09472L244.962 7.09472L245.2 7.09472L246.416 7.09472L247.156 7.09472C250.947 7.35661 255.454 7.71372 259.46 8.02322L259.841 8.02322L262.536 8.2613L264.92 8.45176L268.33 8.45176L233.445 5.95195L232.276 5.95195L243.96 7.09472ZM7.89362 85.9047L7.89362 26.2837C7.90659 23.7119 8.38315 21.1636 9.30051 18.7604C9.53638 18.1503 9.80704 17.5541 10.1112 16.9749C10.1112 16.7368 10.3497 16.4987 10.4928 16.2607C11.6242 14.0677 13.331 12.2227 15.4309 10.9228C17.5308 9.62291 19.9449 8.91694 22.4153 8.88028L404.271 8.88032C407.682 9.06107 410.981 10.1528 413.825 12.0415C416.669 13.9303 418.953 16.5467 420.438 19.6176C420.653 19.7604 420.653 20.0461 420.82 20.2604C420.815 20.3079 420.815 20.3557 420.82 20.4032C421.011 20.838 421.178 21.2831 421.32 21.7364C421.365 21.9065 421.421 22.0735 421.487 22.2364C421.875 23.5509 422.076 24.9134 422.083 26.2837L422.083 85.9999L430 85.9999L430 26.2837C430 25.5219 430 24.7838 429.881 24.0458C429.834 23.4203 429.738 22.7994 429.595 22.1888C429.517 21.6997 429.413 21.2149 429.285 20.7365C429.285 20.4508 429.142 20.1889 429.046 19.9033C428.238 17.1708 426.973 14.5949 425.303 12.2848C424.754 11.5468 424.182 10.8087 423.562 10.0945L423.252 9.76119L422.632 9.09458L422.322 8.78509C417.569 3.91503 411.081 1.11693 404.271 0.999975L22.4392 0.999941L21.1754 0.999941C19.4301 1.09252 17.7055 1.42088 16.0487 1.97605C12.6783 3.13758 9.62241 5.06138 7.11988 7.59716C4.61735 10.1329 2.73585 13.212 1.62238 16.5939C1.5207 16.8347 1.43311 17.0811 1.36008 17.332C1.16932 17.9034 1.02628 18.4986 0.883215 19.0938C0.278112 21.4259 -0.0185493 23.827 0.000890234 26.2361L0.00088501 85.9999L7.89362 85.9047ZM243.96 7.09472L244.962 7.09472L245.2 7.09472L246.416 7.09472L247.156 7.09472C250.947 7.35661 255.454 7.71372 259.46 8.02322L259.841 8.02322L262.536 8.2613L264.92 8.45176L268.33 8.45176L233.445 5.95195L232.276 5.95195L243.96 7.09472ZM243.96 7.09472L244.962 7.09472L245.2 7.09472L246.416 7.09472L247.156 7.09472C250.947 7.35661 255.454 7.71372 259.46 8.02322L259.841 8.02322L262.536 8.2613L264.92 8.45176L268.33 8.45176L233.445 5.95195L232.276 5.95195L243.96 7.09472ZM243.96 7.09472L244.962 7.09472L245.2 7.09472L246.416 7.09472L247.156 7.09472C250.947 7.35661 255.454 7.71372 259.46 8.02322L259.841 8.02322L262.536 8.2613L264.92 8.45176L268.33 8.45176L233.445 5.95195L232.276 5.95195L243.96 7.09472ZM243.96 7.09472L244.962 7.09472L245.2 7.09472L246.416 7.09472L247.156 7.09472C250.947 7.35661 255.454 7.71372 259.46 8.02322L259.841 8.02322L262.536 8.2613L264.92 8.45176L268.33 8.45176L233.445 5.95195L232.276 5.95195L243.96 7.09472ZM243.96 7.09472L244.962 7.09472L245.2 7.09472L246.416 7.09472L247.156 7.09472C250.947 7.35661 255.454 7.71372 259.46 8.02322L259.841 8.02322L262.536 8.2613L264.92 8.45176L268.33 8.45176L233.445 5.95195L232.276 5.95195L243.96 7.09472ZM243.96 7.09472L244.962 7.09472L245.2 7.09472L246.416 7.09472L247.156 7.09472C250.947 7.35661 255.454 7.71372 259.46 8.02322L259.841 8.02322L262.536 8.2613L264.92 8.45176L268.33 8.45176L233.445 5.95195L232.276 5.95195L243.96 7.09472ZM243.96 7.09472L244.962 7.09472L245.2 7.09472L246.416 7.09472L247.156 7.09472C250.947 7.35661 255.454 7.71372 259.46 8.02322L259.841 8.02322L262.536 8.2613L264.92 8.45176L268.33 8.45176L233.445 5.95195L232.276 5.95195L243.96 7.09472ZM243.96 7.09472L244.962 7.09472L245.2 7.09472L246.416 7.09472L247.156 7.09472C250.947 7.35661 255.454 7.71372 259.46 8.02322L259.841 8.02322L262.536 8.2613L264.92 8.45176L268.33 8.45176L233.445 5.95195L232.276 5.95195L243.96 7.09472ZM239.191 7.09472L245.749 7.52326L248.61 7.71372L251.352 7.88037L255.907 8.14227L258.673 8.30891L259.794 8.30891L265.111 8.59461C265.969 8.59461 266.828 8.59461 267.662 8.73745L305.218 8.73745C305.036 8.72584 304.853 8.72584 304.67 8.73745L302.095 8.42795L300.593 8.2375L295.204 7.6185L284.521 6.30907L228.342 6.30906C231.847 6.57095 235.495 6.85664 239.167 7.09472L239.191 7.09472ZM7.89362 32.4499L7.89362 30.4024L7.29749 30.8785L7.29749 32.426L7.89362 32.4499ZM239.191 7.09472L245.749 7.52326L248.61 7.71372L251.352 7.88037L255.907 8.14227L258.673 8.30891L259.794 8.30891L265.111 8.59461C265.969 8.59461 266.828 8.59461 267.662 8.73745L305.218 8.73745C305.036 8.72584 304.853 8.72584 304.67 8.73745L302.095 8.42795L300.593 8.2375L295.204 7.6185L284.521 6.30907L228.342 6.30906C231.847 6.57095 235.495 6.85664 239.167 7.09472L239.191 7.09472ZM7.89362 32.4499L7.89362 30.4024L7.29749 30.8785L7.29749 32.426L7.89362 32.4499ZM239.191 7.09472L245.749 7.52326L248.61 7.71372L251.352 7.88037L255.907 8.14227L258.673 8.30891L259.794 8.30891L265.111 8.59461C265.969 8.59461 266.828 8.59461 267.662 8.73745L305.218 8.73745C305.036 8.72584 304.853 8.72584 304.67 8.73745L302.095 8.42795L300.593 8.2375L295.204 7.6185L284.521 6.30907L228.342 6.30906C231.847 6.57095 235.495 6.85664 239.167 7.09472L239.191 7.09472ZM7.89362 32.4499L7.89362 30.4024L7.29749 30.8785L7.29749 32.426L7.89362 32.4499ZM239.191 7.09472L245.749 7.52326L248.61 7.71372L251.352 7.88037L255.907 8.14227L258.673 8.30891L259.794 8.30891L265.111 8.59461C265.969 8.59461 266.828 8.59461 267.662 8.73745L305.218 8.73745C305.036 8.72584 304.853 8.72584 304.67 8.73745L302.095 8.42795L300.593 8.2375L295.204 7.6185L284.521 6.30907L228.342 6.30906C231.847 6.57095 235.495 6.85664 239.167 7.09472L239.191 7.09472ZM7.89362 32.4499L7.89362 30.4024L7.29749 30.8785L7.29749 32.426L7.89362 32.4499ZM239.191 7.09472L245.749 7.52326L248.61 7.71372L251.352 7.88037L255.907 8.14227L258.673 8.30891L259.794 8.30891L265.111 8.59461C265.969 8.59461 266.828 8.59461 267.662 8.73745L305.218 8.73745C305.036 8.72584 304.853 8.72584 304.67 8.73745L302.095 8.42795L300.593 8.2375L295.204 7.6185L284.521 6.30907L228.342 6.30906C231.847 6.57095 235.495 6.85664 239.167 7.09472L239.191 7.09472ZM7.89362 32.4499L7.89362 30.4024L7.29749 30.8785L7.29749 32.426L7.89362 32.4499ZM239.191 7.09472L245.749 7.52326L248.61 7.71372L251.352 7.88037L255.907 8.14227L258.673 8.30891L259.794 8.30891L265.111 8.59461C265.969 8.59461 266.828 8.59461 267.662 8.73745L305.218 8.73745C305.036 8.72584 304.853 8.72584 304.67 8.73745L302.095 8.42795L300.593 8.2375L295.204 7.6185L284.521 6.30907L228.342 6.30906C231.847 6.57095 235.495 6.85664 239.167 7.09472L239.191 7.09472ZM7.89362 32.4499L7.89362 30.4024L7.29749 30.8785L7.29749 32.426L7.89362 32.4499ZM239.191 7.09472L245.749 7.52326L248.61 7.71372L251.352 7.88037L255.907 8.14227L258.673 8.30891L259.794 8.30891L265.111 8.59461C265.969 8.59461 266.828 8.59461 267.662 8.73745L305.218 8.73745C305.036 8.72584 304.853 8.72584 304.67 8.73745L302.095 8.42795L300.593 8.2375L295.204 7.6185L284.521 6.30907L228.342 6.30906C231.847 6.57095 235.495 6.85664 239.167 7.09472L239.191 7.09472ZM7.89362 32.4499L7.89362 30.4024L7.29749 30.8785L7.29749 32.426L7.89362 32.4499ZM239.191 7.09472L245.749 7.52326L248.61 7.71372L251.352 7.88037L255.907 8.14227L258.673 8.30891L259.794 8.30891L265.111 8.59461C265.969 8.59461 266.828 8.59461 267.662 8.73745L305.218 8.73745C305.036 8.72584 304.853 8.72584 304.67 8.73745L302.095 8.42795L300.593 8.2375L295.204 7.6185L284.521 6.30907L228.342 6.30906C231.847 6.57095 235.495 6.85664 239.167 7.09472L239.191 7.09472ZM7.89362 32.4499L7.89362 30.4024L7.29749 30.8785L7.29749 32.426L7.89362 32.4499ZM239.191 7.09472L245.749 7.52326L248.61 7.71372L251.352 7.88037L255.907 8.14227L258.673 8.30891L259.794 8.30891L265.111 8.59461C265.969 8.59461 266.828 8.59461 267.662 8.73745L305.218 8.73745C305.036 8.72584 304.853 8.72584 304.67 8.73745L302.095 8.42795L300.593 8.2375L295.204 7.6185L284.521 6.30907L228.342 6.30906C231.847 6.57095 235.495 6.85664 239.167 7.09472L239.191 7.09472ZM7.89362 32.4499L7.89362 30.4024L7.29749 30.8785L7.29749 32.426L7.89362 32.4499ZM239.191 7.09472L245.749 7.52326L248.61 7.71372L251.352 7.88037L255.907 8.14227L258.673 8.30891L259.794 8.30891L265.111 8.59461C265.969 8.59461 266.828 8.59461 267.662 8.73745L305.218 8.73745C305.036 8.72584 304.853 8.72584 304.67 8.73745L302.095 8.42795L300.593 8.2375L295.204 7.6185L284.521 6.30907L228.342 6.30906C231.847 6.57095 235.495 6.85664 239.167 7.09472L239.191 7.09472ZM7.89362 32.4499L7.89362 30.4024L7.29749 30.8785L7.29749 32.426L7.89362 32.4499ZM239.191 7.09472L245.749 7.52326L248.61 7.71372L251.352 7.88037L255.907 8.14227L258.673 8.30891L259.794 8.30891L265.111 8.59461C265.969 8.59461 266.828 8.59461 267.662 8.73745L305.218 8.73745C305.036 8.72584 304.853 8.72584 304.67 8.73745L302.095 8.42795L300.593 8.2375L295.204 7.6185L284.521 6.30907L228.342 6.30906C231.847 6.57095 235.495 6.85664 239.167 7.09472L239.191 7.09472ZM7.89362 32.4499L7.89362 30.4024L7.29749 30.8785L7.29749 32.426L7.89362 32.4499ZM239.191 7.09472L245.749 7.52326L248.61 7.71372L251.352 7.88037L255.907 8.14227L258.673 8.30891L259.794 8.30891L265.111 8.59461C265.969 8.59461 266.828 8.59461 267.662 8.73745L305.218 8.73745C305.036 8.72584 304.853 8.72584 304.67 8.73745L302.095 8.42795L300.593 8.2375L295.204 7.6185L284.521 6.30907L228.342 6.30906C231.847 6.57095 235.495 6.85664 239.167 7.09472L239.191 7.09472ZM7.89362 32.4499L7.89362 30.4024L7.29749 30.8785L7.29749 32.426L7.89362 32.4499ZM239.191 7.09472L245.749 7.52326L248.61 7.71372L251.352 7.88037L255.907 8.14227L258.673 8.30891L259.794 8.30891L265.111 8.59461C265.969 8.59461 266.828 8.59461 267.662 8.73745L305.218 8.73745C305.036 8.72584 304.853 8.72584 304.67 8.73745L302.095 8.42795L300.593 8.2375L295.204 7.6185L284.521 6.30907L228.342 6.30906C231.847 6.57095 235.495 6.85664 239.167 7.09472L239.191 7.09472ZM7.89362 32.4499L7.89362 30.4024L7.29749 30.8785L7.29749 32.426L7.89362 32.4499ZM239.191 7.09472L245.749 7.52326L248.61 7.71372L251.352 7.88037L255.907 8.14227L258.673 8.30891L259.794 8.30891L265.111 8.59461C265.969 8.59461 266.828 8.59461 267.662 8.73745L305.218 8.73745C305.036 8.72584 304.853 8.72584 304.67 8.73745L302.095 8.42795L300.593 8.2375L295.204 7.6185L284.521 6.30907L228.342 6.30906C231.847 6.57095 235.495 6.85664 239.167 7.09472L239.191 7.09472ZM7.89362 32.4499L7.89362 30.4024L7.29749 30.8785L7.29749 32.426L7.89362 32.4499ZM239.191 7.09472L245.749 7.52326L248.61 7.71372L251.352 7.88037L255.907 8.14227L258.673 8.30891L259.794 8.30891L265.111 8.59461C265.969 8.59461 266.828 8.59461 267.662 8.73745L305.218 8.73745C305.036 8.72584 304.853 8.72584 304.67 8.73745L302.095 8.42795L300.593 8.2375L295.204 7.6185L284.521 6.30907L228.342 6.30906C231.847 6.57095 235.495 6.85664 239.167 7.09472L239.191 7.09472ZM7.89362 32.4499L7.89362 30.4024L7.29749 30.8785L7.29749 32.426L7.89362 32.4499ZM239.191 7.09472L245.749 7.52326L248.61 7.71372L251.352 7.88037L255.907 8.14227L258.673 8.30891L259.794 8.30891L265.111 8.59461C265.969 8.59461 266.828 8.59461 267.662 8.73745L305.218 8.73745C305.036 8.72584 304.853 8.72584 304.67 8.73745L302.095 8.42795L300.593 8.2375L295.204 7.6185L284.521 6.30907L228.342 6.30906C231.847 6.57095 235.495 6.85664 239.167 7.09472L239.191 7.09472ZM7.89362 32.4499L7.89362 30.4024L7.29749 30.8785L7.29749 32.426L7.89362 32.4499ZM239.191 7.09472L245.749 7.52326L248.61 7.71372L251.352 7.88037L255.907 8.14227L258.673 8.30891L259.794 8.30891L265.111 8.59461C265.969 8.59461 266.828 8.59461 267.662 8.73745L305.218 8.73745C305.036 8.72584 304.853 8.72584 304.67 8.73745L302.095 8.42795L300.593 8.2375L295.204 7.6185L284.521 6.30907L228.342 6.30906C231.847 6.57095 235.495 6.85664 239.167 7.09472L239.191 7.09472ZM7.89362 32.4499L7.89362 30.4024L7.29749 30.8785L7.29749 32.426L7.89362 32.4499ZM239.191 7.09472L245.749 7.52326L248.61 7.71372L251.352 7.88037L255.907 8.14227L258.673 8.30891L259.794 8.30891L265.111 8.59461C265.969 8.59461 266.828 8.59461 267.662 8.73745L305.218 8.73745C305.036 8.72584 304.853 8.72584 304.67 8.73745L302.095 8.42795L300.593 8.2375L295.204 7.6185L284.521 6.30907L228.342 6.30906C231.847 6.57095 235.495 6.85664 239.167 7.09472L239.191 7.09472ZM7.89362 32.4499L7.89362 30.4024L7.29749 30.8785L7.29749 32.426L7.89362 32.4499ZM239.191 7.09472L245.749 7.52326L248.61 7.71372L251.352 7.88037L255.907 8.14227L258.673 8.30891L259.794 8.30891L265.111 8.59461C265.969 8.59461 266.828 8.59461 267.662 8.73745L305.218 8.73745C305.036 8.72584 304.853 8.72584 304.67 8.73745L302.095 8.42795L300.593 8.2375L295.204 7.6185L284.521 6.30907L228.342 6.30906C231.847 6.57095 235.495 6.85664 239.167 7.09472L239.191 7.09472ZM7.89362 32.4499L7.89362 30.4024L7.29749 30.8785L7.29749 32.426L7.89362 32.4499ZM239.191 7.09472L245.749 7.52326L248.61 7.71372L251.352 7.88037L255.907 8.14227L258.673 8.30891L259.794 8.30891L265.111 8.59461C265.969 8.59461 266.828 8.59461 267.662 8.73745L305.218 8.73745C305.036 8.72584 304.853 8.72584 304.67 8.73745L302.095 8.42795L300.593 8.2375L295.204 7.6185L284.521 6.30907L228.342 6.30906C231.847 6.57095 235.495 6.85664 239.167 7.09472L239.191 7.09472ZM7.89362 32.4499L7.89362 30.4024L7.29749 30.8785L7.29749 32.426L7.89362 32.4499ZM239.191 7.09472L245.749 7.52326L248.61 7.71372L251.352 7.88037L255.907 8.14227L258.673 8.30891L259.794 8.30891L265.111 8.59461C265.969 8.59461 266.828 8.59461 267.662 8.73745L305.218 8.73745C305.036 8.72584 304.853 8.72584 304.67 8.73745L302.095 8.42795L300.593 8.2375L295.204 7.6185L284.521 6.30907L228.342 6.30906C231.847 6.57095 235.495 6.85664 239.167 7.09472L239.191 7.09472ZM7.89362 32.4499L7.89362 30.4024L7.29749 30.8785L7.29749 32.426L7.89362 32.4499ZM239.191 7.09472L245.749 7.52326L248.61 7.71372L251.352 7.88037L255.907 8.14227L258.673 8.30891L259.794 8.30891L265.111 8.59461C265.969 8.59461 266.828 8.59461 267.662 8.73745L305.218 8.73745C305.036 8.72584 304.853 8.72584 304.67 8.73745L302.095 8.42795L300.593 8.2375L295.204 7.6185L284.521 6.30907L228.342 6.30906C231.847 6.57095 235.495 6.85664 239.167 7.09472L239.191 7.09472ZM7.89362 32.4499L7.89362 30.4024L7.29749 30.8785L7.29749 32.426L7.89362 32.4499ZM239.191 7.09472L245.749 7.52326L248.61 7.71372L251.352 7.88037L255.907 8.14227L258.673 8.30891L259.794 8.30891L265.111 8.59461C265.969 8.59461 266.828 8.59461 267.662 8.73745L305.218 8.73745C305.036 8.72584 304.853 8.72584 304.67 8.73745L302.095 8.42795L300.593 8.2375L295.204 7.6185L284.521 6.30907L228.342 6.30906C231.847 6.57095 235.495 6.85664 239.167 7.09472L239.191 7.09472ZM7.89362 32.4499L7.89362 30.4024L7.29749 30.8785L7.29749 32.426L7.89362 32.4499ZM239.191 7.09472L245.749 7.52326L248.61 7.71372L251.352 7.88037L255.907 8.14227L258.673 8.30891L259.794 8.30891L265.111 8.59461C265.969 8.59461 266.828 8.59461 267.662 8.73745L305.218 8.73745C305.036 8.72584 304.853 8.72584 304.67 8.73745L302.095 8.42795L300.593 8.2375L295.204 7.6185L284.521 6.30907L228.342 6.30906C231.847 6.57095 235.495 6.85664 239.167 7.09472L239.191 7.09472ZM7.89362 32.4499L7.89362 30.4024L7.29749 30.8785L7.29749 32.426L7.89362 32.4499ZM239.191 7.09472L245.749 7.52326L248.61 7.71372L251.352 7.88037L255.907 8.14227L258.673 8.30891L259.794 8.30891L265.111 8.59461C265.969 8.59461 266.828 8.59461 267.662 8.73745L305.218 8.73745C305.036 8.72584 304.853 8.72584 304.67 8.73745L302.095 8.42795L300.593 8.2375L295.204 7.6185L284.521 6.30907L228.342 6.30906C231.847 6.57095 235.495 6.85664 239.167 7.09472L239.191 7.09472ZM7.89362 32.4499L7.89362 30.4024L7.29749 30.8785L7.29749 32.426L7.89362 32.4499ZM239.191 7.09472L245.749 7.52326L248.61 7.71372L251.352 7.88037L255.907 8.14227L258.673 8.30891L259.794 8.30891L265.111 8.59461C265.969 8.59461 266.828 8.59461 267.662 8.73745L305.218 8.73745C305.036 8.72584 304.853 8.72584 304.67 8.73745L302.095 8.42795L300.593 8.2375L295.204 7.6185L284.521 6.30907L228.342 6.30906C231.847 6.57095 235.495 6.85664 239.167 7.09472L239.191 7.09472ZM7.89362 32.4499L7.89362 30.4024L7.29749 30.8785L7.29749 32.426L7.89362 32.4499ZM239.191 7.09472L245.749 7.52326L248.61 7.71372L251.352 7.88037L255.907 8.14227L258.673 8.30891L259.794 8.30891L265.111 8.59461C265.969 8.59461 266.828 8.59461 267.662 8.73745L305.218 8.73745C305.036 8.72584 304.853 8.72584 304.67 8.73745L302.095 8.42795L300.593 8.2375L295.204 7.6185L284.521 6.30907L228.342 6.30906C231.847 6.57095 235.495 6.85664 239.167 7.09472L239.191 7.09472ZM7.89362 32.4499L7.89362 30.4024L7.29749 30.8785L7.29749 32.426L7.89362 32.4499ZM239.191 7.09472L245.749 7.52326L248.61 7.71372L251.352 7.88037L255.907 8.14227L258.673 8.30891L259.794 8.30891L265.111 8.59461C265.969 8.59461 266.828 8.59461 267.662 8.73745L305.218 8.73745C305.036 8.72584 304.853 8.72584 304.67 8.73745L302.095 8.42795L300.593 8.2375L295.204 7.6185L284.521 6.30907L228.342 6.30906C231.847 6.57095 235.495 6.85664 239.167 7.09472L239.191 7.09472ZM7.89362 32.4499L7.89362 30.4024L7.29749 30.8785L7.29749 32.426L7.89362 32.4499Z" fill="url(#paint2_linear_27_7240)"/>
</g>
<g style="mix-blend-mode:multiply" opacity="0.6" filter="url(#filter1_d_27_7240)">
<path d="M422.568 50.4137L426.187 49.9614C425.139 49.5091 423.806 49.0093 422.568 48.557L421.973 48.3427L421.973 46.4384L422.568 46.6288C424.949 47.4686 427.285 48.43 429.567 49.5091L429.805 49.5091L430.4 49.5091L430.4 51.1992L429.805 51.1992L422.664 52.08L422.068 52.08L422.068 50.4851L422.568 50.4137Z" fill="#C97B3A"/>
<path d="M422.073 34.5236L422.073 32.7383L422.668 32.7859L429.905 33.1668L430.5 33.1906L430.5 34.9521L429.905 34.9283L422.668 34.5236L422.073 34.5236Z" fill="#C97B3A"/>
<path d="M422 59.4516L422 57.6663L422.595 57.7139L429.832 58.0947L430.427 58.1186L430.427 59.8801L429.832 59.8563L422.595 59.4516L422 59.4516Z" fill="#C97B3A"/>
<path d="M422 82.6128L422 80.9999L422.565 81.043L429.435 81.387L430 81.4085L430 82.9999L429.435 82.9784L422.565 82.6128L422 82.6128Z" fill="#C97B3A"/>
<path d="M421.216 21.6459C421.055 21.151 420.864 20.6661 420.645 20.1938L420.931 20.1938L429.143 22.0268L429.405 22.0268C429.548 22.6373 429.644 23.2581 429.691 23.8835L429.215 23.8835L421.383 22.1696L421.216 21.6459Z" fill="#C97B3A"/>
<path d="M347.739 0.599945L352.5 0.599945L353.374 0.821934C357.802 2.46443 362.896 4.36877 368.133 6.17789L375.274 8.67734L369.847 8.67734L362.848 6.17789C357.445 4.24975 352.279 2.3216 348.328 0.821934L347.739 0.599945Z" fill="#C97B3A"/>
<path d="M367 0.499946L372.499 0.499947C375.141 1.3569 370.966 0.0790043 373.941 0.721719C378.125 1.84978 382.391 2.64573 386.7 3.10215C399.043 4.74064 411.486 7.04508 423.58 10.0054C424.697 11.5 425.2 12 425.32 12.243C422.249 11.5527 417.979 10.6005 413.385 9.62451C407.743 8.41049 401.483 7.24409 395.841 6.24431C392.437 5.69681 389.247 5.24453 386.558 5.00648C380.091 4.25705 373.713 2.87779 367.514 0.888347C364.705 -0.0162139 369.19 1.28549 367 0.499946Z" fill="#C97B3A"/>
<path d="M308.36 0.600189L311.5 0.599945L312 0.600189L312.574 0.940582L327.88 6.29654L334.997 8.79599L329.713 8.79599L322.619 6.29654L308.432 1.32145L308.36 0.940582L308.36 0.600189Z" fill="#C97B3A"/>
<path d="M18.8303 1.27C21 1 20.9426 0.98261 21.7811 1.1C24.1615 1.43326 26.542 1.53099 28.3511 1.67382C30.7315 1.88806 165.107 2.14992 171.724 2.45937C180.722 2.91165 192.91 3.53057 206.145 4.43513C209.692 3.48296 216.976 2.19753 225.641 0.840688C230.878 0.0313444 222.951 1.24536 228.592 0.531235L237 0.531235L245 0.530991L254.087 0.912105C267.084 2.41177 285.485 4.62557 299.315 6.26807L318.144 8.64849L318.144 8.88654L305.361 8.88653C305.179 8.87493 304.996 8.87493 304.814 8.88653L302.243 8.57708L300.743 8.38664C299.029 8.1724 297.244 7.95817 295.363 7.76773L284.699 6.4585C266.536 4.31611 246.612 1.93569 240.114 1.29297L240.114 0.912104L240.114 0.531236L237.448 0.912103C227.926 2.34036 218.595 3.76861 212.382 4.93502C216.286 5.24448 220.237 5.55393 224.284 5.911L228.592 6.26806C232.092 6.55371 235.734 6.83936 239.4 7.07741L245.946 7.50588L248.802 7.69632L251.468 7.79153L256.015 8.05338L259.895 8.26762L265.203 8.55327C266.06 8.55327 266.917 8.55327 267.75 8.6961L238.114 8.69609C233.353 8.36283 228.592 7.98196 224.022 7.57729C218.047 7.0536 212.12 6.60132 206.335 6.19664L206.193 6.19664C192.91 5.26828 180.698 4.64936 171.7 4.19708C165.059 3.86382 30.7553 3.64957 28.2559 3.41153C25.0899 3.12588 20.6861 2.37891 16.687 1.76C17.5 1.5 18 1.5 18.8303 1.27Z" fill="#C97B3A"/>
<path d="M0.357202 19.1464C0.431532 18.545 0.542828 17.9488 0.690459 17.3611L1.95208 17.3611L8.95054 17.004L10 17.004C9.68861 17.5828 9.41046 18.1789 9.16687 18.7893L8.42684 18.7893C6.04642 18.9322 3.66599 19.0512 1.476 19.1226L0.357202 19.1464Z" fill="#C97B3A"/>
<path d="M-4.0046e-05 33.905L-3.9892e-05 32.1435L0.595067 32.1435L3.11831 32.1435C4.04668 31.5007 4.99863 29.9773 6.87916 28.4538L7.47427 27.9777L7.47427 30.2153L6.87916 30.6914C6.21264 31.2627 6.52234 31.7864 5.92723 32.2387L7.42665 32.2387L7.42665 34.0002L7.83154 34.0002C5.3321 34.0002 2.78504 34.0002 0.690268 33.8097L-4.0046e-05 33.905Z" fill="#C97B3A"/>
<path d="M-0.999943 65.5222L-0.999943 63.7606L-0.404836 63.7606L2.11841 63.7606C3.04677 63.1179 4.99872 61.5945 6.87926 60.071L7.47437 59.5949L7.47437 61.8325L6.87926 62.3086C6.21274 62.8799 5.52244 63.4036 4.92733 63.8559L7.42675 63.8559L7.42675 65.6174L6.83164 65.6174C4.33219 65.6174 1.78514 65.6174 -0.309635 65.4269L-0.999943 65.5222Z" fill="#C97B3A"/>
<path d="M-0.9997 47.8068L-0.9997 46.0215L-0.404594 46.1405C1.95593 46.6085 4.33975 46.9501 6.73668 47.1641L7.33179 47.1641L7.33179 48.997L6.73668 48.997C4.34087 48.7848 1.95738 48.4511 -0.404594 47.9972L-0.9997 47.8068Z" fill="#C97B3A"/>
<path d="M-0.999945 79.424L-0.999944 77.6387L-0.404838 77.7577C1.95569 78.2257 4.3395 78.5673 6.73644 78.7813L7.33154 78.7813L7.33154 80.6142L6.73644 80.6142C4.34063 80.402 1.95713 80.0683 -0.404838 79.6144L-0.999945 79.424Z" fill="#C97B3A"/>
</g>
<g style="mix-blend-mode:overlay" opacity="0.5" filter="url(#filter2_d_27_7240)">
<path d="M429.81 48.0683C429.289 48.0717 428.77 48.0158 428.262 47.9017C427.524 47.7351 424.477 46.7829 421.978 45.9736L421.978 46.5449C424.37 47.2704 426.708 48.1612 428.976 49.211L429.81 48.9967L429.81 48.0683Z" fill="#FFDE55"/>
<path d="M425.787 32.3814L421.978 32.0719L421.978 32.6908C424.358 32.6908 428.405 33.1193 429.81 33.2621L429.81 32.4528C428.715 32.4766 427.215 32.4766 425.787 32.3814Z" fill="#FFDE55"/>
<path d="M425.404 57.3094L421.595 56.9999L421.595 57.6188C423.975 57.6188 428.022 58.0473 429.427 58.1901L429.427 57.3808C428.332 57.4046 426.832 57.4046 425.404 57.3094Z" fill="#FFDE55"/>
<path d="M426.404 80.2599L423 79.9999L423 80.5199C425.127 80.5199 428.744 80.8799 430 80.9999L430 80.3199C429.021 80.3399 427.681 80.3399 426.404 80.2599Z" fill="#FFDE55"/>
<path d="M420.645 20.1938C423.763 21.0032 428.191 21.8601 429.405 22.0982C429.327 21.6091 429.224 21.1244 429.096 20.6461C428.113 20.7304 427.126 20.7304 426.144 20.6461C424.143 20.4733 422.17 20.0658 420.264 19.4321C420.405 19.6786 420.533 19.933 420.645 20.1938Z" fill="#FFDE55"/>
<path d="M400.483 5.03018C407.124 6.12517 423.168 9.79103 423.168 9.79103L422.145 8.76745C422.145 8.76745 416.027 7.31539 413.099 6.38702C410.171 5.45866 395.174 3.38769 390.437 2.8878C386.636 2.39999 382.862 1.7167 379.13 0.840628L374.369 0.983456C374.369 0.983456 384.343 3.10203 385.438 3.10203C386.533 3.10203 393.865 3.93518 400.483 5.03018Z" fill="#FFDE55"/>
<path d="M375.631 8.69606L378.583 8.69606C371.441 6.50607 356.992 1.34054 355.612 0.840652L353.422 0.840652C353.422 0.840652 364.181 4.64933 367.704 5.98237C370.489 7.00595 374.155 8.21997 375.631 8.69606Z" fill="#FFDE55"/>
<path d="M333.759 8.69606L335.235 8.69606C330.475 6.6727 316.573 1.55478 314.335 0.840653L314.002 0.840653L312.574 0.840652C312.574 0.840652 319.905 3.72097 324.143 4.88738C327.428 5.94428 330.641 7.2166 333.759 8.69606Z" fill="#FFDE55"/>
<path d="M263.989 2.03085C267.703 2.41171 295.863 5.53007 302.647 6.57746C307.194 7.24398 314.549 8.17235 319.025 8.69604L322.881 8.69604C316.739 7.00594 293.768 4.60171 286.056 3.93519C279.224 3.26867 265.846 1.55476 261.466 0.912048L260.038 0.721614L254.872 0.912048L255.134 0.912048C256.229 0.912048 260.752 1.72139 263.989 2.03085Z" fill="#FFDE55"/>
<path d="M170.105 30.586H170.486C175.247 30.9431 180.579 31.3716 184.768 31.6572L165.082 30.1337L170.105 30.586Z" fill="#FFDE55"/>
<path d="M231.258 6.19653C235.257 6.50599 239.042 6.79164 241.447 6.93447L245.303 7.17251L215.571 4.9111L268.417 8.69598C262.156 7.95805 250.635 6.62501 244.946 6.19653C243.851 6.19653 242.994 6.05371 242.399 6.05371C237.852 6.05371 217.404 4.95871 213.619 4.76828L213.024 4.76828L214.119 4.76828C216.881 5.05393 224.426 5.67284 231.258 6.19653Z" fill="#FFDE55"/>
<path d="M10.0452 16.0756L1.21377 16.4803C1.11226 16.721 1.02483 16.9674 0.951924 17.2182L9.66429 16.7897C9.83092 16.5517 10.0452 16.3136 10.0452 16.0756Z" fill="#FFDE55"/>
<path d="M7.42676 27.9539L7.42676 26.3829C5.49861 28.2634 1.85657 31.2865 1.85657 31.2865L-0.404825 31.0961L-0.404825 32.0245L1.9756 32.2387L7.42676 27.9539Z" fill="#FFDE55"/>
<path d="M7.42676 59.5711L7.42676 58.0001C5.49861 59.8806 1.85657 62.9037 1.85657 62.9037L-0.404825 62.7133L-0.404825 63.6417L1.9756 63.8559L7.42676 59.5711Z" fill="#FFDE55"/>
<path d="M7.42676 45.8783C4.78674 45.9815 2.14632 45.6846 -0.404825 44.9976L-0.404825 46.1402C2.18964 46.5524 4.80364 46.8305 7.42676 46.9733L7.42676 45.8783Z" fill="#FFDE55"/>
<path d="M7.42676 77.4955C4.78674 77.5987 2.14632 77.3018 -0.404825 76.6148L-0.404825 77.7574C2.18964 78.1696 4.80364 78.4476 7.42676 78.5905L7.42676 77.4955Z" fill="#FFDE55"/>
</g>
<defs>
<filter id="filter0_d_27_7240" x="0" y="0.999939" width="430" height="89" filterUnits="userSpaceOnUse" color-interpolation-filters="sRGB">
<feFlood flood-opacity="0" result="BackgroundImageFix"/>
<feColorMatrix in="SourceAlpha" type="matrix" values="0 0 0 0 0 0 0 0 0 0 0 0 0 0 0 0 0 0 127 0" result="hardAlpha"/>
<feOffset dy="4"/>
<feComposite in2="hardAlpha" operator="out"/>
<feColorMatrix type="matrix" values="0 0 0 0 0.619608 0 0 0 0 0.25098 0 0 0 0 0 0 0 0 1 0"/>
<feBlend mode="normal" in2="BackgroundImageFix" result="effect1_dropShadow_27_7240"/>
<feBlend mode="normal" in="SourceGraphic" in2="effect1_dropShadow_27_7240" result="shape"/>
</filter>
<filter id="filter1_d_27_7240" x="-5" y="0.499939" width="439.5" height="90.5" filterUnits="userSpaceOnUse" color-interpolation-filters="sRGB">
<feFlood flood-opacity="0" result="BackgroundImageFix"/>
<feColorMatrix in="SourceAlpha" type="matrix" values="0 0 0 0 0 0 0 0 0 0 0 0 0 0 0 0 0 0 127 0" result="hardAlpha"/>
<feOffset dy="4"/>
<feGaussianBlur stdDeviation="2"/>
<feComposite in2="hardAlpha" operator="out"/>
<feColorMatrix type="matrix" values="0 0 0 0 0 0 0 0 0 0 0 0 0 0 0 0 0 0 0.25 0"/>
<feBlend mode="normal" in2="BackgroundImageFix" result="effect1_dropShadow_27_7240"/>
<feBlend mode="normal" in="SourceGraphic" in2="effect1_dropShadow_27_7240" result="shape"/>
</filter>
<filter id="filter2_d_27_7240" x="-4.40479" y="0.721619" width="438.405" height="88.2783" filterUnits="userSpaceOnUse" color-interpolation-filters="sRGB">
<feFlood flood-opacity="0" result="BackgroundImageFix"/>
<feColorMatrix in="SourceAlpha" type="matrix" values="0 0 0 0 0 0 0 0 0 0 0 0 0 0 0 0 0 0 127 0" result="hardAlpha"/>
<feOffset dy="4"/>
<feGaussianBlur stdDeviation="2"/>
<feComposite in2="hardAlpha" operator="out"/>
<feColorMatrix type="matrix" values="0 0 0 0 0 0 0 0 0 0 0 0 0 0 0 0 0 0 0.25 0"/>
<feBlend mode="normal" in2="BackgroundImageFix" result="effect1_dropShadow_27_7240"/>
<feBlend mode="normal" in="SourceGraphic" in2="effect1_dropShadow_27_7240" result="shape"/>
</filter>
<linearGradient id="paint0_linear_27_7240" x1="212.834" y1="54.9722" x2="212.834" y2="2.19815" gradientUnits="userSpaceOnUse">
<stop stop-color="#667E00"/>
<stop offset="0.68" stop-color="#A2C521"/>
<stop offset="1" stop-color="#5D6930"/>
</linearGradient>
<linearGradient id="paint1_linear_27_7240" x1="213.443" y1="58.4193" x2="213.443" y2="15.4724" gradientUnits="userSpaceOnUse">
<stop stop-color="#90C400"/>
<stop offset="0.73" stop-color="#FFFFA0"/>
</linearGradient>
<linearGradient id="paint2_linear_27_7240" x1="215.012" y1="2.23796" x2="215.012" y2="55.6147" gradientUnits="userSpaceOnUse">
<stop stop-color="#F0CA57"/>
<stop offset="1" stop-color="#D45B1A"/>
</linearGradient>
</defs>
</svg>
