<svg width="430" height="86" viewBox="0 0 430 86" fill="none" xmlns="http://www.w3.org/2000/svg">
<path d="M3.52316 86.9003L2.14252 29.1159C2.14225 26.5693 2.66507 24.0481 3.68058 21.6989C4.69609 19.3496 6.18401 17.2191 8.05787 15.4314C9.93173 13.6436 12.1541 12.2342 14.5959 11.285C17.0376 10.3359 19.6499 9.86598 22.2809 9.90263L403.339 9.90266C405.974 9.86296 408.59 10.3304 411.035 11.2779C413.481 12.2254 415.708 13.634 417.586 15.4218C419.465 17.2095 420.957 19.3408 421.976 21.6918C422.996 24.0427 423.523 26.5663 423.525 29.1159L423.525 86.9003L3.52316 86.9003Z" fill="url(#paint0_linear_4_5470)"/>
<path style="mix-blend-mode:multiply" opacity="0.7" d="M422 164L422 37.5872C421.967 32.3697 420.911 27.3881 419.06 23.7217C417.209 20.0554 414.713 17.9997 412.111 18.0001L17.889 18C15.2875 17.9996 12.7908 20.0553 10.9398 23.7216C9.08877 27.388 8.03254 32.3696 8.00002 37.5871L8.00001 164L422 164Z" fill="url(#paint1_linear_4_5470)"/>
<path d="M7.89363 71.5733L7.89363 30.8653C7.89363 20.5458 13.3786 9.88419 22.56 9.8842L404.268 9.88424C413.307 9.88424 422.13 20.2608 422.13 30.8654L422.13 71.5734L430 71.5734L430 32.7184C430 16.8685 417.718 2.3869 404.268 2.3869L22.5123 2.38686C9.873 2.38686 -3.03307e-06 15.7281 -4.21383e-06 32.7183L-6.91414e-06 71.5733L7.89363 71.5733Z" fill="#DB6D22"/>
<path d="M6.64331 88.0723V90.5442C6.84374 90.6392 7.06922 90.7343 7.26965 90.8294V88.0089L6.64331 88.104V88.0723ZM6.64331 71.6466V74.1185C6.84374 74.2136 7.06922 74.3086 7.26965 74.372V71.5515L6.64331 71.6466ZM6.64331 88.0723V90.5442C6.84374 90.6392 7.06922 90.7343 7.26965 90.8294V88.0089L6.64331 88.104V88.0723ZM6.64331 71.6466V74.1185C6.84374 74.2136 7.06922 74.3086 7.26965 74.372V71.5515L6.64331 71.6466ZM6.64331 88.0723V90.5442C6.84374 90.6392 7.06922 90.7343 7.26965 90.8294V88.0089L6.64331 88.104V88.0723ZM6.64331 71.6466V74.1185C6.84374 74.2136 7.06922 74.3086 7.26965 74.372V71.5515L6.64331 71.6466ZM6.64331 88.0723V90.5442C6.84374 90.6392 7.06922 90.7343 7.26965 90.8294V88.0089L6.64331 88.104V88.0723ZM6.64331 71.6466V74.1185C6.84374 74.2136 7.06922 74.3086 7.26965 74.372V71.5515L6.64331 71.6466ZM6.64331 88.0723V90.5442C6.84374 90.6392 7.06922 90.7343 7.26965 90.8294V88.0089L6.64331 88.104V88.0723ZM6.64331 71.6466V74.1185C6.84374 74.2136 7.06922 74.3086 7.26965 74.372V71.5515L6.64331 71.6466ZM6.64331 88.0723V90.5442C6.84374 90.6392 7.06922 90.7343 7.26965 90.8294V88.0089L6.64331 88.104V88.0723ZM6.64331 71.6466V74.1185C6.84374 74.2136 7.06922 74.3086 7.26965 74.372V71.5515L6.64331 71.6466ZM6.64331 88.0723V90.5442C6.84374 90.6392 7.06922 90.7343 7.26965 90.8294V88.0089L6.64331 88.104V88.0723ZM6.64331 71.6466V74.1185C6.84374 74.2136 7.06922 74.3086 7.26965 74.372V71.5515L6.64331 71.6466ZM6.64331 88.0723V90.5442C6.84374 90.6392 7.06922 90.7343 7.26965 90.8294V88.0089L6.64331 88.104V88.0723ZM6.64331 71.6466V74.1185C6.84374 74.2136 7.06922 74.3086 7.26965 74.372V71.5515L6.64331 71.6466ZM6.64331 88.0723V90.5442C6.84374 90.6392 7.06922 90.7343 7.26965 90.8294V88.0089L6.64331 88.104V88.0723ZM6.64331 71.6466V74.1185C6.84374 74.2136 7.06922 74.3086 7.26965 74.372V71.5515L6.64331 71.6466ZM6.64331 88.0723V90.5442C6.84374 90.6392 7.06922 90.7343 7.26965 90.8294V88.0089L6.64331 88.104V88.0723ZM6.64331 71.6466V74.1185C6.84374 74.2136 7.06922 74.3086 7.26965 74.372V71.5515L6.64331 71.6466ZM6.64331 88.0723V90.5442C6.84374 90.6392 7.06922 90.7343 7.26965 90.8294V88.0089L6.64331 88.104V88.0723ZM6.64331 71.6466V74.1185C6.84374 74.2136 7.06922 74.3086 7.26965 74.372V71.5515L6.64331 71.6466ZM6.64331 88.0723V90.5442C6.84374 90.6392 7.06922 90.7343 7.26965 90.8294V88.0089L6.64331 88.104V88.0723ZM6.64331 71.6466V74.1185C6.84374 74.2136 7.06922 74.3086 7.26965 74.372V71.5515L6.64331 71.6466ZM6.64331 88.0723V90.5442C6.84374 90.6392 7.06922 90.7343 7.26965 90.8294V88.0089L6.64331 88.104V88.0723ZM6.64331 71.6466V74.1185C6.84374 74.2136 7.06922 74.3086 7.26965 74.372V71.5515L6.64331 71.6466ZM6.64331 88.0723V90.5442C6.84374 90.6392 7.06922 90.7343 7.26965 90.8294V88.0089L6.64331 88.104V88.0723ZM6.64331 71.6466V74.1185C6.84374 74.2136 7.06922 74.3086 7.26965 74.372V71.5515L6.64331 71.6466ZM6.64331 88.0723V90.5442C6.84374 90.6392 7.06922 90.7343 7.26965 90.8294V88.0089L6.64331 88.104V88.0723ZM6.64331 71.6466V74.1185C6.84374 74.2136 7.06922 74.3086 7.26965 74.372V71.5515L6.64331 71.6466ZM6.64331 88.0723V90.5442C6.84374 90.6392 7.06922 90.7343 7.26965 90.8294V88.0089L6.64331 88.104V88.0723ZM6.64331 71.6466V74.1185C6.84374 74.2136 7.06922 74.3086 7.26965 74.372V71.5515L6.64331 71.6466ZM6.64331 88.0723V90.5442C6.84374 90.6392 7.06922 90.7343 7.26965 90.8294V88.0089L6.64331 88.104V88.0723ZM6.64331 71.6466V74.1185C6.84374 74.2136 7.06922 74.3086 7.26965 74.372V71.5515L6.64331 71.6466ZM6.64331 88.0723V90.5442C6.84374 90.6392 7.06922 90.7343 7.26965 90.8294V88.0089L6.64331 88.104V88.0723ZM6.64331 71.6466V74.1185C6.84374 74.2136 7.06922 74.3086 7.26965 74.372V71.5515L6.64331 71.6466ZM6.64331 88.0723V90.5442C6.84374 90.6392 7.06922 90.7343 7.26965 90.8294V88.0089L6.64331 88.104V88.0723ZM6.64331 71.6466V74.1185C6.84374 74.2136 7.06922 74.3086 7.26965 74.372V71.5515L6.64331 71.6466ZM6.64331 88.0723V90.5442C6.84374 90.6392 7.06922 90.7343 7.26965 90.8294V88.0089L6.64331 88.104V88.0723ZM6.64331 71.6466V74.1185C6.84374 74.2136 7.06922 74.3086 7.26965 74.372V71.5515L6.64331 71.6466ZM6.64331 88.0723V90.5442C6.84374 90.6392 7.06922 90.7343 7.26965 90.8294V88.0089L6.64331 88.104V88.0723ZM6.64331 71.6466V74.1185C6.84374 74.2136 7.06922 74.3086 7.26965 74.372V71.5515L6.64331 71.6466ZM6.64331 88.0723V90.5442C6.84374 90.6392 7.06922 90.7343 7.26965 90.8294V88.0089L6.64331 88.104V88.0723ZM6.64331 71.6466V74.1185C6.84374 74.2136 7.06922 74.3086 7.26965 74.372V71.5515L6.64331 71.6466ZM6.64331 88.0723V90.5442C6.84374 90.6392 7.06922 90.7343 7.26965 90.8294V88.0089L6.64331 88.104V88.0723ZM6.64331 71.6466V74.1185C6.84374 74.2136 7.06922 74.3086 7.26965 74.372V71.5515L6.64331 71.6466ZM6.64331 88.0723V90.5442C6.84374 90.6392 7.06922 90.7343 7.26965 90.8294V88.0089L6.64331 88.104V88.0723ZM6.64331 71.6466V74.1185C6.84374 74.2136 7.06922 74.3086 7.26965 74.372V71.5515L6.64331 71.6466ZM6.64331 88.0723V90.5442C6.84374 90.6392 7.06922 90.7343 7.26965 90.8294V88.0089L6.64331 88.104V88.0723ZM6.64331 71.6466V74.1185C6.84374 74.2136 7.06922 74.3086 7.26965 74.372V71.5515L6.64331 71.6466ZM6.64331 88.0723V90.5442C6.84374 90.6392 7.06922 90.7343 7.26965 90.8294V88.0089L6.64331 88.104V88.0723ZM6.64331 71.6466V74.1185C6.84374 74.2136 7.06922 74.3086 7.26965 74.372V71.5515L6.64331 71.6466ZM6.64331 88.0723V90.5442C6.84374 90.6392 7.06922 90.7343 7.26965 90.8294V88.0089L6.64331 88.104V88.0723ZM6.64331 71.6466V74.1185C6.84374 74.2136 7.06922 74.3086 7.26965 74.372V71.5515L6.64331 71.6466ZM6.64331 90.5442C6.84374 90.6392 7.06922 90.7343 7.26965 90.8294V88.0089L6.64331 88.104V90.5759V90.5442ZM6.64331 71.6466V74.1185C6.84374 74.2136 7.06922 74.3086 7.26965 74.372V71.5515L6.64331 71.6466ZM428.948 30.2362C427.469 23.8029 424.438 18.5422 420.304 14.9611C420.304 14.9611 420.287 14.9611 420.254 14.9611C418.851 13.7568 417.348 12.7427 415.719 11.9505C415.719 11.9505 415.694 11.9505 415.669 11.9505C412.863 10.6194 409.757 9.89055 406.374 9.89055H26.0347C23.3791 9.89055 20.6733 10.3342 18.0928 11.2216C16.1135 11.8871 14.2345 12.7744 12.4557 13.9153C9.09855 16.0386 6.09213 18.9542 3.81226 22.5986C3.31119 23.3592 2.86023 24.1515 2.43432 25.0072C0.455092 28.9051 -0.747477 33.5003 -0.922852 38.6977C-0.922852 39.078 -0.922852 39.4582 -0.922852 39.8702V113.122C-0.922852 113.851 -0.922852 114.58 -0.847691 115.309C-0.797584 116.323 -0.69737 117.274 -0.547049 118.256C-0.071032 121.679 0.855948 124.943 2.18378 128.017C2.58464 128.968 3.0356 129.887 3.51162 130.806C8.47222 140.186 17.0155 146.81 26.0848 146.81H406.374C409.205 146.81 411.886 146.144 414.392 144.908C415.394 144.401 416.321 143.831 417.248 143.134C423.21 138.824 427.62 131.028 429.273 121.52C429.424 120.76 429.524 119.968 429.599 119.175C429.85 117.211 429.975 115.214 429.975 113.122V39.8385C429.975 36.4159 429.599 33.2151 428.923 30.2362H428.948ZM7.44502 115.816C7.39492 115.594 7.39492 115.404 7.36986 115.182C7.31976 114.517 7.26965 113.82 7.26965 113.122V39.8385C7.26965 38.9829 7.31976 38.2223 7.39492 37.43C7.92104 32.6447 10.0506 28.715 12.9818 25.7994C13.6583 25.1339 14.3598 24.5318 15.1114 23.993C18.3684 21.5845 22.2517 20.2852 26.0097 20.2852H406.374C413.74 20.2852 418.926 24.7853 420.855 32.4545C421.432 34.6729 421.732 37.1448 421.732 39.8385V113.122C421.732 115.309 421.507 117.527 421.106 119.651C420.956 120.475 420.78 121.267 420.555 122.028C418.425 129.95 413.439 136.352 406.349 136.352H26.0347C22.3769 136.352 18.7442 134.641 15.6876 131.852C11.8294 128.366 8.82297 123.2 7.74566 117.654C7.6204 117.02 7.52018 116.418 7.44502 115.784V115.816ZM6.64331 71.6466V74.1185C6.84374 74.2136 7.06922 74.3086 7.26965 74.372V71.5515L6.64331 71.6466ZM6.64331 88.0723V90.5442C6.84374 90.6392 7.06922 90.7343 7.26965 90.8294V88.0089L6.64331 88.104V88.0723ZM6.64331 71.6466V74.1185C6.84374 74.2136 7.06922 74.3086 7.26965 74.372V71.5515L6.64331 71.6466ZM6.64331 88.0723V90.5442C6.84374 90.6392 7.06922 90.7343 7.26965 90.8294V88.0089L6.64331 88.104V88.0723ZM6.64331 71.6466V74.1185C6.84374 74.2136 7.06922 74.3086 7.26965 74.372V71.5515L6.64331 71.6466ZM6.64331 88.0723V90.5442C6.84374 90.6392 7.06922 90.7343 7.26965 90.8294V88.0089L6.64331 88.104V88.0723ZM6.64331 71.6466V74.1185C6.84374 74.2136 7.06922 74.3086 7.26965 74.372V71.5515L6.64331 71.6466ZM6.64331 88.0723V90.5442C6.84374 90.6392 7.06922 90.7343 7.26965 90.8294V88.0089L6.64331 88.104V88.0723ZM6.64331 71.6466V74.1185C6.84374 74.2136 7.06922 74.3086 7.26965 74.372V71.5515L6.64331 71.6466ZM6.64331 88.0723V90.5442C6.84374 90.6392 7.06922 90.7343 7.26965 90.8294V88.0089L6.64331 88.104V88.0723ZM6.64331 71.6466V74.1185C6.84374 74.2136 7.06922 74.3086 7.26965 74.372V71.5515L6.64331 71.6466ZM6.64331 88.0723V90.5442C6.84374 90.6392 7.06922 90.7343 7.26965 90.8294V88.0089L6.64331 88.104V88.0723ZM6.64331 71.6466V74.1185C6.84374 74.2136 7.06922 74.3086 7.26965 74.372V71.5515L6.64331 71.6466ZM6.64331 88.0723V90.5442C6.84374 90.6392 7.06922 90.7343 7.26965 90.8294V88.0089L6.64331 88.104V88.0723ZM6.64331 71.6466V74.1185C6.84374 74.2136 7.06922 74.3086 7.26965 74.372V71.5515L6.64331 71.6466ZM6.64331 88.0723V90.5442C6.84374 90.6392 7.06922 90.7343 7.26965 90.8294V88.0089L6.64331 88.104V88.0723ZM6.64331 71.6466V74.1185C6.84374 74.2136 7.06922 74.3086 7.26965 74.372V71.5515L6.64331 71.6466ZM6.64331 88.0723V90.5442C6.84374 90.6392 7.06922 90.7343 7.26965 90.8294V88.0089L6.64331 88.104V88.0723ZM6.64331 71.6466V74.1185C6.84374 74.2136 7.06922 74.3086 7.26965 74.372V71.5515L6.64331 71.6466ZM6.64331 88.0723V90.5442C6.84374 90.6392 7.06922 90.7343 7.26965 90.8294V88.0089L6.64331 88.104V88.0723ZM6.64331 71.6466V74.1185C6.84374 74.2136 7.06922 74.3086 7.26965 74.372V71.5515L6.64331 71.6466ZM6.64331 88.0723V90.5442C6.84374 90.6392 7.06922 90.7343 7.26965 90.8294V88.0089L6.64331 88.104V88.0723ZM6.64331 71.6466V74.1185C6.84374 74.2136 7.06922 74.3086 7.26965 74.372V71.5515L6.64331 71.6466ZM6.64331 88.0723V90.5442C6.84374 90.6392 7.06922 90.7343 7.26965 90.8294V88.0089L6.64331 88.104V88.0723ZM6.64331 71.6466V74.1185C6.84374 74.2136 7.06922 74.3086 7.26965 74.372V71.5515L6.64331 71.6466ZM6.64331 88.0723V90.5442C6.84374 90.6392 7.06922 90.7343 7.26965 90.8294V88.0089L6.64331 88.104V88.0723ZM6.64331 71.6466V74.1185C6.84374 74.2136 7.06922 74.3086 7.26965 74.372V71.5515L6.64331 71.6466ZM6.64331 88.0723V90.5442C6.84374 90.6392 7.06922 90.7343 7.26965 90.8294V88.0089L6.64331 88.104V88.0723ZM6.64331 71.6466V74.1185C6.84374 74.2136 7.06922 74.3086 7.26965 74.372V71.5515L6.64331 71.6466ZM6.64331 88.0723V90.5442C6.84374 90.6392 7.06922 90.7343 7.26965 90.8294V88.0089L6.64331 88.104V88.0723ZM6.64331 71.6466V74.1185C6.84374 74.2136 7.06922 74.3086 7.26965 74.372V71.5515L6.64331 71.6466ZM6.64331 88.0723V90.5442C6.84374 90.6392 7.06922 90.7343 7.26965 90.8294V88.0089L6.64331 88.104V88.0723ZM6.64331 71.6466V74.1185C6.84374 74.2136 7.06922 74.3086 7.26965 74.372V71.5515L6.64331 71.6466ZM6.64331 88.0723V90.5442C6.84374 90.6392 7.06922 90.7343 7.26965 90.8294V88.0089L6.64331 88.104V88.0723ZM6.64331 71.6466V74.1185C6.84374 74.2136 7.06922 74.3086 7.26965 74.372V71.5515L6.64331 71.6466ZM6.64331 88.0723V90.5442C6.84374 90.6392 7.06922 90.7343 7.26965 90.8294V88.0089L6.64331 88.104V88.0723ZM6.64331 71.6466V74.1185C6.84374 74.2136 7.06922 74.3086 7.26965 74.372V71.5515L6.64331 71.6466ZM6.64331 88.0723V90.5442C6.84374 90.6392 7.06922 90.7343 7.26965 90.8294V88.0089L6.64331 88.104V88.0723ZM6.64331 71.6466V74.1185C6.84374 74.2136 7.06922 74.3086 7.26965 74.372V71.5515L6.64331 71.6466ZM6.64331 88.0723V90.5442C6.84374 90.6392 7.06922 90.7343 7.26965 90.8294V88.0089L6.64331 88.104V88.0723ZM6.64331 71.6466V74.1185C6.84374 74.2136 7.06922 74.3086 7.26965 74.372V71.5515L6.64331 71.6466ZM6.64331 88.0723V90.5442C6.84374 90.6392 7.06922 90.7343 7.26965 90.8294V88.0089L6.64331 88.104V88.0723ZM6.64331 71.6466V74.1185C6.84374 74.2136 7.06922 74.3086 7.26965 74.372V71.5515L6.64331 71.6466ZM6.64331 88.0723V90.5442C6.84374 90.6392 7.06922 90.7343 7.26965 90.8294V88.0089L6.64331 88.104V88.0723ZM6.64331 71.6466V74.1185C6.84374 74.2136 7.06922 74.3086 7.26965 74.372V71.5515L6.64331 71.6466ZM6.64331 88.0723V90.5442C6.84374 90.6392 7.06922 90.7343 7.26965 90.8294V88.0089L6.64331 88.104V88.0723ZM6.64331 71.6466V74.1185C6.84374 74.2136 7.06922 74.3086 7.26965 74.372V71.5515L6.64331 71.6466ZM6.64331 88.0723V90.5442C6.84374 90.6392 7.06922 90.7343 7.26965 90.8294V88.0089L6.64331 88.104V88.0723ZM6.64331 71.6466V74.1185C6.84374 74.2136 7.06922 74.3086 7.26965 74.372V71.5515L6.64331 71.6466ZM6.64331 88.0723V90.5442C6.84374 90.6392 7.06922 90.7343 7.26965 90.8294V88.0089L6.64331 88.104V88.0723ZM6.64331 71.6466V74.1185C6.84374 74.2136 7.06922 74.3086 7.26965 74.372V71.5515L6.64331 71.6466ZM6.64331 88.0723V90.5442C6.84374 90.6392 7.06922 90.7343 7.26965 90.8294V88.0089L6.64331 88.104V88.0723ZM6.64331 71.6466V74.1185C6.84374 74.2136 7.06922 74.3086 7.26965 74.372V71.5515L6.64331 71.6466ZM6.64331 88.0723V90.5442C6.84374 90.6392 7.06922 90.7343 7.26965 90.8294V88.0089L6.64331 88.104V88.0723Z" fill="#9E4000" fill-opacity="0.3"/>
<g filter="url(#filter0_d_4_5470)">
<path d="M7.89362 40.6909L7.89362 38.1153L7.29749 38.7143L7.29749 40.661L7.89362 40.6909ZM239.191 8.79575L245.749 9.33484L248.61 9.57442L251.352 9.78406L255.907 10.1135L258.673 10.3231L259.794 10.3231L265.111 10.6825C265.969 10.6825 266.828 10.6825 267.662 10.8622L305.218 10.8622C305.036 10.8476 304.853 10.8476 304.67 10.8622L302.095 10.4729L300.593 10.2333L295.204 9.45463L284.521 7.80746L228.342 7.80745C231.847 8.13689 235.495 8.49627 239.167 8.79575L239.191 8.79575ZM7.89362 40.6909L7.89362 38.1153L7.29749 38.7143L7.29749 40.661L7.89362 40.6909ZM239.191 8.79575L245.749 9.33484L248.61 9.57442L251.352 9.78406L255.907 10.1135L258.673 10.3231L259.794 10.3231L265.111 10.6825C265.969 10.6825 266.828 10.6825 267.662 10.8622L305.218 10.8622C305.036 10.8476 304.853 10.8476 304.67 10.8622L302.095 10.4729L300.593 10.2333L295.204 9.45463L284.521 7.80746L228.342 7.80745C231.847 8.13689 235.495 8.49627 239.167 8.79575L239.191 8.79575ZM7.89362 40.6909L7.89362 38.1153L7.29749 38.7143L7.29749 40.661L7.89362 40.6909ZM239.191 8.79575L245.749 9.33484L248.61 9.57442L251.352 9.78406L255.907 10.1135L258.673 10.3231L259.794 10.3231L265.111 10.6825C265.969 10.6825 266.828 10.6825 267.662 10.8622L305.218 10.8622C305.036 10.8476 304.853 10.8476 304.67 10.8622L302.095 10.4729L300.593 10.2333L295.204 9.45463L284.521 7.80746L228.342 7.80745C231.847 8.13689 235.495 8.49627 239.167 8.79575L239.191 8.79575ZM7.89362 40.6909L7.89362 38.1153L7.29749 38.7143L7.29749 40.661L7.89362 40.6909ZM239.191 8.79575L245.749 9.33484L248.61 9.57442L251.352 9.78406L255.907 10.1135L258.673 10.3231L259.794 10.3231L265.111 10.6825C265.969 10.6825 266.828 10.6825 267.662 10.8622L305.218 10.8622C305.036 10.8476 304.853 10.8476 304.67 10.8622L302.095 10.4729L300.593 10.2333L295.204 9.45463L284.521 7.80746L228.342 7.80745C231.847 8.13689 235.495 8.49627 239.167 8.79575L239.191 8.79575ZM7.89362 40.6909L7.89362 38.1153L7.29749 38.7143L7.29749 40.661L7.89362 40.6909ZM239.191 8.79575L245.749 9.33484L248.61 9.57442L251.352 9.78406L255.907 10.1135L258.673 10.3231L259.794 10.3231L265.111 10.6825C265.969 10.6825 266.828 10.6825 267.662 10.8622L305.218 10.8622C305.036 10.8476 304.853 10.8476 304.67 10.8622L302.095 10.4729L300.593 10.2333L295.204 9.45463L284.521 7.80746L228.342 7.80745C231.847 8.13689 235.495 8.49627 239.167 8.79575L239.191 8.79575ZM7.89362 40.6909L7.89362 38.1153L7.29749 38.7143L7.29749 40.661L7.89362 40.6909ZM239.191 8.79575L245.749 9.33484L248.61 9.57442L251.352 9.78406L255.907 10.1135L258.673 10.3231L259.794 10.3231L265.111 10.6825C265.969 10.6825 266.828 10.6825 267.662 10.8622L305.218 10.8622C305.036 10.8476 304.853 10.8476 304.67 10.8622L302.095 10.4729L300.593 10.2333L295.204 9.45463L284.521 7.80746L228.342 7.80745C231.847 8.13689 235.495 8.49627 239.167 8.79575L239.191 8.79575ZM7.89362 40.6909L7.89362 38.1153L7.29749 38.7143L7.29749 40.661L7.89362 40.6909ZM239.191 8.79575L245.749 9.33484L248.61 9.57442L251.352 9.78406L255.907 10.1135L258.673 10.3231L259.794 10.3231L265.111 10.6825C265.969 10.6825 266.828 10.6825 267.662 10.8622L305.218 10.8622C305.036 10.8476 304.853 10.8476 304.67 10.8622L302.095 10.4729L300.593 10.2333L295.204 9.45463L284.521 7.80746L228.342 7.80745C231.847 8.13689 235.495 8.49627 239.167 8.79575L239.191 8.79575ZM7.89362 40.6909L7.89362 38.1153L7.29749 38.7143L7.29749 40.661L7.89362 40.6909ZM239.191 8.79575L245.749 9.33484L248.61 9.57442L251.352 9.78406L255.907 10.1135L258.673 10.3231L259.794 10.3231L265.111 10.6825C265.969 10.6825 266.828 10.6825 267.662 10.8622L305.218 10.8622C305.036 10.8476 304.853 10.8476 304.67 10.8622L302.095 10.4729L300.593 10.2333L295.204 9.45463L284.521 7.80746L228.342 7.80745C231.847 8.13689 235.495 8.49627 239.167 8.79575L239.191 8.79575ZM7.89362 40.6909L7.89362 38.1153L7.29749 38.7143L7.29749 40.661L7.89362 40.6909ZM239.191 8.79575L245.749 9.33484L248.61 9.57442L251.352 9.78406L255.907 10.1135L258.673 10.3231L259.794 10.3231L265.111 10.6825C265.969 10.6825 266.828 10.6825 267.662 10.8622L305.218 10.8622C305.036 10.8476 304.853 10.8476 304.67 10.8622L302.095 10.4729L300.593 10.2333L295.204 9.45463L284.521 7.80746L228.342 7.80745C231.847 8.13689 235.495 8.49627 239.167 8.79575L239.191 8.79575ZM7.89362 40.6909L7.89362 38.1153L7.29749 38.7143L7.29749 40.661L7.89362 40.6909ZM239.191 8.79575L245.749 9.33484L248.61 9.57442L251.352 9.78406L255.907 10.1135L258.673 10.3231L259.794 10.3231L265.111 10.6825C265.969 10.6825 266.828 10.6825 267.662 10.8622L305.218 10.8622C305.036 10.8476 304.853 10.8476 304.67 10.8622L302.095 10.4729L300.593 10.2333L295.204 9.45463L284.521 7.80746L228.342 7.80745C231.847 8.13689 235.495 8.49627 239.167 8.79575L239.191 8.79575ZM7.89362 40.6909L7.89362 38.1153L7.29749 38.7143L7.29749 40.661L7.89362 40.6909ZM239.191 8.79575L245.749 9.33484L248.61 9.57442L251.352 9.78406L255.907 10.1135L258.673 10.3231L259.794 10.3231L265.111 10.6825C265.969 10.6825 266.828 10.6825 267.662 10.8622L305.218 10.8622C305.036 10.8476 304.853 10.8476 304.67 10.8622L302.095 10.4729L300.593 10.2333L295.204 9.45463L284.521 7.80746L228.342 7.80745C231.847 8.13689 235.495 8.49627 239.167 8.79575L239.191 8.79575ZM7.89362 40.6909L7.89362 38.1153L7.29749 38.7143L7.29749 40.661L7.89362 40.6909ZM239.191 8.79575L245.749 9.33484L248.61 9.57442L251.352 9.78406L255.907 10.1135L258.673 10.3231L259.794 10.3231L265.111 10.6825C265.969 10.6825 266.828 10.6825 267.662 10.8622L305.218 10.8622C305.036 10.8476 304.853 10.8476 304.67 10.8622L302.095 10.4729L300.593 10.2333L295.204 9.45463L284.521 7.80746L228.342 7.80745C231.847 8.13689 235.495 8.49627 239.167 8.79575L239.191 8.79575ZM7.89362 40.6909L7.89362 38.1153L7.29749 38.7143L7.29749 40.661L7.89362 40.6909ZM239.191 8.79575L245.749 9.33484L248.61 9.57442L251.352 9.78406L255.907 10.1135L258.673 10.3231L259.794 10.3231L265.111 10.6825C265.969 10.6825 266.828 10.6825 267.662 10.8622L305.218 10.8622C305.036 10.8476 304.853 10.8476 304.67 10.8622L302.095 10.4729L300.593 10.2333L295.204 9.45463L284.521 7.80746L228.342 7.80745C231.847 8.13689 235.495 8.49627 239.167 8.79575L239.191 8.79575ZM7.89362 40.6909L7.89362 38.1153L7.29749 38.7143L7.29749 40.661L7.89362 40.6909ZM239.191 8.79575L245.749 9.33484L248.61 9.57442L251.352 9.78406L255.907 10.1135L258.673 10.3231L259.794 10.3231L265.111 10.6825C265.969 10.6825 266.828 10.6825 267.662 10.8622L305.218 10.8622C305.036 10.8476 304.853 10.8476 304.67 10.8622L302.095 10.4729L300.593 10.2333L295.204 9.45463L284.521 7.80746L228.342 7.80745C231.847 8.13689 235.495 8.49627 239.167 8.79575L239.191 8.79575ZM7.89362 40.6909L7.89362 38.1153L7.29749 38.7143L7.29749 40.661L7.89362 40.6909ZM239.191 8.79575L245.749 9.33484L248.61 9.57442L251.352 9.78406L255.907 10.1135L258.673 10.3231L259.794 10.3231L265.111 10.6825C265.969 10.6825 266.828 10.6825 267.662 10.8622L305.218 10.8622C305.036 10.8476 304.853 10.8476 304.67 10.8622L302.095 10.4729L300.593 10.2333L295.204 9.45463L284.521 7.80746L228.342 7.80745C231.847 8.13689 235.495 8.49627 239.167 8.79575L239.191 8.79575ZM7.89362 40.6909L7.89362 38.1153L7.29749 38.7143L7.29749 40.661L7.89362 40.6909ZM239.191 8.79575L245.749 9.33484L248.61 9.57442L251.352 9.78406L255.907 10.1135L258.673 10.3231L259.794 10.3231L265.111 10.6825C265.969 10.6825 266.828 10.6825 267.662 10.8622L305.218 10.8622C305.036 10.8476 304.853 10.8476 304.67 10.8622L302.095 10.4729L300.593 10.2333L295.204 9.45463L284.521 7.80746L228.342 7.80745C231.847 8.13689 235.495 8.49627 239.167 8.79575L239.191 8.79575ZM7.89362 40.6909L7.89362 38.1153L7.29749 38.7143L7.29749 40.661L7.89362 40.6909ZM239.191 8.79575L245.749 9.33484L248.61 9.57442L251.352 9.78406L255.907 10.1135L258.673 10.3231L259.794 10.3231L265.111 10.6825C265.969 10.6825 266.828 10.6825 267.662 10.8622L305.218 10.8622C305.036 10.8476 304.853 10.8476 304.67 10.8622L302.095 10.4729L300.593 10.2333L295.204 9.45463L284.521 7.80746L228.342 7.80745C231.847 8.13689 235.495 8.49627 239.167 8.79575L239.191 8.79575ZM7.89362 40.6909L7.89362 38.1153L7.29749 38.7143L7.29749 40.661L7.89362 40.6909ZM239.191 8.79575L245.749 9.33484L248.61 9.57442L251.352 9.78406L255.907 10.1135L258.673 10.3231L259.794 10.3231L265.111 10.6825C265.969 10.6825 266.828 10.6825 267.662 10.8622L305.218 10.8622C305.036 10.8476 304.853 10.8476 304.67 10.8622L302.095 10.4729L300.593 10.2333L295.204 9.45463L284.521 7.80746L228.342 7.80745C231.847 8.13689 235.495 8.49627 239.167 8.79575L239.191 8.79575ZM7.89362 40.6909L7.89362 38.1153L7.29749 38.7143L7.29749 40.661L7.89362 40.6909ZM239.191 8.79575L245.749 9.33484L248.61 9.57442L251.352 9.78406L255.907 10.1135L258.673 10.3231L259.794 10.3231L265.111 10.6825C265.969 10.6825 266.828 10.6825 267.662 10.8622L305.218 10.8622C305.036 10.8476 304.853 10.8476 304.67 10.8622L302.095 10.4729L300.593 10.2333L295.204 9.45463L284.521 7.80746L228.342 7.80745C231.847 8.13689 235.495 8.49627 239.167 8.79575L239.191 8.79575ZM7.89362 40.6909L7.89362 38.1153L7.29749 38.7143L7.29749 40.661L7.89362 40.6909ZM239.191 8.79575L245.749 9.33484L248.61 9.57442L251.352 9.78406L255.907 10.1135L258.673 10.3231L259.794 10.3231L265.111 10.6825C265.969 10.6825 266.828 10.6825 267.662 10.8622L305.218 10.8622C305.036 10.8476 304.853 10.8476 304.67 10.8622L302.095 10.4729L300.593 10.2333L295.204 9.45463L284.521 7.80746L228.342 7.80745C231.847 8.13689 235.495 8.49627 239.167 8.79575L239.191 8.79575ZM7.89362 40.6909L7.89362 38.1153L7.29749 38.7143L7.29749 40.661L7.89362 40.6909ZM239.191 8.79575L245.749 9.33484L248.61 9.57442L251.352 9.78406L255.907 10.1135L258.673 10.3231L259.794 10.3231L265.111 10.6825C265.969 10.6825 266.828 10.6825 267.662 10.8622L305.218 10.8622C305.036 10.8476 304.853 10.8476 304.67 10.8622L302.095 10.4729L300.593 10.2333L295.204 9.45463L284.521 7.80746L228.342 7.80745C231.847 8.13689 235.495 8.49627 239.167 8.79575L239.191 8.79575ZM7.89362 40.6909L7.89362 38.1153L7.29749 38.7143L7.29749 40.661L7.89362 40.6909ZM239.191 8.79575L245.749 9.33484L248.61 9.57442L251.352 9.78406L255.907 10.1135L258.673 10.3231L259.794 10.3231L265.111 10.6825C265.969 10.6825 266.828 10.6825 267.662 10.8622L305.218 10.8622C305.036 10.8476 304.853 10.8476 304.67 10.8622L302.095 10.4729L300.593 10.2333L295.204 9.45463L284.521 7.80746L228.342 7.80745C231.847 8.13689 235.495 8.49627 239.167 8.79575L239.191 8.79575ZM7.89362 40.6909L7.89362 38.1153L7.29749 38.7143L7.29749 40.661L7.89362 40.6909ZM239.191 8.79575L245.749 9.33484L248.61 9.57442L251.352 9.78406L255.907 10.1135L258.673 10.3231L259.794 10.3231L265.111 10.6825C265.969 10.6825 266.828 10.6825 267.662 10.8622L305.218 10.8622C305.036 10.8476 304.853 10.8476 304.67 10.8622L302.095 10.4729L300.593 10.2333L295.204 9.45463L284.521 7.80746L228.342 7.80745C231.847 8.13689 235.495 8.49627 239.167 8.79575L239.191 8.79575ZM7.89362 40.6909L7.89362 38.1153L7.29749 38.7143L7.29749 40.661L7.89362 40.6909ZM239.191 8.79575L245.749 9.33484L248.61 9.57442L251.352 9.78406L255.907 10.1135L258.673 10.3231L259.794 10.3231L265.111 10.6825C265.969 10.6825 266.828 10.6825 267.662 10.8622L305.218 10.8622C305.036 10.8476 304.853 10.8476 304.67 10.8622L302.095 10.4729L300.593 10.2333L295.204 9.45463L284.521 7.80746L228.342 7.80745C231.847 8.13689 235.495 8.49627 239.167 8.79575L239.191 8.79575ZM7.89362 40.6909L7.89362 38.1153L7.29749 38.7143L7.29749 40.661L7.89362 40.6909ZM239.191 8.79575L245.749 9.33484L248.61 9.57442L251.352 9.78406L255.907 10.1135L258.673 10.3231L259.794 10.3231L265.111 10.6825C265.969 10.6825 266.828 10.6825 267.662 10.8622L305.218 10.8622C305.036 10.8476 304.853 10.8476 304.67 10.8622L302.095 10.4729L300.593 10.2333L295.204 9.45463L284.521 7.80746L228.342 7.80745C231.847 8.13689 235.495 8.49627 239.167 8.79575L239.191 8.79575ZM7.89362 40.6909L7.89362 38.1153L7.29749 38.7143L7.29749 40.661L7.89362 40.6909ZM239.191 8.79575L245.749 9.33484L248.61 9.57442L251.352 9.78406L255.907 10.1135L258.673 10.3231L259.794 10.3231L265.111 10.6825C265.969 10.6825 266.828 10.6825 267.662 10.8622L305.218 10.8622C305.036 10.8476 304.853 10.8476 304.67 10.8622L302.095 10.4729L300.593 10.2333L295.204 9.45463L284.521 7.80746L228.342 7.80745C231.847 8.13689 235.495 8.49627 239.167 8.79575L239.191 8.79575ZM7.89362 40.6909L7.89362 38.1153L7.29749 38.7143L7.29749 40.661L7.89362 40.6909ZM239.191 8.79575L245.749 9.33484L248.61 9.57442L251.352 9.78406L255.907 10.1135L258.673 10.3231L259.794 10.3231L265.111 10.6825C265.969 10.6825 266.828 10.6825 267.662 10.8622L305.218 10.8622C305.036 10.8476 304.853 10.8476 304.67 10.8622L302.095 10.4729L300.593 10.2333L295.204 9.45463L284.521 7.80746L228.342 7.80745C231.847 8.13689 235.495 8.49627 239.167 8.79575L239.191 8.79575ZM239.191 8.79575L245.749 9.33484L248.61 9.57442L251.352 9.78406L255.907 10.1135L258.673 10.3231L259.794 10.3231L265.111 10.6825C265.969 10.6825 266.828 10.6825 267.662 10.8622L305.218 10.8622C305.036 10.8476 304.853 10.8476 304.67 10.8622L302.095 10.4729L300.593 10.2333L295.204 9.45463L284.521 7.80746L228.342 7.80745C231.847 8.13689 235.495 8.49627 239.167 8.79575L239.191 8.79575ZM243.96 8.79576L244.962 8.79576L245.2 8.79576L246.416 8.79576L247.156 8.79576C250.947 9.12519 255.454 9.57443 259.46 9.96376L259.841 9.96376L262.536 10.2632L264.92 10.5028L268.33 10.5028L233.445 7.35822L232.276 7.35822L243.96 8.79576ZM243.96 8.79576L244.962 8.79576L245.2 8.79576L246.416 8.79576L247.156 8.79576C250.947 9.12519 255.454 9.57443 259.46 9.96376L259.841 9.96376L262.536 10.2632L264.92 10.5028L268.33 10.5028L233.445 7.35822L232.276 7.35822L243.96 8.79576ZM243.96 8.79576L244.962 8.79576L245.2 8.79576L246.416 8.79576L247.156 8.79576C250.947 9.12519 255.454 9.57443 259.46 9.96376L259.841 9.96376L262.536 10.2632L264.92 10.5028L268.33 10.5028L233.445 7.35822L232.276 7.35822L243.96 8.79576ZM243.96 8.79576L244.962 8.79576L245.2 8.79576L246.416 8.79576L247.156 8.79576C250.947 9.12519 255.454 9.57443 259.46 9.96376L259.841 9.96376L262.536 10.2632L264.92 10.5028L268.33 10.5028L233.445 7.35822L232.276 7.35822L243.96 8.79576ZM243.96 8.79576L244.962 8.79576L245.2 8.79576L246.416 8.79576L247.156 8.79576C250.947 9.12519 255.454 9.57443 259.46 9.96376L259.841 9.96376L262.536 10.2632L264.92 10.5028L268.33 10.5028L233.445 7.35822L232.276 7.35822L243.96 8.79576ZM243.96 8.79576L244.962 8.79576L245.2 8.79576L246.416 8.79576L247.156 8.79576C250.947 9.12519 255.454 9.57443 259.46 9.96376L259.841 9.96376L262.536 10.2632L264.92 10.5028L268.33 10.5028L233.445 7.35822L232.276 7.35822L243.96 8.79576ZM243.96 8.79576L244.962 8.79576L245.2 8.79576L246.416 8.79576L247.156 8.79576C250.947 9.12519 255.454 9.57443 259.46 9.96376L259.841 9.96376L262.536 10.2632L264.92 10.5028L268.33 10.5028L233.445 7.35822L232.276 7.35822L243.96 8.79576ZM243.96 8.79576L244.962 8.79576L245.2 8.79576L246.416 8.79576L247.156 8.79576C250.947 9.12519 255.454 9.57443 259.46 9.96376L259.841 9.96376L262.536 10.2632L264.92 10.5028L268.33 10.5028L233.445 7.35822L232.276 7.35822L243.96 8.79576ZM7.89362 107.934L7.89362 32.9342C7.90658 29.6992 8.38316 26.4935 9.30051 23.4705C9.53637 22.703 9.80705 21.953 10.1112 21.2244C10.1112 20.9249 10.3497 20.6254 10.4928 20.3259C11.6242 17.5673 13.331 15.2464 15.4309 13.6112C17.5308 11.9761 19.9449 11.088 22.4153 11.0419L404.271 11.0419C407.682 11.2693 410.981 12.6427 413.825 15.0185C416.669 17.3944 418.953 20.6857 420.438 24.5487C420.653 24.7284 420.653 25.0878 420.82 25.3573C420.815 25.4171 420.815 25.4772 420.82 25.537C421.011 26.0839 421.178 26.6438 421.32 27.2141C421.365 27.428 421.421 27.6381 421.487 27.843C421.875 29.4966 422.076 31.2105 422.083 32.9343L422.083 108.054L430 108.054L430 32.9343C430 31.9759 430 31.0475 429.881 30.1191C429.834 29.3323 429.738 28.5513 429.595 27.7831C429.517 27.1679 429.413 26.5581 429.285 25.9563C429.285 25.5969 429.142 25.2675 429.046 24.9081C428.238 21.4709 426.973 18.2305 425.303 15.3246C424.754 14.3962 424.182 13.4677 423.562 12.5693L423.252 12.15L422.632 11.3115L422.322 10.9221C417.569 4.79591 411.081 1.27607 404.271 1.12895L22.4392 1.12891L21.1754 1.12891C19.4301 1.24537 17.7056 1.65843 16.0487 2.3568C12.6783 3.81793 9.62242 6.23795 7.11988 9.4278C4.61734 12.6176 2.73585 16.491 1.62238 20.7452C1.52069 21.048 1.43311 21.358 1.36008 21.6736C1.16932 22.3924 1.02629 23.1411 0.883215 23.8898C0.278106 26.8234 -0.0185604 29.844 0.000890234 32.8743L0.00088501 108.054L7.89362 107.934ZM243.96 8.79576L244.962 8.79576L245.2 8.79576L246.416 8.79576L247.156 8.79576C250.947 9.12519 255.454 9.57443 259.46 9.96376L259.841 9.96376L262.536 10.2632L264.92 10.5028L268.33 10.5028L233.445 7.35822L232.276 7.35822L243.96 8.79576ZM243.96 8.79576L244.962 8.79576L245.2 8.79576L246.416 8.79576L247.156 8.79576C250.947 9.12519 255.454 9.57443 259.46 9.96376L259.841 9.96376L262.536 10.2632L264.92 10.5028L268.33 10.5028L233.445 7.35822L232.276 7.35822L243.96 8.79576ZM243.96 8.79576L244.962 8.79576L245.2 8.79576L246.416 8.79576L247.156 8.79576C250.947 9.12519 255.454 9.57443 259.46 9.96376L259.841 9.96376L262.536 10.2632L264.92 10.5028L268.33 10.5028L233.445 7.35822L232.276 7.35822L243.96 8.79576ZM243.96 8.79576L244.962 8.79576L245.2 8.79576L246.416 8.79576L247.156 8.79576C250.947 9.12519 255.454 9.57443 259.46 9.96376L259.841 9.96376L262.536 10.2632L264.92 10.5028L268.33 10.5028L233.445 7.35822L232.276 7.35822L243.96 8.79576ZM243.96 8.79576L244.962 8.79576L245.2 8.79576L246.416 8.79576L247.156 8.79576C250.947 9.12519 255.454 9.57443 259.46 9.96376L259.841 9.96376L262.536 10.2632L264.92 10.5028L268.33 10.5028L233.445 7.35822L232.276 7.35822L243.96 8.79576ZM243.96 8.79576L244.962 8.79576L245.2 8.79576L246.416 8.79576L247.156 8.79576C250.947 9.12519 255.454 9.57443 259.46 9.96376L259.841 9.96376L262.536 10.2632L264.92 10.5028L268.33 10.5028L233.445 7.35822L232.276 7.35822L243.96 8.79576ZM243.96 8.79576L244.962 8.79576L245.2 8.79576L246.416 8.79576L247.156 8.79576C250.947 9.12519 255.454 9.57443 259.46 9.96376L259.841 9.96376L262.536 10.2632L264.92 10.5028L268.33 10.5028L233.445 7.35822L232.276 7.35822L243.96 8.79576ZM243.96 8.79576L244.962 8.79576L245.2 8.79576L246.416 8.79576L247.156 8.79576C250.947 9.12519 255.454 9.57443 259.46 9.96376L259.841 9.96376L262.536 10.2632L264.92 10.5028L268.33 10.5028L233.445 7.35822L232.276 7.35822L243.96 8.79576ZM239.191 8.79575L245.749 9.33484L248.61 9.57442L251.352 9.78406L255.907 10.1135L258.673 10.3231L259.794 10.3231L265.111 10.6825C265.969 10.6825 266.828 10.6825 267.662 10.8622L305.218 10.8622C305.036 10.8476 304.853 10.8476 304.67 10.8622L302.095 10.4729L300.593 10.2333L295.204 9.45463L284.521 7.80746L228.342 7.80745C231.847 8.13689 235.495 8.49627 239.167 8.79575L239.191 8.79575ZM7.89362 40.6909L7.89362 38.1153L7.29749 38.7143L7.29749 40.661L7.89362 40.6909ZM239.191 8.79575L245.749 9.33484L248.61 9.57442L251.352 9.78406L255.907 10.1135L258.673 10.3231L259.794 10.3231L265.111 10.6825C265.969 10.6825 266.828 10.6825 267.662 10.8622L305.218 10.8622C305.036 10.8476 304.853 10.8476 304.67 10.8622L302.095 10.4729L300.593 10.2333L295.204 9.45463L284.521 7.80746L228.342 7.80745C231.847 8.13689 235.495 8.49627 239.167 8.79575L239.191 8.79575ZM7.89362 40.6909L7.89362 38.1153L7.29749 38.7143L7.29749 40.661L7.89362 40.6909ZM239.191 8.79575L245.749 9.33484L248.61 9.57442L251.352 9.78406L255.907 10.1135L258.673 10.3231L259.794 10.3231L265.111 10.6825C265.969 10.6825 266.828 10.6825 267.662 10.8622L305.218 10.8622C305.036 10.8476 304.853 10.8476 304.67 10.8622L302.095 10.4729L300.593 10.2333L295.204 9.45463L284.521 7.80746L228.342 7.80745C231.847 8.13689 235.495 8.49627 239.167 8.79575L239.191 8.79575ZM7.89362 40.6909L7.89362 38.1153L7.29749 38.7143L7.29749 40.661L7.89362 40.6909ZM239.191 8.79575L245.749 9.33484L248.61 9.57442L251.352 9.78406L255.907 10.1135L258.673 10.3231L259.794 10.3231L265.111 10.6825C265.969 10.6825 266.828 10.6825 267.662 10.8622L305.218 10.8622C305.036 10.8476 304.853 10.8476 304.67 10.8622L302.095 10.4729L300.593 10.2333L295.204 9.45463L284.521 7.80746L228.342 7.80745C231.847 8.13689 235.495 8.49627 239.167 8.79575L239.191 8.79575ZM7.89362 40.6909L7.89362 38.1153L7.29749 38.7143L7.29749 40.661L7.89362 40.6909ZM239.191 8.79575L245.749 9.33484L248.61 9.57442L251.352 9.78406L255.907 10.1135L258.673 10.3231L259.794 10.3231L265.111 10.6825C265.969 10.6825 266.828 10.6825 267.662 10.8622L305.218 10.8622C305.036 10.8476 304.853 10.8476 304.67 10.8622L302.095 10.4729L300.593 10.2333L295.204 9.45463L284.521 7.80746L228.342 7.80745C231.847 8.13689 235.495 8.49627 239.167 8.79575L239.191 8.79575ZM7.89362 40.6909L7.89362 38.1153L7.29749 38.7143L7.29749 40.661L7.89362 40.6909ZM239.191 8.79575L245.749 9.33484L248.61 9.57442L251.352 9.78406L255.907 10.1135L258.673 10.3231L259.794 10.3231L265.111 10.6825C265.969 10.6825 266.828 10.6825 267.662 10.8622L305.218 10.8622C305.036 10.8476 304.853 10.8476 304.67 10.8622L302.095 10.4729L300.593 10.2333L295.204 9.45463L284.521 7.80746L228.342 7.80745C231.847 8.13689 235.495 8.49627 239.167 8.79575L239.191 8.79575ZM7.89362 40.6909L7.89362 38.1153L7.29749 38.7143L7.29749 40.661L7.89362 40.6909ZM239.191 8.79575L245.749 9.33484L248.61 9.57442L251.352 9.78406L255.907 10.1135L258.673 10.3231L259.794 10.3231L265.111 10.6825C265.969 10.6825 266.828 10.6825 267.662 10.8622L305.218 10.8622C305.036 10.8476 304.853 10.8476 304.67 10.8622L302.095 10.4729L300.593 10.2333L295.204 9.45463L284.521 7.80746L228.342 7.80745C231.847 8.13689 235.495 8.49627 239.167 8.79575L239.191 8.79575ZM7.89362 40.6909L7.89362 38.1153L7.29749 38.7143L7.29749 40.661L7.89362 40.6909ZM239.191 8.79575L245.749 9.33484L248.61 9.57442L251.352 9.78406L255.907 10.1135L258.673 10.3231L259.794 10.3231L265.111 10.6825C265.969 10.6825 266.828 10.6825 267.662 10.8622L305.218 10.8622C305.036 10.8476 304.853 10.8476 304.67 10.8622L302.095 10.4729L300.593 10.2333L295.204 9.45463L284.521 7.80746L228.342 7.80745C231.847 8.13689 235.495 8.49627 239.167 8.79575L239.191 8.79575ZM7.89362 40.6909L7.89362 38.1153L7.29749 38.7143L7.29749 40.661L7.89362 40.6909ZM239.191 8.79575L245.749 9.33484L248.61 9.57442L251.352 9.78406L255.907 10.1135L258.673 10.3231L259.794 10.3231L265.111 10.6825C265.969 10.6825 266.828 10.6825 267.662 10.8622L305.218 10.8622C305.036 10.8476 304.853 10.8476 304.67 10.8622L302.095 10.4729L300.593 10.2333L295.204 9.45463L284.521 7.80746L228.342 7.80745C231.847 8.13689 235.495 8.49627 239.167 8.79575L239.191 8.79575ZM7.89362 40.6909L7.89362 38.1153L7.29749 38.7143L7.29749 40.661L7.89362 40.6909ZM239.191 8.79575L245.749 9.33484L248.61 9.57442L251.352 9.78406L255.907 10.1135L258.673 10.3231L259.794 10.3231L265.111 10.6825C265.969 10.6825 266.828 10.6825 267.662 10.8622L305.218 10.8622C305.036 10.8476 304.853 10.8476 304.67 10.8622L302.095 10.4729L300.593 10.2333L295.204 9.45463L284.521 7.80746L228.342 7.80745C231.847 8.13689 235.495 8.49627 239.167 8.79575L239.191 8.79575ZM7.89362 40.6909L7.89362 38.1153L7.29749 38.7143L7.29749 40.661L7.89362 40.6909ZM239.191 8.79575L245.749 9.33484L248.61 9.57442L251.352 9.78406L255.907 10.1135L258.673 10.3231L259.794 10.3231L265.111 10.6825C265.969 10.6825 266.828 10.6825 267.662 10.8622L305.218 10.8622C305.036 10.8476 304.853 10.8476 304.67 10.8622L302.095 10.4729L300.593 10.2333L295.204 9.45463L284.521 7.80746L228.342 7.80745C231.847 8.13689 235.495 8.49627 239.167 8.79575L239.191 8.79575ZM7.89362 40.6909L7.89362 38.1153L7.29749 38.7143L7.29749 40.661L7.89362 40.6909ZM239.191 8.79575L245.749 9.33484L248.61 9.57442L251.352 9.78406L255.907 10.1135L258.673 10.3231L259.794 10.3231L265.111 10.6825C265.969 10.6825 266.828 10.6825 267.662 10.8622L305.218 10.8622C305.036 10.8476 304.853 10.8476 304.67 10.8622L302.095 10.4729L300.593 10.2333L295.204 9.45463L284.521 7.80746L228.342 7.80745C231.847 8.13689 235.495 8.49627 239.167 8.79575L239.191 8.79575ZM7.89362 40.6909L7.89362 38.1153L7.29749 38.7143L7.29749 40.661L7.89362 40.6909ZM239.191 8.79575L245.749 9.33484L248.61 9.57442L251.352 9.78406L255.907 10.1135L258.673 10.3231L259.794 10.3231L265.111 10.6825C265.969 10.6825 266.828 10.6825 267.662 10.8622L305.218 10.8622C305.036 10.8476 304.853 10.8476 304.67 10.8622L302.095 10.4729L300.593 10.2333L295.204 9.45463L284.521 7.80746L228.342 7.80745C231.847 8.13689 235.495 8.49627 239.167 8.79575L239.191 8.79575ZM7.89362 40.6909L7.89362 38.1153L7.29749 38.7143L7.29749 40.661L7.89362 40.6909ZM239.191 8.79575L245.749 9.33484L248.61 9.57442L251.352 9.78406L255.907 10.1135L258.673 10.3231L259.794 10.3231L265.111 10.6825C265.969 10.6825 266.828 10.6825 267.662 10.8622L305.218 10.8622C305.036 10.8476 304.853 10.8476 304.67 10.8622L302.095 10.4729L300.593 10.2333L295.204 9.45463L284.521 7.80746L228.342 7.80745C231.847 8.13689 235.495 8.49627 239.167 8.79575L239.191 8.79575ZM7.89362 40.6909L7.89362 38.1153L7.29749 38.7143L7.29749 40.661L7.89362 40.6909ZM239.191 8.79575L245.749 9.33484L248.61 9.57442L251.352 9.78406L255.907 10.1135L258.673 10.3231L259.794 10.3231L265.111 10.6825C265.969 10.6825 266.828 10.6825 267.662 10.8622L305.218 10.8622C305.036 10.8476 304.853 10.8476 304.67 10.8622L302.095 10.4729L300.593 10.2333L295.204 9.45463L284.521 7.80746L228.342 7.80745C231.847 8.13689 235.495 8.49627 239.167 8.79575L239.191 8.79575ZM7.89362 40.6909L7.89362 38.1153L7.29749 38.7143L7.29749 40.661L7.89362 40.6909ZM239.191 8.79575L245.749 9.33484L248.61 9.57442L251.352 9.78406L255.907 10.1135L258.673 10.3231L259.794 10.3231L265.111 10.6825C265.969 10.6825 266.828 10.6825 267.662 10.8622L305.218 10.8622C305.036 10.8476 304.853 10.8476 304.67 10.8622L302.095 10.4729L300.593 10.2333L295.204 9.45463L284.521 7.80746L228.342 7.80745C231.847 8.13689 235.495 8.49627 239.167 8.79575L239.191 8.79575ZM7.89362 40.6909L7.89362 38.1153L7.29749 38.7143L7.29749 40.661L7.89362 40.6909ZM239.191 8.79575L245.749 9.33484L248.61 9.57442L251.352 9.78406L255.907 10.1135L258.673 10.3231L259.794 10.3231L265.111 10.6825C265.969 10.6825 266.828 10.6825 267.662 10.8622L305.218 10.8622C305.036 10.8476 304.853 10.8476 304.67 10.8622L302.095 10.4729L300.593 10.2333L295.204 9.45463L284.521 7.80746L228.342 7.80745C231.847 8.13689 235.495 8.49627 239.167 8.79575L239.191 8.79575ZM7.89362 40.6909L7.89362 38.1153L7.29749 38.7143L7.29749 40.661L7.89362 40.6909ZM239.191 8.79575L245.749 9.33484L248.61 9.57442L251.352 9.78406L255.907 10.1135L258.673 10.3231L259.794 10.3231L265.111 10.6825C265.969 10.6825 266.828 10.6825 267.662 10.8622L305.218 10.8622C305.036 10.8476 304.853 10.8476 304.67 10.8622L302.095 10.4729L300.593 10.2333L295.204 9.45463L284.521 7.80746L228.342 7.80745C231.847 8.13689 235.495 8.49627 239.167 8.79575L239.191 8.79575ZM7.89362 40.6909L7.89362 38.1153L7.29749 38.7143L7.29749 40.661L7.89362 40.6909ZM239.191 8.79575L245.749 9.33484L248.61 9.57442L251.352 9.78406L255.907 10.1135L258.673 10.3231L259.794 10.3231L265.111 10.6825C265.969 10.6825 266.828 10.6825 267.662 10.8622L305.218 10.8622C305.036 10.8476 304.853 10.8476 304.67 10.8622L302.095 10.4729L300.593 10.2333L295.204 9.45463L284.521 7.80746L228.342 7.80745C231.847 8.13689 235.495 8.49627 239.167 8.79575L239.191 8.79575ZM7.89362 40.6909L7.89362 38.1153L7.29749 38.7143L7.29749 40.661L7.89362 40.6909ZM239.191 8.79575L245.749 9.33484L248.61 9.57442L251.352 9.78406L255.907 10.1135L258.673 10.3231L259.794 10.3231L265.111 10.6825C265.969 10.6825 266.828 10.6825 267.662 10.8622L305.218 10.8622C305.036 10.8476 304.853 10.8476 304.67 10.8622L302.095 10.4729L300.593 10.2333L295.204 9.45463L284.521 7.80746L228.342 7.80745C231.847 8.13689 235.495 8.49627 239.167 8.79575L239.191 8.79575ZM7.89362 40.6909L7.89362 38.1153L7.29749 38.7143L7.29749 40.661L7.89362 40.6909ZM239.191 8.79575L245.749 9.33484L248.61 9.57442L251.352 9.78406L255.907 10.1135L258.673 10.3231L259.794 10.3231L265.111 10.6825C265.969 10.6825 266.828 10.6825 267.662 10.8622L305.218 10.8622C305.036 10.8476 304.853 10.8476 304.67 10.8622L302.095 10.4729L300.593 10.2333L295.204 9.45463L284.521 7.80746L228.342 7.80745C231.847 8.13689 235.495 8.49627 239.167 8.79575L239.191 8.79575ZM7.89362 40.6909L7.89362 38.1153L7.29749 38.7143L7.29749 40.661L7.89362 40.6909ZM239.191 8.79575L245.749 9.33484L248.61 9.57442L251.352 9.78406L255.907 10.1135L258.673 10.3231L259.794 10.3231L265.111 10.6825C265.969 10.6825 266.828 10.6825 267.662 10.8622L305.218 10.8622C305.036 10.8476 304.853 10.8476 304.67 10.8622L302.095 10.4729L300.593 10.2333L295.204 9.45463L284.521 7.80746L228.342 7.80745C231.847 8.13689 235.495 8.49627 239.167 8.79575L239.191 8.79575ZM7.89362 40.6909L7.89362 38.1153L7.29749 38.7143L7.29749 40.661L7.89362 40.6909ZM239.191 8.79575L245.749 9.33484L248.61 9.57442L251.352 9.78406L255.907 10.1135L258.673 10.3231L259.794 10.3231L265.111 10.6825C265.969 10.6825 266.828 10.6825 267.662 10.8622L305.218 10.8622C305.036 10.8476 304.853 10.8476 304.67 10.8622L302.095 10.4729L300.593 10.2333L295.204 9.45463L284.521 7.80746L228.342 7.80745C231.847 8.13689 235.495 8.49627 239.167 8.79575L239.191 8.79575ZM7.89362 40.6909L7.89362 38.1153L7.29749 38.7143L7.29749 40.661L7.89362 40.6909ZM239.191 8.79575L245.749 9.33484L248.61 9.57442L251.352 9.78406L255.907 10.1135L258.673 10.3231L259.794 10.3231L265.111 10.6825C265.969 10.6825 266.828 10.6825 267.662 10.8622L305.218 10.8622C305.036 10.8476 304.853 10.8476 304.67 10.8622L302.095 10.4729L300.593 10.2333L295.204 9.45463L284.521 7.80746L228.342 7.80745C231.847 8.13689 235.495 8.49627 239.167 8.79575L239.191 8.79575ZM7.89362 40.6909L7.89362 38.1153L7.29749 38.7143L7.29749 40.661L7.89362 40.6909ZM239.191 8.79575L245.749 9.33484L248.61 9.57442L251.352 9.78406L255.907 10.1135L258.673 10.3231L259.794 10.3231L265.111 10.6825C265.969 10.6825 266.828 10.6825 267.662 10.8622L305.218 10.8622C305.036 10.8476 304.853 10.8476 304.67 10.8622L302.095 10.4729L300.593 10.2333L295.204 9.45463L284.521 7.80746L228.342 7.80745C231.847 8.13689 235.495 8.49627 239.167 8.79575L239.191 8.79575ZM7.89362 40.6909L7.89362 38.1153L7.29749 38.7143L7.29749 40.661L7.89362 40.6909ZM239.191 8.79575L245.749 9.33484L248.61 9.57442L251.352 9.78406L255.907 10.1135L258.673 10.3231L259.794 10.3231L265.111 10.6825C265.969 10.6825 266.828 10.6825 267.662 10.8622L305.218 10.8622C305.036 10.8476 304.853 10.8476 304.67 10.8622L302.095 10.4729L300.593 10.2333L295.204 9.45463L284.521 7.80746L228.342 7.80745C231.847 8.13689 235.495 8.49627 239.167 8.79575L239.191 8.79575ZM7.89362 40.6909L7.89362 38.1153L7.29749 38.7143L7.29749 40.661L7.89362 40.6909ZM239.191 8.79575L245.749 9.33484L248.61 9.57442L251.352 9.78406L255.907 10.1135L258.673 10.3231L259.794 10.3231L265.111 10.6825C265.969 10.6825 266.828 10.6825 267.662 10.8622L305.218 10.8622C305.036 10.8476 304.853 10.8476 304.67 10.8622L302.095 10.4729L300.593 10.2333L295.204 9.45463L284.521 7.80746L228.342 7.80745C231.847 8.13689 235.495 8.49627 239.167 8.79575L239.191 8.79575ZM7.89362 40.6909L7.89362 38.1153L7.29749 38.7143L7.29749 40.661L7.89362 40.6909ZM239.191 8.79575L245.749 9.33484L248.61 9.57442L251.352 9.78406L255.907 10.1135L258.673 10.3231L259.794 10.3231L265.111 10.6825C265.969 10.6825 266.828 10.6825 267.662 10.8622L305.218 10.8622C305.036 10.8476 304.853 10.8476 304.67 10.8622L302.095 10.4729L300.593 10.2333L295.204 9.45463L284.521 7.80746L228.342 7.80745C231.847 8.13689 235.495 8.49627 239.167 8.79575L239.191 8.79575ZM7.89362 40.6909L7.89362 38.1153L7.29749 38.7143L7.29749 40.661L7.89362 40.6909Z" fill="url(#paint2_linear_4_5470)"/>
</g>
<g style="mix-blend-mode:multiply" opacity="0.6" filter="url(#filter1_d_4_5470)">
<path d="M422.568 63.2883L426.187 62.7194C425.139 62.1504 423.806 61.5216 422.568 60.9527L421.973 60.6832L421.973 58.2876L422.568 58.5272C424.949 59.5836 427.285 60.7929 429.567 62.1504L429.805 62.1504L430.4 62.1504L430.4 64.2765L429.805 64.2765L422.664 65.3844L422.068 65.3844L422.068 63.3781L422.568 63.2883Z" fill="#C97B3A"/>
<path d="M422.073 43.2996L422.073 41.0538L422.668 41.1137L429.905 41.5928L430.5 41.6227L430.5 43.8386L429.905 43.8086L422.668 43.2996L422.073 43.2996Z" fill="#C97B3A"/>
<path d="M422 74.6574L422 72.4116L422.595 72.4715L429.832 72.9506L430.427 72.9805L430.427 75.1964L429.832 75.1665L422.595 74.6574L422 74.6574Z" fill="#C97B3A"/>
<path d="M421.216 27.1002C421.055 26.4777 420.864 25.8677 420.645 25.2736L420.931 25.2736L429.143 27.5793L429.405 27.5793C429.548 28.3473 429.644 29.1282 429.691 29.915L429.215 29.915L421.383 27.759L421.216 27.1002Z" fill="#C97B3A"/>
<path d="M347.739 0.625738L352.5 0.625739L353.374 0.904987C357.802 2.97114 362.896 5.36668 368.133 7.64245L375.274 10.7866L369.847 10.7866L362.848 7.64245C357.445 5.21696 352.279 2.79148 348.328 0.904987L347.739 0.625738Z" fill="#C97B3A"/>
<path d="M367 0.499943L372.499 0.499944C375.141 1.57794 370.966 -0.0295754 373.941 0.77892C378.125 2.19795 382.391 3.19921 386.7 3.77335C399.043 5.83447 411.486 8.73331 423.58 12.4572C424.697 14.3373 425.2 14.9663 425.32 15.2719C422.249 14.4036 417.979 13.2058 413.385 11.9781C407.743 10.4509 401.483 8.98365 395.841 7.72599C392.437 7.03727 389.247 6.46833 386.558 6.16888C380.091 5.22614 373.713 3.49112 367.514 0.988528C364.705 -0.149354 369.19 1.4881 367 0.499943Z" fill="#C97B3A"/>
<path d="M308.36 0.62605L311.5 0.625743L312 0.62605L312.574 1.05424L327.88 7.7917L334.997 10.9359L329.713 10.9359L322.619 7.7917L308.432 1.53335L308.36 1.05424L308.36 0.62605Z" fill="#C97B3A"/>
<path d="M18.8303 1.46862C21 1.12898 20.9426 1.1071 21.7811 1.25477C24.1615 1.67399 26.542 1.79694 28.3511 1.9766C30.7315 2.2461 165.107 2.5755 171.724 2.96478C180.722 3.53372 192.91 4.31227 206.145 5.45015C209.692 4.25238 216.976 2.6354 225.641 0.928574C230.878 -0.0895301 222.951 1.43763 228.592 0.539302L237 0.539302L245 0.538994L254.087 1.01841C267.084 2.9049 285.485 5.68972 299.315 7.75587L318.144 10.7503L318.144 11.0497L305.361 11.0497C305.179 11.0351 304.996 11.0351 304.814 11.0497L302.243 10.6605L300.743 10.4209C299.029 10.1514 297.244 9.88191 295.363 9.64236L284.699 7.99543C266.536 5.30044 246.612 2.30601 240.114 1.49752L240.114 1.01841L240.114 0.539302L237.448 1.01841C227.926 2.81506 218.595 4.61172 212.382 6.07899C216.286 6.46826 220.237 6.85754 224.284 7.3067L228.592 7.75586C232.092 8.1152 235.734 8.47453 239.4 8.77397L245.946 9.31297L248.802 9.55252L251.468 9.6723L256.015 10.0017L259.895 10.2712L265.203 10.6305C266.06 10.6305 266.917 10.6305 267.75 10.8102L238.114 10.8102C233.353 10.391 228.592 9.91185 224.022 9.4028C218.047 8.74402 212.12 8.17508 206.335 7.66603L206.193 7.66603C192.91 6.4982 180.698 5.71965 171.7 5.15071C165.059 4.73149 30.7553 4.46197 28.2559 4.16253C25.0899 3.8032 20.6861 2.86356 16.687 2.08501C17.5 1.75795 18 1.75795 18.8303 1.46862Z" fill="#C97B3A"/>
<path d="M0.357202 23.956C0.431532 23.1995 0.542827 22.4495 0.690459 21.7102L1.95208 21.7102L8.95054 21.261L10 21.261C9.68861 21.9891 9.41046 22.7389 9.16687 23.5068L8.42684 23.5068C6.04642 23.6865 3.66599 23.8362 1.476 23.9261L0.357202 23.956Z" fill="#C97B3A"/>
<path d="M-4.0046e-05 42.5214L-3.9892e-05 40.3055L0.595067 40.3055L3.11831 40.3055C4.04668 39.497 4.99863 37.5806 6.87916 35.6641L7.47427 35.0652L7.47427 37.88L6.87916 38.4789C6.21264 39.1976 6.52234 39.8563 5.92723 40.4253L7.42665 40.4253L7.42665 42.6411L7.83154 42.6411C5.3321 42.6411 2.78504 42.6411 0.690268 42.4016L-4.0046e-05 42.5214Z" fill="#C97B3A"/>
<path d="M-0.999943 82.2938L-0.999943 80.0779L-0.404836 80.0779L2.11841 80.0779C3.04677 79.2694 4.99872 77.353 6.87926 75.4366L7.47437 74.8377L7.47437 77.6524L6.87926 78.2513C6.21274 78.97 5.52244 79.6288 4.92733 80.1977L7.42675 80.1977L7.42675 82.4136L6.83164 82.4136C4.33219 82.4136 1.78514 82.4136 -0.309635 82.174L-0.999943 82.2938Z" fill="#C97B3A"/>
<path d="M-0.9997 60.009L-0.9997 57.7632L-0.404594 57.9129C1.95593 58.5016 4.33975 58.9314 6.73668 59.2005L7.33179 59.2005L7.33179 61.5062L6.73668 61.5062C4.34087 61.2393 1.95738 60.8195 -0.404594 60.2485L-0.9997 60.009Z" fill="#C97B3A"/>
</g>
<g style="mix-blend-mode:overlay" opacity="0.5" filter="url(#filter2_d_4_5470)">
<path d="M429.81 60.338C429.289 60.3422 428.77 60.2719 428.262 60.1284C427.524 59.9188 424.477 58.721 421.978 57.7029L421.978 58.4216C424.37 59.3342 426.708 60.4548 428.976 61.7753L429.81 61.5058L429.81 60.338Z" fill="#FFDE55"/>
<path d="M425.787 40.6048L421.978 40.2155L421.978 40.9941C424.358 40.9941 428.405 41.5331 429.81 41.7127L429.81 40.6946C428.715 40.7246 427.215 40.7246 425.787 40.6048Z" fill="#FFDE55"/>
<path d="M425.404 71.9626L421.595 71.5733L421.595 72.3519C423.975 72.3519 428.022 72.8909 429.427 73.0706L429.427 72.0525C428.332 72.0824 426.832 72.0824 425.404 71.9626Z" fill="#FFDE55"/>
<path d="M420.645 25.2736C423.763 26.2917 428.191 27.3697 429.405 27.6691C429.327 27.0539 429.224 26.4443 429.096 25.8425C428.113 25.9486 427.126 25.9486 426.144 25.8425C424.143 25.6252 422.17 25.1126 420.264 24.3154C420.405 24.6256 420.533 24.9455 420.645 25.2736Z" fill="#FFDE55"/>
<path d="M400.483 6.19869C407.124 7.57613 423.168 12.1875 423.168 12.1875L422.145 10.8999C422.145 10.8999 416.027 9.07334 413.099 7.90552C410.171 6.73769 395.174 4.13254 390.437 3.50371C386.636 2.89009 382.862 2.03054 379.13 0.928502L374.369 1.10817C374.369 1.10817 384.343 3.77321 385.438 3.77321C386.533 3.77321 393.865 4.82126 400.483 6.19869Z" fill="#FFDE55"/>
<path d="M375.631 10.8101L378.583 10.8102C371.441 8.05528 356.992 1.55737 355.612 0.928542L353.422 0.928541C353.422 0.928541 364.181 5.71962 367.704 7.3965C370.489 8.6841 374.155 10.2113 375.631 10.8101Z" fill="#FFDE55"/>
<path d="M333.759 10.8101L335.235 10.8102C330.475 8.26489 316.573 1.82687 314.335 0.928542L314.002 0.928542L312.574 0.928542C312.574 0.928542 319.905 4.5518 324.143 6.01907C327.428 7.34858 330.641 8.94908 333.759 10.8101Z" fill="#FFDE55"/>
<path d="M263.989 2.42572C267.703 2.90483 295.863 6.82753 302.647 8.14508C307.194 8.98351 314.549 10.1513 319.025 10.8101L322.881 10.8101C316.739 8.68408 293.768 5.65971 286.056 4.82127C279.224 3.98283 265.846 1.82684 261.466 1.01834L260.038 0.778788L254.872 1.01834L255.134 1.01834C256.229 1.01834 260.752 2.03644 263.989 2.42572Z" fill="#FFDE55"/>
<path d="M170.105 38.3463H170.486C175.247 38.7955 180.579 39.3345 184.768 39.6938L165.082 37.7774L170.105 38.3463Z" fill="#FFDE55"/>
<path d="M231.258 7.66589C235.257 8.05517 239.042 8.4145 241.447 8.59417L245.303 8.8936L215.571 6.0489L268.417 10.81C262.156 9.88177 250.635 8.20489 244.946 7.66589C243.851 7.66589 242.994 7.48623 242.399 7.48623C237.852 7.48623 217.404 6.10879 213.619 5.86924L213.024 5.86924L214.119 5.86924C216.881 6.22857 224.426 7.00712 231.258 7.66589Z" fill="#FFDE55"/>
<path d="M10.0452 20.0931L1.21377 20.6022C1.11226 20.905 1.02483 21.2149 0.951924 21.5305L9.66429 20.9915C9.83092 20.692 10.0452 20.3926 10.0452 20.0931Z" fill="#FFDE55"/>
<path d="M7.42676 35.0354L7.42676 33.059C5.49861 35.4246 1.85657 39.2276 1.85657 39.2276L-0.404825 38.988L-0.404825 40.1558L1.9756 40.4253L7.42676 35.0354Z" fill="#FFDE55"/>
<path d="M7.42676 74.8078L7.42676 72.8315C5.49861 75.1971 1.85657 79 1.85657 79L-0.404825 78.7604L-0.404825 79.9283L1.9756 80.1978L7.42676 74.8078Z" fill="#FFDE55"/>
<path d="M7.42676 57.5831C4.78674 57.7129 2.14632 57.3394 -0.404825 56.4752L-0.404825 57.9125C2.18964 58.431 4.80364 58.7808 7.42676 58.9605L7.42676 57.5831Z" fill="#FFDE55"/>
</g>
<defs>
<filter id="filter0_d_4_5470" x="0" y="1.12891" width="430" height="110.925" filterUnits="userSpaceOnUse" color-interpolation-filters="sRGB">
<feFlood flood-opacity="0" result="BackgroundImageFix"/>
<feColorMatrix in="SourceAlpha" type="matrix" values="0 0 0 0 0 0 0 0 0 0 0 0 0 0 0 0 0 0 127 0" result="hardAlpha"/>
<feOffset dy="4"/>
<feComposite in2="hardAlpha" operator="out"/>
<feColorMatrix type="matrix" values="0 0 0 0 0.619608 0 0 0 0 0.25098 0 0 0 0 0 0 0 0 1 0"/>
<feBlend mode="normal" in2="BackgroundImageFix" result="effect1_dropShadow_4_5470"/>
<feBlend mode="normal" in="SourceGraphic" in2="effect1_dropShadow_4_5470" result="shape"/>
</filter>
<filter id="filter1_d_4_5470" x="-5" y="0.499939" width="439.5" height="111.78" filterUnits="userSpaceOnUse" color-interpolation-filters="sRGB">
<feFlood flood-opacity="0" result="BackgroundImageFix"/>
<feColorMatrix in="SourceAlpha" type="matrix" values="0 0 0 0 0 0 0 0 0 0 0 0 0 0 0 0 0 0 127 0" result="hardAlpha"/>
<feOffset dy="4"/>
<feGaussianBlur stdDeviation="2"/>
<feComposite in2="hardAlpha" operator="out"/>
<feColorMatrix type="matrix" values="0 0 0 0 0 0 0 0 0 0 0 0 0 0 0 0 0 0 0.25 0"/>
<feBlend mode="normal" in2="BackgroundImageFix" result="effect1_dropShadow_4_5470"/>
<feBlend mode="normal" in="SourceGraphic" in2="effect1_dropShadow_4_5470" result="shape"/>
</filter>
<filter id="filter2_d_4_5470" x="-4.40479" y="0.778793" width="438.405" height="108.985" filterUnits="userSpaceOnUse" color-interpolation-filters="sRGB">
<feFlood flood-opacity="0" result="BackgroundImageFix"/>
<feColorMatrix in="SourceAlpha" type="matrix" values="0 0 0 0 0 0 0 0 0 0 0 0 0 0 0 0 0 0 127 0" result="hardAlpha"/>
<feOffset dy="4"/>
<feGaussianBlur stdDeviation="2"/>
<feComposite in2="hardAlpha" operator="out"/>
<feColorMatrix type="matrix" values="0 0 0 0 0 0 0 0 0 0 0 0 0 0 0 0 0 0 0.25 0"/>
<feBlend mode="normal" in2="BackgroundImageFix" result="effect1_dropShadow_4_5470"/>
<feBlend mode="normal" in="SourceGraphic" in2="effect1_dropShadow_4_5470" result="shape"/>
</filter>
<linearGradient id="paint0_linear_4_5470" x1="212.834" y1="56.0006" x2="212.834" y2="4.92655" gradientUnits="userSpaceOnUse">
<stop stop-color="#667E00"/>
<stop offset="0.68" stop-color="#A2C521"/>
<stop offset="1" stop-color="#5D6930"/>
</linearGradient>
<linearGradient id="paint1_linear_4_5470" x1="213.443" y1="102.303" x2="213.443" y2="12.728" gradientUnits="userSpaceOnUse">
<stop stop-color="#90C400"/>
<stop offset="0.73" stop-color="#FFFFA0"/>
</linearGradient>
<linearGradient id="paint2_linear_4_5470" x1="215.012" y1="2.68626" x2="215.012" y2="69.8309" gradientUnits="userSpaceOnUse">
<stop stop-color="#F0CA57"/>
<stop offset="1" stop-color="#D45B1A"/>
</linearGradient>
</defs>
</svg>
