<svg width="430" height="106" fill="none" xmlns="http://www.w3.org/2000/svg"><path d="m3.523 106.9-1.38-72.793c0-3.208.522-6.384 1.538-9.344 1.015-2.96 2.503-5.643 4.377-7.895 1.874-2.252 4.096-4.028 6.538-5.224 2.442-1.195 5.054-1.787 7.685-1.741h381.058c2.635-.05 5.251.539 7.696 1.732 2.446 1.194 4.673 2.969 6.551 5.22 1.879 2.253 3.371 4.938 4.39 7.9a28.855 28.855 0 0 1 1.549 9.352V106.9H3.523Z" fill="url(#a)"/><path style="mix-blend-mode:multiply" opacity=".7" d="M422 164V37.587c-.033-5.217-1.089-10.199-2.94-13.865-1.851-3.667-4.347-5.722-6.949-5.722H17.889c-2.601 0-5.098 2.055-6.95 5.722C9.09 27.388 8.034 32.37 8 37.587V164h414Z" fill="url(#b)"/><path d="M7.894 71.573V30.865c0-10.32 5.485-20.98 14.666-20.98h381.708c9.039 0 17.862 10.376 17.862 20.98v40.709H430V32.717c0-15.85-12.282-30.331-25.732-30.331H22.512C9.873 2.387 0 15.728 0 32.718v38.855h7.894Z" fill="#DB6D22"/><path d="M6.643 88.072v2.472c.2.095.426.19.627.285v-2.82l-.627.095v-.032Zm0-16.425v2.471c.2.096.426.19.627.254v-2.82l-.627.095Zm0 16.425v2.472c.2.095.426.19.627.285v-2.82l-.627.095v-.032Zm0-16.425v2.471c.2.096.426.19.627.254v-2.82l-.627.095Zm0 16.425v2.472c.2.095.426.19.627.285v-2.82l-.627.095v-.032Zm0-16.425v2.471c.2.096.426.19.627.254v-2.82l-.627.095Zm0 16.425v2.472c.2.095.426.19.627.285v-2.82l-.627.095v-.032Zm0-16.425v2.471c.2.096.426.19.627.254v-2.82l-.627.095Zm0 16.425v2.472c.2.095.426.19.627.285v-2.82l-.627.095v-.032Zm0-16.425v2.471c.2.096.426.19.627.254v-2.82l-.627.095Zm0 16.425v2.472c.2.095.426.19.627.285v-2.82l-.627.095v-.032Zm0-16.425v2.471c.2.096.426.19.627.254v-2.82l-.627.095Zm0 16.425v2.472c.2.095.426.19.627.285v-2.82l-.627.095v-.032Zm0-16.425v2.471c.2.096.426.19.627.254v-2.82l-.627.095Zm0 16.425v2.472c.2.095.426.19.627.285v-2.82l-.627.095v-.032Zm0-16.425v2.471c.2.096.426.19.627.254v-2.82l-.627.095Zm0 16.425v2.472c.2.095.426.19.627.285v-2.82l-.627.095v-.032Zm0-16.425v2.471c.2.096.426.19.627.254v-2.82l-.627.095Zm0 16.425v2.472c.2.095.426.19.627.285v-2.82l-.627.095v-.032Zm0-16.425v2.471c.2.096.426.19.627.254v-2.82l-.627.095Zm0 16.425v2.472c.2.095.426.19.627.285v-2.82l-.627.095v-.032Zm0-16.425v2.471c.2.096.426.19.627.254v-2.82l-.627.095Zm0 16.425v2.472c.2.095.426.19.627.285v-2.82l-.627.095v-.032Zm0-16.425v2.471c.2.096.426.19.627.254v-2.82l-.627.095Zm0 16.425v2.472c.2.095.426.19.627.285v-2.82l-.627.095v-.032Zm0-16.425v2.471c.2.096.426.19.627.254v-2.82l-.627.095Zm0 16.425v2.472c.2.095.426.19.627.285v-2.82l-.627.095v-.032Zm0-16.425v2.471c.2.096.426.19.627.254v-2.82l-.627.095Zm0 16.425v2.472c.2.095.426.19.627.285v-2.82l-.627.095v-.032Zm0-16.425v2.471c.2.096.426.19.627.254v-2.82l-.627.095Zm0 16.425v2.472c.2.095.426.19.627.285v-2.82l-.627.095v-.032Zm0-16.425v2.471c.2.096.426.19.627.254v-2.82l-.627.095Zm0 16.425v2.472c.2.095.426.19.627.285v-2.82l-.627.095v-.032Zm0-16.425v2.471c.2.096.426.19.627.254v-2.82l-.627.095Zm0 16.425v2.472c.2.095.426.19.627.285v-2.82l-.627.095v-.032Zm0-16.425v2.471c.2.096.426.19.627.254v-2.82l-.627.095Zm0 16.425v2.472c.2.095.426.19.627.285v-2.82l-.627.095v-.032Zm0-16.425v2.471c.2.096.426.19.627.254v-2.82l-.627.095Zm0 16.425v2.472c.2.095.426.19.627.285v-2.82l-.627.095v-.032Zm0-16.425v2.471c.2.096.426.19.627.254v-2.82l-.627.095Zm0 16.425v2.472c.2.095.426.19.627.285v-2.82l-.627.095v-.032Zm0-16.425v2.471c.2.096.426.19.627.254v-2.82l-.627.095Zm0 16.425v2.472c.2.095.426.19.627.285v-2.82l-.627.095v-.032Zm0-16.425v2.471c.2.096.426.19.627.254v-2.82l-.627.095Zm0 16.425v2.472c.2.095.426.19.627.285v-2.82l-.627.095v-.032Zm0-16.425v2.471c.2.096.426.19.627.254v-2.82l-.627.095Zm0 16.425v2.472c.2.095.426.19.627.285v-2.82l-.627.095v-.032Zm0-16.425v2.471c.2.096.426.19.627.254v-2.82l-.627.095Zm0 16.425v2.472c.2.095.426.19.627.285v-2.82l-.627.095v-.032Zm0-16.425v2.471c.2.096.426.19.627.254v-2.82l-.627.095Zm0 16.425v2.472c.2.095.426.19.627.285v-2.82l-.627.095v-.032Zm0-16.425v2.471c.2.096.426.19.627.254v-2.82l-.627.095Zm0 16.425v2.472c.2.095.426.19.627.285v-2.82l-.627.095v-.032Zm0-16.425v2.471c.2.096.426.19.627.254v-2.82l-.627.095Zm0 18.897c.2.095.426.19.627.285v-2.82l-.627.095v2.472-.032Zm0-18.897v2.471c.2.096.426.19.627.254v-2.82l-.627.095Zm422.305-41.41c-1.479-6.434-4.51-11.695-8.644-15.276h-.05c-1.403-1.204-2.906-2.218-4.535-3.01h-.05c-2.806-1.332-5.912-2.06-9.295-2.06H26.034a24.52 24.52 0 0 0-7.941 1.33 25.342 25.342 0 0 0-5.637 2.694A27.577 27.577 0 0 0 3.812 22.6c-.5.76-.952 1.553-1.378 2.408C.455 28.905-.747 33.5-.923 38.697v74.425c0 .729 0 1.458.075 2.187.05 1.014.15 1.965.301 2.947a37.622 37.622 0 0 0 2.73 9.761c.402.951.853 1.87 1.329 2.789 4.96 9.381 13.503 16.004 22.573 16.004h380.289c2.831 0 5.512-.666 8.018-1.901a18.871 18.871 0 0 0 2.856-1.775c5.962-4.31 10.372-12.106 12.025-21.613.151-.761.251-1.553.326-2.346.251-1.964.376-3.961.376-6.053V39.839c0-3.423-.376-6.624-1.052-9.603h.025ZM7.445 115.815c-.05-.222-.05-.412-.075-.634-.05-.665-.1-1.362-.1-2.06V39.839c0-.856.05-1.617.125-2.409.526-4.785 2.656-8.715 5.587-11.63a17.92 17.92 0 0 1 2.13-1.807c3.256-2.408 7.14-3.708 10.898-3.708h380.364c7.366 0 12.552 4.5 14.481 12.17.577 2.218.877 4.69.877 7.384v73.283c0 2.187-.225 4.405-.626 6.529-.15.824-.326 1.616-.551 2.377-2.13 7.922-7.116 14.324-14.206 14.324H26.035c-3.658 0-7.29-1.711-10.347-4.5-3.859-3.486-6.865-8.652-7.942-14.198a24.183 24.183 0 0 1-.301-1.87v.032Zm-.802-44.17v2.472c.2.096.426.19.627.254v-2.82l-.627.095Zm0 16.426v2.472c.2.095.426.19.627.285v-2.82l-.627.095v-.032Zm0-16.425v2.471c.2.096.426.19.627.254v-2.82l-.627.095Zm0 16.425v2.472c.2.095.426.19.627.285v-2.82l-.627.095v-.032Zm0-16.425v2.471c.2.096.426.19.627.254v-2.82l-.627.095Zm0 16.425v2.472c.2.095.426.19.627.285v-2.82l-.627.095v-.032Zm0-16.425v2.471c.2.096.426.19.627.254v-2.82l-.627.095Zm0 16.425v2.472c.2.095.426.19.627.285v-2.82l-.627.095v-.032Zm0-16.425v2.471c.2.096.426.19.627.254v-2.82l-.627.095Zm0 16.425v2.472c.2.095.426.19.627.285v-2.82l-.627.095v-.032Zm0-16.425v2.471c.2.096.426.19.627.254v-2.82l-.627.095Zm0 16.425v2.472c.2.095.426.19.627.285v-2.82l-.627.095v-.032Zm0-16.425v2.471c.2.096.426.19.627.254v-2.82l-.627.095Zm0 16.425v2.472c.2.095.426.19.627.285v-2.82l-.627.095v-.032Zm0-16.425v2.471c.2.096.426.19.627.254v-2.82l-.627.095Zm0 16.425v2.472c.2.095.426.19.627.285v-2.82l-.627.095v-.032Zm0-16.425v2.471c.2.096.426.19.627.254v-2.82l-.627.095Zm0 16.425v2.472c.2.095.426.19.627.285v-2.82l-.627.095v-.032Zm0-16.425v2.471c.2.096.426.19.627.254v-2.82l-.627.095Zm0 16.425v2.472c.2.095.426.19.627.285v-2.82l-.627.095v-.032Zm0-16.425v2.471c.2.096.426.19.627.254v-2.82l-.627.095Zm0 16.425v2.472c.2.095.426.19.627.285v-2.82l-.627.095v-.032Zm0-16.425v2.471c.2.096.426.19.627.254v-2.82l-.627.095Zm0 16.425v2.472c.2.095.426.19.627.285v-2.82l-.627.095v-.032Zm0-16.425v2.471c.2.096.426.19.627.254v-2.82l-.627.095Zm0 16.425v2.472c.2.095.426.19.627.285v-2.82l-.627.095v-.032Zm0-16.425v2.471c.2.096.426.19.627.254v-2.82l-.627.095Zm0 16.425v2.472c.2.095.426.19.627.285v-2.82l-.627.095v-.032Zm0-16.425v2.471c.2.096.426.19.627.254v-2.82l-.627.095Zm0 16.425v2.472c.2.095.426.19.627.285v-2.82l-.627.095v-.032Zm0-16.425v2.471c.2.096.426.19.627.254v-2.82l-.627.095Zm0 16.425v2.472c.2.095.426.19.627.285v-2.82l-.627.095v-.032Zm0-16.425v2.471c.2.096.426.19.627.254v-2.82l-.627.095Zm0 16.425v2.472c.2.095.426.19.627.285v-2.82l-.627.095v-.032Zm0-16.425v2.471c.2.096.426.19.627.254v-2.82l-.627.095Zm0 16.425v2.472c.2.095.426.19.627.285v-2.82l-.627.095v-.032Zm0-16.425v2.471c.2.096.426.19.627.254v-2.82l-.627.095Zm0 16.425v2.472c.2.095.426.19.627.285v-2.82l-.627.095v-.032Zm0-16.425v2.471c.2.096.426.19.627.254v-2.82l-.627.095Zm0 16.425v2.472c.2.095.426.19.627.285v-2.82l-.627.095v-.032Zm0-16.425v2.471c.2.096.426.19.627.254v-2.82l-.627.095Zm0 16.425v2.472c.2.095.426.19.627.285v-2.82l-.627.095v-.032Zm0-16.425v2.471c.2.096.426.19.627.254v-2.82l-.627.095Zm0 16.425v2.472c.2.095.426.19.627.285v-2.82l-.627.095v-.032Zm0-16.425v2.471c.2.096.426.19.627.254v-2.82l-.627.095Zm0 16.425v2.472c.2.095.426.19.627.285v-2.82l-.627.095v-.032Zm0-16.425v2.471c.2.096.426.19.627.254v-2.82l-.627.095Zm0 16.425v2.472c.2.095.426.19.627.285v-2.82l-.627.095v-.032Zm0-16.425v2.471c.2.096.426.19.627.254v-2.82l-.627.095Zm0 16.425v2.472c.2.095.426.19.627.285v-2.82l-.627.095v-.032Zm0-16.425v2.471c.2.096.426.19.627.254v-2.82l-.627.095Zm0 16.425v2.472c.2.095.426.19.627.285v-2.82l-.627.095v-.032Zm0-16.425v2.471c.2.096.426.19.627.254v-2.82l-.627.095Zm0 16.425v2.472c.2.095.426.19.627.285v-2.82l-.627.095v-.032Z" fill="#9E4000" fill-opacity=".3"/><g filter="url(#c)"><path d="M7.894 40.691v-2.576l-.597.6v1.946l.597.03ZM239.19 8.796l6.558.539 2.861.24 2.742.21 4.555.329 2.766.21h1.121l5.317.359c.858 0 1.717 0 2.551.18h37.556a3.434 3.434 0 0 0-.548 0l-2.575-.39-1.502-.24-5.389-.778-10.683-1.647h-56.179c3.505.329 7.153.688 10.825.988h.024ZM7.894 40.69v-2.576l-.597.6v1.946l.597.03ZM239.19 8.796l6.558.539 2.861.24 2.742.21 4.555.329 2.766.21h1.121l5.317.359c.858 0 1.717 0 2.551.18h37.556a3.434 3.434 0 0 0-.548 0l-2.575-.39-1.502-.24-5.389-.778-10.683-1.647h-56.179c3.505.329 7.153.688 10.825.988h.024ZM7.894 40.69v-2.576l-.597.6v1.946l.597.03ZM239.19 8.796l6.558.539 2.861.24 2.742.21 4.555.329 2.766.21h1.121l5.317.359c.858 0 1.717 0 2.551.18h37.556a3.434 3.434 0 0 0-.548 0l-2.575-.39-1.502-.24-5.389-.778-10.683-1.647h-56.179c3.505.329 7.153.688 10.825.988h.024ZM7.894 40.69v-2.576l-.597.6v1.946l.597.03ZM239.19 8.796l6.558.539 2.861.24 2.742.21 4.555.329 2.766.21h1.121l5.317.359c.858 0 1.717 0 2.551.18h37.556a3.434 3.434 0 0 0-.548 0l-2.575-.39-1.502-.24-5.389-.778-10.683-1.647h-56.179c3.505.329 7.153.688 10.825.988h.024ZM7.894 40.69v-2.576l-.597.6v1.946l.597.03ZM239.19 8.796l6.558.539 2.861.24 2.742.21 4.555.329 2.766.21h1.121l5.317.359c.858 0 1.717 0 2.551.18h37.556a3.434 3.434 0 0 0-.548 0l-2.575-.39-1.502-.24-5.389-.778-10.683-1.647h-56.179c3.505.329 7.153.688 10.825.988h.024ZM7.894 40.69v-2.576l-.597.6v1.946l.597.03ZM239.19 8.796l6.558.539 2.861.24 2.742.21 4.555.329 2.766.21h1.121l5.317.359c.858 0 1.717 0 2.551.18h37.556a3.434 3.434 0 0 0-.548 0l-2.575-.39-1.502-.24-5.389-.778-10.683-1.647h-56.179c3.505.329 7.153.688 10.825.988h.024ZM7.894 40.69v-2.576l-.597.6v1.946l.597.03ZM239.19 8.796l6.558.539 2.861.24 2.742.21 4.555.329 2.766.21h1.121l5.317.359c.858 0 1.717 0 2.551.18h37.556a3.434 3.434 0 0 0-.548 0l-2.575-.39-1.502-.24-5.389-.778-10.683-1.647h-56.179c3.505.329 7.153.688 10.825.988h.024ZM7.894 40.69v-2.576l-.597.6v1.946l.597.03ZM239.19 8.796l6.558.539 2.861.24 2.742.21 4.555.329 2.766.21h1.121l5.317.359c.858 0 1.717 0 2.551.18h37.556a3.434 3.434 0 0 0-.548 0l-2.575-.39-1.502-.24-5.389-.778-10.683-1.647h-56.179c3.505.329 7.153.688 10.825.988h.024ZM7.894 40.69v-2.576l-.597.6v1.946l.597.03ZM239.19 8.796l6.558.539 2.861.24 2.742.21 4.555.329 2.766.21h1.121l5.317.359c.858 0 1.717 0 2.551.18h37.556a3.434 3.434 0 0 0-.548 0l-2.575-.39-1.502-.24-5.389-.778-10.683-1.647h-56.179c3.505.329 7.153.688 10.825.988h.024ZM7.894 40.69v-2.576l-.597.6v1.946l.597.03ZM239.19 8.796l6.558.539 2.861.24 2.742.21 4.555.329 2.766.21h1.121l5.317.359c.858 0 1.717 0 2.551.18h37.556a3.434 3.434 0 0 0-.548 0l-2.575-.39-1.502-.24-5.389-.778-10.683-1.647h-56.179c3.505.329 7.153.688 10.825.988h.024ZM7.894 40.69v-2.576l-.597.6v1.946l.597.03ZM239.19 8.796l6.558.539 2.861.24 2.742.21 4.555.329 2.766.21h1.121l5.317.359c.858 0 1.717 0 2.551.18h37.556a3.434 3.434 0 0 0-.548 0l-2.575-.39-1.502-.24-5.389-.778-10.683-1.647h-56.179c3.505.329 7.153.688 10.825.988h.024ZM7.894 40.69v-2.576l-.597.6v1.946l.597.03ZM239.19 8.796l6.558.539 2.861.24 2.742.21 4.555.329 2.766.21h1.121l5.317.359c.858 0 1.717 0 2.551.18h37.556a3.434 3.434 0 0 0-.548 0l-2.575-.39-1.502-.24-5.389-.778-10.683-1.647h-56.179c3.505.329 7.153.688 10.825.988h.024ZM7.894 40.69v-2.576l-.597.6v1.946l.597.03ZM239.19 8.796l6.558.539 2.861.24 2.742.21 4.555.329 2.766.21h1.121l5.317.359c.858 0 1.717 0 2.551.18h37.556a3.434 3.434 0 0 0-.548 0l-2.575-.39-1.502-.24-5.389-.778-10.683-1.647h-56.179c3.505.329 7.153.688 10.825.988h.024ZM7.894 40.69v-2.576l-.597.6v1.946l.597.03ZM239.19 8.796l6.558.539 2.861.24 2.742.21 4.555.329 2.766.21h1.121l5.317.359c.858 0 1.717 0 2.551.18h37.556a3.434 3.434 0 0 0-.548 0l-2.575-.39-1.502-.24-5.389-.778-10.683-1.647h-56.179c3.505.329 7.153.688 10.825.988h.024ZM7.894 40.69v-2.576l-.597.6v1.946l.597.03ZM239.19 8.796l6.558.539 2.861.24 2.742.21 4.555.329 2.766.21h1.121l5.317.359c.858 0 1.717 0 2.551.18h37.556a3.434 3.434 0 0 0-.548 0l-2.575-.39-1.502-.24-5.389-.778-10.683-1.647h-56.179c3.505.329 7.153.688 10.825.988h.024ZM7.894 40.69v-2.576l-.597.6v1.946l.597.03ZM239.19 8.796l6.558.539 2.861.24 2.742.21 4.555.329 2.766.21h1.121l5.317.359c.858 0 1.717 0 2.551.18h37.556a3.434 3.434 0 0 0-.548 0l-2.575-.39-1.502-.24-5.389-.778-10.683-1.647h-56.179c3.505.329 7.153.688 10.825.988h.024ZM7.894 40.69v-2.576l-.597.6v1.946l.597.03ZM239.19 8.796l6.558.539 2.861.24 2.742.21 4.555.329 2.766.21h1.121l5.317.359c.858 0 1.717 0 2.551.18h37.556a3.434 3.434 0 0 0-.548 0l-2.575-.39-1.502-.24-5.389-.778-10.683-1.647h-56.179c3.505.329 7.153.688 10.825.988h.024ZM7.894 40.69v-2.576l-.597.6v1.946l.597.03ZM239.19 8.796l6.558.539 2.861.24 2.742.21 4.555.329 2.766.21h1.121l5.317.359c.858 0 1.717 0 2.551.18h37.556a3.434 3.434 0 0 0-.548 0l-2.575-.39-1.502-.24-5.389-.778-10.683-1.647h-56.179c3.505.329 7.153.688 10.825.988h.024ZM7.894 40.69v-2.576l-.597.6v1.946l.597.03ZM239.19 8.796l6.558.539 2.861.24 2.742.21 4.555.329 2.766.21h1.121l5.317.359c.858 0 1.717 0 2.551.18h37.556a3.434 3.434 0 0 0-.548 0l-2.575-.39-1.502-.24-5.389-.778-10.683-1.647h-56.179c3.505.329 7.153.688 10.825.988h.024ZM7.894 40.69v-2.576l-.597.6v1.946l.597.03ZM239.19 8.796l6.558.539 2.861.24 2.742.21 4.555.329 2.766.21h1.121l5.317.359c.858 0 1.717 0 2.551.18h37.556a3.434 3.434 0 0 0-.548 0l-2.575-.39-1.502-.24-5.389-.778-10.683-1.647h-56.179c3.505.329 7.153.688 10.825.988h.024ZM7.894 40.69v-2.576l-.597.6v1.946l.597.03ZM239.19 8.796l6.558.539 2.861.24 2.742.21 4.555.329 2.766.21h1.121l5.317.359c.858 0 1.717 0 2.551.18h37.556a3.434 3.434 0 0 0-.548 0l-2.575-.39-1.502-.24-5.389-.778-10.683-1.647h-56.179c3.505.329 7.153.688 10.825.988h.024ZM7.894 40.69v-2.576l-.597.6v1.946l.597.03ZM239.19 8.796l6.558.539 2.861.24 2.742.21 4.555.329 2.766.21h1.121l5.317.359c.858 0 1.717 0 2.551.18h37.556a3.434 3.434 0 0 0-.548 0l-2.575-.39-1.502-.24-5.389-.778-10.683-1.647h-56.179c3.505.329 7.153.688 10.825.988h.024ZM7.894 40.69v-2.576l-.597.6v1.946l.597.03ZM239.19 8.796l6.558.539 2.861.24 2.742.21 4.555.329 2.766.21h1.121l5.317.359c.858 0 1.717 0 2.551.18h37.556a3.434 3.434 0 0 0-.548 0l-2.575-.39-1.502-.24-5.389-.778-10.683-1.647h-56.179c3.505.329 7.153.688 10.825.988h.024ZM7.894 40.69v-2.576l-.597.6v1.946l.597.03ZM239.19 8.796l6.558.539 2.861.24 2.742.21 4.555.329 2.766.21h1.121l5.317.359c.858 0 1.717 0 2.551.18h37.556a3.434 3.434 0 0 0-.548 0l-2.575-.39-1.502-.24-5.389-.778-10.683-1.647h-56.179c3.505.329 7.153.688 10.825.988h.024ZM7.894 40.69v-2.576l-.597.6v1.946l.597.03ZM239.19 8.796l6.558.539 2.861.24 2.742.21 4.555.329 2.766.21h1.121l5.317.359c.858 0 1.717 0 2.551.18h37.556a3.434 3.434 0 0 0-.548 0l-2.575-.39-1.502-.24-5.389-.778-10.683-1.647h-56.179c3.505.329 7.153.688 10.825.988h.024ZM7.894 40.69v-2.576l-.597.6v1.946l.597.03ZM239.19 8.796l6.558.539 2.861.24 2.742.21 4.555.329 2.766.21h1.121l5.317.359c.858 0 1.717 0 2.551.18h37.556a3.434 3.434 0 0 0-.548 0l-2.575-.39-1.502-.24-5.389-.778-10.683-1.647h-56.179c3.505.329 7.153.688 10.825.988h.024ZM7.894 40.69v-2.576l-.597.6v1.946l.597.03ZM239.19 8.796l6.558.539 2.861.24 2.742.21 4.555.329 2.766.21h1.121l5.317.359c.858 0 1.717 0 2.551.18h37.556a3.434 3.434 0 0 0-.548 0l-2.575-.39-1.502-.24-5.389-.778-10.683-1.647h-56.179c3.505.329 7.153.688 10.825.988h.024Zm0 0 6.558.539 2.861.24 2.742.21 4.555.329 2.766.21h1.121l5.317.359c.858 0 1.717 0 2.551.18h37.556a3.434 3.434 0 0 0-.548 0l-2.575-.39-1.502-.24-5.389-.778-10.683-1.647h-56.179c3.505.329 7.153.688 10.825.988h.024Zm4.769 0H247.156c3.791.33 8.298.778 12.304 1.168h.381l2.695.3 2.384.239h3.41l-34.885-3.145h-1.169l11.684 1.438Zm0 0H247.156c3.791.33 8.298.778 12.304 1.168h.381l2.695.3 2.384.239h3.41l-34.885-3.145h-1.169l11.684 1.438Zm0 0H247.156c3.791.33 8.298.778 12.304 1.168h.381l2.695.3 2.384.239h3.41l-34.885-3.145h-1.169l11.684 1.438Zm0 0H247.156c3.791.33 8.298.778 12.304 1.168h.381l2.695.3 2.384.239h3.41l-34.885-3.145h-1.169l11.684 1.438Zm0 0H247.156c3.791.33 8.298.778 12.304 1.168h.381l2.695.3 2.384.239h3.41l-34.885-3.145h-1.169l11.684 1.438Zm0 0H247.156c3.791.33 8.298.778 12.304 1.168h.381l2.695.3 2.384.239h3.41l-34.885-3.145h-1.169l11.684 1.438Zm0 0H247.156c3.791.33 8.298.778 12.304 1.168h.381l2.695.3 2.384.239h3.41l-34.885-3.145h-1.169l11.684 1.438Zm0 0H247.156c3.791.33 8.298.778 12.304 1.168h.381l2.695.3 2.384.239h3.41l-34.885-3.145h-1.169l11.684 1.438ZM7.894 107.934v-75c.013-3.235.49-6.44 1.407-9.463a24.56 24.56 0 0 1 .81-2.247c0-.299.239-.599.382-.898 1.131-2.759 2.838-5.08 4.938-6.715 2.1-1.635 4.514-2.523 6.984-2.57l381.856.001c3.411.227 6.71 1.6 9.554 3.977 2.844 2.376 5.128 5.667 6.613 9.53.215.18.215.539.382.808-.005.06-.005.12 0 .18.191.547.358 1.107.5 1.677.045.214.101.424.167.63a22.73 22.73 0 0 1 .596 5.09v75.12H430v-75.12c0-.958 0-1.886-.119-2.815a18.942 18.942 0 0 0-.286-2.336 22.201 22.201 0 0 0-.31-1.827c0-.359-.143-.689-.239-1.048-.808-3.437-2.073-6.678-3.743-9.583a46.609 46.609 0 0 0-1.741-2.756l-.31-.419-.62-.838-.31-.39c-4.753-6.126-11.241-9.646-18.051-9.793H21.175c-1.745.116-3.47.53-5.126 1.228-3.37 1.461-6.427 3.881-8.93 7.07-2.502 3.19-4.383 7.064-5.497 11.318-.101.303-.189.613-.262.929-.19.718-.334 1.467-.477 2.216a43.17 43.17 0 0 0-.882 8.984v75.18l7.893-.12ZM243.96 8.796H247.156c3.791.33 8.298.778 12.304 1.168h.381l2.695.3 2.384.239h3.41l-34.885-3.145h-1.169l11.684 1.438Zm0 0H247.156c3.791.33 8.298.778 12.304 1.168h.381l2.695.3 2.384.239h3.41l-34.885-3.145h-1.169l11.684 1.438Zm0 0H247.156c3.791.33 8.298.778 12.304 1.168h.381l2.695.3 2.384.239h3.41l-34.885-3.145h-1.169l11.684 1.438Zm0 0H247.156c3.791.33 8.298.778 12.304 1.168h.381l2.695.3 2.384.239h3.41l-34.885-3.145h-1.169l11.684 1.438Zm0 0H247.156c3.791.33 8.298.778 12.304 1.168h.381l2.695.3 2.384.239h3.41l-34.885-3.145h-1.169l11.684 1.438Zm0 0H247.156c3.791.33 8.298.778 12.304 1.168h.381l2.695.3 2.384.239h3.41l-34.885-3.145h-1.169l11.684 1.438Zm0 0H247.156c3.791.33 8.298.778 12.304 1.168h.381l2.695.3 2.384.239h3.41l-34.885-3.145h-1.169l11.684 1.438Zm0 0H247.156c3.791.33 8.298.778 12.304 1.168h.381l2.695.3 2.384.239h3.41l-34.885-3.145h-1.169l11.684 1.438Zm-4.769 0 6.558.539 2.861.24 2.742.21 4.555.329 2.766.21h1.121l5.317.359c.858 0 1.717 0 2.551.18h37.556a3.434 3.434 0 0 0-.548 0l-2.575-.39-1.502-.24-5.389-.778-10.683-1.647h-56.179c3.505.329 7.153.688 10.825.988h.024ZM7.894 40.69v-2.576l-.597.6v1.946l.597.03ZM239.19 8.796l6.558.539 2.861.24 2.742.21 4.555.329 2.766.21h1.121l5.317.359c.858 0 1.717 0 2.551.18h37.556a3.434 3.434 0 0 0-.548 0l-2.575-.39-1.502-.24-5.389-.778-10.683-1.647h-56.179c3.505.329 7.153.688 10.825.988h.024ZM7.894 40.69v-2.576l-.597.6v1.946l.597.03ZM239.19 8.796l6.558.539 2.861.24 2.742.21 4.555.329 2.766.21h1.121l5.317.359c.858 0 1.717 0 2.551.18h37.556a3.434 3.434 0 0 0-.548 0l-2.575-.39-1.502-.24-5.389-.778-10.683-1.647h-56.179c3.505.329 7.153.688 10.825.988h.024ZM7.894 40.69v-2.576l-.597.6v1.946l.597.03ZM239.19 8.796l6.558.539 2.861.24 2.742.21 4.555.329 2.766.21h1.121l5.317.359c.858 0 1.717 0 2.551.18h37.556a3.434 3.434 0 0 0-.548 0l-2.575-.39-1.502-.24-5.389-.778-10.683-1.647h-56.179c3.505.329 7.153.688 10.825.988h.024ZM7.894 40.69v-2.576l-.597.6v1.946l.597.03ZM239.19 8.796l6.558.539 2.861.24 2.742.21 4.555.329 2.766.21h1.121l5.317.359c.858 0 1.717 0 2.551.18h37.556a3.434 3.434 0 0 0-.548 0l-2.575-.39-1.502-.24-5.389-.778-10.683-1.647h-56.179c3.505.329 7.153.688 10.825.988h.024ZM7.894 40.69v-2.576l-.597.6v1.946l.597.03ZM239.19 8.796l6.558.539 2.861.24 2.742.21 4.555.329 2.766.21h1.121l5.317.359c.858 0 1.717 0 2.551.18h37.556a3.434 3.434 0 0 0-.548 0l-2.575-.39-1.502-.24-5.389-.778-10.683-1.647h-56.179c3.505.329 7.153.688 10.825.988h.024ZM7.894 40.69v-2.576l-.597.6v1.946l.597.03ZM239.19 8.796l6.558.539 2.861.24 2.742.21 4.555.329 2.766.21h1.121l5.317.359c.858 0 1.717 0 2.551.18h37.556a3.434 3.434 0 0 0-.548 0l-2.575-.39-1.502-.24-5.389-.778-10.683-1.647h-56.179c3.505.329 7.153.688 10.825.988h.024ZM7.894 40.69v-2.576l-.597.6v1.946l.597.03ZM239.19 8.796l6.558.539 2.861.24 2.742.21 4.555.329 2.766.21h1.121l5.317.359c.858 0 1.717 0 2.551.18h37.556a3.434 3.434 0 0 0-.548 0l-2.575-.39-1.502-.24-5.389-.778-10.683-1.647h-56.179c3.505.329 7.153.688 10.825.988h.024ZM7.894 40.69v-2.576l-.597.6v1.946l.597.03ZM239.19 8.796l6.558.539 2.861.24 2.742.21 4.555.329 2.766.21h1.121l5.317.359c.858 0 1.717 0 2.551.18h37.556a3.434 3.434 0 0 0-.548 0l-2.575-.39-1.502-.24-5.389-.778-10.683-1.647h-56.179c3.505.329 7.153.688 10.825.988h.024ZM7.894 40.69v-2.576l-.597.6v1.946l.597.03ZM239.19 8.796l6.558.539 2.861.24 2.742.21 4.555.329 2.766.21h1.121l5.317.359c.858 0 1.717 0 2.551.18h37.556a3.434 3.434 0 0 0-.548 0l-2.575-.39-1.502-.24-5.389-.778-10.683-1.647h-56.179c3.505.329 7.153.688 10.825.988h.024ZM7.894 40.69v-2.576l-.597.6v1.946l.597.03ZM239.19 8.796l6.558.539 2.861.24 2.742.21 4.555.329 2.766.21h1.121l5.317.359c.858 0 1.717 0 2.551.18h37.556a3.434 3.434 0 0 0-.548 0l-2.575-.39-1.502-.24-5.389-.778-10.683-1.647h-56.179c3.505.329 7.153.688 10.825.988h.024ZM7.894 40.69v-2.576l-.597.6v1.946l.597.03ZM239.19 8.796l6.558.539 2.861.24 2.742.21 4.555.329 2.766.21h1.121l5.317.359c.858 0 1.717 0 2.551.18h37.556a3.434 3.434 0 0 0-.548 0l-2.575-.39-1.502-.24-5.389-.778-10.683-1.647h-56.179c3.505.329 7.153.688 10.825.988h.024ZM7.894 40.69v-2.576l-.597.6v1.946l.597.03ZM239.19 8.796l6.558.539 2.861.24 2.742.21 4.555.329 2.766.21h1.121l5.317.359c.858 0 1.717 0 2.551.18h37.556a3.434 3.434 0 0 0-.548 0l-2.575-.39-1.502-.24-5.389-.778-10.683-1.647h-56.179c3.505.329 7.153.688 10.825.988h.024ZM7.894 40.69v-2.576l-.597.6v1.946l.597.03ZM239.19 8.796l6.558.539 2.861.24 2.742.21 4.555.329 2.766.21h1.121l5.317.359c.858 0 1.717 0 2.551.18h37.556a3.434 3.434 0 0 0-.548 0l-2.575-.39-1.502-.24-5.389-.778-10.683-1.647h-56.179c3.505.329 7.153.688 10.825.988h.024ZM7.894 40.69v-2.576l-.597.6v1.946l.597.03ZM239.19 8.796l6.558.539 2.861.24 2.742.21 4.555.329 2.766.21h1.121l5.317.359c.858 0 1.717 0 2.551.18h37.556a3.434 3.434 0 0 0-.548 0l-2.575-.39-1.502-.24-5.389-.778-10.683-1.647h-56.179c3.505.329 7.153.688 10.825.988h.024ZM7.894 40.69v-2.576l-.597.6v1.946l.597.03ZM239.19 8.796l6.558.539 2.861.24 2.742.21 4.555.329 2.766.21h1.121l5.317.359c.858 0 1.717 0 2.551.18h37.556a3.434 3.434 0 0 0-.548 0l-2.575-.39-1.502-.24-5.389-.778-10.683-1.647h-56.179c3.505.329 7.153.688 10.825.988h.024ZM7.894 40.69v-2.576l-.597.6v1.946l.597.03ZM239.19 8.796l6.558.539 2.861.24 2.742.21 4.555.329 2.766.21h1.121l5.317.359c.858 0 1.717 0 2.551.18h37.556a3.434 3.434 0 0 0-.548 0l-2.575-.39-1.502-.24-5.389-.778-10.683-1.647h-56.179c3.505.329 7.153.688 10.825.988h.024ZM7.894 40.69v-2.576l-.597.6v1.946l.597.03ZM239.19 8.796l6.558.539 2.861.24 2.742.21 4.555.329 2.766.21h1.121l5.317.359c.858 0 1.717 0 2.551.18h37.556a3.434 3.434 0 0 0-.548 0l-2.575-.39-1.502-.24-5.389-.778-10.683-1.647h-56.179c3.505.329 7.153.688 10.825.988h.024ZM7.894 40.69v-2.576l-.597.6v1.946l.597.03ZM239.19 8.796l6.558.539 2.861.24 2.742.21 4.555.329 2.766.21h1.121l5.317.359c.858 0 1.717 0 2.551.18h37.556a3.434 3.434 0 0 0-.548 0l-2.575-.39-1.502-.24-5.389-.778-10.683-1.647h-56.179c3.505.329 7.153.688 10.825.988h.024ZM7.894 40.69v-2.576l-.597.6v1.946l.597.03ZM239.19 8.796l6.558.539 2.861.24 2.742.21 4.555.329 2.766.21h1.121l5.317.359c.858 0 1.717 0 2.551.18h37.556a3.434 3.434 0 0 0-.548 0l-2.575-.39-1.502-.24-5.389-.778-10.683-1.647h-56.179c3.505.329 7.153.688 10.825.988h.024ZM7.894 40.69v-2.576l-.597.6v1.946l.597.03ZM239.19 8.796l6.558.539 2.861.24 2.742.21 4.555.329 2.766.21h1.121l5.317.359c.858 0 1.717 0 2.551.18h37.556a3.434 3.434 0 0 0-.548 0l-2.575-.39-1.502-.24-5.389-.778-10.683-1.647h-56.179c3.505.329 7.153.688 10.825.988h.024ZM7.894 40.69v-2.576l-.597.6v1.946l.597.03ZM239.19 8.796l6.558.539 2.861.24 2.742.21 4.555.329 2.766.21h1.121l5.317.359c.858 0 1.717 0 2.551.18h37.556a3.434 3.434 0 0 0-.548 0l-2.575-.39-1.502-.24-5.389-.778-10.683-1.647h-56.179c3.505.329 7.153.688 10.825.988h.024ZM7.894 40.69v-2.576l-.597.6v1.946l.597.03ZM239.19 8.796l6.558.539 2.861.24 2.742.21 4.555.329 2.766.21h1.121l5.317.359c.858 0 1.717 0 2.551.18h37.556a3.434 3.434 0 0 0-.548 0l-2.575-.39-1.502-.24-5.389-.778-10.683-1.647h-56.179c3.505.329 7.153.688 10.825.988h.024ZM7.894 40.69v-2.576l-.597.6v1.946l.597.03ZM239.19 8.796l6.558.539 2.861.24 2.742.21 4.555.329 2.766.21h1.121l5.317.359c.858 0 1.717 0 2.551.18h37.556a3.434 3.434 0 0 0-.548 0l-2.575-.39-1.502-.24-5.389-.778-10.683-1.647h-56.179c3.505.329 7.153.688 10.825.988h.024ZM7.894 40.69v-2.576l-.597.6v1.946l.597.03ZM239.19 8.796l6.558.539 2.861.24 2.742.21 4.555.329 2.766.21h1.121l5.317.359c.858 0 1.717 0 2.551.18h37.556a3.434 3.434 0 0 0-.548 0l-2.575-.39-1.502-.24-5.389-.778-10.683-1.647h-56.179c3.505.329 7.153.688 10.825.988h.024ZM7.894 40.69v-2.576l-.597.6v1.946l.597.03ZM239.19 8.796l6.558.539 2.861.24 2.742.21 4.555.329 2.766.21h1.121l5.317.359c.858 0 1.717 0 2.551.18h37.556a3.434 3.434 0 0 0-.548 0l-2.575-.39-1.502-.24-5.389-.778-10.683-1.647h-56.179c3.505.329 7.153.688 10.825.988h.024ZM7.894 40.69v-2.576l-.597.6v1.946l.597.03ZM239.19 8.796l6.558.539 2.861.24 2.742.21 4.555.329 2.766.21h1.121l5.317.359c.858 0 1.717 0 2.551.18h37.556a3.434 3.434 0 0 0-.548 0l-2.575-.39-1.502-.24-5.389-.778-10.683-1.647h-56.179c3.505.329 7.153.688 10.825.988h.024ZM7.894 40.69v-2.576l-.597.6v1.946l.597.03ZM239.19 8.796l6.558.539 2.861.24 2.742.21 4.555.329 2.766.21h1.121l5.317.359c.858 0 1.717 0 2.551.18h37.556a3.434 3.434 0 0 0-.548 0l-2.575-.39-1.502-.24-5.389-.778-10.683-1.647h-56.179c3.505.329 7.153.688 10.825.988h.024ZM7.894 40.69v-2.576l-.597.6v1.946l.597.03Z" fill="url(#d)"/></g><g style="mix-blend-mode:multiply" opacity=".6" filter="url(#e)" fill="#C97B3A"><path d="m422.568 63.288 3.619-.569c-1.048-.569-2.381-1.197-3.619-1.766l-.595-.27v-2.395l.595.24a66.226 66.226 0 0 1 6.999 3.623h.833v2.125h-.595l-7.141 1.109h-.596v-2.007l.5-.09ZM422.073 43.3v-2.246l.595.06 7.237.479.595.03v2.216l-.595-.03-7.237-.51h-.595ZM422 74.657v-2.245l.595.06 7.237.479.595.03v2.216l-.595-.03-7.237-.51H422ZM422 103.793v-2.029l.565.054 6.87.433.565.027v2.002l-.565-.027-6.87-.46H422ZM421.216 27.1a19.129 19.129 0 0 0-.571-1.826h.286l8.212 2.305h.262c.143.768.239 1.55.286 2.336h-.476l-7.832-2.156-.167-.659ZM347.739.626h4.761l.874.279c4.428 2.066 9.522 4.462 14.759 6.738l7.141 3.144h-5.427l-6.999-3.144a695.11 695.11 0 0 1-14.52-6.738l-.589-.28ZM367 .5h5.499c2.642 1.078-1.533-.53 1.442.279A67.428 67.428 0 0 0 386.7 3.773c12.343 2.062 24.786 4.96 36.88 8.684 1.117 1.88 1.62 2.51 1.74 2.815a860.814 860.814 0 0 0-11.935-3.294c-5.642-1.527-11.902-2.994-17.544-4.252-3.404-.689-6.594-1.258-9.283-1.557-6.467-.943-12.845-2.678-19.044-5.18-2.809-1.138 1.676.5-.514-.489ZM308.36.626H312l.574.428 15.306 6.738 7.117 3.144h-5.284l-7.094-3.144-14.187-6.259-.072-.479V.626ZM18.83 1.469c2.17-.34 2.113-.362 2.951-.214 2.38.42 4.761.542 6.57.722 2.38.27 136.756.599 143.373.988 8.998.569 21.186 1.347 34.421 2.485 3.547-1.198 10.831-2.815 19.496-4.521 5.237-1.018-2.69.509 2.951-.39H245l9.087.48c12.997 1.886 31.398 4.67 45.228 6.737l18.829 2.994v.3h-12.783a3.421 3.421 0 0 0-.547 0l-2.571-.39-1.5-.239a183.83 183.83 0 0 0-5.38-.779l-10.664-1.647c-18.163-2.694-38.087-5.689-44.585-6.497V.539l-2.666.48c-9.522 1.796-18.853 3.593-25.066 5.06 3.904.39 7.855.779 11.902 1.228l4.308.449c3.5.36 7.142.719 10.808 1.018l6.546.539 2.856.24 2.666.12 4.547.329 3.88.27 5.308.359c.857 0 1.714 0 2.547.18h-29.636a616.79 616.79 0 0 1-14.092-1.408 807.06 807.06 0 0 0-17.687-1.737h-.142C192.91 6.498 180.698 5.72 171.7 5.151c-6.641-.42-140.945-.689-143.444-.988-3.166-.36-7.57-1.3-11.569-2.078.813-.327 1.313-.327 2.143-.616ZM.357 23.956A22.91 22.91 0 0 1 .69 21.71h1.262l6.999-.449H10c-.311.728-.59 1.478-.833 2.246h-.74c-2.38.18-4.761.33-6.951.42l-1.119.03ZM0 42.521v-2.215H3.118c.929-.809 1.88-2.725 3.761-4.642l.595-.599v2.815l-.595.599c-.666.719-.357 1.377-.952 1.946h1.5v2.216h.405c-2.5 0-5.047 0-7.142-.24l-.69.12ZM-1 82.294v-2.216H2.118c.929-.809 2.88-2.725 4.761-4.641l.595-.6v2.816l-.595.598c-.666.719-1.357 1.378-1.952 1.947h2.5v2.216h-.595c-2.5 0-5.047 0-7.142-.24l-.69.12ZM-1 60.009v-2.246l.595.15A54.74 54.74 0 0 0 6.737 59.2h.595v2.305h-.595A57.472 57.472 0 0 1-.405 60.25l-.595-.24ZM-1 99.781v-2.245l.595.15a54.757 54.757 0 0 0 7.141 1.287h.596v2.306h-.596a57.472 57.472 0 0 1-7.14-1.258l-.596-.24Z"/></g><g style="mix-blend-mode:overlay" opacity=".5" filter="url(#f)" fill="#FFDE55"><path d="M429.81 60.338a5.52 5.52 0 0 1-1.548-.21c-.738-.21-3.785-1.407-6.284-2.425v.719a47.719 47.719 0 0 1 6.998 3.353l.834-.27v-1.167ZM425.787 40.605l-3.809-.39v.78c2.38 0 6.427.538 7.832.718v-1.018c-1.095.03-2.595.03-4.023-.09ZM425.404 71.963l-3.809-.39v.779c2.38 0 6.427.539 7.832.719v-1.019c-1.095.03-2.595.03-4.023-.09ZM426.404 100.833l-3.404-.327v.654c2.127 0 5.744.453 7 .604v-.855c-.979.025-2.319.025-3.596-.076ZM420.645 25.274c3.118 1.018 7.546 2.096 8.76 2.395a22.2 22.2 0 0 0-.309-1.826c-.983.106-1.97.106-2.952 0a21.132 21.132 0 0 1-5.88-1.527c.141.31.269.63.381.958ZM400.483 6.199c6.641 1.377 22.685 5.989 22.685 5.989l-1.023-1.288s-6.118-1.827-9.046-2.994c-2.928-1.168-17.925-3.773-22.662-4.402A91.288 91.288 0 0 1 379.13.929l-4.761.18s9.974 2.664 11.069 2.664c1.095 0 8.427 1.048 15.045 2.426ZM375.631 10.81h2.952c-7.142-2.755-21.591-9.253-22.971-9.881h-2.19s10.759 4.79 14.282 6.468c2.785 1.287 6.451 2.814 7.927 3.413ZM333.759 10.81h1.476c-4.76-2.545-18.662-8.983-20.9-9.881h-1.761s7.331 3.623 11.569 5.09a70.025 70.025 0 0 1 9.616 4.791ZM263.989 2.426c3.714.479 31.874 4.402 38.658 5.72 4.547.838 11.902 2.005 16.378 2.664h3.856c-6.142-2.126-29.113-5.15-36.825-5.989-6.832-.838-20.21-2.994-24.59-3.803l-1.428-.24-5.166.24h.262c1.095 0 5.618 1.019 8.855 1.408ZM170.105 38.346h.381c4.761.45 10.093.989 14.282 1.348l-19.686-1.916 5.023.568ZM231.258 7.666c3.999.39 7.784.749 10.189.928l3.856.3-29.732-2.845 52.846 4.761c-6.261-.928-17.782-2.605-23.471-3.144-1.095 0-1.952-.18-2.547-.18-4.547 0-24.995-1.377-28.78-1.617h-.595 1.095c2.762.36 10.307 1.138 17.139 1.797ZM10.045 20.093l-8.831.51c-.102.302-.19.612-.262.927l8.712-.539c.167-.299.381-.598.381-.898ZM7.427 35.035V33.06c-1.928 2.366-5.57 6.169-5.57 6.169l-2.262-.24v1.168l2.38.27 5.452-5.39ZM7.427 74.808V72.83C5.499 75.198 1.857 79 1.857 79l-2.262-.24v1.168l2.38.27 5.452-5.39ZM7.427 57.583c-2.64.13-5.28-.243-7.832-1.108v1.438c2.595.518 5.209.868 7.832 1.048v-1.378ZM7.427 97.356a21.11 21.11 0 0 1-7.832-1.108v1.437c2.595.519 5.209.868 7.832 1.048v-1.377Z"/></g><defs><linearGradient id="a" x1="212.834" y1="67.974" x2="212.834" y2="3.634" gradientUnits="userSpaceOnUse"><stop stop-color="#667E00"/><stop offset=".68" stop-color="#A2C521"/><stop offset="1" stop-color="#5D6930"/></linearGradient><linearGradient id="b" x1="213.443" y1="102.303" x2="213.443" y2="12.728" gradientUnits="userSpaceOnUse"><stop stop-color="#90C400"/><stop offset=".73" stop-color="#FFFFA0"/></linearGradient><linearGradient id="d" x1="215.012" y1="2.686" x2="215.012" y2="69.831" gradientUnits="userSpaceOnUse"><stop stop-color="#F0CA57"/><stop offset="1" stop-color="#D45B1A"/></linearGradient><filter id="c" x="0" y="1.129" width="430" height="110.925" filterUnits="userSpaceOnUse" color-interpolation-filters="sRGB"><feFlood flood-opacity="0" result="BackgroundImageFix"/><feColorMatrix in="SourceAlpha" values="0 0 0 0 0 0 0 0 0 0 0 0 0 0 0 0 0 0 127 0" result="hardAlpha"/><feOffset dy="4"/><feComposite in2="hardAlpha" operator="out"/><feColorMatrix values="0 0 0 0 0.619608 0 0 0 0 0.25098 0 0 0 0 0 0 0 0 1 0"/><feBlend in2="BackgroundImageFix" result="effect1_dropShadow_4_5470"/><feBlend in="SourceGraphic" in2="effect1_dropShadow_4_5470" result="shape"/></filter><filter id="e" x="-5" y=".5" width="439.5" height="111.78" filterUnits="userSpaceOnUse" color-interpolation-filters="sRGB"><feFlood flood-opacity="0" result="BackgroundImageFix"/><feColorMatrix in="SourceAlpha" values="0 0 0 0 0 0 0 0 0 0 0 0 0 0 0 0 0 0 127 0" result="hardAlpha"/><feOffset dy="4"/><feGaussianBlur stdDeviation="2"/><feComposite in2="hardAlpha" operator="out"/><feColorMatrix values="0 0 0 0 0 0 0 0 0 0 0 0 0 0 0 0 0 0 0.25 0"/><feBlend in2="BackgroundImageFix" result="effect1_dropShadow_4_5470"/><feBlend in="SourceGraphic" in2="effect1_dropShadow_4_5470" result="shape"/></filter><filter id="f" x="-4.405" y=".779" width="438.405" height="108.985" filterUnits="userSpaceOnUse" color-interpolation-filters="sRGB"><feFlood flood-opacity="0" result="BackgroundImageFix"/><feColorMatrix in="SourceAlpha" values="0 0 0 0 0 0 0 0 0 0 0 0 0 0 0 0 0 0 127 0" result="hardAlpha"/><feOffset dy="4"/><feGaussianBlur stdDeviation="2"/><feComposite in2="hardAlpha" operator="out"/><feColorMatrix values="0 0 0 0 0 0 0 0 0 0 0 0 0 0 0 0 0 0 0.25 0"/><feBlend in2="BackgroundImageFix" result="effect1_dropShadow_4_5470"/><feBlend in="SourceGraphic" in2="effect1_dropShadow_4_5470" result="shape"/></filter></defs></svg>