<svg width="20" height="20" viewBox="0 0 20 20" fill="none" xmlns="http://www.w3.org/2000/svg">
<g clip-path="url(#clip0_953_131184)">
<path d="M0 0H9.29186H10.6462H20V9.54635V10.3102V20H0V10.3301V9.4383V0ZM0 0V9.4383V10.3301V20H20V10.3102C19.9758 10.4252 19.9807 10.5546 19.974 10.6722C19.9666 10.8033 19.9512 10.9318 19.9328 11.0618C19.8904 11.0919 19.877 11.145 19.8684 11.1956C19.8652 11.2142 19.8553 11.255 19.8617 11.2721C19.8471 11.3534 19.8363 11.4356 19.824 11.5173C19.6771 12.3431 19.3869 13.1271 19.0159 13.8768C18.2234 15.4785 17.1089 16.8258 15.6406 17.8499C15.5749 17.8966 15.5087 17.9425 15.4418 17.9876C15.375 18.0326 15.3076 18.0768 15.2397 18.1202C15.1718 18.1636 15.1033 18.2062 15.0343 18.2479C14.9654 18.2896 14.8959 18.3305 14.8259 18.3705C14.7559 18.4105 14.6855 18.4496 14.6145 18.4879C14.5436 18.5261 14.4722 18.5635 14.4003 18.6C14.3284 18.6365 14.2561 18.6721 14.1834 18.7068C14.1106 18.7415 14.0374 18.7753 13.9639 18.8083C13.8903 18.8412 13.8163 18.8732 13.742 18.9043C13.6676 18.9354 13.5928 18.9655 13.5177 18.9948C13.4426 19.024 13.3671 19.0523 13.2913 19.0797C13.2155 19.1071 13.1394 19.1335 13.0629 19.159C12.9865 19.1846 12.9097 19.2091 12.8326 19.2327C12.7555 19.2564 12.6782 19.279 12.6006 19.3007C12.523 19.3224 12.4451 19.3432 12.3669 19.3629C12.2888 19.3827 12.2104 19.4016 12.1318 19.4194C12.0532 19.4373 11.9744 19.4542 11.8954 19.4701C11.8163 19.486 11.7371 19.5009 11.6578 19.5149C11.5784 19.5288 11.4988 19.5417 11.4191 19.5537C11.3394 19.5658 11.2596 19.5769 11.1796 19.5869C11.0996 19.5969 11.0195 19.606 10.9393 19.6141C10.8591 19.622 10.7788 19.629 10.6984 19.6352C10.6181 19.6413 10.5376 19.6464 10.4571 19.6504C10.3766 19.6544 10.2961 19.6576 10.2155 19.6598C10.1349 19.6618 10.0543 19.663 9.97371 19.6631C9.89311 19.6632 9.81252 19.6623 9.73193 19.6604C9.65135 19.6585 9.5708 19.6557 9.49029 19.6518C9.40977 19.648 9.32932 19.6432 9.24893 19.6373C9.16854 19.6314 9.08822 19.6246 9.00799 19.6168C8.92777 19.609 8.84765 19.6002 8.76764 19.5904C8.68764 19.5805 8.60776 19.5697 8.52801 19.558C8.44827 19.5463 8.36868 19.5335 8.28926 19.5198C7.14477 19.3143 6.29734 19.0019 5.28795 18.4307C5.16078 18.3587 4.88674 18.2197 4.80281 18.1188L4.80045 18.1096C4.75617 18.0739 4.71225 18.0464 4.6624 18.0192C4.50537 17.9471 4.3667 17.8167 4.23465 17.7066C3.91293 17.4438 3.60728 17.1634 3.3177 16.8656C3.25072 16.7977 3.1573 16.7195 3.10877 16.6376C3.13836 16.6508 3.15355 16.6709 3.17428 16.6955L3.18328 16.7063C3.31369 16.6424 3.39326 16.5238 3.50256 16.4331C3.58023 16.3686 3.66904 16.3148 3.75146 16.2565C3.80258 16.2203 3.84934 16.1786 3.90004 16.142C3.98104 16.0835 4.16465 16.0316 4.21646 15.9824C4.24275 15.9575 4.23891 15.9391 4.24215 15.9054C4.11963 15.8121 4.01947 15.6735 3.91777 15.558C3.6274 15.2283 3.36078 14.8975 3.12164 14.5278C2.99412 14.3307 2.88389 14.1237 2.75844 13.9257C2.08318 12.6563 1.71972 11.2876 1.71812 9.84731C1.71793 9.68156 1.71206 9.51268 1.72238 9.34732C1.75958 8.75066 1.87042 8.17516 2.02555 7.59906C2.35264 6.52658 2.9124 5.41971 3.67863 4.59221C3.7568 4.47613 3.87773 4.36947 3.97602 4.26861C4.58201 3.64672 5.30158 3.07984 6.08199 2.69342C6.33731 2.56746 6.59305 2.43814 6.85967 2.33742C7.34072 2.14643 7.83178 2.00764 8.33801 1.90251C8.51721 1.86529 8.71193 1.8229 8.89477 1.81614C9.0535 1.78589 9.21967 1.77644 9.38055 1.76398C9.53883 1.75023 9.69739 1.74171 9.85623 1.73845C10.0151 1.73517 10.1738 1.73715 10.3325 1.74438C10.4913 1.75161 10.6496 1.76407 10.8074 1.78177C10.9653 1.79946 11.1225 1.82235 11.2788 1.85044C11.3218 1.63603 11.7666 1.24602 11.9474 1.11991C12.0803 1.02725 12.2252 0.977125 12.3374 0.855207L12.2209 0.805709C11.9686 0.752424 11.7198 0.704338 11.465 0.662857C11.3227 0.639703 11.1671 0.608012 11.0229 0.614412C11.0369 0.607133 11.0496 0.599256 11.0627 0.590316C11.0344 0.588264 11.0088 0.584959 10.9813 0.578141L10.9748 0.563883C11.0091 0.544408 11.0435 0.523322 11.0751 0.499508C11.1246 0.462061 11.349 0.240434 11.3571 0.187044L11.3347 0.171713C11.3876 0.157198 11.4344 0.191129 11.4885 0.17406C11.4947 0.172104 11.5009 0.169903 11.507 0.167825C11.4525 0.151763 11.0526 0.0733295 10.9991 0.0709295L11.0044 0.0725406L11.0176 0.0633889C11.0484 0.068385 11.0793 0.0752992 11.11 0.0666209C11.1161 0.0649029 11.1221 0.0628619 11.1282 0.0609826C10.9816 0.0414191 10.8336 0.0204271 10.6857 0.0147498L10.6462 0H9.29186H0ZM10.6462 0L10.6857 0.0147498C10.8336 0.0204271 10.9816 0.0414191 11.1282 0.0609826C11.1221 0.0628619 11.1161 0.0649029 11.11 0.0666209C11.0793 0.0752992 11.0484 0.068385 11.0176 0.0633889L11.0044 0.0725406L10.9991 0.0709295C11.0526 0.0733295 11.4525 0.151763 11.507 0.167825C11.5009 0.169903 11.4947 0.172104 11.4885 0.17406C11.4344 0.191129 11.3876 0.157198 11.3347 0.171713L11.3571 0.187044C11.349 0.240434 11.1246 0.462061 11.0751 0.499508C11.0435 0.523322 11.0091 0.544408 10.9748 0.563883L10.9813 0.578141C11.0088 0.584959 11.0344 0.588264 11.0627 0.590316C11.0496 0.599256 11.0369 0.607133 11.0229 0.614412C11.1671 0.608012 11.3227 0.639703 11.465 0.662857C11.7198 0.704338 11.9686 0.752424 12.2209 0.805709L12.3374 0.855207C12.2252 0.977125 12.0803 1.02725 11.9474 1.11991C11.7666 1.24602 11.3218 1.63603 11.2788 1.85044C12.9985 2.17668 14.4209 2.8866 15.6708 4.11918C15.771 4.21694 15.8688 4.31707 15.9641 4.41957C16.0595 4.52207 16.1523 4.62682 16.2426 4.73383C16.3329 4.84082 16.4206 4.94993 16.5056 5.06117C16.5906 5.17241 16.6729 5.28564 16.7524 5.40086C17.9996 7.23182 18.4098 9.38553 17.9975 11.5573C17.9397 11.8614 17.8543 12.1609 17.7601 12.4556C17.2131 14.1667 16.1163 15.7233 14.6224 16.7382C14.5655 16.7767 14.5082 16.8145 14.4504 16.8516C14.3925 16.8887 14.3343 16.925 14.2756 16.9607C14.2168 16.9963 14.1577 17.0312 14.0981 17.0654C14.0385 17.0996 13.9785 17.133 13.9181 17.1657C13.8577 17.1984 13.7969 17.2304 13.7357 17.2616C13.6745 17.2927 13.613 17.3232 13.551 17.3529C13.4891 17.3825 13.4268 17.4114 13.3641 17.4396C13.3014 17.4677 13.2384 17.495 13.1751 17.5216C13.1118 17.5482 13.0481 17.574 12.9841 17.599C12.9202 17.624 12.8559 17.6482 12.7913 17.6716C12.7267 17.695 12.6619 17.7177 12.5968 17.7395C12.5316 17.7613 12.4662 17.7823 12.4006 17.8025C12.3349 17.8227 12.269 17.8421 12.2029 17.8606C12.1368 17.8792 12.0704 17.897 12.0039 17.9139C11.9373 17.9308 11.8705 17.9469 11.8036 17.9622C11.7366 17.9775 11.6694 17.9919 11.6021 18.0055C11.5348 18.0192 11.4673 18.032 11.3997 18.0439C11.332 18.0559 11.2643 18.067 11.1963 18.0773C11.1284 18.0875 11.0604 18.097 10.9923 18.1056C10.9241 18.1142 10.8559 18.1219 10.7875 18.1288C10.7192 18.1357 10.6508 18.1418 10.5823 18.147C10.5138 18.1523 10.4453 18.1566 10.3767 18.1602C10.3081 18.1637 10.2394 18.1664 10.1708 18.1682C10.1021 18.17 10.0334 18.171 9.96475 18.1712C9.89606 18.1713 9.82738 18.1706 9.75871 18.169C9.69005 18.1674 9.62141 18.165 9.55279 18.1618C9.48419 18.1585 9.41563 18.1544 9.34713 18.1495C9.27861 18.1445 9.21018 18.1387 9.14182 18.1321C9.07344 18.1254 9.00517 18.1179 8.93699 18.1096C8.86882 18.1013 8.80075 18.0921 8.73279 18.0821C8.66484 18.0721 8.59702 18.0612 8.52934 18.0496C8.46165 18.0379 8.39412 18.0254 8.32674 18.012C8.19821 17.9871 8.07034 17.9591 7.94312 17.9282C7.81591 17.8972 7.6895 17.8632 7.56389 17.8263C7.43827 17.7893 7.31361 17.7495 7.18988 17.7066C7.06616 17.6638 6.94352 17.6181 6.82195 17.5695C6.61424 17.486 6.41342 17.3888 6.20779 17.3011C6.17789 17.2705 5.77385 17.0566 5.69779 17.0115C5.58178 16.9428 5.4692 16.8671 5.35754 16.7915C5.12178 16.6328 4.89541 16.4616 4.67842 16.278C4.53521 16.1561 4.39609 16.0128 4.24215 15.9054C4.23891 15.9391 4.24275 15.9575 4.21646 15.9824C4.16465 16.0316 3.98104 16.0835 3.90004 16.142C3.84934 16.1786 3.80258 16.2203 3.75146 16.2565C3.66904 16.3148 3.58023 16.3686 3.50256 16.4331C3.39326 16.5238 3.31369 16.6424 3.18328 16.7063L3.17428 16.6955C3.15355 16.6709 3.13836 16.6508 3.10877 16.6376C3.1573 16.7195 3.25072 16.7977 3.3177 16.8656C3.60728 17.1634 3.91293 17.4438 4.23465 17.7066C4.3667 17.8167 4.50537 17.9471 4.6624 18.0192C4.71225 18.0464 4.75617 18.0739 4.80045 18.1096L4.80281 18.1188C4.88674 18.2197 5.16078 18.3587 5.28795 18.4307C6.29734 19.0019 7.14477 19.3143 8.28926 19.5198C8.36868 19.5335 8.44827 19.5463 8.52801 19.558C8.60776 19.5697 8.68764 19.5805 8.76764 19.5904C8.84765 19.6002 8.92777 19.609 9.00799 19.6168C9.08822 19.6246 9.16854 19.6314 9.24893 19.6373C9.32932 19.6432 9.40977 19.648 9.49029 19.6518C9.5708 19.6557 9.65135 19.6585 9.73193 19.6604C9.81252 19.6623 9.89312 19.6632 9.97373 19.6631C10.0543 19.663 10.1349 19.6618 10.2155 19.6598C10.2961 19.6576 10.3766 19.6544 10.4571 19.6504C10.5376 19.6464 10.6181 19.6413 10.6984 19.6352C10.7788 19.629 10.8591 19.622 10.9393 19.6141C11.0195 19.606 11.0996 19.5969 11.1796 19.5869C11.2596 19.5769 11.3394 19.5658 11.4191 19.5537C11.4988 19.5417 11.5784 19.5288 11.6578 19.5149C11.7371 19.5009 11.8163 19.486 11.8954 19.4701C11.9744 19.4542 12.0532 19.4373 12.1318 19.4194C12.2104 19.4016 12.2888 19.3827 12.3669 19.3629C12.4451 19.3432 12.523 19.3224 12.6006 19.3007C12.6782 19.279 12.7555 19.2564 12.8326 19.2327C12.9097 19.2091 12.9865 19.1846 13.0629 19.159C13.1394 19.1335 13.2155 19.1071 13.2913 19.0797C13.3671 19.0523 13.4426 19.024 13.5177 18.9948C13.5928 18.9655 13.6676 18.9354 13.742 18.9043C13.8163 18.8732 13.8903 18.8412 13.9639 18.8083C14.0374 18.7753 14.1106 18.7415 14.1834 18.7068C14.2561 18.6721 14.3284 18.6365 14.4003 18.6C14.4722 18.5635 14.5436 18.5261 14.6145 18.4879C14.6855 18.4496 14.7559 18.4105 14.8259 18.3705C14.8959 18.3305 14.9654 18.2896 15.0343 18.2479C15.1033 18.2062 15.1718 18.1636 15.2397 18.1202C15.3076 18.0768 15.375 18.0326 15.4418 17.9876C15.5087 17.9425 15.5749 17.8966 15.6406 17.8499C17.1089 16.8258 18.2234 15.4785 19.0159 13.8768C19.3869 13.1271 19.6771 12.3431 19.824 11.5173C19.8363 11.4356 19.8471 11.3534 19.8617 11.2721C19.8553 11.255 19.8652 11.2142 19.8684 11.1956C19.877 11.145 19.8904 11.0919 19.9328 11.0618C19.9512 10.9318 19.9666 10.8033 19.974 10.6722C19.9807 10.5546 19.9758 10.4252 20 10.3102V9.54635V0H10.6462Z" fill="url(#paint0_linear_953_131184)"/>
<path d="M11.1691 13.6619L11.1821 13.6817C11.199 13.7169 11.2263 13.7596 11.2304 13.7984C11.2017 13.8966 11.2444 14.0326 11.2497 14.136C11.2576 14.2858 11.2548 14.442 11.2258 14.5893C11.2003 14.5493 11.2003 14.3858 11.192 14.3306C11.1691 14.178 11.1126 13.9153 11.0244 13.7892C11.0751 13.7487 11.1297 13.7145 11.1691 13.6619Z" fill="#EC0C0B"/>
<path d="M11.2303 13.7984C11.3669 14.0247 11.3745 14.4309 11.3122 14.6819C11.2976 14.7408 11.2706 14.8677 11.2227 14.9061L11.2166 14.9023L11.2106 14.9073C11.1955 14.8787 11.2061 14.635 11.2177 14.5998C11.2207 14.5907 11.2193 14.5926 11.2257 14.5893C11.2547 14.442 11.2575 14.2858 11.2497 14.136C11.2443 14.0326 11.2016 13.8966 11.2303 13.7984Z" fill="#941A16"/>
<path d="M14.0938 15.2393C14.2606 14.9536 14.4589 14.7247 14.6858 14.4873C14.75 14.4201 14.8126 14.3488 14.8805 14.2854C14.9765 14.1956 15.0829 14.1171 15.1797 14.0277L15.1903 14.0383C15.1829 14.1543 14.9565 14.2758 14.911 14.3924C14.909 14.3975 14.9073 14.4027 14.9055 14.4079C14.8408 14.4474 14.7836 14.5137 14.7299 14.5673C14.6023 14.6946 14.475 14.8244 14.3695 14.9711C14.2938 15.0762 14.2325 15.1914 14.1549 15.2949C14.1482 15.2948 14.1366 15.2951 14.1303 15.2934C14.1047 15.2864 14.1022 15.2612 14.0938 15.2393Z" fill="#BC2914"/>
<path d="M14.1548 15.2949C14.2324 15.1914 14.2937 15.0762 14.3694 14.9711C14.4749 14.8244 14.6022 14.6946 14.7298 14.5673C14.7834 14.5137 14.8407 14.4474 14.9054 14.4079C14.911 14.4587 14.8612 14.5168 14.8306 14.5554C14.7733 14.6278 14.6793 14.7094 14.6416 14.7924C14.5289 14.8923 14.4027 15.0545 14.3433 15.1916C14.376 15.1931 14.4116 15.192 14.4439 15.1975C14.5163 15.2704 14.5339 15.2263 14.5937 15.2625C14.5788 15.2959 14.5264 15.318 14.5214 15.3499C14.5778 15.3553 14.6344 15.3399 14.6894 15.3288C14.4938 15.5152 14.1744 15.7646 13.9484 15.9121L13.9461 15.9096C13.9461 15.9046 13.9444 15.8993 13.946 15.8946C13.9529 15.875 14.09 15.7481 14.1206 15.7052C14.147 15.668 14.1631 15.629 14.1791 15.5867C14.1601 15.5274 14.1378 15.4706 14.1135 15.4131L14.1548 15.2949Z" fill="#E27963"/>
<path d="M14.0938 15.2393C14.1022 15.2612 14.1047 15.2864 14.1303 15.2934C14.1366 15.2951 14.1482 15.2948 14.1549 15.2949L14.1136 15.4131C14.1379 15.4705 14.1602 15.5274 14.1792 15.5867C14.1632 15.629 14.1471 15.668 14.1207 15.7052C14.0902 15.7481 13.953 15.875 13.9462 15.8946C13.9445 15.8993 13.9462 15.9046 13.9462 15.9095L13.9485 15.9121C13.7997 16.0502 13.0599 16.4821 12.8623 16.5282C12.9729 16.4138 13.0968 16.3184 13.2186 16.2164C13.552 15.9373 13.8972 15.6331 14.0938 15.2393Z" fill="url(#paint1_linear_953_131184)"/>
<path d="M14.6421 14.7924C14.8767 14.6462 14.8953 14.5491 15.0641 14.3634C15.1731 14.2434 15.3253 14.1228 15.4591 14.0321C15.5344 13.9811 15.8719 13.7855 15.9459 13.7993C15.9188 13.8585 15.888 13.9199 15.8459 13.97C15.8196 14.0158 15.7857 14.0939 15.742 14.1236C15.6937 14.1274 15.6503 14.1619 15.606 14.1808C15.5352 14.2111 15.4631 14.2367 15.3971 14.2771C15.1762 14.412 14.8627 14.7199 14.6931 14.9199C14.6612 14.9575 14.5228 15.1537 14.5116 15.1929L14.5166 15.2109C14.6373 15.2169 14.7865 15.0796 14.9295 15.1032C14.8565 15.1775 14.7782 15.2738 14.6899 15.3288C14.6349 15.3399 14.5783 15.3553 14.5219 15.3499C14.5269 15.318 14.5793 15.2959 14.5942 15.2625C14.5344 15.2263 14.5168 15.2704 14.4444 15.1975C14.4121 15.192 14.3765 15.1931 14.3438 15.1916C14.4032 15.0545 14.5294 14.8923 14.6421 14.7924Z" fill="#F0C0B3"/>
<path d="M14.6421 14.7924C14.8767 14.6462 14.8953 14.5491 15.0641 14.3634C15.1731 14.2434 15.3253 14.1228 15.4591 14.0321C15.5344 13.9811 15.8719 13.7855 15.9459 13.7993C15.9188 13.8585 15.888 13.9199 15.8459 13.97C15.5335 13.9876 14.921 14.5818 14.708 14.82C14.6028 14.9377 14.5089 15.0524 14.4444 15.1975C14.4121 15.192 14.3765 15.1931 14.3438 15.1916C14.4032 15.0545 14.5294 14.8923 14.6421 14.7924Z" fill="#ED958C"/>
<path d="M14.9287 15.1032C14.7856 15.0796 14.6365 15.2169 14.5158 15.2109L14.5107 15.1929C14.522 15.1537 14.6604 14.9575 14.6923 14.9199C14.8618 14.7199 15.1754 14.412 15.3962 14.2771C15.4622 14.2367 15.5344 14.2111 15.6052 14.1808C15.6495 14.1619 15.6929 14.1274 15.7411 14.1236C15.5125 14.4872 15.242 14.809 14.9287 15.1032Z" fill="url(#paint2_linear_953_131184)"/>
<path d="M14.4756 3.71123C14.5087 3.70445 14.5248 3.71992 14.5523 3.7383C14.7164 3.84798 14.8681 3.98912 15.0186 4.1167C15.9019 4.86543 16.5963 5.74867 17.0655 6.81158C17.142 6.98476 17.2425 7.17406 17.2799 7.35945C17.1731 7.12759 17.0825 6.88836 16.9721 6.65757C16.8351 6.37103 16.6717 6.09634 16.502 5.82814C16.431 5.71586 16.3608 5.58328 16.27 5.48646C16.2271 5.4407 16.167 5.43744 16.1193 5.4015C16.0062 5.31625 15.8197 5.11974 15.7169 5.00652C15.6332 4.91441 15.5524 4.81746 15.4639 4.73007C15.3583 4.6258 14.9667 4.29765 14.8377 4.24908C14.8192 4.25543 14.8207 4.25299 14.8067 4.26978C14.7176 4.07648 14.5891 3.89097 14.4756 3.71123Z" fill="#3E0000"/>
<path d="M8.79915 13.606C8.87573 13.5378 8.93472 13.4271 9.00612 13.35C9.22679 13.1118 9.57269 12.9605 9.8964 12.9498C10.346 12.9349 10.6577 13.095 10.9773 13.3915C11.022 13.3813 11.0441 13.3858 11.0823 13.4111C11.1195 13.4357 11.1665 13.4795 11.1938 13.5152C11.2101 13.5676 11.2196 13.598 11.1944 13.6483C11.1927 13.6517 11.1907 13.6551 11.189 13.6585C11.1826 13.671 11.1849 13.6656 11.182 13.6817L11.169 13.6619C11.1296 13.7145 11.075 13.7487 11.0243 13.7892C10.3592 14.2927 9.70544 14.8105 9.06306 15.3426C8.87384 15.195 8.72923 14.9499 8.66075 14.7222C8.54409 14.3344 8.60911 13.9572 8.79915 13.606Z" fill="#F86E26"/>
<path d="M10.9775 13.3915C11.0223 13.3813 11.0444 13.3858 11.0825 13.4111C11.1198 13.4357 11.1668 13.4795 11.194 13.5152C11.2104 13.5676 11.2199 13.598 11.1947 13.6483C11.1929 13.6517 11.191 13.6551 11.1892 13.6585C11.1828 13.671 11.1851 13.6656 11.1823 13.6817L11.1693 13.6619C11.1087 13.5699 11.0499 13.4747 10.9775 13.3915Z" fill="#941A16"/>
<path d="M9.26265 13.3786C9.27344 13.3781 9.2842 13.3781 9.29496 13.3788C9.30573 13.3794 9.31644 13.3806 9.32709 13.3823C9.33773 13.3841 9.34824 13.3864 9.35863 13.3893C9.36903 13.3922 9.37926 13.3956 9.3893 13.3995C9.45472 13.425 9.50383 13.4731 9.53015 13.5383C9.57974 13.661 9.56072 13.8174 9.50943 13.9368C9.44726 14.0816 9.34652 14.1651 9.20297 14.2213C9.15879 14.2296 9.10939 14.2182 9.06791 14.2027C9.00744 14.1801 8.96424 14.1332 8.93888 14.0746C8.88818 13.9574 8.90101 13.8178 8.94685 13.7012C9.00826 13.5451 9.10959 13.445 9.26265 13.3786Z" fill="#FEFEFE"/>
<path d="M16.2157 13.3425C16.3661 13.1791 16.538 13.0347 16.6844 12.8684C16.8715 12.6558 17.0259 12.4047 17.1852 12.1708C17.228 12.1079 17.2905 12.0659 17.3138 11.9914C17.3533 11.8652 17.4204 11.2463 17.4363 11.222C17.4588 11.3204 17.3998 11.6532 17.3786 11.7611C17.2055 12.6404 16.9068 13.4558 16.4279 14.2163C16.2911 14.4328 16.1431 14.6414 15.9839 14.842C15.931 14.9097 15.8787 14.9845 15.8189 15.0462C15.4799 15.4777 15.0586 15.866 14.6293 16.2062C14.5634 16.2584 14.4793 16.3374 14.4033 16.3717C13.5635 17.0235 12.3155 17.5422 11.276 17.7455C11.1474 17.7706 10.9178 17.8285 10.7929 17.8159C10.7893 17.8155 10.7858 17.8148 10.7822 17.8142C10.8117 17.801 10.8451 17.8041 10.8767 17.7987C10.9824 17.7808 11.1495 17.7664 11.2431 17.7262C11.3264 17.6904 11.4107 17.6068 11.4876 17.5556C11.7087 17.4084 12.7057 16.7687 12.7856 16.6004C12.7649 16.5919 12.754 16.598 12.7341 16.6064C12.6059 16.6607 12.4783 16.7167 12.3469 16.7634C12.2197 16.8086 12.0883 16.8436 11.9608 16.8891L11.9445 16.8799C11.9851 16.8452 12.18 16.7992 12.2424 16.778C12.3888 16.7284 12.5315 16.6643 12.6741 16.6045C12.7345 16.5791 12.7995 16.5449 12.8623 16.5282C13.0599 16.4821 13.7997 16.0502 13.9485 15.9121C14.1745 15.7646 14.4939 15.5152 14.6896 15.3288C14.7779 15.2738 14.8562 15.1775 14.9291 15.1032C15.2424 14.809 15.513 14.4872 15.7416 14.1236C15.7853 14.0939 15.8192 14.0158 15.8455 13.97C15.8876 13.9199 15.9184 13.8585 15.9455 13.7993C16.0386 13.7395 16.3274 13.0401 16.3775 12.8961C16.3601 12.9674 16.3415 13.0381 16.3131 13.106C16.2799 13.1851 16.2386 13.2593 16.2157 13.3425Z" fill="url(#paint3_linear_953_131184)"/>
<path d="M14.4035 16.3717L14.3594 16.3821L14.3594 16.3752C14.646 16.0998 14.9449 15.8337 15.2354 15.5616L15.6342 15.1893C15.69 15.1374 15.7431 15.0804 15.802 15.0323L15.8191 15.0462C15.4801 15.4778 15.0588 15.866 14.6294 16.2062C14.5636 16.2584 14.4795 16.3374 14.4035 16.3717Z" fill="#F86E26"/>
<path d="M8.89524 1.81614C8.94368 1.81895 8.99184 1.81904 9.03975 1.82668C9.111 1.83803 9.18116 1.82547 9.25231 1.83001C9.29602 1.8328 9.34133 1.84394 9.38505 1.84174C9.41339 1.84032 9.43719 1.8291 9.46255 1.81774C9.47063 1.81411 9.47882 1.8107 9.48692 1.80712L9.50196 1.81413L9.49872 1.83168C9.47399 1.84155 9.46768 1.83975 9.44094 1.83582C9.42788 1.89623 9.49442 1.9401 9.45526 2.00559C9.27887 2.08774 9.09526 2.14744 8.91216 2.21213C8.84419 2.23615 8.77969 2.26942 8.70868 2.28287C8.68661 2.28705 8.66063 2.29692 8.64698 2.31567C8.64508 2.31826 8.64395 2.32133 8.64245 2.32416C8.64983 2.33885 8.65225 2.34248 8.66553 2.35342C10.0479 2.14061 11.33 2.23362 12.6505 2.70961C12.8261 2.77291 12.9898 2.85592 13.162 2.92572C13.2735 3.03572 13.7014 3.21256 13.8626 3.30028C14.0134 3.38229 14.1596 3.48363 14.299 3.58375C13.1204 3.59615 12.1919 3.82967 11.1141 4.2953C10.9833 4.35184 10.6806 4.45666 10.586 4.55713C10.5785 4.56514 10.5725 4.57354 10.5671 4.58311C10.2542 4.416 9.922 4.35096 9.57673 4.4559C9.37182 4.51819 9.20372 4.63242 9.06083 4.78994C9.02481 4.82965 8.98561 4.89272 8.94512 4.92401C8.91577 4.91209 8.90759 4.91096 8.87846 4.92467C8.79167 4.96551 8.71307 5.03969 8.63397 5.0943C8.55905 5.14602 8.4751 5.18328 8.40221 5.23774C8.19024 5.39608 7.99864 5.58942 7.80301 5.76768C7.72299 5.84061 7.63419 5.90492 7.55546 5.97842C7.52063 6.01092 7.49616 6.05383 7.46104 6.08557C7.39973 6.14098 7.29807 6.14236 7.22887 6.18651C7.17919 6.2182 7.13333 6.25582 7.08212 6.28522C7.02233 6.31953 6.93235 6.34699 6.88235 6.39059C6.84331 6.42463 6.83112 6.48012 6.79278 6.51481C6.73659 6.56569 6.65313 6.57861 6.59616 6.62822C6.52594 6.68938 6.47141 6.77791 6.41286 6.85035C6.2362 7.06887 6.17766 7.07731 6.0886 7.36002C6.04126 7.51031 5.98428 7.66524 5.95311 7.81934C5.93157 7.92596 5.92964 8.04067 5.89942 8.14483C5.87153 8.24098 5.8103 8.32498 5.78413 8.42115C5.75938 8.51209 5.77969 8.61229 5.74964 8.70039C5.69315 8.86592 5.60182 9.02942 5.53296 9.19162C5.38475 9.54554 5.25297 9.90547 5.1376 10.2714C5.09841 10.3981 5.05343 10.5286 5.02661 10.6585C5.01307 10.7241 5.01643 10.7924 5.00315 10.8582C4.97538 10.9958 4.93548 11.1311 4.90784 11.2688C4.84401 11.6011 4.79736 11.9358 4.76788 12.2729C4.75201 12.4683 4.741 12.6639 4.73485 12.8598C4.73155 12.947 4.73936 13.0506 4.72415 13.1355C4.71016 13.2238 4.73352 13.3184 4.71577 13.4039C4.61317 13.363 4.50413 13.338 4.40069 13.2983C3.97643 13.1353 3.54628 12.9526 3.15526 12.7197C3.08594 12.6784 3.02182 12.6307 2.95411 12.5872C2.88643 12.5438 2.79628 12.5148 2.74571 12.4505C2.66413 12.3468 2.62007 12.1263 2.5811 11.9958C2.56244 11.9332 2.54458 11.8703 2.52751 11.8072C2.51044 11.7441 2.49416 11.6809 2.47868 11.6174C2.46321 11.5539 2.44854 11.4902 2.43467 11.4263C2.42081 11.3625 2.40775 11.2984 2.3955 11.2342C2.38324 11.17 2.3718 11.1057 2.36118 11.0412C2.35055 10.9767 2.34074 10.9121 2.33175 10.8474C2.32275 10.7827 2.31457 10.7178 2.30721 10.6529C2.29986 10.588 2.29332 10.5229 2.2876 10.4578C2.28188 10.3927 2.27698 10.3276 2.27292 10.2623C2.26884 10.1971 2.26559 10.1319 2.26317 10.0665C2.26074 10.0012 2.25913 9.93592 2.25837 9.87057C2.25758 9.80522 2.25763 9.73987 2.2585 9.67453C2.25938 9.60918 2.26107 9.54386 2.2636 9.47856C2.26613 9.41324 2.26947 9.34798 2.27364 9.28276C2.27781 9.21755 2.2828 9.15239 2.28862 9.08729C2.29443 9.0222 2.30106 8.95719 2.30852 8.89227C2.31738 8.81774 2.32741 8.74336 2.33862 8.66914C2.34983 8.59494 2.36221 8.52092 2.37575 8.44709C2.3893 8.37328 2.40402 8.29969 2.41991 8.22633C2.43578 8.15297 2.45281 8.07988 2.471 8.00707C2.48919 7.93425 2.50853 7.86173 2.52901 7.78953C2.54951 7.71733 2.57113 7.64547 2.59389 7.57395C2.61664 7.50242 2.64052 7.43128 2.66553 7.36051C2.69055 7.28974 2.71667 7.21939 2.74391 7.14945C2.77114 7.07952 2.79947 7.01003 2.82891 6.94098C2.85834 6.87194 2.88885 6.80338 2.92046 6.73529C2.95207 6.66722 2.98475 6.59966 3.01848 6.53262C3.05222 6.46557 3.08701 6.39908 3.12286 6.33315C3.1587 6.2672 3.19559 6.20183 3.2335 6.13705C3.27141 6.07227 3.31033 6.00811 3.35028 5.94457C3.39022 5.88103 3.43115 5.81813 3.47309 5.75588C3.51502 5.69364 3.55792 5.63207 3.6018 5.57117C3.68229 5.45748 3.88141 5.16246 3.97712 5.08697C4.01557 5.02653 4.06985 4.97072 4.11669 4.91627C4.31913 4.68094 4.5438 4.46654 4.76868 4.25307C4.69897 4.25285 4.6526 4.28496 4.60305 4.33449C4.54841 4.3891 4.5018 4.45383 4.4446 4.50555C4.36499 4.57752 4.26282 4.63571 4.17645 4.70059C4.03444 4.80725 3.64018 5.16707 3.47585 5.16487C3.45016 5.16451 3.44786 5.16024 3.43141 5.14278C3.40919 4.9926 3.67339 4.70776 3.6886 4.62756C3.6911 4.61444 3.68544 4.60285 3.67911 4.59221C3.75727 4.47613 3.87821 4.36947 3.97649 4.26862C4.58249 3.64672 5.30206 3.07985 6.08247 2.69342C6.33778 2.56746 6.59352 2.43815 6.86014 2.33742C7.3412 2.14643 7.83225 2.00764 8.33848 1.90251C8.51768 1.8653 8.71241 1.8229 8.89524 1.81614Z" fill="url(#paint4_linear_953_131184)"/>
<path d="M4.76844 4.25307C4.94803 4.11381 5.11268 3.95537 5.29519 3.81914C5.37095 3.76248 5.44768 3.70716 5.52539 3.65319C5.6031 3.59923 5.68173 3.54665 5.76129 3.49545C5.84085 3.44425 5.92128 3.39448 6.0026 3.34614C6.08391 3.29778 6.16605 3.25086 6.24902 3.20539C6.33199 3.15994 6.41574 3.11595 6.50025 3.07344C6.58477 3.03094 6.67002 2.98994 6.756 2.95043C6.84196 2.91093 6.92859 2.87295 7.0159 2.83651C7.1032 2.80005 7.19112 2.76515 7.27965 2.7318C7.47742 2.65678 7.68516 2.58184 7.89133 2.53424L7.89381 2.55522C7.87783 2.56324 7.86525 2.56725 7.84816 2.5718L7.83895 2.58795L7.85227 2.60057L7.88422 2.59473C7.85924 2.64114 7.70578 2.70494 7.65252 2.73535C7.42055 2.86783 7.20373 3.03377 6.97807 3.17772C6.64843 3.39225 6.32033 3.6091 5.99377 3.82828L4.71234 4.6642C4.56148 4.76389 4.40725 4.86217 4.26033 4.96703C4.22684 4.99094 4.19053 5.03479 4.15232 5.04885C4.14303 5.05229 4.13221 5.05238 4.12248 5.05309C4.10092 5.05463 4.0675 5.0535 4.04873 5.06483C4.0274 5.0777 3.99656 5.12488 3.97461 5.11363C3.97557 5.10549 3.97801 5.09502 3.97687 5.08697C4.01533 5.02653 4.06961 4.97072 4.11645 4.91627C4.31889 4.68094 4.54355 4.46654 4.76844 4.25307Z" fill="#E27963"/>
<path d="M8.89484 1.81614C8.94328 1.81895 8.99144 1.81904 9.03935 1.82668C9.1106 1.83803 9.18076 1.82547 9.25191 1.83001C9.29562 1.8328 9.34094 1.84394 9.38465 1.84174C9.41299 1.84032 9.4368 1.8291 9.46215 1.81774C9.47023 1.81411 9.47842 1.8107 9.48652 1.80712L9.50156 1.81413L9.49832 1.83168C9.47359 1.84155 9.46728 1.83975 9.44055 1.83582C9.42748 1.89623 9.49402 1.9401 9.45486 2.00559C9.27847 2.08774 9.09486 2.14744 8.91176 2.21213C8.84379 2.23615 8.7793 2.26942 8.70828 2.28287C8.68621 2.28705 8.66023 2.29692 8.64658 2.31567C8.64469 2.31826 8.64355 2.32133 8.64205 2.32416C8.64943 2.33885 8.65185 2.34248 8.66514 2.35342C8.42031 2.3943 8.1223 2.44783 7.89117 2.53424C7.685 2.58184 7.47726 2.65678 7.27949 2.7318C7.19096 2.76515 7.10305 2.80005 7.01574 2.83651C6.92844 2.87295 6.8418 2.91093 6.75584 2.95043C6.66986 2.98994 6.58461 3.03094 6.5001 3.07344C6.41558 3.11595 6.33183 3.15994 6.24887 3.20539C6.1659 3.25086 6.08376 3.29778 6.00244 3.34614C5.92113 3.39448 5.84069 3.44425 5.76113 3.49545C5.68157 3.54665 5.60294 3.59923 5.52523 3.65319C5.44752 3.70716 5.37079 3.76248 5.29504 3.81914C5.11252 3.95537 4.94787 4.11381 4.76828 4.25307C4.69857 4.25285 4.65221 4.28496 4.60265 4.33449C4.54801 4.3891 4.5014 4.45383 4.4442 4.50555C4.36459 4.57752 4.26242 4.63571 4.17605 4.70059C4.03404 4.80725 3.63978 5.16707 3.47545 5.16487C3.44976 5.16451 3.44746 5.16024 3.43101 5.14278C3.40879 4.9926 3.67299 4.70776 3.6882 4.62756C3.6907 4.61444 3.68504 4.60285 3.67871 4.59221C3.75687 4.47613 3.87781 4.36947 3.97609 4.26862C4.58209 3.64672 5.30166 3.07985 6.08207 2.69342C6.33738 2.56746 6.59312 2.43815 6.85974 2.33742C7.3408 2.14643 7.83185 2.00764 8.33808 1.90251C8.51728 1.8653 8.71201 1.8229 8.89484 1.81614Z" fill="#3E0000"/>
<path d="M8.70246 3.00476C8.80367 2.97711 8.91838 2.99308 9.02258 2.97908C10.0078 2.84664 11.0669 2.9589 11.9846 3.35177C11.7467 3.38392 11.5143 3.3732 11.2758 3.38361C10.9572 3.39957 10.6407 3.43455 10.3263 3.48853C8.69918 3.76531 7.30203 4.51367 6.10123 5.63808C5.76551 5.95246 5.44055 6.28929 5.1615 6.65582C5.13165 6.69471 5.10212 6.73385 5.07291 6.77324C5.04372 6.81263 5.01486 6.85226 4.98633 6.89215C4.9578 6.93202 4.92961 6.97213 4.90176 7.01248C4.87391 7.05283 4.84639 7.09342 4.81922 7.13424C4.79206 7.17506 4.76523 7.2161 4.73875 7.25736C4.71228 7.29862 4.68615 7.34011 4.66037 7.38183C4.6346 7.42354 4.60919 7.46546 4.58412 7.5076C4.55904 7.54974 4.53433 7.59209 4.50998 7.63465C4.48563 7.6772 4.46164 7.71996 4.43801 7.76293C4.41438 7.80588 4.39111 7.84904 4.3682 7.8924C4.3453 7.93575 4.32277 7.97929 4.30061 8.02302C4.27843 8.06676 4.25663 8.11068 4.2352 8.15478C4.21378 8.19888 4.19273 8.24316 4.17205 8.28761C4.15136 8.33207 4.13106 8.3767 4.11113 8.4215C4.09121 8.46629 4.07167 8.51125 4.0525 8.55638C4.03333 8.60151 4.01454 8.64681 3.99613 8.69226C3.97774 8.73771 3.95971 8.7833 3.94207 8.82906C3.92444 8.8748 3.90719 8.92069 3.89033 8.96674C3.87348 9.01278 3.85702 9.05896 3.84094 9.10529C3.82486 9.15161 3.80917 9.19806 3.79387 9.24465C3.77857 9.29122 3.76367 9.33793 3.74916 9.38476C3.73466 9.4316 3.72054 9.47856 3.70682 9.52564C3.69311 9.57271 3.67979 9.61989 3.66688 9.66718C3.65396 9.71449 3.64144 9.7619 3.62932 9.80941C3.61719 9.85691 3.60548 9.90452 3.59416 9.95222C3.58285 9.99993 3.57193 10.0477 3.56143 10.0956C3.55092 10.1435 3.54081 10.1915 3.53111 10.2396C3.52141 10.2876 3.51212 10.3358 3.50322 10.384C3.49434 10.4322 3.48587 10.4805 3.47779 10.5289C3.46972 10.5772 3.46206 10.6256 3.45481 10.6741C3.44755 10.7226 3.4407 10.7712 3.43426 10.8198C3.42783 10.8684 3.4218 10.917 3.41619 10.9658C3.38139 11.2669 3.35496 11.5748 3.35738 11.8782C3.29572 11.7145 3.25399 11.542 3.21379 11.372C3.19895 11.3068 3.18506 11.2414 3.17213 11.1757C3.1592 11.1101 3.14723 11.0443 3.13623 10.9783C3.12523 10.9124 3.1152 10.8463 3.10613 10.78C3.09706 10.7137 3.08897 10.6473 3.08186 10.5808C3.07473 10.5143 3.06859 10.4477 3.06342 10.3811C3.05825 10.3144 3.05406 10.2476 3.05086 10.1808C3.04764 10.114 3.04541 10.0472 3.04416 9.98029C3.04291 9.91341 3.04264 9.84654 3.04336 9.77966C3.04406 9.71279 3.04575 9.64594 3.04842 9.5791C3.05109 9.51226 3.05473 9.44549 3.05936 9.37877C3.06398 9.31205 3.06958 9.24541 3.07615 9.17884C3.08273 9.11228 3.09028 9.04583 3.09881 8.97949C3.10734 8.91316 3.11684 8.84696 3.12731 8.7809C3.13777 8.71484 3.14921 8.64895 3.1616 8.58322C3.174 8.51749 3.18735 8.45196 3.20166 8.38664C3.21598 8.3213 3.23126 8.25619 3.24748 8.19131C3.29391 8.00109 3.34182 7.80605 3.40994 7.62226C3.41406 7.57082 3.43506 7.51103 3.45098 7.46189C3.51725 7.25738 3.61072 7.05843 3.70295 6.86459C4.03164 6.17377 4.43922 5.51859 4.96541 4.96017C5.04455 4.87619 5.1508 4.7415 5.25252 4.68926C5.3082 4.64324 5.34965 4.57845 5.40637 4.53103C5.79266 4.20799 6.22381 3.89519 6.67598 3.67168C7.07566 3.38578 8.21027 3.05863 8.70246 3.00476Z" fill="url(#paint5_linear_953_131184)"/>
<path d="M8.70246 3.00477L8.71709 3.01672C8.78605 3.01201 8.86783 3.01346 8.93492 2.9978L8.94314 3.0027C8.75967 3.1149 8.62543 3.26076 8.46 3.39524C7.79729 3.93393 7.17525 4.51621 6.52344 5.0669C6.00385 5.49893 5.48165 5.92777 4.95684 6.35342C4.7002 6.55901 4.44982 6.77012 4.19834 6.98186C4.05391 7.10346 3.90119 7.21987 3.76756 7.35336L3.76627 7.3702L3.73693 7.37047C3.72228 7.3874 3.72039 7.39614 3.71834 7.41826L3.70475 7.42448L3.70557 7.42957C3.70076 7.43258 3.69592 7.43553 3.69115 7.43864C3.65377 7.46297 3.48619 7.64942 3.45998 7.64528L3.44187 7.66266L3.42625 7.66203C3.41719 7.67686 3.41574 7.67979 3.41426 7.69801L3.4043 7.70873C3.40744 7.68012 3.41191 7.65104 3.40994 7.62227C3.41406 7.57082 3.43506 7.51104 3.45098 7.4619C3.51725 7.25739 3.61072 7.05844 3.70295 6.86459C4.03164 6.17377 4.43922 5.5186 4.96541 4.96018C5.04455 4.87619 5.1508 4.74151 5.25252 4.68926C5.3082 4.64324 5.34965 4.57846 5.40637 4.53104C5.79266 4.20799 6.22381 3.8952 6.67598 3.67168C7.07566 3.38578 8.21027 3.05863 8.70246 3.00477Z" fill="#E27963"/>
<path d="M6.67575 3.67168C6.7521 3.68181 6.82042 3.68943 6.86972 3.75621C6.88667 3.77916 6.89874 3.80506 6.91071 3.83082C6.90643 3.85914 6.89292 3.9055 6.90079 3.93254C6.91682 3.92279 6.92831 3.90957 6.94296 3.8998C6.9452 3.89832 6.94804 3.89808 6.95059 3.89722C6.94048 3.9497 6.77692 4.06388 6.73468 4.12785C6.72501 4.14248 6.71538 4.15703 6.7062 4.17197C6.74499 4.13375 6.78817 4.08058 6.83485 4.05404C6.83159 4.10662 6.72706 4.18912 6.68768 4.22396C6.27616 4.58828 5.8412 4.94023 5.34694 5.18451C5.30292 5.20627 5.26936 5.24164 5.22015 5.25156L5.21411 5.24798L5.24181 5.21961C5.17901 5.18138 5.08407 5.24113 5.05776 5.1242C5.03743 5.03394 5.09768 4.89957 5.14809 4.82697C5.17909 4.78238 5.23089 4.7375 5.25229 4.68925C5.30798 4.64324 5.34942 4.57845 5.40614 4.53103C5.79243 4.20799 6.22358 3.89519 6.67575 3.67168Z" fill="#F0C0B3"/>
<path d="M6.5206 3.85041C6.56943 3.85148 6.62754 3.84871 6.67326 3.86699C6.70267 3.87873 6.71144 3.89445 6.7231 3.92262C6.71959 3.95324 6.71144 3.97264 6.69424 3.99766C6.64699 4.06637 6.56654 4.11887 6.50627 4.17709C6.32855 4.34873 6.15394 4.53355 5.94935 4.67381C5.84359 4.74631 5.72555 4.7982 5.61822 4.8677C5.51525 4.93438 5.47004 5.00414 5.34396 5.0293C5.34088 5.02932 5.33779 5.02957 5.33473 5.02936C5.29064 5.02609 5.24764 5.01412 5.21885 4.9793C5.21371 4.9558 5.20967 4.94328 5.22199 4.92043C5.23805 4.8907 5.27668 4.87857 5.30578 4.86633C5.48685 4.47959 5.91627 4.22074 6.26816 4.00184C6.34279 3.95541 6.48559 3.94854 6.53281 3.88111L6.50285 3.8835L6.49762 3.87482L6.5206 3.85041Z" fill="#FEFEFE"/>
<path d="M10.6458 0H19.9996V9.54635V10.3102C19.9754 10.4252 19.9803 10.5546 19.9737 10.6722C19.9662 10.8033 19.9508 10.9318 19.9324 11.0618C19.8901 11.0919 19.8766 11.145 19.868 11.1956C19.8649 11.2142 19.8549 11.255 19.8613 11.2721C19.8467 11.3534 19.836 11.4356 19.8237 11.5173C19.6768 12.3431 19.3865 13.1271 19.0155 13.8768C18.223 15.4785 17.1086 16.8258 15.6403 17.8499C15.5746 17.8966 15.5083 17.9425 15.4415 17.9876C15.3746 18.0326 15.3072 18.0768 15.2393 18.1202C15.1714 18.1636 15.1029 18.2062 15.034 18.2479C14.965 18.2896 14.8955 18.3305 14.8255 18.3705C14.7556 18.4105 14.6851 18.4496 14.6141 18.4879C14.5432 18.5261 14.4718 18.5635 14.3999 18.6C14.328 18.6365 14.2557 18.6721 14.183 18.7068C14.1102 18.7415 14.0371 18.7753 13.9635 18.8083C13.8899 18.8412 13.8159 18.8732 13.7416 18.9043C13.6672 18.9354 13.5925 18.9655 13.5173 18.9948C13.4422 19.024 13.3668 19.0523 13.291 19.0797C13.2151 19.1071 13.139 19.1335 13.0626 19.159C12.9861 19.1846 12.9093 19.2091 12.8322 19.2327C12.7552 19.2564 12.6778 19.279 12.6002 19.3007C12.5226 19.3224 12.4447 19.3432 12.3666 19.3629C12.2884 19.3827 12.21 19.4016 12.1314 19.4194C12.0528 19.4373 11.974 19.4542 11.895 19.4701C11.816 19.486 11.7368 19.5009 11.6574 19.5149C11.578 19.5288 11.4985 19.5417 11.4187 19.5537C11.339 19.5658 11.2592 19.5769 11.1792 19.5869C11.0992 19.5969 11.0191 19.606 10.9389 19.6141C10.8587 19.622 10.7784 19.629 10.6981 19.6352C10.6177 19.6413 10.5372 19.6464 10.4567 19.6504C10.3762 19.6544 10.2957 19.6576 10.2151 19.6598C10.1345 19.6618 10.054 19.663 9.97334 19.6631C9.89274 19.6632 9.81215 19.6623 9.73156 19.6604C9.65098 19.6585 9.57043 19.6557 9.48992 19.6518C9.4094 19.648 9.32895 19.6432 9.24855 19.6373C9.16816 19.6314 9.08785 19.6246 9.00762 19.6168C8.9274 19.609 8.84728 19.6002 8.76727 19.5904C8.68727 19.5805 8.60739 19.5697 8.52764 19.558C8.4479 19.5463 8.36831 19.5335 8.28889 19.5198C7.14439 19.3143 6.29697 19.0019 5.28758 18.4307C5.16041 18.3587 4.88637 18.2197 4.80244 18.1188L4.80008 18.1096C4.7558 18.0739 4.71187 18.0464 4.66203 18.0192C4.505 17.9471 4.36633 17.8167 4.23428 17.7066C3.91256 17.4438 3.60691 17.1634 3.31732 16.8656C3.25035 16.7977 3.15693 16.7195 3.1084 16.6376C3.13799 16.6508 3.15318 16.6709 3.17391 16.6955L3.18291 16.7063C3.31332 16.6424 3.39289 16.5238 3.50219 16.4331C3.57986 16.3686 3.66867 16.3148 3.75109 16.2565C3.80221 16.2203 3.84896 16.1786 3.89967 16.142C3.98066 16.0835 4.16428 16.0316 4.21609 15.9824C4.24238 15.9575 4.23854 15.9391 4.24178 15.9054C4.39572 16.0128 4.53484 16.1561 4.67805 16.278C4.89504 16.4616 5.12141 16.6328 5.35717 16.7915C5.46883 16.8671 5.58141 16.9428 5.69742 17.0115C5.77348 17.0566 6.17752 17.2705 6.20742 17.3011C6.41305 17.3888 6.61387 17.486 6.82158 17.5695C6.94314 17.6181 7.06579 17.6638 7.18951 17.7066C7.31324 17.7495 7.4379 17.7893 7.56352 17.8263C7.68913 17.8632 7.81554 17.8972 7.94275 17.9281C8.06997 17.9591 8.19784 17.9871 8.32637 18.012C8.39375 18.0254 8.46128 18.0379 8.52896 18.0496C8.59665 18.0612 8.66447 18.0721 8.73242 18.0821C8.80038 18.0921 8.86844 18.1013 8.93662 18.1096C9.0048 18.1179 9.07307 18.1254 9.14145 18.1321C9.2098 18.1387 9.27824 18.1445 9.34676 18.1495C9.41526 18.1544 9.48381 18.1585 9.55242 18.1618C9.62104 18.165 9.68968 18.1674 9.75834 18.169C9.82701 18.1706 9.89569 18.1713 9.96438 18.1712C10.0331 18.171 10.1018 18.17 10.1704 18.1682C10.2391 18.1664 10.3077 18.1637 10.3763 18.1602C10.4449 18.1566 10.5134 18.1523 10.5819 18.147C10.6504 18.1418 10.7188 18.1357 10.7872 18.1288C10.8555 18.1219 10.9237 18.1142 10.9919 18.1056C11.06 18.097 11.1281 18.0875 11.196 18.0773C11.2639 18.067 11.3317 18.0559 11.3993 18.0439C11.467 18.032 11.5344 18.0192 11.6018 18.0055C11.6691 17.9919 11.7362 17.9775 11.8032 17.9622C11.8701 17.9469 11.9369 17.9308 12.0035 17.9139C12.0701 17.897 12.1364 17.8792 12.2025 17.8606C12.2687 17.8421 12.3346 17.8227 12.4002 17.8025C12.4659 17.7823 12.5313 17.7613 12.5964 17.7395C12.6615 17.7177 12.7264 17.695 12.7909 17.6716C12.8555 17.6482 12.9198 17.624 12.9838 17.599C13.0477 17.574 13.1114 17.5482 13.1747 17.5216C13.2381 17.495 13.3011 17.4677 13.3637 17.4396C13.4264 17.4114 13.4887 17.3825 13.5506 17.3529C13.6126 17.3232 13.6742 17.2928 13.7354 17.2616C13.7966 17.2304 13.8574 17.1984 13.9178 17.1657C13.9782 17.133 14.0382 17.0996 14.0977 17.0654C14.1573 17.0312 14.2165 16.9963 14.2752 16.9607C14.3339 16.925 14.3922 16.8887 14.45 16.8516C14.5078 16.8145 14.5652 16.7767 14.6221 16.7382C16.116 15.7233 17.2128 14.1667 17.7598 12.4556C17.854 12.1609 17.9394 11.8614 17.9971 11.5573C18.4095 9.38553 17.9993 7.23182 16.752 5.40086C16.6725 5.28564 16.5902 5.17241 16.5052 5.06117C16.4202 4.94993 16.3326 4.84082 16.2423 4.73383C16.152 4.62682 16.0591 4.52207 15.9638 4.41957C15.8684 4.31707 15.7706 4.21694 15.6704 4.11918C14.4205 2.8866 12.9981 2.17668 11.2785 1.85044C11.3214 1.63603 11.7662 1.24602 11.9471 1.11991C12.0799 1.02725 12.2248 0.977125 12.337 0.855207L12.2205 0.805709C11.9682 0.752424 11.7195 0.704338 11.4646 0.662857C11.3223 0.639703 11.1668 0.608012 11.0226 0.614412C11.0366 0.607133 11.0493 0.599256 11.0623 0.590316C11.0341 0.588264 11.0085 0.584959 10.981 0.578141L10.9744 0.563883C11.0087 0.544408 11.0431 0.523322 11.0747 0.499508C11.1243 0.462061 11.3486 0.240434 11.3568 0.187044L11.3344 0.171713C11.3873 0.157198 11.434 0.191129 11.4881 0.17406C11.4944 0.172104 11.5005 0.169903 11.5066 0.167825C11.4521 0.151763 11.0522 0.0733295 10.9988 0.0709295L11.004 0.0725406L11.0172 0.0633889C11.0481 0.068385 11.0789 0.0752992 11.1097 0.0666209C11.1158 0.0649029 11.1218 0.0628619 11.1278 0.0609826C10.9812 0.0414191 10.8332 0.0204271 10.6854 0.0147498L10.6458 0ZM10.6458 0L10.6854 0.0147498C10.8332 0.0204271 10.9812 0.0414191 11.1278 0.0609826C12.2451 0.167022 13.5293 0.573381 14.5221 1.08864C14.9428 1.30696 15.3479 1.56573 15.7349 1.83917C15.9408 1.98463 16.3067 2.24586 16.4729 2.41896C16.7034 2.59359 16.9209 2.83244 17.1256 3.03908C17.1719 3.08602 17.2177 3.13341 17.2631 3.18125C17.3084 3.22909 17.3533 3.27738 17.3977 3.32611C17.4421 3.37484 17.486 3.424 17.5295 3.47359C17.5729 3.52319 17.6158 3.57321 17.6583 3.62365C17.7007 3.6741 17.7427 3.72495 17.7841 3.77621C17.8255 3.82749 17.8665 3.87916 17.9069 3.93123C17.9473 3.98331 17.9872 4.03579 18.0266 4.08865C18.066 4.14152 18.1049 4.19477 18.1432 4.2484C18.1815 4.30203 18.2193 4.35604 18.2566 4.41043C18.2939 4.4648 18.3306 4.51954 18.3668 4.57465C18.403 4.62975 18.4386 4.68521 18.4737 4.74102C18.5088 4.79682 18.5433 4.85298 18.5773 4.90947C18.6113 4.96596 18.6447 5.02278 18.6776 5.07994C18.7105 5.13709 18.7428 5.19456 18.7745 5.25234C18.8062 5.31013 18.8374 5.36822 18.8679 5.42662C18.8985 5.48503 18.9285 5.54373 18.9579 5.60272C18.9874 5.66171 19.0162 5.721 19.0445 5.78057C19.0727 5.84012 19.1004 5.89996 19.1275 5.96008C19.1545 6.02018 19.181 6.08055 19.2069 6.14119C19.2328 6.20183 19.258 6.26271 19.2827 6.32383C19.3074 6.38496 19.3315 6.44633 19.3549 6.50795C19.3784 6.56955 19.4013 6.63138 19.4235 6.69344C19.4457 6.75551 19.4674 6.81778 19.4884 6.88025C19.5094 6.94274 19.5298 7.00543 19.5496 7.06832C19.5694 7.13121 19.5886 7.19429 19.6071 7.25756C19.6255 7.32083 19.6434 7.38427 19.6608 7.44789C19.6781 7.51151 19.6947 7.57529 19.7108 7.63924C19.7268 7.70318 19.7421 7.76729 19.7569 7.83154C19.7716 7.89579 19.7857 7.96018 19.7992 8.02471C19.8128 8.08924 19.8256 8.1539 19.8377 8.21869C19.85 8.28347 19.8615 8.34837 19.8725 8.41338C19.8834 8.47839 19.8937 8.54351 19.9033 8.60873C19.9238 8.75703 19.9447 8.9066 19.9567 9.05586C19.9692 9.20955 19.9559 9.40066 19.9996 9.54635V0H10.6458Z" fill="url(#paint6_linear_953_131184)"/>
<path d="M11.128 0.0609818C12.2454 0.167021 13.5296 0.57338 14.5224 1.08864C14.943 1.30696 15.3481 1.56573 15.7351 1.83917C15.941 1.98463 16.307 2.24586 16.4731 2.41896C16.474 2.44873 16.4939 2.45939 16.5147 2.47922C16.6602 2.61752 17.3244 3.21568 17.3736 3.35221L17.3667 3.35853C17.3647 3.35676 17.3629 3.3549 17.3608 3.35324C17.3453 3.34045 17.327 3.3309 17.3096 3.32078C17.304 3.32279 17.2986 3.32496 17.293 3.32683C17.2308 3.34787 17.1673 3.33572 17.1038 3.36314C17.0557 3.38392 17.0127 3.436 16.9735 3.47045C16.8613 3.56902 16.6426 3.78574 16.5328 3.85303C16.5048 3.87021 16.4802 3.9157 16.4557 3.93996C16.4154 3.97992 16.2288 4.12537 16.2241 4.17717C16.222 4.20162 16.237 4.22937 16.2459 4.25187L16.2374 4.27027C16.2074 4.27857 16.1851 4.27637 16.1549 4.27268C16.0834 4.19037 15.8766 3.9816 15.8423 3.88574C15.8542 3.77517 15.9755 3.64635 16.0598 3.57894C16.1352 3.51877 16.2129 3.53594 16.293 3.4998C16.3695 3.46525 16.5426 3.29953 16.5571 3.21707C16.5631 3.18324 16.5507 3.1543 16.5308 3.12769C16.5055 3.09369 16.2725 2.8824 16.2445 2.87178L16.2416 2.88057C16.3344 2.96613 16.4352 3.04601 16.522 3.1375L16.5224 3.26726C16.4471 3.34701 16.3674 3.44316 16.2697 3.4956C16.224 3.52014 16.1667 3.5124 16.1179 3.52771C15.9934 3.5668 15.8652 3.76351 15.8182 3.87842C15.8824 3.9974 16.1758 4.36467 16.2997 4.40098C16.309 4.40371 16.3184 4.40607 16.3277 4.40846C16.6571 4.79514 16.9759 5.17408 17.2497 5.60344C18.1873 7.07344 18.6028 8.88756 18.4633 10.6199C18.4574 10.6901 18.4508 10.7602 18.4432 10.8303C18.4357 10.9004 18.4273 10.9703 18.418 11.0402C18.4088 11.1101 18.3987 11.1798 18.3877 11.2494C18.3768 11.319 18.365 11.3885 18.3523 11.4578C18.3397 11.5272 18.3262 11.5963 18.3119 11.6653C18.2975 11.7343 18.2823 11.8031 18.2663 11.8718C18.2503 11.9404 18.2335 12.0088 18.2158 12.077C18.1981 12.1452 18.1796 12.2132 18.1602 12.281C18.1409 12.3488 18.1207 12.4163 18.0997 12.4836C18.0787 12.5508 18.0569 12.6178 18.0342 12.6846C18.0116 12.7513 17.9882 12.8178 17.9639 12.8839C17.9396 12.9501 17.9146 13.016 17.8887 13.0815C17.8629 13.1471 17.8362 13.2123 17.8088 13.2772C17.7813 13.3421 17.753 13.4067 17.724 13.4709C17.695 13.5351 17.6652 13.599 17.6346 13.6624C17.604 13.7259 17.5726 13.789 17.5405 13.8518C17.5084 13.9145 17.4755 13.9768 17.4418 14.0387C17.4082 14.1006 17.3737 14.1621 17.3386 14.2232C17.3034 14.2843 17.2675 14.3449 17.2309 14.4051C17.1943 14.4653 17.1569 14.5251 17.1188 14.5844C17.0807 14.6436 17.0419 14.7025 17.0024 14.7608C16.9628 14.8191 16.9226 14.877 16.8817 14.9343C16.8407 14.9917 16.7991 15.0485 16.7567 15.1049C16.7144 15.1612 16.6714 15.217 16.6277 15.2723C16.584 15.3276 16.5396 15.3824 16.4946 15.4366C16.4496 15.4908 16.4039 15.5444 16.3575 15.5975C16.3112 15.6506 16.2642 15.7031 16.2166 15.7551C16.169 15.807 16.1207 15.8584 16.0718 15.9092C16.023 15.9599 15.9735 16.0101 15.9234 16.0596C15.8733 16.1092 15.8226 16.1581 15.7713 16.2065C15.72 16.2548 15.6681 16.3025 15.6156 16.3495C15.5632 16.3966 15.5101 16.443 15.4565 16.4887C13.7053 17.9771 11.5088 18.6337 9.2266 18.4473C9.10863 18.4382 8.99091 18.4267 8.87342 18.4127C8.75593 18.3987 8.63878 18.3823 8.52197 18.3635C8.40518 18.3447 8.28881 18.3234 8.17287 18.2998C8.05695 18.2762 7.94156 18.2501 7.82672 18.2217C7.71186 18.1933 7.59765 18.1625 7.48408 18.1293C7.3705 18.0962 7.25766 18.0607 7.14555 18.0229C7.03345 17.985 6.92218 17.9449 6.81174 17.9025C6.7013 17.86 6.59178 17.8153 6.48318 17.7683C6.30807 17.6918 6.10104 17.6054 5.9502 17.4874C5.95803 17.4491 5.98615 17.4298 6.0168 17.4073C6.04678 17.3854 6.06215 17.3652 6.07982 17.333C6.12152 17.3412 6.1749 17.3586 6.21658 17.3495L6.2257 17.3351C6.21982 17.3237 6.21424 17.3121 6.20768 17.3011C6.4133 17.3888 6.61412 17.486 6.82184 17.5695C6.9434 17.6181 7.06604 17.6638 7.18977 17.7066C7.31349 17.7495 7.43816 17.7893 7.56377 17.8263C7.68938 17.8632 7.81579 17.8972 7.94301 17.9281C8.07022 17.9591 8.19809 17.9871 8.32662 18.012C8.394 18.0254 8.46154 18.0379 8.52922 18.0496C8.5969 18.0612 8.66472 18.0721 8.73268 18.0821C8.80063 18.0921 8.8687 18.1013 8.93687 18.1096C9.00505 18.1179 9.07333 18.1254 9.1417 18.1321C9.21006 18.1387 9.2785 18.1445 9.34701 18.1495C9.41551 18.1544 9.48407 18.1585 9.55268 18.1618C9.6213 18.165 9.68993 18.1674 9.75859 18.169C9.82727 18.1706 9.89594 18.1713 9.96463 18.1712C10.0333 18.171 10.102 18.17 10.1707 18.1682C10.2393 18.1664 10.3079 18.1637 10.3765 18.1602C10.4451 18.1566 10.5137 18.1523 10.5822 18.147C10.6507 18.1418 10.7191 18.1357 10.7874 18.1288C10.8558 18.1219 10.924 18.1142 10.9921 18.1056C11.0603 18.097 11.1283 18.0875 11.1962 18.0773C11.2641 18.067 11.3319 18.0559 11.3996 18.0439C11.4672 18.032 11.5347 18.0192 11.602 18.0055C11.6693 17.9919 11.7365 17.9775 11.8034 17.9622C11.8704 17.9469 11.9372 17.9308 12.0038 17.9139C12.0703 17.897 12.1367 17.8792 12.2028 17.8606C12.2689 17.8421 12.3348 17.8227 12.4005 17.8025C12.4661 17.7823 12.5315 17.7613 12.5966 17.7395C12.6618 17.7177 12.7266 17.695 12.7912 17.6716C12.8558 17.6482 12.9201 17.624 12.984 17.599C13.048 17.574 13.1116 17.5482 13.175 17.5216C13.2383 17.495 13.3013 17.4677 13.364 17.4396C13.4267 17.4114 13.489 17.3825 13.5509 17.3528C13.6129 17.3232 13.6744 17.2928 13.7356 17.2616C13.7968 17.2304 13.8576 17.1984 13.918 17.1657C13.9784 17.133 14.0384 17.0996 14.098 17.0654C14.1576 17.0312 14.2167 16.9963 14.2754 16.9607C14.3342 16.925 14.3924 16.8887 14.4503 16.8516C14.5081 16.8145 14.5654 16.7767 14.6223 16.7382C16.1162 15.7233 17.213 14.1667 17.76 12.4556C17.8542 12.1609 17.9396 11.8614 17.9974 11.5573C18.4097 9.38553 17.9995 7.23182 16.7523 5.40086C16.6728 5.28564 16.5905 5.17241 16.5055 5.06117C16.4205 4.94993 16.3328 4.84082 16.2425 4.73383C16.1522 4.62682 16.0594 4.52207 15.964 4.41957C15.8687 4.31707 15.7709 4.21694 15.6706 4.11918C14.4208 2.8866 12.9983 2.17668 11.2787 1.85043C11.3217 1.63603 11.7665 1.24602 11.9473 1.11991C12.0802 1.02725 12.225 0.977124 12.3373 0.855206L12.2208 0.805708C11.9684 0.752423 11.7197 0.704337 11.4649 0.662857C11.3226 0.639702 11.167 0.608011 11.0228 0.614411C11.0368 0.607132 11.0495 0.599255 11.0626 0.590316C11.0343 0.588263 11.0087 0.584958 10.9812 0.57814L10.9747 0.563882C11.009 0.544407 11.0434 0.523321 11.0749 0.499507C11.1245 0.46206 11.3488 0.240433 11.357 0.187043L11.3346 0.171713C11.3875 0.157197 11.4343 0.191128 11.4884 0.174059C11.4946 0.172103 11.5007 0.169902 11.5069 0.167824C11.4524 0.151762 11.0525 0.0733286 10.999 0.0709286L11.0043 0.0725398L11.0175 0.063388C11.0483 0.0683841 11.0791 0.0752984 11.1099 0.06662C11.116 0.0649021 11.122 0.062861 11.128 0.0609818Z" fill="#EC0C0B"/>
<path d="M13.161 2.92572C13.4651 3.01351 14.2658 3.48174 14.4754 3.71123C14.5889 3.89097 14.7175 4.07648 14.8066 4.26978C14.8889 4.43955 14.9731 4.60832 15.0438 4.78338C15.0683 4.84519 15.0915 4.90747 15.1135 4.97023C15.1354 5.03298 15.1561 5.09615 15.1755 5.15974C15.1949 5.22335 15.213 5.28732 15.2298 5.35164C15.2467 5.41597 15.2621 5.48062 15.2763 5.54558C15.2905 5.61054 15.3033 5.67577 15.3149 5.74125C15.3264 5.80673 15.3366 5.87242 15.3454 5.93832C15.3543 6.00422 15.3618 6.07026 15.368 6.13646C15.3742 6.20267 15.379 6.26898 15.3825 6.33537C15.3934 6.52506 15.4016 6.72799 15.3815 6.91711C15.3461 7.35558 15.2917 7.76687 15.1704 8.19062C15.1507 8.31136 15.126 8.4359 15.0763 8.54834C14.9553 8.88633 14.7873 9.21385 14.6129 9.52715C14.5439 9.65105 14.4565 9.77353 14.397 9.90135C14.4668 10.0284 14.479 10.1424 14.4932 10.2841C14.5347 10.6998 14.4851 10.9685 14.371 11.3619C14.2759 11.6899 14.1864 11.9281 14.022 12.2281C13.9863 12.2933 13.9524 12.3638 13.9101 12.4247C13.8661 12.4883 13.8112 12.5452 13.764 12.6066C13.7051 12.6832 13.6567 12.7664 13.5856 12.8331C13.5107 12.9034 13.4107 12.9426 13.3333 13.0109C13.2295 13.1027 13.1431 13.2397 13.024 13.3105C12.9599 13.3486 12.882 13.3596 12.8179 13.3975C12.7498 13.4377 12.6877 13.498 12.6259 13.5473C12.5496 13.6081 12.4683 13.6632 12.3862 13.7157C12.2355 13.812 12.0642 13.8759 11.9165 13.9748C11.8173 14.0413 11.7448 14.1368 11.6462 14.2048C11.6329 14.2139 11.6197 14.2231 11.6062 14.232C11.5991 14.2517 11.6111 14.2899 11.6016 14.2985L11.5994 14.283C11.5613 14.0325 11.3906 13.6782 11.1935 13.5152C11.1663 13.4795 11.1193 13.4357 11.082 13.4111C11.0439 13.3858 11.0218 13.3813 10.9771 13.3915C10.6575 13.095 10.3457 12.9349 9.89617 12.9498C9.57246 12.9605 9.22656 13.1118 9.0059 13.35C8.93449 13.4271 8.87551 13.5378 8.79893 13.606C8.58096 13.6287 8.36488 13.665 8.14728 13.6903C7.82452 13.7269 7.50078 13.7496 7.17605 13.7583C6.98689 13.7625 6.7909 13.7558 6.60207 13.7419C6.49572 13.7341 6.3118 13.6826 6.2201 13.7007C6.13912 13.7167 5.92437 13.6679 5.8323 13.6545C5.56687 13.6557 4.98158 13.486 4.71484 13.4039C4.7326 13.3184 4.70924 13.2238 4.72322 13.1355C4.73844 13.0506 4.73062 12.947 4.73393 12.8598C4.74007 12.6639 4.75108 12.4683 4.76695 12.2729C4.79643 11.9358 4.84309 11.6011 4.90691 11.2688C4.93455 11.1311 4.97445 10.9958 5.00223 10.8582C5.01551 10.7924 5.01215 10.7241 5.02568 10.6585C5.0525 10.5286 5.09748 10.3981 5.13668 10.2714C5.25204 9.90547 5.38383 9.54554 5.53203 9.19162C5.6009 9.02941 5.69223 8.86592 5.74871 8.70039C5.77877 8.61228 5.75846 8.51209 5.7832 8.42115C5.80937 8.32498 5.87061 8.24097 5.8985 8.14482C5.92871 8.04066 5.93064 7.92595 5.95219 7.81933C5.98336 7.66523 6.04033 7.51031 6.08768 7.36002C6.17674 7.0773 6.23527 7.06886 6.41193 6.85035C6.47049 6.77791 6.52502 6.68937 6.59523 6.62822C6.65221 6.57861 6.73566 6.56568 6.79186 6.5148C6.83019 6.48012 6.84238 6.42463 6.88143 6.39058C6.93143 6.34699 7.02141 6.31953 7.08119 6.28521C7.1324 6.25582 7.17826 6.2182 7.22795 6.1865C7.29715 6.14236 7.39881 6.14097 7.46012 6.08556C7.49523 6.05383 7.51971 6.01092 7.55453 5.97842C7.63326 5.90492 7.72207 5.8406 7.80209 5.76767C7.99771 5.58941 8.18932 5.39607 8.40129 5.23773C8.47418 5.18328 8.55813 5.14601 8.63305 5.09429C8.71215 5.03969 8.79074 4.96551 8.87754 4.92467C8.90666 4.91095 8.91484 4.91209 8.9442 4.924C8.98469 4.89271 9.02389 4.82965 9.0599 4.78994C9.20279 4.63242 9.3709 4.51818 9.5758 4.4559C9.92107 4.35095 10.2533 4.41599 10.5662 4.5831C10.5715 4.57353 10.5775 4.56513 10.5851 4.55713C10.6796 4.45666 10.9824 4.35183 11.1132 4.29529C12.191 3.82967 13.1195 3.59615 14.2981 3.58375C14.1587 3.48363 14.0125 3.38228 13.8617 3.30027C13.7004 3.21256 13.2725 3.03572 13.161 2.92572Z" fill="#EC0C0B"/>
<path d="M15.0769 8.54834C15.0779 8.52584 15.0749 8.50963 15.0689 8.48797C15.0564 8.50864 15.046 8.53016 15.0352 8.5517C15.0352 8.54862 15.0351 8.54553 15.0352 8.54246C15.0412 8.45471 15.1068 8.25168 15.1709 8.19063C15.1513 8.31137 15.1265 8.4359 15.0769 8.54834Z" fill="#BC2914"/>
<path d="M4.72322 13.1355C4.75326 13.187 4.78973 13.2292 4.82445 13.2772L4.79881 13.39C4.89877 13.4227 4.99805 13.4684 5.10006 13.4925C5.26734 13.532 5.43691 13.5646 5.60512 13.6002C5.67813 13.6156 5.76416 13.6253 5.8323 13.6545C5.56687 13.6557 4.98158 13.486 4.71484 13.4039C4.7326 13.3184 4.70924 13.2238 4.72322 13.1355Z" fill="#BC2914"/>
<path d="M10.7324 4.7094C10.9078 4.68733 11.0073 4.78745 11.161 4.83655C11.389 4.95756 11.5732 5.21641 11.6489 5.45944C11.6979 5.61661 11.7066 5.7784 11.7032 5.94208C11.7001 6.09153 11.6777 6.2434 11.6624 6.39229L11.5804 7.18987L11.3319 9.58475C11.2939 9.96491 11.2449 10.349 11.2228 10.7303C11.2087 10.9745 11.3259 11.2008 11.3064 11.4501C11.304 11.4821 11.3 11.5138 11.2944 11.5454C11.2887 11.5769 11.2815 11.6081 11.2727 11.6389C11.2638 11.6697 11.2534 11.7 11.2415 11.7297C11.2295 11.7594 11.216 11.7885 11.2011 11.8168C11.0953 12.0163 10.9044 12.1846 10.6865 12.249C10.474 12.3117 10.229 12.2879 10.0355 12.1795C9.88613 12.0958 9.78092 11.9765 9.69434 11.8309C9.76832 11.8477 9.84098 11.8621 9.91705 11.8644C10.1213 11.8705 10.3191 11.8001 10.4672 11.6582C10.594 11.5366 10.6733 11.37 10.703 11.1978C10.7366 11.0029 10.706 10.794 10.7099 10.5963C10.7148 10.3498 10.7451 10.0994 10.7672 9.85375L11.0046 7.05204L11.0809 6.16799C11.0964 5.99458 11.1196 5.81874 11.1229 5.64471C11.13 5.26432 10.9925 4.98131 10.7324 4.7094Z" fill="#941A16"/>
<path d="M13.1613 2.92572C13.4654 3.01351 14.266 3.48174 14.4757 3.71123C14.5892 3.89097 14.7177 4.07648 14.8068 4.26978C14.8891 4.43955 14.9733 4.60832 15.044 4.78338C15.0685 4.84519 15.0918 4.90747 15.1137 4.97023C15.1357 5.03298 15.1564 5.09615 15.1758 5.15974C15.1952 5.22335 15.2133 5.28732 15.2301 5.35164C15.2469 5.41597 15.2624 5.48062 15.2766 5.54558C15.2907 5.61054 15.3036 5.67577 15.3151 5.74125C15.3267 5.80673 15.3368 5.87242 15.3457 5.93832C15.3546 6.00422 15.3621 6.07026 15.3683 6.13646C15.3744 6.20267 15.3793 6.26898 15.3827 6.33537C15.3937 6.52506 15.4019 6.72799 15.3817 6.91711C15.3193 6.89568 15.2935 6.83894 15.2478 6.79547C15.2058 6.75547 15.1512 6.74039 15.1105 6.6958C14.9674 6.53902 14.8732 6.31402 14.7203 6.13951C14.6219 6.02722 14.4985 5.95238 14.3913 5.8516C14.3118 5.77693 14.2612 5.67722 14.1882 5.5972C14.1193 5.52174 13.7852 5.30824 13.6851 5.25797C13.4209 5.12521 12.9342 4.89414 12.6576 4.8309C12.5487 4.80599 12.4349 4.82398 12.3239 4.79885C12.209 4.77279 12.098 4.72746 11.9823 4.70574C11.7803 4.66779 11.3742 4.68685 11.1841 4.76385C11.1606 4.77338 11.1541 4.78135 11.1442 4.804L11.161 4.83654C11.0073 4.78744 10.9078 4.68732 10.7324 4.70939C10.6805 4.66398 10.6218 4.62429 10.5664 4.5831C10.5718 4.57353 10.5778 4.56513 10.5853 4.55713C10.6799 4.45666 10.9826 4.35183 11.1135 4.29529C12.1912 3.82967 13.1197 3.59615 14.2984 3.58375C14.1589 3.48363 14.0127 3.38228 13.862 3.30027C13.7007 3.21256 13.2728 3.03572 13.1613 2.92572Z" fill="url(#paint7_linear_953_131184)"/>
<path d="M8.94479 4.924C8.98527 4.89271 9.02447 4.82965 9.06049 4.78994C9.20338 4.63242 9.37148 4.51818 9.57639 4.4559C9.92166 4.35096 10.2539 4.416 10.5667 4.5831C10.6221 4.6243 10.6809 4.66398 10.7328 4.70939C10.9929 4.98131 11.1303 5.26432 11.1232 5.64471C11.1199 5.81873 11.0967 5.99457 11.0812 6.16799L11.0049 7.05203L10.7676 9.85375C10.7455 10.0994 10.7152 10.3498 10.7103 10.5963C10.7063 10.794 10.7369 11.0029 10.7033 11.1978C10.6737 11.37 10.5943 11.5366 10.4675 11.6582C10.3194 11.8001 10.1216 11.8705 9.91738 11.8644C9.84131 11.8621 9.76865 11.8477 9.69467 11.8309C9.64382 11.8126 9.59472 11.7905 9.54736 11.7644C9.35428 11.6576 9.22141 11.4865 9.16363 11.2731C9.09701 11.0269 9.18914 10.7601 9.16885 10.5079L8.84783 6.95109L8.78752 6.19359C8.76928 5.9882 8.73982 5.77678 8.74594 5.57057C8.75295 5.33342 8.82627 5.12775 8.94479 4.924Z" fill="#FEFEFE"/>
<path d="M19.933 11.0618C19.9262 11.157 19.9125 11.2513 19.8998 11.3458C19.8906 11.4155 19.883 11.4861 19.8689 11.5549C19.8637 11.5402 19.8619 11.5274 19.8607 11.512C19.8596 11.4975 19.8582 11.4882 19.8543 11.4738L19.8242 11.5173C19.8365 11.4356 19.8473 11.3534 19.8619 11.2721C19.8555 11.255 19.8654 11.2142 19.8686 11.1956C19.8771 11.145 19.8906 11.0919 19.933 11.0618Z" fill="#941A16"/>
<path d="M1.35938 15.0243C1.43046 15.0352 1.46587 15.1029 1.47785 15.0951C1.55611 15.184 1.61751 15.3075 1.68373 15.4074C1.81041 15.5969 1.94231 15.7826 2.07942 15.9646C2.1918 16.1139 2.3072 16.2638 2.42852 16.406C2.53345 16.5289 2.64659 16.647 2.74741 16.7732C2.76014 16.7891 2.76751 16.8013 2.77221 16.8215C2.76729 16.842 2.76151 16.8588 2.75225 16.8777C2.24382 16.3393 1.70672 15.6772 1.35938 15.0243Z" fill="#BC2914"/>
<path d="M19.8239 11.5173L19.8539 11.4738C19.8578 11.4882 19.8592 11.4975 19.8604 11.512C19.8616 11.5274 19.8633 11.5402 19.8686 11.5549C19.8049 12.1045 19.6549 12.6622 19.4779 13.1854C19.4591 13.2421 19.4398 13.2987 19.42 13.355C19.4001 13.4114 19.3798 13.4675 19.3589 13.5235C19.3381 13.5795 19.3167 13.6353 19.2948 13.6909C19.2729 13.7465 19.2505 13.8019 19.2276 13.857C19.2047 13.9122 19.1813 13.9672 19.1574 14.0219C19.1334 14.0767 19.109 14.1312 19.0841 14.1855C19.0592 14.2398 19.0338 14.2939 19.0078 14.3477C18.9819 14.4015 18.9555 14.4551 18.9286 14.5085C18.9017 14.5618 18.8744 14.6149 18.8465 14.6678C18.8186 14.7206 18.7902 14.7732 18.7614 14.8255C18.7326 14.8778 18.7032 14.9299 18.6735 14.9817C18.6436 15.0335 18.6134 15.085 18.5826 15.1362C18.5519 15.1874 18.5207 15.2384 18.489 15.289C18.4573 15.3397 18.4252 15.39 18.3926 15.4401C18.36 15.4902 18.3269 15.5399 18.2934 15.5894C18.2599 15.6388 18.2259 15.688 18.1915 15.7368C18.157 15.7856 18.1222 15.8341 18.0869 15.8823C18.0515 15.9305 18.0158 15.9784 17.9796 16.0259C17.9434 16.0735 17.9068 16.1207 17.8697 16.1675C17.8327 16.2144 17.7952 16.2609 17.7572 16.3071C17.7193 16.3532 17.681 16.3991 17.6422 16.4445C17.6035 16.49 17.5643 16.5351 17.5247 16.5798C17.4851 16.6246 17.4451 16.669 17.4047 16.713C17.3643 16.757 17.3235 16.8006 17.2823 16.8439C17.2411 16.8872 17.1995 16.93 17.1575 16.9725C17.1155 17.015 17.0732 17.0572 17.0304 17.0989C16.9876 17.1406 16.9445 17.1819 16.901 17.2228C16.8574 17.2638 16.8135 17.3043 16.7693 17.3444C16.725 17.3845 16.6803 17.4242 16.6353 17.4635C16.5903 17.5028 16.545 17.5417 16.4993 17.5802C16.4536 17.6186 16.4075 17.6567 16.3611 17.6943C16.3147 17.7319 16.2679 17.7691 16.2208 17.8059C16.1568 17.8566 16.0923 17.9066 16.027 17.9558C15.9619 18.005 15.8961 18.0533 15.8297 18.1009C15.7633 18.1484 15.6963 18.1952 15.6288 18.2411C15.5613 18.287 15.4932 18.3321 15.4245 18.3764C15.3559 18.4206 15.2867 18.464 15.217 18.5066C15.1474 18.5491 15.0772 18.5908 15.0064 18.6317C14.9357 18.6725 14.8645 18.7125 14.7928 18.7516C14.7211 18.7907 14.6489 18.8289 14.5763 18.8662C14.5037 18.9036 14.4306 18.94 14.3571 18.9755C14.2835 19.0111 14.2096 19.0457 14.1352 19.0794C14.0609 19.1132 13.9861 19.146 13.9109 19.1779C13.8357 19.2098 13.7602 19.2408 13.6842 19.2708C13.6083 19.3008 13.532 19.33 13.4553 19.3581C13.3787 19.3863 13.3017 19.4136 13.2244 19.4398C13.1471 19.4661 13.0695 19.4915 12.9915 19.5159C12.9136 19.5403 12.8354 19.5637 12.7569 19.5861C12.6784 19.6087 12.5996 19.6302 12.5205 19.6508C12.4415 19.6712 12.3622 19.6908 12.2827 19.7094C12.2032 19.728 12.1235 19.7456 12.0435 19.7623C11.9636 19.779 11.8834 19.7947 11.8031 19.8094C11.7228 19.8241 11.6423 19.8378 11.5616 19.8504C11.4809 19.8632 11.4001 19.8749 11.3192 19.8857C11.2382 19.8964 11.1571 19.9061 11.0759 19.9148C10.9947 19.9237 10.9134 19.9315 10.8321 19.9383C10.7507 19.9449 10.6692 19.9507 10.5877 19.9555C10.5062 19.9603 10.4246 19.9641 10.343 19.9668C10.2614 19.9695 10.1797 19.9713 10.0981 19.9721C10.0164 19.9729 9.93475 19.9727 9.85309 19.9715C9.77143 19.9702 9.6898 19.968 9.6082 19.9648C9.5266 19.9616 9.44505 19.9574 9.36355 19.9522C9.28207 19.9469 9.20065 19.9407 9.1193 19.9334C9.03795 19.9262 8.95671 19.918 8.87557 19.9088C8.79548 19.9001 8.7155 19.8904 8.63564 19.8797C8.5558 19.869 8.47609 19.8574 8.39652 19.8447C8.31695 19.8321 8.23755 19.8185 8.1583 19.8039C8.07907 19.7893 8.00003 19.7738 7.92117 19.7572C7.8423 19.7407 7.76365 19.7232 7.68521 19.7049C7.60678 19.6865 7.52858 19.6672 7.45062 19.6469C7.37266 19.6266 7.29495 19.6053 7.2175 19.583C7.14005 19.5609 7.06288 19.5378 6.986 19.5137C6.90912 19.4896 6.83255 19.4646 6.75627 19.4387C6.67999 19.4127 6.60404 19.3858 6.52842 19.358C6.45279 19.3303 6.37752 19.3016 6.3026 19.2719C6.22768 19.2423 6.15312 19.2118 6.07895 19.1804C6.00477 19.1489 5.93098 19.1166 5.85758 19.0834C5.78419 19.0501 5.71122 19.016 5.63865 18.981C5.56609 18.946 5.49396 18.9101 5.42227 18.8734C5.35057 18.8366 5.27934 18.799 5.20857 18.7605C5.01033 18.6512 4.80484 18.5415 4.62035 18.4098L4.61426 18.3782C4.63754 18.3347 4.69568 18.3311 4.72705 18.2873C4.76682 18.2319 4.73496 18.1653 4.80266 18.1188C4.88658 18.2197 5.16063 18.3587 5.28779 18.4307C6.29719 19.0019 7.14461 19.3143 8.2891 19.5198C8.36853 19.5335 8.44811 19.5463 8.52785 19.558C8.6076 19.5697 8.68748 19.5805 8.76748 19.5904C8.84749 19.6002 8.92761 19.609 9.00783 19.6168C9.08807 19.6246 9.16838 19.6314 9.24877 19.6373C9.32916 19.6432 9.40962 19.648 9.49014 19.6518C9.57064 19.6557 9.65119 19.6585 9.73178 19.6604C9.81236 19.6623 9.89296 19.6632 9.97357 19.6631C10.0542 19.663 10.1348 19.6619 10.2154 19.6598C10.2959 19.6576 10.3765 19.6544 10.457 19.6504C10.5375 19.6464 10.6179 19.6413 10.6983 19.6352C10.7787 19.629 10.859 19.622 10.9392 19.6141C11.0194 19.606 11.0994 19.5969 11.1794 19.5869C11.2594 19.5769 11.3393 19.5658 11.419 19.5537C11.4987 19.5417 11.5782 19.5288 11.6576 19.5149C11.737 19.5009 11.8162 19.486 11.8952 19.4701C11.9742 19.4542 12.0531 19.4373 12.1317 19.4194C12.2103 19.4016 12.2886 19.3827 12.3668 19.363C12.4449 19.3432 12.5228 19.3224 12.6004 19.3007C12.678 19.279 12.7554 19.2564 12.8325 19.2327C12.9095 19.2091 12.9863 19.1846 13.0628 19.159C13.1392 19.1335 13.2154 19.1071 13.2912 19.0797C13.367 19.0523 13.4425 19.024 13.5176 18.9948C13.5927 18.9655 13.6674 18.9354 13.7418 18.9043C13.8162 18.8732 13.8901 18.8412 13.9637 18.8083C14.0373 18.7753 14.1105 18.7415 14.1832 18.7068C14.2559 18.6721 14.3283 18.6365 14.4001 18.6C14.472 18.5635 14.5434 18.5261 14.6144 18.4879C14.6853 18.4496 14.7558 18.4105 14.8257 18.3705C14.8957 18.3305 14.9652 18.2896 15.0342 18.2479C15.1032 18.2062 15.1716 18.1636 15.2395 18.1202C15.3075 18.0768 15.3748 18.0326 15.4417 17.9876C15.5085 17.9425 15.5748 17.8966 15.6405 17.8499C17.1088 16.8258 18.2232 15.4785 19.0158 13.8768C19.3867 13.1271 19.677 12.3431 19.8239 11.5173Z" fill="url(#paint8_linear_953_131184)"/>
<path d="M0.677902 6.56025C0.710994 6.52201 0.714408 6.46846 0.748904 6.42895C0.799428 6.43869 0.823178 6.38262 0.864457 6.35648C0.887408 6.36232 0.908867 6.36607 0.932437 6.36836C0.973609 6.34531 0.974342 6.30002 1.01003 6.27477C1.03081 6.26006 1.0667 6.26078 1.09036 6.26525C1.12481 6.27176 1.16321 6.28984 1.18089 6.32154C1.18371 6.32666 1.1863 6.33189 1.18867 6.33723C1.19103 6.34257 1.19316 6.348 1.19505 6.35352C1.19694 6.35904 1.19859 6.36464 1.19999 6.37031C1.20139 6.37598 1.20254 6.38169 1.20344 6.38746C1.20435 6.39323 1.205 6.39903 1.20539 6.40486C1.20579 6.41068 1.20593 6.41652 1.20582 6.42236C1.20571 6.4282 1.20534 6.43402 1.20472 6.43982C1.2041 6.44563 1.20322 6.4514 1.2021 6.45713C1.17854 6.57524 1.0852 6.74051 1.04106 6.85926C0.96524 7.06388 0.896016 7.27071 0.833383 7.47975C0.77075 7.68877 0.714837 7.89958 0.665643 8.11219C0.648736 8.1875 0.619551 8.28061 0.617432 8.35711C0.550822 8.66615 0.470385 9.19522 0.477119 9.50369C0.435303 9.68809 0.44548 10.1946 0.459029 10.386C0.465037 10.4709 0.481184 10.5547 0.488816 10.6395C0.62117 12.1093 0.92308 13.2582 1.64146 14.5563C1.73664 14.7283 1.82851 14.9021 1.93344 15.0684C1.97275 15.1301 2.01269 15.1913 2.05326 15.2521C2.10037 15.2316 2.15178 15.2132 2.19533 15.186C2.27605 15.0289 2.37984 14.9945 2.49242 14.8742C2.70336 14.6489 2.8599 14.2414 2.76156 13.9352L2.75844 13.9257C2.88389 14.1237 2.99412 14.3307 3.12164 14.5278C3.36078 14.8975 3.6274 15.2283 3.91777 15.558C4.01947 15.6735 4.11963 15.8121 4.24215 15.9054C4.23891 15.9391 4.24275 15.9575 4.21646 15.9824C4.16465 16.0316 3.98104 16.0835 3.90004 16.142C3.84934 16.1786 3.80258 16.2203 3.75146 16.2565C3.66904 16.3148 3.58023 16.3686 3.50256 16.4331C3.39326 16.5238 3.31369 16.6424 3.18328 16.7063L3.17428 16.6955C3.15355 16.6709 3.13836 16.6508 3.10877 16.6376C3.1573 16.7195 3.25072 16.7977 3.3177 16.8656C3.60728 17.1634 3.91293 17.4438 4.23465 17.7066C4.3667 17.8167 4.50537 17.9471 4.6624 18.0192C4.71225 18.0464 4.75617 18.0739 4.80045 18.1096L4.80281 18.1188C4.73512 18.1653 4.76697 18.2319 4.72721 18.2873C4.69584 18.3311 4.6377 18.3347 4.61441 18.3782L4.62051 18.4098C4.5784 18.3887 4.53791 18.3599 4.4977 18.3351C3.86498 17.9091 3.2773 17.4324 2.75238 16.8777C2.76164 16.8588 2.76742 16.842 2.77234 16.8215C2.76764 16.8012 2.76027 16.7891 2.74754 16.7732C2.64672 16.647 2.53357 16.5289 2.42865 16.406C2.30732 16.2638 2.19193 16.1139 2.07955 15.9646C1.94244 15.7826 1.81054 15.5969 1.68386 15.4074C1.61764 15.3075 1.55624 15.184 1.47798 15.0951C1.466 15.1029 1.43058 15.0352 1.3595 15.0243C1.28489 14.9465 1.10231 14.5639 1.04805 14.455C1.00916 14.3766 0.971305 14.2978 0.934484 14.2184C0.897664 14.1391 0.861894 14.0592 0.827174 13.9789C0.792452 13.8986 0.758793 13.8179 0.726195 13.7367C0.693599 13.6556 0.662075 13.574 0.631623 13.492C0.601171 13.4099 0.571803 13.3276 0.543518 13.2448C0.515232 13.162 0.488041 13.0789 0.461943 12.9954C0.435844 12.9119 0.410848 12.828 0.386953 12.7439C0.36306 12.6597 0.340277 12.5753 0.318604 12.4905C0.29693 12.4058 0.276375 12.3207 0.256938 12.2354C0.2375 12.1502 0.219187 12.0646 0.202 11.9788C0.184812 11.8931 0.168755 11.8071 0.153828 11.7209C0.138902 11.6347 0.125111 11.5483 0.112456 11.4618C0.0998011 11.3752 0.0882863 11.2885 0.0779115 11.2016C0.0675369 11.1148 0.0583061 11.0278 0.0502189 10.9407C0.0421318 10.8536 0.0351913 10.7664 0.0293973 10.6791C0.0236033 10.5918 0.0189578 10.5045 0.0154608 10.4171C0.0111921 10.3879 0.0057726 10.3591 0 10.3301V9.4383C0.0125054 9.39537 0.0149967 9.34699 0.0207498 9.30258C0.0469191 9.31934 0.0652146 9.3332 0.0844443 9.35773C0.0912928 9.25316 0.0997736 9.14873 0.109887 9.04443C0.12 8.94014 0.131741 8.83602 0.14511 8.73207C0.158478 8.62814 0.173467 8.52444 0.190078 8.42098C0.206687 8.31751 0.224911 8.21434 0.244748 8.11145C0.264584 8.00854 0.286023 7.90598 0.309064 7.80375C0.332107 7.70152 0.356742 7.59969 0.382969 7.49824C0.409195 7.39678 0.437001 7.29576 0.466385 7.19518C0.495769 7.09459 0.526718 6.99449 0.559232 6.89486C0.579568 6.83102 0.633902 6.60309 0.677902 6.56025Z" fill="#EC0C0B"/>
<path d="M4.66275 18.0192C4.7126 18.0464 4.75652 18.0739 4.8008 18.1096L4.80316 18.1188C4.73547 18.1653 4.76732 18.2319 4.72756 18.2873C4.69619 18.3311 4.63805 18.3347 4.61477 18.3782L4.62086 18.4098C4.57875 18.3887 4.53826 18.3599 4.49805 18.3351C4.52945 18.3122 4.5618 18.2886 4.5866 18.2583C4.64205 18.1906 4.67002 18.1068 4.66275 18.0192Z" fill="#941A16"/>
<path d="M0.0207498 9.30258C0.0469191 9.31934 0.0652146 9.33321 0.0844443 9.35774C0.0716877 9.62743 0.0551047 9.89526 0.0604562 10.1654C0.0570502 10.2525 0.0818215 10.3522 0.0154608 10.4171C0.0111921 10.3879 0.0057726 10.3591 0 10.3301V9.4383C0.0125054 9.39537 0.0149967 9.347 0.0207498 9.30258Z" fill="#941A16"/>
<path d="M0.0606204 10.1654C0.0853591 10.4771 0.0791446 10.7892 0.115976 11.101C0.13264 11.2403 0.152212 11.3791 0.174691 11.5175C0.197171 11.6559 0.222538 11.7938 0.250793 11.9312C0.279048 12.0685 0.310166 12.2052 0.344147 12.3413C0.378128 12.4773 0.414943 12.6126 0.45459 12.7471C0.494237 12.8816 0.536683 13.0153 0.581928 13.148C0.627171 13.2807 0.675175 13.4125 0.725938 13.5432C0.776699 13.6739 0.830175 13.8035 0.886365 13.932C0.942555 14.0605 1.00141 14.1877 1.06293 14.3137C1.19012 14.5797 1.32133 14.845 1.47814 15.0951C1.46616 15.1029 1.43075 15.0352 1.35967 15.0243C1.28505 14.9465 1.10247 14.5639 1.04822 14.455C1.00933 14.3766 0.971469 14.2978 0.934649 14.2184C0.897828 14.1391 0.862058 14.0592 0.827338 13.9789C0.792617 13.8986 0.758957 13.8179 0.726359 13.7367C0.693763 13.6556 0.662239 13.574 0.631787 13.492C0.601335 13.4099 0.571967 13.3276 0.543682 13.2448C0.515397 13.162 0.488205 13.0789 0.462108 12.9954C0.436009 12.9119 0.411012 12.828 0.387117 12.7439C0.363224 12.6597 0.340441 12.5753 0.318768 12.4905C0.297095 12.4058 0.276539 12.3207 0.257102 12.2354C0.237664 12.1502 0.219352 12.0646 0.202164 11.9788C0.184976 11.8931 0.168919 11.8071 0.153993 11.7209C0.139066 11.6347 0.125275 11.5483 0.11262 11.4618C0.0999653 11.3752 0.0884504 11.2885 0.0780757 11.2016C0.0677011 11.1148 0.0584702 11.0278 0.0503831 10.9407C0.042296 10.8536 0.0353555 10.7664 0.0295614 10.6791C0.0237674 10.5918 0.019122 10.5045 0.015625 10.4171C0.0819857 10.3522 0.0572144 10.2525 0.0606204 10.1654Z" fill="#BC2914"/>
<path d="M2.09209 7.2742C2.08397 7.35682 2.00963 7.54856 2.02561 7.59906C1.87048 8.17516 1.75965 8.75067 1.72244 9.34733C1.71212 9.51268 1.71799 9.68156 1.71818 9.84731C1.71978 11.2876 2.08325 12.6563 2.7585 13.9257L2.76162 13.9352C2.85996 14.2414 2.70342 14.6489 2.49248 14.8742C2.37991 14.9945 2.27612 15.0289 2.19539 15.186C2.15184 15.2132 2.10043 15.2316 2.05332 15.2521C2.01275 15.1913 1.97281 15.1301 1.93351 15.0684C1.82857 14.9021 1.7367 14.7283 1.64153 14.5563C0.923142 13.2582 0.621232 12.1093 0.488878 10.6395C0.481245 10.5547 0.465099 10.4709 0.459091 10.386C0.445542 10.1946 0.435364 9.68809 0.477181 9.50369C0.470446 9.19522 0.550884 8.66615 0.617493 8.35711L0.643482 8.36541C0.651655 8.29154 0.674947 8.21699 0.692962 8.14483C0.77545 8.08387 0.869945 8.05463 0.953757 7.99985C1.04235 7.94195 1.11998 7.86783 1.20993 7.81149C1.39204 7.69738 1.58874 7.60744 1.77183 7.49559C1.88399 7.42705 1.97285 7.33377 2.09209 7.2742Z" fill="#F86E26"/>
<path d="M0.617271 8.35711L0.64326 8.36541C0.595996 8.63498 0.559465 8.906 0.533666 9.17848C0.526267 9.25111 0.53299 9.42928 0.516318 9.48279C0.514219 9.48953 0.50689 9.49332 0.502176 9.49857L0.476959 9.50369C0.470224 9.19521 0.550662 8.66615 0.617271 8.35711Z" fill="#F29361"/>
<path d="M9.29161 0H10.646L10.6855 0.0147498C10.672 0.0407697 10.6679 0.0542305 10.6386 0.0630322C10.5437 0.0915455 10.03 0.0455098 9.88099 0.0488805C9.67187 0.0517249 9.4631 0.0616042 9.25466 0.0785186C9.04622 0.0954329 8.83859 0.119344 8.63175 0.150251C8.54226 0.163277 8.45296 0.177507 8.36386 0.192941C8.27476 0.208375 8.18588 0.225007 8.09722 0.242838C8.00857 0.260667 7.92018 0.279689 7.83204 0.299902C7.74389 0.320116 7.65603 0.341514 7.56847 0.364098C7.4809 0.38668 7.39366 0.410438 7.30673 0.435373C7.21982 0.460308 7.13325 0.48641 7.04702 0.513678C6.9608 0.540947 6.87496 0.569374 6.7895 0.598957C6.70406 0.62854 6.61902 0.65927 6.53439 0.691146C6.44976 0.723023 6.36559 0.756034 6.28185 0.79018C6.19811 0.824326 6.11485 0.859594 6.03206 0.895984C5.94929 0.932376 5.86701 0.969876 5.78523 1.00848C5.70346 1.04709 5.62222 1.0868 5.54152 1.1276C5.46081 1.1684 5.38068 1.21028 5.30111 1.25324C5.22154 1.2962 5.14256 1.34022 5.06417 1.38531C4.98579 1.4304 4.90802 1.47654 4.83087 1.52373C4.75372 1.57092 4.67723 1.61913 4.6014 1.66838C4.52555 1.71763 4.45038 1.7679 4.37589 1.81917C4.30141 1.87045 4.22763 1.92271 4.15454 1.97598C4.08147 2.02924 4.00913 2.08349 3.93751 2.13871C3.8659 2.19392 3.79504 2.25009 3.72493 2.30723C3.65483 2.36435 3.58551 2.42241 3.51698 2.48141C3.44844 2.54039 3.38071 2.6003 3.3138 2.66113C3.24687 2.72195 3.18079 2.78367 3.11554 2.84627C3.05028 2.90887 2.98588 2.97234 2.92234 3.03668C2.85878 3.10102 2.79611 3.1662 2.73433 3.23223C2.67254 3.29826 2.61166 3.3651 2.55167 3.43277C2.49169 3.50044 2.43262 3.56891 2.37448 3.63818C2.31635 3.70744 2.25915 3.77747 2.2029 3.84828C2.14665 3.91909 2.09137 3.99064 2.03704 4.06293C1.98272 4.13523 1.92938 4.20826 1.87704 4.28199C1.82468 4.35572 1.77333 4.43014 1.72299 4.50527C1.67264 4.58039 1.62332 4.65617 1.57501 4.73262C1.42688 4.96589 1.28893 5.20503 1.16116 5.45006C1.03339 5.69507 0.916257 5.94507 0.809766 6.20006C0.762307 6.31273 0.698738 6.44004 0.67766 6.56025C0.63366 6.60309 0.579326 6.83102 0.55899 6.89486C0.526476 6.99449 0.495527 7.09459 0.466143 7.19518C0.436759 7.29576 0.408953 7.39678 0.382727 7.49824C0.3565 7.59969 0.331865 7.70152 0.308822 7.80375C0.285781 7.90598 0.264342 8.00854 0.244506 8.11145C0.224669 8.21434 0.206445 8.31751 0.189836 8.42098C0.173225 8.52444 0.158236 8.62814 0.144868 8.73207C0.131499 8.83602 0.119758 8.94014 0.109645 9.04443C0.0995317 9.14873 0.0910508 9.25316 0.0842023 9.35773C0.0649727 9.3332 0.0466771 9.31934 0.0205078 9.30258C0.032 8.92711 0.0916357 8.55395 0.160727 8.18527C0.400629 6.90516 0.851569 5.72543 1.56169 4.63027C1.60457 4.56392 1.64821 4.49808 1.69261 4.43275C1.73701 4.36742 1.78217 4.3026 1.82808 4.23832C1.87399 4.17404 1.92064 4.11029 1.96802 4.04709C2.01542 3.98389 2.06353 3.92124 2.11238 3.85914C2.16123 3.79706 2.21079 3.73555 2.26107 3.67463C2.31134 3.61369 2.36231 3.55335 2.41398 3.49359C2.46566 3.43384 2.51802 3.3747 2.57107 3.31617C2.62411 3.25763 2.67784 3.19972 2.73224 3.14244C2.78663 3.08515 2.84168 3.0285 2.89739 2.9725C2.9531 2.9165 3.00945 2.86115 3.06646 2.80645C3.12345 2.75174 3.18107 2.69772 3.23933 2.64436C3.29757 2.591 3.35643 2.53832 3.41591 2.48633C3.47539 2.43434 3.53546 2.38304 3.59613 2.33244C3.65679 2.28184 3.71803 2.23196 3.77986 2.18279C3.84168 2.13361 3.90407 2.08516 3.96702 2.03744C4.02997 1.98972 4.09346 1.94273 4.15751 1.89647C4.22155 1.85022 4.28612 1.80472 4.35122 1.75997C4.41631 1.71522 4.48192 1.67123 4.54804 1.62801C4.61416 1.58478 4.68077 1.54233 4.74788 1.50065C4.81499 1.45897 4.88257 1.41808 4.95062 1.37797C5.01868 1.33786 5.08719 1.29854 5.15616 1.26003C5.22514 1.22151 5.29454 1.1838 5.36439 1.14689C5.43423 1.10998 5.5045 1.07389 5.57519 1.03862C5.64586 1.00335 5.71695 0.968898 5.78843 0.935275C5.85991 0.901653 5.93178 0.868865 6.00402 0.836912C6.07627 0.804959 6.14888 0.773849 6.22185 0.743582C6.29482 0.713315 6.36812 0.6839 6.44177 0.655336C6.51543 0.626772 6.5894 0.599068 6.66368 0.572223C6.73798 0.545376 6.81258 0.519396 6.88747 0.494283C6.96238 0.469171 7.03756 0.444932 7.11302 0.421564C7.18848 0.398197 7.2642 0.37571 7.34019 0.354104C7.41616 0.332495 7.49239 0.311773 7.56886 0.291936C7.95261 0.191772 8.34663 0.123072 8.73937 0.069535C8.91761 0.0452381 9.10466 0.041517 9.27999 0.00270398C9.28388 0.00184466 9.28775 0.000901328 9.29161 0Z" fill="url(#paint9_linear_953_131184)"/>
<path d="M10.6855 0.0147476C10.8334 0.0204249 10.9813 0.0414169 11.1279 0.0609804C11.1219 0.0628597 11.1159 0.0649007 11.1098 0.0666187C11.079 0.075297 11.0482 0.0683828 11.0174 0.0633867L11.0042 0.0725384L10.9989 0.0709273C11.0524 0.0733273 11.4523 0.151761 11.5068 0.167823C11.5006 0.169901 11.4945 0.172102 11.4883 0.174058C11.4341 0.191127 11.3874 0.157196 11.3345 0.171711L11.3569 0.187042C11.3487 0.240431 11.1244 0.462058 11.0748 0.499506C11.0433 0.52332 11.0089 0.544406 10.9746 0.563881L10.9811 0.578138C11.0086 0.584957 11.0342 0.588261 11.0624 0.590314C11.0494 0.599254 11.0367 0.607131 11.0227 0.61441C11.1669 0.608009 11.3225 0.639701 11.4647 0.662855C11.7196 0.704336 11.9683 0.752422 12.2207 0.805707L12.3371 0.855205C12.2249 0.977123 12.08 1.02724 11.9472 1.11991C11.7664 1.24602 11.3216 1.63603 11.2786 1.85043C11.1222 1.82235 10.9651 1.79946 10.8072 1.78176C10.6493 1.76407 10.491 1.75161 10.3323 1.74438C10.1736 1.73715 10.0148 1.73517 9.85599 1.73844C9.69715 1.74171 9.53858 1.75023 9.3803 1.76398C9.21942 1.77643 9.05325 1.78588 8.89452 1.81614C8.71169 1.8229 8.51696 1.86529 8.33776 1.90251C7.83153 2.00763 7.34048 2.14642 6.85942 2.33742C6.5928 2.43814 6.33706 2.56746 6.08175 2.69342C5.30134 3.07984 4.58177 3.64672 3.97577 4.26861C3.87749 4.36947 3.75655 4.47613 3.67839 4.59221C2.91216 5.4197 2.35239 6.52658 2.0253 7.59906C2.00933 7.54855 2.08366 7.35681 2.09179 7.2742C1.97255 7.33377 1.88368 7.42705 1.77152 7.49558C1.58844 7.60744 1.39174 7.69738 1.20963 7.81148C1.11968 7.86783 1.04204 7.94195 0.953451 7.99984C0.869639 8.05463 0.775145 8.08387 0.692656 8.14482C0.674641 8.21699 0.65135 8.29154 0.643176 8.36541L0.617188 8.35711C0.619307 8.2806 0.648492 8.1875 0.665398 8.11219C0.714592 7.89958 0.770506 7.68877 0.833139 7.47974C0.895772 7.27071 0.964996 7.06388 1.04081 6.85926C1.08495 6.74051 1.1783 6.57523 1.20186 6.45713C1.20298 6.4514 1.20385 6.44563 1.20447 6.43982C1.20509 6.43401 1.20546 6.42819 1.20557 6.42236C1.20569 6.41651 1.20554 6.41068 1.20515 6.40486C1.20475 6.39903 1.2041 6.39323 1.2032 6.38746C1.2023 6.38169 1.20115 6.37597 1.19974 6.37031C1.19834 6.36463 1.1967 6.35903 1.19481 6.35351C1.19292 6.34799 1.19079 6.34256 1.18842 6.33722C1.18606 6.33189 1.18347 6.32666 1.18065 6.32154C1.16297 6.28984 1.12456 6.27176 1.09012 6.26525C1.06646 6.26078 1.03056 6.26006 1.00978 6.27476C0.974098 6.30002 0.973365 6.34531 0.932193 6.36836C0.908623 6.36607 0.887164 6.36232 0.864213 6.35648C0.822934 6.38262 0.799184 6.43869 0.74866 6.42894C0.714164 6.46845 0.71075 6.52201 0.677658 6.56025C0.698736 6.44004 0.762305 6.31273 0.809764 6.20006C0.916255 5.94507 1.03339 5.69507 1.16116 5.45006C1.28893 5.20503 1.42688 4.96588 1.57501 4.73261C1.62331 4.65617 1.67264 4.58039 1.72298 4.50527C1.77333 4.43014 1.82468 4.35571 1.87703 4.28199C1.92938 4.20825 1.98272 4.13523 2.03704 4.06293C2.09136 3.99064 2.14665 3.91909 2.2029 3.84828C2.25915 3.77747 2.31634 3.70744 2.37448 3.63818C2.43262 3.56892 2.49168 3.50045 2.55167 3.43277C2.61166 3.3651 2.67254 3.29825 2.73433 3.23222C2.79611 3.1662 2.85878 3.10101 2.92233 3.03668C2.98588 2.97234 3.05028 2.90887 3.11554 2.84627C3.18078 2.78366 3.24687 2.72195 3.3138 2.66113C3.38071 2.6003 3.44844 2.54039 3.51698 2.4814C3.58551 2.42241 3.65483 2.36435 3.72493 2.30722C3.79504 2.25009 3.8659 2.19392 3.93751 2.13871C4.00912 2.08349 4.08147 2.02924 4.15454 1.97597C4.22763 1.92271 4.30141 1.87044 4.37589 1.81917C4.45038 1.76789 4.52555 1.71763 4.6014 1.66838C4.67723 1.61913 4.75372 1.57091 4.83087 1.52373C4.90802 1.47654 4.98578 1.4304 5.06417 1.38531C5.14256 1.34022 5.22153 1.2962 5.3011 1.25324C5.38067 1.21028 5.46081 1.1684 5.54151 1.1276C5.62222 1.0868 5.70345 1.04709 5.78522 1.00848C5.86701 0.969875 5.94929 0.932374 6.03206 0.895982C6.11485 0.859592 6.19811 0.824323 6.28185 0.790177C6.36558 0.756032 6.44976 0.723021 6.53438 0.691144C6.61902 0.659268 6.70406 0.628538 6.7895 0.598955C6.87496 0.569371 6.9608 0.540945 7.04702 0.513676C7.13325 0.486407 7.21982 0.460306 7.30675 0.435371C7.39366 0.410436 7.4809 0.386677 7.56847 0.364095C7.65603 0.341512 7.74389 0.320114 7.83204 0.2999C7.92018 0.279687 8.00857 0.260665 8.09722 0.242836C8.18588 0.225005 8.27476 0.208373 8.36386 0.192939C8.45296 0.177505 8.54226 0.163275 8.63175 0.150249C8.83858 0.119342 9.04622 0.0954307 9.25466 0.0785163C9.4631 0.061602 9.67187 0.0517227 9.88099 0.0488783C10.03 0.0455076 10.5437 0.0915433 10.6386 0.06303C10.6679 0.0542283 10.672 0.0407675 10.6855 0.0147476Z" fill="url(#paint10_linear_953_131184)"/>
<path d="M1.53613 5.78267C1.69982 5.43556 1.90422 5.10691 2.12033 4.79064C2.1558 4.73909 2.19175 4.68789 2.22818 4.63703C2.26463 4.58617 2.30155 4.53566 2.33895 4.4855C2.37634 4.43533 2.41421 4.38553 2.45256 4.33609C2.49092 4.28666 2.52973 4.23759 2.569 4.18888C2.60829 4.14018 2.64803 4.09186 2.68824 4.04392C2.72844 3.99598 2.76909 3.94842 2.8102 3.90125C2.8513 3.85408 2.89285 3.80731 2.93484 3.76093C2.97685 3.71455 3.01928 3.66858 3.06215 3.623C3.10503 3.57743 3.14833 3.53227 3.19205 3.48753C3.23579 3.44278 3.27994 3.39845 3.32451 3.35455C3.3691 3.31064 3.41408 3.26716 3.45947 3.2241C3.50488 3.18105 3.55068 3.13844 3.59689 3.09627C3.64312 3.05408 3.68973 3.01234 3.73674 2.97105C3.78374 2.92976 3.83114 2.88892 3.87893 2.84853C3.92671 2.80814 3.97488 2.76821 4.02342 2.72873C4.07196 2.68926 4.12087 2.65025 4.17016 2.6117C4.21944 2.57315 4.26909 2.53509 4.3191 2.4975C4.36911 2.45989 4.41948 2.42277 4.4702 2.38613C4.52091 2.3495 4.57197 2.31335 4.62338 2.27767C4.67479 2.24201 4.72653 2.20683 4.77861 2.17214C4.83068 2.13747 4.88308 2.10329 4.9358 2.06961C4.98854 2.03591 5.04158 2.00272 5.09492 1.97005C5.14828 1.93738 5.20195 1.90521 5.25592 1.87355C5.30989 1.8419 5.36415 1.81076 5.41871 1.78014C5.47328 1.74951 5.52813 1.71941 5.58326 1.68984C5.63839 1.66026 5.6938 1.6312 5.74949 1.60268C5.80518 1.57416 5.86114 1.54616 5.91736 1.51871C5.97357 1.49125 6.03005 1.46432 6.0868 1.43794C6.14353 1.41156 6.2005 1.38571 6.25771 1.36041C6.31494 1.33511 6.3724 1.31036 6.4301 1.28615C6.48779 1.26195 6.54572 1.23829 6.60387 1.21519C6.66202 1.19208 6.72038 1.16953 6.77895 1.14754C6.75805 1.23442 6.68674 1.28997 6.62332 1.34835C6.36299 1.58801 6.08576 1.81165 5.82061 2.04642L3.29479 4.27058L2.18914 5.24466C2.05576 5.36373 1.92504 5.48541 1.79039 5.60312C1.7385 5.64849 1.68659 5.70193 1.63008 5.74086C1.60313 5.75941 1.58513 5.79115 1.55125 5.79531L1.53613 5.78267Z" fill="url(#paint11_linear_953_131184)"/>
<path d="M8.1165 0.767405C8.11896 0.765893 8.12121 0.763981 8.12389 0.762868C8.20621 0.728514 8.31814 0.722288 8.40611 0.702698C8.50955 0.678766 8.61355 0.657592 8.71812 0.639176C8.82268 0.62076 8.92766 0.605127 9.03305 0.592278C9.13845 0.579429 9.24411 0.569382 9.35004 0.562137C9.45596 0.554891 9.562 0.550458 9.66816 0.548837C9.76947 0.546946 9.87101 0.554192 9.97236 0.554895C10.0898 0.55571 10.2082 0.550542 10.3256 0.555321C10.4057 0.558583 10.4855 0.570128 10.5657 0.574327C10.7069 0.581719 10.8895 0.5662 11.0225 0.614411C11.1667 0.60801 11.3223 0.639702 11.4646 0.662856C11.7194 0.704337 11.9681 0.752423 12.2205 0.805708L12.337 0.855206C12.2247 0.977124 12.0798 1.02724 11.947 1.11991C11.7662 1.24602 11.3214 1.63603 11.2784 1.85043C11.122 1.82235 10.9649 1.79946 10.807 1.78176C10.6491 1.76407 10.4908 1.75161 10.3321 1.74438C10.1734 1.73715 10.0146 1.73517 9.8558 1.73844C9.69696 1.74171 9.5384 1.75023 9.38012 1.76398C9.21924 1.77643 9.05307 1.78589 8.89433 1.81614C8.7115 1.8229 8.51678 1.86529 8.33758 1.90251C7.83135 2.00764 7.34029 2.14642 6.85924 2.33742C6.85871 2.33197 6.85805 2.32654 6.85768 2.32107C6.85654 2.30396 6.8591 2.28971 6.8675 2.27443C6.90174 2.21205 6.96143 2.1584 7.00307 2.10017C7.05467 2.02803 7.09771 1.94948 7.15389 1.88067C7.25139 1.76127 7.36625 1.65372 7.46773 1.53706C7.55289 1.43915 7.62732 1.33338 7.71064 1.23416C7.78818 1.14183 7.87432 1.05663 7.95416 0.966262C8.0108 0.902176 8.06139 0.83288 8.1165 0.767405Z" fill="#F86E26"/>
<path d="M8.11669 0.767403C8.06157 0.832877 8.01099 0.902174 7.95435 0.96626C7.8745 1.05662 7.78837 1.14183 7.71083 1.23416C7.62751 1.33338 7.55308 1.43915 7.46792 1.53706C7.36644 1.65372 7.25157 1.76127 7.15407 1.88067C7.0979 1.94947 7.05485 2.02802 7.00325 2.10017C6.96161 2.15839 6.90192 2.21205 6.86769 2.27443C6.85929 2.2897 6.85673 2.30396 6.85786 2.32107C6.85823 2.32654 6.8589 2.33197 6.85942 2.33742C6.5928 2.43814 6.33706 2.56746 6.08175 2.69341C5.30134 3.07984 4.58177 3.64672 3.97577 4.26861C3.87749 4.36947 3.75655 4.47613 3.67839 4.5922C2.91216 5.4197 2.35239 6.52658 2.0253 7.59906C2.00933 7.54855 2.08366 7.35681 2.09179 7.2742C1.97255 7.33377 1.88368 7.42705 1.77152 7.49558C1.58844 7.60744 1.39174 7.69738 1.20963 7.81148C1.11968 7.86783 1.04204 7.94195 0.953451 7.99984C0.869639 8.05463 0.775145 8.08386 0.692656 8.14482C0.674641 8.21699 0.65135 8.29154 0.643176 8.36541L0.617188 8.35711C0.619307 8.2806 0.648492 8.1875 0.665398 8.11218C0.714592 7.89958 0.770506 7.68877 0.833139 7.47974C0.895772 7.27071 0.964996 7.06388 1.04081 6.85925C1.08495 6.7405 1.1783 6.57523 1.20186 6.45713C1.24707 6.415 1.47253 5.89476 1.53565 5.78267L1.55078 5.79531C1.58465 5.79115 1.60265 5.75941 1.6296 5.74086C1.68611 5.70193 1.73802 5.64849 1.78992 5.60312C1.92456 5.48541 2.05528 5.36373 2.18866 5.24466L3.29431 4.27058L5.82013 2.04642C6.08528 1.81165 6.36251 1.58801 6.62284 1.34835C6.68626 1.28997 6.75757 1.23442 6.77847 1.14754C7.03241 1.05321 7.30146 0.953133 7.56374 0.886575C7.74606 0.849918 7.93905 0.821869 8.11669 0.767403Z" fill="url(#paint12_linear_953_131184)"/>
<path d="M8.11697 0.767403C8.06186 0.832877 8.01127 0.902174 7.95463 0.96626C7.87479 1.05662 7.78865 1.14183 7.71111 1.23416C7.62779 1.33338 7.55336 1.43915 7.4682 1.53706C7.36672 1.65372 7.25186 1.76127 7.15436 1.88067C7.09818 1.94947 7.05514 2.02802 7.00354 2.10017C6.96189 2.15839 6.90221 2.21205 6.86797 2.27443C6.85957 2.2897 6.85701 2.30396 6.85814 2.32107C6.85852 2.32654 6.85918 2.33197 6.85971 2.33742C6.59309 2.43814 6.33734 2.56746 6.08203 2.69341C6.119 2.64351 6.12053 2.5817 6.14904 2.52673C6.22219 2.38574 6.33838 2.24564 6.4393 2.12267C6.57676 1.95519 6.74236 1.81023 6.89639 1.65828C7.07856 1.47776 7.25501 1.29181 7.42572 1.10042C7.46209 1.06011 7.54391 0.986223 7.56076 0.936975C7.565 0.924633 7.56314 0.900356 7.56402 0.886575C7.74635 0.849918 7.93934 0.821869 8.11697 0.767403Z" fill="#FDC772"/>
</g>
<defs>
<linearGradient id="paint0_linear_953_131184" x1="6.28206" y1="3.20221" x2="13.8463" y2="17.1809" gradientUnits="userSpaceOnUse">
<stop stop-color="#430000"/>
<stop offset="1" stop-color="#B4170C"/>
</linearGradient>
<linearGradient id="paint1_linear_953_131184" x1="13.4615" y1="15.8475" x2="13.7583" y2="16.0999" gradientUnits="userSpaceOnUse">
<stop stop-color="#D95B3E"/>
<stop offset="1" stop-color="#E2774A"/>
</linearGradient>
<linearGradient id="paint2_linear_953_131184" x1="15.0001" y1="14.5764" x2="15.2235" y2="14.7691" gradientUnits="userSpaceOnUse">
<stop stop-color="#F9CCC7"/>
<stop offset="1" stop-color="#FFEFEB"/>
</linearGradient>
<linearGradient id="paint3_linear_953_131184" x1="14.2756" y1="14.8802" x2="15.0566" y2="15.7167" gradientUnits="userSpaceOnUse">
<stop stop-color="#A52C24"/>
<stop offset="1" stop-color="#E2673D"/>
</linearGradient>
<linearGradient id="paint4_linear_953_131184" x1="9.80189" y1="9.99916" x2="5.8057" y2="3.91128" gradientUnits="userSpaceOnUse">
<stop stop-color="#AD0F02"/>
<stop offset="1" stop-color="#C46D60"/>
</linearGradient>
<linearGradient id="paint5_linear_953_131184" x1="7.91599" y1="7.89602" x2="5.9126" y2="5.523" gradientUnits="userSpaceOnUse">
<stop stop-color="#C82E17"/>
<stop offset="1" stop-color="#E8735D"/>
</linearGradient>
<linearGradient id="paint6_linear_953_131184" x1="16.6628" y1="16.9846" x2="10.0608" y2="9.77617" gradientUnits="userSpaceOnUse">
<stop stop-color="#590100"/>
<stop offset="1" stop-color="#CB0A08"/>
</linearGradient>
<linearGradient id="paint7_linear_953_131184" x1="12.9577" y1="5.74555" x2="14.0559" y2="3.46822" gradientUnits="userSpaceOnUse">
<stop stop-color="#BE2E17"/>
<stop offset="1" stop-color="#863428"/>
</linearGradient>
<linearGradient id="paint8_linear_953_131184" x1="15.3085" y1="18.5512" x2="10.7174" y2="13.1251" gradientUnits="userSpaceOnUse">
<stop stop-color="#340000"/>
<stop offset="1" stop-color="#960602"/>
</linearGradient>
<linearGradient id="paint9_linear_953_131184" x1="5.56885" y1="4.9258" x2="3.54711" y2="2.38157" gradientUnits="userSpaceOnUse">
<stop stop-color="#BE0400"/>
<stop offset="1" stop-color="#F9120A"/>
</linearGradient>
<linearGradient id="paint10_linear_953_131184" x1="7.01821" y1="4.30975" x2="4.45975" y2="1.59321" gradientUnits="userSpaceOnUse">
<stop stop-color="#ED2A06"/>
<stop offset="1" stop-color="#FF8D0A"/>
</linearGradient>
<linearGradient id="paint11_linear_953_131184" x1="4.17359" y1="3.49709" x2="3.73185" y2="2.99544" gradientUnits="userSpaceOnUse">
<stop stop-color="#FEDDA6"/>
<stop offset="1" stop-color="#FFFFCE"/>
</linearGradient>
<linearGradient id="paint12_linear_953_131184" x1="4.61723" y1="5.07983" x2="3.61309" y2="3.93338" gradientUnits="userSpaceOnUse">
<stop stop-color="#FA944D"/>
<stop offset="1" stop-color="#FEDFA8"/>
</linearGradient>
<clipPath id="clip0_953_131184">
<rect width="20" height="20" fill="white"/>
</clipPath>
</defs>
</svg>
