<svg width="20" height="20" viewBox="0 0 20 20" fill="none" xmlns="http://www.w3.org/2000/svg">
<circle cx="10" cy="10" r="10" fill="url(#paint0_linear_38_12058)"/>
<path d="M20 10C20 15.5229 15.5228 20 10 20C4.47715 20 0 15.5229 0 10C0 4.47717 4.47715 1.52588e-05 10 1.52588e-05C15.5228 1.52588e-05 20 4.47717 20 10ZM2 10C2 14.4183 5.58172 18 10 18C14.4183 18 18 14.4183 18 10C18 5.58174 14.4183 2.00002 10 2.00002C5.58172 2.00002 2 5.58174 2 10Z" fill="url(#paint1_linear_38_12058)"/>
<g filter="url(#filter0_d_38_12058)">
<path d="M11.918 6.98595C11.918 7.67865 11.8792 8.20958 11.8018 8.57872C11.7243 8.94786 11.5853 9.41043 11.3848 9.96642L10.8926 11.3336C10.847 11.484 10.7445 11.5592 10.585 11.5592L10.168 11.566L9.64844 11.5592C9.50716 11.5592 9.40918 11.4954 9.35449 11.3678C8.78483 9.98237 8.5 9.18712 8.5 8.98204L8.51367 5.63927C8.51367 5.47976 8.57064 5.40001 8.68457 5.40001C8.85319 5.40001 9.10612 5.40912 9.44336 5.42735C9.78516 5.44558 10.0404 5.4547 10.209 5.4547C10.3776 5.4547 10.6305 5.44558 10.9678 5.42735C11.3096 5.40912 11.5648 5.40001 11.7334 5.40001C11.8473 5.40001 11.9043 5.47748 11.9043 5.63243C11.9043 5.78738 11.9066 6.01524 11.9111 6.31602C11.9157 6.61225 11.918 6.83556 11.918 6.98595ZM11.8906 13.4801C11.8906 13.9768 11.7334 14.3824 11.4189 14.6969C11.109 15.0068 10.7057 15.1617 10.209 15.1617C9.71224 15.1617 9.30664 15.0068 8.99219 14.6969C8.68229 14.3824 8.52734 13.9768 8.52734 13.4801C8.52734 12.9788 8.68229 12.5732 8.99219 12.2633C9.30208 11.9534 9.70768 11.7984 10.209 11.7984C10.7057 11.7984 11.109 11.9557 11.4189 12.2701C11.7334 12.58 11.8906 12.9833 11.8906 13.4801Z" fill="white"/>
</g>
<defs>
<filter id="filter0_d_38_12058" x="8.5" y="5.40001" width="3.71797" height="10.7617" filterUnits="userSpaceOnUse" color-interpolation-filters="sRGB">
<feFlood flood-opacity="0" result="BackgroundImageFix"/>
<feColorMatrix in="SourceAlpha" type="matrix" values="0 0 0 0 0 0 0 0 0 0 0 0 0 0 0 0 0 0 127 0" result="hardAlpha"/>
<feOffset dx="0.3" dy="1"/>
<feComposite in2="hardAlpha" operator="out"/>
<feColorMatrix type="matrix" values="0 0 0 0 0 0 0 0 0 0 0 0 0 0 0 0 0 0 0.25 0"/>
<feBlend mode="normal" in2="BackgroundImageFix" result="effect1_dropShadow_38_12058"/>
<feBlend mode="normal" in="SourceGraphic" in2="effect1_dropShadow_38_12058" result="shape"/>
</filter>
<linearGradient id="paint0_linear_38_12058" x1="6.28206" y1="3.20223" x2="13.8463" y2="17.1809" gradientUnits="userSpaceOnUse">
<stop stop-color="#430000"/>
<stop offset="1" stop-color="#B4170C"/>
</linearGradient>
<linearGradient id="paint1_linear_38_12058" x1="16.0491" y1="17.2756" x2="9.49725" y2="8.94815" gradientUnits="userSpaceOnUse">
<stop stop-color="#590100"/>
<stop offset="1" stop-color="#CB0A08"/>
</linearGradient>
</defs>
</svg>
