<svg width="60" height="55" viewBox="0 0 60 55" fill="none" xmlns="http://www.w3.org/2000/svg">
<g opacity="0.5">
<path d="M4.15388 14.5356C2.17871 20.2971 8.10422 34.9397 6.62284 36.2625C5.14147 37.5852 2.17871 35.6047 2.17871 35.6047C2.17871 35.6047 4.9632 40.6282 7.61043 40.8724C33.2876 43.2308 14.1955 -8.5568 35.9313 19.5288C38.1596 22.4113 16.5629 33.355 24.2995 38.6227C32.0362 43.8904 49.2566 35.4407 55.0234 31.1605C60.7903 26.8804 48.7628 22.4256 50.2513 25.071C51.7398 27.7165 54.5296 31.3245 50.7451 32.9717C46.9605 34.6189 35.9313 25.5648 39.3878 22.2758C42.8444 18.9868 50.9643 24.5255 51.9519 19.0938C52.9395 13.6621 42.8105 0.59708 36.7442 0.0515906C29.5138 -0.597292 42.8355 4.9913 38.5554 10.2572C34.2752 15.5232 28.0217 12.7262 27.8595 7.62248C27.6973 2.51877 6.12905 8.77585 4.15388 14.5356Z" fill="url(#paint0_radial_245_57918)" fill-opacity="0.5" style="mix-blend-mode:screen"/>
</g>
<path d="M18.9124 11.179C18.9124 11.179 9.65691 14.73 6.41606 16.4217C3.17521 18.1134 0.176806 19.8693 0.387158 20.6787C0.59751 21.488 6.94907 29.2942 6.67276 29.9484C6.5355 30.2711 3.82053 32.2659 3.90788 32.7597C3.95245 33.0217 5.72083 37.3446 6.20393 37.6994C6.68702 38.0541 8.05966 38.4552 8.09888 38.5443C8.77985 40.1024 10.7728 44.1811 12.8978 44.9832C16.8624 46.4825 20.1175 46.1491 22.0623 44.7658C24.0072 43.3824 27.0038 25.6362 27.0038 25.6362L18.9124 11.179Z" fill="#FFE09E"/>
<path d="M55.5137 17.6089C57.045 17.1561 61.1807 17.9547 59.391 22.6823C59.063 23.5469 48.0248 28.615 48.0248 28.615L44.718 25.7182C44.718 25.7182 52.2764 18.5644 55.5137 17.6089Z" fill="url(#paint1_linear_245_57918)"/>
<path d="M42.1295 12.2538C43.5111 11.801 47.9267 13.7744 45.4613 17.0242C45.1048 17.4948 35.1219 22.7928 35.1219 22.7928L31.71 20.0226C31.71 20.0226 39.0402 13.2663 42.1295 12.2538Z" fill="url(#paint2_linear_245_57918)"/>
<g style="mix-blend-mode:soft-light" opacity="0.5">
<path d="M47.367 24.7964C50.1372 27.2672 59.366 20.9441 58.3463 19.2702C57.3266 17.5963 55.0734 17.8762 52.0874 19.7284C49.1015 21.5805 46.7324 24.2313 47.367 24.7964Z" fill="white"/>
</g>
<g style="mix-blend-mode:soft-light" opacity="0.5">
<path d="M42.2598 12.491C44.1262 12.3787 45.1014 13.967 44.6717 14.951C44.2421 15.9351 36.6445 20.8106 35.1221 20.6787C33.5997 20.5468 33.9705 18.2775 35.3752 16.9886C36.78 15.6998 40.7838 12.5783 42.2598 12.491Z" fill="white"/>
</g>
<path d="M26.9379 36.6154C26.3211 41.7226 23.1943 45.9618 18.0122 45.8495C13.1616 45.7443 8.41265 41.9847 7.88321 35.2677C7.23076 26.9748 13.0974 20.5003 19.7895 22.3899C25.3406 23.9532 27.7686 29.77 26.9379 36.6154Z" fill="url(#paint3_linear_245_57918)"/>
<g style="mix-blend-mode:multiply">
<path d="M26.6615 37.8365C25.6187 42.2575 21.7539 46.4467 18.4988 45.6124C15.2027 44.7692 13.215 41.6175 13.3291 35.8328C13.4717 27.9767 18.4899 23.7964 22.6327 25.5791C26.198 27.1193 27.9932 32.1642 26.6615 37.8365Z" fill="#BF6377"/>
</g>
<g style="mix-blend-mode:multiply">
<path d="M9.10787 39.9526C9.93323 41.3787 13.24 44.1596 15.4576 43.7657C18.3473 43.2523 21.0391 45.2257 22.0534 44.7622C23.7131 44.0081 26.2052 40.4232 23.738 34.9933C21.2709 29.5634 8.00619 30.2033 7.9545 34.1608C7.9028 38.1183 9.10787 39.9526 9.10787 39.9526Z" fill="#BF6377"/>
</g>
<path d="M4.50875 32.3762C4.58541 32.6258 6.8868 37.1056 7.18272 37.6225C7.47864 38.1395 27.1305 47.4485 27.5512 47.0206C27.9719 46.5928 50.4974 32.9983 50.8397 31.8913C51.182 30.7843 51.3246 26.5095 50.4172 26.2279C49.5098 25.9462 30.1503 18.7604 29.439 18.7407C28.7278 18.7211 4.10766 31.0731 4.50875 32.3762Z" fill="url(#paint4_linear_245_57918)"/>
<path d="M46.0015 27.2548C45.784 27.6559 27.3996 39.0399 25.7702 38.9936C24.1409 38.9472 11.2791 32.9557 9.40733 31.8238C8.69427 31.3906 3.96492 23.0888 3.29999 20.3204C3.18768 19.8533 25.0839 9.16991 25.8629 9.19487C26.9325 9.23052 30.578 10.4534 30.6279 10.6727C30.7795 11.3626 30.7973 19.3239 30.865 20.217C30.9096 20.8231 40.0599 14.7442 40.5733 14.8565C41.7356 15.1115 44.9158 16.1935 45.4239 16.2595C45.9319 16.3254 46.2172 26.8555 46.0015 27.2548Z" fill="url(#paint5_linear_245_57918)"/>
<path d="M1.52625 20.5004C1.54943 19.8105 20.0123 26.8823 21.1353 27.8966C21.8823 28.5669 25.7702 39.0025 25.7702 39.0025C25.7702 39.0025 9.63728 32.9575 9.11497 32.191C6.86349 28.8788 1.49595 21.1564 1.52625 20.5004Z" fill="url(#paint6_linear_245_57918)"/>
<path d="M45.4274 16.2593C40.3968 19.1472 21.5542 28.0426 21.5542 28.0426C21.5542 28.0426 1.4763 21.7766 1.52622 20.5003C1.5797 18.8745 20.244 9.5566 25.8736 9.20364C26.9432 9.13768 30.6083 10.4158 30.6386 10.6814C30.6938 11.1824 30.5263 13.3376 30.5798 14.9848C30.6796 18.099 31.2928 19.3273 31.2928 19.3273C31.5959 19.4325 40.0795 14.8831 40.5893 14.8707C41.4129 14.8261 44.9193 16.1934 45.4274 16.2593Z" fill="url(#paint7_linear_245_57918)"/>
<path d="M30.6314 10.6726C24.4457 12.8528 8.83504 19.9941 9.22723 20.4665C9.76202 21.1153 19.6521 24.1138 20.5791 23.7911C21.5061 23.4684 31.275 19.3184 31.275 19.3184L30.6314 10.6726Z" fill="url(#paint8_linear_245_57918)"/>
<g style="mix-blend-mode:multiply" opacity="0.5">
<path d="M25.9735 40.8812C26.4744 42.5123 27.4317 47.0634 26.986 46.8869C20.7111 44.4144 12.0742 40.3161 7.17372 37.6172C6.77619 37.3997 4.49976 32.3708 4.49976 32.3708C4.49976 32.3708 25.8131 40.3642 25.9735 40.8812Z" fill="#61306E"/>
</g>
<g style="mix-blend-mode:multiply" opacity="0.3">
<path d="M49.5791 26.6896C44.7892 29.2834 25.7434 40.1379 26.0251 41.0506C26.6062 42.942 27.0715 47.2899 27.5421 47.0207C28.6527 46.4003 50.6541 32.9146 50.8306 31.8914C51.007 30.8682 51.5454 25.6254 49.5791 26.6896Z" fill="#6E5086"/>
</g>
<path d="M18.6004 27.096C20.383 29.139 21.4793 29.9358 21.9553 29.6345C22.4313 29.3333 24.5544 26.67 23.5918 26.5541C22.6291 26.4383 18.144 26.5613 18.6004 27.096Z" fill="url(#paint9_linear_245_57918)"/>
<g style="mix-blend-mode:multiply" opacity="0.2">
<path d="M24.8075 27.1869C23.4973 28.5488 24.1711 38.2054 26.8326 38.307C29.4941 38.4086 44.4808 28.1014 45.4791 26.3847C46.7661 24.16 45.6573 16.6657 44.0529 17.377C39.837 19.2523 25.7042 26.2528 24.8075 27.1869Z" fill="#E02774"/>
</g>
<g style="mix-blend-mode:multiply" opacity="0.2">
<path d="M25.1605 37.8349C24.6578 35.5816 22.3671 31.1731 18.4203 28.451C16.6377 27.2263 3.06104 21.2652 2.9933 21.9034C2.88099 22.9302 7.92944 30.9842 10.3111 32.314C12.6927 33.6439 25.5259 39.466 25.1605 37.8349Z" fill="#E02774"/>
</g>
<g style="mix-blend-mode:soft-light" opacity="0.5">
<path d="M4.96848 25.1549C6.3946 28.2977 9.31457 31.8719 11.0491 32.7026C12.7836 33.5333 19.4489 36.6672 19.5666 35.4942C19.9801 31.3603 3.95237 22.9177 4.96848 25.1549Z" fill="white"/>
</g>
<g style="mix-blend-mode:multiply" opacity="0.3">
<path d="M9.66411 20.3007C10.3504 21.192 19.187 23.9266 20.8716 23.4596C21.4688 23.2938 27.856 20.889 28.5762 20.0725C31.2608 17.0189 28.8008 12.1041 28.2767 12.015C27.4763 11.8777 9.17032 19.6554 9.66411 20.3007Z" fill="#D65A6B"/>
</g>
<g style="mix-blend-mode:multiply" opacity="0.3">
<path d="M10.796 19.8834C10.033 20.2399 8.39119 20.5394 14.4397 22.2543C22.6399 24.5718 28.8791 15.2218 27.9183 13.2359C26.9574 11.2501 14.4771 18.1222 10.796 19.8834Z" fill="#D65A6B"/>
</g>
<path d="M21.2886 26.9321C20.7894 28.2887 21.1727 30.2318 22.2868 29.3262C23.401 28.4206 24.0499 26.8572 23.5917 26.547C23.2833 26.3385 21.4508 26.4882 21.2886 26.9321Z" fill="url(#paint10_linear_245_57918)"/>
<path d="M18.6005 27.0962C19.3011 27.8752 20.0106 28.7006 20.4152 28.016C20.8199 27.3315 20.5222 26.565 19.9428 26.6398C19.3635 26.7147 18.2992 26.7539 18.6005 27.0962Z" fill="url(#paint11_linear_245_57918)"/>
<path d="M28.5584 11.4497C13.9906 13.9757 8.79241 20.6303 9.22737 20.4663C9.66234 20.3023 15.4862 17.0793 21.0784 14.7619C26.6705 12.4444 28.5584 11.4497 28.5584 11.4497Z" fill="#FFAA3B"/>
<path d="M24.4868 26.8483C24.4422 27.13 32.3019 24.6236 39.0367 19.7427C39.4271 19.4592 24.8255 24.7323 24.4868 26.8483Z" fill="#FFAA3B"/>
<g style="mix-blend-mode:multiply" opacity="0.5">
<path d="M6.94718 29.0125C8.47491 30.4831 10.0632 32.3638 16.3364 34.9968C22.6095 37.6298 25.0713 38.4195 28.6081 37.111C32.1449 35.8026 45.4505 27.351 46.078 25.6326L46.1671 26.3759C46.1671 26.3759 47.169 26.7699 46.7412 27.1959C46.3133 27.622 30.8934 37.9667 26.3655 40.1576C25.3762 40.6353 28.1482 47.2721 26.7114 46.7765C21.7289 45.067 10.6872 39.4677 7.28054 37.7242C6.85092 37.505 4.45683 32.3193 4.58161 32.1677C5.14493 31.4832 7.62637 29.9983 7.62637 29.9983L6.94718 29.0125Z" fill="#61306E"/>
</g>
<g style="mix-blend-mode:multiply" opacity="0.5">
<path d="M29.8276 38.1967C26.9505 43.4573 27.4389 47.0814 27.5423 47.0208C27.6457 46.9602 40.0208 38.7671 40.0208 38.7671C40.0208 38.7671 35.8423 35.5958 35.5357 35.5994C35.2291 35.6029 29.8276 38.1967 29.8276 38.1967Z" fill="#61306E"/>
</g>
<path d="M48.5239 42.6514C48.0141 49.3202 43.643 55.3081 36.9135 54.2796C31.6013 53.4702 28.0431 48.6072 29.0895 42.006C29.6956 38.1734 31.0736 34.7632 33.6994 32.6507C35.5962 31.1248 37.295 30.7148 39.5465 30.7897C41.5591 30.8574 44.3953 31.1462 45.6824 32.3762C47.8287 34.4387 48.8769 38.0004 48.5239 42.6514Z" fill="url(#paint12_linear_245_57918)"/>
<path d="M48.4347 43.5213C47.4471 49.7481 43.1491 54.4703 39.3236 54.342C35.498 54.2136 33.5745 49.0939 34.5603 42.8671C35.5461 36.6403 39.4484 31.6935 43.2739 31.8147C47.0995 31.9359 49.4205 37.2927 48.4347 43.5213Z" fill="url(#paint13_linear_245_57918)"/>
<path d="M41.2276 48.502C41.0491 48.5191 40.869 48.499 40.6986 48.4428C40.5283 48.3867 40.3715 48.2957 40.2382 48.1758C38.4556 46.6035 39.199 39.9596 41.2133 38.3712C41.441 38.1812 41.7205 38.0639 42.0155 38.0343C46.2333 37.7188 44.3686 48.2453 41.2276 48.502Z" fill="url(#paint14_linear_245_57918)"/>
<path d="M40.2382 48.1759C38.4556 46.6036 39.199 39.9597 41.2133 38.3713C43.5433 39.7529 42.4416 46.4289 40.2382 48.1759Z" fill="#810937"/>
<g style="mix-blend-mode:multiply" opacity="0.8">
<path d="M36.0061 36.7812C34.9954 35.1768 30.9095 35.9558 30.4942 36.9969C30.0788 38.038 27.8933 44.5214 29.9683 48.47C32.0433 52.4186 34.8617 53.875 35.0399 53.0853C35.2182 52.2956 34.2164 48.8069 34.3269 45.0883C34.4927 39.965 36.1951 37.0789 36.0061 36.7812Z" fill="#D65A6B"/>
</g>
<g style="mix-blend-mode:multiply" opacity="0.8">
<path d="M39.2346 44.5659C39.4004 45.9653 42.1653 42.2485 42.5004 42.2788C42.8355 42.3091 44.3936 40.6459 44.283 40.0772C44.0638 38.8704 42.8444 37.3017 41.3595 38.3659C39.8746 39.4301 39.1009 43.4375 39.2346 44.5659Z" fill="#8D4D81"/>
</g>
<g style="mix-blend-mode:soft-light" opacity="0.5">
<path d="M31.8651 35.831C34.5533 35.4745 36.0864 36.4104 36.475 36.1323C38.3611 34.7775 40.4289 29.8556 35.9242 31.4974C32.9008 32.6009 30.8668 35.9683 31.8651 35.831Z" fill="#FF8833"/>
</g>
<g style="mix-blend-mode:multiply" opacity="0.3">
<path d="M34.6834 42.1844C33.5889 50.7839 36.2432 54.2725 39.8691 54.1959C43.495 54.1192 47.8126 47.9887 47.2529 46.3148C46.6931 44.6409 43.741 46.2881 42.8961 47.5538C42.0511 48.8194 39.903 49.4487 39.2844 46.8603C38.6659 44.2719 34.8492 40.8724 34.6834 42.1844Z" fill="#D64A57"/>
</g>
<g style="mix-blend-mode:soft-light">
<path d="M42.4236 45.0454C41.3326 47.1258 40.6641 48.1223 41.4592 48.1686C42.2542 48.215 43.5199 46.5036 43.7249 45.09C43.9299 43.6764 42.8978 44.1416 42.4236 45.0454Z" fill="#FFC733"/>
</g>
<g style="mix-blend-mode:soft-light" opacity="0.5">
<path d="M36.5748 38.1058C36.0525 42.3111 37.4661 41.8333 39.8317 39.3251C42.1973 36.817 43.5966 36.9578 44.2045 39.0399C44.8124 41.122 44.5236 44.5465 44.8748 44.9565C45.226 45.3665 48.3937 44.8638 48.2921 40.1772C48.1905 35.4907 46.8214 31.7632 43.0173 32.0644C39.2131 32.3657 36.7156 36.956 36.5748 38.1058Z" fill="#FFA733"/>
</g>
<path d="M43.5254 32.043C43.3828 32.9913 45.0407 36.2892 46.8483 34.1358C47.2315 33.6794 43.6698 31.0803 43.5254 32.043Z" fill="#FFA733"/>
<path d="M23.508 39.728C23.4153 39.5711 27.8577 38.981 27.7329 39.523C27.617 40.0239 27.2248 44.3129 26.7293 44.0188C26.2337 43.7246 23.8681 40.3287 23.508 39.728Z" fill="#9179A8"/>
<g style="mix-blend-mode:multiply" opacity="0.3">
<path d="M38.2131 21.0833C40.625 24.9766 43.7874 28.1658 44.9354 27.5329C46.6628 26.5792 46.21 16.6285 44.324 17.3219C42.265 18.0814 37.8494 20.5004 38.2131 21.0833Z" fill="#D65A6B"/>
</g>
<g style="mix-blend-mode:multiply" opacity="0.3">
<path d="M31.357 20.6323C33.0095 18.8212 39.8905 15.0776 40.7444 15.1525C41.5983 15.2273 45.062 15.9582 44.8142 16.3504C44.5664 16.7426 36.8226 20.3917 36.0168 20.6359C35.2111 20.8801 30.7865 21.2562 31.357 20.6323Z" fill="#D65A6B"/>
</g>
<path d="M53.6366 19.839C54.191 20.6733 55.5227 18.9477 54.7936 18.8211C54.0645 18.6946 53.1981 19.1812 53.6366 19.839Z" fill="white"/>
<path d="M40.5323 13.8743C41.076 14.8155 43.1243 13.4964 42.1367 13.1737C41.1491 12.8511 40.1437 13.204 40.5323 13.8743Z" fill="white"/>
<path d="M6.6354 33.7757C6.59262 35.0235 10.0456 36.0075 9.97786 34.4442C9.91012 32.8808 6.69601 31.9092 6.6354 33.7757Z" fill="#6E5086"/>
<path d="M7.28952 33.831C9.0989 33.7009 10.222 34.9487 9.52495 35.1555C8.67285 35.4069 7.71557 35.1181 7.06847 34.5619C6.42137 34.0057 6.61746 33.8809 7.28952 33.831Z" fill="#9179A8"/>
<g style="mix-blend-mode:multiply" opacity="0.3">
<path d="M37.0525 24.5789C38.131 25.1993 38.8352 23.0904 37.6961 22.2615C36.557 21.4325 34.2484 22.9656 37.0525 24.5789Z" fill="#D65A6B"/>
</g>
<path d="M7.17367 37.6227C11.6303 40.0916 25.1695 46.2061 25.1695 46.2061C25.1695 46.2061 11.4431 40.3501 7.65677 38.309C6.37505 37.6138 5.55859 34.6421 5.55859 34.6421L7.17367 37.6227Z" fill="#FFE09E"/>
<path d="M34.8778 8.62794C34.8786 8.80561 34.8131 8.97719 34.6941 9.10908C34.5751 9.24097 34.4111 9.32368 34.2343 9.341C34.1512 9.34806 34.0677 9.33751 33.989 9.31003C33.9103 9.28256 33.8383 9.23878 33.7778 9.18156C33.7172 9.12435 33.6694 9.05498 33.6374 8.97801C33.6055 8.90104 33.5902 8.8182 33.5925 8.7349C33.5943 8.55936 33.6607 8.39064 33.7791 8.26104C33.8975 8.13145 34.0596 8.05008 34.2343 8.03254C34.3165 8.02532 34.3994 8.0354 34.4775 8.06212C34.5556 8.08884 34.6273 8.13161 34.6879 8.18769C34.7485 8.24377 34.7967 8.3119 34.8294 8.38773C34.8621 8.46355 34.8786 8.54537 34.8778 8.62794Z" fill="#FFE800"/>
<path d="M34.7031 14.9937C34.7031 15.1987 34.6353 15.2594 34.4553 15.2594C34.1522 15.1987 34.0987 14.7246 34.4553 14.7139C34.49 14.7157 34.5241 14.7244 34.5554 14.7395C34.5867 14.7546 34.6148 14.7758 34.6378 14.8019C34.6609 14.8279 34.6786 14.8583 34.6897 14.8912C34.7009 14.9242 34.7055 14.959 34.7031 14.9937Z" fill="#FFE800"/>
<defs>
<radialGradient id="paint0_radial_245_57918" cx="0" cy="0" r="1" gradientUnits="userSpaceOnUse" gradientTransform="translate(31.0255 19.8532) scale(33.3016 33.3016)">
<stop stop-color="#FF6B05"/>
<stop offset="0.21" stop-color="#F2B992"/>
<stop offset="0.42" stop-color="#E1B291"/>
<stop offset="0.61" stop-color="#C99D7E"/>
<stop offset="0.78" stop-color="white" stop-opacity="0"/>
<stop offset="0.91" stop-color="white" stop-opacity="0"/>
<stop offset="1" stop-color="white" stop-opacity="0"/>
</radialGradient>
<linearGradient id="paint1_linear_245_57918" x1="51.2662" y1="20.8213" x2="53.6921" y2="25.3251" gradientUnits="userSpaceOnUse">
<stop stop-color="#ECBEBA"/>
<stop offset="0.07" stop-color="#DEB3B6"/>
<stop offset="0.32" stop-color="#AF8DA8"/>
<stop offset="0.55" stop-color="#8C729E"/>
<stop offset="0.73" stop-color="#786298"/>
<stop offset="0.85" stop-color="#705C96"/>
<stop offset="0.9" stop-color="#7762A8"/>
<stop offset="0.95" stop-color="#7C66B5"/>
<stop offset="1" stop-color="#7E68BA"/>
</linearGradient>
<linearGradient id="paint2_linear_245_57918" x1="37.8087" y1="15.6231" x2="40.0713" y2="18.8494" gradientUnits="userSpaceOnUse">
<stop stop-color="#ECBEBA"/>
<stop offset="0.07" stop-color="#DEB3B6"/>
<stop offset="0.32" stop-color="#AF8DA8"/>
<stop offset="0.55" stop-color="#8C729E"/>
<stop offset="0.73" stop-color="#786298"/>
<stop offset="0.85" stop-color="#705C96"/>
<stop offset="0.9" stop-color="#7762A8"/>
<stop offset="0.95" stop-color="#7C66B5"/>
<stop offset="1" stop-color="#7E68BA"/>
</linearGradient>
<linearGradient id="paint3_linear_245_57918" x1="8.26148" y1="34.8159" x2="27.6105" y2="35.5822" gradientUnits="userSpaceOnUse">
<stop stop-color="#8F322B"/>
<stop offset="1" stop-color="#C74816"/>
</linearGradient>
<linearGradient id="paint4_linear_245_57918" x1="4.51388" y1="32.0896" x2="50.9601" y2="33.6304" gradientUnits="userSpaceOnUse">
<stop stop-color="#E0D9E1"/>
<stop offset="1" stop-color="#B9A4A8"/>
</linearGradient>
<linearGradient id="paint5_linear_245_57918" x1="32.0292" y1="18.5522" x2="11.4496" y2="33.1" gradientUnits="userSpaceOnUse">
<stop stop-color="#FF8100"/>
<stop offset="1" stop-color="#FFA400"/>
</linearGradient>
<linearGradient id="paint6_linear_245_57918" x1="2.77458" y1="31.0187" x2="24.503" y2="28.4162" gradientUnits="userSpaceOnUse">
<stop offset="0.05" stop-color="#FF3F00"/>
<stop offset="1" stop-color="#D95203"/>
</linearGradient>
<linearGradient id="paint7_linear_245_57918" x1="33.247" y1="10.4921" x2="10.52" y2="28.4714" gradientUnits="userSpaceOnUse">
<stop stop-color="#FFA900"/>
<stop offset="1" stop-color="#FF9600"/>
</linearGradient>
<linearGradient id="paint8_linear_245_57918" x1="31.3378" y1="16.547" x2="9.07529" y2="19.2134" gradientUnits="userSpaceOnUse">
<stop stop-color="#E14D00"/>
<stop offset="0.24" stop-color="#D74804"/>
<stop offset="0.65" stop-color="#BC3910"/>
<stop offset="1" stop-color="#9F2A1D"/>
</linearGradient>
<linearGradient id="paint9_linear_245_57918" x1="18.5376" y1="27.971" x2="23.7989" y2="28.1455" gradientUnits="userSpaceOnUse">
<stop stop-color="#E14D00"/>
<stop offset="0.24" stop-color="#D74804"/>
<stop offset="0.65" stop-color="#BC3910"/>
<stop offset="1" stop-color="#9F2A1D"/>
</linearGradient>
<linearGradient id="paint10_linear_245_57918" x1="21.0413" y1="28.1449" x2="23.8485" y2="27.8087" gradientUnits="userSpaceOnUse">
<stop stop-color="#A71100"/>
<stop offset="1" stop-color="#8B2203"/>
</linearGradient>
<linearGradient id="paint11_linear_245_57918" x1="18.6177" y1="27.6058" x2="20.6054" y2="27.3677" gradientUnits="userSpaceOnUse">
<stop stop-color="#FFB64D"/>
<stop offset="1" stop-color="#FFA900"/>
</linearGradient>
<linearGradient id="paint12_linear_245_57918" x1="40.3141" y1="53.643" x2="34.3605" y2="31.2245" gradientUnits="userSpaceOnUse">
<stop stop-color="#8F322B"/>
<stop offset="1" stop-color="#C74816"/>
</linearGradient>
<linearGradient id="paint13_linear_245_57918" x1="34.7407" y1="42.3166" x2="48.363" y2="44.5221" gradientUnits="userSpaceOnUse">
<stop stop-color="#C8552F"/>
<stop offset="1" stop-color="#D76732"/>
</linearGradient>
<linearGradient id="paint14_linear_245_57918" x1="39.4792" y1="42.6355" x2="44.4173" y2="43.435" gradientUnits="userSpaceOnUse">
<stop stop-color="#8F322B"/>
<stop offset="1" stop-color="#C74816"/>
</linearGradient>
</defs>
</svg>
