<svg width="50" height="54" viewBox="0 0 50 54" fill="none" xmlns="http://www.w3.org/2000/svg">
<g clip-path="url(#clip0_717_106147)">
<path d="M49.9481 25.3278C49.9619 25.1813 49.9619 25.0337 49.9481 24.8871C49.9481 24.4464 49.9481 24.0057 49.8185 23.5909C49.5634 21.2585 49.0145 18.9677 48.1846 16.7729C48.029 16.3322 47.8475 15.9174 47.666 15.5026C46.4372 12.6561 44.5954 10.1157 42.2718 8.06236C41.7359 7.57072 41.1637 7.1201 40.5602 6.7143C37.1794 4.43395 33.175 3.2566 29.0975 3.34416H20.9284C16.5854 3.25078 12.333 4.59238 8.83039 7.16093C5.32783 9.72948 2.77087 13.3815 1.55602 17.5506C1.55602 17.9913 1.27075 18.432 1.14108 18.8468C1.01141 19.2616 0.907676 19.7023 0.803942 20.1171C0.700207 20.5319 0.622407 20.9726 0.544606 21.4133C0.272195 22.7126 0.0902238 24.0293 0 25.3538C0 25.9241 0 26.4685 0 27.0388C-3.81106e-06 28.9357 0.18237 30.8283 0.544606 32.6903C0.544606 33.131 0.726141 33.5717 0.829875 33.9865C0.93361 34.4013 1.14108 35.2827 1.34855 35.9049L1.81535 37.227C2.68206 39.5599 3.91654 41.7391 5.47199 43.6821C5.78319 44.071 6.12033 44.4339 6.45747 44.7969C8.31929 46.7441 10.5695 48.2787 13.0623 49.3014C15.5551 50.324 18.235 50.8119 20.9284 50.7335H29.0975C31.812 50.813 34.5125 50.3157 37.0205 49.2745C39.5285 48.2332 41.7868 46.6717 43.6463 44.6932C44.0093 44.3043 44.3724 43.8636 44.7095 43.4488C46.7286 40.8336 48.1934 37.8345 49.0145 34.6346C49.1442 34.1939 49.2479 33.7532 49.3257 33.3384C49.782 31.2698 50.0081 29.1571 50 27.0388C50 26.4685 49.9741 25.9241 49.9481 25.3278ZM20.9284 41.9711C19.6745 41.9946 18.4242 41.8286 17.2199 41.4786C15.1481 40.8668 13.3291 39.603 12.0332 37.8751C11.7062 37.4392 11.4115 36.98 11.1515 36.5011C10.72 35.7482 10.3556 34.9588 10.0622 34.1421C9.89204 33.7094 9.74488 33.2681 9.62137 32.8199C9.11155 30.9431 8.84142 29.0094 8.81743 27.0648C8.81743 26.8055 8.81743 26.2093 8.81743 25.3797C8.92143 24.1459 9.12964 22.9231 9.43983 21.7244C9.54568 21.294 9.67556 20.8699 9.82884 20.4541C10.019 19.9011 10.2265 19.3566 10.4512 18.8209C10.6501 18.3758 10.8752 17.943 11.1255 17.5247C12.0658 15.7736 13.4897 14.3295 15.2276 13.3643C16.9656 12.3992 18.9444 11.9536 20.9284 12.0806H29.0975C30.7038 12.0032 32.3061 12.3001 33.7778 12.948C35.2495 13.5959 36.5505 14.5769 37.5778 15.8137C37.9179 16.2151 38.2298 16.6396 38.5114 17.084C39.6941 19.0648 40.4781 21.2576 40.8195 23.5391C40.9147 23.9743 40.9754 24.4164 41.001 24.8612C41.0137 25.0251 41.0137 25.1898 41.001 25.3538C41.001 26.1833 41.001 26.7796 41.001 27.0388C40.965 29.212 40.6156 31.3686 39.9637 33.4421C39.8354 33.8835 39.6794 34.3164 39.4969 34.7383C38.7506 36.9189 37.3204 38.8006 35.4188 40.1037C33.5172 41.4068 31.2457 42.0617 28.9419 41.9711H20.9284Z" fill="#9E4000"/>
<path d="M49.2737 16.9544C49.2737 16.5137 49.0403 16.0729 48.9106 15.6582C48.1746 13.01 47 10.5039 45.4355 8.24385C45.1243 7.77722 44.7612 7.33651 44.4241 6.92172C42.5691 4.67302 40.2228 2.87969 37.5657 1.6797C34.9085 0.479718 32.0115 -0.0949308 29.0973 -2.71667e-05H20.9282C18.1455 -0.0309952 15.385 0.497983 12.811 1.55542C11.975 1.90309 11.1609 2.30133 10.3732 2.74793C7.80811 4.45434 5.6212 6.66956 3.94825 9.2561C2.27531 11.8427 1.15203 14.7453 0.648141 17.7839C0.648141 18.2246 0.466605 18.6654 0.388805 19.1061C0.311004 19.5468 0.388805 19.9356 0.207269 20.3764C0.025734 20.8171 0.207269 21.2318 0.207269 21.6726C0.207269 22.1133 0.207269 23.228 0.207269 24.0057C0.207269 24.7835 0.207269 25.1205 0.207269 25.6908C0.344569 28.2174 0.797605 30.7169 1.55582 33.131L2.02262 34.4532C2.28196 35.1272 2.56723 35.8012 2.87843 36.4493L3.57864 37.7974C5.25565 40.9585 7.78366 43.5879 10.877 45.3882C13.9704 47.1886 17.5058 48.0883 21.0838 47.9856H29.2529C32.995 48.0539 36.6804 47.0655 39.8857 45.1339C40.494 44.7489 41.0826 44.3336 41.6492 43.8896C44.4881 41.5495 46.6838 38.5249 48.0288 35.1013C48.2158 34.6693 48.3802 34.228 48.5216 33.7791C49.4354 31.1642 49.9682 28.4315 50.1035 25.6649C50.1164 25.5096 50.1164 25.3535 50.1035 25.1982C50.1035 24.7835 50.1035 24.3946 50.1035 24.0057C50.095 21.6314 49.8166 19.2658 49.2737 16.9544ZM41.0527 25.6908C40.672 28.1726 39.7223 30.5327 38.2778 32.5866C37.9925 33.0273 37.0589 34.2198 36.7218 34.6346C35.8759 35.8433 34.7247 36.8064 33.3854 37.4257C32.046 38.045 30.5665 38.2985 29.0973 38.1603H20.9282C19.7334 38.0683 18.5606 37.7884 17.4531 37.3307C16.5909 37.1656 15.7761 36.8115 15.0672 36.2938L13.9261 35.7234C12.9147 34.9976 12.4739 35.5679 11.8255 34.5828C11.5181 34.1673 11.2491 33.7247 11.0216 33.2607C9.84344 30.9057 9.13858 28.3427 8.9469 25.7167C8.9469 24.8872 8.9469 24.2909 8.9469 24.0317C8.91047 23.3495 8.91047 22.6658 8.9469 21.9836C8.9469 21.5948 8.9469 21.1541 9.12843 20.6874C9.30997 20.2208 9.30997 19.6246 9.43963 19.0801C9.5693 18.5357 9.6471 18.1987 9.77677 17.758C10.3034 15.207 11.7071 12.9208 13.7442 11.2965C15.7813 9.6722 18.323 8.81227 20.9282 8.86603H29.0973C31.3524 8.79984 33.5706 9.44891 35.4341 10.7203C37.2975 11.9916 38.7106 13.8199 39.4708 15.9433C39.6523 16.384 39.8338 16.8247 39.9635 17.2395C40.6471 19.379 41.0226 21.6049 41.0786 23.8502V24.0057C41.0786 24.1872 41.0786 24.602 41.0786 25.1723C41.0816 25.3455 41.0729 25.5187 41.0527 25.6908Z" fill="url(#paint0_linear_717_106147)"/>
<g opacity="0.5">
<path d="M29.0978 46.3524H20.9287C6.84672 46.3524 0.181788 34.4273 0.0261868 23.0207C0.0132437 23.2625 0.0132437 23.5048 0.0261868 23.7466C0.0261868 35.3087 6.56146 47.7523 20.9546 47.7523H29.1237C43.4909 47.7523 50.0262 35.3087 50.0262 23.7466C50.0391 23.5048 50.0391 23.2625 50.0262 23.0207C49.715 34.4273 43.1538 46.3524 29.0978 46.3524Z" fill="url(#paint1_linear_717_106147)"/>
</g>
<g style="mix-blend-mode:multiply" opacity="0.4">
<path d="M49.2736 16.747H48.2363L40.1191 17.0063H38.589C3.34523 17.9655 37.0849 18.5099 10.6585 18.7172H9.46556H1.14087H0.388794C0.388794 18.2765 0.544396 17.8358 0.64813 17.421H1.55581H9.80269H11.255C37.8369 17.2914 2.59315 16.747 37.5776 15.8137H39.5485L47.6398 15.5545H48.8328C48.9624 15.8656 49.0662 16.3063 49.2736 16.747Z" fill="#C97B3A"/>
<path d="M50 23.591C50 23.9799 50 24.3688 50 24.7836H41.001C6.58714 24.5502 36.7998 22.5541 9.5695 21.6986H8.97303L0.544606 21.4134H0C0 20.9986 0 20.5579 0 20.1431H0.803942L9.15456 20.4283H9.95851C37.3444 21.2579 6.53527 23.3318 40.8195 23.5651H50V23.591Z" fill="#C97B3A"/>
<path d="M49.2738 33.3386C49.2738 33.7533 49.0663 34.1941 48.9626 34.6348H47.8215H39.6006H37.6556C31.5093 34.6348 48.029 34.6348 47.8215 34.6348C32.2614 34.6348 34.4138 34.1941 11.7738 33.9348H10.1141H1.86717H0.829825L0.544556 32.6386H1.40036H9.69912H11.0217C38.252 32.9497 3.24165 33.5719 38.6151 33.2867H40.1192H48.3661L49.2738 33.3386Z" fill="#C97B3A"/>
</g>
<g style="mix-blend-mode:overlay" opacity="0.5">
<path d="M40.4566 17.2136L49.1703 16.9543L49.4556 18.3542L40.3529 17.8617L40.4566 17.2136Z" fill="#FFDE55"/>
</g>
<g style="mix-blend-mode:overlay" opacity="0.5">
<path d="M41.7537 25.1722H49.9228C49.8811 27.2452 49.6027 29.3065 49.0929 31.3163C49.0929 31.3163 49.6375 26.9869 47.9 26.3648C45.3325 25.9069 42.7278 25.6899 40.1199 25.7166L41.7537 25.1722Z" fill="#FFDE55"/>
</g>
<g style="mix-blend-mode:overlay" opacity="0.5">
<path d="M36.7736 35.1531H49.0142L48.7808 36.0346C46.4975 35.8019 44.2035 35.6894 41.9084 35.6975C35.7362 35.542 30.757 35.5161 30.757 35.5161L36.7736 35.1531Z" fill="#FFDE55"/>
</g>
<g style="mix-blend-mode:multiply" opacity="0.7">
<path d="M30.031 42.7127H20.5134C8.66172 42.7127 8.32458 26.947 8.32458 25.3656C8.32458 23.7842 8.66172 8.04443 20.5134 8.04443H30.031C41.9086 8.04443 42.2457 23.8102 42.2457 25.3656C42.2457 26.9211 41.9086 42.7127 30.031 42.7127Z" fill="#9E4000"/>
</g>
<g style="mix-blend-mode:multiply" opacity="0.2">
<path d="M40.4567 25.7762C40.3011 28.0057 39.3415 34.6682 34.5438 36.9754C31.7139 38.1543 28.6752 38.7504 25.6094 38.7282C22.5437 38.7059 19.514 38.0657 16.7015 36.8458C11.6704 34.2275 10.5293 28.0057 10.3737 25.7762C10.3737 26.3465 9.12888 40.6307 21.3436 40.6307H29.4868C41.7015 40.6307 40.4826 26.3465 40.4567 25.7762Z" fill="#1B8943"/>
</g>
<g clip-path="url(#clip1_717_106147)">
<g style="mix-blend-mode:multiply">
<path d="M17.7 25.02C18.16 25.86 20.37 29.67 23.02 31.45L25.39 33.16L27.73 31.5C30.38 29.72 32.59 25.91 33.06 25.07L33.21 21.96C32.7282 21.7565 32.3184 21.4135 32.0333 20.9751C31.7481 20.5366 31.6007 20.0229 31.61 19.5C29.5839 18.9541 27.4868 18.7181 25.39 18.8C23.2833 18.7165 21.176 18.9525 19.14 19.5C19.1374 20.0193 18.98 20.526 18.6878 20.9553C18.3957 21.3846 17.9821 21.717 17.5 21.91L17.7 25.02Z" fill="url(#paint2_linear_717_106147)"/>
</g>
<path d="M34.23 20.56H34.08C33.6589 20.5293 33.2671 20.3333 32.9898 20.0149C32.7126 19.6965 32.5725 19.2814 32.6 18.86C32.6 18.81 32.6 18.76 32.6 18.71C32.6133 18.6643 32.6133 18.6158 32.6 18.57C32.65 17.87 29.4 17.3 25.39 17.3C21.38 17.3 18.13 17.87 18.13 18.58C18.1352 18.6633 18.1352 18.7468 18.13 18.83C18.1576 19.2497 18.0188 19.6634 17.7437 19.9816C17.4686 20.2998 17.0793 20.4968 16.66 20.53H16.5L16.7 24.62C16.7 24.62 19.23 29.5 22.44 31.62L25.44 33.7801L28.33 31.62C31.5 29.5 34.04 24.68 34.04 24.68L34.24 20.59L34.23 20.56Z" fill="url(#paint3_linear_717_106147)"/>
<path d="M25.44 36.78L21.84 34.18C18.5 31.91 15.92 27.11 15.82 26.91L15.72 26.73L15.58 22.1L16.09 21.4L16.65 21.5C16.84 21.5 17.12 21.19 17.12 20.72C17.1249 20.6702 17.1249 20.6199 17.12 20.57V20.37V20.3C17.24 19.3 18.73 18.85 20.04 18.62C21.7987 18.3355 23.5785 18.2017 25.36 18.22C27.1414 18.2017 28.9212 18.3355 30.68 18.62C32.05 18.86 33.62 19.28 33.62 20.43C33.6351 20.5328 33.6351 20.6373 33.62 20.74C33.62 21.2 33.91 21.5 34.1 21.5L34.66 21.43L35.18 22.14L35.03 26.76L34.94 26.94C34.83 27.14 32.29 31.94 28.94 34.21L25.44 36.78ZM17.7 26.26C18.16 27.1 20.37 30.91 23.02 32.69L25.39 34.4L27.7 32.67C30.35 30.89 32.56 27.08 33.03 26.24L33.5 21.17C33.0562 21.0605 32.6633 20.8024 32.3868 20.4385C32.1102 20.0746 31.9666 19.6269 31.98 19.17C29.8452 18.5779 27.6346 18.3049 25.42 18.36C23.3143 18.2718 21.2074 18.501 19.17 19.04C19.1009 19.561 18.8801 20.0502 18.5352 20.4467C18.1902 20.8432 17.7363 21.1295 17.23 21.27L17.7 26.26Z" fill="#F6AE28"/>
<g style="mix-blend-mode:multiply">
<path d="M25.44 36.75L21.84 34.15C18.5 31.88 15.92 27.08 15.82 26.88L15.72 26.7L15.58 22.07L16.09 21.37L16.65 21.44C16.84 21.44 17.12 21.13 17.12 20.66C17.1249 20.6102 17.1249 20.5599 17.12 20.51V20.31V20.23C17.24 19.23 18.73 18.79 20.04 18.56C21.7987 18.2755 23.5785 18.1417 25.36 18.16C27.1414 18.1417 28.9212 18.2755 30.68 18.56C32.05 18.8 33.62 19.22 33.62 20.37C33.6351 20.4728 33.6351 20.5773 33.62 20.68C33.62 21.14 33.91 21.44 34.1 21.44L34.66 21.37L35.18 22.08L35.03 26.7L34.94 26.88C34.83 27.08 32.29 31.88 28.94 34.15L25.44 36.75ZM17.7 26.23C18.16 27.07 20.37 30.88 23.02 32.66L25.39 34.37L27.7 32.64C30.35 30.86 32.56 27.05 33.03 26.21L33.5 21.14C33.0562 21.0305 32.6633 20.7724 32.3868 20.4085C32.1102 20.0446 31.9666 19.5969 31.98 19.14C29.8452 18.5479 27.6346 18.2749 25.42 18.33C23.3143 18.2418 21.2074 18.471 19.17 19.01C19.1009 19.531 18.8801 20.0202 18.5352 20.4167C18.1902 20.8132 17.7363 21.0995 17.23 21.24L17.7 26.23Z" fill="url(#paint4_linear_717_106147)"/>
</g>
<path d="M25.4399 36.75V34.75L28.6899 32.2L30.1699 31.29C30.1699 31.29 30.1199 33.29 29.4299 33.81C28.7399 34.33 25.4399 36.75 25.4399 36.75Z" fill="url(#paint5_linear_717_106147)"/>
<g style="mix-blend-mode:multiply" opacity="0.5">
<path d="M18.11 28.79C20.1508 31.4581 22.6292 33.7607 25.44 35.6C25.44 35.6 31.27 31.82 32.25 29.27C32.52 28.54 28.25 33.09 25.72 33.17C23.19 33.25 18.11 28.79 18.11 28.79Z" fill="#FF6700"/>
</g>
<path d="M25.44 35.09L21.84 32.5C18.5 30.21 15.92 25.42 15.82 25.21L15.72 25.04L15.5 20.41L16.09 19.71L16.65 19.77C16.84 19.77 17.12 19.45 17.12 18.98C17.1246 18.9335 17.1246 18.8866 17.12 18.84V18.64V18.56C17.27 17.5 18.76 17.13 20.07 16.89C21.8296 16.6142 23.609 16.4838 25.39 16.5C27.171 16.4838 28.9504 16.6142 30.71 16.89C32.08 17.13 33.65 17.56 33.65 18.71C33.6652 18.8128 33.6652 18.9172 33.65 19.02C33.65 19.47 33.94 19.78 34.13 19.78L34.69 19.72L35.28 20.42L35.06 25.05L34.97 25.22C34.86 25.43 32.32 30.22 28.97 32.49L25.44 35.09ZM17.7 24.57C18.16 25.41 20.37 29.22 23.02 31L25.39 32.71L27.7 30.98C30.35 29.2 32.56 25.39 33.03 24.55L33.21 21.5C32.7322 21.2967 32.3253 20.9564 32.0406 20.5222C31.7559 20.088 31.606 19.5792 31.61 19.06C29.5809 18.5318 27.485 18.306 25.39 18.39C23.2843 18.3018 21.1774 18.531 19.14 19.07C19.1387 19.5921 18.982 20.102 18.69 20.5347C18.3979 20.9674 17.9837 21.3035 17.5 21.5L17.7 24.57Z" fill="url(#paint6_linear_717_106147)"/>
<g style="mix-blend-mode:screen">
<path d="M25.44 35.11L21.84 32.5C18.5 30.24 15.92 25.5 15.82 25.24L15.72 25.07L15.5 20.44L16.09 19.74L16.65 19.8C16.84 19.8 17.12 19.49 17.12 19.02C17.1246 18.9735 17.1246 18.9266 17.12 18.88V18.68V18.6C17.27 17.55 18.76 17.15 20.07 16.92C21.8288 16.6342 23.6081 16.4937 25.39 16.5C27.171 16.4838 28.9504 16.6142 30.71 16.89C32.08 17.13 33.65 17.56 33.65 18.71C33.6644 18.8128 33.6644 18.9172 33.65 19.02C33.65 19.47 33.94 19.77 34.13 19.77L34.69 19.71L35.28 20.41L35.06 25.04L34.97 25.21C34.86 25.42 32.32 30.21 28.97 32.48L25.44 35.11ZM17.7 24.6C18.16 25.43 20.37 29.25 23.02 31.03L25.39 32.74L27.7 31.01C30.35 29.23 32.56 25.42 33.03 24.58L33.21 21.5C32.7322 21.2967 32.3253 20.9564 32.0406 20.5222C31.7559 20.088 31.606 19.5792 31.61 19.06C29.5809 18.5318 27.485 18.306 25.39 18.39C23.2843 18.3018 21.1774 18.531 19.14 19.07C19.14 19.5924 18.9839 20.1029 18.6917 20.5359C18.3995 20.9689 17.9845 21.3046 17.5 21.5L17.7 24.6Z" fill="url(#paint7_linear_717_106147)"/>
</g>
<path d="M32.5 24.61L32.64 21.77C32.2043 21.586 31.833 21.2768 31.5731 20.8816C31.3132 20.4864 31.1764 20.023 31.18 19.55C29.3264 19.0719 27.4129 18.8664 25.5 18.94C23.5796 18.8572 21.6577 19.0662 19.8 19.56C19.799 20.0373 19.6544 20.5033 19.3851 20.8974C19.1159 21.2915 18.7343 21.5955 18.29 21.77L18.43 24.61C18.86 25.38 20.88 28.85 23.29 30.48L25.5 32.06L27.59 30.5C30 28.85 32.02 25.38 32.5 24.61Z" fill="url(#paint8_linear_717_106147)"/>
<path opacity="0.7" d="M25.42 33.75C25.01 33.52 21.26 31.37 20.23 30.22C20.6398 30.8396 21.1385 31.3955 21.71 31.87L25.38 34.56L29.06 31.87C29.6267 31.3935 30.1218 30.8378 30.53 30.22C29.57 31.37 25.82 33.5 25.42 33.75Z" fill="white"/>
<path opacity="0.7" d="M17.7 18.3C17.7 18.3 18.28 16.81 25.08 16.81C31.88 16.81 33.08 18.3 33.08 18.3C33.08 18.3 30.63 17.3 25.08 17.3C19.53 17.3 17.7 18.3 17.7 18.3Z" fill="white"/>
<path opacity="0.3" d="M20.23 20.1C21.8821 19.5513 23.6209 19.3107 25.36 19.39C27.1206 19.3387 28.8808 19.5066 30.6 19.89C30.6081 20.3373 30.7562 20.7708 31.0235 21.1295C31.2908 21.4883 31.6637 21.7542 32.09 21.89H21.26H18.84C18.84 21.89 20.26 20.5 20.23 20.1Z" fill="url(#paint9_linear_717_106147)"/>
<path d="M26.5 21.14H24.94C24.8939 21.1297 24.8461 21.1297 24.8 21.14L22.62 22.14C22.5499 22.1724 22.4929 22.2276 22.4584 22.2967C22.4238 22.3657 22.4139 22.4445 22.43 22.52L22.75 23.97C22.758 24.0205 22.7787 24.0681 22.8102 24.1084C22.8417 24.1486 22.8829 24.1802 22.93 24.2C22.9744 24.2245 23.0243 24.2374 23.075 24.2374C23.1258 24.2374 23.1756 24.2245 23.22 24.2L24.33 23.67V29.67C24.33 29.7602 24.3659 29.8467 24.4296 29.9104C24.4934 29.9742 24.5799 30.01 24.67 30.01H26.5C26.5902 30.01 26.6767 29.9742 26.7405 29.9104C26.8042 29.8467 26.84 29.7602 26.84 29.67V21.5C26.8428 21.4537 26.836 21.4073 26.8201 21.3638C26.8043 21.3202 26.7797 21.2803 26.7478 21.2466C26.716 21.2128 26.6776 21.186 26.6349 21.1677C26.5923 21.1493 26.5464 21.1399 26.5 21.14Z" fill="url(#paint10_linear_717_106147)"/>
<path d="M26.5 20.66H24.94C24.8939 20.6497 24.8461 20.6497 24.8 20.66L22.62 21.66C22.5499 21.6924 22.4929 21.7476 22.4584 21.8167C22.4238 21.8858 22.4139 21.9645 22.43 22.04L22.75 23.5C22.7596 23.5499 22.781 23.5968 22.8123 23.6368C22.8436 23.6768 22.8839 23.7087 22.93 23.73C22.9752 23.7521 23.0248 23.7636 23.075 23.7636C23.1253 23.7636 23.1749 23.7521 23.22 23.73L24.33 23.2V29.2C24.33 29.2902 24.3659 29.3767 24.4296 29.4404C24.4934 29.5042 24.5799 29.54 24.67 29.54H26.5C26.5902 29.54 26.6767 29.5042 26.7405 29.4404C26.8042 29.3767 26.84 29.2902 26.84 29.2V21C26.84 20.9099 26.8042 20.8234 26.7405 20.7596C26.6767 20.6959 26.5902 20.66 26.5 20.66Z" fill="url(#paint11_linear_717_106147)"/>
<path d="M16.22 20.1801C16.22 20.1801 17.22 20.2501 17.39 19.6801C17.375 19.8378 17.3228 19.9897 17.2375 20.1233C17.1523 20.2569 17.0366 20.3683 16.8999 20.4484C16.7631 20.5285 16.6094 20.5749 16.4512 20.5839C16.293 20.5929 16.1349 20.5641 15.99 20.5001L16.22 20.1801Z" fill="white"/>
<path d="M34.6199 20.1801C34.6199 20.1801 33.6199 20.2501 33.4399 19.6801C33.4544 19.8391 33.5066 19.9924 33.5925 20.1271C33.6783 20.2618 33.7951 20.374 33.9331 20.4543C34.0712 20.5345 34.2265 20.5806 34.386 20.5886C34.5455 20.5965 34.7046 20.5662 34.8499 20.5001L34.6199 20.1801Z" fill="white"/>
<g style="mix-blend-mode:overlay">
<path d="M25.24 16.5C27.36 16.42 29.14 17.63 29.24 19.21C29.34 20.79 27.64 22.12 25.52 22.21C23.4 22.3 21.58 21.11 21.5 19.5C21.42 17.89 23.11 16.63 25.24 16.5Z" fill="white"/>
</g>
<g style="mix-blend-mode:overlay">
<path d="M25.29 31.37C25.8118 31.3105 26.336 31.4586 26.7494 31.7823C27.1629 32.1059 27.4325 32.5793 27.5 33.1C27.4744 33.6129 27.2524 34.0963 26.88 34.45C26.5077 34.8037 26.0136 35.0006 25.5 35C24.9768 35.0593 24.4512 34.9099 24.0375 34.5841C23.6237 34.2584 23.3551 33.7826 23.29 33.26C23.3182 32.7489 23.5413 32.268 23.9133 31.9164C24.2854 31.5648 24.7781 31.3692 25.29 31.37Z" fill="white"/>
</g>
<g style="mix-blend-mode:overlay">
<path d="M25.3099 32.01C25.9199 32.01 26.4499 32.78 26.4899 33.78C26.5299 34.78 26.0799 35.61 25.4899 35.63C24.8999 35.65 24.3599 34.86 24.3099 33.86C24.2599 32.86 24.7099 32.03 25.3099 32.01Z" fill="white"/>
</g>
<g style="mix-blend-mode:overlay">
<path d="M21.96 19.63C23.1321 19.4594 24.3156 19.3791 25.5 19.39C26.7457 19.3883 27.9896 19.4853 29.22 19.68C29.22 19.68 25.5 19.5 21.96 19.63Z" fill="white"/>
</g>
</g>
</g>
<defs>
<linearGradient id="paint0_linear_717_106147" x1="24.9998" y1="-0.388889" x2="24.9998" y2="45.9635" gradientUnits="userSpaceOnUse">
<stop stop-color="#F0CA57"/>
<stop offset="1" stop-color="#D45B1A"/>
</linearGradient>
<linearGradient id="paint1_linear_717_106147" x1="0.98573" y1="35.4643" x2="46.4733" y2="35.4643" gradientUnits="userSpaceOnUse">
<stop stop-color="#F0CA57"/>
<stop offset="0.5" stop-color="#F7C850"/>
<stop offset="1" stop-color="#FEC649"/>
</linearGradient>
<linearGradient id="paint2_linear_717_106147" x1="25.38" y1="30.35" x2="25.38" y2="20.84" gradientUnits="userSpaceOnUse">
<stop stop-color="#FFAC1C"/>
<stop offset="0.95" stop-color="#FF6100"/>
</linearGradient>
<linearGradient id="paint3_linear_717_106147" x1="25.38" y1="29.26" x2="25.38" y2="18.99" gradientUnits="userSpaceOnUse">
<stop stop-color="#FFAC1C"/>
<stop offset="0.95" stop-color="#FF6100"/>
</linearGradient>
<linearGradient id="paint4_linear_717_106147" x1="15.58" y1="27.46" x2="35.18" y2="27.46" gradientUnits="userSpaceOnUse">
<stop stop-color="#FFAC1C"/>
<stop offset="1" stop-color="#F9D445"/>
</linearGradient>
<linearGradient id="paint5_linear_717_106147" x1="29.4099" y1="32.71" x2="26.0399" y2="35.24" gradientUnits="userSpaceOnUse">
<stop stop-color="#FF8C00"/>
<stop offset="1" stop-color="#FF6100"/>
</linearGradient>
<linearGradient id="paint6_linear_717_106147" x1="25.38" y1="31.42" x2="25.38" y2="19.13" gradientUnits="userSpaceOnUse">
<stop stop-color="#FFAC1C"/>
<stop offset="1" stop-color="#F9D445"/>
</linearGradient>
<linearGradient id="paint7_linear_717_106147" x1="25.38" y1="31.45" x2="25.38" y2="19.16" gradientUnits="userSpaceOnUse">
<stop stop-color="#FFAC1C"/>
<stop offset="0.99" stop-color="#F9D477"/>
</linearGradient>
<linearGradient id="paint8_linear_717_106147" x1="18.29" y1="25.5" x2="32.59" y2="25.5" gradientUnits="userSpaceOnUse">
<stop stop-color="#FFAC1C"/>
<stop offset="1" stop-color="#F9D445"/>
</linearGradient>
<linearGradient id="paint9_linear_717_106147" x1="25.46" y1="21.65" x2="25.46" y2="19.29" gradientUnits="userSpaceOnUse">
<stop stop-color="#FFCD25"/>
<stop offset="0.99" stop-color="white"/>
</linearGradient>
<linearGradient id="paint10_linear_717_106147" x1="27.6" y1="17.44" x2="25.37" y2="23.98" gradientUnits="userSpaceOnUse">
<stop stop-color="#FFAC1C"/>
<stop offset="0.99" stop-color="#F9D477"/>
</linearGradient>
<linearGradient id="paint11_linear_717_106147" x1="24.65" y1="29.93" x2="24.65" y2="21.76" gradientUnits="userSpaceOnUse">
<stop stop-color="#FFAC1C"/>
<stop offset="0.95" stop-color="#FF6100"/>
</linearGradient>
<clipPath id="clip0_717_106147">
<rect width="50" height="54" fill="white"/>
</clipPath>
<clipPath id="clip1_717_106147">
<rect width="19.75" height="20.28" fill="white" transform="translate(15.5 16.5)"/>
</clipPath>
</defs>
</svg>
