<svg width="60" height="47" viewBox="0 0 60 47" fill="none" xmlns="http://www.w3.org/2000/svg">
<path d="M18.9124 3.17896C18.9124 3.17896 9.65691 6.72998 6.41606 8.42171C3.17521 10.1134 0.176806 11.8693 0.387158 12.6787C0.59751 13.488 6.94907 21.2942 6.67276 21.9484C6.5355 22.2711 3.82053 24.2659 3.90788 24.7597C3.95245 25.0217 5.72083 29.3446 6.20393 29.6994C6.68702 30.0541 8.05966 30.4552 8.09888 30.5443C8.77985 32.1024 10.7728 36.1811 12.8978 36.9832C16.8624 38.4825 20.1175 38.1491 22.0623 36.7658C24.0072 35.3824 27.0038 17.6362 27.0038 17.6362L18.9124 3.17896Z" fill="#FFE09E"/>
<path d="M55.5137 9.60892C57.045 9.15613 61.1807 9.95475 59.391 14.6823C59.063 15.5469 48.0248 20.615 48.0248 20.615L44.718 17.7182C44.718 17.7182 52.2764 10.5644 55.5137 9.60892Z" fill="url(#paint0_linear_245_57918)"/>
<path d="M42.1295 4.2538C43.5111 3.80101 47.9267 5.77439 45.4613 9.02415C45.1048 9.49477 35.1219 14.7928 35.1219 14.7928L31.71 12.0226C31.71 12.0226 39.0402 5.26634 42.1295 4.2538Z" fill="url(#paint1_linear_245_57918)"/>
<g style="mix-blend-mode:soft-light" opacity="0.5">
<path d="M47.367 16.7964C50.1372 19.2672 59.366 12.9441 58.3463 11.2702C57.3266 9.59633 55.0734 9.8762 52.0874 11.7284C49.1015 13.5805 46.7324 16.2313 47.367 16.7964Z" fill="white"/>
</g>
<g style="mix-blend-mode:soft-light" opacity="0.5">
<path d="M42.2598 4.491C44.1262 4.37869 45.1014 5.96703 44.6717 6.95105C44.2421 7.93507 36.6445 12.8106 35.1221 12.6787C33.5997 12.5468 33.9705 10.2775 35.3752 8.98861C36.78 7.69976 40.7838 4.57835 42.2598 4.491Z" fill="white"/>
</g>
<path d="M26.9379 28.6154C26.3211 33.7226 23.1943 37.9618 18.0122 37.8495C13.1616 37.7443 8.41265 33.9847 7.88321 27.2677C7.23076 18.9748 13.0974 12.5003 19.7895 14.3899C25.3406 15.9532 27.7686 21.77 26.9379 28.6154Z" fill="url(#paint2_linear_245_57918)"/>
<g style="mix-blend-mode:multiply">
<path d="M26.6615 29.8365C25.6187 34.2575 21.7539 38.4467 18.4988 37.6124C15.2027 36.7692 13.215 33.6175 13.3291 27.8328C13.4717 19.9767 18.4899 15.7964 22.6327 17.5791C26.198 19.1193 27.9932 24.1642 26.6615 29.8365Z" fill="#BF6377"/>
</g>
<g style="mix-blend-mode:multiply">
<path d="M9.10787 31.9526C9.93323 33.3787 13.24 36.1596 15.4576 35.7657C18.3473 35.2523 21.0391 37.2257 22.0534 36.7622C23.7131 36.0081 26.2052 32.4232 23.738 26.9933C21.2709 21.5634 8.00619 22.2033 7.9545 26.1608C7.9028 30.1183 9.10787 31.9526 9.10787 31.9526Z" fill="#BF6377"/>
</g>
<path d="M4.50875 24.3764C4.58541 24.626 6.8868 29.1058 7.18272 29.6228C7.47864 30.1397 27.1305 39.4487 27.5512 39.0209C27.9719 38.593 50.4974 24.9986 50.8397 23.8916C51.182 22.7845 51.3246 18.5098 50.4172 18.2281C49.5098 17.9464 30.1503 10.7606 29.439 10.741C28.7278 10.7214 4.10766 23.0733 4.50875 24.3764Z" fill="url(#paint3_linear_245_57918)"/>
<path d="M46.0015 19.2548C45.784 19.6559 27.3996 31.0399 25.7702 30.9936C24.1409 30.9472 11.2791 24.9557 9.40733 23.8238C8.69427 23.3906 3.96492 15.0888 3.29999 12.3204C3.18768 11.8533 25.0839 1.16991 25.8629 1.19487C26.9325 1.23052 30.578 2.45341 30.6279 2.67268C30.7795 3.36256 30.7973 11.3239 30.865 12.217C30.9096 12.8231 40.0599 6.74424 40.5733 6.85655C41.7356 7.11146 44.9158 8.19353 45.4239 8.25949C45.9319 8.32545 46.2172 18.8555 46.0015 19.2548Z" fill="url(#paint4_linear_245_57918)"/>
<path d="M1.52625 12.5004C1.54943 11.8105 20.0123 18.8823 21.1353 19.8966C21.8823 20.5669 25.7702 31.0025 25.7702 31.0025C25.7702 31.0025 9.63728 24.9575 9.11497 24.191C6.86349 20.8788 1.49595 13.1564 1.52625 12.5004Z" fill="url(#paint5_linear_245_57918)"/>
<path d="M45.4274 8.25934C40.3968 11.1472 21.5542 20.0426 21.5542 20.0426C21.5542 20.0426 1.4763 13.7766 1.52622 12.5003C1.5797 10.8745 20.244 1.5566 25.8736 1.20364C26.9432 1.13768 30.6083 2.41583 30.6386 2.68145C30.6938 3.18237 30.5263 5.33759 30.5798 6.98475C30.6796 10.099 31.2928 11.3273 31.2928 11.3273C31.5959 11.4325 40.0795 6.88314 40.5893 6.87066C41.4129 6.8261 44.9193 8.19339 45.4274 8.25934Z" fill="url(#paint6_linear_245_57918)"/>
<path d="M30.6314 2.67261C24.4457 4.85278 8.83504 11.9941 9.22723 12.4665C9.76202 13.1153 19.6521 16.1138 20.5791 15.7911C21.5061 15.4684 31.275 11.3184 31.275 11.3184L30.6314 2.67261Z" fill="url(#paint7_linear_245_57918)"/>
<g style="mix-blend-mode:multiply" opacity="0.5">
<path d="M25.9735 32.8814C26.4744 34.5126 27.4317 39.0636 26.986 38.8872C20.7111 36.4146 12.0742 32.3163 7.17372 29.6174C6.77619 29.3999 4.49976 24.3711 4.49976 24.3711C4.49976 24.3711 25.8131 32.3645 25.9735 32.8814Z" fill="#61306E"/>
</g>
<g style="mix-blend-mode:multiply" opacity="0.3">
<path d="M49.5791 18.6896C44.7892 21.2834 25.7434 32.1379 26.0251 33.0506C26.6062 34.942 27.0715 39.2899 27.5421 39.0207C28.6527 38.4003 50.6541 24.9146 50.8306 23.8914C51.007 22.8682 51.5454 17.6254 49.5791 18.6896Z" fill="#6E5086"/>
</g>
<path d="M18.6004 19.096C20.383 21.139 21.4793 21.9358 21.9553 21.6345C22.4313 21.3333 24.5544 18.67 23.5918 18.5541C22.6291 18.4383 18.144 18.5613 18.6004 19.096Z" fill="url(#paint8_linear_245_57918)"/>
<g style="mix-blend-mode:multiply" opacity="0.2">
<path d="M24.8075 19.1871C23.4973 20.5491 24.1711 30.2057 26.8326 30.3073C29.4941 30.4089 44.4808 20.1016 45.4791 18.3849C46.7661 16.1602 45.6573 8.66596 44.0529 9.37724C39.837 11.2526 25.7042 18.253 24.8075 19.1871Z" fill="#E02774"/>
</g>
<g style="mix-blend-mode:multiply" opacity="0.2">
<path d="M25.1605 29.8349C24.6578 27.5816 22.3671 23.1731 18.4203 20.451C16.6377 19.2263 3.06104 13.2652 2.9933 13.9034C2.88099 14.9302 7.92944 22.9842 10.3111 24.314C12.6927 25.6439 25.5259 31.466 25.1605 29.8349Z" fill="#E02774"/>
</g>
<g style="mix-blend-mode:soft-light" opacity="0.5">
<path d="M4.96848 17.1549C6.3946 20.2977 9.31457 23.8719 11.0491 24.7026C12.7836 25.5333 19.4489 28.6672 19.5666 27.4942C19.9801 23.3603 3.95237 14.9177 4.96848 17.1549Z" fill="white"/>
</g>
<g style="mix-blend-mode:multiply" opacity="0.3">
<path d="M9.66411 12.3007C10.3504 13.192 19.187 15.9266 20.8716 15.4596C21.4688 15.2938 27.856 12.889 28.5762 12.0725C31.2608 9.01886 28.8008 4.10411 28.2767 4.01498C27.4763 3.87772 9.17032 11.6554 9.66411 12.3007Z" fill="#D65A6B"/>
</g>
<g style="mix-blend-mode:multiply" opacity="0.3">
<path d="M10.796 11.8837C10.033 12.2402 8.39119 12.5397 14.4397 14.2546C22.6399 16.572 28.8791 7.22204 27.9183 5.23617C26.9574 3.25031 14.4771 10.1224 10.796 11.8837Z" fill="#D65A6B"/>
</g>
<path d="M21.2886 18.9321C20.7894 20.2887 21.1727 22.2318 22.2868 21.3262C23.401 20.4206 24.0499 18.8572 23.5917 18.547C23.2833 18.3385 21.4508 18.4882 21.2886 18.9321Z" fill="url(#paint9_linear_245_57918)"/>
<path d="M18.6005 19.0962C19.3011 19.8752 20.0106 20.7006 20.4152 20.016C20.8199 19.3315 20.5222 18.565 19.9428 18.6398C19.3635 18.7147 18.2992 18.7539 18.6005 19.0962Z" fill="url(#paint10_linear_245_57918)"/>
<path d="M28.5584 3.44995C13.9906 5.97596 8.79241 12.6306 9.22737 12.4666C9.66234 12.3026 15.4862 9.07954 21.0784 6.7621C26.6705 4.44467 28.5584 3.44995 28.5584 3.44995Z" fill="#FFAA3B"/>
<path d="M24.4868 18.8483C24.4422 19.13 32.3019 16.6236 39.0367 11.7427C39.4271 11.4592 24.8255 16.7323 24.4868 18.8483Z" fill="#FFAA3B"/>
<g style="mix-blend-mode:multiply" opacity="0.5">
<path d="M6.94718 21.0125C8.47491 22.4831 10.0632 24.3638 16.3364 26.9968C22.6095 29.6298 25.0713 30.4195 28.6081 29.111C32.1449 27.8026 45.4505 19.351 46.078 17.6326L46.1671 18.3759C46.1671 18.3759 47.169 18.7699 46.7412 19.1959C46.3133 19.622 30.8934 29.9667 26.3655 32.1576C25.3762 32.6353 28.1482 39.2721 26.7114 38.7765C21.7289 37.067 10.6872 31.4677 7.28054 29.7242C6.85092 29.505 4.45683 24.3193 4.58161 24.1677C5.14493 23.4832 7.62637 21.9983 7.62637 21.9983L6.94718 21.0125Z" fill="#61306E"/>
</g>
<g style="mix-blend-mode:multiply" opacity="0.5">
<path d="M29.8276 30.1967C26.9505 35.4573 27.4389 39.0814 27.5423 39.0208C27.6457 38.9602 40.0208 30.7671 40.0208 30.7671C40.0208 30.7671 35.8423 27.5958 35.5357 27.5994C35.2291 27.6029 29.8276 30.1967 29.8276 30.1967Z" fill="#61306E"/>
</g>
<path d="M48.5239 34.6516C48.0141 41.3205 43.643 47.3084 36.9135 46.2798C31.6013 45.4705 28.0431 40.6074 29.0895 34.0063C29.6956 30.1736 31.0736 26.7634 33.6994 24.651C35.5962 23.125 37.295 22.715 39.5465 22.7899C41.5591 22.8576 44.3953 23.1464 45.6824 24.3764C47.8287 26.439 48.8769 30.0007 48.5239 34.6516Z" fill="url(#paint11_linear_245_57918)"/>
<path d="M48.4347 35.5213C47.4471 41.7481 43.1491 46.4703 39.3236 46.342C35.498 46.2136 33.5745 41.0939 34.5603 34.8671C35.5461 28.6403 39.4484 23.6935 43.2739 23.8147C47.0995 23.9359 49.4205 29.2927 48.4347 35.5213Z" fill="url(#paint12_linear_245_57918)"/>
<path d="M41.2276 40.5022C41.0491 40.5194 40.869 40.4992 40.6986 40.4431C40.5283 40.3869 40.3715 40.296 40.2382 40.176C38.4556 38.6037 39.199 31.9598 41.2133 30.3715C41.441 30.1815 41.7205 30.0641 42.0155 30.0345C46.2333 29.719 44.3686 40.2455 41.2276 40.5022Z" fill="url(#paint13_linear_245_57918)"/>
<path d="M40.2382 40.1759C38.4556 38.6036 39.199 31.9597 41.2133 30.3713C43.5433 31.7529 42.4416 38.4289 40.2382 40.1759Z" fill="#810937"/>
<g style="mix-blend-mode:multiply" opacity="0.8">
<path d="M36.0061 28.7812C34.9954 27.1768 30.9095 27.9558 30.4942 28.9969C30.0788 30.038 27.8933 36.5214 29.9683 40.47C32.0433 44.4186 34.8617 45.875 35.0399 45.0853C35.2182 44.2956 34.2164 40.8069 34.3269 37.0883C34.4927 31.965 36.1951 29.0789 36.0061 28.7812Z" fill="#D65A6B"/>
</g>
<g style="mix-blend-mode:multiply" opacity="0.8">
<path d="M39.2346 36.5659C39.4004 37.9653 42.1653 34.2485 42.5004 34.2788C42.8355 34.3091 44.3936 32.6459 44.283 32.0772C44.0638 30.8704 42.8444 29.3017 41.3595 30.3659C39.8746 31.4301 39.1009 35.4375 39.2346 36.5659Z" fill="#8D4D81"/>
</g>
<g style="mix-blend-mode:soft-light" opacity="0.5">
<path d="M31.8651 27.831C34.5533 27.4745 36.0864 28.4104 36.475 28.1323C38.3611 26.7775 40.4289 21.8556 35.9242 23.4974C32.9008 24.6009 30.8668 27.9683 31.8651 27.831Z" fill="#FF8833"/>
</g>
<g style="mix-blend-mode:multiply" opacity="0.3">
<path d="M34.6834 34.1844C33.5889 42.7839 36.2432 46.2725 39.8691 46.1959C43.495 46.1192 47.8126 39.9887 47.2529 38.3148C46.6931 36.6409 43.741 38.2881 42.8961 39.5538C42.0511 40.8194 39.903 41.4487 39.2844 38.8603C38.6659 36.2719 34.8492 32.8724 34.6834 34.1844Z" fill="#D64A57"/>
</g>
<g style="mix-blend-mode:soft-light">
<path d="M42.4236 37.0457C41.3326 39.126 40.6641 40.1225 41.4592 40.1689C42.2542 40.2152 43.5199 38.5039 43.7249 37.0902C43.9299 35.6766 42.8978 36.1419 42.4236 37.0457Z" fill="#FFC733"/>
</g>
<g style="mix-blend-mode:soft-light" opacity="0.5">
<path d="M36.5748 30.1058C36.0525 34.3111 37.4661 33.8333 39.8317 31.3251C42.1973 28.817 43.5966 28.9578 44.2045 31.0399C44.8124 33.122 44.5236 36.5465 44.8748 36.9565C45.226 37.3665 48.3937 36.8638 48.2921 32.1772C48.1905 27.4907 46.8214 23.7632 43.0173 24.0644C39.2131 24.3657 36.7156 28.956 36.5748 30.1058Z" fill="#FFA733"/>
</g>
<path d="M43.5254 24.043C43.3828 24.9913 45.0407 28.2892 46.8483 26.1358C47.2315 25.6794 43.6698 23.0803 43.5254 24.043Z" fill="#FFA733"/>
<path d="M23.508 31.728C23.4153 31.5711 27.8577 30.981 27.7329 31.523C27.617 32.0239 27.2248 36.3129 26.7293 36.0188C26.2337 35.7246 23.8681 32.3287 23.508 31.728Z" fill="#9179A8"/>
<g style="mix-blend-mode:multiply" opacity="0.3">
<path d="M38.2131 13.0833C40.625 16.9766 43.7874 20.1658 44.9354 19.5329C46.6628 18.5792 46.21 8.6285 44.324 9.32195C42.265 10.0814 37.8494 12.5004 38.2131 13.0833Z" fill="#D65A6B"/>
</g>
<g style="mix-blend-mode:multiply" opacity="0.3">
<path d="M31.357 12.6323C33.0095 10.8212 39.8905 7.0776 40.7444 7.15247C41.5983 7.22734 45.062 7.95823 44.8142 8.35041C44.5664 8.74259 36.8226 12.3917 36.0168 12.6359C35.2111 12.8801 30.7865 13.2562 31.357 12.6323Z" fill="#D65A6B"/>
</g>
<path d="M53.6366 11.839C54.191 12.6733 55.5227 10.9477 54.7936 10.8211C54.0645 10.6946 53.1981 11.1812 53.6366 11.839Z" fill="white"/>
<path d="M40.5323 5.87429C41.076 6.81553 43.1243 5.49637 42.1367 5.17372C41.1491 4.85106 40.1437 5.20402 40.5323 5.87429Z" fill="white"/>
<path d="M6.6354 25.7757C6.59262 27.0235 10.0456 28.0075 9.97786 26.4442C9.91012 24.8808 6.69601 23.9092 6.6354 25.7757Z" fill="#6E5086"/>
<path d="M7.28952 25.831C9.0989 25.7009 10.222 26.9487 9.52495 27.1555C8.67285 27.4069 7.71557 27.1181 7.06847 26.5619C6.42137 26.0057 6.61746 25.8809 7.28952 25.831Z" fill="#9179A8"/>
<g style="mix-blend-mode:multiply" opacity="0.3">
<path d="M37.0525 16.5791C38.131 17.1995 38.8352 15.0906 37.6961 14.2617C36.557 13.4328 34.2484 14.9659 37.0525 16.5791Z" fill="#D65A6B"/>
</g>
<path d="M7.17367 29.6227C11.6303 32.0916 25.1695 38.2061 25.1695 38.2061C25.1695 38.2061 11.4431 32.3501 7.65677 30.309C6.37505 29.6138 5.55859 26.6421 5.55859 26.6421L7.17367 29.6227Z" fill="#FFE09E"/>
<path d="M34.8778 0.627942C34.8786 0.805605 34.8131 0.977185 34.6941 1.10908C34.5751 1.24097 34.4111 1.32368 34.2343 1.341C34.1512 1.34806 34.0677 1.33751 33.989 1.31003C33.9103 1.28256 33.8383 1.23878 33.7778 1.18156C33.7172 1.12435 33.6694 1.05498 33.6374 0.978013C33.6055 0.901041 33.5902 0.818196 33.5925 0.7349C33.5943 0.559361 33.6607 0.390639 33.7791 0.261042C33.8975 0.131446 34.0596 0.0500842 34.2343 0.0325382C34.3165 0.0253215 34.3994 0.0353969 34.4775 0.0621173C34.5556 0.0888376 34.6273 0.131612 34.6879 0.187689C34.7485 0.243766 34.7967 0.311905 34.8294 0.387726C34.8621 0.463547 34.8786 0.545373 34.8778 0.627942Z" fill="#FFE800"/>
<path d="M34.7031 6.99374C34.7031 7.19875 34.6353 7.25936 34.4553 7.25936C34.1522 7.19875 34.0987 6.72456 34.4553 6.71387C34.49 6.71568 34.5241 6.72439 34.5554 6.7395C34.5867 6.7546 34.6148 6.7758 34.6378 6.80185C34.6609 6.82791 34.6786 6.85829 34.6897 6.89124C34.7009 6.92418 34.7055 6.95903 34.7031 6.99374Z" fill="#FFE800"/>
<defs>
<linearGradient id="paint0_linear_245_57918" x1="51.2662" y1="12.8213" x2="53.6921" y2="17.3251" gradientUnits="userSpaceOnUse">
<stop stop-color="#ECBEBA"/>
<stop offset="0.07" stop-color="#DEB3B6"/>
<stop offset="0.32" stop-color="#AF8DA8"/>
<stop offset="0.55" stop-color="#8C729E"/>
<stop offset="0.73" stop-color="#786298"/>
<stop offset="0.85" stop-color="#705C96"/>
<stop offset="0.9" stop-color="#7762A8"/>
<stop offset="0.95" stop-color="#7C66B5"/>
<stop offset="1" stop-color="#7E68BA"/>
</linearGradient>
<linearGradient id="paint1_linear_245_57918" x1="37.8087" y1="7.62307" x2="40.0713" y2="10.8494" gradientUnits="userSpaceOnUse">
<stop stop-color="#ECBEBA"/>
<stop offset="0.07" stop-color="#DEB3B6"/>
<stop offset="0.32" stop-color="#AF8DA8"/>
<stop offset="0.55" stop-color="#8C729E"/>
<stop offset="0.73" stop-color="#786298"/>
<stop offset="0.85" stop-color="#705C96"/>
<stop offset="0.9" stop-color="#7762A8"/>
<stop offset="0.95" stop-color="#7C66B5"/>
<stop offset="1" stop-color="#7E68BA"/>
</linearGradient>
<linearGradient id="paint2_linear_245_57918" x1="8.26148" y1="26.8159" x2="27.6105" y2="27.5822" gradientUnits="userSpaceOnUse">
<stop stop-color="#8F322B"/>
<stop offset="1" stop-color="#C74816"/>
</linearGradient>
<linearGradient id="paint3_linear_245_57918" x1="4.51388" y1="24.0898" x2="50.9601" y2="25.6306" gradientUnits="userSpaceOnUse">
<stop stop-color="#E0D9E1"/>
<stop offset="1" stop-color="#B9A4A8"/>
</linearGradient>
<linearGradient id="paint4_linear_245_57918" x1="32.0292" y1="10.5522" x2="11.4496" y2="25.1" gradientUnits="userSpaceOnUse">
<stop stop-color="#FF8100"/>
<stop offset="1" stop-color="#FFA400"/>
</linearGradient>
<linearGradient id="paint5_linear_245_57918" x1="2.77458" y1="23.0187" x2="24.503" y2="20.4162" gradientUnits="userSpaceOnUse">
<stop offset="0.05" stop-color="#FF3F00"/>
<stop offset="1" stop-color="#D95203"/>
</linearGradient>
<linearGradient id="paint6_linear_245_57918" x1="33.247" y1="2.49212" x2="10.52" y2="20.4714" gradientUnits="userSpaceOnUse">
<stop stop-color="#FFA900"/>
<stop offset="1" stop-color="#FF9600"/>
</linearGradient>
<linearGradient id="paint7_linear_245_57918" x1="31.3378" y1="8.54702" x2="9.07529" y2="11.2134" gradientUnits="userSpaceOnUse">
<stop stop-color="#E14D00"/>
<stop offset="0.24" stop-color="#D74804"/>
<stop offset="0.65" stop-color="#BC3910"/>
<stop offset="1" stop-color="#9F2A1D"/>
</linearGradient>
<linearGradient id="paint8_linear_245_57918" x1="18.5376" y1="19.971" x2="23.7989" y2="20.1455" gradientUnits="userSpaceOnUse">
<stop stop-color="#E14D00"/>
<stop offset="0.24" stop-color="#D74804"/>
<stop offset="0.65" stop-color="#BC3910"/>
<stop offset="1" stop-color="#9F2A1D"/>
</linearGradient>
<linearGradient id="paint9_linear_245_57918" x1="21.0413" y1="20.1449" x2="23.8485" y2="19.8087" gradientUnits="userSpaceOnUse">
<stop stop-color="#A71100"/>
<stop offset="1" stop-color="#8B2203"/>
</linearGradient>
<linearGradient id="paint10_linear_245_57918" x1="18.6177" y1="19.6058" x2="20.6054" y2="19.3677" gradientUnits="userSpaceOnUse">
<stop stop-color="#FFB64D"/>
<stop offset="1" stop-color="#FFA900"/>
</linearGradient>
<linearGradient id="paint11_linear_245_57918" x1="40.3141" y1="45.6432" x2="34.3605" y2="23.2248" gradientUnits="userSpaceOnUse">
<stop stop-color="#8F322B"/>
<stop offset="1" stop-color="#C74816"/>
</linearGradient>
<linearGradient id="paint12_linear_245_57918" x1="34.7407" y1="34.3166" x2="48.363" y2="36.5221" gradientUnits="userSpaceOnUse">
<stop stop-color="#C8552F"/>
<stop offset="1" stop-color="#D76732"/>
</linearGradient>
<linearGradient id="paint13_linear_245_57918" x1="39.4792" y1="34.6358" x2="44.4173" y2="35.4353" gradientUnits="userSpaceOnUse">
<stop stop-color="#8F322B"/>
<stop offset="1" stop-color="#C74816"/>
</linearGradient>
</defs>
</svg>
