<svg width="64" height="56" viewBox="0 0 64 56" fill="none" xmlns="http://www.w3.org/2000/svg">
<g clip-path="url(#clip0_24_39325)">
<path style="mix-blend-mode:screen" opacity="0.5" d="M8.15382 14.5357C6.17865 20.2972 12.1042 34.9398 10.6228 36.2626C9.14141 37.5853 6.17865 35.6048 6.17865 35.6048C6.17865 35.6048 8.96314 40.6283 11.6104 40.8725C37.2876 43.2309 18.1955 -8.55669 39.9312 19.5289C42.1595 22.4114 20.5628 33.3551 28.2995 38.6228C36.0362 43.8905 53.2565 35.4408 59.0234 31.1606C64.7902 26.8805 52.7627 22.4257 54.2512 25.0711C55.7397 27.7166 58.5296 31.3246 54.745 32.9718C50.9605 34.619 39.9312 25.5649 43.3878 22.2759C46.8443 18.9869 54.9643 24.5256 55.9519 19.0939C56.9395 13.6622 46.8105 0.597187 40.7441 0.0516974C33.5137 -0.597185 46.8354 4.99141 42.5553 10.2573C38.2752 15.5233 32.0216 12.7263 31.8594 7.62259C31.6972 2.51888 10.129 8.77596 8.15382 14.5357Z" fill="url(#paint0_radial_24_39325)"/>
<path style="mix-blend-mode:screen" opacity="0.5" d="M36.6428 49.7122C45.0254 41.3297 45.0254 27.7389 36.6428 19.3564C28.2603 10.9738 14.6695 10.9738 6.287 19.3564C-2.09554 27.7389 -2.09554 41.3297 6.287 49.7122C14.6695 58.0948 28.2603 58.0948 36.6428 49.7122Z" fill="url(#paint1_radial_24_39325)"/>
<path d="M22.9123 11.179C22.9123 11.179 13.6568 14.73 10.416 16.4217C7.17515 18.1135 4.17674 19.8694 4.38709 20.6787C4.59744 21.488 10.949 29.2942 10.6727 29.9484C10.5354 30.2711 7.82046 32.2659 7.90781 32.7597C7.95238 33.0217 9.72076 37.3446 10.2039 37.6994C10.687 38.0541 12.0596 38.4552 12.0988 38.5444C12.7798 40.1024 14.7728 44.1811 16.8977 44.9833C20.8623 46.4825 24.1174 46.1491 26.0623 44.7658C28.0071 43.3824 31.0038 25.6362 31.0038 25.6362L22.9123 11.179Z" fill="#FFE09E"/>
<path d="M59.5136 17.609C61.0449 17.1562 65.1806 17.9548 63.3908 22.6824C63.0628 23.547 52.0247 28.615 52.0247 28.615L48.7179 25.7182C48.7179 25.7182 56.2763 18.5645 59.5136 17.609Z" fill="url(#paint2_linear_24_39325)"/>
<path d="M46.1295 12.2539C47.511 11.8011 51.9267 13.7745 49.4613 17.0243C49.1047 17.4949 39.1219 22.7929 39.1219 22.7929L35.7099 20.0227C35.7099 20.0227 43.0402 13.2664 46.1295 12.2539Z" fill="url(#paint3_linear_24_39325)"/>
<g style="mix-blend-mode:soft-light" opacity="0.5">
<path d="M51.3669 24.7966C54.1371 27.2673 63.3659 20.9443 62.3462 19.2704C61.3265 17.5965 59.0733 17.8764 56.0874 19.7285C53.1014 21.5807 50.7323 24.2315 51.3669 24.7966Z" fill="white"/>
</g>
<g style="mix-blend-mode:soft-light" opacity="0.5">
<path d="M46.2596 12.491C48.1261 12.3787 49.1012 13.967 48.6715 14.951C48.2419 15.9351 40.6443 20.8106 39.1219 20.6787C37.5995 20.5468 37.9703 18.2775 39.3751 16.9886C40.7798 15.6998 44.7836 12.5783 46.2596 12.491Z" fill="white"/>
</g>
<path d="M30.9378 36.6155C30.321 41.7228 27.1942 45.9619 22.0121 45.8496C17.1615 45.7444 12.4126 41.9848 11.8831 35.2678C11.2307 26.975 17.0973 20.5004 23.7894 22.39C29.3405 23.9534 31.7685 29.7702 30.9378 36.6155Z" fill="url(#paint4_linear_24_39325)"/>
<g style="mix-blend-mode:multiply">
<path d="M30.6615 37.8366C29.6186 42.2576 25.7539 46.4468 22.4988 45.6125C19.2026 44.7693 17.215 41.6176 17.3291 35.8329C17.4717 27.9768 22.4898 23.7965 26.6327 25.5792C30.198 27.1194 31.9931 32.1643 30.6615 37.8366Z" fill="#BF6377"/>
</g>
<g style="mix-blend-mode:multiply">
<path d="M13.1078 39.9526C13.9332 41.3787 17.24 44.1597 19.4576 43.7657C22.3472 43.2523 25.039 45.2257 26.0534 44.7622C27.713 44.0081 30.2051 40.4232 27.738 34.9933C25.2708 29.5634 12.0061 30.2033 11.9544 34.1608C11.9027 38.1183 13.1078 39.9526 13.1078 39.9526Z" fill="#BF6377"/>
</g>
<path d="M8.50857 32.3764C8.58522 32.626 10.8866 37.1057 11.1825 37.6227C11.4785 38.1397 31.1303 47.4487 31.551 47.0208C31.9717 46.593 54.4972 32.9985 54.8395 31.8915C55.1818 30.7845 55.3244 26.5097 54.417 26.2281C53.5096 25.9464 34.1501 18.7606 33.4389 18.7409C32.7276 18.7213 8.10747 31.0733 8.50857 32.3764Z" fill="url(#paint5_linear_24_39325)"/>
<path d="M50.0014 27.2549C49.7839 27.6559 31.3995 39.0399 29.7702 38.9936C28.1408 38.9472 15.279 32.9558 13.4073 31.8238C12.6942 31.3906 7.96486 23.0888 7.29993 20.3204C7.18763 19.8533 29.0838 9.16993 29.8629 9.19488C30.9325 9.23054 34.578 10.4534 34.6279 10.6727C34.7794 11.3626 34.7972 19.3239 34.865 20.217C34.9095 20.8231 44.0598 14.7443 44.5732 14.8566C45.7355 15.1115 48.9158 16.1935 49.4238 16.2595C49.9319 16.3255 50.2171 26.8555 50.0014 27.2549Z" fill="url(#paint6_linear_24_39325)"/>
<path d="M5.5262 20.5004C5.54938 19.8105 24.0122 26.8823 25.1353 27.8966C25.8822 28.5669 29.7702 39.0025 29.7702 39.0025C29.7702 39.0025 13.6372 32.9575 13.1149 32.191C10.8634 28.8788 5.4959 21.1564 5.5262 20.5004Z" fill="url(#paint7_linear_24_39325)"/>
<path d="M49.4274 16.2595C44.3968 19.1474 25.5542 28.0428 25.5542 28.0428C25.5542 28.0428 5.47629 21.7768 5.5262 20.5004C5.57968 18.8746 24.244 9.55675 29.8736 9.20379C30.9432 9.13783 34.6083 10.416 34.6386 10.6816C34.6938 11.1825 34.5263 13.3377 34.5797 14.9849C34.6796 18.0992 35.2928 19.3274 35.2928 19.3274C35.5959 19.4326 44.0795 14.8833 44.5893 14.8708C45.4129 14.8262 48.9193 16.1935 49.4274 16.2595Z" fill="url(#paint8_linear_24_39325)"/>
<path d="M34.6314 10.6727C28.4457 12.8529 12.835 19.9941 13.2272 20.4665C13.762 21.1154 23.6521 24.1138 24.5791 23.7912C25.5061 23.4685 35.275 19.3185 35.275 19.3185L34.6314 10.6727Z" fill="url(#paint9_linear_24_39325)"/>
<g style="mix-blend-mode:multiply" opacity="0.5">
<path d="M29.9734 40.8814C30.4743 42.5125 31.4316 47.0636 30.9859 46.8871C24.711 44.4146 16.0741 40.3163 11.1736 37.6174C10.7761 37.3999 8.49965 32.371 8.49965 32.371C8.49965 32.371 29.813 40.3644 29.9734 40.8814Z" fill="#61306E"/>
</g>
<g style="mix-blend-mode:multiply" opacity="0.3">
<path d="M53.5792 26.6898C48.7892 29.2835 29.7434 40.138 30.0251 41.0507C30.6062 42.9421 31.0715 47.29 31.5421 47.0208C32.6527 46.4005 54.6541 32.9147 54.8306 31.8915C55.0071 30.8683 55.5454 25.6255 53.5792 26.6898Z" fill="#6E5086"/>
</g>
<path d="M22.6004 27.0962C24.383 29.1391 25.4793 29.936 25.9553 29.6347C26.4313 29.3334 28.5544 26.6702 27.5918 26.5543C26.6291 26.4384 22.144 26.5614 22.6004 27.0962Z" fill="url(#paint10_linear_24_39325)"/>
<g style="mix-blend-mode:multiply" opacity="0.2">
<path d="M28.8075 27.1871C27.4973 28.5491 28.1711 38.2056 30.8326 38.3072C33.4941 38.4089 48.4808 28.1016 49.4791 26.3849C50.7662 24.1602 49.6574 16.6659 48.053 17.3772C43.837 19.2526 29.7042 26.253 28.8075 27.1871Z" fill="#E02774"/>
</g>
<g style="mix-blend-mode:multiply" opacity="0.2">
<path d="M29.1605 37.8348C28.6578 35.5816 26.3671 31.1731 22.4203 28.451C20.6377 27.2263 7.06106 21.2652 6.99332 21.9034C6.88101 22.9302 11.9295 30.9841 14.3111 32.314C16.6927 33.6439 29.5259 39.466 29.1605 37.8348Z" fill="#E02774"/>
</g>
<g style="mix-blend-mode:soft-light" opacity="0.5">
<path d="M8.96849 25.1549C10.3946 28.2977 13.3146 31.8719 15.0491 32.7026C16.7836 33.5333 23.4489 36.6672 23.5666 35.4942C23.9801 31.3603 7.95238 22.9177 8.96849 25.1549Z" fill="white"/>
</g>
<g style="mix-blend-mode:multiply" opacity="0.3">
<path d="M13.664 20.3008C14.3503 21.1921 23.1869 23.9267 24.8715 23.4596C25.4686 23.2938 31.8559 20.889 32.5761 20.0726C35.2607 17.0189 32.8007 12.1042 32.2766 12.015C31.4762 11.8778 13.1702 19.6554 13.664 20.3008Z" fill="#D65A6B"/>
</g>
<g style="mix-blend-mode:multiply" opacity="0.3">
<path d="M14.796 19.8836C14.033 20.2401 12.3912 20.5396 18.4397 22.2545C26.6398 24.572 32.8791 15.222 31.9183 13.2361C30.9574 11.2503 18.4771 18.1224 14.796 19.8836Z" fill="#D65A6B"/>
</g>
<path d="M25.2886 26.9322C24.7895 28.2888 25.1727 30.2319 26.2869 29.3263C27.401 28.4207 28.0499 26.8573 27.5918 26.5471C27.2834 26.3386 25.4508 26.4883 25.2886 26.9322Z" fill="url(#paint11_linear_24_39325)"/>
<path d="M22.6004 27.0962C23.3009 27.8752 24.0104 28.7006 24.4151 28.016C24.8198 27.3315 24.5221 26.565 23.9427 26.6398C23.3633 26.7147 22.2991 26.7539 22.6004 27.0962Z" fill="url(#paint12_linear_24_39325)"/>
<path d="M32.5582 11.4499C17.9905 13.9759 12.7923 20.6305 13.2272 20.4665C13.6622 20.3025 19.4861 17.0795 25.0782 14.7621C30.6704 12.4446 32.5582 11.4499 32.5582 11.4499Z" fill="#FFAA3B"/>
<path d="M28.4867 26.8484C28.4421 27.1301 36.3018 24.6237 43.0366 19.7428C43.427 19.4593 28.8254 24.7324 28.4867 26.8484Z" fill="#FFAA3B"/>
<g style="mix-blend-mode:multiply" opacity="0.5">
<path d="M10.9472 29.0125C12.4749 30.4832 14.0633 32.3639 20.3364 34.9969C26.6095 37.6298 29.0714 38.4196 32.6081 37.1111C36.1449 35.8026 49.4506 27.3511 50.0781 25.6326L50.1672 26.376C50.1672 26.376 51.169 26.77 50.7412 27.196C50.3134 27.6221 34.8935 37.9668 30.3656 40.1576C29.3762 40.6354 32.1482 47.2722 30.7114 46.7766C25.7289 45.067 14.6872 39.4678 11.2806 37.7243C10.851 37.5051 8.45687 32.3193 8.58165 32.1678C9.14497 31.4833 11.6264 29.9983 11.6264 29.9983L10.9472 29.0125Z" fill="#61306E"/>
</g>
<g style="mix-blend-mode:multiply" opacity="0.5">
<path d="M33.8275 38.1967C30.9503 43.4573 31.4387 47.0814 31.5421 47.0208C31.6455 46.9602 44.0206 38.7672 44.0206 38.7672C44.0206 38.7672 39.8421 35.5958 39.5355 35.5994C39.2289 35.603 33.8275 38.1967 33.8275 38.1967Z" fill="#61306E"/>
</g>
<path d="M52.5238 42.6516C52.014 49.3204 47.643 55.3083 40.9135 54.2797C35.6012 53.4704 32.043 48.6074 33.0894 42.0062C33.6955 38.1736 35.0735 34.7634 37.6994 32.6509C39.5961 31.125 41.295 30.715 43.5464 30.7898C45.559 30.8576 48.3952 31.1464 49.6823 32.3764C51.8286 34.4389 52.8768 38.0006 52.5238 42.6516Z" fill="url(#paint13_linear_24_39325)"/>
<path d="M52.4347 43.5215C51.4471 49.7483 47.1492 54.4705 43.3236 54.3421C39.4981 54.2138 37.5746 49.094 38.5604 42.8673C39.5462 36.6405 43.4484 31.6936 47.274 31.8149C51.0995 31.9361 53.4205 37.2929 52.4347 43.5215Z" fill="url(#paint14_linear_24_39325)"/>
<path d="M45.2275 48.5022C45.049 48.5193 44.8688 48.4992 44.6985 48.443C44.5282 48.3869 44.3714 48.2959 44.2381 48.176C42.4555 46.6037 43.1988 39.9598 45.2132 38.3714C45.4409 38.1815 45.7203 38.0641 46.0154 38.0345C50.2331 37.719 48.3685 48.2455 45.2275 48.5022Z" fill="url(#paint15_linear_24_39325)"/>
<path d="M44.2381 48.176C42.4555 46.6037 43.1988 39.9598 45.2132 38.3714C47.5431 39.753 46.4415 46.429 44.2381 48.176Z" fill="#810937"/>
<g style="mix-blend-mode:multiply" opacity="0.8">
<path d="M40.0061 36.7813C38.9953 35.1769 34.9095 35.9559 34.4942 36.997C34.0788 38.0381 31.8933 44.5215 33.9683 48.4701C36.0433 52.4187 38.8617 53.8751 39.0399 53.0854C39.2182 52.2957 38.2163 48.807 38.3269 45.0884C38.4926 39.9651 40.1951 37.079 40.0061 36.7813Z" fill="#D65A6B"/>
</g>
<g style="mix-blend-mode:multiply" opacity="0.8">
<path d="M43.2345 44.5661C43.4003 45.9655 46.1652 42.2487 46.5003 42.279C46.8354 42.3093 48.3935 40.6461 48.2829 40.0774C48.0637 38.8706 46.8443 37.3018 45.3594 38.3661C43.8745 39.4303 43.1008 43.4377 43.2345 44.5661Z" fill="#8D4D81"/>
</g>
<g style="mix-blend-mode:soft-light" opacity="0.5">
<path d="M35.865 35.8312C38.5533 35.4746 40.0863 36.4105 40.4749 36.1324C42.361 34.7776 44.4289 29.8557 39.9241 31.4975C36.9007 32.601 34.8667 35.9684 35.865 35.8312Z" fill="#FF8833"/>
</g>
<g style="mix-blend-mode:multiply" opacity="0.3">
<path d="M38.6834 42.1845C37.5888 50.784 40.2432 54.2726 43.8691 54.196C47.495 54.1193 51.8126 47.9888 51.2528 46.3149C50.6931 44.641 47.741 46.2882 46.896 47.5538C46.0511 48.8195 43.903 49.4488 43.2844 46.8604C42.6658 44.272 38.8492 40.8725 38.6834 42.1845Z" fill="#D64A57"/>
</g>
<g style="mix-blend-mode:soft-light">
<path d="M46.4236 45.0457C45.3327 47.126 44.6642 48.1225 45.4592 48.1688C46.2543 48.2152 47.52 46.5039 47.725 45.0902C47.93 43.6766 46.8978 44.1419 46.4236 45.0457Z" fill="#FFC733"/>
</g>
<g style="mix-blend-mode:soft-light" opacity="0.5">
<path d="M40.5748 38.1058C40.0525 42.3111 41.4661 41.8333 43.8317 39.3251C46.1972 36.817 47.5966 36.9578 48.2045 39.0399C48.8124 41.122 48.5236 44.5465 48.8748 44.9565C49.226 45.3665 52.3937 44.8638 52.2921 40.1772C52.1905 35.4907 50.8214 31.7632 47.0173 32.0644C43.2131 32.3657 40.7156 36.956 40.5748 38.1058Z" fill="#FFA733"/>
</g>
<path d="M47.5253 32.043C47.3827 32.9914 49.0406 36.2893 50.8482 34.1359C51.2314 33.6795 47.6697 31.0804 47.5253 32.043Z" fill="#FFA733"/>
<path d="M27.508 39.728C27.4153 39.5711 31.8576 38.9811 31.7329 39.523C31.617 40.0239 31.2248 44.313 30.7292 44.0188C30.2337 43.7247 27.8681 40.3288 27.508 39.728Z" fill="#9179A8"/>
<g style="mix-blend-mode:multiply" opacity="0.3">
<path d="M42.213 21.0833C44.6249 24.9766 47.7874 28.1658 48.9354 27.5329C50.6628 26.5792 50.21 16.6285 48.3239 17.322C46.265 18.0814 41.8494 20.5004 42.213 21.0833Z" fill="#D65A6B"/>
</g>
<g style="mix-blend-mode:multiply" opacity="0.3">
<path d="M35.357 20.6323C37.0095 18.8212 43.8905 15.0776 44.7444 15.1525C45.5983 15.2274 49.0619 15.9582 48.8142 16.3504C48.5664 16.7426 40.8226 20.3917 40.0168 20.6359C39.2111 20.8801 34.7865 21.2563 35.357 20.6323Z" fill="#D65A6B"/>
</g>
<path d="M57.6365 19.8391C58.1909 20.6733 59.5225 18.9477 58.7934 18.8212C58.0643 18.6946 57.1979 19.1813 57.6365 19.8391Z" fill="white"/>
<path d="M44.5322 13.8743C45.076 14.8156 47.1242 13.4964 46.1366 13.1737C45.149 12.8511 44.1436 13.2041 44.5322 13.8743Z" fill="white"/>
<path d="M10.6353 33.7758C10.5925 35.0236 14.0455 36.0076 13.9777 34.4443C13.91 32.8809 10.6959 31.9093 10.6353 33.7758Z" fill="#6E5086"/>
<path d="M11.2895 33.831C13.0989 33.7009 14.2219 34.9487 13.5249 35.1555C12.6728 35.4069 11.7155 35.1181 11.0684 34.5619C10.4213 34.0057 10.6174 33.8809 11.2895 33.831Z" fill="#9179A8"/>
<g style="mix-blend-mode:multiply" opacity="0.3">
<path d="M41.0525 24.5791C42.131 25.1995 42.8352 23.0906 41.6961 22.2617C40.5569 21.4327 38.2484 22.9658 41.0525 24.5791Z" fill="#D65A6B"/>
</g>
<path d="M11.1736 37.6227C15.6302 40.0917 29.1694 46.2062 29.1694 46.2062C29.1694 46.2062 15.4431 40.3502 11.6567 38.309C10.375 37.6138 9.55854 34.6421 9.55854 34.6421L11.1736 37.6227Z" fill="#FFE09E"/>
<path style="mix-blend-mode:screen" opacity="0.5" d="M40.6399 49.5431C48.1328 42.0502 48.1328 29.9019 40.6399 22.4091C33.1471 14.9163 20.9988 14.9163 13.506 22.4091C6.01313 29.9019 6.01313 42.0502 13.506 49.5431C20.9988 57.0359 33.1471 57.0359 40.6399 49.5431Z" fill="url(#paint16_radial_24_39325)"/>
<path d="M38.8777 8.628C38.8785 8.80567 38.813 8.97725 38.694 9.10914C38.575 9.24103 38.411 9.32374 38.2342 9.34106C38.1511 9.34812 38.0676 9.33757 37.9889 9.31009C37.9102 9.28262 37.8382 9.23884 37.7777 9.18162C37.7171 9.12441 37.6693 9.05505 37.6373 8.97807C37.6054 8.9011 37.5901 8.81826 37.5924 8.73496C37.5942 8.55942 37.6606 8.3907 37.779 8.2611C37.8974 8.13151 38.0595 8.05015 38.2342 8.0326C38.3164 8.02538 38.3993 8.03546 38.4774 8.06218C38.5555 8.0889 38.6272 8.13167 38.6878 8.18775C38.7484 8.24383 38.7966 8.31197 38.8293 8.38779C38.862 8.46361 38.8785 8.54543 38.8777 8.628Z" fill="#FFE800"/>
<path d="M38.703 14.9938C38.703 15.1988 38.6353 15.2594 38.4552 15.2594C38.1522 15.1988 38.0987 14.7246 38.4552 14.714C38.49 14.7158 38.524 14.7245 38.5553 14.7396C38.5867 14.7547 38.6147 14.7759 38.6378 14.8019C38.6609 14.828 38.6785 14.8584 38.6897 14.8913C38.7009 14.9243 38.7054 14.9591 38.703 14.9938Z" fill="#FFE800"/>
</g>
<defs>
<radialGradient id="paint0_radial_24_39325" cx="0" cy="0" r="1" gradientUnits="userSpaceOnUse" gradientTransform="translate(35.0254 19.8533) scale(33.3016 33.3016)">
<stop stop-color="#FF6B05"/>
<stop offset="0.21" stop-color="#B84D04"/>
<stop offset="0.42" stop-color="#773202"/>
<stop offset="0.61" stop-color="#441D01"/>
<stop offset="0.78" stop-color="#1F0D01"/>
<stop offset="0.91" stop-color="#080300"/>
<stop offset="1"/>
</radialGradient>
<radialGradient id="paint1_radial_24_39325" cx="0" cy="0" r="1" gradientUnits="userSpaceOnUse" gradientTransform="translate(21.4643 34.535) scale(21.4648)">
<stop stop-color="#FF6B05"/>
<stop offset="0.21" stop-color="#B84D04"/>
<stop offset="0.42" stop-color="#773202"/>
<stop offset="0.61" stop-color="#441D01"/>
<stop offset="0.78" stop-color="#1F0D01"/>
<stop offset="0.91" stop-color="#080300"/>
<stop offset="1"/>
</radialGradient>
<linearGradient id="paint2_linear_24_39325" x1="55.266" y1="20.8213" x2="57.6919" y2="25.3251" gradientUnits="userSpaceOnUse">
<stop stop-color="#ECBEBA"/>
<stop offset="0.07" stop-color="#DEB3B6"/>
<stop offset="0.32" stop-color="#AF8DA8"/>
<stop offset="0.55" stop-color="#8C729E"/>
<stop offset="0.73" stop-color="#786298"/>
<stop offset="0.85" stop-color="#705C96"/>
<stop offset="0.9" stop-color="#7762A8"/>
<stop offset="0.95" stop-color="#7C66B5"/>
<stop offset="1" stop-color="#7E68BA"/>
</linearGradient>
<linearGradient id="paint3_linear_24_39325" x1="41.8087" y1="15.6232" x2="44.0713" y2="18.8495" gradientUnits="userSpaceOnUse">
<stop stop-color="#ECBEBA"/>
<stop offset="0.07" stop-color="#DEB3B6"/>
<stop offset="0.32" stop-color="#AF8DA8"/>
<stop offset="0.55" stop-color="#8C729E"/>
<stop offset="0.73" stop-color="#786298"/>
<stop offset="0.85" stop-color="#705C96"/>
<stop offset="0.9" stop-color="#7762A8"/>
<stop offset="0.95" stop-color="#7C66B5"/>
<stop offset="1" stop-color="#7E68BA"/>
</linearGradient>
<linearGradient id="paint4_linear_24_39325" x1="12.2614" y1="34.8161" x2="31.6104" y2="35.5824" gradientUnits="userSpaceOnUse">
<stop stop-color="#8F322B"/>
<stop offset="1" stop-color="#C74816"/>
</linearGradient>
<linearGradient id="paint5_linear_24_39325" x1="8.51369" y1="32.0898" x2="54.9599" y2="33.6306" gradientUnits="userSpaceOnUse">
<stop stop-color="#E0D9E1"/>
<stop offset="1" stop-color="#B9A4A8"/>
</linearGradient>
<linearGradient id="paint6_linear_24_39325" x1="36.0291" y1="18.5522" x2="15.4496" y2="33.1" gradientUnits="userSpaceOnUse">
<stop stop-color="#FF8100"/>
<stop offset="1" stop-color="#FFA400"/>
</linearGradient>
<linearGradient id="paint7_linear_24_39325" x1="6.77453" y1="31.0187" x2="28.503" y2="28.4162" gradientUnits="userSpaceOnUse">
<stop offset="0.05" stop-color="#FF3F00"/>
<stop offset="1" stop-color="#D95203"/>
</linearGradient>
<linearGradient id="paint8_linear_24_39325" x1="37.247" y1="10.4923" x2="14.52" y2="28.4716" gradientUnits="userSpaceOnUse">
<stop stop-color="#FFA900"/>
<stop offset="1" stop-color="#FF9600"/>
</linearGradient>
<linearGradient id="paint9_linear_24_39325" x1="35.3378" y1="16.5471" x2="13.0753" y2="19.2135" gradientUnits="userSpaceOnUse">
<stop stop-color="#E14D00"/>
<stop offset="0.24" stop-color="#D74804"/>
<stop offset="0.65" stop-color="#BC3910"/>
<stop offset="1" stop-color="#9F2A1D"/>
</linearGradient>
<linearGradient id="paint10_linear_24_39325" x1="22.5376" y1="27.9711" x2="27.7989" y2="28.1456" gradientUnits="userSpaceOnUse">
<stop stop-color="#E14D00"/>
<stop offset="0.24" stop-color="#D74804"/>
<stop offset="0.65" stop-color="#BC3910"/>
<stop offset="1" stop-color="#9F2A1D"/>
</linearGradient>
<linearGradient id="paint11_linear_24_39325" x1="25.0413" y1="28.145" x2="27.8485" y2="27.8088" gradientUnits="userSpaceOnUse">
<stop stop-color="#A71100"/>
<stop offset="1" stop-color="#8B2203"/>
</linearGradient>
<linearGradient id="paint12_linear_24_39325" x1="22.6176" y1="27.6058" x2="24.6053" y2="27.3677" gradientUnits="userSpaceOnUse">
<stop stop-color="#FFB64D"/>
<stop offset="1" stop-color="#FFA900"/>
</linearGradient>
<linearGradient id="paint13_linear_24_39325" x1="44.314" y1="53.6432" x2="38.3605" y2="31.2247" gradientUnits="userSpaceOnUse">
<stop stop-color="#8F322B"/>
<stop offset="1" stop-color="#C74816"/>
</linearGradient>
<linearGradient id="paint14_linear_24_39325" x1="38.7408" y1="42.3168" x2="52.363" y2="44.5223" gradientUnits="userSpaceOnUse">
<stop stop-color="#C8552F"/>
<stop offset="1" stop-color="#D76732"/>
</linearGradient>
<linearGradient id="paint15_linear_24_39325" x1="43.4791" y1="42.6357" x2="48.4172" y2="43.4352" gradientUnits="userSpaceOnUse">
<stop stop-color="#8F322B"/>
<stop offset="1" stop-color="#C74816"/>
</linearGradient>
<radialGradient id="paint16_radial_24_39325" cx="0" cy="0" r="1" gradientUnits="userSpaceOnUse" gradientTransform="translate(27.0725 35.9764) scale(19.1866)">
<stop stop-color="#FF0097"/>
<stop offset="0.17" stop-color="#E10060"/>
<stop offset="0.36" stop-color="#C20025"/>
<stop offset="0.47" stop-color="#97001D"/>
<stop offset="0.66" stop-color="#570011"/>
<stop offset="0.81" stop-color="#280008"/>
<stop offset="0.93" stop-color="#0B0002"/>
<stop offset="1"/>
</radialGradient>
<clipPath id="clip0_24_39325">
<rect width="63.8329" height="56" fill="white"/>
</clipPath>
</defs>
</svg>
