<svg width="49" height="50" viewBox="0 0 49 50" fill="none" xmlns="http://www.w3.org/2000/svg">
<path d="M5.98624 10.3871C5.98624 10.3871 2.38748 11.3482 0.533942 14.4226C-1.3196 17.4969 1.81835 26.8024 7.38241 30.5404C7.38241 30.5404 7.56639 31.6821 7.85525 32.2856C8.14411 32.8892 9.91856 32.8015 10.6373 34.177C11.356 35.5526 8.64103 37.6159 8.51723 39.815C8.39343 42.0141 9.65377 48.7784 10.1558 49.5693C10.6579 50.3602 17.3293 49.4868 17.3293 49.4868L18.6068 1.10217C18.6068 1.10217 12.1091 2.24903 9.87041 4.29858C7.63172 6.34814 7.98936 9.18175 7.98936 9.18175C7.34918 9.62759 6.67999 10.0303 5.98624 10.3871Z" fill="#FF9FDB"/>
<path d="M27.9192 39.6396C29.2518 39.3972 34.5218 35.544 34.625 34.9611C34.7282 34.3782 29.7556 34.6344 28.4884 35.0625C25.5877 36.0478 27.9192 39.6396 27.9192 39.6396Z" fill="url(#paint0_linear_717_106024)"/>
<path d="M48.6709 29.4967C48.7254 30.1199 48.7127 30.7471 48.6331 31.3675C48.4612 32.8479 47.935 34.8063 46.3979 35.7778C43.8548 37.3683 34.5338 39.3886 32.9365 38.8281C32.2178 38.5753 31.6452 38.087 31.1431 37.6674C30.5259 37.1516 28.3405 36.3676 27.8195 36.6238C27.4085 36.8267 27.4756 37.7311 27.2057 38.2589C26.8618 38.9467 27.9209 39.6345 27.9209 39.6345C23.6 41.0702 19.0264 40.7624 18.6979 40.238C18.4779 39.8941 18.2818 39.1479 18.1271 38.1988C17.8527 36.435 17.7078 34.6535 17.6938 32.8685C17.6938 32.2547 17.6938 31.6649 17.7265 31.1164C17.9276 27.2718 20.3606 27.4283 18.6997 24.7752C18.4091 24.311 17.8709 23.7436 17.1952 23.0695C13.9712 19.868 7.57327 14.2437 9.50418 6.09366C18.0652 1.39104 32.3416 -0.656794 33.301 2.40722C33.4936 3.02105 33.0706 6.27077 32.6631 10.0638C32.3072 13.4236 31.9599 17.2149 32.0716 19.9608C32.0716 19.9918 32.0716 20.0227 32.0716 20.0502C32.1404 21.6149 32.3622 22.8271 32.8161 23.4151C32.8922 23.5135 32.9761 23.6055 33.0672 23.6903C35.397 25.8825 41.0384 21.7215 44.2297 22.1428C46.6489 22.4695 47.7373 24.8251 48.2342 26.7852C48.4508 27.6762 48.5969 28.5828 48.6709 29.4967Z" fill="url(#paint1_linear_717_106024)"/>
<path d="M48.6709 29.4967C48.7254 30.1199 48.7127 30.7471 48.6331 31.3675L45.2871 34.5759L43.9116 34.6774L28.6654 35.783L28.0516 36.3727L27.3845 36.7613L24.0522 39.2184L18.1254 38.2039C17.8509 36.4401 17.7061 34.6586 17.6921 32.8737C17.6921 32.2599 17.6921 31.6701 17.7247 31.1216C17.8554 28.6542 18.9025 27.8323 19.1983 26.8592C19.3702 26.3193 19.2911 25.7278 18.6979 24.7804C18.6819 24.7578 18.6641 24.7365 18.6446 24.7168C18.2681 24.2835 16.8169 23.9086 16.1755 23.2638C16.1755 23.2638 19.9394 24.2044 20.8455 25.071C21.7516 25.9375 21.2857 26.823 23.1547 28.5425C25.0237 30.2619 29.2071 27.1308 29.3945 24.7425C29.5819 22.3543 26.6881 20.9598 27.3982 16.4893C28.1083 12.0188 32.6683 10.0604 32.6683 10.0604L33.9595 10.0879C33.9595 10.0879 31.9805 15.829 32.0716 19.9574C32.0716 19.9883 32.0716 20.0193 32.0716 20.0468C32.1026 21.2091 32.2315 22.2477 32.5152 23.0094C32.6047 23.298 32.8025 23.5408 33.0672 23.6868C35.397 25.8791 41.0384 21.7181 44.2297 22.1393C46.6489 22.466 47.7373 24.8216 48.2342 26.7818C48.451 27.6739 48.597 28.5817 48.6709 29.4967Z" fill="url(#paint2_linear_717_106024)"/>
<g style="mix-blend-mode:multiply" opacity="0.5">
<path d="M48.4319 27.9922L43.9116 34.6774L28.6654 35.783L27.3019 37.0914L25.1028 38.9656L23.0188 34.7737C23.4831 34.4917 22.319 29.5552 21.3854 27.6088C20.5257 25.8275 19.8826 26.7113 19.2051 26.8557C19.3771 26.3158 19.298 25.7243 18.7048 24.7769C18.6888 24.7543 18.6709 24.733 18.6515 24.7133C19.3977 24.8612 20.2402 25.1002 20.7801 25.4544C21.9287 26.2126 21.8462 29.158 23.5862 29.7203C25.3263 30.2825 28.4728 27.9252 28.4728 27.9252C28.4728 27.9252 27.4274 32.2719 31.6813 33.4445C37.7732 35.1227 44.0285 29.3368 46.0041 28.233C47.9797 27.1291 48.4319 27.9922 48.4319 27.9922Z" fill="#C46F81"/>
</g>
<path d="M9.49907 6.3447C9.7673 10.5607 33.7962 8.30656 33.1841 2.11836C32.6993 -2.63757 9.18613 1.42371 9.49907 6.3447Z" fill="url(#paint3_linear_717_106024)"/>
<path d="M12.9757 5.80309C13.0686 8.26187 29.998 6.39973 29.7057 2.7941C29.4788 0.0223861 12.8674 2.92305 12.9757 5.80309Z" fill="url(#paint4_linear_717_106024)"/>
<path d="M48.7346 29.8303C48.7887 30.5783 48.7419 31.3301 48.5953 32.0656C48.3529 33.3689 47.7597 34.9198 46.3962 35.7744C45.0327 36.6289 41.7813 37.5918 38.7654 38.2245C36.1209 38.7885 33.6828 39.0843 32.9348 38.8281C31.9186 38.467 30.5465 37.6417 29.4427 37.2015C28.8065 36.9573 28.2614 36.8352 27.9158 37.0038C26.9667 37.468 27.9158 39.6396 27.9158 39.6396C27.9158 39.6396 27.866 39.6568 27.7662 39.6843C24.7572 40.6592 21.6485 40.7968 19.96 40.6111C19.2516 40.5337 18.7943 40.4013 18.698 40.2466C18.447 39.8477 18.2286 38.9433 18.0584 37.793C17.8297 36.1629 17.7079 34.5196 17.6938 32.8737C17.6938 32.8737 17.8194 32.9442 18.0549 33.0594C18.3988 33.2313 18.9576 33.491 19.6935 33.7816C21.2916 34.4207 22.9534 34.887 24.6506 35.1726C26.0018 35.3968 27.3734 35.4734 28.7411 35.4012C35.3833 35.0092 41.8088 32.0587 48.4337 27.9957C48.4819 28.1831 48.518 28.3396 48.5506 28.496C48.6627 28.9323 48.7244 29.38 48.7346 29.8303Z" fill="url(#paint5_linear_717_106024)"/>
<path d="M33.9544 10.0896L32.6682 10.0604C32.6682 10.0604 29.2982 11.8933 27.6527 15.4233C26.0072 18.9532 28.9319 22.1754 29.3343 24.4571C29.7366 26.7388 27.044 28.9276 24.6316 29.0273C22.2193 29.1271 21.6725 25.3426 20.701 24.2886C19.7296 23.2346 16.6982 22.5829 16.5658 22.4523L15.8574 21.7542C15.8574 21.7542 15.8007 22.9578 16.1772 23.2621C16.5538 23.5665 20.3038 24.3677 21.3355 25.7639C22.3672 27.1601 21.8187 29.2457 24.1433 29.7014C26.468 30.157 29.6197 26.9039 29.8501 25.3684C30.0805 23.833 27.4945 20.726 27.6303 17.6035C27.7661 14.481 32.4825 13.1227 33.9544 10.0896Z" fill="url(#paint6_linear_717_106024)"/>
<path style="mix-blend-mode:multiply" opacity="0.86" d="M34.5167 24.3041C32.6253 24.194 31.451 25.7742 30.8371 25.4802C30.2233 25.1861 27.5891 20.2892 27.8814 17.6981C28.1737 15.1069 31.7192 13.3565 32.4345 12.3249C33.1498 11.2932 33.1927 12.2956 32.6339 16.1712C32.0751 20.0468 30.1562 22.7119 34.5167 24.3041Z" fill="url(#paint7_linear_717_106024)"/>
<g style="mix-blend-mode:multiply" opacity="0.5">
<path d="M12.563 8.32376C9.14996 8.95307 14.04 20.8756 17.5493 22.4918C21.0587 24.1081 20.1887 23.4083 20.842 24.1476C21.4954 24.887 22.3465 27.9132 23.5003 28.8743C24.654 29.8355 31.1741 28.7024 25.3332 17.2837C25.3332 17.2837 21.0346 24.7477 16.8771 20.1139C10.9468 13.5095 12.563 8.32376 12.563 8.32376Z" fill="#C46F81"/>
</g>
<g style="mix-blend-mode:multiply" opacity="0.8">
<path d="M23.4092 1.86044C19.4064 3.34603 18.3988 6.43583 18.3197 6.6628C18.2406 6.88976 23.5004 6.69718 26.585 5.37839C29.6696 4.05959 30.1184 3.00902 29.8106 2.09944C29.5029 1.18987 23.4092 1.86044 23.4092 1.86044Z" fill="#C46F81"/>
</g>
<g style="mix-blend-mode:multiply">
<path d="M48.5627 28.496C48.5582 28.4946 48.5534 28.4946 48.5489 28.496C47.8904 28.3241 42.3968 31.7406 39.0921 33.5374C35.7873 35.3342 36.5439 37.4147 36.8173 37.9855C36.9892 38.3294 38.0088 38.3088 38.7619 38.228C36.1175 38.792 33.6793 39.0877 32.9314 38.8315C31.3306 38.2658 28.8598 36.5429 27.9141 37.0089C26.9684 37.4749 27.9141 39.6431 27.9141 39.6431C24.8604 40.6558 21.6743 40.8037 19.9583 40.6145C18.6 39.6861 18.1426 34.2957 18.0532 33.0628C18.0412 32.9029 18.0377 32.8118 18.0377 32.8118C18.5551 33.1907 19.1093 33.5168 19.6918 33.785C21.2532 34.5269 22.9295 34.9973 24.6489 35.176C26.5243 35.3694 28.4186 35.2644 30.2611 34.8648C37.885 33.2726 44.6269 29.7375 48.432 27.9871L48.5627 28.496Z" fill="#EEC4CA"/>
</g>
<g style="mix-blend-mode:soft-light" opacity="0.3">
<path d="M33.9647 24.323C31.4802 24.2336 29.1331 26.7061 29.9585 29.9111C30.7838 33.1161 40.3627 32.1808 43.7139 27.0431C47.065 21.9055 42.7355 21.8573 39.2984 23.2415C35.8613 24.6256 33.9647 24.323 33.9647 24.323Z" fill="#FFFF8D"/>
</g>
<g style="mix-blend-mode:soft-light">
<path d="M42.015 25.4578C41.5731 26.2195 43.1911 26.2986 43.4284 25.5404C43.6657 24.7821 42.3933 24.8096 42.015 25.4578Z" fill="#FFFF8D"/>
</g>
<g style="mix-blend-mode:multiply" opacity="0.3">
<path d="M16.7189 16.5787C17.9603 16.9226 19.3393 16.393 19.3702 15.0794C19.4081 13.5078 19.7691 11.5975 18.5449 11.4806C18.33 11.4634 18.1099 11.4256 17.8812 11.4032C16.822 11.2829 15.7027 11.2829 15.3021 13.2172C15.3021 13.2172 14.7123 15.5247 16.0586 16.3036C16.2644 16.4265 16.4867 16.5192 16.7189 16.5787Z" fill="#C763A7"/>
</g>
<g style="mix-blend-mode:multiply">
<path d="M16.7189 16.5787H16.8908C16.6122 16.5233 16.3501 16.4043 16.1249 16.231C15.8998 16.0578 15.7176 15.8349 15.5927 15.5797C15.2161 14.7321 15.5084 13.5353 16.2048 12.4848C16.9011 11.4342 17.8812 11.4032 17.8812 11.4032C16.822 11.2829 15.7027 11.2829 15.3021 13.2172C15.3021 13.2172 14.7123 15.5247 16.0586 16.3036C16.2644 16.4265 16.4867 16.5192 16.7189 16.5787Z" fill="#C763A7"/>
</g>
<g style="mix-blend-mode:soft-light">
<path d="M16.4128 22.3319C16.4128 22.3319 16.5023 23.3997 17.5184 23.7556C18.1304 23.97 18.7581 24.1362 19.396 24.2525C19.396 24.2525 18.6223 22.8684 16.4128 22.3319Z" fill="#FFD48D"/>
</g>
<g style="mix-blend-mode:multiply" opacity="0.8">
<path d="M18.0428 24.0496C18.0428 24.0496 20.7939 24.6634 21.504 26.3141C22.2142 27.9647 22.0405 29.1752 24.1485 29.7014C26.2565 30.2275 28.466 27.9252 28.466 27.9252C28.466 27.9252 27.0664 31.2454 24.9756 31.9108C22.8847 32.5762 22.209 28.441 21.1928 27.2684C20.1767 26.0957 20.0116 26.3089 19.6453 26.2556C19.2791 26.2023 19.1656 24.7133 18.0428 24.0496Z" fill="#C46F81"/>
</g>
<g style="mix-blend-mode:soft-light" opacity="0.3">
<path d="M23.1805 11.742C22.197 14.665 24.3841 15.437 25.8542 15.5866C27.3243 15.7362 27.5134 14.0185 26.903 11.6715C26.2926 9.32446 23.4109 11.0559 23.1805 11.742Z" fill="#FFFF8D"/>
</g>
<g style="mix-blend-mode:soft-light">
<path d="M24.0488 7.73744C23.4522 7.62224 25.2713 6.07819 27.173 6.18996C29.0747 6.30172 27.627 7.06858 24.0488 7.73744Z" fill="#FFB034"/>
</g>
<path d="M13.5052 4.85912C13.5052 4.85912 14.193 3.67788 17.5648 2.62387C20.9366 1.56986 25.7596 1.67475 25.7596 1.67475C25.7596 1.67475 18.397 1.90171 13.5052 4.85912Z" fill="#FF9534"/>
<g style="mix-blend-mode:multiply" opacity="0.8">
<path d="M26.8927 35.4047C26.8927 35.4047 30.3315 35.2637 35.9953 33.2932C41.6591 31.3228 45.4057 29.4159 45.4057 29.4159C45.4057 29.4159 41.9824 32.167 36.2378 34.3765C30.4932 36.5859 26.8927 35.4047 26.8927 35.4047Z" fill="#C46F81"/>
</g>
<path d="M29.9379 35.8328C29.9379 35.8328 33.5968 36.0443 36.6075 34.8717C40.925 33.1918 44.9037 30.2292 44.9037 30.2292C44.9037 30.2292 38.1705 34.7651 29.9379 35.8328Z" fill="#C45B3B"/>
<path d="M17.8519 33.0835C17.8519 33.0835 17.9895 33.7712 21.1945 35.1107C24.3995 36.4501 30.0495 35.8122 30.0495 35.8122C30.0495 35.8122 24.3256 36.0099 17.8519 33.0835Z" fill="#C45B3B"/>
<g style="mix-blend-mode:multiply">
<path d="M27.7696 39.6843C24.7606 40.6592 21.6519 40.7968 19.9635 40.6111C19.255 40.5337 18.7977 40.4013 18.7014 40.2466C18.4504 39.8477 18.232 38.9433 18.0618 37.793C18.2647 38.0698 19.9669 40.2655 22.84 40.293C24.504 40.329 26.1644 40.1239 27.7696 39.6843Z" fill="#977AA6"/>
</g>
<g style="mix-blend-mode:multiply">
<path d="M48.5953 32.069C48.3529 33.3723 47.7596 34.9232 46.3961 35.7778C45.0326 36.6324 41.7812 37.5918 38.7653 38.2245C36.1209 38.7885 33.6827 39.0843 32.9348 38.8281C31.9186 38.467 30.5465 37.6417 29.4426 37.2015L29.5131 37.0897C29.5131 37.0897 32.5943 38.6372 36.2739 38.2658C39.9535 37.8944 46.0609 36.4449 48.5918 32.0759L48.5953 32.069Z" fill="#977AA6"/>
</g>
<path d="M20.3228 48.9194C21.6983 48.67 27.1352 44.693 27.2418 44.0929C27.3484 43.4929 22.2176 43.7491 20.9091 44.1978C17.9156 45.2209 20.3228 48.9194 20.3228 48.9194Z" fill="url(#paint8_linear_717_106024)"/>
<path d="M41.7365 38.4549C41.7919 39.0976 41.7786 39.7443 41.6969 40.3841C41.525 41.911 40.9765 43.9399 39.3895 44.9337C36.7639 46.5758 27.1437 48.6632 25.4982 48.0837C24.7554 47.8224 24.1639 47.3186 23.6481 46.8801C23.0102 46.3505 20.7543 45.539 20.2179 45.802C19.7915 46.0118 19.8585 46.9455 19.5834 47.4888C19.2292 48.2024 20.3228 48.9142 20.3228 48.9142C15.8626 50.3963 11.1445 50.0783 10.804 49.5383C10.5771 49.1773 10.3742 48.4121 10.216 47.4338C9.93243 45.6131 9.78244 43.7742 9.76721 41.9316C9.76721 41.2989 9.76721 40.6833 9.8016 40.1245C10.0097 36.1561 12.52 36.3177 10.8057 33.5804C10.5066 33.1007 9.94603 32.5161 9.25826 31.8197C5.9329 28.515 -0.669693 22.7067 1.32312 14.3005C10.1541 9.45686 24.8844 7.33853 25.8765 10.4971C26.0725 11.1299 25.6375 14.4845 25.218 18.4065C24.85 21.8728 24.4906 25.7845 24.6058 28.6181C24.6058 28.6508 24.6058 28.6835 24.6058 28.711C24.6763 30.3255 24.905 31.5772 25.3744 32.1825C25.4518 32.285 25.5381 32.3805 25.6323 32.4679C28.0395 34.7307 33.8581 30.4356 37.1525 30.8774C39.6491 31.2213 40.7633 33.644 41.2791 35.6678C41.5038 36.5835 41.6567 37.5154 41.7365 38.4549Z" fill="url(#paint9_linear_717_106024)"/>
<path d="M41.7366 38.4549C41.792 39.0976 41.7787 39.7443 41.697 40.3841L38.2444 43.694L36.8242 43.7989L21.0914 44.9406L20.4604 45.5493L19.7726 45.9499L16.3338 48.4878L10.2161 47.4389C9.93253 45.6183 9.78254 43.7793 9.76731 41.9368C9.76731 41.304 9.76731 40.6885 9.8017 40.1297C9.93754 37.5815 11.0173 36.7338 11.3217 35.7297C11.4936 35.1743 11.4197 34.5639 10.8058 33.5855C10.7899 33.5624 10.772 33.5405 10.7525 33.5202C10.364 33.0714 8.86118 32.6846 8.20264 32.0209C8.20264 32.0209 12.0885 32.9906 13.017 33.8847C13.9455 34.7788 13.471 35.6953 15.3984 37.4646C17.3259 39.2338 21.6434 36.0065 21.836 33.5426C22.0285 31.0786 19.0436 29.6463 19.7726 25.0262C20.5017 20.4062 25.2181 18.3979 25.2181 18.3979L26.5506 18.4254C26.5506 18.4254 24.5165 24.3505 24.6059 28.6095C24.6059 28.6422 24.6059 28.6749 24.6059 28.7024C24.6369 29.906 24.7779 30.9737 25.0616 31.7595C25.1549 32.0574 25.3594 32.308 25.6324 32.4593C28.0396 34.7221 33.8582 30.427 37.1526 30.8688C39.6492 31.2127 40.7634 33.6354 41.2792 35.6592C41.5044 36.5777 41.6573 37.5125 41.7366 38.4549Z" fill="url(#paint10_linear_717_106024)"/>
<g style="mix-blend-mode:multiply" opacity="0.5">
<path d="M41.4889 36.9023L36.8241 43.7989L21.0913 44.9406L19.6848 46.2921L17.4083 48.2247L15.2573 43.8986C15.7388 43.6081 14.5369 38.5151 13.5723 36.5051C12.6868 34.6688 12.0248 35.5801 11.3216 35.7279C11.4935 35.1726 11.4196 34.5622 10.8057 33.5838C10.7898 33.5606 10.7719 33.5388 10.7524 33.5185C11.521 33.6715 12.3911 33.9174 12.9464 34.2819C14.1328 35.0642 14.0486 38.1042 15.8437 38.6836C17.6387 39.2631 20.885 36.8318 20.885 36.8318C20.885 36.8318 19.8069 41.3178 24.1966 42.5265C30.4828 44.2597 36.9376 38.2882 38.9837 37.1499C41.0298 36.0116 41.4889 36.9023 41.4889 36.9023Z" fill="#C46F81"/>
</g>
<path d="M1.3146 14.5636C1.58971 18.9137 26.3855 16.589 25.7459 10.2014C25.2541 5.29586 0.991351 9.48437 1.3146 14.5636Z" fill="url(#paint11_linear_717_106024)"/>
<path d="M4.90301 14.0047C4.99758 16.5426 22.4704 14.6203 22.166 10.8995C21.9322 8.04005 4.79125 11.0404 4.90301 14.0047Z" fill="url(#paint12_linear_717_106024)"/>
<path d="M41.8001 38.7988C41.8574 39.5715 41.8093 40.3483 41.6574 41.108C41.4064 42.4543 40.7977 44.0534 39.3895 44.9337C37.9813 45.8141 34.6181 46.8079 31.5145 47.4596C28.7858 48.0425 26.2686 48.352 25.4966 48.0837C24.446 47.7106 23.0309 46.8578 21.8858 46.4056C21.2289 46.1528 20.6667 46.0273 20.3091 46.201C19.329 46.679 20.3091 48.9194 20.3091 48.9194C20.3091 48.9194 20.2558 48.9383 20.1543 48.9675C17.049 49.9717 13.8406 50.1144 12.0988 49.9235C11.3663 49.8444 10.8952 49.7069 10.7955 49.5487C10.5358 49.136 10.3106 48.2041 10.1369 47.0177C9.9008 45.3352 9.77444 43.6391 9.75867 41.9402C9.75867 41.9402 9.88934 42.0142 10.1318 42.1328C10.4843 42.3047 11.0637 42.5781 11.8237 42.8773C13.4723 43.536 15.1865 44.0167 16.9373 44.3113C18.3314 44.5444 19.7469 44.624 21.1584 44.5486C28.0258 44.1394 34.6559 41.0943 41.4889 36.9023C41.5388 37.0932 41.5766 37.2651 41.6093 37.4181C41.7262 37.8694 41.7902 38.3328 41.8001 38.7988Z" fill="url(#paint13_linear_717_106024)"/>
<path d="M26.5506 18.4271L25.218 18.3979C25.218 18.3979 21.7448 20.2892 20.046 23.9327C18.3472 27.5762 21.3665 30.8998 21.7826 33.2537C22.1987 35.6076 19.4287 37.8635 16.9304 37.9684C14.4321 38.0732 13.875 34.1667 12.8743 33.08C11.8736 31.9934 8.74765 31.3193 8.60666 31.1887L7.8759 30.4682C7.8759 30.4682 7.81572 31.7165 8.20603 32.0157C8.59634 32.3149 12.4582 33.1557 13.5362 34.5948C14.6143 36.034 14.0366 38.1867 16.4335 38.6596C18.8304 39.1324 22.0852 35.7709 22.3225 34.1891C22.5598 32.6072 19.8912 29.4005 20.0322 26.1765C20.1732 22.9526 25.0306 21.5582 26.5506 18.4271Z" fill="url(#paint14_linear_717_106024)"/>
<path style="mix-blend-mode:multiply" opacity="0.86" d="M27.1299 33.0972C25.1732 32.982 23.9662 34.612 23.3317 34.3008C22.6973 33.9896 19.9823 28.9448 20.2832 26.2711C20.5841 23.5974 24.2379 21.792 24.9824 20.7277C25.7269 19.6634 25.5756 21.0062 24.5474 24.9145C23.5054 28.8743 22.4514 33.1299 27.1299 33.0972Z" fill="url(#paint15_linear_717_106024)"/>
<g style="mix-blend-mode:multiply" opacity="0.5">
<path d="M4.46969 16.6062C0.946592 17.2544 5.9931 29.5621 9.62796 31.2213C13.2628 32.8806 12.3515 32.1653 13.0255 32.9287C13.6996 33.6921 14.573 36.8146 15.7766 37.8067C16.9802 38.7988 20.9091 37.3837 21.0106 34.1082C21.0106 34.1082 13.2388 33.5477 8.94191 28.7677C2.80873 21.9571 4.46969 16.6062 4.46969 16.6062Z" fill="#C46F81"/>
</g>
<g style="mix-blend-mode:multiply" opacity="0.8">
<path d="M15.6683 9.93486C11.5417 11.4686 10.498 14.6581 10.4172 14.892C10.3363 15.1258 15.7628 14.9281 18.9455 13.5663C22.1282 12.2045 22.5907 11.123 22.2743 10.1842C21.9579 9.24537 15.6683 9.93486 15.6683 9.93486Z" fill="#C46F81"/>
</g>
<g style="mix-blend-mode:multiply">
<path d="M41.623 37.4199C41.6185 37.4183 41.6137 37.4183 41.6092 37.4199C40.9301 37.2479 35.2611 40.7676 31.8549 42.6211C28.4161 44.4884 29.2242 46.6222 29.5079 47.212C29.6799 47.5731 30.7373 47.5455 31.5145 47.4613C28.7858 48.0442 26.2685 48.3537 25.4965 48.0854C23.8441 47.5008 21.2942 45.723 20.3193 46.2044C19.3444 46.6858 20.3193 48.9211 20.3193 48.9211C17.1659 49.9682 13.8801 50.1247 12.1091 49.9252C10.706 48.9606 10.2332 43.4 10.1438 42.1259C10.1317 41.954 10.1283 41.8663 10.1283 41.8663C10.6622 42.2576 11.2342 42.594 11.8357 42.8704C13.4464 43.6354 15.1757 44.1203 16.9493 44.3044C18.8846 44.5071 20.8398 44.4015 22.742 43.9915C30.6084 42.3477 37.5669 38.6991 41.4923 36.9006L41.623 37.4199Z" fill="#EEC4CA"/>
</g>
<g style="mix-blend-mode:soft-light" opacity="0.3">
<path d="M26.5609 33.1144C23.9972 33.0233 21.5746 35.5732 22.4343 38.8814C23.294 42.1895 33.1704 41.2232 36.6264 35.9222C40.0824 30.6213 35.6154 30.5714 32.0682 31.9985C28.521 33.4256 26.5609 33.1144 26.5609 33.1144Z" fill="#FFFF8D"/>
</g>
<path d="M31.2343 36.9264C30.7769 37.7122 32.4465 37.7861 32.6924 37.0106C32.9382 36.2352 31.6229 36.2575 31.2343 36.9264Z" fill="#FFFF8D"/>
<g style="mix-blend-mode:multiply" opacity="0.3">
<path d="M8.76822 25.1243C10.0509 25.4681 11.4729 24.9317 11.5055 23.5768C11.5434 21.9554 11.9165 19.9832 10.6458 19.8645C10.424 19.8456 10.1953 19.8061 9.95806 19.782C8.86279 19.6599 7.70906 19.6582 7.2878 21.6545C7.2878 21.6545 6.68084 24.0359 8.06841 24.8406C8.28697 24.968 8.52263 25.0635 8.76822 25.1243Z" fill="#C763A7"/>
</g>
<g style="mix-blend-mode:multiply">
<path d="M8.76826 25.1243L8.9402 25.1157C8.9402 25.1157 7.99452 24.9626 7.60077 24.084C7.20702 23.2054 7.51308 21.9726 8.2318 20.8928C8.95052 19.813 9.97186 19.782 9.97186 19.782C8.87658 19.6599 7.72285 19.6582 7.30159 21.6545C7.30159 21.6545 6.69463 24.0359 8.08221 24.8406C8.29648 24.9668 8.52742 25.0623 8.76826 25.1243Z" fill="#C763A7"/>
</g>
<path d="M14.0984 15.6795C13.8371 15.7517 13.8096 16.9467 14.5111 17.6568C15.2126 18.3669 16.0586 18.501 16.1669 18.403C16.2752 18.305 16.0259 15.1516 14.0984 15.6795Z" fill="#86002B"/>
<g style="mix-blend-mode:multiply">
<path d="M14.0984 15.6795C13.8319 15.9511 13.8491 16.8246 14.573 17.3267C15.2969 17.8287 15.6253 16.9983 15.4912 16.3122C15.3571 15.6262 14.2945 15.4834 14.0984 15.6795Z" fill="#C76393"/>
</g>
<path d="M14.5146 17.6568C14.3787 17.4144 15.8506 17.6396 16.0105 17.7686C16.1704 17.8975 16.1532 18.3652 16.093 18.4271C16.0328 18.489 14.8516 18.2552 14.5146 17.6568Z" fill="#FF7847"/>
<path d="M15.4878 18.3188C15.4878 18.2809 16.0328 18.3016 16.0913 18.3188C16.1092 18.3259 16.1254 18.3365 16.139 18.3501C16.1526 18.3637 16.1633 18.38 16.1704 18.3979C16.1704 18.3979 16.1824 18.4305 15.9692 18.4271C15.8042 18.4155 15.6419 18.379 15.4878 18.3188Z" fill="#FF635C"/>
<g style="mix-blend-mode:soft-light">
<path d="M20.4122 23.2243C20.2815 23.4616 21.6932 22.8374 23.5914 21.6184C24.7124 20.9111 25.654 19.9535 26.3425 18.8208C25.3067 18.7824 24.286 19.0784 23.4315 19.6651C22.0749 20.6331 20.4122 23.2243 20.4122 23.2243Z" fill="#FFD48D"/>
</g>
<g style="mix-blend-mode:soft-light">
<path d="M8.44849 31.0614C8.44849 31.0614 8.54134 32.1618 9.59018 32.5298C10.2212 32.7515 10.8685 32.924 11.5263 33.0456C11.5263 33.0456 10.7284 31.6134 8.44849 31.0614Z" fill="#FFD48D"/>
</g>
<g style="mix-blend-mode:multiply" opacity="0.8">
<path d="M10.1317 32.841C10.1317 32.841 12.9602 33.4738 13.7012 35.1777C14.4423 36.8817 14.2566 38.13 16.43 38.6733C18.6033 39.2167 20.885 36.8387 20.885 36.8387C20.885 36.8387 19.4424 40.2655 17.2845 40.9515C15.1266 41.6376 14.4286 37.3648 13.3883 36.1595C12.3481 34.9542 12.1692 35.1708 11.7824 35.1158C11.3955 35.0608 11.2889 33.5185 10.1317 32.841Z" fill="#C46F81"/>
</g>
<g style="mix-blend-mode:soft-light" opacity="0.3">
<path d="M15.4327 20.1328C14.4165 23.1555 16.681 23.9465 18.1838 24.0995C19.6866 24.2525 19.9032 22.4815 19.267 20.0606C18.6309 17.6396 15.67 19.4295 15.4327 20.1328Z" fill="#FFFF8D"/>
</g>
<path d="M16.3338 16.001C15.7182 15.8806 17.5941 14.2816 19.5577 14.3968C21.5213 14.512 20.0202 15.3029 16.3338 16.001Z" fill="#FFB034"/>
<path d="M5.44812 13.0298C5.44812 13.0298 6.15652 11.8125 9.63836 10.7189C13.1202 9.62536 18.0945 9.74228 18.0945 9.74228C18.0945 9.74228 10.4998 9.97269 5.44812 13.0298Z" fill="#FF9534"/>
<g style="mix-blend-mode:multiply" opacity="0.8">
<path d="M19.2567 44.5503C19.2567 44.5503 22.8108 44.4059 28.6482 42.3718C34.4857 40.3377 38.3595 38.3707 38.3595 38.3707C38.3595 38.3707 34.8261 41.2095 28.9027 43.4894C22.9793 45.7694 19.2567 44.5503 19.2567 44.5503Z" fill="#C46F81"/>
</g>
<path d="M22.405 44.9922C22.405 44.9922 26.1878 45.2088 29.2827 44.0001C33.7429 42.2669 37.8489 39.2029 37.8489 39.2029C37.8489 39.2029 30.9041 43.89 22.405 44.9922Z" fill="#C45B3B"/>
<path d="M9.93237 42.1551C9.93237 42.1551 10.0751 42.8601 13.3833 44.2477C16.6914 45.6353 22.5237 44.9716 22.5237 44.9716C22.5237 44.9716 16.6141 45.1762 9.93237 42.1551Z" fill="#C45B3B"/>
<g style="mix-blend-mode:multiply">
<path d="M20.168 48.9675C17.0627 49.9717 13.8543 50.1144 12.1125 49.9235C11.38 49.8444 10.9089 49.7069 10.8092 49.5487C10.5495 49.136 10.3243 48.2041 10.1506 47.0177C10.3587 47.3014 12.1159 49.5676 15.0802 49.5968C16.7975 49.6319 18.511 49.4199 20.168 48.9675Z" fill="#977AA6"/>
</g>
<g style="mix-blend-mode:multiply">
<path d="M41.6574 41.108C41.4064 42.4543 40.7977 44.0534 39.3895 44.9337C37.9813 45.8141 34.6181 46.8079 31.5145 47.4596C28.7858 48.0425 26.2686 48.3519 25.4965 48.0837C24.446 47.7106 23.0309 46.8578 21.8857 46.4056L21.958 46.2886C21.958 46.2886 25.1372 47.8911 28.9337 47.5026C32.7302 47.114 39.0336 45.6232 41.6454 41.1132L41.6574 41.108Z" fill="#977AA6"/>
</g>
<path d="M29.3222 37.7758C29.2036 37.5368 28.6087 37.9202 26.6365 37.9855C24.6643 38.0509 24.243 38.0113 24.1106 38.0939C23.9782 38.1764 24.5629 39.0172 26.3201 39.1049C28.0774 39.1926 29.5096 38.1558 29.3222 37.7758Z" fill="#FFFF8D"/>
<path d="M7.13831 10.1721C7.13831 10.1721 11.5951 8.78456 15.0201 8.34095C15.0201 8.34095 10.4276 8.72266 9.20849 8.94791C7.98942 9.17315 7.13831 10.1721 7.13831 10.1721Z" fill="#FF9FDB"/>
<defs>
<linearGradient id="paint0_linear_717_106024" x1="27.0068" y1="37.6702" x2="34.7445" y2="36.249" gradientUnits="userSpaceOnUse">
<stop offset="0.15" stop-color="#0E0028"/>
<stop offset="1" stop-color="#2A1036"/>
</linearGradient>
<linearGradient id="paint1_linear_717_106024" x1="11.6321" y1="23.6205" x2="46.3472" y2="17.2443" gradientUnits="userSpaceOnUse">
<stop offset="0.01" stop-color="#F63483"/>
<stop offset="0.1" stop-color="#B1201D"/>
<stop offset="0.28" stop-color="#BE2B16"/>
<stop offset="0.73" stop-color="#D94306"/>
<stop offset="1" stop-color="#E34C00"/>
</linearGradient>
<linearGradient id="paint2_linear_717_106024" x1="16.0184" y1="27.0738" x2="47.104" y2="21.3642" gradientUnits="userSpaceOnUse">
<stop offset="0.01" stop-color="#F63483"/>
<stop offset="0.14" stop-color="#B1201D"/>
<stop offset="0.51" stop-color="#DA3A0E"/>
<stop offset="0.82" stop-color="#F54B04"/>
<stop offset="1" stop-color="#FF5200"/>
</linearGradient>
<linearGradient id="paint3_linear_717_106024" x1="9.59948" y1="6.78756" x2="33.1816" y2="2.45615" gradientUnits="userSpaceOnUse">
<stop offset="0.01" stop-color="#F6550E"/>
<stop offset="1" stop-color="#FF721D"/>
</linearGradient>
<linearGradient id="paint4_linear_717_106024" x1="13.0488" y1="6.15402" x2="29.7154" y2="3.0928" gradientUnits="userSpaceOnUse">
<stop stop-color="#9D0034"/>
<stop offset="0.26" stop-color="#AB0B28"/>
<stop offset="0.66" stop-color="#BB181B"/>
<stop offset="0.98" stop-color="#C01C16"/>
</linearGradient>
<linearGradient id="paint5_linear_717_106024" x1="17.9393" y1="37.5694" x2="49.008" y2="31.8629" gradientUnits="userSpaceOnUse">
<stop offset="0.02" stop-color="#9D1090"/>
<stop offset="0.07" stop-color="#531047"/>
<stop offset="0.23" stop-color="#651C3E"/>
<stop offset="0.52" stop-color="#7E2D31"/>
<stop offset="0.79" stop-color="#8E372A"/>
<stop offset="1" stop-color="#933B27"/>
</linearGradient>
<linearGradient id="paint6_linear_717_106024" x1="15.8474" y1="22.4631" x2="35.4865" y2="18.8559" gradientUnits="userSpaceOnUse">
<stop offset="0.01" stop-color="#F6550E"/>
<stop offset="0.14" stop-color="#F3510F"/>
<stop offset="0.27" stop-color="#EA4411"/>
<stop offset="0.41" stop-color="#DB2F14"/>
<stop offset="0.53" stop-color="#C91518"/>
<stop offset="0.54" stop-color="#CE1E18"/>
<stop offset="0.57" stop-color="#DD391A"/>
<stop offset="0.61" stop-color="#EA4F1B"/>
<stop offset="0.66" stop-color="#F3601C"/>
<stop offset="0.71" stop-color="#FA6C1D"/>
<stop offset="0.79" stop-color="#FE731D"/>
<stop offset="1" stop-color="#FF751D"/>
</linearGradient>
<linearGradient id="paint7_linear_717_106024" x1="32.1994" y1="25.4744" x2="29.8562" y2="12.717" gradientUnits="userSpaceOnUse">
<stop stop-color="white"/>
<stop offset="0.07" stop-color="#FBEDE1"/>
<stop offset="0.21" stop-color="#F4CBA6"/>
<stop offset="0.35" stop-color="#EDAD73"/>
<stop offset="0.49" stop-color="#E8944A"/>
<stop offset="0.63" stop-color="#E3822A"/>
<stop offset="0.76" stop-color="#E07413"/>
<stop offset="0.88" stop-color="#DF6C05"/>
<stop offset="0.99" stop-color="#DE6900"/>
</linearGradient>
<linearGradient id="paint8_linear_717_106024" x1="19.3882" y1="46.8331" x2="27.3719" y2="45.3667" gradientUnits="userSpaceOnUse">
<stop offset="0.15" stop-color="#0E0028"/>
<stop offset="1" stop-color="#2A1036"/>
</linearGradient>
<linearGradient id="paint9_linear_717_106024" x1="3.5235" y1="32.3352" x2="39.3457" y2="25.7556" gradientUnits="userSpaceOnUse">
<stop offset="0.01" stop-color="#F63483"/>
<stop offset="0.1" stop-color="#B1201D"/>
<stop offset="0.14" stop-color="#B6261D"/>
<stop offset="0.53" stop-color="#DD521D"/>
<stop offset="0.83" stop-color="#F66D1D"/>
<stop offset="1" stop-color="#FF771D"/>
</linearGradient>
<linearGradient id="paint10_linear_717_106024" x1="8.0483" y1="35.8971" x2="40.1263" y2="30.0052" gradientUnits="userSpaceOnUse">
<stop offset="0.01" stop-color="#F63483"/>
<stop offset="0.14" stop-color="#B1201D"/>
<stop offset="0.18" stop-color="#B6261D"/>
<stop offset="0.55" stop-color="#DD521D"/>
<stop offset="0.83" stop-color="#F66D1D"/>
<stop offset="1" stop-color="#FF771D"/>
</linearGradient>
<linearGradient id="paint11_linear_717_106024" x1="1.4254" y1="14.9656" x2="25.7607" y2="10.4958" gradientUnits="userSpaceOnUse">
<stop offset="0.01" stop-color="#F6550E"/>
<stop offset="1" stop-color="#FF951D"/>
</linearGradient>
<linearGradient id="paint12_linear_717_106024" x1="4.98386" y1="14.3102" x2="22.183" y2="11.1512" gradientUnits="userSpaceOnUse">
<stop stop-color="#9D0034"/>
<stop offset="0.26" stop-color="#AB0B28"/>
<stop offset="0.66" stop-color="#BB181B"/>
<stop offset="0.98" stop-color="#C01C16"/>
</linearGradient>
<linearGradient id="paint13_linear_717_106024" x1="10.0306" y1="46.7281" x2="42.0901" y2="40.8396" gradientUnits="userSpaceOnUse">
<stop offset="0.02" stop-color="#9D1090"/>
<stop offset="0.07" stop-color="#531047"/>
<stop offset="0.23" stop-color="#651C3E"/>
<stop offset="0.52" stop-color="#7E2D31"/>
<stop offset="0.79" stop-color="#8E372A"/>
<stop offset="1" stop-color="#933B27"/>
</linearGradient>
<linearGradient id="paint14_linear_717_106024" x1="7.87315" y1="31.1409" x2="28.1391" y2="27.4185" gradientUnits="userSpaceOnUse">
<stop offset="0.01" stop-color="#F6550E"/>
<stop offset="0.14" stop-color="#F3510F"/>
<stop offset="0.27" stop-color="#EA4411"/>
<stop offset="0.41" stop-color="#DB2F14"/>
<stop offset="0.53" stop-color="#CD1D18"/>
<stop offset="0.56" stop-color="#DA3D1A"/>
<stop offset="0.6" stop-color="#E6591B"/>
<stop offset="0.63" stop-color="#EF6F1C"/>
<stop offset="0.68" stop-color="#F6801C"/>
<stop offset="0.73" stop-color="#FB8C1D"/>
<stop offset="0.81" stop-color="#FE931D"/>
<stop offset="1" stop-color="#FF951D"/>
</linearGradient>
<linearGradient id="paint15_linear_717_106024" x1="24.6955" y1="34.2573" x2="22.283" y2="21.1225" gradientUnits="userSpaceOnUse">
<stop stop-color="white"/>
<stop offset="0.07" stop-color="#FBEDE1"/>
<stop offset="0.21" stop-color="#F4CBA6"/>
<stop offset="0.35" stop-color="#EDAD73"/>
<stop offset="0.49" stop-color="#E8944A"/>
<stop offset="0.63" stop-color="#E3822A"/>
<stop offset="0.76" stop-color="#E07413"/>
<stop offset="0.88" stop-color="#DF6C05"/>
<stop offset="0.99" stop-color="#DE6900"/>
</linearGradient>
</defs>
</svg>
