<svg width="56" height="56" viewBox="0 0 56 56" fill="none" xmlns="http://www.w3.org/2000/svg">
<path style="mix-blend-mode:screen" opacity="0.2" d="M28.6274 33.428C24.7942 29.8076 27.3491 21.0774 36.9303 21.2901C46.5116 21.5029 56.5219 20.4373 55.2453 12.7709C54.8595 10.4513 32.0126 12.6274 35.6537 6.38286C37.1448 3.82797 48.0061 9.15051 48.0061 9.15051C48.0061 9.15051 53.3304 -0.645249 40.7635 3.40071C28.1966 7.44668 32.8844 14.6875 34.1627 14.6875C35.441 14.6875 27.1346 21.2901 24.3652 20.6501C21.5958 20.0101 13.087 14.4748 16.7005 13.6237C20.314 12.7727 26.1866 13.8434 26.2835 11.4944C27.1363 -9.16789 8.22457 3.28655 10.3193 8.51222C11.1099 10.4859 20.9679 10.2161 18.1985 11.7071C15.4291 13.1982 2.65294 18.0952 4.99507 21.9284C7.33719 25.7616 13.298 26.8272 20.6479 22.8331C22.9917 21.56 24.1541 40.9716 24.1541 40.9716L28.6274 33.428Z" fill="url(#paint0_radial_245_57872)"/>
<path d="M18.7954 11.5427C18.7954 11.5427 14.7633 15.9139 12.634 22.532C10.5046 29.1502 12.1358 28.7921 15.3359 28.7956C18.536 28.799 23.3984 28.5534 23.3776 28.9945C23.3569 29.4356 22.8207 31.8435 22.3796 31.7051C21.9385 31.5667 17.1694 31.1446 16.9255 31.7051C16.6816 32.2655 16.7526 35.9448 15.3359 37.1954C13.9192 38.446 9.0879 39.0445 8.87514 41.2656C8.66237 43.4866 10.086 48.6241 12.6391 51.3796C15.1923 54.1352 21.2587 54.2822 23.7495 53.4554L26.5172 26.7233L28.6552 11.8991L18.7954 11.5427Z" fill="#FFE09E"/>
<path d="M40.5785 39.9164L40.447 40.0651C40.4477 40.0685 40.4477 40.0721 40.447 40.0755C39.679 40.9542 39.0632 41.4974 38.7172 41.513C37.3334 41.577 31.0733 31.6359 29.0408 28.3182C28.8575 28.3251 28.6568 28.3303 28.4389 28.3337C24.04 28.4375 13.0161 28.3476 12.3519 27.2094C11.9229 26.4881 13.2479 22.6012 14.9639 18.7179L14.9794 18.685C16.0502 16.2633 17.2748 13.8416 18.3179 12.1931L18.4407 12.0011C18.5459 11.8426 18.6658 11.6943 18.7988 11.5583C18.8036 11.5501 18.8101 11.5431 18.8178 11.5375C19.7277 10.5983 21.4938 9.69359 23.6612 8.85464C23.6854 9.02762 23.7252 9.25422 23.7823 9.51023C23.9899 10.4409 24.4344 11.733 25.3218 11.8835C26.3337 12.0565 26.9513 9.44796 27.2246 7.97418C27.247 7.84618 27.2661 7.72682 27.2851 7.61785C29.3816 6.97264 31.6096 6.39316 33.6611 5.89844L33.7199 5.8846H33.7424H33.7597C33.7683 5.8846 33.7753 5.8846 33.7804 5.8846L33.8168 5.87596C37.7866 4.9263 41.1389 4.30704 41.8481 4.17212L41.8689 4.20844C42.1647 4.91074 43.5987 8.34782 45.0396 12.4526C45.0438 12.4721 45.0496 12.4911 45.0569 12.5097C47.1742 18.1868 48.6289 26.8288 48.0788 28.0777C46.5947 31.4577 42.9396 37.1504 40.5785 39.9164Z" fill="url(#paint1_linear_245_57872)"/>
<path d="M28.5082 28.3147L28.4286 28.3389C24.0298 28.4427 13.0059 28.3528 12.3416 27.2146C11.9126 26.4933 13.2377 22.6064 14.9536 18.7231L14.9692 18.6902C16.0399 16.2685 17.2646 13.8468 18.3077 12.1983L18.4305 12.0063C18.5356 11.8478 18.6555 11.6995 18.7885 11.5635C18.7934 11.5553 18.7999 11.5483 18.8076 11.5427C19.7174 10.6035 21.4835 9.69879 23.651 8.85985C23.6734 9.01034 23.7063 9.2058 23.753 9.42549C23.753 9.45316 23.7669 9.4843 23.772 9.51543C23.9796 10.4461 24.4242 11.7382 25.3115 11.8887C26.3235 12.0617 26.941 9.45316 27.2143 7.97939C27.2368 7.85484 27.2576 7.73549 27.2749 7.63343C29.3921 6.98303 31.6322 6.39664 33.7096 5.90365H33.7321H33.7494C33.7581 5.90365 33.765 5.90365 33.7702 5.90365L33.8065 5.895C37.7764 4.94535 41.1287 4.32609 41.8379 4.19116C35.3356 15.414 28.5082 28.3147 28.5082 28.3147Z" fill="url(#paint2_linear_245_57872)"/>
<path d="M38.7466 41.0495C39.1029 37.1298 31.2757 28.2128 29.3123 27.2891C27.349 26.3654 14.7493 24.876 13.0039 27.0192C12.0854 28.147 23.329 28.2111 29.0321 28.3252C29.0321 28.3252 38.5459 43.2532 38.7466 41.0495Z" fill="#776483"/>
<path d="M32.2253 21.4164C31.7687 21.0826 24.6939 25.4382 24.2874 26.1872C23.931 26.841 23.3723 33.518 23.3723 33.518L27.1311 35.6439C27.1311 35.6439 31.7064 31.3488 32.2219 30.4338C32.7374 29.5187 32.6007 21.6897 32.2253 21.4164Z" fill="url(#paint3_linear_245_57872)"/>
<path d="M31.6096 39.2194C31.6096 39.2194 26.6468 31.1016 17.4945 31.7399C17.4945 31.7399 17.3959 36.2373 16.0813 37.078C14.7667 37.9186 10.2658 40.2106 9.71223 41.5149C9.1587 42.8191 10.9646 49.3248 15.0746 52.025C19.1845 54.7252 26.6641 53.5818 27.593 51.8123C28.5219 50.0427 27.4581 44.4763 28.041 43.2585C28.79 41.7121 31.6096 39.2194 31.6096 39.2194Z" fill="url(#paint4_radial_245_57872)"/>
<g style="mix-blend-mode:multiply" opacity="0.3">
<path d="M22.094 32.1738C20.1428 32.6305 19.008 32.7983 18.9389 33.2117C18.8697 33.6251 18.2469 37.3113 17.4011 40.6325C16.5552 43.9537 10.136 44.8583 10.136 44.8583L10.9455 47.0361C10.9455 47.0361 17.0655 43.8948 17.8266 41.8502C18.5877 39.8056 19.1049 34.3343 19.892 33.5698C20.679 32.8052 22.8655 32.3935 22.8655 32.3935L22.094 32.1738Z" fill="#D64A57"/>
</g>
<g style="mix-blend-mode:multiply" opacity="0.3">
<path d="M26.4513 34.1201C26.4513 34.1201 23.5107 33.1254 21.5353 34.2775C20.3382 34.9694 19.1776 38.9116 23.0125 46.04C24.7786 49.3266 24.4759 53.3379 24.4759 53.3379C24.4759 53.3379 26.5949 53.0508 27.4061 52.0752C28.0289 51.3279 28.7554 46.8859 25.9583 43.5283C24.3531 41.6066 22.1891 37.0987 23.9154 35.7253C25.6418 34.3518 28.6602 35.8204 28.6602 35.8204L26.4513 34.1201Z" fill="#D64A57"/>
</g>
<g style="mix-blend-mode:multiply" opacity="0.3">
<path d="M23.7443 53.4675C23.7443 53.4675 21.0597 43.6458 18.8404 43.6423C16.6211 43.6389 11.6462 48.2418 11.6462 48.2418L11.9541 48.7798C11.9541 48.7798 16.2111 43.843 17.9288 45.0002C19.6465 46.1574 20.9784 53.6232 20.9784 53.6232L23.7443 53.4675Z" fill="#D64A57"/>
</g>
<g style="mix-blend-mode:multiply" opacity="0.8">
<path d="M20.5408 53.4502C17.6105 53.0506 13.76 52.0958 10.6395 45.3634C9.41133 42.7134 9.35252 41.7309 11.7517 41.8624C13.5594 41.9575 23.9052 45.1956 27.2592 51.6927C27.7349 52.6164 22.9832 53.7858 20.5408 53.4502Z" fill="#D65A6B"/>
</g>
<g style="mix-blend-mode:multiply" opacity="0.8">
<path d="M16.9272 36.0607C16.8061 36.8028 18.228 36.1679 23.5816 39.6067C27.3232 42.0094 27.4356 43.3638 27.7124 43.1511C27.9891 42.9383 30.6997 39.5185 31.0958 39.093C31.4919 38.6675 27.6259 34.5661 24.642 33.1339C21.6581 31.7016 18.2418 31.4439 17.9823 32.1479C17.5454 33.4277 17.1929 34.7347 16.9272 36.0607Z" fill="#D65A6B"/>
</g>
<g style="mix-blend-mode:soft-light" opacity="0.5">
<path d="M33.6023 21.6638C41.8378 21.5963 48.1325 26.457 48.0269 27.1351C47.9214 27.8132 40.9902 39.3128 40.1737 38.3008C39.3573 37.2889 33.5573 30.3127 33.0557 28.6141C32.554 26.9154 31.6476 21.6793 33.6023 21.6638Z" fill="white"/>
</g>
<g style="mix-blend-mode:multiply" opacity="0.3">
<path d="M31.331 20.5273C27.9631 14.5301 20.1791 11.7244 21.1201 10.8578C21.3743 10.6242 22.3309 10.0828 23.7493 9.42551C23.7493 9.45319 23.7632 9.48432 23.7684 9.51546C23.9759 10.4461 24.4205 11.7382 25.3079 11.8887C26.3198 12.0617 26.9373 9.45319 27.2106 7.97941C31.0162 6.54196 35.8751 5.1737 39.7567 5.40203C40.7756 5.45739 31.8759 21.4994 31.331 20.5273Z" fill="#6E5086"/>
</g>
<g style="mix-blend-mode:multiply" opacity="0.3">
<path d="M31.5958 30.2314C31.2965 28.8355 25.5917 25.4901 24.8202 26.3601C24.0487 27.2302 23.5125 32.5528 23.9553 32.7033C24.3982 32.8538 26.8545 34.7375 27.7695 34.4503C28.6846 34.1632 31.8155 31.2399 31.5958 30.2314Z" fill="#6E5086"/>
</g>
<g style="mix-blend-mode:multiply" opacity="0.5">
<path d="M37.3887 36.7994C38.7033 39.337 40.0837 40.9924 42.3861 37.5865C42.3861 37.5865 39.3832 41.885 38.7085 41.52C38.0339 41.155 36.8058 40.3403 34.6159 36.9136C32.426 33.4869 35.5309 33.2118 37.3887 36.7994Z" fill="#A28993"/>
</g>
<g style="mix-blend-mode:multiply" opacity="0.5">
<path d="M13.6267 21.9128C14.8842 18.7473 14.7372 21.9405 13.5644 25.9813C13.234 27.1177 15.3928 25.4831 19.1776 26.2511C23.329 27.0953 21.8916 28.5396 18.1155 28.1989C14.3394 27.8581 12.8569 28.0086 12.3345 27.2146C11.8121 26.4206 13.0455 23.3797 13.6267 21.9128Z" fill="#A28993"/>
</g>
<g style="mix-blend-mode:multiply" opacity="0.4">
<path d="M30.4663 22.117C27.0447 6.9295 40.4886 4.41958 40.4886 4.41958L41.8378 4.16357L42.3706 5.43669C42.3706 5.43669 38.8747 8.99486 35.7473 15.3518C32.6198 21.7088 32.4503 23.3607 32.4503 23.3607C32.4503 23.3607 32.4815 22.2104 31.8691 21.9284C31.3779 21.7036 30.4663 22.117 30.4663 22.117Z" fill="#61306E"/>
</g>
<path d="M46.387 29.1329C41.0714 28.9115 42.2061 36.507 42.815 35.6888C43.4239 34.8706 48.5216 29.2229 46.387 29.1329Z" fill="white"/>
<path d="M29.5389 27.9464C30.4263 29.1191 31.6959 28.0899 31.2099 27.6471C30.7238 27.2043 28.655 26.7718 29.5389 27.9464Z" fill="white"/>
<g style="mix-blend-mode:soft-light">
<path d="M23.6473 8.85989C23.6715 9.03287 23.7113 9.25947 23.7684 9.51548C22.6194 10.0885 21.536 10.7845 20.5372 11.5912C16.4705 15.0162 12.8327 24.3916 12.6338 24.9105C12.7237 24.6355 13.6526 21.8246 14.9448 18.73L14.9603 18.6972C15.9342 16.3689 17.1139 13.8849 18.2988 12.2053C18.4493 11.9908 18.5981 11.7901 18.7486 11.6051C18.758 11.5927 18.7684 11.5811 18.7797 11.5705C18.7846 11.5623 18.791 11.5552 18.7987 11.5497C19.6377 10.5603 21.5093 9.69019 23.6421 8.86681C23.649 8.88238 23.6387 8.83568 23.6473 8.85989Z" fill="white"/>
</g>
<g style="mix-blend-mode:soft-light">
<path d="M33.7424 5.8811C33.7298 5.8866 33.7163 5.8901 33.7026 5.89148C31.4988 6.4613 29.33 7.15901 27.2073 7.98106C27.2298 7.85306 27.2488 7.7337 27.2678 7.62473C27.2678 7.60051 27.2765 7.57975 27.2782 7.55726C30.3814 6.61799 33.2183 6.00046 33.7251 5.88456L33.7424 5.8811Z" fill="white"/>
</g>
<g style="mix-blend-mode:multiply" opacity="0.5">
<path d="M29.7085 22.5322C29.7085 22.5322 21.9435 25.1269 21.5111 26.0316C21.3537 26.3585 22.376 28.3443 22.4849 28.3478C23.1768 28.3651 23.8964 28.3478 23.8964 28.3478L23.4657 32.5338C23.4657 32.5338 24.6316 26.7339 25.0467 26.2409C26.4807 24.5336 29.7085 22.5322 29.7085 22.5322Z" fill="#61306E"/>
</g>
<g style="mix-blend-mode:multiply" opacity="0.5">
<path d="M32.3429 24.179C32.3429 24.179 33.834 30.3612 33.3427 31.2295C33.1697 31.5444 32.0488 33.0891 31.9797 32.9957C31.6803 32.5626 31.4121 32.1088 31.177 31.6378L27.7019 35.0212C27.7019 35.0212 31.7963 30.7521 31.9641 30.1294C32.5436 27.9706 32.3429 24.179 32.3429 24.179Z" fill="#61306E"/>
</g>
<path d="M40.5784 39.9165L40.4469 40.0652L40.4348 40.0791C40.4355 40.0757 40.4355 40.0721 40.4348 40.0687C40.7133 39.7089 47.181 31.2589 47.7207 26.9725C47.8936 25.5576 47.4664 21.5375 46.9872 19.4791C46.5513 17.6075 44.8734 12.0756 44.8942 12.0808C47.6394 18.718 48.7793 25.7893 48.5094 27.2597C47.7137 31.6239 41.5972 38.7472 40.5784 39.9165Z" fill="url(#paint5_linear_245_57872)"/>
<g style="mix-blend-mode:soft-light" opacity="0.5">
<path d="M22.6943 40.4769C20.7569 40.3835 19.7156 43.5058 21.1929 44.8014C22.6701 46.097 26.4773 48.3422 26.9894 47.9599C27.5014 47.5777 28.1829 40.7468 22.6943 40.4769Z" fill="#FFA733"/>
</g>
<path d="M22.9468 45.7631C23.8774 48.036 25.4654 47.2645 25.3322 46.5449C25.199 45.8253 22.5801 44.8566 22.9468 45.7631Z" fill="#FFA733"/>
<path d="M28.8662 36.5901C29.079 38.0379 30.2501 38.1105 30.2068 37.8407C30.1636 37.5708 28.7711 35.9379 28.8662 36.5901Z" fill="#FFA733"/>
<g style="mix-blend-mode:multiply" opacity="0.8">
<path d="M27.6483 42.5665C26.9719 37.9722 26.5135 31.7865 18.2002 31.7397C17.3595 31.7397 16.4185 36.1784 17.6484 36.6298C18.8783 37.0813 23.4241 38.8786 25.4324 40.9301C27.4407 42.9816 27.7676 43.376 27.6483 42.5665Z" fill="#D65A6B"/>
</g>
<g style="mix-blend-mode:soft-light" opacity="0.5">
<path d="M11.1063 42.2861C7.81976 41.1774 13.746 53.573 15.545 51.7584C22.0714 45.1801 13.72 43.1649 11.1063 42.2861Z" fill="white"/>
</g>
<g style="mix-blend-mode:multiply" opacity="0.8">
<path d="M31.6095 39.2192C31.6095 39.2192 26.5931 40.5131 26.8007 42.1962C27.0083 43.8793 28.0012 48.9424 28.0012 48.9424C28.0012 48.9424 27.7261 43.8983 28.0461 43.2531C28.6637 42.0232 31.6095 39.2192 31.6095 39.2192Z" fill="#D42F55"/>
</g>
<g style="mix-blend-mode:multiply" opacity="0.8">
<path d="M17.4944 31.7397C17.4944 31.7397 18.2123 35.6023 17.4443 37.0052C16.6763 38.4081 11.7031 39.7089 11.7031 39.7089C11.7031 39.7089 15.7145 37.5017 16.3389 36.8443C17.2834 35.8635 17.4944 31.7397 17.4944 31.7397Z" fill="#D42F55"/>
</g>
<g style="mix-blend-mode:multiply" opacity="0.8">
<path d="M26.7782 52.5854C20.9333 55.2424 14.5383 53.0888 12.1321 49.0065C12.1321 49.0065 8.58609 41.5788 12.9503 42.2863C23.3723 43.9745 26.7782 52.5854 26.7782 52.5854Z" fill="#D65A6B"/>
</g>
<path d="M23.6474 8.85995C23.682 8.70945 23.8757 10.204 25.4654 10.8215C25.7127 10.9184 26.2178 10.7523 26.4928 10.5828C26.6226 10.5032 26.1469 11.5515 25.666 11.8317C24.8496 12.3022 23.3239 10.2178 23.6474 8.85995Z" fill="#B1A4B0"/>
<path d="M35.5154 32.3141C34.3772 31.3696 32.5904 32.9489 34.6142 34.286C36.6381 35.6232 36.4201 33.0665 35.5154 32.3141Z" fill="#6E5086"/>
<g style="mix-blend-mode:multiply" opacity="0.5">
<path d="M34.5536 32.347C34.1541 33.2517 36.3353 34.5767 36.152 33.5578C35.9686 32.539 34.8909 31.5807 34.5536 32.347Z" fill="#61306E"/>
</g>
<path d="M33.8082 32.5527C33.4208 33.9141 33.6353 34.2825 34.2857 34.6596C34.4901 34.7645 34.7166 34.8192 34.9464 34.8192C35.1762 34.8192 35.4027 34.7645 35.6072 34.6596C35.6072 34.6596 35.1073 34.8239 34.3842 33.9919C33.6612 33.1599 33.8082 32.5527 33.8082 32.5527Z" fill="#E0DBE0"/>
<g style="mix-blend-mode:multiply" opacity="0.3">
<path d="M25.4655 10.8216C23.9675 10.6019 23.9761 10.6936 24.4483 11.3076C24.9206 11.9217 25.6471 12.1587 26.1781 11.3215C26.7092 10.4843 26.7455 10.4566 26.4964 10.5829C26.1719 10.7298 25.8215 10.811 25.4655 10.8216Z" fill="#6E5086"/>
</g>
<g style="mix-blend-mode:multiply" opacity="0.3">
<path d="M24.7667 27.4067C25.0071 32.4231 30.7309 32.2951 31.7083 31.0877C32.6856 29.8803 24.6283 24.5007 24.7667 27.4067Z" fill="#6E5086"/>
</g>
<g style="mix-blend-mode:soft-light" opacity="0.5">
<path d="M41.4173 6.92943C37.8402 12.6377 34.6003 17.5468 35.607 18.346C37.6827 19.9962 38.9593 13.3746 40.2151 11.1951C42.8461 6.62499 40.1927 18.1817 43.0676 18.8252C44.4946 19.1434 43.5986 16.8774 45.0291 16.8774C46.733 16.8774 45.3664 14.5509 44.5915 12.0807C43.775 9.48432 42.8012 4.72396 41.4173 6.92943Z" fill="#6E5086"/>
</g>
<g opacity="0.8">
<path d="M24.696 52.6191C29.2038 48.1113 29.2038 40.8028 24.696 36.295C20.1883 31.7873 12.8797 31.7872 8.37198 36.295C3.86422 40.8028 3.86422 48.1113 8.37199 52.6191C12.8797 57.1268 20.1883 57.1268 24.696 52.6191Z" fill="url(#paint6_radial_245_57872)" style="mix-blend-mode:screen"/>
</g>
<defs>
<radialGradient id="paint0_radial_245_57872" cx="0" cy="0" r="1" gradientUnits="userSpaceOnUse" gradientTransform="translate(31.5576 19.8631) scale(31.9612 31.9612)">
<stop stop-color="#FF00FF"/>
<stop offset="0.21" stop-color="#B800B8"/>
<stop offset="0.42" stop-color="#C673C6" stop-opacity="0.5"/>
<stop offset="0.61" stop-color="#E09BE0" stop-opacity="0.3"/>
<stop offset="0.78" stop-color="white" stop-opacity="0"/>
<stop offset="0.91" stop-color="white" stop-opacity="0"/>
<stop offset="1" stop-color="white" stop-opacity="0"/>
</radialGradient>
<linearGradient id="paint1_linear_245_57872" x1="47.6844" y1="26.7164" x2="36.1848" y2="20.7538" gradientUnits="userSpaceOnUse">
<stop stop-color="#E0D9E1"/>
<stop offset="1" stop-color="#B9A4A8"/>
</linearGradient>
<linearGradient id="paint2_linear_245_57872" x1="17.9521" y1="30.3688" x2="34.423" y2="0.146391" gradientUnits="userSpaceOnUse">
<stop stop-color="#CCC3CE"/>
<stop offset="0.79" stop-color="#766680"/>
<stop offset="1" stop-color="#958392"/>
</linearGradient>
<linearGradient id="paint3_linear_245_57872" x1="32.0884" y1="21.3277" x2="24.9434" y2="34.4403" gradientUnits="userSpaceOnUse">
<stop stop-color="#BEAFC0"/>
<stop offset="1" stop-color="#997A80"/>
</linearGradient>
<radialGradient id="paint4_radial_245_57872" cx="0" cy="0" r="1" gradientUnits="userSpaceOnUse" gradientTransform="translate(23.2768 43.7774) rotate(59.84) scale(12.0203)">
<stop stop-color="#DE700E"/>
<stop offset="0.22" stop-color="#DB6B11"/>
<stop offset="0.47" stop-color="#D25E1A"/>
<stop offset="0.73" stop-color="#C4472A"/>
<stop offset="0.89" stop-color="#B93635"/>
<stop offset="1" stop-color="#EB5E00"/>
</radialGradient>
<linearGradient id="paint5_linear_245_57872" x1="38.5052" y1="23.8364" x2="48.0998" y2="29.0654" gradientUnits="userSpaceOnUse">
<stop stop-color="#97777D"/>
<stop offset="1" stop-color="#9C89A2"/>
</linearGradient>
<radialGradient id="paint6_radial_245_57872" cx="0" cy="0" r="1" gradientUnits="userSpaceOnUse" gradientTransform="translate(16.5337 44.4567) scale(11.5428)">
<stop stop-color="#E98989" stop-opacity="0.7"/>
<stop offset="0.06" stop-color="#C44444" stop-opacity="0.7"/>
<stop offset="0.33" stop-color="#EAA6A6" stop-opacity="0.5"/>
<stop offset="0.57" stop-color="#D38484" stop-opacity="0.3"/>
<stop offset="0.76" stop-color="white" stop-opacity="0"/>
<stop offset="0.91" stop-color="white" stop-opacity="0"/>
<stop offset="1" stop-color="white" stop-opacity="0"/>
</radialGradient>
</defs>
</svg>
