<svg width="59" height="56" viewBox="0 0 59 56" fill="none" xmlns="http://www.w3.org/2000/svg">
<g clip-path="url(#clip0_24_39381)">
<path style="mix-blend-mode:screen" opacity="0.2" d="M31.6274 33.4281C27.7942 29.8076 30.349 21.0774 39.9303 21.2902C49.5116 21.5029 59.5218 20.4374 58.2453 12.771C57.8595 10.4514 35.0125 12.6274 38.6537 6.38291C40.1448 3.82802 51.0061 9.15056 51.0061 9.15056C51.0061 9.15056 56.3304 -0.645203 43.7635 3.40076C31.1966 7.44672 35.8844 14.6876 37.1627 14.6876C38.441 14.6876 30.1346 21.2902 27.3652 20.6502C24.5958 20.0101 16.087 14.4748 19.7005 13.6238C23.314 12.7727 29.1866 13.8435 29.2835 11.4944C30.1363 -9.16785 11.2246 3.28659 13.3193 8.51227C14.1098 10.486 23.9679 10.2161 21.1985 11.7072C18.4291 13.1983 5.65293 18.0953 7.99506 21.9285C10.3372 25.7617 16.298 26.8272 23.6479 22.8331C25.9917 21.56 27.1541 40.9717 27.1541 40.9717L31.6274 33.4281Z" fill="url(#paint0_radial_24_39381)"/>
<path style="mix-blend-mode:screen" opacity="0.5" d="M22.1014 53.8066C34.3077 53.8066 44.2029 43.9115 44.2029 31.7052C44.2029 19.4989 34.3077 9.60376 22.1014 9.60376C9.89515 9.60376 0 19.4989 0 31.7052C0 43.9115 9.89515 53.8066 22.1014 53.8066Z" fill="url(#paint1_radial_24_39381)"/>
<path d="M21.7953 11.5428C21.7953 11.5428 17.7631 15.914 15.6338 22.5322C13.5044 29.1503 15.1356 28.7922 18.3357 28.7957C21.5358 28.7992 26.3982 28.5535 26.3775 28.9946C26.3567 29.4357 25.8205 31.8436 25.3794 31.7052C24.9383 31.5668 20.1693 31.1447 19.9254 31.7052C19.6815 32.2656 19.7524 35.9449 18.3357 37.1955C16.919 38.4462 12.0877 39.0447 11.875 41.2657C11.6622 43.4868 13.0858 48.6242 15.639 51.3798C18.1921 54.1353 24.2585 54.2823 26.7494 53.4555L29.517 26.7234L31.655 11.8992L21.7953 11.5428Z" fill="#FFE09E"/>
<path d="M43.5784 39.9165L43.447 40.0652C43.4477 40.0687 43.4477 40.0722 43.447 40.0756C42.6789 40.9543 42.0631 41.4975 41.7172 41.5131C40.3334 41.5771 34.0733 31.636 32.0408 28.3183C31.8574 28.3252 31.6568 28.3304 31.4388 28.3339C27.04 28.4376 16.0161 28.3477 15.3518 27.2095C14.9228 26.4882 16.2479 22.6014 17.9638 18.718L17.9794 18.6851C19.0501 16.2634 20.2748 13.8417 21.3178 12.1932L21.4407 12.0012C21.5458 11.8427 21.6657 11.6944 21.7987 11.5584C21.8036 11.5503 21.8101 11.5432 21.8178 11.5377C22.7276 10.5984 24.4937 9.69371 26.6611 8.85476C26.6854 9.02774 26.7252 9.25434 26.7822 9.51035C26.9898 10.441 27.4344 11.7331 28.3217 11.8836C29.3337 12.0566 29.9512 9.44808 30.2245 7.9743C30.247 7.8463 30.266 7.72695 30.285 7.61797C32.3815 6.97276 34.6095 6.39328 36.661 5.89856L36.7198 5.88473H36.7423H36.7596C36.7683 5.88473 36.7752 5.88473 36.7804 5.88473L36.8167 5.87608C40.7866 4.92643 44.1389 4.30716 44.8481 4.17224L44.8688 4.20857C45.1646 4.91086 46.5986 8.34794 48.0395 12.4527C48.0438 12.4722 48.0495 12.4913 48.0568 12.5098C50.1741 18.1869 51.6288 26.8289 51.0788 28.0778C49.5946 31.4578 45.9396 37.1506 43.5784 39.9165Z" fill="url(#paint2_linear_24_39381)"/>
<path d="M31.508 28.3148L31.4284 28.339C27.0296 28.4428 16.0057 28.3529 15.3414 27.2147C14.9125 26.4934 16.2375 22.6065 17.9534 18.7232L17.969 18.6903C19.0397 16.2686 20.2644 13.8469 21.3075 12.1984L21.4303 12.0064C21.5354 11.8479 21.6553 11.6996 21.7884 11.5636C21.7932 11.5555 21.7997 11.5484 21.8074 11.5428C22.7172 10.6036 24.4834 9.6989 26.6508 8.85995C26.6733 9.01045 26.7061 9.20591 26.7528 9.42559C26.7528 9.45327 26.7667 9.48441 26.7719 9.51554C26.9794 10.4462 27.424 11.7383 28.3114 11.8888C29.3233 12.0618 29.9408 9.45327 30.2141 7.97949C30.2366 7.85495 30.2574 7.73559 30.2747 7.63354C32.3919 6.98314 34.632 6.39674 36.7095 5.90375H36.732H36.7492C36.7579 5.90375 36.7648 5.90375 36.77 5.90375L36.8063 5.89511C40.7762 4.94545 44.1285 4.32619 44.8377 4.19127C38.3355 15.4141 31.508 28.3148 31.508 28.3148Z" fill="url(#paint3_linear_24_39381)"/>
<path d="M41.7466 41.0495C42.1029 37.1298 34.2757 28.2128 32.3124 27.2891C30.3491 26.3654 17.7493 24.876 16.004 27.0192C15.0854 28.147 26.329 28.211 32.0321 28.3252C32.0321 28.3252 41.5459 43.2532 41.7466 41.0495Z" fill="#776483"/>
<path d="M35.2253 21.4164C34.7686 21.0826 27.6938 25.4382 27.2873 26.1872C26.931 26.8411 26.3723 33.518 26.3723 33.518L30.1311 35.6439C30.1311 35.6439 34.7064 31.3489 35.2218 30.4338C35.7373 29.5188 35.6007 21.6898 35.2253 21.4164Z" fill="url(#paint4_linear_24_39381)"/>
<path d="M34.6095 39.2194C34.6095 39.2194 29.6468 31.1015 20.4945 31.7398C20.4945 31.7398 20.3959 36.2372 19.0812 37.0779C17.7666 37.9186 13.2657 40.2105 12.7122 41.5148C12.1586 42.8191 13.9645 49.3248 18.0745 52.025C22.1845 54.7252 29.6641 53.5818 30.5929 51.8122C31.5218 50.0426 30.458 44.4762 31.041 43.2584C31.79 41.712 34.6095 39.2194 34.6095 39.2194Z" fill="url(#paint5_radial_24_39381)"/>
<g style="mix-blend-mode:multiply" opacity="0.3">
<path d="M25.094 32.174C23.1428 32.6306 22.008 32.7984 21.9388 33.2118C21.8697 33.6253 21.2469 37.3114 20.4011 40.6326C19.5552 43.9538 13.136 44.8585 13.136 44.8585L13.9455 47.0363C13.9455 47.0363 20.0655 43.895 20.8266 41.8504C21.5877 39.8058 22.1049 34.3345 22.892 33.5699C23.679 32.8053 25.8654 32.3937 25.8654 32.3937L25.094 32.174Z" fill="#D64A57"/>
</g>
<g style="mix-blend-mode:multiply" opacity="0.3">
<path d="M29.4513 34.12C29.4513 34.12 26.5107 33.1254 24.5352 34.2774C23.3382 34.9693 22.1776 38.9115 26.0125 46.0399C27.7786 49.3265 27.4759 53.3379 27.4759 53.3379C27.4759 53.3379 29.5949 53.0507 30.4061 52.0751C31.0289 51.3279 31.7554 46.8858 28.9583 43.5283C27.3531 41.6065 25.1891 37.0987 26.9154 35.7252C28.6418 34.3518 31.6602 35.8204 31.6602 35.8204L29.4513 34.12Z" fill="#D64A57"/>
</g>
<g style="mix-blend-mode:multiply" opacity="0.3">
<path d="M26.7442 53.4676C26.7442 53.4676 24.0596 43.6459 21.8402 43.6424C19.6209 43.639 14.6461 48.2419 14.6461 48.2419L14.954 48.7799C14.954 48.7799 19.211 43.8431 20.9286 45.0003C22.6463 46.1575 23.9783 53.6233 23.9783 53.6233L26.7442 53.4676Z" fill="#D64A57"/>
</g>
<g style="mix-blend-mode:multiply" opacity="0.8">
<path d="M23.5406 53.4503C20.6104 53.0507 16.7599 52.0959 13.6393 45.3636C12.4112 42.7135 12.3524 41.731 14.7516 41.8625C16.5592 41.9576 26.905 45.1958 30.2591 51.6929C30.7348 52.6166 25.9831 53.7859 23.5406 53.4503Z" fill="#D65A6B"/>
</g>
<g style="mix-blend-mode:multiply" opacity="0.8">
<path d="M19.9271 36.0608C19.806 36.8029 21.2279 36.168 26.5816 39.6069C30.3231 42.0095 30.4355 43.3639 30.7123 43.1512C30.9891 42.9384 33.6996 39.5186 34.0958 39.0931C34.4919 38.6676 30.6258 34.5663 27.6419 33.134C24.6581 31.7017 21.2417 31.444 20.9823 32.148C20.5453 33.4278 20.1928 34.7349 19.9271 36.0608Z" fill="#D65A6B"/>
</g>
<g style="mix-blend-mode:soft-light" opacity="0.5">
<path d="M36.6022 21.6638C44.8377 21.5964 51.1324 26.457 51.0269 27.1351C50.9214 27.8132 43.9901 39.3128 43.1737 38.3009C42.3572 37.2889 36.5572 30.3127 36.0556 28.6141C35.554 26.9154 34.6476 21.6794 36.6022 21.6638Z" fill="white"/>
</g>
<g style="mix-blend-mode:multiply" opacity="0.3">
<path d="M34.331 20.5273C30.9631 14.5302 23.1791 11.7245 24.1201 10.8579C24.3744 10.6243 25.3309 10.0829 26.7494 9.4256C26.7494 9.45328 26.7632 9.48441 26.7684 9.51555C26.976 10.4462 27.4205 11.7383 28.3079 11.8888C29.3198 12.0618 29.9374 9.45328 30.2107 7.9795C34.0162 6.54205 38.8751 5.17379 42.7568 5.40212C43.7756 5.45748 34.8759 21.4995 34.331 20.5273Z" fill="#6E5086"/>
</g>
<g style="mix-blend-mode:multiply" opacity="0.3">
<path d="M34.5957 30.2314C34.2964 28.8355 28.5916 25.4901 27.8201 26.3602C27.0486 27.2303 26.5124 32.5528 26.9552 32.7033C27.398 32.8538 29.8543 34.7375 30.7694 34.4504C31.6844 34.1632 34.8153 31.2399 34.5957 30.2314Z" fill="#6E5086"/>
</g>
<g style="mix-blend-mode:multiply" opacity="0.5">
<path d="M40.3887 36.7994C41.7033 39.337 43.0837 40.9924 45.3861 37.5865C45.3861 37.5865 42.3832 41.885 41.7085 41.52C41.0339 41.155 39.8058 40.3403 37.6159 36.9136C35.426 33.4869 38.5309 33.2118 40.3887 36.7994Z" fill="#A28993"/>
</g>
<g style="mix-blend-mode:multiply" opacity="0.5">
<path d="M16.6267 21.9129C17.8842 18.7474 17.7372 21.9406 16.5644 25.9813C16.234 27.1178 18.3928 25.4832 22.1776 26.2512C26.329 27.0953 24.8916 28.5397 21.1155 28.1989C17.3393 27.8582 15.8569 28.0087 15.3345 27.2147C14.8121 26.4207 16.0455 23.3798 16.6267 21.9129Z" fill="#A28993"/>
</g>
<g style="mix-blend-mode:multiply" opacity="0.4">
<path d="M33.4661 22.117C30.0446 6.92951 43.4885 4.4196 43.4885 4.4196L44.8377 4.16359L45.3705 5.43671C45.3705 5.43671 41.8746 8.99487 38.7471 15.3518C35.6197 21.7088 35.4502 23.3607 35.4502 23.3607C35.4502 23.3607 35.4813 22.2104 34.869 21.9285C34.3777 21.7036 33.4661 22.117 33.4661 22.117Z" fill="#61306E"/>
</g>
<path d="M49.387 29.133C44.0714 28.9116 45.2062 36.5071 45.815 35.6889C46.4239 34.8707 51.5216 29.223 49.387 29.133Z" fill="white"/>
<path d="M32.539 27.9464C33.4263 29.1192 34.696 28.09 34.2099 27.6471C33.7239 27.2043 31.655 26.7719 32.539 27.9464Z" fill="white"/>
<g style="mix-blend-mode:soft-light">
<path d="M26.6473 8.85995C26.6715 9.03293 26.7113 9.25953 26.7684 9.51554C25.6194 10.0886 24.536 10.7846 23.5372 11.5913C19.4704 15.0163 15.8327 24.3917 15.6338 24.9106C15.7237 24.6356 16.6526 21.8247 17.9448 18.7301L17.9603 18.6972C18.9342 16.3689 20.1139 13.885 21.2988 12.2054C21.4493 11.9909 21.5981 11.7902 21.7486 11.6051C21.758 11.5927 21.7684 11.5812 21.7797 11.5705C21.7846 11.5624 21.791 11.5553 21.7987 11.5498C22.6377 10.5603 24.5093 9.69025 26.6421 8.86687C26.649 8.88244 26.6387 8.83574 26.6473 8.85995Z" fill="white"/>
</g>
<g style="mix-blend-mode:soft-light">
<path d="M36.7423 5.88127C36.7297 5.88677 36.7163 5.89027 36.7025 5.89165C34.4987 6.46147 32.3299 7.15917 30.2072 7.98123C30.2297 7.85322 30.2487 7.73387 30.2677 7.62489C30.2677 7.60068 30.2764 7.57992 30.2781 7.55743C33.3814 6.61816 36.2182 6.00063 36.725 5.88473L36.7423 5.88127Z" fill="white"/>
</g>
<g style="mix-blend-mode:multiply" opacity="0.5">
<path d="M32.7085 22.5322C32.7085 22.5322 24.9435 25.1268 24.511 26.0315C24.3536 26.3584 25.3759 28.3442 25.4849 28.3477C26.1768 28.365 26.8964 28.3477 26.8964 28.3477L26.4657 32.5338C26.4657 32.5338 27.6316 26.7338 28.0467 26.2408C29.4807 24.5335 32.7085 22.5322 32.7085 22.5322Z" fill="#61306E"/>
</g>
<g style="mix-blend-mode:multiply" opacity="0.5">
<path d="M35.3429 24.1789C35.3429 24.1789 36.834 30.3612 36.3427 31.2295C36.1698 31.5443 35.0489 33.089 34.9797 32.9956C34.6803 32.5626 34.4121 32.1088 34.1771 31.6377L30.7019 35.0212C30.7019 35.0212 34.7963 30.7521 34.9641 30.1294C35.5436 27.9706 35.3429 24.1789 35.3429 24.1789Z" fill="#61306E"/>
</g>
<path d="M43.5784 39.9165L43.447 40.0652L43.4349 40.0791C43.4356 40.0757 43.4356 40.0721 43.4349 40.0687C43.7134 39.7089 50.181 31.2589 50.7207 26.9725C50.8937 25.5575 50.4664 21.5375 49.9873 19.4791C49.5514 17.6075 47.8735 12.0756 47.8942 12.0808C50.6394 18.718 51.7793 25.7893 51.5095 27.2597C50.7138 31.6239 44.5973 38.7471 43.5784 39.9165Z" fill="url(#paint6_linear_24_39381)"/>
<g style="mix-blend-mode:soft-light" opacity="0.5">
<path d="M25.6942 40.4769C23.7568 40.3835 22.7155 43.5058 24.1927 44.8014C25.67 46.097 29.4772 48.3423 29.9893 47.96C30.5013 47.5777 31.1828 40.7468 25.6942 40.4769Z" fill="#FFA733"/>
</g>
<path d="M25.9467 45.7631C26.8774 48.0361 28.4653 47.2646 28.3321 46.545C28.1989 45.8254 25.58 44.8567 25.9467 45.7631Z" fill="#FFA733"/>
<path d="M31.8661 36.5901C32.0788 38.0379 33.2499 38.1106 33.2066 37.8407C33.1634 37.5709 31.7709 35.938 31.8661 36.5901Z" fill="#FFA733"/>
<g style="mix-blend-mode:multiply" opacity="0.8">
<path d="M30.6483 42.5665C29.972 37.9722 29.5136 31.7865 21.2002 31.7398C20.3596 31.7398 19.4186 36.1784 20.6484 36.6299C21.8783 37.0814 26.4242 38.8786 28.4324 40.9301C30.4407 42.9817 30.7677 43.376 30.6483 42.5665Z" fill="#D65A6B"/>
</g>
<g style="mix-blend-mode:soft-light" opacity="0.5">
<path d="M14.1064 42.2863C10.8198 41.1775 16.746 53.5731 18.545 51.7586C25.0715 45.1802 16.7201 43.165 14.1064 42.2863Z" fill="white"/>
</g>
<g style="mix-blend-mode:multiply" opacity="0.8">
<path d="M34.6095 39.2194C34.6095 39.2194 29.5931 40.5133 29.8007 42.1963C30.0083 43.8794 31.0012 48.9425 31.0012 48.9425C31.0012 48.9425 30.7261 43.8984 31.0461 43.2532C31.6637 42.0234 34.6095 39.2194 34.6095 39.2194Z" fill="#D42F55"/>
</g>
<g style="mix-blend-mode:multiply" opacity="0.8">
<path d="M20.4945 31.7398C20.4945 31.7398 21.2123 35.6024 20.4443 37.0053C19.6763 38.4081 14.7032 39.7089 14.7032 39.7089C14.7032 39.7089 18.7145 37.5017 19.339 36.8444C20.2834 35.8636 20.4945 31.7398 20.4945 31.7398Z" fill="#D42F55"/>
</g>
<g style="mix-blend-mode:multiply" opacity="0.8">
<path d="M29.7782 52.5854C23.9333 55.2424 17.5383 53.0888 15.1321 49.0065C15.1321 49.0065 11.5861 41.5788 15.9503 42.2863C26.3723 43.9745 29.7782 52.5854 29.7782 52.5854Z" fill="#D65A6B"/>
</g>
<path d="M26.6473 8.85996C26.6819 8.70947 26.8756 10.204 28.4653 10.8215C28.7127 10.9184 29.2178 10.7523 29.4928 10.5828C29.6225 10.5033 29.1468 11.5515 28.666 11.8317C27.8495 12.3022 26.3238 10.2178 26.6473 8.85996Z" fill="#B1A4B0"/>
<path d="M38.5154 32.3141C37.3772 31.3696 35.5903 32.9489 37.6141 34.286C39.638 35.6232 39.42 33.0665 38.5154 32.3141Z" fill="#6E5086"/>
<g style="mix-blend-mode:multiply" opacity="0.5">
<path d="M37.5536 32.3469C37.154 33.2516 39.3353 34.5766 39.1519 33.5578C38.9686 32.539 37.8909 31.5807 37.5536 32.3469Z" fill="#61306E"/>
</g>
<path d="M36.8081 32.5528C36.4206 33.9141 36.6351 34.2826 37.2855 34.6597C37.4899 34.7645 37.7164 34.8193 37.9463 34.8193C38.1761 34.8193 38.4026 34.7645 38.607 34.6597C38.607 34.6597 38.1071 34.824 37.3841 33.992C36.661 33.1599 36.8081 32.5528 36.8081 32.5528Z" fill="#E0DBE0"/>
<g style="mix-blend-mode:multiply" opacity="0.3">
<path d="M28.4653 10.8215C26.9673 10.6018 26.976 10.6935 27.4482 11.3076C27.9204 11.9217 28.6469 12.1587 29.178 11.3214C29.709 10.4842 29.7454 10.4565 29.4963 10.5828C29.1718 10.7298 28.8214 10.8109 28.4653 10.8215Z" fill="#6E5086"/>
</g>
<g style="mix-blend-mode:multiply" opacity="0.3">
<path d="M27.7665 27.4067C28.0069 32.4231 33.7308 32.2951 34.7081 31.0877C35.6854 29.8803 27.6281 24.5007 27.7665 27.4067Z" fill="#6E5086"/>
</g>
<g style="mix-blend-mode:soft-light" opacity="0.5">
<path d="M44.4174 6.92952C40.8402 12.6378 37.6003 17.5469 38.607 18.3461C40.6828 19.9963 41.9594 13.3747 43.2152 11.1952C45.8462 6.62508 43.1927 18.1818 46.0676 18.8252C47.4947 19.1435 46.5986 16.8775 48.0292 16.8775C49.733 16.8775 48.3665 14.5509 47.5915 12.0808C46.7751 9.48441 45.8012 4.72405 44.4174 6.92952Z" fill="#6E5086"/>
</g>
<path style="mix-blend-mode:screen" opacity="0.8" d="M27.696 52.6192C32.2037 48.1114 32.2037 40.8029 27.696 36.2951C23.1882 31.7874 15.8797 31.7874 11.3719 36.2951C6.86415 40.8029 6.86416 48.1114 11.3719 52.6192C15.8797 57.1269 23.1882 57.1269 27.696 52.6192Z" fill="url(#paint7_radial_24_39381)"/>
</g>
<defs>
<radialGradient id="paint0_radial_24_39381" cx="0" cy="0" r="1" gradientUnits="userSpaceOnUse" gradientTransform="translate(34.5576 19.8631) scale(31.9612 31.9612)">
<stop stop-color="#FF00FF"/>
<stop offset="0.21" stop-color="#B800B8"/>
<stop offset="0.42" stop-color="#770077"/>
<stop offset="0.61" stop-color="#440044"/>
<stop offset="0.78" stop-color="#1F001F"/>
<stop offset="0.91" stop-color="#080008"/>
<stop offset="1"/>
</radialGradient>
<radialGradient id="paint1_radial_24_39381" cx="0" cy="0" r="1" gradientUnits="userSpaceOnUse" gradientTransform="translate(22.1014 31.7052) scale(22.1014)">
<stop stop-color="#FF6B05"/>
<stop offset="0.21" stop-color="#B84D04"/>
<stop offset="0.42" stop-color="#773202"/>
<stop offset="0.61" stop-color="#441D01"/>
<stop offset="0.78" stop-color="#1F0D01"/>
<stop offset="0.91" stop-color="#080300"/>
<stop offset="1"/>
</radialGradient>
<linearGradient id="paint2_linear_24_39381" x1="50.6844" y1="26.7165" x2="39.1848" y2="20.7539" gradientUnits="userSpaceOnUse">
<stop stop-color="#E0D9E1"/>
<stop offset="1" stop-color="#B9A4A8"/>
</linearGradient>
<linearGradient id="paint3_linear_24_39381" x1="20.9519" y1="30.3689" x2="37.4228" y2="0.146498" gradientUnits="userSpaceOnUse">
<stop stop-color="#CCC3CE"/>
<stop offset="0.79" stop-color="#766680"/>
<stop offset="1" stop-color="#958392"/>
</linearGradient>
<linearGradient id="paint4_linear_24_39381" x1="35.0884" y1="21.3277" x2="27.9433" y2="34.4404" gradientUnits="userSpaceOnUse">
<stop stop-color="#BEAFC0"/>
<stop offset="1" stop-color="#997A80"/>
</linearGradient>
<radialGradient id="paint5_radial_24_39381" cx="0" cy="0" r="1" gradientUnits="userSpaceOnUse" gradientTransform="translate(26.2767 43.7774) rotate(59.84) scale(12.0203)">
<stop stop-color="#DE700E"/>
<stop offset="0.22" stop-color="#DB6B11"/>
<stop offset="0.47" stop-color="#D25E1A"/>
<stop offset="0.73" stop-color="#C4472A"/>
<stop offset="0.89" stop-color="#B93635"/>
<stop offset="1" stop-color="#EB5E00"/>
</radialGradient>
<linearGradient id="paint6_linear_24_39381" x1="41.5052" y1="23.8364" x2="51.0999" y2="29.0654" gradientUnits="userSpaceOnUse">
<stop stop-color="#97777D"/>
<stop offset="1" stop-color="#9C89A2"/>
</linearGradient>
<radialGradient id="paint7_radial_24_39381" cx="0" cy="0" r="1" gradientUnits="userSpaceOnUse" gradientTransform="translate(19.5336 44.4568) scale(11.5428)">
<stop stop-color="#FF0000"/>
<stop offset="0.06" stop-color="#EA0000"/>
<stop offset="0.33" stop-color="#980000"/>
<stop offset="0.57" stop-color="#570000"/>
<stop offset="0.76" stop-color="#280000"/>
<stop offset="0.91" stop-color="#0B0000"/>
<stop offset="1"/>
</radialGradient>
<clipPath id="clip0_24_39381">
<rect width="58.3577" height="56" fill="white"/>
</clipPath>
</defs>
</svg>
