<svg width="48" height="52" viewBox="0 0 48 52" fill="none" xmlns="http://www.w3.org/2000/svg">
<g clip-path="url(#clip0_31_10780)">
<g style="mix-blend-mode:multiply" opacity="0.5">
<path d="M47.9528 27.4656C47.9528 27.3241 47.9528 27.1827 47.9293 27.0177C47.9057 26.5933 47.8585 26.1925 47.8114 25.7682C47.5521 23.5285 47.0334 21.3359 46.2318 19.2377C46.0668 18.8369 45.9018 18.4126 45.7367 18.0118C44.5344 15.277 42.8134 12.8251 40.5972 10.8684C40.0786 10.3968 39.5363 9.97248 38.947 9.59527C36.0236 7.56776 32.3694 6.34183 27.9371 6.34183H20.0864C10.1375 6.3654 4.10216 12.4951 1.50884 20.0157C1.36739 20.4165 1.22593 20.8408 1.10805 21.2652C0.990177 21.666 0.872299 22.0668 0.777996 22.4911C0.683694 22.8919 0.589391 23.3163 0.518664 23.7171C0.282908 24.9666 0.117878 26.2397 0.0471513 27.4892C0.0235756 28.0314 0 28.5737 0 29.1159C0 30.9076 0.165029 32.7465 0.518664 34.5383C0.589391 34.9626 0.683694 35.3634 0.777996 35.7878C0.91945 36.4008 1.10805 37.0137 1.29666 37.6267C1.43811 38.0511 1.57957 38.4754 1.7446 38.8998C4.47937 46.1139 10.444 51.8664 20.0864 51.8664H27.9371C34.0196 51.8664 38.6405 49.5795 41.8939 46.0903C42.2475 45.7131 42.6012 45.3124 42.9312 44.888C44.8644 42.4361 46.2554 39.5127 47.057 36.4243C47.1748 36 47.2692 35.5992 47.3635 35.1748C47.7878 33.1945 48 31.1434 48 29.1395C48 28.5972 48 28.055 47.9528 27.5127V27.4656ZM38.5226 35.2456C38.4047 35.6463 38.2397 36.0707 38.0747 36.4951C36.6365 40.0314 33.7367 43.4499 27.9371 43.4499H20.0864C15.9843 43.4499 13.3202 41.7289 11.5992 39.4656C11.2927 39.0412 11.0098 38.6169 10.7505 38.1689C10.3261 37.4145 9.9725 36.6601 9.68959 35.8821C9.54813 35.4577 9.40668 35.057 9.2888 34.6326C8.55796 32.0157 8.48723 29.6581 8.48723 29.0923C8.48723 28.833 8.48723 28.2672 8.55796 27.4892C8.65226 26.5461 8.81729 25.2966 9.14735 23.9764C9.26523 23.5756 9.35953 23.1513 9.50098 22.7505C9.66601 22.2318 9.87819 21.7131 10.1139 21.1945C10.3026 20.7701 10.5147 20.3458 10.7505 19.945C12.4008 17.1159 15.2063 14.7583 20.0393 14.7583H27.89C31.7564 14.7583 34.3261 16.2672 36.0471 18.3183C36.3772 18.6955 36.6601 19.1198 36.943 19.5442C38.2161 21.5717 38.8527 23.9057 39.1827 25.7682C39.2534 26.2161 39.3242 26.6405 39.3477 27.0177C39.3477 27.1827 39.3949 27.3477 39.3949 27.5127C39.4656 28.3143 39.4656 28.8801 39.4656 29.1395C39.4656 29.7524 39.4185 32.4401 38.4754 35.2927L38.5226 35.2456Z" fill="#58129B"/>
</g>
<path d="M47.9528 24.4715C47.9528 24.4715 47.9528 24.3772 47.9528 24.3065C47.9528 24.165 47.9528 24.0236 47.9528 23.8821C47.9293 23.4813 47.8821 23.057 47.835 22.6326C47.5756 20.3929 47.057 18.2004 46.2554 16.1021C46.0904 15.6778 45.9253 15.277 45.7603 14.8762C44.558 12.165 42.8369 9.68957 40.6208 7.73279C40.1022 7.26128 39.5599 6.83692 38.9705 6.43613C36.0471 4.40863 32.3929 3.20627 27.9371 3.20627H20.0864C15.2063 3.20627 11.2692 4.69153 8.20432 7.07267C5.04519 9.54811 2.82908 13.0137 1.50884 16.8566C1.36739 17.2573 1.24951 17.6817 1.10805 18.1061C0.990177 18.5069 0.872299 18.9076 0.777996 19.332C0.683694 19.7328 0.589391 20.1572 0.518664 20.5579C0.282908 21.8074 0.117878 23.0805 0.0471513 24.33C0.0471513 24.3772 0.0471513 24.4008 0.0471513 24.4243C0.0235756 24.9194 0 25.4381 0 25.9332C0 27.7485 0.165029 29.5638 0.518664 31.3556C0.589391 31.7799 0.683694 32.2043 0.777996 32.6051C0.91945 33.2181 1.10805 33.831 1.29666 34.444C1.43811 34.8683 1.57957 35.2927 1.7446 35.7171C2.59332 37.9568 3.74853 40.0786 5.25737 41.9175C5.56385 42.2947 5.87033 42.6483 6.20039 43.0019C6.4833 43.3084 6.78978 43.6149 7.09627 43.8978C10.279 46.8212 14.5697 48.6837 20.0629 48.6837H27.9136C33.9961 48.6837 38.6169 46.3968 41.8703 42.9076C42.224 42.5069 42.5776 42.1061 42.9077 41.7053C44.8644 39.2534 46.2318 36.33 47.0334 33.2416C47.1513 32.8173 47.2456 32.4165 47.3399 31.9921C47.7642 30.0118 47.9764 27.9607 47.9764 25.9568C47.9764 25.4617 47.9764 24.9666 47.9293 24.4715H47.9528ZM20.0864 11.5992H27.9371C31.8035 11.5992 34.3733 13.108 36.0943 15.1591C36.4244 15.5363 36.7073 15.9607 36.9902 16.385C38.2633 18.4126 38.8998 20.7465 39.2299 22.609C39.3006 23.057 39.3713 23.4813 39.3949 23.8585C39.3949 24.0236 39.4185 24.1886 39.442 24.3536C39.5128 25.1316 39.5128 25.721 39.5128 25.9568C39.5128 26.5697 39.4656 29.2338 38.5226 32.11C38.4047 32.5344 38.2397 32.9351 38.0747 33.3595C36.6365 36.8723 33.7367 40.2907 27.9371 40.2907H20.0864C18.7662 40.2907 17.5874 40.1257 16.5501 39.7957C14.3576 39.112 12.778 37.8389 11.6228 36.3065C11.5049 36.165 11.4106 36.0236 11.3163 35.8821C11.1277 35.5992 10.9391 35.3163 10.7741 35.0334C10.3497 34.279 9.99607 33.5245 9.71316 32.7465C9.57171 32.3222 9.43025 31.8978 9.31238 31.497C8.55796 28.8566 8.51081 26.5462 8.51081 25.9568C8.51081 25.6974 8.51081 25.1316 8.58153 24.3536C8.67583 23.4106 8.84086 22.1847 9.1945 20.8408C9.31238 20.4401 9.40668 20.0393 9.54813 19.6149C9.71316 19.0962 9.92534 18.5776 10.1611 18.0589C10.3497 17.6346 10.5619 17.2338 10.7976 16.8094C11.5049 15.5835 12.4244 14.4518 13.6503 13.556C15.2534 12.3772 17.3281 11.5992 20.0864 11.5992Z" fill="#9E4000"/>
<path d="M47.1984 16.2672C47.1041 15.8428 46.9862 15.442 46.8684 15.0177C46.1375 12.4479 45.0295 10.0432 43.5206 7.89782C43.2141 7.44989 42.8841 7.02553 42.554 6.62474C39.2534 2.64046 34.4204 -0.0235901 27.9136 -0.0235901H20.0629C17.1395 -0.0235901 14.5462 0.51865 12.2829 1.48525C11.4813 1.81531 10.7269 2.19252 10.0196 2.64046C8.58153 3.51276 7.30845 4.57366 6.20039 5.77602C3.32417 8.84085 1.48527 12.8723 0.612967 17.0923C0.518664 17.5167 0.447937 17.941 0.37721 18.3654C0.306483 18.7662 0.259332 19.167 0.212181 19.5678C0.165029 19.9921 0.117878 20.4165 0.0943025 20.8173C0.0471513 21.5481 0 22.3025 0 23.0334C0 23.5049 0 23.9764 0.0471513 24.4479C0.0471513 24.5186 0.0471513 24.5894 0.0471513 24.6601C0.165029 27.0884 0.612967 29.5167 1.34381 31.8271C1.48527 32.2515 1.62672 32.6758 1.79175 33.1002C2.05108 33.7603 2.31041 34.3968 2.6169 35.0098C2.82908 35.4577 3.06483 35.8821 3.30059 36.3065C4.52652 38.499 6.10609 40.4794 8.06287 42.0353C11.1277 44.5344 15.112 46.0904 20.0864 46.0904H27.9371C31.9686 46.0904 35.3635 45.0766 38.1454 43.332C38.7348 42.9784 39.3006 42.5776 39.8192 42.1297C42.5776 39.9371 44.6051 36.9902 45.9489 33.6896C46.1139 33.2652 46.279 32.8408 46.4204 32.4165C47.2927 29.9175 47.7878 27.277 47.9293 24.613C47.9293 24.5658 47.9293 24.5186 47.9293 24.4479C47.9293 24.3536 47.9293 24.2593 47.9293 24.165C47.9293 23.7878 47.9528 23.387 47.9528 23.0098V22.9155C47.9528 20.6994 47.6935 18.4361 47.1513 16.2436L47.1984 16.2672Z" fill="url(#paint0_linear_31_10780)"/>
<g opacity="0.5">
<path d="M27.9136 44.5108H20.0629C6.5776 44.5108 0.282908 33.053 0 22.1847C0 22.4204 0 22.6562 0 22.8919C0 33.9725 6.2947 45.9253 20.0864 45.9253H27.9371C41.7289 45.9253 48 33.9725 48 22.8919C48 22.6562 48 22.4204 48 22.1847C47.7407 33.0766 41.446 44.5108 27.9371 44.5108H27.9136Z" fill="url(#paint1_linear_31_10780)"/>
</g>
<g style="mix-blend-mode:multiply" opacity="0.4">
<path d="M47.1983 16.0786C46.8683 16.0786 46.5382 16.1022 46.2081 16.1257C43.8506 16.22 41.2337 16.2908 38.4282 16.3851C37.9331 16.3851 37.438 16.4086 36.9429 16.4322C3.11187 17.3517 35.5048 17.8939 10.1374 18.0825C9.76019 18.0825 9.40656 18.0825 9.05293 18.0825C5.56373 18.1061 2.85253 18.1297 1.08436 18.1297C0.825028 18.1297 0.589272 18.1297 0.353516 18.1297C0.424243 17.7289 0.494969 17.3045 0.589272 16.8801C0.848604 16.8801 1.15509 16.8801 1.48515 16.8801C3.32405 16.8801 6.01167 16.8566 9.40656 16.833C9.8545 16.833 10.326 16.833 10.7975 16.833C36.3299 16.6444 2.38102 16.1257 36.0706 15.2063C36.7071 15.2063 37.3437 15.1827 37.9802 15.1591C40.7622 15.0648 43.3791 14.9941 45.7366 14.9234C46.1374 14.9234 46.5146 14.8998 46.8918 14.8762C47.0097 15.277 47.1276 15.7014 47.2219 16.1022L47.1983 16.0786Z" fill="#C97B3A"/>
<path d="M47.9999 22.6326V22.7269C47.9999 23.1041 47.9999 23.4813 47.9764 23.8585H47.9292C47.5048 23.8585 47.0569 23.8585 46.609 23.8585C44.44 23.8585 42.0589 23.8585 39.4656 23.835H39.3713C6.34178 23.5521 35.3398 21.6189 9.19444 20.8173C9.00583 20.8173 8.81723 20.8173 8.62862 20.8173C5.13943 20.723 2.38108 20.6287 0.5186 20.558C0.377146 20.558 0.235692 20.558 0.0942383 20.558C0.117814 20.1572 0.164965 19.7328 0.212116 19.3084C0.400722 19.3084 0.589327 19.3084 0.777932 19.3084C2.64041 19.3792 5.35161 19.4499 8.77007 19.5678C9.02941 19.5678 9.28874 19.5678 9.54807 19.5914C35.8349 20.3929 6.27106 22.3025 39.1826 22.609C39.277 22.609 39.3948 22.609 39.4891 22.609C42.554 22.6326 45.3359 22.6326 47.8113 22.6326H47.9999Z" fill="#C97B3A"/>
<path d="M47.3398 31.9921C47.2455 32.4165 47.1512 32.8409 47.0333 33.2417C46.6797 33.2417 46.3024 33.2417 45.9488 33.2417C43.5205 33.2888 40.88 33.3124 38.051 33.336C37.438 33.336 36.825 33.336 36.1885 33.336C30.2946 33.3831 46.1846 33.4067 45.9488 33.4067C30.9311 33.4067 33.0529 32.9587 11.3398 32.723C10.774 32.723 10.2317 32.723 9.68948 32.723C6.43604 32.6758 3.77199 32.6523 1.79164 32.6287C1.438 32.6287 1.10795 32.6287 0.777887 32.6287L0.518555 31.3792C0.777887 31.3792 1.06079 31.3792 1.3437 31.3792C3.2769 31.4028 5.96453 31.4263 9.28869 31.4735C9.71305 31.4735 10.1374 31.4735 10.5618 31.4735C36.6836 31.7564 3.04115 32.3694 37.0608 32.0864C37.5559 32.0864 38.0274 32.0864 38.4989 32.0864C41.3516 32.0629 44.0156 32.0157 46.4203 31.9921C46.7268 31.9921 47.0333 31.9921 47.3398 31.9921Z" fill="#C97B3A"/>
</g>
<g style="mix-blend-mode:overlay" opacity="0.5">
<path d="M38.8292 16.5265L47.1985 16.2672L47.4814 17.6346L38.7349 17.1631L38.8292 16.5265Z" fill="#FFDE55"/>
</g>
<g style="mix-blend-mode:overlay" opacity="0.5">
<path d="M40.0785 24.165L47.9292 24.2122C47.9292 24.2122 47.9527 26.8055 47.1276 30.1296C47.1276 30.1296 47.6463 25.9568 45.996 25.3674C44.3457 24.778 38.4753 24.7544 38.4753 24.7544L40.0785 24.1886V24.165Z" fill="#FFDE55"/>
</g>
<g style="mix-blend-mode:overlay" opacity="0.5">
<path d="M35.2927 33.7603L47.057 33.6896L46.8212 34.5383C46.8212 34.5383 45.6896 34.3261 40.2436 34.2082C34.3261 34.0668 29.5403 34.0432 29.5403 34.0432L35.3163 33.7603H35.2927Z" fill="#FFDE55"/>
</g>
<g style="mix-blend-mode:multiply" opacity="0.8">
<path d="M28.6915 37.8389H19.5677C8.18065 37.8389 7.85059 24.613 7.85059 23.1277C7.85059 21.6424 8.18065 8.39291 19.5677 8.39291H28.6915C40.0785 8.39291 40.4085 21.6188 40.4085 23.1277C40.4085 24.6365 40.0785 37.8389 28.6915 37.8389Z" fill="#9E4000"/>
</g>
<g style="mix-blend-mode:multiply" opacity="0.8">
<path fill-rule="evenodd" clip-rule="evenodd" d="M40.2948 25.1265C39.8701 21.0098 37.8826 12.3929 28.6915 12.3929H19.5677C10.3831 12.3929 8.39191 21.0127 7.96525 25.1265C7.86293 24.1415 7.85059 23.415 7.85059 23.1277C7.85059 21.6424 8.18065 8.39291 19.5677 8.39291H28.6915C40.0785 8.39291 40.4085 21.6188 40.4085 23.1277C40.4085 23.4186 40.3963 24.1444 40.2948 25.1265Z" fill="#9E4000"/>
</g>
<g filter="url(#filter0_d_31_10780)">
<path d="M18.9999 19.5833C18.5857 19.5833 18.2499 19.9191 18.2499 20.3333C18.2499 20.7475 18.5857 21.0833 18.9999 21.0833V19.5833ZM22.6666 21.0833C23.0808 21.0833 23.4166 20.7475 23.4166 20.3333C23.4166 19.9191 23.0808 19.5833 22.6666 19.5833V21.0833ZM32.744 26.7481L32.7886 27.4967L32.7896 27.4967L32.744 26.7481ZM33.6645 25.8933L34.4126 25.9462L34.4126 25.9459L33.6645 25.8933ZM33.6645 22.1067L34.4126 22.054L34.4126 22.0538L33.6645 22.1067ZM32.744 21.252L32.7895 20.5033L32.7895 20.5033L32.744 21.252ZM31.676 17.7406L31.1456 18.2709L31.1456 18.2709L31.676 17.7406ZM16.4072 17.7406L15.8769 17.2103L15.8769 17.2103L16.4072 17.7406ZM16.4072 30.2594L16.9375 29.729L16.9375 29.729L16.4072 30.2594ZM31.676 30.2594L31.1457 29.729L31.1456 29.729L31.676 30.2594ZM29.9919 23.25C29.5776 23.25 29.2419 23.5858 29.2419 24C29.2419 24.4142 29.5776 24.75 29.9919 24.75V23.25ZM29.9993 24.75C30.4135 24.75 30.7493 24.4142 30.7493 24C30.7493 23.5858 30.4135 23.25 29.9993 23.25V24.75ZM18.9999 21.0833H22.6666V19.5833H18.9999V21.0833ZM32.5971 20.5H30.2115V22H32.5971V20.5ZM30.2115 20.5C28.215 20.5 26.4999 22.0156 26.4999 24H27.9999C27.9999 22.9468 28.9368 22 30.2115 22V20.5ZM26.4999 24C26.4999 25.9844 28.215 27.5 30.2115 27.5V26C28.9368 26 27.9999 25.0532 27.9999 24H26.4999ZM30.2115 27.5H32.5971V26H30.2115V27.5ZM32.5971 27.5C32.6628 27.5 32.7284 27.5003 32.7886 27.4967L32.6993 25.9994C32.7006 25.9993 32.6968 25.9996 32.6793 25.9998C32.661 26 32.6369 26 32.5971 26V27.5ZM32.7896 27.4967C33.616 27.4463 34.3507 26.8224 34.4126 25.9462L32.9163 25.8404C32.9134 25.8823 32.8607 25.9896 32.6983 25.9995L32.7896 27.4967ZM34.4126 25.9459C34.417 25.883 34.4166 25.8151 34.4166 25.757H32.9166C32.9166 25.7942 32.9166 25.8154 32.9164 25.8312C32.9162 25.846 32.9159 25.8462 32.9163 25.8407L34.4126 25.9459ZM34.4166 25.757V22.243H32.9166V25.757H34.4166ZM34.4166 22.243C34.4166 22.1849 34.4171 22.1169 34.4126 22.054L32.9163 22.1594C32.9159 22.1537 32.9162 22.1539 32.9164 22.1687C32.9166 22.1845 32.9166 22.2058 32.9166 22.243H34.4166ZM34.4126 22.0538C34.3507 21.1777 33.616 20.5536 32.7895 20.5033L32.6984 22.0006C32.8606 22.0104 32.9134 22.1177 32.9163 22.1596L34.4126 22.0538ZM32.7895 20.5033C32.7287 20.4996 32.6625 20.5 32.5971 20.5V22C32.6369 22 32.6609 22 32.6791 22.0002C32.6965 22.0004 32.7001 22.0007 32.6984 22.0006L32.7895 20.5033ZM33.4672 21.2189C33.3956 19.4934 33.1678 18.1718 32.2063 17.2103L31.1456 18.2709C31.6658 18.7911 31.8976 19.574 31.9685 21.2811L33.4672 21.2189ZM32.2063 17.2103C31.5068 16.5107 30.6215 16.203 29.5398 16.0576C28.4798 15.9151 27.1238 15.9167 25.4166 15.9167V17.4167C27.1663 17.4167 28.4031 17.4182 29.34 17.5442C30.2553 17.6673 30.7713 17.8965 31.1456 18.2709L32.2063 17.2103ZM25.4166 15.9167H22.6666V17.4167H25.4166V15.9167ZM22.6666 15.9167C20.9593 15.9167 19.6034 15.9151 18.5433 16.0576C17.4617 16.203 16.5764 16.5107 15.8769 17.2103L16.9375 18.2709C17.3119 17.8965 17.8279 17.6673 18.7432 17.5442C19.6801 17.4182 20.9169 17.4167 22.6666 17.4167V15.9167ZM15.8769 17.2103C15.1773 17.9098 14.8696 18.7951 14.7242 19.8767C14.5817 20.9368 14.5833 22.2927 14.5833 24H16.0833C16.0833 22.2503 16.0848 21.0135 16.2108 20.0766C16.3339 19.1613 16.5631 18.6453 16.9375 18.2709L15.8769 17.2103ZM14.5833 24C14.5833 25.7073 14.5817 27.0632 14.7242 28.1233C14.8696 29.2049 15.1773 30.0902 15.8769 30.7897L16.9375 29.729C16.5631 29.3547 16.3339 28.8387 16.2108 27.9234C16.0848 26.9865 16.0833 25.7497 16.0833 24H14.5833ZM15.8769 30.7897C16.5764 31.4892 17.4617 31.797 18.5433 31.9424C19.6034 32.0849 20.9593 32.0833 22.6666 32.0833V30.5833C20.9169 30.5833 19.6801 30.5817 18.7432 30.4558C17.8279 30.3327 17.3119 30.1034 16.9375 29.729L15.8769 30.7897ZM22.6666 32.0833H25.4166V30.5833H22.6666V32.0833ZM25.4166 32.0833C27.1238 32.0833 28.4798 32.0849 29.5399 31.9424C30.6215 31.797 31.5068 31.4892 32.2063 30.7897L31.1456 29.729C30.7712 30.1034 30.2553 30.3327 29.34 30.4558C28.4031 30.5817 27.1663 30.5833 25.4166 30.5833V32.0833ZM32.2062 30.7897C33.1678 29.8283 33.3956 28.5065 33.4672 26.7811L31.9685 26.7189C31.8976 28.426 31.6658 29.2089 31.1457 29.729L32.2062 30.7897ZM29.9919 24.75H29.9993V23.25H29.9919V24.75Z" fill="white"/>
</g>
</g>
<defs>
<filter id="filter0_d_31_10780" x="14.5833" y="15.9167" width="19.8333" height="17.6667" filterUnits="userSpaceOnUse" color-interpolation-filters="sRGB">
<feFlood flood-opacity="0" result="BackgroundImageFix"/>
<feColorMatrix in="SourceAlpha" type="matrix" values="0 0 0 0 0 0 0 0 0 0 0 0 0 0 0 0 0 0 127 0" result="hardAlpha"/>
<feOffset dy="1.5"/>
<feComposite in2="hardAlpha" operator="out"/>
<feColorMatrix type="matrix" values="0 0 0 0 0.415686 0 0 0 0 0.12549 0 0 0 0 0.027451 0 0 0 1 0"/>
<feBlend mode="normal" in2="BackgroundImageFix" result="effect1_dropShadow_31_10780"/>
<feBlend mode="normal" in="SourceGraphic" in2="effect1_dropShadow_31_10780" result="shape"/>
</filter>
<linearGradient id="paint0_linear_31_10780" x1="24" y1="-0.353649" x2="24" y2="44.1336" gradientUnits="userSpaceOnUse">
<stop stop-color="#F0CA57"/>
<stop offset="1" stop-color="#D45B1A"/>
</linearGradient>
<linearGradient id="paint1_linear_31_10780" x1="0.943026" y1="34.0432" x2="44.5815" y2="34.0432" gradientUnits="userSpaceOnUse">
<stop stop-color="#F0CA57"/>
<stop offset="0.5" stop-color="#F7C850"/>
<stop offset="1" stop-color="#FEC649"/>
</linearGradient>
<clipPath id="clip0_31_10780">
<rect width="48" height="51.8664" fill="white"/>
</clipPath>
</defs>
</svg>
