<svg width="50" height="54" viewBox="0 0 50 54" fill="none" xmlns="http://www.w3.org/2000/svg">
<g clip-path="url(#clip0_1082_140823)">
<path d="M49.9481 25.3278C49.9619 25.1812 49.9619 25.0337 49.9481 24.8871C49.9481 24.4464 49.9481 24.0057 49.8185 23.5909C49.5634 21.2585 49.0145 18.9676 48.1846 16.7728C48.029 16.3321 47.8475 15.9173 47.666 15.5026C46.4372 12.6561 44.5954 10.1156 42.2718 8.06233C41.7359 7.57069 41.1637 7.12007 40.5602 6.71428C37.1794 4.43392 33.175 3.25657 29.0975 3.34414H20.9284C16.5854 3.25075 12.333 4.59235 8.83039 7.1609C5.32783 9.72945 2.77087 13.3814 1.55602 17.5506C1.55602 17.9913 1.27075 18.432 1.14108 18.8468C1.01141 19.2616 0.907676 19.7023 0.803942 20.1171C0.700207 20.5318 0.622407 20.9726 0.544606 21.4133C0.272195 22.7126 0.0902238 24.0292 0 25.3537C0 25.9241 0 26.4685 0 27.0388C-3.81106e-06 28.9357 0.18237 30.8282 0.544606 32.6903C0.544606 33.131 0.726141 33.5717 0.829875 33.9865C0.93361 34.4013 1.14108 35.2827 1.34855 35.9049L1.81535 37.227C2.68206 39.5599 3.91654 41.7391 5.47199 43.6821C5.78319 44.071 6.12033 44.4339 6.45747 44.7969C8.31929 46.7441 10.5695 48.2787 13.0623 49.3013C15.5551 50.324 18.235 50.8119 20.9284 50.7335H29.0975C31.812 50.813 34.5125 50.3157 37.0205 49.2744C39.5285 48.2332 41.7868 46.6717 43.6463 44.6932C44.0093 44.3043 44.3724 43.8636 44.7095 43.4488C46.7286 40.8335 48.1934 37.8345 49.0145 34.6346C49.1442 34.1939 49.2479 33.7532 49.3257 33.3384C49.782 31.2698 50.0081 29.1571 50 27.0388C50 26.4685 49.9741 25.9241 49.9481 25.3278ZM20.9284 41.9711C19.6745 41.9946 18.4242 41.8286 17.2199 41.4786C15.1481 40.8667 13.3291 39.603 12.0332 37.8751C11.7062 37.4392 11.4115 36.9799 11.1515 36.5011C10.72 35.7481 10.3556 34.9587 10.0622 34.142C9.89204 33.7094 9.74488 33.2681 9.62137 32.8199C9.11155 30.9431 8.84142 29.0093 8.81743 27.0647C8.81743 26.8055 8.81743 26.2092 8.81743 25.3797C8.92143 24.1459 9.12964 22.9231 9.43983 21.7244C9.54568 21.294 9.67556 20.8699 9.82884 20.4541C10.019 19.901 10.2265 19.3566 10.4512 18.8209C10.6501 18.3758 10.8752 17.943 11.1255 17.5246C12.0658 15.7736 13.4897 14.3295 15.2276 13.3643C16.9656 12.3992 18.9444 11.9536 20.9284 12.0806H29.0975C30.7038 12.0032 32.3061 12.3001 33.7778 12.948C35.2495 13.5959 36.5505 14.5769 37.5778 15.8137C37.9179 16.2151 38.2298 16.6395 38.5114 17.0839C39.6941 19.0648 40.4781 21.2576 40.8195 23.539C40.9147 23.9743 40.9754 24.4164 41.001 24.8612C41.0137 25.0251 41.0137 25.1898 41.001 25.3537C41.001 26.1833 41.001 26.7796 41.001 27.0388C40.965 29.212 40.6156 31.3686 39.9637 33.4421C39.8354 33.8835 39.6794 34.3164 39.4969 34.7383C38.7506 36.9189 37.3204 38.8006 35.4188 40.1037C33.5172 41.4068 31.2457 42.0617 28.9419 41.9711H20.9284Z" fill="#9E4000"/>
<path d="M49.274 16.9544C49.274 16.5137 49.0406 16.073 48.911 15.6582C48.175 13.01 47.0004 10.5039 45.4358 8.24386C45.1246 7.77722 44.7616 7.33651 44.4244 6.92173C42.5695 4.67303 40.2231 2.87969 37.566 1.67971C34.9089 0.479725 32.0118 -0.0949232 29.0977 -1.95373e-05H20.9286C18.1459 -0.0309876 15.3854 0.49799 12.8114 1.55543C11.9753 1.9031 11.1612 2.30134 10.3736 2.74794C7.80847 4.45434 5.62156 6.66957 3.94862 9.25611C2.27567 11.8427 1.15239 14.7453 0.648507 17.7839C0.648507 18.2247 0.466972 18.6654 0.389171 19.1061C0.31137 19.5468 0.389171 19.9356 0.207635 20.3764C0.0261002 20.8171 0.207635 21.2319 0.207635 21.6726C0.207635 22.1133 0.207635 23.228 0.207635 24.0057C0.207635 24.7835 0.207635 25.1205 0.207635 25.6908C0.344935 28.2174 0.797971 30.7169 1.55618 33.131L2.02299 34.4532C2.28232 35.1272 2.56759 35.8012 2.8788 36.4493L3.579 37.7974C5.25601 40.9586 7.78403 43.5879 10.8774 45.3882C13.9708 47.1886 17.5062 48.0883 21.0842 47.9856H29.2533C32.9953 48.0539 36.6808 47.0655 39.8861 45.1339C40.4944 44.7489 41.0829 44.3336 41.6495 43.8896C44.4885 41.5495 46.6841 38.5249 48.0292 35.1013C48.2161 34.6693 48.3806 34.228 48.5219 33.7791C49.4358 31.1642 49.9686 28.4315 50.1039 25.6649C50.1168 25.5096 50.1168 25.3535 50.1039 25.1983C50.1039 24.7835 50.1039 24.3946 50.1039 24.0057C50.0953 21.6315 49.8169 19.2658 49.274 16.9544ZM41.0531 25.6908C40.6724 28.1726 39.7227 30.5327 38.2782 32.5866C37.9929 33.0273 37.0593 34.2199 36.7222 34.6346C35.8762 35.8433 34.725 36.8064 33.3857 37.4257C32.0464 38.045 30.5669 38.2985 29.0977 38.1603H20.9286C19.7338 38.0684 18.561 37.7884 17.4535 37.3307C16.5913 37.1656 15.7764 36.8115 15.0676 36.2938L13.9265 35.7235C12.9151 34.9976 12.4742 35.5679 11.8259 34.5828C11.5185 34.1673 11.2494 33.7247 11.022 33.2607C9.8438 30.9057 9.13895 28.3428 8.94726 25.7167C8.94726 24.8872 8.94726 24.2909 8.94726 24.0317C8.91083 23.3495 8.91083 22.6658 8.94726 21.9837C8.94726 21.5948 8.94726 21.1541 9.1288 20.6874C9.31033 20.2208 9.31033 19.6246 9.44 19.0802C9.56967 18.5357 9.64747 18.1987 9.77714 17.758C10.3038 15.207 11.7075 12.9208 13.7446 11.2965C15.7816 9.67221 18.3234 8.81228 20.9286 8.86604H29.0977C31.3528 8.79985 33.571 9.44892 35.4344 10.7203C37.2979 11.9916 38.7109 13.8199 39.4711 15.9433C39.6527 16.384 39.8342 16.8248 39.9639 17.2395C40.6475 19.379 41.0229 21.6049 41.079 23.8502V24.0057C41.079 24.1872 41.079 24.602 41.079 25.1723C41.0819 25.3455 41.0733 25.5188 41.0531 25.6908Z" fill="url(#paint0_linear_1082_140823)"/>
<g opacity="0.5">
<path d="M29.0979 46.3524H20.9288C6.84685 46.3524 0.18191 34.4273 0.0263089 23.0207C0.0133658 23.2624 0.0133658 23.5048 0.0263089 23.7465C0.0263089 35.3087 6.56158 47.7523 20.9547 47.7523H29.1238C43.491 47.7523 50.0263 35.3087 50.0263 23.7465C50.0393 23.5048 50.0393 23.2624 50.0263 23.0207C49.7151 34.4273 43.1539 46.3524 29.0979 46.3524Z" fill="url(#paint1_linear_1082_140823)"/>
</g>
<g style="mix-blend-mode:multiply" opacity="0.4">
<path d="M49.2735 16.747H48.2362L40.119 17.0063H38.5889C3.3451 17.9655 37.0847 18.5099 10.6584 18.7173H9.46544H1.14075H0.388672C0.388672 18.2765 0.544274 17.8358 0.648008 17.4211H1.55568H9.80257H11.2549C37.8368 17.2914 2.59303 16.747 37.5775 15.8138H39.5484L47.6397 15.5545H48.8327C48.9623 15.8656 49.0661 16.3063 49.2735 16.747Z" fill="#C97B3A"/>
<path d="M50 23.5911C50 23.9799 50 24.3688 50 24.7836H41.001C6.58714 24.5502 36.7998 22.5541 9.5695 21.6986H8.97303L0.544606 21.4134H0C0 20.9986 0 20.5579 0 20.1431H0.803942L9.15456 20.4283H9.95851C37.3444 21.2579 6.53527 23.3318 40.8195 23.5651H50V23.5911Z" fill="#C97B3A"/>
<path d="M49.2742 33.3385C49.2742 33.7533 49.0667 34.194 48.963 34.6348H47.8219H39.6009H37.6559C31.5097 34.6348 48.0294 34.6348 47.8219 34.6348C32.2617 34.6348 34.4142 34.194 11.7742 33.9348H10.1144H1.86754H0.830192L0.544922 32.6386H1.40073H9.69949H11.0221C38.2524 32.9497 3.24202 33.5719 38.6155 33.2867H40.1196H48.3665L49.2742 33.3385Z" fill="#C97B3A"/>
</g>
<g style="mix-blend-mode:overlay" opacity="0.5">
<path d="M40.4563 17.2136L49.17 16.9543L49.4552 18.3542L40.3525 17.8617L40.4563 17.2136Z" fill="#FFDE55"/>
</g>
<g style="mix-blend-mode:overlay" opacity="0.5">
<path d="M41.7539 25.1722H49.923C49.8814 27.2452 49.6029 29.3065 49.0931 31.3163C49.0931 31.3163 49.6377 26.9869 47.9002 26.3648C45.3327 25.9069 42.728 25.6899 40.1201 25.7167L41.7539 25.1722Z" fill="#FFDE55"/>
</g>
<g style="mix-blend-mode:overlay" opacity="0.5">
<path d="M36.7734 35.1531H49.0141L48.7807 36.0346C46.4974 35.8019 44.2034 35.6894 41.9083 35.6976C35.7361 35.542 30.7568 35.5161 30.7568 35.5161L36.7734 35.1531Z" fill="#FFDE55"/>
</g>
<g style="mix-blend-mode:multiply" opacity="0.7">
<path d="M30.0306 42.7127H20.513C8.66136 42.7127 8.32422 26.947 8.32422 25.3656C8.32422 23.7842 8.66136 8.04442 20.513 8.04442H30.0306C41.9082 8.04442 42.2454 23.8101 42.2454 25.3656C42.2454 26.921 41.9082 42.7127 30.0306 42.7127Z" fill="#9E4000"/>
</g>
<g style="mix-blend-mode:multiply" opacity="0.2">
<path d="M40.4566 25.7762C40.301 28.0057 39.3414 34.6682 34.5437 36.9754C31.7138 38.1543 28.6751 38.7504 25.6093 38.7282C22.5436 38.7059 19.5139 38.0657 16.7014 36.8458C11.6703 34.2275 10.5292 28.0057 10.3736 25.7762C10.3736 26.3465 9.12876 40.6307 21.3435 40.6307H29.4866C41.7014 40.6307 40.4825 26.3465 40.4566 25.7762Z" fill="#1B8943"/>
</g>
<g clip-path="url(#clip1_1082_140823)">
<g filter="url(#filter0_d_1082_140823)">
<path d="M16.667 20H30.0003C31.8413 20 33.3337 21.4924 33.3337 23.3333V30C33.3337 31.841 31.8413 33.3333 30.0003 33.3333H20.0003C18.1594 33.3333 16.667 31.841 16.667 30V20Z" stroke="url(#paint2_linear_1082_140823)" stroke-width="2" stroke-linejoin="round" shape-rendering="crispEdges"/>
</g>
<path d="M16.667 20C16.667 18.1591 18.1594 16.6667 20.0003 16.6667H25.0003C26.8413 16.6667 28.3337 18.1591 28.3337 20H16.667Z" stroke="url(#paint3_linear_1082_140823)" stroke-width="2" stroke-linejoin="round"/>
<g filter="url(#filter1_d_1082_140823)">
<path d="M33.333 25L33.333 28.3333H29.9997C29.0792 28.3333 28.333 27.5871 28.333 26.6667C28.333 25.7462 29.0792 25 29.9997 25L33.333 25Z" stroke="url(#paint4_linear_1082_140823)" stroke-width="2" stroke-linejoin="round" shape-rendering="crispEdges"/>
</g>
</g>
</g>
<defs>
<filter id="filter0_d_1082_140823" x="15.667" y="19" width="18.667" height="16.3333" filterUnits="userSpaceOnUse" color-interpolation-filters="sRGB">
<feFlood flood-opacity="0" result="BackgroundImageFix"/>
<feColorMatrix in="SourceAlpha" type="matrix" values="0 0 0 0 0 0 0 0 0 0 0 0 0 0 0 0 0 0 127 0" result="hardAlpha"/>
<feOffset dy="1"/>
<feComposite in2="hardAlpha" operator="out"/>
<feColorMatrix type="matrix" values="0 0 0 0 0.619608 0 0 0 0 0.188235 0 0 0 0 0.0392157 0 0 0 1 0"/>
<feBlend mode="normal" in2="BackgroundImageFix" result="effect1_dropShadow_1082_140823"/>
<feBlend mode="normal" in="SourceGraphic" in2="effect1_dropShadow_1082_140823" result="shape"/>
</filter>
<filter id="filter1_d_1082_140823" x="27.333" y="24" width="7" height="6.33334" filterUnits="userSpaceOnUse" color-interpolation-filters="sRGB">
<feFlood flood-opacity="0" result="BackgroundImageFix"/>
<feColorMatrix in="SourceAlpha" type="matrix" values="0 0 0 0 0 0 0 0 0 0 0 0 0 0 0 0 0 0 127 0" result="hardAlpha"/>
<feOffset dy="1"/>
<feComposite in2="hardAlpha" operator="out"/>
<feColorMatrix type="matrix" values="0 0 0 0 0.619608 0 0 0 0 0.188235 0 0 0 0 0.0392157 0 0 0 1 0"/>
<feBlend mode="normal" in2="BackgroundImageFix" result="effect1_dropShadow_1082_140823"/>
<feBlend mode="normal" in="SourceGraphic" in2="effect1_dropShadow_1082_140823" result="shape"/>
</filter>
<linearGradient id="paint0_linear_1082_140823" x1="25.0002" y1="-0.388882" x2="25.0002" y2="45.9635" gradientUnits="userSpaceOnUse">
<stop stop-color="#F0CA57"/>
<stop offset="1" stop-color="#D45B1A"/>
</linearGradient>
<linearGradient id="paint1_linear_1082_140823" x1="0.985852" y1="35.4643" x2="46.4734" y2="35.4643" gradientUnits="userSpaceOnUse">
<stop stop-color="#F0CA57"/>
<stop offset="0.5" stop-color="#F7C850"/>
<stop offset="1" stop-color="#FEC649"/>
</linearGradient>
<linearGradient id="paint2_linear_1082_140823" x1="24.9713" y1="20" x2="24.9713" y2="33.3333" gradientUnits="userSpaceOnUse">
<stop stop-color="#EBAF4A"/>
<stop offset="1" stop-color="#DE7E2E"/>
</linearGradient>
<linearGradient id="paint3_linear_1082_140823" x1="22.48" y1="16.6667" x2="22.48" y2="20" gradientUnits="userSpaceOnUse">
<stop stop-color="#DE7E2E"/>
<stop offset="1" stop-color="#EBAF4A"/>
</linearGradient>
<linearGradient id="paint4_linear_1082_140823" x1="30.8243" y1="25" x2="30.8243" y2="28.3333" gradientUnits="userSpaceOnUse">
<stop stop-color="#EBAF4A"/>
<stop offset="1" stop-color="#DE7E2E"/>
</linearGradient>
<clipPath id="clip0_1082_140823">
<rect width="50" height="54" fill="white"/>
</clipPath>
<clipPath id="clip1_1082_140823">
<rect width="20" height="20" fill="white" transform="translate(15 15)"/>
</clipPath>
</defs>
</svg>
