<svg width="42" height="45" viewBox="0 0 42 45" fill="none" xmlns="http://www.w3.org/2000/svg">
<g clip-path="url(#clip0_1082_140823)">
<path d="M41.9564 21.1065C41.968 20.9844 41.968 20.8614 41.9564 20.7393C41.9564 20.372 41.9564 20.0047 41.8475 19.6591C41.6333 17.7154 41.1721 15.8064 40.4751 13.9774C40.3444 13.6101 40.1919 13.2645 40.0394 12.9188C39.0072 10.5467 37.4601 8.42971 35.5083 6.71861C35.0581 6.30891 34.5775 5.93339 34.0705 5.59523C31.2307 3.69493 27.867 2.71381 24.4419 2.78678H17.5799C13.9318 2.70896 10.3597 3.82696 7.41753 5.96742C4.47537 8.10788 2.32753 11.1512 1.30705 14.6255C1.30705 14.9927 1.06743 15.36 0.958506 15.7057C0.849585 16.0513 0.762448 16.4186 0.675311 16.7642C0.588174 17.1099 0.522821 17.4771 0.457469 17.8444C0.228644 18.9272 0.075788 20.0244 0 21.1281C0 21.6034 0 22.0571 0 22.5323C-3.20129e-06 24.1131 0.153191 25.6902 0.457469 27.2419C0.457469 27.6092 0.609958 27.9764 0.697095 28.3221C0.784232 28.6677 0.958506 29.4022 1.13278 29.9207L1.5249 31.0225C2.25293 32.9666 3.28989 34.7826 4.59647 36.4018C4.85788 36.7258 5.14108 37.0283 5.42427 37.3307C6.9882 38.9534 8.87835 40.2322 10.9723 41.0845C13.0663 41.9367 15.3174 42.3433 17.5799 42.2779H24.4419C26.7221 42.3442 28.9905 41.9297 31.0972 41.062C33.2039 40.1943 35.1009 38.8931 36.6629 37.2443C36.9678 36.9202 37.2728 36.553 37.556 36.2073C39.252 34.028 40.4824 31.5287 41.1722 28.8622C41.2811 28.4949 41.3683 28.1276 41.4336 27.782C41.8168 26.0581 42.0068 24.2976 42 22.5323C42 22.0571 41.9782 21.6034 41.9564 21.1065ZM17.5799 34.9759C16.5266 34.9955 15.4763 34.8571 14.4647 34.5655C12.7244 34.0556 11.1964 33.0025 10.1079 31.5626C9.83324 31.1993 9.58569 30.8166 9.36722 30.4176C9.00482 29.7901 8.69867 29.1323 8.45228 28.4517C8.30931 28.0912 8.1857 27.7234 8.08195 27.3499C7.6537 25.7859 7.4268 24.1745 7.40664 22.5539C7.40664 22.3379 7.40664 21.841 7.40664 21.1497C7.494 20.1216 7.6689 19.1026 7.92946 18.1036C8.01837 17.745 8.12747 17.3916 8.25622 17.0451C8.41597 16.5842 8.59025 16.1305 8.77904 15.684C8.94607 15.3132 9.1352 14.9525 9.34543 14.6039C10.1353 13.1446 11.3313 11.9412 12.7912 11.1369C14.2511 10.3326 15.9133 9.9613 17.5799 10.0671H24.4419C25.7912 10.0026 27.1371 10.2501 28.3733 10.79C29.6096 11.3299 30.7024 12.1474 31.5653 13.178C31.851 13.5126 32.113 13.8663 32.3496 14.2366C33.343 15.8873 34.0016 17.7147 34.2884 19.6159C34.3683 19.9786 34.4193 20.347 34.4409 20.7177C34.4515 20.8543 34.4515 20.9915 34.4409 21.1281C34.4409 21.8194 34.4409 22.3163 34.4409 22.5323C34.4106 24.3433 34.1171 26.1405 33.5695 27.8684C33.4617 28.2362 33.3307 28.597 33.1774 28.9486C32.5505 30.7657 31.3491 32.3338 29.7518 33.4197C28.1544 34.5057 26.2463 35.0514 24.3112 34.9759H17.5799Z" fill="#9E4000"/>
<path d="M41.39 14.1287C41.39 13.7614 41.1939 13.3942 41.085 13.0485C40.4668 10.8417 39.4801 8.75329 38.1659 6.86992C37.9045 6.48105 37.5995 6.11379 37.3163 5.76814C35.7581 3.89422 33.7872 2.39978 31.5553 1.39979C29.3233 0.399804 26.8897 -0.0790696 24.4419 1.67798e-05H17.5798C15.2423 -0.0257899 12.9235 0.415025 10.7614 1.29622C10.0591 1.58595 9.37523 1.91781 8.71364 2.28998C6.55892 3.71199 4.72192 5.558 3.31664 7.71346C1.91137 9.86892 0.967816 12.2878 0.54455 14.82C0.54455 15.1872 0.392061 15.5545 0.326708 15.9218C0.261355 16.289 0.326708 16.6131 0.174218 16.9803C0.0217289 17.3476 0.174218 17.6932 0.174218 18.0605C0.174218 18.4278 0.174218 19.3567 0.174218 20.0048C0.174218 20.6529 0.174218 20.9338 0.174218 21.409C0.28955 23.5145 0.6701 25.5974 1.307 27.6092L1.69911 28.711C1.91696 29.2727 2.15658 29.8344 2.41799 30.3745L3.00617 31.4979C4.41486 34.1322 6.53839 36.3233 9.13682 37.8236C11.7352 39.3239 14.705 40.0736 17.7105 39.988H24.5726C27.7159 40.045 30.8116 39.2213 33.5041 37.6116C34.0151 37.2908 34.5095 36.9447 34.9854 36.5747C37.3701 34.6246 39.2145 32.1042 40.3443 29.2511C40.5014 28.8912 40.6395 28.5234 40.7582 28.1493C41.5259 25.9702 41.9734 23.6929 42.0871 21.3874C42.0979 21.258 42.0979 21.128 42.0871 20.9986C42.0871 20.6529 42.0871 20.3289 42.0871 20.0048C42.0799 18.0262 41.846 16.0549 41.39 14.1287ZM34.4844 21.409C34.1646 23.4772 33.3669 25.4439 32.1535 27.1556C31.9138 27.5228 31.1296 28.5166 30.8464 28.8622C30.1358 29.8695 29.1688 30.672 28.0438 31.1881C26.9188 31.7042 25.676 31.9154 24.4419 31.8003H17.5798C16.5762 31.7237 15.591 31.4903 14.6607 31.109C13.9365 30.9714 13.252 30.6763 12.6566 30.2449L11.6981 29.7696C10.8485 29.1647 10.4782 29.64 9.93355 28.819C9.67536 28.4727 9.44933 28.104 9.25824 27.7172C8.2686 25.7548 7.67652 23.619 7.5155 21.4306C7.5155 20.7393 7.5155 20.2425 7.5155 20.0264C7.4849 19.4579 7.4849 18.8882 7.5155 18.3197C7.5155 17.9957 7.5155 17.6284 7.66799 17.2396C7.82048 16.8507 7.82048 16.3538 7.92941 15.9002C8.03833 15.4465 8.10368 15.1656 8.2126 14.7984C8.65499 12.6725 9.83411 10.7674 11.5452 9.4138C13.2564 8.06021 15.3915 7.3436 17.5798 7.3884H24.4419C26.3361 7.33324 28.1994 7.87413 29.7647 8.93358C31.33 9.99303 32.517 11.5167 33.1555 13.2861C33.308 13.6534 33.4605 14.0207 33.5694 14.3663C34.1437 16.1492 34.4591 18.0041 34.5062 19.8752V20.0048C34.5062 20.156 34.5062 20.5017 34.5062 20.977C34.5086 21.1213 34.5013 21.2657 34.4844 21.409Z" fill="url(#paint0_linear_1082_140823)"/>
<g opacity="0.5">
<path d="M24.4419 38.627H17.5799C5.75108 38.627 0.152531 28.6894 0.021826 19.1839C0.0109538 19.3854 0.0109538 19.5873 0.021826 19.7888C0.021826 29.4239 5.51145 39.7936 17.6017 39.7936H24.4637C36.5322 39.7936 42.0218 29.4239 42.0218 19.7888C42.0327 19.5873 42.0327 19.3854 42.0218 19.1839C41.7604 28.6894 36.249 38.627 24.4419 38.627Z" fill="url(#paint1_linear_1082_140823)"/>
</g>
<g style="mix-blend-mode:multiply" opacity="0.4">
<path d="M41.3894 13.9559H40.5181L33.6996 14.1719H32.4143C2.80958 14.9712 31.1509 15.4249 8.95273 15.5977H7.95065H0.957915H0.326172C0.326172 15.2305 0.456877 14.8632 0.544014 14.5175H1.30646H8.23385H9.45377C31.7826 14.4095 2.17783 13.9559 31.5648 13.1781H33.2204L40.017 12.9621H41.0191C41.128 13.2213 41.2152 13.5886 41.3894 13.9559Z" fill="#C97B3A"/>
<path d="M42 19.6592C42 19.9833 42 20.3073 42 20.653H34.4409C5.53319 20.4585 30.9118 18.7951 8.03838 18.0822H7.53734L0.457469 17.8445H0C0 17.4989 0 17.1316 0 16.7859H0.675311L7.68983 17.0236H8.36514C31.3693 17.7149 5.48963 19.4432 34.2884 19.6376H42V19.6592Z" fill="#C97B3A"/>
<path d="M41.3896 27.7821C41.3896 28.1278 41.2153 28.495 41.1282 28.8623H40.1697H33.2641H31.6303C26.4674 28.8623 40.344 28.8623 40.1697 28.8623C27.0991 28.8623 28.9072 28.495 9.8896 28.279H8.49541H1.56803H0.696658L0.457031 27.1988H1.17591H8.14686H9.25786C32.1313 27.4581 2.72259 27.9766 32.4363 27.7389H33.6998H40.6272L41.3896 27.7821Z" fill="#C97B3A"/>
</g>
<g style="mix-blend-mode:overlay" opacity="0.5">
<path d="M33.9836 14.3447L41.3031 14.1286L41.5427 15.2952L33.8965 14.8847L33.9836 14.3447Z" fill="#FFDE55"/>
</g>
<g style="mix-blend-mode:overlay" opacity="0.5">
<path d="M35.0726 20.9769H41.9346C41.8997 22.7043 41.6658 24.4221 41.2375 26.0969C41.2375 26.0969 41.695 22.4891 40.2355 21.9706C38.0788 21.5891 35.8908 21.4083 33.7002 21.4305L35.0726 20.9769Z" fill="#FFDE55"/>
</g>
<g style="mix-blend-mode:overlay" opacity="0.5">
<path d="M30.8899 29.2943H41.172L40.976 30.0288C39.058 29.8349 37.1311 29.7412 35.2032 29.748C30.0185 29.6183 25.8359 29.5967 25.8359 29.5967L30.8899 29.2943Z" fill="#FFDE55"/>
</g>
<g style="mix-blend-mode:multiply" opacity="0.7">
<path d="M25.2256 35.5939H17.2308C7.27538 35.5939 6.99219 22.4558 6.99219 21.138C6.99219 19.8202 7.27538 6.70369 17.2308 6.70369H25.2256C35.2028 6.70369 35.486 19.8418 35.486 21.138C35.486 22.4342 35.2028 35.5939 25.2256 35.5939Z" fill="#9E4000"/>
</g>
<g style="mix-blend-mode:multiply" opacity="0.2">
<path d="M33.9833 21.4802C33.8526 23.3381 33.0466 28.8901 29.0165 30.8129C26.6393 31.7953 24.0868 32.292 21.5116 32.2735C18.9364 32.2549 16.3914 31.7214 14.0289 30.7048C9.80278 28.5229 8.84427 23.3381 8.71357 21.4802C8.71357 21.9554 7.66792 33.8589 17.9283 33.8589H24.7685C35.0289 33.8589 34.0051 21.9554 33.9833 21.4802Z" fill="#1B8943"/>
</g>
<g clip-path="url(#clip1_1082_140823)">
<g filter="url(#filter0_d_1082_140823)">
<path d="M14 16.6667H25.2C26.7464 16.6667 28 17.9103 28 19.4444V25C28 26.5341 26.7464 27.7778 25.2 27.7778H16.8C15.2536 27.7778 14 26.5341 14 25V16.6667Z" stroke="url(#paint2_linear_1082_140823)" stroke-width="2" stroke-linejoin="round" shape-rendering="crispEdges"/>
</g>
<path d="M14 16.6667C14 15.1325 15.2536 13.8889 16.8 13.8889H21C22.5464 13.8889 23.8 15.1325 23.8 16.6667H14Z" stroke="url(#paint3_linear_1082_140823)" stroke-width="2" stroke-linejoin="round"/>
<g filter="url(#filter1_d_1082_140823)">
<path d="M27.9998 20.8333L27.9998 23.6111H25.1998C24.4266 23.6111 23.7998 22.9893 23.7998 22.2222C23.7998 21.4552 24.4266 20.8333 25.1998 20.8333L27.9998 20.8333Z" stroke="url(#paint4_linear_1082_140823)" stroke-width="2" stroke-linejoin="round" shape-rendering="crispEdges"/>
</g>
</g>
</g>
<defs>
<filter id="filter0_d_1082_140823" x="13" y="15.6667" width="16" height="14.1111" filterUnits="userSpaceOnUse" color-interpolation-filters="sRGB">
<feFlood flood-opacity="0" result="BackgroundImageFix"/>
<feColorMatrix in="SourceAlpha" type="matrix" values="0 0 0 0 0 0 0 0 0 0 0 0 0 0 0 0 0 0 127 0" result="hardAlpha"/>
<feOffset dy="1"/>
<feComposite in2="hardAlpha" operator="out"/>
<feColorMatrix type="matrix" values="0 0 0 0 0.619608 0 0 0 0 0.188235 0 0 0 0 0.0392157 0 0 0 1 0"/>
<feBlend mode="normal" in2="BackgroundImageFix" result="effect1_dropShadow_1082_140823"/>
<feBlend mode="normal" in="SourceGraphic" in2="effect1_dropShadow_1082_140823" result="shape"/>
</filter>
<filter id="filter1_d_1082_140823" x="22.7998" y="19.8333" width="6.2002" height="5.77778" filterUnits="userSpaceOnUse" color-interpolation-filters="sRGB">
<feFlood flood-opacity="0" result="BackgroundImageFix"/>
<feColorMatrix in="SourceAlpha" type="matrix" values="0 0 0 0 0 0 0 0 0 0 0 0 0 0 0 0 0 0 127 0" result="hardAlpha"/>
<feOffset dy="1"/>
<feComposite in2="hardAlpha" operator="out"/>
<feColorMatrix type="matrix" values="0 0 0 0 0.619608 0 0 0 0 0.188235 0 0 0 0 0.0392157 0 0 0 1 0"/>
<feBlend mode="normal" in2="BackgroundImageFix" result="effect1_dropShadow_1082_140823"/>
<feBlend mode="normal" in="SourceGraphic" in2="effect1_dropShadow_1082_140823" result="shape"/>
</filter>
<linearGradient id="paint0_linear_1082_140823" x1="20.9999" y1="-0.324035" x2="20.9999" y2="38.3029" gradientUnits="userSpaceOnUse">
<stop stop-color="#F0CA57"/>
<stop offset="1" stop-color="#D45B1A"/>
</linearGradient>
<linearGradient id="paint1_linear_1082_140823" x1="0.827843" y1="29.5535" x2="39.0374" y2="29.5535" gradientUnits="userSpaceOnUse">
<stop stop-color="#F0CA57"/>
<stop offset="0.5" stop-color="#F7C850"/>
<stop offset="1" stop-color="#FEC649"/>
</linearGradient>
<linearGradient id="paint2_linear_1082_140823" x1="20.9756" y1="16.6667" x2="20.9756" y2="27.7778" gradientUnits="userSpaceOnUse">
<stop stop-color="#EBAF4A"/>
<stop offset="1" stop-color="#DE7E2E"/>
</linearGradient>
<linearGradient id="paint3_linear_1082_140823" x1="18.8829" y1="13.8889" x2="18.8829" y2="16.6667" gradientUnits="userSpaceOnUse">
<stop stop-color="#DE7E2E"/>
<stop offset="1" stop-color="#EBAF4A"/>
</linearGradient>
<linearGradient id="paint4_linear_1082_140823" x1="25.8925" y1="20.8333" x2="25.8925" y2="23.6111" gradientUnits="userSpaceOnUse">
<stop stop-color="#EBAF4A"/>
<stop offset="1" stop-color="#DE7E2E"/>
</linearGradient>
<clipPath id="clip0_1082_140823">
<rect width="42" height="45" fill="white"/>
</clipPath>
<clipPath id="clip1_1082_140823">
<rect width="16.8" height="16.6667" fill="white" transform="translate(12.5996 12.5)"/>
</clipPath>
</defs>
</svg>
