<svg width="41" height="39" viewBox="0 0 41 39" fill="none" xmlns="http://www.w3.org/2000/svg">
<g clip-path="url(#clip0_24_39487)">
<path style="mix-blend-mode:screen" opacity="0.5" d="M5.18186 10.1047C3.86652 13.8507 7.81255 23.3747 6.82604 24.2313C5.83953 25.0878 3.86652 23.8036 3.86652 23.8036C3.86652 23.8036 5.72082 27.0698 7.47896 27.2274C24.5832 28.762 11.8714 -4.91441 26.3377 13.3512C27.8217 15.2242 13.4396 22.3408 18.5917 25.7647C23.7439 29.1886 35.2116 23.6958 39.0519 20.914C42.8923 18.1323 34.8827 15.2347 35.874 16.9535C36.8652 18.6724 38.7231 21.0207 36.2028 22.0905C33.6825 23.1603 26.3377 17.2746 28.6396 15.1361C30.9414 12.9977 36.3488 16.5977 37.0065 13.0661C37.6642 9.53441 35.8835 -3.05296 26.885 0.687317C25.2978 1.34682 30.9414 3.89791 28.0911 7.32177C25.2408 10.7456 21.0764 8.92475 20.966 5.60984C20.8556 2.29493 6.4972 6.35859 5.18186 10.1047Z" fill="url(#paint0_radial_24_39487)"/>
<path style="mix-blend-mode:screen" opacity="0.5" d="M33.6042 33.424C40.8814 26.3189 40.8814 14.7993 33.6042 7.69419C26.327 0.589089 14.5283 0.58909 7.25114 7.69419C-0.0260532 14.7993 -0.0260532 26.3189 7.25114 33.424C14.5283 40.5291 26.327 40.5291 33.6042 33.424Z" fill="url(#paint1_radial_24_39487)"/>
<path d="M17.9435 1.83131C16.957 2.25901 15.5693 3.22218 15.276 4.36386L14.984 5.50553C14.984 5.50553 13.3766 3.79244 12.0245 4.64899C10.6723 5.50553 10.0147 6.43278 10.0515 8.074C10.0883 9.71523 10.5631 11.8549 10.3803 11.8908C10.1975 11.9267 8.62691 11.3912 7.85883 13.1032C7.09076 14.8151 8.19123 18.1694 9.32019 19.8106C10.4492 21.4519 10.9288 22.3432 10.7091 23.2704C10.4895 24.1977 9.86865 27.5856 9.64903 27.6586C9.42941 27.7316 8.5533 23.2704 6.72631 22.2354C4.89931 21.2003 4.05882 21.4159 2.9999 22.5217C1.94098 23.6274 0.118727 26.9087 1.37161e-05 27.2657C-0.1187 27.6227 2.30186 25.6245 4.78653 26.0174C7.2712 26.4103 8.98779 28.1929 8.98779 28.6566C8.98779 29.1202 7.74605 31.582 7.96567 32.1534C8.18529 32.7249 8.98779 33.4725 10.3031 33.4377L14.8012 9.64337L17.9435 1.83131Z" fill="#FFE09E"/>
<path d="M27.5166 10.7491C22.5472 12.1052 23.2773 17.919 23.0221 17.919C22.7668 17.919 20.6834 16.9918 19.7337 18.2053C18.784 19.4189 18.492 23.7688 18.492 25.5178C18.492 27.2668 17.6147 26.4091 17.6147 26.4091C17.6147 26.4091 17.6147 28.0144 15.9705 29.585C14.3263 31.1555 10.5026 35.0534 10.5026 35.0534C10.5026 35.0534 14.6184 33.7587 21.3411 25.3393C28.0638 16.9199 27.5166 10.7491 27.5166 10.7491Z" fill="#FFE09E"/>
<path d="M27.0275 34.7103C26.6001 35.9725 24.874 37.9371 24.157 38.687C23.9196 38.9362 23.7842 39.0556 23.846 38.9745C24.1166 38.6048 24.6841 35.0847 22.6149 33.8445C22.2304 33.6287 21.8074 33.4863 21.3684 33.4249C19.0701 33.0563 15.8755 34.0357 15.8755 34.0357L14.0034 34.2536C14.0034 34.2536 20.4994 32.5255 21.829 31.6944C23.1895 30.8437 27.0215 32.6773 27.1272 34.1586C27.1299 34.347 27.096 34.5342 27.0275 34.7103Z" fill="url(#paint2_linear_24_39487)"/>
<path d="M39.8212 27.5566C39.725 28.4607 37.5894 28.849 35.6662 29.0136C34.0387 29.1538 32.5524 29.1295 32.5524 29.1295C32.5524 29.1295 35.0537 30.0567 33.2979 31.5496C33.0267 31.7572 32.7076 31.8968 32.3684 31.9564C29.892 32.4988 24.6734 31.0836 24.4953 31.0292L24.4763 31.0349H24.4609C23.9469 31.21 18.0088 33.2545 14.0569 35.4973C14.0569 35.4973 12.8911 35.0754 12.7629 33.5269C12.7629 33.5269 20.2478 31.5843 22.8013 30.387C23.1574 30.2213 23.4079 30.0718 23.5242 29.9466C23.5242 29.9466 22.4629 24.2429 24.4526 23.3191C26.5028 22.3664 27.678 24.1536 27.678 24.1536C27.678 24.1536 28.9091 21.9966 30.5093 21.6744C32.1393 21.3406 33.7015 21.985 33.7015 21.985L33.7217 21.9711L33.7359 21.9618C34.1823 21.6848 38.8834 18.8324 40.6213 21.1505C41.6292 22.4881 40.4124 23.7723 39.1706 24.6277C38.5555 25.0443 37.9022 25.4044 37.219 25.7033H37.2107C37.2107 25.7033 40.0064 25.8377 39.8212 27.5566Z" fill="url(#paint3_linear_24_39487)"/>
<g style="mix-blend-mode:soft-light">
<path d="M36.1553 21.5144C31.6003 24.8954 37.6345 24.9534 39.4579 23.3782C41.349 21.7439 38.9035 19.4722 36.1553 21.5144Z" fill="#FFCCA6"/>
</g>
<g style="mix-blend-mode:soft-light">
<path d="M32.6284 27.29C31.3937 28.1709 38.4287 28.6079 38.3883 27.3399C38.3444 26.0487 35.462 25.2675 32.6284 27.29Z" fill="#FFCCA6"/>
</g>
<g style="mix-blend-mode:soft-light">
<path d="M26.0742 30.5632C28.9672 31.8926 33.5056 31.4789 32.0478 30.0393C30.59 28.5998 23.174 29.2303 26.0742 30.5632Z" fill="#FFCCA6"/>
</g>
<g style="mix-blend-mode:multiply" opacity="0.5">
<path d="M39.1754 24.6184C38.5603 25.0351 37.907 25.3951 37.2237 25.694H37.2154C37.2154 25.694 32.6379 25.1365 30.5366 26.685C28.6728 28.0573 34.6762 28.8872 35.6734 29.0101C34.0458 29.1503 32.5595 29.126 32.5595 29.126C32.5595 29.126 28.9672 27.545 26.244 28.6044C23.6228 29.6255 25.7311 31.305 32.1962 31.9355L32.3755 31.9529C29.8991 32.4954 24.6805 31.0801 24.5024 31.0257L24.4834 31.0315H24.468C24.2306 31.0917 22.8488 31.4383 22.4855 31.0593C22.2979 30.8611 22.5187 30.6026 22.8084 30.3836C23.0358 30.2165 23.2777 30.0691 23.5314 29.9431C23.5314 29.9431 22.4701 24.2394 24.4597 23.3156C26.5099 22.3629 27.6851 24.1501 27.6851 24.1501C27.6851 24.1501 28.9091 21.9966 30.5093 21.6744C32.1393 21.3406 33.7015 21.985 33.7015 21.985C29.9027 26.0823 35.8965 25.6059 38.951 24.6903C39.0294 24.6601 39.1042 24.6393 39.1754 24.6184Z" fill="#D57F7F"/>
</g>
<g style="mix-blend-mode:multiply" opacity="0.5">
<path d="M32.1001 23.5741C31.0234 26.9806 24.1546 29.9257 23.7545 28.5325C23.3462 27.1139 22.7182 24.4237 26.3354 22.9552C30.1437 21.409 32.9465 20.8955 32.1001 23.5741Z" fill="#BF65A6"/>
</g>
<path d="M32.8385 19.5348C31.2465 20.3334 29.8481 20.9187 29.7199 20.972C30.1744 20.8394 30.6477 20.7784 31.1219 20.7912C31.9398 20.8283 32.8219 21.1737 32.8646 22.4602C32.9192 24.0192 28.2205 25.7276 25.0865 26.685C23.453 27.1846 22.2125 27.4963 22.2125 27.4963C22.2125 27.4963 21.6058 28.0423 20.7487 28.8605C18.7959 30.715 16.8146 32.4281 15.8316 33.7564C15.0655 34.8194 14.3616 35.9238 13.7233 37.0644C13.7233 37.0644 11.4677 37.2684 10.5026 35.0569C10.5026 35.0569 12.5563 33.2627 14.7098 31.3224C16.9796 29.2801 19.0927 27.1614 19.0927 27.1614C19.0927 27.1614 19.0559 26.8832 19.0096 26.4277C18.9478 25.8087 18.8683 24.8514 18.8469 23.8082C18.7994 21.89 18.9419 19.6634 19.7135 18.7512C21.0728 17.1448 22.6315 18.2389 23.009 18.5449C23.0636 18.589 23.0933 18.618 23.0933 18.618C23.3279 17.5791 23.63 16.5559 23.9979 15.5546C24.6888 13.6804 25.7881 11.4979 27.2708 10.8592C28.7346 10.2322 29.9253 10.5845 30.7349 11.0806C31.2006 11.3648 31.6074 11.732 31.9339 12.1632C31.9339 12.1632 34.5836 9.02327 36.8973 10.1035C39.211 11.1837 35.8348 14.0999 35.8348 14.0999C35.8348 14.0999 37.6713 13.9493 37.6677 15.8385C37.6677 16.8852 35.0501 18.429 32.8385 19.5348Z" fill="url(#paint4_linear_24_39487)"/>
<g style="mix-blend-mode:soft-light">
<path d="M27.4501 11.3889C21.0503 15.4456 25.7501 18.3885 28.3487 16.8504C31.0566 15.2451 31.2382 8.98966 27.4501 11.3889Z" fill="#FFCCA6"/>
</g>
<g style="mix-blend-mode:soft-light">
<path d="M34.3913 10.7062C30.8536 11.9812 31.3569 15.0365 32.7744 14.8081C34.212 14.5763 39.4722 8.8691 34.3913 10.7062Z" fill="#FFCCA6"/>
</g>
<g style="mix-blend-mode:soft-light">
<path d="M35.8063 15.2996C31.5564 14.6296 28.1006 18.7049 30.2814 19.3343C32.4812 19.9671 39.1445 15.8223 35.8063 15.2996Z" fill="#FFCCA6"/>
</g>
<g style="mix-blend-mode:soft-light">
<path d="M21.258 18.7686C18.1715 19.2485 18.5727 25.3753 20.9363 25.0275C23.3604 24.6763 23.2512 18.458 21.258 18.7686Z" fill="#FFCCA6"/>
</g>
<g style="mix-blend-mode:soft-light">
<path d="M30.5093 21.5585C24.5737 20.2661 22.952 25.1933 24.6306 25.5978C26.3092 26.0023 34.9955 22.5379 30.5093 21.5585Z" fill="#FFCCA6"/>
</g>
<g style="mix-blend-mode:multiply" opacity="0.5">
<path d="M31.1219 20.7912C30.7159 20.848 30.2505 20.9071 29.7199 20.972C30.1744 20.8394 30.6477 20.7784 31.1219 20.7912Z" fill="#D57F7F"/>
</g>
<g style="mix-blend-mode:multiply" opacity="0.5">
<path d="M32.8207 19.5023L32.8385 19.5348C31.2465 20.3334 29.8481 20.9187 29.7199 20.972H29.7116C24.0881 21.6674 20.979 26.0626 25.0818 26.6815C23.4483 27.1811 22.2077 27.4929 22.2077 27.4929C22.2077 27.4929 21.6058 28.0423 20.7487 28.8606C20.2228 29.1805 19.7432 29.2859 19.6162 28.7307C19.4892 28.1755 19.2506 27.3399 19.0096 26.4277C18.9478 25.8088 18.8683 24.8514 18.8469 23.8082C19.1271 24.7714 19.5343 25.8632 20.1148 25.9791C21.3316 26.2225 23.7534 22.6376 23.7296 21.1204C23.698 20.2188 23.4512 19.337 23.009 18.5449C23.0636 18.589 23.0933 18.618 23.0933 18.618C23.3279 17.5791 23.63 16.5559 23.9979 15.5546C23.0043 20.2557 26.384 19.4038 28.4841 17.3731C30.6981 15.2347 30.6565 11.1548 30.6565 11.1548L30.7349 11.0806C31.2006 11.3648 31.6074 11.732 31.9339 12.1632C31.9339 12.1632 30.9058 14.1869 31.9731 15.0481C32.2497 15.2706 32.6853 15.3216 33.9176 14.7826C32.493 15.4781 30.6969 16.4888 29.9134 17.4658C28.5885 19.1245 29.4504 20.1572 32.8207 19.5023Z" fill="#D57F7F"/>
</g>
<path d="M9.88408 28.135C9.88408 28.135 9.97668 28.9788 9.94581 28.8246C9.87414 28.7171 9.78965 28.6183 9.69414 28.5302C8.84653 27.6563 6.01403 25.1817 3.90924 25.5642C1.54922 25.993 0.203015 27.122 0.118729 27.1857C0.223196 27.0397 3.13167 22.1392 4.35204 21.9271C7.43384 21.3904 9.82473 24.3599 9.88408 28.135Z" fill="#FFC31A"/>
<path d="M18.5478 29.8562C18.3377 30.6165 16.7457 32.0746 16.5023 32.2902C16.4834 32.3087 16.4715 32.318 16.4715 32.318C16.4715 32.318 17.3298 30.1865 17.1256 28.6774C17.0437 28.0863 16.0263 28.2497 14.8237 28.6681C12.9469 29.3242 10.6723 30.5794 10.6723 30.5794C11.622 28.543 14.7869 24.1467 15.796 24.8178C16.5854 25.344 18.232 26.8461 18.6807 28.2231C18.803 28.5998 18.5976 29.6719 18.5478 29.8562Z" fill="#FFC31A"/>
<path d="M22.2172 13.6479C22.4997 14.3642 21.937 15.3656 20.9814 16.4296C18.8588 18.793 14.8724 21.3893 13.7589 22.0928C13.5618 22.218 13.4502 22.2852 13.4502 22.2852C13.4502 22.2852 10.8124 29.3671 11.1246 33.4493C11.1246 33.4493 9.43534 34.1215 8.41322 32.0874C8.41322 32.0874 11.6743 23.4396 11.1864 21.686C11.1703 21.6181 11.14 21.5541 11.0973 21.4982C9.86864 20.0285 9.02815 18.6817 8.507 17.5018C6.70612 13.4126 8.66608 11.2139 11.5342 12.6731C11.5342 12.6731 10.8504 10.4257 10.7281 8.33709C10.6462 6.94622 10.8112 5.62258 11.5935 5.10216C13.6224 3.75186 15.32 6.30758 15.32 6.30758C15.32 6.30758 15.3544 4.76024 16.1189 3.44123C16.6448 2.52905 17.5209 1.72235 18.968 1.62383C21.5037 1.45229 21.2521 3.84806 20.7487 5.32007C20.6374 5.67239 20.4819 6.00992 20.2857 6.32497C20.4524 6.22202 20.629 6.13507 20.8128 6.06534C21.5797 5.76862 22.8309 5.57738 23.764 6.67848C24.6306 7.69845 22.7205 9.68276 20.9315 11.1849C20.2193 11.7807 19.5236 12.3022 19.0226 12.6662C18.8446 12.7948 18.6902 12.898 18.568 12.9896C19.3574 12.49 21.3743 11.506 22.2172 13.6479Z" fill="url(#paint5_linear_24_39487)"/>
<g style="mix-blend-mode:soft-light">
<path d="M11.317 6.64603C10.8872 9.41039 13.3719 11.6114 14.1471 8.97342C14.9579 6.2195 11.7835 3.64059 11.317 6.64603Z" fill="#FFCCA6"/>
</g>
<g style="mix-blend-mode:soft-light">
<path d="M16.7611 4.21202C15.5147 7.34148 19.4571 8.62571 20.2691 5.04306C21.131 1.26106 17.9091 1.33408 16.7611 4.21202Z" fill="#FFCCA6"/>
</g>
<g style="mix-blend-mode:soft-light">
<path d="M20.6751 6.80947C17.4604 8.47851 18.1382 10.6344 20.0982 10.0247C22.1044 9.39533 23.7581 5.20765 20.6751 6.80947Z" fill="#FFCCA6"/>
</g>
<g style="mix-blend-mode:soft-light">
<path d="M9.32613 12.9247C6.109 14.3804 10.1132 18.8996 11.5817 17.627C13.106 16.3137 12.0732 11.6821 9.32613 12.9247Z" fill="#FFCCA6"/>
</g>
<g style="mix-blend-mode:soft-light">
<path d="M18.638 13.1808C14.1269 14.5949 13.9939 17.4311 16.5154 17.5157C19.0832 17.6026 23.3189 11.7065 18.638 13.1808Z" fill="#FFCCA6"/>
</g>
<g style="mix-blend-mode:multiply" opacity="0.5">
<path d="M18.822 8.31392C18.5786 8.66164 18.3282 8.99544 18.08 9.28289C18.321 8.95256 18.5727 8.62571 18.822 8.31392Z" fill="#D57F7F"/>
</g>
<g style="mix-blend-mode:multiply" opacity="0.5">
<path d="M20.9814 16.4285C18.8588 18.7918 14.8724 21.3881 13.7589 22.0916L13.4669 22.1519C13.4669 22.1519 12.8935 24.2776 12.237 23.8117C11.5805 23.3457 11.2315 21.7126 11.2315 21.7126L11.1864 21.6848C11.1703 21.6169 11.14 21.553 11.0973 21.497C9.86865 20.0285 9.02816 18.6817 8.50701 17.5018L8.5545 17.3859C10.626 20.4064 12.9018 18.5646 13.2247 16.476C13.5571 14.3178 11.5342 12.6824 11.5342 12.6824C11.5342 12.6824 10.8504 10.4315 10.7281 8.3371C10.9383 9.2203 11.4558 10.821 12.5991 11.7389C14.2195 13.0382 16.0263 10.0154 15.32 6.30527C15.32 6.30527 15.3544 4.75793 16.1189 3.43892C16.1189 3.43892 15.282 9.8659 16.5617 10.2495C16.9713 10.3655 17.5114 9.94008 18.0753 9.28869C17.0567 10.6796 16.24 12.1214 16.7695 12.6303C17.6551 13.4891 20.0578 11.8375 20.941 11.1791C20.2288 11.7749 19.5331 12.2964 19.0321 12.6604L18.638 12.8331C18.638 12.8331 14.1411 14.5172 14.3299 17.3859C14.483 19.6959 19.3254 17.3094 20.9814 16.4285Z" fill="#D57F7F"/>
</g>
<g style="mix-blend-mode:multiply" opacity="0.5">
<path d="M20.8128 6.0607L20.5897 6.24268C20.5897 6.24268 19.7385 7.16992 18.8232 8.31275C19.4711 7.36134 20.0656 6.37623 20.6039 5.36179L20.7475 5.31543C20.6362 5.66775 20.4807 6.00528 20.2846 6.32033C20.4516 6.21732 20.6286 6.13037 20.8128 6.0607Z" fill="#D57F7F"/>
</g>
<g style="mix-blend-mode:multiply" opacity="0.8">
<path d="M9.75825 28.5395L9.69414 28.5302C8.84653 27.6563 6.01403 25.1817 3.90924 25.5642C1.54922 25.993 0.203015 27.122 0.118729 27.1857C0.778774 26.4903 4.56335 24.0412 6.03184 24.5558C7.50032 25.0704 9.75825 28.5395 9.75825 28.5395Z" fill="#D65A6B"/>
</g>
<g style="mix-blend-mode:multiply" opacity="0.8">
<path d="M18.5917 29.7704C18.5917 30.4937 16.7683 32.07 16.5024 32.2937C16.4834 32.3122 16.4715 32.3215 16.4715 32.3215C16.4715 32.3215 17.3298 30.19 17.1256 28.6809C17.0437 28.0898 16.0263 28.2532 14.8237 28.6716C15.5123 28.3668 16.665 27.8985 17.179 27.8997C17.693 27.9008 18.1857 28.4178 18.4255 28.9996C18.5305 29.2439 18.5869 29.5055 18.5917 29.7704Z" fill="#D65A6B"/>
</g>
<g style="mix-blend-mode:multiply" opacity="0.8">
<path d="M13.7233 37.0609C12.8068 35.0314 10.2901 34.7022 10.6486 35.3026C11.0071 35.903 11.8713 36.7421 12.3462 36.858C12.821 36.974 13.7233 37.0609 13.7233 37.0609Z" fill="#D65A6B"/>
</g>
<g style="mix-blend-mode:multiply" opacity="0.88">
<path d="M4.64408 22.3026C5.83122 22.7025 6.42478 24.1629 4.19297 24.7633C2.0229 25.3428 -0.109194 27.4442 0.869003 25.9896C1.87094 24.4839 4.01847 22.0905 4.64408 22.3026Z" fill="#F9C4B5"/>
</g>
<g style="mix-blend-mode:multiply" opacity="0.88">
<path d="M15.314 25.0646C17.6444 26.6873 16.4834 27.5612 15.2713 28.3332C14.0842 29.0889 11.4499 30.1599 11.5283 29.709C11.6066 29.2581 11.7526 28.062 13.5072 26.4636C15.3295 24.8038 14.8962 24.7772 15.314 25.0646Z" fill="#F9C4B5"/>
</g>
<g style="mix-blend-mode:multiply" opacity="0.6">
<path d="M24.5737 37.2232C26.39 34.8054 25.635 34.0937 24.8799 33.9326C24.1249 33.7715 22.1009 33.5536 22.381 33.644C22.6612 33.7344 23.7189 34.169 24.0074 35.3432C24.2911 36.5022 24.1558 37.5604 24.2757 37.5558C24.3956 37.5512 24.3849 37.4816 24.5737 37.2232Z" fill="#D65A6B"/>
</g>
<g style="mix-blend-mode:multiply" opacity="0.6">
<path d="M6.0354 24.5558C4.38528 24.3066 3.34773 25.4332 3.66113 25.4541C3.97454 25.4749 4.66782 25.2501 6.23958 25.9988C7.81135 26.7476 6.79872 24.6717 6.0354 24.5558Z" fill="#D65A6B"/>
</g>
<g style="mix-blend-mode:multiply" opacity="0.6">
<path d="M17.3535 30.8483C18.4647 30.8321 18.9621 28.762 17.8284 28.3123C16.6947 27.8626 17.2229 28.3934 17.3262 29.0854C17.4295 29.7774 16.9309 30.8541 17.3535 30.8483Z" fill="#D65A6B"/>
</g>
<g style="mix-blend-mode:multiply" opacity="0.5">
<path d="M27.8786 18.5194C25.4379 21.1331 25.2669 21.4333 27.7243 21.1157C30.2458 20.79 31.5041 19.9288 30.5734 19.9323C29.6427 19.9358 28.4366 19.828 28.7999 18.7733C29.1762 17.7081 28.3238 18.0431 27.8786 18.5194Z" fill="#BF65A6"/>
</g>
<g style="mix-blend-mode:multiply" opacity="0.5">
<path d="M13.6829 17.5528C16.0192 19.3458 18.5763 17.6107 17.8462 18.7756C16.9855 20.1468 13.2294 22.3942 12.8305 21.8726C11.8868 20.6382 13.2187 17.1958 13.6829 17.5528Z" fill="#BF65A6"/>
</g>
<g style="mix-blend-mode:multiply" opacity="0.5">
<path d="M12.275 11.6427C13.3434 12.5862 14.7264 11.6624 15.0054 11.2255C15.2843 10.7885 15.0054 14.45 14.229 14.8962C13.4526 15.3425 11.7764 11.2023 12.275 11.6427Z" fill="#BF65A6"/>
</g>
<g style="mix-blend-mode:multiply" opacity="0.8">
<path d="M11.1246 33.4481C10.3376 31.9089 8.41322 32.0862 8.41322 32.0862C8.41322 32.0862 8.98779 32.9427 9.5505 33.2777C10.1132 33.6127 11.1246 33.4481 11.1246 33.4481Z" fill="#D65A6B"/>
</g>
<g style="mix-blend-mode:multiply" opacity="0.5">
<path d="M17.0472 32.2983C17.0472 32.2983 15.3853 34.0218 14.9508 34.9502C14.9508 34.9502 18.1418 33.4238 19.4821 32.8245C20.8532 32.2137 17.0472 32.2983 17.0472 32.2983Z" fill="#BF65A6"/>
</g>
<g style="mix-blend-mode:multiply" opacity="0.5">
<path d="M13.4752 32.4432C15.4862 31.5797 16.3433 32.5243 16.4786 32.376C17.1208 31.6701 17.2419 29.7739 16.2685 30.0938C15.9076 30.2109 13.4752 32.4432 13.4752 32.4432Z" fill="#BF65A6"/>
</g>
<g style="mix-blend-mode:soft-light">
<path d="M20.1112 23.5683C20.4353 24.7807 21.5999 24.1988 21.4016 23.5567C21.2034 22.9146 19.8679 22.6584 20.1112 23.5683Z" fill="#FFCCA6"/>
</g>
<g style="mix-blend-mode:soft-light">
<path d="M25.35 25.2536C25.2123 25.5445 26.3627 26.0452 26.5906 25.2709C26.8185 24.4967 25.6528 24.6149 25.35 25.2536Z" fill="#FFCCA6"/>
</g>
<g style="mix-blend-mode:soft-light">
<path d="M9.8829 18.1972C10.6581 18.6481 10.6023 17.8576 9.92919 17.5713C9.25609 17.285 8.7848 17.5609 9.8829 18.1972Z" fill="#FFCCA6"/>
</g>
<g style="mix-blend-mode:multiply" opacity="0.5">
<path d="M6.52925 23.6807C7.12282 24.3761 8.81923 24.6196 7.66296 23.5173C6.50669 22.415 5.46676 22.4417 6.52925 23.6807Z" fill="#D57F7F"/>
</g>
<g style="mix-blend-mode:multiply" opacity="0.5">
<path d="M15.0232 13.5529C15.0232 14.6435 17.2253 13.5529 16.4477 13.0892C15.6702 12.6256 15.0208 12.9107 15.0232 13.5529Z" fill="#D57F7F"/>
</g>
<g style="mix-blend-mode:soft-light">
<path d="M24.5333 17.4403C24.4834 18.4754 25.6017 18.3943 25.3512 17.7556C25.1007 17.117 24.5665 16.7217 24.5333 17.4403Z" fill="#FFCCA6"/>
</g>
<g style="mix-blend-mode:multiply" opacity="0.5">
<path d="M30.5877 14.975C29.1631 15.0481 29.7567 17.2456 31.0447 16.3184C32.3565 15.3703 31.0281 14.9519 30.5877 14.975Z" fill="#D57F7F"/>
</g>
<g style="mix-blend-mode:multiply" opacity="0.5">
<path d="M24.0264 26.7661C23.6798 26.0174 22.6018 24.5639 21.962 24.9476C21.3221 25.3312 20.8425 26.3384 19.1366 26.0533C18.8493 26.0046 19.0642 26.7661 19.4049 27.3851C19.8572 28.2045 21.0146 27.7594 22.0902 27.4442C22.4558 27.3375 24.1985 27.137 24.0264 26.7661Z" fill="#BF65A6"/>
</g>
<path style="mix-blend-mode:screen" opacity="0.8" d="M26.771 37.2324C34.0958 37.2324 40.0337 31.435 40.0337 24.2834C40.0337 17.1319 34.0958 11.3344 26.771 11.3344C19.4463 11.3344 13.5084 17.1319 13.5084 24.2834C13.5084 31.435 19.4463 37.2324 26.771 37.2324Z" fill="url(#paint6_radial_24_39487)"/>
<path d="M6.81534 10.3678C6.81593 10.4831 6.77247 10.5945 6.69345 10.6802C6.61442 10.766 6.50551 10.8199 6.38797 10.8314C6.33211 10.836 6.27588 10.829 6.22301 10.8108C6.17013 10.7926 6.12183 10.7637 6.0813 10.7259C6.04077 10.688 6.00894 10.6422 5.98793 10.5915C5.96691 10.5407 5.95719 10.4862 5.95942 10.4315C5.96059 10.3174 6.00483 10.2077 6.08369 10.1234C6.16255 10.0392 6.27047 9.98626 6.38678 9.97485C6.44207 9.9701 6.49776 9.97681 6.55021 9.99453C6.60265 10.0122 6.65068 10.0406 6.69113 10.0777C6.73159 10.1148 6.76357 10.1598 6.78497 10.2098C6.80637 10.2598 6.81672 10.3136 6.81534 10.3678Z" fill="#FFE800"/>
<path d="M32.6367 5.09985C32.6177 5.57274 32.4752 5.71183 32.0431 5.71183C31.3308 5.57274 31.1848 4.45425 32.0609 4.44962C32.2251 4.46237 32.3776 4.53774 32.4854 4.65943C32.5931 4.78112 32.6475 4.93934 32.6367 5.09985Z" fill="#FFE800"/>
<path d="M8.0844 5.96682C8.06659 6.43972 7.92295 6.5788 7.49083 6.5788C6.77855 6.43972 6.63253 5.32123 7.50864 5.31659C7.67287 5.32934 7.82536 5.40472 7.93311 5.52641C8.04086 5.64809 8.09521 5.80631 8.0844 5.96682Z" fill="#FFE800"/>
</g>
<defs>
<radialGradient id="paint0_radial_24_39487" cx="0" cy="0" r="1" gradientUnits="userSpaceOnUse" gradientTransform="translate(23.0767 13.2249) scale(22.3988 21.8691)">
<stop stop-color="#FF6B05"/>
<stop offset="0.21" stop-color="#B84D04"/>
<stop offset="0.42" stop-color="#773202"/>
<stop offset="0.61" stop-color="#441D01"/>
<stop offset="0.78" stop-color="#1F0D01"/>
<stop offset="0.91" stop-color="#080300"/>
<stop offset="1"/>
</radialGradient>
<radialGradient id="paint1_radial_24_39487" cx="0" cy="0" r="1" gradientUnits="userSpaceOnUse" gradientTransform="translate(20.4283 20.5594) scale(18.6344 18.1937)">
<stop stop-color="#FF6B05"/>
<stop offset="0.21" stop-color="#B84D04"/>
<stop offset="0.42" stop-color="#773202"/>
<stop offset="0.61" stop-color="#441D01"/>
<stop offset="0.78" stop-color="#1F0D01"/>
<stop offset="0.91" stop-color="#080300"/>
<stop offset="1"/>
</radialGradient>
<linearGradient id="paint2_linear_24_39487" x1="14.004" y1="34.1896" x2="26.9539" y2="35.7102" gradientUnits="userSpaceOnUse">
<stop stop-color="#FF6C00"/>
<stop offset="1" stop-color="#FFA900"/>
</linearGradient>
<linearGradient id="paint3_linear_24_39487" x1="13.5948" y1="26.4392" x2="40.1417" y2="29.5564" gradientUnits="userSpaceOnUse">
<stop stop-color="#FFC31A"/>
<stop offset="1" stop-color="#FFA900"/>
</linearGradient>
<linearGradient id="paint4_linear_24_39487" x1="12.0284" y1="22.0523" x2="36.6058" y2="24.9382" gradientUnits="userSpaceOnUse">
<stop stop-color="#FFC31A"/>
<stop offset="1" stop-color="#FFA900"/>
</linearGradient>
<linearGradient id="paint5_linear_24_39487" x1="10.4955" y1="25.348" x2="17.3317" y2="7.58112" gradientUnits="userSpaceOnUse">
<stop stop-color="#FFC31A"/>
<stop offset="1" stop-color="#FFA900"/>
</linearGradient>
<radialGradient id="paint6_radial_24_39487" cx="0" cy="0" r="1" gradientUnits="userSpaceOnUse" gradientTransform="translate(26.771 24.2834) scale(13.2626 12.949)">
<stop stop-color="#FFBA00"/>
<stop offset="0.25" stop-color="#FF3B00"/>
<stop offset="0.38" stop-color="#FF0000"/>
<stop offset="0.42" stop-color="#EA0000"/>
<stop offset="0.58" stop-color="#980000"/>
<stop offset="0.73" stop-color="#570000"/>
<stop offset="0.85" stop-color="#280000"/>
<stop offset="0.95" stop-color="#0B0000"/>
<stop offset="1"/>
</radialGradient>
<clipPath id="clip0_24_39487">
<rect width="41" height="39" fill="white"/>
</clipPath>
</defs>
</svg>
