<svg width="41" height="39" viewBox="0 0 41 39" fill="none" xmlns="http://www.w3.org/2000/svg">
<g opacity="0.5">
<path d="M5.1818 10.1046C3.86646 13.8507 7.81248 23.3746 6.82598 24.2312C5.83947 25.0877 3.86646 23.8035 3.86646 23.8035C3.86646 23.8035 5.72076 27.0697 7.4789 27.2274C24.5831 28.762 11.8713 -4.91449 26.3377 13.3511C27.8216 15.2242 13.4395 22.3408 18.5916 25.7646C23.7438 29.1885 35.2115 23.6957 39.0519 20.914C42.8923 18.1322 34.8827 15.2346 35.8739 16.9535C36.8652 18.6723 38.723 21.0206 36.2028 22.0904C33.6825 23.1602 26.3377 17.2745 28.6395 15.1361C30.9414 12.9976 36.3488 16.5976 37.0065 13.066C37.6641 9.53433 35.8834 -3.05304 26.885 0.68724C25.2978 1.34674 30.9414 3.89783 28.0911 7.32169C25.2408 10.7455 21.0763 8.92467 20.9659 5.60976C20.8555 2.29485 6.49714 6.35851 5.1818 10.1046Z" fill="url(#paint0_radial_245_57812)" style="mix-blend-mode:screen"/>
</g>
<path d="M17.9436 1.8313C16.957 2.25899 15.5693 3.22217 15.2761 4.36384L14.984 5.50551C14.984 5.50551 13.3767 3.79243 12.0245 4.64897C10.6724 5.50551 10.0147 6.43276 10.0515 8.07399C10.0883 9.71521 10.5632 11.8548 10.3803 11.8908C10.1975 11.9267 8.62694 11.3912 7.85886 13.1031C7.09079 14.8151 8.19126 18.1694 9.32022 19.8106C10.4492 21.4518 10.9288 22.3432 10.7092 23.2704C10.4895 24.1976 9.86868 27.5856 9.64906 27.6586C9.42944 27.7316 8.55334 23.2704 6.72634 22.2354C4.89934 21.2003 4.05885 21.4159 2.99993 22.5217C1.94101 23.6274 0.118758 26.9087 4.42336e-05 27.2657C-0.118669 27.6227 2.30189 25.6245 4.78656 26.0174C7.27123 26.4103 8.98783 28.1929 8.98783 28.6565C8.98783 29.1202 7.74608 31.582 7.9657 32.1534C8.18532 32.7248 8.98783 33.4724 10.3032 33.4377L14.8012 9.64335L17.9436 1.8313Z" fill="#FFE09E"/>
<path d="M27.5167 10.749C22.5473 12.1051 23.2774 17.919 23.0222 17.919C22.767 17.919 20.6835 16.9917 19.7338 18.2052C18.7841 19.4188 18.4921 23.7687 18.4921 25.5177C18.4921 27.2668 17.6148 26.4091 17.6148 26.4091C17.6148 26.4091 17.6148 28.0144 15.9706 29.5849C14.3264 31.1554 10.5027 35.0533 10.5027 35.0533C10.5027 35.0533 14.6185 33.7587 21.3412 25.3393C28.0639 16.9199 27.5167 10.749 27.5167 10.749Z" fill="#FFE09E"/>
<path d="M27.0275 34.7102C26.6001 35.9724 24.874 37.937 24.157 38.6869C23.9195 38.9361 23.7842 39.0555 23.8459 38.9744C24.1166 38.6046 24.6841 35.0846 22.6149 33.8444C22.2304 33.6285 21.8074 33.4861 21.3684 33.4248C19.0701 33.0562 15.8755 34.0356 15.8755 34.0356L14.0034 34.2535C14.0034 34.2535 20.4994 32.5254 21.829 31.6943C23.1895 30.8436 27.0215 32.6772 27.1272 34.1585C27.1299 34.3469 27.096 34.5341 27.0275 34.7102Z" fill="url(#paint1_linear_245_57812)"/>
<path d="M39.8213 27.5565C39.7251 28.4606 37.5894 28.8489 35.6663 29.0134C34.0387 29.1537 32.5524 29.1293 32.5524 29.1293C32.5524 29.1293 35.0537 30.0566 33.298 31.5495C33.0267 31.7571 32.7076 31.8967 32.3684 31.9563C29.8921 32.4987 24.6734 31.0835 24.4954 31.029L24.4764 31.0348H24.4609C23.9469 31.2099 18.0089 33.2544 14.0569 35.4972C14.0569 35.4972 12.8911 35.0753 12.7629 33.5268C12.7629 33.5268 20.2478 31.5842 22.8013 30.3869C23.1575 30.2212 23.408 30.0717 23.5243 29.9465C23.5243 29.9465 22.463 24.2428 24.4526 23.319C26.5028 22.3662 27.6781 24.1535 27.6781 24.1535C27.6781 24.1535 28.9091 21.9965 30.5094 21.6743C32.1393 21.3405 33.7016 21.9849 33.7016 21.9849L33.7218 21.971L33.736 21.9617C34.1824 21.6847 38.8834 18.8323 40.6214 21.1504C41.6293 22.4879 40.4124 23.7722 39.1707 24.6276C38.5556 25.0442 37.9023 25.4043 37.2191 25.7032H37.2108C37.2108 25.7032 40.0064 25.8376 39.8213 27.5565Z" fill="url(#paint2_linear_245_57812)"/>
<g style="mix-blend-mode:soft-light">
<path d="M36.1553 21.5144C31.6003 24.8954 37.6345 24.9534 39.4579 23.3782C41.349 21.7439 38.9035 19.4722 36.1553 21.5144Z" fill="#FFCCA6"/>
</g>
<g style="mix-blend-mode:soft-light">
<path d="M32.6283 27.29C31.3937 28.1709 38.4286 28.6078 38.3883 27.3398C38.3444 26.0486 35.462 25.2674 32.6283 27.29Z" fill="#FFCCA6"/>
</g>
<g style="mix-blend-mode:soft-light">
<path d="M26.0742 30.563C28.9672 31.8925 33.5056 31.4787 32.0478 30.0391C30.59 28.5996 23.174 29.2301 26.0742 30.563Z" fill="#FFCCA6"/>
</g>
<g style="mix-blend-mode:multiply" opacity="0.5">
<path d="M39.1754 24.6183C38.5603 25.035 37.9069 25.3951 37.2237 25.6939H37.2154C37.2154 25.6939 32.6378 25.1364 30.5366 26.6849C28.6728 28.0572 34.6761 28.8871 35.6733 29.01C34.0458 29.1502 32.5595 29.1259 32.5595 29.1259C32.5595 29.1259 28.9672 27.5449 26.2439 28.6043C23.6227 29.6255 25.7311 31.3049 32.1962 31.9355L32.3755 31.9528C29.8991 32.4953 24.6805 31.0801 24.5024 31.0256L24.4834 31.0314H24.468C24.2306 31.0917 22.8487 31.4382 22.4855 31.0592C22.2979 30.861 22.5187 30.6025 22.8084 30.3835C23.0358 30.2164 23.2777 30.0691 23.5313 29.943C23.5313 29.943 22.47 24.2393 24.4597 23.3155C26.5099 22.3628 27.6851 24.1501 27.6851 24.1501C27.6851 24.1501 28.909 21.9965 30.5093 21.6743C32.1392 21.3405 33.7015 21.9849 33.7015 21.9849C29.9027 26.0822 35.8965 25.6058 38.951 24.6902C39.0294 24.66 39.1041 24.6392 39.1754 24.6183Z" fill="#D57F7F"/>
</g>
<g style="mix-blend-mode:multiply" opacity="0.5">
<path d="M32.1 23.5739C31.0233 26.9804 24.1545 29.9256 23.7545 28.5324C23.3461 27.1137 22.7181 24.4235 26.3353 22.955C30.1436 21.4088 32.9464 20.8954 32.1 23.5739Z" fill="#BF65A6"/>
</g>
<path d="M32.8386 19.5346C31.2466 20.3332 29.8482 20.9186 29.72 20.9719C30.1745 20.8393 30.6478 20.7783 31.122 20.7911C31.9399 20.8282 32.822 21.1736 32.8647 22.4601C32.9193 24.019 28.2206 25.7275 25.0866 26.6849C23.4531 27.1844 22.2126 27.4962 22.2126 27.4962C22.2126 27.4962 21.6059 28.0421 20.7488 28.8604C18.796 30.7149 16.8147 32.428 15.8317 33.7563C15.0656 34.8193 14.3617 35.9237 13.7234 37.0642C13.7234 37.0642 11.4678 37.2682 10.5027 35.0568C10.5027 35.0568 12.5564 33.2625 14.7099 31.3223C16.9797 29.28 19.0928 27.1612 19.0928 27.1612C19.0928 27.1612 19.056 26.8831 19.0097 26.4276C18.9479 25.8086 18.8684 24.8512 18.847 23.8081C18.7996 21.8899 18.942 19.6633 19.7136 18.7511C21.0729 17.1447 22.6316 18.2388 23.0091 18.5448C23.0637 18.5889 23.0934 18.6178 23.0934 18.6178C23.328 17.579 23.6301 16.5558 23.998 15.5544C24.6889 13.6802 25.7882 11.4977 27.2709 10.8591C28.7347 10.232 29.9254 10.5844 30.735 11.0805C31.2007 11.3646 31.6075 11.7319 31.934 12.163C31.934 12.163 34.5837 9.02314 36.8974 10.1034C39.2111 11.1836 35.8349 14.0998 35.8349 14.0998C35.8349 14.0998 37.6714 13.9491 37.6678 15.8384C37.6678 16.885 35.0502 18.4289 32.8386 19.5346Z" fill="url(#paint3_linear_245_57812)"/>
<g style="mix-blend-mode:soft-light">
<path d="M27.4502 11.3887C21.0503 15.4454 25.7502 18.3883 28.3488 16.8502C31.0567 15.2449 31.2383 8.98947 27.4502 11.3887Z" fill="#FFCCA6"/>
</g>
<g style="mix-blend-mode:soft-light">
<path d="M34.3913 10.706C30.8537 11.981 31.357 15.0363 32.7745 14.808C34.2121 14.5761 39.4723 8.86894 34.3913 10.706Z" fill="#FFCCA6"/>
</g>
<g style="mix-blend-mode:soft-light">
<path d="M35.8064 15.2995C31.5565 14.6295 28.1008 18.7048 30.2815 19.3341C32.4813 19.967 39.1447 15.8222 35.8064 15.2995Z" fill="#FFCCA6"/>
</g>
<g style="mix-blend-mode:soft-light">
<path d="M21.258 18.7686C18.1714 19.2484 18.5727 25.3752 20.9363 25.0275C23.3604 24.6763 23.2512 18.458 21.258 18.7686Z" fill="#FFCCA6"/>
</g>
<g style="mix-blend-mode:soft-light">
<path d="M30.5094 21.5585C24.5737 20.2661 22.9521 25.1933 24.6307 25.5978C26.3093 26.0023 34.9955 22.5379 30.5094 21.5585Z" fill="#FFCCA6"/>
</g>
<g style="mix-blend-mode:multiply" opacity="0.5">
<path d="M31.122 20.7912C30.716 20.848 30.2506 20.9071 29.72 20.972C30.1745 20.8394 30.6478 20.7784 31.122 20.7912Z" fill="#D57F7F"/>
</g>
<g style="mix-blend-mode:multiply" opacity="0.5">
<path d="M32.8207 19.5023L32.8385 19.5347C31.2465 20.3333 29.8481 20.9187 29.7199 20.972H29.7116C24.0881 21.6674 20.979 26.0626 25.0817 26.6815C23.4483 27.181 22.2077 27.4928 22.2077 27.4928C22.2077 27.4928 21.6058 28.0422 20.7487 28.8605C20.2228 29.1804 19.7432 29.2859 19.6162 28.7307C19.4892 28.1755 19.2506 27.3398 19.0096 26.4277C18.9478 25.8087 18.8683 24.8513 18.8469 23.8082C19.1271 24.7714 19.5343 25.8632 20.1148 25.9791C21.3316 26.2225 23.7533 22.6375 23.7296 21.1203C23.698 20.2188 23.4512 19.3369 23.009 18.5449C23.0636 18.5889 23.0933 18.6179 23.0933 18.6179C23.3279 17.5791 23.63 16.5559 23.9979 15.5545C23.0043 20.2557 26.384 19.4038 28.4841 17.3731C30.6981 15.2346 30.6565 11.1547 30.6565 11.1547L30.7349 11.0806C31.2006 11.3647 31.6073 11.732 31.9339 12.1631C31.9339 12.1631 30.9058 14.1868 31.973 15.048C32.2497 15.2706 32.6853 15.3216 33.9176 14.7826C32.493 15.478 30.6969 16.4887 29.9134 17.4658C28.5885 19.1244 29.4504 20.1572 32.8207 19.5023Z" fill="#D57F7F"/>
</g>
<path d="M9.88401 28.1348C9.88401 28.1348 9.9766 28.9786 9.94574 28.8244C9.87406 28.7169 9.78958 28.6181 9.69407 28.53C8.84645 27.6561 6.01395 25.1815 3.90917 25.564C1.54915 25.9929 0.202939 27.1218 0.118652 27.1855C0.22312 27.0395 3.1316 22.139 4.35197 21.9269C7.43376 21.3902 9.82465 24.3597 9.88401 28.1348Z" fill="#FFC31A"/>
<path d="M18.5478 29.8562C18.3377 30.6165 16.7457 32.0746 16.5024 32.2902C16.4834 32.3088 16.4715 32.318 16.4715 32.318C16.4715 32.318 17.3298 30.1865 17.1256 28.6774C17.0437 28.0863 16.0263 28.2497 14.8238 28.6682C12.9469 29.3242 10.6724 30.5794 10.6724 30.5794C11.6221 28.543 14.787 24.1467 15.796 24.8178C16.5855 25.344 18.232 26.8461 18.6808 28.2231C18.803 28.5998 18.5977 29.6719 18.5478 29.8562Z" fill="#FFC31A"/>
<path d="M22.2171 13.6478C22.4997 14.3641 21.937 15.3655 20.9813 16.4295C18.8587 18.7929 14.8723 21.3891 13.7588 22.0927C13.5618 22.2179 13.4502 22.2851 13.4502 22.2851C13.4502 22.2851 10.8124 29.3669 11.1246 33.4491C11.1246 33.4491 9.43528 34.1214 8.41316 32.0873C8.41316 32.0873 11.6742 23.4395 11.1863 21.6859C11.1702 21.6179 11.1399 21.554 11.0973 21.4981C9.86858 20.0284 9.02809 18.6816 8.50694 17.5017C6.70606 13.4125 8.66602 11.2138 11.5341 12.673C11.5341 12.673 10.8503 10.4256 10.7281 8.33699C10.6462 6.94612 10.8112 5.62247 11.5935 5.10206C13.6223 3.75175 15.3199 6.30748 15.3199 6.30748C15.3199 6.30748 15.3543 4.76013 16.1188 3.44113C16.6447 2.52895 17.5208 1.72224 18.968 1.62372C21.5037 1.45218 21.252 3.84795 20.7487 5.31996C20.6373 5.67228 20.4818 6.00981 20.2857 6.32486C20.4524 6.22191 20.6289 6.13496 20.8128 6.06523C21.5796 5.76851 22.8309 5.57727 23.764 6.67838C24.6306 7.69835 22.7205 9.68265 20.9315 11.1848C20.2192 11.7806 19.5235 12.3021 19.0226 12.6661C18.8445 12.7947 18.6902 12.8979 18.5679 12.9894C19.3573 12.4899 21.3743 11.5059 22.2171 13.6478Z" fill="url(#paint4_linear_245_57812)"/>
<g style="mix-blend-mode:soft-light">
<path d="M11.3169 6.64608C10.8872 9.41043 13.3718 11.6115 14.147 8.97347C14.9578 6.21954 11.7834 3.64064 11.3169 6.64608Z" fill="#FFCCA6"/>
</g>
<g style="mix-blend-mode:soft-light">
<path d="M16.7611 4.2119C15.5146 7.34136 19.4571 8.62559 20.2691 5.04294C21.131 1.26093 17.9091 1.33396 16.7611 4.2119Z" fill="#FFCCA6"/>
</g>
<g style="mix-blend-mode:soft-light">
<path d="M20.6752 6.80933C17.4605 8.47837 18.1383 10.6342 20.0983 10.0246C22.1045 9.39519 23.7582 5.20751 20.6752 6.80933Z" fill="#FFCCA6"/>
</g>
<g style="mix-blend-mode:soft-light">
<path d="M9.32618 12.9245C6.10905 14.3802 10.1132 18.8994 11.5817 17.6268C13.106 16.3135 12.0732 11.682 9.32618 12.9245Z" fill="#FFCCA6"/>
</g>
<g style="mix-blend-mode:soft-light">
<path d="M18.6381 13.1806C14.127 14.5947 13.994 17.4309 16.5155 17.5155C19.0833 17.6024 23.319 11.7063 18.6381 13.1806Z" fill="#FFCCA6"/>
</g>
<g style="mix-blend-mode:multiply" opacity="0.5">
<path d="M18.822 8.31396C18.5787 8.66168 18.3282 8.99549 18.0801 9.28294C18.3211 8.95261 18.5727 8.62575 18.822 8.31396Z" fill="#D57F7F"/>
</g>
<g style="mix-blend-mode:multiply" opacity="0.5">
<path d="M20.9815 16.4285C18.8589 18.7919 14.8725 21.3881 13.759 22.0917L13.4669 22.152C13.4669 22.152 12.8935 24.2777 12.2371 23.8117C11.5806 23.3458 11.2315 21.7127 11.2315 21.7127L11.1864 21.6849C11.1703 21.6169 11.14 21.553 11.0974 21.4971C9.86872 20.0286 9.02823 18.6817 8.50708 17.5018L8.55456 17.3859C10.6261 20.4064 12.9018 18.5647 13.2247 16.4761C13.5571 14.3179 11.5343 12.6825 11.5343 12.6825C11.5343 12.6825 10.8505 10.4316 10.7282 8.33715C10.9383 9.22035 11.4559 10.821 12.5991 11.739C14.2196 13.0383 16.0264 10.0155 15.32 6.30532C15.32 6.30532 15.3545 4.75797 16.119 3.43896C16.119 3.43896 15.282 9.86594 16.5618 10.2496C16.9713 10.3655 17.5115 9.94012 18.0754 9.28873C17.0568 10.6796 16.2401 12.1215 16.7695 12.6303C17.6551 13.4892 20.0579 11.8375 20.9411 11.1792C20.2288 11.7749 19.5332 12.2965 19.0322 12.6604L18.6381 12.8331C18.6381 12.8331 14.1412 14.5172 14.33 17.3859C14.4831 19.6959 19.3254 17.3094 20.9815 16.4285Z" fill="#D57F7F"/>
</g>
<g style="mix-blend-mode:multiply" opacity="0.5">
<path d="M20.8129 6.0607L20.5897 6.24268C20.5897 6.24268 19.7385 7.16992 18.8232 8.31275C19.4712 7.36134 20.0656 6.37623 20.6039 5.36179L20.7476 5.31543C20.6363 5.66775 20.4808 6.00528 20.2846 6.32033C20.4517 6.21732 20.6286 6.13037 20.8129 6.0607Z" fill="#D57F7F"/>
</g>
<g style="mix-blend-mode:multiply" opacity="0.8">
<path d="M9.75817 28.5395L9.69407 28.5302C8.84645 27.6563 6.01395 25.1817 3.90917 25.5642C1.54915 25.9931 0.202939 27.122 0.118652 27.1857C0.778698 26.4903 4.56328 24.0412 6.03176 24.5558C7.50024 25.0705 9.75817 28.5395 9.75817 28.5395Z" fill="#D65A6B"/>
</g>
<g style="mix-blend-mode:multiply" opacity="0.8">
<path d="M18.5917 29.7704C18.5917 30.4936 16.7683 32.07 16.5023 32.2936C16.4833 32.3122 16.4715 32.3215 16.4715 32.3215C16.4715 32.3215 17.3298 30.19 17.1256 28.6809C17.0437 28.0897 16.0263 28.2532 14.8237 28.6716C15.5123 28.3668 16.665 27.8985 17.179 27.8997C17.693 27.9008 18.1857 28.4178 18.4255 28.9996C18.5305 29.2439 18.5869 29.5055 18.5917 29.7704Z" fill="#D65A6B"/>
</g>
<g style="mix-blend-mode:multiply" opacity="0.8">
<path d="M13.7234 37.0608C12.8069 35.0313 10.2902 34.7021 10.6487 35.3025C11.0072 35.9029 11.8715 36.742 12.3463 36.8579C12.8212 36.9738 13.7234 37.0608 13.7234 37.0608Z" fill="#D65A6B"/>
</g>
<g style="mix-blend-mode:multiply" opacity="0.88">
<path d="M4.64418 22.3025C5.83131 22.7024 6.42488 24.1628 4.19307 24.7632C2.02299 25.3427 -0.109102 27.4441 0.869095 25.9895C1.87103 24.4839 4.01856 22.0904 4.64418 22.3025Z" fill="#F9C4B5"/>
</g>
<g style="mix-blend-mode:multiply" opacity="0.88">
<path d="M15.3141 25.0645C17.6444 26.6872 16.4834 27.5611 15.2714 28.333C14.0842 29.0887 11.45 30.1597 11.5283 29.7088C11.6067 29.258 11.7527 28.0618 13.5073 26.4635C15.3295 24.8037 14.8962 24.777 15.3141 25.0645Z" fill="#F9C4B5"/>
</g>
<g style="mix-blend-mode:multiply" opacity="0.6">
<path d="M24.5738 37.2232C26.3901 34.8054 25.6351 34.0937 24.8801 33.9326C24.125 33.7715 22.101 33.5536 22.3812 33.644C22.6613 33.7344 23.719 34.1691 24.0075 35.3432C24.2912 36.5023 24.1559 37.5605 24.2758 37.5558C24.3957 37.5512 24.385 37.4817 24.5738 37.2232Z" fill="#D65A6B"/>
</g>
<g style="mix-blend-mode:multiply" opacity="0.6">
<path d="M6.03547 24.5557C4.38536 24.3065 3.34781 25.4332 3.66121 25.454C3.97461 25.4749 4.6679 25.25 6.23966 25.9988C7.81142 26.7475 6.7988 24.6716 6.03547 24.5557Z" fill="#D65A6B"/>
</g>
<g style="mix-blend-mode:multiply" opacity="0.6">
<path d="M17.3534 30.8484C18.4646 30.8321 18.962 28.7621 17.8283 28.3123C16.6946 27.8626 17.2228 28.3935 17.3261 29.0854C17.4294 29.7774 16.9308 30.8542 17.3534 30.8484Z" fill="#D65A6B"/>
</g>
<g style="mix-blend-mode:multiply" opacity="0.5">
<path d="M27.8786 18.5194C25.4379 21.1331 25.2669 21.4333 27.7243 21.1157C30.2458 20.79 31.5041 19.9288 30.5734 19.9323C29.6427 19.9358 28.4366 19.828 28.7998 18.7733C29.1762 17.7081 28.3238 18.0431 27.8786 18.5194Z" fill="#BF65A6"/>
</g>
<g style="mix-blend-mode:multiply" opacity="0.5">
<path d="M13.6829 17.5527C16.0191 19.3457 18.5762 17.6106 17.8461 18.7755C16.9855 20.1466 13.2294 22.3941 12.8305 21.8725C11.8867 20.6381 13.2187 17.1957 13.6829 17.5527Z" fill="#BF65A6"/>
</g>
<g style="mix-blend-mode:multiply" opacity="0.5">
<path d="M12.2749 11.6426C13.3433 12.5861 14.7263 11.6623 15.0053 11.2253C15.2843 10.7884 15.0053 14.4498 14.2289 14.8961C13.4525 15.3423 11.7763 11.2022 12.2749 11.6426Z" fill="#BF65A6"/>
</g>
<g style="mix-blend-mode:multiply" opacity="0.8">
<path d="M11.1247 33.4479C10.3377 31.9087 8.41333 32.0861 8.41333 32.0861C8.41333 32.0861 8.9879 32.9426 9.5506 33.2776C10.1133 33.6125 11.1247 33.4479 11.1247 33.4479Z" fill="#D65A6B"/>
</g>
<g style="mix-blend-mode:multiply" opacity="0.5">
<path d="M17.0472 32.2982C17.0472 32.2982 15.3852 34.0217 14.9507 34.9501C14.9507 34.9501 18.1417 33.4236 19.482 32.8244C20.8531 32.2136 17.0472 32.2982 17.0472 32.2982Z" fill="#BF65A6"/>
</g>
<g style="mix-blend-mode:multiply" opacity="0.5">
<path d="M13.4751 32.4431C15.4861 31.5796 16.3432 32.5242 16.4785 32.3758C17.1208 31.67 17.2419 29.7738 16.2684 30.0937C15.9075 30.2107 13.4751 32.4431 13.4751 32.4431Z" fill="#BF65A6"/>
</g>
<g style="mix-blend-mode:soft-light">
<path d="M20.1113 23.5682C20.4354 24.7805 21.6 24.1987 21.4017 23.5566C21.2035 22.9145 19.8679 22.6583 20.1113 23.5682Z" fill="#FFCCA6"/>
</g>
<g style="mix-blend-mode:soft-light">
<path d="M25.35 25.2535C25.2123 25.5444 26.3627 26.0451 26.5906 25.2709C26.8185 24.4966 25.6527 24.6149 25.35 25.2535Z" fill="#FFCCA6"/>
</g>
<g style="mix-blend-mode:soft-light">
<path d="M9.88301 18.1971C10.6582 18.6479 10.6024 17.8575 9.92931 17.5712C9.2562 17.2849 8.78491 17.5608 9.88301 18.1971Z" fill="#FFCCA6"/>
</g>
<g style="mix-blend-mode:multiply" opacity="0.5">
<path d="M6.52932 23.6806C7.12289 24.3761 8.8193 24.6195 7.66304 23.5172C6.50677 22.4149 5.46684 22.4416 6.52932 23.6806Z" fill="#D57F7F"/>
</g>
<g style="mix-blend-mode:multiply" opacity="0.5">
<path d="M15.0232 13.5528C15.0232 14.6435 17.2253 13.5528 16.4478 13.0892C15.6702 12.6256 15.0208 12.9107 15.0232 13.5528Z" fill="#D57F7F"/>
</g>
<g style="mix-blend-mode:soft-light">
<path d="M24.5334 17.4404C24.4835 18.4754 25.6018 18.3943 25.3513 17.7556C25.1008 17.117 24.5666 16.7218 24.5334 17.4404Z" fill="#FFCCA6"/>
</g>
<g style="mix-blend-mode:multiply" opacity="0.5">
<path d="M30.5877 14.975C29.1631 15.0481 29.7567 17.2456 31.0447 16.3184C32.3565 15.3703 31.0281 14.9519 30.5877 14.975Z" fill="#D57F7F"/>
</g>
<g style="mix-blend-mode:multiply" opacity="0.5">
<path d="M24.0264 26.7659C23.6797 26.0172 22.6018 24.5637 21.962 24.9474C21.3221 25.331 20.8425 26.3383 19.1366 26.0531C18.8493 26.0044 19.0642 26.7659 19.4049 27.3849C19.8572 28.2043 21.0146 27.7593 22.0902 27.444C22.4558 27.3374 24.1985 27.1368 24.0264 26.7659Z" fill="#BF65A6"/>
</g>
<path style="mix-blend-mode:screen" opacity="0.8" d="M26.7712 37.2325C34.0959 37.2325 40.0338 31.435 40.0338 24.2835C40.0338 17.1319 34.0959 11.3345 26.7712 11.3345C19.4464 11.3345 13.5085 17.1319 13.5085 24.2835C13.5085 31.435 19.4464 37.2325 26.7712 37.2325Z" fill="url(#paint5_radial_245_57812)"/>
<path d="M6.81546 10.3678C6.81605 10.4831 6.77259 10.5945 6.69357 10.6803C6.61455 10.766 6.50563 10.8199 6.38809 10.8314C6.33223 10.8361 6.276 10.8291 6.22313 10.8109C6.17025 10.7927 6.12195 10.7637 6.08142 10.7259C6.04089 10.6881 6.00906 10.6423 5.98805 10.5915C5.96703 10.5408 5.95732 10.4862 5.95954 10.4315C5.96071 10.3174 6.00496 10.2077 6.08381 10.1234C6.16267 10.0392 6.27059 9.98628 6.38691 9.97487C6.44219 9.97012 6.49788 9.97682 6.55033 9.99454C6.60277 10.0123 6.6508 10.0406 6.69125 10.0777C6.73171 10.1148 6.76369 10.1598 6.78509 10.2098C6.8065 10.2598 6.81685 10.3136 6.81546 10.3678Z" fill="#FFE800"/>
<path d="M32.6366 5.09969C32.6176 5.57259 32.4751 5.71168 32.043 5.71168C31.3307 5.57259 31.1847 4.4541 32.0608 4.44946C32.2251 4.46222 32.3776 4.53759 32.4853 4.65928C32.5931 4.78097 32.6474 4.93918 32.6366 5.09969Z" fill="#FFE800"/>
<path d="M8.08435 5.96664C8.06654 6.43953 7.9229 6.57862 7.49078 6.57862C6.7785 6.43953 6.63249 5.32104 7.50859 5.31641C7.67283 5.32916 7.82532 5.40453 7.93307 5.52622C8.04082 5.64791 8.09517 5.80613 8.08435 5.96664Z" fill="#FFE800"/>
<defs>
<radialGradient id="paint0_radial_245_57812" cx="0" cy="0" r="1" gradientUnits="userSpaceOnUse" gradientTransform="translate(23.0766 13.2248) scale(22.3988 21.8691)">
<stop stop-color="#FF6B05"/>
<stop offset="0.21" stop-color="#CC9977"/>
<stop offset="0.42" stop-color="#CDA68B"/>
<stop offset="0.61" stop-color="#CDAA91"/>
<stop offset="0.78" stop-color="white" stop-opacity="0"/>
<stop offset="0.91" stop-color="white" stop-opacity="0"/>
<stop offset="1" stop-color="white" stop-opacity="0"/>
</radialGradient>
<linearGradient id="paint1_linear_245_57812" x1="14.004" y1="34.1895" x2="26.9539" y2="35.71" gradientUnits="userSpaceOnUse">
<stop stop-color="#FF6C00"/>
<stop offset="1" stop-color="#FFA900"/>
</linearGradient>
<linearGradient id="paint2_linear_245_57812" x1="13.5949" y1="26.4391" x2="40.1418" y2="29.5563" gradientUnits="userSpaceOnUse">
<stop stop-color="#FFC31A"/>
<stop offset="1" stop-color="#FFA900"/>
</linearGradient>
<linearGradient id="paint3_linear_245_57812" x1="12.0285" y1="22.0522" x2="36.6059" y2="24.938" gradientUnits="userSpaceOnUse">
<stop stop-color="#FFC31A"/>
<stop offset="1" stop-color="#FFA900"/>
</linearGradient>
<linearGradient id="paint4_linear_245_57812" x1="10.4954" y1="25.3479" x2="17.3317" y2="7.58102" gradientUnits="userSpaceOnUse">
<stop stop-color="#FFC31A"/>
<stop offset="1" stop-color="#FFA900"/>
</linearGradient>
<radialGradient id="paint5_radial_245_57812" cx="0" cy="0" r="1" gradientUnits="userSpaceOnUse" gradientTransform="translate(26.7712 24.2835) scale(13.2626 12.949)">
<stop stop-color="#FFBA00"/>
<stop offset="0.25" stop-color="#FF3B00"/>
<stop offset="0.38" stop-color="#FF0000"/>
<stop offset="0.42" stop-color="#EA0000" stop-opacity="0.4"/>
<stop offset="0.58" stop-color="#CC6C6C" stop-opacity="0.3"/>
<stop offset="0.73" stop-color="#E6A0A0" stop-opacity="0.2"/>
<stop offset="0.85" stop-color="#FDF1F1" stop-opacity="0.1"/>
<stop offset="0.95" stop-color="white" stop-opacity="0"/>
<stop offset="1" stop-color="white" stop-opacity="0"/>
</radialGradient>
</defs>
</svg>
