<svg width="241" height="36" viewBox="0 0 241 36" fill="none" xmlns="http://www.w3.org/2000/svg">
<g style="mix-blend-mode:multiply" opacity="0.5">
<path d="M239.996 19.056C240.005 18.9544 240.005 18.8524 239.996 18.7508C239.996 18.4795 239.996 18.1913 239.996 17.9201C239.821 16.4237 239.46 14.9546 238.924 13.546C238.821 13.2578 238.702 12.9866 238.583 12.7153C237.805 10.8973 236.643 9.26687 235.178 7.9344C234.784 7.60722 234.369 7.30701 233.935 7.03586C231.751 5.56584 229.163 4.80754 226.528 4.86579H14.4554C11.6481 4.80718 8.89978 5.67266 6.63691 7.32796C4.37403 8.98327 2.72308 11.3359 1.94017 14.0207C1.85503 14.292 1.75287 14.5633 1.68476 14.8515C1.61665 15.1397 1.53151 15.394 1.4634 15.6652C1.39529 15.9365 1.34421 16.2247 1.29313 16.496C1.12675 17.3295 1.01865 18.1736 0.969604 19.0221C0.969604 19.395 0.969604 19.7511 0.969604 20.1071C0.969594 21.3308 1.08935 22.5516 1.32718 23.7521C1.32718 24.0234 1.42935 24.3116 1.49746 24.5829C1.56557 24.8541 1.71881 25.4136 1.85503 25.8205C1.99125 26.2274 2.04234 26.3799 2.1445 26.6681C2.99488 29.242 4.65406 31.4754 6.877 33.0385C9.09994 34.6015 11.7688 35.4113 14.4894 35.3484H226.528C228.279 35.3992 230.022 35.0811 231.642 34.415C233.261 33.7489 234.722 32.7498 235.927 31.483C236.165 31.2117 236.404 30.9405 236.608 30.6692C237.915 28.9837 238.865 27.0516 239.4 24.9897L239.605 24.159C239.89 22.8272 240.033 21.4689 240.03 20.1071C240.03 19.785 240.03 19.412 239.996 19.056ZM233.594 24.2777L233.287 25.1084C232.799 26.5063 231.874 27.7124 230.649 28.551C229.424 29.3895 227.962 29.8168 226.476 29.7707H14.4554C13.3581 29.8151 12.2664 29.5947 11.2731 29.1283C10.2799 28.6619 9.41465 27.9633 8.75117 27.092C8.53303 26.8213 8.3393 26.532 8.17224 26.2274C7.8891 25.7408 7.64978 25.2302 7.45709 24.7015C7.35492 24.4133 7.26978 24.1251 7.20167 23.8538C6.85598 22.6457 6.67275 21.3972 6.65679 20.141C6.65679 19.9715 6.65679 19.5985 6.65679 19.0729C6.73244 18.2782 6.86906 17.4904 7.06545 16.7164C7.13495 16.4349 7.22023 16.1576 7.32087 15.8856C7.42884 15.5273 7.55964 15.1763 7.7125 14.8345L8.15521 14.0038C8.78158 12.9199 9.69676 12.0295 10.7996 11.4311C11.9024 10.8328 13.15 10.5496 14.4043 10.6131H226.528C227.564 10.5695 228.597 10.7622 229.547 11.1765C230.497 11.5908 231.34 12.2157 232.01 13.0035C232.224 13.2636 232.423 13.5352 232.606 13.8173C233.38 15.0942 233.889 16.5122 234.105 17.9879C234.159 18.2626 234.199 18.5399 234.224 18.8186C234.224 18.9373 234.224 19.039 234.224 19.1407C234.224 19.6833 234.224 20.0562 234.224 20.2258C234.207 21.5992 233.995 22.9634 233.594 24.2777Z" fill="#1A1322"/>
</g>
<path d="M239.094 16.2586C239.102 16.2251 239.102 16.1903 239.094 16.1569C239.103 16.061 239.103 15.9645 239.094 15.8686C239.094 15.5974 239.094 15.3261 239.094 15.0549V14.648C239.094 14.648 239.094 14.5463 239.094 14.4954C238.982 14.1717 238.851 13.8547 238.702 13.546C238.516 12.5742 238.242 11.621 237.885 10.6978C237.766 10.4265 237.664 10.1383 237.544 9.88401C237.425 9.62971 237.323 9.39235 237.204 9.155L236.693 8.23951C236 7.08085 235.133 6.03458 234.122 5.137C233.815 4.86574 233.509 4.62839 233.185 4.39104C232.648 4.00397 232.078 3.66364 231.483 3.37382L231.04 3.18733C230.485 2.96431 229.916 2.77743 229.337 2.62786C228.222 2.36177 227.078 2.23085 225.932 2.23793H14.3532C11.2503 2.10513 8.21088 3.14011 5.83948 5.137C4.50744 6.31335 3.42487 7.74283 2.65534 9.34149C2.5018 9.6445 2.36537 9.9558 2.24668 10.2739C2.23715 10.3301 2.23715 10.3874 2.24668 10.4435L2.14451 10.6808C2.14451 10.8504 2.00829 11.0199 1.95721 11.1894C1.85505 11.4777 1.76991 11.7489 1.68477 12.0202C1.59963 12.2914 1.68477 12.0202 1.68477 12.1219V12.2914C1.68477 12.4779 1.5826 12.6475 1.54855 12.8339C1.51449 13.0204 1.41233 13.3765 1.36125 13.6647V13.9868C1.22583 14.6977 1.14049 15.4171 1.10583 16.1399V16.2586C1.10583 16.5807 1.10583 16.9028 1.10583 17.2249C1.10685 18.4373 1.22661 19.6468 1.46341 20.8361C1.46341 21.1073 1.56558 21.3786 1.63369 21.6498C1.7018 21.9211 1.85504 22.4636 1.97424 22.8705C2.09343 23.2774 2.16154 23.43 2.2637 23.7182C2.85138 25.4027 3.78032 26.949 4.99294 28.2614C6.20556 29.5737 7.676 30.6241 9.3131 31.3473C10.9354 32.0009 12.6713 32.3293 14.4213 32.3136H225.829C227.566 32.3664 229.293 32.0522 230.899 31.3918C232.504 30.7314 233.951 29.7397 235.144 28.4821C235.263 28.3465 235.399 28.2109 235.518 28.0583C235.597 27.9721 235.671 27.8815 235.739 27.787L236.114 27.2954C237.202 25.7546 238.004 24.0319 238.481 22.2093V22.0228V21.8194L238.583 21.3786L238.685 20.87C238.948 19.6663 239.091 18.4396 239.111 17.208C239.111 16.9198 239.111 16.5807 239.094 16.2586ZM232.964 20.7513C232.964 20.9378 232.862 21.1412 232.794 21.3277C232.726 21.5142 232.794 21.5481 232.675 21.6668C232.555 21.7855 232.675 21.8024 232.675 21.8702V22.0737C232.277 23.2448 231.566 24.2855 230.618 25.0833C229.669 25.8812 228.52 26.4057 227.294 26.6003C226.837 26.6704 226.376 26.7044 225.915 26.702H14.3532C13.7167 26.7027 13.0823 26.6287 12.4632 26.4816C11.2423 26.2347 10.1224 25.6329 9.24499 24.7523C9.07471 24.5828 8.92146 24.3963 8.76821 24.2098V24.1251L8.5128 23.769L8.20631 23.2604L7.95089 22.8027C7.81467 22.4975 7.67846 22.2093 7.55926 21.9041V21.7515C7.55926 21.7515 7.55926 21.582 7.47412 21.5142C7.44211 21.3931 7.4023 21.2742 7.35493 21.1582C7.36246 21.0792 7.36246 20.9998 7.35493 20.9208C7.35493 20.6835 7.23574 20.4461 7.18466 20.2257C6.88789 19.2423 6.69388 18.231 6.60572 17.208C6.5876 16.8522 6.5876 16.4957 6.60572 16.1399C6.69778 15.3549 6.85149 14.5783 7.06546 13.8173C7.06546 13.546 7.21871 13.2747 7.30385 13.0035C7.29426 12.9417 7.29426 12.8788 7.30385 12.817C7.37573 12.6826 7.45532 12.5524 7.54223 12.4271V12.2914C7.58049 12.1867 7.62601 12.0847 7.67845 11.9863C7.76465 11.7837 7.86127 11.5856 7.96792 11.3929C7.96792 11.3081 8.05306 11.2233 8.10414 11.1555C8.13363 11.0874 8.17387 11.0245 8.22333 10.969C8.3608 10.7803 8.5086 10.5991 8.66605 10.4265L8.76821 10.2909C9.03791 9.95164 9.34016 9.63935 9.67067 9.35845L10.1645 8.96851C11.3923 8.11975 12.8589 7.68051 14.3532 7.71395H225.761C226.876 7.68852 227.982 7.91456 228.997 8.37514C229.504 8.60406 229.975 8.90689 230.393 9.27368C230.676 9.52206 230.944 9.7882 231.193 10.0705C231.408 10.3294 231.607 10.6011 231.789 10.8843C232.289 11.6917 232.673 12.5648 232.93 13.4782C232.93 13.8003 233.1 14.1055 233.168 14.4106V14.5632C233.168 14.6819 233.168 14.8175 233.253 14.9362V15.021C233.253 15.3092 233.253 15.5804 233.373 15.8517C233.492 16.1229 233.373 16.0551 233.373 16.1569C233.373 16.6994 233.373 17.0723 233.373 17.2419C233.378 18.4238 233.241 19.6021 232.964 20.7513Z" fill="#9E4000"/>
<path d="M239.111 15.055V14.4786V13.5461C239.026 12.6262 238.872 11.7138 238.651 10.8166C238.651 10.5284 238.515 10.2571 238.43 9.98586C238.4 9.84194 238.361 9.7003 238.311 9.56202C238.255 9.42417 238.21 9.28253 238.174 9.13818C238.174 9.13818 237.97 8.57871 237.851 8.30746C237.401 7.25615 236.829 6.26051 236.148 5.34057C235.963 5.0554 235.758 4.78348 235.535 4.5268C235.258 4.19451 234.962 3.87757 234.65 3.5774C234.394 3.32309 234.105 3.08574 233.815 2.83144C231.542 1.03973 228.711 0.0978938 225.813 0.169718H14.3533C13.7096 0.170872 13.0667 0.216189 12.4292 0.305347C11.3231 0.442555 10.2406 0.727686 9.21101 1.15303L8.87046 1.30561C8.46916 1.47877 8.08203 1.68283 7.71259 1.91594C4.94562 3.67153 2.90802 6.36249 1.97432 9.49421C1.97716 9.55069 1.97716 9.60727 1.97432 9.66374C1.97432 9.91805 1.82107 10.1724 1.75296 10.4267C1.74504 10.4829 1.74504 10.54 1.75296 10.5962C1.74557 10.6695 1.74557 10.7433 1.75296 10.8166C1.75296 10.9861 1.75296 11.1557 1.63377 11.3252C1.6433 11.3813 1.6433 11.4386 1.63377 11.4947C1.63377 11.749 1.5316 12.0033 1.49755 12.2576C1.49755 12.2576 1.49755 12.2576 1.49755 12.3594L1.39539 13.0545C1.39539 13.3257 1.39539 13.6139 1.39539 13.8852V14.1565C1.39539 14.5125 1.39539 14.8516 1.39539 15.1906C1.39539 15.5297 1.39539 15.8518 1.39539 16.1739V16.2757C1.46635 17.5526 1.66601 18.8192 1.99135 20.0563C1.99135 20.3784 2.16162 20.6836 2.26379 20.9888L2.36595 21.277C2.40371 21.4095 2.44919 21.5397 2.50217 21.6669V21.8195L2.7065 22.3451C2.8257 22.5994 2.92786 22.8537 3.04705 23.091L3.14922 23.2945C3.20493 23.4165 3.26747 23.5354 3.33652 23.6505L3.5068 23.9726L3.59193 24.1082C4.62751 26.0589 6.17544 27.6932 8.07066 28.8368C9.96587 29.9803 12.1373 30.5902 14.3533 30.6015H225.761C228.16 30.6474 230.523 30.0123 232.572 28.7705C232.96 28.5301 233.335 28.2698 233.696 27.9906C233.747 27.9723 233.79 27.9361 233.815 27.8889H233.918C234.173 27.6685 234.428 27.4481 234.684 27.1938C236.027 25.8412 237.081 24.2323 237.783 22.4637L237.885 22.2094C237.895 22.1306 237.895 22.0509 237.885 21.9721C237.892 21.9044 237.892 21.8363 237.885 21.7686V21.616C237.988 21.3564 238.073 21.0902 238.14 20.8192C238.567 19.3968 238.819 17.928 238.89 16.4452C238.89 16.4452 238.89 16.4452 238.89 16.3435V16.157C238.89 15.8857 238.89 15.6314 238.89 15.3771V15.1398L239.111 15.055Z" fill="url(#paint0_linear_263_67283)"/>
<path fill-rule="evenodd" clip-rule="evenodd" d="M235.878 4.24205H234.395H233.612H231.364H231.211C226.808 4.13419 183.945 4.01233 137.275 3.87965L137.274 3.87965C81.2417 3.72035 19.7221 3.54545 12.6896 3.36046C10.5625 3.30443 8.41998 3.24781 6.27115 3.19076C4.57776 4.73657 3.29635 6.69159 2.56017 8.87986C2.9348 8.8791 3.31043 8.87833 3.68706 8.87757C83.2329 8.71596 206.804 8.46491 229.457 8.12442L237.239 7.98879L238.192 8.05661C238.329 8.36177 238.448 8.66694 238.55 8.9721H237.699L230.802 9.09078C219.054 9.27292 138.271 9.43091 69.841 9.56473C44.1931 9.61489 20.2806 9.66165 2.38879 9.70503C2.36442 9.79945 2.32784 9.89387 2.29126 9.9883C2.25608 10.0791 2.22089 10.1699 2.19657 10.2608C2.18865 10.317 2.18865 10.3741 2.19657 10.4303C2.18917 10.5036 2.18917 10.5774 2.19657 10.6507C2.19657 10.8202 2.19657 10.9898 2.07737 11.1593C2.0869 11.2154 2.0869 11.2727 2.07737 11.3288C2.07737 11.4814 2.04059 11.634 2.00381 11.7866C2.00234 11.7927 2.00087 11.7988 1.9994 11.8049C35.4664 12.0303 76.7935 12.2745 115.405 12.5027L115.406 12.5027L115.407 12.5027C170.307 12.8272 219.716 13.1192 233.237 13.2784H239.095H239.384L239.538 14.3125H239.35H233.578C219.091 14.1202 163.535 13.7924 104.097 13.4416L104.095 13.4416L104.094 13.4416L104.093 13.4416C68.7826 13.2332 32.1023 13.0167 1.84968 12.8158L1.83899 12.8886V13.7193V13.9906V15.0247V16.008V16.1098C1.90995 17.3867 2.10961 18.6533 2.43495 19.8904C2.43495 20.0315 2.46763 20.1694 2.51294 20.3054C83.49 20.4757 210.766 20.6377 233.408 20.6023H238.599C239.017 19.1958 239.263 17.7444 239.333 16.2793V16.1776V15.9911V15.2112V14.9739L239.555 14.8891V14.3127V13.3802C239.469 12.4603 239.316 11.5479 239.095 10.6507C239.095 10.4386 239.021 10.2357 238.948 10.0353C238.922 9.96329 238.896 9.89163 238.873 9.81997C238.844 9.67605 238.804 9.5344 238.754 9.39613C238.699 9.25828 238.653 9.11663 238.618 8.97229C238.618 8.97229 238.414 8.41282 238.295 8.14156C237.844 7.09026 237.273 6.09462 236.592 5.17468C236.407 4.88951 236.202 4.61759 235.979 4.3609C235.946 4.32106 235.912 4.28144 235.878 4.24205ZM235.841 4.19884C235.763 4.10845 235.683 4.01925 235.602 3.93126C235.678 4.01682 235.752 4.10347 235.826 4.19119L235.841 4.19884ZM238.329 21.5178H233.118C209.922 21.5178 83.2794 21.3634 2.84002 21.2122C2.87105 21.3099 2.90634 21.4063 2.94578 21.501V21.6536L3.15011 22.1792C3.19897 22.2834 3.24497 22.3877 3.29046 22.4907C3.35593 22.6391 3.42033 22.7851 3.49066 22.9251L3.59282 23.1286C3.64854 23.2506 3.71107 23.3695 3.78012 23.4846L3.9504 23.8067L4.03554 23.9423C4.05924 23.987 4.08321 24.0315 4.10744 24.0758C5.25856 24.1157 6.20214 24.1559 6.90024 24.1964C10.4623 24.3943 49.7524 24.6935 94.262 25.0324H94.2621C152.73 25.4777 220.205 25.9915 227.533 26.4343L235.076 26.8921L235.244 26.9095C236.531 25.5818 237.545 24.0151 238.226 22.2978L238.329 22.0435C238.338 21.9647 238.338 21.885 238.329 21.8062C238.335 21.7385 238.335 21.6704 238.329 21.6027V21.5178ZM234.437 27.6575L234.242 27.638L230.802 27.2142C229.12 27.0368 162.921 26.8995 106.425 26.7823H106.424H106.423H106.423H106.423C65.736 26.6979 30.0814 26.624 27.18 26.553C24.5237 26.553 22.3442 26.4343 21.2374 26.3665L17.8319 26.553C16.5359 26.6164 14.9147 26.6947 13.0393 26.7853L13.0356 26.7855C11.0877 26.8796 8.86579 26.987 6.4494 27.1046C7.07728 27.6955 7.76891 28.2211 8.51426 28.6709C10.4095 29.8144 12.5809 30.4243 14.7969 30.4356H226.205C228.604 30.4815 230.966 29.8464 233.016 28.6046C233.404 28.3642 233.779 28.1039 234.14 27.8247C234.191 27.8064 234.233 27.7703 234.259 27.723H234.361L234.361 27.7229C234.387 27.7011 234.412 27.6793 234.437 27.6575ZM5.56455 26.1797C11.472 26.0428 17.0164 25.9053 17.7468 25.7731C15.483 25.6477 10.8406 25.5222 4.94532 25.3981C5.14113 25.6671 5.34773 25.9279 5.56455 26.1797ZM9.50558 1.05391L9.37662 1.11169C15.9912 1.24256 12.8452 1.13342 9.50558 1.05391ZM234.617 3.24178H234.916C234.78 3.11589 234.636 2.99238 234.491 2.86686C234.414 2.80053 234.337 2.73365 234.259 2.66554C231.986 0.873834 229.154 -0.0679997 226.256 0.00382419H199.196C182.075 0.0754614 157.902 0.148887 132.86 0.224951C80.025 0.385438 23.3243 0.557666 20.8458 0.749603L20.5602 0.775206L20.56 0.77522C18.6497 0.946471 14.1589 1.34905 12.6726 1.46166L23.8086 1.97026C28.6058 2.20034 87.2497 2.42543 141.059 2.63195L141.059 2.63195C186.375 2.80588 228.261 2.96665 231.671 3.10616L234.617 3.24178ZM31.8798 0.00382419H14.7969C14.1532 0.00497852 13.5103 0.0502954 12.8728 0.139453C11.7667 0.276661 10.6842 0.561792 9.65462 0.987134L9.54998 1.03402C11.0545 0.95973 13.4394 0.852911 16.3574 0.722219L16.3575 0.722214L16.3578 0.722201L16.3578 0.722198L16.3579 0.722196C20.726 0.526553 26.2884 0.277416 31.8798 0.00382419Z" fill="url(#paint1_linear_263_67283)"/>
<defs>
<linearGradient id="paint0_linear_263_67283" x1="119.853" y1="2.25552e-05" x2="119.853" y2="32.3721" gradientUnits="userSpaceOnUse">
<stop stop-color="#DC9D3B"/>
<stop offset="1" stop-color="#C34A13"/>
</linearGradient>
<linearGradient id="paint1_linear_263_67283" x1="-2.46486" y1="-0.403063" x2="-2.46486" y2="29.1301" gradientUnits="userSpaceOnUse">
<stop stop-color="#F0CA57"/>
<stop offset="1" stop-color="#D45B1A"/>
</linearGradient>
</defs>
</svg>
