<svg width="26" height="28" viewBox="0 0 26 28" fill="none" xmlns="http://www.w3.org/2000/svg">
<g clip-path="url(#clip0_414_83669)">
<g style="mix-blend-mode:multiply" opacity="0.5">
<path d="M25.4741 14.7583C25.4805 14.6807 25.4805 14.6026 25.4741 14.525C25.4741 14.3046 25.4741 14.0972 25.4092 13.8769C25.2802 12.7109 25.0058 11.5657 24.5923 10.4679C24.5016 10.2605 24.4238 10.0401 24.333 9.83272C23.7057 8.43185 22.7861 7.18116 21.6359 6.16445C21.3644 5.92678 21.0786 5.706 20.7801 5.50339C19.0897 4.36321 17.0875 3.77453 15.0488 3.81832H10.9642C8.79989 3.77062 6.67979 4.4348 4.92981 5.70875C3.17983 6.9827 1.89682 8.79592 1.27801 10.8697C1.20021 11.0771 1.13537 11.2974 1.07054 11.5178L0.901971 12.1659C0.901971 12.3733 0.811203 12.5936 0.772303 12.814C0.634301 13.4765 0.543307 14.1478 0.5 14.8231C0.5 15.0953 0.5 15.3805 0.5 15.6527C0.499966 16.6054 0.591149 17.556 0.772303 18.4914C0.772303 18.7117 0.863071 18.9191 0.914938 19.1395C0.966805 19.3598 1.08351 19.7746 1.17427 20.0857L1.40768 20.7468C2.06419 22.7489 3.34794 24.4866 5.06902 25.7028C6.7901 26.919 8.85709 27.5492 10.9642 27.5H15.0488C16.403 27.5404 17.7504 27.2933 19.0021 26.7749C20.2538 26.2565 21.3813 25.4787 22.3102 24.4928C22.5023 24.2904 22.684 24.0784 22.8548 23.8577C23.8668 22.5516 24.5994 21.0515 25.0073 19.4506C25.0073 19.2432 25.124 19.0228 25.1629 18.8025C25.391 17.7682 25.504 16.7118 25.5 15.6527C25.5 15.3805 25.487 15.0953 25.4741 14.7583ZM20.5596 18.8154C20.4948 19.0228 20.417 19.2432 20.3262 19.4635C19.9495 20.5515 19.2336 21.49 18.2836 22.141C17.3336 22.792 16.1998 23.1211 15.0488 23.08H10.9642C10.1135 23.1238 9.26506 22.9575 8.49388 22.5958C7.7227 22.2341 7.05251 21.6881 6.54253 21.006C6.37917 20.7925 6.23181 20.5672 6.10166 20.332C5.88579 19.9511 5.70357 19.5521 5.55705 19.1395C5.47221 18.9288 5.40287 18.7122 5.34959 18.4914C5.08596 17.55 4.94646 16.5783 4.93465 15.6008C4.92079 15.3245 4.92079 15.0476 4.93465 14.7713C4.98548 14.15 5.0896 13.5342 5.24585 12.9307C5.24585 12.7233 5.36255 12.5159 5.44035 12.2955C5.527 12.0171 5.63094 11.7444 5.75156 11.4789C5.85529 11.2585 5.95902 11.0512 6.08869 10.8308C6.56763 9.97391 7.28006 9.27052 8.14314 8.80242C9.00622 8.33433 9.98449 8.12076 10.9642 8.18654H15.0488C15.8508 8.14627 16.6513 8.29273 17.3871 8.61439C18.1229 8.93604 18.7739 9.4241 19.2889 10.0401C19.4559 10.2432 19.6117 10.4552 19.7557 10.6753C20.3474 11.6702 20.7394 12.7709 20.9097 13.9158C20.9097 14.1491 20.9876 14.3694 21.0005 14.5639C21.0069 14.6502 21.0069 14.7368 21.0005 14.8231C21.0005 15.2249 21.0005 15.5231 21.0005 15.6527C21.0074 16.7397 20.8589 17.8222 20.5596 18.8673V18.8154Z" fill="#1C1722"/>
</g>
<path d="M25.4741 13.1639C25.4809 13.0906 25.4809 13.0168 25.4741 12.9435C25.4741 12.7231 25.4741 12.5028 25.4092 12.2954C25.2817 11.1292 25.0072 9.98377 24.5923 8.88638C24.5145 8.66602 24.4238 8.45863 24.333 8.25123C23.7186 6.828 22.7977 5.55778 21.6359 4.53112C21.3679 4.2853 21.0819 4.05999 20.7801 3.85709C19.0897 2.71691 17.0875 2.12824 15.0488 2.17202H10.9642C8.79272 2.12533 6.66648 2.79613 4.9152 4.0804C3.16391 5.36468 1.88544 7.19067 1.27801 9.27524C1.27801 9.49559 1.13537 9.71595 1.07054 9.92334C1.00571 10.1307 0.953838 10.3511 0.901971 10.5585C0.850104 10.7659 0.811203 10.9862 0.772303 11.2066C0.636098 11.8563 0.545112 12.5146 0.5 13.1768C0.5 13.462 0.5 13.7342 0.5 14.0194C0.499998 14.9678 0.591185 15.9141 0.772303 16.8451C0.772303 17.0654 0.863071 17.2858 0.914938 17.4932C0.966805 17.7006 1.07054 18.1413 1.17427 18.4524L1.40768 19.1135C1.84103 20.2799 2.45827 21.3695 3.236 22.341C3.3916 22.5354 3.56017 22.7169 3.72873 22.8984C4.65964 23.872 5.78473 24.6393 7.03114 25.1506C8.27755 25.662 9.61749 25.9059 10.9642 25.8667H15.0488C16.406 25.9064 17.7563 25.6578 19.0102 25.1372C20.2642 24.6165 21.3934 23.8358 22.3231 22.8465C22.5047 22.6521 22.6862 22.4317 22.8548 22.2243C23.8643 20.9167 24.5967 19.4172 25.0073 17.8172C25.0721 17.5969 25.124 17.3765 25.1629 17.1691C25.391 16.1348 25.504 15.0785 25.5 14.0194C25.5 13.7342 25.487 13.462 25.4741 13.1639ZM10.9642 21.4855C10.3372 21.4973 9.7121 21.4142 9.10996 21.2392C8.07405 20.9333 7.16454 20.3014 6.5166 19.4375C6.35312 19.2195 6.20577 18.9899 6.07573 18.7505C5.86002 18.374 5.67778 17.9793 5.53112 17.571C5.44602 17.3547 5.37244 17.134 5.31068 16.9099C5.05578 15.9715 4.92071 15.0046 4.90871 14.0323C4.90871 13.9027 4.90871 13.6046 4.90871 13.1898C4.96071 12.5729 5.06482 11.9615 5.21992 11.3621C5.27284 11.147 5.33778 10.9349 5.41442 10.727C5.50951 10.4505 5.61324 10.1783 5.72562 9.91038C5.82504 9.68785 5.93762 9.47144 6.06276 9.26228C6.53291 8.38674 7.24484 7.6647 8.11381 7.18211C8.98278 6.69953 9.97218 6.47673 10.9642 6.54024H15.0488C15.8519 6.50153 16.653 6.65001 17.3889 6.97394C18.1248 7.29788 18.7752 7.7884 19.2889 8.40678C19.4589 8.60751 19.6149 8.81972 19.7557 9.04192C20.347 10.0324 20.7391 11.1287 20.9097 12.2695C20.9573 12.4871 20.9877 12.7081 21.0005 12.9305C21.0069 13.0125 21.0069 13.0949 21.0005 13.1768C21.0005 13.5916 21.0005 13.8897 21.0005 14.0194C20.9825 15.1059 20.8078 16.1843 20.4818 17.221C20.4177 17.4417 20.3397 17.6581 20.2484 17.8691C19.8753 18.9594 19.1602 19.9002 18.2094 20.5518C17.2586 21.2033 16.1228 21.5308 14.971 21.4855H10.9642Z" fill="#9E4000"/>
<path d="M25.1369 8.97718C25.1369 8.75683 25.0202 8.53647 24.9554 8.32908C24.5874 7.00502 24.0001 5.75195 23.2178 4.62193C23.0622 4.38861 22.8807 4.16825 22.7121 3.96086C21.7846 2.83651 20.6115 1.93984 19.2829 1.33985C17.9543 0.739859 16.5058 0.452535 15.0487 0.499986H10.9642C9.57281 0.484502 8.19256 0.748991 6.90556 1.27771C6.48754 1.45154 6.08049 1.65066 5.68668 1.87397C4.40412 2.72717 3.31066 3.83478 2.47419 5.12805C1.63771 6.42133 1.07608 7.87266 0.824131 9.39197C0.824131 9.61232 0.733364 9.83268 0.694463 10.053C0.655563 10.2734 0.694463 10.4678 0.603696 10.6882C0.512928 10.9085 0.603696 11.1159 0.603696 11.3363C0.603696 11.5566 0.603696 12.114 0.603696 12.5029C0.603696 12.8917 0.603696 13.0602 0.603696 13.3454C0.672346 14.6087 0.898863 15.8584 1.27797 17.0655L1.51137 17.7266C1.64104 18.0636 1.78367 18.4006 1.93928 18.7247L2.28938 19.3987C3.12788 20.9793 4.39189 22.2939 5.93858 23.1941C7.48526 24.0943 9.25297 24.5441 11.042 24.4928H15.1265C16.9975 24.527 18.8403 24.0327 20.4429 23.067C20.7471 22.8745 21.0413 22.6668 21.3246 22.4448C22.7441 21.2748 23.8419 19.7625 24.5145 18.0506C24.6079 17.8347 24.6902 17.614 24.7609 17.3896C25.2178 16.0821 25.4842 14.7157 25.5518 13.3324C25.5583 13.2548 25.5583 13.1768 25.5518 13.0991C25.5518 12.8917 25.5518 12.6973 25.5518 12.5029C25.5476 11.3157 25.4083 10.1329 25.1369 8.97718ZM21.0264 13.3454C20.8361 14.5863 20.3612 15.7663 19.639 16.7933C19.4963 17.0137 19.0295 17.6099 18.861 17.8173C18.438 18.4217 17.8624 18.9032 17.1927 19.2128C16.5231 19.5225 15.7833 19.6492 15.0487 19.5802H10.9642C10.3668 19.5342 9.78036 19.3942 9.22662 19.1654C8.79552 19.0828 8.3881 18.9057 8.03367 18.6469L7.46314 18.3617C6.95743 17.9988 6.73699 18.284 6.41282 17.7914C6.25913 17.5836 6.12459 17.3624 6.01085 17.1303C5.42178 15.9529 5.06935 14.6714 4.97351 13.3584C4.97351 12.9436 4.97351 12.6454 4.97351 12.5158C4.95529 12.1747 4.95529 11.8329 4.97351 11.4918C4.97351 11.2974 4.97351 11.077 5.06428 10.8437C5.15504 10.6104 5.15504 10.3123 5.21988 10.0401C5.28471 9.76787 5.32361 9.59936 5.38845 9.37901C5.65177 8.10348 6.35363 6.96042 7.37216 6.14826C8.39069 5.3361 9.66157 4.90614 10.9642 4.93302H15.0487C16.1763 4.89992 17.2854 5.22446 18.2171 5.86013C19.1488 6.4958 19.8553 7.40997 20.2354 8.47166C20.3262 8.69202 20.417 8.91237 20.4818 9.11977C20.8236 10.1895 21.0113 11.3025 21.0394 12.4251V12.5029C21.0394 12.5936 21.0394 12.801 21.0394 13.0862C21.0408 13.1728 21.0365 13.2594 21.0264 13.3454Z" fill="url(#paint0_linear_414_83669)"/>
<g opacity="0.5">
<path d="M15.0488 23.6762H10.9643C3.9233 23.6762 0.590833 17.7136 0.513032 12.0103C0.506561 12.1312 0.506561 12.2524 0.513032 12.3733C0.513032 18.1543 3.78067 24.3761 10.9772 24.3761H15.0618C22.2454 24.3761 25.513 18.1543 25.513 12.3733C25.5195 12.2524 25.5195 12.1312 25.513 12.0103C25.3574 17.7136 22.0768 23.6762 15.0488 23.6762Z" fill="url(#paint1_linear_414_83669)"/>
</g>
<g style="mix-blend-mode:multiply" opacity="0.4">
<path d="M25.1368 8.87348H24.6181L20.5595 9.0031H19.7944C2.17255 9.48269 19.0424 9.7549 5.82919 9.85859H5.23272H1.07037H0.694336C0.694336 9.63824 0.772137 9.41788 0.824004 9.21049H1.27784H5.40129H6.12743C19.4184 9.14568 1.79651 8.87348 19.2887 8.40684H20.2742L24.3199 8.27722H24.9163C24.9812 8.43277 25.033 8.65312 25.1368 8.87348Z" fill="#C97B3A"/>
<path d="M25.5 12.2955C25.5 12.4899 25.5 12.6844 25.5 12.8917H21.0005C3.79357 12.7751 18.8999 11.777 5.28475 11.3493H4.98651L0.772303 11.2067H0.5C0.5 10.9993 0.5 10.7789 0.5 10.5715H0.901971L5.07728 10.7141H5.47925C19.1722 11.1289 3.76763 12.1659 20.9097 12.2825H25.5V12.2955Z" fill="#C97B3A"/>
<path d="M25.1368 17.1693C25.1368 17.3766 25.0331 17.597 24.9812 17.8174H24.4107H20.3002H19.3277C16.2546 17.8174 24.5144 17.8174 24.4107 17.8174C16.6306 17.8174 17.7069 17.597 6.38684 17.4674H5.55697H1.43352H0.914852L0.772217 16.8193H1.20012H5.3495H6.01081C19.6259 16.9748 2.12076 17.2859 19.8075 17.1433H20.5596H24.683L25.1368 17.1693Z" fill="#C97B3A"/>
</g>
<g style="mix-blend-mode:overlay" opacity="0.5">
<path d="M20.7283 9.10679L25.0851 8.97717L25.2277 9.67712L20.6764 9.43085L20.7283 9.10679Z" fill="#FFDE55"/>
</g>
<g style="mix-blend-mode:overlay" opacity="0.5">
<path d="M21.3768 13.0861H25.4614C25.4406 14.1226 25.3014 15.1533 25.0465 16.1581C25.0465 16.1581 25.3188 13.9935 24.45 13.6824C23.1662 13.4534 21.8639 13.345 20.5599 13.3583L21.3768 13.0861Z" fill="#FFDE55"/>
</g>
<g style="mix-blend-mode:overlay" opacity="0.5">
<path d="M18.8867 18.0765H25.007L24.8903 18.5172C23.7487 18.4009 22.6017 18.3447 21.4541 18.3487C18.368 18.271 15.8784 18.258 15.8784 18.258L18.8867 18.0765Z" fill="#FFDE55"/>
</g>
<g style="mix-blend-mode:multiply" opacity="0.7">
<path d="M15.5156 21.8563H10.7568C4.83092 21.8563 4.66235 14.9734 4.66235 14.1827C4.66235 13.3921 4.83092 6.52216 10.7568 6.52216H15.5156C21.4544 6.52216 21.6229 13.405 21.6229 14.1827C21.6229 14.9605 21.4544 21.8563 15.5156 21.8563Z" fill="#9E4000"/>
</g>
<g style="mix-blend-mode:multiply" opacity="0.2">
<path d="M20.7283 11.3881C20.6505 12.5028 20.1707 15.8341 17.7718 16.9877C16.3569 17.5771 14.8375 17.8752 13.3047 17.8641C11.7718 17.8529 10.2569 17.5328 8.85069 16.9229C6.33513 15.6137 5.76459 12.5028 5.68679 11.3881C5.68679 11.6732 5.06438 18.8153 11.1717 18.8153H15.2433C21.3507 18.8153 20.7412 11.6732 20.7283 11.3881Z" fill="#1B8943"/>
</g>
<g style="mix-blend-mode:overlay" opacity="0.6">
<path d="M5.68679 11.427C5.76459 10.4549 5.90722 7.36991 8.28015 6.37183C9.83149 5.89008 11.4553 5.68389 13.0779 5.76261C14.7512 5.67927 16.4257 5.90333 18.0182 6.42368C20.5208 7.56434 20.6116 10.4549 20.6894 11.427C20.6894 11.1808 21.3118 4.946 15.2044 4.946H11.1717C5.06438 4.93304 5.68679 11.1808 5.68679 11.427Z" fill="white"/>
</g>
</g>
<defs>
<linearGradient id="paint0_linear_414_83669" x1="13" y1="0.305555" x2="13" y2="23.4817" gradientUnits="userSpaceOnUse">
<stop stop-color="#F0CA57"/>
<stop offset="1" stop-color="#D45B1A"/>
</linearGradient>
<linearGradient id="paint1_linear_414_83669" x1="0.992804" y1="18.2321" x2="23.7366" y2="18.2321" gradientUnits="userSpaceOnUse">
<stop stop-color="#F0CA57"/>
<stop offset="0.5" stop-color="#F7C850"/>
<stop offset="1" stop-color="#FEC649"/>
</linearGradient>
<clipPath id="clip0_414_83669">
<rect width="25" height="27" fill="white" transform="translate(0.5 0.5)"/>
</clipPath>
</defs>
</svg>
