<svg width="430" height="870" viewBox="0 0 430 870" fill="none" xmlns="http://www.w3.org/2000/svg">
<g clip-path="url(#clip0_24_43907)">
<circle cx="152" cy="623" r="2" fill="#BED344"/>
<circle cx="204" cy="616" r="2" fill="#BED344"/>
<circle cx="142" cy="591" r="2" fill="#BED344"/>
<circle cx="237" cy="580" r="2" fill="#BED344"/>
<circle cx="165" cy="556" r="2" fill="#BED344"/>
<circle cx="76" cy="560" r="2" fill="#BED344"/>
<circle cx="93" cy="530" r="2" fill="#BED344"/>
<circle cx="336" cy="623" r="2" fill="#BED344"/>
<circle cx="388" cy="616" r="2" fill="#BED344"/>
<circle cx="326" cy="591" r="2" fill="#BED344"/>
<circle cx="421" cy="580" r="2" fill="#BED344"/>
<circle cx="349" cy="556" r="2" fill="#BED344"/>
<circle cx="260" cy="560" r="2" fill="#BED344"/>
<circle cx="277" cy="530" r="2" fill="#BED344"/>
<circle cx="390" cy="357" r="2" fill="#BED344"/>
<circle cx="328" cy="332" r="2" fill="#BED344"/>
<circle cx="423" cy="321" r="2" fill="#BED344"/>
<circle cx="351" cy="297" r="2" fill="#BED344"/>
<circle cx="262" cy="301" r="2" fill="#BED344"/>
<circle cx="279" cy="271" r="2" fill="#BED344"/>
<circle cx="97" cy="389" r="2" fill="#BED344"/>
<circle cx="149" cy="382" r="2" fill="#BED344"/>
<circle cx="87" cy="357" r="2" fill="#BED344"/>
<circle cx="182" cy="346" r="2" fill="#BED344"/>
<circle cx="110" cy="322" r="2" fill="#BED344"/>
<circle cx="21" cy="326" r="2" fill="#BED344"/>
<circle cx="38" cy="296" r="2" fill="#BED344"/>
<path d="M149.823 240.337C149.823 240.337 1.51801 327.782 -18 349L-11.3655 321.665L41.3192 220.89L157.369 223.446L149.823 240.337Z" fill="#D57F4C"/>
<path d="M93.4131 270.995C24.4922 291.902 -21.3971 346.573 -37.7219 379.439C-62.4757 350.675 -146.105 285.68 -129.322 280.472C-108.342 273.963 1.49526 205.838 58.7397 163.505C115.984 121.172 167.218 133.929 201.127 118.136C232.935 103.321 231.399 83.4682 298.968 31.509C353.022 -10.0583 432.689 4.72064 465.766 17.306L447.411 58.3928L465.766 126C429.058 136.253 316.268 191.792 277.747 191.792C227.5 191.792 179.564 244.861 93.4131 270.995Z" fill="#EBCC63"/>
<path d="M176.5 224.775C170.332 222.728 171.525 216.886 171.199 216.032C172.254 213.67 169.955 214.06 170.03 209.135C170.105 204.211 179.891 202.916 185.016 200.956C190.141 198.996 190.594 202.739 189.865 205.955C189.137 209.171 192.479 212.789 194.376 216.47C196.273 220.15 192.454 225.527 188.384 225.125C184.314 224.724 182.669 226.822 176.5 224.775Z" fill="#EEAD6D"/>
<path d="M31.706 229.38C28.9259 228.769 29.1798 226.17 28.9986 225.813C29.3507 224.736 28.3671 225.011 28.1757 222.862C27.9843 220.714 32.1882 219.704 34.3315 218.617C36.4749 217.53 36.8424 219.141 36.6714 220.575C36.5005 222.009 38.1208 223.432 39.1147 224.949C40.1086 226.466 38.6898 228.982 36.8986 228.992C35.1074 229.003 34.486 229.992 31.706 229.38Z" fill="#EEAD6D"/>
<path d="M332.122 29.8517C325.71 31.5204 322.123 39.5505 321.131 43.3569C319.261 48.1877 319.021 48.0804 317.175 52.2135C315.328 56.3466 324.65 57.6775 335.679 58.355C346.709 59.0326 350.012 48.4675 352.461 38.2291C354.91 27.9908 340.137 27.7658 332.122 29.8517Z" fill="#EEAD6D"/>
<path d="M335.221 13.7515C335.75 13.2228 334.288 6.9292 340.802 2.06764C347.316 -2.79392 351.759 0.106859 352.383 -0.10611C353 -0.311735 355.901 -13.0311 368.099 -16.3358C380.297 -19.6405 393.016 -13.4424 396.013 -3.10236C398.752 6.34904 396.63 12.7161 396.945 13.1273C397.254 13.5386 403.151 13.333 406.558 18.8114C409.966 24.2898 408.732 27.7047 408.732 27.7047L387.024 34.4242H352.288C352.288 34.4242 321.687 26.3608 321.378 24.914C321.07 23.4673 321.767 18.7673 326.754 15.918C331.087 13.4431 334.288 14.6842 335.221 13.7515Z" fill="#E4EAEE"/>
<path d="M343.821 36.1794C343.821 36.1794 332.232 38.6028 324.396 32.5369C319.682 28.8797 321.4 22.9533 321.4 22.9533C321.4 22.9533 324.778 26.3681 331.601 27.2935C338.423 28.2261 346.075 27.9103 346.075 27.9103C346.075 27.9103 347.985 31.171 355.174 32.6691C364.185 34.5417 368.936 29.9299 368.936 29.9299C368.936 29.9299 371.404 32.8821 380.091 33.0877C388.779 33.2933 393.648 27.2274 394.463 27.0878C394.874 27.0217 397.268 29.1955 402.013 28.4317C406.529 27.7047 408.908 25.7439 408.908 25.7439C408.908 25.7439 409.562 30.6055 405.016 33.6017C401.469 35.9371 395.3 36.1867 395.3 36.1867C395.3 36.1867 394.36 39.7925 390.123 42.4142C386.187 44.8597 379.401 45.6749 374.378 44.1767C368.07 42.2967 366.506 39.4253 366.506 39.4253C366.506 39.4253 361.806 42.1792 354.462 41.2466C347.522 40.38 343.821 36.1794 343.821 36.1794Z" fill="#BACDD2"/>
<path d="M161.793 45.1226C162.8 44.1158 160.017 32.1312 172.422 22.8735C184.826 13.6158 193.286 19.1397 194.475 18.7341C195.65 18.3426 201.173 -5.87838 224.401 -12.1713C247.629 -18.4643 271.85 -6.6615 277.556 13.0285C282.772 31.0264 278.731 43.1508 279.332 43.934C279.919 44.7171 291.149 44.3255 297.638 54.7579C304.126 65.1902 301.777 71.693 301.777 71.693L260.439 84.4887H194.293C194.293 84.4887 136.02 69.1338 135.433 66.3789C134.846 63.624 136.174 54.674 145.669 49.248C153.92 44.5353 160.017 46.8987 161.793 45.1226Z" fill="#E4EAEE"/>
<path d="M178.169 87.8309C178.169 87.8309 156.102 92.4458 141.18 80.8947C132.202 73.9305 135.475 62.6451 135.475 62.6451C135.475 62.6451 141.908 69.1478 154.899 70.9098C167.891 72.6859 182.462 72.0845 182.462 72.0845C182.462 72.0845 186.098 78.2936 199.789 81.1464C216.948 84.7124 225.996 75.9302 225.996 75.9302C225.996 75.9302 230.694 81.552 247.238 81.9435C263.781 82.3351 273.053 70.784 274.605 70.5183C275.388 70.3924 279.947 74.5318 288.981 73.0774C297.582 71.693 302.113 67.9591 302.113 67.9591C302.113 67.9591 303.357 77.2168 294.701 82.9224C287.946 87.3695 276.2 87.8449 276.2 87.8449C276.2 87.8449 274.41 94.7113 266.341 99.7037C258.845 104.36 245.923 105.913 236.358 103.06C224.345 99.4799 221.367 94.012 221.367 94.012C221.367 94.012 212.417 99.2562 198.432 97.4802C185.217 95.83 178.169 87.8309 178.169 87.8309Z" fill="#BACDD2"/>
<path d="M286.885 36.4859C287.526 35.8447 285.754 28.212 293.654 22.3161C301.554 16.4201 306.942 19.9381 307.699 19.6798C308.447 19.4305 311.965 4.00483 326.758 -0.00297892C341.552 -4.01079 356.977 3.50608 360.611 16.0461C363.933 27.5084 361.359 35.2301 361.742 35.7289C362.116 36.2276 369.268 35.9783 373.401 42.6223C377.533 49.2664 376.037 53.4078 376.037 53.4078L349.71 61.557H307.583C307.583 61.557 270.471 51.778 270.097 50.0234C269.723 48.2689 270.569 42.5689 276.616 39.1133C281.871 36.1119 285.754 37.617 286.885 36.4859Z" fill="#E4EAEE"/>
<path d="M297.314 63.6856C297.314 63.6856 283.26 66.6247 273.757 59.2681C268.04 54.8328 270.124 47.6454 270.124 47.6454C270.124 47.6454 274.221 51.7868 282.494 52.909C290.768 54.0401 300.049 53.6572 300.049 53.6572C300.049 53.6572 302.364 57.6115 311.083 59.4284C322.011 61.6995 327.774 56.1064 327.774 56.1064C327.774 56.1064 330.766 59.6867 341.302 59.9361C351.838 60.1854 357.743 52.8289 358.732 52.6597C359.231 52.5795 362.134 55.2158 367.888 54.2895C373.365 53.4078 376.251 51.0298 376.251 51.0298C376.251 51.0298 377.043 56.9258 371.53 60.5595C367.228 63.3917 359.747 63.6945 359.747 63.6945C359.747 63.6945 358.607 68.0675 353.468 71.247C348.695 74.2128 340.465 75.2014 334.373 73.3845C326.723 71.1045 324.826 67.6222 324.826 67.6222C324.826 67.6222 319.126 70.962 310.22 69.8309C301.803 68.78 297.314 63.6856 297.314 63.6856Z" fill="#BACDD2"/>
<path d="M375.114 64.0344C375.947 63.2019 373.646 53.2928 383.902 45.6385C394.157 37.9841 401.153 42.5513 402.136 42.216C403.107 41.8922 407.674 21.866 426.879 16.6628C446.085 11.4597 466.111 21.2185 470.828 37.4985C475.141 52.3794 471.8 62.4041 472.297 63.0516C472.783 63.6991 482.067 63.3753 487.432 72.001C492.797 80.6266 490.855 86.0031 490.855 86.0031L456.676 96.5828H401.985C401.985 96.5828 353.804 83.8872 353.319 81.6094C352.833 79.3316 353.932 71.9316 361.782 67.4453C368.604 63.5488 373.646 65.5028 375.114 64.0344Z" fill="#E4EAEE"/>
<path d="M388.654 99.3463C388.654 99.3463 370.408 103.162 358.071 93.6113C350.648 87.8531 353.353 78.5222 353.353 78.5222C353.353 78.5222 358.672 83.8988 369.414 85.3556C380.155 86.8241 392.203 86.3269 392.203 86.3269C392.203 86.3269 395.21 91.4606 406.529 93.8194C420.717 96.7678 428.197 89.5066 428.197 89.5066C428.197 89.5066 432.082 94.1547 445.761 94.4785C459.439 94.8022 467.105 85.2516 468.389 85.0319C469.036 84.9278 472.806 88.3503 480.275 87.1478C487.386 86.0032 491.132 82.916 491.132 82.916C491.132 82.916 492.161 90.5703 485.004 95.2878C479.419 98.9647 469.707 99.3578 469.707 99.3578C469.707 99.3578 468.227 105.035 461.555 109.163C455.358 113.013 444.674 114.297 436.765 111.938C426.833 108.978 424.37 104.457 424.37 104.457C424.37 104.457 416.97 108.793 405.408 107.324C394.481 105.96 388.654 99.3463 388.654 99.3463Z" fill="#BACDD2"/>
<path d="M89.2211 32.7515C89.7499 32.2228 88.2885 25.9292 94.8024 21.0676C101.316 16.2061 105.759 19.1069 106.383 18.8939C107 18.6883 109.901 5.96889 122.099 2.6642C134.297 -0.640486 147.016 5.55764 150.013 15.8976C152.752 25.349 150.63 31.7161 150.945 32.1273C151.254 32.5386 157.151 32.333 160.558 37.8114C163.966 43.2898 162.732 46.7047 162.732 46.7047L141.024 53.4242H106.288C106.288 53.4242 75.6866 45.3608 75.3781 43.914C75.0697 42.4673 75.7674 37.7673 80.7538 34.918C85.0866 32.4431 88.2885 33.6842 89.2211 32.7515Z" fill="#E4EAEE"/>
<path d="M97.8207 55.1794C97.8207 55.1794 86.2322 57.6028 78.3965 51.5369C73.6818 47.8797 75.4002 41.9533 75.4002 41.9533C75.4002 41.9533 78.7783 45.3681 85.6007 46.2935C92.423 47.2261 100.075 46.9103 100.075 46.9103C100.075 46.9103 101.985 50.171 109.174 51.6691C118.185 53.5417 122.936 48.9299 122.936 48.9299C122.936 48.9299 125.404 51.8821 134.091 52.0877C142.779 52.2933 147.648 46.2274 148.463 46.0878C148.874 46.0217 151.268 48.1955 156.013 47.4317C160.529 46.7047 162.908 44.7439 162.908 44.7439C162.908 44.7439 163.562 49.6055 159.016 52.6017C155.469 54.9371 149.3 55.1867 149.3 55.1867C149.3 55.1867 148.36 58.7925 144.123 61.4142C140.187 63.8597 133.401 64.6749 128.378 63.1767C122.07 61.2967 120.506 58.4253 120.506 58.4253C120.506 58.4253 115.806 61.1792 108.462 60.2466C101.522 59.38 97.8207 55.1794 97.8207 55.1794Z" fill="#BACDD2"/>
<path d="M-8.57302 44.1492C-7.57739 43.1536 -10.3292 31.3029 1.93636 22.1487C14.2019 12.9945 22.5679 18.4566 23.7433 18.0556C24.9049 17.6684 30.367 -6.28195 53.3355 -12.5046C76.304 -18.7273 100.254 -7.05632 105.896 12.4137C111.054 30.2105 107.058 42.1995 107.652 42.9738C108.233 43.7482 119.337 43.361 125.753 53.6768C132.17 63.9926 129.847 70.4227 129.847 70.4227L88.9706 83.0754H23.5635C23.5635 83.0754 -34.0583 67.8921 -34.639 65.168C-35.2198 62.4438 -33.9061 53.5938 -24.5168 48.2285C-16.3582 43.5684 -10.3292 45.9054 -8.57302 44.1492Z" fill="#E4EAEE"/>
<path d="M7.61974 86.3803C7.61974 86.3803 -14.201 90.9436 -28.9556 79.5216C-37.8333 72.6352 -34.5975 61.4759 -34.5975 61.4759C-34.5975 61.4759 -28.2366 67.906 -15.3903 69.6483C-2.54393 71.4045 11.865 70.8099 11.865 70.8099C11.865 70.8099 15.4603 76.9496 28.998 79.7705C45.9651 83.2967 54.9119 74.6126 54.9119 74.6126C54.9119 74.6126 59.5582 80.1715 75.9169 80.5587C92.2755 80.9459 101.444 69.5239 102.979 69.2611C103.753 69.1367 108.261 73.2298 117.194 71.7917C125.698 70.4227 130.178 66.7306 130.178 66.7306C130.178 66.7306 131.409 75.8848 122.85 81.5267C116.171 85.924 104.555 86.3942 104.555 86.3942C104.555 86.3942 102.785 93.1838 94.8061 98.1204C87.3942 102.725 74.617 104.26 65.1586 101.439C53.2802 97.8992 50.3348 92.4924 50.3348 92.4924C50.3348 92.4924 41.4848 97.6779 27.6567 95.9217C14.5891 94.29 7.61974 86.3803 7.61974 86.3803Z" fill="#BACDD2"/>
<path d="M113.57 641.862C113.57 641.862 4.08015 567.529 -23.7226 559.903L-32.5795 535.861L81.1343 536.509L132.041 640.829L113.57 641.862Z" fill="#D57F4C"/>
<path d="M237.006 610.418C223.023 596.777 195.685 573.001 183.764 562.818L207.2 632.617L315.967 679.114C332.026 679.718 355.35 677.712 320.177 664.857C276.42 648.864 254.693 627.67 237.256 610.661L237.006 610.418Z" fill="#D57F4C"/>
<path d="M60.4712 605.772C10.306 554.094 -59.315 538.358 -96.0082 538.909C-81.7847 503.726 -62.3371 399.61 -50.0178 412.142C-34.6188 427.806 76.2641 494.215 140.122 525.697C203.981 557.179 216.12 608.563 245.696 631.465C273.439 652.949 290.381 642.486 367.526 678.733C429.243 707.731 452.613 785.313 456.584 820.48L411.654 822.993L340.266 826.988C314.332 799.059 253.039 741.226 215.338 733.32C168.212 723.437 123.178 670.37 60.4712 605.772Z" fill="#EBCC63"/>
<path d="M161.357 644.771C160.35 638.35 166.089 636.734 166.699 636.052C169.281 635.907 167.882 634.042 172.293 631.853C176.704 629.663 182.339 637.767 186.43 641.425C190.521 645.082 187.401 647.2 184.209 648.026C181.017 648.852 179.332 653.48 176.93 656.853C174.528 660.226 167.999 659.296 166.491 655.494C164.983 651.692 162.364 651.191 161.357 644.771Z" fill="#EEAD6D"/>
<path d="M384.192 707.443C379.771 702.508 370.99 703 367.152 703.862C362.001 704.414 361.986 704.151 357.467 704.404C352.947 704.657 356.035 713.552 360.487 723.666C364.939 733.78 375.843 731.874 386.066 729.359C396.288 726.844 389.719 713.61 384.192 707.443Z" fill="#EEAD6D"/>
<path d="M292.45 699.975C293.344 692.8 284.196 691.369 283.55 691.405C281.613 691.514 277.395 692.527 276.019 695.713C274.299 699.695 279.144 705.253 284.417 706.901C289.691 708.549 291.556 707.15 292.45 699.975Z" fill="#EEAD6D"/>
</g>
<defs>
<clipPath id="clip0_24_43907">
<path d="M0 12C0 5.37259 5.37258 0 12 0H418C424.627 0 430 5.37258 430 12V870H0V12Z" fill="white"/>
</clipPath>
</defs>
</svg>
