<svg width="537" height="182" viewBox="0 0 537 182" fill="none" xmlns="http://www.w3.org/2000/svg">
<path d="M376.221 55.7516C376.75 55.2229 375.288 48.9293 381.802 44.0677C388.316 39.2061 392.759 42.1069 393.383 41.894C394 41.6883 396.901 28.969 409.099 25.6643C421.297 22.3596 434.016 28.5577 437.013 38.8977C439.752 48.3491 437.63 54.7161 437.945 55.1274C438.254 55.5386 444.151 55.333 447.558 60.8115C450.966 66.2899 449.732 69.7047 449.732 69.7047L428.024 76.4243H393.288C393.288 76.4243 362.687 68.3608 362.378 66.9141C362.07 65.4674 362.767 60.7674 367.754 57.918C372.087 55.4432 375.288 56.6843 376.221 55.7516Z" fill="#E4EAEE"/>
<path d="M384.821 78.1793C384.821 78.1793 373.232 80.6028 365.396 74.5368C360.682 70.8797 362.4 64.9532 362.4 64.9532C362.4 64.9532 365.778 68.3681 372.601 69.2934C379.423 70.2261 387.075 69.9103 387.075 69.9103C387.075 69.9103 388.985 73.1709 396.174 74.669C405.185 76.5417 409.936 71.9298 409.936 71.9298C409.936 71.9298 412.404 74.882 421.091 75.0876C429.779 75.2932 434.648 69.2273 435.463 69.0878C435.874 69.0217 438.268 71.1954 443.013 70.4317C447.529 69.7047 449.908 67.7439 449.908 67.7439C449.908 67.7439 450.562 72.6054 446.016 75.6017C442.469 77.937 436.3 78.1867 436.3 78.1867C436.3 78.1867 435.36 81.7925 431.123 84.4142C427.187 86.8597 420.401 87.6748 415.378 86.1767C409.07 84.2967 407.506 81.4253 407.506 81.4253C407.506 81.4253 402.806 84.1792 395.462 83.2465C388.522 82.38 384.821 78.1793 384.821 78.1793Z" fill="#BACDD2"/>
<path d="M202.793 87.1226C203.8 86.1158 201.017 74.1312 213.422 64.8735C225.826 55.6158 234.286 61.1397 235.475 60.7341C236.65 60.3426 242.173 36.1216 265.401 29.8287C288.629 23.5357 312.85 35.3385 318.556 55.0285C323.772 73.0264 319.731 85.1508 320.332 85.934C320.919 86.7171 332.149 86.3255 338.638 96.7579C345.126 107.19 342.777 113.693 342.777 113.693L301.439 126.489H235.293C235.293 126.489 177.02 111.134 176.433 108.379C175.846 105.624 177.174 96.674 186.669 91.248C194.92 86.5353 201.017 88.8987 202.793 87.1226Z" fill="#E4EAEE"/>
<path d="M219.169 129.831C219.169 129.831 197.102 134.446 182.18 122.895C173.202 115.931 176.475 104.645 176.475 104.645C176.475 104.645 182.908 111.148 195.899 112.91C208.891 114.686 223.462 114.085 223.462 114.085C223.462 114.085 227.098 120.294 240.789 123.146C257.948 126.712 266.996 117.93 266.996 117.93C266.996 117.93 271.694 123.552 288.238 123.944C304.781 124.335 314.053 112.784 315.605 112.518C316.388 112.392 320.947 116.532 329.981 115.077C338.582 113.693 343.113 109.959 343.113 109.959C343.113 109.959 344.357 119.217 335.701 124.922C328.946 129.37 317.2 129.845 317.2 129.845C317.2 129.845 315.41 136.711 307.341 141.704C299.845 146.361 286.923 147.913 277.358 145.06C265.345 141.48 262.367 136.012 262.367 136.012C262.367 136.012 253.417 141.256 239.432 139.48C226.217 137.83 219.169 129.831 219.169 129.831Z" fill="#BACDD2"/>
<path d="M327.885 78.486C328.526 77.8447 326.754 70.2121 334.654 64.3161C342.554 58.4202 347.942 61.9382 348.699 61.6799C349.447 61.4305 352.965 46.0049 367.758 41.9971C382.552 37.9893 397.977 45.5061 401.611 58.0461C404.933 69.5085 402.359 77.2302 402.742 77.729C403.116 78.2277 410.268 77.9783 414.401 84.6224C418.533 91.2665 417.037 95.4079 417.037 95.4079L390.71 103.557H348.583C348.583 103.557 311.471 93.778 311.097 92.0235C310.723 90.269 311.569 84.569 317.616 81.1133C322.871 78.1119 326.754 79.6171 327.885 78.486Z" fill="#E4EAEE"/>
<path d="M338.314 105.686C338.314 105.686 324.26 108.625 314.757 101.268C309.04 96.8328 311.124 89.6455 311.124 89.6455C311.124 89.6455 315.221 93.7869 323.494 94.9091C331.768 96.0402 341.049 95.6572 341.049 95.6572C341.049 95.6572 343.364 99.6116 352.083 101.428C363.011 103.7 368.774 98.1064 368.774 98.1064C368.774 98.1064 371.766 101.687 382.302 101.936C392.838 102.186 398.743 94.8289 399.732 94.6597C400.231 94.5796 403.134 97.2158 408.888 96.2896C414.365 95.4079 417.251 93.0299 417.251 93.0299C417.251 93.0299 418.043 98.9258 412.53 102.56C408.228 105.392 400.747 105.695 400.747 105.695C400.747 105.695 399.607 110.068 394.468 113.247C389.695 116.213 381.465 117.201 375.373 115.385C367.723 113.105 365.826 109.622 365.826 109.622C365.826 109.622 360.126 112.962 351.22 111.831C342.803 110.78 338.314 105.686 338.314 105.686Z" fill="#BACDD2"/>
<path d="M416.114 106.034C416.947 105.202 414.646 95.2928 424.902 87.6384C435.157 79.984 442.153 84.5512 443.136 84.2159C444.107 83.8921 448.674 63.8659 467.879 58.6628C487.085 53.4596 507.111 63.2184 511.828 79.4984C516.141 94.3793 512.8 104.404 513.297 105.052C513.783 105.699 523.067 105.375 528.432 114.001C533.797 122.627 531.855 128.003 531.855 128.003L497.676 138.583H442.985C442.985 138.583 394.804 125.887 394.319 123.609C393.833 121.332 394.932 113.932 402.782 109.445C409.604 105.549 414.646 107.503 416.114 106.034Z" fill="#E4EAEE"/>
<path d="M429.654 141.346C429.654 141.346 411.408 145.162 399.071 135.611C391.648 129.853 394.353 120.522 394.353 120.522C394.353 120.522 399.672 125.899 410.414 127.356C421.155 128.824 433.203 128.327 433.203 128.327C433.203 128.327 436.21 133.461 447.529 135.819C461.717 138.768 469.197 131.507 469.197 131.507C469.197 131.507 473.082 136.155 486.761 136.478C500.439 136.802 508.105 127.252 509.389 127.032C510.036 126.928 513.806 130.35 521.275 129.148C528.386 128.003 532.132 124.916 532.132 124.916C532.132 124.916 533.161 132.57 526.004 137.288C520.419 140.965 510.707 141.358 510.707 141.358C510.707 141.358 509.227 147.035 502.555 151.163C496.358 155.013 485.674 156.297 477.765 153.938C467.833 150.978 465.37 146.457 465.37 146.457C465.37 146.457 457.97 150.793 446.408 149.324C435.481 147.96 429.654 141.346 429.654 141.346Z" fill="#BACDD2"/>
<path d="M130.221 74.7516C130.75 74.2229 129.288 67.9293 135.802 63.0677C142.316 58.2061 146.759 61.1069 147.383 60.894C148 60.6883 150.901 47.969 163.099 44.6643C175.297 41.3596 188.016 47.5577 191.013 57.8977C193.752 67.3491 191.63 73.7161 191.945 74.1274C192.254 74.5386 198.151 74.333 201.558 79.8115C204.966 85.2899 203.732 88.7047 203.732 88.7047L182.024 95.4243H147.288C147.288 95.4243 116.687 87.3608 116.378 85.9141C116.07 84.4674 116.767 79.7674 121.754 76.918C126.087 74.4432 129.288 75.6843 130.221 74.7516Z" fill="#E4EAEE"/>
<path d="M138.821 97.1793C138.821 97.1793 127.232 99.6028 119.396 93.5368C114.682 89.8797 116.4 83.9532 116.4 83.9532C116.4 83.9532 119.778 87.3681 126.601 88.2934C133.423 89.2261 141.075 88.9103 141.075 88.9103C141.075 88.9103 142.985 92.1709 150.174 93.669C159.185 95.5417 163.936 90.9298 163.936 90.9298C163.936 90.9298 166.404 93.882 175.091 94.0876C183.779 94.2932 188.648 88.2273 189.463 88.0878C189.874 88.0217 192.268 90.1954 197.013 89.4317C201.529 88.7047 203.908 86.7439 203.908 86.7439C203.908 86.7439 204.562 91.6054 200.016 94.6017C196.469 96.937 190.3 97.1867 190.3 97.1867C190.3 97.1867 189.36 100.792 185.123 103.414C181.187 105.86 174.401 106.675 169.378 105.177C163.07 103.297 161.506 100.425 161.506 100.425C161.506 100.425 156.806 103.179 149.462 102.247C142.522 101.38 138.821 97.1793 138.821 97.1793Z" fill="#BACDD2"/>
<path d="M32.4269 86.1492C33.4225 85.1535 30.6707 73.3028 42.9362 64.1486C55.2018 54.9944 63.5678 60.4565 64.7432 60.0555C65.9048 59.6683 71.3669 35.718 94.3354 29.4953C117.304 23.2727 141.254 34.9436 146.896 54.4136C152.054 72.2104 148.058 84.1994 148.652 84.9738C149.233 85.7481 160.337 85.361 166.753 95.6767C173.17 105.993 170.846 112.423 170.846 112.423L129.97 125.075H64.5634C64.5634 125.075 6.94163 109.892 6.36085 107.168C5.78006 104.444 7.09374 95.5938 16.483 90.2285C24.6416 85.5684 30.6707 87.9053 32.4269 86.1492Z" fill="#E4EAEE"/>
<path d="M48.6196 128.38C48.6196 128.38 26.7988 132.944 12.0442 121.522C3.16658 114.635 6.40236 103.476 6.40236 103.476C6.40236 103.476 12.7633 109.906 25.6096 111.648C38.456 113.404 52.8649 112.81 52.8649 112.81C52.8649 112.81 56.4602 118.949 69.9979 121.77C86.965 125.297 95.9118 116.613 95.9118 116.613C95.9118 116.613 100.558 122.171 116.917 122.559C133.275 122.946 142.443 111.524 143.978 111.261C144.753 111.137 149.261 115.23 158.194 113.792C166.698 112.423 171.178 108.731 171.178 108.731C171.178 108.731 172.409 117.885 163.849 123.527C157.17 127.924 145.555 128.394 145.555 128.394C145.555 128.394 143.785 135.184 135.806 140.12C128.394 144.725 115.617 146.26 106.158 143.439C94.2801 139.899 91.3347 134.492 91.3347 134.492C91.3347 134.492 82.4847 139.678 68.6566 137.922C55.589 136.29 48.6196 128.38 48.6196 128.38Z" fill="#BACDD2"/>
</svg>
