<svg width="80" height="80" viewBox="0 0 80 80" fill="none" xmlns="http://www.w3.org/2000/svg">
<g opacity="0.7">
<g clip-path="url(#clip0_349_148934)">
<path d="M79.431 62.644L51.2276 78.9152C46.0751 72.949 37.8039 67.3898 30.0751 63.0508C29.126 62.5085 28.1768 61.966 27.0921 61.4237C22.0752 58.7117 19.9056 51.661 24.9227 48.678C24.9227 48.678 28.4482 47.4576 31.2956 49.7628L12.5838 19.2543C11.0922 16.6781 11.499 13.6949 14.0753 12.0678C16.6516 10.5762 18.9567 11.9323 20.855 14.5085L35.3636 34.983C33.872 32.4068 34.6855 29.0168 37.3975 27.5254C39.9737 26.0339 43.3636 26.8474 44.855 29.5593L46.2109 31.8645C44.7193 29.2882 45.6686 25.8983 48.2448 24.4069C50.821 22.9153 54.211 23.7289 55.7024 26.4408L57.7363 29.9663C56.6515 28.0679 57.3295 25.4917 59.2278 24.4069C61.1262 23.3221 63.7024 24.1357 64.7872 25.8985L73.6008 41.2206C78.7529 50.5762 75.9055 53.6949 79.431 62.644Z" fill="#FFD0A1"/>
<path d="M51.2276 80C51.092 80 50.8208 79.8645 50.6852 79.7288C46.3462 74.7119 39.2954 69.4237 29.6682 63.9999C28.7191 63.4576 27.7699 62.9151 26.6852 62.3728C23.5666 60.6101 21.3971 57.3559 21.3971 54.1017C21.3971 51.661 22.4819 49.7626 24.5158 48.5423C24.787 48.4067 25.1938 48.4067 25.4649 48.8135C25.6005 49.0848 25.6005 49.4915 25.1937 49.7626C23.1598 50.983 22.753 52.7456 22.753 54.1017C22.753 56.8136 24.6514 59.7966 27.3631 61.2881C28.3122 61.8305 29.2615 62.3729 30.3461 62.9153C39.702 68.3389 46.8885 73.4915 51.3631 78.5084L78.6173 62.7796C77.2614 59.1185 76.8547 56.4066 76.5834 53.8304C76.1766 50.4406 75.7699 47.0507 72.7869 41.8983L63.9733 26.5762C63.1597 25.0846 60.8546 24.4068 59.3631 25.3559C58.6851 25.7626 58.0073 26.5762 57.8716 27.3898C57.6003 28.3389 57.736 29.1524 58.1428 29.966C58.2783 30.2372 58.2783 30.644 57.8716 30.9151C57.6003 31.0506 57.1935 31.0506 56.9225 30.6438L54.8886 27.1184C53.5327 24.8132 50.6852 24.1354 48.3801 25.3557C46.075 26.7116 45.3971 29.559 46.6174 31.8642C46.753 32.1354 46.753 32.5422 46.3462 32.8133C46.075 32.9488 45.6682 32.9488 45.3971 32.542L44.0412 30.2369C43.3632 29.1521 42.4141 28.3385 41.1938 28.0675C39.9734 27.7962 38.7531 27.9319 37.5327 28.4742C36.448 29.1523 35.6344 30.1014 35.3633 31.3217C35.0922 32.542 35.2278 33.7624 35.9056 34.9827C36.0412 35.2539 36.0412 35.6607 35.6344 35.9318C35.3632 36.0673 34.9564 36.0673 34.6853 35.7963L20.1768 15.3221C18.2784 12.7459 16.2445 12.0678 14.3463 13.1526C13.2615 13.8305 12.5837 14.6441 12.448 15.8644C12.3124 16.9492 12.448 18.1695 13.126 19.3899L31.8378 49.8983C31.9734 50.1696 31.9734 50.5763 31.5666 50.8474C31.2954 50.983 30.8886 50.983 30.6175 50.5762L11.9056 20.0677C11.0921 18.5762 10.8209 17.0847 10.9566 15.5932C11.2278 14.1016 12.1769 12.7457 13.5328 11.9321C16.109 10.4406 18.8209 11.3898 21.126 14.5084L33.7362 32.1354C33.7362 31.7286 33.8717 31.3219 33.8717 30.9151C34.2785 29.288 35.3633 28.0676 36.7192 27.2541C38.0751 26.4405 39.8379 26.1693 41.3293 26.7117C42.5496 26.983 43.6344 27.7965 44.448 28.7456C44.7192 26.983 45.8039 25.2202 47.431 24.2711C50.414 22.6439 54.075 23.593 55.7021 26.4405L56.1089 27.1185C56.1089 27.1185 56.1089 27.1185 56.1089 26.983C56.3801 25.7626 57.1937 24.6778 58.2783 24.1355C60.4478 22.9152 63.5665 23.7287 64.7868 25.8982L73.6004 41.2203C76.7191 46.6439 77.1259 50.0339 77.6682 53.6949C77.9395 56.2711 78.3462 59.1185 79.8377 62.7796C79.9732 63.0508 79.8377 63.4576 79.5664 63.5931L51.3631 79.8643C51.4988 80 51.3633 80 51.2276 80ZM5.12594 26.8474C4.9904 26.8474 4.71916 26.8474 4.58362 26.7119C4.31238 26.4407 4.31238 26.0339 4.58362 25.7628L8.38017 21.9662C8.65141 21.695 9.05819 21.695 9.32927 21.9662C9.60051 22.2375 9.60051 22.6443 9.32927 22.9153L5.53272 26.7119C5.53272 26.7119 5.39718 26.8474 5.12594 26.8474ZM6.21074 16.2712H0.786905C0.380126 16.2712 0.108887 15.9999 0.108887 15.5932C0.108887 15.1864 0.380126 14.9151 0.786905 14.9151H6.21058C6.61736 14.9151 6.8886 15.1864 6.8886 15.5932C6.8886 15.9999 6.61752 16.2712 6.21074 16.2712ZM22.4819 9.49147C22.3464 9.49147 22.0751 9.49147 21.9396 9.35593C21.6684 9.08469 21.6684 8.67791 21.9396 8.40683L25.7361 4.61027C26.0074 4.33903 26.4142 4.33903 26.6852 4.61027C26.9565 4.88151 26.9565 5.28829 26.6852 5.55937L22.8887 9.35593C22.7532 9.49147 22.6175 9.49147 22.4819 9.49147ZM9.05819 9.49147C8.92265 9.49147 8.65141 9.49147 8.51587 9.35593L4.71916 5.55937C4.44792 5.28813 4.44792 4.88135 4.71916 4.61027C4.9904 4.33903 5.39718 4.33903 5.66826 4.61027L9.46481 8.40683C9.73605 8.67807 9.73605 9.08485 9.46481 9.35593C9.32927 9.49147 9.19373 9.49147 9.05819 9.49147ZM15.7022 6.77971C15.2954 6.77971 15.0242 6.50847 15.0242 6.10169V0.678019C15.0242 0.271239 15.2954 0 15.7022 0C16.109 0 16.3802 0.271239 16.3802 0.678019V6.10169C16.3802 6.50847 16.109 6.77971 15.7022 6.77971Z" fill="#51565F"/>
</g>
</g>
<defs>
<clipPath id="clip0_349_148934">
<rect width="80" height="80" fill="white"/>
</clipPath>
</defs>
</svg>
