<svg width="62" height="32" viewBox="0 0 62 32" fill="none" xmlns="http://www.w3.org/2000/svg">
<path fill-rule="evenodd" clip-rule="evenodd" d="M10.0161 0.180439C8.86457 -0.11276 7.65044 -0.0474315 6.53742 0.367591C5.90847 0.816621 5.47218 1.48464 5.3152 2.239C5.43834 2.44373 5.53321 2.66404 5.59725 2.89398C5.59725 3.02498 5.93571 3.08112 6.63143 3.08112C7.79531 3.21671 8.96824 2.91653 9.92203 2.239C10.2421 1.91564 10.4974 1.53456 10.6742 1.11614L10.0161 0.180439ZM45.4605 0.554729C44.8345 0.510115 44.2061 0.510115 43.5802 0.554729C43.3453 0.657203 43.1474 0.828562 43.013 1.04592C42.8786 1.26329 42.8141 1.5163 42.828 1.77114C42.828 2.83785 42.9784 3.11855 43.2981 2.61327V2.98755C43.7354 3.03733 44.177 3.03733 44.6143 2.98755C44.8838 3.01326 45.1556 2.98512 45.4139 2.90478C45.6723 2.82443 45.9119 2.69351 46.1186 2.5197C46.3028 2.25509 46.4603 1.97301 46.5887 1.67757C46.3073 1.2196 45.9206 0.834752 45.4605 0.554729ZM12.0844 7.19821C13.2928 7.23376 14.4991 7.0758 15.6571 6.73036V5.88823L15.093 4.76539C13.4007 4.52211 12.2725 4.76539 11.7084 5.23324C11.7541 5.90087 11.8804 6.56059 12.0844 7.19821ZM28.2554 10.4732C27.9852 10.6774 27.7026 10.8649 27.4092 11.0346C26.6571 11.5399 26.281 11.9703 26.281 12.3446C26.281 13.4674 26.4314 13.8417 26.7511 13.4674H26.9391C27.3764 13.5172 27.818 13.5172 28.2554 13.4674C28.8699 13.4955 29.473 13.2954 29.9477 12.906C29.9477 12.906 30.0793 12.6253 30.1357 12.0639C29.5612 11.4753 28.9316 10.9426 28.2554 10.4732ZM27.5972 16.5552C27.6808 17.1344 27.8388 17.7004 28.0673 18.2395H32.3921C32.6855 18.1652 32.946 17.9965 33.1331 17.7596C33.3201 17.5226 33.4232 17.2308 33.4263 16.9295V16.5552C32.3974 16.2155 31.3097 16.0881 30.2297 16.181C29.3371 16.1526 28.4462 16.2793 27.5972 16.5552ZM35.7767 7.85321C36.0308 8.08116 36.3279 8.25646 36.6507 8.36892C36.9736 8.48138 37.3157 8.52873 37.6571 8.5082C38.1224 8.54424 38.5878 8.43814 38.9909 8.20407C39.3941 7.97 39.716 7.61909 39.9135 7.19821L39.2554 6.16894C37.8029 5.55617 36.2067 5.36164 34.6485 5.60752V7.19821C34.9848 7.47822 35.3663 7.69968 35.7767 7.85321ZM44.9904 20.7659L42.922 21.1402C43.0096 21.7792 43.1672 22.4067 43.3921 23.0116H46.7767C47.3667 22.6675 47.8286 22.1421 48.093 21.5145V21.1402C47.1051 20.7649 46.0398 20.6364 44.9904 20.7659ZM35.0246 25.6316V26.2865C35.3359 26.5366 35.6195 26.8189 35.8708 27.1287C36.3617 27.4786 36.9612 27.6443 37.5631 27.5965C38.1279 27.583 38.6791 27.4217 39.1614 27.1287C39.4473 26.9871 39.6923 26.7753 39.8732 26.5134C40.0542 26.2515 40.1651 25.948 40.1955 25.6316C40.1955 24.883 40.1955 24.4713 39.9135 24.4151H39.6314H36.1528L35.5887 24.6023C35.3138 24.8906 35.1194 25.2454 35.0246 25.6316ZM50.6314 16.2745C50.5831 16.7599 50.6813 17.2486 50.9135 17.6781C51.3013 18.148 51.7894 18.5262 52.3423 18.7851C52.8952 19.0441 53.499 19.1773 54.1101 19.1752C54.3737 19.2089 54.6416 19.175 54.8884 19.0768C55.1353 18.9785 55.3528 18.8191 55.5203 18.6138C55.7477 18.3423 55.9086 18.022 55.9904 17.6781L55.5203 16.8359C53.9447 16.3219 52.2876 16.0999 50.6314 16.181V16.2745ZM61.9135 11.5024C61.9135 10.6977 61.9135 10.2486 61.7255 10.1925C61.3238 10.1636 60.9359 10.0349 60.5972 9.81818C59.558 10.4756 58.6627 11.3348 57.9648 12.3446C58.1871 12.4543 58.3804 12.6145 58.5289 12.8124C58.9762 13.0963 59.5042 13.2277 60.0331 13.1867C60.8417 13.1867 61.3494 13.0557 61.5374 12.8124C61.7255 12.5691 61.7631 12.6253 61.8195 12.251C61.8759 12.7189 61.9135 12.4756 61.9135 11.4089V11.5024Z" fill="#9A79FF"/>
<path fill-rule="evenodd" clip-rule="evenodd" d="M1.46029 10.4733C1.34899 10.64 1.22315 10.7965 1.08423 10.9412L2.30645 11.7833C3.39565 11.6343 4.42999 11.2161 5.315 10.5669C5.53082 10.4897 5.72445 10.3612 5.87911 10.1926C6.12322 9.86871 6.25517 9.47471 6.25517 9.06979C6.30279 8.6657 6.30279 8.25748 6.25517 7.85339L5.97311 8.13409C4.87658 8.18285 3.80983 8.50456 2.87055 9.06979C2.31749 9.44705 1.83935 9.92291 1.46029 10.4733ZM17.7253 10.7541C16.3526 10.8851 15.6569 11.409 15.6569 12.3447C15.6569 13.2805 15.6569 13.505 15.8449 13.5612H16.221H19.6056C19.86 13.5145 20.1112 13.452 20.3577 13.374C20.6701 13.0756 20.8693 12.6789 20.9218 12.2512V11.8769C20.6068 11.3619 20.0998 10.9919 19.5116 10.8476C18.945 10.6114 18.3136 10.5784 17.7253 10.7541ZM28.0671 23.8539L26.1868 23.1989C24.9659 22.8465 23.6966 22.6886 22.4261 22.7311V24.3217H22.6141C23.3904 25.1008 24.4282 25.5672 25.5287 25.6317C26.0623 25.706 26.6061 25.6211 27.0914 25.388C27.5767 25.1548 27.9816 24.7838 28.2552 24.3217L28.0671 23.8539ZM48.0928 7.01125C48.2807 7.20563 48.439 7.42629 48.5629 7.66624C49.0509 7.80856 49.5589 7.87176 50.0671 7.85339C50.5712 7.89475 51.0768 7.79377 51.5258 7.56205C51.9749 7.33033 52.3491 6.97726 52.6056 6.5434C52.6056 6.5434 52.6056 6.30012 52.6996 5.98198L52.2295 4.85913C51.578 4.8906 50.939 5.04958 50.3492 5.32698C50.2584 5.29242 50.1579 5.29242 50.0671 5.32698C49.3098 5.72213 48.6388 6.26279 48.0928 6.91769V7.01125ZM35.8706 13.374C35.7219 13.667 35.6265 13.9837 35.5885 14.3097C35.9715 14.7146 36.4596 15.006 36.9988 15.1519C37.2937 15.0497 37.5505 14.8607 37.7351 14.6101C37.9198 14.3595 38.0237 14.059 38.033 13.7483C37.986 13.4607 37.8665 13.1896 37.6857 12.9605C37.5048 12.7314 37.2684 12.5517 36.9988 12.4383C36.759 12.4848 36.533 12.5847 36.3376 12.7305C36.1422 12.8764 35.9825 13.0644 35.8706 13.2805V13.374Z" fill="#FFCC00"/>
<path fill-rule="evenodd" clip-rule="evenodd" d="M0.614105 12.4382L2.30642 12.8124C3.64785 12.9085 4.99439 12.7171 6.25513 12.251H6.63119C6.89153 11.9775 7.09263 11.6536 7.22201 11.2995C7.35139 10.9454 7.4063 10.5686 7.38333 10.1925C7.38333 8.07779 6.19872 7.23565 3.81068 7.66607C1.42265 8.0965 0.0499954 9.20064 0.0499954 11.1282C-0.0166512 11.5309 -0.0166512 11.9418 0.0499954 12.3446C0.181622 12.3446 0.238041 12.4756 0.238041 12.5317L0.614105 12.4382ZM1.46025 10.4732C1.81138 9.93095 2.25716 9.45561 2.7765 9.06963C3.71579 8.5044 4.78253 8.18268 5.87907 8.13392L6.16111 7.85322C6.20873 8.25731 6.20873 8.66554 6.16111 9.06963C6.16111 9.47454 6.02916 9.86855 5.78505 10.1925C5.63039 10.361 5.43675 10.4895 5.22094 10.5668C4.33592 11.216 3.30159 11.6342 2.21239 11.7832L0.990166 10.941C1.16175 10.8006 1.31918 10.6439 1.46025 10.4732ZM21.768 26.9415C22.8882 27.6549 24.1994 28.0138 25.5286 27.9708C26.1075 27.9449 26.6744 27.7982 27.1927 27.5403C27.711 27.2824 28.169 26.919 28.5372 26.4737C28.6883 26.305 28.8149 26.116 28.9133 25.9123C29.5651 25.2296 29.9343 24.3275 29.9474 23.3859C29.9474 20.7659 28.1987 19.6431 24.6825 19.9238C21.1662 20.2045 19.6056 21.4583 19.6056 23.1987L20.5457 25.3509C20.8004 25.9817 21.2229 26.5316 21.768 26.9415ZM28.0671 23.8537L28.2551 24.3216C27.9816 24.7836 27.5766 25.1547 27.0914 25.3878C26.6061 25.621 26.0623 25.7058 25.5286 25.6316C24.4282 25.5671 23.3903 25.1006 22.6141 24.3216H22.4261V22.7309C23.6966 22.6885 24.9658 22.8464 26.1868 23.1987L28.0671 23.8537ZM34.2722 15.3388C34.5081 15.5735 34.7593 15.7923 35.0244 15.9938C36.7641 16.1737 38.515 15.7791 40.0073 14.871C40.2505 14.7446 40.4564 14.5573 40.6048 14.3276C40.7532 14.0979 40.8389 13.8337 40.8534 13.561C40.8534 11.8767 39.5936 11.0346 37.0927 11.0346C34.5919 11.0346 33.238 12.0639 33.238 13.9353C33.238 14.1786 33.5765 14.6464 34.2722 15.3388ZM35.8705 13.2803C35.971 13.0468 36.1256 12.8403 36.3217 12.6776C36.5178 12.515 36.7498 12.4009 36.9987 12.3446C37.2684 12.458 37.5047 12.6377 37.6856 12.8668C37.8665 13.0959 37.986 13.367 38.0329 13.6546C38.0236 13.9652 37.9198 14.2658 37.7351 14.5164C37.5504 14.767 37.2936 14.9559 36.9987 15.0581C36.4596 14.9123 35.9715 14.6208 35.5885 14.216C35.6264 13.89 35.7219 13.5732 35.8705 13.2803Z" fill="#FEFFFD"/>
<path fill-rule="evenodd" clip-rule="evenodd" d="M6.25526 12.2511C4.99451 12.7171 3.64798 12.9086 2.30654 12.8125L0.614231 12.4382C0.437977 12.8203 0.341999 13.2343 0.332176 13.6546V15.9003C0.506927 16.4411 0.864983 16.9047 1.34514 17.212C1.82529 17.5192 2.39775 17.6509 2.96466 17.5846C3.63905 17.6386 4.31207 17.4648 4.87501 17.0913C5.43796 16.7178 5.85798 16.1664 6.06722 15.526C6.19885 13.8979 6.25526 12.9996 6.25526 12.8125V12.2511ZM28.8194 25.9123C28.721 26.116 28.5944 26.305 28.4433 26.4737C28.0751 26.9191 27.6171 27.2824 27.0988 27.5404C26.5805 27.7983 26.0136 27.9449 25.4347 27.9709C24.1055 28.0138 22.7943 27.655 21.6741 26.9416L22.2382 28.813C22.9903 30.6844 24.1185 31.5265 25.3407 31.5265C26.563 31.5265 27.5971 30.7218 28.1612 29.0937C28.5331 28.2369 28.725 27.3135 28.7253 26.3801L28.8194 25.9123ZM15.0929 14.871C15.3373 16.7424 16.2211 17.5846 17.7253 17.5846C19.2296 17.5846 20.1698 16.6489 20.3578 14.7774C19.3232 15.0976 18.2447 15.2554 17.1612 15.2453C16.4552 15.2868 15.7488 15.1718 15.0929 14.9084V14.871ZM47.5288 9.06966V10.0989C47.9048 11.2218 48.9014 11.7832 50.5373 11.7832C50.923 11.8024 51.3083 11.7369 51.6657 11.5914C52.0232 11.4459 52.3441 11.2238 52.6057 10.9411C52.84 10.7263 53.0276 10.4661 53.157 10.1764C53.2863 9.88676 53.3547 9.57379 53.3578 9.25681V8.60181C51.8784 9.11131 50.3145 9.33367 48.751 9.25681C48.3352 9.27372 47.9202 9.21015 47.5288 9.06966ZM34.3664 15.3389V17.3974C34.3921 17.725 34.4837 18.0441 34.6358 18.3357C34.7879 18.6273 34.9973 18.8856 35.2516 19.0951C35.506 19.3045 35.8 19.461 36.1163 19.5552C36.4326 19.6493 36.7647 19.6792 37.0929 19.6431C37.5098 19.6069 37.9155 19.4891 38.2866 19.2964C38.6577 19.1037 38.9869 18.8399 39.2553 18.5203C39.9186 17.8451 40.2898 16.9382 40.2894 15.9939C40.2824 15.6124 40.219 15.2341 40.1014 14.871C38.6092 15.7792 36.8583 16.1737 35.1185 15.9939C34.8212 15.7958 34.5384 15.577 34.2724 15.3389H34.3664Z" fill="#3C942D"/>
<path fill-rule="evenodd" clip-rule="evenodd" d="M17.7255 10.7541C18.2949 10.6296 18.8897 10.6953 19.4178 10.9412C20.006 11.0855 20.513 11.4555 20.8281 11.9705V12.3448C20.7755 12.7725 20.5763 13.1691 20.264 13.4676C20.0174 13.5456 19.7662 13.6081 19.5118 13.6547H16.1272H15.7512C15.6195 13.6547 15.5631 13.1869 15.5631 12.4383C15.5631 11.6898 16.3529 10.8851 17.7255 10.7541ZM15.093 14.8712C15.746 15.1473 16.4526 15.2751 17.1614 15.2454C18.2449 15.2556 19.3233 15.0977 20.358 14.7776C20.8171 14.6854 21.2604 14.5279 21.6742 14.3097C23.0469 13.7483 23.7426 13.0372 23.7426 12.1576C23.23 11.0213 22.531 9.97777 21.6742 9.0698C19.5414 8.8686 17.3942 9.25716 15.4691 10.1927C14.0212 10.9974 13.3067 11.7459 13.3067 12.4383L13.6828 13.9355C13.8042 14.2117 14.0004 14.449 14.2494 14.6208C14.4984 14.7927 14.7905 14.8923 15.093 14.9086V14.8712ZM47.5289 9.0698C47.9203 9.2103 48.3354 9.27386 48.7511 9.25695C50.3147 9.33381 51.8786 9.11145 53.358 8.60195C53.7305 8.44258 54.0509 8.18306 54.2834 7.8525C54.5159 7.52193 54.6513 7.1334 54.6742 6.73054C54.6742 6.21903 54.0474 5.47047 52.7939 4.48486H47.6229C47.2203 4.56759 46.8373 4.72641 46.4947 4.95271C46.2503 5.13985 46.1187 5.64514 46.1187 6.44984C46.0393 6.97942 46.1337 7.52036 46.3877 7.99233C46.6418 8.46431 47.042 8.84216 47.5289 9.0698ZM48.093 6.91769C48.6114 6.27228 49.2498 5.73221 49.9734 5.32699C50.0642 5.29243 50.1646 5.29243 50.2554 5.32699C50.8452 5.04959 51.4842 4.89061 52.1358 4.85914L52.6059 5.98199C52.6059 6.30013 52.5118 6.48726 52.5118 6.54341C52.2553 6.97727 51.8811 7.33034 51.4321 7.56206C50.983 7.79378 50.4775 7.89476 49.9734 7.8534C49.4651 7.87177 48.9572 7.80857 48.4691 7.66625C48.3826 7.39921 48.2558 7.14682 48.093 6.91769Z" fill="#FE5DA3"/>
</svg>
