<svg width="430" height="870" viewBox="0 0 430 870" fill="none" xmlns="http://www.w3.org/2000/svg">
<g clip-path="url(#clip0_24_29564)">
<path d="M149.823 240.337C149.823 240.337 1.51801 327.782 -18 349L-11.3655 321.665L41.3192 220.89L157.369 223.446L149.823 240.337Z" fill="#D57F4C"/>
<path d="M93.4131 270.995C24.4922 291.902 -21.3971 346.573 -37.7219 379.439C-62.4757 350.675 -146.105 285.68 -129.322 280.472C-108.342 273.963 1.49526 205.838 58.7397 163.505C115.984 121.172 167.218 133.929 201.127 118.136C232.935 103.321 231.399 83.4682 298.968 31.509C353.022 -10.0583 432.689 4.72064 465.766 17.306L447.411 58.3928L465.766 126C429.058 136.253 316.268 191.792 277.747 191.792C227.5 191.792 179.564 244.861 93.4131 270.995Z" fill="#EBCC63"/>
<path d="M335.221 13.7516C335.75 13.2228 334.288 6.92922 340.802 2.06766C347.316 -2.79391 351.759 0.106874 352.383 -0.106094C353 -0.31172 355.901 -13.0311 368.099 -16.3358C380.297 -19.6405 393.016 -13.4423 396.013 -3.10235C398.752 6.34906 396.63 12.7161 396.945 13.1273C397.254 13.5386 403.151 13.333 406.558 18.8114C409.966 24.2898 408.732 27.7047 408.732 27.7047L387.024 34.4242H352.288C352.288 34.4242 321.687 26.3608 321.378 24.9141C321.07 23.4673 321.767 18.7673 326.754 15.918C331.087 13.4431 334.288 14.6842 335.221 13.7516Z" fill="#E4EAEE"/>
<path d="M343.821 36.1794C343.821 36.1794 332.232 38.6028 324.396 32.5369C319.682 28.8797 321.4 22.9533 321.4 22.9533C321.4 22.9533 324.778 26.3681 331.601 27.2934C338.423 28.2261 346.075 27.9103 346.075 27.9103C346.075 27.9103 347.985 31.1709 355.174 32.6691C364.185 34.5417 368.936 29.9298 368.936 29.9298C368.936 29.9298 371.404 32.882 380.091 33.0877C388.779 33.2933 393.648 27.2273 394.463 27.0878C394.874 27.0217 397.268 29.1955 402.013 28.4317C406.529 27.7047 408.908 25.7439 408.908 25.7439C408.908 25.7439 409.562 30.6055 405.016 33.6017C401.469 35.937 395.3 36.1867 395.3 36.1867C395.3 36.1867 394.36 39.7925 390.123 42.4142C386.187 44.8597 379.401 45.6748 374.378 44.1767C368.07 42.2967 366.505 39.4253 366.505 39.4253C366.505 39.4253 361.805 42.1792 354.462 41.2466C347.522 40.38 343.821 36.1794 343.821 36.1794Z" fill="#BACDD2"/>
<path d="M161.793 45.1227C162.8 44.1158 160.017 32.1312 172.421 22.8735C184.826 13.6159 193.286 19.1397 194.475 18.7341C195.65 18.3426 201.173 -5.87836 224.401 -12.1713C247.629 -18.4643 271.85 -6.66149 277.556 13.0285C282.772 31.0264 278.731 43.1509 279.332 43.934C279.919 44.7171 291.149 44.3256 297.638 54.7579C304.126 65.1902 301.777 71.693 301.777 71.693L260.439 84.4887H194.293C194.293 84.4887 136.02 69.1338 135.433 66.3789C134.845 63.624 136.174 54.674 145.669 49.2481C153.92 44.5353 160.017 46.8987 161.793 45.1227Z" fill="#E4EAEE"/>
<path d="M178.169 87.8309C178.169 87.8309 156.102 92.4458 141.18 80.8947C132.202 73.9305 135.475 62.6451 135.475 62.6451C135.475 62.6451 141.908 69.1478 154.899 70.9098C167.891 72.6859 182.462 72.0845 182.462 72.0845C182.462 72.0845 186.098 78.2936 199.789 81.1464C216.948 84.7124 225.996 75.9302 225.996 75.9302C225.996 75.9302 230.694 81.552 247.238 81.9435C263.781 82.3351 273.053 70.784 274.605 70.5183C275.388 70.3924 279.947 74.5318 288.981 73.0774C297.582 71.693 302.113 67.9591 302.113 67.9591C302.113 67.9591 303.357 77.2168 294.701 82.9224C287.946 87.3695 276.2 87.8449 276.2 87.8449C276.2 87.8449 274.41 94.7113 266.341 99.7037C258.845 104.36 245.923 105.913 236.358 103.06C224.345 99.4799 221.367 94.012 221.367 94.012C221.367 94.012 212.417 99.2562 198.432 97.4802C185.217 95.83 178.169 87.8309 178.169 87.8309Z" fill="#BACDD2"/>
<path d="M176.5 224.775C170.332 222.728 171.525 216.886 171.199 216.032C172.254 213.67 169.955 214.06 170.03 209.135C170.105 204.211 179.891 202.916 185.016 200.956C190.141 198.996 190.594 202.739 189.865 205.955C189.137 209.171 192.479 212.789 194.376 216.47C196.273 220.15 192.454 225.527 188.384 225.125C184.314 224.724 182.669 226.822 176.5 224.775Z" fill="#EEAD6D"/>
<path d="M31.706 229.38C28.9259 228.769 29.1798 226.17 28.9986 225.813C29.3507 224.736 28.3671 225.011 28.1757 222.862C27.9843 220.714 32.1882 219.704 34.3315 218.617C36.4749 217.53 36.8424 219.141 36.6714 220.575C36.5005 222.009 38.1208 223.432 39.1147 224.949C40.1086 226.466 38.6898 228.982 36.8986 228.992C35.1074 229.003 34.486 229.992 31.706 229.38Z" fill="#EEAD6D"/>
<path d="M332.122 29.8517C325.71 31.5204 322.123 39.5505 321.131 43.3569C319.261 48.1877 319.021 48.0804 317.175 52.2135C315.328 56.3466 324.65 57.6775 335.679 58.355C346.709 59.0326 350.012 48.4675 352.461 38.2291C354.91 27.9908 340.137 27.7658 332.122 29.8517Z" fill="#EEAD6D"/>
<path d="M286.885 36.4859C287.526 35.8447 285.754 28.212 293.654 22.3161C301.554 16.4202 306.942 19.9381 307.699 19.6798C308.447 19.4305 311.965 4.00485 326.758 -0.00296366C341.552 -4.01078 356.977 3.5061 360.611 16.0461C363.933 27.5084 361.359 35.2302 361.742 35.7289C362.116 36.2277 369.268 35.9783 373.4 42.6224C377.533 49.2664 376.037 53.4078 376.037 53.4078L349.71 61.557H307.583C307.583 61.557 270.471 51.778 270.097 50.0234C269.723 48.2689 270.569 42.5689 276.616 39.1133C281.871 36.1119 285.754 37.617 286.885 36.4859Z" fill="#E4EAEE"/>
<path d="M297.314 63.6856C297.314 63.6856 283.26 66.6247 273.757 59.2681C268.04 54.8328 270.124 47.6455 270.124 47.6455C270.124 47.6455 274.22 51.7869 282.494 52.9091C290.768 54.0402 300.049 53.6572 300.049 53.6572C300.049 53.6572 302.364 57.6116 311.083 59.4284C322.011 61.6995 327.774 56.1064 327.774 56.1064C327.774 56.1064 330.766 59.6867 341.302 59.9361C351.838 60.1855 357.743 52.8289 358.732 52.6597C359.231 52.5795 362.134 55.2158 367.887 54.2895C373.365 53.4078 376.25 51.0298 376.25 51.0298C376.25 51.0298 377.043 56.9258 371.53 60.5595C367.228 63.3917 359.747 63.6945 359.747 63.6945C359.747 63.6945 358.607 68.0675 353.468 71.247C348.695 74.2128 340.465 75.2014 334.373 73.3845C326.723 71.1045 324.826 67.6222 324.826 67.6222C324.826 67.6222 319.126 70.962 310.22 69.8309C301.803 68.78 297.314 63.6856 297.314 63.6856Z" fill="#BACDD2"/>
<path d="M375.114 64.0344C375.947 63.2019 373.646 53.2928 383.902 45.6384C394.158 37.9841 401.153 42.5513 402.136 42.2159C403.107 41.8922 407.674 21.8659 426.879 16.6628C446.085 11.4597 466.111 21.2184 470.828 37.4984C475.141 52.3794 471.8 62.4041 472.297 63.0516C472.783 63.6991 482.067 63.3753 487.432 72.0009C492.797 80.6266 490.855 86.0031 490.855 86.0031L456.676 96.5828H401.985C401.985 96.5828 353.804 83.8872 353.319 81.6094C352.833 79.3316 353.932 71.9316 361.783 67.4453C368.604 63.5487 373.646 65.5028 375.114 64.0344Z" fill="#E4EAEE"/>
<path d="M388.654 99.3462C388.654 99.3462 370.408 103.162 358.071 93.6112C350.648 87.8531 353.353 78.5222 353.353 78.5222C353.353 78.5222 358.672 83.8987 369.414 85.3556C380.155 86.8241 392.203 86.3269 392.203 86.3269C392.203 86.3269 395.21 91.4606 406.529 93.8194C420.717 96.7678 428.198 89.5066 428.198 89.5066C428.198 89.5066 432.083 94.1547 445.761 94.4784C459.439 94.8022 467.105 85.2516 468.389 85.0319C469.036 84.9278 472.806 88.3503 480.275 87.1478C487.386 86.0031 491.132 82.9159 491.132 82.9159C491.132 82.9159 492.161 90.5703 485.004 95.2878C479.419 98.9647 469.707 99.3578 469.707 99.3578C469.707 99.3578 468.227 105.035 461.555 109.163C455.358 113.013 444.674 114.297 436.765 111.938C426.833 108.978 424.37 104.457 424.37 104.457C424.37 104.457 416.97 108.793 405.408 107.324C394.481 105.96 388.654 99.3462 388.654 99.3462Z" fill="#BACDD2"/>
<path d="M89.2211 32.7516C89.7498 32.2228 88.2884 25.9292 94.8023 21.0677C101.316 16.2061 105.759 19.1069 106.383 18.8939C107 18.6883 109.901 5.9689 122.099 2.66422C134.297 -0.640471 147.016 5.55765 150.013 15.8977C152.752 25.3491 150.63 31.7161 150.945 32.1273C151.254 32.5386 157.151 32.333 160.558 37.8114C163.966 43.2898 162.732 46.7047 162.732 46.7047L141.024 53.4242H106.288C106.288 53.4242 75.6866 45.3608 75.3781 43.9141C75.0697 42.4673 75.7673 37.7673 80.7537 34.918C85.0866 32.4431 88.2884 33.6842 89.2211 32.7516Z" fill="#E4EAEE"/>
<path d="M97.8206 55.1794C97.8206 55.1794 86.2322 57.6028 78.3964 51.5369C73.6817 47.8797 75.4002 41.9533 75.4002 41.9533C75.4002 41.9533 78.7783 45.3681 85.6006 46.2934C92.423 47.2261 100.075 46.9103 100.075 46.9103C100.075 46.9103 101.985 50.1709 109.174 51.6691C118.185 53.5417 122.936 48.9298 122.936 48.9298C122.936 48.9298 125.404 51.882 134.091 52.0877C142.779 52.2933 147.648 46.2273 148.463 46.0878C148.874 46.0217 151.268 48.1955 156.013 47.4317C160.529 46.7047 162.908 44.7439 162.908 44.7439C162.908 44.7439 163.562 49.6055 159.016 52.6017C155.469 54.937 149.3 55.1867 149.3 55.1867C149.3 55.1867 148.36 58.7925 144.123 61.4142C140.187 63.8597 133.401 64.6748 128.378 63.1767C122.07 61.2967 120.505 58.4253 120.505 58.4253C120.505 58.4253 115.805 61.1792 108.462 60.2466C101.522 59.38 97.8206 55.1794 97.8206 55.1794Z" fill="#BACDD2"/>
<path d="M-8.57305 44.1492C-7.57742 43.1536 -10.3292 31.3029 1.93633 22.1487C14.2019 12.9944 22.5679 18.4566 23.7433 18.0555C24.9048 17.6684 30.367 -6.28196 53.3355 -12.5046C76.304 -18.7273 100.254 -7.05634 105.896 12.4137C111.054 30.2105 107.058 42.1994 107.652 42.9738C108.233 43.7482 119.337 43.361 125.753 53.6768C132.17 63.9926 129.846 70.4227 129.846 70.4227L88.9705 83.0754H23.5635C23.5635 83.0754 -34.0583 67.8921 -34.6391 65.168C-35.2198 62.4438 -33.9062 53.5938 -24.5169 48.2285C-16.3583 43.5684 -10.3292 45.9054 -8.57305 44.1492Z" fill="#E4EAEE"/>
<path d="M7.61968 86.3803C7.61968 86.3803 -14.2011 90.9436 -28.9557 79.5216C-37.8334 72.6352 -34.5976 61.4759 -34.5976 61.4759C-34.5976 61.4759 -28.2366 67.9059 -15.3903 69.6483C-2.54399 71.4044 11.8649 70.8098 11.8649 70.8098C11.8649 70.8098 15.4602 76.9495 28.998 79.7705C45.9651 83.2966 54.9119 74.6126 54.9119 74.6126C54.9119 74.6126 59.5581 80.1715 75.9168 80.5587C92.2755 80.9459 101.444 69.5238 102.978 69.2611C103.753 69.1366 108.261 73.2298 117.194 71.7916C125.698 70.4227 130.178 66.7305 130.178 66.7305C130.178 66.7305 131.409 75.8848 122.849 81.5266C116.17 85.924 104.555 86.3941 104.555 86.3941C104.555 86.3941 102.785 93.1838 94.806 98.1204C87.3941 102.725 74.617 104.26 65.1585 101.439C53.2802 97.8991 50.3348 92.4923 50.3348 92.4923C50.3348 92.4923 41.4848 97.6779 27.6566 95.9217C14.5891 94.29 7.61968 86.3803 7.61968 86.3803Z" fill="#BACDD2"/>
<path d="M113.57 695.862C113.57 695.862 4.08015 621.529 -23.7226 613.904L-32.5795 589.861L81.1343 590.51L132.041 694.829L113.57 695.862Z" fill="#D57F4C"/>
<path d="M237.006 664.418C223.023 650.777 195.685 627.001 183.764 616.818L207.2 686.617L315.967 733.114C332.026 733.718 355.35 731.712 320.177 718.857C276.42 702.864 254.693 681.67 237.256 664.661L237.006 664.418Z" fill="#D57F4C"/>
<path d="M60.4712 659.772C10.306 608.094 -59.315 592.358 -96.0082 592.909C-81.7847 557.726 -62.3371 453.61 -50.0178 466.142C-34.6188 481.806 76.2641 548.215 140.122 579.697C203.981 611.179 216.12 662.563 245.696 685.465C273.439 706.949 290.381 696.486 367.526 732.733C429.243 761.731 452.613 839.313 456.584 874.48L411.654 876.993L340.266 880.988C314.332 853.059 253.039 795.226 215.338 787.32C168.212 777.437 123.178 724.37 60.4712 659.772Z" fill="#EBCC63"/>
<path d="M161.357 698.771C160.35 692.35 166.089 690.734 166.699 690.052C169.281 689.907 167.882 688.043 172.293 685.853C176.704 683.663 182.339 691.767 186.43 695.425C190.521 699.082 187.401 701.2 184.209 702.026C181.017 702.852 179.332 707.48 176.93 710.853C174.528 714.226 167.999 713.296 166.491 709.494C164.983 705.692 162.364 705.191 161.357 698.771Z" fill="#EEAD6D"/>
<path d="M384.192 761.442C379.771 756.508 370.99 757 367.152 757.862C362.001 758.414 361.986 758.151 357.467 758.404C352.947 758.657 356.035 767.552 360.487 777.666C364.939 787.78 375.843 785.874 386.066 783.359C396.288 780.844 389.719 767.61 384.192 761.442Z" fill="#EEAD6D"/>
<path d="M292.45 753.975C293.344 746.8 284.196 745.369 283.55 745.405C281.613 745.514 277.395 746.527 276.019 749.713C274.299 753.695 279.144 759.253 284.417 760.901C289.691 762.549 291.556 761.15 292.45 753.975Z" fill="#EEAD6D"/>
<path fill-rule="evenodd" clip-rule="evenodd" d="M19.0161 360.18C17.8647 359.887 16.6505 359.953 15.5375 360.368C14.9086 360.817 14.4723 361.485 14.3153 362.239C14.4384 362.444 14.5333 362.664 14.5973 362.894C14.5973 363.025 14.9358 363.081 15.6315 363.081C16.7954 363.217 17.9683 362.917 18.9221 362.239C19.2422 361.916 19.4975 361.535 19.6743 361.116L19.0161 360.18ZM54.4606 360.555C53.8346 360.51 53.2062 360.51 52.5802 360.555C52.3454 360.657 52.1475 360.829 52.0131 361.046C51.8787 361.263 51.8142 361.516 51.8281 361.771C51.8281 362.838 51.9785 363.119 52.2982 362.613V362.988C52.7355 363.037 53.1771 363.037 53.6144 362.988C53.8838 363.013 54.1557 362.985 54.414 362.905C54.6724 362.824 54.9119 362.694 55.1187 362.52C55.3029 362.255 55.4604 361.973 55.5888 361.678C55.3074 361.22 54.9207 360.835 54.4606 360.555ZM21.0845 367.198C22.2929 367.234 23.4992 367.076 24.6572 366.73V365.888L24.0931 364.765C22.4008 364.522 21.2726 364.765 20.7085 365.233C20.7542 365.901 20.8805 366.561 21.0845 367.198ZM37.2555 370.473C36.9853 370.677 36.7027 370.865 36.4093 371.035C35.6572 371.54 35.2811 371.97 35.2811 372.345C35.2811 373.467 35.4315 373.842 35.7512 373.467H35.9392C36.3765 373.517 36.8181 373.517 37.2555 373.467C37.87 373.495 38.4731 373.295 38.9478 372.906C38.9478 372.906 39.0794 372.625 39.1358 372.064C38.5613 371.475 37.9317 370.943 37.2555 370.473ZM36.5973 376.555C36.6809 377.134 36.8389 377.7 37.0674 378.239H41.3922C41.6856 378.165 41.9461 377.996 42.1332 377.76C42.3202 377.523 42.4233 377.231 42.4264 376.93V376.555C41.3975 376.215 40.3098 376.088 39.2298 376.181C38.3371 376.153 37.4463 376.279 36.5973 376.555ZM44.7768 367.853C45.0309 368.081 45.328 368.256 45.6508 368.369C45.9736 368.481 46.3158 368.529 46.6572 368.508C47.1225 368.544 47.5878 368.438 47.991 368.204C48.3942 367.97 48.716 367.619 48.9136 367.198L48.2555 366.169C46.803 365.556 45.2068 365.362 43.6486 365.608V367.198C43.9849 367.478 44.3664 367.7 44.7768 367.853ZM53.9905 380.766L51.9221 381.14C52.0097 381.779 52.1673 382.407 52.3922 383.012H55.7768C56.3668 382.667 56.8287 382.142 57.0931 381.514V381.14C56.1052 380.765 55.0399 380.636 53.9905 380.766ZM44.0247 385.632V386.287C44.3359 386.537 44.6196 386.819 44.8708 387.129C45.3618 387.479 45.9612 387.644 46.5632 387.597C47.128 387.583 47.6792 387.422 48.1614 387.129C48.4474 386.987 48.6924 386.775 48.8733 386.513C49.0543 386.251 49.1652 385.948 49.1956 385.632C49.1956 384.883 49.1956 384.471 48.9136 384.415H48.6315H45.1529L44.5888 384.602C44.3139 384.891 44.1195 385.245 44.0247 385.632ZM59.6315 376.275C59.5832 376.76 59.6814 377.249 59.9136 377.678C60.3014 378.148 60.7895 378.526 61.3424 378.785C61.8952 379.044 62.4991 379.177 63.1102 379.175C63.3738 379.209 63.6417 379.175 63.8885 379.077C64.1353 378.979 64.3528 378.819 64.5204 378.614C64.7478 378.342 64.9087 378.022 64.9905 377.678L64.5204 376.836C62.9447 376.322 61.2877 376.1 59.6315 376.181V376.275ZM70.9136 371.502C70.9136 370.698 70.9136 370.249 70.7255 370.192C70.3239 370.164 69.936 370.035 69.5973 369.818C68.5581 370.476 67.6627 371.335 66.9649 372.345C67.1872 372.454 67.3805 372.615 67.529 372.812C67.9763 373.096 68.5043 373.228 69.0332 373.187C69.8418 373.187 70.3495 373.056 70.5375 372.812C70.7255 372.569 70.7631 372.625 70.8196 372.251C70.876 372.719 70.9136 372.476 70.9136 371.409V371.502Z" fill="#9A79FF"/>
<path fill-rule="evenodd" clip-rule="evenodd" d="M10.4604 370.473C10.3491 370.64 10.2232 370.797 10.0843 370.941L11.3065 371.783C12.3957 371.634 13.4301 371.216 14.3151 370.567C14.5309 370.49 14.7245 370.361 14.8792 370.193C15.1233 369.869 15.2553 369.475 15.2553 369.07C15.3029 368.666 15.3029 368.257 15.2553 367.853L14.9732 368.134C13.8767 368.183 12.8099 368.505 11.8706 369.07C11.3176 369.447 10.8394 369.923 10.4604 370.473ZM26.7253 370.754C25.3527 370.885 24.657 371.409 24.657 372.345C24.657 373.28 24.657 373.505 24.845 373.561H25.2211H28.6057C28.8601 373.514 29.1113 373.452 29.3578 373.374C29.6702 373.076 29.8694 372.679 29.9219 372.251V371.877C29.6068 371.362 29.0999 370.992 28.5117 370.848C27.9451 370.611 27.3137 370.578 26.7253 370.754ZM37.0672 383.854L35.1869 383.199C33.966 382.847 32.6967 382.689 31.4262 382.731V384.322H31.6142C32.3905 385.101 33.4283 385.567 34.5288 385.632C35.0624 385.706 35.6062 385.621 36.0915 385.388C36.5768 385.155 36.9817 384.784 37.2553 384.322L37.0672 383.854ZM57.0929 367.011C57.2808 367.206 57.4391 367.426 57.563 367.666C58.051 367.809 58.559 367.872 59.0672 367.853C59.5713 367.895 60.0769 367.794 60.5259 367.562C60.9749 367.33 61.3492 366.977 61.6057 366.543C61.6057 366.543 61.6057 366.3 61.6997 365.982L61.2296 364.859C60.578 364.891 59.9391 365.05 59.3493 365.327C59.2585 365.292 59.158 365.292 59.0672 365.327C58.3099 365.722 57.6389 366.263 57.0929 366.918V367.011ZM44.8706 373.374C44.722 373.667 44.6266 373.984 44.5886 374.31C44.9716 374.715 45.4597 375.006 45.9988 375.152C46.2938 375.05 46.5505 374.861 46.7352 374.61C46.9199 374.359 47.0237 374.059 47.033 373.748C46.9861 373.461 46.8666 373.19 46.6858 372.961C46.5049 372.731 46.2685 372.552 45.9988 372.438C45.7591 372.485 45.533 372.585 45.3376 372.731C45.1422 372.876 44.9826 373.064 44.8706 373.28V373.374Z" fill="#FFCC00"/>
<path fill-rule="evenodd" clip-rule="evenodd" d="M9.6142 372.438L11.3065 372.812C12.6479 372.909 13.9945 372.717 15.2552 372.251H15.6313C15.8916 371.977 16.0927 371.654 16.2221 371.299C16.3515 370.945 16.4064 370.569 16.3834 370.192C16.3834 368.078 15.1988 367.236 12.8108 367.666C10.4227 368.096 9.05009 369.201 9.05009 371.128C8.98344 371.531 8.98344 371.942 9.05009 372.345C9.18171 372.345 9.23813 372.476 9.23813 372.532L9.6142 372.438ZM10.4603 370.473C10.8115 369.931 11.2573 369.456 11.7766 369.07C12.7159 368.504 13.7826 368.183 14.8792 368.134L15.1612 367.853C15.2088 368.257 15.2088 368.666 15.1612 369.07C15.1612 369.475 15.0292 369.869 14.7851 370.192C14.6305 370.361 14.4368 370.49 14.221 370.567C13.336 371.216 12.3017 371.634 11.2125 371.783L9.99026 370.941C10.1618 370.801 10.3193 370.644 10.4603 370.473ZM30.768 386.942C31.8883 387.655 33.1995 388.014 34.5287 387.971C35.1076 387.945 35.6745 387.798 36.1928 387.54C36.7111 387.282 37.1691 386.919 37.5373 386.474C37.6884 386.305 37.815 386.116 37.9133 385.912C38.5651 385.23 38.9344 384.328 38.9475 383.386C38.9475 380.766 37.1988 379.643 33.6826 379.924C30.1663 380.204 28.6056 381.458 28.6056 383.199L29.5458 385.351C29.8005 385.982 30.223 386.532 30.768 386.942ZM37.0672 383.854L37.2552 384.322C36.9817 384.784 36.5767 385.155 36.0915 385.388C35.6062 385.621 35.0624 385.706 34.5287 385.632C33.4283 385.567 32.3904 385.101 31.6142 384.322H31.4262V382.731C32.6967 382.688 33.9659 382.846 35.1868 383.199L37.0672 383.854ZM43.2723 375.339C43.5082 375.574 43.7594 375.792 44.0245 375.994C45.7642 376.174 47.5151 375.779 49.0074 374.871C49.2506 374.745 49.4565 374.557 49.6049 374.328C49.7533 374.098 49.8389 373.834 49.8535 373.561C49.8535 371.877 48.5937 371.035 46.0928 371.035C43.592 371.035 42.2381 372.064 42.2381 373.935C42.2381 374.179 42.5766 374.646 43.2723 375.339ZM44.8706 373.28C44.9711 373.047 45.1257 372.84 45.3218 372.678C45.5179 372.515 45.7499 372.401 45.9988 372.345C46.2685 372.458 46.5048 372.638 46.6857 372.867C46.8666 373.096 46.9861 373.367 47.033 373.655C47.0237 373.965 46.9199 374.266 46.7352 374.516C46.5505 374.767 46.2937 374.956 45.9988 375.058C45.4596 374.912 44.9716 374.621 44.5886 374.216C44.6265 373.89 44.722 373.573 44.8706 373.28Z" fill="#FEFFFD"/>
<path fill-rule="evenodd" clip-rule="evenodd" d="M15.2553 372.251C13.9946 372.717 12.6481 372.909 11.3066 372.812L9.61432 372.438C9.43807 372.82 9.34209 373.234 9.33227 373.655V375.9C9.50702 376.441 9.86507 376.905 10.3452 377.212C10.8254 377.519 11.3978 377.651 11.9647 377.585C12.6391 377.639 13.3122 377.465 13.8751 377.091C14.438 376.718 14.8581 376.166 15.0673 375.526C15.1989 373.898 15.2553 373 15.2553 372.812V372.251ZM37.8195 385.912C37.7211 386.116 37.5945 386.305 37.4434 386.474C37.0752 386.919 36.6172 387.282 36.0989 387.54C35.5806 387.798 35.0137 387.945 34.4348 387.971C33.1056 388.014 31.7944 387.655 30.6741 386.942L31.2383 388.813C31.9904 390.684 33.1186 391.527 34.3408 391.527C35.563 391.527 36.5972 390.722 37.1613 389.094C37.5332 388.237 37.7251 387.313 37.7254 386.38L37.8195 385.912ZM24.0929 374.871C24.3374 376.742 25.2212 377.585 26.7254 377.585C28.2297 377.585 29.1699 376.649 29.3579 374.777C28.3232 375.098 27.2448 375.255 26.1613 375.245C25.4553 375.287 24.7488 375.172 24.0929 374.908V374.871ZM56.5289 369.07V370.099C56.9049 371.222 57.9015 371.783 59.5374 371.783C59.9231 371.802 60.3084 371.737 60.6658 371.591C61.0233 371.446 61.3442 371.224 61.6058 370.941C61.8401 370.726 62.0277 370.466 62.1571 370.176C62.2864 369.887 62.3548 369.574 62.3579 369.257V368.602C60.8785 369.111 59.3146 369.334 57.7511 369.257C57.3353 369.274 56.9203 369.21 56.5289 369.07ZM43.3665 375.339V377.397C43.3922 377.725 43.4838 378.044 43.6359 378.336C43.788 378.627 43.9974 378.886 44.2517 379.095C44.5061 379.305 44.8001 379.461 45.1164 379.555C45.4327 379.649 45.7648 379.679 46.093 379.643C46.5099 379.607 46.9156 379.489 47.2867 379.296C47.6578 379.104 47.987 378.84 48.2553 378.52C48.9187 377.845 49.2899 376.938 49.2895 375.994C49.2825 375.612 49.2191 375.234 49.1015 374.871C47.6093 375.779 45.8584 376.174 44.1186 375.994C43.8212 375.796 43.5385 375.577 43.2724 375.339H43.3665Z" fill="#3C942D"/>
<path fill-rule="evenodd" clip-rule="evenodd" d="M26.7256 370.754C27.295 370.63 27.8898 370.695 28.4179 370.941C29.0061 371.086 29.5131 371.456 29.8282 371.97V372.345C29.7756 372.773 29.5764 373.169 29.2641 373.468C29.0175 373.546 28.7663 373.608 28.5119 373.655H25.1273H24.7512C24.6196 373.655 24.5632 373.187 24.5632 372.438C24.5632 371.69 25.3529 370.885 26.7256 370.754ZM24.0931 374.871C24.7461 375.147 25.4527 375.275 26.1615 375.245C27.245 375.256 28.3234 375.098 29.3581 374.778C29.8171 374.685 30.2604 374.528 30.6743 374.31C32.047 373.748 32.7427 373.037 32.7427 372.158C32.2301 371.021 31.5311 369.978 30.6743 369.07C28.5415 368.869 26.3943 369.257 24.4692 370.193C23.0213 370.997 22.3068 371.746 22.3068 372.438L22.6829 373.935C22.8043 374.212 23.0005 374.449 23.2495 374.621C23.4985 374.793 23.7906 374.892 24.0931 374.909V374.871ZM56.529 369.07C56.9204 369.21 57.3355 369.274 57.7512 369.257C59.3148 369.334 60.8787 369.111 62.3581 368.602C62.7306 368.443 63.051 368.183 63.2835 367.852C63.516 367.522 63.6514 367.133 63.6743 366.731C63.6743 366.219 63.0475 365.47 61.794 364.485H56.623C56.2204 364.568 55.8374 364.726 55.4948 364.953C55.2504 365.14 55.1188 365.645 55.1188 366.45C55.0394 366.979 55.1338 367.52 55.3878 367.992C55.6419 368.464 56.0421 368.842 56.529 369.07ZM57.0931 366.918C57.6115 366.272 58.2499 365.732 58.9735 365.327C59.0643 365.292 59.1647 365.292 59.2555 365.327C59.8453 365.05 60.4843 364.891 61.1359 364.859L61.6059 365.982C61.6059 366.3 61.5119 366.487 61.5119 366.543C61.2554 366.977 60.8812 367.33 60.4322 367.562C59.9831 367.794 59.4775 367.895 58.9735 367.853C58.4652 367.872 57.9573 367.809 57.4692 367.666C57.3827 367.399 57.2559 367.147 57.0931 366.918Z" fill="#FE5DA3"/>
<path fill-rule="evenodd" clip-rule="evenodd" d="M102.016 292.18C100.865 291.887 99.6505 291.953 98.5375 292.368C97.9086 292.817 97.4723 293.485 97.3153 294.239C97.4384 294.444 97.5333 294.664 97.5973 294.894C97.5973 295.025 97.9358 295.081 98.6315 295.081C99.7954 295.217 100.968 294.917 101.922 294.239C102.242 293.916 102.497 293.535 102.674 293.116L102.016 292.18ZM137.461 292.555C136.835 292.51 136.206 292.51 135.58 292.555C135.345 292.657 135.148 292.829 135.013 293.046C134.879 293.263 134.814 293.516 134.828 293.771C134.828 294.838 134.979 295.119 135.298 294.613V294.988C135.736 295.037 136.177 295.037 136.614 294.988C136.884 295.013 137.156 294.985 137.414 294.905C137.672 294.824 137.912 294.694 138.119 294.52C138.303 294.255 138.46 293.973 138.589 293.678C138.307 293.22 137.921 292.835 137.461 292.555ZM104.085 299.198C105.293 299.234 106.499 299.076 107.657 298.73V297.888L107.093 296.765C105.401 296.522 104.273 296.765 103.708 297.233C103.754 297.901 103.88 298.561 104.085 299.198ZM120.255 302.473C119.985 302.677 119.703 302.865 119.409 303.035C118.657 303.54 118.281 303.97 118.281 304.345C118.281 305.467 118.432 305.842 118.751 305.467H118.939C119.377 305.517 119.818 305.517 120.255 305.467C120.87 305.495 121.473 305.295 121.948 304.906C121.948 304.906 122.079 304.625 122.136 304.064C121.561 303.475 120.932 302.943 120.255 302.473ZM119.597 308.555C119.681 309.134 119.839 309.7 120.067 310.239H124.392C124.686 310.165 124.946 309.996 125.133 309.76C125.32 309.523 125.423 309.231 125.426 308.93V308.555C124.398 308.215 123.31 308.088 122.23 308.181C121.337 308.153 120.446 308.279 119.597 308.555ZM127.777 299.853C128.031 300.081 128.328 300.256 128.651 300.369C128.974 300.481 129.316 300.529 129.657 300.508C130.123 300.544 130.588 300.438 130.991 300.204C131.394 299.97 131.716 299.619 131.914 299.198L131.255 298.169C129.803 297.556 128.207 297.362 126.649 297.608V299.198C126.985 299.478 127.366 299.7 127.777 299.853ZM136.99 312.766L134.922 313.14C135.01 313.779 135.167 314.407 135.392 315.012H138.777C139.367 314.667 139.829 314.142 140.093 313.514V313.14C139.105 312.765 138.04 312.636 136.99 312.766ZM127.025 317.632V318.287C127.336 318.537 127.62 318.819 127.871 319.129C128.362 319.479 128.961 319.644 129.563 319.597C130.128 319.583 130.679 319.422 131.161 319.129C131.447 318.987 131.692 318.775 131.873 318.513C132.054 318.251 132.165 317.948 132.196 317.632C132.196 316.883 132.196 316.471 131.914 316.415H131.632H128.153L127.589 316.602C127.314 316.891 127.119 317.245 127.025 317.632ZM142.632 308.275C142.583 308.76 142.681 309.249 142.914 309.678C143.301 310.148 143.789 310.526 144.342 310.785C144.895 311.044 145.499 311.177 146.11 311.175C146.374 311.209 146.642 311.175 146.889 311.077C147.135 310.979 147.353 310.819 147.52 310.614C147.748 310.342 147.909 310.022 147.991 309.678L147.52 308.836C145.945 308.322 144.288 308.1 142.632 308.181V308.275ZM153.914 303.502C153.914 302.698 153.914 302.249 153.726 302.192C153.324 302.164 152.936 302.035 152.597 301.818C151.558 302.476 150.663 303.335 149.965 304.345C150.187 304.454 150.38 304.615 150.529 304.812C150.976 305.096 151.504 305.228 152.033 305.187C152.842 305.187 153.349 305.056 153.538 304.812C153.726 304.569 153.763 304.625 153.82 304.251C153.876 304.719 153.914 304.476 153.914 303.409V303.502Z" fill="#9A79FF"/>
<path fill-rule="evenodd" clip-rule="evenodd" d="M93.4604 302.473C93.3491 302.64 93.2232 302.797 93.0843 302.941L94.3065 303.783C95.3957 303.634 96.4301 303.216 97.3151 302.567C97.5309 302.49 97.7245 302.361 97.8792 302.193C98.1233 301.869 98.2553 301.475 98.2553 301.07C98.3029 300.666 98.3029 300.257 98.2553 299.853L97.9732 300.134C96.8767 300.183 95.8099 300.505 94.8706 301.07C94.3176 301.447 93.8394 301.923 93.4604 302.473ZM109.725 302.754C108.353 302.885 107.657 303.409 107.657 304.345C107.657 305.28 107.657 305.505 107.845 305.561H108.221H111.606C111.86 305.514 112.111 305.452 112.358 305.374C112.67 305.076 112.869 304.679 112.922 304.251V303.877C112.607 303.362 112.1 302.992 111.512 302.848C110.945 302.611 110.314 302.578 109.725 302.754ZM120.067 315.854L118.187 315.199C116.966 314.847 115.697 314.689 114.426 314.731V316.322H114.614C115.39 317.101 116.428 317.567 117.529 317.632C118.062 317.706 118.606 317.621 119.092 317.388C119.577 317.155 119.982 316.784 120.255 316.322L120.067 315.854ZM140.093 299.011C140.281 299.206 140.439 299.426 140.563 299.666C141.051 299.809 141.559 299.872 142.067 299.853C142.571 299.895 143.077 299.794 143.526 299.562C143.975 299.33 144.349 298.977 144.606 298.543C144.606 298.543 144.606 298.3 144.7 297.982L144.23 296.859C143.578 296.891 142.939 297.05 142.349 297.327C142.258 297.292 142.158 297.292 142.067 297.327C141.31 297.722 140.639 298.263 140.093 298.918V299.011ZM127.871 305.374C127.722 305.667 127.627 305.984 127.589 306.31C127.972 306.715 128.46 307.006 128.999 307.152C129.294 307.05 129.551 306.861 129.735 306.61C129.92 306.359 130.024 306.059 130.033 305.748C129.986 305.461 129.867 305.19 129.686 304.961C129.505 304.731 129.269 304.552 128.999 304.438C128.759 304.485 128.533 304.585 128.338 304.731C128.142 304.876 127.983 305.064 127.871 305.28V305.374Z" fill="#FFCC00"/>
<path fill-rule="evenodd" clip-rule="evenodd" d="M92.6142 304.438L94.3065 304.812C95.6479 304.909 96.9945 304.717 98.2552 304.251H98.6313C98.8916 303.977 99.0927 303.654 99.2221 303.299C99.3515 302.945 99.4064 302.569 99.3834 302.192C99.3834 300.078 98.1988 299.236 95.8108 299.666C93.4227 300.096 92.0501 301.201 92.0501 303.128C91.9834 303.531 91.9834 303.942 92.0501 304.345C92.1817 304.345 92.2381 304.476 92.2381 304.532L92.6142 304.438ZM93.4603 302.473C93.8115 301.931 94.2573 301.456 94.7766 301.07C95.7159 300.504 96.7826 300.183 97.8792 300.134L98.1612 299.853C98.2088 300.257 98.2088 300.666 98.1612 301.07C98.1612 301.475 98.0292 301.869 97.7851 302.192C97.6305 302.361 97.4368 302.49 97.221 302.567C96.336 303.216 95.3017 303.634 94.2125 303.783L92.9903 302.941C93.1618 302.801 93.3193 302.644 93.4603 302.473ZM113.768 318.942C114.888 319.655 116.199 320.014 117.529 319.971C118.108 319.945 118.675 319.798 119.193 319.54C119.711 319.282 120.169 318.919 120.537 318.474C120.688 318.305 120.815 318.116 120.913 317.912C121.565 317.23 121.934 316.328 121.948 315.386C121.948 312.766 120.199 311.643 116.683 311.924C113.166 312.204 111.606 313.458 111.606 315.199L112.546 317.351C112.8 317.982 113.223 318.532 113.768 318.942ZM120.067 315.854L120.255 316.322C119.982 316.784 119.577 317.155 119.091 317.388C118.606 317.621 118.062 317.706 117.529 317.632C116.428 317.567 115.39 317.101 114.614 316.322H114.426V314.731C115.697 314.688 116.966 314.846 118.187 315.199L120.067 315.854ZM126.272 307.339C126.508 307.574 126.759 307.792 127.024 307.994C128.764 308.174 130.515 307.779 132.007 306.871C132.251 306.745 132.457 306.557 132.605 306.328C132.753 306.098 132.839 305.834 132.854 305.561C132.854 303.877 131.594 303.035 129.093 303.035C126.592 303.035 125.238 304.064 125.238 305.935C125.238 306.179 125.577 306.646 126.272 307.339ZM127.871 305.28C127.971 305.047 128.126 304.84 128.322 304.678C128.518 304.515 128.75 304.401 128.999 304.345C129.268 304.458 129.505 304.638 129.686 304.867C129.867 305.096 129.986 305.367 130.033 305.655C130.024 305.965 129.92 306.266 129.735 306.516C129.551 306.767 129.294 306.956 128.999 307.058C128.46 306.912 127.972 306.621 127.589 306.216C127.627 305.89 127.722 305.573 127.871 305.28Z" fill="#FEFFFD"/>
<path fill-rule="evenodd" clip-rule="evenodd" d="M98.2553 304.251C96.9946 304.717 95.6481 304.909 94.3066 304.812L92.6143 304.438C92.4381 304.82 92.3421 305.234 92.3323 305.655V307.9C92.507 308.441 92.8651 308.905 93.3452 309.212C93.8254 309.519 94.3978 309.651 94.9647 309.585C95.6391 309.639 96.3122 309.465 96.8751 309.091C97.438 308.718 97.8581 308.166 98.0673 307.526C98.1989 305.898 98.2553 305 98.2553 304.812V304.251ZM120.819 317.912C120.721 318.116 120.595 318.305 120.443 318.474C120.075 318.919 119.617 319.282 119.099 319.54C118.581 319.798 118.014 319.945 117.435 319.971C116.106 320.014 114.794 319.655 113.674 318.942L114.238 320.813C114.99 322.684 116.119 323.527 117.341 323.527C118.563 323.527 119.597 322.722 120.161 321.094C120.533 320.237 120.725 319.313 120.725 318.38L120.819 317.912ZM107.093 306.871C107.337 308.742 108.221 309.585 109.725 309.585C111.23 309.585 112.17 308.649 112.358 306.777C111.323 307.098 110.245 307.255 109.161 307.245C108.455 307.287 107.749 307.172 107.093 306.908V306.871ZM139.529 301.07V302.099C139.905 303.222 140.901 303.783 142.537 303.783C142.923 303.802 143.308 303.737 143.666 303.591C144.023 303.446 144.344 303.224 144.606 302.941C144.84 302.726 145.028 302.466 145.157 302.176C145.286 301.887 145.355 301.574 145.358 301.257V300.602C143.879 301.111 142.315 301.334 140.751 301.257C140.335 301.274 139.92 301.21 139.529 301.07ZM126.366 307.339V309.397C126.392 309.725 126.484 310.044 126.636 310.336C126.788 310.627 126.997 310.886 127.252 311.095C127.506 311.305 127.8 311.461 128.116 311.555C128.433 311.649 128.765 311.679 129.093 311.643C129.51 311.607 129.916 311.489 130.287 311.296C130.658 311.104 130.987 310.84 131.255 310.52C131.919 309.845 132.29 308.938 132.29 307.994C132.282 307.612 132.219 307.234 132.102 306.871C130.609 307.779 128.858 308.174 127.119 307.994C126.821 307.796 126.538 307.577 126.272 307.339H126.366Z" fill="#3C942D"/>
<path fill-rule="evenodd" clip-rule="evenodd" d="M109.726 302.754C110.295 302.63 110.89 302.695 111.418 302.941C112.006 303.086 112.513 303.456 112.828 303.97V304.345C112.776 304.773 112.576 305.169 112.264 305.468C112.018 305.546 111.766 305.608 111.512 305.655H108.127H107.751C107.62 305.655 107.563 305.187 107.563 304.438C107.563 303.69 108.353 302.885 109.726 302.754ZM107.093 306.871C107.746 307.147 108.453 307.275 109.162 307.245C110.245 307.256 111.323 307.098 112.358 306.778C112.817 306.685 113.26 306.528 113.674 306.31C115.047 305.748 115.743 305.037 115.743 304.158C115.23 303.021 114.531 301.978 113.674 301.07C111.542 300.869 109.394 301.257 107.469 302.193C106.021 302.997 105.307 303.746 105.307 304.438L105.683 305.935C105.804 306.212 106 306.449 106.249 306.621C106.499 306.793 106.791 306.892 107.093 306.909V306.871ZM139.529 301.07C139.92 301.21 140.336 301.274 140.751 301.257C142.315 301.334 143.879 301.111 145.358 300.602C145.731 300.443 146.051 300.183 146.284 299.852C146.516 299.522 146.651 299.133 146.674 298.731C146.674 298.219 146.048 297.47 144.794 296.485H139.623C139.22 296.568 138.837 296.726 138.495 296.953C138.25 297.14 138.119 297.645 138.119 298.45C138.039 298.979 138.134 299.52 138.388 299.992C138.642 300.464 139.042 300.842 139.529 301.07ZM140.093 298.918C140.612 298.272 141.25 297.732 141.973 297.327C142.064 297.292 142.165 297.292 142.256 297.327C142.845 297.05 143.484 296.891 144.136 296.859L144.606 297.982C144.606 298.3 144.512 298.487 144.512 298.543C144.255 298.977 143.881 299.33 143.432 299.562C142.983 299.794 142.478 299.895 141.973 299.853C141.465 299.872 140.957 299.809 140.469 299.666C140.383 299.399 140.256 299.147 140.093 298.918Z" fill="#FE5DA3"/>
<path fill-rule="evenodd" clip-rule="evenodd" d="M356.016 195.18C354.865 194.887 353.65 194.953 352.537 195.368C351.908 195.817 351.472 196.485 351.315 197.239C351.438 197.444 351.533 197.664 351.597 197.894C351.597 198.025 351.936 198.081 352.631 198.081C353.795 198.217 354.968 197.917 355.922 197.239C356.242 196.916 356.497 196.535 356.674 196.116L356.016 195.18ZM391.46 195.555C390.835 195.51 390.206 195.51 389.58 195.555C389.345 195.657 389.147 195.829 389.013 196.046C388.879 196.263 388.814 196.516 388.828 196.771C388.828 197.838 388.978 198.119 389.298 197.613V197.988C389.735 198.037 390.177 198.037 390.614 197.988C390.884 198.013 391.156 197.985 391.414 197.905C391.672 197.824 391.912 197.694 392.119 197.52C392.303 197.255 392.46 196.973 392.589 196.678C392.307 196.22 391.921 195.835 391.46 195.555ZM358.084 202.198C359.293 202.234 360.499 202.076 361.657 201.73V200.888L361.093 199.765C359.401 199.522 358.272 199.765 357.708 200.233C357.754 200.901 357.88 201.561 358.084 202.198ZM374.255 205.473C373.985 205.677 373.703 205.865 373.409 206.035C372.657 206.54 372.281 206.97 372.281 207.345C372.281 208.467 372.431 208.842 372.751 208.467H372.939C373.376 208.517 373.818 208.517 374.255 208.467C374.87 208.495 375.473 208.295 375.948 207.906C375.948 207.906 376.079 207.625 376.136 207.064C375.561 206.475 374.932 205.943 374.255 205.473ZM373.597 211.555C373.681 212.134 373.839 212.7 374.067 213.239H378.392C378.686 213.165 378.946 212.996 379.133 212.76C379.32 212.523 379.423 212.231 379.426 211.93V211.555C378.397 211.215 377.31 211.088 376.23 211.181C375.337 211.153 374.446 211.279 373.597 211.555ZM381.777 202.853C382.031 203.081 382.328 203.256 382.651 203.369C382.974 203.481 383.316 203.529 383.657 203.508C384.122 203.544 384.588 203.438 384.991 203.204C385.394 202.97 385.716 202.619 385.913 202.198L385.255 201.169C383.803 200.556 382.207 200.362 380.649 200.608V202.198C380.985 202.478 381.366 202.7 381.777 202.853ZM390.99 215.766L388.922 216.14C389.01 216.779 389.167 217.407 389.392 218.012H392.777C393.367 217.667 393.829 217.142 394.093 216.514V216.14C393.105 215.765 392.04 215.636 390.99 215.766ZM381.025 220.632V221.287C381.336 221.537 381.619 221.819 381.871 222.129C382.362 222.479 382.961 222.644 383.563 222.597C384.128 222.583 384.679 222.422 385.161 222.129C385.447 221.987 385.692 221.775 385.873 221.513C386.054 221.251 386.165 220.948 386.196 220.632C386.196 219.883 386.196 219.471 385.913 219.415H385.631H382.153L381.589 219.602C381.314 219.891 381.119 220.245 381.025 220.632ZM396.631 211.275C396.583 211.76 396.681 212.249 396.913 212.678C397.301 213.148 397.789 213.526 398.342 213.785C398.895 214.044 399.499 214.177 400.11 214.175C400.374 214.209 400.642 214.175 400.888 214.077C401.135 213.979 401.353 213.819 401.52 213.614C401.748 213.342 401.909 213.022 401.99 212.678L401.52 211.836C399.945 211.322 398.288 211.1 396.631 211.181V211.275ZM407.913 206.502C407.913 205.698 407.913 205.249 407.725 205.192C407.324 205.164 406.936 205.035 406.597 204.818C405.558 205.476 404.663 206.335 403.965 207.345C404.187 207.454 404.38 207.615 404.529 207.812C404.976 208.096 405.504 208.228 406.033 208.187C406.842 208.187 407.349 208.056 407.537 207.812C407.725 207.569 407.763 207.625 407.819 207.251C407.876 207.719 407.913 207.476 407.913 206.409V206.502Z" fill="#9A79FF"/>
<path fill-rule="evenodd" clip-rule="evenodd" d="M347.46 205.473C347.349 205.64 347.223 205.797 347.084 205.941L348.306 206.783C349.396 206.634 350.43 206.216 351.315 205.567C351.531 205.49 351.724 205.361 351.879 205.193C352.123 204.869 352.255 204.475 352.255 204.07C352.303 203.666 352.303 203.257 352.255 202.853L351.973 203.134C350.877 203.183 349.81 203.505 348.871 204.07C348.317 204.447 347.839 204.923 347.46 205.473ZM363.725 205.754C362.353 205.885 361.657 206.409 361.657 207.345C361.657 208.28 361.657 208.505 361.845 208.561H362.221H365.606C365.86 208.514 366.111 208.452 366.358 208.374C366.67 208.076 366.869 207.679 366.922 207.251V206.877C366.607 206.362 366.1 205.992 365.512 205.848C364.945 205.611 364.314 205.578 363.725 205.754ZM374.067 218.854L372.187 218.199C370.966 217.847 369.697 217.689 368.426 217.731V219.322H368.614C369.39 220.101 370.428 220.567 371.529 220.632C372.062 220.706 372.606 220.621 373.091 220.388C373.577 220.155 373.982 219.784 374.255 219.322L374.067 218.854ZM394.093 202.011C394.281 202.206 394.439 202.426 394.563 202.666C395.051 202.809 395.559 202.872 396.067 202.853C396.571 202.895 397.077 202.794 397.526 202.562C397.975 202.33 398.349 201.977 398.606 201.543C398.606 201.543 398.606 201.3 398.7 200.982L398.23 199.859C397.578 199.891 396.939 200.05 396.349 200.327C396.258 200.292 396.158 200.292 396.067 200.327C395.31 200.722 394.639 201.263 394.093 201.918V202.011ZM381.871 208.374C381.722 208.667 381.626 208.984 381.588 209.31C381.971 209.715 382.46 210.006 382.999 210.152C383.294 210.05 383.55 209.861 383.735 209.61C383.92 209.359 384.024 209.059 384.033 208.748C383.986 208.461 383.867 208.19 383.686 207.961C383.505 207.731 383.268 207.552 382.999 207.438C382.759 207.485 382.533 207.585 382.338 207.731C382.142 207.876 381.982 208.064 381.871 208.28V208.374Z" fill="#FFCC00"/>
<path fill-rule="evenodd" clip-rule="evenodd" d="M346.614 207.438L348.306 207.812C349.648 207.909 350.994 207.717 352.255 207.251H352.631C352.892 206.977 353.093 206.654 353.222 206.299C353.351 205.945 353.406 205.569 353.383 205.192C353.383 203.078 352.199 202.236 349.811 202.666C347.423 203.096 346.05 204.201 346.05 206.128C345.983 206.531 345.983 206.942 346.05 207.345C346.182 207.345 346.238 207.476 346.238 207.532L346.614 207.438ZM347.46 205.473C347.811 204.931 348.257 204.456 348.777 204.07C349.716 203.504 350.783 203.183 351.879 203.134L352.161 202.853C352.209 203.257 352.209 203.666 352.161 204.07C352.161 204.475 352.029 204.869 351.785 205.192C351.63 205.361 351.437 205.49 351.221 205.567C350.336 206.216 349.302 206.634 348.212 206.783L346.99 205.941C347.162 205.801 347.319 205.644 347.46 205.473ZM367.768 221.942C368.888 222.655 370.199 223.014 371.529 222.971C372.107 222.945 372.674 222.798 373.193 222.54C373.711 222.282 374.169 221.919 374.537 221.474C374.688 221.305 374.815 221.116 374.913 220.912C375.565 220.23 375.934 219.328 375.947 218.386C375.947 215.766 374.199 214.643 370.682 214.924C367.166 215.204 365.606 216.458 365.606 218.199L366.546 220.351C366.8 220.982 367.223 221.532 367.768 221.942ZM374.067 218.854L374.255 219.322C373.982 219.784 373.577 220.155 373.091 220.388C372.606 220.621 372.062 220.706 371.529 220.632C370.428 220.567 369.39 220.101 368.614 219.322H368.426V217.731C369.697 217.688 370.966 217.846 372.187 218.199L374.067 218.854ZM380.272 210.339C380.508 210.574 380.759 210.792 381.024 210.994C382.764 211.174 384.515 210.779 386.007 209.871C386.25 209.745 386.456 209.557 386.605 209.328C386.753 209.098 386.839 208.834 386.853 208.561C386.853 206.877 385.594 206.035 383.093 206.035C380.592 206.035 379.238 207.064 379.238 208.935C379.238 209.179 379.577 209.646 380.272 210.339ZM381.871 208.28C381.971 208.047 382.126 207.84 382.322 207.678C382.518 207.515 382.75 207.401 382.999 207.345C383.268 207.458 383.505 207.638 383.686 207.867C383.866 208.096 383.986 208.367 384.033 208.655C384.024 208.965 383.92 209.266 383.735 209.516C383.55 209.767 383.294 209.956 382.999 210.058C382.46 209.912 381.971 209.621 381.588 209.216C381.626 208.89 381.722 208.573 381.871 208.28Z" fill="#FEFFFD"/>
<path fill-rule="evenodd" clip-rule="evenodd" d="M352.255 207.251C350.995 207.717 349.648 207.909 348.307 207.812L346.614 207.438C346.438 207.82 346.342 208.234 346.332 208.655V210.9C346.507 211.441 346.865 211.905 347.345 212.212C347.825 212.519 348.398 212.651 348.965 212.585C349.639 212.639 350.312 212.465 350.875 212.091C351.438 211.718 351.858 211.166 352.067 210.526C352.199 208.898 352.255 208 352.255 207.812V207.251ZM374.819 220.912C374.721 221.116 374.594 221.305 374.443 221.474C374.075 221.919 373.617 222.282 373.099 222.54C372.581 222.798 372.014 222.945 371.435 222.971C370.105 223.014 368.794 222.655 367.674 221.942L368.238 223.813C368.99 225.684 370.119 226.527 371.341 226.527C372.563 226.527 373.597 225.722 374.161 224.094C374.533 223.237 374.725 222.313 374.725 221.38L374.819 220.912ZM361.093 209.871C361.337 211.742 362.221 212.585 363.725 212.585C365.23 212.585 366.17 211.649 366.358 209.777C365.323 210.098 364.245 210.255 363.161 210.245C362.455 210.287 361.749 210.172 361.093 209.908V209.871ZM393.529 204.07V205.099C393.905 206.222 394.901 206.783 396.537 206.783C396.923 206.802 397.308 206.737 397.666 206.591C398.023 206.446 398.344 206.224 398.606 205.941C398.84 205.726 399.028 205.466 399.157 205.176C399.286 204.887 399.355 204.574 399.358 204.257V203.602C397.878 204.111 396.315 204.334 394.751 204.257C394.335 204.274 393.92 204.21 393.529 204.07ZM380.366 210.339V212.397C380.392 212.725 380.484 213.044 380.636 213.336C380.788 213.627 380.997 213.886 381.252 214.095C381.506 214.305 381.8 214.461 382.116 214.555C382.433 214.649 382.765 214.679 383.093 214.643C383.51 214.607 383.916 214.489 384.287 214.296C384.658 214.104 384.987 213.84 385.255 213.52C385.919 212.845 386.29 211.938 386.289 210.994C386.282 210.612 386.219 210.234 386.101 209.871C384.609 210.779 382.858 211.174 381.119 210.994C380.821 210.796 380.538 210.577 380.272 210.339H380.366Z" fill="#3C942D"/>
<path fill-rule="evenodd" clip-rule="evenodd" d="M363.726 205.754C364.295 205.63 364.89 205.695 365.418 205.941C366.006 206.086 366.513 206.456 366.828 206.97V207.345C366.776 207.773 366.576 208.169 366.264 208.468C366.017 208.546 365.766 208.608 365.512 208.655H362.127H361.751C361.62 208.655 361.563 208.187 361.563 207.438C361.563 206.69 362.353 205.885 363.726 205.754ZM361.093 209.871C361.746 210.147 362.453 210.275 363.161 210.245C364.245 210.256 365.323 210.098 366.358 209.778C366.817 209.685 367.26 209.528 367.674 209.31C369.047 208.748 369.743 208.037 369.743 207.158C369.23 206.021 368.531 204.978 367.674 204.07C365.541 203.869 363.394 204.257 361.469 205.193C360.021 205.997 359.307 206.746 359.307 207.438L359.683 208.935C359.804 209.212 360 209.449 360.249 209.621C360.498 209.793 360.79 209.892 361.093 209.909V209.871ZM393.529 204.07C393.92 204.21 394.335 204.274 394.751 204.257C396.315 204.334 397.879 204.111 399.358 203.602C399.73 203.443 400.051 203.183 400.283 202.852C400.516 202.522 400.651 202.133 400.674 201.731C400.674 201.219 400.047 200.47 398.794 199.485H393.623C393.22 199.568 392.837 199.726 392.495 199.953C392.25 200.14 392.119 200.645 392.119 201.45C392.039 201.979 392.134 202.52 392.388 202.992C392.642 203.464 393.042 203.842 393.529 204.07ZM394.093 201.918C394.611 201.272 395.25 200.732 395.973 200.327C396.064 200.292 396.165 200.292 396.255 200.327C396.845 200.05 397.484 199.891 398.136 199.859L398.606 200.982C398.606 201.3 398.512 201.487 398.512 201.543C398.255 201.977 397.881 202.33 397.432 202.562C396.983 202.794 396.477 202.895 395.973 202.853C395.465 202.872 394.957 202.809 394.469 202.666C394.383 202.399 394.256 202.147 394.093 201.918Z" fill="#FE5DA3"/>
<circle cx="151.578" cy="644" r="2" fill="#BED344"/>
<circle cx="141.578" cy="612" r="2" fill="#BED344"/>
<circle cx="236.578" cy="601" r="2" fill="#BED344"/>
<circle cx="164.578" cy="577" r="2" fill="#BED344"/>
<circle cx="92.5784" cy="551" r="2" fill="#BED344"/>
<circle cx="335.578" cy="644" r="2" fill="#BED344"/>
<circle cx="387.578" cy="637" r="2" fill="#BED344"/>
<circle cx="325.578" cy="612" r="2" fill="#BED344"/>
<circle cx="420.578" cy="601" r="2" fill="#BED344"/>
<circle cx="259.578" cy="581" r="2" fill="#BED344"/>
<circle cx="276.578" cy="551" r="2" fill="#BED344"/>
<circle cx="389.578" cy="378" r="2" fill="#BED344"/>
<circle cx="327.578" cy="353" r="2" fill="#BED344"/>
<circle cx="422.578" cy="342" r="2" fill="#BED344"/>
<circle cx="350.578" cy="318" r="2" fill="#BED344"/>
<circle cx="261.578" cy="322" r="2" fill="#BED344"/>
<circle cx="278.578" cy="292" r="2" fill="#BED344"/>
<circle cx="96.5784" cy="410" r="2" fill="#BED344"/>
<circle cx="148.578" cy="403" r="2" fill="#BED344"/>
<circle cx="86.5784" cy="378" r="2" fill="#BED344"/>
<circle cx="181.578" cy="367" r="2" fill="#BED344"/>
<circle cx="109.578" cy="343" r="2" fill="#BED344"/>
<circle cx="20.5784" cy="347" r="2" fill="#BED344"/>
<circle cx="37.5784" cy="317" r="2" fill="#BED344"/>
<path d="M283.445 107.973C277.478 103.891 272.014 111.366 271.75 111.956C270.959 113.728 269.926 117.941 272.127 120.624C274.879 123.978 282.039 122.219 285.921 118.287C289.802 114.354 289.412 112.055 283.445 107.973Z" fill="#EEAD6D"/>
</g>
<defs>
<clipPath id="clip0_24_29564">
<path d="M0 12C0 5.37259 5.37258 0 12 0H418C424.627 0 430 5.37258 430 12V870H0V12Z" fill="white"/>
</clipPath>
</defs>
</svg>
