<svg width="124" height="151" viewBox="0 0 124 151" fill="none" xmlns="http://www.w3.org/2000/svg">
<g filter="url(#filter0_d_303_92642)">
<path d="M64.2526 110.904C63.8218 111.829 63.1137 112.612 62.2177 113.153C61.3217 113.693 60.2781 113.968 59.2189 113.942C58.1597 113.916 57.1324 113.59 56.2669 113.005C55.4014 112.421 54.7366 111.604 54.3565 110.659C53.9765 109.713 53.8982 108.681 54.1317 107.693C54.3651 106.705 54.8998 105.805 55.6681 105.107C56.4364 104.41 57.4038 103.945 58.448 103.773C59.4922 103.601 60.5663 103.729 61.5345 104.141C62.1775 104.414 62.7579 104.806 63.2425 105.294C63.7271 105.782 64.1064 106.356 64.3589 106.984C64.6113 107.612 64.7318 108.281 64.7136 108.954C64.6953 109.627 64.5387 110.289 64.2526 110.904Z" fill="#F6AE28"/>
<path style="mix-blend-mode:multiply" d="M64.2526 110.96C63.8218 111.886 63.1137 112.668 62.2177 113.209C61.3217 113.75 60.2781 114.024 59.2189 113.998C58.1597 113.972 57.1324 113.646 56.2669 113.062C55.4014 112.477 54.7366 111.661 54.3565 110.715C53.9765 109.769 53.8982 108.737 54.1317 107.749C54.3651 106.761 54.8998 105.861 55.6681 105.164C56.4364 104.466 57.4038 104.002 58.448 103.83C59.4922 103.658 60.5663 103.786 61.5345 104.197C62.1775 104.471 62.7579 104.862 63.2425 105.35C63.7271 105.838 64.1064 106.412 64.3589 107.04C64.6113 107.668 64.7318 108.338 64.7136 109.01C64.6953 109.683 64.5387 110.345 64.2526 110.96Z" fill="url(#paint0_linear_303_92642)"/>
<path style="mix-blend-mode:multiply" d="M64.0753 110.409C63.5552 111.628 62.5509 112.599 61.2826 113.111C60.0143 113.623 58.5855 113.633 57.3094 113.139C56.0703 112.565 55.1204 111.544 54.6684 110.301C54.2164 109.057 54.2994 107.693 54.8991 106.508C55.4193 105.289 56.4236 104.318 57.6919 103.806C58.9601 103.294 60.3889 103.284 61.665 103.778C62.9041 104.352 63.8541 105.373 64.306 106.616C64.758 107.86 64.675 109.224 64.0753 110.409Z" fill="url(#paint1_linear_303_92642)"/>
<path d="M64.547 110.184C64.1199 111.112 63.4141 111.899 62.5189 112.443C61.6238 112.988 60.5796 113.266 59.5189 113.243C58.4581 113.22 57.4285 112.896 56.5605 112.312C55.6926 111.729 55.0254 110.912 54.6436 109.965C54.2618 109.019 54.1825 107.985 54.4158 106.996C54.6491 106.006 55.1846 105.105 55.9542 104.407C56.7238 103.709 57.693 103.244 58.7388 103.073C59.7847 102.902 60.8601 103.032 61.8288 103.446C63.1208 103.998 64.1319 105.017 64.6411 106.279C65.1504 107.541 65.1165 108.945 64.547 110.184Z" fill="url(#paint2_linear_303_92642)"/>
<path style="mix-blend-mode:screen" d="M64.3574 110.008C63.9488 110.891 63.2757 111.638 62.4232 112.156C61.5707 112.673 60.577 112.937 59.5676 112.915C58.5582 112.892 57.5783 112.585 56.7517 112.03C55.9252 111.476 55.2889 110.7 54.9234 109.8C54.5579 108.9 54.4795 107.917 54.698 106.974C54.9166 106.032 55.4224 105.173 56.1515 104.505C56.8806 103.837 57.8003 103.391 58.7945 103.222C59.7887 103.054 60.8128 103.171 61.7375 103.559C62.3533 103.817 62.9096 104.189 63.3748 104.653C63.8399 105.117 64.2046 105.664 64.448 106.264C64.6914 106.863 64.8087 107.502 64.7931 108.145C64.7776 108.787 64.6295 109.421 64.3574 110.008Z" fill="url(#paint3_linear_303_92642)"/>
<path d="M63.7349 109.708C63.3794 110.472 62.7949 111.118 62.0554 111.564C61.3159 112.01 60.4546 112.237 59.5804 112.215C58.7062 112.193 57.8584 111.924 57.1443 111.441C56.4301 110.959 55.8816 110.285 55.5683 109.504C55.2549 108.724 55.1907 107.872 55.3837 107.056C55.5768 106.241 56.0185 105.499 56.6529 104.923C57.2873 104.348 58.086 103.965 58.9478 103.824C59.8097 103.682 60.6961 103.788 61.4949 104.129C62.5657 104.585 63.4031 105.429 63.8232 106.475C64.2432 107.521 64.2115 108.684 63.7349 109.708Z" fill="url(#paint4_linear_303_92642)"/>
<path d="M63.3812 109.582C63.0527 110.288 62.5127 110.885 61.8294 111.298C61.146 111.711 60.3501 111.92 59.5422 111.9C58.7343 111.88 57.9506 111.632 57.2904 111.187C56.6301 110.741 56.1228 110.118 55.8326 109.397C55.5424 108.676 55.4824 107.889 55.6601 107.135C55.8378 106.381 56.2452 105.695 56.8309 105.162C57.4166 104.63 58.1543 104.276 58.9506 104.144C59.747 104.012 60.5663 104.109 61.305 104.423C61.7958 104.631 62.239 104.93 62.609 105.302C62.9791 105.674 63.2688 106.112 63.4616 106.591C63.6544 107.07 63.7466 107.581 63.7328 108.094C63.719 108.608 63.5995 109.113 63.3812 109.582Z" fill="url(#paint5_linear_303_92642)"/>
<path opacity="0.5" d="M55.2793 110.459C55.7533 111.345 56.5332 112.046 57.4866 112.444C59.6807 113.377 60.9055 112.789 60.9055 112.789C58.7823 112.751 56.7603 111.914 55.2793 110.459Z" fill="white"/>
<path opacity="0.3" d="M62.8768 106.796C62.582 107.422 61.3638 107.516 60.1455 106.996C58.9273 106.477 58.1806 105.55 58.4688 104.924C58.757 104.298 59.9818 104.21 61.2 104.73C62.4183 105.249 63.1649 106.17 62.8768 106.796Z" fill="url(#paint6_linear_303_92642)"/>
<path opacity="0.7" d="M61.0035 105.105C62.0908 105.569 62.8047 106.358 62.7392 106.984C62.7885 106.932 62.8283 106.873 62.8571 106.809C63.1518 106.182 62.3986 105.256 61.1869 104.736C59.9752 104.216 58.7439 104.304 58.4557 104.93C58.423 104.997 58.4031 105.069 58.3967 105.143C58.829 104.698 59.9163 104.642 61.0035 105.105Z" fill="url(#paint7_linear_303_92642)"/>
<path opacity="0.5" d="M64.1013 105.6C63.6382 104.718 62.8698 104.017 61.9268 103.615C59.7327 102.682 58.5144 103.271 58.5144 103.271C60.6244 103.316 62.6312 104.152 64.1013 105.6Z" fill="white"/>
<path fill-rule="evenodd" clip-rule="evenodd" d="M59.7608 106.866L58.5732 108.001L57.8823 107.34L59.7608 105.544L61.6398 107.341L60.9489 108.001L59.7608 106.866ZM57.3944 107.807L56.7034 108.467L57.3943 109.128L58.0853 108.467L57.3944 107.807ZM59.7608 110.069L58.5732 108.934L57.8813 109.594L57.8823 109.594L59.7608 111.39L61.6398 109.594L61.6402 109.594L60.9488 108.933L59.7608 110.069ZM62.1272 107.807L61.4362 108.468L62.1272 109.128L62.8182 108.468L62.1272 107.807ZM59.7608 107.632L60.6335 108.467L60.6343 108.467L60.6339 108.468L59.7608 109.302L58.8884 108.468L58.8872 108.467L58.8884 108.466L59.0413 108.32L59.1155 108.249L59.7608 107.632Z" fill="#FF7708"/>
<path d="M58.355 107.876L59.5425 106.74L60.7306 107.876L61.4216 107.216L59.5425 105.419L57.664 107.215L58.355 107.876ZM56.4851 108.342L57.1761 107.681L57.8671 108.342L57.1761 109.003L56.4851 108.342ZM58.355 108.809L59.5425 109.944L60.7306 108.808L61.4219 109.468L61.4216 109.469L59.5425 111.265L57.664 109.469L57.6631 109.468L58.355 108.809L58.355 108.809ZM61.218 108.342L61.909 107.682L62.5999 108.342L61.9089 109.003L61.218 108.342Z" fill="white"/>
<path d="M60.4152 108.342H60.4155L59.5425 107.507L58.8972 108.124L58.8231 108.195L58.6702 108.341L58.6689 108.342L58.6702 108.343L59.5425 109.177L60.4156 108.343L60.416 108.342L60.4152 108.342" fill="white"/>
<path d="M106.709 99.6519C105.965 101.251 104.742 102.602 103.194 103.536C101.647 104.47 99.844 104.945 98.0145 104.899C96.1849 104.854 94.4105 104.291 92.9155 103.282C91.4206 102.272 90.2723 100.862 89.6158 99.2284C88.9593 97.5951 88.8242 95.8124 89.2274 94.1056C89.6307 92.3989 90.5542 90.8448 91.8812 89.6398C93.2083 88.4348 94.8793 87.6331 96.6829 87.336C98.4865 87.0389 100.342 87.2598 102.014 87.9707C103.125 88.4428 104.127 89.1195 104.964 89.9621C105.801 90.8047 106.457 91.7967 106.893 92.8815C107.329 93.9662 107.537 95.1225 107.505 96.2841C107.474 97.4458 107.203 98.5902 106.709 99.6519Z" fill="#F6AE28"/>
<path style="mix-blend-mode:multiply" d="M106.709 99.7493C105.965 101.348 104.742 102.7 103.194 103.634C101.647 104.568 99.844 105.042 98.0145 104.997C96.1849 104.952 94.4105 104.389 92.9155 103.379C91.4206 102.37 90.2723 100.959 89.6158 99.3259C88.9593 97.6925 88.8242 95.9098 89.2274 94.203C89.6307 92.4963 90.5542 90.9422 91.8812 89.7372C93.2083 88.5322 94.8793 87.7305 96.6829 87.4334C98.4865 87.1363 100.342 87.3572 102.014 88.0681C103.125 88.5402 104.127 89.2169 104.964 90.0595C105.801 90.9021 106.457 91.8941 106.893 92.9789C107.329 94.0636 107.537 95.2199 107.505 96.3815C107.474 97.5432 107.203 98.6876 106.709 99.7493Z" fill="url(#paint8_linear_303_92642)"/>
<path style="mix-blend-mode:multiply" d="M106.403 98.7976C105.504 100.902 103.769 102.581 101.579 103.465C99.3881 104.349 96.9202 104.366 94.7161 103.513C92.5758 102.522 90.935 100.758 90.1543 98.6103C89.3736 96.4624 89.517 94.1061 90.5529 92.0592C91.4513 89.9545 93.186 88.2762 95.3767 87.3922C97.5673 86.5082 100.035 86.4907 102.239 87.3435C104.38 88.3351 106.02 90.0987 106.801 92.2466C107.582 94.3944 107.438 96.7507 106.403 98.7976Z" fill="url(#paint9_linear_303_92642)"/>
<path d="M107.217 98.4081C106.48 100.012 105.261 101.371 103.715 102.311C102.168 103.252 100.365 103.733 98.5326 103.692C96.7003 103.652 94.9219 103.092 93.4227 102.085C91.9235 101.077 90.7711 99.6659 90.1116 98.0311C89.4521 96.3963 89.3152 94.6111 89.7182 92.9018C90.1212 91.1925 91.046 89.6361 92.3754 88.4299C93.7048 87.2237 95.3788 86.4221 97.1853 86.1266C98.9918 85.8311 100.849 86.0551 102.523 86.7702C104.754 87.7239 106.5 89.4831 107.38 91.6636C108.26 93.844 108.201 96.2687 107.217 98.4081Z" fill="url(#paint10_linear_303_92642)"/>
<path style="mix-blend-mode:screen" d="M106.89 98.1054C106.184 99.6301 105.022 100.921 103.549 101.814C102.077 102.708 100.36 103.164 98.6169 103.125C96.8733 103.087 95.1808 102.555 93.7531 101.598C92.3254 100.64 91.2264 99.2994 90.5951 97.7451C89.9637 96.1909 89.8283 94.4926 90.2058 92.8648C90.5834 91.237 91.457 89.7526 92.7163 88.5991C93.9757 87.4457 95.5643 86.6748 97.2816 86.384C98.9988 86.0931 100.768 86.2953 102.365 86.965C103.428 87.4109 104.389 88.0531 105.193 88.8548C105.996 89.6566 106.626 90.602 107.047 91.637C107.467 92.672 107.67 93.7761 107.643 94.8861C107.616 95.9961 107.36 97.0901 106.89 98.1054Z" fill="url(#paint11_linear_303_92642)"/>
<path d="M105.815 97.5862C105.201 98.9055 104.191 100.021 102.914 100.792C101.637 101.563 100.149 101.954 98.6391 101.916C97.1291 101.879 95.6647 101.414 94.4312 100.58C93.1976 99.7469 92.2503 98.5824 91.7091 97.2342C91.1678 95.886 91.0569 94.4147 91.3903 93.0062C91.7238 91.5978 92.4867 90.3155 93.5825 89.3216C94.6783 88.3277 96.0578 87.6668 97.5465 87.4225C99.0352 87.1782 100.566 87.3615 101.946 87.9492C103.795 88.7369 105.242 90.1947 105.968 92.0018C106.693 93.809 106.638 95.8176 105.815 97.5862Z" fill="url(#paint12_linear_303_92642)"/>
<path d="M105.204 97.3699C104.636 98.5892 103.704 99.6204 102.523 100.333C101.343 101.046 99.9683 101.408 98.5728 101.373C97.1773 101.339 95.8238 100.91 94.6833 100.141C93.5428 99.3709 92.6666 98.2954 92.1653 97.0498C91.6641 95.8042 91.5604 94.4445 91.8673 93.1425C92.1743 91.8406 92.878 90.6549 93.8897 89.7353C94.9013 88.8157 96.1755 88.2035 97.551 87.976C98.9265 87.7486 100.342 87.9162 101.618 88.4575C102.465 88.8173 103.231 89.3332 103.87 89.9759C104.509 90.6186 105.01 91.3755 105.343 92.2032C105.676 93.0308 105.835 93.9132 105.811 94.7997C105.787 95.6863 105.581 96.5596 105.204 97.3699Z" fill="url(#paint13_linear_303_92642)"/>
<path opacity="0.5" d="M91.2095 98.8842C92.0282 100.414 93.3753 101.625 95.022 102.313C98.8119 103.924 100.927 102.908 100.927 102.908C97.2601 102.843 93.7675 101.397 91.2095 98.8842Z" fill="white"/>
<path opacity="0.3" d="M104.333 92.5568C103.823 93.6384 101.719 93.8006 99.615 92.9029C97.5107 92.0052 96.221 90.4044 96.7188 89.3228C97.2166 88.2412 99.3322 88.0898 101.436 88.9875C103.541 89.8852 104.83 91.4752 104.333 92.5568Z" fill="url(#paint14_linear_303_92642)"/>
<path opacity="0.7" d="M101.097 89.6364C102.975 90.4368 104.208 91.7996 104.095 92.8812C104.18 92.7918 104.249 92.6895 104.299 92.5783C104.808 91.4967 103.507 89.896 101.414 88.9983C99.321 88.1005 97.1941 88.252 96.6963 89.3336C96.6399 89.4494 96.6054 89.5739 96.5945 89.7013C97.3412 88.9334 99.2191 88.836 101.097 89.6364Z" fill="url(#paint15_linear_303_92642)"/>
<path opacity="0.5" d="M106.448 90.4909C105.648 88.9675 104.321 87.7559 102.692 87.0623C98.9019 85.4507 96.7976 86.4674 96.7976 86.4674C100.442 86.5451 103.908 87.9903 106.448 90.4909Z" fill="white"/>
<path fill-rule="evenodd" clip-rule="evenodd" d="M98.9506 92.6769L96.8994 94.6379L95.706 93.4968L98.9506 90.3948L102.196 93.4977L101.003 94.6388L98.9506 92.6769ZM94.8632 94.3024L93.6697 95.4436L94.8631 96.5845L96.0567 95.4434L94.8632 94.3024ZM98.9506 98.2104L96.8994 96.2495L95.7043 97.3888L95.706 97.3905L98.9506 100.492L102.196 97.3896L102.197 97.389L101.003 96.2485L98.9506 98.2104ZM103.038 94.303L101.845 95.4441L103.038 96.5851L104.232 95.444L103.038 94.303ZM98.9507 94.0011L100.458 95.4429L100.459 95.4436L100.459 95.4444L98.9507 96.8862L97.4439 95.4454L97.4418 95.4434L97.4439 95.4414L97.708 95.1889L97.836 95.0664L98.9507 94.0011Z" fill="#FF7708"/>
<path d="M96.5222 94.4215L98.5734 92.4604L100.626 94.4223L101.819 93.2813L98.5734 90.1783L95.3288 93.2804L96.5222 94.4215ZM93.2925 95.2272L94.486 94.086L95.6795 95.227L94.4859 96.368L93.2925 95.2272ZM96.5222 96.033L98.5734 97.994L100.626 96.0321L101.82 97.1725L101.819 97.1731L98.5734 100.276L95.3288 97.174L95.3271 97.1724L96.5224 96.0329L96.5222 96.033ZM101.467 95.2277L102.661 94.0866L103.854 95.2276L102.661 96.3687L101.467 95.2277Z" fill="white"/>
<path d="M100.081 95.2264H100.081L98.5733 93.7847L97.4587 94.85L97.3307 94.9724L97.0666 95.225L97.0645 95.2269L97.0666 95.229L98.5733 96.6697L100.081 95.228L100.082 95.2271L100.081 95.2264" fill="white"/>
<path d="M59.4373 16.526C58.5366 18.4612 57.0559 20.0976 55.1825 21.2283C53.309 22.359 51.127 22.9332 48.9123 22.8783C46.6975 22.8234 44.5495 22.142 42.7398 20.92C40.9302 19.6981 39.5401 17.9906 38.7454 16.0134C37.9508 14.0363 37.7872 11.8782 38.2753 9.81214C38.7634 7.74607 39.8814 5.86477 41.4878 4.40611C43.0942 2.94746 45.117 1.97695 47.3003 1.61731C49.4837 1.25767 51.7295 1.52504 53.7539 2.38562C55.0984 2.95716 56.3119 3.77632 57.3252 4.79631C58.3385 5.81631 59.1316 7.01716 59.6594 8.33027C60.1872 9.64338 60.4392 11.043 60.4011 12.4493C60.363 13.8555 60.0355 15.2408 59.4373 16.526Z" fill="#F6AE28"/>
<path style="mix-blend-mode:multiply" d="M59.4373 16.644C58.5366 18.5791 57.0559 20.2155 55.1825 21.3462C53.309 22.4769 51.127 23.0511 48.9123 22.9962C46.6975 22.9414 44.5495 22.2599 42.7398 21.038C40.9302 19.816 39.5401 18.1085 38.7454 16.1314C37.9508 14.1542 37.7872 11.9961 38.2753 9.93006C38.7634 7.86399 39.8814 5.98269 41.4878 4.52403C43.0942 3.06538 45.117 2.09487 47.3003 1.73523C49.4837 1.37559 51.7295 1.64296 53.7539 2.50354C55.0984 3.07508 56.3119 3.89424 57.3252 4.91424C58.3385 5.93423 59.1316 7.13508 59.6594 8.44819C60.1872 9.7613 60.4392 11.1609 60.4011 12.5672C60.363 13.9734 60.0355 15.3587 59.4373 16.644Z" fill="url(#paint16_linear_303_92642)"/>
<path style="mix-blend-mode:multiply" d="M59.0664 15.4918C57.9788 18.0396 55.8789 20.0713 53.227 21.1414C50.5752 22.2114 47.5877 22.2326 44.9196 21.2003C42.3287 19.9999 40.3424 17.865 39.3974 15.265C38.4523 12.665 38.6259 9.81258 39.8798 7.33483C40.9674 4.78696 43.0673 2.7553 45.7192 1.68522C48.371 0.615145 51.3585 0.593953 54.0267 1.62629C56.6175 2.8267 58.6038 4.96156 59.5488 7.56158C60.4939 10.1616 60.3203 13.014 59.0664 15.4918Z" fill="url(#paint17_linear_303_92642)"/>
<path d="M60.0527 15.0204C59.1598 16.9621 57.684 18.6066 55.8123 19.7454C53.9406 20.8842 51.7574 21.466 49.5394 21.4171C47.3215 21.3683 45.1686 20.6908 43.3538 19.4708C41.539 18.2507 40.144 16.5429 39.3457 14.564C38.5473 12.585 38.3816 10.4239 38.8694 8.3548C39.3573 6.28566 40.4768 4.40161 42.086 2.94149C43.6952 1.48138 45.7217 0.510962 47.9085 0.153272C50.0953 -0.204418 52.3439 0.066727 54.3694 0.932331C57.0708 2.08687 59.1848 4.21639 60.2496 6.85592C61.3145 9.49545 61.2437 12.4306 60.0527 15.0204Z" fill="url(#paint18_linear_303_92642)"/>
<path style="mix-blend-mode:screen" d="M59.6565 14.6538C58.802 16.4995 57.3947 18.0618 55.6122 19.1433C53.8297 20.2249 51.752 20.7772 49.6414 20.7305C47.5308 20.6839 45.482 20.0403 43.7537 18.8812C42.0254 17.722 40.6951 16.0993 39.9308 14.2178C39.1666 12.3363 39.0026 10.2805 39.4596 8.30998C39.9166 6.33946 40.9741 4.54259 42.4986 3.1463C44.0231 1.75001 45.9462 0.816899 48.025 0.464813C50.1038 0.112728 52.2451 0.357453 54.1785 1.16809C55.4659 1.70788 56.6293 2.48532 57.6018 3.45584C58.5743 4.42636 59.3369 5.57086 59.8458 6.82373C60.3547 8.07659 60.6 9.41317 60.5675 10.7568C60.535 12.1005 60.2254 13.4248 59.6565 14.6538Z" fill="url(#paint19_linear_303_92642)"/>
<path d="M58.355 14.0254C57.6116 15.6225 56.3895 16.973 54.8432 17.906C53.297 18.8391 51.496 19.3127 49.6682 19.2671C47.8403 19.2215 46.0677 18.6587 44.5744 17.6498C43.0812 16.641 41.9344 15.2314 41.2792 13.5994C40.624 11.9673 40.4897 10.1862 40.8934 8.48123C41.2971 6.77625 42.2206 5.22402 43.547 4.02087C44.8735 2.81772 46.5435 2.0177 48.3456 1.72198C50.1477 1.42626 52.0011 1.64814 53.6713 2.35955C55.9101 3.31316 57.6612 5.07776 58.5395 7.26538C59.4178 9.453 59.3514 11.8845 58.355 14.0254Z" fill="url(#paint20_linear_303_92642)"/>
<path d="M57.6154 13.7635C56.9285 15.2395 55.7993 16.4878 54.3705 17.3504C52.9417 18.213 51.2775 18.6513 49.5882 18.6098C47.8989 18.5683 46.2605 18.049 44.8799 17.1174C43.4993 16.1858 42.4386 14.8838 41.8318 13.376C41.2251 11.8681 41.0995 10.2222 41.4711 8.64616C41.8426 7.07013 42.6946 5.6348 43.9192 4.52159C45.1438 3.40838 46.6862 2.66728 48.3513 2.39197C50.0164 2.11666 51.7295 2.31949 53.2741 2.97484C54.3004 3.41031 55.2269 4.0349 56.0007 4.8129C56.7744 5.5909 57.3802 6.50705 57.7833 7.509C58.1865 8.51094 58.3792 9.57903 58.3504 10.6522C58.3216 11.7254 58.0718 12.7826 57.6154 13.7635Z" fill="url(#paint21_linear_303_92642)"/>
<path opacity="0.5" d="M40.6748 15.5966C41.6659 17.4479 43.2966 18.9144 45.29 19.747C49.8778 21.6979 52.4387 20.4671 52.4387 20.4671C47.9992 20.3894 43.7714 18.639 40.6748 15.5966Z" fill="white"/>
<path opacity="0.3" d="M56.5605 7.93714C55.9442 9.24644 53.397 9.44284 50.8497 8.35612C48.3025 7.2694 46.7413 5.33164 47.3438 4.02234C47.9464 2.71305 50.5074 2.52975 53.0546 3.61646C55.6019 4.70318 57.1631 6.62785 56.5605 7.93714Z" fill="url(#paint22_linear_303_92642)"/>
<path opacity="0.7" d="M52.6437 4.40201C54.917 5.37089 56.4098 7.0206 56.2728 8.3299C56.3759 8.22172 56.4592 8.09781 56.5193 7.9633C57.1356 6.654 55.5607 4.71624 53.0271 3.62952C50.4936 2.54281 47.9189 2.72611 47.3164 4.03541C47.2481 4.17567 47.2064 4.32638 47.1931 4.48057C48.097 3.55097 50.3703 3.43313 52.6437 4.40201Z" fill="url(#paint23_linear_303_92642)"/>
<path opacity="0.5" d="M59.121 5.43635C58.1525 3.59214 56.5459 2.12553 54.5743 1.28587C49.9865 -0.66498 47.4392 0.56576 47.4392 0.56576C51.851 0.659819 56.0471 2.40931 59.121 5.43635Z" fill="white"/>
<path fill-rule="evenodd" clip-rule="evenodd" d="M50.0453 8.08246L47.5623 10.4564L46.1176 9.07501L50.0453 5.31995L53.9743 9.07614L52.5295 10.4574L50.0453 8.08246ZM45.0974 10.0502L43.6526 11.4317L45.0973 12.8127L46.5421 11.4314L45.0974 10.0502ZM50.0453 14.781L47.5623 12.4072L46.1156 13.7865L46.1176 13.7884L50.0453 17.5435L53.9743 13.7873L53.975 13.7866L52.5295 12.4061L50.0453 14.781ZM54.9934 10.051L53.5485 11.4323L54.9933 12.8135L56.4381 11.4322L54.9934 10.051ZM50.0454 9.68549L51.87 11.4308L51.8718 11.4316L51.8709 11.4326L50.0454 13.1779L48.2214 11.4339L48.2188 11.4314L48.2214 11.429L48.5411 11.1233L48.6961 10.9751L50.0454 9.68549Z" fill="#FF7708"/>
<path d="M47.1057 10.1944L49.5888 7.8205L52.073 10.1954L53.5178 8.81418L49.5888 5.05798L45.6611 8.81305L47.1057 10.1944ZM43.196 11.1697L44.6409 9.78825L46.0856 11.1695L44.6408 12.5508L43.196 11.1697ZM47.1057 12.1452L49.5888 14.519L52.073 12.1441L53.5185 13.5246L53.5178 13.5254L49.5888 17.2815L45.6611 13.5264L45.659 13.5245L47.1059 12.1451L47.1057 12.1452ZM53.092 11.1703L54.5368 9.78903L55.9815 11.1702L54.5368 12.5515L53.092 11.1703Z" fill="white"/>
<path d="M51.4134 11.1689H51.4142L49.5887 9.42358L48.2395 10.7132L48.0844 10.8614L47.7648 11.1671L47.7622 11.1695L47.7648 11.172L49.5887 12.916L51.4143 11.1707L51.4152 11.1697L51.4135 11.1689" fill="white"/>
<path d="M118.573 67.089C117.751 68.8559 116.399 70.35 114.688 71.3824C112.978 72.4147 110.986 72.939 108.963 72.8889C106.941 72.8388 104.98 72.2166 103.328 71.1009C101.675 69.9853 100.406 68.4262 99.6806 66.621C98.9551 64.8158 98.8057 62.8454 99.2514 60.9589C99.697 59.0725 100.718 57.3548 102.185 56.023C103.651 54.6912 105.498 53.8051 107.492 53.4767C109.485 53.1483 111.536 53.3925 113.384 54.1782C114.612 54.7001 115.72 55.448 116.645 56.3793C117.57 57.3106 118.294 58.407 118.776 59.6059C119.258 60.8049 119.488 62.0828 119.453 63.3668C119.418 64.6507 119.119 65.9156 118.573 67.089Z" fill="#F6AE28"/>
<path style="mix-blend-mode:multiply" d="M118.573 67.1967C117.751 68.9636 116.399 70.4577 114.688 71.49C112.978 72.5224 110.986 73.0467 108.963 72.9966C106.941 72.9465 104.98 72.3243 103.328 71.2086C101.675 70.0929 100.406 68.5339 99.6806 66.7287C98.9551 64.9234 98.8057 62.953 99.2514 61.0666C99.697 59.1802 100.718 57.4625 102.185 56.1307C103.651 54.7989 105.498 53.9127 107.492 53.5844C109.485 53.256 111.536 53.5001 113.384 54.2859C114.612 54.8077 115.72 55.5556 116.645 56.4869C117.57 57.4182 118.294 58.5147 118.776 59.7136C119.258 60.9125 119.488 62.1905 119.453 63.4744C119.418 64.7584 119.119 66.0232 118.573 67.1967Z" fill="url(#paint24_linear_303_92642)"/>
<path style="mix-blend-mode:multiply" d="M118.235 66.1447C117.242 68.471 115.324 70.326 112.903 71.3031C110.482 72.2801 107.754 72.2994 105.318 71.3569C102.952 70.2608 101.139 68.3116 100.276 65.9377C99.4131 63.5638 99.5715 60.9594 100.716 58.6971C101.709 56.3708 103.627 54.5158 106.048 53.5388C108.469 52.5617 111.197 52.5424 113.633 53.485C115.999 54.581 117.812 56.5302 118.675 58.9041C119.538 61.2781 119.38 63.8824 118.235 66.1447Z" fill="url(#paint25_linear_303_92642)"/>
<path d="M119.135 65.7142C118.32 67.4871 116.972 68.9886 115.263 70.0284C113.555 71.0682 111.561 71.5994 109.536 71.5548C107.511 71.5101 105.545 70.8916 103.888 69.7776C102.231 68.6637 100.958 67.1044 100.229 65.2975C99.4997 63.4906 99.3484 61.5175 99.7938 59.6283C100.239 57.7391 101.261 56.0188 102.731 54.6857C104.2 53.3526 106.05 52.4665 108.047 52.1399C110.044 51.8133 112.097 52.0609 113.946 52.8512C116.413 53.9054 118.343 55.8497 119.315 58.2597C120.287 60.6697 120.222 63.3496 119.135 65.7142Z" fill="url(#paint26_linear_303_92642)"/>
<path style="mix-blend-mode:screen" d="M118.773 65.3795C117.993 67.0648 116.708 68.4912 115.081 69.4787C113.453 70.4661 111.556 70.9704 109.629 70.9278C107.702 70.8852 105.831 70.2977 104.253 69.2393C102.675 68.1809 101.461 66.6993 100.763 64.9814C100.065 63.2635 99.9153 61.3865 100.333 59.5873C100.75 57.7881 101.715 56.1475 103.107 54.8727C104.499 53.5978 106.255 52.7458 108.153 52.4243C110.051 52.1029 112.006 52.3263 113.772 53.0665C114.947 53.5593 116.009 54.2692 116.897 55.1553C117.785 56.0414 118.481 57.0864 118.946 58.2303C119.411 59.3742 119.635 60.5946 119.605 61.8214C119.575 63.0482 119.293 64.2574 118.773 65.3795Z" fill="url(#paint27_linear_303_92642)"/>
<path d="M117.585 64.8058C116.906 66.264 115.79 67.4971 114.379 68.349C112.967 69.2009 111.323 69.6333 109.654 69.5917C107.985 69.5501 106.366 69.0362 105.003 68.115C103.639 67.1939 102.592 65.9069 101.994 64.4168C101.396 62.9267 101.273 61.3004 101.642 59.7437C102.01 58.187 102.854 56.7697 104.065 55.6712C105.276 54.5727 106.801 53.8422 108.446 53.5722C110.091 53.3022 111.784 53.5048 113.309 54.1544C115.353 55.025 116.952 56.6362 117.754 58.6336C118.555 60.631 118.495 62.8511 117.585 64.8058Z" fill="url(#paint28_linear_303_92642)"/>
<path d="M116.91 64.5667C116.282 65.9144 115.251 67.0541 113.947 67.8417C112.642 68.6294 111.123 69.0295 109.581 68.9917C108.038 68.9538 106.542 68.4796 105.282 67.629C104.021 66.7784 103.053 65.5896 102.499 64.2129C101.945 62.8362 101.83 61.3334 102.169 59.8944C102.508 58.4554 103.286 57.1449 104.404 56.1285C105.523 55.1121 106.931 54.4354 108.451 54.1841C109.971 53.9327 111.536 54.1179 112.946 54.7163C113.883 55.1139 114.729 55.6841 115.435 56.3945C116.142 57.1048 116.695 57.9413 117.063 58.8561C117.431 59.771 117.607 60.7462 117.581 61.726C117.554 62.7059 117.326 63.6712 116.91 64.5667Z" fill="url(#paint29_linear_303_92642)"/>
<path opacity="0.5" d="M101.442 66.2404C102.347 67.9307 103.836 69.2697 105.656 70.0299C109.845 71.8111 112.183 70.6874 112.183 70.6874C108.13 70.6164 104.269 69.0182 101.442 66.2404Z" fill="white"/>
<path opacity="0.3" d="M115.947 59.247C115.384 60.4424 113.058 60.6217 110.732 59.6295C108.407 58.6373 106.981 56.868 107.531 55.6726C108.082 54.4771 110.42 54.3098 112.746 55.302C115.071 56.2942 116.497 58.0515 115.947 59.247Z" fill="url(#paint30_linear_303_92642)"/>
<path opacity="0.7" d="M112.37 56.0191C114.446 56.9038 115.809 58.41 115.684 59.6055C115.778 59.5067 115.854 59.3936 115.909 59.2708C116.472 58.0753 115.034 56.3061 112.721 55.3138C110.407 54.3216 108.057 54.489 107.506 55.6844C107.444 55.8125 107.406 55.9501 107.394 56.0909C108.219 55.2421 110.295 55.1345 112.37 56.0191Z" fill="url(#paint31_linear_303_92642)"/>
<path opacity="0.5" d="M118.284 56.9636C117.4 55.2798 115.933 53.9407 114.133 53.1741C109.944 51.3929 107.618 52.5166 107.618 52.5166C111.647 52.6025 115.478 54.1998 118.284 56.9636Z" fill="white"/>
<path fill-rule="evenodd" clip-rule="evenodd" d="M109.998 59.3796L107.731 61.5471L106.412 60.2858L109.998 56.8573L113.585 60.2869L112.266 61.548L109.998 59.3796ZM105.48 61.1762L104.161 62.4376L105.48 63.6985L106.799 62.4373L105.48 61.1762ZM109.998 65.4956L107.731 63.3283L106.41 64.5876L106.412 64.5894L109.998 68.0179L113.585 64.5884L113.586 64.5877L112.266 63.3272L109.998 65.4956ZM114.516 61.1769L113.197 62.4381L114.516 63.6992L115.835 62.4381L114.516 61.1769ZM109.998 60.8432L111.664 62.4368L111.666 62.4376L111.665 62.4384L109.998 64.032L108.333 62.4396L108.33 62.4373L108.333 62.4352L108.625 62.156L108.766 62.0207L109.998 60.8432Z" fill="#FF7708"/>
<path d="M107.314 61.3079L109.581 59.1405L111.849 61.3089L113.168 60.0477L109.581 56.6182L105.995 60.0467L107.314 61.3079ZM103.744 62.1985L105.063 60.9371L106.382 62.1982L105.063 63.4594L103.744 62.1985ZM107.314 63.0891L109.581 65.2565L111.849 63.0881L113.169 64.3486L113.168 64.3493L109.581 67.7788L105.995 64.3502L105.993 64.3485L107.314 63.089L107.314 63.0891ZM112.78 62.199L114.099 60.9378L115.418 62.1989L114.099 63.4601L112.78 62.199Z" fill="white"/>
<path d="M111.247 62.1977H111.248L109.581 60.6041L108.349 61.7816L108.208 61.9169L107.916 62.1961L107.913 62.1982L107.916 62.2005L109.581 63.7929L111.248 62.1993L111.249 62.1984L111.247 62.1977" fill="white"/>
<path d="M98.845 40.2149C98.1792 41.6452 97.0848 42.8547 95.7001 43.6905C94.3154 44.5262 92.7026 44.9506 91.0656 44.91C89.4286 44.8695 87.8409 44.3658 86.5034 43.4626C85.1658 42.5595 84.1384 41.2974 83.551 39.836C82.9636 38.3746 82.8427 36.7795 83.2035 35.2524C83.5643 33.7253 84.3906 32.3348 85.578 31.2567C86.7653 30.1785 88.2604 29.4612 89.8742 29.1954C91.4879 28.9296 93.1479 29.1272 94.6442 29.7633C95.6379 30.1857 96.5349 30.7912 97.2838 31.5451C98.0328 32.299 98.619 33.1866 99.0091 34.1571C99.3992 35.1277 99.5855 36.1622 99.5573 37.2016C99.5292 38.241 99.2871 39.2649 98.845 40.2149Z" fill="#F6AE28"/>
<path style="mix-blend-mode:multiply" d="M98.845 40.302C98.1792 41.7324 97.0848 42.9419 95.7001 43.7776C94.3154 44.6133 92.7026 45.0378 91.0656 44.9972C89.4286 44.9567 87.8409 44.4529 86.5034 43.5498C85.1658 42.6466 84.1384 41.3846 83.551 39.9232C82.9636 38.4618 82.8427 36.8667 83.2035 35.3396C83.5643 33.8125 84.3906 32.422 85.578 31.3438C86.7653 30.2657 88.2604 29.5484 89.8742 29.2826C91.4879 29.0167 93.1479 29.2144 94.6442 29.8504C95.6379 30.2729 96.5349 30.8783 97.2838 31.6323C98.0328 32.3862 98.619 33.2737 99.0091 34.2443C99.3992 35.2149 99.5855 36.2494 99.5573 37.2888C99.5292 38.3282 99.2871 39.3521 98.845 40.302Z" fill="url(#paint32_linear_303_92642)"/>
<path style="mix-blend-mode:multiply" d="M98.5708 39.4504C97.767 41.3336 96.2149 42.8353 94.2548 43.6262C92.2947 44.4171 90.0866 44.4328 88.1145 43.6698C86.1995 42.7825 84.7314 41.2046 84.0329 39.2828C83.3344 37.3611 83.4626 35.2528 84.3895 33.4214C85.1934 31.5382 86.7455 30.0365 88.7055 29.2456C90.6656 28.4547 92.8737 28.439 94.8458 29.202C96.7608 30.0893 98.2289 31.6672 98.9274 33.589C99.6259 35.5108 99.4977 37.619 98.5708 39.4504Z" fill="url(#paint33_linear_303_92642)"/>
<path d="M99.2998 39.102C98.6399 40.5371 97.549 41.7526 96.1656 42.5944C94.7822 43.4361 93.1685 43.8662 91.5292 43.83C89.8898 43.7939 88.2985 43.2932 86.9572 42.3914C85.6158 41.4896 84.5847 40.2273 83.9946 38.7646C83.4045 37.3019 83.282 35.7046 83.6426 34.1753C84.0032 32.6459 84.8307 31.2533 86.0201 30.1741C87.2095 29.0949 88.7073 28.3776 90.3237 28.1133C91.94 27.8489 93.602 28.0493 95.0991 28.6891C97.0958 29.5424 98.6583 31.1164 99.4454 33.0674C100.232 35.0183 100.18 37.1878 99.2998 39.102Z" fill="url(#paint34_linear_303_92642)"/>
<path style="mix-blend-mode:screen" d="M99.0069 38.8311C98.3754 40.1953 97.3352 41.35 96.0177 42.1494C94.7002 42.9488 93.1645 43.357 91.6045 43.3225C90.0445 43.2881 88.5301 42.8124 87.2527 41.9556C85.9753 41.0989 84.992 39.8994 84.4271 38.5088C83.8622 37.1181 83.741 35.5986 84.0788 34.1421C84.4166 32.6856 85.1983 31.3575 86.3251 30.3255C87.4518 29.2934 88.8732 28.6038 90.4097 28.3435C91.9462 28.0833 93.529 28.2642 94.958 28.8633C95.9096 29.2623 96.7695 29.8369 97.4883 30.5543C98.2071 31.2716 98.7708 32.1176 99.1469 33.0436C99.5231 33.9696 99.7043 34.9575 99.6803 35.9507C99.6563 36.9438 99.4275 37.9227 99.0069 38.8311Z" fill="url(#paint35_linear_303_92642)"/>
<path d="M98.0449 38.3666C97.4955 39.547 96.5922 40.5452 95.4493 41.2349C94.3064 41.9245 92.9753 42.2746 91.6243 42.2409C90.2733 42.2072 88.963 41.7912 87.8593 41.0455C86.7556 40.2998 85.908 39.2579 85.4237 38.0517C84.9394 36.8454 84.8402 35.5289 85.1386 34.2687C85.4369 33.0085 86.1195 31.8612 87.1 30.9719C88.0804 30.0826 89.3147 29.4913 90.6467 29.2727C91.9787 29.0542 93.3486 29.2182 94.5831 29.744C96.2379 30.4488 97.5322 31.7531 98.1813 33.37C98.8305 34.987 98.7815 36.7842 98.0449 38.3666Z" fill="url(#paint36_linear_303_92642)"/>
<path d="M97.4982 38.173C96.9905 39.264 96.1559 40.1866 95.0998 40.8242C94.0437 41.4618 92.8137 41.7858 91.5651 41.7551C90.3165 41.7245 89.1054 41.3406 88.085 40.652C87.0645 39.9635 86.2805 39.0011 85.8321 37.8866C85.3836 36.7721 85.2908 35.5556 85.5655 34.3907C85.8401 33.2258 86.4698 32.1649 87.3749 31.3421C88.2801 30.5193 89.4201 29.9715 90.6508 29.768C91.8816 29.5645 93.1478 29.7145 94.2894 30.1988C95.048 30.5207 95.7328 30.9824 96.3047 31.5574C96.8766 32.1324 97.3243 32.8096 97.6223 33.5502C97.9203 34.2907 98.0628 35.0802 98.0415 35.8734C98.0202 36.6666 97.8355 37.4481 97.4982 38.173Z" fill="url(#paint37_linear_303_92642)"/>
<path opacity="0.5" d="M84.9771 39.528C85.7096 40.8964 86.9149 41.9803 88.3883 42.5957C91.7792 44.0376 93.6721 43.128 93.6721 43.128C90.3908 43.0705 87.2658 41.7767 84.9771 39.528Z" fill="white"/>
<path opacity="0.3" d="M96.7186 33.8666C96.2631 34.8343 94.3804 34.9795 92.4976 34.1763C90.6149 33.3731 89.4609 31.9408 89.9063 30.9731C90.3517 30.0053 92.2446 29.8698 94.1273 30.6731C96.0101 31.4763 97.164 32.8989 96.7186 33.8666Z" fill="url(#paint38_linear_303_92642)"/>
<path opacity="0.7" d="M93.8236 31.2537C95.5039 31.9698 96.6072 33.1891 96.506 34.1569C96.5822 34.0769 96.6437 33.9853 96.6882 33.8859C97.1437 32.9182 95.9797 31.4859 94.107 30.6827C92.2344 29.8795 90.3314 30.015 89.886 30.9827C89.8356 31.0864 89.8047 31.1978 89.7949 31.3117C90.463 30.6246 92.1433 30.5375 93.8236 31.2537Z" fill="url(#paint39_linear_303_92642)"/>
<path opacity="0.5" d="M98.6111 32.0182C97.8954 30.6551 96.7079 29.5711 95.2505 28.9505C91.8596 27.5086 89.9768 28.4182 89.9768 28.4182C93.2377 28.4878 96.3391 29.7809 98.6111 32.0182Z" fill="white"/>
<path fill-rule="evenodd" clip-rule="evenodd" d="M91.903 33.974L90.0678 35.7286L89 34.7076L91.903 31.9321L94.8071 34.7084L93.7392 35.7294L91.903 33.974ZM88.2459 35.4284L87.178 36.4495L88.2458 37.4703L89.3137 36.4493L88.2459 35.4284ZM91.903 38.9251L90.0678 37.1705L88.9985 38.19L89 38.1914L91.903 40.9669L94.8071 38.1906L94.8076 38.1901L93.7392 37.1697L91.903 38.9251ZM95.5603 35.429L94.4924 36.45L95.5603 37.4708L96.6281 36.4499L95.5603 35.429ZM91.9031 35.1588L93.2517 36.4488L93.2531 36.4495L93.2524 36.4502L91.9031 37.7402L90.5549 36.4511L90.553 36.4493L90.5549 36.4475L90.7912 36.2216L90.9058 36.112L91.9031 35.1588Z" fill="#FF7708"/>
<path d="M89.7304 35.535L91.5656 33.7804L93.4018 35.5358L94.4697 34.5148L91.5656 31.7385L88.6626 34.514L89.7304 35.535ZM86.8406 36.2559L87.9085 35.2348L88.9763 36.2557L87.9084 37.2767L86.8406 36.2559ZM89.7304 36.9769L91.5656 38.7314L93.4018 36.9761L94.4702 37.9965L94.4697 37.997L91.5656 40.7733L88.6626 37.9978L88.6611 37.9964L89.7305 36.9768L89.7304 36.9769ZM94.155 36.2564L95.2229 35.2354L96.2907 36.2563L95.2228 37.2772L94.155 36.2564Z" fill="white"/>
<path d="M92.9143 36.2552H92.9149L91.5656 34.9652L90.5683 35.9184L90.4538 36.028L90.2175 36.2539L90.2156 36.2557L90.2175 36.2575L91.5656 37.5466L92.915 36.2566L92.9156 36.2558L92.9144 36.2552" fill="white"/>
<path d="M54.7091 87.6519C53.965 89.2505 52.7418 90.6023 51.1942 91.5364C49.6466 92.4704 47.844 92.9447 46.0145 92.8994C44.1849 92.8541 42.4105 92.2911 40.9155 91.2817C39.4206 90.2723 38.2723 88.8618 37.6158 87.2284C36.9593 85.5951 36.8242 83.8124 37.2274 82.1056C37.6307 80.3989 38.5542 78.8448 39.8812 77.6398C41.2083 76.4348 42.8793 75.6331 44.6829 75.336C46.4865 75.0389 48.3418 75.2598 50.0141 75.9707C51.1247 76.4428 52.1272 77.1195 52.9643 77.9621C53.8013 78.8047 54.4566 79.7967 54.8926 80.8815C55.3285 81.9662 55.5367 83.1225 55.5053 84.2841C55.4738 85.4458 55.2032 86.5902 54.7091 87.6519Z" fill="#F6AE28"/>
<path style="mix-blend-mode:multiply" d="M54.7091 87.7493C53.965 89.3479 52.7418 90.6997 51.1942 91.6338C49.6466 92.5678 47.844 93.0422 46.0145 92.9968C44.1849 92.9515 42.4105 92.3886 40.9155 91.3791C39.4206 90.3697 38.2723 88.9592 37.6158 87.3259C36.9593 85.6925 36.8242 83.9098 37.2274 82.203C37.6307 80.4963 38.5542 78.9422 39.8812 77.7372C41.2083 76.5322 42.8793 75.7305 44.6829 75.4334C46.4865 75.1363 48.3418 75.3572 50.0141 76.0681C51.1247 76.5402 52.1272 77.2169 52.9643 78.0595C53.8013 78.9021 54.4566 79.8941 54.8926 80.9789C55.3285 82.0636 55.5367 83.2199 55.5053 84.3815C55.4738 85.5432 55.2032 86.6876 54.7091 87.7493Z" fill="url(#paint40_linear_303_92642)"/>
<path style="mix-blend-mode:multiply" d="M54.4026 86.7976C53.5042 88.9023 51.7695 90.5807 49.5788 91.4646C47.3881 92.3486 44.9202 92.3661 42.7161 91.5133C40.5758 90.5217 38.935 88.7581 38.1543 86.6103C37.3736 84.4624 37.517 82.1061 38.5529 80.0592C39.4513 77.9545 41.186 76.2762 43.3767 75.3922C45.5673 74.5082 48.0352 74.4907 50.2394 75.3435C52.3796 76.3351 54.0205 78.0987 54.8012 80.2466C55.5818 82.3944 55.4385 84.7507 54.4026 86.7976Z" fill="url(#paint41_linear_303_92642)"/>
<path d="M55.2175 86.4081C54.4799 88.0121 53.2607 89.3706 51.7145 90.3114C50.1684 91.2521 48.3648 91.7328 46.5326 91.6924C44.7003 91.652 42.9219 91.0924 41.4227 90.0845C39.9235 89.0766 38.7711 87.6659 38.1116 86.0311C37.4521 84.3963 37.3152 82.6111 37.7182 80.9018C38.1212 79.1925 39.046 77.6361 40.3754 76.4299C41.7048 75.2237 43.3788 74.4221 45.1853 74.1266C46.9918 73.8311 48.8493 74.0551 50.5225 74.7702C52.7542 75.7239 54.5005 77.4831 55.3801 79.6636C56.2598 81.844 56.2013 84.2687 55.2175 86.4081Z" fill="url(#paint42_linear_303_92642)"/>
<path style="mix-blend-mode:screen" d="M54.8902 86.1054C54.1844 87.6301 53.0218 88.9206 51.5493 89.8141C50.0768 90.7075 48.3604 91.1638 46.6169 91.1252C44.8733 91.0867 43.1808 90.5551 41.7531 89.5975C40.3254 88.64 39.2264 87.2994 38.5951 85.7451C37.9637 84.1909 37.8283 82.4926 38.2058 80.8648C38.5834 79.237 39.457 77.7526 40.7163 76.5991C41.9757 75.4457 43.5643 74.6748 45.2816 74.384C46.9988 74.0931 48.7677 74.2953 50.3649 74.965C51.4285 75.4109 52.3895 76.0531 53.1929 76.8548C53.9963 77.6566 54.6262 78.602 55.0466 79.637C55.467 80.672 55.6696 81.7761 55.6428 82.8861C55.6159 83.9961 55.3602 85.0901 54.8902 86.1054Z" fill="url(#paint43_linear_303_92642)"/>
<path d="M53.8151 85.5862C53.201 86.9055 52.1915 88.0211 50.9141 88.7919C49.6368 89.5627 48.149 89.954 46.6391 89.9163C45.1291 89.8786 43.6647 89.4137 42.4312 88.5803C41.1976 87.7469 40.2503 86.5824 39.7091 85.2342C39.1678 83.886 39.0569 82.4147 39.3903 81.0062C39.7238 79.5978 40.4867 78.3155 41.5825 77.3216C42.6783 76.3277 44.0578 75.6668 45.5465 75.4225C47.0352 75.1782 48.5663 75.3615 49.946 75.9492C51.7955 76.7369 53.242 78.1947 53.9676 80.0018C54.6931 81.809 54.6383 83.8176 53.8151 85.5862Z" fill="url(#paint44_linear_303_92642)"/>
<path d="M53.2039 85.3699C52.6365 86.5892 51.7037 87.6204 50.5234 88.333C49.3431 89.0456 47.9683 89.4076 46.5728 89.3734C45.1773 89.3391 43.8238 88.9101 42.6833 88.1405C41.5428 87.3709 40.6666 86.2954 40.1653 85.0498C39.6641 83.8042 39.5604 82.4445 39.8673 81.1425C40.1743 79.8406 40.878 78.6549 41.8897 77.7353C42.9013 76.8157 44.1755 76.2035 45.551 75.976C46.9265 75.7486 48.3417 75.9162 49.6176 76.4575C50.4655 76.8173 51.2309 77.3332 51.87 77.9759C52.5092 78.6186 53.0096 79.3755 53.3427 80.2032C53.6757 81.0308 53.8349 81.9132 53.8111 82.7997C53.7873 83.6863 53.581 84.5596 53.2039 85.3699Z" fill="url(#paint45_linear_303_92642)"/>
<path opacity="0.5" d="M39.2095 86.8842C40.0282 88.4135 41.3753 89.625 43.022 90.3128C46.8119 91.9244 48.9275 90.9077 48.9275 90.9077C45.2601 90.8435 41.7675 89.3974 39.2095 86.8842Z" fill="white"/>
<path opacity="0.3" d="M52.3326 80.5568C51.8235 81.6384 49.7192 81.8006 47.615 80.9029C45.5107 80.0052 44.221 78.4044 44.7188 77.3228C45.2166 76.2412 47.3322 76.0898 49.4364 76.9875C51.5407 77.8852 52.8304 79.4752 52.3326 80.5568Z" fill="url(#paint46_linear_303_92642)"/>
<path opacity="0.7" d="M49.0971 77.6364C50.9751 78.4368 52.2083 79.7996 52.0951 80.8812C52.1802 80.7918 52.2491 80.6895 52.2988 80.5783C52.8078 79.4967 51.5068 77.896 49.4139 76.9983C47.321 76.1005 45.1941 76.252 44.6963 77.3336C44.6399 77.4494 44.6054 77.5739 44.5945 77.7013C45.3412 76.9334 47.2191 76.836 49.0971 77.6364Z" fill="url(#paint47_linear_303_92642)"/>
<path opacity="0.5" d="M54.4477 78.4909C53.6478 76.9675 52.3205 75.7559 50.6918 75.0623C46.9019 73.4507 44.7976 74.4674 44.7976 74.4674C48.4421 74.5451 51.9084 75.9903 54.4477 78.4909Z" fill="white"/>
<path fill-rule="evenodd" clip-rule="evenodd" d="M46.9506 80.6769L44.8994 82.6379L43.706 81.4968L46.9506 78.3948L50.1963 81.4977L49.0028 82.6388L46.9506 80.6769ZM42.8632 82.3024L41.6697 83.4436L42.8631 84.5845L44.0567 83.4434L42.8632 82.3024ZM46.9506 86.2104L44.8994 84.2495L43.7043 85.3888L43.706 85.3905L46.9506 88.4925L50.1963 85.3896L50.1969 85.389L49.0028 84.2485L46.9506 86.2104ZM51.0381 82.303L49.8446 83.4441L51.0381 84.5851L52.2316 83.444L51.0381 82.303ZM46.9507 82.0011L48.458 83.4429L48.4595 83.4436L48.4587 83.4444L46.9507 84.8862L45.4439 83.4454L45.4418 83.4434L45.4439 83.4414L45.708 83.1889L45.836 83.0664L46.9507 82.0011Z" fill="#FF7708"/>
<path d="M44.5222 82.4215L46.5734 80.4604L48.6256 82.4223L49.8191 81.2813L46.5734 78.1783L43.3288 81.2804L44.5222 82.4215ZM41.2925 83.2272L42.486 82.086L43.6795 83.227L42.4859 84.368L41.2925 83.2272ZM44.5222 84.033L46.5734 85.994L48.6256 84.0321L49.8197 85.1725L49.8191 85.1731L46.5734 88.276L43.3288 85.174L43.3271 85.1724L44.5224 84.0329L44.5222 84.033ZM49.4674 83.2277L50.6609 82.0866L51.8544 83.2276L50.6609 84.3687L49.4674 83.2277Z" fill="white"/>
<path d="M48.0807 83.2264H48.0813L46.5733 81.7847L45.4587 82.85L45.3307 82.9724L45.0666 83.225L45.0645 83.2269L45.0666 83.229L46.5733 84.6697L48.0814 83.228L48.0821 83.2271L48.0808 83.2264" fill="white"/>
<path d="M31.2526 139.904C30.8218 140.829 30.1137 141.612 29.2177 142.153C28.3217 142.693 27.2781 142.968 26.2189 142.942C25.1597 142.916 24.1324 142.59 23.2669 142.005C22.4014 141.421 21.7366 140.604 21.3565 139.659C20.9765 138.713 20.8982 137.681 21.1317 136.693C21.3651 135.705 21.8998 134.805 22.6681 134.107C23.4364 133.41 24.4038 132.945 25.448 132.773C26.4922 132.601 27.5663 132.729 28.5345 133.141C29.1775 133.414 29.7579 133.806 30.2425 134.294C30.7271 134.782 31.1064 135.356 31.3589 135.984C31.6113 136.612 31.7318 137.281 31.7136 137.954C31.6953 138.627 31.5387 139.289 31.2526 139.904Z" fill="#F6AE28"/>
<path style="mix-blend-mode:multiply" d="M31.2526 139.96C30.8218 140.886 30.1137 141.668 29.2177 142.209C28.3217 142.75 27.2781 143.024 26.2189 142.998C25.1597 142.972 24.1324 142.646 23.2669 142.062C22.4014 141.477 21.7366 140.661 21.3565 139.715C20.9765 138.769 20.8982 137.737 21.1317 136.749C21.3651 135.761 21.8998 134.861 22.6681 134.164C23.4364 133.466 24.4038 133.002 25.448 132.83C26.4922 132.658 27.5663 132.786 28.5345 133.197C29.1775 133.471 29.7579 133.862 30.2425 134.35C30.7271 134.838 31.1064 135.412 31.3589 136.04C31.6113 136.668 31.7318 137.338 31.7136 138.01C31.6953 138.683 31.5387 139.345 31.2526 139.96Z" fill="url(#paint48_linear_303_92642)"/>
<path style="mix-blend-mode:multiply" d="M31.0753 139.409C30.5552 140.628 29.5509 141.599 28.2826 142.111C27.0143 142.623 25.5855 142.633 24.3094 142.139C23.0703 141.565 22.1204 140.544 21.6684 139.301C21.2164 138.057 21.2994 136.693 21.8991 135.508C22.4193 134.289 23.4236 133.318 24.6919 132.806C25.9601 132.294 27.3889 132.284 28.665 132.778C29.9041 133.352 30.8541 134.373 31.306 135.616C31.758 136.86 31.675 138.224 31.0753 139.409Z" fill="url(#paint49_linear_303_92642)"/>
<path d="M31.547 139.184C31.1199 140.112 30.4141 140.899 29.5189 141.443C28.6238 141.988 27.5796 142.266 26.5189 142.243C25.4581 142.22 24.4285 141.896 23.5605 141.312C22.6926 140.729 22.0254 139.912 21.6436 138.965C21.2618 138.019 21.1825 136.985 21.4158 135.996C21.6491 135.006 22.1846 134.105 22.9542 133.407C23.7238 132.709 24.693 132.244 25.7388 132.073C26.7847 131.902 27.8601 132.032 28.8288 132.446C30.1208 132.998 31.1319 134.017 31.6411 135.279C32.1504 136.541 32.1165 137.945 31.547 139.184Z" fill="url(#paint50_linear_303_92642)"/>
<path style="mix-blend-mode:screen" d="M31.3574 139.008C30.9488 139.891 30.2757 140.638 29.4232 141.156C28.5707 141.673 27.577 141.937 26.5676 141.915C25.5582 141.892 24.5783 141.585 23.7517 141.03C22.9252 140.476 22.2889 139.7 21.9234 138.8C21.5579 137.9 21.4795 136.917 21.698 135.974C21.9166 135.032 22.4224 134.173 23.1515 133.505C23.8806 132.837 24.8003 132.391 25.7945 132.222C26.7887 132.054 27.8128 132.171 28.7375 132.559C29.3533 132.817 29.9096 133.189 30.3748 133.653C30.8399 134.117 31.2046 134.664 31.448 135.264C31.6914 135.863 31.8087 136.502 31.7931 137.145C31.7776 137.787 31.6295 138.421 31.3574 139.008Z" fill="url(#paint51_linear_303_92642)"/>
<path d="M30.7349 138.708C30.3794 139.472 29.7949 140.118 29.0554 140.564C28.3159 141.01 27.4546 141.237 26.5804 141.215C25.7062 141.193 24.8584 140.924 24.1443 140.441C23.4301 139.959 22.8816 139.285 22.5683 138.504C22.2549 137.724 22.1907 136.872 22.3837 136.056C22.5768 135.241 23.0185 134.499 23.6529 133.923C24.2873 133.348 25.086 132.965 25.9478 132.824C26.8097 132.682 27.6961 132.788 28.4949 133.129C29.5657 133.585 30.4031 134.429 30.8232 135.475C31.2432 136.521 31.2115 137.684 30.7349 138.708Z" fill="url(#paint52_linear_303_92642)"/>
<path d="M30.3812 138.582C30.0527 139.288 29.5127 139.885 28.8294 140.298C28.146 140.711 27.3501 140.92 26.5422 140.9C25.7343 140.88 24.9506 140.632 24.2904 140.187C23.6301 139.741 23.1228 139.118 22.8326 138.397C22.5424 137.676 22.4824 136.889 22.6601 136.135C22.8378 135.381 23.2452 134.695 23.8309 134.162C24.4166 133.63 25.1543 133.276 25.9506 133.144C26.747 133.012 27.5663 133.109 28.305 133.423C28.7958 133.631 29.239 133.93 29.609 134.302C29.9791 134.674 30.2688 135.112 30.4616 135.591C30.6544 136.07 30.7466 136.581 30.7328 137.094C30.719 137.608 30.5995 138.113 30.3812 138.582Z" fill="url(#paint53_linear_303_92642)"/>
<path opacity="0.5" d="M22.2793 139.459C22.7533 140.345 23.5332 141.046 24.4866 141.444C26.6807 142.377 27.9055 141.789 27.9055 141.789C25.7823 141.751 23.7603 140.914 22.2793 139.459Z" fill="white"/>
<path opacity="0.3" d="M29.8768 135.796C29.582 136.422 28.3638 136.516 27.1455 135.996C25.9273 135.477 25.1806 134.55 25.4688 133.924C25.757 133.298 26.9818 133.21 28.2 133.73C29.4183 134.249 30.1649 135.17 29.8768 135.796Z" fill="url(#paint54_linear_303_92642)"/>
<path opacity="0.7" d="M28.0035 134.105C29.0908 134.569 29.8047 135.358 29.7392 135.984C29.7885 135.932 29.8283 135.873 29.8571 135.809C30.1518 135.182 29.3986 134.256 28.1869 133.736C26.9752 133.216 25.7439 133.304 25.4557 133.93C25.423 133.997 25.4031 134.069 25.3967 134.143C25.829 133.698 26.9163 133.642 28.0035 134.105Z" fill="url(#paint55_linear_303_92642)"/>
<path opacity="0.5" d="M31.1013 134.6C30.6382 133.718 29.8698 133.017 28.9268 132.615C26.7327 131.682 25.5144 132.271 25.5144 132.271C27.6244 132.316 29.6312 133.152 31.1013 134.6Z" fill="white"/>
<path fill-rule="evenodd" clip-rule="evenodd" d="M26.7608 135.866L25.5732 137.001L24.8823 136.34L26.7608 134.544L28.6398 136.341L27.9489 137.001L26.7608 135.866ZM24.3944 136.807L23.7034 137.467L24.3943 138.128L25.0853 137.467L24.3944 136.807ZM26.7608 139.069L25.5732 137.934L24.8813 138.594L24.8823 138.594L26.7608 140.39L28.6398 138.594L28.6402 138.594L27.9488 137.933L26.7608 139.069ZM29.1272 136.807L28.4362 137.468L29.1272 138.128L29.8182 137.468L29.1272 136.807ZM26.7608 136.632L27.6335 137.467L27.6343 137.467L27.6339 137.468L26.7608 138.302L25.8884 137.468L25.8872 137.467L25.8884 137.466L26.0413 137.32L26.1155 137.249L26.7608 136.632Z" fill="#FF7708"/>
<path d="M25.355 136.876L26.5425 135.74L27.7306 136.876L28.4216 136.216L26.5425 134.419L24.664 136.215L25.355 136.876ZM23.4851 137.342L24.1761 136.681L24.8671 137.342L24.1761 138.003L23.4851 137.342ZM25.355 137.809L26.5425 138.944L27.7306 137.808L28.4219 138.468L28.4216 138.469L26.5425 140.265L24.664 138.469L24.6631 138.468L25.355 137.809L25.355 137.809ZM28.218 137.342L28.909 136.682L29.5999 137.342L28.9089 138.003L28.218 137.342Z" fill="white"/>
<path d="M27.4152 137.342H27.4155L26.5425 136.507L25.8972 137.124L25.8231 137.195L25.6702 137.341L25.6689 137.342L25.6702 137.343L26.5425 138.177L27.4156 137.343L27.416 137.342L27.4152 137.342" fill="white"/>
<path d="M73.7091 128.652C72.965 130.251 71.7418 131.602 70.1942 132.536C68.6466 133.47 66.844 133.945 65.0145 133.899C63.1849 133.854 61.4105 133.291 59.9155 132.282C58.4206 131.272 57.2723 129.862 56.6158 128.228C55.9593 126.595 55.8242 124.812 56.2274 123.106C56.6307 121.399 57.5542 119.845 58.8812 118.64C60.2083 117.435 61.8793 116.633 63.6829 116.336C65.4865 116.039 67.3418 116.26 69.0141 116.971C70.1247 117.443 71.1272 118.12 71.9643 118.962C72.8013 119.805 73.4566 120.797 73.8926 121.881C74.3285 122.966 74.5367 124.122 74.5053 125.284C74.4738 126.446 74.2032 127.59 73.7091 128.652Z" fill="#F6AE28"/>
<path style="mix-blend-mode:multiply" d="M73.7091 128.749C72.965 130.348 71.7418 131.7 70.1942 132.634C68.6466 133.568 66.844 134.042 65.0145 133.997C63.1849 133.952 61.4105 133.389 59.9155 132.379C58.4206 131.37 57.2723 129.959 56.6158 128.326C55.9593 126.693 55.8242 124.91 56.2274 123.203C56.6307 121.496 57.5542 119.942 58.8812 118.737C60.2083 117.532 61.8793 116.73 63.6829 116.433C65.4865 116.136 67.3418 116.357 69.0141 117.068C70.1247 117.54 71.1272 118.217 71.9643 119.06C72.8013 119.902 73.4566 120.894 73.8926 121.979C74.3285 123.064 74.5367 124.22 74.5053 125.382C74.4738 126.543 74.2032 127.688 73.7091 128.749Z" fill="url(#paint56_linear_303_92642)"/>
<path style="mix-blend-mode:multiply" d="M73.4026 127.798C72.5042 129.902 70.7695 131.581 68.5788 132.465C66.3881 133.349 63.9202 133.366 61.7161 132.513C59.5758 131.522 57.935 129.758 57.1543 127.61C56.3736 125.462 56.517 123.106 57.5529 121.059C58.4513 118.954 60.186 117.276 62.3767 116.392C64.5673 115.508 67.0352 115.491 69.2394 116.343C71.3796 117.335 73.0205 119.099 73.8012 121.247C74.5818 123.394 74.4385 125.751 73.4026 127.798Z" fill="url(#paint57_linear_303_92642)"/>
<path d="M74.2175 127.408C73.4799 129.012 72.2607 130.371 70.7145 131.311C69.1684 132.252 67.3648 132.733 65.5326 132.692C63.7003 132.652 61.9219 132.092 60.4227 131.085C58.9235 130.077 57.7711 128.666 57.1116 127.031C56.4521 125.396 56.3152 123.611 56.7182 121.902C57.1212 120.192 58.046 118.636 59.3754 117.43C60.7048 116.224 62.3788 115.422 64.1853 115.127C65.9918 114.831 67.8493 115.055 69.5225 115.77C71.7542 116.724 73.5005 118.483 74.3801 120.664C75.2598 122.844 75.2013 125.269 74.2175 127.408Z" fill="url(#paint58_linear_303_92642)"/>
<path style="mix-blend-mode:screen" d="M73.8902 127.105C73.1844 128.63 72.0218 129.921 70.5493 130.814C69.0768 131.708 67.3604 132.164 65.6169 132.125C63.8733 132.087 62.1808 131.555 60.7531 130.598C59.3254 129.64 58.2264 128.299 57.5951 126.745C56.9637 125.191 56.8283 123.493 57.2058 121.865C57.5834 120.237 58.457 118.753 59.7163 117.599C60.9757 116.446 62.5643 115.675 64.2816 115.384C65.9988 115.093 67.7677 115.295 69.3649 115.965C70.4285 116.411 71.3895 117.053 72.1929 117.855C72.9963 118.657 73.6262 119.602 74.0466 120.637C74.467 121.672 74.6696 122.776 74.6428 123.886C74.6159 124.996 74.3602 126.09 73.8902 127.105Z" fill="url(#paint59_linear_303_92642)"/>
<path d="M72.8151 126.586C72.201 127.906 71.1915 129.021 69.9141 129.792C68.6368 130.563 67.149 130.954 65.6391 130.916C64.1291 130.879 62.6647 130.414 61.4312 129.58C60.1976 128.747 59.2503 127.582 58.7091 126.234C58.1678 124.886 58.0569 123.415 58.3903 122.006C58.7238 120.598 59.4867 119.315 60.5825 118.322C61.6783 117.328 63.0578 116.667 64.5465 116.422C66.0352 116.178 67.5663 116.361 68.946 116.949C70.7955 117.737 72.242 119.195 72.9676 121.002C73.6931 122.809 73.6383 124.818 72.8151 126.586Z" fill="url(#paint60_linear_303_92642)"/>
<path d="M72.2039 126.37C71.6365 127.589 70.7037 128.62 69.5234 129.333C68.3431 130.046 66.9683 130.408 65.5728 130.373C64.1773 130.339 62.8238 129.91 61.6833 129.141C60.5428 128.371 59.6666 127.295 59.1653 126.05C58.6641 124.804 58.5604 123.444 58.8673 122.143C59.1743 120.841 59.878 119.655 60.8897 118.735C61.9013 117.816 63.1755 117.203 64.551 116.976C65.9265 116.749 67.3417 116.916 68.6176 117.458C69.4655 117.817 70.2309 118.333 70.87 118.976C71.5092 119.619 72.0096 120.375 72.3427 121.203C72.6757 122.031 72.8349 122.913 72.8111 123.8C72.7873 124.686 72.581 125.56 72.2039 126.37Z" fill="url(#paint61_linear_303_92642)"/>
<path opacity="0.5" d="M58.2095 127.884C59.0282 129.414 60.3753 130.625 62.022 131.313C65.8119 132.924 67.9275 131.908 67.9275 131.908C64.2601 131.843 60.7675 130.397 58.2095 127.884Z" fill="white"/>
<path opacity="0.3" d="M71.3326 121.557C70.8235 122.638 68.7192 122.801 66.615 121.903C64.5107 121.005 63.221 119.404 63.7188 118.323C64.2166 117.241 66.3322 117.09 68.4364 117.988C70.5407 118.885 71.8304 120.475 71.3326 121.557Z" fill="url(#paint62_linear_303_92642)"/>
<path opacity="0.7" d="M68.0971 118.636C69.9751 119.437 71.2083 120.8 71.0951 121.881C71.1802 121.792 71.2491 121.689 71.2988 121.578C71.8078 120.497 70.5068 118.896 68.4139 117.998C66.321 117.101 64.1941 117.252 63.6963 118.334C63.6399 118.449 63.6054 118.574 63.5945 118.701C64.3412 117.933 66.2191 117.836 68.0971 118.636Z" fill="url(#paint63_linear_303_92642)"/>
<path opacity="0.5" d="M73.4477 119.491C72.6478 117.967 71.3205 116.756 69.6918 116.062C65.9019 114.451 63.7976 115.467 63.7976 115.467C67.4421 115.545 70.9084 116.99 73.4477 119.491Z" fill="white"/>
<path fill-rule="evenodd" clip-rule="evenodd" d="M65.9506 121.677L63.8994 123.638L62.706 122.497L65.9506 119.395L69.1963 122.498L68.0028 123.639L65.9506 121.677ZM61.8632 123.302L60.6697 124.444L61.8631 125.584L63.0567 124.443L61.8632 123.302ZM65.9506 127.21L63.8994 125.249L62.7043 126.389L62.706 126.39L65.9506 129.492L69.1963 126.39L69.1969 126.389L68.0028 125.249L65.9506 127.21ZM70.0381 123.303L68.8446 124.444L70.0381 125.585L71.2316 124.444L70.0381 123.303ZM65.9507 123.001L67.458 124.443L67.4595 124.444L67.4587 124.444L65.9507 125.886L64.4439 124.445L64.4418 124.443L64.4439 124.441L64.708 124.189L64.836 124.066L65.9507 123.001Z" fill="#FF7708"/>
<path d="M63.5222 123.421L65.5734 121.46L67.6256 123.422L68.8191 122.281L65.5734 119.178L62.3288 122.28L63.5222 123.421ZM60.2925 124.227L61.486 123.086L62.6795 124.227L61.4859 125.368L60.2925 124.227ZM63.5222 125.033L65.5734 126.994L67.6256 125.032L68.8197 126.173L68.8191 126.173L65.5734 129.276L62.3288 126.174L62.3271 126.172L63.5224 125.033L63.5222 125.033ZM68.4674 124.228L69.6609 123.087L70.8544 124.228L69.6609 125.369L68.4674 124.228Z" fill="white"/>
<path d="M67.0807 124.226H67.0813L65.5733 122.785L64.4587 123.85L64.3307 123.972L64.0666 124.225L64.0645 124.227L64.0666 124.229L65.5733 125.67L67.0814 124.228L67.0821 124.227L67.0808 124.226" fill="white"/>
<path d="M26.4373 45.526C25.5366 47.4612 24.0559 49.0976 22.1825 50.2283C20.309 51.359 18.127 51.9332 15.9123 51.8783C13.6975 51.8234 11.5495 51.142 9.73983 49.92C7.93017 48.6981 6.54012 46.9906 5.74545 45.0134C4.95077 43.0363 4.78716 40.8782 5.27529 38.8121C5.76343 36.7461 6.88139 34.8648 8.48782 33.4061C10.0942 31.9475 12.117 30.977 14.3003 30.6173C16.4837 30.2577 18.7295 30.525 20.7539 31.3856C22.0984 31.9572 23.3119 32.7763 24.3252 33.7963C25.3385 34.8163 26.1316 36.0172 26.6594 37.3303C27.1872 38.6434 27.4392 40.043 27.4011 41.4493C27.363 42.8555 27.0355 44.2408 26.4373 45.526Z" fill="#F6AE28"/>
<path style="mix-blend-mode:multiply" d="M26.4373 45.644C25.5366 47.5791 24.0559 49.2155 22.1825 50.3462C20.309 51.4769 18.127 52.0511 15.9123 51.9962C13.6975 51.9414 11.5495 51.2599 9.73983 50.038C7.93017 48.816 6.54012 47.1085 5.74545 45.1314C4.95077 43.1542 4.78716 40.9961 5.27529 38.9301C5.76343 36.864 6.88139 34.9827 8.48782 33.524C10.0942 32.0654 12.117 31.0949 14.3003 30.7352C16.4837 30.3756 18.7295 30.643 20.7539 31.5035C22.0984 32.0751 23.3119 32.8942 24.3252 33.9142C25.3385 34.9342 26.1316 36.1351 26.6594 37.4482C27.1872 38.7613 27.4392 40.1609 27.4011 41.5672C27.363 42.9734 27.0355 44.3587 26.4373 45.644Z" fill="url(#paint64_linear_303_92642)"/>
<path style="mix-blend-mode:multiply" d="M26.0664 44.4918C24.9788 47.0396 22.8789 49.0713 20.227 50.1414C17.5752 51.2114 14.5877 51.2326 11.9196 50.2003C9.32869 48.9999 7.34242 46.865 6.39738 44.265C5.45234 41.665 5.62587 38.8126 6.87983 36.3348C7.96743 33.787 10.0673 31.7553 12.7192 30.6852C15.371 29.6151 18.3585 29.594 21.0267 30.6263C23.6175 31.8267 25.6038 33.9616 26.5488 36.5616C27.4939 39.1616 27.3203 42.014 26.0664 44.4918Z" fill="url(#paint65_linear_303_92642)"/>
<path d="M27.0527 44.0204C26.1598 45.9621 24.684 47.6066 22.8123 48.7454C20.9406 49.8842 18.7574 50.466 16.5394 50.4171C14.3215 50.3683 12.1686 49.6908 10.3538 48.4708C8.53902 47.2507 7.14402 45.5429 6.34567 43.564C5.54732 41.585 5.38156 39.4239 5.86942 37.3548C6.35729 35.2857 7.47679 33.4016 9.08601 31.9415C10.6952 30.4814 12.7217 29.511 14.9085 29.1533C17.0953 28.7956 19.3439 29.0667 21.3694 29.9323C24.0708 31.0869 26.1848 33.2164 27.2496 35.8559C28.3145 38.4955 28.2437 41.4306 27.0527 44.0204Z" fill="url(#paint66_linear_303_92642)"/>
<path style="mix-blend-mode:screen" d="M26.6565 43.6538C25.802 45.4995 24.3947 47.0618 22.6122 48.1433C20.8297 49.2249 18.752 49.7772 16.6414 49.7305C14.5308 49.6839 12.482 49.0403 10.7537 47.8812C9.02536 46.722 7.69508 45.0993 6.93082 43.2178C6.16655 41.3363 6.00258 39.2805 6.4596 37.31C6.91662 35.3395 7.97414 33.5426 9.49861 32.1463C11.0231 30.75 12.9462 29.8169 15.025 29.4648C17.1038 29.1127 19.2451 29.3575 21.1785 30.1681C22.4659 30.7079 23.6293 31.4853 24.6018 32.4558C25.5743 33.4264 26.3369 34.5709 26.8458 35.8237C27.3547 37.0766 27.6 38.4132 27.5675 39.7568C27.535 41.1005 27.2254 42.4248 26.6565 43.6538Z" fill="url(#paint67_linear_303_92642)"/>
<path d="M25.355 43.0254C24.6116 44.6225 23.3895 45.973 21.8432 46.906C20.297 47.8391 18.496 48.3127 16.6682 48.2671C14.8403 48.2215 13.0677 47.6587 11.5744 46.6498C10.0812 45.641 8.93443 44.2314 8.2792 42.5994C7.62397 40.9673 7.4897 39.1862 7.89338 37.4812C8.29706 35.7762 9.22055 34.224 10.547 33.0209C11.8735 31.8177 13.5435 31.0177 15.3456 30.722C17.1477 30.4263 19.0011 30.6481 20.6713 31.3596C22.9101 32.3132 24.6612 34.0778 25.5395 36.2654C26.4178 38.453 26.3514 40.8845 25.355 43.0254Z" fill="url(#paint68_linear_303_92642)"/>
<path d="M24.6154 42.7635C23.9285 44.2395 22.7993 45.4878 21.3705 46.3504C19.9417 47.213 18.2775 47.6513 16.5882 47.6098C14.8989 47.5683 13.2605 47.049 11.8799 46.1174C10.4993 45.1858 9.43856 43.8838 8.83182 42.376C8.22508 40.8681 8.09954 39.2222 8.47108 37.6462C8.84262 36.0701 9.69455 34.6348 10.9192 33.5216C12.1438 32.4084 13.6862 31.6673 15.3513 31.392C17.0164 31.1167 18.7295 31.3195 20.2741 31.9748C21.3004 32.4103 22.2269 33.0349 23.0007 33.8129C23.7744 34.5909 24.3802 35.5071 24.7833 36.509C25.1865 37.5109 25.3792 38.579 25.3504 39.6522C25.3216 40.7254 25.0718 41.7826 24.6154 42.7635Z" fill="url(#paint69_linear_303_92642)"/>
<path opacity="0.5" d="M7.6748 44.5966C8.66591 46.4479 10.2966 47.9144 12.29 48.747C16.8778 50.6979 19.4387 49.4671 19.4387 49.4671C14.9992 49.3894 10.7714 47.639 7.6748 44.5966Z" fill="white"/>
<path opacity="0.3" d="M23.5605 36.9371C22.9442 38.2464 20.397 38.4428 17.8497 37.3561C15.3025 36.2694 13.7413 34.3316 14.3438 33.0223C14.9464 31.713 17.5074 31.5297 20.0546 32.6165C22.6019 33.7032 24.1631 35.6278 23.5605 36.9371Z" fill="url(#paint70_linear_303_92642)"/>
<path opacity="0.7" d="M19.6437 33.402C21.917 34.3709 23.4098 36.0206 23.2728 37.3299C23.3759 37.2217 23.4592 37.0978 23.5193 36.9633C24.1356 35.654 22.5607 33.7162 20.0271 32.6295C17.4936 31.5428 14.9189 31.7261 14.3164 33.0354C14.2481 33.1757 14.2064 33.3264 14.1931 33.4806C15.097 32.551 17.3703 32.4331 19.6437 33.402Z" fill="url(#paint71_linear_303_92642)"/>
<path opacity="0.5" d="M26.121 34.4363C25.1525 32.5921 23.5459 31.1255 21.5743 30.2859C16.9865 28.335 14.4392 29.5658 14.4392 29.5658C18.851 29.6598 23.0471 31.4093 26.121 34.4363Z" fill="white"/>
<path fill-rule="evenodd" clip-rule="evenodd" d="M17.0453 37.0825L14.5623 39.4564L13.1176 38.075L17.0453 34.3199L20.9743 38.0761L19.5295 39.4574L17.0453 37.0825ZM12.0974 39.0502L10.6526 40.4317L12.0973 41.8127L13.5421 40.4314L12.0974 39.0502ZM17.0453 43.781L14.5623 41.4072L13.1156 42.7865L13.1176 42.7884L17.0453 46.5435L20.9743 42.7873L20.975 42.7866L19.5295 41.4061L17.0453 43.781ZM21.9934 39.051L20.5485 40.4323L21.9933 41.8135L23.4381 40.4322L21.9934 39.051ZM17.0454 38.6855L18.87 40.4308L18.8718 40.4316L18.8709 40.4326L17.0454 42.1779L15.2214 40.4339L15.2188 40.4314L15.2214 40.429L15.5411 40.1233L15.6961 39.9751L17.0454 38.6855Z" fill="#FF7708"/>
<path d="M14.1057 39.1944L16.5888 36.8205L19.073 39.1954L20.5178 37.8142L16.5888 34.058L12.6611 37.8131L14.1057 39.1944ZM10.196 40.1697L11.6409 38.7882L13.0856 40.1695L11.6408 41.5508L10.196 40.1697ZM14.1057 41.1452L16.5888 43.519L19.073 41.1441L20.5185 42.5246L20.5178 42.5254L16.5888 46.2815L12.6611 42.5264L12.659 42.5245L14.1059 41.1451L14.1057 41.1452ZM20.092 40.1703L21.5368 38.789L22.9815 40.1702L21.5368 41.5515L20.092 40.1703Z" fill="white"/>
<path d="M18.4134 40.1689H18.4142L16.5887 38.4236L15.2395 39.7132L15.0844 39.8614L14.7648 40.1671L14.7622 40.1695L14.7648 40.172L16.5887 41.916L18.4143 40.1707L18.4152 40.1697L18.4135 40.1689" fill="white"/>
<path d="M85.5732 96.089C84.7508 97.8559 83.3989 99.35 81.6883 100.382C79.9778 101.415 77.9855 101.939 75.9634 101.889C73.9412 101.839 71.98 101.217 70.3277 100.101C68.6754 98.9853 67.4062 97.4262 66.6806 95.621C65.9551 93.8158 65.8057 91.8454 66.2514 89.9589C66.697 88.0725 67.7178 86.3548 69.1845 85.023C70.6513 83.6912 72.4981 82.8051 74.4916 82.4767C76.4851 82.1483 78.5356 82.3925 80.384 83.1782C81.6116 83.7001 82.7196 84.448 83.6447 85.3793C84.5699 86.3106 85.2941 87.407 85.776 88.6059C86.2579 89.8049 86.488 91.0828 86.4532 92.3668C86.4184 93.6507 86.1194 94.9156 85.5732 96.089Z" fill="#F6AE28"/>
<path style="mix-blend-mode:multiply" d="M85.5732 96.1967C84.7508 97.9636 83.3989 99.4577 81.6883 100.49C79.9778 101.522 77.9855 102.047 75.9634 101.997C73.9412 101.947 71.98 101.324 70.3277 100.209C68.6754 99.0929 67.4062 97.5339 66.6806 95.7287C65.9551 93.9234 65.8057 91.953 66.2514 90.0666C66.697 88.1802 67.7178 86.4625 69.1845 85.1307C70.6513 83.7989 72.4981 82.9127 74.4916 82.5844C76.4851 82.256 78.5356 82.5001 80.384 83.2859C81.6116 83.8077 82.7196 84.5556 83.6447 85.4869C84.5699 86.4182 85.2941 87.5147 85.776 88.7136C86.2579 89.9125 86.488 91.1905 86.4532 92.4744C86.4184 93.7584 86.1194 95.0232 85.5732 96.1967Z" fill="url(#paint72_linear_303_92642)"/>
<path style="mix-blend-mode:multiply" d="M85.2346 95.1447C84.2416 97.471 82.3243 99.326 79.903 100.303C77.4818 101.28 74.7541 101.299 72.318 100.357C69.9524 99.2608 68.1388 97.3116 67.276 94.9377C66.4131 92.5638 66.5715 89.9594 67.7165 87.6971C68.7095 85.3708 70.6268 83.5158 73.048 82.5388C75.4693 81.5617 78.197 81.5424 80.6331 82.485C82.9987 83.581 84.8123 85.5302 85.6751 87.9041C86.538 90.2781 86.3795 92.8824 85.2346 95.1447Z" fill="url(#paint73_linear_303_92642)"/>
<path d="M86.1351 94.7142C85.3199 96.4871 83.9723 97.9886 82.2634 99.0284C80.5545 100.068 78.5611 100.599 76.536 100.555C74.5109 100.51 72.5453 99.8916 70.8883 98.7776C69.2313 97.6637 67.9576 96.1044 67.2287 94.2975C66.4997 92.4906 66.3484 90.5175 66.7938 88.6283C67.2393 86.7391 68.2614 85.0188 69.7307 83.6857C71.2 82.3526 73.0502 81.4665 75.0469 81.1399C77.0435 80.8133 79.0966 81.0609 80.9459 81.8512C83.4125 82.9054 85.3426 84.8497 86.3149 87.2597C87.2871 89.6697 87.2225 92.3496 86.1351 94.7142Z" fill="url(#paint74_linear_303_92642)"/>
<path style="mix-blend-mode:screen" d="M85.7732 94.3795C84.9931 96.0648 83.7081 97.4912 82.0807 98.4787C80.4532 99.4661 78.5561 99.9704 76.629 99.9278C74.7019 99.8852 72.8313 99.2977 71.2533 98.2393C69.6752 97.1809 68.4606 95.6993 67.7628 93.9814C67.065 92.2635 66.9153 90.3865 67.3326 88.5873C67.7499 86.7881 68.7154 85.1475 70.1073 83.8727C71.4993 82.5978 73.2551 81.7458 75.1531 81.4243C77.0512 81.1029 79.0063 81.3263 80.7716 82.0665C81.9471 82.5593 83.0093 83.2692 83.8972 84.1553C84.7852 85.0414 85.4814 86.0864 85.9461 87.2303C86.4108 88.3742 86.6347 89.5946 86.605 90.8214C86.5753 92.0482 86.2927 93.2574 85.7732 94.3795Z" fill="url(#paint75_linear_303_92642)"/>
<path d="M84.585 93.8058C83.9063 95.264 82.7905 96.4971 81.3787 97.349C79.9669 98.2009 78.3225 98.6333 76.6536 98.5917C74.9847 98.5501 73.3662 98.0362 72.0028 97.115C70.6394 96.1939 69.5924 94.9069 68.9941 93.4168C68.3959 91.9267 68.2733 90.3004 68.6419 88.7437C69.0104 87.187 69.8536 85.7697 71.0648 84.6712C72.2759 83.5727 73.8006 82.8422 75.446 82.5722C77.0915 82.3022 78.7837 82.5048 80.3087 83.1544C82.3528 84.025 83.9516 85.6362 84.7535 87.6336C85.5554 89.631 85.4948 91.8511 84.585 93.8058Z" fill="url(#paint76_linear_303_92642)"/>
<path d="M83.9096 93.5667C83.2825 94.9144 82.2515 96.0541 80.9469 96.8417C79.6424 97.6294 78.1229 98.0295 76.5805 97.9917C75.0381 97.9538 73.5421 97.4796 72.2816 96.629C71.021 95.7784 70.0526 94.5896 69.4986 93.2129C68.9446 91.8362 68.83 90.3334 69.1692 88.8944C69.5084 87.4554 70.2863 86.1449 71.4044 85.1285C72.5226 84.1121 73.9308 83.4354 75.4511 83.1841C76.9715 82.9327 78.5356 83.1179 79.9459 83.7163C80.883 84.1139 81.7289 84.6841 82.4354 85.3945C83.1418 86.1048 83.6949 86.9413 84.063 87.8561C84.4311 88.771 84.6071 89.7462 84.5807 90.726C84.5544 91.7059 84.3264 92.6712 83.9096 93.5667Z" fill="url(#paint77_linear_303_92642)"/>
<path opacity="0.5" d="M68.4421 95.2404C69.3471 96.9307 70.8359 98.2697 72.656 99.0299C76.8449 100.811 79.1831 99.6874 79.1831 99.6874C75.1297 99.6164 71.2695 98.0182 68.4421 95.2404Z" fill="white"/>
<path opacity="0.3" d="M82.9465 88.247C82.3839 89.4424 80.0581 89.6217 77.7324 88.6295C75.4066 87.6373 73.9811 85.868 74.5313 84.6726C75.0815 83.4771 77.4198 83.3098 79.7455 84.302C82.0713 85.2942 83.4967 87.0515 82.9465 88.247Z" fill="url(#paint78_linear_303_92642)"/>
<path opacity="0.7" d="M79.3704 85.0191C81.4461 85.9038 82.809 87.41 82.684 88.6055C82.778 88.5067 82.8541 88.3936 82.909 88.2708C83.4717 87.0753 82.0338 85.3061 79.7205 84.3138C77.4073 83.3216 75.0565 83.489 74.5063 84.6844C74.444 84.8125 74.4059 84.9501 74.3938 85.0909C75.2191 84.2421 77.2947 84.1345 79.3704 85.0191Z" fill="url(#paint79_linear_303_92642)"/>
<path opacity="0.5" d="M85.2844 85.9636C84.4002 84.2798 82.9332 82.9407 81.133 82.1741C76.9442 80.3929 74.6184 81.5166 74.6184 81.5166C78.6466 81.6025 82.4777 83.1998 85.2844 85.9636Z" fill="white"/>
<path fill-rule="evenodd" clip-rule="evenodd" d="M76.998 88.3796L74.7309 90.5471L73.4118 89.2858L76.998 85.8573L80.5853 89.2869L79.2662 90.548L76.998 88.3796ZM72.4803 90.1762L71.1611 91.4376L72.4802 92.6985L73.7994 91.4373L72.4803 90.1762ZM76.998 94.4956L74.7309 92.3283L73.41 93.5876L73.4118 93.5894L76.998 97.0179L80.5853 93.5884L80.586 93.5877L79.2661 92.3272L76.998 94.4956ZM81.5158 90.1769L80.1966 91.4381L81.5157 92.6992L82.8348 91.4381L81.5158 90.1769ZM76.998 89.8432L78.664 91.4368L78.6657 91.4376L78.6648 91.4384L76.998 93.032L75.3326 91.4396L75.3303 91.4373L75.3326 91.4352L75.6245 91.156L75.7661 91.0207L76.998 89.8432Z" fill="#FF7708"/>
<path d="M74.3139 90.3079L76.581 88.1405L78.8492 90.3089L80.1683 89.0477L76.581 85.6182L72.9948 89.0467L74.3139 90.3079ZM70.7441 91.1985L72.0633 89.9371L73.3824 91.1982L72.0632 92.4594L70.7441 91.1985ZM74.3139 92.0891L76.581 94.2565L78.8491 92.0881L80.169 93.3486L80.1683 93.3493L76.581 96.7788L72.9948 93.3502L72.993 93.3485L74.314 92.089L74.3139 92.0891ZM79.7796 91.199L81.0988 89.9378L82.4178 91.1989L81.0987 92.4601L79.7796 91.199Z" fill="white"/>
<path d="M78.247 91.1977H78.2477L76.581 89.6041L75.3491 90.7816L75.2076 90.9169L74.9157 91.1961L74.9133 91.1982L74.9157 91.2005L76.581 92.7929L78.2479 91.1993L78.2487 91.1984L78.2472 91.1977" fill="white"/>
<path d="M65.845 69.2149C65.1792 70.6452 64.0848 71.8547 62.7001 72.6905C61.3154 73.5262 59.7026 73.9506 58.0656 73.91C56.4286 73.8695 54.8409 73.3658 53.5034 72.4626C52.1658 71.5595 51.1384 70.2974 50.551 68.836C49.9636 67.3746 49.8427 65.7795 50.2035 64.2524C50.5643 62.7253 51.3906 61.3348 52.578 60.2567C53.7653 59.1785 55.2604 58.4612 56.8742 58.1954C58.4879 57.9296 60.1479 58.1272 61.6442 58.7633C62.6379 59.1857 63.5349 59.7912 64.2838 60.5451C65.0328 61.299 65.619 62.1866 66.0091 63.1571C66.3992 64.1277 66.5855 65.1622 66.5573 66.2016C66.5292 67.241 66.2871 68.2649 65.845 69.2149Z" fill="#F6AE28"/>
<path style="mix-blend-mode:multiply" d="M65.845 69.302C65.1792 70.7324 64.0848 71.9419 62.7001 72.7776C61.3154 73.6133 59.7026 74.0378 58.0656 73.9972C56.4286 73.9567 54.8409 73.4529 53.5034 72.5498C52.1658 71.6466 51.1384 70.3846 50.551 68.9232C49.9636 67.4618 49.8427 65.8667 50.2035 64.3396C50.5643 62.8125 51.3906 61.422 52.578 60.3438C53.7653 59.2657 55.2604 58.5484 56.8742 58.2826C58.4879 58.0167 60.1479 58.2144 61.6442 58.8504C62.6379 59.2729 63.5349 59.8783 64.2838 60.6323C65.0328 61.3862 65.619 62.2737 66.0091 63.2443C66.3992 64.2149 66.5855 65.2494 66.5573 66.2888C66.5292 67.3282 66.2871 68.3521 65.845 69.302Z" fill="url(#paint80_linear_303_92642)"/>
<path style="mix-blend-mode:multiply" d="M65.5708 68.4504C64.767 70.3336 63.2149 71.8353 61.2548 72.6262C59.2947 73.4171 57.0866 73.4328 55.1145 72.6698C53.1995 71.7825 51.7314 70.2046 51.0329 68.2828C50.3344 66.3611 50.4626 64.2528 51.3895 62.4214C52.1934 60.5382 53.7455 59.0365 55.7055 58.2456C57.6656 57.4547 59.8737 57.439 61.8458 58.202C63.7608 59.0893 65.2289 60.6672 65.9274 62.589C66.6259 64.5108 66.4977 66.619 65.5708 68.4504Z" fill="url(#paint81_linear_303_92642)"/>
<path d="M66.2998 68.102C65.6399 69.5371 64.549 70.7526 63.1656 71.5944C61.7822 72.4361 60.1685 72.8662 58.5292 72.83C56.8898 72.7939 55.2985 72.2932 53.9572 71.3914C52.6158 70.4896 51.5847 69.2273 50.9946 67.7646C50.4045 66.3019 50.282 64.7046 50.6426 63.1753C51.0032 61.6459 51.8307 60.2533 53.0201 59.1741C54.2095 58.0949 55.7073 57.3776 57.3237 57.1133C58.94 56.8489 60.602 57.0493 62.0991 57.6891C64.0958 58.5424 65.6583 60.1164 66.4454 62.0674C67.2324 64.0183 67.1801 66.1878 66.2998 68.102Z" fill="url(#paint82_linear_303_92642)"/>
<path style="mix-blend-mode:screen" d="M66.0069 67.8311C65.3754 69.1953 64.3352 70.35 63.0177 71.1494C61.7002 71.9488 60.1645 72.357 58.6045 72.3225C57.0445 72.2881 55.5301 71.8124 54.2527 70.9556C52.9753 70.0989 51.992 68.8994 51.4271 67.5088C50.8622 66.1181 50.741 64.5986 51.0788 63.1421C51.4166 61.6856 52.1983 60.3575 53.3251 59.3255C54.4518 58.2934 55.8732 57.6038 57.4097 57.3435C58.9462 57.0833 60.529 57.2642 61.958 57.8633C62.9096 58.2623 63.7695 58.8369 64.4883 59.5543C65.2071 60.2716 65.7708 61.1176 66.1469 62.0436C66.5231 62.9696 66.7043 63.9575 66.6803 64.9507C66.6563 65.9438 66.4275 66.9227 66.0069 67.8311Z" fill="url(#paint83_linear_303_92642)"/>
<path d="M65.0449 67.3666C64.4955 68.547 63.5922 69.5452 62.4493 70.2349C61.3064 70.9245 59.9753 71.2746 58.6243 71.2409C57.2733 71.2072 55.963 70.7912 54.8593 70.0455C53.7556 69.2998 52.908 68.2579 52.4237 67.0517C51.9394 65.8454 51.8402 64.5289 52.1386 63.2687C52.4369 62.0085 53.1195 60.8612 54.1 59.9719C55.0804 59.0826 56.3147 58.4913 57.6467 58.2727C58.9787 58.0542 60.3486 58.2182 61.5831 58.744C63.2379 59.4488 64.5322 60.7531 65.1813 62.37C65.8305 63.987 65.7815 65.7842 65.0449 67.3666Z" fill="url(#paint84_linear_303_92642)"/>
<path d="M64.4982 67.173C63.9905 68.264 63.1559 69.1866 62.0998 69.8242C61.0437 70.4618 59.8137 70.7858 58.5651 70.7551C57.3165 70.7245 56.1054 70.3406 55.085 69.652C54.0645 68.9635 53.2805 68.0011 52.8321 66.8866C52.3836 65.7721 52.2908 64.5556 52.5655 63.3907C52.8401 62.2258 53.4698 61.1649 54.3749 60.3421C55.2801 59.5193 56.4201 58.9715 57.6508 58.768C58.8816 58.5645 60.1478 58.7145 61.2894 59.1988C62.048 59.5207 62.7328 59.9824 63.3047 60.5574C63.8766 61.1324 64.3243 61.8096 64.6223 62.5502C64.9203 63.2907 65.0628 64.0802 65.0415 64.8734C65.0202 65.6666 64.8355 66.4481 64.4982 67.173Z" fill="url(#paint85_linear_303_92642)"/>
<path opacity="0.5" d="M51.9771 68.528C52.7096 69.8964 53.9149 70.9803 55.3883 71.5957C58.7792 73.0376 60.6721 72.128 60.6721 72.128C57.3908 72.0705 54.2658 70.7767 51.9771 68.528Z" fill="white"/>
<path opacity="0.3" d="M63.7186 62.8666C63.2631 63.8343 61.3804 63.9795 59.4976 63.1763C57.6149 62.3731 56.4609 60.9408 56.9063 59.9731C57.3517 59.0053 59.2446 58.8698 61.1273 59.6731C63.0101 60.4763 64.164 61.8989 63.7186 62.8666Z" fill="url(#paint86_linear_303_92642)"/>
<path opacity="0.7" d="M60.8236 60.2537C62.5039 60.9698 63.6072 62.1891 63.506 63.1569C63.5822 63.0769 63.6437 62.9853 63.6882 62.8859C64.1437 61.9182 62.9797 60.4859 61.107 59.6827C59.2344 58.8795 57.3314 59.015 56.886 59.9827C56.8356 60.0864 56.8047 60.1978 56.7949 60.3117C57.463 59.6246 59.1433 59.5375 60.8236 60.2537Z" fill="url(#paint87_linear_303_92642)"/>
<path opacity="0.5" d="M65.6111 61.0182C64.8954 59.6551 63.7079 58.5711 62.2505 57.9505C58.8596 56.5086 56.9768 57.4182 56.9768 57.4182C60.2377 57.4878 63.3391 58.7809 65.6111 61.0182Z" fill="white"/>
<path fill-rule="evenodd" clip-rule="evenodd" d="M58.903 62.974L57.0678 64.7286L56 63.7076L58.903 60.9321L61.8071 63.7084L60.7392 64.7294L58.903 62.974ZM55.2459 64.4284L54.178 65.4495L55.2458 66.4703L56.3137 65.4493L55.2459 64.4284ZM58.903 67.9251L57.0678 66.1705L55.9985 67.19L56 67.1914L58.903 69.9669L61.8071 67.1906L61.8076 67.1901L60.7392 66.1697L58.903 67.9251ZM62.5603 64.429L61.4924 65.45L62.5603 66.4708L63.6281 65.4499L62.5603 64.429ZM58.9031 64.1588L60.2517 65.4488L60.2531 65.4495L60.2524 65.4502L58.9031 66.7402L57.5549 65.4511L57.553 65.4493L57.5549 65.4475L57.7912 65.2216L57.9058 65.112L58.9031 64.1588Z" fill="#FF7708"/>
<path d="M56.7304 64.535L58.5656 62.7804L60.4018 64.5358L61.4697 63.5148L58.5656 60.7385L55.6626 63.514L56.7304 64.535ZM53.8406 65.2559L54.9085 64.2348L55.9763 65.2557L54.9084 66.2767L53.8406 65.2559ZM56.7304 65.9769L58.5656 67.7314L60.4018 65.9761L61.4702 66.9965L61.4697 66.997L58.5656 69.7733L55.6626 66.9978L55.6611 66.9964L56.7305 65.9768L56.7304 65.9769ZM61.155 65.2564L62.2229 64.2354L63.2907 65.2563L62.2228 66.2772L61.155 65.2564Z" fill="white"/>
<path d="M59.9143 65.2552H59.9149L58.5656 63.9652L57.5683 64.9184L57.4538 65.028L57.2175 65.2539L57.2156 65.2557L57.2175 65.2575L58.5656 66.5466L59.915 65.2566L59.9156 65.2558L59.9144 65.2552" fill="white"/>
<path d="M21.7091 116.652C20.965 118.251 19.7418 119.602 18.1942 120.536C16.6466 121.47 14.844 121.945 13.0145 121.899C11.1849 121.854 9.41045 121.291 7.91551 120.282C6.42058 119.272 5.27227 117.862 4.6158 116.228C3.95933 114.595 3.82417 112.812 4.22741 111.106C4.63066 109.399 5.55419 107.845 6.88124 106.64C8.20829 105.435 9.87927 104.633 11.6829 104.336C13.4865 104.039 15.3418 104.26 17.0141 104.971C18.1247 105.443 19.1272 106.12 19.9643 106.962C20.8013 107.805 21.4566 108.797 21.8926 109.881C22.3285 110.966 22.5367 112.122 22.5053 113.284C22.4738 114.446 22.2032 115.59 21.7091 116.652Z" fill="#F6AE28"/>
<path style="mix-blend-mode:multiply" d="M21.7091 116.749C20.965 118.348 19.7418 119.7 18.1942 120.634C16.6466 121.568 14.844 122.042 13.0145 121.997C11.1849 121.952 9.41045 121.389 7.91551 120.379C6.42058 119.37 5.27227 117.959 4.6158 116.326C3.95933 114.693 3.82417 112.91 4.22741 111.203C4.63066 109.496 5.55419 107.942 6.88124 106.737C8.20829 105.532 9.87927 104.73 11.6829 104.433C13.4865 104.136 15.3418 104.357 17.0141 105.068C18.1247 105.54 19.1272 106.217 19.9643 107.06C20.8013 107.902 21.4566 108.894 21.8926 109.979C22.3285 111.064 22.5367 112.22 22.5053 113.382C22.4738 114.543 22.2032 115.688 21.7091 116.749Z" fill="url(#paint88_linear_303_92642)"/>
<path style="mix-blend-mode:multiply" d="M21.4026 115.798C20.5042 117.902 18.7695 119.581 16.5788 120.465C14.3881 121.349 11.9202 121.366 9.7161 120.513C7.57582 119.522 5.93499 117.758 5.15431 115.61C4.37362 113.462 4.51697 111.106 5.55285 109.059C6.4513 106.954 8.18599 105.276 10.3767 104.392C12.5673 103.508 15.0352 103.491 17.2394 104.343C19.3796 105.335 21.0205 107.099 21.8012 109.247C22.5818 111.394 22.4385 113.751 21.4026 115.798Z" fill="url(#paint89_linear_303_92642)"/>
<path d="M22.2175 115.408C21.4799 117.012 20.2607 118.371 18.7145 119.311C17.1684 120.252 15.3648 120.733 13.5326 120.692C11.7003 120.652 9.92189 120.092 8.42272 119.085C6.92354 118.077 5.77115 116.666 5.11164 115.031C4.45213 113.396 4.3152 111.611 4.71822 109.902C5.12124 108.192 6.04605 106.636 7.3754 105.43C8.70476 104.224 10.3788 103.422 12.1853 103.127C13.9918 102.831 15.8493 103.055 17.5225 103.77C19.7542 104.724 21.5005 106.483 22.3801 108.664C23.2598 110.844 23.2013 113.269 22.2175 115.408Z" fill="url(#paint90_linear_303_92642)"/>
<path style="mix-blend-mode:screen" d="M21.8902 115.105C21.1844 116.63 20.0218 117.921 18.5493 118.814C17.0768 119.708 15.3604 120.164 13.6169 120.125C11.8733 120.087 10.1808 119.555 8.7531 118.598C7.32537 117.64 6.22645 116.299 5.5951 114.745C4.96375 113.191 4.82829 111.493 5.20583 109.865C5.58337 108.237 6.45697 106.753 7.71632 105.599C8.97567 104.446 10.5643 103.675 12.2816 103.384C13.9988 103.093 15.7677 103.295 17.3649 103.965C18.4285 104.411 19.3895 105.053 20.1929 105.855C20.9963 106.657 21.6262 107.602 22.0466 108.637C22.467 109.672 22.6696 110.776 22.6428 111.886C22.6159 112.996 22.3602 114.09 21.8902 115.105Z" fill="url(#paint91_linear_303_92642)"/>
<path d="M20.8151 114.586C20.201 115.906 19.1915 117.021 17.9141 117.792C16.6368 118.563 15.149 118.954 13.6391 118.916C12.1291 118.879 10.6647 118.414 9.4312 117.58C8.19765 116.747 7.25033 115.582 6.70905 114.234C6.16777 112.886 6.05686 111.415 6.39033 110.006C6.72381 108.598 7.48669 107.315 8.58249 106.322C9.6783 105.328 11.0578 104.667 12.5465 104.422C14.0352 104.178 15.5663 104.361 16.946 104.949C18.7955 105.737 20.242 107.195 20.9676 109.002C21.6931 110.809 21.6383 112.818 20.8151 114.586Z" fill="url(#paint92_linear_303_92642)"/>
<path d="M20.2039 114.37C19.6365 115.589 18.7037 116.62 17.5234 117.333C16.3431 118.046 14.9683 118.408 13.5728 118.373C12.1773 118.339 10.8238 117.91 9.68328 117.141C8.54279 116.371 7.66655 115.295 7.16533 114.05C6.66411 112.804 6.5604 111.444 6.86733 110.143C7.17425 108.841 7.87802 107.655 8.88968 106.735C9.90134 105.816 11.1755 105.203 12.551 104.976C13.9265 104.749 15.3417 104.916 16.6176 105.458C17.4655 105.817 18.2309 106.333 18.87 106.976C19.5092 107.619 20.0096 108.375 20.3427 109.203C20.6757 110.031 20.8349 110.913 20.8111 111.8C20.7873 112.686 20.581 113.56 20.2039 114.37Z" fill="url(#paint93_linear_303_92642)"/>
<path opacity="0.5" d="M6.20947 115.884C7.02821 117.414 8.37527 118.625 10.022 119.313C13.8119 120.924 15.9275 119.908 15.9275 119.908C12.2601 119.843 8.76753 118.397 6.20947 115.884Z" fill="white"/>
<path opacity="0.3" d="M19.3326 109.557C18.8235 110.638 16.7192 110.801 14.615 109.903C12.5107 109.005 11.221 107.404 11.7188 106.323C12.2166 105.241 14.3322 105.09 16.4364 105.988C18.5407 106.885 19.8304 108.475 19.3326 109.557Z" fill="url(#paint94_linear_303_92642)"/>
<path opacity="0.7" d="M16.0971 106.636C17.9751 107.437 19.2083 108.8 19.0951 109.881C19.1802 109.792 19.2491 109.689 19.2988 109.578C19.8078 108.497 18.5068 106.896 16.4139 105.998C14.321 105.101 12.1941 105.252 11.6963 106.334C11.6399 106.449 11.6054 106.574 11.5945 106.701C12.3412 105.933 14.2191 105.836 16.0971 106.636Z" fill="url(#paint95_linear_303_92642)"/>
<path opacity="0.5" d="M21.4477 107.491C20.6478 105.967 19.3205 104.756 17.6918 104.062C13.9019 102.451 11.7976 103.467 11.7976 103.467C15.4421 103.545 18.9084 104.99 21.4477 107.491Z" fill="white"/>
<path fill-rule="evenodd" clip-rule="evenodd" d="M13.9506 109.677L11.8994 111.638L10.706 110.497L13.9506 107.395L17.1963 110.498L16.0028 111.639L13.9506 109.677ZM9.86322 111.302L8.66968 112.444L9.86313 113.584L11.0567 112.443L9.86322 111.302ZM13.9506 115.21L11.8994 113.249L10.7043 114.389L10.706 114.39L13.9506 117.492L17.1963 114.39L17.1969 114.389L16.0028 113.249L13.9506 115.21ZM18.0381 111.303L16.8446 112.444L18.0381 113.585L19.2316 112.444L18.0381 111.303ZM13.9507 111.001L15.458 112.443L15.4595 112.444L15.4587 112.444L13.9507 113.886L12.4439 112.445L12.4418 112.443L12.4439 112.441L12.708 112.189L12.836 112.066L13.9507 111.001Z" fill="#FF7708"/>
<path d="M11.5222 111.421L13.5734 109.46L15.6256 111.422L16.8191 110.281L13.5734 107.178L10.3288 110.28L11.5222 111.421ZM8.29248 112.227L9.48602 111.086L10.6795 112.227L9.48594 113.368L8.29248 112.227ZM11.5222 113.033L13.5734 114.994L15.6256 113.032L16.8197 114.173L16.8191 114.173L13.5734 117.276L10.3288 114.174L10.3271 114.172L11.5224 113.033L11.5222 113.033ZM16.4674 112.228L17.6609 111.087L18.8544 112.228L17.6609 113.369L16.4674 112.228Z" fill="white"/>
<path d="M15.0807 112.226H15.0813L13.5733 110.785L12.4587 111.85L12.3307 111.972L12.0666 112.225L12.0645 112.227L12.0666 112.229L13.5733 113.67L15.0814 112.228L15.0821 112.227L15.0808 112.226" fill="white"/>
</g>
<defs>
<filter id="filter0_d_303_92642" x="0" y="-0.00012207" width="124" height="151" filterUnits="userSpaceOnUse" color-interpolation-filters="sRGB">
<feFlood flood-opacity="0" result="BackgroundImageFix"/>
<feColorMatrix in="SourceAlpha" type="matrix" values="0 0 0 0 0 0 0 0 0 0 0 0 0 0 0 0 0 0 127 0" result="hardAlpha"/>
<feOffset dy="4"/>
<feGaussianBlur stdDeviation="2"/>
<feComposite in2="hardAlpha" operator="out"/>
<feColorMatrix type="matrix" values="0 0 0 0 0 0 0 0 0 0 0 0 0 0 0 0 0 0 0.25 0"/>
<feBlend mode="normal" in2="BackgroundImageFix" result="effect1_dropShadow_303_92642"/>
<feBlend mode="normal" in="SourceGraphic" in2="effect1_dropShadow_303_92642" result="shape"/>
</filter>
<linearGradient id="paint0_linear_303_92642" x1="56.4946" y1="113.313" x2="59.9488" y2="105.557" gradientUnits="userSpaceOnUse">
<stop stop-color="#FFAC1C"/>
<stop offset="1" stop-color="#F9D445"/>
</linearGradient>
<linearGradient id="paint1_linear_303_92642" x1="56.6264" y1="112.911" x2="60.0781" y2="105.16" gradientUnits="userSpaceOnUse">
<stop stop-color="#FFAC1C"/>
<stop offset="1" stop-color="#F9D445"/>
</linearGradient>
<linearGradient id="paint2_linear_303_92642" x1="56.7929" y1="112.558" x2="60.2472" y2="104.801" gradientUnits="userSpaceOnUse">
<stop stop-color="#FFB138"/>
<stop offset="1" stop-color="#F7931A"/>
</linearGradient>
<linearGradient id="paint3_linear_303_92642" x1="56.9222" y1="112.284" x2="60.2139" y2="104.89" gradientUnits="userSpaceOnUse">
<stop stop-color="#E37F06"/>
<stop offset="0.99" stop-color="#F7931A"/>
</linearGradient>
<linearGradient id="paint4_linear_303_92642" x1="57.1926" y1="111.695" x2="60.0395" y2="105.302" gradientUnits="userSpaceOnUse">
<stop stop-color="#FFAC1C"/>
<stop offset="0.95" stop-color="#FF6100"/>
</linearGradient>
<linearGradient id="paint5_linear_303_92642" x1="57.2681" y1="111.473" x2="59.9051" y2="105.553" gradientUnits="userSpaceOnUse">
<stop stop-color="#FDC439"/>
<stop offset="1" stop-color="#D59C11"/>
</linearGradient>
<linearGradient id="paint6_linear_303_92642" x1="59.3046" y1="107.319" x2="60.1589" y2="105.336" gradientUnits="userSpaceOnUse">
<stop stop-color="#FFCD25"/>
<stop offset="0.99" stop-color="white"/>
</linearGradient>
<linearGradient id="paint7_linear_303_92642" x1="59.7271" y1="106.377" x2="60.2277" y2="105.215" gradientUnits="userSpaceOnUse">
<stop stop-color="#FFCD25"/>
<stop offset="0.99" stop-color="white"/>
</linearGradient>
<linearGradient id="paint8_linear_303_92642" x1="93.3088" y1="103.814" x2="99.2753" y2="90.416" gradientUnits="userSpaceOnUse">
<stop stop-color="#FFAC1C"/>
<stop offset="1" stop-color="#F9D445"/>
</linearGradient>
<linearGradient id="paint9_linear_303_92642" x1="93.5362" y1="103.119" x2="99.4984" y2="89.7312" gradientUnits="userSpaceOnUse">
<stop stop-color="#FFAC1C"/>
<stop offset="1" stop-color="#F9D445"/>
</linearGradient>
<linearGradient id="paint10_linear_303_92642" x1="93.8241" y1="102.509" x2="99.7906" y2="89.1109" gradientUnits="userSpaceOnUse">
<stop stop-color="#FFB138"/>
<stop offset="1" stop-color="#F7931A"/>
</linearGradient>
<linearGradient id="paint11_linear_303_92642" x1="94.0476" y1="102.036" x2="99.7331" y2="89.2639" gradientUnits="userSpaceOnUse">
<stop stop-color="#E37F06"/>
<stop offset="0.99" stop-color="#F7931A"/>
</linearGradient>
<linearGradient id="paint12_linear_303_92642" x1="94.5147" y1="101.018" x2="99.4321" y2="89.9758" gradientUnits="userSpaceOnUse">
<stop stop-color="#FFAC1C"/>
<stop offset="0.95" stop-color="#FF6100"/>
</linearGradient>
<linearGradient id="paint13_linear_303_92642" x1="94.6449" y1="100.636" x2="99.1996" y2="90.409" gradientUnits="userSpaceOnUse">
<stop stop-color="#FDC439"/>
<stop offset="1" stop-color="#D59C11"/>
</linearGradient>
<linearGradient id="paint14_linear_303_92642" x1="98.1625" y1="93.4605" x2="99.6381" y2="90.0348" gradientUnits="userSpaceOnUse">
<stop stop-color="#FFCD25"/>
<stop offset="0.99" stop-color="white"/>
</linearGradient>
<linearGradient id="paint15_linear_303_92642" x1="98.8924" y1="91.8329" x2="99.7571" y2="89.8254" gradientUnits="userSpaceOnUse">
<stop stop-color="#FFCD25"/>
<stop offset="0.99" stop-color="white"/>
</linearGradient>
<linearGradient id="paint16_linear_303_92642" x1="43.216" y1="21.564" x2="50.4385" y2="5.3458" gradientUnits="userSpaceOnUse">
<stop stop-color="#FFAC1C"/>
<stop offset="1" stop-color="#F9D445"/>
</linearGradient>
<linearGradient id="paint17_linear_303_92642" x1="43.4913" y1="20.7228" x2="50.7086" y2="4.51665" gradientUnits="userSpaceOnUse">
<stop stop-color="#FFAC1C"/>
<stop offset="1" stop-color="#F9D445"/>
</linearGradient>
<linearGradient id="paint18_linear_303_92642" x1="43.8398" y1="19.9841" x2="51.0623" y2="3.76582" gradientUnits="userSpaceOnUse">
<stop stop-color="#FFB138"/>
<stop offset="1" stop-color="#F7931A"/>
</linearGradient>
<linearGradient id="paint19_linear_303_92642" x1="44.1101" y1="19.4122" x2="50.9927" y2="3.95102" gradientUnits="userSpaceOnUse">
<stop stop-color="#E37F06"/>
<stop offset="0.99" stop-color="#F7931A"/>
</linearGradient>
<linearGradient id="paint20_linear_303_92642" x1="44.6755" y1="18.1797" x2="50.6281" y2="4.81281" gradientUnits="userSpaceOnUse">
<stop stop-color="#FFAC1C"/>
<stop offset="0.95" stop-color="#FF6100"/>
</linearGradient>
<linearGradient id="paint21_linear_303_92642" x1="44.8334" y1="17.7173" x2="50.347" y2="5.33714" gradientUnits="userSpaceOnUse">
<stop stop-color="#FDC439"/>
<stop offset="1" stop-color="#D59C11"/>
</linearGradient>
<linearGradient id="paint22_linear_303_92642" x1="49.0914" y1="9.03106" x2="50.8777" y2="4.88419" gradientUnits="userSpaceOnUse">
<stop stop-color="#FFCD25"/>
<stop offset="0.99" stop-color="white"/>
</linearGradient>
<linearGradient id="paint23_linear_303_92642" x1="49.9748" y1="7.06093" x2="51.0216" y2="4.63084" gradientUnits="userSpaceOnUse">
<stop stop-color="#FFCD25"/>
<stop offset="0.99" stop-color="white"/>
</linearGradient>
<linearGradient id="paint24_linear_303_92642" x1="103.762" y1="71.6889" x2="110.357" y2="56.881" gradientUnits="userSpaceOnUse">
<stop stop-color="#FFAC1C"/>
<stop offset="1" stop-color="#F9D445"/>
</linearGradient>
<linearGradient id="paint25_linear_303_92642" x1="104.014" y1="70.9209" x2="110.604" y2="56.124" gradientUnits="userSpaceOnUse">
<stop stop-color="#FFAC1C"/>
<stop offset="1" stop-color="#F9D445"/>
</linearGradient>
<linearGradient id="paint26_linear_303_92642" x1="104.332" y1="70.2463" x2="110.926" y2="55.4383" gradientUnits="userSpaceOnUse">
<stop stop-color="#FFB138"/>
<stop offset="1" stop-color="#F7931A"/>
</linearGradient>
<linearGradient id="paint27_linear_303_92642" x1="104.579" y1="69.7242" x2="110.863" y2="55.6074" gradientUnits="userSpaceOnUse">
<stop stop-color="#E37F06"/>
<stop offset="0.99" stop-color="#F7931A"/>
</linearGradient>
<linearGradient id="paint28_linear_303_92642" x1="105.095" y1="68.5988" x2="110.53" y2="56.3943" gradientUnits="userSpaceOnUse">
<stop stop-color="#FFAC1C"/>
<stop offset="0.95" stop-color="#FF6100"/>
</linearGradient>
<linearGradient id="paint29_linear_303_92642" x1="105.239" y1="68.1767" x2="110.273" y2="56.8731" gradientUnits="userSpaceOnUse">
<stop stop-color="#FDC439"/>
<stop offset="1" stop-color="#D59C11"/>
</linearGradient>
<linearGradient id="paint30_linear_303_92642" x1="109.127" y1="60.2458" x2="110.758" y2="56.4595" gradientUnits="userSpaceOnUse">
<stop stop-color="#FFCD25"/>
<stop offset="0.99" stop-color="white"/>
</linearGradient>
<linearGradient id="paint31_linear_303_92642" x1="109.934" y1="58.4469" x2="110.889" y2="56.2281" gradientUnits="userSpaceOnUse">
<stop stop-color="#FFCD25"/>
<stop offset="0.99" stop-color="white"/>
</linearGradient>
<linearGradient id="paint32_linear_303_92642" x1="86.8553" y1="43.9386" x2="92.1937" y2="31.9512" gradientUnits="userSpaceOnUse">
<stop stop-color="#FFAC1C"/>
<stop offset="1" stop-color="#F9D445"/>
</linearGradient>
<linearGradient id="paint33_linear_303_92642" x1="87.0588" y1="43.3168" x2="92.3934" y2="31.3384" gradientUnits="userSpaceOnUse">
<stop stop-color="#FFAC1C"/>
<stop offset="1" stop-color="#F9D445"/>
</linearGradient>
<linearGradient id="paint34_linear_303_92642" x1="87.3163" y1="42.7708" x2="92.6547" y2="30.7834" gradientUnits="userSpaceOnUse">
<stop stop-color="#FFB138"/>
<stop offset="1" stop-color="#F7931A"/>
</linearGradient>
<linearGradient id="paint35_linear_303_92642" x1="87.5162" y1="42.3481" x2="92.6033" y2="30.9203" gradientUnits="userSpaceOnUse">
<stop stop-color="#E37F06"/>
<stop offset="0.99" stop-color="#F7931A"/>
</linearGradient>
<linearGradient id="paint36_linear_303_92642" x1="87.9341" y1="41.4371" x2="92.3338" y2="31.5573" gradientUnits="userSpaceOnUse">
<stop stop-color="#FFAC1C"/>
<stop offset="0.95" stop-color="#FF6100"/>
</linearGradient>
<linearGradient id="paint37_linear_303_92642" x1="88.0506" y1="41.0954" x2="92.1259" y2="31.9449" gradientUnits="userSpaceOnUse">
<stop stop-color="#FDC439"/>
<stop offset="1" stop-color="#D59C11"/>
</linearGradient>
<linearGradient id="paint38_linear_303_92642" x1="91.198" y1="34.6751" x2="92.5183" y2="31.6101" gradientUnits="userSpaceOnUse">
<stop stop-color="#FFCD25"/>
<stop offset="0.99" stop-color="white"/>
</linearGradient>
<linearGradient id="paint39_linear_303_92642" x1="91.851" y1="33.219" x2="92.6247" y2="31.4228" gradientUnits="userSpaceOnUse">
<stop stop-color="#FFCD25"/>
<stop offset="0.99" stop-color="white"/>
</linearGradient>
<linearGradient id="paint40_linear_303_92642" x1="41.3088" y1="91.8137" x2="47.2753" y2="78.416" gradientUnits="userSpaceOnUse">
<stop stop-color="#FFAC1C"/>
<stop offset="1" stop-color="#F9D445"/>
</linearGradient>
<linearGradient id="paint41_linear_303_92642" x1="41.5362" y1="91.1189" x2="47.4984" y2="77.7312" gradientUnits="userSpaceOnUse">
<stop stop-color="#FFAC1C"/>
<stop offset="1" stop-color="#F9D445"/>
</linearGradient>
<linearGradient id="paint42_linear_303_92642" x1="41.8241" y1="90.5085" x2="47.7906" y2="77.1109" gradientUnits="userSpaceOnUse">
<stop stop-color="#FFB138"/>
<stop offset="1" stop-color="#F7931A"/>
</linearGradient>
<linearGradient id="paint43_linear_303_92642" x1="42.0476" y1="90.0362" x2="47.7331" y2="77.2639" gradientUnits="userSpaceOnUse">
<stop stop-color="#E37F06"/>
<stop offset="0.99" stop-color="#F7931A"/>
</linearGradient>
<linearGradient id="paint44_linear_303_92642" x1="42.5147" y1="89.018" x2="47.4321" y2="77.9758" gradientUnits="userSpaceOnUse">
<stop stop-color="#FFAC1C"/>
<stop offset="0.95" stop-color="#FF6100"/>
</linearGradient>
<linearGradient id="paint45_linear_303_92642" x1="42.6449" y1="88.6361" x2="47.1996" y2="78.409" gradientUnits="userSpaceOnUse">
<stop stop-color="#FDC439"/>
<stop offset="1" stop-color="#D59C11"/>
</linearGradient>
<linearGradient id="paint46_linear_303_92642" x1="46.1625" y1="81.4605" x2="47.6381" y2="78.0348" gradientUnits="userSpaceOnUse">
<stop stop-color="#FFCD25"/>
<stop offset="0.99" stop-color="white"/>
</linearGradient>
<linearGradient id="paint47_linear_303_92642" x1="46.8924" y1="79.8329" x2="47.7571" y2="77.8254" gradientUnits="userSpaceOnUse">
<stop stop-color="#FFCD25"/>
<stop offset="0.99" stop-color="white"/>
</linearGradient>
<linearGradient id="paint48_linear_303_92642" x1="23.4946" y1="142.313" x2="26.9488" y2="134.557" gradientUnits="userSpaceOnUse">
<stop stop-color="#FFAC1C"/>
<stop offset="1" stop-color="#F9D445"/>
</linearGradient>
<linearGradient id="paint49_linear_303_92642" x1="23.6264" y1="141.911" x2="27.0781" y2="134.16" gradientUnits="userSpaceOnUse">
<stop stop-color="#FFAC1C"/>
<stop offset="1" stop-color="#F9D445"/>
</linearGradient>
<linearGradient id="paint50_linear_303_92642" x1="23.7929" y1="141.558" x2="27.2472" y2="133.801" gradientUnits="userSpaceOnUse">
<stop stop-color="#FFB138"/>
<stop offset="1" stop-color="#F7931A"/>
</linearGradient>
<linearGradient id="paint51_linear_303_92642" x1="23.9222" y1="141.284" x2="27.2139" y2="133.89" gradientUnits="userSpaceOnUse">
<stop stop-color="#E37F06"/>
<stop offset="0.99" stop-color="#F7931A"/>
</linearGradient>
<linearGradient id="paint52_linear_303_92642" x1="24.1926" y1="140.695" x2="27.0395" y2="134.302" gradientUnits="userSpaceOnUse">
<stop stop-color="#FFAC1C"/>
<stop offset="0.95" stop-color="#FF6100"/>
</linearGradient>
<linearGradient id="paint53_linear_303_92642" x1="24.2681" y1="140.473" x2="26.9051" y2="134.553" gradientUnits="userSpaceOnUse">
<stop stop-color="#FDC439"/>
<stop offset="1" stop-color="#D59C11"/>
</linearGradient>
<linearGradient id="paint54_linear_303_92642" x1="26.3046" y1="136.319" x2="27.1589" y2="134.336" gradientUnits="userSpaceOnUse">
<stop stop-color="#FFCD25"/>
<stop offset="0.99" stop-color="white"/>
</linearGradient>
<linearGradient id="paint55_linear_303_92642" x1="26.7271" y1="135.377" x2="27.2277" y2="134.215" gradientUnits="userSpaceOnUse">
<stop stop-color="#FFCD25"/>
<stop offset="0.99" stop-color="white"/>
</linearGradient>
<linearGradient id="paint56_linear_303_92642" x1="60.3088" y1="132.814" x2="66.2753" y2="119.416" gradientUnits="userSpaceOnUse">
<stop stop-color="#FFAC1C"/>
<stop offset="1" stop-color="#F9D445"/>
</linearGradient>
<linearGradient id="paint57_linear_303_92642" x1="60.5362" y1="132.119" x2="66.4984" y2="118.731" gradientUnits="userSpaceOnUse">
<stop stop-color="#FFAC1C"/>
<stop offset="1" stop-color="#F9D445"/>
</linearGradient>
<linearGradient id="paint58_linear_303_92642" x1="60.8241" y1="131.509" x2="66.7906" y2="118.111" gradientUnits="userSpaceOnUse">
<stop stop-color="#FFB138"/>
<stop offset="1" stop-color="#F7931A"/>
</linearGradient>
<linearGradient id="paint59_linear_303_92642" x1="61.0476" y1="131.036" x2="66.7331" y2="118.264" gradientUnits="userSpaceOnUse">
<stop stop-color="#E37F06"/>
<stop offset="0.99" stop-color="#F7931A"/>
</linearGradient>
<linearGradient id="paint60_linear_303_92642" x1="61.5147" y1="130.018" x2="66.4321" y2="118.976" gradientUnits="userSpaceOnUse">
<stop stop-color="#FFAC1C"/>
<stop offset="0.95" stop-color="#FF6100"/>
</linearGradient>
<linearGradient id="paint61_linear_303_92642" x1="61.6449" y1="129.636" x2="66.1996" y2="119.409" gradientUnits="userSpaceOnUse">
<stop stop-color="#FDC439"/>
<stop offset="1" stop-color="#D59C11"/>
</linearGradient>
<linearGradient id="paint62_linear_303_92642" x1="65.1625" y1="122.46" x2="66.6381" y2="119.035" gradientUnits="userSpaceOnUse">
<stop stop-color="#FFCD25"/>
<stop offset="0.99" stop-color="white"/>
</linearGradient>
<linearGradient id="paint63_linear_303_92642" x1="65.8924" y1="120.833" x2="66.7571" y2="118.825" gradientUnits="userSpaceOnUse">
<stop stop-color="#FFCD25"/>
<stop offset="0.99" stop-color="white"/>
</linearGradient>
<linearGradient id="paint64_linear_303_92642" x1="10.216" y1="50.564" x2="17.4385" y2="34.3458" gradientUnits="userSpaceOnUse">
<stop stop-color="#FFAC1C"/>
<stop offset="1" stop-color="#F9D445"/>
</linearGradient>
<linearGradient id="paint65_linear_303_92642" x1="10.4913" y1="49.7228" x2="17.7086" y2="33.5166" gradientUnits="userSpaceOnUse">
<stop stop-color="#FFAC1C"/>
<stop offset="1" stop-color="#F9D445"/>
</linearGradient>
<linearGradient id="paint66_linear_303_92642" x1="10.8398" y1="48.9841" x2="18.0623" y2="32.7658" gradientUnits="userSpaceOnUse">
<stop stop-color="#FFB138"/>
<stop offset="1" stop-color="#F7931A"/>
</linearGradient>
<linearGradient id="paint67_linear_303_92642" x1="11.1101" y1="48.4122" x2="17.9927" y2="32.951" gradientUnits="userSpaceOnUse">
<stop stop-color="#E37F06"/>
<stop offset="0.99" stop-color="#F7931A"/>
</linearGradient>
<linearGradient id="paint68_linear_303_92642" x1="11.6755" y1="47.1797" x2="17.6281" y2="33.8128" gradientUnits="userSpaceOnUse">
<stop stop-color="#FFAC1C"/>
<stop offset="0.95" stop-color="#FF6100"/>
</linearGradient>
<linearGradient id="paint69_linear_303_92642" x1="11.8334" y1="46.7173" x2="17.347" y2="34.3371" gradientUnits="userSpaceOnUse">
<stop stop-color="#FDC439"/>
<stop offset="1" stop-color="#D59C11"/>
</linearGradient>
<linearGradient id="paint70_linear_303_92642" x1="16.0914" y1="38.0311" x2="17.8777" y2="33.8842" gradientUnits="userSpaceOnUse">
<stop stop-color="#FFCD25"/>
<stop offset="0.99" stop-color="white"/>
</linearGradient>
<linearGradient id="paint71_linear_303_92642" x1="16.9748" y1="36.0609" x2="18.0216" y2="33.6308" gradientUnits="userSpaceOnUse">
<stop stop-color="#FFCD25"/>
<stop offset="0.99" stop-color="white"/>
</linearGradient>
<linearGradient id="paint72_linear_303_92642" x1="70.7624" y1="100.689" x2="77.3569" y2="85.881" gradientUnits="userSpaceOnUse">
<stop stop-color="#FFAC1C"/>
<stop offset="1" stop-color="#F9D445"/>
</linearGradient>
<linearGradient id="paint73_linear_303_92642" x1="71.0139" y1="99.9209" x2="77.6036" y2="85.124" gradientUnits="userSpaceOnUse">
<stop stop-color="#FFAC1C"/>
<stop offset="1" stop-color="#F9D445"/>
</linearGradient>
<linearGradient id="paint74_linear_303_92642" x1="71.332" y1="99.2463" x2="77.9264" y2="84.4383" gradientUnits="userSpaceOnUse">
<stop stop-color="#FFB138"/>
<stop offset="1" stop-color="#F7931A"/>
</linearGradient>
<linearGradient id="paint75_linear_303_92642" x1="71.5787" y1="98.7242" x2="77.8628" y2="84.6074" gradientUnits="userSpaceOnUse">
<stop stop-color="#E37F06"/>
<stop offset="0.99" stop-color="#F7931A"/>
</linearGradient>
<linearGradient id="paint76_linear_303_92642" x1="72.0951" y1="97.5988" x2="77.5301" y2="85.3943" gradientUnits="userSpaceOnUse">
<stop stop-color="#FFAC1C"/>
<stop offset="0.95" stop-color="#FF6100"/>
</linearGradient>
<linearGradient id="paint77_linear_303_92642" x1="72.2391" y1="97.1767" x2="77.2733" y2="85.8731" gradientUnits="userSpaceOnUse">
<stop stop-color="#FDC439"/>
<stop offset="1" stop-color="#D59C11"/>
</linearGradient>
<linearGradient id="paint78_linear_303_92642" x1="76.127" y1="89.2458" x2="77.7579" y2="85.4595" gradientUnits="userSpaceOnUse">
<stop stop-color="#FFCD25"/>
<stop offset="0.99" stop-color="white"/>
</linearGradient>
<linearGradient id="paint79_linear_303_92642" x1="76.9336" y1="87.4469" x2="77.8894" y2="85.2281" gradientUnits="userSpaceOnUse">
<stop stop-color="#FFCD25"/>
<stop offset="0.99" stop-color="white"/>
</linearGradient>
<linearGradient id="paint80_linear_303_92642" x1="53.8553" y1="72.9386" x2="59.1937" y2="60.9512" gradientUnits="userSpaceOnUse">
<stop stop-color="#FFAC1C"/>
<stop offset="1" stop-color="#F9D445"/>
</linearGradient>
<linearGradient id="paint81_linear_303_92642" x1="54.0588" y1="72.3168" x2="59.3934" y2="60.3384" gradientUnits="userSpaceOnUse">
<stop stop-color="#FFAC1C"/>
<stop offset="1" stop-color="#F9D445"/>
</linearGradient>
<linearGradient id="paint82_linear_303_92642" x1="54.3163" y1="71.7708" x2="59.6547" y2="59.7834" gradientUnits="userSpaceOnUse">
<stop stop-color="#FFB138"/>
<stop offset="1" stop-color="#F7931A"/>
</linearGradient>
<linearGradient id="paint83_linear_303_92642" x1="54.5162" y1="71.3481" x2="59.6033" y2="59.9203" gradientUnits="userSpaceOnUse">
<stop stop-color="#E37F06"/>
<stop offset="0.99" stop-color="#F7931A"/>
</linearGradient>
<linearGradient id="paint84_linear_303_92642" x1="54.9341" y1="70.4371" x2="59.3338" y2="60.5573" gradientUnits="userSpaceOnUse">
<stop stop-color="#FFAC1C"/>
<stop offset="0.95" stop-color="#FF6100"/>
</linearGradient>
<linearGradient id="paint85_linear_303_92642" x1="55.0506" y1="70.0954" x2="59.1259" y2="60.9449" gradientUnits="userSpaceOnUse">
<stop stop-color="#FDC439"/>
<stop offset="1" stop-color="#D59C11"/>
</linearGradient>
<linearGradient id="paint86_linear_303_92642" x1="58.198" y1="63.6751" x2="59.5183" y2="60.6101" gradientUnits="userSpaceOnUse">
<stop stop-color="#FFCD25"/>
<stop offset="0.99" stop-color="white"/>
</linearGradient>
<linearGradient id="paint87_linear_303_92642" x1="58.851" y1="62.219" x2="59.6247" y2="60.4228" gradientUnits="userSpaceOnUse">
<stop stop-color="#FFCD25"/>
<stop offset="0.99" stop-color="white"/>
</linearGradient>
<linearGradient id="paint88_linear_303_92642" x1="8.30883" y1="120.814" x2="14.2753" y2="107.416" gradientUnits="userSpaceOnUse">
<stop stop-color="#FFAC1C"/>
<stop offset="1" stop-color="#F9D445"/>
</linearGradient>
<linearGradient id="paint89_linear_303_92642" x1="8.53625" y1="120.119" x2="14.4984" y2="106.731" gradientUnits="userSpaceOnUse">
<stop stop-color="#FFAC1C"/>
<stop offset="1" stop-color="#F9D445"/>
</linearGradient>
<linearGradient id="paint90_linear_303_92642" x1="8.82415" y1="119.509" x2="14.7906" y2="106.111" gradientUnits="userSpaceOnUse">
<stop stop-color="#FFB138"/>
<stop offset="1" stop-color="#F7931A"/>
</linearGradient>
<linearGradient id="paint91_linear_303_92642" x1="9.04758" y1="119.036" x2="14.7331" y2="106.264" gradientUnits="userSpaceOnUse">
<stop stop-color="#E37F06"/>
<stop offset="0.99" stop-color="#F7931A"/>
</linearGradient>
<linearGradient id="paint92_linear_303_92642" x1="9.51472" y1="118.018" x2="14.4321" y2="106.976" gradientUnits="userSpaceOnUse">
<stop stop-color="#FFAC1C"/>
<stop offset="0.95" stop-color="#FF6100"/>
</linearGradient>
<linearGradient id="paint93_linear_303_92642" x1="9.64487" y1="117.636" x2="14.1996" y2="107.409" gradientUnits="userSpaceOnUse">
<stop stop-color="#FDC439"/>
<stop offset="1" stop-color="#D59C11"/>
</linearGradient>
<linearGradient id="paint94_linear_303_92642" x1="13.1625" y1="110.46" x2="14.6381" y2="107.035" gradientUnits="userSpaceOnUse">
<stop stop-color="#FFCD25"/>
<stop offset="0.99" stop-color="white"/>
</linearGradient>
<linearGradient id="paint95_linear_303_92642" x1="13.8924" y1="108.833" x2="14.7571" y2="106.825" gradientUnits="userSpaceOnUse">
<stop stop-color="#FFCD25"/>
<stop offset="0.99" stop-color="white"/>
</linearGradient>
</defs>
</svg>
