<svg width="83" height="114" viewBox="0 0 83 114" fill="none" xmlns="http://www.w3.org/2000/svg">
<path d="M27.2526 110.904C26.8218 111.829 26.1137 112.612 25.2177 113.153C24.3217 113.693 23.2781 113.968 22.2189 113.942C21.1597 113.916 20.1324 113.59 19.2669 113.005C18.4014 112.421 17.7366 111.604 17.3565 110.659C16.9765 109.713 16.8982 108.681 17.1317 107.693C17.3651 106.705 17.8998 105.805 18.6681 105.107C19.4364 104.41 20.4038 103.945 21.448 103.773C22.4922 103.601 23.5663 103.729 24.5345 104.141C25.1775 104.414 25.7579 104.806 26.2425 105.294C26.7271 105.782 27.1064 106.356 27.3589 106.984C27.6113 107.612 27.7318 108.281 27.7136 108.954C27.6953 109.627 27.5387 110.289 27.2526 110.904Z" fill="#F6AE28"/>
<path style="mix-blend-mode:multiply" d="M27.2526 110.96C26.8218 111.886 26.1137 112.668 25.2177 113.209C24.3217 113.75 23.2781 114.024 22.2189 113.998C21.1597 113.972 20.1324 113.646 19.2669 113.062C18.4014 112.477 17.7366 111.661 17.3565 110.715C16.9765 109.769 16.8982 108.737 17.1317 107.749C17.3651 106.761 17.8998 105.861 18.6681 105.164C19.4364 104.466 20.4038 104.002 21.448 103.83C22.4922 103.658 23.5663 103.786 24.5345 104.197C25.1775 104.471 25.7579 104.862 26.2425 105.35C26.7271 105.838 27.1064 106.412 27.3589 107.04C27.6113 107.668 27.7318 108.338 27.7136 109.01C27.6953 109.683 27.5387 110.345 27.2526 110.96Z" fill="url(#paint0_linear_264_43239)"/>
<path style="mix-blend-mode:multiply" d="M27.0753 110.409C26.5552 111.628 25.5509 112.599 24.2826 113.111C23.0143 113.623 21.5855 113.633 20.3094 113.139C19.0703 112.565 18.1204 111.544 17.6684 110.301C17.2164 109.057 17.2994 107.693 17.8991 106.508C18.4193 105.289 19.4236 104.318 20.6919 103.806C21.9601 103.294 23.3889 103.284 24.665 103.778C25.9041 104.352 26.8541 105.373 27.306 106.616C27.758 107.86 27.675 109.224 27.0753 110.409Z" fill="url(#paint1_linear_264_43239)"/>
<path d="M27.547 110.184C27.1199 111.112 26.4141 111.899 25.5189 112.443C24.6238 112.988 23.5796 113.266 22.5189 113.243C21.4581 113.22 20.4285 112.896 19.5605 112.312C18.6926 111.729 18.0254 110.912 17.6436 109.965C17.2618 109.019 17.1825 107.985 17.4158 106.996C17.6491 106.006 18.1846 105.105 18.9542 104.407C19.7238 103.708 20.693 103.244 21.7388 103.073C22.7847 102.902 23.8601 103.032 24.8288 103.446C26.1208 103.998 27.1319 105.017 27.6411 106.279C28.1504 107.541 28.1165 108.945 27.547 110.184Z" fill="url(#paint2_linear_264_43239)"/>
<path style="mix-blend-mode:screen" d="M27.3574 110.008C26.9488 110.891 26.2757 111.638 25.4232 112.156C24.5707 112.673 23.577 112.937 22.5676 112.915C21.5582 112.892 20.5783 112.585 19.7517 112.03C18.9252 111.476 18.2889 110.7 17.9234 109.8C17.5579 108.9 17.4795 107.917 17.698 106.974C17.9166 106.032 18.4224 105.173 19.1515 104.505C19.8806 103.837 20.8003 103.391 21.7945 103.222C22.7887 103.054 23.8128 103.171 24.7375 103.559C25.3533 103.817 25.9096 104.189 26.3748 104.653C26.8399 105.117 27.2046 105.664 27.448 106.264C27.6914 106.863 27.8087 107.502 27.7931 108.145C27.7776 108.787 27.6295 109.421 27.3574 110.008Z" fill="url(#paint3_linear_264_43239)"/>
<path d="M26.7351 109.708C26.3795 110.472 25.7951 111.118 25.0555 111.564C24.316 112.01 23.4547 112.237 22.5805 112.215C21.7063 112.193 20.8585 111.924 20.1444 111.441C19.4302 110.959 18.8818 110.285 18.5684 109.504C18.255 108.724 18.1908 107.872 18.3839 107.056C18.5769 106.241 19.0186 105.498 19.653 104.923C20.2874 104.348 21.0861 103.965 21.948 103.824C22.8099 103.682 23.6963 103.788 24.4951 104.128C25.5658 104.585 26.4033 105.428 26.8233 106.475C27.2434 107.521 27.2116 108.684 26.7351 109.708Z" fill="url(#paint4_linear_264_43239)"/>
<path d="M26.3812 109.583C26.0527 110.288 25.5127 110.885 24.8294 111.298C24.146 111.711 23.3501 111.92 22.5422 111.9C21.7343 111.881 20.9506 111.632 20.2904 111.187C19.6301 110.741 19.1228 110.118 18.8326 109.397C18.5424 108.676 18.4824 107.889 18.6601 107.135C18.8378 106.381 19.2452 105.695 19.8309 105.163C20.4166 104.63 21.1543 104.276 21.9506 104.144C22.747 104.012 23.5663 104.109 24.305 104.423C24.7958 104.631 25.239 104.93 25.609 105.302C25.9791 105.674 26.2688 106.112 26.4616 106.591C26.6544 107.07 26.7466 107.581 26.7328 108.095C26.719 108.608 26.5995 109.113 26.3812 109.583Z" fill="url(#paint5_linear_264_43239)"/>
<path opacity="0.5" d="M18.2792 110.459C18.7532 111.345 19.5331 112.046 20.4864 112.444C22.6806 113.377 23.9054 112.789 23.9054 112.789C21.7822 112.751 19.7602 111.914 18.2792 110.459Z" fill="white"/>
<path opacity="0.3" d="M25.8768 106.796C25.582 107.422 24.3638 107.516 23.1455 106.996C21.9273 106.477 21.1806 105.55 21.4688 104.924C21.757 104.298 22.9818 104.21 24.2 104.73C25.4183 105.249 26.1649 106.17 25.8768 106.796Z" fill="url(#paint6_linear_264_43239)"/>
<path opacity="0.7" d="M24.0035 105.105C25.0908 105.569 25.8047 106.358 25.7392 106.984C25.7885 106.932 25.8283 106.873 25.8571 106.808C26.1518 106.182 25.3986 105.256 24.1869 104.736C22.9752 104.216 21.7439 104.304 21.4557 104.93C21.423 104.997 21.4031 105.069 21.3967 105.143C21.829 104.698 22.9163 104.642 24.0035 105.105Z" fill="url(#paint7_linear_264_43239)"/>
<path opacity="0.5" d="M27.1013 105.6C26.6382 104.718 25.8698 104.017 24.9268 103.615C22.7327 102.682 21.5144 103.271 21.5144 103.271C23.6244 103.316 25.6312 104.152 27.1013 105.6Z" fill="white"/>
<path fill-rule="evenodd" clip-rule="evenodd" d="M22.7609 106.866L21.5733 108.001L20.8824 107.34L22.7609 105.544L24.64 107.341L23.949 108.001L22.7609 106.866ZM20.3945 107.807L19.7035 108.467L20.3944 109.128L21.0854 108.467L20.3945 107.807ZM22.7609 110.069L21.5733 108.934L20.8814 109.594L20.8824 109.594L22.7609 111.39L24.64 109.594L24.6403 109.594L23.949 108.933L22.7609 110.069ZM25.1273 107.807L24.4363 108.468L25.1273 109.128L25.8183 108.468L25.1273 107.807ZM22.7609 107.632L23.6336 108.467L23.6344 108.467L23.634 108.468L22.7609 109.302L21.8886 108.468L21.8873 108.467L21.8886 108.466L22.0415 108.32L22.1156 108.249L22.7609 107.632Z" fill="#FF7708"/>
<path d="M21.355 107.876L22.5425 106.74L23.7306 107.876L24.4216 107.216L22.5425 105.419L20.664 107.215L21.355 107.876ZM19.4851 108.342L20.1761 107.681L20.8671 108.342L20.1761 109.003L19.4851 108.342ZM21.355 108.809L22.5425 109.944L23.7306 108.808L24.4219 109.468L24.4216 109.469L22.5425 111.265L20.664 109.469L20.6631 109.468L21.355 108.809L21.355 108.809ZM24.218 108.342L24.909 107.682L25.5999 108.342L24.9089 109.003L24.218 108.342Z" fill="white"/>
<path d="M23.4152 108.342H23.4155L22.5425 107.507L21.8972 108.124L21.8231 108.195L21.6702 108.341L21.6689 108.342L21.6702 108.343L22.5425 109.177L23.4156 108.342L23.416 108.342L23.4152 108.342" fill="white"/>
<path d="M69.7091 99.652C68.965 101.251 67.7418 102.602 66.1942 103.536C64.6466 104.47 62.844 104.945 61.0145 104.899C59.1849 104.854 57.4105 104.291 55.9155 103.282C54.4206 102.272 53.2723 100.862 52.6158 99.2285C51.9593 97.5952 51.8242 95.8124 52.2274 94.1057C52.6307 92.3989 53.5542 90.8448 54.8812 89.6398C56.2083 88.4349 57.8793 87.6331 59.6829 87.3361C61.4865 87.039 63.3418 87.2598 65.0141 87.9707C66.1247 88.4429 67.1272 89.1196 67.9643 89.9622C68.8013 90.8048 69.4566 91.7968 69.8926 92.8815C70.3285 93.9663 70.5367 95.1225 70.5053 96.2842C70.4738 97.4459 70.2032 98.5903 69.7091 99.652Z" fill="#F6AE28"/>
<path style="mix-blend-mode:multiply" d="M69.7091 99.7494C68.965 101.348 67.7418 102.7 66.1942 103.634C64.6466 104.568 62.844 105.042 61.0145 104.997C59.1849 104.952 57.4105 104.389 55.9155 103.379C54.4206 102.37 53.2723 100.959 52.6158 99.3259C51.9593 97.6926 51.8242 95.9099 52.2274 94.2031C52.6307 92.4964 53.5542 90.9422 54.8812 89.7373C56.2083 88.5323 57.8793 87.7306 59.6829 87.4335C61.4865 87.1364 63.3418 87.3572 65.0141 88.0682C66.1247 88.5403 67.1272 89.217 67.9643 90.0596C68.8013 90.9022 69.4566 91.8942 69.8926 92.979C70.3285 94.0637 70.5367 95.2199 70.5053 96.3816C70.4738 97.5433 70.2032 98.6877 69.7091 99.7494Z" fill="url(#paint8_linear_264_43239)"/>
<path style="mix-blend-mode:multiply" d="M69.4027 98.7976C68.5043 100.902 66.7696 102.581 64.5789 103.465C62.3883 104.349 59.9204 104.366 57.7162 103.513C55.5759 102.522 53.9351 100.758 53.1544 98.6103C52.3737 96.4624 52.5171 94.1061 53.553 92.0592C54.4514 89.9545 56.1861 88.2762 58.3768 87.3922C60.5674 86.5082 63.0353 86.4907 65.2395 87.3435C67.3798 88.3351 69.0206 90.0987 69.8013 92.2466C70.582 94.3944 70.4386 96.7507 69.4027 98.7976Z" fill="url(#paint9_linear_264_43239)"/>
<path d="M70.2174 98.4082C69.4797 100.012 68.2606 101.371 66.7144 102.311C65.1682 103.252 63.3647 103.733 61.5325 103.692C59.7002 103.652 57.9218 103.092 56.4226 102.085C54.9234 101.077 53.771 99.6659 53.1115 98.0311C52.452 96.3963 52.3151 94.6111 52.7181 92.9018C53.1211 91.1925 54.0459 89.6361 55.3753 88.43C56.7046 87.2238 58.3787 86.4221 60.1852 86.1267C61.9916 85.8312 63.8492 86.0552 65.5224 86.7702C67.754 87.724 69.5004 89.4831 70.38 91.6636C71.2596 93.8441 71.2012 96.2688 70.2174 98.4082Z" fill="url(#paint10_linear_264_43239)"/>
<path style="mix-blend-mode:screen" d="M69.8901 98.1054C69.1842 99.6301 68.0217 100.921 66.5492 101.814C65.0767 102.708 63.3603 103.164 61.6168 103.125C59.8732 103.087 58.1807 102.555 56.753 101.598C55.3252 100.64 54.2263 99.2994 53.595 97.7451C52.9636 96.1909 52.8282 94.4926 53.2057 92.8648C53.5832 91.237 54.4568 89.7526 55.7162 88.5991C56.9755 87.4457 58.5642 86.6748 60.2814 86.384C61.9987 86.0931 63.7676 86.2953 65.3648 86.965C66.4283 87.4109 67.3894 88.0531 68.1927 88.8548C68.9961 89.6566 69.6261 90.602 70.0465 91.637C70.4669 92.672 70.6695 93.7761 70.6427 94.8861C70.6158 95.9961 70.3601 97.0901 69.8901 98.1054Z" fill="url(#paint11_linear_264_43239)"/>
<path d="M68.8151 97.5862C68.201 98.9056 67.1915 100.021 65.9141 100.792C64.6368 101.563 63.149 101.954 61.6391 101.916C60.1291 101.879 58.6647 101.414 57.4312 100.58C56.1976 99.7469 55.2503 98.5825 54.7091 97.2343C54.1678 95.8861 54.0569 94.4147 54.3903 93.0063C54.7238 91.5978 55.4867 90.3155 56.5825 89.3216C57.6783 88.3277 59.0578 87.6668 60.5465 87.4225C62.0352 87.1783 63.5663 87.3615 64.946 87.9492C66.7955 88.737 68.242 90.1947 68.9676 92.0019C69.6931 93.809 69.6383 95.8177 68.8151 97.5862Z" fill="url(#paint12_linear_264_43239)"/>
<path d="M68.2039 97.3698C67.6365 98.5892 66.7037 99.6203 65.5234 100.333C64.3431 101.046 62.9683 101.408 61.5728 101.373C60.1773 101.339 58.8238 100.91 57.6833 100.14C56.5428 99.3709 55.6666 98.2953 55.1653 97.0497C54.6641 95.8041 54.5604 94.4444 54.8673 93.1425C55.1743 91.8406 55.878 90.6548 56.8897 89.7352C57.9013 88.8156 59.1755 88.2034 60.551 87.976C61.9265 87.7486 63.3417 87.9161 64.6176 88.4575C65.4655 88.8172 66.2309 89.3332 66.87 89.9759C67.5092 90.6186 68.0096 91.3754 68.3427 92.2031C68.6757 93.0308 68.8349 93.9131 68.8111 94.7997C68.7873 95.6862 68.581 96.5596 68.2039 97.3698Z" fill="url(#paint13_linear_264_43239)"/>
<path opacity="0.5" d="M54.2096 98.8842C55.0283 100.414 56.3754 101.625 58.0221 102.313C61.812 103.924 63.9276 102.908 63.9276 102.908C60.2602 102.843 56.7676 101.397 54.2096 98.8842Z" fill="white"/>
<path opacity="0.3" d="M67.3326 92.5568C66.8235 93.6384 64.7192 93.8006 62.615 92.9029C60.5107 92.0052 59.221 90.4044 59.7188 89.3228C60.2166 88.2412 62.3322 88.0898 64.4364 88.9875C66.5407 89.8852 67.8304 91.4752 67.3326 92.5568Z" fill="url(#paint14_linear_264_43239)"/>
<path opacity="0.7" d="M64.097 89.6364C65.975 90.4368 67.2081 91.7996 67.095 92.8812C67.1801 92.7918 67.2489 92.6895 67.2986 92.5783C67.8077 91.4967 66.5067 89.896 64.4138 88.9983C62.3208 88.1005 60.194 88.252 59.6962 89.3336C59.6398 89.4494 59.6053 89.5739 59.5944 89.7013C60.341 88.9334 62.219 88.836 64.097 89.6364Z" fill="url(#paint15_linear_264_43239)"/>
<path opacity="0.5" d="M69.4479 90.4909C68.6479 88.9675 67.3207 87.7559 65.6919 87.0623C61.902 85.4507 59.7977 86.4674 59.7977 86.4674C63.4423 86.5451 66.9086 87.9903 69.4479 90.4909Z" fill="white"/>
<path fill-rule="evenodd" clip-rule="evenodd" d="M61.9506 92.6768L59.8994 94.6378L58.706 93.4967L61.9506 90.3947L65.1963 93.4977L64.0028 94.6387L61.9506 92.6768ZM57.8632 94.3023L56.6697 95.4436L57.8631 96.5844L59.0567 95.4433L57.8632 94.3023ZM61.9506 98.2103L59.8994 96.2494L58.7043 97.3888L58.706 97.3904L61.9506 100.492L65.1963 97.3895L65.1969 97.3889L64.0028 96.2485L61.9506 98.2103ZM66.0381 94.303L64.8446 95.444L66.0381 96.585L67.2316 95.444L66.0381 94.303ZM61.9507 94.001L63.458 95.4428L63.4595 95.4435L63.4587 95.4443L61.9507 96.8861L60.4439 95.4454L60.4418 95.4433L60.4439 95.4414L60.708 95.1888L60.836 95.0663L61.9507 94.001Z" fill="#FF7708"/>
<path d="M59.5221 94.4215L61.5733 92.4604L63.6255 94.4223L64.819 93.2813L61.5733 90.1783L58.3287 93.2804L59.5221 94.4215ZM56.2924 95.2272L57.4859 94.086L58.6794 95.227L57.4858 96.368L56.2924 95.2272ZM59.5221 96.033L61.5733 97.994L63.6255 96.0321L64.8196 97.1725L64.819 97.1731L61.5733 100.276L58.3287 97.174L58.327 97.1724L59.5222 96.0329L59.5221 96.033ZM64.4673 95.2277L65.6608 94.0866L66.8543 95.2276L65.6608 96.3687L64.4673 95.2277Z" fill="white"/>
<path d="M63.0808 95.2264H63.0814L61.5734 93.7847L60.4588 94.85L60.3308 94.9724L60.0667 95.225L60.0646 95.2269L60.0667 95.229L61.5734 96.6697L63.0815 95.228L63.0823 95.2271L63.0809 95.2264" fill="white"/>
<path d="M22.4373 16.526C21.5366 18.4612 20.0559 20.0976 18.1825 21.2283C16.309 22.359 14.127 22.9332 11.9123 22.8783C9.6975 22.8234 7.54949 22.142 5.73983 20.92C3.93017 19.6981 2.54012 17.9906 1.74545 16.0134C0.950772 14.0363 0.787157 11.8782 1.27529 9.81214C1.76343 7.74607 2.88139 5.86477 4.48782 4.40611C6.09425 2.94746 8.11701 1.97695 10.3003 1.61731C12.4837 1.25767 14.7295 1.52504 16.7539 2.38562C18.0984 2.95716 19.3119 3.77632 20.3252 4.79631C21.3385 5.81631 22.1316 7.01716 22.6594 8.33027C23.1872 9.64338 23.4392 11.043 23.4011 12.4493C23.363 13.8555 23.0355 15.2408 22.4373 16.526Z" fill="#F6AE28"/>
<path style="mix-blend-mode:multiply" d="M22.4373 16.644C21.5366 18.5791 20.0559 20.2155 18.1825 21.3462C16.309 22.4769 14.127 23.0511 11.9123 22.9962C9.6975 22.9414 7.54949 22.2599 5.73983 21.038C3.93017 19.816 2.54012 18.1085 1.74545 16.1314C0.950772 14.1542 0.787157 11.9961 1.27529 9.93006C1.76343 7.86399 2.88139 5.98269 4.48782 4.52403C6.09425 3.06538 8.11701 2.09487 10.3003 1.73523C12.4837 1.37559 14.7295 1.64296 16.7539 2.50354C18.0984 3.07508 19.3119 3.89424 20.3252 4.91424C21.3385 5.93423 22.1316 7.13508 22.6594 8.44819C23.1872 9.7613 23.4392 11.1609 23.4011 12.5672C23.363 13.9734 23.0355 15.3587 22.4373 16.644Z" fill="url(#paint16_linear_264_43239)"/>
<path style="mix-blend-mode:multiply" d="M22.0665 15.4918C20.9789 18.0397 18.879 20.0713 16.2272 21.1414C13.5753 22.2115 10.5879 22.2327 7.91968 21.2003C5.32881 19.9999 3.34255 17.8651 2.39751 15.2651C1.45247 12.665 1.626 9.81264 2.87995 7.33489C3.96755 4.78702 6.06744 2.75536 8.7193 1.68529C11.3712 0.615206 14.3586 0.594014 17.0268 1.62635C19.6177 2.82676 21.6039 4.96162 22.549 7.56164C23.494 10.1617 23.3205 13.0141 22.0665 15.4918Z" fill="url(#paint17_linear_264_43239)"/>
<path d="M23.0526 15.0204C22.1597 16.9621 20.6839 18.6066 18.8122 19.7454C16.9405 20.8842 14.7573 21.4661 12.5393 21.4172C10.3213 21.3683 8.16849 20.6909 6.35369 19.4708C4.5389 18.2508 3.1439 16.543 2.34555 14.564C1.54719 12.585 1.38144 10.424 1.8693 8.35487C2.35716 6.28572 3.47667 4.40167 5.08589 2.94155C6.69511 1.48144 8.72158 0.511023 10.9084 0.153333C13.0952 -0.204356 15.3438 0.0667881 17.3692 0.932392C20.0707 2.08693 22.1847 4.21645 23.2495 6.85598C24.3143 9.49551 24.2436 12.4306 23.0526 15.0204Z" fill="url(#paint18_linear_264_43239)"/>
<path style="mix-blend-mode:screen" d="M22.6565 14.6538C21.802 16.4995 20.3947 18.0618 18.6122 19.1434C16.8297 20.2249 14.752 20.7772 12.6414 20.7305C10.5308 20.6839 8.48196 20.0403 6.75366 18.8812C5.02536 17.722 3.69508 16.0993 2.93082 14.2178C2.16655 12.3363 2.00258 10.2805 2.4596 8.30998C2.91662 6.33946 3.97414 4.54259 5.49861 3.1463C7.02309 1.75001 8.94615 0.816899 11.025 0.464813C13.1038 0.112728 15.2451 0.357453 17.1785 1.16809C18.4659 1.70788 19.6293 2.48532 20.6018 3.45584C21.5743 4.42636 22.3369 5.57086 22.8458 6.82373C23.3547 8.07659 23.6 9.41317 23.5675 10.7568C23.535 12.1005 23.2254 13.4248 22.6565 14.6538Z" fill="url(#paint19_linear_264_43239)"/>
<path d="M21.3551 14.0255C20.6117 15.6226 19.3896 16.9731 17.8434 17.9061C16.2971 18.8391 14.4962 19.3128 12.6683 19.2672C10.8404 19.2216 9.0678 18.6587 7.57455 17.6499C6.08131 16.641 4.93455 15.2314 4.27932 13.5994C3.62409 11.9674 3.48982 10.1863 3.8935 8.48129C4.29718 6.77631 5.22067 5.22408 6.54717 4.02093C7.87367 2.81778 9.54359 2.01776 11.3457 1.72204C13.1478 1.42632 15.0012 1.6482 16.6714 2.35961C18.9102 3.31322 20.6613 5.07782 21.5396 7.26544C22.4179 9.45307 22.3515 11.8846 21.3551 14.0255Z" fill="url(#paint20_linear_264_43239)"/>
<path d="M20.6154 13.7635C19.9285 15.2396 18.7993 16.4878 17.3705 17.3504C15.9417 18.2131 14.2775 18.6513 12.5882 18.6099C10.8989 18.5684 9.26045 18.049 7.87986 17.1174C6.49927 16.1859 5.43856 14.8839 4.83182 13.376C4.22508 11.8682 4.09954 10.2222 4.47108 8.64622C4.84262 7.07019 5.69455 5.63486 6.91919 4.52165C8.14383 3.40845 9.68618 2.66734 11.3513 2.39203C13.0164 2.11672 14.7295 2.31956 16.2741 2.9749C17.3004 3.41037 18.2269 4.03496 19.0007 4.81296C19.7744 5.59096 20.3802 6.50711 20.7833 7.50906C21.1865 8.511 21.3792 9.57909 21.3504 10.6523C21.3216 11.7254 21.0718 12.7827 20.6154 13.7635Z" fill="url(#paint21_linear_264_43239)"/>
<path opacity="0.5" d="M3.6748 15.5966C4.66591 17.4479 6.29656 18.9144 8.28999 19.747C12.8778 21.6979 15.4387 20.4671 15.4387 20.4671C10.9992 20.3894 6.7714 18.639 3.6748 15.5966Z" fill="white"/>
<path opacity="0.3" d="M19.5605 7.93714C18.9442 9.24644 16.397 9.44284 13.8497 8.35612C11.3025 7.2694 9.74125 5.33164 10.3438 4.02234C10.9464 2.71305 13.5074 2.52975 16.0546 3.61646C18.6019 4.70318 20.1631 6.62785 19.5605 7.93714Z" fill="url(#paint22_linear_264_43239)"/>
<path opacity="0.7" d="M15.6438 4.40195C17.9172 5.37083 19.4099 7.02054 19.273 8.32984C19.376 8.22166 19.4593 8.09775 19.5195 7.96324C20.1357 6.65394 18.5608 4.71618 16.0273 3.62946C13.4937 2.54275 10.9191 2.72605 10.3165 4.03534C10.2482 4.1756 10.2065 4.32632 10.1932 4.48051C11.0971 3.55091 13.3705 3.43307 15.6438 4.40195Z" fill="url(#paint23_linear_264_43239)"/>
<path opacity="0.5" d="M22.1211 5.43635C21.1527 3.59214 19.546 2.12553 17.5744 1.28587C12.9866 -0.66498 10.4393 0.56576 10.4393 0.56576C14.8511 0.659819 19.0472 2.40931 22.1211 5.43635Z" fill="white"/>
<path fill-rule="evenodd" clip-rule="evenodd" d="M13.0455 8.08246L10.5624 10.4564L9.11775 9.07501L13.0455 5.31995L16.9744 9.07614L15.5297 10.4574L13.0455 8.08246ZM8.09752 10.0502L6.65271 11.4317L8.09742 12.8127L9.54223 11.4314L8.09752 10.0502ZM13.0455 14.781L10.5624 12.4072L9.11571 13.7865L9.11775 13.7884L13.0455 17.5435L16.9744 13.7873L16.9751 13.7866L15.5296 12.4061L13.0455 14.781ZM17.9935 10.051L16.5487 11.4323L17.9934 12.8135L19.4382 11.4322L17.9935 10.051ZM13.0455 9.68549L14.8702 11.4308L14.8719 11.4316L14.8711 11.4326L13.0455 13.1779L11.2215 11.4339L11.219 11.4314L11.2215 11.429L11.5412 11.1233L11.6962 10.9751L13.0455 9.68549Z" fill="#FF7708"/>
<path d="M10.1057 10.1944L12.5888 7.8205L15.073 10.1954L16.5178 8.81418L12.5888 5.05798L8.66109 8.81305L10.1057 10.1944ZM6.19604 11.1697L7.64086 9.78825L9.08556 11.1695L7.64075 12.5508L6.19604 11.1697ZM10.1057 12.1452L12.5888 14.519L15.073 12.1441L16.5185 13.5246L16.5178 13.5254L12.5888 17.2815L8.66109 13.5264L8.65904 13.5245L10.1059 12.1451L10.1057 12.1452ZM16.092 11.1703L17.5368 9.78903L18.9815 11.1702L17.5368 12.5515L16.092 11.1703Z" fill="white"/>
<path d="M14.4135 11.1689H14.4143L12.5889 9.42358L11.2396 10.7132L11.0846 10.8614L10.7649 11.1671L10.7623 11.1695L10.7649 11.172L12.5889 12.916L14.4144 11.1707L14.4153 11.1697L14.4137 11.1689" fill="white"/>
<path d="M81.5732 67.089C80.7508 68.8559 79.3989 70.35 77.6883 71.3824C75.9778 72.4147 73.9855 72.939 71.9634 72.8889C69.9412 72.8388 67.98 72.2166 66.3277 71.1009C64.6754 69.9853 63.4062 68.4262 62.6806 66.621C61.9551 64.8158 61.8057 62.8454 62.2514 60.9589C62.697 59.0725 63.7178 57.3548 65.1845 56.023C66.6513 54.6912 68.4981 53.8051 70.4916 53.4767C72.4851 53.1483 74.5356 53.3925 76.384 54.1782C77.6116 54.7001 78.7196 55.448 79.6447 56.3793C80.5699 57.3106 81.2941 58.407 81.776 59.6059C82.2579 60.8049 82.488 62.0828 82.4532 63.3668C82.4184 64.6507 82.1194 65.9156 81.5732 67.089Z" fill="#F6AE28"/>
<path style="mix-blend-mode:multiply" d="M81.5732 67.1967C80.7508 68.9636 79.3989 70.4577 77.6883 71.49C75.9778 72.5224 73.9855 73.0467 71.9634 72.9966C69.9412 72.9465 67.98 72.3243 66.3277 71.2086C64.6754 70.0929 63.4062 68.5339 62.6806 66.7287C61.9551 64.9234 61.8057 62.953 62.2514 61.0666C62.697 59.1802 63.7178 57.4625 65.1845 56.1307C66.6513 54.7989 68.4981 53.9127 70.4916 53.5844C72.4851 53.256 74.5356 53.5001 76.384 54.2859C77.6116 54.8077 78.7196 55.5556 79.6447 56.4869C80.5699 57.4182 81.2941 58.5147 81.776 59.7136C82.2579 60.9125 82.488 62.1905 82.4532 63.4744C82.4184 64.7584 82.1194 66.0232 81.5732 67.1967Z" fill="url(#paint24_linear_264_43239)"/>
<path style="mix-blend-mode:multiply" d="M81.2346 66.1447C80.2416 68.471 78.3243 70.326 75.903 71.303C73.4818 72.28 70.7541 72.2994 68.318 71.3568C65.9524 70.2608 64.1388 68.3116 63.276 65.9376C62.4131 63.5637 62.5715 60.9593 63.7165 58.697C64.7095 56.3707 66.6268 54.5157 69.048 53.5387C71.4693 52.5617 74.197 52.5423 76.6331 53.4849C78.9987 54.5809 80.8123 56.5301 81.6751 58.9041C82.538 61.278 82.3795 63.8824 81.2346 66.1447Z" fill="url(#paint25_linear_264_43239)"/>
<path d="M82.135 65.7143C81.3197 67.4872 79.9722 68.9886 78.2633 70.0284C76.5544 71.0682 74.561 71.5995 72.5359 71.5548C70.5108 71.5102 68.5451 70.8917 66.8881 69.7777C65.2312 68.6637 63.9575 67.1045 63.2285 65.2976C62.4996 63.4907 62.3483 61.5176 62.7937 59.6284C63.2391 57.7391 64.2613 56.0189 65.7306 54.6858C67.1999 53.3526 69.0501 52.4666 71.0468 52.14C73.0434 51.8134 75.0965 52.061 76.9458 52.8513C79.4124 53.9054 81.3425 55.8498 82.3148 58.2598C83.287 60.6698 83.2224 63.3497 82.135 65.7143Z" fill="url(#paint26_linear_264_43239)"/>
<path style="mix-blend-mode:screen" d="M81.7733 65.3796C80.9932 67.0648 79.7083 68.4912 78.0808 69.4787C76.4533 70.4662 74.5562 70.9705 72.6291 70.9279C70.7021 70.8853 68.8314 70.2977 67.2534 69.2394C65.6754 68.181 64.4608 66.6993 63.763 64.9815C63.0652 63.2636 62.9154 61.3865 63.3327 59.5874C63.75 57.7882 64.7156 56.1476 66.1075 54.8727C67.4994 53.5978 69.2552 52.7459 71.1533 52.4244C73.0513 52.1029 75.0064 52.3264 76.7717 53.0665C77.9472 53.5594 79.0094 54.2692 79.8973 55.1553C80.7853 56.0415 81.4816 57.0864 81.9462 58.2304C82.4109 59.3743 82.6348 60.5946 82.6051 61.8215C82.5755 63.0483 82.2928 64.2574 81.7733 65.3796Z" fill="url(#paint27_linear_264_43239)"/>
<path d="M80.585 64.8058C79.9063 66.2641 78.7905 67.4971 77.3787 68.349C75.9669 69.2009 74.3225 69.6334 72.6536 69.5918C70.9847 69.5501 69.3662 69.0362 68.0028 68.1151C66.6394 67.194 65.5924 65.907 64.9941 64.4169C64.3959 62.9267 64.2733 61.3005 64.6419 59.7438C65.0104 58.1871 65.8536 56.7698 67.0648 55.6713C68.2759 54.5728 69.8006 53.8423 71.446 53.5723C73.0915 53.3023 74.7837 53.5049 76.3087 54.1544C78.3528 55.0251 79.9516 56.6363 80.7535 58.6337C81.5554 60.6311 81.4948 62.8512 80.585 64.8058Z" fill="url(#paint28_linear_264_43239)"/>
<path d="M79.9096 64.5667C79.2825 65.9144 78.2515 67.0541 76.9469 67.8417C75.6424 68.6293 74.1229 69.0295 72.5805 68.9916C71.0381 68.9537 69.5421 68.4795 68.2816 67.629C67.021 66.7784 66.0526 65.5896 65.4986 64.2129C64.9446 62.8362 64.83 61.3333 65.1692 59.8944C65.5084 58.4554 66.2863 57.1449 67.4044 56.1284C68.5226 55.112 69.9308 54.4354 71.4511 54.184C72.9715 53.9326 74.5356 54.1178 75.9459 54.7162C76.883 55.1138 77.7289 55.6841 78.4354 56.3944C79.1418 57.1048 79.6949 57.9413 80.063 58.8561C80.4311 59.7709 80.6071 60.7461 80.5807 61.726C80.5544 62.7058 80.3264 63.6711 79.9096 64.5667Z" fill="url(#paint29_linear_264_43239)"/>
<path opacity="0.5" d="M64.4421 66.2404C65.3471 67.9307 66.8359 69.2697 68.656 70.0299C72.8449 71.8111 75.1831 70.6874 75.1831 70.6874C71.1297 70.6164 67.2695 69.0182 64.4421 66.2404Z" fill="white"/>
<path opacity="0.3" d="M78.9465 59.247C78.3839 60.4424 76.0581 60.6217 73.7324 59.6295C71.4066 58.6373 69.9811 56.868 70.5313 55.6726C71.0815 54.4771 73.4198 54.3098 75.7455 55.302C78.0713 56.2942 79.4967 58.0515 78.9465 59.247Z" fill="url(#paint30_linear_264_43239)"/>
<path opacity="0.7" d="M75.3704 56.0192C77.4461 56.9038 78.809 58.4101 78.684 59.6055C78.778 59.5068 78.8541 59.3936 78.909 59.2708C79.4717 58.0754 78.0338 56.3061 75.7205 55.3139C73.4073 54.3217 71.0565 54.489 70.5063 55.6845C70.444 55.8125 70.4059 55.9502 70.3938 56.0909C71.2191 55.2422 73.2947 55.1346 75.3704 56.0192Z" fill="url(#paint31_linear_264_43239)"/>
<path opacity="0.5" d="M81.2845 56.9636C80.4003 55.2798 78.9334 53.9407 77.1331 53.1741C72.9443 51.3929 70.6185 52.5166 70.6185 52.5166C74.6467 52.6025 78.4779 54.1998 81.2845 56.9636Z" fill="white"/>
<path fill-rule="evenodd" clip-rule="evenodd" d="M72.998 59.3797L70.7309 61.5471L69.4118 60.2859L72.998 56.8574L76.5853 60.2869L75.2662 61.5481L72.998 59.3797ZM68.4803 61.1763L67.1611 62.4377L68.4802 63.6986L69.7994 62.4374L68.4803 61.1763ZM72.998 65.4957L70.7309 63.3283L69.41 64.5876L69.4118 64.5894L72.998 68.018L76.5853 64.5885L76.586 64.5878L75.2661 63.3273L72.998 65.4957ZM77.5158 61.177L76.1966 62.4382L77.5157 63.6993L78.8348 62.4381L77.5158 61.177ZM72.998 60.8433L74.664 62.4368L74.6657 62.4376L74.6648 62.4385L72.998 64.032L71.3326 62.4397L71.3303 62.4374L71.3326 62.4352L71.6245 62.1561L71.7661 62.0207L72.998 60.8433Z" fill="#FF7708"/>
<path d="M70.314 61.3079L72.5811 59.1405L74.8493 61.3089L76.1684 60.0477L72.5811 56.6182L68.995 60.0467L70.314 61.3079ZM66.7443 62.1985L68.0634 60.9371L69.3825 62.1982L68.0633 63.4594L66.7443 62.1985ZM70.314 63.0891L72.5811 65.2565L74.8493 63.0881L76.1691 64.3486L76.1684 64.3493L72.5811 67.7788L68.995 64.3502L68.9931 64.3485L70.3141 63.089L70.314 63.0891ZM75.7797 62.199L77.0989 60.9378L78.418 62.1989L77.0988 63.4601L75.7797 62.199Z" fill="white"/>
<path d="M74.2472 62.1977H74.2479L72.5812 60.6041L71.3492 61.7816L71.2077 61.9169L70.9158 62.1961L70.9135 62.1982L70.9158 62.2005L72.5812 63.7929L74.248 62.1993L74.2488 62.1984L74.2473 62.1977" fill="white"/>
<path d="M61.845 40.2149C61.1792 41.6452 60.0848 42.8547 58.7001 43.6905C57.3154 44.5262 55.7026 44.9506 54.0656 44.91C52.4286 44.8695 50.8409 44.3658 49.5034 43.4626C48.1658 42.5595 47.1384 41.2974 46.551 39.836C45.9636 38.3746 45.8427 36.7795 46.2035 35.2524C46.5643 33.7253 47.3906 32.3348 48.578 31.2567C49.7653 30.1785 51.2604 29.4612 52.8742 29.1954C54.4879 28.9296 56.1479 29.1272 57.6442 29.7633C58.6379 30.1857 59.5349 30.7912 60.2838 31.5451C61.0328 32.299 61.619 33.1866 62.0091 34.1571C62.3992 35.1277 62.5855 36.1622 62.5573 37.2016C62.5292 38.241 62.2871 39.2649 61.845 40.2149Z" fill="#F6AE28"/>
<path style="mix-blend-mode:multiply" d="M61.845 40.302C61.1792 41.7324 60.0848 42.9419 58.7001 43.7776C57.3154 44.6133 55.7026 45.0378 54.0656 44.9972C52.4286 44.9567 50.8409 44.4529 49.5034 43.5498C48.1658 42.6466 47.1384 41.3846 46.551 39.9232C45.9636 38.4618 45.8427 36.8667 46.2035 35.3396C46.5643 33.8125 47.3906 32.422 48.578 31.3438C49.7653 30.2657 51.2604 29.5484 52.8742 29.2826C54.4879 29.0167 56.1479 29.2144 57.6442 29.8504C58.6379 30.2729 59.5349 30.8783 60.2838 31.6323C61.0328 32.3862 61.619 33.2737 62.0091 34.2443C62.3992 35.2149 62.5855 36.2494 62.5573 37.2888C62.5292 38.3282 62.2871 39.3521 61.845 40.302Z" fill="url(#paint32_linear_264_43239)"/>
<path style="mix-blend-mode:multiply" d="M61.5708 39.4505C60.767 41.3337 59.2149 42.8354 57.2548 43.6263C55.2947 44.4172 53.0866 44.4329 51.1145 43.6698C49.1995 42.7826 47.7314 41.2046 47.0329 39.2829C46.3344 37.3611 46.4626 35.2528 47.3895 33.4215C48.1934 31.5382 49.7455 30.0366 51.7055 29.2457C53.6656 28.4547 55.8737 28.4391 57.8458 29.2021C59.7608 30.0894 61.2289 31.6673 61.9274 33.5891C62.6259 35.5108 62.4977 37.6191 61.5708 39.4505Z" fill="url(#paint33_linear_264_43239)"/>
<path d="M62.2997 39.102C61.6398 40.5372 60.5489 41.7527 59.1655 42.5944C57.7821 43.4362 56.1684 43.8662 54.529 43.8301C52.8897 43.794 51.2984 43.2933 49.957 42.3915C48.6157 41.4897 47.5846 40.2274 46.9945 38.7647C46.4044 37.302 46.2819 35.7047 46.6425 34.1753C47.0031 32.646 47.8306 31.2534 49.02 30.1742C50.2094 29.095 51.7072 28.3777 53.3235 28.1133C54.9399 27.8489 56.6019 28.0493 58.099 28.6891C60.0957 29.5425 61.6582 31.1165 62.4453 33.0674C63.2323 35.0184 63.18 37.1878 62.2997 39.102Z" fill="url(#paint34_linear_264_43239)"/>
<path style="mix-blend-mode:screen" d="M62.0069 38.8311C61.3754 40.1953 60.3352 41.3501 59.0177 42.1495C57.7002 42.9489 56.1645 43.3571 54.6045 43.3226C53.0445 43.2881 51.5301 42.8125 50.2527 41.9557C48.9753 41.0989 47.992 39.8995 47.4271 38.5088C46.8622 37.1182 46.741 35.5987 47.0788 34.1422C47.4166 32.6857 48.1983 31.3576 49.3251 30.3255C50.4518 29.2935 51.8732 28.6038 53.4097 28.3436C54.9462 28.0833 56.529 28.2642 57.958 28.8634C58.9096 29.2624 59.7695 29.837 60.4883 30.5543C61.2071 31.2717 61.7708 32.1176 62.1469 33.0436C62.5231 33.9697 62.7043 34.9576 62.6803 35.9507C62.6563 36.9439 62.4275 37.9227 62.0069 38.8311Z" fill="url(#paint35_linear_264_43239)"/>
<path d="M61.0451 38.3666C60.4956 39.5471 59.5923 40.5453 58.4494 41.2349C57.3066 41.9245 55.9754 42.2746 54.6244 42.2409C53.2734 42.2072 51.9632 41.7912 50.8595 41.0455C49.7558 40.2999 48.9082 39.258 48.4239 38.0517C47.9396 36.8455 47.8403 35.529 48.1387 34.2688C48.4371 33.0086 49.1196 31.8613 50.1001 30.972C51.0805 30.0827 52.3148 29.4914 53.6468 29.2728C54.9788 29.0542 56.3487 29.2182 57.5832 29.744C59.238 30.4489 60.5323 31.7532 61.1815 33.3701C61.8306 34.987 61.7816 36.7843 61.0451 38.3666Z" fill="url(#paint36_linear_264_43239)"/>
<path d="M60.4983 38.173C59.9906 39.264 59.156 40.1866 58.0999 40.8242C57.0439 41.4618 55.8138 41.7858 54.5652 41.7551C53.3166 41.7245 52.1055 41.3406 51.0851 40.652C50.0647 39.9635 49.2807 39.0011 48.8322 37.8866C48.3837 36.7721 48.291 35.5556 48.5656 34.3907C48.8402 33.2258 49.4699 32.1649 50.375 31.3421C51.2802 30.5193 52.4202 29.9715 53.651 29.768C54.8817 29.5645 56.1479 29.7145 57.2895 30.1988C58.0481 30.5207 58.733 30.9824 59.3048 31.5574C59.8767 32.1324 60.3245 32.8096 60.6225 33.5502C60.9205 34.2907 61.0629 35.0802 61.0416 35.8734C61.0203 36.6666 60.8357 37.4481 60.4983 38.173Z" fill="url(#paint37_linear_264_43239)"/>
<path opacity="0.5" d="M47.9769 39.5279C48.7095 40.8963 49.9147 41.9802 51.3881 42.5956C54.7791 44.0376 56.672 43.1279 56.672 43.1279C53.3906 43.0704 50.2657 41.7766 47.9769 39.5279Z" fill="white"/>
<path opacity="0.3" d="M59.7186 33.8666C59.2631 34.8343 57.3804 34.9795 55.4976 34.1763C53.6149 33.3731 52.4609 31.9408 52.9063 30.9731C53.3517 30.0053 55.2446 29.8698 57.1273 30.6731C59.0101 31.4763 60.164 32.8989 59.7186 33.8666Z" fill="url(#paint38_linear_264_43239)"/>
<path opacity="0.7" d="M56.8236 31.2536C58.5039 31.9697 59.6072 33.1891 59.506 34.1568C59.5822 34.0769 59.6437 33.9853 59.6882 33.8859C60.1437 32.9181 58.9797 31.4859 57.107 30.6826C55.2344 29.8794 53.3314 30.0149 52.886 30.9826C52.8356 31.0863 52.8047 31.1977 52.7949 31.3117C53.463 30.6246 55.1433 30.5375 56.8236 31.2536Z" fill="url(#paint39_linear_264_43239)"/>
<path opacity="0.5" d="M61.6113 32.0182C60.8955 30.6551 59.708 29.571 58.2507 28.9504C54.8597 27.5085 52.9769 28.4182 52.9769 28.4182C56.2378 28.4877 59.3392 29.7808 61.6113 32.0182Z" fill="white"/>
<path fill-rule="evenodd" clip-rule="evenodd" d="M54.9032 33.974L53.0679 35.7286L52.0001 34.7076L54.9032 31.9321L57.8072 34.7084L56.7393 35.7294L54.9032 33.974ZM51.246 35.4284L50.1781 36.4495L51.2459 37.4703L52.3138 36.4493L51.246 35.4284ZM54.9032 38.9251L53.0679 37.1705L51.9986 38.19L52.0001 38.1914L54.9032 40.9669L57.8072 38.1906L57.8077 38.1901L56.7393 37.1697L54.9032 38.9251ZM58.5604 35.429L57.4925 36.45L58.5604 37.4708L59.6282 36.4499L58.5604 35.429ZM54.9032 35.1588L56.2519 36.4488L56.2532 36.4495L56.2525 36.4502L54.9032 37.7402L53.555 36.4511L53.5531 36.4493L53.555 36.4475L53.7913 36.2216L53.9059 36.112L54.9032 35.1588Z" fill="#FF7708"/>
<path d="M52.7304 35.535L54.5656 33.7804L56.4018 35.5358L57.4697 34.5148L54.5656 31.7385L51.6626 34.514L52.7304 35.535ZM49.8406 36.2559L50.9085 35.2348L51.9763 36.2557L50.9084 37.2767L49.8406 36.2559ZM52.7304 36.9769L54.5656 38.7314L56.4018 36.9761L57.4702 37.9965L57.4697 37.997L54.5656 40.7733L51.6626 37.9978L51.6611 37.9964L52.7305 36.9768L52.7304 36.9769ZM57.155 36.2564L58.2229 35.2354L59.2907 36.2563L58.2228 37.2772L57.155 36.2564Z" fill="white"/>
<path d="M55.9143 36.2552H55.9149L54.5656 34.9652L53.5683 35.9184L53.4538 36.028L53.2175 36.2539L53.2156 36.2557L53.2175 36.2575L54.5656 37.5466L55.915 36.2566L55.9156 36.2558L55.9144 36.2552" fill="white"/>
<path d="M17.7091 87.652C16.965 89.2506 15.7418 90.6024 14.1942 91.5364C12.6466 92.4705 10.844 92.9448 9.01447 92.8995C7.18489 92.8542 5.41045 92.2912 3.91551 91.2818C2.42058 90.2724 1.27227 88.8618 0.615804 87.2285C-0.0406669 85.5952 -0.175827 83.8124 0.227414 82.1057C0.630656 80.3989 1.55419 78.8448 2.88124 77.6398C4.20829 76.4349 5.87927 75.6331 7.68289 75.3361C9.4865 75.039 11.3418 75.2598 13.0141 75.9707C14.1247 76.4429 15.1272 77.1196 15.9643 77.9622C16.8013 78.8048 17.4566 79.7968 17.8926 80.8815C18.3285 81.9663 18.5367 83.1225 18.5053 84.2842C18.4738 85.4459 18.2032 86.5903 17.7091 87.652Z" fill="#F6AE28"/>
<path style="mix-blend-mode:multiply" d="M17.7091 87.7494C16.965 89.348 15.7418 90.6998 14.1942 91.6338C12.6466 92.5679 10.844 93.0422 9.01447 92.9969C7.18489 92.9516 5.41045 92.3886 3.91551 91.3792C2.42058 90.3698 1.27227 88.9592 0.615804 87.3259C-0.0406669 85.6926 -0.175827 83.9099 0.227414 82.2031C0.630656 80.4964 1.55419 78.9422 2.88124 77.7373C4.20829 76.5323 5.87927 75.7306 7.68289 75.4335C9.4865 75.1364 11.3418 75.3572 13.0141 76.0682C14.1247 76.5403 15.1272 77.217 15.9643 78.0596C16.8013 78.9022 17.4566 79.8942 17.8926 80.979C18.3285 82.0637 18.5367 83.2199 18.5053 84.3816C18.4738 85.5433 18.2032 86.6877 17.7091 87.7494Z" fill="url(#paint40_linear_264_43239)"/>
<path style="mix-blend-mode:multiply" d="M17.4027 86.7976C16.5043 88.9023 14.7696 90.5807 12.5789 91.4646C10.3883 92.3486 7.92037 92.3661 5.71622 91.5133C3.57594 90.5217 1.93511 88.7581 1.15443 86.6103C0.373744 84.4624 0.517096 82.1061 1.55297 80.0592C2.45142 77.9545 4.18611 76.2762 6.37678 75.3922C8.56744 74.5082 11.0353 74.4907 13.2395 75.3435C15.3798 76.3351 17.0206 78.0987 17.8013 80.2466C18.582 82.3944 18.4386 84.7507 17.4027 86.7976Z" fill="url(#paint41_linear_264_43239)"/>
<path d="M18.2174 86.4082C17.4797 88.0122 16.2606 89.3707 14.7144 90.3114C13.1682 91.2522 11.3647 91.7328 9.53246 91.6925C7.70022 91.6521 5.92177 91.0925 4.4226 90.0846C2.92342 89.0767 1.77103 87.6659 1.11152 86.0311C0.452008 84.3963 0.315082 82.6111 0.718098 80.9018C1.12111 79.1925 2.04592 77.6361 3.37528 76.43C4.70464 75.2238 6.37867 74.4221 8.18516 74.1267C9.99164 73.8312 11.8492 74.0552 13.5224 74.7702C15.754 75.724 17.5004 77.4831 18.38 79.6636C19.2596 81.8441 19.2012 84.2688 18.2174 86.4082Z" fill="url(#paint42_linear_264_43239)"/>
<path style="mix-blend-mode:screen" d="M17.8901 86.1054C17.1842 87.6301 16.0217 88.9206 14.5492 89.8141C13.0767 90.7075 11.3603 91.1638 9.61675 91.1252C7.87321 91.0867 6.18071 90.5551 4.75298 89.5975C3.32525 88.64 2.22632 87.2994 1.59497 85.7451C0.963626 84.1909 0.828168 82.4926 1.20571 80.8648C1.58325 79.237 2.45685 77.7526 3.7162 76.5991C4.97555 75.4457 6.56417 74.6748 8.28144 74.384C9.99871 74.0931 11.7676 74.2953 13.3648 74.965C14.4283 75.4109 15.3894 76.0531 16.1927 76.8548C16.9961 77.6566 17.6261 78.602 18.0465 79.637C18.4669 80.672 18.6695 81.7761 18.6427 82.8861C18.6158 83.9961 18.3601 85.0901 17.8901 86.1054Z" fill="url(#paint43_linear_264_43239)"/>
<path d="M16.8151 85.5862C16.201 86.9056 15.1915 88.0212 13.9141 88.792C12.6368 89.5627 11.149 89.954 9.63908 89.9164C8.12911 89.8787 6.66475 89.4137 5.4312 88.5803C4.19765 87.7469 3.25033 86.5825 2.70905 85.2343C2.16777 83.8861 2.05686 82.4147 2.39033 81.0063C2.72381 79.5978 3.48669 78.3155 4.58249 77.3216C5.6783 76.3277 7.05779 75.6668 8.5465 75.4225C10.0352 75.1783 11.5663 75.3615 12.946 75.9492C14.7955 76.737 16.242 78.1947 16.9676 80.0019C17.6931 81.809 17.6383 83.8177 16.8151 85.5862Z" fill="url(#paint44_linear_264_43239)"/>
<path d="M16.2039 85.3698C15.6365 86.5892 14.7037 87.6203 13.5234 88.3329C12.3431 89.0455 10.9683 89.4076 9.57279 89.3733C8.1773 89.3391 6.82376 88.91 5.68328 88.1405C4.54279 87.3709 3.66655 86.2953 3.16533 85.0497C2.66411 83.8041 2.5604 82.4444 2.86733 81.1425C3.17425 79.8406 3.87802 78.6548 4.88968 77.7352C5.90134 76.8156 7.17546 76.2034 8.55099 75.976C9.92651 75.7486 11.3417 75.9161 12.6176 76.4575C13.4655 76.8172 14.2309 77.3332 14.87 77.9759C15.5092 78.6186 16.0096 79.3754 16.3427 80.2031C16.6757 81.0308 16.8349 81.9131 16.8111 82.7997C16.7873 83.6862 16.581 84.5596 16.2039 85.3698Z" fill="url(#paint45_linear_264_43239)"/>
<path opacity="0.5" d="M2.20959 86.8842C3.02834 88.4135 4.37539 89.625 6.02214 90.3128C9.81205 91.9244 11.9276 90.9077 11.9276 90.9077C8.26021 90.8435 4.76765 89.3974 2.20959 86.8842Z" fill="white"/>
<path opacity="0.3" d="M15.3326 80.5568C14.8235 81.6384 12.7192 81.8006 10.615 80.9029C8.51074 80.0052 7.22104 78.4044 7.71882 77.3228C8.2166 76.2412 10.3322 76.0898 12.4364 76.9875C14.5407 77.8852 15.8304 79.4752 15.3326 80.5568Z" fill="url(#paint46_linear_264_43239)"/>
<path opacity="0.7" d="M12.097 77.6364C13.975 78.4368 15.2081 79.7996 15.095 80.8812C15.1801 80.7918 15.2489 80.6895 15.2986 80.5783C15.8077 79.4967 14.5067 77.896 12.4138 76.9983C10.3208 76.1005 8.19396 76.252 7.69618 77.3336C7.63978 77.4494 7.60531 77.5739 7.59436 77.7013C8.34103 76.9334 10.219 76.836 12.097 77.6364Z" fill="url(#paint47_linear_264_43239)"/>
<path opacity="0.5" d="M17.4479 78.4909C16.6479 76.9675 15.3207 75.7559 13.6919 75.0623C9.90198 73.4507 7.79773 74.4674 7.79773 74.4674C11.4423 74.5451 14.9086 75.9903 17.4479 78.4909Z" fill="white"/>
<path fill-rule="evenodd" clip-rule="evenodd" d="M9.95064 80.6768L7.89943 82.6378L6.70602 81.4967L9.95064 78.3947L13.1963 81.4977L12.0028 82.6387L9.95064 80.6768ZM5.86322 82.3023L4.66968 83.4436L5.86313 84.5844L7.05667 83.4433L5.86322 82.3023ZM9.95064 86.2103L7.89943 84.2494L6.70433 85.3888L6.70602 85.3904L9.95064 88.4924L13.1963 85.3895L13.1969 85.3889L12.0028 84.2485L9.95064 86.2103ZM14.0381 82.303L12.8446 83.444L14.0381 84.585L15.2316 83.444L14.0381 82.303ZM9.95066 82.001L11.458 83.4428L11.4595 83.4435L11.4587 83.4443L9.95066 84.8861L8.4439 83.4454L8.44179 83.4433L8.4439 83.4414L8.70799 83.1888L8.83604 83.0663L9.95066 82.001Z" fill="#FF7708"/>
<path d="M7.52211 82.4215L9.57332 80.4604L11.6255 82.4223L12.819 81.2813L9.57332 78.1783L6.3287 81.2804L7.52211 82.4215ZM4.29236 83.2272L5.4859 82.086L6.67935 83.227L5.48581 84.368L4.29236 83.2272ZM7.52211 84.033L9.57332 85.994L11.6255 84.0321L12.8196 85.1725L12.819 85.1731L9.57332 88.276L6.3287 85.174L6.32701 85.1724L7.52224 84.0329L7.52211 84.033ZM12.4673 83.2277L13.6608 82.0866L14.8543 83.2276L13.6608 84.3687L12.4673 83.2277Z" fill="white"/>
<path d="M11.0808 83.2264H11.0814L9.57345 81.7847L8.45883 82.85L8.33078 82.9724L8.06668 83.225L8.06458 83.2269L8.06668 83.229L9.57345 84.6697L11.0815 83.228L11.0823 83.2271L11.0809 83.2264" fill="white"/>
<defs>
<linearGradient id="paint0_linear_264_43239" x1="19.4946" y1="113.313" x2="22.9488" y2="105.557" gradientUnits="userSpaceOnUse">
<stop stop-color="#FFAC1C"/>
<stop offset="1" stop-color="#F9D445"/>
</linearGradient>
<linearGradient id="paint1_linear_264_43239" x1="19.6264" y1="112.911" x2="23.0781" y2="105.16" gradientUnits="userSpaceOnUse">
<stop stop-color="#FFAC1C"/>
<stop offset="1" stop-color="#F9D445"/>
</linearGradient>
<linearGradient id="paint2_linear_264_43239" x1="19.7929" y1="112.558" x2="23.2472" y2="104.801" gradientUnits="userSpaceOnUse">
<stop stop-color="#FFB138"/>
<stop offset="1" stop-color="#F7931A"/>
</linearGradient>
<linearGradient id="paint3_linear_264_43239" x1="19.9222" y1="112.284" x2="23.2139" y2="104.89" gradientUnits="userSpaceOnUse">
<stop stop-color="#E37F06"/>
<stop offset="0.99" stop-color="#F7931A"/>
</linearGradient>
<linearGradient id="paint4_linear_264_43239" x1="20.1927" y1="111.695" x2="23.0396" y2="105.302" gradientUnits="userSpaceOnUse">
<stop stop-color="#FFAC1C"/>
<stop offset="0.95" stop-color="#FF6100"/>
</linearGradient>
<linearGradient id="paint5_linear_264_43239" x1="20.2681" y1="111.473" x2="22.9051" y2="105.553" gradientUnits="userSpaceOnUse">
<stop stop-color="#FDC439"/>
<stop offset="1" stop-color="#D59C11"/>
</linearGradient>
<linearGradient id="paint6_linear_264_43239" x1="22.3046" y1="107.319" x2="23.1589" y2="105.336" gradientUnits="userSpaceOnUse">
<stop stop-color="#FFCD25"/>
<stop offset="0.99" stop-color="white"/>
</linearGradient>
<linearGradient id="paint7_linear_264_43239" x1="22.7271" y1="106.377" x2="23.2277" y2="105.215" gradientUnits="userSpaceOnUse">
<stop stop-color="#FFCD25"/>
<stop offset="0.99" stop-color="white"/>
</linearGradient>
<linearGradient id="paint8_linear_264_43239" x1="56.3088" y1="103.814" x2="62.2753" y2="90.4161" gradientUnits="userSpaceOnUse">
<stop stop-color="#FFAC1C"/>
<stop offset="1" stop-color="#F9D445"/>
</linearGradient>
<linearGradient id="paint9_linear_264_43239" x1="56.5364" y1="103.119" x2="62.4985" y2="89.7312" gradientUnits="userSpaceOnUse">
<stop stop-color="#FFAC1C"/>
<stop offset="1" stop-color="#F9D445"/>
</linearGradient>
<linearGradient id="paint10_linear_264_43239" x1="56.824" y1="102.509" x2="62.7905" y2="89.1109" gradientUnits="userSpaceOnUse">
<stop stop-color="#FFB138"/>
<stop offset="1" stop-color="#F7931A"/>
</linearGradient>
<linearGradient id="paint11_linear_264_43239" x1="57.0475" y1="102.036" x2="62.733" y2="89.2639" gradientUnits="userSpaceOnUse">
<stop stop-color="#E37F06"/>
<stop offset="0.99" stop-color="#F7931A"/>
</linearGradient>
<linearGradient id="paint12_linear_264_43239" x1="57.5147" y1="101.018" x2="62.4321" y2="89.9758" gradientUnits="userSpaceOnUse">
<stop stop-color="#FFAC1C"/>
<stop offset="0.95" stop-color="#FF6100"/>
</linearGradient>
<linearGradient id="paint13_linear_264_43239" x1="57.6449" y1="100.636" x2="62.1996" y2="90.4089" gradientUnits="userSpaceOnUse">
<stop stop-color="#FDC439"/>
<stop offset="1" stop-color="#D59C11"/>
</linearGradient>
<linearGradient id="paint14_linear_264_43239" x1="61.1625" y1="93.4605" x2="62.6381" y2="90.0348" gradientUnits="userSpaceOnUse">
<stop stop-color="#FFCD25"/>
<stop offset="0.99" stop-color="white"/>
</linearGradient>
<linearGradient id="paint15_linear_264_43239" x1="61.8923" y1="91.8329" x2="62.757" y2="89.8254" gradientUnits="userSpaceOnUse">
<stop stop-color="#FFCD25"/>
<stop offset="0.99" stop-color="white"/>
</linearGradient>
<linearGradient id="paint16_linear_264_43239" x1="6.21595" y1="21.564" x2="13.4385" y2="5.3458" gradientUnits="userSpaceOnUse">
<stop stop-color="#FFAC1C"/>
<stop offset="1" stop-color="#F9D445"/>
</linearGradient>
<linearGradient id="paint17_linear_264_43239" x1="6.49144" y1="20.7228" x2="13.7088" y2="4.51671" gradientUnits="userSpaceOnUse">
<stop stop-color="#FFAC1C"/>
<stop offset="1" stop-color="#F9D445"/>
</linearGradient>
<linearGradient id="paint18_linear_264_43239" x1="6.83964" y1="19.9841" x2="14.0622" y2="3.76588" gradientUnits="userSpaceOnUse">
<stop stop-color="#FFB138"/>
<stop offset="1" stop-color="#F7931A"/>
</linearGradient>
<linearGradient id="paint19_linear_264_43239" x1="7.11014" y1="19.4122" x2="13.9927" y2="3.95102" gradientUnits="userSpaceOnUse">
<stop stop-color="#E37F06"/>
<stop offset="0.99" stop-color="#F7931A"/>
</linearGradient>
<linearGradient id="paint20_linear_264_43239" x1="7.67566" y1="18.1797" x2="13.6282" y2="4.81287" gradientUnits="userSpaceOnUse">
<stop stop-color="#FFAC1C"/>
<stop offset="0.95" stop-color="#FF6100"/>
</linearGradient>
<linearGradient id="paint21_linear_264_43239" x1="7.83336" y1="17.7173" x2="13.347" y2="5.3372" gradientUnits="userSpaceOnUse">
<stop stop-color="#FDC439"/>
<stop offset="1" stop-color="#D59C11"/>
</linearGradient>
<linearGradient id="paint22_linear_264_43239" x1="12.0914" y1="9.03106" x2="13.8777" y2="4.88419" gradientUnits="userSpaceOnUse">
<stop stop-color="#FFCD25"/>
<stop offset="0.99" stop-color="white"/>
</linearGradient>
<linearGradient id="paint23_linear_264_43239" x1="12.9749" y1="7.06087" x2="14.0217" y2="4.63078" gradientUnits="userSpaceOnUse">
<stop stop-color="#FFCD25"/>
<stop offset="0.99" stop-color="white"/>
</linearGradient>
<linearGradient id="paint24_linear_264_43239" x1="66.7624" y1="71.6889" x2="73.3569" y2="56.881" gradientUnits="userSpaceOnUse">
<stop stop-color="#FFAC1C"/>
<stop offset="1" stop-color="#F9D445"/>
</linearGradient>
<linearGradient id="paint25_linear_264_43239" x1="67.0139" y1="70.9208" x2="73.6036" y2="56.1239" gradientUnits="userSpaceOnUse">
<stop stop-color="#FFAC1C"/>
<stop offset="1" stop-color="#F9D445"/>
</linearGradient>
<linearGradient id="paint26_linear_264_43239" x1="67.3318" y1="70.2464" x2="73.9263" y2="55.4384" gradientUnits="userSpaceOnUse">
<stop stop-color="#FFB138"/>
<stop offset="1" stop-color="#F7931A"/>
</linearGradient>
<linearGradient id="paint27_linear_264_43239" x1="67.5789" y1="69.7242" x2="73.8629" y2="55.6075" gradientUnits="userSpaceOnUse">
<stop stop-color="#E37F06"/>
<stop offset="0.99" stop-color="#F7931A"/>
</linearGradient>
<linearGradient id="paint28_linear_264_43239" x1="68.0951" y1="68.5989" x2="73.5301" y2="56.3944" gradientUnits="userSpaceOnUse">
<stop stop-color="#FFAC1C"/>
<stop offset="0.95" stop-color="#FF6100"/>
</linearGradient>
<linearGradient id="paint29_linear_264_43239" x1="68.2391" y1="68.1767" x2="73.2733" y2="56.8731" gradientUnits="userSpaceOnUse">
<stop stop-color="#FDC439"/>
<stop offset="1" stop-color="#D59C11"/>
</linearGradient>
<linearGradient id="paint30_linear_264_43239" x1="72.127" y1="60.2458" x2="73.7579" y2="56.4595" gradientUnits="userSpaceOnUse">
<stop stop-color="#FFCD25"/>
<stop offset="0.99" stop-color="white"/>
</linearGradient>
<linearGradient id="paint31_linear_264_43239" x1="72.9336" y1="58.4469" x2="73.8894" y2="56.2281" gradientUnits="userSpaceOnUse">
<stop stop-color="#FFCD25"/>
<stop offset="0.99" stop-color="white"/>
</linearGradient>
<linearGradient id="paint32_linear_264_43239" x1="49.8553" y1="43.9386" x2="55.1937" y2="31.9512" gradientUnits="userSpaceOnUse">
<stop stop-color="#FFAC1C"/>
<stop offset="1" stop-color="#F9D445"/>
</linearGradient>
<linearGradient id="paint33_linear_264_43239" x1="50.0588" y1="43.3169" x2="55.3934" y2="31.3384" gradientUnits="userSpaceOnUse">
<stop stop-color="#FFAC1C"/>
<stop offset="1" stop-color="#F9D445"/>
</linearGradient>
<linearGradient id="paint34_linear_264_43239" x1="50.3162" y1="42.7708" x2="55.6546" y2="30.7835" gradientUnits="userSpaceOnUse">
<stop stop-color="#FFB138"/>
<stop offset="1" stop-color="#F7931A"/>
</linearGradient>
<linearGradient id="paint35_linear_264_43239" x1="50.5162" y1="42.3482" x2="55.6033" y2="30.9203" gradientUnits="userSpaceOnUse">
<stop stop-color="#E37F06"/>
<stop offset="0.99" stop-color="#F7931A"/>
</linearGradient>
<linearGradient id="paint36_linear_264_43239" x1="50.9342" y1="41.4372" x2="55.3339" y2="31.5573" gradientUnits="userSpaceOnUse">
<stop stop-color="#FFAC1C"/>
<stop offset="0.95" stop-color="#FF6100"/>
</linearGradient>
<linearGradient id="paint37_linear_264_43239" x1="51.0507" y1="41.0954" x2="55.126" y2="31.9449" gradientUnits="userSpaceOnUse">
<stop stop-color="#FDC439"/>
<stop offset="1" stop-color="#D59C11"/>
</linearGradient>
<linearGradient id="paint38_linear_264_43239" x1="54.198" y1="34.6751" x2="55.5183" y2="31.6101" gradientUnits="userSpaceOnUse">
<stop stop-color="#FFCD25"/>
<stop offset="0.99" stop-color="white"/>
</linearGradient>
<linearGradient id="paint39_linear_264_43239" x1="54.851" y1="33.2189" x2="55.6247" y2="31.4227" gradientUnits="userSpaceOnUse">
<stop stop-color="#FFCD25"/>
<stop offset="0.99" stop-color="white"/>
</linearGradient>
<linearGradient id="paint40_linear_264_43239" x1="4.30883" y1="91.8138" x2="10.2753" y2="78.4161" gradientUnits="userSpaceOnUse">
<stop stop-color="#FFAC1C"/>
<stop offset="1" stop-color="#F9D445"/>
</linearGradient>
<linearGradient id="paint41_linear_264_43239" x1="4.53637" y1="91.1189" x2="10.4985" y2="77.7312" gradientUnits="userSpaceOnUse">
<stop stop-color="#FFAC1C"/>
<stop offset="1" stop-color="#F9D445"/>
</linearGradient>
<linearGradient id="paint42_linear_264_43239" x1="4.82403" y1="90.5086" x2="10.7905" y2="77.1109" gradientUnits="userSpaceOnUse">
<stop stop-color="#FFB138"/>
<stop offset="1" stop-color="#F7931A"/>
</linearGradient>
<linearGradient id="paint43_linear_264_43239" x1="5.04746" y1="90.0362" x2="10.733" y2="77.2639" gradientUnits="userSpaceOnUse">
<stop stop-color="#E37F06"/>
<stop offset="0.99" stop-color="#F7931A"/>
</linearGradient>
<linearGradient id="paint44_linear_264_43239" x1="5.51472" y1="89.018" x2="10.4321" y2="77.9758" gradientUnits="userSpaceOnUse">
<stop stop-color="#FFAC1C"/>
<stop offset="0.95" stop-color="#FF6100"/>
</linearGradient>
<linearGradient id="paint45_linear_264_43239" x1="5.64487" y1="88.636" x2="10.1996" y2="78.4089" gradientUnits="userSpaceOnUse">
<stop stop-color="#FDC439"/>
<stop offset="1" stop-color="#D59C11"/>
</linearGradient>
<linearGradient id="paint46_linear_264_43239" x1="9.16249" y1="81.4605" x2="10.6381" y2="78.0348" gradientUnits="userSpaceOnUse">
<stop stop-color="#FFCD25"/>
<stop offset="0.99" stop-color="white"/>
</linearGradient>
<linearGradient id="paint47_linear_264_43239" x1="9.89229" y1="79.8329" x2="10.757" y2="77.8254" gradientUnits="userSpaceOnUse">
<stop stop-color="#FFCD25"/>
<stop offset="0.99" stop-color="white"/>
</linearGradient>
</defs>
</svg>
