<svg width="350" height="350" viewBox="0 0 350 350" fill="none" xmlns="http://www.w3.org/2000/svg">
<g style="mix-blend-mode:multiply" opacity="0.5">
<path d="M349.99 35.3055V32.9304C350.088 29.5059 349.437 26.0998 348.08 22.9325C346.722 19.7652 344.688 16.9074 342.11 14.5438C339.61 12.1065 336.615 10.19 333.311 8.91371C330.008 7.63741 326.467 7.0286 322.908 7.12516H30.107C15.4281 7.15185 0.221987 16.5986 0.221987 32.37V34.0779C0.0771105 35.1039 0.00295295 36.138 0 37.1735L0 64.0505C0 78.8879 14.2627 92.4176 29.885 92.4176H322.686C325.367 92.4268 328.031 92.0028 330.566 91.1634C341.666 87.9344 349.768 77.0732 349.768 63.8103V35.3588C349.773 32.6489 349.371 29.9526 348.575 27.3531C348.575 26.9261 348.381 26.4991 348.27 26.0721C349.39 29.0321 349.972 32.1555 349.99 35.3055Z" fill="#58129B"/>
</g>
<path d="M347.243 309.202C347.247 312.147 346.642 315.063 345.462 317.781C344.283 320.499 342.553 322.964 340.374 325.033C338.194 327.102 335.608 328.733 332.767 329.831C329.926 330.93 326.885 331.474 323.823 331.431H31.0224C27.9565 331.473 24.9122 330.93 22.0662 329.833C19.2202 328.735 16.629 327.105 14.4429 325.038C12.2567 322.97 10.519 320.505 9.33058 317.787C8.14214 315.069 7.52656 312.151 7.51953 309.202V27.0329C7.51953 21.0382 9.99572 15.2891 14.4034 11.0502C18.811 6.81131 24.7891 4.42993 31.0224 4.42993H323.823C326.906 4.42991 329.958 5.01513 332.805 6.15201C335.652 7.28889 338.237 8.95508 340.413 11.055C342.589 13.1549 344.312 15.6473 345.484 18.3892C346.656 21.131 347.254 24.0684 347.243 27.0329V309.202Z" fill="url(#paint0_linear_0_1)"/>
<g style="mix-blend-mode:multiply" opacity="0.6">
<path d="M322.686 340.611H29.885C14.2627 340.611 0 327.108 0 312.244V31.8095C0 16.0115 15.2061 6.56467 29.885 6.56467H322.686C326.175 6.39957 329.661 6.94016 332.919 8.1515C336.177 9.36285 339.134 11.218 341.6 13.5971C344.066 15.9763 345.986 18.8264 347.235 21.9635C348.484 25.1006 349.036 28.4549 348.853 31.8095V312.244C348.853 328.149 337.365 340.611 322.686 340.611ZM29.885 15.3443C19.9233 15.3443 9.12922 21.6422 9.12922 31.8095V313.978C9.12922 323.852 19.4239 333.566 29.885 333.566H322.686C333.341 333.566 339.724 323.612 339.724 313.978V31.8095C339.724 21.6422 333.203 15.3443 322.686 15.3443H29.885Z" fill="#FF5499"/>
</g>
<path d="M9.35063 299.35V301.432L10.0443 301.645V299.27L9.35063 299.35ZM9.35063 309.251V311.332L10.0443 311.546V309.171L9.35063 309.251ZM9.35063 299.35V301.432L10.0443 301.645V299.27L9.35063 299.35ZM9.35063 309.251V311.332L10.0443 311.546V309.171L9.35063 309.251ZM9.35063 299.35V301.432L10.0443 301.645V299.27L9.35063 299.35ZM9.35063 309.251V311.332L10.0443 311.546V309.171L9.35063 309.251ZM9.35063 299.35V301.432L10.0443 301.645V299.27L9.35063 299.35ZM9.35063 309.251V311.332L10.0443 311.546V309.171L9.35063 309.251ZM9.35063 299.35V301.432L10.0443 301.645V299.27L9.35063 299.35ZM9.35063 309.251V311.332L10.0443 311.546V309.171L9.35063 309.251ZM9.35063 299.35V301.432L10.0443 301.645V299.27L9.35063 299.35ZM9.35063 309.251V311.332L10.0443 311.546V309.171L9.35063 309.251ZM9.35063 299.35V301.432L10.0443 301.645V299.27L9.35063 299.35ZM9.35063 309.251V311.332L10.0443 311.546V309.171L9.35063 309.251ZM9.35063 299.35V301.432L10.0443 301.645V299.27L9.35063 299.35ZM9.35063 309.251V311.332L10.0443 311.546V309.171L9.35063 309.251ZM9.35063 299.35V301.432L10.0443 301.645V299.27L9.35063 299.35ZM9.35063 309.251V311.332L10.0443 311.546V309.171L9.35063 309.251ZM9.35063 299.35V301.432L10.0443 301.645V299.27L9.35063 299.35ZM9.35063 309.251V311.332L10.0443 311.546V309.171L9.35063 309.251ZM9.35063 299.35V301.432L10.0443 301.645V299.27L9.35063 299.35ZM9.35063 309.251V311.332L10.0443 311.546V309.171L9.35063 309.251ZM9.35063 299.35V301.432L10.0443 301.645V299.27L9.35063 299.35ZM9.35063 309.251V311.332L10.0443 311.546V309.171L9.35063 309.251ZM9.35063 299.35V301.432L10.0443 301.645V299.27L9.35063 299.35ZM9.35063 309.251V311.332L10.0443 311.546V309.171L9.35063 309.251ZM9.35063 299.35V301.432L10.0443 301.645V299.27L9.35063 299.35ZM9.35063 309.251V311.332L10.0443 311.546V309.171L9.35063 309.251ZM9.35063 299.35V301.432L10.0443 301.645V299.27L9.35063 299.35ZM9.35063 309.251V311.332L10.0443 311.546V309.171L9.35063 309.251ZM9.35063 299.35V301.432L10.0443 301.645V299.27L9.35063 299.35ZM9.35063 309.251V311.332L10.0443 311.546V309.171L9.35063 309.251ZM9.35063 299.35V301.432L10.0443 301.645V299.27L9.35063 299.35ZM9.35063 309.251V311.332L10.0443 311.546V309.171L9.35063 309.251ZM9.35063 299.35V301.432L10.0443 301.645V299.27L9.35063 299.35ZM9.35063 309.251V311.332L10.0443 311.546V309.171L9.35063 309.251ZM9.35063 299.35V301.432L10.0443 301.645V299.27L9.35063 299.35ZM9.35063 309.251V311.332L10.0443 311.546V309.171L9.35063 309.251ZM9.35063 299.35V301.432L10.0443 301.645V299.27L9.35063 299.35ZM9.35063 309.251V311.332L10.0443 311.546V309.171L9.35063 309.251ZM9.35063 299.35V301.432L10.0443 301.645V299.27L9.35063 299.35ZM9.35063 309.251V311.332L10.0443 311.546V309.171L9.35063 309.251ZM9.35063 299.35V301.432L10.0443 301.645V299.27L9.35063 299.35ZM9.35063 309.251V311.332L10.0443 311.546V309.171L9.35063 309.251ZM9.35063 299.35V301.432L10.0443 301.645V299.27L9.35063 299.35ZM9.35063 309.251V311.332L10.0443 311.546V309.171L9.35063 309.251ZM9.35063 299.35V301.432L10.0443 301.645V299.27L9.35063 299.35ZM9.35063 309.251V311.332L10.0443 311.546V309.171L9.35063 309.251ZM9.35063 299.35V301.432L10.0443 301.645V299.27L9.35063 299.35ZM9.35063 309.251V311.332L10.0443 311.546V309.171L9.35063 309.251ZM9.35063 299.35V301.432L10.0443 301.645V299.27L9.35063 299.35ZM9.35063 309.251V311.332L10.0443 311.546V309.171L9.35063 309.251ZM9.35063 299.35V301.432L10.0443 301.645V299.27L9.35063 299.35ZM9.35063 309.251V311.332L10.0443 311.546V309.171L9.35063 309.251ZM9.35063 301.432L10.0443 301.645V299.27H9.35063V301.432ZM9.35063 309.251V311.332L10.0443 311.546V309.171L9.35063 309.251ZM348.602 21.7224C347.064 16.509 343.677 11.9776 339.029 8.9132C337.469 7.83902 335.783 6.94344 334.007 6.24462C330.711 5.07723 327.224 4.48967 323.712 4.51003H30.8279C27.8482 4.50977 24.8814 4.88661 22.0039 5.63084C19.8345 6.167 17.7319 6.92753 15.7328 7.89914C12.0195 9.65066 8.7515 12.165 6.15957 15.2644C5.63235 15.9049 5.10513 16.5721 4.63341 17.2659C2.35165 20.7312 1.07727 24.7213 0.942871 28.8209C0.942871 29.1411 0.942871 29.4613 0.942871 29.8083V311.977C0.942871 312.582 0.942871 313.196 0.942871 313.818C0.997357 314.652 1.10859 315.481 1.27585 316.3C1.80966 319.189 2.83135 321.975 4.30043 324.546C4.74762 325.344 5.23853 326.119 5.77109 326.868C8.50715 330.863 12.207 334.163 16.5555 336.486C20.9039 338.81 25.7719 340.087 30.7446 340.211H323.601C326.639 340.216 329.651 339.673 332.481 338.61C333.569 338.182 334.626 337.682 335.644 337.115C339.061 335.142 342.011 332.504 344.305 329.37C346.598 326.235 348.185 322.674 348.963 318.915C349.126 318.265 349.247 317.606 349.324 316.941C349.604 315.255 349.743 313.551 349.74 311.844V29.6748C349.746 26.9862 349.363 24.3098 348.602 21.7224ZM10.2386 314.272C10.2095 314.095 10.2095 313.915 10.2386 313.738C10.1963 313.161 10.1963 312.581 10.2386 312.004V29.8349C10.1816 29.1511 10.1816 28.464 10.2386 27.7801C10.8655 23.8602 13.0676 20.3338 16.371 17.9597C17.1247 17.4158 17.9124 16.9167 18.7296 16.4653C22.4095 14.426 26.5807 13.3495 30.8279 13.3431H323.601C331.759 13.3431 337.475 17.1325 339.64 23.5904C340.332 25.5948 340.669 27.6965 340.639 29.8083V311.977C340.63 313.829 340.398 315.674 339.945 317.474C339.778 318.168 339.557 318.835 339.335 319.476C336.976 326.174 331.454 331.538 323.601 331.538H30.8279C26.7194 331.439 22.7404 330.135 19.4233 327.802C15.1062 324.933 11.9657 320.704 10.5438 315.847C10.402 315.33 10.3 314.803 10.2386 314.272ZM9.35063 309.251V311.332L10.0443 311.546V309.171L9.35063 309.251ZM9.35063 299.35V301.432L10.0443 301.645V299.27L9.35063 299.35ZM9.35063 309.251V311.332L10.0443 311.546V309.171L9.35063 309.251ZM9.35063 299.35V301.432L10.0443 301.645V299.27L9.35063 299.35ZM9.35063 309.251V311.332L10.0443 311.546V309.171L9.35063 309.251ZM9.35063 299.35V301.432L10.0443 301.645V299.27L9.35063 299.35ZM9.35063 309.251V311.332L10.0443 311.546V309.171L9.35063 309.251ZM9.35063 299.35V301.432L10.0443 301.645V299.27L9.35063 299.35ZM9.35063 309.251V311.332L10.0443 311.546V309.171L9.35063 309.251ZM9.35063 299.35V301.432L10.0443 301.645V299.27L9.35063 299.35ZM9.35063 309.251V311.332L10.0443 311.546V309.171L9.35063 309.251ZM9.35063 299.35V301.432L10.0443 301.645V299.27L9.35063 299.35ZM9.35063 309.251V311.332L10.0443 311.546V309.171L9.35063 309.251ZM9.35063 299.35V301.432L10.0443 301.645V299.27L9.35063 299.35ZM9.35063 309.251V311.332L10.0443 311.546V309.171L9.35063 309.251ZM9.35063 299.35V301.432L10.0443 301.645V299.27L9.35063 299.35ZM9.35063 309.251V311.332L10.0443 311.546V309.171L9.35063 309.251ZM9.35063 299.35V301.432L10.0443 301.645V299.27L9.35063 299.35ZM9.35063 309.251V311.332L10.0443 311.546V309.171L9.35063 309.251ZM9.35063 299.35V301.432L10.0443 301.645V299.27L9.35063 299.35ZM9.35063 309.251V311.332L10.0443 311.546V309.171L9.35063 309.251ZM9.35063 299.35V301.432L10.0443 301.645V299.27L9.35063 299.35ZM9.35063 309.251V311.332L10.0443 311.546V309.171L9.35063 309.251ZM9.35063 299.35V301.432L10.0443 301.645V299.27L9.35063 299.35ZM9.35063 309.251V311.332L10.0443 311.546V309.171L9.35063 309.251ZM9.35063 299.35V301.432L10.0443 301.645V299.27L9.35063 299.35ZM9.35063 309.251V311.332L10.0443 311.546V309.171L9.35063 309.251ZM9.35063 299.35V301.432L10.0443 301.645V299.27L9.35063 299.35ZM9.35063 309.251V311.332L10.0443 311.546V309.171L9.35063 309.251ZM9.35063 299.35V301.432L10.0443 301.645V299.27L9.35063 299.35ZM9.35063 309.251V311.332L10.0443 311.546V309.171L9.35063 309.251ZM9.35063 299.35V301.432L10.0443 301.645V299.27L9.35063 299.35ZM9.35063 309.251V311.332L10.0443 311.546V309.171L9.35063 309.251ZM9.35063 299.35V301.432L10.0443 301.645V299.27L9.35063 299.35ZM9.35063 309.251V311.332L10.0443 311.546V309.171L9.35063 309.251ZM9.35063 299.35V301.432L10.0443 301.645V299.27L9.35063 299.35ZM9.35063 309.251V311.332L10.0443 311.546V309.171L9.35063 309.251ZM9.35063 299.35V301.432L10.0443 301.645V299.27L9.35063 299.35ZM9.35063 309.251V311.332L10.0443 311.546V309.171L9.35063 309.251ZM9.35063 299.35V301.432L10.0443 301.645V299.27L9.35063 299.35ZM9.35063 309.251V311.332L10.0443 311.546V309.171L9.35063 309.251ZM9.35063 299.35V301.432L10.0443 301.645V299.27L9.35063 299.35ZM9.35063 309.251V311.332L10.0443 311.546V309.171L9.35063 309.251ZM9.35063 299.35V301.432L10.0443 301.645V299.27L9.35063 299.35ZM9.35063 309.251V311.332L10.0443 311.546V309.171L9.35063 309.251ZM9.35063 299.35V301.432L10.0443 301.645V299.27L9.35063 299.35ZM9.35063 309.251V311.332L10.0443 311.546V309.171L9.35063 309.251ZM9.35063 299.35V301.432L10.0443 301.645V299.27L9.35063 299.35ZM9.35063 309.251V311.332L10.0443 311.546V309.171L9.35063 309.251ZM9.35063 299.35V301.432L10.0443 301.645V299.27L9.35063 299.35ZM9.35063 309.251V311.332L10.0443 311.546V309.171L9.35063 309.251ZM9.35063 299.35V301.432L10.0443 301.645V299.27L9.35063 299.35ZM9.35063 309.251V311.332L10.0443 311.546V309.171L9.35063 309.251ZM9.35063 299.35V301.432L10.0443 301.645V299.27L9.35063 299.35Z" fill="#9E4000"/>
<path d="M339.945 302.29V304.585L340.639 304.051V302.317L339.945 302.29ZM221.987 330.684L214.383 330.177L211.054 329.99L207.752 329.803L202.563 329.509L199.372 329.323H198.067L191.88 329.002L188.883 328.842H145.207H145.873L148.842 329.189L150.59 329.403L156.833 330.097L169.265 331.538H234.557C230.45 331.271 226.204 330.95 221.987 330.684ZM339.945 302.29V304.585L340.639 304.051V302.317L339.945 302.29ZM221.987 330.684L214.383 330.177L211.054 329.99L207.752 329.803L202.563 329.509L199.372 329.323H198.067L191.88 329.002L188.883 328.842H145.207H145.873L148.842 329.189L150.59 329.403L156.833 330.097L169.265 331.538H234.557C230.45 331.271 226.204 330.95 221.987 330.684ZM339.945 302.29V304.585L340.639 304.051V302.317L339.945 302.29ZM221.987 330.684L214.383 330.177L211.054 329.99L207.752 329.803L202.563 329.509L199.372 329.323H198.067L191.88 329.002L188.883 328.842H145.207H145.873L148.842 329.189L150.59 329.403L156.833 330.097L169.265 331.538H234.557C230.45 331.271 226.204 330.95 221.987 330.684ZM339.945 302.29V304.585L340.639 304.051V302.317L339.945 302.29ZM221.987 330.684L214.383 330.177L211.054 329.99L207.752 329.803L202.563 329.509L199.372 329.323H198.067L191.88 329.002L188.883 328.842H145.207H145.873L148.842 329.189L150.59 329.403L156.833 330.097L169.265 331.538H234.557C230.45 331.271 226.204 330.95 221.987 330.684ZM339.945 302.29V304.585L340.639 304.051V302.317L339.945 302.29ZM221.987 330.684L214.383 330.177L211.054 329.99L207.752 329.803L202.563 329.509L199.372 329.323H198.067L191.88 329.002L188.883 328.842H145.207H145.873L148.842 329.189L150.59 329.403L156.833 330.097L169.265 331.538H234.557C230.45 331.271 226.204 330.95 221.987 330.684ZM339.945 302.29V304.585L340.639 304.051V302.317L339.945 302.29ZM221.987 330.684L214.383 330.177L211.054 329.99L207.752 329.803L202.563 329.509L199.372 329.323H198.067L191.88 329.002L188.883 328.842H145.207H145.873L148.842 329.189L150.59 329.403L156.833 330.097L169.265 331.538H234.557C230.45 331.271 226.204 330.95 221.987 330.684ZM339.945 302.29V304.585L340.639 304.051V302.317L339.945 302.29ZM221.987 330.684L214.383 330.177L211.054 329.99L207.752 329.803L202.563 329.509L199.372 329.323H198.067L191.88 329.002L188.883 328.842H145.207H145.873L148.842 329.189L150.59 329.403L156.833 330.097L169.265 331.538H234.557C230.45 331.271 226.204 330.95 221.987 330.684ZM339.945 302.29V304.585L340.639 304.051V302.317L339.945 302.29ZM221.987 330.684L214.383 330.177L211.054 329.99L207.752 329.803L202.563 329.509L199.372 329.323H198.067L191.88 329.002L188.883 328.842H145.207H145.873L148.842 329.189L150.59 329.403L156.833 330.097L169.265 331.538H234.557C230.45 331.271 226.204 330.95 221.987 330.684ZM339.945 302.29V304.585L340.639 304.051V302.317L339.945 302.29ZM221.987 330.684L214.383 330.177L211.054 329.99L207.752 329.803L202.563 329.509L199.372 329.323H198.067L191.88 329.002L188.883 328.842H145.207H145.873L148.842 329.189L150.59 329.403L156.833 330.097L169.265 331.538H234.557C230.45 331.271 226.204 330.95 221.987 330.684ZM339.945 302.29V304.585L340.639 304.051V302.317L339.945 302.29ZM221.987 330.684L214.383 330.177L211.054 329.99L207.752 329.803L202.563 329.509L199.372 329.323H198.067L191.88 329.002L188.883 328.842H145.207H145.873L148.842 329.189L150.59 329.403L156.833 330.097L169.265 331.538H234.557C230.45 331.271 226.204 330.95 221.987 330.684ZM339.945 302.29V304.585L340.639 304.051V302.317L339.945 302.29ZM221.987 330.684L214.383 330.177L211.054 329.99L207.752 329.803L202.563 329.509L199.372 329.323H198.067L191.88 329.002L188.883 328.842H145.207H145.873L148.842 329.189L150.59 329.403L156.833 330.097L169.265 331.538H234.557C230.45 331.271 226.204 330.95 221.987 330.684ZM339.945 302.29V304.585L340.639 304.051V302.317L339.945 302.29ZM221.987 330.684L214.383 330.177L211.054 329.99L207.752 329.803L202.563 329.509L199.372 329.323H198.067L191.88 329.002L188.883 328.842H145.207H145.873L148.842 329.189L150.59 329.403L156.833 330.097L169.265 331.538H234.557C230.45 331.271 226.204 330.95 221.987 330.684ZM339.945 302.29V304.585L340.639 304.051V302.317L339.945 302.29ZM221.987 330.684L214.383 330.177L211.054 329.99L207.752 329.803L202.563 329.509L199.372 329.323H198.067L191.88 329.002L188.883 328.842H145.207H145.873L148.842 329.189L150.59 329.403L156.833 330.097L169.265 331.538H234.557C230.45 331.271 226.204 330.95 221.987 330.684ZM339.945 302.29V304.585L340.639 304.051V302.317L339.945 302.29ZM221.987 330.684L214.383 330.177L211.054 329.99L207.752 329.803L202.563 329.509L199.372 329.323H198.067L191.88 329.002L188.883 328.842H145.207H145.873L148.842 329.189L150.59 329.403L156.833 330.097L169.265 331.538H234.557C230.45 331.271 226.204 330.95 221.987 330.684ZM339.945 302.29V304.585L340.639 304.051V302.317L339.945 302.29ZM221.987 330.684L214.383 330.177L211.054 329.99L207.752 329.803L202.563 329.509L199.372 329.323H198.067L191.88 329.002L188.883 328.842H145.207H145.873L148.842 329.189L150.59 329.403L156.833 330.097L169.265 331.538H234.557C230.45 331.271 226.204 330.95 221.987 330.684ZM339.945 302.29V304.585L340.639 304.051V302.317L339.945 302.29ZM221.987 330.684L214.383 330.177L211.054 329.99L207.752 329.803L202.563 329.509L199.372 329.323H198.067L191.88 329.002L188.883 328.842H145.207H145.873L148.842 329.189L150.59 329.403L156.833 330.097L169.265 331.538H234.557C230.45 331.271 226.204 330.95 221.987 330.684ZM339.945 302.29V304.585L340.639 304.051V302.317L339.945 302.29ZM221.987 330.684L214.383 330.177L211.054 329.99L207.752 329.803L202.563 329.509L199.372 329.323H198.067L191.88 329.002L188.883 328.842H145.207H145.873L148.842 329.189L150.59 329.403L156.833 330.097L169.265 331.538H234.557C230.45 331.271 226.204 330.95 221.987 330.684ZM339.945 302.29V304.585L340.639 304.051V302.317L339.945 302.29ZM221.987 330.684L214.383 330.177L211.054 329.99L207.752 329.803L202.563 329.509L199.372 329.323H198.067L191.88 329.002L188.883 328.842H145.207H145.873L148.842 329.189L150.59 329.403L156.833 330.097L169.265 331.538H234.557C230.45 331.271 226.204 330.95 221.987 330.684ZM339.945 302.29V304.585L340.639 304.051V302.317L339.945 302.29ZM221.987 330.684L214.383 330.177L211.054 329.99L207.752 329.803L202.563 329.509L199.372 329.323H198.067L191.88 329.002L188.883 328.842H145.207H145.873L148.842 329.189L150.59 329.403L156.833 330.097L169.265 331.538H234.557C230.45 331.271 226.204 330.95 221.987 330.684ZM339.945 302.29V304.585L340.639 304.051V302.317L339.945 302.29ZM221.987 330.684L214.383 330.177L211.054 329.99L207.752 329.803L202.563 329.509L199.372 329.323H198.067L191.88 329.002L188.883 328.842H145.207H145.873L148.842 329.189L150.59 329.403L156.833 330.097L169.265 331.538H234.557C230.45 331.271 226.204 330.95 221.987 330.684ZM339.945 302.29V304.585L340.639 304.051V302.317L339.945 302.29ZM221.987 330.684L214.383 330.177L211.054 329.99L207.752 329.803L202.563 329.509L199.372 329.323H198.067L191.88 329.002L188.883 328.842H145.207H145.873L148.842 329.189L150.59 329.403L156.833 330.097L169.265 331.538H234.557C230.45 331.271 226.204 330.95 221.987 330.684ZM339.945 302.29V304.585L340.639 304.051V302.317L339.945 302.29ZM221.987 330.684L214.383 330.177L211.054 329.99L207.752 329.803L202.563 329.509L199.372 329.323H198.067L191.88 329.002L188.883 328.842H145.207H145.873L148.842 329.189L150.59 329.403L156.833 330.097L169.265 331.538H234.557C230.45 331.271 226.204 330.95 221.987 330.684ZM339.945 302.29V304.585L340.639 304.051V302.317L339.945 302.29ZM221.987 330.684L214.383 330.177L211.054 329.99L207.752 329.803L202.563 329.509L199.372 329.323H198.067L191.88 329.002L188.883 328.842H145.207H145.873L148.842 329.189L150.59 329.403L156.833 330.097L169.265 331.538H234.557C230.45 331.271 226.204 330.95 221.987 330.684ZM339.945 302.29V304.585L340.639 304.051V302.317L339.945 302.29ZM221.987 330.684L214.383 330.177L211.054 329.99L207.752 329.803L202.563 329.509L199.372 329.323H198.067L191.88 329.002L188.883 328.842H145.207H145.873L148.842 329.189L150.59 329.403L156.833 330.097L169.265 331.538H234.557C230.45 331.271 226.204 330.95 221.987 330.684ZM339.945 302.29V304.585L340.639 304.051V302.317L339.945 302.29ZM221.987 330.684L214.383 330.177L211.054 329.99L207.752 329.803L202.563 329.509L199.372 329.323H198.067L191.88 329.002L188.883 328.842H145.207H145.873L148.842 329.189L150.59 329.403L156.833 330.097L169.265 331.538H234.557C230.45 331.271 226.204 330.95 221.987 330.684ZM339.945 302.29V304.585L340.639 304.051V302.317L339.945 302.29ZM221.987 330.684L214.383 330.177L211.054 329.99L207.752 329.803L202.563 329.509L199.372 329.323H198.067L191.88 329.002L188.883 328.842H145.207H145.873L148.842 329.189L150.59 329.403L156.833 330.097L169.265 331.538H234.557C230.45 331.271 226.204 330.95 221.987 330.684ZM339.945 302.29V304.585L340.639 304.051V302.317L339.945 302.29ZM221.987 330.684L214.383 330.177L211.054 329.99L207.752 329.803L202.563 329.509L199.372 329.323H198.067L191.88 329.002L188.883 328.842H145.207H145.873L148.842 329.189L150.59 329.403L156.833 330.097L169.265 331.538H234.557C230.45 331.271 226.204 330.95 221.987 330.684ZM339.945 302.29V304.585L340.639 304.051V302.317L339.945 302.29ZM221.987 330.684L214.383 330.177L211.054 329.99L207.752 329.803L202.563 329.509L199.372 329.323H198.067L191.88 329.002L188.883 328.842H145.207H145.873L148.842 329.189L150.59 329.403L156.833 330.097L169.265 331.538H234.557C230.45 331.271 226.204 330.95 221.987 330.684ZM216.437 330.684H215.271H214.994H213.579H212.719L198.428 329.67H198.012L194.876 329.403L192.102 329.189H188.078L228.591 331.858H229.95L216.437 330.684ZM216.437 330.684H215.271H214.994H213.579H212.719L198.428 329.67H198.012L194.876 329.403L192.102 329.189H188.078L228.591 331.858H229.95L216.437 330.684ZM216.437 330.684H215.271H214.994H213.579H212.719L198.428 329.67H198.012L194.876 329.403L192.102 329.189H188.078L228.591 331.858H229.95L216.437 330.684ZM216.437 330.684H215.271H214.994H213.579H212.719L198.428 329.67H198.012L194.876 329.403L192.102 329.189H188.078L228.591 331.858H229.95L216.437 330.684ZM216.437 330.684H215.271H214.994H213.579H212.719L198.428 329.67H198.012L194.876 329.403L192.102 329.189H188.078L228.591 331.858H229.95L216.437 330.684ZM216.437 330.684H215.271H214.994H213.579H212.719L198.428 329.67H198.012L194.876 329.403L192.102 329.189H188.078L228.591 331.858H229.95L216.437 330.684ZM216.437 330.684H215.271H214.994H213.579H212.719L198.428 329.67H198.012L194.876 329.403L192.102 329.189H188.078L228.591 331.858H229.95L216.437 330.684ZM216.437 330.684H215.271H214.994H213.579H212.719L198.428 329.67H198.012L194.876 329.403L192.102 329.189H188.078L228.591 331.858H229.95L216.437 330.684ZM348.602 21.8289C347.911 18.1307 346.365 14.6289 344.079 11.5815C343.542 10.8378 342.949 10.1332 342.304 9.47334C341.455 8.60286 340.526 7.80795 339.529 7.09829C334.738 3.62829 328.876 1.80522 322.88 1.92123H30.1065C24.186 1.91507 18.3678 3.40594 13.2354 6.24434C12.1045 6.88483 11.0198 7.59808 9.98888 8.37921C7.35097 10.2828 5.11831 12.6565 3.41251 15.3709C3.00243 16.0308 2.64081 16.7174 2.33032 17.4257C0.913833 20.4345 0.194264 23.7033 0.221445 27.006V309.175C0.221445 310.029 0.221445 310.856 0.360187 311.657C0.416847 312.349 0.528161 313.036 0.693168 313.711C0.693168 314.245 0.915155 314.806 1.0539 315.339C1.19264 315.873 1.22039 315.926 1.33138 316.247C2.27143 319.309 3.74445 322.197 5.68788 324.786C6.32609 325.613 6.99205 326.441 7.68576 327.214C7.80823 327.346 7.93791 327.47 8.07424 327.588L8.76795 328.362L9.15643 328.709C14.6581 334.184 22.1908 337.341 30.1065 337.489H324.406C326.436 337.36 328.441 336.984 330.372 336.368C334.262 335.054 337.787 332.898 340.674 330.066C343.56 327.234 345.732 323.803 347.021 320.036C347.021 319.742 347.215 319.476 347.298 319.209C347.382 318.942 347.298 319.209 347.298 319.075C347.52 318.417 347.714 317.75 347.881 317.074C348.573 314.458 348.918 311.768 348.908 309.068V26.8992C348.958 25.1683 348.856 23.4365 348.602 21.7222V21.8289ZM339.945 309.335C339.933 312.209 339.378 315.057 338.308 317.741C338.036 318.439 337.711 319.117 337.337 319.769C337.205 320.044 337.057 320.312 336.893 320.57C335.576 323.028 333.59 325.096 331.146 326.553C328.703 328.01 325.893 328.801 323.018 328.842H30.1065C26.1451 328.638 22.3132 327.416 19.0094 325.304C15.7056 323.192 13.0507 320.267 11.3208 316.834C11.1647 316.557 11.0257 316.272 10.9046 315.98V315.82C10.6696 315.337 10.4748 314.837 10.3219 314.325C10.2448 314.152 10.18 313.973 10.1276 313.791C9.6782 312.318 9.44472 310.791 9.43391 309.255V27.086C9.38793 23.5633 10.703 20.1494 13.1244 17.5058C13.6833 16.8883 14.286 16.3087 14.9281 15.7712C19.1786 12.3327 24.5522 10.4431 30.1065 10.434H322.907C332.175 10.434 338.336 15.3442 339.556 23.4834C339.774 24.6097 339.876 25.7538 339.862 26.8992L339.945 309.335ZM216.437 330.577H215.271H214.994H213.579H212.719L198.428 329.563H198.012L194.876 329.296L192.102 329.082H188.078L228.591 331.751H229.95L216.437 330.577ZM216.437 330.577H215.271H214.994H213.579H212.719L198.428 329.563H198.012L194.876 329.296L192.102 329.082H188.078L228.591 331.751H229.95L216.437 330.577ZM216.437 330.577H215.271H214.994H213.579H212.719L198.428 329.563H198.012L194.876 329.296L192.102 329.082H188.078L228.591 331.751H229.95L216.437 330.577ZM216.437 330.577H215.271H214.994H213.579H212.719L198.428 329.563H198.012L194.876 329.296L192.102 329.082H188.078L228.591 331.751H229.95L216.437 330.577ZM216.437 330.577H215.271H214.994H213.579H212.719L198.428 329.563H198.012L194.876 329.296L192.102 329.082H188.078L228.591 331.751H229.95L216.437 330.577ZM216.437 330.577H215.271H214.994H213.579H212.719L198.428 329.563H198.012L194.876 329.296L192.102 329.082H188.078L228.591 331.751H229.95L216.437 330.577ZM216.437 330.577H215.271H214.994H213.579H212.719L198.428 329.563H198.012L194.876 329.296L192.102 329.082H188.078L228.591 331.751H229.95L216.437 330.577ZM216.437 330.577H215.271H214.994H213.579H212.719L198.428 329.563H198.012L194.876 329.296L192.102 329.082H188.078L228.591 331.751H229.95L216.437 330.577ZM221.987 330.577L214.383 330.07L211.054 329.883L207.752 329.696L202.563 329.509L199.372 329.323H198.067L191.88 329.002L188.883 328.842H145.207H145.873L148.842 329.189L150.59 329.403L156.833 330.097L169.265 331.538H234.557C230.45 331.271 226.204 330.95 221.987 330.684V330.577ZM221.987 330.577L214.383 330.07L211.054 329.883L207.752 329.696L202.563 329.509L199.372 329.323H198.067L191.88 329.002L188.883 328.842H145.207H145.873L148.842 329.189L150.59 329.403L156.833 330.097L169.265 331.538H234.557C230.45 331.271 226.204 330.95 221.987 330.684V330.577ZM339.945 302.29V304.585L340.639 304.051V302.317L339.945 302.29ZM221.987 330.684L214.383 330.177L211.054 329.99L207.752 329.803L202.563 329.509L199.372 329.323H198.067L191.88 329.002L188.883 328.842H145.207H145.873L148.842 329.189L150.59 329.403L156.833 330.097L169.265 331.538H234.557C230.45 331.271 226.204 330.95 221.987 330.684ZM339.945 302.29V304.585L340.639 304.051V302.317L339.945 302.29ZM221.987 330.684L214.383 330.177L211.054 329.99L207.752 329.803L202.563 329.509L199.372 329.323H198.067L191.88 329.002L188.883 328.842H145.207H145.873L148.842 329.189L150.59 329.403L156.833 330.097L169.265 331.538H234.557C230.45 331.271 226.204 330.95 221.987 330.684ZM339.945 302.29V304.585L340.639 304.051V302.317L339.945 302.29ZM221.987 330.684L214.383 330.177L211.054 329.99L207.752 329.803L202.563 329.509L199.372 329.323H198.067L191.88 329.002L188.883 328.842H145.207H145.873L148.842 329.189L150.59 329.403L156.833 330.097L169.265 331.538H234.557C230.45 331.271 226.204 330.95 221.987 330.684ZM339.945 302.29V304.585L340.639 304.051V302.317L339.945 302.29ZM221.987 330.684L214.383 330.177L211.054 329.99L207.752 329.803L202.563 329.509L199.372 329.323H198.067L191.88 329.002L188.883 328.842H145.207H145.873L148.842 329.189L150.59 329.403L156.833 330.097L169.265 331.538H234.557C230.45 331.271 226.204 330.95 221.987 330.684ZM339.945 302.29V304.585L340.639 304.051V302.317L339.945 302.29ZM221.987 330.684L214.383 330.177L211.054 329.99L207.752 329.803L202.563 329.509L199.372 329.323H198.067L191.88 329.002L188.883 328.842H145.207H145.873L148.842 329.189L150.59 329.403L156.833 330.097L169.265 331.538H234.557C230.45 331.271 226.204 330.95 221.987 330.684ZM339.945 302.29V304.585L340.639 304.051V302.317L339.945 302.29ZM221.987 330.684L214.383 330.177L211.054 329.99L207.752 329.803L202.563 329.509L199.372 329.323H198.067L191.88 329.002L188.883 328.842H145.207H145.873L148.842 329.189L150.59 329.403L156.833 330.097L169.265 331.538H234.557C230.45 331.271 226.204 330.95 221.987 330.684ZM339.945 302.29V304.585L340.639 304.051V302.317L339.945 302.29ZM221.987 330.684L214.383 330.177L211.054 329.99L207.752 329.803L202.563 329.509L199.372 329.323H198.067L191.88 329.002L188.883 328.842H145.207H145.873L148.842 329.189L150.59 329.403L156.833 330.097L169.265 331.538H234.557C230.45 331.271 226.204 330.95 221.987 330.684ZM339.945 302.29V304.585L340.639 304.051V302.317L339.945 302.29ZM221.987 330.684L214.383 330.177L211.054 329.99L207.752 329.803L202.563 329.509L199.372 329.323H198.067L191.88 329.002L188.883 328.842H145.207H145.873L148.842 329.189L150.59 329.403L156.833 330.097L169.265 331.538H234.557C230.45 331.271 226.204 330.95 221.987 330.684ZM339.945 302.29V304.585L340.639 304.051V302.317L339.945 302.29ZM221.987 330.684L214.383 330.177L211.054 329.99L207.752 329.803L202.563 329.509L199.372 329.323H198.067L191.88 329.002L188.883 328.842H145.207H145.873L148.842 329.189L150.59 329.403L156.833 330.097L169.265 331.538H234.557C230.45 331.271 226.204 330.95 221.987 330.684ZM339.945 302.29V304.585L340.639 304.051V302.317L339.945 302.29ZM221.987 330.684L214.383 330.177L211.054 329.99L207.752 329.803L202.563 329.509L199.372 329.323H198.067L191.88 329.002L188.883 328.842H145.207H145.873L148.842 329.189L150.59 329.403L156.833 330.097L169.265 331.538H234.557C230.45 331.271 226.204 330.95 221.987 330.684ZM339.945 302.29V304.585L340.639 304.051V302.317L339.945 302.29ZM221.987 330.684L214.383 330.177L211.054 329.99L207.752 329.803L202.563 329.509L199.372 329.323H198.067L191.88 329.002L188.883 328.842H145.207H145.873L148.842 329.189L150.59 329.403L156.833 330.097L169.265 331.538H234.557C230.45 331.271 226.204 330.95 221.987 330.684ZM339.945 302.29V304.585L340.639 304.051V302.317L339.945 302.29ZM221.987 330.684L214.383 330.177L211.054 329.99L207.752 329.803L202.563 329.509L199.372 329.323H198.067L191.88 329.002L188.883 328.842H145.207H145.873L148.842 329.189L150.59 329.403L156.833 330.097L169.265 331.538H234.557C230.45 331.271 226.204 330.95 221.987 330.684ZM339.945 302.29V304.585L340.639 304.051V302.317L339.945 302.29ZM221.987 330.684L214.383 330.177L211.054 329.99L207.752 329.803L202.563 329.509L199.372 329.323H198.067L191.88 329.002L188.883 328.842H145.207H145.873L148.842 329.189L150.59 329.403L156.833 330.097L169.265 331.538H234.557C230.45 331.271 226.204 330.95 221.987 330.684ZM339.945 302.29V304.585L340.639 304.051V302.317L339.945 302.29ZM221.987 330.684L214.383 330.177L211.054 329.99L207.752 329.803L202.563 329.509L199.372 329.323H198.067L191.88 329.002L188.883 328.842H145.207H145.873L148.842 329.189L150.59 329.403L156.833 330.097L169.265 331.538H234.557C230.45 331.271 226.204 330.95 221.987 330.684ZM339.945 302.29V304.585L340.639 304.051V302.317L339.945 302.29ZM221.987 330.684L214.383 330.177L211.054 329.99L207.752 329.803L202.563 329.509L199.372 329.323H198.067L191.88 329.002L188.883 328.842H145.207H145.873L148.842 329.189L150.59 329.403L156.833 330.097L169.265 331.538H234.557C230.45 331.271 226.204 330.95 221.987 330.684ZM339.945 302.29V304.585L340.639 304.051V302.317L339.945 302.29ZM221.987 330.684L214.383 330.177L211.054 329.99L207.752 329.803L202.563 329.509L199.372 329.323H198.067L191.88 329.002L188.883 328.842H145.207H145.873L148.842 329.189L150.59 329.403L156.833 330.097L169.265 331.538H234.557C230.45 331.271 226.204 330.95 221.987 330.684ZM339.945 302.29V304.585L340.639 304.051V302.317L339.945 302.29ZM221.987 330.684L214.383 330.177L211.054 329.99L207.752 329.803L202.563 329.509L199.372 329.323H198.067L191.88 329.002L188.883 328.842H145.207H145.873L148.842 329.189L150.59 329.403L156.833 330.097L169.265 331.538H234.557C230.45 331.271 226.204 330.95 221.987 330.684ZM339.945 302.29V304.585L340.639 304.051V302.317L339.945 302.29ZM221.987 330.684L214.383 330.177L211.054 329.99L207.752 329.803L202.563 329.509L199.372 329.323H198.067L191.88 329.002L188.883 328.842H145.207H145.873L148.842 329.189L150.59 329.403L156.833 330.097L169.265 331.538H234.557C230.45 331.271 226.204 330.95 221.987 330.684ZM339.945 302.29V304.585L340.639 304.051V302.317L339.945 302.29ZM221.987 330.684L214.383 330.177L211.054 329.99L207.752 329.803L202.563 329.509L199.372 329.323H198.067L191.88 329.002L188.883 328.842H145.207H145.873L148.842 329.189L150.59 329.403L156.833 330.097L169.265 331.538H234.557C230.45 331.271 226.204 330.95 221.987 330.684ZM339.945 302.29V304.585L340.639 304.051V302.317L339.945 302.29ZM221.987 330.684L214.383 330.177L211.054 329.99L207.752 329.803L202.563 329.509L199.372 329.323H198.067L191.88 329.002L188.883 328.842H145.207H145.873L148.842 329.189L150.59 329.403L156.833 330.097L169.265 331.538H234.557C230.45 331.271 226.204 330.95 221.987 330.684ZM339.945 302.29V304.585L340.639 304.051V302.317L339.945 302.29ZM221.987 330.684L214.383 330.177L211.054 329.99L207.752 329.803L202.563 329.509L199.372 329.323H198.067L191.88 329.002L188.883 328.842H145.207H145.873L148.842 329.189L150.59 329.403L156.833 330.097L169.265 331.538H234.557C230.45 331.271 226.204 330.95 221.987 330.684ZM339.945 302.29V304.585L340.639 304.051V302.317L339.945 302.29ZM221.987 330.684L214.383 330.177L211.054 329.99L207.752 329.803L202.563 329.509L199.372 329.323H198.067L191.88 329.002L188.883 328.842H145.207H145.873L148.842 329.189L150.59 329.403L156.833 330.097L169.265 331.538H234.557C230.45 331.271 226.204 330.95 221.987 330.684ZM339.945 302.29V304.585L340.639 304.051V302.317L339.945 302.29ZM221.987 330.684L214.383 330.177L211.054 329.99L207.752 329.803L202.563 329.509L199.372 329.323H198.067L191.88 329.002L188.883 328.842H145.207H145.873L148.842 329.189L150.59 329.403L156.833 330.097L169.265 331.538H234.557C230.45 331.271 226.204 330.95 221.987 330.684ZM339.945 302.29V304.585L340.639 304.051V302.317L339.945 302.29ZM221.987 330.684L214.383 330.177L211.054 329.99L207.752 329.803L202.563 329.509L199.372 329.323H198.067L191.88 329.002L188.883 328.842H145.207H145.873L148.842 329.189L150.59 329.403L156.833 330.097L169.265 331.538H234.557C230.45 331.271 226.204 330.95 221.987 330.684ZM339.945 302.29V304.585L340.639 304.051V302.317L339.945 302.29ZM221.987 330.684L214.383 330.177L211.054 329.99L207.752 329.803L202.563 329.509L199.372 329.323H198.067L191.88 329.002L188.883 328.842H145.207H145.873L148.842 329.189L150.59 329.403L156.833 330.097L169.265 331.538H234.557C230.45 331.271 226.204 330.95 221.987 330.684ZM339.945 302.29V304.585L340.639 304.051V302.317L339.945 302.29ZM221.987 330.684L214.383 330.177L211.054 329.99L207.752 329.803L202.563 329.509L199.372 329.323H198.067L191.88 329.002L188.883 328.842H145.207H145.873L148.842 329.189L150.59 329.403L156.833 330.097L169.265 331.538H234.557C230.45 331.271 226.204 330.95 221.987 330.684ZM339.945 302.29V304.585L340.639 304.051V302.317L339.945 302.29Z" fill="url(#paint1_linear_0_1)"/>
<g style="mix-blend-mode:multiply" opacity="0.6">
<path d="M18.7299 16.4655C17.9127 16.9169 17.125 17.4159 16.3712 17.9599C15.2613 17.7731 14.1791 17.6397 13.1247 17.5062C10.3043 17.2264 7.46632 17.1461 4.63368 17.2661L2.33057 17.4262C2.64106 16.7178 3.00267 16.0312 3.41275 15.3714H6.18759C9.12017 15.2961 12.054 15.4657 14.9561 15.8784C16.2234 16.0132 17.483 16.2091 18.7299 16.4655Z" fill="#C97B3A"/>
<path d="M10.1843 27.7534C10.1273 28.4373 10.1273 29.1244 10.1843 29.8082L9.49062 29.9683C7.17315 30.506 4.7987 30.7837 2.41478 30.7956H0.222656V28.7942H0.944114C3.74751 28.9044 6.55249 28.6167 9.26863 27.9402L10.1843 27.7534Z" fill="#C97B3A"/>
<path d="M10.0456 35.4123V37.3871L9.35188 37.3604L0.916366 37.227H0.222656V35.2522H0.916366L9.35188 35.4123H10.0456Z" fill="#C97B3A"/>
<path d="M10.0456 56.0714V58.0462L9.35188 57.9928L0.916366 57.5925L0.222656 57.5391V55.5911L0.916366 55.6178L9.35188 56.0447L10.0456 56.0714Z" fill="#C97B3A"/>
<path d="M102.67 340.371H97.1198L89.3225 337.702C84.1613 335.861 78.2232 333.726 72.1463 331.698L63.8218 329.029H70.1762L78.3064 331.698C84.5776 333.886 90.599 336.047 95.2052 337.702L102.67 340.371Z" fill="#C97B3A"/>
<path d="M81.5812 340.371H75.1713C72.119 339.41 68.7337 338.423 65.2374 337.702C60.3704 336.435 55.4062 335.543 50.392 335.034C36.0206 333.207 21.7642 330.624 7.68723 327.295L5.82809 326.894C5.29553 326.146 4.80462 325.371 4.35742 324.573C4.80644 324.648 5.25103 324.746 5.68934 324.866C9.24114 325.64 14.0139 326.708 19.3415 327.802C25.9179 329.136 33.2157 330.47 39.7644 331.564C43.7324 332.205 47.4507 332.685 50.5585 332.979C58.0987 333.793 65.5353 335.331 72.7572 337.569C76.0037 338.529 79.0006 339.49 81.5812 340.371Z" fill="#C97B3A"/>
<path d="M142.1 340.371H140.046L139.713 338.583L136.689 337.569L118.847 331.565L110.578 328.789H116.738L124.979 331.565L141.489 337.142L141.573 337.569L142.1 340.371Z" fill="#C97B3A"/>
<path d="M335.756 337.276C334.738 337.843 333.681 338.342 332.593 338.77C330.04 338.343 327.237 337.916 324.518 337.542C321.743 337.142 318.968 336.795 316.859 336.635C314.085 336.395 308.535 336.128 300.71 335.754C290.249 335.247 276.069 334.58 260.669 333.566C256.534 334.607 248.071 336.048 237.971 337.569C231.866 338.476 225.151 339.464 218.547 340.238H203.59L215.578 338.637L204.756 337.436C189.605 335.754 168.211 333.273 152.228 331.431L130.418 329.056V328.789H145.291H145.957L148.926 329.136L150.674 329.35L156.918 330.044L169.349 331.485C190.465 333.913 213.746 336.555 221.238 337.302V337.489V337.916L224.263 337.489C235.362 335.915 246.184 334.287 253.427 332.979C248.904 332.659 244.297 332.285 239.552 331.912L234.558 331.485C230.451 331.191 226.233 330.871 221.96 330.604L214.357 330.097L211.027 329.91L207.725 329.723L202.564 329.51L198.069 329.27L191.881 328.95L188.884 328.789H223.347C228.897 329.163 234.447 329.563 239.747 330.017C246.684 330.604 253.621 331.111 260.336 331.565H260.53C275.986 332.579 290.193 333.273 300.682 333.78C308.396 334.153 314.001 334.42 316.887 334.66C320.578 334.981 325.711 335.701 330.373 336.395L335.756 337.276Z" fill="#C97B3A"/>
<path d="M342.236 9.31351C341.181 9.15339 340.099 8.99327 339.017 8.88653C324.555 7.46365 310.007 7.0089 295.48 7.52555V7.36544C291.706 8.59299 288.598 9.76717 286.545 10.5411L283.77 11.6085L283.27 10.5411L283.021 9.79385C283.575 9.55368 289.403 7.12526 297.616 4.45667C300.752 3.49598 304.248 2.5086 307.911 1.78809H318.316C313.826 2.48135 309.379 3.41683 304.997 4.5901L302.028 5.39068C312.655 5.15891 323.287 5.44392 333.883 6.24463C335.798 6.43143 337.657 6.61823 339.433 6.8584C340.444 7.59214 341.382 8.41399 342.236 9.31351Z" fill="#C97B3A"/>
<path d="M349.617 35.8392V37.9207L348.951 38.1609C346.238 39.0219 343.453 39.6558 340.627 40.0556H339.933V38.2676H340.627C343.451 37.8453 346.235 37.2027 348.951 36.3463L349.617 35.8392Z" fill="#C97B3A"/>
<path d="M349.617 32.6104V34.6119L348.951 34.4518L340.627 32.5304C340.393 32.4897 340.161 32.4362 339.933 32.3703V30.2621L340.627 30.4222L348.951 32.3436L349.617 32.6104Z" fill="#C97B3A"/>
<path d="M349.617 46.4603V48.435H348.951L340.627 47.7145H339.933V45.7397H340.627C343.402 45.9532 346.176 46.1934 348.951 46.4603H349.617Z" fill="#C97B3A"/>
<path d="M296.357 5.4973L295.478 7.61161C284.822 7.61161 27.9701 7.33884 15.7331 7.95262L9.96143 8.24616C10.9965 7.51079 12.081 6.84218 13.208 6.24472L21.9765 5.81774C29.4963 5.47083 39.347 5.01717 48.1987 4.69694C55.4965 4.29665 292.167 5.4973 296.357 5.4973Z" fill="#C97B3A"/>
</g>
<g style="mix-blend-mode:overlay" opacity="0.5">
<path d="M11.2657 19.9345C11.7705 19.0492 12.3957 18.2326 13.1248 17.5061C10.3121 17.1278 7.46474 17.0473 4.63379 17.2659C10.0725 17.3193 11.2657 19.9345 11.2657 19.9345Z" fill="#FFDE55"/>
<path d="M60.7407 6.03125L14.0679 8.32624C14.0679 8.32624 27.7201 8.32624 38.431 8.00601C45.9 7.74903 53.3483 7.08974 60.7407 6.03125Z" fill="#FFDE55"/>
<path d="M7.18701 30.5289C4.88313 30.8704 2.54557 30.951 0.222168 30.7691V35.2523L1.08237 31.6764C3.15279 31.4963 5.19845 31.1118 7.18701 30.5289Z" fill="#FFDE55"/>
<path d="M9.35121 38.588V37.6006C6.13239 37.6006 1.27643 37.2537 0.221987 37.2003H0L0.138742 38.0009L9.35121 38.588Z" fill="#FFDE55"/>
<path d="M9.35188 58.0994L0.222656 57.7258V58.5531C3.24941 58.9347 6.29924 59.1219 9.35188 59.1135V58.0994Z" fill="#FFDE55"/>
<path d="M34.3526 332.899C26.6385 331.671 7.96387 327.562 7.96387 327.562L9.15705 328.683C9.15705 328.683 16.2606 330.337 19.6737 331.351C23.0867 332.365 40.5405 334.714 46.0624 335.274C51.5843 335.834 59.2151 337.569 59.2151 337.569L64.7648 337.409C64.7648 337.409 53.1382 335.034 51.8618 335.034C50.5854 335.034 42.0666 334.1 34.3526 332.899Z" fill="#FFDE55"/>
<path d="M63.2933 328.789H59.8525C68.1771 331.244 84.9648 337.008 86.5742 337.569H86.713H89.1271C89.1271 337.569 76.6126 333.299 72.4781 331.831C69.3702 330.684 64.986 329.323 63.2933 328.789Z" fill="#FFDE55"/>
<path d="M112.02 328.789H110.3C115.849 331.031 132.027 336.795 134.635 337.569H134.996H136.689C136.689 337.569 128.142 334.366 123.203 333.032C119.378 331.868 115.641 330.45 112.02 328.789Z" fill="#FFDE55"/>
<path d="M193.212 336.234C188.911 335.834 156.112 332.311 148.232 331.164C142.96 330.39 134.358 329.376 129.169 328.789H124.868C132.027 330.684 158.776 333.352 167.739 334.126C175.675 334.847 191.27 336.795 196.348 337.489L198.012 337.702L203.978 337.542H203.673C202.286 337.382 197.013 336.581 193.212 336.234Z" fill="#FFDE55"/>
<path d="M198.013 92.4665H198.429L215.078 93.6407L192.158 91.9595L198.013 92.4665Z" fill="#FFDE55"/>
<path d="M231.338 348.479C226.676 348.132 222.264 347.812 219.462 347.678L214.966 347.385L249.569 349.92L188.078 345.704C195.348 346.531 208.751 348.025 215.41 348.372C216.659 348.372 217.658 348.532 218.352 348.532C223.652 348.532 247.432 349.787 251.844 350H252.51H251.233C248.042 349.76 239.274 349.066 231.338 348.479Z" fill="#FFDE55"/>
<path d="M349.075 48.3819L339.197 47.5012C342.106 47.9727 344.972 48.6597 347.771 49.556C348.714 50.1965 349.131 56.3076 349.131 56.3076L349.075 48.3819Z" fill="#FFDE55"/>
<path d="M349.074 38.2676C348.131 38.5078 346.688 38.8547 344.634 39.4418C343.113 39.8876 341.535 40.13 339.945 40.1623V41.4966C343.049 40.8132 346.1 39.9215 349.074 38.828V38.2676Z" fill="#FFDE55"/>
<path d="M339.945 33.5176C342.958 34.1666 346.005 34.6566 349.074 34.9853V34.4783L339.945 32.3434V33.5176Z" fill="#FFDE55"/>
<path d="M342.332 9.39351C338.308 8.85979 328.458 7.63224 320.633 7.41876C310.699 7.17858 295.437 7.41876 295.437 7.41876L286.086 10.4343H289.388C292.234 9.10963 295.31 8.30431 298.462 8.05922C303.207 7.81904 326.626 8.37945 330.456 8.61962C335.09 9.15948 339.655 10.152 344.08 11.5818C343.555 10.8114 342.971 10.0799 342.332 9.39351Z" fill="#FFDE55"/>
</g>
<path d="M349.617 103.497V105.579L348.951 105.819C346.238 106.68 343.453 107.314 340.627 107.714H339.933V105.926H340.627C343.451 105.503 346.235 104.861 348.951 104.004L349.617 103.497Z" fill="#C97B3A"/>
<path d="M349.617 100.268V102.27L348.951 102.11L340.627 100.188C340.393 100.148 340.161 100.094 339.933 100.028V97.92L340.627 98.0802L348.951 100.002L349.617 100.268Z" fill="#C97B3A"/>
<path d="M349.617 114.118V116.093H348.951L340.627 115.372H339.933V113.398H340.627C343.402 113.611 346.176 113.851 348.951 114.118H349.617Z" fill="#C97B3A"/>
<path d="M349.075 116.04L339.197 115.159C342.106 115.631 344.972 116.318 347.771 117.214C348.714 117.854 349.131 123.966 349.131 123.966L349.075 116.04Z" fill="#FFDE55"/>
<path d="M349.074 105.926C348.131 106.166 346.688 106.513 344.634 107.1C343.113 107.546 341.535 107.788 339.945 107.82V109.155C343.049 108.471 346.1 107.579 349.074 106.486V105.926Z" fill="#FFDE55"/>
<path d="M339.945 101.176C342.958 101.825 346.005 102.315 349.074 102.643V102.136L339.945 100.001V101.176Z" fill="#FFDE55"/>
<path d="M349.617 145.783V147.865L348.951 148.105C346.238 148.966 343.453 149.6 340.627 150H339.933V148.212H340.627C343.451 147.789 346.235 147.147 348.951 146.29L349.617 145.783Z" fill="#C97B3A"/>
<path d="M349.617 142.555V144.556L348.951 144.396L340.627 142.475C340.393 142.434 340.161 142.38 339.933 142.314V140.206L340.627 140.366L348.951 142.288L349.617 142.555Z" fill="#C97B3A"/>
<path d="M349.617 156.404V158.379H348.951L340.627 157.659H339.933V155.684H340.627C343.402 155.897 346.176 156.137 348.951 156.404H349.617Z" fill="#C97B3A"/>
<path d="M349.075 158.326L339.197 157.445C342.106 157.917 344.972 158.604 347.771 159.5C348.714 160.141 349.131 166.252 349.131 166.252L349.075 158.326Z" fill="#FFDE55"/>
<path d="M349.074 148.212C348.131 148.452 346.688 148.799 344.634 149.386C343.113 149.832 341.535 150.074 339.945 150.106V151.441C343.049 150.757 346.1 149.866 349.074 148.772V148.212Z" fill="#FFDE55"/>
<path d="M339.945 143.462C342.958 144.111 346.005 144.601 349.074 144.93V144.422L339.945 142.288V143.462Z" fill="#FFDE55"/>
<path d="M349.617 213.441V215.523L348.951 215.763C346.238 216.624 343.453 217.258 340.627 217.658H339.933V215.87H340.627C343.451 215.447 346.235 214.805 348.951 213.948L349.617 213.441Z" fill="#C97B3A"/>
<path d="M349.617 210.213V212.214L348.951 212.054L340.627 210.133C340.393 210.092 340.161 210.038 339.933 209.972V207.864L340.627 208.024L348.951 209.946L349.617 210.213Z" fill="#C97B3A"/>
<path d="M349.617 224.062V226.037H348.951L340.627 225.317H339.933V223.342H340.627C343.402 223.555 346.176 223.795 348.951 224.062H349.617Z" fill="#C97B3A"/>
<path d="M349.075 225.984L339.197 225.103C342.106 225.575 344.972 226.262 347.771 227.158C348.714 227.799 349.131 233.91 349.131 233.91L349.075 225.984Z" fill="#FFDE55"/>
<path d="M349.074 215.87C348.131 216.11 346.688 216.457 344.634 217.044C343.113 217.49 341.535 217.732 339.945 217.764V219.099C343.049 218.415 346.1 217.524 349.074 216.43V215.87Z" fill="#FFDE55"/>
<path d="M339.945 211.12C342.958 211.769 346.005 212.259 349.074 212.587V212.08L339.945 209.946V211.12Z" fill="#FFDE55"/>
<path d="M349.617 281.099V283.181L348.951 283.421C346.238 284.282 343.453 284.916 340.627 285.316H339.933V283.528H340.627C343.451 283.105 346.235 282.463 348.951 281.606L349.617 281.099Z" fill="#C97B3A"/>
<path d="M349.617 277.871V279.872L348.951 279.712L340.627 277.791C340.393 277.75 340.161 277.696 339.933 277.63V275.522L340.627 275.682L348.951 277.604L349.617 277.871Z" fill="#C97B3A"/>
<path d="M349.617 291.72V293.695H348.951L340.627 292.975H339.933V291H340.627C343.402 291.213 346.176 291.453 348.951 291.72H349.617Z" fill="#C97B3A"/>
<path d="M349.075 293.642L339.197 292.761C342.106 293.233 344.972 293.92 347.771 294.816C348.714 295.457 349.131 301.568 349.131 301.568L349.075 293.642Z" fill="#FFDE55"/>
<path d="M349.074 283.528C348.131 283.768 346.688 284.115 344.634 284.702C343.113 285.148 341.535 285.39 339.945 285.422V286.757C343.049 286.073 346.1 285.181 349.074 284.088V283.528Z" fill="#FFDE55"/>
<path d="M339.945 278.778C342.958 279.427 346.005 279.917 349.074 280.245V279.738L339.945 277.604V278.778Z" fill="#FFDE55"/>
<path d="M10.1843 95.4114C10.1273 96.0952 10.1273 96.7823 10.1843 97.4662L9.49062 97.6263C7.17315 98.164 4.7987 98.4416 2.41478 98.4536H0.222656V96.4521H0.944114C3.74751 96.5624 6.55249 96.2746 9.26863 95.5982L10.1843 95.4114Z" fill="#C97B3A"/>
<path d="M10.0456 103.07V105.045L9.35188 105.018L0.916366 104.885H0.222656V102.91H0.916366L9.35188 103.07H10.0456Z" fill="#C97B3A"/>
<path d="M10.0456 123.729V125.704L9.35188 125.651L0.916366 125.25L0.222656 125.197V123.249L0.916366 123.276L9.35188 123.703L10.0456 123.729Z" fill="#C97B3A"/>
<path d="M7.1875 98.1868C4.88362 98.5283 2.54605 98.6089 0.222656 98.4269V102.91L1.08286 99.3343C3.15328 99.1542 5.19894 98.7696 7.1875 98.1868Z" fill="#FFDE55"/>
<path d="M9.35121 106.246V105.259C6.13239 105.259 1.27643 104.912 0.221987 104.858H0L0.138742 105.659L9.35121 106.246Z" fill="#FFDE55"/>
<path d="M9.35188 125.757L0.222656 125.384V126.211C3.24941 126.593 6.29924 126.78 9.35188 126.771V125.757Z" fill="#FFDE55"/>
<path d="M10.1843 179.984C10.1273 180.668 10.1273 181.355 10.1843 182.039L9.49062 182.199C7.17315 182.737 4.7987 183.014 2.41478 183.026H0.222656V181.025H0.944114C3.74751 181.135 6.55249 180.847 9.26863 180.171L10.1843 179.984Z" fill="#C97B3A"/>
<path d="M10.0456 187.643V189.618L9.35188 189.591L0.916366 189.457H0.222656V187.483H0.916366L9.35188 187.643H10.0456Z" fill="#C97B3A"/>
<path d="M10.0456 208.302V210.277L9.35188 210.223L0.916366 209.823L0.222656 209.77V207.822L0.916366 207.848L9.35188 208.275L10.0456 208.302Z" fill="#C97B3A"/>
<path d="M7.1875 182.759C4.88362 183.101 2.54605 183.181 0.222656 182.999V187.483L1.08286 183.907C3.15328 183.727 5.19894 183.342 7.1875 182.759Z" fill="#FFDE55"/>
<path d="M9.35121 190.818V189.831C6.13239 189.831 1.27643 189.484 0.221987 189.431H0L0.138742 190.231L9.35121 190.818Z" fill="#FFDE55"/>
<path d="M9.35188 210.33L0.222656 209.956V210.784C3.24941 211.165 6.29924 211.352 9.35188 211.344V210.33Z" fill="#FFDE55"/>
<path d="M10.1843 247.642C10.1273 248.326 10.1273 249.013 10.1843 249.697L9.49062 249.857C7.17315 250.394 4.7987 250.672 2.41478 250.684H0.222656V248.682H0.944114C3.74751 248.793 6.55249 248.505 9.26863 247.829L10.1843 247.642Z" fill="#C97B3A"/>
<path d="M10.0456 255.301V257.275L9.35188 257.249L0.916366 257.115H0.222656V255.141H0.916366L9.35188 255.301H10.0456Z" fill="#C97B3A"/>
<path d="M10.0456 275.96V277.935L9.35188 277.881L0.916366 277.481L0.222656 277.428V275.479L0.916366 275.506L9.35188 275.933L10.0456 275.96Z" fill="#C97B3A"/>
<path d="M7.1875 250.417C4.88362 250.759 2.54605 250.839 0.222656 250.657V255.141L1.08286 251.565C3.15328 251.385 5.19894 251 7.1875 250.417Z" fill="#FFDE55"/>
<path d="M9.35121 258.476V257.489C6.13239 257.489 1.27643 257.142 0.221987 257.089H0L0.138742 257.889L9.35121 258.476Z" fill="#FFDE55"/>
<path d="M9.35188 277.988L0.222656 277.614V278.442C3.24941 278.823 6.29924 279.01 9.35188 279.002V277.988Z" fill="#FFDE55"/>
<g style="mix-blend-mode:multiply" opacity="0.4">
<path d="M268.882 8.91284C269.048 9.28644 269.215 9.68673 269.353 10.087H268.216H259.031C232.809 10.4873 177.7 10.8075 145.068 10.9943H132.165H131.694L94.9269 11.2078H85.2705C85.2705 10.8609 85.4647 10.5407 85.5757 10.2204C85.4093 10.5407 85.326 10.7275 85.2983 10.7542L85.548 10.007H96.0091C118.902 10.0336 213.662 9.66005 257.172 8.91284H267.55H268.882Z" fill="#C97B3A"/>
</g>
<path d="M265.912 3.92283H262.86C246.655 3.81608 177.589 3.57591 169.792 3.14893L128.78 0.90732L119.9 0.507032H119.761L110.438 0L144.707 0.90732C164.825 1.49441 188.133 2.21493 197.679 2.58853L201.702 2.77533C206.087 3.12225 246.516 3.52254 259.53 3.73602H262.777C263.802 3.79759 264.831 3.79759 265.857 3.73602L265.912 3.92283Z" fill="#FFDE55"/>
<g style="mix-blend-mode:overlay" opacity="0.5">
<path d="M268.669 8.00374H190.974L268.364 7.36328C268.364 7.36328 268.614 7.81694 268.669 8.00374Z" fill="#FFDE55"/>
</g>
<g style="mix-blend-mode:overlay" opacity="0.5">
<path d="M84.4667 14.0635L139.963 15.2377C139.963 15.2377 90.1829 14.6239 86.8531 14.7573C85.3269 14.7573 84.3835 16.3851 84.55 18.4666C84.439 18.4666 84.4112 14.7306 84.4667 14.0635Z" fill="#FFDE55"/>
</g>
<g style="mix-blend-mode:overlay" opacity="0.5">
<path d="M145.069 11.0748L94.234 12.3291H93.8732L86.0204 12.0088H85.188V11.742H86.0204H94.5947L131.583 11.3417H131.972L147.761 11.1549C148.066 10.9948 147.067 11.0481 145.069 11.0748Z" fill="#FFDE55"/>
</g>
<path d="M46.1283 37.7192H37.814V46.0127H46.1283V37.7192Z" fill="white"/>
<path d="M54.4427 37.7192H46.1284V46.0127H54.4427V37.7192Z" fill="white"/>
<path d="M62.7567 37.7192H54.4424V46.0127H62.7567V37.7192Z" fill="white"/>
<path d="M71.0711 37.7192H62.7568V46.0127H71.0711V37.7192Z" fill="white"/>
<path d="M79.3856 37.7192H71.0713V46.0127H79.3856V37.7192Z" fill="white"/>
<path d="M87.6996 37.7192H79.3853V46.0127H87.6996V37.7192Z" fill="white"/>
<path d="M96.014 37.7192H87.6997V46.0127H96.014V37.7192Z" fill="white"/>
<path d="M137.586 37.7192H129.271V46.0127H137.586V37.7192Z" fill="white"/>
<path d="M145.9 37.7192H137.585V46.0127H145.9V37.7192Z" fill="white"/>
<path d="M179.157 37.7192H170.843V46.0127H179.157V37.7192Z" fill="white"/>
<path d="M195.785 37.7192H187.471V46.0127H195.785V37.7192Z" fill="white"/>
<path d="M204.1 37.7192H195.786V46.0127H204.1V37.7192Z" fill="white"/>
<path d="M212.414 37.7192H204.1V46.0127H212.414V37.7192Z" fill="white"/>
<path d="M220.728 37.7192H212.414V46.0127H220.728V37.7192Z" fill="white"/>
<path d="M229.043 37.7192H220.729V46.0127H229.043V37.7192Z" fill="white"/>
<path d="M237.357 37.7192H229.043V46.0127H237.357V37.7192Z" fill="white"/>
<path d="M245.671 37.7192H237.357V46.0127H245.671V37.7192Z" fill="white"/>
<path d="M262.3 37.7192H253.986V46.0127H262.3V37.7192Z" fill="white"/>
<path d="M270.614 37.7192H262.3V46.0127H270.614V37.7192Z" fill="white"/>
<path d="M278.929 37.7192H270.614V46.0127H278.929V37.7192Z" fill="white"/>
<path d="M287.243 37.7192H278.929V46.0127H287.243V37.7192Z" fill="white"/>
<path d="M295.557 37.7192H287.243V46.0127H295.557V37.7192Z" fill="white"/>
<path d="M303.871 37.7192H295.557V46.0127H303.871V37.7192Z" fill="white"/>
<path d="M312.186 37.7192H303.872V46.0127H312.186V37.7192Z" fill="white"/>
<path d="M46.1283 46.0127H37.814V54.3062H46.1283V46.0127Z" fill="white"/>
<path d="M96.014 46.0127H87.6997V54.3062H96.014V46.0127Z" fill="white"/>
<path d="M120.957 46.0127H112.643V54.3062H120.957V46.0127Z" fill="white"/>
<path d="M129.271 46.0127H120.957V54.3062H129.271V46.0127Z" fill="white"/>
<path d="M145.9 46.0127H137.585V54.3062H145.9V46.0127Z" fill="white"/>
<path d="M154.214 46.0127H145.9V54.3062H154.214V46.0127Z" fill="white"/>
<path d="M162.529 46.0127H154.214V54.3062H162.529V46.0127Z" fill="white"/>
<path d="M170.843 46.0127H162.528V54.3062H170.843V46.0127Z" fill="white"/>
<path d="M179.157 46.0127H170.843V54.3062H179.157V46.0127Z" fill="white"/>
<path d="M187.472 46.0127H179.157V54.3062H187.472V46.0127Z" fill="white"/>
<path d="M195.785 46.0127H187.471V54.3062H195.785V46.0127Z" fill="white"/>
<path d="M204.1 46.0127H195.786V54.3062H204.1V46.0127Z" fill="white"/>
<path d="M229.043 46.0127H220.729V54.3062H229.043V46.0127Z" fill="white"/>
<path d="M237.357 46.0127H229.043V54.3062H237.357V46.0127Z" fill="white"/>
<path d="M245.671 46.0127H237.357V54.3062H245.671V46.0127Z" fill="white"/>
<path d="M262.3 46.0127H253.986V54.3062H262.3V46.0127Z" fill="white"/>
<path d="M312.186 46.0127H303.872V54.3062H312.186V46.0127Z" fill="white"/>
<path d="M46.1283 54.3062H37.814V62.5996H46.1283V54.3062Z" fill="white"/>
<path d="M62.7567 54.3062H54.4424V62.5996H62.7567V54.3062Z" fill="white"/>
<path d="M71.0711 54.3062H62.7568V62.5996H71.0711V54.3062Z" fill="white"/>
<path d="M79.3856 54.3062H71.0713V62.5996H79.3856V54.3062Z" fill="white"/>
<path d="M96.014 54.3062H87.6997V62.5996H96.014V54.3062Z" fill="white"/>
<path d="M120.957 54.3062H112.643V62.5996H120.957V54.3062Z" fill="white"/>
<path d="M137.586 54.3062H129.271V62.5996H137.586V54.3062Z" fill="white"/>
<path d="M162.529 54.3062H154.214V62.5996H162.529V54.3062Z" fill="white"/>
<path d="M179.157 54.3062H170.843V62.5996H179.157V54.3062Z" fill="white"/>
<path d="M187.472 54.3062H179.157V62.5996H187.472V54.3062Z" fill="white"/>
<path d="M195.785 54.3062H187.471V62.5996H195.785V54.3062Z" fill="white"/>
<path d="M204.1 54.3062H195.786V62.5996H204.1V54.3062Z" fill="white"/>
<path d="M212.414 54.3062H204.1V62.5996H212.414V54.3062Z" fill="white"/>
<path d="M229.043 54.3062H220.729V62.5996H229.043V54.3062Z" fill="white"/>
<path d="M237.357 54.3062H229.043V62.5996H237.357V54.3062Z" fill="white"/>
<path d="M245.671 54.3062H237.357V62.5996H245.671V54.3062Z" fill="white"/>
<path d="M262.3 54.3062H253.986V62.5996H262.3V54.3062Z" fill="white"/>
<path d="M278.929 54.3062H270.614V62.5996H278.929V54.3062Z" fill="white"/>
<path d="M287.243 54.3062H278.929V62.5996H287.243V54.3062Z" fill="white"/>
<path d="M295.557 54.3062H287.243V62.5996H295.557V54.3062Z" fill="white"/>
<path d="M312.186 54.3062H303.872V62.5996H312.186V54.3062Z" fill="white"/>
<path d="M46.1283 62.5996H37.814V70.8931H46.1283V62.5996Z" fill="white"/>
<path d="M62.7567 62.5996H54.4424V70.8931H62.7567V62.5996Z" fill="white"/>
<path d="M71.0711 62.5996H62.7568V70.8931H71.0711V62.5996Z" fill="white"/>
<path d="M79.3856 62.5996H71.0713V70.8931H79.3856V62.5996Z" fill="white"/>
<path d="M96.014 62.5996H87.6997V70.8931H96.014V62.5996Z" fill="white"/>
<path d="M120.957 62.5996H112.643V70.8931H120.957V62.5996Z" fill="white"/>
<path d="M154.214 62.5996H145.9V70.8931H154.214V62.5996Z" fill="white"/>
<path d="M170.843 62.5996H162.528V70.8931H170.843V62.5996Z" fill="white"/>
<path d="M179.157 62.5996H170.843V70.8931H179.157V62.5996Z" fill="white"/>
<path d="M195.785 62.5996H187.471V70.8931H195.785V62.5996Z" fill="white"/>
<path d="M204.1 62.5996H195.786V70.8931H204.1V62.5996Z" fill="white"/>
<path d="M245.671 62.5996H237.357V70.8931H245.671V62.5996Z" fill="white"/>
<path d="M262.3 62.5996H253.986V70.8931H262.3V62.5996Z" fill="white"/>
<path d="M278.929 62.5996H270.614V70.8931H278.929V62.5996Z" fill="white"/>
<path d="M287.243 62.5996H278.929V70.8931H287.243V62.5996Z" fill="white"/>
<path d="M295.557 62.5996H287.243V70.8931H295.557V62.5996Z" fill="white"/>
<path d="M312.186 62.5996H303.872V70.8931H312.186V62.5996Z" fill="white"/>
<path d="M46.1283 70.8931H37.814V79.1865H46.1283V70.8931Z" fill="white"/>
<path d="M62.7567 70.8931H54.4424V79.1865H62.7567V70.8931Z" fill="white"/>
<path d="M71.0711 70.8931H62.7568V79.1865H71.0711V70.8931Z" fill="white"/>
<path d="M79.3856 70.8931H71.0713V79.1865H79.3856V70.8931Z" fill="white"/>
<path d="M96.014 70.8931H87.6997V79.1865H96.014V70.8931Z" fill="white"/>
<path d="M112.642 70.8931H104.328V79.1865H112.642V70.8931Z" fill="white"/>
<path d="M120.957 70.8931H112.643V79.1865H120.957V70.8931Z" fill="white"/>
<path d="M137.586 70.8931H129.271V79.1865H137.586V70.8931Z" fill="white"/>
<path d="M154.214 70.8931H145.9V79.1865H154.214V70.8931Z" fill="white"/>
<path d="M170.843 70.8931H162.528V79.1865H170.843V70.8931Z" fill="white"/>
<path d="M179.157 70.8931H170.843V79.1865H179.157V70.8931Z" fill="white"/>
<path d="M195.785 70.8931H187.471V79.1865H195.785V70.8931Z" fill="white"/>
<path d="M212.414 70.8931H204.1V79.1865H212.414V70.8931Z" fill="white"/>
<path d="M229.043 70.8931H220.729V79.1865H229.043V70.8931Z" fill="white"/>
<path d="M237.357 70.8931H229.043V79.1865H237.357V70.8931Z" fill="white"/>
<path d="M245.671 70.8931H237.357V79.1865H245.671V70.8931Z" fill="white"/>
<path d="M262.3 70.8931H253.986V79.1865H262.3V70.8931Z" fill="white"/>
<path d="M278.929 70.8931H270.614V79.1865H278.929V70.8931Z" fill="white"/>
<path d="M287.243 70.8931H278.929V79.1865H287.243V70.8931Z" fill="white"/>
<path d="M295.557 70.8931H287.243V79.1865H295.557V70.8931Z" fill="white"/>
<path d="M312.186 70.8931H303.872V79.1865H312.186V70.8931Z" fill="white"/>
<path d="M46.1283 79.1865H37.814V87.48H46.1283V79.1865Z" fill="white"/>
<path d="M96.014 79.1865H87.6997V87.48H96.014V79.1865Z" fill="white"/>
<path d="M145.9 79.1865H137.585V87.48H145.9V79.1865Z" fill="white"/>
<path d="M154.214 79.1865H145.9V87.48H154.214V79.1865Z" fill="white"/>
<path d="M179.157 79.1865H170.843V87.48H179.157V79.1865Z" fill="white"/>
<path d="M187.472 79.1865H179.157V87.48H187.472V79.1865Z" fill="white"/>
<path d="M195.785 79.1865H187.471V87.48H195.785V79.1865Z" fill="white"/>
<path d="M212.414 79.1865H204.1V87.48H212.414V79.1865Z" fill="white"/>
<path d="M220.728 79.1865H212.414V87.48H220.728V79.1865Z" fill="white"/>
<path d="M237.357 79.1865H229.043V87.48H237.357V79.1865Z" fill="white"/>
<path d="M262.3 79.1865H253.986V87.48H262.3V79.1865Z" fill="white"/>
<path d="M312.186 79.1865H303.872V87.48H312.186V79.1865Z" fill="white"/>
<path d="M46.1283 87.4801H37.814V95.7736H46.1283V87.4801Z" fill="white"/>
<path d="M54.4427 87.4801H46.1284V95.7736H54.4427V87.4801Z" fill="white"/>
<path d="M62.7567 87.4801H54.4424V95.7736H62.7567V87.4801Z" fill="white"/>
<path d="M71.0711 87.4801H62.7568V95.7736H71.0711V87.4801Z" fill="white"/>
<path d="M79.3856 87.4801H71.0713V95.7736H79.3856V87.4801Z" fill="white"/>
<path d="M87.6996 87.4801H79.3853V95.7736H87.6996V87.4801Z" fill="white"/>
<path d="M96.014 87.4801H87.6997V95.7736H96.014V87.4801Z" fill="white"/>
<path d="M112.642 87.4801H104.328V95.7736H112.642V87.4801Z" fill="white"/>
<path d="M129.271 87.4801H120.957V95.7736H129.271V87.4801Z" fill="white"/>
<path d="M145.9 87.4801H137.585V95.7736H145.9V87.4801Z" fill="white"/>
<path d="M162.529 87.4801H154.214V95.7736H162.529V87.4801Z" fill="white"/>
<path d="M179.157 87.4801H170.843V95.7736H179.157V87.4801Z" fill="white"/>
<path d="M195.785 87.4801H187.471V95.7736H195.785V87.4801Z" fill="white"/>
<path d="M212.414 87.4801H204.1V95.7736H212.414V87.4801Z" fill="white"/>
<path d="M229.043 87.4801H220.729V95.7736H229.043V87.4801Z" fill="white"/>
<path d="M245.671 87.4801H237.357V95.7736H245.671V87.4801Z" fill="white"/>
<path d="M262.3 87.4801H253.986V95.7736H262.3V87.4801Z" fill="white"/>
<path d="M270.614 87.4801H262.3V95.7736H270.614V87.4801Z" fill="white"/>
<path d="M278.929 87.4801H270.614V95.7736H278.929V87.4801Z" fill="white"/>
<path d="M287.243 87.4801H278.929V95.7736H287.243V87.4801Z" fill="white"/>
<path d="M295.557 87.4801H287.243V95.7736H295.557V87.4801Z" fill="white"/>
<path d="M303.871 87.4801H295.557V95.7736H303.871V87.4801Z" fill="white"/>
<path d="M312.186 87.4801H303.872V95.7736H312.186V87.4801Z" fill="white"/>
<path d="M112.642 95.7734H104.328V104.067H112.642V95.7734Z" fill="white"/>
<path d="M120.957 95.7734H112.643V104.067H120.957V95.7734Z" fill="white"/>
<path d="M145.9 95.7734H137.585V104.067H145.9V95.7734Z" fill="white"/>
<path d="M170.843 95.7734H162.528V104.067H170.843V95.7734Z" fill="white"/>
<path d="M187.472 95.7734H179.157V104.067H187.472V95.7734Z" fill="white"/>
<path d="M195.785 95.7734H187.471V104.067H195.785V95.7734Z" fill="white"/>
<path d="M204.1 95.7734H195.786V104.067H204.1V95.7734Z" fill="white"/>
<path d="M220.728 95.7734H212.414V104.067H220.728V95.7734Z" fill="white"/>
<path d="M245.671 95.7734H237.357V104.067H245.671V95.7734Z" fill="white"/>
<path d="M62.7567 104.067H54.4424V112.36H62.7567V104.067Z" fill="white"/>
<path d="M71.0711 104.067H62.7568V112.36H71.0711V104.067Z" fill="white"/>
<path d="M96.014 104.067H87.6997V112.36H96.014V104.067Z" fill="white"/>
<path d="M104.328 104.067H96.0142V112.36H104.328V104.067Z" fill="white"/>
<path d="M112.642 104.067H104.328V112.36H112.642V104.067Z" fill="white"/>
<path d="M137.586 104.067H129.271V112.36H137.586V104.067Z" fill="white"/>
<path d="M145.9 104.067H137.585V112.36H145.9V104.067Z" fill="white"/>
<path d="M154.214 104.067H145.9V112.36H154.214V104.067Z" fill="white"/>
<path d="M162.529 104.067H154.214V112.36H162.529V104.067Z" fill="white"/>
<path d="M204.1 104.067H195.786V112.36H204.1V104.067Z" fill="white"/>
<path d="M229.043 104.067H220.729V112.36H229.043V104.067Z" fill="white"/>
<path d="M237.357 104.067H229.043V112.36H237.357V104.067Z" fill="white"/>
<path d="M245.671 104.067H237.357V112.36H245.671V104.067Z" fill="white"/>
<path d="M253.986 104.067H245.671V112.36H253.986V104.067Z" fill="white"/>
<path d="M262.3 104.067H253.986V112.36H262.3V104.067Z" fill="white"/>
<path d="M278.929 104.067H270.614V112.36H278.929V104.067Z" fill="white"/>
<path d="M79.3856 112.36H71.0713V120.654H79.3856V112.36Z" fill="white"/>
<path d="M104.328 112.36H96.0142V120.654H104.328V112.36Z" fill="white"/>
<path d="M137.586 112.36H129.271V120.654H137.586V112.36Z" fill="white"/>
<path d="M145.9 112.36H137.585V120.654H145.9V112.36Z" fill="white"/>
<path d="M154.214 112.36H145.9V120.654H154.214V112.36Z" fill="white"/>
<path d="M170.843 112.36H162.528V120.654H170.843V112.36Z" fill="white"/>
<path d="M179.157 112.36H170.843V120.654H179.157V112.36Z" fill="white"/>
<path d="M187.472 112.36H179.157V120.654H187.472V112.36Z" fill="white"/>
<path d="M220.728 112.36H212.414V120.654H220.728V112.36Z" fill="white"/>
<path d="M229.043 112.36H220.729V120.654H229.043V112.36Z" fill="white"/>
<path d="M287.243 112.36H278.929V120.654H287.243V112.36Z" fill="white"/>
<path d="M295.557 112.36H287.243V120.654H295.557V112.36Z" fill="white"/>
<path d="M303.871 112.36H295.557V120.654H303.871V112.36Z" fill="white"/>
<path d="M312.186 112.36H303.872V120.654H312.186V112.36Z" fill="white"/>
<path d="M46.1283 120.654H37.814V128.947H46.1283V120.654Z" fill="white"/>
<path d="M71.0711 120.654H62.7568V128.947H71.0711V120.654Z" fill="white"/>
<path d="M79.3856 120.654H71.0713V128.947H79.3856V120.654Z" fill="white"/>
<path d="M87.6996 120.654H79.3853V128.947H87.6996V120.654Z" fill="white"/>
<path d="M96.014 120.654H87.6997V128.947H96.014V120.654Z" fill="white"/>
<path d="M112.642 120.654H104.328V128.947H112.642V120.654Z" fill="white"/>
<path d="M129.271 120.654H120.957V128.947H129.271V120.654Z" fill="white"/>
<path d="M137.586 120.654H129.271V128.947H137.586V120.654Z" fill="white"/>
<path d="M187.472 120.654H179.157V128.947H187.472V120.654Z" fill="white"/>
<path d="M253.986 120.654H245.671V128.947H253.986V120.654Z" fill="white"/>
<path d="M262.3 120.654H253.986V128.947H262.3V120.654Z" fill="white"/>
<path d="M270.614 120.654H262.3V128.947H270.614V120.654Z" fill="white"/>
<path d="M278.929 120.654H270.614V128.947H278.929V120.654Z" fill="white"/>
<path d="M287.243 120.654H278.929V128.947H287.243V120.654Z" fill="white"/>
<path d="M295.557 120.654H287.243V128.947H295.557V120.654Z" fill="white"/>
<path d="M303.871 120.654H295.557V128.947H303.871V120.654Z" fill="white"/>
<path d="M46.1283 128.947H37.814V137.241H46.1283V128.947Z" fill="white"/>
<path d="M54.4427 128.947H46.1284V137.241H54.4427V128.947Z" fill="white"/>
<path d="M62.7567 128.947H54.4424V137.241H62.7567V128.947Z" fill="white"/>
<path d="M71.0711 128.947H62.7568V137.241H71.0711V128.947Z" fill="white"/>
<path d="M79.3856 128.947H71.0713V137.241H79.3856V128.947Z" fill="white"/>
<path d="M87.6996 128.947H79.3853V137.241H87.6996V128.947Z" fill="white"/>
<path d="M104.328 128.947H96.0142V137.241H104.328V128.947Z" fill="white"/>
<path d="M137.586 128.947H129.271V137.241H137.586V128.947Z" fill="white"/>
<path d="M145.9 128.947H137.585V137.241H145.9V128.947Z" fill="white"/>
<path d="M162.529 128.947H154.214V137.241H162.529V128.947Z" fill="white"/>
<path d="M170.843 128.947H162.528V137.241H170.843V128.947Z" fill="white"/>
<path d="M237.357 128.947H229.043V137.241H237.357V128.947Z" fill="white"/>
<path d="M245.671 128.947H237.357V137.241H245.671V128.947Z" fill="white"/>
<path d="M253.986 128.947H245.671V137.241H253.986V128.947Z" fill="white"/>
<path d="M262.3 128.947H253.986V137.241H262.3V128.947Z" fill="white"/>
<path d="M270.614 128.947H262.3V137.241H270.614V128.947Z" fill="white"/>
<path d="M278.929 128.947H270.614V137.241H278.929V128.947Z" fill="white"/>
<path d="M287.243 128.947H278.929V137.241H287.243V128.947Z" fill="white"/>
<path d="M295.557 128.947H287.243V137.241H295.557V128.947Z" fill="white"/>
<path d="M303.871 128.947H295.557V137.241H303.871V128.947Z" fill="white"/>
<path d="M312.186 128.947H303.872V137.241H312.186V128.947Z" fill="white"/>
<path d="M54.4427 137.241H46.1284V145.534H54.4427V137.241Z" fill="white"/>
<path d="M87.6996 137.241H79.3853V145.534H87.6996V137.241Z" fill="white"/>
<path d="M96.014 137.241H87.6997V145.534H96.014V137.241Z" fill="white"/>
<path d="M104.328 137.241H96.0142V145.534H104.328V137.241Z" fill="white"/>
<path d="M112.642 137.241H104.328V145.534H112.642V137.241Z" fill="white"/>
<path d="M120.957 137.241H112.643V145.534H120.957V137.241Z" fill="white"/>
<path d="M154.214 137.241H145.9V145.534H154.214V137.241Z" fill="white"/>
<path d="M162.529 137.241H154.214V145.534H162.529V137.241Z" fill="white"/>
<path d="M179.157 137.241H170.843V145.534H179.157V137.241Z" fill="white"/>
<path d="M187.472 137.241H179.157V145.534H187.472V137.241Z" fill="white"/>
<path d="M195.785 137.241H187.471V145.534H195.785V137.241Z" fill="white"/>
<path d="M204.1 137.241H195.786V145.534H204.1V137.241Z" fill="white"/>
<path d="M212.414 137.241H204.1V145.534H212.414V137.241Z" fill="white"/>
<path d="M220.728 137.241H212.414V145.534H220.728V137.241Z" fill="white"/>
<path d="M253.986 137.241H245.671V145.534H253.986V137.241Z" fill="white"/>
<path d="M262.3 137.241H253.986V145.534H262.3V137.241Z" fill="white"/>
<path d="M278.929 137.241H270.614V145.534H278.929V137.241Z" fill="white"/>
<path d="M112.642 145.534H104.328V153.828H112.642V145.534Z" fill="white"/>
<path d="M137.586 145.534H129.271V153.828H137.586V145.534Z" fill="white"/>
<path d="M154.214 145.534H145.9V153.828H154.214V145.534Z" fill="white"/>
<path d="M162.529 145.534H154.214V153.828H162.529V145.534Z" fill="white"/>
<path d="M179.157 145.534H170.843V153.828H179.157V145.534Z" fill="white"/>
<path d="M187.472 145.534H179.157V153.828H187.472V145.534Z" fill="white"/>
<path d="M195.785 145.534H187.471V153.828H195.785V145.534Z" fill="white"/>
<path d="M212.414 145.534H204.1V153.828H212.414V145.534Z" fill="white"/>
<path d="M229.043 145.534H220.729V153.828H229.043V145.534Z" fill="white"/>
<path d="M245.671 145.534H237.357V153.828H245.671V145.534Z" fill="white"/>
<path d="M253.986 145.534H245.671V153.828H253.986V145.534Z" fill="white"/>
<path d="M262.3 145.534H253.986V153.828H262.3V145.534Z" fill="white"/>
<path d="M270.614 145.534H262.3V153.828H270.614V145.534Z" fill="white"/>
<path d="M278.929 145.534H270.614V153.828H278.929V145.534Z" fill="white"/>
<path d="M312.186 145.534H303.872V153.828H312.186V145.534Z" fill="white"/>
<path d="M46.1283 153.828H37.814V162.121H46.1283V153.828Z" fill="white"/>
<path d="M54.4427 153.828H46.1284V162.121H54.4427V153.828Z" fill="white"/>
<path d="M87.6996 153.828H79.3853V162.121H87.6996V153.828Z" fill="white"/>
<path d="M96.014 153.828H87.6997V162.121H96.014V153.828Z" fill="white"/>
<path d="M104.328 153.828H96.0142V162.121H104.328V153.828Z" fill="white"/>
<path d="M112.642 153.828H104.328V162.121H112.642V153.828Z" fill="white"/>
<path d="M129.271 153.828H120.957V162.121H129.271V153.828Z" fill="white"/>
<path d="M170.843 153.828H162.528V162.121H170.843V153.828Z" fill="white"/>
<path d="M204.1 153.828H195.786V162.121H204.1V153.828Z" fill="white"/>
<path d="M220.728 153.828H212.414V162.121H220.728V153.828Z" fill="white"/>
<path d="M229.043 153.828H220.729V162.121H229.043V153.828Z" fill="white"/>
<path d="M237.357 153.828H229.043V162.121H237.357V153.828Z" fill="white"/>
<path d="M287.243 153.828H278.929V162.121H287.243V153.828Z" fill="white"/>
<path d="M46.1283 162.121H37.814V170.415H46.1283V162.121Z" fill="white"/>
<path d="M62.7567 162.121H54.4424V170.415H62.7567V162.121Z" fill="white"/>
<path d="M71.0711 162.121H62.7568V170.415H71.0711V162.121Z" fill="white"/>
<path d="M137.586 162.121H129.271V170.415H137.586V162.121Z" fill="white"/>
<path d="M162.529 162.121H154.214V170.415H162.529V162.121Z" fill="white"/>
<path d="M170.843 162.121H162.528V170.415H170.843V162.121Z" fill="white"/>
<path d="M179.157 162.121H170.843V170.415H179.157V162.121Z" fill="white"/>
<path d="M195.785 162.121H187.471V170.415H195.785V162.121Z" fill="white"/>
<path d="M204.1 162.121H195.786V170.415H204.1V162.121Z" fill="white"/>
<path d="M229.043 162.121H220.729V170.415H229.043V162.121Z" fill="white"/>
<path d="M237.357 162.121H229.043V170.415H237.357V162.121Z" fill="white"/>
<path d="M245.671 162.121H237.357V170.415H245.671V162.121Z" fill="white"/>
<path d="M262.3 162.121H253.986V170.415H262.3V162.121Z" fill="white"/>
<path d="M287.243 162.121H278.929V170.415H287.243V162.121Z" fill="white"/>
<path d="M312.186 162.121H303.872V170.415H312.186V162.121Z" fill="white"/>
<path d="M46.1283 170.415H37.814V178.708H46.1283V170.415Z" fill="white"/>
<path d="M71.0711 170.415H62.7568V178.708H71.0711V170.415Z" fill="white"/>
<path d="M79.3856 170.415H71.0713V178.708H79.3856V170.415Z" fill="white"/>
<path d="M96.014 170.415H87.6997V178.708H96.014V170.415Z" fill="white"/>
<path d="M104.328 170.415H96.0142V178.708H104.328V170.415Z" fill="white"/>
<path d="M120.957 170.415H112.643V178.708H120.957V170.415Z" fill="white"/>
<path d="M129.271 170.415H120.957V178.708H129.271V170.415Z" fill="white"/>
<path d="M145.9 170.415H137.585V178.708H145.9V170.415Z" fill="white"/>
<path d="M187.472 170.415H179.157V178.708H187.472V170.415Z" fill="white"/>
<path d="M195.785 170.415H187.471V178.708H195.785V170.415Z" fill="white"/>
<path d="M204.1 170.415H195.786V178.708H204.1V170.415Z" fill="white"/>
<path d="M220.728 170.415H212.414V178.708H220.728V170.415Z" fill="white"/>
<path d="M237.357 170.415H229.043V178.708H237.357V170.415Z" fill="white"/>
<path d="M262.3 170.415H253.986V178.708H262.3V170.415Z" fill="white"/>
<path d="M278.929 170.415H270.614V178.708H278.929V170.415Z" fill="white"/>
<path d="M295.557 170.415H287.243V178.708H295.557V170.415Z" fill="white"/>
<path d="M46.1283 178.708H37.814V187.001H46.1283V178.708Z" fill="white"/>
<path d="M79.3856 178.708H71.0713V187.001H79.3856V178.708Z" fill="white"/>
<path d="M104.328 178.708H96.0142V187.001H104.328V178.708Z" fill="white"/>
<path d="M112.642 178.708H104.328V187.001H112.642V178.708Z" fill="white"/>
<path d="M120.957 178.708H112.643V187.001H120.957V178.708Z" fill="white"/>
<path d="M129.271 178.708H120.957V187.001H129.271V178.708Z" fill="white"/>
<path d="M145.9 178.708H137.585V187.001H145.9V178.708Z" fill="white"/>
<path d="M154.214 178.708H145.9V187.001H154.214V178.708Z" fill="white"/>
<path d="M162.529 178.708H154.214V187.001H162.529V178.708Z" fill="white"/>
<path d="M179.157 178.708H170.843V187.001H179.157V178.708Z" fill="white"/>
<path d="M212.414 178.708H204.1V187.001H212.414V178.708Z" fill="white"/>
<path d="M229.043 178.708H220.729V187.001H229.043V178.708Z" fill="white"/>
<path d="M270.614 178.708H262.3V187.001H270.614V178.708Z" fill="white"/>
<path d="M278.929 178.708H270.614V187.001H278.929V178.708Z" fill="white"/>
<path d="M312.186 178.708H303.872V187.001H312.186V178.708Z" fill="white"/>
<path d="M71.0711 187.002H62.7568V195.295H71.0711V187.002Z" fill="white"/>
<path d="M79.3856 187.002H71.0713V195.295H79.3856V187.002Z" fill="white"/>
<path d="M96.014 187.002H87.6997V195.295H96.014V187.002Z" fill="white"/>
<path d="M104.328 187.002H96.0142V195.295H104.328V187.002Z" fill="white"/>
<path d="M120.957 187.002H112.643V195.295H120.957V187.002Z" fill="white"/>
<path d="M129.271 187.002H120.957V195.295H129.271V187.002Z" fill="white"/>
<path d="M145.9 187.002H137.585V195.295H145.9V187.002Z" fill="white"/>
<path d="M154.214 187.002H145.9V195.295H154.214V187.002Z" fill="white"/>
<path d="M162.529 187.002H154.214V195.295H162.529V187.002Z" fill="white"/>
<path d="M170.843 187.002H162.528V195.295H170.843V187.002Z" fill="white"/>
<path d="M179.157 187.002H170.843V195.295H179.157V187.002Z" fill="white"/>
<path d="M187.472 187.002H179.157V195.295H187.472V187.002Z" fill="white"/>
<path d="M195.785 187.002H187.471V195.295H195.785V187.002Z" fill="white"/>
<path d="M204.1 187.002H195.786V195.295H204.1V187.002Z" fill="white"/>
<path d="M212.414 187.002H204.1V195.295H212.414V187.002Z" fill="white"/>
<path d="M229.043 187.002H220.729V195.295H229.043V187.002Z" fill="white"/>
<path d="M253.986 187.002H245.671V195.295H253.986V187.002Z" fill="white"/>
<path d="M270.614 187.002H262.3V195.295H270.614V187.002Z" fill="white"/>
<path d="M287.243 187.002H278.929V195.295H287.243V187.002Z" fill="white"/>
<path d="M295.557 187.002H287.243V195.295H295.557V187.002Z" fill="white"/>
<path d="M303.871 187.002H295.557V195.295H303.871V187.002Z" fill="white"/>
<path d="M46.1283 195.295H37.814V203.589H46.1283V195.295Z" fill="white"/>
<path d="M54.4427 195.295H46.1284V203.589H54.4427V195.295Z" fill="white"/>
<path d="M87.6996 195.295H79.3853V203.589H87.6996V195.295Z" fill="white"/>
<path d="M120.957 195.295H112.643V203.589H120.957V195.295Z" fill="white"/>
<path d="M145.9 195.295H137.585V203.589H145.9V195.295Z" fill="white"/>
<path d="M154.214 195.295H145.9V203.589H154.214V195.295Z" fill="white"/>
<path d="M170.843 195.295H162.528V203.589H170.843V195.295Z" fill="white"/>
<path d="M187.472 195.295H179.157V203.589H187.472V195.295Z" fill="white"/>
<path d="M204.1 195.295H195.786V203.589H204.1V195.295Z" fill="white"/>
<path d="M212.414 195.295H204.1V203.589H212.414V195.295Z" fill="white"/>
<path d="M220.728 195.295H212.414V203.589H220.728V195.295Z" fill="white"/>
<path d="M245.671 195.295H237.357V203.589H245.671V195.295Z" fill="white"/>
<path d="M253.986 195.295H245.671V203.589H253.986V195.295Z" fill="white"/>
<path d="M270.614 195.295H262.3V203.589H270.614V195.295Z" fill="white"/>
<path d="M295.557 195.295H287.243V203.589H295.557V195.295Z" fill="white"/>
<path d="M46.1283 203.588H37.814V211.882H46.1283V203.588Z" fill="white"/>
<path d="M71.0711 203.588H62.7568V211.882H71.0711V203.588Z" fill="white"/>
<path d="M87.6996 203.588H79.3853V211.882H87.6996V203.588Z" fill="white"/>
<path d="M96.014 203.588H87.6997V211.882H96.014V203.588Z" fill="white"/>
<path d="M104.328 203.588H96.0142V211.882H104.328V203.588Z" fill="white"/>
<path d="M129.271 203.588H120.957V211.882H129.271V203.588Z" fill="white"/>
<path d="M137.586 203.588H129.271V211.882H137.586V203.588Z" fill="white"/>
<path d="M154.214 203.588H145.9V211.882H154.214V203.588Z" fill="white"/>
<path d="M162.529 203.588H154.214V211.882H162.529V203.588Z" fill="white"/>
<path d="M179.157 203.588H170.843V211.882H179.157V203.588Z" fill="white"/>
<path d="M187.472 203.588H179.157V211.882H187.472V203.588Z" fill="white"/>
<path d="M195.785 203.588H187.471V211.882H195.785V203.588Z" fill="white"/>
<path d="M204.1 203.588H195.786V211.882H204.1V203.588Z" fill="white"/>
<path d="M220.728 203.588H212.414V211.882H220.728V203.588Z" fill="white"/>
<path d="M287.243 203.588H278.929V211.882H287.243V203.588Z" fill="white"/>
<path d="M46.1283 211.882H37.814V220.175H46.1283V211.882Z" fill="white"/>
<path d="M62.7567 211.882H54.4424V220.175H62.7567V211.882Z" fill="white"/>
<path d="M104.328 211.882H96.0142V220.175H104.328V211.882Z" fill="white"/>
<path d="M112.642 211.882H104.328V220.175H112.642V211.882Z" fill="white"/>
<path d="M129.271 211.882H120.957V220.175H129.271V211.882Z" fill="white"/>
<path d="M154.214 211.882H145.9V220.175H154.214V211.882Z" fill="white"/>
<path d="M179.157 211.882H170.843V220.175H179.157V211.882Z" fill="white"/>
<path d="M195.785 211.882H187.471V220.175H195.785V211.882Z" fill="white"/>
<path d="M212.414 211.882H204.1V220.175H212.414V211.882Z" fill="white"/>
<path d="M220.728 211.882H212.414V220.175H220.728V211.882Z" fill="white"/>
<path d="M229.043 211.882H220.729V220.175H229.043V211.882Z" fill="white"/>
<path d="M245.671 211.882H237.357V220.175H245.671V211.882Z" fill="white"/>
<path d="M278.929 211.882H270.614V220.175H278.929V211.882Z" fill="white"/>
<path d="M287.243 211.882H278.929V220.175H287.243V211.882Z" fill="white"/>
<path d="M295.557 211.882H287.243V220.175H295.557V211.882Z" fill="white"/>
<path d="M303.871 211.882H295.557V220.175H303.871V211.882Z" fill="white"/>
<path d="M62.7567 220.175H54.4424V228.469H62.7567V220.175Z" fill="white"/>
<path d="M79.3856 220.175H71.0713V228.469H79.3856V220.175Z" fill="white"/>
<path d="M87.6996 220.175H79.3853V228.469H87.6996V220.175Z" fill="white"/>
<path d="M96.014 220.175H87.6997V228.469H96.014V220.175Z" fill="white"/>
<path d="M104.328 220.175H96.0142V228.469H104.328V220.175Z" fill="white"/>
<path d="M129.271 220.175H120.957V228.469H129.271V220.175Z" fill="white"/>
<path d="M137.586 220.175H129.271V228.469H137.586V220.175Z" fill="white"/>
<path d="M145.9 220.175H137.585V228.469H145.9V220.175Z" fill="white"/>
<path d="M154.214 220.175H145.9V228.469H154.214V220.175Z" fill="white"/>
<path d="M170.843 220.175H162.528V228.469H170.843V220.175Z" fill="white"/>
<path d="M179.157 220.175H170.843V228.469H179.157V220.175Z" fill="white"/>
<path d="M195.785 220.175H187.471V228.469H195.785V220.175Z" fill="white"/>
<path d="M220.728 220.175H212.414V228.469H220.728V220.175Z" fill="white"/>
<path d="M229.043 220.175H220.729V228.469H229.043V220.175Z" fill="white"/>
<path d="M237.357 220.175H229.043V228.469H237.357V220.175Z" fill="white"/>
<path d="M253.986 220.175H245.671V228.469H253.986V220.175Z" fill="white"/>
<path d="M262.3 220.175H253.986V228.469H262.3V220.175Z" fill="white"/>
<path d="M278.929 220.175H270.614V228.469H278.929V220.175Z" fill="white"/>
<path d="M295.557 220.175H287.243V228.469H295.557V220.175Z" fill="white"/>
<path d="M54.4427 228.469H46.1284V236.762H54.4427V228.469Z" fill="white"/>
<path d="M62.7567 228.469H54.4424V236.762H62.7567V228.469Z" fill="white"/>
<path d="M79.3856 228.469H71.0713V236.762H79.3856V228.469Z" fill="white"/>
<path d="M112.642 228.469H104.328V236.762H112.642V228.469Z" fill="white"/>
<path d="M154.214 228.469H145.9V236.762H154.214V228.469Z" fill="white"/>
<path d="M162.529 228.469H154.214V236.762H162.529V228.469Z" fill="white"/>
<path d="M170.843 228.469H162.528V236.762H170.843V228.469Z" fill="white"/>
<path d="M179.157 228.469H170.843V236.762H179.157V228.469Z" fill="white"/>
<path d="M187.472 228.469H179.157V236.762H187.472V228.469Z" fill="white"/>
<path d="M195.785 228.469H187.471V236.762H195.785V228.469Z" fill="white"/>
<path d="M212.414 228.469H204.1V236.762H212.414V228.469Z" fill="white"/>
<path d="M220.728 228.469H212.414V236.762H220.728V228.469Z" fill="white"/>
<path d="M229.043 228.469H220.729V236.762H229.043V228.469Z" fill="white"/>
<path d="M262.3 228.469H253.986V236.762H262.3V228.469Z" fill="white"/>
<path d="M278.929 228.469H270.614V236.762H278.929V228.469Z" fill="white"/>
<path d="M287.243 228.469H278.929V236.762H287.243V228.469Z" fill="white"/>
<path d="M303.871 228.469H295.557V236.762H303.871V228.469Z" fill="white"/>
<path d="M312.186 228.469H303.872V236.762H312.186V228.469Z" fill="white"/>
<path d="M46.1283 236.762H37.814V245.056H46.1283V236.762Z" fill="white"/>
<path d="M71.0711 236.762H62.7568V245.056H71.0711V236.762Z" fill="white"/>
<path d="M87.6996 236.762H79.3853V245.056H87.6996V236.762Z" fill="white"/>
<path d="M96.014 236.762H87.6997V245.056H96.014V236.762Z" fill="white"/>
<path d="M112.642 236.762H104.328V245.056H112.642V236.762Z" fill="white"/>
<path d="M120.957 236.762H112.643V245.056H120.957V236.762Z" fill="white"/>
<path d="M154.214 236.762H145.9V245.056H154.214V236.762Z" fill="white"/>
<path d="M170.843 236.762H162.528V245.056H170.843V236.762Z" fill="white"/>
<path d="M187.472 236.762H179.157V245.056H187.472V236.762Z" fill="white"/>
<path d="M195.785 236.762H187.471V245.056H195.785V236.762Z" fill="white"/>
<path d="M212.414 236.762H204.1V245.056H212.414V236.762Z" fill="white"/>
<path d="M229.043 236.762H220.729V245.056H229.043V236.762Z" fill="white"/>
<path d="M245.671 236.762H237.357V245.056H245.671V236.762Z" fill="white"/>
<path d="M253.986 236.762H245.671V245.056H253.986V236.762Z" fill="white"/>
<path d="M262.3 236.762H253.986V245.056H262.3V236.762Z" fill="white"/>
<path d="M270.614 236.762H262.3V245.056H270.614V236.762Z" fill="white"/>
<path d="M278.929 236.762H270.614V245.056H278.929V236.762Z" fill="white"/>
<path d="M295.557 236.762H287.243V245.056H295.557V236.762Z" fill="white"/>
<path d="M303.871 236.762H295.557V245.056H303.871V236.762Z" fill="white"/>
<path d="M112.642 245.056H104.328V253.349H112.642V245.056Z" fill="white"/>
<path d="M120.957 245.056H112.643V253.349H120.957V245.056Z" fill="white"/>
<path d="M137.586 245.056H129.271V253.349H137.586V245.056Z" fill="white"/>
<path d="M154.214 245.056H145.9V253.349H154.214V245.056Z" fill="white"/>
<path d="M162.529 245.056H154.214V253.349H162.529V245.056Z" fill="white"/>
<path d="M195.785 245.056H187.471V253.349H195.785V245.056Z" fill="white"/>
<path d="M212.414 245.056H204.1V253.349H212.414V245.056Z" fill="white"/>
<path d="M220.728 245.056H212.414V253.349H220.728V245.056Z" fill="white"/>
<path d="M237.357 245.056H229.043V253.349H237.357V245.056Z" fill="white"/>
<path d="M245.671 245.056H237.357V253.349H245.671V245.056Z" fill="white"/>
<path d="M278.929 245.056H270.614V253.349H278.929V245.056Z" fill="white"/>
<path d="M303.871 245.056H295.557V253.349H303.871V245.056Z" fill="white"/>
<path d="M46.1283 253.349H37.814V261.643H46.1283V253.349Z" fill="white"/>
<path d="M54.4427 253.349H46.1284V261.643H54.4427V253.349Z" fill="white"/>
<path d="M62.7567 253.349H54.4424V261.643H62.7567V253.349Z" fill="white"/>
<path d="M71.0711 253.349H62.7568V261.643H71.0711V253.349Z" fill="white"/>
<path d="M79.3856 253.349H71.0713V261.643H79.3856V253.349Z" fill="white"/>
<path d="M87.6996 253.349H79.3853V261.643H87.6996V253.349Z" fill="white"/>
<path d="M96.014 253.349H87.6997V261.643H96.014V253.349Z" fill="white"/>
<path d="M112.642 253.349H104.328V261.643H112.642V253.349Z" fill="white"/>
<path d="M129.271 253.349H120.957V261.643H129.271V253.349Z" fill="white"/>
<path d="M145.9 253.349H137.585V261.643H145.9V253.349Z" fill="white"/>
<path d="M162.529 253.349H154.214V261.643H162.529V253.349Z" fill="white"/>
<path d="M187.472 253.349H179.157V261.643H187.472V253.349Z" fill="white"/>
<path d="M195.785 253.349H187.471V261.643H195.785V253.349Z" fill="white"/>
<path d="M220.728 253.349H212.414V261.643H220.728V253.349Z" fill="white"/>
<path d="M237.357 253.349H229.043V261.643H237.357V253.349Z" fill="white"/>
<path d="M245.671 253.349H237.357V261.643H245.671V253.349Z" fill="white"/>
<path d="M262.3 253.349H253.986V261.643H262.3V253.349Z" fill="white"/>
<path d="M278.929 253.349H270.614V261.643H278.929V253.349Z" fill="white"/>
<path d="M287.243 253.349H278.929V261.643H287.243V253.349Z" fill="white"/>
<path d="M312.186 253.349H303.872V261.643H312.186V253.349Z" fill="white"/>
<path d="M46.1283 261.643H37.814V269.936H46.1283V261.643Z" fill="white"/>
<path d="M96.014 261.643H87.6997V269.936H96.014V261.643Z" fill="white"/>
<path d="M120.957 261.643H112.643V269.936H120.957V261.643Z" fill="white"/>
<path d="M129.271 261.643H120.957V269.936H129.271V261.643Z" fill="white"/>
<path d="M154.214 261.643H145.9V269.936H154.214V261.643Z" fill="white"/>
<path d="M179.157 261.643H170.843V269.936H179.157V261.643Z" fill="white"/>
<path d="M187.472 261.643H179.157V269.936H187.472V261.643Z" fill="white"/>
<path d="M204.1 261.643H195.786V269.936H204.1V261.643Z" fill="white"/>
<path d="M245.671 261.643H237.357V269.936H245.671V261.643Z" fill="white"/>
<path d="M278.929 261.643H270.614V269.936H278.929V261.643Z" fill="white"/>
<path d="M287.243 261.643H278.929V269.936H287.243V261.643Z" fill="white"/>
<path d="M312.186 261.643H303.872V269.936H312.186V261.643Z" fill="white"/>
<path d="M46.1283 269.936H37.814V278.23H46.1283V269.936Z" fill="white"/>
<path d="M62.7567 269.936H54.4424V278.23H62.7567V269.936Z" fill="white"/>
<path d="M71.0711 269.936H62.7568V278.23H71.0711V269.936Z" fill="white"/>
<path d="M79.3856 269.936H71.0713V278.23H79.3856V269.936Z" fill="white"/>
<path d="M96.014 269.936H87.6997V278.23H96.014V269.936Z" fill="white"/>
<path d="M120.957 269.936H112.643V278.23H120.957V269.936Z" fill="white"/>
<path d="M162.529 269.936H154.214V278.23H162.529V269.936Z" fill="white"/>
<path d="M170.843 269.936H162.528V278.23H170.843V269.936Z" fill="white"/>
<path d="M187.472 269.936H179.157V278.23H187.472V269.936Z" fill="white"/>
<path d="M195.785 269.936H187.471V278.23H195.785V269.936Z" fill="white"/>
<path d="M204.1 269.936H195.786V278.23H204.1V269.936Z" fill="white"/>
<path d="M229.043 269.936H220.729V278.23H229.043V269.936Z" fill="white"/>
<path d="M237.357 269.936H229.043V278.23H237.357V269.936Z" fill="white"/>
<path d="M245.671 269.936H237.357V278.23H245.671V269.936Z" fill="white"/>
<path d="M253.986 269.936H245.671V278.23H253.986V269.936Z" fill="white"/>
<path d="M262.3 269.936H253.986V278.23H262.3V269.936Z" fill="white"/>
<path d="M270.614 269.936H262.3V278.23H270.614V269.936Z" fill="white"/>
<path d="M278.929 269.936H270.614V278.23H278.929V269.936Z" fill="white"/>
<path d="M295.557 269.936H287.243V278.23H295.557V269.936Z" fill="white"/>
<path d="M312.186 269.936H303.872V278.23H312.186V269.936Z" fill="white"/>
<path d="M46.1283 278.23H37.814V286.523H46.1283V278.23Z" fill="white"/>
<path d="M62.7567 278.23H54.4424V286.523H62.7567V278.23Z" fill="white"/>
<path d="M71.0711 278.23H62.7568V286.523H71.0711V278.23Z" fill="white"/>
<path d="M79.3856 278.23H71.0713V286.523H79.3856V278.23Z" fill="white"/>
<path d="M96.014 278.23H87.6997V286.523H96.014V278.23Z" fill="white"/>
<path d="M112.642 278.23H104.328V286.523H112.642V278.23Z" fill="white"/>
<path d="M162.529 278.23H154.214V286.523H162.529V278.23Z" fill="white"/>
<path d="M170.843 278.23H162.528V286.523H170.843V278.23Z" fill="white"/>
<path d="M195.785 278.23H187.471V286.523H195.785V278.23Z" fill="white"/>
<path d="M204.1 278.23H195.786V286.523H204.1V278.23Z" fill="white"/>
<path d="M229.043 278.23H220.729V286.523H229.043V278.23Z" fill="white"/>
<path d="M237.357 278.23H229.043V286.523H237.357V278.23Z" fill="white"/>
<path d="M245.671 278.23H237.357V286.523H245.671V278.23Z" fill="white"/>
<path d="M278.929 278.23H270.614V286.523H278.929V278.23Z" fill="white"/>
<path d="M287.243 278.23H278.929V286.523H287.243V278.23Z" fill="white"/>
<path d="M46.1283 286.523H37.814V294.817H46.1283V286.523Z" fill="white"/>
<path d="M62.7567 286.523H54.4424V294.817H62.7567V286.523Z" fill="white"/>
<path d="M71.0711 286.523H62.7568V294.817H71.0711V286.523Z" fill="white"/>
<path d="M79.3856 286.523H71.0713V294.817H79.3856V286.523Z" fill="white"/>
<path d="M96.014 286.523H87.6997V294.817H96.014V286.523Z" fill="white"/>
<path d="M112.642 286.523H104.328V294.817H112.642V286.523Z" fill="white"/>
<path d="M129.271 286.523H120.957V294.817H129.271V286.523Z" fill="white"/>
<path d="M137.586 286.523H129.271V294.817H137.586V286.523Z" fill="white"/>
<path d="M145.9 286.523H137.585V294.817H145.9V286.523Z" fill="white"/>
<path d="M154.214 286.523H145.9V294.817H154.214V286.523Z" fill="white"/>
<path d="M162.529 286.523H154.214V294.817H162.529V286.523Z" fill="white"/>
<path d="M170.843 286.523H162.528V294.817H170.843V286.523Z" fill="white"/>
<path d="M187.472 286.523H179.157V294.817H187.472V286.523Z" fill="white"/>
<path d="M204.1 286.523H195.786V294.817H204.1V286.523Z" fill="white"/>
<path d="M220.728 286.523H212.414V294.817H220.728V286.523Z" fill="white"/>
<path d="M237.357 286.523H229.043V294.817H237.357V286.523Z" fill="white"/>
<path d="M245.671 286.523H237.357V294.817H245.671V286.523Z" fill="white"/>
<path d="M270.614 286.523H262.3V294.817H270.614V286.523Z" fill="white"/>
<path d="M278.929 286.523H270.614V294.817H278.929V286.523Z" fill="white"/>
<path d="M46.1283 294.817H37.814V303.11H46.1283V294.817Z" fill="white"/>
<path d="M96.014 294.817H87.6997V303.11H96.014V294.817Z" fill="white"/>
<path d="M129.271 294.817H120.957V303.11H129.271V294.817Z" fill="white"/>
<path d="M137.586 294.817H129.271V303.11H137.586V294.817Z" fill="white"/>
<path d="M162.529 294.817H154.214V303.11H162.529V294.817Z" fill="white"/>
<path d="M179.157 294.817H170.843V303.11H179.157V294.817Z" fill="white"/>
<path d="M229.043 294.817H220.729V303.11H229.043V294.817Z" fill="white"/>
<path d="M253.986 294.817H245.671V303.11H253.986V294.817Z" fill="white"/>
<path d="M262.3 294.817H253.986V303.11H262.3V294.817Z" fill="white"/>
<path d="M278.929 294.817H270.614V303.11H278.929V294.817Z" fill="white"/>
<path d="M287.243 294.817H278.929V303.11H287.243V294.817Z" fill="white"/>
<path d="M303.871 294.817H295.557V303.11H303.871V294.817Z" fill="white"/>
<path d="M46.1283 303.11H37.814V311.403H46.1283V303.11Z" fill="white"/>
<path d="M54.4427 303.11H46.1284V311.403H54.4427V303.11Z" fill="white"/>
<path d="M62.7567 303.11H54.4424V311.403H62.7567V303.11Z" fill="white"/>
<path d="M71.0711 303.11H62.7568V311.403H71.0711V303.11Z" fill="white"/>
<path d="M79.3856 303.11H71.0713V311.403H79.3856V303.11Z" fill="white"/>
<path d="M87.6996 303.11H79.3853V311.403H87.6996V303.11Z" fill="white"/>
<path d="M96.014 303.11H87.6997V311.403H96.014V303.11Z" fill="white"/>
<path d="M129.271 303.11H120.957V311.403H129.271V303.11Z" fill="white"/>
<path d="M145.9 303.11H137.585V311.403H145.9V303.11Z" fill="white"/>
<path d="M154.214 303.11H145.9V311.403H154.214V303.11Z" fill="white"/>
<path d="M170.843 303.11H162.528V311.403H170.843V303.11Z" fill="white"/>
<path d="M187.472 303.11H179.157V311.403H187.472V303.11Z" fill="white"/>
<path d="M195.785 303.11H187.471V311.403H195.785V303.11Z" fill="white"/>
<path d="M212.414 303.11H204.1V311.403H212.414V303.11Z" fill="white"/>
<path d="M220.728 303.11H212.414V311.403H220.728V303.11Z" fill="white"/>
<path d="M229.043 303.11H220.729V311.403H229.043V303.11Z" fill="white"/>
<path d="M237.357 303.11H229.043V311.403H237.357V303.11Z" fill="white"/>
<path d="M253.986 303.11H245.671V311.403H253.986V303.11Z" fill="white"/>
<path d="M262.3 303.11H253.986V311.403H262.3V303.11Z" fill="white"/>
<path d="M270.614 303.11H262.3V311.403H270.614V303.11Z" fill="white"/>
<path d="M278.929 303.11H270.614V311.403H278.929V303.11Z" fill="white"/>
<path d="M295.557 303.11H287.243V311.403H295.557V303.11Z" fill="white"/>
<defs>
<linearGradient id="paint0_linear_0_1" x1="177.395" y1="192.379" x2="177.395" y2="11.0213" gradientUnits="userSpaceOnUse">
<stop stop-color="#667E00"/>
<stop offset="0.68" stop-color="#A2C521"/>
</linearGradient>
<linearGradient id="paint1_linear_0_1" x1="174.648" y1="3.01535" x2="174.648" y2="177.968" gradientUnits="userSpaceOnUse">
<stop stop-color="#F0CA57"/>
<stop offset="1" stop-color="#D45B1A"/>
</linearGradient>
</defs>
</svg>
