<svg width="398" height="414" viewBox="0 0 398 414" fill="none" xmlns="http://www.w3.org/2000/svg">
<g style="mix-blend-mode:multiply" opacity="0.5">
<path d="M397.989 41.7457V38.9374C398.1 34.8882 397.36 30.8608 395.817 27.1157C394.273 23.3707 391.96 19.9915 389.028 17.1968C386.185 14.3148 382.779 12.0487 379.023 10.5396C375.266 9.03052 371.239 8.31065 367.193 8.42482H34.236C17.544 8.45638 0.252431 19.6264 0.252431 38.2748V40.2942C0.0876856 41.5074 0.00335792 42.7302 0 43.9545L0 75.7344C0 93.2784 16.2187 109.276 33.9835 109.276H366.94C369.989 109.287 373.018 108.786 375.901 107.793C388.523 103.975 397.737 91.1327 397.737 75.4504V41.8088C397.742 38.6046 397.285 35.4164 396.38 32.3427C396.38 31.8378 396.159 31.3329 396.033 30.8281C397.307 34.328 397.969 38.0212 397.989 41.7457Z" fill="#58129B"/>
</g>
<path d="M394.865 365.606C394.869 369.088 394.181 372.536 392.84 375.75C391.499 378.964 389.532 381.879 387.053 384.325C384.575 386.771 381.635 388.7 378.404 389.999C375.173 391.297 371.715 391.94 368.233 391.89H35.2769C31.7905 391.94 28.3288 391.298 25.0925 390C21.8562 388.703 18.9096 386.775 16.4236 384.33C13.9376 381.886 11.9616 378.972 10.6102 375.757C9.25877 372.543 8.55877 369.093 8.55078 365.606V31.9642C8.55078 24.876 11.3666 18.0781 16.3787 13.0659C21.3908 8.05382 28.1887 5.23804 35.2769 5.23804H368.233C371.739 5.23801 375.21 5.92998 378.447 7.27426C381.684 8.61853 384.624 10.5887 387.098 13.0717C389.573 15.5547 391.532 18.5017 392.865 21.7437C394.198 24.9857 394.877 28.4589 394.865 31.9642V365.606Z" fill="url(#paint0_linear_0_1)"/>
<g style="mix-blend-mode:multiply" opacity="0.6">
<path d="M366.94 402.745H33.9835C16.2187 402.745 0 386.778 0 369.203V37.6122C0 18.9323 17.2915 7.76223 33.9835 7.76223H366.94C370.907 7.56701 374.871 8.20621 378.576 9.63853C382.281 11.0708 385.644 13.2644 388.448 16.0775C391.253 18.8907 393.436 22.2608 394.856 25.9701C396.277 29.6795 396.903 33.6456 396.695 37.6122V369.203C396.695 388.009 383.632 402.745 366.94 402.745ZM33.9835 18.1435C22.6557 18.1435 10.3812 25.5902 10.3812 37.6122V371.254C10.3812 382.929 22.0877 394.414 33.9835 394.414H366.94C379.057 394.414 386.314 382.645 386.314 371.254V37.6122C386.314 25.5902 378.899 18.1435 366.94 18.1435H33.9835Z" fill="#FF5499"/>
</g>
<path d="M10.6331 353.957V356.418L11.4219 356.671V353.862L10.6331 353.957ZM10.6331 365.664V368.125L11.4219 368.377V365.569L10.6331 365.664ZM10.6331 353.957V356.418L11.4219 356.671V353.862L10.6331 353.957ZM10.6331 365.664V368.125L11.4219 368.377V365.569L10.6331 365.664ZM10.6331 353.957V356.418L11.4219 356.671V353.862L10.6331 353.957ZM10.6331 365.664V368.125L11.4219 368.377V365.569L10.6331 365.664ZM10.6331 353.957V356.418L11.4219 356.671V353.862L10.6331 353.957ZM10.6331 365.664V368.125L11.4219 368.377V365.569L10.6331 365.664ZM10.6331 353.957V356.418L11.4219 356.671V353.862L10.6331 353.957ZM10.6331 365.664V368.125L11.4219 368.377V365.569L10.6331 365.664ZM10.6331 353.957V356.418L11.4219 356.671V353.862L10.6331 353.957ZM10.6331 365.664V368.125L11.4219 368.377V365.569L10.6331 365.664ZM10.6331 353.957V356.418L11.4219 356.671V353.862L10.6331 353.957ZM10.6331 365.664V368.125L11.4219 368.377V365.569L10.6331 365.664ZM10.6331 353.957V356.418L11.4219 356.671V353.862L10.6331 353.957ZM10.6331 365.664V368.125L11.4219 368.377V365.569L10.6331 365.664ZM10.6331 353.957V356.418L11.4219 356.671V353.862L10.6331 353.957ZM10.6331 365.664V368.125L11.4219 368.377V365.569L10.6331 365.664ZM10.6331 353.957V356.418L11.4219 356.671V353.862L10.6331 353.957ZM10.6331 365.664V368.125L11.4219 368.377V365.569L10.6331 365.664ZM10.6331 353.957V356.418L11.4219 356.671V353.862L10.6331 353.957ZM10.6331 365.664V368.125L11.4219 368.377V365.569L10.6331 365.664ZM10.6331 353.957V356.418L11.4219 356.671V353.862L10.6331 353.957ZM10.6331 365.664V368.125L11.4219 368.377V365.569L10.6331 365.664ZM10.6331 353.957V356.418L11.4219 356.671V353.862L10.6331 353.957ZM10.6331 365.664V368.125L11.4219 368.377V365.569L10.6331 365.664ZM10.6331 353.957V356.418L11.4219 356.671V353.862L10.6331 353.957ZM10.6331 365.664V368.125L11.4219 368.377V365.569L10.6331 365.664ZM10.6331 353.957V356.418L11.4219 356.671V353.862L10.6331 353.957ZM10.6331 365.664V368.125L11.4219 368.377V365.569L10.6331 365.664ZM10.6331 353.957V356.418L11.4219 356.671V353.862L10.6331 353.957ZM10.6331 365.664V368.125L11.4219 368.377V365.569L10.6331 365.664ZM10.6331 353.957V356.418L11.4219 356.671V353.862L10.6331 353.957ZM10.6331 365.664V368.125L11.4219 368.377V365.569L10.6331 365.664ZM10.6331 353.957V356.418L11.4219 356.671V353.862L10.6331 353.957ZM10.6331 365.664V368.125L11.4219 368.377V365.569L10.6331 365.664ZM10.6331 353.957V356.418L11.4219 356.671V353.862L10.6331 353.957ZM10.6331 365.664V368.125L11.4219 368.377V365.569L10.6331 365.664ZM10.6331 353.957V356.418L11.4219 356.671V353.862L10.6331 353.957ZM10.6331 365.664V368.125L11.4219 368.377V365.569L10.6331 365.664ZM10.6331 353.957V356.418L11.4219 356.671V353.862L10.6331 353.957ZM10.6331 365.664V368.125L11.4219 368.377V365.569L10.6331 365.664ZM10.6331 353.957V356.418L11.4219 356.671V353.862L10.6331 353.957ZM10.6331 365.664V368.125L11.4219 368.377V365.569L10.6331 365.664ZM10.6331 353.957V356.418L11.4219 356.671V353.862L10.6331 353.957ZM10.6331 365.664V368.125L11.4219 368.377V365.569L10.6331 365.664ZM10.6331 353.957V356.418L11.4219 356.671V353.862L10.6331 353.957ZM10.6331 365.664V368.125L11.4219 368.377V365.569L10.6331 365.664ZM10.6331 353.957V356.418L11.4219 356.671V353.862L10.6331 353.957ZM10.6331 365.664V368.125L11.4219 368.377V365.569L10.6331 365.664ZM10.6331 353.957V356.418L11.4219 356.671V353.862L10.6331 353.957ZM10.6331 365.664V368.125L11.4219 368.377V365.569L10.6331 365.664ZM10.6331 353.957V356.418L11.4219 356.671V353.862L10.6331 353.957ZM10.6331 365.664V368.125L11.4219 368.377V365.569L10.6331 365.664ZM10.6331 356.418L11.4219 356.671V353.862H10.6331V356.418ZM10.6331 365.664V368.125L11.4219 368.377V365.569L10.6331 365.664ZM396.411 25.6849C394.661 19.5205 390.81 14.1624 385.525 10.539C383.75 9.26889 381.833 8.20995 379.814 7.38364C376.066 6.0033 372.101 5.30856 368.107 5.33264H35.0558C31.6674 5.33232 28.2938 5.7779 25.0217 6.6579C22.5547 7.29186 20.1637 8.19113 17.8905 9.33998C13.668 11.411 9.95179 14.384 7.0044 18.0489C6.40487 18.8061 5.80535 19.595 5.26893 20.4154C2.67425 24.5128 1.22509 29.2308 1.07227 34.0782C1.07227 34.4569 1.07227 34.8355 1.07227 35.2457V368.887C1.07227 369.603 1.07227 370.328 1.07227 371.065C1.13422 372.05 1.26071 373.03 1.45091 373.999C2.05793 377.415 3.21973 380.708 4.89029 383.749C5.39881 384.693 5.95705 385.61 6.56264 386.494C9.67393 391.218 13.8812 395.12 18.826 397.867C23.7708 400.615 29.3064 402.125 34.9611 402.271H367.981C371.435 402.277 374.86 401.635 378.078 400.378C379.316 399.872 380.518 399.282 381.675 398.611C385.561 396.278 388.915 393.159 391.524 389.453C394.132 385.747 395.936 381.536 396.821 377.091C397.007 376.322 397.143 375.542 397.231 374.756C397.549 372.763 397.708 370.748 397.705 368.73V35.0879C397.711 31.9088 397.275 28.7442 396.411 25.6849ZM11.6428 371.601C11.6097 371.392 11.6097 371.179 11.6428 370.97C11.5948 370.287 11.5948 369.602 11.6428 368.919V35.2773C11.578 34.4687 11.578 33.6562 11.6428 32.8476C12.3557 28.2127 14.8598 24.0429 18.6162 21.2358C19.4733 20.5926 20.3691 20.0025 21.2983 19.4688C25.4829 17.0574 30.2262 15.7845 35.0558 15.777H367.981C377.258 15.777 383.758 20.2576 386.219 27.8937C387.006 30.2636 387.39 32.7488 387.355 35.2457V368.887C387.345 371.077 387.081 373.259 386.566 375.387C386.377 376.208 386.124 376.997 385.872 377.754C383.19 385.674 376.911 392.016 367.981 392.016H35.0558C30.3839 391.899 25.8591 390.358 22.0872 387.599C17.1779 384.206 13.6068 379.207 11.9899 373.463C11.8287 372.851 11.7127 372.229 11.6428 371.601ZM10.6331 365.664V368.125L11.4219 368.377V365.569L10.6331 365.664ZM10.6331 353.957V356.418L11.4219 356.671V353.862L10.6331 353.957ZM10.6331 365.664V368.125L11.4219 368.377V365.569L10.6331 365.664ZM10.6331 353.957V356.418L11.4219 356.671V353.862L10.6331 353.957ZM10.6331 365.664V368.125L11.4219 368.377V365.569L10.6331 365.664ZM10.6331 353.957V356.418L11.4219 356.671V353.862L10.6331 353.957ZM10.6331 365.664V368.125L11.4219 368.377V365.569L10.6331 365.664ZM10.6331 353.957V356.418L11.4219 356.671V353.862L10.6331 353.957ZM10.6331 365.664V368.125L11.4219 368.377V365.569L10.6331 365.664ZM10.6331 353.957V356.418L11.4219 356.671V353.862L10.6331 353.957ZM10.6331 365.664V368.125L11.4219 368.377V365.569L10.6331 365.664ZM10.6331 353.957V356.418L11.4219 356.671V353.862L10.6331 353.957ZM10.6331 365.664V368.125L11.4219 368.377V365.569L10.6331 365.664ZM10.6331 353.957V356.418L11.4219 356.671V353.862L10.6331 353.957ZM10.6331 365.664V368.125L11.4219 368.377V365.569L10.6331 365.664ZM10.6331 353.957V356.418L11.4219 356.671V353.862L10.6331 353.957ZM10.6331 365.664V368.125L11.4219 368.377V365.569L10.6331 365.664ZM10.6331 353.957V356.418L11.4219 356.671V353.862L10.6331 353.957ZM10.6331 365.664V368.125L11.4219 368.377V365.569L10.6331 365.664ZM10.6331 353.957V356.418L11.4219 356.671V353.862L10.6331 353.957ZM10.6331 365.664V368.125L11.4219 368.377V365.569L10.6331 365.664ZM10.6331 353.957V356.418L11.4219 356.671V353.862L10.6331 353.957ZM10.6331 365.664V368.125L11.4219 368.377V365.569L10.6331 365.664ZM10.6331 353.957V356.418L11.4219 356.671V353.862L10.6331 353.957ZM10.6331 365.664V368.125L11.4219 368.377V365.569L10.6331 365.664ZM10.6331 353.957V356.418L11.4219 356.671V353.862L10.6331 353.957ZM10.6331 365.664V368.125L11.4219 368.377V365.569L10.6331 365.664ZM10.6331 353.957V356.418L11.4219 356.671V353.862L10.6331 353.957ZM10.6331 365.664V368.125L11.4219 368.377V365.569L10.6331 365.664ZM10.6331 353.957V356.418L11.4219 356.671V353.862L10.6331 353.957ZM10.6331 365.664V368.125L11.4219 368.377V365.569L10.6331 365.664ZM10.6331 353.957V356.418L11.4219 356.671V353.862L10.6331 353.957ZM10.6331 365.664V368.125L11.4219 368.377V365.569L10.6331 365.664ZM10.6331 353.957V356.418L11.4219 356.671V353.862L10.6331 353.957ZM10.6331 365.664V368.125L11.4219 368.377V365.569L10.6331 365.664ZM10.6331 353.957V356.418L11.4219 356.671V353.862L10.6331 353.957ZM10.6331 365.664V368.125L11.4219 368.377V365.569L10.6331 365.664ZM10.6331 353.957V356.418L11.4219 356.671V353.862L10.6331 353.957ZM10.6331 365.664V368.125L11.4219 368.377V365.569L10.6331 365.664ZM10.6331 353.957V356.418L11.4219 356.671V353.862L10.6331 353.957ZM10.6331 365.664V368.125L11.4219 368.377V365.569L10.6331 365.664ZM10.6331 353.957V356.418L11.4219 356.671V353.862L10.6331 353.957ZM10.6331 365.664V368.125L11.4219 368.377V365.569L10.6331 365.664ZM10.6331 353.957V356.418L11.4219 356.671V353.862L10.6331 353.957ZM10.6331 365.664V368.125L11.4219 368.377V365.569L10.6331 365.664ZM10.6331 353.957V356.418L11.4219 356.671V353.862L10.6331 353.957ZM10.6331 365.664V368.125L11.4219 368.377V365.569L10.6331 365.664ZM10.6331 353.957V356.418L11.4219 356.671V353.862L10.6331 353.957ZM10.6331 365.664V368.125L11.4219 368.377V365.569L10.6331 365.664ZM10.6331 353.957V356.418L11.4219 356.671V353.862L10.6331 353.957ZM10.6331 365.664V368.125L11.4219 368.377V365.569L10.6331 365.664ZM10.6331 353.957V356.418L11.4219 356.671V353.862L10.6331 353.957ZM10.6331 365.664V368.125L11.4219 368.377V365.569L10.6331 365.664ZM10.6331 353.957V356.418L11.4219 356.671V353.862L10.6331 353.957Z" fill="#9E4000"/>
<path d="M386.566 357.433V360.147L387.355 359.516V357.465L386.566 357.433ZM252.43 391.006L243.785 390.407L239.998 390.186L236.243 389.965L230.343 389.618L226.714 389.397H225.231L218.194 389.019L214.787 388.829H165.121H165.878L169.254 389.239L171.242 389.492L178.342 390.312L192.478 392.016H266.724C262.054 391.701 257.227 391.322 252.43 391.006ZM386.566 357.433V360.147L387.355 359.516V357.465L386.566 357.433ZM252.43 391.006L243.785 390.407L239.998 390.186L236.243 389.965L230.343 389.618L226.714 389.397H225.231L218.194 389.019L214.787 388.829H165.121H165.878L169.254 389.239L171.242 389.492L178.342 390.312L192.478 392.016H266.724C262.054 391.701 257.227 391.322 252.43 391.006ZM386.566 357.433V360.147L387.355 359.516V357.465L386.566 357.433ZM252.43 391.006L243.785 390.407L239.998 390.186L236.243 389.965L230.343 389.618L226.714 389.397H225.231L218.194 389.019L214.787 388.829H165.121H165.878L169.254 389.239L171.242 389.492L178.342 390.312L192.478 392.016H266.724C262.054 391.701 257.227 391.322 252.43 391.006ZM386.566 357.433V360.147L387.355 359.516V357.465L386.566 357.433ZM252.43 391.006L243.785 390.407L239.998 390.186L236.243 389.965L230.343 389.618L226.714 389.397H225.231L218.194 389.019L214.787 388.829H165.121H165.878L169.254 389.239L171.242 389.492L178.342 390.312L192.478 392.016H266.724C262.054 391.701 257.227 391.322 252.43 391.006ZM386.566 357.433V360.147L387.355 359.516V357.465L386.566 357.433ZM252.43 391.006L243.785 390.407L239.998 390.186L236.243 389.965L230.343 389.618L226.714 389.397H225.231L218.194 389.019L214.787 388.829H165.121H165.878L169.254 389.239L171.242 389.492L178.342 390.312L192.478 392.016H266.724C262.054 391.701 257.227 391.322 252.43 391.006ZM386.566 357.433V360.147L387.355 359.516V357.465L386.566 357.433ZM252.43 391.006L243.785 390.407L239.998 390.186L236.243 389.965L230.343 389.618L226.714 389.397H225.231L218.194 389.019L214.787 388.829H165.121H165.878L169.254 389.239L171.242 389.492L178.342 390.312L192.478 392.016H266.724C262.054 391.701 257.227 391.322 252.43 391.006ZM386.566 357.433V360.147L387.355 359.516V357.465L386.566 357.433ZM252.43 391.006L243.785 390.407L239.998 390.186L236.243 389.965L230.343 389.618L226.714 389.397H225.231L218.194 389.019L214.787 388.829H165.121H165.878L169.254 389.239L171.242 389.492L178.342 390.312L192.478 392.016H266.724C262.054 391.701 257.227 391.322 252.43 391.006ZM386.566 357.433V360.147L387.355 359.516V357.465L386.566 357.433ZM252.43 391.006L243.785 390.407L239.998 390.186L236.243 389.965L230.343 389.618L226.714 389.397H225.231L218.194 389.019L214.787 388.829H165.121H165.878L169.254 389.239L171.242 389.492L178.342 390.312L192.478 392.016H266.724C262.054 391.701 257.227 391.322 252.43 391.006ZM386.566 357.433V360.147L387.355 359.516V357.465L386.566 357.433ZM252.43 391.006L243.785 390.407L239.998 390.186L236.243 389.965L230.343 389.618L226.714 389.397H225.231L218.194 389.019L214.787 388.829H165.121H165.878L169.254 389.239L171.242 389.492L178.342 390.312L192.478 392.016H266.724C262.054 391.701 257.227 391.322 252.43 391.006ZM386.566 357.433V360.147L387.355 359.516V357.465L386.566 357.433ZM252.43 391.006L243.785 390.407L239.998 390.186L236.243 389.965L230.343 389.618L226.714 389.397H225.231L218.194 389.019L214.787 388.829H165.121H165.878L169.254 389.239L171.242 389.492L178.342 390.312L192.478 392.016H266.724C262.054 391.701 257.227 391.322 252.43 391.006ZM386.566 357.433V360.147L387.355 359.516V357.465L386.566 357.433ZM252.43 391.006L243.785 390.407L239.998 390.186L236.243 389.965L230.343 389.618L226.714 389.397H225.231L218.194 389.019L214.787 388.829H165.121H165.878L169.254 389.239L171.242 389.492L178.342 390.312L192.478 392.016H266.724C262.054 391.701 257.227 391.322 252.43 391.006ZM386.566 357.433V360.147L387.355 359.516V357.465L386.566 357.433ZM252.43 391.006L243.785 390.407L239.998 390.186L236.243 389.965L230.343 389.618L226.714 389.397H225.231L218.194 389.019L214.787 388.829H165.121H165.878L169.254 389.239L171.242 389.492L178.342 390.312L192.478 392.016H266.724C262.054 391.701 257.227 391.322 252.43 391.006ZM386.566 357.433V360.147L387.355 359.516V357.465L386.566 357.433ZM252.43 391.006L243.785 390.407L239.998 390.186L236.243 389.965L230.343 389.618L226.714 389.397H225.231L218.194 389.019L214.787 388.829H165.121H165.878L169.254 389.239L171.242 389.492L178.342 390.312L192.478 392.016H266.724C262.054 391.701 257.227 391.322 252.43 391.006ZM386.566 357.433V360.147L387.355 359.516V357.465L386.566 357.433ZM252.43 391.006L243.785 390.407L239.998 390.186L236.243 389.965L230.343 389.618L226.714 389.397H225.231L218.194 389.019L214.787 388.829H165.121H165.878L169.254 389.239L171.242 389.492L178.342 390.312L192.478 392.016H266.724C262.054 391.701 257.227 391.322 252.43 391.006ZM386.566 357.433V360.147L387.355 359.516V357.465L386.566 357.433ZM252.43 391.006L243.785 390.407L239.998 390.186L236.243 389.965L230.343 389.618L226.714 389.397H225.231L218.194 389.019L214.787 388.829H165.121H165.878L169.254 389.239L171.242 389.492L178.342 390.312L192.478 392.016H266.724C262.054 391.701 257.227 391.322 252.43 391.006ZM386.566 357.433V360.147L387.355 359.516V357.465L386.566 357.433ZM252.43 391.006L243.785 390.407L239.998 390.186L236.243 389.965L230.343 389.618L226.714 389.397H225.231L218.194 389.019L214.787 388.829H165.121H165.878L169.254 389.239L171.242 389.492L178.342 390.312L192.478 392.016H266.724C262.054 391.701 257.227 391.322 252.43 391.006ZM386.566 357.433V360.147L387.355 359.516V357.465L386.566 357.433ZM252.43 391.006L243.785 390.407L239.998 390.186L236.243 389.965L230.343 389.618L226.714 389.397H225.231L218.194 389.019L214.787 388.829H165.121H165.878L169.254 389.239L171.242 389.492L178.342 390.312L192.478 392.016H266.724C262.054 391.701 257.227 391.322 252.43 391.006ZM386.566 357.433V360.147L387.355 359.516V357.465L386.566 357.433ZM252.43 391.006L243.785 390.407L239.998 390.186L236.243 389.965L230.343 389.618L226.714 389.397H225.231L218.194 389.019L214.787 388.829H165.121H165.878L169.254 389.239L171.242 389.492L178.342 390.312L192.478 392.016H266.724C262.054 391.701 257.227 391.322 252.43 391.006ZM386.566 357.433V360.147L387.355 359.516V357.465L386.566 357.433ZM252.43 391.006L243.785 390.407L239.998 390.186L236.243 389.965L230.343 389.618L226.714 389.397H225.231L218.194 389.019L214.787 388.829H165.121H165.878L169.254 389.239L171.242 389.492L178.342 390.312L192.478 392.016H266.724C262.054 391.701 257.227 391.322 252.43 391.006ZM386.566 357.433V360.147L387.355 359.516V357.465L386.566 357.433ZM252.43 391.006L243.785 390.407L239.998 390.186L236.243 389.965L230.343 389.618L226.714 389.397H225.231L218.194 389.019L214.787 388.829H165.121H165.878L169.254 389.239L171.242 389.492L178.342 390.312L192.478 392.016H266.724C262.054 391.701 257.227 391.322 252.43 391.006ZM386.566 357.433V360.147L387.355 359.516V357.465L386.566 357.433ZM252.43 391.006L243.785 390.407L239.998 390.186L236.243 389.965L230.343 389.618L226.714 389.397H225.231L218.194 389.019L214.787 388.829H165.121H165.878L169.254 389.239L171.242 389.492L178.342 390.312L192.478 392.016H266.724C262.054 391.701 257.227 391.322 252.43 391.006ZM386.566 357.433V360.147L387.355 359.516V357.465L386.566 357.433ZM252.43 391.006L243.785 390.407L239.998 390.186L236.243 389.965L230.343 389.618L226.714 389.397H225.231L218.194 389.019L214.787 388.829H165.121H165.878L169.254 389.239L171.242 389.492L178.342 390.312L192.478 392.016H266.724C262.054 391.701 257.227 391.322 252.43 391.006ZM386.566 357.433V360.147L387.355 359.516V357.465L386.566 357.433ZM252.43 391.006L243.785 390.407L239.998 390.186L236.243 389.965L230.343 389.618L226.714 389.397H225.231L218.194 389.019L214.787 388.829H165.121H165.878L169.254 389.239L171.242 389.492L178.342 390.312L192.478 392.016H266.724C262.054 391.701 257.227 391.322 252.43 391.006ZM386.566 357.433V360.147L387.355 359.516V357.465L386.566 357.433ZM252.43 391.006L243.785 390.407L239.998 390.186L236.243 389.965L230.343 389.618L226.714 389.397H225.231L218.194 389.019L214.787 388.829H165.121H165.878L169.254 389.239L171.242 389.492L178.342 390.312L192.478 392.016H266.724C262.054 391.701 257.227 391.322 252.43 391.006ZM386.566 357.433V360.147L387.355 359.516V357.465L386.566 357.433ZM252.43 391.006L243.785 390.407L239.998 390.186L236.243 389.965L230.343 389.618L226.714 389.397H225.231L218.194 389.019L214.787 388.829H165.121H165.878L169.254 389.239L171.242 389.492L178.342 390.312L192.478 392.016H266.724C262.054 391.701 257.227 391.322 252.43 391.006ZM386.566 357.433V360.147L387.355 359.516V357.465L386.566 357.433ZM252.43 391.006L243.785 390.407L239.998 390.186L236.243 389.965L230.343 389.618L226.714 389.397H225.231L218.194 389.019L214.787 388.829H165.121H165.878L169.254 389.239L171.242 389.492L178.342 390.312L192.478 392.016H266.724C262.054 391.701 257.227 391.322 252.43 391.006ZM386.566 357.433V360.147L387.355 359.516V357.465L386.566 357.433ZM252.43 391.006L243.785 390.407L239.998 390.186L236.243 389.965L230.343 389.618L226.714 389.397H225.231L218.194 389.019L214.787 388.829H165.121H165.878L169.254 389.239L171.242 389.492L178.342 390.312L192.478 392.016H266.724C262.054 391.701 257.227 391.322 252.43 391.006ZM386.566 357.433V360.147L387.355 359.516V357.465L386.566 357.433ZM252.43 391.006L243.785 390.407L239.998 390.186L236.243 389.965L230.343 389.618L226.714 389.397H225.231L218.194 389.019L214.787 388.829H165.121H165.878L169.254 389.239L171.242 389.492L178.342 390.312L192.478 392.016H266.724C262.054 391.701 257.227 391.322 252.43 391.006ZM246.12 391.006H244.794H244.479H242.87H241.891L225.641 389.807H225.168L221.602 389.492L218.447 389.239H213.872L259.94 392.395H261.486L246.12 391.006ZM246.12 391.006H244.794H244.479H242.87H241.891L225.641 389.807H225.168L221.602 389.492L218.447 389.239H213.872L259.94 392.395H261.486L246.12 391.006ZM246.12 391.006H244.794H244.479H242.87H241.891L225.641 389.807H225.168L221.602 389.492L218.447 389.239H213.872L259.94 392.395H261.486L246.12 391.006ZM246.12 391.006H244.794H244.479H242.87H241.891L225.641 389.807H225.168L221.602 389.492L218.447 389.239H213.872L259.94 392.395H261.486L246.12 391.006ZM246.12 391.006H244.794H244.479H242.87H241.891L225.641 389.807H225.168L221.602 389.492L218.447 389.239H213.872L259.94 392.395H261.486L246.12 391.006ZM246.12 391.006H244.794H244.479H242.87H241.891L225.641 389.807H225.168L221.602 389.492L218.447 389.239H213.872L259.94 392.395H261.486L246.12 391.006ZM246.12 391.006H244.794H244.479H242.87H241.891L225.641 389.807H225.168L221.602 389.492L218.447 389.239H213.872L259.94 392.395H261.486L246.12 391.006ZM246.12 391.006H244.794H244.479H242.87H241.891L225.641 389.807H225.168L221.602 389.492L218.447 389.239H213.872L259.94 392.395H261.486L246.12 391.006ZM396.411 25.811C395.625 21.4382 393.867 17.2975 391.268 13.6943C390.656 12.8149 389.982 11.9817 389.248 11.2015C388.283 10.1723 387.227 9.23235 386.093 8.39324C380.645 4.29025 373.979 2.13462 367.16 2.27179H34.2354C27.5029 2.26451 20.8869 4.02734 15.0506 7.38352C13.7645 8.14084 12.5311 8.9842 11.3588 9.90783C8.35911 12.1587 5.82026 14.9653 3.88052 18.1749C3.41419 18.9552 3.00299 19.767 2.64992 20.6046C1.03916 24.1622 0.220912 28.0273 0.251821 31.9324V365.574C0.251821 366.584 0.251821 367.562 0.40959 368.509C0.47402 369.327 0.6006 370.139 0.788237 370.938C0.788237 371.569 1.04067 372.232 1.19844 372.863C1.35621 373.494 1.38776 373.557 1.51398 373.936C2.58294 377.557 4.25798 380.971 6.46794 384.033C7.19367 385.011 7.95097 385.989 8.73981 386.904C8.87908 387.059 9.02654 387.207 9.18157 387.346L9.97042 388.261L10.4122 388.671C16.6683 395.146 25.2341 398.878 34.2354 399.053H368.896C371.204 398.901 373.484 398.456 375.68 397.727C380.104 396.174 384.112 393.625 387.395 390.276C390.677 386.928 393.147 382.87 394.612 378.416C394.612 378.069 394.833 377.754 394.928 377.438C395.022 377.123 394.928 377.438 394.928 377.281C395.18 376.502 395.401 375.713 395.59 374.914C396.377 371.82 396.769 368.64 396.758 365.448V31.8062C396.815 29.7596 396.699 27.7118 396.411 25.6848V25.811ZM386.566 365.763C386.553 369.162 385.922 372.53 384.704 375.703C384.395 376.528 384.026 377.329 383.6 378.101C383.451 378.426 383.282 378.742 383.095 379.048C381.598 381.954 379.339 384.399 376.561 386.122C373.782 387.845 370.587 388.781 367.318 388.829H34.2354C29.7307 388.587 25.3733 387.142 21.6164 384.645C17.8595 382.148 14.8405 378.69 12.8734 374.63C12.6959 374.303 12.5379 373.966 12.4001 373.62V373.431C12.1329 372.86 11.9113 372.27 11.7374 371.664C11.6499 371.459 11.5761 371.248 11.5166 371.033C11.0055 369.29 10.74 367.485 10.7277 365.669V32.0271C10.6754 27.8617 12.1709 23.8252 14.9244 20.6993C15.5599 19.9691 16.2452 19.2838 16.9754 18.6483C21.8088 14.5825 27.9193 12.3483 34.2354 12.3375H367.192C377.731 12.3375 384.736 18.1434 386.124 27.7673C386.372 29.099 386.488 30.4518 386.471 31.8062L386.566 365.763ZM246.12 390.88H244.794H244.479H242.87H241.891L225.641 389.681H225.168L221.602 389.366L218.447 389.113H213.872L259.94 392.269H261.486L246.12 390.88ZM246.12 390.88H244.794H244.479H242.87H241.891L225.641 389.681H225.168L221.602 389.366L218.447 389.113H213.872L259.94 392.269H261.486L246.12 390.88ZM246.12 390.88H244.794H244.479H242.87H241.891L225.641 389.681H225.168L221.602 389.366L218.447 389.113H213.872L259.94 392.269H261.486L246.12 390.88ZM246.12 390.88H244.794H244.479H242.87H241.891L225.641 389.681H225.168L221.602 389.366L218.447 389.113H213.872L259.94 392.269H261.486L246.12 390.88ZM246.12 390.88H244.794H244.479H242.87H241.891L225.641 389.681H225.168L221.602 389.366L218.447 389.113H213.872L259.94 392.269H261.486L246.12 390.88ZM246.12 390.88H244.794H244.479H242.87H241.891L225.641 389.681H225.168L221.602 389.366L218.447 389.113H213.872L259.94 392.269H261.486L246.12 390.88ZM246.12 390.88H244.794H244.479H242.87H241.891L225.641 389.681H225.168L221.602 389.366L218.447 389.113H213.872L259.94 392.269H261.486L246.12 390.88ZM246.12 390.88H244.794H244.479H242.87H241.891L225.641 389.681H225.168L221.602 389.366L218.447 389.113H213.872L259.94 392.269H261.486L246.12 390.88ZM252.43 390.88L243.785 390.281L239.998 390.06L236.243 389.839L230.343 389.618L226.714 389.397H225.231L218.194 389.019L214.787 388.829H165.121H165.878L169.254 389.239L171.242 389.492L178.342 390.312L192.478 392.016H266.724C262.054 391.701 257.227 391.322 252.43 391.006V390.88ZM252.43 390.88L243.785 390.281L239.998 390.06L236.243 389.839L230.343 389.618L226.714 389.397H225.231L218.194 389.019L214.787 388.829H165.121H165.878L169.254 389.239L171.242 389.492L178.342 390.312L192.478 392.016H266.724C262.054 391.701 257.227 391.322 252.43 391.006V390.88ZM386.566 357.433V360.147L387.355 359.516V357.465L386.566 357.433ZM252.43 391.006L243.785 390.407L239.998 390.186L236.243 389.965L230.343 389.618L226.714 389.397H225.231L218.194 389.019L214.787 388.829H165.121H165.878L169.254 389.239L171.242 389.492L178.342 390.312L192.478 392.016H266.724C262.054 391.701 257.227 391.322 252.43 391.006ZM386.566 357.433V360.147L387.355 359.516V357.465L386.566 357.433ZM252.43 391.006L243.785 390.407L239.998 390.186L236.243 389.965L230.343 389.618L226.714 389.397H225.231L218.194 389.019L214.787 388.829H165.121H165.878L169.254 389.239L171.242 389.492L178.342 390.312L192.478 392.016H266.724C262.054 391.701 257.227 391.322 252.43 391.006ZM386.566 357.433V360.147L387.355 359.516V357.465L386.566 357.433ZM252.43 391.006L243.785 390.407L239.998 390.186L236.243 389.965L230.343 389.618L226.714 389.397H225.231L218.194 389.019L214.787 388.829H165.121H165.878L169.254 389.239L171.242 389.492L178.342 390.312L192.478 392.016H266.724C262.054 391.701 257.227 391.322 252.43 391.006ZM386.566 357.433V360.147L387.355 359.516V357.465L386.566 357.433ZM252.43 391.006L243.785 390.407L239.998 390.186L236.243 389.965L230.343 389.618L226.714 389.397H225.231L218.194 389.019L214.787 388.829H165.121H165.878L169.254 389.239L171.242 389.492L178.342 390.312L192.478 392.016H266.724C262.054 391.701 257.227 391.322 252.43 391.006ZM386.566 357.433V360.147L387.355 359.516V357.465L386.566 357.433ZM252.43 391.006L243.785 390.407L239.998 390.186L236.243 389.965L230.343 389.618L226.714 389.397H225.231L218.194 389.019L214.787 388.829H165.121H165.878L169.254 389.239L171.242 389.492L178.342 390.312L192.478 392.016H266.724C262.054 391.701 257.227 391.322 252.43 391.006ZM386.566 357.433V360.147L387.355 359.516V357.465L386.566 357.433ZM252.43 391.006L243.785 390.407L239.998 390.186L236.243 389.965L230.343 389.618L226.714 389.397H225.231L218.194 389.019L214.787 388.829H165.121H165.878L169.254 389.239L171.242 389.492L178.342 390.312L192.478 392.016H266.724C262.054 391.701 257.227 391.322 252.43 391.006ZM386.566 357.433V360.147L387.355 359.516V357.465L386.566 357.433ZM252.43 391.006L243.785 390.407L239.998 390.186L236.243 389.965L230.343 389.618L226.714 389.397H225.231L218.194 389.019L214.787 388.829H165.121H165.878L169.254 389.239L171.242 389.492L178.342 390.312L192.478 392.016H266.724C262.054 391.701 257.227 391.322 252.43 391.006ZM386.566 357.433V360.147L387.355 359.516V357.465L386.566 357.433ZM252.43 391.006L243.785 390.407L239.998 390.186L236.243 389.965L230.343 389.618L226.714 389.397H225.231L218.194 389.019L214.787 388.829H165.121H165.878L169.254 389.239L171.242 389.492L178.342 390.312L192.478 392.016H266.724C262.054 391.701 257.227 391.322 252.43 391.006ZM386.566 357.433V360.147L387.355 359.516V357.465L386.566 357.433ZM252.43 391.006L243.785 390.407L239.998 390.186L236.243 389.965L230.343 389.618L226.714 389.397H225.231L218.194 389.019L214.787 388.829H165.121H165.878L169.254 389.239L171.242 389.492L178.342 390.312L192.478 392.016H266.724C262.054 391.701 257.227 391.322 252.43 391.006ZM386.566 357.433V360.147L387.355 359.516V357.465L386.566 357.433ZM252.43 391.006L243.785 390.407L239.998 390.186L236.243 389.965L230.343 389.618L226.714 389.397H225.231L218.194 389.019L214.787 388.829H165.121H165.878L169.254 389.239L171.242 389.492L178.342 390.312L192.478 392.016H266.724C262.054 391.701 257.227 391.322 252.43 391.006ZM386.566 357.433V360.147L387.355 359.516V357.465L386.566 357.433ZM252.43 391.006L243.785 390.407L239.998 390.186L236.243 389.965L230.343 389.618L226.714 389.397H225.231L218.194 389.019L214.787 388.829H165.121H165.878L169.254 389.239L171.242 389.492L178.342 390.312L192.478 392.016H266.724C262.054 391.701 257.227 391.322 252.43 391.006ZM386.566 357.433V360.147L387.355 359.516V357.465L386.566 357.433ZM252.43 391.006L243.785 390.407L239.998 390.186L236.243 389.965L230.343 389.618L226.714 389.397H225.231L218.194 389.019L214.787 388.829H165.121H165.878L169.254 389.239L171.242 389.492L178.342 390.312L192.478 392.016H266.724C262.054 391.701 257.227 391.322 252.43 391.006ZM386.566 357.433V360.147L387.355 359.516V357.465L386.566 357.433ZM252.43 391.006L243.785 390.407L239.998 390.186L236.243 389.965L230.343 389.618L226.714 389.397H225.231L218.194 389.019L214.787 388.829H165.121H165.878L169.254 389.239L171.242 389.492L178.342 390.312L192.478 392.016H266.724C262.054 391.701 257.227 391.322 252.43 391.006ZM386.566 357.433V360.147L387.355 359.516V357.465L386.566 357.433ZM252.43 391.006L243.785 390.407L239.998 390.186L236.243 389.965L230.343 389.618L226.714 389.397H225.231L218.194 389.019L214.787 388.829H165.121H165.878L169.254 389.239L171.242 389.492L178.342 390.312L192.478 392.016H266.724C262.054 391.701 257.227 391.322 252.43 391.006ZM386.566 357.433V360.147L387.355 359.516V357.465L386.566 357.433ZM252.43 391.006L243.785 390.407L239.998 390.186L236.243 389.965L230.343 389.618L226.714 389.397H225.231L218.194 389.019L214.787 388.829H165.121H165.878L169.254 389.239L171.242 389.492L178.342 390.312L192.478 392.016H266.724C262.054 391.701 257.227 391.322 252.43 391.006ZM386.566 357.433V360.147L387.355 359.516V357.465L386.566 357.433ZM252.43 391.006L243.785 390.407L239.998 390.186L236.243 389.965L230.343 389.618L226.714 389.397H225.231L218.194 389.019L214.787 388.829H165.121H165.878L169.254 389.239L171.242 389.492L178.342 390.312L192.478 392.016H266.724C262.054 391.701 257.227 391.322 252.43 391.006ZM386.566 357.433V360.147L387.355 359.516V357.465L386.566 357.433ZM252.43 391.006L243.785 390.407L239.998 390.186L236.243 389.965L230.343 389.618L226.714 389.397H225.231L218.194 389.019L214.787 388.829H165.121H165.878L169.254 389.239L171.242 389.492L178.342 390.312L192.478 392.016H266.724C262.054 391.701 257.227 391.322 252.43 391.006ZM386.566 357.433V360.147L387.355 359.516V357.465L386.566 357.433ZM252.43 391.006L243.785 390.407L239.998 390.186L236.243 389.965L230.343 389.618L226.714 389.397H225.231L218.194 389.019L214.787 388.829H165.121H165.878L169.254 389.239L171.242 389.492L178.342 390.312L192.478 392.016H266.724C262.054 391.701 257.227 391.322 252.43 391.006ZM386.566 357.433V360.147L387.355 359.516V357.465L386.566 357.433ZM252.43 391.006L243.785 390.407L239.998 390.186L236.243 389.965L230.343 389.618L226.714 389.397H225.231L218.194 389.019L214.787 388.829H165.121H165.878L169.254 389.239L171.242 389.492L178.342 390.312L192.478 392.016H266.724C262.054 391.701 257.227 391.322 252.43 391.006ZM386.566 357.433V360.147L387.355 359.516V357.465L386.566 357.433ZM252.43 391.006L243.785 390.407L239.998 390.186L236.243 389.965L230.343 389.618L226.714 389.397H225.231L218.194 389.019L214.787 388.829H165.121H165.878L169.254 389.239L171.242 389.492L178.342 390.312L192.478 392.016H266.724C262.054 391.701 257.227 391.322 252.43 391.006ZM386.566 357.433V360.147L387.355 359.516V357.465L386.566 357.433ZM252.43 391.006L243.785 390.407L239.998 390.186L236.243 389.965L230.343 389.618L226.714 389.397H225.231L218.194 389.019L214.787 388.829H165.121H165.878L169.254 389.239L171.242 389.492L178.342 390.312L192.478 392.016H266.724C262.054 391.701 257.227 391.322 252.43 391.006ZM386.566 357.433V360.147L387.355 359.516V357.465L386.566 357.433ZM252.43 391.006L243.785 390.407L239.998 390.186L236.243 389.965L230.343 389.618L226.714 389.397H225.231L218.194 389.019L214.787 388.829H165.121H165.878L169.254 389.239L171.242 389.492L178.342 390.312L192.478 392.016H266.724C262.054 391.701 257.227 391.322 252.43 391.006ZM386.566 357.433V360.147L387.355 359.516V357.465L386.566 357.433ZM252.43 391.006L243.785 390.407L239.998 390.186L236.243 389.965L230.343 389.618L226.714 389.397H225.231L218.194 389.019L214.787 388.829H165.121H165.878L169.254 389.239L171.242 389.492L178.342 390.312L192.478 392.016H266.724C262.054 391.701 257.227 391.322 252.43 391.006ZM386.566 357.433V360.147L387.355 359.516V357.465L386.566 357.433ZM252.43 391.006L243.785 390.407L239.998 390.186L236.243 389.965L230.343 389.618L226.714 389.397H225.231L218.194 389.019L214.787 388.829H165.121H165.878L169.254 389.239L171.242 389.492L178.342 390.312L192.478 392.016H266.724C262.054 391.701 257.227 391.322 252.43 391.006ZM386.566 357.433V360.147L387.355 359.516V357.465L386.566 357.433ZM252.43 391.006L243.785 390.407L239.998 390.186L236.243 389.965L230.343 389.618L226.714 389.397H225.231L218.194 389.019L214.787 388.829H165.121H165.878L169.254 389.239L171.242 389.492L178.342 390.312L192.478 392.016H266.724C262.054 391.701 257.227 391.322 252.43 391.006ZM386.566 357.433V360.147L387.355 359.516V357.465L386.566 357.433ZM252.43 391.006L243.785 390.407L239.998 390.186L236.243 389.965L230.343 389.618L226.714 389.397H225.231L218.194 389.019L214.787 388.829H165.121H165.878L169.254 389.239L171.242 389.492L178.342 390.312L192.478 392.016H266.724C262.054 391.701 257.227 391.322 252.43 391.006ZM386.566 357.433V360.147L387.355 359.516V357.465L386.566 357.433Z" fill="url(#paint1_linear_0_1)"/>
<g style="mix-blend-mode:multiply" opacity="0.6">
<path d="M21.2987 19.4689C20.3695 20.0026 19.4738 20.5927 18.6167 21.2359C17.3545 21.015 16.1239 20.8573 14.9248 20.6995C11.7176 20.3686 8.49047 20.2737 5.26936 20.4155L2.65039 20.6048C3.00346 19.7673 3.41467 18.9554 3.88099 18.1752H7.03638C10.3711 18.0862 13.7073 18.2868 17.0074 18.7747C18.4486 18.9341 19.8808 19.1658 21.2987 19.4689Z" fill="#C97B3A"/>
<path d="M11.5808 32.8162C11.516 33.6247 11.516 34.4372 11.5808 35.2458L10.7919 35.4351C8.15664 36.0709 5.45655 36.3992 2.74569 36.4133H0.25293V34.0468H1.07333C4.26119 34.1771 7.45085 33.8369 10.5395 33.037L11.5808 32.8162Z" fill="#C97B3A"/>
<path d="M11.423 41.8723V44.2073L10.6342 44.1757L1.04178 44.018H0.25293V41.683H1.04178L10.6342 41.8723H11.423Z" fill="#C97B3A"/>
<path d="M11.423 66.3V68.635L10.6342 68.5719L1.04178 68.0986L0.25293 68.0355V65.7321L1.04178 65.7636L10.6342 66.2685L11.423 66.3Z" fill="#C97B3A"/>
<path d="M116.75 402.46H110.439L101.572 399.305C95.7032 397.128 88.9507 394.604 82.0404 392.205L72.5742 389.05H79.8001L89.0453 392.205C96.1765 394.793 103.024 397.349 108.262 399.305L116.75 402.46Z" fill="#C97B3A"/>
<path d="M92.7695 402.461H85.4806C82.0097 401.325 78.1601 400.157 74.1843 399.305C68.6498 397.807 63.0049 396.752 57.303 396.15C40.9606 393.99 24.7491 390.936 8.74154 386.999L6.62743 386.526C6.02184 385.641 5.4636 384.725 4.95508 383.781C5.46568 383.87 5.97124 383.986 6.46966 384.128C10.5086 385.043 15.9358 386.305 21.9942 387.599C29.4724 389.176 37.7711 390.754 45.2178 392.048C49.73 392.805 53.9583 393.373 57.4923 393.72C66.0666 394.683 74.5231 396.501 82.7354 399.147C86.4272 400.283 89.835 401.419 92.7695 402.461Z" fill="#C97B3A"/>
<path d="M161.588 402.461H159.253L158.874 400.347L155.435 399.148L135.146 392.048L125.743 388.767H132.748L142.119 392.048L160.894 398.643L160.988 399.148L161.588 402.461Z" fill="#C97B3A"/>
<path d="M381.802 398.801C380.645 399.471 379.443 400.062 378.205 400.568C375.302 400.063 372.115 399.558 369.023 399.116C365.868 398.643 362.712 398.233 360.314 398.043C357.159 397.759 350.848 397.444 341.95 397.002C330.054 396.403 313.93 395.614 296.418 394.415C291.716 395.645 282.092 397.349 270.607 399.148C263.665 400.221 256.029 401.388 248.519 402.303H231.511L245.143 400.41L232.837 398.99C215.608 397.002 191.28 394.068 173.105 391.89L148.304 389.082V388.767H165.217H165.974L169.35 389.177L171.338 389.429L178.438 390.25L192.574 391.954C216.586 394.825 243.06 397.949 251.58 398.832V399.053V399.558L255.019 399.053C267.64 397.191 279.947 395.267 288.182 393.721C283.039 393.342 277.801 392.9 272.405 392.458L266.725 391.954C262.055 391.606 257.259 391.228 252.4 390.912L243.754 390.313L239.968 390.092L236.213 389.871L230.344 389.619L225.232 389.335L218.196 388.956L214.788 388.767H253.978C260.288 389.208 266.599 389.682 272.626 390.218C280.514 390.912 288.403 391.512 296.039 392.048H296.26C313.835 393.247 329.991 394.068 341.918 394.667C350.69 395.109 357.064 395.424 360.346 395.708C364.542 396.087 370.38 396.939 375.681 397.759L381.802 398.801Z" fill="#C97B3A"/>
<path d="M389.171 11.0125C387.972 10.8231 386.741 10.6338 385.511 10.5076C369.065 8.82515 352.523 8.28744 336.003 8.89834V8.70902C331.711 10.1605 328.177 11.5489 325.842 12.4639L322.687 13.7261L322.119 12.4639L321.835 11.5804C322.466 11.2964 329.092 8.42503 338.432 5.26965C341.998 4.13371 345.974 2.96621 350.139 2.11426H361.972C356.865 2.93398 351.808 4.04011 346.826 5.42742L343.449 6.37403C355.533 6.09998 367.623 6.43698 379.673 7.38376C381.85 7.60463 383.965 7.82551 385.984 8.1095C387.133 8.97708 388.2 9.94885 389.171 11.0125Z" fill="#C97B3A"/>
<path d="M397.565 42.3771V44.8383L396.808 45.1223C393.723 46.1403 390.556 46.8899 387.342 47.3626H386.553V45.2485H387.342C390.553 44.749 393.719 43.9892 396.808 42.9766L397.565 42.3771Z" fill="#C97B3A"/>
<path d="M397.565 38.5591V40.9256L396.808 40.7363L387.342 38.4644C387.075 38.4163 386.812 38.3531 386.553 38.2751V35.7823L387.342 35.9717L396.808 38.2436L397.565 38.5591Z" fill="#C97B3A"/>
<path d="M397.565 54.9353V57.2703H396.808L387.342 56.4184H386.553V54.0834H387.342C390.497 54.3358 393.652 54.6198 396.808 54.9353H397.565Z" fill="#C97B3A"/>
<path d="M337 6.5L336 9C323.884 9 31.8061 8.67747 17.8908 9.40321L11.3276 9.75031C12.5046 8.8808 13.7379 8.09022 15.0194 7.38376L24.9905 6.8789C33.5416 6.4687 44.7432 5.93229 54.8089 5.55364C63.1076 5.08033 332.236 6.5 337 6.5Z" fill="#C97B3A"/>
</g>
<g style="mix-blend-mode:overlay" opacity="0.5">
<path d="M12.8104 23.5708C13.3845 22.524 14.0954 21.5584 14.9245 20.6994C11.7261 20.252 8.48824 20.1568 5.26904 20.4154C11.4536 20.4785 12.8104 23.5708 12.8104 23.5708Z" fill="#FFDE55"/>
<path d="M69.0707 7.13123L15.9971 9.84486C15.9971 9.84486 31.5216 9.84486 43.7014 9.46621C52.1948 9.16236 60.6645 8.3828 69.0707 7.13123Z" fill="#FFDE55"/>
<path d="M8.17246 36.0979C5.55262 36.5017 2.89448 36.597 0.252441 36.3819V41.6829L1.23061 37.4547C3.58498 37.2418 5.91118 36.7871 8.17246 36.0979Z" fill="#FFDE55"/>
<path d="M10.6337 45.6271V44.4596C6.97341 44.4596 1.45148 44.0494 0.252431 43.9863H0L0.157769 44.9329L10.6337 45.6271Z" fill="#FFDE55"/>
<path d="M10.6342 68.6979L0.25293 68.2561V69.2343C3.69478 69.6854 7.16287 69.9068 10.6342 69.8969V68.6979Z" fill="#FFDE55"/>
<path d="M39.0639 393.626C30.2919 392.174 9.05615 387.315 9.05615 387.315L10.413 388.64C10.413 388.64 18.4908 390.596 22.3719 391.795C26.253 392.995 46.1004 395.771 52.3796 396.434C58.6589 397.097 67.3362 399.148 67.3362 399.148L73.6469 398.958C73.6469 398.958 60.4259 396.15 58.9744 396.15C57.5229 396.15 47.8359 395.046 39.0639 393.626Z" fill="#FFDE55"/>
<path d="M71.9737 388.766H68.061C77.5272 391.669 96.6173 398.485 98.4474 399.147H98.6052H101.35C101.35 399.147 87.1196 394.099 82.4181 392.363C78.884 391.006 73.8985 389.397 71.9737 388.766Z" fill="#FFDE55"/>
<path d="M127.383 388.766H125.427C131.738 391.417 150.133 398.232 153.1 399.147H153.51H155.434C155.434 399.147 145.716 395.361 140.099 393.783C135.75 392.406 131.501 390.73 127.383 388.766Z" fill="#FFDE55"/>
<path d="M219.709 397.57C214.819 397.096 177.522 392.931 168.561 391.574C162.565 390.659 152.784 389.46 146.883 388.766H141.992C150.133 391.006 180.551 394.162 190.743 395.077C199.767 395.929 217.501 398.232 223.275 399.053L225.168 399.305L231.952 399.116H231.605C230.028 398.926 224.032 397.98 219.709 397.57Z" fill="#FFDE55"/>
<path d="M225.169 109.334H225.642L244.574 110.723L218.511 108.735L225.169 109.334Z" fill="#FFDE55"/>
<path d="M263.064 412.048C257.763 411.638 252.746 411.259 249.559 411.101L244.447 410.754L283.795 413.752L213.872 408.766C222.139 409.744 237.379 411.511 244.952 411.922C246.372 411.922 247.508 412.111 248.297 412.111C254.324 412.111 281.365 413.594 286.382 413.846H287.14H285.688C282.06 413.562 272.089 412.742 263.064 412.048Z" fill="#FFDE55"/>
<path d="M396.949 57.2073L385.715 56.166C389.023 56.7235 392.283 57.5358 395.465 58.5957C396.538 59.353 397.012 66.5788 397.012 66.5788L396.949 57.2073Z" fill="#FFDE55"/>
<path d="M396.947 45.2482C395.874 45.5322 394.233 45.9424 391.899 46.6365C390.168 47.1637 388.374 47.4504 386.566 47.4885V49.0662C390.096 48.2581 393.565 47.2037 396.947 45.9108V45.2482Z" fill="#FFDE55"/>
<path d="M386.566 39.6317C389.992 40.3991 393.458 40.9784 396.947 41.3671V40.7676L386.566 38.2433V39.6317Z" fill="#FFDE55"/>
<path d="M389.281 11.107C384.705 10.4759 373.504 9.0244 364.605 8.77197C353.309 8.48798 335.954 8.77197 335.954 8.77197L325.321 12.3376H329.076C332.312 10.7713 335.81 9.81907 339.394 9.52926C344.79 9.24528 371.421 9.90791 375.775 10.1919C381.045 10.8302 386.236 12.0038 391.268 13.6944C390.671 12.7835 390.007 11.9186 389.281 11.107Z" fill="#FFDE55"/>
</g>
<path d="M397.565 122.377V124.838L396.808 125.122C393.723 126.14 390.556 126.89 387.342 127.362H386.553V125.248H387.342C390.553 124.749 393.719 123.989 396.808 122.976L397.565 122.377Z" fill="#C97B3A"/>
<path d="M397.565 118.559V120.926L396.808 120.736L387.342 118.465C387.075 118.416 386.812 118.353 386.553 118.275V115.782L387.342 115.972L396.808 118.244L397.565 118.559Z" fill="#C97B3A"/>
<path d="M397.565 134.935V137.27H396.808L387.342 136.418H386.553V134.083H387.342C390.497 134.336 393.652 134.62 396.808 134.935H397.565Z" fill="#C97B3A"/>
<path d="M396.949 137.208L385.715 136.166C389.023 136.724 392.283 137.536 395.465 138.596C396.538 139.353 397.012 146.579 397.012 146.579L396.949 137.208Z" fill="#FFDE55"/>
<path d="M396.947 125.248C395.874 125.532 394.233 125.942 391.899 126.637C390.168 127.164 388.374 127.45 386.566 127.489V129.066C390.096 128.258 393.565 127.204 396.947 125.911V125.248Z" fill="#FFDE55"/>
<path d="M386.566 119.632C389.992 120.399 393.458 120.979 396.947 121.367V120.768L386.566 118.243V119.632Z" fill="#FFDE55"/>
<path d="M397.565 172.377V174.838L396.808 175.122C393.723 176.14 390.556 176.89 387.342 177.362H386.553V175.248H387.342C390.553 174.749 393.719 173.989 396.808 172.976L397.565 172.377Z" fill="#C97B3A"/>
<path d="M397.565 168.559V170.926L396.808 170.736L387.342 168.465C387.075 168.416 386.812 168.353 386.553 168.275V165.782L387.342 165.972L396.808 168.244L397.565 168.559Z" fill="#C97B3A"/>
<path d="M397.565 184.935V187.27H396.808L387.342 186.418H386.553V184.083H387.342C390.497 184.336 393.652 184.62 396.808 184.935H397.565Z" fill="#C97B3A"/>
<path d="M396.949 187.208L385.715 186.166C389.023 186.724 392.283 187.536 395.465 188.596C396.538 189.353 397.012 196.579 397.012 196.579L396.949 187.208Z" fill="#FFDE55"/>
<path d="M396.947 175.248C395.874 175.532 394.233 175.942 391.899 176.637C390.168 177.164 388.374 177.45 386.566 177.489V179.066C390.096 178.258 393.565 177.204 396.947 175.911V175.248Z" fill="#FFDE55"/>
<path d="M386.566 169.632C389.992 170.399 393.458 170.979 396.947 171.367V170.768L386.566 168.243V169.632Z" fill="#FFDE55"/>
<path d="M397.565 252.377V254.838L396.808 255.122C393.723 256.14 390.556 256.89 387.342 257.362H386.553V255.248H387.342C390.553 254.749 393.719 253.989 396.808 252.976L397.565 252.377Z" fill="#C97B3A"/>
<path d="M397.565 248.559V250.926L396.808 250.736L387.342 248.465C387.075 248.416 386.812 248.353 386.553 248.275V245.782L387.342 245.972L396.808 248.244L397.565 248.559Z" fill="#C97B3A"/>
<path d="M397.565 264.935V267.27H396.808L387.342 266.418H386.553V264.083H387.342C390.497 264.336 393.652 264.62 396.808 264.935H397.565Z" fill="#C97B3A"/>
<path d="M396.949 267.208L385.715 266.166C389.023 266.724 392.283 267.536 395.465 268.596C396.538 269.353 397.012 276.579 397.012 276.579L396.949 267.208Z" fill="#FFDE55"/>
<path d="M396.947 255.248C395.874 255.532 394.233 255.942 391.899 256.637C390.168 257.164 388.374 257.45 386.566 257.489V259.066C390.096 258.258 393.565 257.204 396.947 255.911V255.248Z" fill="#FFDE55"/>
<path d="M386.566 249.632C389.992 250.399 393.458 250.979 396.947 251.367V250.768L386.566 248.243V249.632Z" fill="#FFDE55"/>
<path d="M397.565 332.377V334.838L396.808 335.122C393.723 336.14 390.556 336.89 387.342 337.362H386.553V335.248H387.342C390.553 334.749 393.719 333.989 396.808 332.976L397.565 332.377Z" fill="#C97B3A"/>
<path d="M397.565 328.559V330.926L396.808 330.736L387.342 328.465C387.075 328.416 386.812 328.353 386.553 328.275V325.782L387.342 325.972L396.808 328.244L397.565 328.559Z" fill="#C97B3A"/>
<path d="M397.565 344.935V347.27H396.808L387.342 346.418H386.553V344.083H387.342C390.497 344.336 393.652 344.62 396.808 344.935H397.565Z" fill="#C97B3A"/>
<path d="M396.949 347.208L385.715 346.166C389.023 346.724 392.283 347.536 395.465 348.596C396.538 349.353 397.012 356.579 397.012 356.579L396.949 347.208Z" fill="#FFDE55"/>
<path d="M396.947 335.248C395.874 335.532 394.233 335.942 391.899 336.637C390.168 337.164 388.374 337.45 386.566 337.489V339.066C390.096 338.258 393.565 337.204 396.947 335.911V335.248Z" fill="#FFDE55"/>
<path d="M386.566 329.632C389.992 330.399 393.458 330.979 396.947 331.367V330.768L386.566 328.243V329.632Z" fill="#FFDE55"/>
<path d="M11.5808 112.816C11.516 113.625 11.516 114.437 11.5808 115.246L10.7919 115.435C8.15664 116.071 5.45655 116.399 2.74569 116.413H0.25293V114.047H1.07333C4.26119 114.177 7.45085 113.837 10.5395 113.037L11.5808 112.816Z" fill="#C97B3A"/>
<path d="M11.423 121.872V124.207L10.6342 124.176L1.04178 124.018H0.25293V121.683H1.04178L10.6342 121.872H11.423Z" fill="#C97B3A"/>
<path d="M11.423 146.3V148.635L10.6342 148.572L1.04178 148.098L0.25293 148.035V145.732L1.04178 145.763L10.6342 146.268L11.423 146.3Z" fill="#C97B3A"/>
<path d="M8.17295 116.098C5.55311 116.502 2.89496 116.597 0.25293 116.382V121.683L1.2311 117.455C3.58547 117.242 5.91167 116.787 8.17295 116.098Z" fill="#FFDE55"/>
<path d="M10.6337 125.627V124.46C6.97341 124.46 1.45148 124.049 0.252431 123.986H0L0.157769 124.933L10.6337 125.627Z" fill="#FFDE55"/>
<path d="M10.6342 148.698L0.25293 148.256V149.234C3.69478 149.685 7.16287 149.907 10.6342 149.897V148.698Z" fill="#FFDE55"/>
<path d="M11.5808 212.816C11.516 213.625 11.516 214.437 11.5808 215.246L10.7919 215.435C8.15664 216.071 5.45655 216.399 2.74569 216.413H0.25293V214.047H1.07333C4.26119 214.177 7.45085 213.837 10.5395 213.037L11.5808 212.816Z" fill="#C97B3A"/>
<path d="M11.423 221.872V224.207L10.6342 224.176L1.04178 224.018H0.25293V221.683H1.04178L10.6342 221.872H11.423Z" fill="#C97B3A"/>
<path d="M11.423 246.3V248.635L10.6342 248.572L1.04178 248.098L0.25293 248.035V245.732L1.04178 245.763L10.6342 246.268L11.423 246.3Z" fill="#C97B3A"/>
<path d="M8.17295 216.098C5.55311 216.502 2.89496 216.597 0.25293 216.382V221.683L1.2311 217.455C3.58547 217.242 5.91167 216.787 8.17295 216.098Z" fill="#FFDE55"/>
<path d="M10.6337 225.627V224.46C6.97341 224.46 1.45148 224.049 0.252431 223.986H0L0.157769 224.933L10.6337 225.627Z" fill="#FFDE55"/>
<path d="M10.6342 248.698L0.25293 248.256V249.234C3.69478 249.685 7.16287 249.907 10.6342 249.897V248.698Z" fill="#FFDE55"/>
<path d="M11.5808 292.816C11.516 293.625 11.516 294.437 11.5808 295.246L10.7919 295.435C8.15664 296.071 5.45655 296.399 2.74569 296.413H0.25293V294.047H1.07333C4.26119 294.177 7.45085 293.837 10.5395 293.037L11.5808 292.816Z" fill="#C97B3A"/>
<path d="M11.423 301.872V304.207L10.6342 304.176L1.04178 304.018H0.25293V301.683H1.04178L10.6342 301.872H11.423Z" fill="#C97B3A"/>
<path d="M11.423 326.3V328.635L10.6342 328.572L1.04178 328.098L0.25293 328.035V325.732L1.04178 325.763L10.6342 326.268L11.423 326.3Z" fill="#C97B3A"/>
<path d="M8.17295 296.098C5.55311 296.502 2.89496 296.597 0.25293 296.382V301.683L1.2311 297.455C3.58547 297.242 5.91167 296.787 8.17295 296.098Z" fill="#FFDE55"/>
<path d="M10.6337 305.627V304.46C6.97341 304.46 1.45148 304.049 0.252431 303.986H0L0.157769 304.933L10.6337 305.627Z" fill="#FFDE55"/>
<path d="M10.6342 328.698L0.25293 328.256V329.234C3.69478 329.685 7.16287 329.907 10.6342 329.897V328.698Z" fill="#FFDE55"/>
<g style="mix-blend-mode:multiply" opacity="0.4">
<path d="M305.757 10.5389C305.946 10.9807 306.136 11.454 306.293 11.9273H305H294.555C264.737 12.4006 202.071 12.7793 164.963 13.0001H150.291H149.754L107.946 13.2526H96.9648C96.9648 12.8424 97.1857 12.4637 97.3119 12.0851C97.1226 12.4637 97.028 12.6846 96.9964 12.7162L97.2804 11.8326H109.176C135.208 11.8642 242.965 11.4224 292.441 10.5389H304.242H305.757Z" fill="#C97B3A"/>
</g>
<path d="M302.38 4.63842H298.909C280.482 4.5122 201.944 4.22822 193.078 3.72336L146.441 1.07283L136.344 0.599524H136.186L125.584 0L164.553 1.07283C187.43 1.76702 213.935 2.61897 224.789 3.06073L229.365 3.2816C234.35 3.6918 280.324 4.16511 295.123 4.41754H298.815C299.981 4.49034 301.151 4.49034 302.317 4.41754L302.38 4.63842Z" fill="#FFDE55"/>
<g style="mix-blend-mode:overlay" opacity="0.5">
<path d="M305.515 9.46371H217.164L305.168 8.70642C305.168 8.70642 305.452 9.24284 305.515 9.46371Z" fill="#FFDE55"/>
</g>
<g style="mix-blend-mode:overlay" opacity="0.5">
<path d="M96.0506 16.629L159.158 18.0174C159.158 18.0174 102.551 17.2917 98.7642 17.4494C97.0288 17.4494 95.9559 19.3742 96.1453 21.8354C96.019 21.8354 95.9875 17.4179 96.0506 16.629Z" fill="#FFDE55"/>
</g>
<g style="mix-blend-mode:overlay" opacity="0.5">
<path d="M164.964 13.0951L107.158 14.5782H106.747L97.8177 14.1995H96.8711V13.884H97.8177H107.568L149.629 13.4107H150.071L168.025 13.1898C168.372 13.0005 167.236 13.0636 164.964 13.0951Z" fill="#FFDE55"/>
</g>
<path d="M52.4545 43H43V52.4545H52.4545V43Z" fill="white"/>
<path d="M61.9091 43H52.4546V52.4545H61.9091V43Z" fill="white"/>
<path d="M71.3637 43H61.9092V52.4545H71.3637V43Z" fill="white"/>
<path d="M80.8183 43H71.3638V52.4545H80.8183V43Z" fill="white"/>
<path d="M90.2729 43H80.8184V52.4545H90.2729V43Z" fill="white"/>
<path d="M99.7275 43H90.2729V52.4545H99.7275V43Z" fill="white"/>
<path d="M109.182 43H99.7271V52.4545H109.182V43Z" fill="white"/>
<path d="M156.455 43H147V52.4545H156.455V43Z" fill="white"/>
<path d="M165.909 43H156.455V52.4545H165.909V43Z" fill="white"/>
<path d="M203.727 43H194.273V52.4545H203.727V43Z" fill="white"/>
<path d="M222.636 43H213.182V52.4545H222.636V43Z" fill="white"/>
<path d="M232.091 43H222.636V52.4545H232.091V43Z" fill="white"/>
<path d="M241.545 43H232.091V52.4545H241.545V43Z" fill="white"/>
<path d="M251 43H241.545V52.4545H251V43Z" fill="white"/>
<path d="M260.455 43H251V52.4545H260.455V43Z" fill="white"/>
<path d="M269.909 43H260.455V52.4545H269.909V43Z" fill="white"/>
<path d="M279.364 43H269.909V52.4545H279.364V43Z" fill="white"/>
<path d="M298.273 43H288.818V52.4545H298.273V43Z" fill="white"/>
<path d="M307.727 43H298.273V52.4545H307.727V43Z" fill="white"/>
<path d="M317.182 43H307.727V52.4545H317.182V43Z" fill="white"/>
<path d="M326.636 43H317.182V52.4545H326.636V43Z" fill="white"/>
<path d="M336.091 43H326.636V52.4545H336.091V43Z" fill="white"/>
<path d="M345.545 43H336.091V52.4545H345.545V43Z" fill="white"/>
<path d="M355 43H345.545V52.4545H355V43Z" fill="white"/>
<path d="M52.4545 52.4546H43V61.9091H52.4545V52.4546Z" fill="white"/>
<path d="M109.182 52.4546H99.7271V61.9091H109.182V52.4546Z" fill="white"/>
<path d="M137.545 52.4546H128.091V61.9091H137.545V52.4546Z" fill="white"/>
<path d="M147 52.4546H137.545V61.9091H147V52.4546Z" fill="white"/>
<path d="M165.909 52.4546H156.455V61.9091H165.909V52.4546Z" fill="white"/>
<path d="M175.364 52.4546H165.909V61.9091H175.364V52.4546Z" fill="white"/>
<path d="M184.818 52.4546H175.364V61.9091H184.818V52.4546Z" fill="white"/>
<path d="M194.273 52.4546H184.818V61.9091H194.273V52.4546Z" fill="white"/>
<path d="M203.727 52.4546H194.273V61.9091H203.727V52.4546Z" fill="white"/>
<path d="M213.182 52.4546H203.727V61.9091H213.182V52.4546Z" fill="white"/>
<path d="M222.636 52.4546H213.182V61.9091H222.636V52.4546Z" fill="white"/>
<path d="M232.091 52.4546H222.636V61.9091H232.091V52.4546Z" fill="white"/>
<path d="M260.455 52.4546H251V61.9091H260.455V52.4546Z" fill="white"/>
<path d="M269.909 52.4546H260.455V61.9091H269.909V52.4546Z" fill="white"/>
<path d="M279.364 52.4546H269.909V61.9091H279.364V52.4546Z" fill="white"/>
<path d="M298.273 52.4546H288.818V61.9091H298.273V52.4546Z" fill="white"/>
<path d="M355 52.4546H345.545V61.9091H355V52.4546Z" fill="white"/>
<path d="M52.4545 61.9091H43V71.3636H52.4545V61.9091Z" fill="white"/>
<path d="M71.3637 61.9091H61.9092V71.3636H71.3637V61.9091Z" fill="white"/>
<path d="M80.8183 61.9091H71.3638V71.3636H80.8183V61.9091Z" fill="white"/>
<path d="M90.2729 61.9091H80.8184V71.3636H90.2729V61.9091Z" fill="white"/>
<path d="M109.182 61.9091H99.7271V71.3636H109.182V61.9091Z" fill="white"/>
<path d="M137.545 61.9091H128.091V71.3636H137.545V61.9091Z" fill="white"/>
<path d="M156.455 61.9091H147V71.3636H156.455V61.9091Z" fill="white"/>
<path d="M184.818 61.9091H175.364V71.3636H184.818V61.9091Z" fill="white"/>
<path d="M203.727 61.9091H194.273V71.3636H203.727V61.9091Z" fill="white"/>
<path d="M213.182 61.9091H203.727V71.3636H213.182V61.9091Z" fill="white"/>
<path d="M222.636 61.9091H213.182V71.3636H222.636V61.9091Z" fill="white"/>
<path d="M232.091 61.9091H222.636V71.3636H232.091V61.9091Z" fill="white"/>
<path d="M241.545 61.9091H232.091V71.3636H241.545V61.9091Z" fill="white"/>
<path d="M260.455 61.9091H251V71.3636H260.455V61.9091Z" fill="white"/>
<path d="M269.909 61.9091H260.455V71.3636H269.909V61.9091Z" fill="white"/>
<path d="M279.364 61.9091H269.909V71.3636H279.364V61.9091Z" fill="white"/>
<path d="M298.273 61.9091H288.818V71.3636H298.273V61.9091Z" fill="white"/>
<path d="M317.182 61.9091H307.727V71.3636H317.182V61.9091Z" fill="white"/>
<path d="M326.636 61.9091H317.182V71.3636H326.636V61.9091Z" fill="white"/>
<path d="M336.091 61.9091H326.636V71.3636H336.091V61.9091Z" fill="white"/>
<path d="M355 61.9091H345.545V71.3636H355V61.9091Z" fill="white"/>
<path d="M52.4545 71.3636H43V80.8182H52.4545V71.3636Z" fill="white"/>
<path d="M71.3637 71.3636H61.9092V80.8182H71.3637V71.3636Z" fill="white"/>
<path d="M80.8183 71.3636H71.3638V80.8182H80.8183V71.3636Z" fill="white"/>
<path d="M90.2729 71.3636H80.8184V80.8182H90.2729V71.3636Z" fill="white"/>
<path d="M109.182 71.3636H99.7271V80.8182H109.182V71.3636Z" fill="white"/>
<path d="M137.545 71.3636H128.091V80.8182H137.545V71.3636Z" fill="white"/>
<path d="M175.364 71.3636H165.909V80.8182H175.364V71.3636Z" fill="white"/>
<path d="M194.273 71.3636H184.818V80.8182H194.273V71.3636Z" fill="white"/>
<path d="M203.727 71.3636H194.273V80.8182H203.727V71.3636Z" fill="white"/>
<path d="M222.636 71.3636H213.182V80.8182H222.636V71.3636Z" fill="white"/>
<path d="M232.091 71.3636H222.636V80.8182H232.091V71.3636Z" fill="white"/>
<path d="M279.364 71.3636H269.909V80.8182H279.364V71.3636Z" fill="white"/>
<path d="M298.273 71.3636H288.818V80.8182H298.273V71.3636Z" fill="white"/>
<path d="M317.182 71.3636H307.727V80.8182H317.182V71.3636Z" fill="white"/>
<path d="M326.636 71.3636H317.182V80.8182H326.636V71.3636Z" fill="white"/>
<path d="M336.091 71.3636H326.636V80.8182H336.091V71.3636Z" fill="white"/>
<path d="M355 71.3636H345.545V80.8182H355V71.3636Z" fill="white"/>
<path d="M52.4545 80.8181H43V90.2727H52.4545V80.8181Z" fill="white"/>
<path d="M71.3637 80.8181H61.9092V90.2727H71.3637V80.8181Z" fill="white"/>
<path d="M80.8183 80.8181H71.3638V90.2727H80.8183V80.8181Z" fill="white"/>
<path d="M90.2729 80.8181H80.8184V90.2727H90.2729V80.8181Z" fill="white"/>
<path d="M109.182 80.8181H99.7271V90.2727H109.182V80.8181Z" fill="white"/>
<path d="M128.091 80.8181H118.636V90.2727H128.091V80.8181Z" fill="white"/>
<path d="M137.545 80.8181H128.091V90.2727H137.545V80.8181Z" fill="white"/>
<path d="M156.455 80.8181H147V90.2727H156.455V80.8181Z" fill="white"/>
<path d="M175.364 80.8181H165.909V90.2727H175.364V80.8181Z" fill="white"/>
<path d="M194.273 80.8181H184.818V90.2727H194.273V80.8181Z" fill="white"/>
<path d="M203.727 80.8181H194.273V90.2727H203.727V80.8181Z" fill="white"/>
<path d="M222.636 80.8181H213.182V90.2727H222.636V80.8181Z" fill="white"/>
<path d="M241.545 80.8181H232.091V90.2727H241.545V80.8181Z" fill="white"/>
<path d="M260.455 80.8181H251V90.2727H260.455V80.8181Z" fill="white"/>
<path d="M269.909 80.8181H260.455V90.2727H269.909V80.8181Z" fill="white"/>
<path d="M279.364 80.8181H269.909V90.2727H279.364V80.8181Z" fill="white"/>
<path d="M298.273 80.8181H288.818V90.2727H298.273V80.8181Z" fill="white"/>
<path d="M317.182 80.8181H307.727V90.2727H317.182V80.8181Z" fill="white"/>
<path d="M326.636 80.8181H317.182V90.2727H326.636V80.8181Z" fill="white"/>
<path d="M336.091 80.8181H326.636V90.2727H336.091V80.8181Z" fill="white"/>
<path d="M355 80.8181H345.545V90.2727H355V80.8181Z" fill="white"/>
<path d="M52.4545 90.2727H43V99.7273H52.4545V90.2727Z" fill="white"/>
<path d="M109.182 90.2727H99.7271V99.7273H109.182V90.2727Z" fill="white"/>
<path d="M165.909 90.2727H156.455V99.7273H165.909V90.2727Z" fill="white"/>
<path d="M175.364 90.2727H165.909V99.7273H175.364V90.2727Z" fill="white"/>
<path d="M203.727 90.2727H194.273V99.7273H203.727V90.2727Z" fill="white"/>
<path d="M213.182 90.2727H203.727V99.7273H213.182V90.2727Z" fill="white"/>
<path d="M222.636 90.2727H213.182V99.7273H222.636V90.2727Z" fill="white"/>
<path d="M241.545 90.2727H232.091V99.7273H241.545V90.2727Z" fill="white"/>
<path d="M251 90.2727H241.545V99.7273H251V90.2727Z" fill="white"/>
<path d="M269.909 90.2727H260.455V99.7273H269.909V90.2727Z" fill="white"/>
<path d="M298.273 90.2727H288.818V99.7273H298.273V90.2727Z" fill="white"/>
<path d="M355 90.2727H345.545V99.7273H355V90.2727Z" fill="white"/>
<path d="M52.4545 99.7273H43V109.182H52.4545V99.7273Z" fill="white"/>
<path d="M61.9091 99.7273H52.4546V109.182H61.9091V99.7273Z" fill="white"/>
<path d="M71.3637 99.7273H61.9092V109.182H71.3637V99.7273Z" fill="white"/>
<path d="M80.8183 99.7273H71.3638V109.182H80.8183V99.7273Z" fill="white"/>
<path d="M90.2729 99.7273H80.8184V109.182H90.2729V99.7273Z" fill="white"/>
<path d="M99.7275 99.7273H90.2729V109.182H99.7275V99.7273Z" fill="white"/>
<path d="M109.182 99.7273H99.7271V109.182H109.182V99.7273Z" fill="white"/>
<path d="M128.091 99.7273H118.636V109.182H128.091V99.7273Z" fill="white"/>
<path d="M147 99.7273H137.545V109.182H147V99.7273Z" fill="white"/>
<path d="M165.909 99.7273H156.455V109.182H165.909V99.7273Z" fill="white"/>
<path d="M184.818 99.7273H175.364V109.182H184.818V99.7273Z" fill="white"/>
<path d="M203.727 99.7273H194.273V109.182H203.727V99.7273Z" fill="white"/>
<path d="M222.636 99.7273H213.182V109.182H222.636V99.7273Z" fill="white"/>
<path d="M241.545 99.7273H232.091V109.182H241.545V99.7273Z" fill="white"/>
<path d="M260.455 99.7273H251V109.182H260.455V99.7273Z" fill="white"/>
<path d="M279.364 99.7273H269.909V109.182H279.364V99.7273Z" fill="white"/>
<path d="M298.273 99.7273H288.818V109.182H298.273V99.7273Z" fill="white"/>
<path d="M307.727 99.7273H298.273V109.182H307.727V99.7273Z" fill="white"/>
<path d="M317.182 99.7273H307.727V109.182H317.182V99.7273Z" fill="white"/>
<path d="M326.636 99.7273H317.182V109.182H326.636V99.7273Z" fill="white"/>
<path d="M336.091 99.7273H326.636V109.182H336.091V99.7273Z" fill="white"/>
<path d="M345.545 99.7273H336.091V109.182H345.545V99.7273Z" fill="white"/>
<path d="M355 99.7273H345.545V109.182H355V99.7273Z" fill="white"/>
<path d="M128.091 109.182H118.636V118.636H128.091V109.182Z" fill="white"/>
<path d="M137.545 109.182H128.091V118.636H137.545V109.182Z" fill="white"/>
<path d="M165.909 109.182H156.455V118.636H165.909V109.182Z" fill="white"/>
<path d="M194.273 109.182H184.818V118.636H194.273V109.182Z" fill="white"/>
<path d="M213.182 109.182H203.727V118.636H213.182V109.182Z" fill="white"/>
<path d="M222.636 109.182H213.182V118.636H222.636V109.182Z" fill="white"/>
<path d="M232.091 109.182H222.636V118.636H232.091V109.182Z" fill="white"/>
<path d="M251 109.182H241.545V118.636H251V109.182Z" fill="white"/>
<path d="M279.364 109.182H269.909V118.636H279.364V109.182Z" fill="white"/>
<path d="M71.3637 118.636H61.9092V128.091H71.3637V118.636Z" fill="white"/>
<path d="M80.8183 118.636H71.3638V128.091H80.8183V118.636Z" fill="white"/>
<path d="M109.182 118.636H99.7271V128.091H109.182V118.636Z" fill="white"/>
<path d="M118.636 118.636H109.182V128.091H118.636V118.636Z" fill="white"/>
<path d="M128.091 118.636H118.636V128.091H128.091V118.636Z" fill="white"/>
<path d="M156.455 118.636H147V128.091H156.455V118.636Z" fill="white"/>
<path d="M165.909 118.636H156.455V128.091H165.909V118.636Z" fill="white"/>
<path d="M175.364 118.636H165.909V128.091H175.364V118.636Z" fill="white"/>
<path d="M184.818 118.636H175.364V128.091H184.818V118.636Z" fill="white"/>
<path d="M232.091 118.636H222.636V128.091H232.091V118.636Z" fill="white"/>
<path d="M260.455 118.636H251V128.091H260.455V118.636Z" fill="white"/>
<path d="M269.909 118.636H260.455V128.091H269.909V118.636Z" fill="white"/>
<path d="M279.364 118.636H269.909V128.091H279.364V118.636Z" fill="white"/>
<path d="M288.818 118.636H279.364V128.091H288.818V118.636Z" fill="white"/>
<path d="M298.273 118.636H288.818V128.091H298.273V118.636Z" fill="white"/>
<path d="M317.182 118.636H307.727V128.091H317.182V118.636Z" fill="white"/>
<path d="M90.2729 128.091H80.8184V137.545H90.2729V128.091Z" fill="white"/>
<path d="M118.636 128.091H109.182V137.545H118.636V128.091Z" fill="white"/>
<path d="M156.455 128.091H147V137.545H156.455V128.091Z" fill="white"/>
<path d="M165.909 128.091H156.455V137.545H165.909V128.091Z" fill="white"/>
<path d="M175.364 128.091H165.909V137.545H175.364V128.091Z" fill="white"/>
<path d="M194.273 128.091H184.818V137.545H194.273V128.091Z" fill="white"/>
<path d="M203.727 128.091H194.273V137.545H203.727V128.091Z" fill="white"/>
<path d="M213.182 128.091H203.727V137.545H213.182V128.091Z" fill="white"/>
<path d="M251 128.091H241.545V137.545H251V128.091Z" fill="white"/>
<path d="M260.455 128.091H251V137.545H260.455V128.091Z" fill="white"/>
<path d="M326.636 128.091H317.182V137.545H326.636V128.091Z" fill="white"/>
<path d="M336.091 128.091H326.636V137.545H336.091V128.091Z" fill="white"/>
<path d="M345.545 128.091H336.091V137.545H345.545V128.091Z" fill="white"/>
<path d="M355 128.091H345.545V137.545H355V128.091Z" fill="white"/>
<path d="M52.4545 137.545H43V147H52.4545V137.545Z" fill="white"/>
<path d="M80.8183 137.545H71.3638V147H80.8183V137.545Z" fill="white"/>
<path d="M90.2729 137.545H80.8184V147H90.2729V137.545Z" fill="white"/>
<path d="M99.7275 137.545H90.2729V147H99.7275V137.545Z" fill="white"/>
<path d="M109.182 137.545H99.7271V147H109.182V137.545Z" fill="white"/>
<path d="M128.091 137.545H118.636V147H128.091V137.545Z" fill="white"/>
<path d="M147 137.545H137.545V147H147V137.545Z" fill="white"/>
<path d="M156.455 137.545H147V147H156.455V137.545Z" fill="white"/>
<path d="M213.182 137.545H203.727V147H213.182V137.545Z" fill="white"/>
<path d="M288.818 137.545H279.364V147H288.818V137.545Z" fill="white"/>
<path d="M298.273 137.545H288.818V147H298.273V137.545Z" fill="white"/>
<path d="M307.727 137.545H298.273V147H307.727V137.545Z" fill="white"/>
<path d="M317.182 137.545H307.727V147H317.182V137.545Z" fill="white"/>
<path d="M326.636 137.545H317.182V147H326.636V137.545Z" fill="white"/>
<path d="M336.091 137.545H326.636V147H336.091V137.545Z" fill="white"/>
<path d="M345.545 137.545H336.091V147H345.545V137.545Z" fill="white"/>
<path d="M52.4545 147H43V156.455H52.4545V147Z" fill="white"/>
<path d="M61.9091 147H52.4546V156.455H61.9091V147Z" fill="white"/>
<path d="M71.3637 147H61.9092V156.455H71.3637V147Z" fill="white"/>
<path d="M80.8183 147H71.3638V156.455H80.8183V147Z" fill="white"/>
<path d="M90.2729 147H80.8184V156.455H90.2729V147Z" fill="white"/>
<path d="M99.7275 147H90.2729V156.455H99.7275V147Z" fill="white"/>
<path d="M118.636 147H109.182V156.455H118.636V147Z" fill="white"/>
<path d="M156.455 147H147V156.455H156.455V147Z" fill="white"/>
<path d="M165.909 147H156.455V156.455H165.909V147Z" fill="white"/>
<path d="M184.818 147H175.364V156.455H184.818V147Z" fill="white"/>
<path d="M194.273 147H184.818V156.455H194.273V147Z" fill="white"/>
<path d="M269.909 147H260.455V156.455H269.909V147Z" fill="white"/>
<path d="M279.364 147H269.909V156.455H279.364V147Z" fill="white"/>
<path d="M288.818 147H279.364V156.455H288.818V147Z" fill="white"/>
<path d="M298.273 147H288.818V156.455H298.273V147Z" fill="white"/>
<path d="M307.727 147H298.273V156.455H307.727V147Z" fill="white"/>
<path d="M317.182 147H307.727V156.455H317.182V147Z" fill="white"/>
<path d="M326.636 147H317.182V156.455H326.636V147Z" fill="white"/>
<path d="M336.091 147H326.636V156.455H336.091V147Z" fill="white"/>
<path d="M345.545 147H336.091V156.455H345.545V147Z" fill="white"/>
<path d="M355 147H345.545V156.455H355V147Z" fill="white"/>
<path d="M61.9091 156.454H52.4546V165.909H61.9091V156.454Z" fill="white"/>
<path d="M99.7275 156.454H90.2729V165.909H99.7275V156.454Z" fill="white"/>
<path d="M109.182 156.454H99.7271V165.909H109.182V156.454Z" fill="white"/>
<path d="M118.636 156.454H109.182V165.909H118.636V156.454Z" fill="white"/>
<path d="M128.091 156.454H118.636V165.909H128.091V156.454Z" fill="white"/>
<path d="M137.545 156.454H128.091V165.909H137.545V156.454Z" fill="white"/>
<path d="M175.364 156.454H165.909V165.909H175.364V156.454Z" fill="white"/>
<path d="M184.818 156.454H175.364V165.909H184.818V156.454Z" fill="white"/>
<path d="M203.727 156.454H194.273V165.909H203.727V156.454Z" fill="white"/>
<path d="M213.182 156.454H203.727V165.909H213.182V156.454Z" fill="white"/>
<path d="M222.636 156.454H213.182V165.909H222.636V156.454Z" fill="white"/>
<path d="M232.091 156.454H222.636V165.909H232.091V156.454Z" fill="white"/>
<path d="M241.545 156.454H232.091V165.909H241.545V156.454Z" fill="white"/>
<path d="M251 156.454H241.545V165.909H251V156.454Z" fill="white"/>
<path d="M288.818 156.454H279.364V165.909H288.818V156.454Z" fill="white"/>
<path d="M298.273 156.454H288.818V165.909H298.273V156.454Z" fill="white"/>
<path d="M317.182 156.454H307.727V165.909H317.182V156.454Z" fill="white"/>
<path d="M128.091 165.909H118.636V175.364H128.091V165.909Z" fill="white"/>
<path d="M156.455 165.909H147V175.364H156.455V165.909Z" fill="white"/>
<path d="M175.364 165.909H165.909V175.364H175.364V165.909Z" fill="white"/>
<path d="M184.818 165.909H175.364V175.364H184.818V165.909Z" fill="white"/>
<path d="M203.727 165.909H194.273V175.364H203.727V165.909Z" fill="white"/>
<path d="M213.182 165.909H203.727V175.364H213.182V165.909Z" fill="white"/>
<path d="M222.636 165.909H213.182V175.364H222.636V165.909Z" fill="white"/>
<path d="M241.545 165.909H232.091V175.364H241.545V165.909Z" fill="white"/>
<path d="M260.455 165.909H251V175.364H260.455V165.909Z" fill="white"/>
<path d="M279.364 165.909H269.909V175.364H279.364V165.909Z" fill="white"/>
<path d="M288.818 165.909H279.364V175.364H288.818V165.909Z" fill="white"/>
<path d="M298.273 165.909H288.818V175.364H298.273V165.909Z" fill="white"/>
<path d="M307.727 165.909H298.273V175.364H307.727V165.909Z" fill="white"/>
<path d="M317.182 165.909H307.727V175.364H317.182V165.909Z" fill="white"/>
<path d="M355 165.909H345.545V175.364H355V165.909Z" fill="white"/>
<path d="M52.4545 175.364H43V184.818H52.4545V175.364Z" fill="white"/>
<path d="M61.9091 175.364H52.4546V184.818H61.9091V175.364Z" fill="white"/>
<path d="M99.7275 175.364H90.2729V184.818H99.7275V175.364Z" fill="white"/>
<path d="M109.182 175.364H99.7271V184.818H109.182V175.364Z" fill="white"/>
<path d="M118.636 175.364H109.182V184.818H118.636V175.364Z" fill="white"/>
<path d="M128.091 175.364H118.636V184.818H128.091V175.364Z" fill="white"/>
<path d="M147 175.364H137.545V184.818H147V175.364Z" fill="white"/>
<path d="M194.273 175.364H184.818V184.818H194.273V175.364Z" fill="white"/>
<path d="M232.091 175.364H222.636V184.818H232.091V175.364Z" fill="white"/>
<path d="M251 175.364H241.545V184.818H251V175.364Z" fill="white"/>
<path d="M260.455 175.364H251V184.818H260.455V175.364Z" fill="white"/>
<path d="M269.909 175.364H260.455V184.818H269.909V175.364Z" fill="white"/>
<path d="M326.636 175.364H317.182V184.818H326.636V175.364Z" fill="white"/>
<path d="M52.4545 184.818H43V194.273H52.4545V184.818Z" fill="white"/>
<path d="M71.3637 184.818H61.9092V194.273H71.3637V184.818Z" fill="white"/>
<path d="M80.8183 184.818H71.3638V194.273H80.8183V184.818Z" fill="white"/>
<path d="M156.455 184.818H147V194.273H156.455V184.818Z" fill="white"/>
<path d="M184.818 184.818H175.364V194.273H184.818V184.818Z" fill="white"/>
<path d="M194.273 184.818H184.818V194.273H194.273V184.818Z" fill="white"/>
<path d="M203.727 184.818H194.273V194.273H203.727V184.818Z" fill="white"/>
<path d="M222.636 184.818H213.182V194.273H222.636V184.818Z" fill="white"/>
<path d="M232.091 184.818H222.636V194.273H232.091V184.818Z" fill="white"/>
<path d="M260.455 184.818H251V194.273H260.455V184.818Z" fill="white"/>
<path d="M269.909 184.818H260.455V194.273H269.909V184.818Z" fill="white"/>
<path d="M279.364 184.818H269.909V194.273H279.364V184.818Z" fill="white"/>
<path d="M298.273 184.818H288.818V194.273H298.273V184.818Z" fill="white"/>
<path d="M326.636 184.818H317.182V194.273H326.636V184.818Z" fill="white"/>
<path d="M355 184.818H345.545V194.273H355V184.818Z" fill="white"/>
<path d="M52.4545 194.273H43V203.727H52.4545V194.273Z" fill="white"/>
<path d="M80.8183 194.273H71.3638V203.727H80.8183V194.273Z" fill="white"/>
<path d="M90.2729 194.273H80.8184V203.727H90.2729V194.273Z" fill="white"/>
<path d="M109.182 194.273H99.7271V203.727H109.182V194.273Z" fill="white"/>
<path d="M118.636 194.273H109.182V203.727H118.636V194.273Z" fill="white"/>
<path d="M137.545 194.273H128.091V203.727H137.545V194.273Z" fill="white"/>
<path d="M147 194.273H137.545V203.727H147V194.273Z" fill="white"/>
<path d="M165.909 194.273H156.455V203.727H165.909V194.273Z" fill="white"/>
<path d="M213.182 194.273H203.727V203.727H213.182V194.273Z" fill="white"/>
<path d="M222.636 194.273H213.182V203.727H222.636V194.273Z" fill="white"/>
<path d="M232.091 194.273H222.636V203.727H232.091V194.273Z" fill="white"/>
<path d="M251 194.273H241.545V203.727H251V194.273Z" fill="white"/>
<path d="M269.909 194.273H260.455V203.727H269.909V194.273Z" fill="white"/>
<path d="M298.273 194.273H288.818V203.727H298.273V194.273Z" fill="white"/>
<path d="M317.182 194.273H307.727V203.727H317.182V194.273Z" fill="white"/>
<path d="M336.091 194.273H326.636V203.727H336.091V194.273Z" fill="white"/>
<path d="M52.4545 203.727H43V213.182H52.4545V203.727Z" fill="white"/>
<path d="M90.2729 203.727H80.8184V213.182H90.2729V203.727Z" fill="white"/>
<path d="M118.636 203.727H109.182V213.182H118.636V203.727Z" fill="white"/>
<path d="M128.091 203.727H118.636V213.182H128.091V203.727Z" fill="white"/>
<path d="M137.545 203.727H128.091V213.182H137.545V203.727Z" fill="white"/>
<path d="M147 203.727H137.545V213.182H147V203.727Z" fill="white"/>
<path d="M165.909 203.727H156.455V213.182H165.909V203.727Z" fill="white"/>
<path d="M175.364 203.727H165.909V213.182H175.364V203.727Z" fill="white"/>
<path d="M184.818 203.727H175.364V213.182H184.818V203.727Z" fill="white"/>
<path d="M203.727 203.727H194.273V213.182H203.727V203.727Z" fill="white"/>
<path d="M241.545 203.727H232.091V213.182H241.545V203.727Z" fill="white"/>
<path d="M260.455 203.727H251V213.182H260.455V203.727Z" fill="white"/>
<path d="M307.727 203.727H298.273V213.182H307.727V203.727Z" fill="white"/>
<path d="M317.182 203.727H307.727V213.182H317.182V203.727Z" fill="white"/>
<path d="M355 203.727H345.545V213.182H355V203.727Z" fill="white"/>
<path d="M80.8183 213.182H71.3638V222.636H80.8183V213.182Z" fill="white"/>
<path d="M90.2729 213.182H80.8184V222.636H90.2729V213.182Z" fill="white"/>
<path d="M109.182 213.182H99.7271V222.636H109.182V213.182Z" fill="white"/>
<path d="M118.636 213.182H109.182V222.636H118.636V213.182Z" fill="white"/>
<path d="M137.545 213.182H128.091V222.636H137.545V213.182Z" fill="white"/>
<path d="M147 213.182H137.545V222.636H147V213.182Z" fill="white"/>
<path d="M165.909 213.182H156.455V222.636H165.909V213.182Z" fill="white"/>
<path d="M175.364 213.182H165.909V222.636H175.364V213.182Z" fill="white"/>
<path d="M184.818 213.182H175.364V222.636H184.818V213.182Z" fill="white"/>
<path d="M194.273 213.182H184.818V222.636H194.273V213.182Z" fill="white"/>
<path d="M203.727 213.182H194.273V222.636H203.727V213.182Z" fill="white"/>
<path d="M213.182 213.182H203.727V222.636H213.182V213.182Z" fill="white"/>
<path d="M222.636 213.182H213.182V222.636H222.636V213.182Z" fill="white"/>
<path d="M232.091 213.182H222.636V222.636H232.091V213.182Z" fill="white"/>
<path d="M241.545 213.182H232.091V222.636H241.545V213.182Z" fill="white"/>
<path d="M260.455 213.182H251V222.636H260.455V213.182Z" fill="white"/>
<path d="M288.818 213.182H279.364V222.636H288.818V213.182Z" fill="white"/>
<path d="M307.727 213.182H298.273V222.636H307.727V213.182Z" fill="white"/>
<path d="M326.636 213.182H317.182V222.636H326.636V213.182Z" fill="white"/>
<path d="M336.091 213.182H326.636V222.636H336.091V213.182Z" fill="white"/>
<path d="M345.545 213.182H336.091V222.636H345.545V213.182Z" fill="white"/>
<path d="M52.4545 222.636H43V232.091H52.4545V222.636Z" fill="white"/>
<path d="M61.9091 222.636H52.4546V232.091H61.9091V222.636Z" fill="white"/>
<path d="M99.7275 222.636H90.2729V232.091H99.7275V222.636Z" fill="white"/>
<path d="M137.545 222.636H128.091V232.091H137.545V222.636Z" fill="white"/>
<path d="M165.909 222.636H156.455V232.091H165.909V222.636Z" fill="white"/>
<path d="M175.364 222.636H165.909V232.091H175.364V222.636Z" fill="white"/>
<path d="M194.273 222.636H184.818V232.091H194.273V222.636Z" fill="white"/>
<path d="M213.182 222.636H203.727V232.091H213.182V222.636Z" fill="white"/>
<path d="M232.091 222.636H222.636V232.091H232.091V222.636Z" fill="white"/>
<path d="M241.545 222.636H232.091V232.091H241.545V222.636Z" fill="white"/>
<path d="M251 222.636H241.545V232.091H251V222.636Z" fill="white"/>
<path d="M279.364 222.636H269.909V232.091H279.364V222.636Z" fill="white"/>
<path d="M288.818 222.636H279.364V232.091H288.818V222.636Z" fill="white"/>
<path d="M307.727 222.636H298.273V232.091H307.727V222.636Z" fill="white"/>
<path d="M336.091 222.636H326.636V232.091H336.091V222.636Z" fill="white"/>
<path d="M52.4545 232.091H43V241.545H52.4545V232.091Z" fill="white"/>
<path d="M80.8183 232.091H71.3638V241.545H80.8183V232.091Z" fill="white"/>
<path d="M99.7275 232.091H90.2729V241.545H99.7275V232.091Z" fill="white"/>
<path d="M109.182 232.091H99.7271V241.545H109.182V232.091Z" fill="white"/>
<path d="M118.636 232.091H109.182V241.545H118.636V232.091Z" fill="white"/>
<path d="M147 232.091H137.545V241.545H147V232.091Z" fill="white"/>
<path d="M156.455 232.091H147V241.545H156.455V232.091Z" fill="white"/>
<path d="M175.364 232.091H165.909V241.545H175.364V232.091Z" fill="white"/>
<path d="M184.818 232.091H175.364V241.545H184.818V232.091Z" fill="white"/>
<path d="M203.727 232.091H194.273V241.545H203.727V232.091Z" fill="white"/>
<path d="M213.182 232.091H203.727V241.545H213.182V232.091Z" fill="white"/>
<path d="M222.636 232.091H213.182V241.545H222.636V232.091Z" fill="white"/>
<path d="M232.091 232.091H222.636V241.545H232.091V232.091Z" fill="white"/>
<path d="M251 232.091H241.545V241.545H251V232.091Z" fill="white"/>
<path d="M326.636 232.091H317.182V241.545H326.636V232.091Z" fill="white"/>
<path d="M52.4545 241.546H43V251H52.4545V241.546Z" fill="white"/>
<path d="M71.3637 241.546H61.9092V251H71.3637V241.546Z" fill="white"/>
<path d="M118.636 241.546H109.182V251H118.636V241.546Z" fill="white"/>
<path d="M128.091 241.546H118.636V251H128.091V241.546Z" fill="white"/>
<path d="M147 241.546H137.545V251H147V241.546Z" fill="white"/>
<path d="M175.364 241.546H165.909V251H175.364V241.546Z" fill="white"/>
<path d="M203.727 241.546H194.273V251H203.727V241.546Z" fill="white"/>
<path d="M222.636 241.546H213.182V251H222.636V241.546Z" fill="white"/>
<path d="M241.545 241.546H232.091V251H241.545V241.546Z" fill="white"/>
<path d="M251 241.546H241.545V251H251V241.546Z" fill="white"/>
<path d="M260.455 241.546H251V251H260.455V241.546Z" fill="white"/>
<path d="M279.364 241.546H269.909V251H279.364V241.546Z" fill="white"/>
<path d="M317.182 241.546H307.727V251H317.182V241.546Z" fill="white"/>
<path d="M326.636 241.546H317.182V251H326.636V241.546Z" fill="white"/>
<path d="M336.091 241.546H326.636V251H336.091V241.546Z" fill="white"/>
<path d="M345.545 241.546H336.091V251H345.545V241.546Z" fill="white"/>
<path d="M71.3637 251H61.9092V260.455H71.3637V251Z" fill="white"/>
<path d="M90.2729 251H80.8184V260.455H90.2729V251Z" fill="white"/>
<path d="M99.7275 251H90.2729V260.455H99.7275V251Z" fill="white"/>
<path d="M109.182 251H99.7271V260.455H109.182V251Z" fill="white"/>
<path d="M118.636 251H109.182V260.455H118.636V251Z" fill="white"/>
<path d="M147 251H137.545V260.455H147V251Z" fill="white"/>
<path d="M156.455 251H147V260.455H156.455V251Z" fill="white"/>
<path d="M165.909 251H156.455V260.455H165.909V251Z" fill="white"/>
<path d="M175.364 251H165.909V260.455H175.364V251Z" fill="white"/>
<path d="M194.273 251H184.818V260.455H194.273V251Z" fill="white"/>
<path d="M203.727 251H194.273V260.455H203.727V251Z" fill="white"/>
<path d="M222.636 251H213.182V260.455H222.636V251Z" fill="white"/>
<path d="M251 251H241.545V260.455H251V251Z" fill="white"/>
<path d="M260.455 251H251V260.455H260.455V251Z" fill="white"/>
<path d="M269.909 251H260.455V260.455H269.909V251Z" fill="white"/>
<path d="M288.818 251H279.364V260.455H288.818V251Z" fill="white"/>
<path d="M298.273 251H288.818V260.455H298.273V251Z" fill="white"/>
<path d="M317.182 251H307.727V260.455H317.182V251Z" fill="white"/>
<path d="M336.091 251H326.636V260.455H336.091V251Z" fill="white"/>
<path d="M61.9091 260.455H52.4546V269.909H61.9091V260.455Z" fill="white"/>
<path d="M71.3637 260.455H61.9092V269.909H71.3637V260.455Z" fill="white"/>
<path d="M90.2729 260.455H80.8184V269.909H90.2729V260.455Z" fill="white"/>
<path d="M128.091 260.455H118.636V269.909H128.091V260.455Z" fill="white"/>
<path d="M175.364 260.455H165.909V269.909H175.364V260.455Z" fill="white"/>
<path d="M184.818 260.455H175.364V269.909H184.818V260.455Z" fill="white"/>
<path d="M194.273 260.455H184.818V269.909H194.273V260.455Z" fill="white"/>
<path d="M203.727 260.455H194.273V269.909H203.727V260.455Z" fill="white"/>
<path d="M213.182 260.455H203.727V269.909H213.182V260.455Z" fill="white"/>
<path d="M222.636 260.455H213.182V269.909H222.636V260.455Z" fill="white"/>
<path d="M241.545 260.455H232.091V269.909H241.545V260.455Z" fill="white"/>
<path d="M251 260.455H241.545V269.909H251V260.455Z" fill="white"/>
<path d="M260.455 260.455H251V269.909H260.455V260.455Z" fill="white"/>
<path d="M298.273 260.455H288.818V269.909H298.273V260.455Z" fill="white"/>
<path d="M317.182 260.455H307.727V269.909H317.182V260.455Z" fill="white"/>
<path d="M326.636 260.455H317.182V269.909H326.636V260.455Z" fill="white"/>
<path d="M345.545 260.455H336.091V269.909H345.545V260.455Z" fill="white"/>
<path d="M355 260.455H345.545V269.909H355V260.455Z" fill="white"/>
<path d="M52.4545 269.909H43V279.364H52.4545V269.909Z" fill="white"/>
<path d="M80.8183 269.909H71.3638V279.364H80.8183V269.909Z" fill="white"/>
<path d="M99.7275 269.909H90.2729V279.364H99.7275V269.909Z" fill="white"/>
<path d="M109.182 269.909H99.7271V279.364H109.182V269.909Z" fill="white"/>
<path d="M128.091 269.909H118.636V279.364H128.091V269.909Z" fill="white"/>
<path d="M137.545 269.909H128.091V279.364H137.545V269.909Z" fill="white"/>
<path d="M175.364 269.909H165.909V279.364H175.364V269.909Z" fill="white"/>
<path d="M194.273 269.909H184.818V279.364H194.273V269.909Z" fill="white"/>
<path d="M213.182 269.909H203.727V279.364H213.182V269.909Z" fill="white"/>
<path d="M222.636 269.909H213.182V279.364H222.636V269.909Z" fill="white"/>
<path d="M241.545 269.909H232.091V279.364H241.545V269.909Z" fill="white"/>
<path d="M260.455 269.909H251V279.364H260.455V269.909Z" fill="white"/>
<path d="M279.364 269.909H269.909V279.364H279.364V269.909Z" fill="white"/>
<path d="M288.818 269.909H279.364V279.364H288.818V269.909Z" fill="white"/>
<path d="M298.273 269.909H288.818V279.364H298.273V269.909Z" fill="white"/>
<path d="M307.727 269.909H298.273V279.364H307.727V269.909Z" fill="white"/>
<path d="M317.182 269.909H307.727V279.364H317.182V269.909Z" fill="white"/>
<path d="M336.091 269.909H326.636V279.364H336.091V269.909Z" fill="white"/>
<path d="M345.545 269.909H336.091V279.364H345.545V269.909Z" fill="white"/>
<path d="M128.091 279.364H118.636V288.818H128.091V279.364Z" fill="white"/>
<path d="M137.545 279.364H128.091V288.818H137.545V279.364Z" fill="white"/>
<path d="M156.455 279.364H147V288.818H156.455V279.364Z" fill="white"/>
<path d="M175.364 279.364H165.909V288.818H175.364V279.364Z" fill="white"/>
<path d="M184.818 279.364H175.364V288.818H184.818V279.364Z" fill="white"/>
<path d="M222.636 279.364H213.182V288.818H222.636V279.364Z" fill="white"/>
<path d="M241.545 279.364H232.091V288.818H241.545V279.364Z" fill="white"/>
<path d="M251 279.364H241.545V288.818H251V279.364Z" fill="white"/>
<path d="M269.909 279.364H260.455V288.818H269.909V279.364Z" fill="white"/>
<path d="M279.364 279.364H269.909V288.818H279.364V279.364Z" fill="white"/>
<path d="M317.182 279.364H307.727V288.818H317.182V279.364Z" fill="white"/>
<path d="M345.545 279.364H336.091V288.818H345.545V279.364Z" fill="white"/>
<path d="M52.4545 288.818H43V298.273H52.4545V288.818Z" fill="white"/>
<path d="M61.9091 288.818H52.4546V298.273H61.9091V288.818Z" fill="white"/>
<path d="M71.3637 288.818H61.9092V298.273H71.3637V288.818Z" fill="white"/>
<path d="M80.8183 288.818H71.3638V298.273H80.8183V288.818Z" fill="white"/>
<path d="M90.2729 288.818H80.8184V298.273H90.2729V288.818Z" fill="white"/>
<path d="M99.7275 288.818H90.2729V298.273H99.7275V288.818Z" fill="white"/>
<path d="M109.182 288.818H99.7271V298.273H109.182V288.818Z" fill="white"/>
<path d="M128.091 288.818H118.636V298.273H128.091V288.818Z" fill="white"/>
<path d="M147 288.818H137.545V298.273H147V288.818Z" fill="white"/>
<path d="M165.909 288.818H156.455V298.273H165.909V288.818Z" fill="white"/>
<path d="M184.818 288.818H175.364V298.273H184.818V288.818Z" fill="white"/>
<path d="M213.182 288.818H203.727V298.273H213.182V288.818Z" fill="white"/>
<path d="M222.636 288.818H213.182V298.273H222.636V288.818Z" fill="white"/>
<path d="M251 288.818H241.545V298.273H251V288.818Z" fill="white"/>
<path d="M269.909 288.818H260.455V298.273H269.909V288.818Z" fill="white"/>
<path d="M279.364 288.818H269.909V298.273H279.364V288.818Z" fill="white"/>
<path d="M298.273 288.818H288.818V298.273H298.273V288.818Z" fill="white"/>
<path d="M317.182 288.818H307.727V298.273H317.182V288.818Z" fill="white"/>
<path d="M326.636 288.818H317.182V298.273H326.636V288.818Z" fill="white"/>
<path d="M355 288.818H345.545V298.273H355V288.818Z" fill="white"/>
<path d="M52.4545 298.273H43V307.727H52.4545V298.273Z" fill="white"/>
<path d="M109.182 298.273H99.7271V307.727H109.182V298.273Z" fill="white"/>
<path d="M137.545 298.273H128.091V307.727H137.545V298.273Z" fill="white"/>
<path d="M147 298.273H137.545V307.727H147V298.273Z" fill="white"/>
<path d="M175.364 298.273H165.909V307.727H175.364V298.273Z" fill="white"/>
<path d="M203.727 298.273H194.273V307.727H203.727V298.273Z" fill="white"/>
<path d="M213.182 298.273H203.727V307.727H213.182V298.273Z" fill="white"/>
<path d="M232.091 298.273H222.636V307.727H232.091V298.273Z" fill="white"/>
<path d="M279.364 298.273H269.909V307.727H279.364V298.273Z" fill="white"/>
<path d="M317.182 298.273H307.727V307.727H317.182V298.273Z" fill="white"/>
<path d="M326.636 298.273H317.182V307.727H326.636V298.273Z" fill="white"/>
<path d="M355 298.273H345.545V307.727H355V298.273Z" fill="white"/>
<path d="M52.4545 307.727H43V317.182H52.4545V307.727Z" fill="white"/>
<path d="M71.3637 307.727H61.9092V317.182H71.3637V307.727Z" fill="white"/>
<path d="M80.8183 307.727H71.3638V317.182H80.8183V307.727Z" fill="white"/>
<path d="M90.2729 307.727H80.8184V317.182H90.2729V307.727Z" fill="white"/>
<path d="M109.182 307.727H99.7271V317.182H109.182V307.727Z" fill="white"/>
<path d="M137.545 307.727H128.091V317.182H137.545V307.727Z" fill="white"/>
<path d="M184.818 307.727H175.364V317.182H184.818V307.727Z" fill="white"/>
<path d="M194.273 307.727H184.818V317.182H194.273V307.727Z" fill="white"/>
<path d="M213.182 307.727H203.727V317.182H213.182V307.727Z" fill="white"/>
<path d="M222.636 307.727H213.182V317.182H222.636V307.727Z" fill="white"/>
<path d="M232.091 307.727H222.636V317.182H232.091V307.727Z" fill="white"/>
<path d="M260.455 307.727H251V317.182H260.455V307.727Z" fill="white"/>
<path d="M269.909 307.727H260.455V317.182H269.909V307.727Z" fill="white"/>
<path d="M279.364 307.727H269.909V317.182H279.364V307.727Z" fill="white"/>
<path d="M288.818 307.727H279.364V317.182H288.818V307.727Z" fill="white"/>
<path d="M298.273 307.727H288.818V317.182H298.273V307.727Z" fill="white"/>
<path d="M307.727 307.727H298.273V317.182H307.727V307.727Z" fill="white"/>
<path d="M317.182 307.727H307.727V317.182H317.182V307.727Z" fill="white"/>
<path d="M336.091 307.727H326.636V317.182H336.091V307.727Z" fill="white"/>
<path d="M355 307.727H345.545V317.182H355V307.727Z" fill="white"/>
<path d="M52.4545 317.182H43V326.636H52.4545V317.182Z" fill="white"/>
<path d="M71.3637 317.182H61.9092V326.636H71.3637V317.182Z" fill="white"/>
<path d="M80.8183 317.182H71.3638V326.636H80.8183V317.182Z" fill="white"/>
<path d="M90.2729 317.182H80.8184V326.636H90.2729V317.182Z" fill="white"/>
<path d="M109.182 317.182H99.7271V326.636H109.182V317.182Z" fill="white"/>
<path d="M128.091 317.182H118.636V326.636H128.091V317.182Z" fill="white"/>
<path d="M184.818 317.182H175.364V326.636H184.818V317.182Z" fill="white"/>
<path d="M194.273 317.182H184.818V326.636H194.273V317.182Z" fill="white"/>
<path d="M222.636 317.182H213.182V326.636H222.636V317.182Z" fill="white"/>
<path d="M232.091 317.182H222.636V326.636H232.091V317.182Z" fill="white"/>
<path d="M260.455 317.182H251V326.636H260.455V317.182Z" fill="white"/>
<path d="M269.909 317.182H260.455V326.636H269.909V317.182Z" fill="white"/>
<path d="M279.364 317.182H269.909V326.636H279.364V317.182Z" fill="white"/>
<path d="M317.182 317.182H307.727V326.636H317.182V317.182Z" fill="white"/>
<path d="M326.636 317.182H317.182V326.636H326.636V317.182Z" fill="white"/>
<path d="M52.4545 326.636H43V336.091H52.4545V326.636Z" fill="white"/>
<path d="M71.3637 326.636H61.9092V336.091H71.3637V326.636Z" fill="white"/>
<path d="M80.8183 326.636H71.3638V336.091H80.8183V326.636Z" fill="white"/>
<path d="M90.2729 326.636H80.8184V336.091H90.2729V326.636Z" fill="white"/>
<path d="M109.182 326.636H99.7271V336.091H109.182V326.636Z" fill="white"/>
<path d="M128.091 326.636H118.636V336.091H128.091V326.636Z" fill="white"/>
<path d="M147 326.636H137.545V336.091H147V326.636Z" fill="white"/>
<path d="M156.455 326.636H147V336.091H156.455V326.636Z" fill="white"/>
<path d="M165.909 326.636H156.455V336.091H165.909V326.636Z" fill="white"/>
<path d="M175.364 326.636H165.909V336.091H175.364V326.636Z" fill="white"/>
<path d="M184.818 326.636H175.364V336.091H184.818V326.636Z" fill="white"/>
<path d="M194.273 326.636H184.818V336.091H194.273V326.636Z" fill="white"/>
<path d="M213.182 326.636H203.727V336.091H213.182V326.636Z" fill="white"/>
<path d="M232.091 326.636H222.636V336.091H232.091V326.636Z" fill="white"/>
<path d="M251 326.636H241.545V336.091H251V326.636Z" fill="white"/>
<path d="M269.909 326.636H260.455V336.091H269.909V326.636Z" fill="white"/>
<path d="M279.364 326.636H269.909V336.091H279.364V326.636Z" fill="white"/>
<path d="M307.727 326.636H298.273V336.091H307.727V326.636Z" fill="white"/>
<path d="M317.182 326.636H307.727V336.091H317.182V326.636Z" fill="white"/>
<path d="M52.4545 336.091H43V345.545H52.4545V336.091Z" fill="white"/>
<path d="M109.182 336.091H99.7271V345.545H109.182V336.091Z" fill="white"/>
<path d="M147 336.091H137.545V345.545H147V336.091Z" fill="white"/>
<path d="M156.455 336.091H147V345.545H156.455V336.091Z" fill="white"/>
<path d="M184.818 336.091H175.364V345.545H184.818V336.091Z" fill="white"/>
<path d="M203.727 336.091H194.273V345.545H203.727V336.091Z" fill="white"/>
<path d="M260.455 336.091H251V345.545H260.455V336.091Z" fill="white"/>
<path d="M288.818 336.091H279.364V345.545H288.818V336.091Z" fill="white"/>
<path d="M298.273 336.091H288.818V345.545H298.273V336.091Z" fill="white"/>
<path d="M317.182 336.091H307.727V345.545H317.182V336.091Z" fill="white"/>
<path d="M326.636 336.091H317.182V345.545H326.636V336.091Z" fill="white"/>
<path d="M345.545 336.091H336.091V345.545H345.545V336.091Z" fill="white"/>
<path d="M52.4545 345.545H43V355H52.4545V345.545Z" fill="white"/>
<path d="M61.9091 345.545H52.4546V355H61.9091V345.545Z" fill="white"/>
<path d="M71.3637 345.545H61.9092V355H71.3637V345.545Z" fill="white"/>
<path d="M80.8183 345.545H71.3638V355H80.8183V345.545Z" fill="white"/>
<path d="M90.2729 345.545H80.8184V355H90.2729V345.545Z" fill="white"/>
<path d="M99.7275 345.545H90.2729V355H99.7275V345.545Z" fill="white"/>
<path d="M109.182 345.545H99.7271V355H109.182V345.545Z" fill="white"/>
<path d="M147 345.545H137.545V355H147V345.545Z" fill="white"/>
<path d="M165.909 345.545H156.455V355H165.909V345.545Z" fill="white"/>
<path d="M175.364 345.545H165.909V355H175.364V345.545Z" fill="white"/>
<path d="M194.273 345.545H184.818V355H194.273V345.545Z" fill="white"/>
<path d="M213.182 345.545H203.727V355H213.182V345.545Z" fill="white"/>
<path d="M222.636 345.545H213.182V355H222.636V345.545Z" fill="white"/>
<path d="M241.545 345.545H232.091V355H241.545V345.545Z" fill="white"/>
<path d="M251 345.545H241.545V355H251V345.545Z" fill="white"/>
<path d="M260.455 345.545H251V355H260.455V345.545Z" fill="white"/>
<path d="M269.909 345.545H260.455V355H269.909V345.545Z" fill="white"/>
<path d="M288.818 345.545H279.364V355H288.818V345.545Z" fill="white"/>
<path d="M298.273 345.545H288.818V355H298.273V345.545Z" fill="white"/>
<path d="M307.727 345.545H298.273V355H307.727V345.545Z" fill="white"/>
<path d="M317.182 345.545H307.727V355H317.182V345.545Z" fill="white"/>
<path d="M336.091 345.545H326.636V355H336.091V345.545Z" fill="white"/>
<defs>
<linearGradient id="paint0_linear_0_1" x1="201.724" y1="227.472" x2="201.724" y2="13.0318" gradientUnits="userSpaceOnUse">
<stop stop-color="#667E00"/>
<stop offset="0.68" stop-color="#A2C521"/>
</linearGradient>
<linearGradient id="paint1_linear_0_1" x1="198.6" y1="3.5655" x2="198.6" y2="210.433" gradientUnits="userSpaceOnUse">
<stop stop-color="#F0CA57"/>
<stop offset="1" stop-color="#D45B1A"/>
</linearGradient>
</defs>
</svg>
