<svg width="430" height="525" viewBox="0 0 430 525" fill="none" xmlns="http://www.w3.org/2000/svg">
<path d="M149.823 240.337C149.823 240.337 1.51801 327.782 -18 349L-11.3655 321.665L41.3192 220.89L157.369 223.446L149.823 240.337Z" fill="#D57F4C"/>
<path d="M93.4131 270.995C24.4922 291.902 -21.3971 346.573 -37.7219 379.439C-62.4757 350.675 -146.105 285.68 -129.322 280.472C-108.342 273.963 1.49526 205.838 58.7397 163.505C115.984 121.172 167.218 133.929 201.127 118.136C232.935 103.321 231.399 83.4682 298.968 31.509C353.022 -10.0583 432.689 4.72064 465.766 17.306L447.411 58.3928L465.766 126C429.058 136.253 316.268 191.792 277.747 191.792C227.5 191.792 179.564 244.861 93.4131 270.995Z" fill="#EBCC63"/>
<path d="M176.5 224.775C170.332 222.728 171.525 216.886 171.199 216.032C172.254 213.67 169.955 214.06 170.03 209.135C170.105 204.211 179.891 202.916 185.016 200.956C190.141 198.996 190.594 202.739 189.865 205.955C189.137 209.171 192.479 212.789 194.376 216.47C196.273 220.15 192.454 225.527 188.384 225.125C184.314 224.724 182.669 226.822 176.5 224.775Z" fill="#EEAD6D"/>
<path d="M31.706 229.38C28.9259 228.769 29.1798 226.17 28.9986 225.813C29.3507 224.736 28.3671 225.011 28.1757 222.862C27.9843 220.714 32.1882 219.704 34.3315 218.617C36.4749 217.53 36.8424 219.141 36.6714 220.575C36.5005 222.009 38.1208 223.432 39.1147 224.949C40.1086 226.466 38.6898 228.982 36.8986 228.992C35.1074 229.003 34.486 229.992 31.706 229.38Z" fill="#EEAD6D"/>
<path d="M332.122 29.8517C325.71 31.5204 322.123 39.5505 321.131 43.3569C319.261 48.1877 319.021 48.0804 317.175 52.2135C315.328 56.3466 324.65 57.6775 335.679 58.355C346.709 59.0326 350.012 48.4675 352.461 38.2291C354.91 27.9908 340.137 27.7658 332.122 29.8517Z" fill="#EEAD6D"/>
</svg>
